<?xml version="1.0" encoding="UTF-8" standalone="yes"?>
                 <!DOCTYPE svg PUBLIC "-//W3C//DTD SVG 1.0//EN" "http://www.w3.org/TR/2001/REC-SVG-20010904/DTD/svg10.dtd">
                 <svg height="170" width="1020" xmlns="http://www.w3.org/2000/svg" xmlns:xlink="http://www.w3.org/1999/xlink">
                 <line x1="85" y1="120" x2="987" y2="120" style="stroke:rgb(99,99,99);stroke-width:2" />
<rect height="7.000000" width="2.000000" x="85.000000" y="120.000000" fill="rgb(0, 0, 0)" style="fill-opacity:1.00" />
<text x="107.000000" y="140">
1
</text>
<rect height="7.000000" width="2.000000" x="145.000000" y="120.000000" fill="rgb(0, 0, 0)" style="fill-opacity:1.00" />
<text x="167.000000" y="140">
2
</text>
<rect height="7.000000" width="2.000000" x="205.000000" y="120.000000" fill="rgb(0, 0, 0)" style="fill-opacity:1.00" />
<text x="227.000000" y="140">
3
</text>
<rect height="7.000000" width="2.000000" x="265.000000" y="120.000000" fill="rgb(0, 0, 0)" style="fill-opacity:1.00" />
<text x="287.000000" y="140">
4
</text>
<rect height="7.000000" width="2.000000" x="325.000000" y="120.000000" fill="rgb(0, 0, 0)" style="fill-opacity:1.00" />
<text x="347.000000" y="140">
5
</text>
<rect height="7.000000" width="2.000000" x="385.000000" y="120.000000" fill="rgb(0, 0, 0)" style="fill-opacity:1.00" />
<text x="407.000000" y="140">
6
</text>
<rect height="7.000000" width="2.000000" x="445.000000" y="120.000000" fill="rgb(0, 0, 0)" style="fill-opacity:1.00" />
<text x="467.000000" y="140">
7
</text>
<rect height="7.000000" width="2.000000" x="505.000000" y="120.000000" fill="rgb(0, 0, 0)" style="fill-opacity:1.00" />
<text x="527.000000" y="140">
8
</text>
<rect height="7.000000" width="2.000000" x="565.000000" y="120.000000" fill="rgb(0, 0, 0)" style="fill-opacity:1.00" />
<text x="587.000000" y="140">
9
</text>
<rect height="7.000000" width="2.000000" x="625.000000" y="120.000000" fill="rgb(0, 0, 0)" style="fill-opacity:1.00" />
<text x="647.000000" y="140">
10
</text>
<rect height="7.000000" width="2.000000" x="685.000000" y="120.000000" fill="rgb(0, 0, 0)" style="fill-opacity:1.00" />
<text x="707.000000" y="140">
11
</text>
<rect height="7.000000" width="2.000000" x="745.000000" y="120.000000" fill="rgb(0, 0, 0)" style="fill-opacity:1.00" />
<text x="767.000000" y="140">
12
</text>
<rect height="7.000000" width="2.000000" x="805.000000" y="120.000000" fill="rgb(0, 0, 0)" style="fill-opacity:1.00" />
<text x="827.000000" y="140">
13
</text>
<rect height="7.000000" width="2.000000" x="865.000000" y="120.000000" fill="rgb(0, 0, 0)" style="fill-opacity:1.00" />
<text x="887.000000" y="140">
14
</text>
<rect height="7.000000" width="2.000000" x="925.000000" y="120.000000" fill="rgb(0, 0, 0)" style="fill-opacity:1.00" />
<text x="947.000000" y="140">
15
</text>
<rect height="7.000000" width="2.000000" x="985.000000" y="120.000000" fill="rgb(0, 0, 0)" style="fill-opacity:1.00" />
<line x1="80" y1="112" x2="80" y2="10" style="stroke:rgb(99,99,99);stroke-width:2" />
<rect height="2.000000" width="7.000000" x="73.000000" y="110.000000" fill="rgb(0, 0, 0)" style="fill-opacity:1.00" />
<text x="63" y="115">
0
</text>
<rect height="2.000000" width="7.000000" x="73.000000" y="60.000000" fill="rgb(0, 0, 0)" style="fill-opacity:1.00" />
<text x="63" y="65">
1
</text>
<rect height="2.000000" width="7.000000" x="73.000000" y="10.000000" fill="rgb(0, 0, 0)" style="fill-opacity:1.00" />
<text x="63" y="15">
2
</text>
<text x="50" y="65"
transform="rotate(-90, 50, 70)">
bits
</text>
<!-- Begin 'A' -->
<polygon points=" 90.000000, 105.510039, 111.000000, 102.761252, 119.000000, 102.761252, 140.000000, 105.510039, 132.500000, 105.510039, 126.250000, 104.822843, 103.750000, 104.822843, 97.500000, 105.510039" fill="rgb(178, 34, 34)" style="fill-opacity:1.00" />
<!-- End 'A' -->
<!-- Begin 'T' -->
<rect height="0.383480" width="50.000000" x="90.000000" y="105.510039" fill="rgb(0, 100, 0)" style="fill-opacity:1.00" />
<rect height="2.396752" width="10.000000" x="110.000000" y="105.510039" fill="rgb(0, 100, 0)" style="fill-opacity:1.00" />
<!-- End 'T' -->
<!-- Begin 'G' -->
<ellipse cx="115.000000" cy="108.544303" rx="25.000000" ry="0.637512" fill="rgb(255, 165, 0)" style="fill-opacity:1.00" />
<ellipse cx="115.000000" cy="108.544303" rx="16.666667" ry="0.425008" fill="rgb(255, 255, 255)" style="fill-opacity:1.00" />
<rect height="0.637512" width="25.000000" x="115.000000" y="108.225548" fill="rgb(255, 255, 255)" style="fill-opacity:1.00" />
<rect height="0.159378" width="25.000000" x="115.000000" y="108.703681" fill="rgb(255, 165, 0)" style="fill-opacity:1.00" />
<rect height="0.478134" width="6.250000" x="133.750000" y="108.703681" fill="rgb(255, 165, 0)" style="fill-opacity:1.00" />
<!-- End 'G' -->
<!-- Begin 'C' -->
<ellipse cx="115.000000" cy="109.590908" rx="25.000000" ry="0.409092" fill="rgb(0, 0, 128)" style="fill-opacity:1.00" />
<ellipse cx="115.000000" cy="109.590908" rx="16.666667" ry="0.272728" fill="rgb(255, 255, 255)" style="fill-opacity:1.00" />
<rect height="0.409092" width="25.000000" x="115.000000" y="109.386362" fill="rgb(255, 255, 255)" style="fill-opacity:1.00" />
<!-- End 'C' -->
<!-- Begin 'T' -->
<rect height="0.421957" width="50.000000" x="150.000000" y="103.263866" fill="rgb(0, 100, 0)" style="fill-opacity:1.00" />
<rect height="2.637233" width="10.000000" x="170.000000" y="103.263866" fill="rgb(0, 100, 0)" style="fill-opacity:1.00" />
<!-- End 'T' -->
<!-- Begin 'A' -->
<polygon points=" 150.000000, 108.027011, 171.000000, 105.901100, 179.000000, 105.901100, 200.000000, 108.027011, 192.500000, 108.027011, 186.250000, 107.495533, 163.750000, 107.495533, 157.500000, 108.027011" fill="rgb(178, 34, 34)" style="fill-opacity:1.00" />
<!-- End 'A' -->
<!-- Begin 'C' -->
<ellipse cx="175.000000" cy="108.558431" rx="25.000000" ry="0.531420" fill="rgb(0, 0, 128)" style="fill-opacity:1.00" />
<ellipse cx="175.000000" cy="108.558431" rx="16.666667" ry="0.354280" fill="rgb(255, 255, 255)" style="fill-opacity:1.00" />
<rect height="0.531420" width="25.000000" x="175.000000" y="108.292721" fill="rgb(255, 255, 255)" style="fill-opacity:1.00" />
<!-- End 'C' -->
<!-- Begin 'G' -->
<ellipse cx="175.000000" cy="109.544925" rx="25.000000" ry="0.455075" fill="rgb(255, 165, 0)" style="fill-opacity:1.00" />
<ellipse cx="175.000000" cy="109.544925" rx="16.666667" ry="0.303383" fill="rgb(255, 255, 255)" style="fill-opacity:1.00" />
<rect height="0.455075" width="25.000000" x="175.000000" y="109.317388" fill="rgb(255, 255, 255)" style="fill-opacity:1.00" />
<rect height="0.113769" width="25.000000" x="175.000000" y="109.658694" fill="rgb(255, 165, 0)" style="fill-opacity:1.00" />
<rect height="0.341306" width="6.250000" x="193.750000" y="109.658694" fill="rgb(255, 165, 0)" style="fill-opacity:1.00" />
<!-- End 'G' -->
<!-- Begin 'A' -->
<polygon points=" 210.000000, 105.754142, 231.000000, 102.935337, 239.000000, 102.935337, 260.000000, 105.754142, 252.500000, 105.754142, 246.250000, 105.049441, 223.750000, 105.049441, 217.500000, 105.754142" fill="rgb(178, 34, 34)" style="fill-opacity:1.00" />
<!-- End 'A' -->
<!-- Begin 'T' -->
<rect height="0.323718" width="50.000000" x="210.000000" y="105.754142" fill="rgb(0, 100, 0)" style="fill-opacity:1.00" />
<rect height="2.023240" width="10.000000" x="230.000000" y="105.754142" fill="rgb(0, 100, 0)" style="fill-opacity:1.00" />
<!-- End 'T' -->
<!-- Begin 'C' -->
<ellipse cx="235.000000" cy="108.520378" rx="25.000000" ry="0.742996" fill="rgb(0, 0, 128)" style="fill-opacity:1.00" />
<ellipse cx="235.000000" cy="108.520378" rx="16.666667" ry="0.495331" fill="rgb(255, 255, 255)" style="fill-opacity:1.00" />
<rect height="0.742996" width="25.000000" x="235.000000" y="108.148880" fill="rgb(255, 255, 255)" style="fill-opacity:1.00" />
<!-- End 'C' -->
<!-- Begin 'G' -->
<ellipse cx="235.000000" cy="109.631687" rx="25.000000" ry="0.368313" fill="rgb(255, 165, 0)" style="fill-opacity:1.00" />
<ellipse cx="235.000000" cy="109.631687" rx="16.666667" ry="0.245542" fill="rgb(255, 255, 255)" style="fill-opacity:1.00" />
<rect height="0.368313" width="25.000000" x="235.000000" y="109.447531" fill="rgb(255, 255, 255)" style="fill-opacity:1.00" />
<rect height="0.092078" width="25.000000" x="235.000000" y="109.723766" fill="rgb(255, 165, 0)" style="fill-opacity:1.00" />
<rect height="0.276234" width="6.250000" x="253.750000" y="109.723766" fill="rgb(255, 165, 0)" style="fill-opacity:1.00" />
<!-- End 'G' -->
<!-- Begin 'A' -->
<polygon points=" 270.000000, 107.568442, 291.000000, 106.118228, 299.000000, 106.118228, 320.000000, 107.568442, 312.500000, 107.568442, 306.250000, 107.205888, 283.750000, 107.205888, 277.500000, 107.568442" fill="rgb(178, 34, 34)" style="fill-opacity:1.00" />
<!-- End 'A' -->
<!-- Begin 'T' -->
<rect height="0.171724" width="50.000000" x="270.000000" y="107.568442" fill="rgb(0, 100, 0)" style="fill-opacity:1.00" />
<rect height="1.073275" width="10.000000" x="290.000000" y="107.568442" fill="rgb(0, 100, 0)" style="fill-opacity:1.00" />
<!-- End 'T' -->
<!-- Begin 'G' -->
<ellipse cx="295.000000" cy="109.003937" rx="25.000000" ry="0.362220" fill="rgb(255, 165, 0)" style="fill-opacity:1.00" />
<ellipse cx="295.000000" cy="109.003937" rx="16.666667" ry="0.241480" fill="rgb(255, 255, 255)" style="fill-opacity:1.00" />
<rect height="0.362220" width="25.000000" x="295.000000" y="108.822827" fill="rgb(255, 255, 255)" style="fill-opacity:1.00" />
<rect height="0.090555" width="25.000000" x="295.000000" y="109.094492" fill="rgb(255, 165, 0)" style="fill-opacity:1.00" />
<rect height="0.271665" width="6.250000" x="313.750000" y="109.094492" fill="rgb(255, 165, 0)" style="fill-opacity:1.00" />
<!-- End 'G' -->
<!-- Begin 'C' -->
<ellipse cx="295.000000" cy="109.683079" rx="25.000000" ry="0.316921" fill="rgb(0, 0, 128)" style="fill-opacity:1.00" />
<ellipse cx="295.000000" cy="109.683079" rx="16.666667" ry="0.211281" fill="rgb(255, 255, 255)" style="fill-opacity:1.00" />
<rect height="0.316921" width="25.000000" x="295.000000" y="109.524618" fill="rgb(255, 255, 255)" style="fill-opacity:1.00" />
<!-- End 'C' -->
<!-- Begin 'A' -->
<polygon points=" 330.000000, 103.962827, 351.000000, 98.528498, 359.000000, 98.528498, 380.000000, 103.962827, 372.500000, 103.962827, 366.250000, 102.604245, 343.750000, 102.604245, 337.500000, 103.962827" fill="rgb(178, 34, 34)" style="fill-opacity:1.00" />
<!-- End 'A' -->
<!-- Begin 'T' -->
<rect height="0.506499" width="50.000000" x="330.000000" y="103.962827" fill="rgb(0, 100, 0)" style="fill-opacity:1.00" />
<rect height="3.165622" width="10.000000" x="350.000000" y="103.962827" fill="rgb(0, 100, 0)" style="fill-opacity:1.00" />
<!-- End 'T' -->
<!-- Begin 'C' -->
<ellipse cx="355.000000" cy="107.940748" rx="25.000000" ry="0.812299" fill="rgb(0, 0, 128)" style="fill-opacity:1.00" />
<ellipse cx="355.000000" cy="107.940748" rx="16.666667" ry="0.541533" fill="rgb(255, 255, 255)" style="fill-opacity:1.00" />
<rect height="0.812299" width="25.000000" x="355.000000" y="107.534598" fill="rgb(255, 255, 255)" style="fill-opacity:1.00" />
<!-- End 'C' -->
<!-- Begin 'G' -->
<ellipse cx="355.000000" cy="109.376524" rx="25.000000" ry="0.623476" fill="rgb(255, 165, 0)" style="fill-opacity:1.00" />
<ellipse cx="355.000000" cy="109.376524" rx="16.666667" ry="0.415651" fill="rgb(255, 255, 255)" style="fill-opacity:1.00" />
<rect height="0.623476" width="25.000000" x="355.000000" y="109.064785" fill="rgb(255, 255, 255)" style="fill-opacity:1.00" />
<rect height="0.155869" width="25.000000" x="355.000000" y="109.532393" fill="rgb(255, 165, 0)" style="fill-opacity:1.00" />
<rect height="0.467607" width="6.250000" x="373.750000" y="109.532393" fill="rgb(255, 165, 0)" style="fill-opacity:1.00" />
<!-- End 'G' -->
<!-- Begin 'T' -->
<rect height="7.676293" width="50.000000" x="390.000000" y="52.086594" fill="rgb(0, 100, 0)" style="fill-opacity:1.00" />
<rect height="47.976833" width="10.000000" x="410.000000" y="52.086594" fill="rgb(0, 100, 0)" style="fill-opacity:1.00" />
<!-- End 'T' -->
<!-- Begin 'A' -->
<polygon points=" 390.000000, 107.051083, 411.000000, 100.063427, 419.000000, 100.063427, 440.000000, 107.051083, 432.500000, 107.051083, 426.250000, 105.304169, 403.750000, 105.304169, 397.500000, 107.051083" fill="rgb(178, 34, 34)" style="fill-opacity:1.00" />
<!-- End 'A' -->
<!-- Begin 'C' -->
<ellipse cx="415.000000" cy="108.317359" rx="25.000000" ry="1.266276" fill="rgb(0, 0, 128)" style="fill-opacity:1.00" />
<ellipse cx="415.000000" cy="108.317359" rx="16.666667" ry="0.844184" fill="rgb(255, 255, 255)" style="fill-opacity:1.00" />
<rect height="1.266276" width="25.000000" x="415.000000" y="107.684221" fill="rgb(255, 255, 255)" style="fill-opacity:1.00" />
<!-- End 'C' -->
<!-- Begin 'G' -->
<ellipse cx="415.000000" cy="109.791818" rx="25.000000" ry="0.208182" fill="rgb(255, 165, 0)" style="fill-opacity:1.00" />
<ellipse cx="415.000000" cy="109.791818" rx="16.666667" ry="0.138788" fill="rgb(255, 255, 255)" style="fill-opacity:1.00" />
<rect height="0.208182" width="25.000000" x="415.000000" y="109.687726" fill="rgb(255, 255, 255)" style="fill-opacity:1.00" />
<rect height="0.052046" width="25.000000" x="415.000000" y="109.843863" fill="rgb(255, 165, 0)" style="fill-opacity:1.00" />
<rect height="0.156137" width="6.250000" x="433.750000" y="109.843863" fill="rgb(255, 165, 0)" style="fill-opacity:1.00" />
<!-- End 'G' -->
<!-- Begin 'A' -->
<polygon points=" 450.000000, 106.290164, 471.000000, 25.654051, 479.000000, 25.654051, 500.000000, 106.290164, 492.500000, 106.290164, 486.250000, 86.131136, 463.750000, 86.131136, 457.500000, 106.290164" fill="rgb(178, 34, 34)" style="fill-opacity:1.00" />
<polygon points=" 475.000000, 41.781274, 467.000000, 73.035719, 482.000000, 73.035719" fill="rgb(255, 255, 255)" style="fill-opacity:1.00" />
<!-- End 'A' -->
<!-- Begin 'T' -->
<rect height="0.307576" width="50.000000" x="450.000000" y="106.290164" fill="rgb(0, 100, 0)" style="fill-opacity:1.00" />
<rect height="1.922348" width="10.000000" x="470.000000" y="106.290164" fill="rgb(0, 100, 0)" style="fill-opacity:1.00" />
<!-- End 'T' -->
<!-- Begin 'G' -->
<ellipse cx="475.000000" cy="109.030529" rx="25.000000" ry="0.818018" fill="rgb(255, 165, 0)" style="fill-opacity:1.00" />
<ellipse cx="475.000000" cy="109.030529" rx="16.666667" ry="0.545345" fill="rgb(255, 255, 255)" style="fill-opacity:1.00" />
<rect height="0.818018" width="25.000000" x="475.000000" y="108.621521" fill="rgb(255, 255, 255)" style="fill-opacity:1.00" />
<rect height="0.204504" width="25.000000" x="475.000000" y="109.235034" fill="rgb(255, 165, 0)" style="fill-opacity:1.00" />
<rect height="0.613513" width="6.250000" x="493.750000" y="109.235034" fill="rgb(255, 165, 0)" style="fill-opacity:1.00" />
<!-- End 'G' -->
<!-- Begin 'C' -->
<ellipse cx="475.000000" cy="109.924273" rx="25.000000" ry="0.075727" fill="rgb(0, 0, 128)" style="fill-opacity:1.00" />
<ellipse cx="475.000000" cy="109.924273" rx="16.666667" ry="0.050484" fill="rgb(255, 255, 255)" style="fill-opacity:1.00" />
<rect height="0.075727" width="25.000000" x="475.000000" y="109.886410" fill="rgb(255, 255, 255)" style="fill-opacity:1.00" />
<!-- End 'C' -->
<!-- Begin 'A' -->
<polygon points=" 510.000000, 107.999486, 531.000000, 19.287336, 539.000000, 19.287336, 560.000000, 107.999486, 552.500000, 107.999486, 546.250000, 85.821449, 523.750000, 85.821449, 517.500000, 107.999486" fill="rgb(178, 34, 34)" style="fill-opacity:1.00" />
<polygon points=" 535.000000, 37.029766, 527.000000, 71.514626, 542.000000, 71.514626" fill="rgb(255, 255, 255)" style="fill-opacity:1.00" />
<!-- End 'A' -->
<!-- Begin 'C' -->
<ellipse cx="535.000000" cy="108.481250" rx="25.000000" ry="0.481764" fill="rgb(0, 0, 128)" style="fill-opacity:1.00" />
<ellipse cx="535.000000" cy="108.481250" rx="16.666667" ry="0.321176" fill="rgb(255, 255, 255)" style="fill-opacity:1.00" />
<rect height="0.481764" width="25.000000" x="535.000000" y="108.240368" fill="rgb(255, 255, 255)" style="fill-opacity:1.00" />
<!-- End 'C' -->
<!-- Begin 'T' -->
<rect height="0.103988" width="50.000000" x="510.000000" y="108.963014" fill="rgb(0, 100, 0)" style="fill-opacity:1.00" />
<rect height="0.649924" width="10.000000" x="530.000000" y="108.963014" fill="rgb(0, 100, 0)" style="fill-opacity:1.00" />
<!-- End 'T' -->
<!-- Begin 'G' -->
<ellipse cx="535.000000" cy="109.806469" rx="25.000000" ry="0.193531" fill="rgb(255, 165, 0)" style="fill-opacity:1.00" />
<ellipse cx="535.000000" cy="109.806469" rx="16.666667" ry="0.129021" fill="rgb(255, 255, 255)" style="fill-opacity:1.00" />
<rect height="0.193531" width="25.000000" x="535.000000" y="109.709704" fill="rgb(255, 255, 255)" style="fill-opacity:1.00" />
<rect height="0.048383" width="25.000000" x="535.000000" y="109.854852" fill="rgb(255, 165, 0)" style="fill-opacity:1.00" />
<rect height="0.145148" width="6.250000" x="553.750000" y="109.854852" fill="rgb(255, 165, 0)" style="fill-opacity:1.00" />
<!-- End 'G' -->
<!-- Begin 'C' -->
<ellipse cx="595.000000" cy="63.106485" rx="25.000000" ry="45.054317" fill="rgb(0, 0, 128)" style="fill-opacity:1.00" />
<ellipse cx="595.000000" cy="63.106485" rx="16.666667" ry="30.036211" fill="rgb(255, 255, 255)" style="fill-opacity:1.00" />
<rect height="45.054317" width="25.000000" x="595.000000" y="40.579327" fill="rgb(255, 255, 255)" style="fill-opacity:1.00" />
<!-- End 'C' -->
<!-- Begin 'A' -->
<polygon points=" 570.000000, 109.344215, 591.000000, 108.160802, 599.000000, 108.160802, 620.000000, 109.344215, 612.500000, 109.344215, 606.250000, 109.048362, 583.750000, 109.048362, 577.500000, 109.344215" fill="rgb(178, 34, 34)" style="fill-opacity:1.00" />
<!-- End 'A' -->
<!-- Begin 'T' -->
<rect height="0.103380" width="50.000000" x="570.000000" y="109.344215" fill="rgb(0, 100, 0)" style="fill-opacity:1.00" />
<rect height="0.646124" width="10.000000" x="590.000000" y="109.344215" fill="rgb(0, 100, 0)" style="fill-opacity:1.00" />
<!-- End 'T' -->
<!-- Begin 'G' -->
<ellipse cx="595.000000" cy="109.995170" rx="25.000000" ry="0.004830" fill="rgb(255, 165, 0)" style="fill-opacity:1.00" />
<ellipse cx="595.000000" cy="109.995170" rx="16.666667" ry="0.003220" fill="rgb(255, 255, 255)" style="fill-opacity:1.00" />
<rect height="0.004830" width="25.000000" x="595.000000" y="109.992754" fill="rgb(255, 255, 255)" style="fill-opacity:1.00" />
<rect height="0.001208" width="25.000000" x="595.000000" y="109.996377" fill="rgb(255, 165, 0)" style="fill-opacity:1.00" />
<rect height="0.003623" width="6.250000" x="613.750000" y="109.996377" fill="rgb(255, 165, 0)" style="fill-opacity:1.00" />
<!-- End 'G' -->
<!-- Begin 'G' -->
<ellipse cx="655.000000" cy="103.751180" rx="25.000000" ry="1.840106" fill="rgb(255, 165, 0)" style="fill-opacity:1.00" />
<ellipse cx="655.000000" cy="103.751180" rx="16.666667" ry="1.226737" fill="rgb(255, 255, 255)" style="fill-opacity:1.00" />
<rect height="1.840106" width="25.000000" x="655.000000" y="102.831127" fill="rgb(255, 255, 255)" style="fill-opacity:1.00" />
<rect height="0.460027" width="25.000000" x="655.000000" y="104.211206" fill="rgb(255, 165, 0)" style="fill-opacity:1.00" />
<rect height="1.380080" width="6.250000" x="673.750000" y="104.211206" fill="rgb(255, 165, 0)" style="fill-opacity:1.00" />
<!-- End 'G' -->
<!-- Begin 'T' -->
<rect height="0.306525" width="50.000000" x="630.000000" y="105.591286" fill="rgb(0, 100, 0)" style="fill-opacity:1.00" />
<rect height="1.915779" width="10.000000" x="650.000000" y="105.591286" fill="rgb(0, 100, 0)" style="fill-opacity:1.00" />
<!-- End 'T' -->
<!-- Begin 'C' -->
<ellipse cx="655.000000" cy="108.194783" rx="25.000000" ry="0.687719" fill="rgb(0, 0, 128)" style="fill-opacity:1.00" />
<ellipse cx="655.000000" cy="108.194783" rx="16.666667" ry="0.458479" fill="rgb(255, 255, 255)" style="fill-opacity:1.00" />
<rect height="0.687719" width="25.000000" x="655.000000" y="107.850924" fill="rgb(255, 255, 255)" style="fill-opacity:1.00" />
<!-- End 'C' -->
<!-- Begin 'A' -->
<polygon points=" 630.000000, 110.000000, 651.000000, 108.882502, 659.000000, 108.882502, 680.000000, 110.000000, 672.500000, 110.000000, 666.250000, 109.720626, 643.750000, 109.720626, 637.500000, 110.000000" fill="rgb(178, 34, 34)" style="fill-opacity:1.00" />
<!-- End 'A' -->
<!-- Begin 'G' -->
<ellipse cx="715.000000" cy="76.775101" rx="25.000000" ry="14.329847" fill="rgb(255, 165, 0)" style="fill-opacity:1.00" />
<ellipse cx="715.000000" cy="76.775101" rx="16.666667" ry="9.553231" fill="rgb(255, 255, 255)" style="fill-opacity:1.00" />
<rect height="14.329847" width="25.000000" x="715.000000" y="69.610177" fill="rgb(255, 255, 255)" style="fill-opacity:1.00" />
<rect height="3.582462" width="25.000000" x="715.000000" y="80.357563" fill="rgb(255, 165, 0)" style="fill-opacity:1.00" />
<rect height="10.747385" width="6.250000" x="733.750000" y="80.357563" fill="rgb(255, 165, 0)" style="fill-opacity:1.00" />
<!-- End 'G' -->
<!-- Begin 'A' -->
<polygon points=" 690.000000, 109.498591, 711.000000, 91.104948, 719.000000, 91.104948, 740.000000, 109.498591, 732.500000, 109.498591, 726.250000, 104.900180, 703.750000, 104.900180, 697.500000, 109.498591" fill="rgb(178, 34, 34)" style="fill-opacity:1.00" />
<polygon points=" 715.000000, 94.783677, 707.000000, 101.141134, 722.000000, 101.141134" fill="rgb(255, 255, 255)" style="fill-opacity:1.00" />
<!-- End 'A' -->
<!-- Begin 'T' -->
<rect height="0.055970" width="50.000000" x="690.000000" y="109.498591" fill="rgb(0, 100, 0)" style="fill-opacity:1.00" />
<rect height="0.349815" width="10.000000" x="710.000000" y="109.498591" fill="rgb(0, 100, 0)" style="fill-opacity:1.00" />
<!-- End 'T' -->
<!-- Begin 'C' -->
<ellipse cx="715.000000" cy="109.924203" rx="25.000000" ry="0.075797" fill="rgb(0, 0, 128)" style="fill-opacity:1.00" />
<ellipse cx="715.000000" cy="109.924203" rx="16.666667" ry="0.050532" fill="rgb(255, 255, 255)" style="fill-opacity:1.00" />
<rect height="0.075797" width="25.000000" x="715.000000" y="109.886304" fill="rgb(255, 255, 255)" style="fill-opacity:1.00" />
<!-- End 'C' -->
<!-- Begin 'T' -->
<rect height="1.607228" width="50.000000" x="750.000000" y="87.614820" fill="rgb(0, 100, 0)" style="fill-opacity:1.00" />
<rect height="10.045174" width="10.000000" x="770.000000" y="87.614820" fill="rgb(0, 100, 0)" style="fill-opacity:1.00" />
<!-- End 'T' -->
<!-- Begin 'A' -->
<polygon points=" 750.000000, 106.731123, 771.000000, 97.659994, 779.000000, 97.659994, 800.000000, 106.731123, 792.500000, 106.731123, 786.250000, 104.463341, 763.750000, 104.463341, 757.500000, 106.731123" fill="rgb(178, 34, 34)" style="fill-opacity:1.00" />
<polygon points=" 775.000000, 99.474219, 767.000000, 102.102671, 782.000000, 102.102671" fill="rgb(255, 255, 255)" style="fill-opacity:1.00" />
<!-- End 'A' -->
<!-- Begin 'C' -->
<ellipse cx="775.000000" cy="108.067235" rx="25.000000" ry="1.336112" fill="rgb(0, 0, 128)" style="fill-opacity:1.00" />
<ellipse cx="775.000000" cy="108.067235" rx="16.666667" ry="0.890741" fill="rgb(255, 255, 255)" style="fill-opacity:1.00" />
<rect height="1.336112" width="25.000000" x="775.000000" y="107.399179" fill="rgb(255, 255, 255)" style="fill-opacity:1.00" />
<!-- End 'C' -->
<!-- Begin 'G' -->
<ellipse cx="775.000000" cy="109.701673" rx="25.000000" ry="0.298327" fill="rgb(255, 165, 0)" style="fill-opacity:1.00" />
<ellipse cx="775.000000" cy="109.701673" rx="16.666667" ry="0.198885" fill="rgb(255, 255, 255)" style="fill-opacity:1.00" />
<rect height="0.298327" width="25.000000" x="775.000000" y="109.552510" fill="rgb(255, 255, 255)" style="fill-opacity:1.00" />
<rect height="0.074582" width="25.000000" x="775.000000" y="109.776255" fill="rgb(255, 165, 0)" style="fill-opacity:1.00" />
<rect height="0.223745" width="6.250000" x="793.750000" y="109.776255" fill="rgb(255, 165, 0)" style="fill-opacity:1.00" />
<!-- End 'G' -->
<!-- Begin 'A' -->
<polygon points=" 810.000000, 102.796104, 831.000000, 98.154513, 839.000000, 98.154513, 860.000000, 102.796104, 852.500000, 102.796104, 846.250000, 101.635706, 823.750000, 101.635706, 817.500000, 102.796104" fill="rgb(178, 34, 34)" style="fill-opacity:1.00" />
<!-- End 'A' -->
<!-- Begin 'T' -->
<rect height="0.657095" width="50.000000" x="810.000000" y="102.796104" fill="rgb(0, 100, 0)" style="fill-opacity:1.00" />
<rect height="4.106847" width="10.000000" x="830.000000" y="102.796104" fill="rgb(0, 100, 0)" style="fill-opacity:1.00" />
<!-- End 'T' -->
<!-- Begin 'C' -->
<ellipse cx="835.000000" cy="108.114495" rx="25.000000" ry="1.211544" fill="rgb(0, 0, 128)" style="fill-opacity:1.00" />
<ellipse cx="835.000000" cy="108.114495" rx="16.666667" ry="0.807696" fill="rgb(255, 255, 255)" style="fill-opacity:1.00" />
<rect height="1.211544" width="25.000000" x="835.000000" y="107.508723" fill="rgb(255, 255, 255)" style="fill-opacity:1.00" />
<!-- End 'C' -->
<!-- Begin 'G' -->
<ellipse cx="835.000000" cy="109.663019" rx="25.000000" ry="0.336981" fill="rgb(255, 165, 0)" style="fill-opacity:1.00" />
<ellipse cx="835.000000" cy="109.663019" rx="16.666667" ry="0.224654" fill="rgb(255, 255, 255)" style="fill-opacity:1.00" />
<rect height="0.336981" width="25.000000" x="835.000000" y="109.494529" fill="rgb(255, 255, 255)" style="fill-opacity:1.00" />
<rect height="0.084245" width="25.000000" x="835.000000" y="109.747264" fill="rgb(255, 165, 0)" style="fill-opacity:1.00" />
<rect height="0.252736" width="6.250000" x="853.750000" y="109.747264" fill="rgb(255, 165, 0)" style="fill-opacity:1.00" />
<!-- End 'G' -->
<!-- Begin 'T' -->
<rect height="1.204980" width="50.000000" x="870.000000" y="92.801825" fill="rgb(0, 100, 0)" style="fill-opacity:1.00" />
<rect height="7.531122" width="10.000000" x="890.000000" y="92.801825" fill="rgb(0, 100, 0)" style="fill-opacity:1.00" />
<!-- End 'T' -->
<!-- Begin 'A' -->
<polygon points=" 870.000000, 106.983386, 891.000000, 100.332947, 899.000000, 100.332947, 920.000000, 106.983386, 912.500000, 106.983386, 906.250000, 105.320776, 883.750000, 105.320776, 877.500000, 106.983386" fill="rgb(178, 34, 34)" style="fill-opacity:1.00" />
<!-- End 'A' -->
<!-- Begin 'C' -->
<ellipse cx="895.000000" cy="107.963981" rx="25.000000" ry="0.980595" fill="rgb(0, 0, 128)" style="fill-opacity:1.00" />
<ellipse cx="895.000000" cy="107.963981" rx="16.666667" ry="0.653730" fill="rgb(255, 255, 255)" style="fill-opacity:1.00" />
<rect height="0.980595" width="25.000000" x="895.000000" y="107.473684" fill="rgb(255, 255, 255)" style="fill-opacity:1.00" />
<!-- End 'C' -->
<!-- Begin 'G' -->
<ellipse cx="895.000000" cy="109.472288" rx="25.000000" ry="0.527712" fill="rgb(255, 165, 0)" style="fill-opacity:1.00" />
<ellipse cx="895.000000" cy="109.472288" rx="16.666667" ry="0.351808" fill="rgb(255, 255, 255)" style="fill-opacity:1.00" />
<rect height="0.527712" width="25.000000" x="895.000000" y="109.208432" fill="rgb(255, 255, 255)" style="fill-opacity:1.00" />
<rect height="0.131928" width="25.000000" x="895.000000" y="109.604216" fill="rgb(255, 165, 0)" style="fill-opacity:1.00" />
<rect height="0.395784" width="6.250000" x="913.750000" y="109.604216" fill="rgb(255, 165, 0)" style="fill-opacity:1.00" />
<!-- End 'G' -->
<!-- Begin 'T' -->
<rect height="0.327511" width="50.000000" x="930.000000" y="104.614024" fill="rgb(0, 100, 0)" style="fill-opacity:1.00" />
<rect height="2.046942" width="10.000000" x="950.000000" y="104.614024" fill="rgb(0, 100, 0)" style="fill-opacity:1.00" />
<!-- End 'T' -->
<!-- Begin 'A' -->
<polygon points=" 930.000000, 108.196704, 951.000000, 106.660966, 959.000000, 106.660966, 980.000000, 108.196704, 972.500000, 108.196704, 966.250000, 107.812769, 943.750000, 107.812769, 937.500000, 108.196704" fill="rgb(178, 34, 34)" style="fill-opacity:1.00" />
<!-- End 'A' -->
<!-- Begin 'C' -->
<ellipse cx="955.000000" cy="108.768773" rx="25.000000" ry="0.572069" fill="rgb(0, 0, 128)" style="fill-opacity:1.00" />
<ellipse cx="955.000000" cy="108.768773" rx="16.666667" ry="0.381379" fill="rgb(255, 255, 255)" style="fill-opacity:1.00" />
<rect height="0.572069" width="25.000000" x="955.000000" y="108.482738" fill="rgb(255, 255, 255)" style="fill-opacity:1.00" />
<!-- End 'C' -->
<!-- Begin 'G' -->
<ellipse cx="955.000000" cy="109.670421" rx="25.000000" ry="0.329579" fill="rgb(255, 165, 0)" style="fill-opacity:1.00" />
<ellipse cx="955.000000" cy="109.670421" rx="16.666667" ry="0.219720" fill="rgb(255, 255, 255)" style="fill-opacity:1.00" />
<rect height="0.329579" width="25.000000" x="955.000000" y="109.505631" fill="rgb(255, 255, 255)" style="fill-opacity:1.00" />
<rect height="0.082395" width="25.000000" x="955.000000" y="109.752815" fill="rgb(255, 165, 0)" style="fill-opacity:1.00" />
<rect height="0.247185" width="6.250000" x="973.750000" y="109.752815" fill="rgb(255, 165, 0)" style="fill-opacity:1.00" />
<!-- End 'G' -->
<text x="520.000000" y="165">
IC = 9.48
</text>

</svg>
