<?xml version="1.0" encoding="UTF-8" standalone="yes"?>
                 <!DOCTYPE svg PUBLIC "-//W3C//DTD SVG 1.0//EN" "http://www.w3.org/TR/2001/REC-SVG-20010904/DTD/svg10.dtd">
                 <svg height="170" width="780" xmlns="http://www.w3.org/2000/svg" xmlns:xlink="http://www.w3.org/1999/xlink">
                 <line x1="85" y1="120" x2="747" y2="120" style="stroke:rgb(99,99,99);stroke-width:2" />
<rect height="7.000000" width="2.000000" x="85.000000" y="120.000000" fill="rgb(0, 0, 0)" style="fill-opacity:1.00" />
<text x="107.000000" y="140">
1
</text>
<rect height="7.000000" width="2.000000" x="145.000000" y="120.000000" fill="rgb(0, 0, 0)" style="fill-opacity:1.00" />
<text x="167.000000" y="140">
2
</text>
<rect height="7.000000" width="2.000000" x="205.000000" y="120.000000" fill="rgb(0, 0, 0)" style="fill-opacity:1.00" />
<text x="227.000000" y="140">
3
</text>
<rect height="7.000000" width="2.000000" x="265.000000" y="120.000000" fill="rgb(0, 0, 0)" style="fill-opacity:1.00" />
<text x="287.000000" y="140">
4
</text>
<rect height="7.000000" width="2.000000" x="325.000000" y="120.000000" fill="rgb(0, 0, 0)" style="fill-opacity:1.00" />
<text x="347.000000" y="140">
5
</text>
<rect height="7.000000" width="2.000000" x="385.000000" y="120.000000" fill="rgb(0, 0, 0)" style="fill-opacity:1.00" />
<text x="407.000000" y="140">
6
</text>
<rect height="7.000000" width="2.000000" x="445.000000" y="120.000000" fill="rgb(0, 0, 0)" style="fill-opacity:1.00" />
<text x="467.000000" y="140">
7
</text>
<rect height="7.000000" width="2.000000" x="505.000000" y="120.000000" fill="rgb(0, 0, 0)" style="fill-opacity:1.00" />
<text x="527.000000" y="140">
8
</text>
<rect height="7.000000" width="2.000000" x="565.000000" y="120.000000" fill="rgb(0, 0, 0)" style="fill-opacity:1.00" />
<text x="587.000000" y="140">
9
</text>
<rect height="7.000000" width="2.000000" x="625.000000" y="120.000000" fill="rgb(0, 0, 0)" style="fill-opacity:1.00" />
<text x="647.000000" y="140">
10
</text>
<rect height="7.000000" width="2.000000" x="685.000000" y="120.000000" fill="rgb(0, 0, 0)" style="fill-opacity:1.00" />
<text x="707.000000" y="140">
11
</text>
<rect height="7.000000" width="2.000000" x="745.000000" y="120.000000" fill="rgb(0, 0, 0)" style="fill-opacity:1.00" />
<line x1="80" y1="112" x2="80" y2="10" style="stroke:rgb(99,99,99);stroke-width:2" />
<rect height="2.000000" width="7.000000" x="73.000000" y="110.000000" fill="rgb(0, 0, 0)" style="fill-opacity:1.00" />
<text x="63" y="115">
0
</text>
<rect height="2.000000" width="7.000000" x="73.000000" y="60.000000" fill="rgb(0, 0, 0)" style="fill-opacity:1.00" />
<text x="63" y="65">
1
</text>
<rect height="2.000000" width="7.000000" x="73.000000" y="10.000000" fill="rgb(0, 0, 0)" style="fill-opacity:1.00" />
<text x="63" y="15">
2
</text>
<text x="50" y="65"
transform="rotate(-90, 50, 70)">
bits
</text>
<!-- Begin 'A' -->
<polygon points=" 90.000000, 103.036836, 111.000000, 98.546500, 119.000000, 98.546500, 140.000000, 103.036836, 132.500000, 103.036836, 126.250000, 101.914252, 103.750000, 101.914252, 97.500000, 103.036836" fill="rgb(178, 34, 34)" style="fill-opacity:1.00" />
<!-- End 'A' -->
<!-- Begin 'C' -->
<ellipse cx="115.000000" cy="104.814103" rx="25.000000" ry="1.777267" fill="rgb(0, 0, 128)" style="fill-opacity:1.00" />
<ellipse cx="115.000000" cy="104.814103" rx="16.666667" ry="1.184845" fill="rgb(255, 255, 255)" style="fill-opacity:1.00" />
<rect height="1.777267" width="25.000000" x="115.000000" y="103.925469" fill="rgb(255, 255, 255)" style="fill-opacity:1.00" />
<!-- End 'C' -->
<!-- Begin 'T' -->
<rect height="0.451599" width="50.000000" x="90.000000" y="106.591370" fill="rgb(0, 100, 0)" style="fill-opacity:1.00" />
<rect height="2.822497" width="10.000000" x="110.000000" y="106.591370" fill="rgb(0, 100, 0)" style="fill-opacity:1.00" />
<!-- End 'T' -->
<!-- Begin 'G' -->
<ellipse cx="115.000000" cy="109.706933" rx="25.000000" ry="0.293067" fill="rgb(255, 165, 0)" style="fill-opacity:1.00" />
<ellipse cx="115.000000" cy="109.706933" rx="16.666667" ry="0.195378" fill="rgb(255, 255, 255)" style="fill-opacity:1.00" />
<rect height="0.293067" width="25.000000" x="115.000000" y="109.560400" fill="rgb(255, 255, 255)" style="fill-opacity:1.00" />
<rect height="0.073267" width="25.000000" x="115.000000" y="109.780200" fill="rgb(255, 165, 0)" style="fill-opacity:1.00" />
<rect height="0.219800" width="6.250000" x="133.750000" y="109.780200" fill="rgb(255, 165, 0)" style="fill-opacity:1.00" />
<!-- End 'G' -->
<!-- Begin 'G' -->
<ellipse cx="175.000000" cy="72.400447" rx="25.000000" ry="28.689224" fill="rgb(255, 165, 0)" style="fill-opacity:1.00" />
<ellipse cx="175.000000" cy="72.400447" rx="16.666667" ry="19.126149" fill="rgb(255, 255, 255)" style="fill-opacity:1.00" />
<rect height="28.689224" width="25.000000" x="175.000000" y="58.055835" fill="rgb(255, 255, 255)" style="fill-opacity:1.00" />
<rect height="7.172306" width="25.000000" x="175.000000" y="79.572752" fill="rgb(255, 165, 0)" style="fill-opacity:1.00" />
<rect height="21.516918" width="6.250000" x="193.750000" y="79.572752" fill="rgb(255, 165, 0)" style="fill-opacity:1.00" />
<!-- End 'G' -->
<!-- Begin 'C' -->
<ellipse cx="175.000000" cy="105.530276" rx="25.000000" ry="4.440606" fill="rgb(0, 0, 128)" style="fill-opacity:1.00" />
<ellipse cx="175.000000" cy="105.530276" rx="16.666667" ry="2.960404" fill="rgb(255, 255, 255)" style="fill-opacity:1.00" />
<rect height="4.440606" width="25.000000" x="175.000000" y="103.309973" fill="rgb(255, 255, 255)" style="fill-opacity:1.00" />
<!-- End 'C' -->
<!-- Begin 'A' -->
<polygon points=" 150.000000, 110.509578, 171.000000, 109.970881, 179.000000, 109.970881, 200.000000, 110.509578, 192.500000, 110.509578, 186.250000, 110.374904, 163.750000, 110.374904, 157.500000, 110.509578" fill="rgb(178, 34, 34)" style="fill-opacity:1.00" />
<!-- End 'A' -->
<!-- Begin 'T' -->
<rect height="0.072214" width="50.000000" x="150.000000" y="110.509578" fill="rgb(0, 100, 0)" style="fill-opacity:1.00" />
<rect height="0.451340" width="10.000000" x="170.000000" y="110.509578" fill="rgb(0, 100, 0)" style="fill-opacity:1.00" />
<!-- End 'T' -->
<!-- Begin 'C' -->
<ellipse cx="235.000000" cy="60.598907" rx="25.000000" ry="50.786434" fill="rgb(0, 0, 128)" style="fill-opacity:1.00" />
<ellipse cx="235.000000" cy="60.598907" rx="16.666667" ry="33.857622" fill="rgb(255, 255, 255)" style="fill-opacity:1.00" />
<rect height="50.786434" width="25.000000" x="235.000000" y="35.205690" fill="rgb(255, 255, 255)" style="fill-opacity:1.00" />
<!-- End 'C' -->
<!-- Begin 'G' -->
<ellipse cx="235.000000" cy="111.441150" rx="25.000000" ry="0.055809" fill="rgb(255, 165, 0)" style="fill-opacity:1.00" />
<ellipse cx="235.000000" cy="111.441150" rx="16.666667" ry="0.037206" fill="rgb(255, 255, 255)" style="fill-opacity:1.00" />
<rect height="0.055809" width="25.000000" x="235.000000" y="111.413246" fill="rgb(255, 255, 255)" style="fill-opacity:1.00" />
<rect height="0.013952" width="25.000000" x="235.000000" y="111.455103" fill="rgb(255, 165, 0)" style="fill-opacity:1.00" />
<rect height="0.041857" width="6.250000" x="253.750000" y="111.455103" fill="rgb(255, 165, 0)" style="fill-opacity:1.00" />
<!-- End 'G' -->
<!-- Begin 'T' -->
<rect height="0.003572" width="50.000000" x="210.000000" y="111.496959" fill="rgb(0, 100, 0)" style="fill-opacity:1.00" />
<rect height="0.022324" width="10.000000" x="230.000000" y="111.496959" fill="rgb(0, 100, 0)" style="fill-opacity:1.00" />
<!-- End 'T' -->
<!-- Begin 'A' -->
<polygon points=" 210.000000, 111.541607, 231.000000, 111.519283, 239.000000, 111.519283, 260.000000, 111.541607, 252.500000, 111.541607, 246.250000, 111.536026, 223.750000, 111.536026, 217.500000, 111.541607" fill="rgb(178, 34, 34)" style="fill-opacity:1.00" />
<!-- End 'A' -->
<!-- Begin 'C' -->
<ellipse cx="295.000000" cy="64.605918" rx="25.000000" ry="46.750278" fill="rgb(0, 0, 128)" style="fill-opacity:1.00" />
<ellipse cx="295.000000" cy="64.605918" rx="16.666667" ry="31.166852" fill="rgb(255, 255, 255)" style="fill-opacity:1.00" />
<rect height="46.750278" width="25.000000" x="295.000000" y="41.230779" fill="rgb(255, 255, 255)" style="fill-opacity:1.00" />
<!-- End 'C' -->
<!-- Begin 'T' -->
<rect height="0.522781" width="50.000000" x="270.000000" y="111.356196" fill="rgb(0, 100, 0)" style="fill-opacity:1.00" />
<rect height="3.267382" width="10.000000" x="290.000000" y="111.356196" fill="rgb(0, 100, 0)" style="fill-opacity:1.00" />
<!-- End 'T' -->
<!-- Begin 'G' -->
<ellipse cx="295.000000" cy="114.644128" rx="25.000000" ry="0.020550" fill="rgb(255, 165, 0)" style="fill-opacity:1.00" />
<ellipse cx="295.000000" cy="114.644128" rx="16.666667" ry="0.013700" fill="rgb(255, 255, 255)" style="fill-opacity:1.00" />
<rect height="0.020550" width="25.000000" x="295.000000" y="114.633853" fill="rgb(255, 255, 255)" style="fill-opacity:1.00" />
<rect height="0.005137" width="25.000000" x="295.000000" y="114.649265" fill="rgb(255, 165, 0)" style="fill-opacity:1.00" />
<rect height="0.015412" width="6.250000" x="313.750000" y="114.649265" fill="rgb(255, 165, 0)" style="fill-opacity:1.00" />
<!-- End 'G' -->
<!-- Begin 'A' -->
<polygon points=" 270.000000, 114.685227, 291.000000, 114.664677, 299.000000, 114.664677, 320.000000, 114.685227, 312.500000, 114.685227, 306.250000, 114.680090, 283.750000, 114.680090, 277.500000, 114.685227" fill="rgb(178, 34, 34)" style="fill-opacity:1.00" />
<!-- End 'A' -->
<!-- Begin 'T' -->
<rect height="3.179662" width="50.000000" x="330.000000" y="78.309461" fill="rgb(0, 100, 0)" style="fill-opacity:1.00" />
<rect height="19.872885" width="10.000000" x="350.000000" y="78.309461" fill="rgb(0, 100, 0)" style="fill-opacity:1.00" />
<!-- End 'T' -->
<!-- Begin 'C' -->
<ellipse cx="355.000000" cy="102.589198" rx="25.000000" ry="4.406851" fill="rgb(0, 0, 128)" style="fill-opacity:1.00" />
<ellipse cx="355.000000" cy="102.589198" rx="16.666667" ry="2.937901" fill="rgb(255, 255, 255)" style="fill-opacity:1.00" />
<rect height="4.406851" width="25.000000" x="355.000000" y="100.385772" fill="rgb(255, 255, 255)" style="fill-opacity:1.00" />
<!-- End 'C' -->
<!-- Begin 'G' -->
<ellipse cx="355.000000" cy="109.237874" rx="25.000000" ry="2.241825" fill="rgb(255, 165, 0)" style="fill-opacity:1.00" />
<ellipse cx="355.000000" cy="109.237874" rx="16.666667" ry="1.494550" fill="rgb(255, 255, 255)" style="fill-opacity:1.00" />
<rect height="2.241825" width="25.000000" x="355.000000" y="108.116961" fill="rgb(255, 255, 255)" style="fill-opacity:1.00" />
<rect height="0.560456" width="25.000000" x="355.000000" y="109.798330" fill="rgb(255, 165, 0)" style="fill-opacity:1.00" />
<rect height="1.681369" width="6.250000" x="373.750000" y="109.798330" fill="rgb(255, 165, 0)" style="fill-opacity:1.00" />
<!-- End 'G' -->
<!-- Begin 'A' -->
<polygon points=" 330.000000, 111.604042, 351.000000, 111.479699, 359.000000, 111.479699, 380.000000, 111.604042, 372.500000, 111.604042, 366.250000, 111.572956, 343.750000, 111.572956, 337.500000, 111.604042" fill="rgb(178, 34, 34)" style="fill-opacity:1.00" />
<!-- End 'A' -->
<!-- Begin 'C' -->
<ellipse cx="415.000000" cy="99.198090" rx="25.000000" ry="3.512938" fill="rgb(0, 0, 128)" style="fill-opacity:1.00" />
<ellipse cx="415.000000" cy="99.198090" rx="16.666667" ry="2.341959" fill="rgb(255, 255, 255)" style="fill-opacity:1.00" />
<rect height="3.512938" width="25.000000" x="415.000000" y="97.441621" fill="rgb(255, 255, 255)" style="fill-opacity:1.00" />
<!-- End 'C' -->
<!-- Begin 'G' -->
<ellipse cx="415.000000" cy="105.186766" rx="25.000000" ry="2.475738" fill="rgb(255, 165, 0)" style="fill-opacity:1.00" />
<ellipse cx="415.000000" cy="105.186766" rx="16.666667" ry="1.650492" fill="rgb(255, 255, 255)" style="fill-opacity:1.00" />
<rect height="2.475738" width="25.000000" x="415.000000" y="103.948897" fill="rgb(255, 255, 255)" style="fill-opacity:1.00" />
<rect height="0.618934" width="25.000000" x="415.000000" y="105.805701" fill="rgb(255, 165, 0)" style="fill-opacity:1.00" />
<rect height="1.856803" width="6.250000" x="433.750000" y="105.805701" fill="rgb(255, 165, 0)" style="fill-opacity:1.00" />
<!-- End 'G' -->
<!-- Begin 'A' -->
<polygon points=" 390.000000, 109.568442, 411.000000, 107.662504, 419.000000, 107.662504, 440.000000, 109.568442, 432.500000, 109.568442, 426.250000, 109.091958, 403.750000, 109.091958, 397.500000, 109.568442" fill="rgb(178, 34, 34)" style="fill-opacity:1.00" />
<!-- End 'A' -->
<!-- Begin 'T' -->
<rect height="0.184450" width="50.000000" x="390.000000" y="109.568442" fill="rgb(0, 100, 0)" style="fill-opacity:1.00" />
<rect height="1.152812" width="10.000000" x="410.000000" y="109.568442" fill="rgb(0, 100, 0)" style="fill-opacity:1.00" />
<!-- End 'T' -->
<!-- Begin 'A' -->
<polygon points=" 450.000000, 100.332592, 471.000000, 60.908730, 479.000000, 60.908730, 500.000000, 100.332592, 492.500000, 100.332592, 486.250000, 90.476627, 463.750000, 90.476627, 457.500000, 100.332592" fill="rgb(178, 34, 34)" style="fill-opacity:1.00" />
<polygon points=" 475.000000, 68.793502, 467.000000, 83.563047, 482.000000, 83.563047" fill="rgb(255, 255, 255)" style="fill-opacity:1.00" />
<!-- End 'A' -->
<!-- Begin 'C' -->
<ellipse cx="475.000000" cy="103.781189" rx="25.000000" ry="3.448597" fill="rgb(0, 0, 128)" style="fill-opacity:1.00" />
<ellipse cx="475.000000" cy="103.781189" rx="16.666667" ry="2.299065" fill="rgb(255, 255, 255)" style="fill-opacity:1.00" />
<rect height="3.448597" width="25.000000" x="475.000000" y="102.056891" fill="rgb(255, 255, 255)" style="fill-opacity:1.00" />
<!-- End 'C' -->
<!-- Begin 'G' -->
<ellipse cx="475.000000" cy="109.761022" rx="25.000000" ry="2.531236" fill="rgb(255, 165, 0)" style="fill-opacity:1.00" />
<ellipse cx="475.000000" cy="109.761022" rx="16.666667" ry="1.687491" fill="rgb(255, 255, 255)" style="fill-opacity:1.00" />
<rect height="2.531236" width="25.000000" x="475.000000" y="108.495404" fill="rgb(255, 255, 255)" style="fill-opacity:1.00" />
<rect height="0.632809" width="25.000000" x="475.000000" y="110.393831" fill="rgb(255, 165, 0)" style="fill-opacity:1.00" />
<rect height="1.898427" width="6.250000" x="493.750000" y="110.393831" fill="rgb(255, 165, 0)" style="fill-opacity:1.00" />
<!-- End 'G' -->
<!-- Begin 'T' -->
<rect height="0.027181" width="50.000000" x="450.000000" y="112.292259" fill="rgb(0, 100, 0)" style="fill-opacity:1.00" />
<rect height="0.169882" width="10.000000" x="470.000000" y="112.292259" fill="rgb(0, 100, 0)" style="fill-opacity:1.00" />
<!-- End 'T' -->
<!-- Begin 'G' -->
<ellipse cx="535.000000" cy="66.608199" rx="25.000000" ry="47.907692" fill="rgb(255, 165, 0)" style="fill-opacity:1.00" />
<ellipse cx="535.000000" cy="66.608199" rx="16.666667" ry="31.938461" fill="rgb(255, 255, 255)" style="fill-opacity:1.00" />
<rect height="47.907692" width="25.000000" x="535.000000" y="42.654353" fill="rgb(255, 255, 255)" style="fill-opacity:1.00" />
<rect height="11.976923" width="25.000000" x="535.000000" y="78.585122" fill="rgb(255, 165, 0)" style="fill-opacity:1.00" />
<rect height="35.930769" width="6.250000" x="553.750000" y="78.585122" fill="rgb(255, 165, 0)" style="fill-opacity:1.00" />
<!-- End 'G' -->
<!-- Begin 'A' -->
<polygon points=" 510.000000, 119.485656, 531.000000, 114.515891, 539.000000, 114.515891, 560.000000, 119.485656, 552.500000, 119.485656, 546.250000, 118.243214, 523.750000, 118.243214, 517.500000, 119.485656" fill="rgb(178, 34, 34)" style="fill-opacity:1.00" />
<!-- End 'A' -->
<!-- Begin 'C' -->
<ellipse cx="535.000000" cy="119.538301" rx="25.000000" ry="0.052646" fill="rgb(0, 0, 128)" style="fill-opacity:1.00" />
<ellipse cx="535.000000" cy="119.538301" rx="16.666667" ry="0.035097" fill="rgb(255, 255, 255)" style="fill-opacity:1.00" />
<rect height="0.052646" width="25.000000" x="535.000000" y="119.511979" fill="rgb(255, 255, 255)" style="fill-opacity:1.00" />
<!-- End 'C' -->
<!-- Begin 'T' -->
<rect height="0.010108" width="50.000000" x="510.000000" y="119.590947" fill="rgb(0, 100, 0)" style="fill-opacity:1.00" />
<rect height="0.063175" width="10.000000" x="530.000000" y="119.590947" fill="rgb(0, 100, 0)" style="fill-opacity:1.00" />
<!-- End 'T' -->
<!-- Begin 'G' -->
<ellipse cx="595.000000" cy="62.669308" rx="25.000000" ry="58.437714" fill="rgb(255, 165, 0)" style="fill-opacity:1.00" />
<ellipse cx="595.000000" cy="62.669308" rx="16.666667" ry="38.958476" fill="rgb(255, 255, 255)" style="fill-opacity:1.00" />
<rect height="58.437714" width="25.000000" x="595.000000" y="33.450452" fill="rgb(255, 255, 255)" style="fill-opacity:1.00" />
<rect height="14.609428" width="25.000000" x="595.000000" y="77.278737" fill="rgb(255, 165, 0)" style="fill-opacity:1.00" />
<rect height="43.828285" width="6.250000" x="613.750000" y="77.278737" fill="rgb(255, 165, 0)" style="fill-opacity:1.00" />
<!-- End 'G' -->
<!-- Begin 'C' -->
<ellipse cx="595.000000" cy="121.248300" rx="25.000000" ry="0.141278" fill="rgb(0, 0, 128)" style="fill-opacity:1.00" />
<ellipse cx="595.000000" cy="121.248300" rx="16.666667" ry="0.094185" fill="rgb(255, 255, 255)" style="fill-opacity:1.00" />
<rect height="0.141278" width="25.000000" x="595.000000" y="121.177661" fill="rgb(255, 255, 255)" style="fill-opacity:1.00" />
<!-- End 'C' -->
<!-- Begin 'A' -->
<polygon points=" 570.000000, 121.569387, 591.000000, 121.389578, 599.000000, 121.389578, 620.000000, 121.569387, 612.500000, 121.569387, 606.250000, 121.524435, 583.750000, 121.524435, 577.500000, 121.569387" fill="rgb(178, 34, 34)" style="fill-opacity:1.00" />
<!-- End 'A' -->
<!-- Begin 'T' -->
<rect height="0.008220" width="50.000000" x="570.000000" y="121.569387" fill="rgb(0, 100, 0)" style="fill-opacity:1.00" />
<rect height="0.051374" width="10.000000" x="590.000000" y="121.569387" fill="rgb(0, 100, 0)" style="fill-opacity:1.00" />
<!-- End 'T' -->
<!-- Begin 'C' -->
<ellipse cx="655.000000" cy="70.102666" rx="25.000000" ry="42.898888" fill="rgb(0, 0, 128)" style="fill-opacity:1.00" />
<ellipse cx="655.000000" cy="70.102666" rx="16.666667" ry="28.599259" fill="rgb(255, 255, 255)" style="fill-opacity:1.00" />
<rect height="42.898888" width="25.000000" x="655.000000" y="48.653222" fill="rgb(255, 255, 255)" style="fill-opacity:1.00" />
<!-- End 'C' -->
<!-- Begin 'G' -->
<ellipse cx="655.000000" cy="116.028999" rx="25.000000" ry="3.027444" fill="rgb(255, 165, 0)" style="fill-opacity:1.00" />
<ellipse cx="655.000000" cy="116.028999" rx="16.666667" ry="2.018296" fill="rgb(255, 255, 255)" style="fill-opacity:1.00" />
<rect height="3.027444" width="25.000000" x="655.000000" y="114.515277" fill="rgb(255, 255, 255)" style="fill-opacity:1.00" />
<rect height="0.756861" width="25.000000" x="655.000000" y="116.785861" fill="rgb(255, 165, 0)" style="fill-opacity:1.00" />
<rect height="2.270583" width="6.250000" x="673.750000" y="116.785861" fill="rgb(255, 165, 0)" style="fill-opacity:1.00" />
<!-- End 'G' -->
<!-- Begin 'A' -->
<polygon points=" 630.000000, 120.025226, 651.000000, 119.056444, 659.000000, 119.056444, 680.000000, 120.025226, 672.500000, 120.025226, 666.250000, 119.783031, 643.750000, 119.783031, 637.500000, 120.025226" fill="rgb(178, 34, 34)" style="fill-opacity:1.00" />
<!-- End 'A' -->
<!-- Begin 'T' -->
<rect height="0.083961" width="50.000000" x="630.000000" y="120.025226" fill="rgb(0, 100, 0)" style="fill-opacity:1.00" />
<rect height="0.524757" width="10.000000" x="650.000000" y="120.025226" fill="rgb(0, 100, 0)" style="fill-opacity:1.00" />
<!-- End 'T' -->
<!-- Begin 'A' -->
<polygon points=" 690.000000, 106.482780, 711.000000, 103.588569, 719.000000, 103.588569, 740.000000, 106.482780, 732.500000, 106.482780, 726.250000, 105.759227, 703.750000, 105.759227, 697.500000, 106.482780" fill="rgb(178, 34, 34)" style="fill-opacity:1.00" />
<!-- End 'A' -->
<!-- Begin 'T' -->
<rect height="0.306853" width="50.000000" x="690.000000" y="106.482780" fill="rgb(0, 100, 0)" style="fill-opacity:1.00" />
<rect height="1.917831" width="10.000000" x="710.000000" y="106.482780" fill="rgb(0, 100, 0)" style="fill-opacity:1.00" />
<!-- End 'T' -->
<!-- Begin 'G' -->
<ellipse cx="715.000000" cy="109.313486" rx="25.000000" ry="0.912875" fill="rgb(255, 165, 0)" style="fill-opacity:1.00" />
<ellipse cx="715.000000" cy="109.313486" rx="16.666667" ry="0.608583" fill="rgb(255, 255, 255)" style="fill-opacity:1.00" />
<rect height="0.912875" width="25.000000" x="715.000000" y="108.857048" fill="rgb(255, 255, 255)" style="fill-opacity:1.00" />
<rect height="0.228219" width="25.000000" x="715.000000" y="109.541705" fill="rgb(255, 165, 0)" style="fill-opacity:1.00" />
<rect height="0.684656" width="6.250000" x="733.750000" y="109.541705" fill="rgb(255, 165, 0)" style="fill-opacity:1.00" />
<!-- End 'G' -->
<!-- Begin 'C' -->
<ellipse cx="715.000000" cy="110.521656" rx="25.000000" ry="0.295295" fill="rgb(0, 0, 128)" style="fill-opacity:1.00" />
<ellipse cx="715.000000" cy="110.521656" rx="16.666667" ry="0.196863" fill="rgb(255, 255, 255)" style="fill-opacity:1.00" />
<rect height="0.295295" width="25.000000" x="715.000000" y="110.374009" fill="rgb(255, 255, 255)" style="fill-opacity:1.00" />
<!-- End 'C' -->
<text x="400.000000" y="165">
IC = 13.03
</text>

</svg>
