<?xml version="1.0" encoding="UTF-8" standalone="yes"?>
                 <!DOCTYPE svg PUBLIC "-//W3C//DTD SVG 1.0//EN" "http://www.w3.org/TR/2001/REC-SVG-20010904/DTD/svg10.dtd">
                 <svg height="170" width="780" xmlns="http://www.w3.org/2000/svg" xmlns:xlink="http://www.w3.org/1999/xlink">
                 <line x1="85" y1="120" x2="747" y2="120" style="stroke:rgb(99,99,99);stroke-width:2" />
<rect height="7.000000" width="2.000000" x="85.000000" y="120.000000" fill="rgb(0, 0, 0)" style="fill-opacity:1.00" />
<text x="107.000000" y="140">
1
</text>
<rect height="7.000000" width="2.000000" x="145.000000" y="120.000000" fill="rgb(0, 0, 0)" style="fill-opacity:1.00" />
<text x="167.000000" y="140">
2
</text>
<rect height="7.000000" width="2.000000" x="205.000000" y="120.000000" fill="rgb(0, 0, 0)" style="fill-opacity:1.00" />
<text x="227.000000" y="140">
3
</text>
<rect height="7.000000" width="2.000000" x="265.000000" y="120.000000" fill="rgb(0, 0, 0)" style="fill-opacity:1.00" />
<text x="287.000000" y="140">
4
</text>
<rect height="7.000000" width="2.000000" x="325.000000" y="120.000000" fill="rgb(0, 0, 0)" style="fill-opacity:1.00" />
<text x="347.000000" y="140">
5
</text>
<rect height="7.000000" width="2.000000" x="385.000000" y="120.000000" fill="rgb(0, 0, 0)" style="fill-opacity:1.00" />
<text x="407.000000" y="140">
6
</text>
<rect height="7.000000" width="2.000000" x="445.000000" y="120.000000" fill="rgb(0, 0, 0)" style="fill-opacity:1.00" />
<text x="467.000000" y="140">
7
</text>
<rect height="7.000000" width="2.000000" x="505.000000" y="120.000000" fill="rgb(0, 0, 0)" style="fill-opacity:1.00" />
<text x="527.000000" y="140">
8
</text>
<rect height="7.000000" width="2.000000" x="565.000000" y="120.000000" fill="rgb(0, 0, 0)" style="fill-opacity:1.00" />
<text x="587.000000" y="140">
9
</text>
<rect height="7.000000" width="2.000000" x="625.000000" y="120.000000" fill="rgb(0, 0, 0)" style="fill-opacity:1.00" />
<text x="647.000000" y="140">
10
</text>
<rect height="7.000000" width="2.000000" x="685.000000" y="120.000000" fill="rgb(0, 0, 0)" style="fill-opacity:1.00" />
<text x="707.000000" y="140">
11
</text>
<rect height="7.000000" width="2.000000" x="745.000000" y="120.000000" fill="rgb(0, 0, 0)" style="fill-opacity:1.00" />
<line x1="80" y1="112" x2="80" y2="10" style="stroke:rgb(99,99,99);stroke-width:2" />
<rect height="2.000000" width="7.000000" x="73.000000" y="110.000000" fill="rgb(0, 0, 0)" style="fill-opacity:1.00" />
<text x="63" y="115">
0
</text>
<rect height="2.000000" width="7.000000" x="73.000000" y="60.000000" fill="rgb(0, 0, 0)" style="fill-opacity:1.00" />
<text x="63" y="65">
1
</text>
<rect height="2.000000" width="7.000000" x="73.000000" y="10.000000" fill="rgb(0, 0, 0)" style="fill-opacity:1.00" />
<text x="63" y="15">
2
</text>
<text x="50" y="65"
transform="rotate(-90, 50, 70)">
bits
</text>
<!-- Begin 'A' -->
<polygon points=" 90.000000, 108.038441, 111.000000, 107.036732, 119.000000, 107.036732, 140.000000, 108.038441, 132.500000, 108.038441, 126.250000, 107.788014, 103.750000, 107.788014, 97.500000, 108.038441" fill="rgb(178, 34, 34)" style="fill-opacity:1.00" />
<!-- End 'A' -->
<!-- Begin 'T' -->
<rect height="0.143372" width="50.000000" x="90.000000" y="108.038441" fill="rgb(0, 100, 0)" style="fill-opacity:1.00" />
<rect height="0.896076" width="10.000000" x="110.000000" y="108.038441" fill="rgb(0, 100, 0)" style="fill-opacity:1.00" />
<!-- End 'T' -->
<!-- Begin 'C' -->
<ellipse cx="115.000000" cy="109.207368" rx="25.000000" ry="0.272851" fill="rgb(0, 0, 128)" style="fill-opacity:1.00" />
<ellipse cx="115.000000" cy="109.207368" rx="16.666667" ry="0.181901" fill="rgb(255, 255, 255)" style="fill-opacity:1.00" />
<rect height="0.272851" width="25.000000" x="115.000000" y="109.070943" fill="rgb(255, 255, 255)" style="fill-opacity:1.00" />
<!-- End 'C' -->
<!-- Begin 'G' -->
<ellipse cx="115.000000" cy="109.740109" rx="25.000000" ry="0.259891" fill="rgb(255, 165, 0)" style="fill-opacity:1.00" />
<ellipse cx="115.000000" cy="109.740109" rx="16.666667" ry="0.173260" fill="rgb(255, 255, 255)" style="fill-opacity:1.00" />
<rect height="0.259891" width="25.000000" x="115.000000" y="109.610164" fill="rgb(255, 255, 255)" style="fill-opacity:1.00" />
<rect height="0.064973" width="25.000000" x="115.000000" y="109.805082" fill="rgb(255, 165, 0)" style="fill-opacity:1.00" />
<rect height="0.194918" width="6.250000" x="133.750000" y="109.805082" fill="rgb(255, 165, 0)" style="fill-opacity:1.00" />
<!-- End 'G' -->
<!-- Begin 'T' -->
<rect height="0.292677" width="50.000000" x="150.000000" y="104.557061" fill="rgb(0, 100, 0)" style="fill-opacity:1.00" />
<rect height="1.829233" width="10.000000" x="170.000000" y="104.557061" fill="rgb(0, 100, 0)" style="fill-opacity:1.00" />
<!-- End 'T' -->
<!-- Begin 'A' -->
<polygon points=" 150.000000, 108.203698, 171.000000, 106.386294, 179.000000, 106.386294, 200.000000, 108.203698, 192.500000, 108.203698, 186.250000, 107.749347, 163.750000, 107.749347, 157.500000, 108.203698" fill="rgb(178, 34, 34)" style="fill-opacity:1.00" />
<!-- End 'A' -->
<!-- Begin 'C' -->
<ellipse cx="175.000000" cy="108.793583" rx="25.000000" ry="0.589885" fill="rgb(0, 0, 128)" style="fill-opacity:1.00" />
<ellipse cx="175.000000" cy="108.793583" rx="16.666667" ry="0.393257" fill="rgb(255, 255, 255)" style="fill-opacity:1.00" />
<rect height="0.589885" width="25.000000" x="175.000000" y="108.498640" fill="rgb(255, 255, 255)" style="fill-opacity:1.00" />
<!-- End 'C' -->
<!-- Begin 'G' -->
<ellipse cx="175.000000" cy="109.691734" rx="25.000000" ry="0.308266" fill="rgb(255, 165, 0)" style="fill-opacity:1.00" />
<ellipse cx="175.000000" cy="109.691734" rx="16.666667" ry="0.205510" fill="rgb(255, 255, 255)" style="fill-opacity:1.00" />
<rect height="0.308266" width="25.000000" x="175.000000" y="109.537601" fill="rgb(255, 255, 255)" style="fill-opacity:1.00" />
<rect height="0.077066" width="25.000000" x="175.000000" y="109.768801" fill="rgb(255, 165, 0)" style="fill-opacity:1.00" />
<rect height="0.231199" width="6.250000" x="193.750000" y="109.768801" fill="rgb(255, 165, 0)" style="fill-opacity:1.00" />
<!-- End 'G' -->
<!-- Begin 'T' -->
<rect height="0.190599" width="50.000000" x="210.000000" y="106.441073" fill="rgb(0, 100, 0)" style="fill-opacity:1.00" />
<rect height="1.191241" width="10.000000" x="230.000000" y="106.441073" fill="rgb(0, 100, 0)" style="fill-opacity:1.00" />
<!-- End 'T' -->
<!-- Begin 'A' -->
<polygon points=" 210.000000, 108.730666, 231.000000, 107.632314, 239.000000, 107.632314, 260.000000, 108.730666, 252.500000, 108.730666, 246.250000, 108.456078, 223.750000, 108.456078, 217.500000, 108.730666" fill="rgb(178, 34, 34)" style="fill-opacity:1.00" />
<!-- End 'A' -->
<!-- Begin 'C' -->
<ellipse cx="235.000000" cy="109.111256" rx="25.000000" ry="0.380591" fill="rgb(0, 0, 128)" style="fill-opacity:1.00" />
<ellipse cx="235.000000" cy="109.111256" rx="16.666667" ry="0.253727" fill="rgb(255, 255, 255)" style="fill-opacity:1.00" />
<rect height="0.380591" width="25.000000" x="235.000000" y="108.920961" fill="rgb(255, 255, 255)" style="fill-opacity:1.00" />
<!-- End 'C' -->
<!-- Begin 'G' -->
<ellipse cx="235.000000" cy="109.745923" rx="25.000000" ry="0.254077" fill="rgb(255, 165, 0)" style="fill-opacity:1.00" />
<ellipse cx="235.000000" cy="109.745923" rx="16.666667" ry="0.169384" fill="rgb(255, 255, 255)" style="fill-opacity:1.00" />
<rect height="0.254077" width="25.000000" x="235.000000" y="109.618885" fill="rgb(255, 255, 255)" style="fill-opacity:1.00" />
<rect height="0.063519" width="25.000000" x="235.000000" y="109.809443" fill="rgb(255, 165, 0)" style="fill-opacity:1.00" />
<rect height="0.190557" width="6.250000" x="253.750000" y="109.809443" fill="rgb(255, 165, 0)" style="fill-opacity:1.00" />
<!-- End 'G' -->
<!-- Begin 'G' -->
<ellipse cx="295.000000" cy="61.456911" rx="25.000000" ry="47.823719" fill="rgb(255, 165, 0)" style="fill-opacity:1.00" />
<ellipse cx="295.000000" cy="61.456911" rx="16.666667" ry="31.882480" fill="rgb(255, 255, 255)" style="fill-opacity:1.00" />
<rect height="47.823719" width="25.000000" x="295.000000" y="37.545052" fill="rgb(255, 255, 255)" style="fill-opacity:1.00" />
<rect height="11.955930" width="25.000000" x="295.000000" y="73.412841" fill="rgb(255, 165, 0)" style="fill-opacity:1.00" />
<rect height="35.867789" width="6.250000" x="313.750000" y="73.412841" fill="rgb(255, 165, 0)" style="fill-opacity:1.00" />
<!-- End 'G' -->
<!-- Begin 'A' -->
<polygon points=" 270.000000, 109.767445, 291.000000, 109.280630, 299.000000, 109.280630, 320.000000, 109.767445, 312.500000, 109.767445, 306.250000, 109.645741, 283.750000, 109.645741, 277.500000, 109.767445" fill="rgb(178, 34, 34)" style="fill-opacity:1.00" />
<!-- End 'A' -->
<!-- Begin 'T' -->
<rect height="0.018962" width="50.000000" x="270.000000" y="109.767445" fill="rgb(0, 100, 0)" style="fill-opacity:1.00" />
<rect height="0.118515" width="10.000000" x="290.000000" y="109.767445" fill="rgb(0, 100, 0)" style="fill-opacity:1.00" />
<!-- End 'T' -->
<!-- Begin 'C' -->
<ellipse cx="295.000000" cy="109.942980" rx="25.000000" ry="0.057020" fill="rgb(0, 0, 128)" style="fill-opacity:1.00" />
<ellipse cx="295.000000" cy="109.942980" rx="16.666667" ry="0.038013" fill="rgb(255, 255, 255)" style="fill-opacity:1.00" />
<rect height="0.057020" width="25.000000" x="295.000000" y="109.914470" fill="rgb(255, 255, 255)" style="fill-opacity:1.00" />
<!-- End 'C' -->
<!-- Begin 'T' -->
<rect height="15.747127" width="50.000000" x="330.000000" y="11.347854" fill="rgb(0, 100, 0)" style="fill-opacity:1.00" />
<rect height="98.419545" width="10.000000" x="350.000000" y="11.347854" fill="rgb(0, 100, 0)" style="fill-opacity:1.00" />
<!-- End 'T' -->
<!-- Begin 'G' -->
<ellipse cx="355.000000" cy="109.844211" rx="25.000000" ry="0.076812" fill="rgb(255, 165, 0)" style="fill-opacity:1.00" />
<ellipse cx="355.000000" cy="109.844211" rx="16.666667" ry="0.051208" fill="rgb(255, 255, 255)" style="fill-opacity:1.00" />
<rect height="0.076812" width="25.000000" x="355.000000" y="109.805805" fill="rgb(255, 255, 255)" style="fill-opacity:1.00" />
<rect height="0.019203" width="25.000000" x="355.000000" y="109.863414" fill="rgb(255, 165, 0)" style="fill-opacity:1.00" />
<rect height="0.057609" width="6.250000" x="373.750000" y="109.863414" fill="rgb(255, 165, 0)" style="fill-opacity:1.00" />
<!-- End 'G' -->
<!-- Begin 'C' -->
<ellipse cx="355.000000" cy="109.941050" rx="25.000000" ry="0.020027" fill="rgb(0, 0, 128)" style="fill-opacity:1.00" />
<ellipse cx="355.000000" cy="109.941050" rx="16.666667" ry="0.013351" fill="rgb(255, 255, 255)" style="fill-opacity:1.00" />
<rect height="0.020027" width="25.000000" x="355.000000" y="109.931037" fill="rgb(255, 255, 255)" style="fill-opacity:1.00" />
<!-- End 'C' -->
<!-- Begin 'A' -->
<polygon points=" 330.000000, 110.000000, 351.000000, 109.961077, 359.000000, 109.961077, 380.000000, 110.000000, 372.500000, 110.000000, 366.250000, 109.990269, 343.750000, 109.990269, 337.500000, 110.000000" fill="rgb(178, 34, 34)" style="fill-opacity:1.00" />
<!-- End 'A' -->
<!-- Begin 'A' -->
<polygon points=" 390.000000, 107.925979, 411.000000, 18.169177, 419.000000, 18.169177, 440.000000, 107.925979, 432.500000, 107.925979, 426.250000, 85.486779, 403.750000, 85.486779, 397.500000, 107.925979" fill="rgb(178, 34, 34)" style="fill-opacity:1.00" />
<polygon points=" 415.000000, 36.120537, 407.000000, 71.023258, 422.000000, 71.023258" fill="rgb(255, 255, 255)" style="fill-opacity:1.00" />
<!-- End 'A' -->
<!-- Begin 'C' -->
<ellipse cx="415.000000" cy="108.907731" rx="25.000000" ry="0.981751" fill="rgb(0, 0, 128)" style="fill-opacity:1.00" />
<ellipse cx="415.000000" cy="108.907731" rx="16.666667" ry="0.654501" fill="rgb(255, 255, 255)" style="fill-opacity:1.00" />
<rect height="0.981751" width="25.000000" x="415.000000" y="108.416855" fill="rgb(255, 255, 255)" style="fill-opacity:1.00" />
<!-- End 'C' -->
<!-- Begin 'T' -->
<rect height="0.014035" width="50.000000" x="390.000000" y="109.889482" fill="rgb(0, 100, 0)" style="fill-opacity:1.00" />
<rect height="0.087716" width="10.000000" x="410.000000" y="109.889482" fill="rgb(0, 100, 0)" style="fill-opacity:1.00" />
<!-- End 'T' -->
<!-- Begin 'G' -->
<ellipse cx="415.000000" cy="109.988599" rx="25.000000" ry="0.011401" fill="rgb(255, 165, 0)" style="fill-opacity:1.00" />
<ellipse cx="415.000000" cy="109.988599" rx="16.666667" ry="0.007601" fill="rgb(255, 255, 255)" style="fill-opacity:1.00" />
<rect height="0.011401" width="25.000000" x="415.000000" y="109.982899" fill="rgb(255, 255, 255)" style="fill-opacity:1.00" />
<rect height="0.002850" width="25.000000" x="415.000000" y="109.991449" fill="rgb(255, 165, 0)" style="fill-opacity:1.00" />
<rect height="0.008551" width="6.250000" x="433.750000" y="109.991449" fill="rgb(255, 165, 0)" style="fill-opacity:1.00" />
<!-- End 'G' -->
<!-- Begin 'C' -->
<ellipse cx="475.000000" cy="60.900256" rx="25.000000" ry="48.693370" fill="rgb(0, 0, 128)" style="fill-opacity:1.00" />
<ellipse cx="475.000000" cy="60.900256" rx="16.666667" ry="32.462247" fill="rgb(255, 255, 255)" style="fill-opacity:1.00" />
<rect height="48.693370" width="25.000000" x="475.000000" y="36.553571" fill="rgb(255, 255, 255)" style="fill-opacity:1.00" />
<!-- End 'C' -->
<!-- Begin 'T' -->
<rect height="0.042653" width="50.000000" x="450.000000" y="109.593626" fill="rgb(0, 100, 0)" style="fill-opacity:1.00" />
<rect height="0.266581" width="10.000000" x="470.000000" y="109.593626" fill="rgb(0, 100, 0)" style="fill-opacity:1.00" />
<!-- End 'T' -->
<!-- Begin 'A' -->
<polygon points=" 450.000000, 109.935367, 471.000000, 109.860207, 479.000000, 109.860207, 500.000000, 109.935367, 492.500000, 109.935367, 486.250000, 109.916577, 463.750000, 109.916577, 457.500000, 109.935367" fill="rgb(178, 34, 34)" style="fill-opacity:1.00" />
<!-- End 'A' -->
<!-- Begin 'G' -->
<ellipse cx="475.000000" cy="109.967683" rx="25.000000" ry="0.032317" fill="rgb(255, 165, 0)" style="fill-opacity:1.00" />
<ellipse cx="475.000000" cy="109.967683" rx="16.666667" ry="0.021544" fill="rgb(255, 255, 255)" style="fill-opacity:1.00" />
<rect height="0.032317" width="25.000000" x="475.000000" y="109.951525" fill="rgb(255, 255, 255)" style="fill-opacity:1.00" />
<rect height="0.008079" width="25.000000" x="475.000000" y="109.975762" fill="rgb(255, 165, 0)" style="fill-opacity:1.00" />
<rect height="0.024238" width="6.250000" x="493.750000" y="109.975762" fill="rgb(255, 165, 0)" style="fill-opacity:1.00" />
<!-- End 'G' -->
<!-- Begin 'A' -->
<polygon points=" 510.000000, 107.608411, 531.000000, 106.472804, 539.000000, 106.472804, 560.000000, 107.608411, 552.500000, 107.608411, 546.250000, 107.324510, 523.750000, 107.324510, 517.500000, 107.608411" fill="rgb(178, 34, 34)" style="fill-opacity:1.00" />
<!-- End 'A' -->
<!-- Begin 'T' -->
<rect height="0.181041" width="50.000000" x="510.000000" y="107.608411" fill="rgb(0, 100, 0)" style="fill-opacity:1.00" />
<rect height="1.131506" width="10.000000" x="530.000000" y="107.608411" fill="rgb(0, 100, 0)" style="fill-opacity:1.00" />
<!-- End 'T' -->
<!-- Begin 'G' -->
<ellipse cx="535.000000" cy="109.119547" rx="25.000000" ry="0.379630" fill="rgb(255, 165, 0)" style="fill-opacity:1.00" />
<ellipse cx="535.000000" cy="109.119547" rx="16.666667" ry="0.253087" fill="rgb(255, 255, 255)" style="fill-opacity:1.00" />
<rect height="0.379630" width="25.000000" x="535.000000" y="108.929732" fill="rgb(255, 255, 255)" style="fill-opacity:1.00" />
<rect height="0.094908" width="25.000000" x="535.000000" y="109.214455" fill="rgb(255, 165, 0)" style="fill-opacity:1.00" />
<rect height="0.284723" width="6.250000" x="553.750000" y="109.214455" fill="rgb(255, 165, 0)" style="fill-opacity:1.00" />
<!-- End 'G' -->
<!-- Begin 'C' -->
<ellipse cx="535.000000" cy="109.749589" rx="25.000000" ry="0.250411" fill="rgb(0, 0, 128)" style="fill-opacity:1.00" />
<ellipse cx="535.000000" cy="109.749589" rx="16.666667" ry="0.166941" fill="rgb(255, 255, 255)" style="fill-opacity:1.00" />
<rect height="0.250411" width="25.000000" x="535.000000" y="109.624383" fill="rgb(255, 255, 255)" style="fill-opacity:1.00" />
<!-- End 'C' -->
<!-- Begin 'T' -->
<rect height="0.330006" width="50.000000" x="570.000000" y="104.116691" fill="rgb(0, 100, 0)" style="fill-opacity:1.00" />
<rect height="2.062539" width="10.000000" x="590.000000" y="104.116691" fill="rgb(0, 100, 0)" style="fill-opacity:1.00" />
<!-- End 'T' -->
<!-- Begin 'A' -->
<polygon points=" 570.000000, 108.077043, 591.000000, 106.179230, 599.000000, 106.179230, 620.000000, 108.077043, 612.500000, 108.077043, 606.250000, 107.602590, 583.750000, 107.602590, 577.500000, 108.077043" fill="rgb(178, 34, 34)" style="fill-opacity:1.00" />
<!-- End 'A' -->
<!-- Begin 'G' -->
<ellipse cx="595.000000" cy="108.723221" rx="25.000000" ry="0.646178" fill="rgb(255, 165, 0)" style="fill-opacity:1.00" />
<ellipse cx="595.000000" cy="108.723221" rx="16.666667" ry="0.430785" fill="rgb(255, 255, 255)" style="fill-opacity:1.00" />
<rect height="0.646178" width="25.000000" x="595.000000" y="108.400132" fill="rgb(255, 255, 255)" style="fill-opacity:1.00" />
<rect height="0.161544" width="25.000000" x="595.000000" y="108.884765" fill="rgb(255, 165, 0)" style="fill-opacity:1.00" />
<rect height="0.484633" width="6.250000" x="613.750000" y="108.884765" fill="rgb(255, 165, 0)" style="fill-opacity:1.00" />
<!-- End 'G' -->
<!-- Begin 'C' -->
<ellipse cx="595.000000" cy="109.684699" rx="25.000000" ry="0.315301" fill="rgb(0, 0, 128)" style="fill-opacity:1.00" />
<ellipse cx="595.000000" cy="109.684699" rx="16.666667" ry="0.210200" fill="rgb(255, 255, 255)" style="fill-opacity:1.00" />
<rect height="0.315301" width="25.000000" x="595.000000" y="109.527049" fill="rgb(255, 255, 255)" style="fill-opacity:1.00" />
<!-- End 'C' -->
<!-- Begin 'T' -->
<rect height="0.165433" width="50.000000" x="630.000000" y="106.917614" fill="rgb(0, 100, 0)" style="fill-opacity:1.00" />
<rect height="1.033957" width="10.000000" x="650.000000" y="106.917614" fill="rgb(0, 100, 0)" style="fill-opacity:1.00" />
<!-- End 'T' -->
<!-- Begin 'A' -->
<polygon points=" 630.000000, 108.900597, 651.000000, 107.951571, 659.000000, 107.951571, 680.000000, 108.900597, 672.500000, 108.900597, 666.250000, 108.663340, 643.750000, 108.663340, 637.500000, 108.900597" fill="rgb(178, 34, 34)" style="fill-opacity:1.00" />
<!-- End 'A' -->
<!-- Begin 'G' -->
<ellipse cx="655.000000" cy="109.189603" rx="25.000000" ry="0.289006" fill="rgb(255, 165, 0)" style="fill-opacity:1.00" />
<ellipse cx="655.000000" cy="109.189603" rx="16.666667" ry="0.192671" fill="rgb(255, 255, 255)" style="fill-opacity:1.00" />
<rect height="0.289006" width="25.000000" x="655.000000" y="109.045100" fill="rgb(255, 255, 255)" style="fill-opacity:1.00" />
<rect height="0.072252" width="25.000000" x="655.000000" y="109.261855" fill="rgb(255, 165, 0)" style="fill-opacity:1.00" />
<rect height="0.216755" width="6.250000" x="673.750000" y="109.261855" fill="rgb(255, 165, 0)" style="fill-opacity:1.00" />
<!-- End 'G' -->
<!-- Begin 'C' -->
<ellipse cx="655.000000" cy="109.739305" rx="25.000000" ry="0.260695" fill="rgb(0, 0, 128)" style="fill-opacity:1.00" />
<ellipse cx="655.000000" cy="109.739305" rx="16.666667" ry="0.173797" fill="rgb(255, 255, 255)" style="fill-opacity:1.00" />
<rect height="0.260695" width="25.000000" x="655.000000" y="109.608957" fill="rgb(255, 255, 255)" style="fill-opacity:1.00" />
<!-- End 'C' -->
<!-- Begin 'T' -->
<rect height="0.168015" width="50.000000" x="690.000000" y="106.927229" fill="rgb(0, 100, 0)" style="fill-opacity:1.00" />
<rect height="1.050091" width="10.000000" x="710.000000" y="106.927229" fill="rgb(0, 100, 0)" style="fill-opacity:1.00" />
<!-- End 'T' -->
<!-- Begin 'A' -->
<polygon points=" 690.000000, 108.892623, 711.000000, 107.977320, 719.000000, 107.977320, 740.000000, 108.892623, 732.500000, 108.892623, 726.250000, 108.663797, 703.750000, 108.663797, 697.500000, 108.892623" fill="rgb(178, 34, 34)" style="fill-opacity:1.00" />
<!-- End 'A' -->
<!-- Begin 'C' -->
<ellipse cx="715.000000" cy="109.195403" rx="25.000000" ry="0.302780" fill="rgb(0, 0, 128)" style="fill-opacity:1.00" />
<ellipse cx="715.000000" cy="109.195403" rx="16.666667" ry="0.201854" fill="rgb(255, 255, 255)" style="fill-opacity:1.00" />
<rect height="0.302780" width="25.000000" x="715.000000" y="109.044013" fill="rgb(255, 255, 255)" style="fill-opacity:1.00" />
<!-- End 'C' -->
<!-- Begin 'G' -->
<ellipse cx="715.000000" cy="109.749092" rx="25.000000" ry="0.250908" fill="rgb(255, 165, 0)" style="fill-opacity:1.00" />
<ellipse cx="715.000000" cy="109.749092" rx="16.666667" ry="0.167272" fill="rgb(255, 255, 255)" style="fill-opacity:1.00" />
<rect height="0.250908" width="25.000000" x="715.000000" y="109.623638" fill="rgb(255, 255, 255)" style="fill-opacity:1.00" />
<rect height="0.062727" width="25.000000" x="715.000000" y="109.811819" fill="rgb(255, 165, 0)" style="fill-opacity:1.00" />
<rect height="0.188181" width="6.250000" x="733.750000" y="109.811819" fill="rgb(255, 165, 0)" style="fill-opacity:1.00" />
<!-- End 'G' -->
<text x="400.000000" y="165">
IC = 8.24
</text>

</svg>
