<?xml version="1.0" encoding="UTF-8" standalone="yes"?>
                 <!DOCTYPE svg PUBLIC "-//W3C//DTD SVG 1.0//EN" "http://www.w3.org/TR/2001/REC-SVG-20010904/DTD/svg10.dtd">
                 <svg height="170" width="600" xmlns="http://www.w3.org/2000/svg" xmlns:xlink="http://www.w3.org/1999/xlink">
                 <line x1="85" y1="120" x2="567" y2="120" style="stroke:rgb(99,99,99);stroke-width:2" />
<rect height="7.000000" width="2.000000" x="85.000000" y="120.000000" fill="rgb(0, 0, 0)" style="fill-opacity:1.00" />
<text x="107.000000" y="140">
1
</text>
<rect height="7.000000" width="2.000000" x="145.000000" y="120.000000" fill="rgb(0, 0, 0)" style="fill-opacity:1.00" />
<text x="167.000000" y="140">
2
</text>
<rect height="7.000000" width="2.000000" x="205.000000" y="120.000000" fill="rgb(0, 0, 0)" style="fill-opacity:1.00" />
<text x="227.000000" y="140">
3
</text>
<rect height="7.000000" width="2.000000" x="265.000000" y="120.000000" fill="rgb(0, 0, 0)" style="fill-opacity:1.00" />
<text x="287.000000" y="140">
4
</text>
<rect height="7.000000" width="2.000000" x="325.000000" y="120.000000" fill="rgb(0, 0, 0)" style="fill-opacity:1.00" />
<text x="347.000000" y="140">
5
</text>
<rect height="7.000000" width="2.000000" x="385.000000" y="120.000000" fill="rgb(0, 0, 0)" style="fill-opacity:1.00" />
<text x="407.000000" y="140">
6
</text>
<rect height="7.000000" width="2.000000" x="445.000000" y="120.000000" fill="rgb(0, 0, 0)" style="fill-opacity:1.00" />
<text x="467.000000" y="140">
7
</text>
<rect height="7.000000" width="2.000000" x="505.000000" y="120.000000" fill="rgb(0, 0, 0)" style="fill-opacity:1.00" />
<text x="527.000000" y="140">
8
</text>
<rect height="7.000000" width="2.000000" x="565.000000" y="120.000000" fill="rgb(0, 0, 0)" style="fill-opacity:1.00" />
<line x1="80" y1="112" x2="80" y2="10" style="stroke:rgb(99,99,99);stroke-width:2" />
<rect height="2.000000" width="7.000000" x="73.000000" y="110.000000" fill="rgb(0, 0, 0)" style="fill-opacity:1.00" />
<text x="63" y="115">
0
</text>
<rect height="2.000000" width="7.000000" x="73.000000" y="60.000000" fill="rgb(0, 0, 0)" style="fill-opacity:1.00" />
<text x="63" y="65">
1
</text>
<rect height="2.000000" width="7.000000" x="73.000000" y="10.000000" fill="rgb(0, 0, 0)" style="fill-opacity:1.00" />
<text x="63" y="15">
2
</text>
<text x="50" y="65"
transform="rotate(-90, 50, 70)">
bits
</text>
<!-- Begin 'G' -->
<ellipse cx="115.000000" cy="108.758536" rx="25.000000" ry="0.243648" fill="rgb(255, 165, 0)" style="fill-opacity:1.00" />
<ellipse cx="115.000000" cy="108.758536" rx="16.666667" ry="0.162432" fill="rgb(255, 255, 255)" style="fill-opacity:1.00" />
<rect height="0.243648" width="25.000000" x="115.000000" y="108.636712" fill="rgb(255, 255, 255)" style="fill-opacity:1.00" />
<rect height="0.060912" width="25.000000" x="115.000000" y="108.819448" fill="rgb(255, 165, 0)" style="fill-opacity:1.00" />
<rect height="0.182736" width="6.250000" x="133.750000" y="108.819448" fill="rgb(255, 165, 0)" style="fill-opacity:1.00" />
<!-- End 'G' -->
<!-- Begin 'A' -->
<polygon points=" 90.000000, 109.372708, 111.000000, 109.002184, 119.000000, 109.002184, 140.000000, 109.372708, 132.500000, 109.372708, 126.250000, 109.280077, 103.750000, 109.280077, 97.500000, 109.372708" fill="rgb(178, 34, 34)" style="fill-opacity:1.00" />
<!-- End 'A' -->
<!-- Begin 'C' -->
<ellipse cx="115.000000" cy="109.548579" rx="25.000000" ry="0.175871" fill="rgb(0, 0, 128)" style="fill-opacity:1.00" />
<ellipse cx="115.000000" cy="109.548579" rx="16.666667" ry="0.117247" fill="rgb(255, 255, 255)" style="fill-opacity:1.00" />
<rect height="0.175871" width="25.000000" x="115.000000" y="109.460644" fill="rgb(255, 255, 255)" style="fill-opacity:1.00" />
<!-- End 'C' -->
<!-- Begin 'T' -->
<rect height="0.044088" width="50.000000" x="90.000000" y="109.724450" fill="rgb(0, 100, 0)" style="fill-opacity:1.00" />
<rect height="0.275550" width="10.000000" x="110.000000" y="109.724450" fill="rgb(0, 100, 0)" style="fill-opacity:1.00" />
<!-- End 'T' -->
<!-- Begin 'C' -->
<ellipse cx="175.000000" cy="100.414753" rx="25.000000" ry="2.654059" fill="rgb(0, 0, 128)" style="fill-opacity:1.00" />
<ellipse cx="175.000000" cy="100.414753" rx="16.666667" ry="1.769373" fill="rgb(255, 255, 255)" style="fill-opacity:1.00" />
<rect height="2.654059" width="25.000000" x="175.000000" y="99.087723" fill="rgb(255, 255, 255)" style="fill-opacity:1.00" />
<!-- End 'C' -->
<!-- Begin 'G' -->
<ellipse cx="175.000000" cy="105.175208" rx="25.000000" ry="2.106396" fill="rgb(255, 165, 0)" style="fill-opacity:1.00" />
<ellipse cx="175.000000" cy="105.175208" rx="16.666667" ry="1.404264" fill="rgb(255, 255, 255)" style="fill-opacity:1.00" />
<rect height="2.106396" width="25.000000" x="175.000000" y="104.122010" fill="rgb(255, 255, 255)" style="fill-opacity:1.00" />
<rect height="0.526599" width="25.000000" x="175.000000" y="105.701807" fill="rgb(255, 165, 0)" style="fill-opacity:1.00" />
<rect height="1.579797" width="6.250000" x="193.750000" y="105.701807" fill="rgb(255, 165, 0)" style="fill-opacity:1.00" />
<!-- End 'G' -->
<!-- Begin 'A' -->
<polygon points=" 150.000000, 108.764706, 171.000000, 107.281605, 179.000000, 107.281605, 200.000000, 108.764706, 192.500000, 108.764706, 186.250000, 108.393931, 163.750000, 108.393931, 157.500000, 108.764706" fill="rgb(178, 34, 34)" style="fill-opacity:1.00" />
<!-- End 'A' -->
<!-- Begin 'T' -->
<rect height="0.197647" width="50.000000" x="150.000000" y="108.764706" fill="rgb(0, 100, 0)" style="fill-opacity:1.00" />
<rect height="1.235294" width="10.000000" x="170.000000" y="108.764706" fill="rgb(0, 100, 0)" style="fill-opacity:1.00" />
<!-- End 'T' -->
<!-- Begin 'C' -->
<ellipse cx="235.000000" cy="61.687421" rx="25.000000" ry="47.449440" fill="rgb(0, 0, 128)" style="fill-opacity:1.00" />
<ellipse cx="235.000000" cy="61.687421" rx="16.666667" ry="31.632960" fill="rgb(255, 255, 255)" style="fill-opacity:1.00" />
<rect height="47.449440" width="25.000000" x="235.000000" y="37.962701" fill="rgb(255, 255, 255)" style="fill-opacity:1.00" />
<!-- End 'C' -->
<!-- Begin 'A' -->
<polygon points=" 210.000000, 109.718575, 231.000000, 109.136861, 239.000000, 109.136861, 260.000000, 109.718575, 252.500000, 109.718575, 246.250000, 109.573146, 223.750000, 109.573146, 217.500000, 109.718575" fill="rgb(178, 34, 34)" style="fill-opacity:1.00" />
<!-- End 'A' -->
<!-- Begin 'G' -->
<ellipse cx="235.000000" cy="109.824510" rx="25.000000" ry="0.105935" fill="rgb(255, 165, 0)" style="fill-opacity:1.00" />
<ellipse cx="235.000000" cy="109.824510" rx="16.666667" ry="0.070624" fill="rgb(255, 255, 255)" style="fill-opacity:1.00" />
<rect height="0.105935" width="25.000000" x="235.000000" y="109.771542" fill="rgb(255, 255, 255)" style="fill-opacity:1.00" />
<rect height="0.026484" width="25.000000" x="235.000000" y="109.850994" fill="rgb(255, 165, 0)" style="fill-opacity:1.00" />
<rect height="0.079452" width="6.250000" x="253.750000" y="109.850994" fill="rgb(255, 165, 0)" style="fill-opacity:1.00" />
<!-- End 'G' -->
<!-- Begin 'T' -->
<rect height="0.011129" width="50.000000" x="210.000000" y="109.930445" fill="rgb(0, 100, 0)" style="fill-opacity:1.00" />
<rect height="0.069555" width="10.000000" x="230.000000" y="109.930445" fill="rgb(0, 100, 0)" style="fill-opacity:1.00" />
<!-- End 'T' -->
<!-- Begin 'A' -->
<polygon points=" 270.000000, 97.598000, 291.000000, 56.437765, 299.000000, 56.437765, 320.000000, 97.598000, 312.500000, 97.598000, 306.250000, 87.307941, 283.750000, 87.307941, 277.500000, 97.598000" fill="rgb(178, 34, 34)" style="fill-opacity:1.00" />
<polygon points=" 295.000000, 64.669812, 287.000000, 80.133906, 302.000000, 80.133906" fill="rgb(255, 255, 255)" style="fill-opacity:1.00" />
<!-- End 'A' -->
<!-- Begin 'G' -->
<ellipse cx="295.000000" cy="102.874968" rx="25.000000" ry="5.276968" fill="rgb(255, 165, 0)" style="fill-opacity:1.00" />
<ellipse cx="295.000000" cy="102.874968" rx="16.666667" ry="3.517979" fill="rgb(255, 255, 255)" style="fill-opacity:1.00" />
<rect height="5.276968" width="25.000000" x="295.000000" y="100.236484" fill="rgb(255, 255, 255)" style="fill-opacity:1.00" />
<rect height="1.319242" width="25.000000" x="295.000000" y="104.194210" fill="rgb(255, 165, 0)" style="fill-opacity:1.00" />
<rect height="3.957726" width="6.250000" x="313.750000" y="104.194210" fill="rgb(255, 165, 0)" style="fill-opacity:1.00" />
<!-- End 'G' -->
<!-- Begin 'T' -->
<rect height="0.285557" width="50.000000" x="270.000000" y="108.151936" fill="rgb(0, 100, 0)" style="fill-opacity:1.00" />
<rect height="1.784733" width="10.000000" x="290.000000" y="108.151936" fill="rgb(0, 100, 0)" style="fill-opacity:1.00" />
<!-- End 'T' -->
<!-- Begin 'C' -->
<ellipse cx="295.000000" cy="109.968334" rx="25.000000" ry="0.031666" fill="rgb(0, 0, 128)" style="fill-opacity:1.00" />
<ellipse cx="295.000000" cy="109.968334" rx="16.666667" ry="0.021110" fill="rgb(255, 255, 255)" style="fill-opacity:1.00" />
<rect height="0.031666" width="25.000000" x="295.000000" y="109.952502" fill="rgb(255, 255, 255)" style="fill-opacity:1.00" />
<!-- End 'C' -->
<!-- Begin 'C' -->
<ellipse cx="355.000000" cy="69.949626" rx="25.000000" ry="31.688638" fill="rgb(0, 0, 128)" style="fill-opacity:1.00" />
<ellipse cx="355.000000" cy="69.949626" rx="16.666667" ry="21.125759" fill="rgb(255, 255, 255)" style="fill-opacity:1.00" />
<rect height="31.688638" width="25.000000" x="355.000000" y="54.105307" fill="rgb(255, 255, 255)" style="fill-opacity:1.00" />
<!-- End 'C' -->
<!-- Begin 'T' -->
<rect height="1.239800" width="50.000000" x="330.000000" y="101.638264" fill="rgb(0, 100, 0)" style="fill-opacity:1.00" />
<rect height="7.748752" width="10.000000" x="350.000000" y="101.638264" fill="rgb(0, 100, 0)" style="fill-opacity:1.00" />
<!-- End 'T' -->
<!-- Begin 'G' -->
<ellipse cx="355.000000" cy="109.683605" rx="25.000000" ry="0.296589" fill="rgb(255, 165, 0)" style="fill-opacity:1.00" />
<ellipse cx="355.000000" cy="109.683605" rx="16.666667" ry="0.197726" fill="rgb(255, 255, 255)" style="fill-opacity:1.00" />
<rect height="0.296589" width="25.000000" x="355.000000" y="109.535310" fill="rgb(255, 255, 255)" style="fill-opacity:1.00" />
<rect height="0.074147" width="25.000000" x="355.000000" y="109.757752" fill="rgb(255, 165, 0)" style="fill-opacity:1.00" />
<rect height="0.222442" width="6.250000" x="373.750000" y="109.757752" fill="rgb(255, 165, 0)" style="fill-opacity:1.00" />
<!-- End 'G' -->
<!-- Begin 'A' -->
<polygon points=" 330.000000, 110.000000, 351.000000, 109.980194, 359.000000, 109.980194, 380.000000, 110.000000, 372.500000, 110.000000, 366.250000, 109.995048, 343.750000, 109.995048, 337.500000, 110.000000" fill="rgb(178, 34, 34)" style="fill-opacity:1.00" />
<!-- End 'A' -->
<!-- Begin 'G' -->
<ellipse cx="415.000000" cy="70.535857" rx="25.000000" ry="30.460122" fill="rgb(255, 165, 0)" style="fill-opacity:1.00" />
<ellipse cx="415.000000" cy="70.535857" rx="16.666667" ry="20.306748" fill="rgb(255, 255, 255)" style="fill-opacity:1.00" />
<rect height="30.460122" width="25.000000" x="415.000000" y="55.305796" fill="rgb(255, 255, 255)" style="fill-opacity:1.00" />
<rect height="7.615031" width="25.000000" x="415.000000" y="78.150887" fill="rgb(255, 165, 0)" style="fill-opacity:1.00" />
<rect height="22.845092" width="6.250000" x="433.750000" y="78.150887" fill="rgb(255, 165, 0)" style="fill-opacity:1.00" />
<!-- End 'G' -->
<!-- Begin 'A' -->
<polygon points=" 390.000000, 109.401512, 411.000000, 100.995979, 419.000000, 100.995979, 440.000000, 109.401512, 432.500000, 109.401512, 426.250000, 107.300129, 403.750000, 107.300129, 397.500000, 109.401512" fill="rgb(178, 34, 34)" style="fill-opacity:1.00" />
<polygon points=" 415.000000, 102.677086, 407.000000, 105.039299, 422.000000, 105.039299" fill="rgb(255, 255, 255)" style="fill-opacity:1.00" />
<!-- End 'A' -->
<!-- Begin 'C' -->
<ellipse cx="415.000000" cy="109.688891" rx="25.000000" ry="0.287379" fill="rgb(0, 0, 128)" style="fill-opacity:1.00" />
<ellipse cx="415.000000" cy="109.688891" rx="16.666667" ry="0.191586" fill="rgb(255, 255, 255)" style="fill-opacity:1.00" />
<rect height="0.287379" width="25.000000" x="415.000000" y="109.545202" fill="rgb(255, 255, 255)" style="fill-opacity:1.00" />
<!-- End 'C' -->
<!-- Begin 'T' -->
<rect height="0.003797" width="50.000000" x="390.000000" y="109.976270" fill="rgb(0, 100, 0)" style="fill-opacity:1.00" />
<rect height="0.023730" width="10.000000" x="410.000000" y="109.976270" fill="rgb(0, 100, 0)" style="fill-opacity:1.00" />
<!-- End 'T' -->
<!-- Begin 'T' -->
<rect height="7.101393" width="50.000000" x="450.000000" y="53.919497" fill="rgb(0, 100, 0)" style="fill-opacity:1.00" />
<rect height="44.383703" width="10.000000" x="470.000000" y="53.919497" fill="rgb(0, 100, 0)" style="fill-opacity:1.00" />
<!-- End 'T' -->
<!-- Begin 'C' -->
<ellipse cx="475.000000" cy="103.249890" rx="25.000000" ry="4.946690" fill="rgb(0, 0, 128)" style="fill-opacity:1.00" />
<ellipse cx="475.000000" cy="103.249890" rx="16.666667" ry="3.297793" fill="rgb(255, 255, 255)" style="fill-opacity:1.00" />
<rect height="4.946690" width="25.000000" x="475.000000" y="100.776545" fill="rgb(255, 255, 255)" style="fill-opacity:1.00" />
<!-- End 'C' -->
<!-- Begin 'A' -->
<polygon points=" 450.000000, 109.895171, 471.000000, 108.196580, 479.000000, 108.196580, 500.000000, 109.895171, 492.500000, 109.895171, 486.250000, 109.470523, 463.750000, 109.470523, 457.500000, 109.895171" fill="rgb(178, 34, 34)" style="fill-opacity:1.00" />
<!-- End 'A' -->
<!-- Begin 'G' -->
<ellipse cx="475.000000" cy="109.947585" rx="25.000000" ry="0.052415" fill="rgb(255, 165, 0)" style="fill-opacity:1.00" />
<ellipse cx="475.000000" cy="109.947585" rx="16.666667" ry="0.034943" fill="rgb(255, 255, 255)" style="fill-opacity:1.00" />
<rect height="0.052415" width="25.000000" x="475.000000" y="109.921378" fill="rgb(255, 255, 255)" style="fill-opacity:1.00" />
<rect height="0.013104" width="25.000000" x="475.000000" y="109.960689" fill="rgb(255, 165, 0)" style="fill-opacity:1.00" />
<rect height="0.039311" width="6.250000" x="493.750000" y="109.960689" fill="rgb(255, 165, 0)" style="fill-opacity:1.00" />
<!-- End 'G' -->
<!-- Begin 'G' -->
<ellipse cx="535.000000" cy="62.122095" rx="25.000000" ry="46.755695" fill="rgb(255, 165, 0)" style="fill-opacity:1.00" />
<ellipse cx="535.000000" cy="62.122095" rx="16.666667" ry="31.170463" fill="rgb(255, 255, 255)" style="fill-opacity:1.00" />
<rect height="46.755695" width="25.000000" x="535.000000" y="38.744248" fill="rgb(255, 255, 255)" style="fill-opacity:1.00" />
<rect height="11.688924" width="25.000000" x="535.000000" y="73.811019" fill="rgb(255, 165, 0)" style="fill-opacity:1.00" />
<rect height="35.066771" width="6.250000" x="553.750000" y="73.811019" fill="rgb(255, 165, 0)" style="fill-opacity:1.00" />
<!-- End 'G' -->
<!-- Begin 'T' -->
<rect height="0.120292" width="50.000000" x="510.000000" y="108.877790" fill="rgb(0, 100, 0)" style="fill-opacity:1.00" />
<rect height="0.751822" width="10.000000" x="530.000000" y="108.877790" fill="rgb(0, 100, 0)" style="fill-opacity:1.00" />
<!-- End 'T' -->
<!-- Begin 'C' -->
<ellipse cx="535.000000" cy="109.752715" rx="25.000000" ry="0.123102" fill="rgb(0, 0, 128)" style="fill-opacity:1.00" />
<ellipse cx="535.000000" cy="109.752715" rx="16.666667" ry="0.082068" fill="rgb(255, 255, 255)" style="fill-opacity:1.00" />
<rect height="0.123102" width="25.000000" x="535.000000" y="109.691164" fill="rgb(255, 255, 255)" style="fill-opacity:1.00" />
<!-- End 'C' -->
<!-- Begin 'A' -->
<polygon points=" 510.000000, 110.000000, 531.000000, 109.875817, 539.000000, 109.875817, 560.000000, 110.000000, 552.500000, 110.000000, 546.250000, 109.968954, 523.750000, 109.968954, 517.500000, 110.000000" fill="rgb(178, 34, 34)" style="fill-opacity:1.00" />
<!-- End 'A' -->
<text x="310.000000" y="165">
IC = 9.11
</text>

</svg>
