<?xml version="1.0" encoding="UTF-8" standalone="yes"?>
                 <!DOCTYPE svg PUBLIC "-//W3C//DTD SVG 1.0//EN" "http://www.w3.org/TR/2001/REC-SVG-20010904/DTD/svg10.dtd">
                 <svg height="170" width="1020" xmlns="http://www.w3.org/2000/svg" xmlns:xlink="http://www.w3.org/1999/xlink">
                 <line x1="85" y1="120" x2="987" y2="120" style="stroke:rgb(99,99,99);stroke-width:2" />
<rect height="7.000000" width="2.000000" x="85.000000" y="120.000000" fill="rgb(0, 0, 0)" style="fill-opacity:1.00" />
<text x="107.000000" y="140">
1
</text>
<rect height="7.000000" width="2.000000" x="145.000000" y="120.000000" fill="rgb(0, 0, 0)" style="fill-opacity:1.00" />
<text x="167.000000" y="140">
2
</text>
<rect height="7.000000" width="2.000000" x="205.000000" y="120.000000" fill="rgb(0, 0, 0)" style="fill-opacity:1.00" />
<text x="227.000000" y="140">
3
</text>
<rect height="7.000000" width="2.000000" x="265.000000" y="120.000000" fill="rgb(0, 0, 0)" style="fill-opacity:1.00" />
<text x="287.000000" y="140">
4
</text>
<rect height="7.000000" width="2.000000" x="325.000000" y="120.000000" fill="rgb(0, 0, 0)" style="fill-opacity:1.00" />
<text x="347.000000" y="140">
5
</text>
<rect height="7.000000" width="2.000000" x="385.000000" y="120.000000" fill="rgb(0, 0, 0)" style="fill-opacity:1.00" />
<text x="407.000000" y="140">
6
</text>
<rect height="7.000000" width="2.000000" x="445.000000" y="120.000000" fill="rgb(0, 0, 0)" style="fill-opacity:1.00" />
<text x="467.000000" y="140">
7
</text>
<rect height="7.000000" width="2.000000" x="505.000000" y="120.000000" fill="rgb(0, 0, 0)" style="fill-opacity:1.00" />
<text x="527.000000" y="140">
8
</text>
<rect height="7.000000" width="2.000000" x="565.000000" y="120.000000" fill="rgb(0, 0, 0)" style="fill-opacity:1.00" />
<text x="587.000000" y="140">
9
</text>
<rect height="7.000000" width="2.000000" x="625.000000" y="120.000000" fill="rgb(0, 0, 0)" style="fill-opacity:1.00" />
<text x="647.000000" y="140">
10
</text>
<rect height="7.000000" width="2.000000" x="685.000000" y="120.000000" fill="rgb(0, 0, 0)" style="fill-opacity:1.00" />
<text x="707.000000" y="140">
11
</text>
<rect height="7.000000" width="2.000000" x="745.000000" y="120.000000" fill="rgb(0, 0, 0)" style="fill-opacity:1.00" />
<text x="767.000000" y="140">
12
</text>
<rect height="7.000000" width="2.000000" x="805.000000" y="120.000000" fill="rgb(0, 0, 0)" style="fill-opacity:1.00" />
<text x="827.000000" y="140">
13
</text>
<rect height="7.000000" width="2.000000" x="865.000000" y="120.000000" fill="rgb(0, 0, 0)" style="fill-opacity:1.00" />
<text x="887.000000" y="140">
14
</text>
<rect height="7.000000" width="2.000000" x="925.000000" y="120.000000" fill="rgb(0, 0, 0)" style="fill-opacity:1.00" />
<text x="947.000000" y="140">
15
</text>
<rect height="7.000000" width="2.000000" x="985.000000" y="120.000000" fill="rgb(0, 0, 0)" style="fill-opacity:1.00" />
<line x1="80" y1="112" x2="80" y2="10" style="stroke:rgb(99,99,99);stroke-width:2" />
<rect height="2.000000" width="7.000000" x="73.000000" y="110.000000" fill="rgb(0, 0, 0)" style="fill-opacity:1.00" />
<text x="63" y="115">
0
</text>
<rect height="2.000000" width="7.000000" x="73.000000" y="60.000000" fill="rgb(0, 0, 0)" style="fill-opacity:1.00" />
<text x="63" y="65">
1
</text>
<rect height="2.000000" width="7.000000" x="73.000000" y="10.000000" fill="rgb(0, 0, 0)" style="fill-opacity:1.00" />
<text x="63" y="15">
2
</text>
<text x="50" y="65"
transform="rotate(-90, 50, 70)">
bits
</text>
<!-- Begin 'A' -->
<polygon points=" 90.000000, 103.305786, 111.000000, 98.231265, 119.000000, 98.231265, 140.000000, 103.305786, 132.500000, 103.305786, 126.250000, 102.037155, 103.750000, 102.037155, 97.500000, 103.305786" fill="rgb(178, 34, 34)" style="fill-opacity:1.00" />
<!-- End 'A' -->
<!-- Begin 'T' -->
<rect height="0.643975" width="50.000000" x="90.000000" y="103.305786" fill="rgb(0, 100, 0)" style="fill-opacity:1.00" />
<rect height="4.024842" width="10.000000" x="110.000000" y="103.305786" fill="rgb(0, 100, 0)" style="fill-opacity:1.00" />
<!-- End 'T' -->
<!-- Begin 'G' -->
<ellipse cx="115.000000" cy="108.029309" rx="25.000000" ry="0.698681" fill="rgb(255, 165, 0)" style="fill-opacity:1.00" />
<ellipse cx="115.000000" cy="108.029309" rx="16.666667" ry="0.465788" fill="rgb(255, 255, 255)" style="fill-opacity:1.00" />
<rect height="0.698681" width="25.000000" x="115.000000" y="107.679968" fill="rgb(255, 255, 255)" style="fill-opacity:1.00" />
<rect height="0.174670" width="25.000000" x="115.000000" y="108.203979" fill="rgb(255, 165, 0)" style="fill-opacity:1.00" />
<rect height="0.524011" width="6.250000" x="133.750000" y="108.203979" fill="rgb(255, 165, 0)" style="fill-opacity:1.00" />
<!-- End 'G' -->
<!-- Begin 'C' -->
<ellipse cx="115.000000" cy="109.363995" rx="25.000000" ry="0.636005" fill="rgb(0, 0, 128)" style="fill-opacity:1.00" />
<ellipse cx="115.000000" cy="109.363995" rx="16.666667" ry="0.424003" fill="rgb(255, 255, 255)" style="fill-opacity:1.00" />
<rect height="0.636005" width="25.000000" x="115.000000" y="109.045993" fill="rgb(255, 255, 255)" style="fill-opacity:1.00" />
<!-- End 'C' -->
<!-- Begin 'A' -->
<polygon points=" 150.000000, 102.941943, 171.000000, 98.106389, 179.000000, 98.106389, 200.000000, 102.941943, 192.500000, 102.941943, 186.250000, 101.733054, 163.750000, 101.733054, 157.500000, 102.941943" fill="rgb(178, 34, 34)" style="fill-opacity:1.00" />
<!-- End 'A' -->
<!-- Begin 'T' -->
<rect height="0.706440" width="50.000000" x="150.000000" y="102.941943" fill="rgb(0, 100, 0)" style="fill-opacity:1.00" />
<rect height="4.415252" width="10.000000" x="170.000000" y="102.941943" fill="rgb(0, 100, 0)" style="fill-opacity:1.00" />
<!-- End 'T' -->
<!-- Begin 'C' -->
<ellipse cx="175.000000" cy="108.066961" rx="25.000000" ry="0.709765" fill="rgb(0, 0, 128)" style="fill-opacity:1.00" />
<ellipse cx="175.000000" cy="108.066961" rx="16.666667" ry="0.473177" fill="rgb(255, 255, 255)" style="fill-opacity:1.00" />
<rect height="0.709765" width="25.000000" x="175.000000" y="107.712078" fill="rgb(255, 255, 255)" style="fill-opacity:1.00" />
<!-- End 'C' -->
<!-- Begin 'G' -->
<ellipse cx="175.000000" cy="109.388363" rx="25.000000" ry="0.611637" fill="rgb(255, 165, 0)" style="fill-opacity:1.00" />
<ellipse cx="175.000000" cy="109.388363" rx="16.666667" ry="0.407758" fill="rgb(255, 255, 255)" style="fill-opacity:1.00" />
<rect height="0.611637" width="25.000000" x="175.000000" y="109.082545" fill="rgb(255, 255, 255)" style="fill-opacity:1.00" />
<rect height="0.152909" width="25.000000" x="175.000000" y="109.541272" fill="rgb(255, 165, 0)" style="fill-opacity:1.00" />
<rect height="0.458728" width="6.250000" x="193.750000" y="109.541272" fill="rgb(255, 165, 0)" style="fill-opacity:1.00" />
<!-- End 'G' -->
<!-- Begin 'A' -->
<polygon points=" 210.000000, 104.499692, 231.000000, 101.007721, 239.000000, 101.007721, 260.000000, 104.499692, 252.500000, 104.499692, 246.250000, 103.626699, 223.750000, 103.626699, 217.500000, 104.499692" fill="rgb(178, 34, 34)" style="fill-opacity:1.00" />
<!-- End 'A' -->
<!-- Begin 'T' -->
<rect height="0.510188" width="50.000000" x="210.000000" y="104.499692" fill="rgb(0, 100, 0)" style="fill-opacity:1.00" />
<rect height="3.188677" width="10.000000" x="230.000000" y="104.499692" fill="rgb(0, 100, 0)" style="fill-opacity:1.00" />
<!-- End 'T' -->
<!-- Begin 'C' -->
<ellipse cx="235.000000" cy="108.309346" rx="25.000000" ry="0.620977" fill="rgb(0, 0, 128)" style="fill-opacity:1.00" />
<ellipse cx="235.000000" cy="108.309346" rx="16.666667" ry="0.413985" fill="rgb(255, 255, 255)" style="fill-opacity:1.00" />
<rect height="0.620977" width="25.000000" x="235.000000" y="107.998858" fill="rgb(255, 255, 255)" style="fill-opacity:1.00" />
<!-- End 'C' -->
<!-- Begin 'G' -->
<ellipse cx="235.000000" cy="109.465162" rx="25.000000" ry="0.534838" fill="rgb(255, 165, 0)" style="fill-opacity:1.00" />
<ellipse cx="235.000000" cy="109.465162" rx="16.666667" ry="0.356559" fill="rgb(255, 255, 255)" style="fill-opacity:1.00" />
<rect height="0.534838" width="25.000000" x="235.000000" y="109.197743" fill="rgb(255, 255, 255)" style="fill-opacity:1.00" />
<rect height="0.133710" width="25.000000" x="235.000000" y="109.598871" fill="rgb(255, 165, 0)" style="fill-opacity:1.00" />
<rect height="0.401129" width="6.250000" x="253.750000" y="109.598871" fill="rgb(255, 165, 0)" style="fill-opacity:1.00" />
<!-- End 'G' -->
<!-- Begin 'A' -->
<polygon points=" 270.000000, 106.305475, 291.000000, 104.023971, 299.000000, 104.023971, 320.000000, 106.305475, 312.500000, 106.305475, 306.250000, 105.735099, 283.750000, 105.735099, 277.500000, 106.305475" fill="rgb(178, 34, 34)" style="fill-opacity:1.00" />
<!-- End 'A' -->
<!-- Begin 'T' -->
<rect height="0.299034" width="50.000000" x="270.000000" y="106.305475" fill="rgb(0, 100, 0)" style="fill-opacity:1.00" />
<rect height="1.868961" width="10.000000" x="290.000000" y="106.305475" fill="rgb(0, 100, 0)" style="fill-opacity:1.00" />
<!-- End 'T' -->
<!-- Begin 'C' -->
<ellipse cx="295.000000" cy="108.678915" rx="25.000000" ry="0.504479" fill="rgb(0, 0, 128)" style="fill-opacity:1.00" />
<ellipse cx="295.000000" cy="108.678915" rx="16.666667" ry="0.336319" fill="rgb(255, 255, 255)" style="fill-opacity:1.00" />
<rect height="0.504479" width="25.000000" x="295.000000" y="108.426675" fill="rgb(255, 255, 255)" style="fill-opacity:1.00" />
<!-- End 'C' -->
<!-- Begin 'G' -->
<ellipse cx="295.000000" cy="109.591697" rx="25.000000" ry="0.408303" fill="rgb(255, 165, 0)" style="fill-opacity:1.00" />
<ellipse cx="295.000000" cy="109.591697" rx="16.666667" ry="0.272202" fill="rgb(255, 255, 255)" style="fill-opacity:1.00" />
<rect height="0.408303" width="25.000000" x="295.000000" y="109.387545" fill="rgb(255, 255, 255)" style="fill-opacity:1.00" />
<rect height="0.102076" width="25.000000" x="295.000000" y="109.693773" fill="rgb(255, 165, 0)" style="fill-opacity:1.00" />
<rect height="0.306227" width="6.250000" x="313.750000" y="109.693773" fill="rgb(255, 165, 0)" style="fill-opacity:1.00" />
<!-- End 'G' -->
<!-- Begin 'T' -->
<rect height="0.364178" width="50.000000" x="330.000000" y="104.168638" fill="rgb(0, 100, 0)" style="fill-opacity:1.00" />
<rect height="2.276111" width="10.000000" x="350.000000" y="104.168638" fill="rgb(0, 100, 0)" style="fill-opacity:1.00" />
<!-- End 'T' -->
<!-- Begin 'A' -->
<polygon points=" 330.000000, 108.176871, 351.000000, 106.444749, 359.000000, 106.444749, 380.000000, 108.176871, 372.500000, 108.176871, 366.250000, 107.743840, 343.750000, 107.743840, 337.500000, 108.176871" fill="rgb(178, 34, 34)" style="fill-opacity:1.00" />
<!-- End 'A' -->
<!-- Begin 'G' -->
<ellipse cx="355.000000" cy="108.690685" rx="25.000000" ry="0.513815" fill="rgb(255, 165, 0)" style="fill-opacity:1.00" />
<ellipse cx="355.000000" cy="108.690685" rx="16.666667" ry="0.342543" fill="rgb(255, 255, 255)" style="fill-opacity:1.00" />
<rect height="0.513815" width="25.000000" x="355.000000" y="108.433778" fill="rgb(255, 255, 255)" style="fill-opacity:1.00" />
<rect height="0.128454" width="25.000000" x="355.000000" y="108.819139" fill="rgb(255, 165, 0)" style="fill-opacity:1.00" />
<rect height="0.385361" width="6.250000" x="373.750000" y="108.819139" fill="rgb(255, 165, 0)" style="fill-opacity:1.00" />
<!-- End 'G' -->
<!-- Begin 'C' -->
<ellipse cx="355.000000" cy="109.602250" rx="25.000000" ry="0.397750" fill="rgb(0, 0, 128)" style="fill-opacity:1.00" />
<ellipse cx="355.000000" cy="109.602250" rx="16.666667" ry="0.265167" fill="rgb(255, 255, 255)" style="fill-opacity:1.00" />
<rect height="0.397750" width="25.000000" x="355.000000" y="109.403375" fill="rgb(255, 255, 255)" style="fill-opacity:1.00" />
<!-- End 'C' -->
<!-- Begin 'T' -->
<rect height="6.444938" width="50.000000" x="390.000000" y="59.715484" fill="rgb(0, 100, 0)" style="fill-opacity:1.00" />
<rect height="40.280861" width="10.000000" x="410.000000" y="59.715484" fill="rgb(0, 100, 0)" style="fill-opacity:1.00" />
<!-- End 'T' -->
<!-- Begin 'A' -->
<polygon points=" 390.000000, 105.733285, 411.000000, 99.996345, 419.000000, 99.996345, 440.000000, 105.733285, 432.500000, 105.733285, 426.250000, 104.299050, 403.750000, 104.299050, 397.500000, 105.733285" fill="rgb(178, 34, 34)" style="fill-opacity:1.00" />
<!-- End 'A' -->
<!-- Begin 'C' -->
<ellipse cx="415.000000" cy="107.135943" rx="25.000000" ry="1.402658" fill="rgb(0, 0, 128)" style="fill-opacity:1.00" />
<ellipse cx="415.000000" cy="107.135943" rx="16.666667" ry="0.935105" fill="rgb(255, 255, 255)" style="fill-opacity:1.00" />
<rect height="1.402658" width="25.000000" x="415.000000" y="106.434614" fill="rgb(255, 255, 255)" style="fill-opacity:1.00" />
<!-- End 'C' -->
<!-- Begin 'G' -->
<ellipse cx="415.000000" cy="109.269300" rx="25.000000" ry="0.730700" fill="rgb(255, 165, 0)" style="fill-opacity:1.00" />
<ellipse cx="415.000000" cy="109.269300" rx="16.666667" ry="0.487133" fill="rgb(255, 255, 255)" style="fill-opacity:1.00" />
<rect height="0.730700" width="25.000000" x="415.000000" y="108.903950" fill="rgb(255, 255, 255)" style="fill-opacity:1.00" />
<rect height="0.182675" width="25.000000" x="415.000000" y="109.451975" fill="rgb(255, 165, 0)" style="fill-opacity:1.00" />
<rect height="0.548025" width="6.250000" x="433.750000" y="109.451975" fill="rgb(255, 165, 0)" style="fill-opacity:1.00" />
<!-- End 'G' -->
<!-- Begin 'A' -->
<polygon points=" 450.000000, 98.453715, 471.000000, 62.509634, 479.000000, 62.509634, 500.000000, 98.453715, 492.500000, 98.453715, 486.250000, 89.467695, 463.750000, 89.467695, 457.500000, 98.453715" fill="rgb(178, 34, 34)" style="fill-opacity:1.00" />
<polygon points=" 475.000000, 69.698450, 467.000000, 83.076083, 482.000000, 83.076083" fill="rgb(255, 255, 255)" style="fill-opacity:1.00" />
<!-- End 'A' -->
<!-- Begin 'G' -->
<ellipse cx="475.000000" cy="102.809459" rx="25.000000" ry="4.355744" fill="rgb(255, 165, 0)" style="fill-opacity:1.00" />
<ellipse cx="475.000000" cy="102.809459" rx="16.666667" ry="2.903829" fill="rgb(255, 255, 255)" style="fill-opacity:1.00" />
<rect height="4.355744" width="25.000000" x="475.000000" y="100.631587" fill="rgb(255, 255, 255)" style="fill-opacity:1.00" />
<rect height="1.088936" width="25.000000" x="475.000000" y="103.898395" fill="rgb(255, 165, 0)" style="fill-opacity:1.00" />
<rect height="3.266808" width="6.250000" x="493.750000" y="103.898395" fill="rgb(255, 165, 0)" style="fill-opacity:1.00" />
<!-- End 'G' -->
<!-- Begin 'C' -->
<ellipse cx="475.000000" cy="108.117738" rx="25.000000" ry="0.952535" fill="rgb(0, 0, 128)" style="fill-opacity:1.00" />
<ellipse cx="475.000000" cy="108.117738" rx="16.666667" ry="0.635024" fill="rgb(255, 255, 255)" style="fill-opacity:1.00" />
<rect height="0.952535" width="25.000000" x="475.000000" y="107.641471" fill="rgb(255, 255, 255)" style="fill-opacity:1.00" />
<!-- End 'C' -->
<!-- Begin 'T' -->
<rect height="0.148756" width="50.000000" x="450.000000" y="109.070274" fill="rgb(0, 100, 0)" style="fill-opacity:1.00" />
<rect height="0.929726" width="10.000000" x="470.000000" y="109.070274" fill="rgb(0, 100, 0)" style="fill-opacity:1.00" />
<!-- End 'T' -->
<!-- Begin 'A' -->
<polygon points=" 510.000000, 103.569470, 531.000000, 37.071138, 539.000000, 37.071138, 560.000000, 103.569470, 552.500000, 103.569470, 546.250000, 86.944887, 523.750000, 86.944887, 517.500000, 103.569470" fill="rgb(178, 34, 34)" style="fill-opacity:1.00" />
<polygon points=" 535.000000, 50.370804, 527.000000, 75.970137, 542.000000, 75.970137" fill="rgb(255, 255, 255)" style="fill-opacity:1.00" />
<!-- End 'A' -->
<!-- Begin 'G' -->
<ellipse cx="535.000000" cy="105.158147" rx="25.000000" ry="1.588676" fill="rgb(255, 165, 0)" style="fill-opacity:1.00" />
<ellipse cx="535.000000" cy="105.158147" rx="16.666667" ry="1.059118" fill="rgb(255, 255, 255)" style="fill-opacity:1.00" />
<rect height="1.588676" width="25.000000" x="535.000000" y="104.363808" fill="rgb(255, 255, 255)" style="fill-opacity:1.00" />
<rect height="0.397169" width="25.000000" x="535.000000" y="105.555316" fill="rgb(255, 165, 0)" style="fill-opacity:1.00" />
<rect height="1.191507" width="6.250000" x="553.750000" y="105.555316" fill="rgb(255, 165, 0)" style="fill-opacity:1.00" />
<!-- End 'G' -->
<!-- Begin 'T' -->
<rect height="0.460881" width="50.000000" x="510.000000" y="106.746823" fill="rgb(0, 100, 0)" style="fill-opacity:1.00" />
<rect height="2.880507" width="10.000000" x="530.000000" y="106.746823" fill="rgb(0, 100, 0)" style="fill-opacity:1.00" />
<!-- End 'T' -->
<!-- Begin 'C' -->
<ellipse cx="535.000000" cy="109.813665" rx="25.000000" ry="0.186335" fill="rgb(0, 0, 128)" style="fill-opacity:1.00" />
<ellipse cx="535.000000" cy="109.813665" rx="16.666667" ry="0.124223" fill="rgb(255, 255, 255)" style="fill-opacity:1.00" />
<rect height="0.186335" width="25.000000" x="535.000000" y="109.720497" fill="rgb(255, 255, 255)" style="fill-opacity:1.00" />
<!-- End 'C' -->
<!-- Begin 'T' -->
<rect height="14.001118" width="50.000000" x="570.000000" y="20.177007" fill="rgb(0, 100, 0)" style="fill-opacity:1.00" />
<rect height="87.506986" width="10.000000" x="590.000000" y="20.177007" fill="rgb(0, 100, 0)" style="fill-opacity:1.00" />
<!-- End 'T' -->
<!-- Begin 'C' -->
<ellipse cx="595.000000" cy="108.455270" rx="25.000000" ry="0.771277" fill="rgb(0, 0, 128)" style="fill-opacity:1.00" />
<ellipse cx="595.000000" cy="108.455270" rx="16.666667" ry="0.514185" fill="rgb(255, 255, 255)" style="fill-opacity:1.00" />
<rect height="0.771277" width="25.000000" x="595.000000" y="108.069632" fill="rgb(255, 255, 255)" style="fill-opacity:1.00" />
<!-- End 'C' -->
<!-- Begin 'A' -->
<polygon points=" 570.000000, 109.802417, 591.000000, 109.226547, 599.000000, 109.226547, 620.000000, 109.802417, 612.500000, 109.802417, 606.250000, 109.658449, 583.750000, 109.658449, 577.500000, 109.802417" fill="rgb(178, 34, 34)" style="fill-opacity:1.00" />
<!-- End 'A' -->
<!-- Begin 'G' -->
<ellipse cx="595.000000" cy="109.901208" rx="25.000000" ry="0.098792" fill="rgb(255, 165, 0)" style="fill-opacity:1.00" />
<ellipse cx="595.000000" cy="109.901208" rx="16.666667" ry="0.065861" fill="rgb(255, 255, 255)" style="fill-opacity:1.00" />
<rect height="0.098792" width="25.000000" x="595.000000" y="109.851812" fill="rgb(255, 255, 255)" style="fill-opacity:1.00" />
<rect height="0.024698" width="25.000000" x="595.000000" y="109.925906" fill="rgb(255, 165, 0)" style="fill-opacity:1.00" />
<rect height="0.074094" width="6.250000" x="613.750000" y="109.925906" fill="rgb(255, 165, 0)" style="fill-opacity:1.00" />
<!-- End 'G' -->
<!-- Begin 'T' -->
<rect height="12.247866" width="50.000000" x="630.000000" y="28.810008" fill="rgb(0, 100, 0)" style="fill-opacity:1.00" />
<rect height="76.549161" width="10.000000" x="650.000000" y="28.810008" fill="rgb(0, 100, 0)" style="fill-opacity:1.00" />
<!-- End 'T' -->
<!-- Begin 'C' -->
<ellipse cx="655.000000" cy="107.105842" rx="25.000000" ry="1.746673" fill="rgb(0, 0, 128)" style="fill-opacity:1.00" />
<ellipse cx="655.000000" cy="107.105842" rx="16.666667" ry="1.164449" fill="rgb(255, 255, 255)" style="fill-opacity:1.00" />
<rect height="1.746673" width="25.000000" x="655.000000" y="106.232505" fill="rgb(255, 255, 255)" style="fill-opacity:1.00" />
<!-- End 'C' -->
<!-- Begin 'G' -->
<ellipse cx="655.000000" cy="109.170861" rx="25.000000" ry="0.318347" fill="rgb(255, 165, 0)" style="fill-opacity:1.00" />
<ellipse cx="655.000000" cy="109.170861" rx="16.666667" ry="0.212231" fill="rgb(255, 255, 255)" style="fill-opacity:1.00" />
<rect height="0.318347" width="25.000000" x="655.000000" y="109.011688" fill="rgb(255, 255, 255)" style="fill-opacity:1.00" />
<rect height="0.079587" width="25.000000" x="655.000000" y="109.250448" fill="rgb(255, 165, 0)" style="fill-opacity:1.00" />
<rect height="0.238760" width="6.250000" x="673.750000" y="109.250448" fill="rgb(255, 165, 0)" style="fill-opacity:1.00" />
<!-- End 'G' -->
<!-- Begin 'A' -->
<polygon points=" 630.000000, 110.000000, 651.000000, 109.489208, 659.000000, 109.489208, 680.000000, 110.000000, 672.500000, 110.000000, 666.250000, 109.872302, 643.750000, 109.872302, 637.500000, 110.000000" fill="rgb(178, 34, 34)" style="fill-opacity:1.00" />
<!-- End 'A' -->
<!-- Begin 'A' -->
<polygon points=" 690.000000, 106.806005, 711.000000, 22.963196, 719.000000, 22.963196, 740.000000, 106.806005, 732.500000, 106.806005, 726.250000, 85.845303, 703.750000, 85.845303, 697.500000, 106.806005" fill="rgb(178, 34, 34)" style="fill-opacity:1.00" />
<polygon points=" 715.000000, 39.731758, 707.000000, 72.268881, 722.000000, 72.268881" fill="rgb(255, 255, 255)" style="fill-opacity:1.00" />
<!-- End 'A' -->
<!-- Begin 'T' -->
<rect height="0.403443" width="50.000000" x="690.000000" y="106.806005" fill="rgb(0, 100, 0)" style="fill-opacity:1.00" />
<rect height="2.521521" width="10.000000" x="710.000000" y="106.806005" fill="rgb(0, 100, 0)" style="fill-opacity:1.00" />
<!-- End 'T' -->
<!-- Begin 'G' -->
<ellipse cx="715.000000" cy="109.606674" rx="25.000000" ry="0.279149" fill="rgb(255, 165, 0)" style="fill-opacity:1.00" />
<ellipse cx="715.000000" cy="109.606674" rx="16.666667" ry="0.186099" fill="rgb(255, 255, 255)" style="fill-opacity:1.00" />
<rect height="0.279149" width="25.000000" x="715.000000" y="109.467100" fill="rgb(255, 255, 255)" style="fill-opacity:1.00" />
<rect height="0.069787" width="25.000000" x="715.000000" y="109.676462" fill="rgb(255, 165, 0)" style="fill-opacity:1.00" />
<rect height="0.209361" width="6.250000" x="733.750000" y="109.676462" fill="rgb(255, 165, 0)" style="fill-opacity:1.00" />
<!-- End 'G' -->
<!-- Begin 'C' -->
<ellipse cx="715.000000" cy="109.942912" rx="25.000000" ry="0.057088" fill="rgb(0, 0, 128)" style="fill-opacity:1.00" />
<ellipse cx="715.000000" cy="109.942912" rx="16.666667" ry="0.038059" fill="rgb(255, 255, 255)" style="fill-opacity:1.00" />
<rect height="0.057088" width="25.000000" x="715.000000" y="109.914367" fill="rgb(255, 255, 255)" style="fill-opacity:1.00" />
<!-- End 'C' -->
<!-- Begin 'A' -->
<polygon points=" 750.000000, 103.624570, 771.000000, 96.737034, 779.000000, 96.737034, 800.000000, 103.624570, 792.500000, 103.624570, 786.250000, 101.902686, 763.750000, 101.902686, 757.500000, 103.624570" fill="rgb(178, 34, 34)" style="fill-opacity:1.00" />
<!-- End 'A' -->
<!-- Begin 'T' -->
<rect height="0.440639" width="50.000000" x="750.000000" y="103.624570" fill="rgb(0, 100, 0)" style="fill-opacity:1.00" />
<rect height="2.753994" width="10.000000" x="770.000000" y="103.624570" fill="rgb(0, 100, 0)" style="fill-opacity:1.00" />
<!-- End 'T' -->
<!-- Begin 'G' -->
<ellipse cx="775.000000" cy="107.501498" rx="25.000000" ry="1.122934" fill="rgb(255, 165, 0)" style="fill-opacity:1.00" />
<ellipse cx="775.000000" cy="107.501498" rx="16.666667" ry="0.748623" fill="rgb(255, 255, 255)" style="fill-opacity:1.00" />
<rect height="1.122934" width="25.000000" x="775.000000" y="106.940031" fill="rgb(255, 255, 255)" style="fill-opacity:1.00" />
<rect height="0.280733" width="25.000000" x="775.000000" y="107.782232" fill="rgb(255, 165, 0)" style="fill-opacity:1.00" />
<rect height="0.842200" width="6.250000" x="793.750000" y="107.782232" fill="rgb(255, 165, 0)" style="fill-opacity:1.00" />
<!-- End 'G' -->
<!-- Begin 'C' -->
<ellipse cx="775.000000" cy="109.312216" rx="25.000000" ry="0.687784" fill="rgb(0, 0, 128)" style="fill-opacity:1.00" />
<ellipse cx="775.000000" cy="109.312216" rx="16.666667" ry="0.458523" fill="rgb(255, 255, 255)" style="fill-opacity:1.00" />
<rect height="0.687784" width="25.000000" x="775.000000" y="108.968324" fill="rgb(255, 255, 255)" style="fill-opacity:1.00" />
<!-- End 'C' -->
<!-- Begin 'T' -->
<rect height="0.436494" width="50.000000" x="810.000000" y="103.553321" fill="rgb(0, 100, 0)" style="fill-opacity:1.00" />
<rect height="2.728088" width="10.000000" x="830.000000" y="103.553321" fill="rgb(0, 100, 0)" style="fill-opacity:1.00" />
<!-- End 'T' -->
<!-- Begin 'A' -->
<polygon points=" 810.000000, 107.953070, 831.000000, 106.281408, 839.000000, 106.281408, 860.000000, 107.953070, 852.500000, 107.953070, 846.250000, 107.535155, 823.750000, 107.535155, 817.500000, 107.953070" fill="rgb(178, 34, 34)" style="fill-opacity:1.00" />
<!-- End 'A' -->
<!-- Begin 'G' -->
<ellipse cx="835.000000" cy="108.511770" rx="25.000000" ry="0.558700" fill="rgb(255, 165, 0)" style="fill-opacity:1.00" />
<ellipse cx="835.000000" cy="108.511770" rx="16.666667" ry="0.372467" fill="rgb(255, 255, 255)" style="fill-opacity:1.00" />
<rect height="0.558700" width="25.000000" x="835.000000" y="108.232420" fill="rgb(255, 255, 255)" style="fill-opacity:1.00" />
<rect height="0.139675" width="25.000000" x="835.000000" y="108.651445" fill="rgb(255, 165, 0)" style="fill-opacity:1.00" />
<rect height="0.419025" width="6.250000" x="853.750000" y="108.651445" fill="rgb(255, 165, 0)" style="fill-opacity:1.00" />
<!-- End 'G' -->
<!-- Begin 'C' -->
<ellipse cx="835.000000" cy="109.535235" rx="25.000000" ry="0.464765" fill="rgb(0, 0, 128)" style="fill-opacity:1.00" />
<ellipse cx="835.000000" cy="109.535235" rx="16.666667" ry="0.309843" fill="rgb(255, 255, 255)" style="fill-opacity:1.00" />
<rect height="0.464765" width="25.000000" x="835.000000" y="109.302853" fill="rgb(255, 255, 255)" style="fill-opacity:1.00" />
<!-- End 'C' -->
<!-- Begin 'T' -->
<rect height="0.413559" width="50.000000" x="870.000000" y="103.187568" fill="rgb(0, 100, 0)" style="fill-opacity:1.00" />
<rect height="2.584742" width="10.000000" x="890.000000" y="103.187568" fill="rgb(0, 100, 0)" style="fill-opacity:1.00" />
<!-- End 'T' -->
<!-- Begin 'A' -->
<polygon points=" 870.000000, 108.037317, 891.000000, 105.772310, 899.000000, 105.772310, 920.000000, 108.037317, 912.500000, 108.037317, 906.250000, 107.471066, 883.750000, 107.471066, 877.500000, 108.037317" fill="rgb(178, 34, 34)" style="fill-opacity:1.00" />
<!-- End 'A' -->
<!-- Begin 'G' -->
<ellipse cx="895.000000" cy="108.545777" rx="25.000000" ry="0.508460" fill="rgb(255, 165, 0)" style="fill-opacity:1.00" />
<ellipse cx="895.000000" cy="108.545777" rx="16.666667" ry="0.338973" fill="rgb(255, 255, 255)" style="fill-opacity:1.00" />
<rect height="0.508460" width="25.000000" x="895.000000" y="108.291547" fill="rgb(255, 255, 255)" style="fill-opacity:1.00" />
<rect height="0.127115" width="25.000000" x="895.000000" y="108.672892" fill="rgb(255, 165, 0)" style="fill-opacity:1.00" />
<rect height="0.381345" width="6.250000" x="913.750000" y="108.672892" fill="rgb(255, 165, 0)" style="fill-opacity:1.00" />
<!-- End 'G' -->
<!-- Begin 'C' -->
<ellipse cx="895.000000" cy="109.527119" rx="25.000000" ry="0.472881" fill="rgb(0, 0, 128)" style="fill-opacity:1.00" />
<ellipse cx="895.000000" cy="109.527119" rx="16.666667" ry="0.315254" fill="rgb(255, 255, 255)" style="fill-opacity:1.00" />
<rect height="0.472881" width="25.000000" x="895.000000" y="109.290678" fill="rgb(255, 255, 255)" style="fill-opacity:1.00" />
<!-- End 'C' -->
<!-- Begin 'A' -->
<polygon points=" 930.000000, 102.827450, 951.000000, 97.683652, 959.000000, 97.683652, 980.000000, 102.827450, 972.500000, 102.827450, 966.250000, 101.541500, 943.750000, 101.541500, 937.500000, 102.827450" fill="rgb(178, 34, 34)" style="fill-opacity:1.00" />
<!-- End 'A' -->
<!-- Begin 'T' -->
<rect height="0.715717" width="50.000000" x="930.000000" y="102.827450" fill="rgb(0, 100, 0)" style="fill-opacity:1.00" />
<rect height="4.473228" width="10.000000" x="950.000000" y="102.827450" fill="rgb(0, 100, 0)" style="fill-opacity:1.00" />
<!-- End 'T' -->
<!-- Begin 'G' -->
<ellipse cx="955.000000" cy="108.055517" rx="25.000000" ry="0.754838" fill="rgb(255, 165, 0)" style="fill-opacity:1.00" />
<ellipse cx="955.000000" cy="108.055517" rx="16.666667" ry="0.503225" fill="rgb(255, 255, 255)" style="fill-opacity:1.00" />
<rect height="0.754838" width="25.000000" x="955.000000" y="107.678098" fill="rgb(255, 255, 255)" style="fill-opacity:1.00" />
<rect height="0.188710" width="25.000000" x="955.000000" y="108.244226" fill="rgb(255, 165, 0)" style="fill-opacity:1.00" />
<rect height="0.566129" width="6.250000" x="973.750000" y="108.244226" fill="rgb(255, 165, 0)" style="fill-opacity:1.00" />
<!-- End 'G' -->
<!-- Begin 'C' -->
<ellipse cx="955.000000" cy="109.405177" rx="25.000000" ry="0.594823" fill="rgb(0, 0, 128)" style="fill-opacity:1.00" />
<ellipse cx="955.000000" cy="109.405177" rx="16.666667" ry="0.396548" fill="rgb(255, 255, 255)" style="fill-opacity:1.00" />
<rect height="0.594823" width="25.000000" x="955.000000" y="109.107766" fill="rgb(255, 255, 255)" style="fill-opacity:1.00" />
<!-- End 'C' -->
<text x="520.000000" y="165">
IC = 10.24
</text>

</svg>
