<?xml version="1.0" encoding="UTF-8" standalone="yes"?>
                 <!DOCTYPE svg PUBLIC "-//W3C//DTD SVG 1.0//EN" "http://www.w3.org/TR/2001/REC-SVG-20010904/DTD/svg10.dtd">
                 <svg height="170" width="780" xmlns="http://www.w3.org/2000/svg" xmlns:xlink="http://www.w3.org/1999/xlink">
                 <line x1="85" y1="120" x2="747" y2="120" style="stroke:rgb(99,99,99);stroke-width:2" />
<rect height="7.000000" width="2.000000" x="85.000000" y="120.000000" fill="rgb(0, 0, 0)" style="fill-opacity:1.00" />
<text x="107.000000" y="140">
1
</text>
<rect height="7.000000" width="2.000000" x="145.000000" y="120.000000" fill="rgb(0, 0, 0)" style="fill-opacity:1.00" />
<text x="167.000000" y="140">
2
</text>
<rect height="7.000000" width="2.000000" x="205.000000" y="120.000000" fill="rgb(0, 0, 0)" style="fill-opacity:1.00" />
<text x="227.000000" y="140">
3
</text>
<rect height="7.000000" width="2.000000" x="265.000000" y="120.000000" fill="rgb(0, 0, 0)" style="fill-opacity:1.00" />
<text x="287.000000" y="140">
4
</text>
<rect height="7.000000" width="2.000000" x="325.000000" y="120.000000" fill="rgb(0, 0, 0)" style="fill-opacity:1.00" />
<text x="347.000000" y="140">
5
</text>
<rect height="7.000000" width="2.000000" x="385.000000" y="120.000000" fill="rgb(0, 0, 0)" style="fill-opacity:1.00" />
<text x="407.000000" y="140">
6
</text>
<rect height="7.000000" width="2.000000" x="445.000000" y="120.000000" fill="rgb(0, 0, 0)" style="fill-opacity:1.00" />
<text x="467.000000" y="140">
7
</text>
<rect height="7.000000" width="2.000000" x="505.000000" y="120.000000" fill="rgb(0, 0, 0)" style="fill-opacity:1.00" />
<text x="527.000000" y="140">
8
</text>
<rect height="7.000000" width="2.000000" x="565.000000" y="120.000000" fill="rgb(0, 0, 0)" style="fill-opacity:1.00" />
<text x="587.000000" y="140">
9
</text>
<rect height="7.000000" width="2.000000" x="625.000000" y="120.000000" fill="rgb(0, 0, 0)" style="fill-opacity:1.00" />
<text x="647.000000" y="140">
10
</text>
<rect height="7.000000" width="2.000000" x="685.000000" y="120.000000" fill="rgb(0, 0, 0)" style="fill-opacity:1.00" />
<text x="707.000000" y="140">
11
</text>
<rect height="7.000000" width="2.000000" x="745.000000" y="120.000000" fill="rgb(0, 0, 0)" style="fill-opacity:1.00" />
<line x1="80" y1="112" x2="80" y2="10" style="stroke:rgb(99,99,99);stroke-width:2" />
<rect height="2.000000" width="7.000000" x="73.000000" y="110.000000" fill="rgb(0, 0, 0)" style="fill-opacity:1.00" />
<text x="63" y="115">
0
</text>
<rect height="2.000000" width="7.000000" x="73.000000" y="60.000000" fill="rgb(0, 0, 0)" style="fill-opacity:1.00" />
<text x="63" y="65">
1
</text>
<rect height="2.000000" width="7.000000" x="73.000000" y="10.000000" fill="rgb(0, 0, 0)" style="fill-opacity:1.00" />
<text x="63" y="15">
2
</text>
<text x="50" y="65"
transform="rotate(-90, 50, 70)">
bits
</text>
<!-- Begin 'T' -->
<rect height="0.556674" width="50.000000" x="90.000000" y="101.566749" fill="rgb(0, 100, 0)" style="fill-opacity:1.00" />
<rect height="3.479214" width="10.000000" x="110.000000" y="101.566749" fill="rgb(0, 100, 0)" style="fill-opacity:1.00" />
<!-- End 'T' -->
<!-- Begin 'A' -->
<polygon points=" 90.000000, 107.693599, 111.000000, 105.045963, 119.000000, 105.045963, 140.000000, 107.693599, 132.500000, 107.693599, 126.250000, 107.031690, 103.750000, 107.031690, 97.500000, 107.693599" fill="rgb(178, 34, 34)" style="fill-opacity:1.00" />
<!-- End 'A' -->
<!-- Begin 'G' -->
<ellipse cx="115.000000" cy="108.365443" rx="25.000000" ry="0.671844" fill="rgb(255, 165, 0)" style="fill-opacity:1.00" />
<ellipse cx="115.000000" cy="108.365443" rx="16.666667" ry="0.447896" fill="rgb(255, 255, 255)" style="fill-opacity:1.00" />
<rect height="0.671844" width="25.000000" x="115.000000" y="108.029521" fill="rgb(255, 255, 255)" style="fill-opacity:1.00" />
<rect height="0.167961" width="25.000000" x="115.000000" y="108.533404" fill="rgb(255, 165, 0)" style="fill-opacity:1.00" />
<rect height="0.503883" width="6.250000" x="133.750000" y="108.533404" fill="rgb(255, 165, 0)" style="fill-opacity:1.00" />
<!-- End 'G' -->
<!-- Begin 'C' -->
<ellipse cx="115.000000" cy="109.518644" rx="25.000000" ry="0.481356" fill="rgb(0, 0, 128)" style="fill-opacity:1.00" />
<ellipse cx="115.000000" cy="109.518644" rx="16.666667" ry="0.320904" fill="rgb(255, 255, 255)" style="fill-opacity:1.00" />
<rect height="0.481356" width="25.000000" x="115.000000" y="109.277966" fill="rgb(255, 255, 255)" style="fill-opacity:1.00" />
<!-- End 'C' -->
<!-- Begin 'C' -->
<ellipse cx="175.000000" cy="103.725695" rx="25.000000" ry="1.592940" fill="rgb(0, 0, 128)" style="fill-opacity:1.00" />
<ellipse cx="175.000000" cy="103.725695" rx="16.666667" ry="1.061960" fill="rgb(255, 255, 255)" style="fill-opacity:1.00" />
<rect height="1.592940" width="25.000000" x="175.000000" y="102.929225" fill="rgb(255, 255, 255)" style="fill-opacity:1.00" />
<!-- End 'C' -->
<!-- Begin 'T' -->
<rect height="0.337221" width="50.000000" x="150.000000" y="105.318635" fill="rgb(0, 100, 0)" style="fill-opacity:1.00" />
<rect height="2.107632" width="10.000000" x="170.000000" y="105.318635" fill="rgb(0, 100, 0)" style="fill-opacity:1.00" />
<!-- End 'T' -->
<!-- Begin 'A' -->
<polygon points=" 150.000000, 109.289413, 171.000000, 107.426267, 179.000000, 107.426267, 200.000000, 109.289413, 192.500000, 109.289413, 186.250000, 108.823626, 163.750000, 108.823626, 157.500000, 109.289413" fill="rgb(178, 34, 34)" style="fill-opacity:1.00" />
<!-- End 'A' -->
<!-- Begin 'G' -->
<ellipse cx="175.000000" cy="109.644706" rx="25.000000" ry="0.355294" fill="rgb(255, 165, 0)" style="fill-opacity:1.00" />
<ellipse cx="175.000000" cy="109.644706" rx="16.666667" ry="0.236862" fill="rgb(255, 255, 255)" style="fill-opacity:1.00" />
<rect height="0.355294" width="25.000000" x="175.000000" y="109.467059" fill="rgb(255, 255, 255)" style="fill-opacity:1.00" />
<rect height="0.088823" width="25.000000" x="175.000000" y="109.733530" fill="rgb(255, 165, 0)" style="fill-opacity:1.00" />
<rect height="0.266470" width="6.250000" x="193.750000" y="109.733530" fill="rgb(255, 165, 0)" style="fill-opacity:1.00" />
<!-- End 'G' -->
<!-- Begin 'C' -->
<ellipse cx="235.000000" cy="100.141866" rx="25.000000" ry="3.058102" fill="rgb(0, 0, 128)" style="fill-opacity:1.00" />
<ellipse cx="235.000000" cy="100.141866" rx="16.666667" ry="2.038734" fill="rgb(255, 255, 255)" style="fill-opacity:1.00" />
<rect height="3.058102" width="25.000000" x="235.000000" y="98.612815" fill="rgb(255, 255, 255)" style="fill-opacity:1.00" />
<!-- End 'C' -->
<!-- Begin 'T' -->
<rect height="0.616522" width="50.000000" x="210.000000" y="103.199968" fill="rgb(0, 100, 0)" style="fill-opacity:1.00" />
<rect height="3.853264" width="10.000000" x="230.000000" y="103.199968" fill="rgb(0, 100, 0)" style="fill-opacity:1.00" />
<!-- End 'T' -->
<!-- Begin 'A' -->
<polygon points=" 210.000000, 108.760068, 231.000000, 107.053232, 239.000000, 107.053232, 260.000000, 108.760068, 252.500000, 108.760068, 246.250000, 108.333359, 223.750000, 108.333359, 217.500000, 108.760068" fill="rgb(178, 34, 34)" style="fill-opacity:1.00" />
<!-- End 'A' -->
<!-- Begin 'G' -->
<ellipse cx="235.000000" cy="109.380034" rx="25.000000" ry="0.619966" fill="rgb(255, 165, 0)" style="fill-opacity:1.00" />
<ellipse cx="235.000000" cy="109.380034" rx="16.666667" ry="0.413311" fill="rgb(255, 255, 255)" style="fill-opacity:1.00" />
<rect height="0.619966" width="25.000000" x="235.000000" y="109.070051" fill="rgb(255, 255, 255)" style="fill-opacity:1.00" />
<rect height="0.154992" width="25.000000" x="235.000000" y="109.535025" fill="rgb(255, 165, 0)" style="fill-opacity:1.00" />
<rect height="0.464975" width="6.250000" x="253.750000" y="109.535025" fill="rgb(255, 165, 0)" style="fill-opacity:1.00" />
<!-- End 'G' -->
<!-- Begin 'G' -->
<ellipse cx="295.000000" cy="61.553955" rx="25.000000" ry="47.663437" fill="rgb(255, 165, 0)" style="fill-opacity:1.00" />
<ellipse cx="295.000000" cy="61.553955" rx="16.666667" ry="31.775625" fill="rgb(255, 255, 255)" style="fill-opacity:1.00" />
<rect height="47.663437" width="25.000000" x="295.000000" y="37.722236" fill="rgb(255, 255, 255)" style="fill-opacity:1.00" />
<rect height="11.915859" width="25.000000" x="295.000000" y="73.469814" fill="rgb(255, 165, 0)" style="fill-opacity:1.00" />
<rect height="35.747578" width="6.250000" x="313.750000" y="73.469814" fill="rgb(255, 165, 0)" style="fill-opacity:1.00" />
<!-- End 'G' -->
<!-- Begin 'A' -->
<polygon points=" 270.000000, 109.737364, 291.000000, 109.217392, 299.000000, 109.217392, 320.000000, 109.737364, 312.500000, 109.737364, 306.250000, 109.607371, 283.750000, 109.607371, 277.500000, 109.737364" fill="rgb(178, 34, 34)" style="fill-opacity:1.00" />
<!-- End 'A' -->
<!-- Begin 'C' -->
<ellipse cx="295.000000" cy="109.839155" rx="25.000000" ry="0.101791" fill="rgb(0, 0, 128)" style="fill-opacity:1.00" />
<ellipse cx="295.000000" cy="109.839155" rx="16.666667" ry="0.067861" fill="rgb(255, 255, 255)" style="fill-opacity:1.00" />
<rect height="0.101791" width="25.000000" x="295.000000" y="109.788260" fill="rgb(255, 255, 255)" style="fill-opacity:1.00" />
<!-- End 'C' -->
<!-- Begin 'T' -->
<rect height="0.009449" width="50.000000" x="270.000000" y="109.940946" fill="rgb(0, 100, 0)" style="fill-opacity:1.00" />
<rect height="0.059054" width="10.000000" x="290.000000" y="109.940946" fill="rgb(0, 100, 0)" style="fill-opacity:1.00" />
<!-- End 'T' -->
<!-- Begin 'T' -->
<rect height="15.240120" width="50.000000" x="330.000000" y="13.930809" fill="rgb(0, 100, 0)" style="fill-opacity:1.00" />
<rect height="95.250752" width="10.000000" x="350.000000" y="13.930809" fill="rgb(0, 100, 0)" style="fill-opacity:1.00" />
<!-- End 'T' -->
<!-- Begin 'G' -->
<ellipse cx="355.000000" cy="109.490074" rx="25.000000" ry="0.308512" fill="rgb(255, 165, 0)" style="fill-opacity:1.00" />
<ellipse cx="355.000000" cy="109.490074" rx="16.666667" ry="0.205675" fill="rgb(255, 255, 255)" style="fill-opacity:1.00" />
<rect height="0.308512" width="25.000000" x="355.000000" y="109.335817" fill="rgb(255, 255, 255)" style="fill-opacity:1.00" />
<rect height="0.077128" width="25.000000" x="355.000000" y="109.567202" fill="rgb(255, 165, 0)" style="fill-opacity:1.00" />
<rect height="0.231384" width="6.250000" x="373.750000" y="109.567202" fill="rgb(255, 165, 0)" style="fill-opacity:1.00" />
<!-- End 'G' -->
<!-- Begin 'C' -->
<ellipse cx="355.000000" cy="109.889730" rx="25.000000" ry="0.091144" fill="rgb(0, 0, 128)" style="fill-opacity:1.00" />
<ellipse cx="355.000000" cy="109.889730" rx="16.666667" ry="0.060763" fill="rgb(255, 255, 255)" style="fill-opacity:1.00" />
<rect height="0.091144" width="25.000000" x="355.000000" y="109.844158" fill="rgb(255, 255, 255)" style="fill-opacity:1.00" />
<!-- End 'C' -->
<!-- Begin 'A' -->
<polygon points=" 330.000000, 110.000000, 351.000000, 109.980875, 359.000000, 109.980875, 380.000000, 110.000000, 372.500000, 110.000000, 366.250000, 109.995219, 343.750000, 109.995219, 337.500000, 110.000000" fill="rgb(178, 34, 34)" style="fill-opacity:1.00" />
<!-- End 'A' -->
<!-- Begin 'A' -->
<polygon points=" 390.000000, 109.527619, 411.000000, 12.370148, 419.000000, 12.370148, 440.000000, 109.527619, 432.500000, 109.527619, 426.250000, 85.238251, 403.750000, 85.238251, 397.500000, 109.527619" fill="rgb(178, 34, 34)" style="fill-opacity:1.00" />
<polygon points=" 415.000000, 31.801642, 407.000000, 69.664630, 422.000000, 69.664630" fill="rgb(255, 255, 255)" style="fill-opacity:1.00" />
<!-- End 'A' -->
<!-- Begin 'C' -->
<ellipse cx="415.000000" cy="109.727106" rx="25.000000" ry="0.199487" fill="rgb(0, 0, 128)" style="fill-opacity:1.00" />
<ellipse cx="415.000000" cy="109.727106" rx="16.666667" ry="0.132991" fill="rgb(255, 255, 255)" style="fill-opacity:1.00" />
<rect height="0.199487" width="25.000000" x="415.000000" y="109.627362" fill="rgb(255, 255, 255)" style="fill-opacity:1.00" />
<!-- End 'C' -->
<!-- Begin 'G' -->
<ellipse cx="415.000000" cy="109.961520" rx="25.000000" ry="0.034927" fill="rgb(255, 165, 0)" style="fill-opacity:1.00" />
<ellipse cx="415.000000" cy="109.961520" rx="16.666667" ry="0.023285" fill="rgb(255, 255, 255)" style="fill-opacity:1.00" />
<rect height="0.034927" width="25.000000" x="415.000000" y="109.944057" fill="rgb(255, 255, 255)" style="fill-opacity:1.00" />
<rect height="0.008732" width="25.000000" x="415.000000" y="109.970252" fill="rgb(255, 165, 0)" style="fill-opacity:1.00" />
<rect height="0.026195" width="6.250000" x="433.750000" y="109.970252" fill="rgb(255, 165, 0)" style="fill-opacity:1.00" />
<!-- End 'G' -->
<!-- Begin 'T' -->
<rect height="0.000568" width="50.000000" x="390.000000" y="109.996447" fill="rgb(0, 100, 0)" style="fill-opacity:1.00" />
<rect height="0.003553" width="10.000000" x="410.000000" y="109.996447" fill="rgb(0, 100, 0)" style="fill-opacity:1.00" />
<!-- End 'T' -->
<!-- Begin 'C' -->
<ellipse cx="475.000000" cy="64.954392" rx="25.000000" ry="41.724603" fill="rgb(0, 0, 128)" style="fill-opacity:1.00" />
<ellipse cx="475.000000" cy="64.954392" rx="16.666667" ry="27.816402" fill="rgb(255, 255, 255)" style="fill-opacity:1.00" />
<rect height="41.724603" width="25.000000" x="475.000000" y="44.092091" fill="rgb(255, 255, 255)" style="fill-opacity:1.00" />
<!-- End 'C' -->
<!-- Begin 'T' -->
<rect height="0.444386" width="50.000000" x="450.000000" y="106.678996" fill="rgb(0, 100, 0)" style="fill-opacity:1.00" />
<rect height="2.777413" width="10.000000" x="470.000000" y="106.678996" fill="rgb(0, 100, 0)" style="fill-opacity:1.00" />
<!-- End 'T' -->
<!-- Begin 'G' -->
<ellipse cx="475.000000" cy="109.641283" rx="25.000000" ry="0.184874" fill="rgb(255, 165, 0)" style="fill-opacity:1.00" />
<ellipse cx="475.000000" cy="109.641283" rx="16.666667" ry="0.123250" fill="rgb(255, 255, 255)" style="fill-opacity:1.00" />
<rect height="0.184874" width="25.000000" x="475.000000" y="109.548846" fill="rgb(255, 255, 255)" style="fill-opacity:1.00" />
<rect height="0.046219" width="25.000000" x="475.000000" y="109.687502" fill="rgb(255, 165, 0)" style="fill-opacity:1.00" />
<rect height="0.138656" width="6.250000" x="493.750000" y="109.687502" fill="rgb(255, 165, 0)" style="fill-opacity:1.00" />
<!-- End 'G' -->
<!-- Begin 'A' -->
<polygon points=" 450.000000, 110.000000, 471.000000, 109.826158, 479.000000, 109.826158, 500.000000, 110.000000, 492.500000, 110.000000, 486.250000, 109.956539, 463.750000, 109.956539, 457.500000, 110.000000" fill="rgb(178, 34, 34)" style="fill-opacity:1.00" />
<!-- End 'A' -->
<!-- Begin 'G' -->
<ellipse cx="535.000000" cy="99.355567" rx="25.000000" ry="3.387453" fill="rgb(255, 165, 0)" style="fill-opacity:1.00" />
<ellipse cx="535.000000" cy="99.355567" rx="16.666667" ry="2.258302" fill="rgb(255, 255, 255)" style="fill-opacity:1.00" />
<rect height="3.387453" width="25.000000" x="535.000000" y="97.661840" fill="rgb(255, 255, 255)" style="fill-opacity:1.00" />
<rect height="0.846863" width="25.000000" x="535.000000" y="100.202431" fill="rgb(255, 165, 0)" style="fill-opacity:1.00" />
<rect height="2.540590" width="6.250000" x="553.750000" y="100.202431" fill="rgb(255, 165, 0)" style="fill-opacity:1.00" />
<!-- End 'G' -->
<!-- Begin 'A' -->
<polygon points=" 510.000000, 106.961479, 531.000000, 102.743021, 539.000000, 102.743021, 560.000000, 106.961479, 552.500000, 106.961479, 546.250000, 105.906864, 523.750000, 105.906864, 517.500000, 106.961479" fill="rgb(178, 34, 34)" style="fill-opacity:1.00" />
<!-- End 'A' -->
<!-- Begin 'T' -->
<rect height="0.279921" width="50.000000" x="510.000000" y="106.961479" fill="rgb(0, 100, 0)" style="fill-opacity:1.00" />
<rect height="1.749504" width="10.000000" x="530.000000" y="106.961479" fill="rgb(0, 100, 0)" style="fill-opacity:1.00" />
<!-- End 'T' -->
<!-- Begin 'C' -->
<ellipse cx="535.000000" cy="109.355492" rx="25.000000" ry="0.644508" fill="rgb(0, 0, 128)" style="fill-opacity:1.00" />
<ellipse cx="535.000000" cy="109.355492" rx="16.666667" ry="0.429672" fill="rgb(255, 255, 255)" style="fill-opacity:1.00" />
<rect height="0.644508" width="25.000000" x="535.000000" y="109.033237" fill="rgb(255, 255, 255)" style="fill-opacity:1.00" />
<!-- End 'C' -->
<!-- Begin 'G' -->
<ellipse cx="595.000000" cy="103.663935" rx="25.000000" ry="1.628564" fill="rgb(255, 165, 0)" style="fill-opacity:1.00" />
<ellipse cx="595.000000" cy="103.663935" rx="16.666667" ry="1.085709" fill="rgb(255, 255, 255)" style="fill-opacity:1.00" />
<rect height="1.628564" width="25.000000" x="595.000000" y="102.849653" fill="rgb(255, 255, 255)" style="fill-opacity:1.00" />
<rect height="0.407141" width="25.000000" x="595.000000" y="104.071076" fill="rgb(255, 165, 0)" style="fill-opacity:1.00" />
<rect height="1.221423" width="6.250000" x="613.750000" y="104.071076" fill="rgb(255, 165, 0)" style="fill-opacity:1.00" />
<!-- End 'G' -->
<!-- Begin 'A' -->
<polygon points=" 570.000000, 107.390096, 591.000000, 105.292499, 599.000000, 105.292499, 620.000000, 107.390096, 612.500000, 107.390096, 606.250000, 106.865697, 583.750000, 106.865697, 577.500000, 107.390096" fill="rgb(178, 34, 34)" style="fill-opacity:1.00" />
<!-- End 'A' -->
<!-- Begin 'T' -->
<rect height="0.302097" width="50.000000" x="570.000000" y="107.390096" fill="rgb(0, 100, 0)" style="fill-opacity:1.00" />
<rect height="1.888106" width="10.000000" x="590.000000" y="107.390096" fill="rgb(0, 100, 0)" style="fill-opacity:1.00" />
<!-- End 'T' -->
<!-- Begin 'C' -->
<ellipse cx="595.000000" cy="109.639101" rx="25.000000" ry="0.360899" fill="rgb(0, 0, 128)" style="fill-opacity:1.00" />
<ellipse cx="595.000000" cy="109.639101" rx="16.666667" ry="0.240599" fill="rgb(255, 255, 255)" style="fill-opacity:1.00" />
<rect height="0.360899" width="25.000000" x="595.000000" y="109.458651" fill="rgb(255, 255, 255)" style="fill-opacity:1.00" />
<!-- End 'C' -->
<!-- Begin 'A' -->
<polygon points=" 630.000000, 104.454269, 651.000000, 100.163083, 659.000000, 100.163083, 680.000000, 104.454269, 672.500000, 104.454269, 666.250000, 103.381472, 643.750000, 103.381472, 637.500000, 104.454269" fill="rgb(178, 34, 34)" style="fill-opacity:1.00" />
<!-- End 'A' -->
<!-- Begin 'T' -->
<rect height="0.481566" width="50.000000" x="630.000000" y="104.454269" fill="rgb(0, 100, 0)" style="fill-opacity:1.00" />
<rect height="3.009785" width="10.000000" x="650.000000" y="104.454269" fill="rgb(0, 100, 0)" style="fill-opacity:1.00" />
<!-- End 'T' -->
<!-- Begin 'C' -->
<ellipse cx="655.000000" cy="108.185708" rx="25.000000" ry="0.721654" fill="rgb(0, 0, 128)" style="fill-opacity:1.00" />
<ellipse cx="655.000000" cy="108.185708" rx="16.666667" ry="0.481103" fill="rgb(255, 255, 255)" style="fill-opacity:1.00" />
<rect height="0.721654" width="25.000000" x="655.000000" y="107.824881" fill="rgb(255, 255, 255)" style="fill-opacity:1.00" />
<!-- End 'C' -->
<!-- Begin 'G' -->
<ellipse cx="655.000000" cy="109.453681" rx="25.000000" ry="0.546319" fill="rgb(255, 165, 0)" style="fill-opacity:1.00" />
<ellipse cx="655.000000" cy="109.453681" rx="16.666667" ry="0.364213" fill="rgb(255, 255, 255)" style="fill-opacity:1.00" />
<rect height="0.546319" width="25.000000" x="655.000000" y="109.180522" fill="rgb(255, 255, 255)" style="fill-opacity:1.00" />
<rect height="0.136580" width="25.000000" x="655.000000" y="109.590261" fill="rgb(255, 165, 0)" style="fill-opacity:1.00" />
<rect height="0.409739" width="6.250000" x="673.750000" y="109.590261" fill="rgb(255, 165, 0)" style="fill-opacity:1.00" />
<!-- End 'G' -->
<!-- Begin 'T' -->
<rect height="0.179794" width="50.000000" x="690.000000" y="106.612584" fill="rgb(0, 100, 0)" style="fill-opacity:1.00" />
<rect height="1.123713" width="10.000000" x="710.000000" y="106.612584" fill="rgb(0, 100, 0)" style="fill-opacity:1.00" />
<!-- End 'T' -->
<!-- Begin 'A' -->
<polygon points=" 690.000000, 108.782279, 711.000000, 107.736296, 719.000000, 107.736296, 740.000000, 108.782279, 732.500000, 108.782279, 726.250000, 108.520784, 703.750000, 108.520784, 697.500000, 108.782279" fill="rgb(178, 34, 34)" style="fill-opacity:1.00" />
<!-- End 'A' -->
<!-- Begin 'C' -->
<ellipse cx="715.000000" cy="109.144523" rx="25.000000" ry="0.362243" fill="rgb(0, 0, 128)" style="fill-opacity:1.00" />
<ellipse cx="715.000000" cy="109.144523" rx="16.666667" ry="0.241495" fill="rgb(255, 255, 255)" style="fill-opacity:1.00" />
<rect height="0.362243" width="25.000000" x="715.000000" y="108.963401" fill="rgb(255, 255, 255)" style="fill-opacity:1.00" />
<!-- End 'C' -->
<!-- Begin 'G' -->
<ellipse cx="715.000000" cy="109.753383" rx="25.000000" ry="0.246617" fill="rgb(255, 165, 0)" style="fill-opacity:1.00" />
<ellipse cx="715.000000" cy="109.753383" rx="16.666667" ry="0.164411" fill="rgb(255, 255, 255)" style="fill-opacity:1.00" />
<rect height="0.246617" width="25.000000" x="715.000000" y="109.630074" fill="rgb(255, 255, 255)" style="fill-opacity:1.00" />
<rect height="0.061654" width="25.000000" x="715.000000" y="109.815037" fill="rgb(255, 165, 0)" style="fill-opacity:1.00" />
<rect height="0.184963" width="6.250000" x="733.750000" y="109.815037" fill="rgb(255, 165, 0)" style="fill-opacity:1.00" />
<!-- End 'G' -->
<text x="400.000000" y="165">
IC = 8.82
</text>

</svg>
