<?xml version="1.0" encoding="UTF-8" standalone="yes"?>
                 <!DOCTYPE svg PUBLIC "-//W3C//DTD SVG 1.0//EN" "http://www.w3.org/TR/2001/REC-SVG-20010904/DTD/svg10.dtd">
                 <svg height="170" width="780" xmlns="http://www.w3.org/2000/svg" xmlns:xlink="http://www.w3.org/1999/xlink">
                 <line x1="85" y1="120" x2="747" y2="120" style="stroke:rgb(99,99,99);stroke-width:2" />
<rect height="7.000000" width="2.000000" x="85.000000" y="120.000000" fill="rgb(0, 0, 0)" style="fill-opacity:1.00" />
<text x="107.000000" y="140">
1
</text>
<rect height="7.000000" width="2.000000" x="145.000000" y="120.000000" fill="rgb(0, 0, 0)" style="fill-opacity:1.00" />
<text x="167.000000" y="140">
2
</text>
<rect height="7.000000" width="2.000000" x="205.000000" y="120.000000" fill="rgb(0, 0, 0)" style="fill-opacity:1.00" />
<text x="227.000000" y="140">
3
</text>
<rect height="7.000000" width="2.000000" x="265.000000" y="120.000000" fill="rgb(0, 0, 0)" style="fill-opacity:1.00" />
<text x="287.000000" y="140">
4
</text>
<rect height="7.000000" width="2.000000" x="325.000000" y="120.000000" fill="rgb(0, 0, 0)" style="fill-opacity:1.00" />
<text x="347.000000" y="140">
5
</text>
<rect height="7.000000" width="2.000000" x="385.000000" y="120.000000" fill="rgb(0, 0, 0)" style="fill-opacity:1.00" />
<text x="407.000000" y="140">
6
</text>
<rect height="7.000000" width="2.000000" x="445.000000" y="120.000000" fill="rgb(0, 0, 0)" style="fill-opacity:1.00" />
<text x="467.000000" y="140">
7
</text>
<rect height="7.000000" width="2.000000" x="505.000000" y="120.000000" fill="rgb(0, 0, 0)" style="fill-opacity:1.00" />
<text x="527.000000" y="140">
8
</text>
<rect height="7.000000" width="2.000000" x="565.000000" y="120.000000" fill="rgb(0, 0, 0)" style="fill-opacity:1.00" />
<text x="587.000000" y="140">
9
</text>
<rect height="7.000000" width="2.000000" x="625.000000" y="120.000000" fill="rgb(0, 0, 0)" style="fill-opacity:1.00" />
<text x="647.000000" y="140">
10
</text>
<rect height="7.000000" width="2.000000" x="685.000000" y="120.000000" fill="rgb(0, 0, 0)" style="fill-opacity:1.00" />
<text x="707.000000" y="140">
11
</text>
<rect height="7.000000" width="2.000000" x="745.000000" y="120.000000" fill="rgb(0, 0, 0)" style="fill-opacity:1.00" />
<line x1="80" y1="112" x2="80" y2="10" style="stroke:rgb(99,99,99);stroke-width:2" />
<rect height="2.000000" width="7.000000" x="73.000000" y="110.000000" fill="rgb(0, 0, 0)" style="fill-opacity:1.00" />
<text x="63" y="115">
0
</text>
<rect height="2.000000" width="7.000000" x="73.000000" y="60.000000" fill="rgb(0, 0, 0)" style="fill-opacity:1.00" />
<text x="63" y="65">
1
</text>
<rect height="2.000000" width="7.000000" x="73.000000" y="10.000000" fill="rgb(0, 0, 0)" style="fill-opacity:1.00" />
<text x="63" y="15">
2
</text>
<text x="50" y="65"
transform="rotate(-90, 50, 70)">
bits
</text>
<!-- Begin 'A' -->
<polygon points=" 90.000000, 106.806792, 111.000000, 104.588562, 119.000000, 104.588562, 140.000000, 106.806792, 132.500000, 106.806792, 126.250000, 106.252234, 103.750000, 106.252234, 97.500000, 106.806792" fill="rgb(178, 34, 34)" style="fill-opacity:1.00" />
<!-- End 'A' -->
<!-- Begin 'T' -->
<rect height="0.200001" width="50.000000" x="90.000000" y="106.806792" fill="rgb(0, 100, 0)" style="fill-opacity:1.00" />
<rect height="1.250004" width="10.000000" x="110.000000" y="106.806792" fill="rgb(0, 100, 0)" style="fill-opacity:1.00" />
<!-- End 'T' -->
<!-- Begin 'G' -->
<ellipse cx="115.000000" cy="108.653589" rx="25.000000" ry="0.596793" fill="rgb(255, 165, 0)" style="fill-opacity:1.00" />
<ellipse cx="115.000000" cy="108.653589" rx="16.666667" ry="0.397862" fill="rgb(255, 255, 255)" style="fill-opacity:1.00" />
<rect height="0.596793" width="25.000000" x="115.000000" y="108.355192" fill="rgb(255, 255, 255)" style="fill-opacity:1.00" />
<rect height="0.149198" width="25.000000" x="115.000000" y="108.802787" fill="rgb(255, 165, 0)" style="fill-opacity:1.00" />
<rect height="0.447595" width="6.250000" x="133.750000" y="108.802787" fill="rgb(255, 165, 0)" style="fill-opacity:1.00" />
<!-- End 'G' -->
<!-- Begin 'C' -->
<ellipse cx="115.000000" cy="109.625191" rx="25.000000" ry="0.374809" fill="rgb(0, 0, 128)" style="fill-opacity:1.00" />
<ellipse cx="115.000000" cy="109.625191" rx="16.666667" ry="0.249873" fill="rgb(255, 255, 255)" style="fill-opacity:1.00" />
<rect height="0.374809" width="25.000000" x="115.000000" y="109.437786" fill="rgb(255, 255, 255)" style="fill-opacity:1.00" />
<!-- End 'C' -->
<!-- Begin 'G' -->
<ellipse cx="175.000000" cy="77.786622" rx="25.000000" ry="22.244295" fill="rgb(255, 165, 0)" style="fill-opacity:1.00" />
<ellipse cx="175.000000" cy="77.786622" rx="16.666667" ry="14.829530" fill="rgb(255, 255, 255)" style="fill-opacity:1.00" />
<rect height="22.244295" width="25.000000" x="175.000000" y="66.664474" fill="rgb(255, 255, 255)" style="fill-opacity:1.00" />
<rect height="5.561074" width="25.000000" x="175.000000" y="83.347696" fill="rgb(255, 165, 0)" style="fill-opacity:1.00" />
<rect height="16.683222" width="6.250000" x="193.750000" y="83.347696" fill="rgb(255, 165, 0)" style="fill-opacity:1.00" />
<!-- End 'G' -->
<!-- Begin 'A' -->
<polygon points=" 150.000000, 106.785896, 171.000000, 100.030917, 179.000000, 100.030917, 200.000000, 106.785896, 192.500000, 106.785896, 186.250000, 105.097151, 163.750000, 105.097151, 157.500000, 106.785896" fill="rgb(178, 34, 34)" style="fill-opacity:1.00" />
<!-- End 'A' -->
<!-- Begin 'T' -->
<rect height="0.295153" width="50.000000" x="150.000000" y="106.785896" fill="rgb(0, 100, 0)" style="fill-opacity:1.00" />
<rect height="1.844709" width="10.000000" x="170.000000" y="106.785896" fill="rgb(0, 100, 0)" style="fill-opacity:1.00" />
<!-- End 'T' -->
<!-- Begin 'C' -->
<ellipse cx="175.000000" cy="109.315302" rx="25.000000" ry="0.684698" fill="rgb(0, 0, 128)" style="fill-opacity:1.00" />
<ellipse cx="175.000000" cy="109.315302" rx="16.666667" ry="0.456465" fill="rgb(255, 255, 255)" style="fill-opacity:1.00" />
<rect height="0.684698" width="25.000000" x="175.000000" y="108.972954" fill="rgb(255, 255, 255)" style="fill-opacity:1.00" />
<!-- End 'C' -->
<!-- Begin 'A' -->
<polygon points=" 210.000000, 99.886691, 231.000000, 78.877547, 239.000000, 78.877547, 260.000000, 99.886691, 252.500000, 99.886691, 246.250000, 94.634405, 223.750000, 94.634405, 217.500000, 99.886691" fill="rgb(178, 34, 34)" style="fill-opacity:1.00" />
<polygon points=" 235.000000, 83.079376, 227.000000, 90.483033, 242.000000, 90.483033" fill="rgb(255, 255, 255)" style="fill-opacity:1.00" />
<!-- End 'A' -->
<!-- Begin 'T' -->
<rect height="0.851101" width="50.000000" x="210.000000" y="99.886691" fill="rgb(0, 100, 0)" style="fill-opacity:1.00" />
<rect height="5.319381" width="10.000000" x="230.000000" y="99.886691" fill="rgb(0, 100, 0)" style="fill-opacity:1.00" />
<!-- End 'T' -->
<!-- Begin 'G' -->
<ellipse cx="235.000000" cy="106.769843" rx="25.000000" ry="1.563771" fill="rgb(255, 165, 0)" style="fill-opacity:1.00" />
<ellipse cx="235.000000" cy="106.769843" rx="16.666667" ry="1.042514" fill="rgb(255, 255, 255)" style="fill-opacity:1.00" />
<rect height="1.563771" width="25.000000" x="235.000000" y="105.987957" fill="rgb(255, 255, 255)" style="fill-opacity:1.00" />
<rect height="0.390943" width="25.000000" x="235.000000" y="107.160786" fill="rgb(255, 165, 0)" style="fill-opacity:1.00" />
<rect height="1.172828" width="6.250000" x="253.750000" y="107.160786" fill="rgb(255, 165, 0)" style="fill-opacity:1.00" />
<!-- End 'G' -->
<!-- Begin 'C' -->
<ellipse cx="235.000000" cy="109.166807" rx="25.000000" ry="0.833193" fill="rgb(0, 0, 128)" style="fill-opacity:1.00" />
<ellipse cx="235.000000" cy="109.166807" rx="16.666667" ry="0.555462" fill="rgb(255, 255, 255)" style="fill-opacity:1.00" />
<rect height="0.833193" width="25.000000" x="235.000000" y="108.750210" fill="rgb(255, 255, 255)" style="fill-opacity:1.00" />
<!-- End 'C' -->
<!-- Begin 'A' -->
<polygon points=" 270.000000, 106.323510, 291.000000, 22.921216, 299.000000, 22.921216, 320.000000, 106.323510, 312.500000, 106.323510, 306.250000, 85.472937, 283.750000, 85.472937, 277.500000, 106.323510" fill="rgb(178, 34, 34)" style="fill-opacity:1.00" />
<polygon points=" 295.000000, 39.601675, 287.000000, 71.962592, 302.000000, 71.962592" fill="rgb(255, 255, 255)" style="fill-opacity:1.00" />
<!-- End 'A' -->
<!-- Begin 'T' -->
<rect height="0.576851" width="50.000000" x="270.000000" y="106.323510" fill="rgb(0, 100, 0)" style="fill-opacity:1.00" />
<rect height="3.605321" width="10.000000" x="290.000000" y="106.323510" fill="rgb(0, 100, 0)" style="fill-opacity:1.00" />
<!-- End 'T' -->
<!-- Begin 'G' -->
<ellipse cx="295.000000" cy="109.962734" rx="25.000000" ry="0.033903" fill="rgb(255, 165, 0)" style="fill-opacity:1.00" />
<ellipse cx="295.000000" cy="109.962734" rx="16.666667" ry="0.022602" fill="rgb(255, 255, 255)" style="fill-opacity:1.00" />
<rect height="0.033903" width="25.000000" x="295.000000" y="109.945782" fill="rgb(255, 255, 255)" style="fill-opacity:1.00" />
<rect height="0.008476" width="25.000000" x="295.000000" y="109.971209" fill="rgb(255, 165, 0)" style="fill-opacity:1.00" />
<rect height="0.025427" width="6.250000" x="313.750000" y="109.971209" fill="rgb(255, 165, 0)" style="fill-opacity:1.00" />
<!-- End 'G' -->
<!-- Begin 'C' -->
<ellipse cx="295.000000" cy="109.998318" rx="25.000000" ry="0.001682" fill="rgb(0, 0, 128)" style="fill-opacity:1.00" />
<ellipse cx="295.000000" cy="109.998318" rx="16.666667" ry="0.001121" fill="rgb(255, 255, 255)" style="fill-opacity:1.00" />
<rect height="0.001682" width="25.000000" x="295.000000" y="109.997478" fill="rgb(255, 255, 255)" style="fill-opacity:1.00" />
<!-- End 'C' -->
<!-- Begin 'T' -->
<rect height="8.858214" width="50.000000" x="330.000000" y="43.967844" fill="rgb(0, 100, 0)" style="fill-opacity:1.00" />
<rect height="55.363838" width="10.000000" x="350.000000" y="43.967844" fill="rgb(0, 100, 0)" style="fill-opacity:1.00" />
<!-- End 'T' -->
<!-- Begin 'G' -->
<ellipse cx="355.000000" cy="104.455701" rx="25.000000" ry="5.124019" fill="rgb(255, 165, 0)" style="fill-opacity:1.00" />
<ellipse cx="355.000000" cy="104.455701" rx="16.666667" ry="3.416013" fill="rgb(255, 255, 255)" style="fill-opacity:1.00" />
<rect height="5.124019" width="25.000000" x="355.000000" y="101.893691" fill="rgb(255, 255, 255)" style="fill-opacity:1.00" />
<rect height="1.281005" width="25.000000" x="355.000000" y="105.736706" fill="rgb(255, 165, 0)" style="fill-opacity:1.00" />
<rect height="3.843015" width="6.250000" x="373.750000" y="105.736706" fill="rgb(255, 165, 0)" style="fill-opacity:1.00" />
<!-- End 'G' -->
<!-- Begin 'C' -->
<ellipse cx="355.000000" cy="109.772420" rx="25.000000" ry="0.192700" fill="rgb(0, 0, 128)" style="fill-opacity:1.00" />
<ellipse cx="355.000000" cy="109.772420" rx="16.666667" ry="0.128467" fill="rgb(255, 255, 255)" style="fill-opacity:1.00" />
<rect height="0.192700" width="25.000000" x="355.000000" y="109.676070" fill="rgb(255, 255, 255)" style="fill-opacity:1.00" />
<!-- End 'C' -->
<!-- Begin 'A' -->
<polygon points=" 330.000000, 110.000000, 351.000000, 109.965120, 359.000000, 109.965120, 380.000000, 110.000000, 372.500000, 110.000000, 366.250000, 109.991280, 343.750000, 109.991280, 337.500000, 110.000000" fill="rgb(178, 34, 34)" style="fill-opacity:1.00" />
<!-- End 'A' -->
<!-- Begin 'A' -->
<polygon points=" 390.000000, 93.329951, 411.000000, 56.912690, 419.000000, 56.912690, 440.000000, 93.329951, 432.500000, 93.329951, 426.250000, 84.225636, 403.750000, 84.225636, 397.500000, 93.329951" fill="rgb(178, 34, 34)" style="fill-opacity:1.00" />
<polygon points=" 415.000000, 64.196142, 407.000000, 77.763047, 422.000000, 77.763047" fill="rgb(255, 255, 255)" style="fill-opacity:1.00" />
<!-- End 'A' -->
<!-- Begin 'C' -->
<ellipse cx="415.000000" cy="101.522569" rx="25.000000" ry="8.192617" fill="rgb(0, 0, 128)" style="fill-opacity:1.00" />
<ellipse cx="415.000000" cy="101.522569" rx="16.666667" ry="5.461745" fill="rgb(255, 255, 255)" style="fill-opacity:1.00" />
<rect height="8.192617" width="25.000000" x="415.000000" y="97.426260" fill="rgb(255, 255, 255)" style="fill-opacity:1.00" />
<!-- End 'C' -->
<!-- Begin 'G' -->
<ellipse cx="415.000000" cy="109.851714" rx="25.000000" ry="0.136528" fill="rgb(255, 165, 0)" style="fill-opacity:1.00" />
<ellipse cx="415.000000" cy="109.851714" rx="16.666667" ry="0.091018" fill="rgb(255, 255, 255)" style="fill-opacity:1.00" />
<rect height="0.136528" width="25.000000" x="415.000000" y="109.783450" fill="rgb(255, 255, 255)" style="fill-opacity:1.00" />
<rect height="0.034132" width="25.000000" x="415.000000" y="109.885846" fill="rgb(255, 165, 0)" style="fill-opacity:1.00" />
<rect height="0.102396" width="6.250000" x="433.750000" y="109.885846" fill="rgb(255, 165, 0)" style="fill-opacity:1.00" />
<!-- End 'G' -->
<!-- Begin 'T' -->
<rect height="0.001881" width="50.000000" x="390.000000" y="109.988241" fill="rgb(0, 100, 0)" style="fill-opacity:1.00" />
<rect height="0.011759" width="10.000000" x="410.000000" y="109.988241" fill="rgb(0, 100, 0)" style="fill-opacity:1.00" />
<!-- End 'T' -->
<!-- Begin 'T' -->
<rect height="11.047465" width="50.000000" x="450.000000" y="34.905140" fill="rgb(0, 100, 0)" style="fill-opacity:1.00" />
<rect height="69.046654" width="10.000000" x="470.000000" y="34.905140" fill="rgb(0, 100, 0)" style="fill-opacity:1.00" />
<!-- End 'T' -->
<!-- Begin 'A' -->
<polygon points=" 450.000000, 107.288301, 471.000000, 103.951795, 479.000000, 103.951795, 500.000000, 107.288301, 492.500000, 107.288301, 486.250000, 106.454174, 463.750000, 106.454174, 457.500000, 107.288301" fill="rgb(178, 34, 34)" style="fill-opacity:1.00" />
<!-- End 'A' -->
<!-- Begin 'C' -->
<ellipse cx="475.000000" cy="108.540137" rx="25.000000" ry="1.251836" fill="rgb(0, 0, 128)" style="fill-opacity:1.00" />
<ellipse cx="475.000000" cy="108.540137" rx="16.666667" ry="0.834557" fill="rgb(255, 255, 255)" style="fill-opacity:1.00" />
<rect height="1.251836" width="25.000000" x="475.000000" y="107.914219" fill="rgb(255, 255, 255)" style="fill-opacity:1.00" />
<!-- End 'C' -->
<!-- Begin 'G' -->
<ellipse cx="475.000000" cy="109.895986" rx="25.000000" ry="0.104014" fill="rgb(255, 165, 0)" style="fill-opacity:1.00" />
<ellipse cx="475.000000" cy="109.895986" rx="16.666667" ry="0.069342" fill="rgb(255, 255, 255)" style="fill-opacity:1.00" />
<rect height="0.104014" width="25.000000" x="475.000000" y="109.843980" fill="rgb(255, 255, 255)" style="fill-opacity:1.00" />
<rect height="0.026003" width="25.000000" x="475.000000" y="109.921990" fill="rgb(255, 165, 0)" style="fill-opacity:1.00" />
<rect height="0.078010" width="6.250000" x="493.750000" y="109.921990" fill="rgb(255, 165, 0)" style="fill-opacity:1.00" />
<!-- End 'G' -->
<!-- Begin 'T' -->
<rect height="1.410764" width="50.000000" x="510.000000" y="93.933588" fill="rgb(0, 100, 0)" style="fill-opacity:1.00" />
<rect height="8.817276" width="10.000000" x="530.000000" y="93.933588" fill="rgb(0, 100, 0)" style="fill-opacity:1.00" />
<!-- End 'T' -->
<!-- Begin 'A' -->
<polygon points=" 510.000000, 106.222981, 531.000000, 102.750864, 539.000000, 102.750864, 560.000000, 106.222981, 552.500000, 106.222981, 546.250000, 105.354951, 523.750000, 105.354951, 517.500000, 106.222981" fill="rgb(178, 34, 34)" style="fill-opacity:1.00" />
<!-- End 'A' -->
<!-- Begin 'G' -->
<ellipse cx="535.000000" cy="107.195831" rx="25.000000" ry="0.972850" fill="rgb(255, 165, 0)" style="fill-opacity:1.00" />
<ellipse cx="535.000000" cy="107.195831" rx="16.666667" ry="0.648567" fill="rgb(255, 255, 255)" style="fill-opacity:1.00" />
<rect height="0.972850" width="25.000000" x="535.000000" y="106.709406" fill="rgb(255, 255, 255)" style="fill-opacity:1.00" />
<rect height="0.243212" width="25.000000" x="535.000000" y="107.439043" fill="rgb(255, 165, 0)" style="fill-opacity:1.00" />
<rect height="0.729637" width="6.250000" x="553.750000" y="107.439043" fill="rgb(255, 165, 0)" style="fill-opacity:1.00" />
<!-- End 'G' -->
<!-- Begin 'C' -->
<ellipse cx="535.000000" cy="109.084340" rx="25.000000" ry="0.915660" fill="rgb(0, 0, 128)" style="fill-opacity:1.00" />
<ellipse cx="535.000000" cy="109.084340" rx="16.666667" ry="0.610440" fill="rgb(255, 255, 255)" style="fill-opacity:1.00" />
<rect height="0.915660" width="25.000000" x="535.000000" y="108.626510" fill="rgb(255, 255, 255)" style="fill-opacity:1.00" />
<!-- End 'C' -->
<!-- Begin 'C' -->
<ellipse cx="595.000000" cy="90.640173" rx="25.000000" ry="9.635073" fill="rgb(0, 0, 128)" style="fill-opacity:1.00" />
<ellipse cx="595.000000" cy="90.640173" rx="16.666667" ry="6.423382" fill="rgb(255, 255, 255)" style="fill-opacity:1.00" />
<rect height="9.635073" width="25.000000" x="595.000000" y="85.822636" fill="rgb(255, 255, 255)" style="fill-opacity:1.00" />
<!-- End 'C' -->
<!-- Begin 'T' -->
<rect height="0.738774" width="50.000000" x="570.000000" y="100.275245" fill="rgb(0, 100, 0)" style="fill-opacity:1.00" />
<rect height="4.617340" width="10.000000" x="590.000000" y="100.275245" fill="rgb(0, 100, 0)" style="fill-opacity:1.00" />
<!-- End 'T' -->
<!-- Begin 'A' -->
<polygon points=" 570.000000, 108.197897, 591.000000, 104.892585, 599.000000, 104.892585, 620.000000, 108.197897, 612.500000, 108.197897, 606.250000, 107.371569, 583.750000, 107.371569, 577.500000, 108.197897" fill="rgb(178, 34, 34)" style="fill-opacity:1.00" />
<!-- End 'A' -->
<!-- Begin 'G' -->
<ellipse cx="595.000000" cy="109.098948" rx="25.000000" ry="0.901052" fill="rgb(255, 165, 0)" style="fill-opacity:1.00" />
<ellipse cx="595.000000" cy="109.098948" rx="16.666667" ry="0.600701" fill="rgb(255, 255, 255)" style="fill-opacity:1.00" />
<rect height="0.901052" width="25.000000" x="595.000000" y="108.648423" fill="rgb(255, 255, 255)" style="fill-opacity:1.00" />
<rect height="0.225263" width="25.000000" x="595.000000" y="109.324211" fill="rgb(255, 165, 0)" style="fill-opacity:1.00" />
<rect height="0.675789" width="6.250000" x="613.750000" y="109.324211" fill="rgb(255, 165, 0)" style="fill-opacity:1.00" />
<!-- End 'G' -->
<!-- Begin 'T' -->
<rect height="0.222601" width="50.000000" x="630.000000" y="106.218862" fill="rgb(0, 100, 0)" style="fill-opacity:1.00" />
<rect height="1.391258" width="10.000000" x="650.000000" y="106.218862" fill="rgb(0, 100, 0)" style="fill-opacity:1.00" />
<!-- End 'T' -->
<!-- Begin 'A' -->
<polygon points=" 630.000000, 108.655754, 651.000000, 107.610121, 659.000000, 107.610121, 680.000000, 108.655754, 672.500000, 108.655754, 666.250000, 108.394346, 643.750000, 108.394346, 637.500000, 108.655754" fill="rgb(178, 34, 34)" style="fill-opacity:1.00" />
<!-- End 'A' -->
<!-- Begin 'C' -->
<ellipse cx="655.000000" cy="109.039292" rx="25.000000" ry="0.383538" fill="rgb(0, 0, 128)" style="fill-opacity:1.00" />
<ellipse cx="655.000000" cy="109.039292" rx="16.666667" ry="0.255692" fill="rgb(255, 255, 255)" style="fill-opacity:1.00" />
<rect height="0.383538" width="25.000000" x="655.000000" y="108.847523" fill="rgb(255, 255, 255)" style="fill-opacity:1.00" />
<!-- End 'C' -->
<!-- Begin 'G' -->
<ellipse cx="655.000000" cy="109.711415" rx="25.000000" ry="0.288585" fill="rgb(255, 165, 0)" style="fill-opacity:1.00" />
<ellipse cx="655.000000" cy="109.711415" rx="16.666667" ry="0.192390" fill="rgb(255, 255, 255)" style="fill-opacity:1.00" />
<rect height="0.288585" width="25.000000" x="655.000000" y="109.567122" fill="rgb(255, 255, 255)" style="fill-opacity:1.00" />
<rect height="0.072146" width="25.000000" x="655.000000" y="109.783561" fill="rgb(255, 165, 0)" style="fill-opacity:1.00" />
<rect height="0.216439" width="6.250000" x="673.750000" y="109.783561" fill="rgb(255, 165, 0)" style="fill-opacity:1.00" />
<!-- End 'G' -->
<!-- Begin 'T' -->
<rect height="0.145149" width="50.000000" x="690.000000" y="107.170653" fill="rgb(0, 100, 0)" style="fill-opacity:1.00" />
<rect height="0.907179" width="10.000000" x="710.000000" y="107.170653" fill="rgb(0, 100, 0)" style="fill-opacity:1.00" />
<!-- End 'T' -->
<!-- Begin 'A' -->
<polygon points=" 690.000000, 108.976662, 711.000000, 108.077833, 719.000000, 108.077833, 740.000000, 108.976662, 732.500000, 108.976662, 726.250000, 108.751955, 703.750000, 108.751955, 697.500000, 108.976662" fill="rgb(178, 34, 34)" style="fill-opacity:1.00" />
<!-- End 'A' -->
<!-- Begin 'G' -->
<ellipse cx="715.000000" cy="109.245280" rx="25.000000" ry="0.268618" fill="rgb(255, 165, 0)" style="fill-opacity:1.00" />
<ellipse cx="715.000000" cy="109.245280" rx="16.666667" ry="0.179078" fill="rgb(255, 255, 255)" style="fill-opacity:1.00" />
<rect height="0.268618" width="25.000000" x="715.000000" y="109.110971" fill="rgb(255, 255, 255)" style="fill-opacity:1.00" />
<rect height="0.067154" width="25.000000" x="715.000000" y="109.312434" fill="rgb(255, 165, 0)" style="fill-opacity:1.00" />
<rect height="0.201463" width="6.250000" x="733.750000" y="109.312434" fill="rgb(255, 165, 0)" style="fill-opacity:1.00" />
<!-- End 'G' -->
<!-- Begin 'C' -->
<ellipse cx="715.000000" cy="109.756949" rx="25.000000" ry="0.243051" fill="rgb(0, 0, 128)" style="fill-opacity:1.00" />
<ellipse cx="715.000000" cy="109.756949" rx="16.666667" ry="0.162034" fill="rgb(255, 255, 255)" style="fill-opacity:1.00" />
<rect height="0.243051" width="25.000000" x="715.000000" y="109.635423" fill="rgb(255, 255, 255)" style="fill-opacity:1.00" />
<!-- End 'C' -->
<text x="400.000000" y="165">
IC = 8.48
</text>

</svg>
