<?xml version="1.0" encoding="UTF-8" standalone="yes"?>
                 <!DOCTYPE svg PUBLIC "-//W3C//DTD SVG 1.0//EN" "http://www.w3.org/TR/2001/REC-SVG-20010904/DTD/svg10.dtd">
                 <svg height="170" width="1380" xmlns="http://www.w3.org/2000/svg" xmlns:xlink="http://www.w3.org/1999/xlink">
                 <line x1="85" y1="120" x2="1347" y2="120" style="stroke:rgb(99,99,99);stroke-width:2" />
<rect height="7.000000" width="2.000000" x="85.000000" y="120.000000" fill="rgb(0, 0, 0)" style="fill-opacity:1.00" />
<text x="107.000000" y="140">
1
</text>
<rect height="7.000000" width="2.000000" x="145.000000" y="120.000000" fill="rgb(0, 0, 0)" style="fill-opacity:1.00" />
<text x="167.000000" y="140">
2
</text>
<rect height="7.000000" width="2.000000" x="205.000000" y="120.000000" fill="rgb(0, 0, 0)" style="fill-opacity:1.00" />
<text x="227.000000" y="140">
3
</text>
<rect height="7.000000" width="2.000000" x="265.000000" y="120.000000" fill="rgb(0, 0, 0)" style="fill-opacity:1.00" />
<text x="287.000000" y="140">
4
</text>
<rect height="7.000000" width="2.000000" x="325.000000" y="120.000000" fill="rgb(0, 0, 0)" style="fill-opacity:1.00" />
<text x="347.000000" y="140">
5
</text>
<rect height="7.000000" width="2.000000" x="385.000000" y="120.000000" fill="rgb(0, 0, 0)" style="fill-opacity:1.00" />
<text x="407.000000" y="140">
6
</text>
<rect height="7.000000" width="2.000000" x="445.000000" y="120.000000" fill="rgb(0, 0, 0)" style="fill-opacity:1.00" />
<text x="467.000000" y="140">
7
</text>
<rect height="7.000000" width="2.000000" x="505.000000" y="120.000000" fill="rgb(0, 0, 0)" style="fill-opacity:1.00" />
<text x="527.000000" y="140">
8
</text>
<rect height="7.000000" width="2.000000" x="565.000000" y="120.000000" fill="rgb(0, 0, 0)" style="fill-opacity:1.00" />
<text x="587.000000" y="140">
9
</text>
<rect height="7.000000" width="2.000000" x="625.000000" y="120.000000" fill="rgb(0, 0, 0)" style="fill-opacity:1.00" />
<text x="647.000000" y="140">
10
</text>
<rect height="7.000000" width="2.000000" x="685.000000" y="120.000000" fill="rgb(0, 0, 0)" style="fill-opacity:1.00" />
<text x="707.000000" y="140">
11
</text>
<rect height="7.000000" width="2.000000" x="745.000000" y="120.000000" fill="rgb(0, 0, 0)" style="fill-opacity:1.00" />
<text x="767.000000" y="140">
12
</text>
<rect height="7.000000" width="2.000000" x="805.000000" y="120.000000" fill="rgb(0, 0, 0)" style="fill-opacity:1.00" />
<text x="827.000000" y="140">
13
</text>
<rect height="7.000000" width="2.000000" x="865.000000" y="120.000000" fill="rgb(0, 0, 0)" style="fill-opacity:1.00" />
<text x="887.000000" y="140">
14
</text>
<rect height="7.000000" width="2.000000" x="925.000000" y="120.000000" fill="rgb(0, 0, 0)" style="fill-opacity:1.00" />
<text x="947.000000" y="140">
15
</text>
<rect height="7.000000" width="2.000000" x="985.000000" y="120.000000" fill="rgb(0, 0, 0)" style="fill-opacity:1.00" />
<text x="1007.000000" y="140">
16
</text>
<rect height="7.000000" width="2.000000" x="1045.000000" y="120.000000" fill="rgb(0, 0, 0)" style="fill-opacity:1.00" />
<text x="1067.000000" y="140">
17
</text>
<rect height="7.000000" width="2.000000" x="1105.000000" y="120.000000" fill="rgb(0, 0, 0)" style="fill-opacity:1.00" />
<text x="1127.000000" y="140">
18
</text>
<rect height="7.000000" width="2.000000" x="1165.000000" y="120.000000" fill="rgb(0, 0, 0)" style="fill-opacity:1.00" />
<text x="1187.000000" y="140">
19
</text>
<rect height="7.000000" width="2.000000" x="1225.000000" y="120.000000" fill="rgb(0, 0, 0)" style="fill-opacity:1.00" />
<text x="1247.000000" y="140">
20
</text>
<rect height="7.000000" width="2.000000" x="1285.000000" y="120.000000" fill="rgb(0, 0, 0)" style="fill-opacity:1.00" />
<text x="1307.000000" y="140">
21
</text>
<rect height="7.000000" width="2.000000" x="1345.000000" y="120.000000" fill="rgb(0, 0, 0)" style="fill-opacity:1.00" />
<line x1="80" y1="112" x2="80" y2="10" style="stroke:rgb(99,99,99);stroke-width:2" />
<rect height="2.000000" width="7.000000" x="73.000000" y="110.000000" fill="rgb(0, 0, 0)" style="fill-opacity:1.00" />
<text x="63" y="115">
0
</text>
<rect height="2.000000" width="7.000000" x="73.000000" y="60.000000" fill="rgb(0, 0, 0)" style="fill-opacity:1.00" />
<text x="63" y="65">
1
</text>
<rect height="2.000000" width="7.000000" x="73.000000" y="10.000000" fill="rgb(0, 0, 0)" style="fill-opacity:1.00" />
<text x="63" y="15">
2
</text>
<text x="50" y="65"
transform="rotate(-90, 50, 70)">
bits
</text>
<!-- Begin 'T' -->
<rect height="0.083101" width="50.000000" x="90.000000" y="108.461015" fill="rgb(0, 100, 0)" style="fill-opacity:1.00" />
<rect height="0.519379" width="10.000000" x="110.000000" y="108.461015" fill="rgb(0, 100, 0)" style="fill-opacity:1.00" />
<!-- End 'T' -->
<!-- Begin 'C' -->
<ellipse cx="115.000000" cy="109.161219" rx="25.000000" ry="0.180825" fill="rgb(0, 0, 128)" style="fill-opacity:1.00" />
<ellipse cx="115.000000" cy="109.161219" rx="16.666667" ry="0.120550" fill="rgb(255, 255, 255)" style="fill-opacity:1.00" />
<rect height="0.180825" width="25.000000" x="115.000000" y="109.070807" fill="rgb(255, 255, 255)" style="fill-opacity:1.00" />
<!-- End 'C' -->
<!-- Begin 'A' -->
<polygon points=" 90.000000, 109.699188, 111.000000, 109.342044, 119.000000, 109.342044, 140.000000, 109.699188, 132.500000, 109.699188, 126.250000, 109.609902, 103.750000, 109.609902, 97.500000, 109.699188" fill="rgb(178, 34, 34)" style="fill-opacity:1.00" />
<!-- End 'A' -->
<!-- Begin 'G' -->
<ellipse cx="115.000000" cy="109.849594" rx="25.000000" ry="0.150406" fill="rgb(255, 165, 0)" style="fill-opacity:1.00" />
<ellipse cx="115.000000" cy="109.849594" rx="16.666667" ry="0.100271" fill="rgb(255, 255, 255)" style="fill-opacity:1.00" />
<rect height="0.150406" width="25.000000" x="115.000000" y="109.774391" fill="rgb(255, 255, 255)" style="fill-opacity:1.00" />
<rect height="0.037601" width="25.000000" x="115.000000" y="109.887196" fill="rgb(255, 165, 0)" style="fill-opacity:1.00" />
<rect height="0.112804" width="6.250000" x="133.750000" y="109.887196" fill="rgb(255, 165, 0)" style="fill-opacity:1.00" />
<!-- End 'G' -->
<!-- Begin 'T' -->
<rect height="0.349448" width="50.000000" x="150.000000" y="104.829441" fill="rgb(0, 100, 0)" style="fill-opacity:1.00" />
<rect height="2.184050" width="10.000000" x="170.000000" y="104.829441" fill="rgb(0, 100, 0)" style="fill-opacity:1.00" />
<!-- End 'T' -->
<!-- Begin 'C' -->
<ellipse cx="175.000000" cy="107.552880" rx="25.000000" ry="0.539388" fill="rgb(0, 0, 128)" style="fill-opacity:1.00" />
<ellipse cx="175.000000" cy="107.552880" rx="16.666667" ry="0.359592" fill="rgb(255, 255, 255)" style="fill-opacity:1.00" />
<rect height="0.539388" width="25.000000" x="175.000000" y="107.283186" fill="rgb(255, 255, 255)" style="fill-opacity:1.00" />
<!-- End 'C' -->
<!-- Begin 'G' -->
<ellipse cx="175.000000" cy="108.569201" rx="25.000000" ry="0.476933" fill="rgb(255, 165, 0)" style="fill-opacity:1.00" />
<ellipse cx="175.000000" cy="108.569201" rx="16.666667" ry="0.317955" fill="rgb(255, 255, 255)" style="fill-opacity:1.00" />
<rect height="0.476933" width="25.000000" x="175.000000" y="108.330735" fill="rgb(255, 255, 255)" style="fill-opacity:1.00" />
<rect height="0.119233" width="25.000000" x="175.000000" y="108.688434" fill="rgb(255, 165, 0)" style="fill-opacity:1.00" />
<rect height="0.357700" width="6.250000" x="193.750000" y="108.688434" fill="rgb(255, 165, 0)" style="fill-opacity:1.00" />
<!-- End 'G' -->
<!-- Begin 'A' -->
<polygon points=" 150.000000, 110.000000, 171.000000, 109.046134, 179.000000, 109.046134, 200.000000, 110.000000, 192.500000, 110.000000, 186.250000, 109.761534, 163.750000, 109.761534, 157.500000, 110.000000" fill="rgb(178, 34, 34)" style="fill-opacity:1.00" />
<!-- End 'A' -->
<!-- Begin 'T' -->
<rect height="0.772527" width="50.000000" x="210.000000" y="99.915218" fill="rgb(0, 100, 0)" style="fill-opacity:1.00" />
<rect height="4.828293" width="10.000000" x="230.000000" y="99.915218" fill="rgb(0, 100, 0)" style="fill-opacity:1.00" />
<!-- End 'T' -->
<!-- Begin 'C' -->
<ellipse cx="235.000000" cy="105.943201" rx="25.000000" ry="1.199690" fill="rgb(0, 0, 128)" style="fill-opacity:1.00" />
<ellipse cx="235.000000" cy="105.943201" rx="16.666667" ry="0.799794" fill="rgb(255, 255, 255)" style="fill-opacity:1.00" />
<rect height="1.199690" width="25.000000" x="235.000000" y="105.343355" fill="rgb(255, 255, 255)" style="fill-opacity:1.00" />
<!-- End 'C' -->
<!-- Begin 'G' -->
<ellipse cx="235.000000" cy="107.929150" rx="25.000000" ry="0.786259" fill="rgb(255, 165, 0)" style="fill-opacity:1.00" />
<ellipse cx="235.000000" cy="107.929150" rx="16.666667" ry="0.524172" fill="rgb(255, 255, 255)" style="fill-opacity:1.00" />
<rect height="0.786259" width="25.000000" x="235.000000" y="107.536020" fill="rgb(255, 255, 255)" style="fill-opacity:1.00" />
<rect height="0.196565" width="25.000000" x="235.000000" y="108.125714" fill="rgb(255, 165, 0)" style="fill-opacity:1.00" />
<rect height="0.589694" width="6.250000" x="253.750000" y="108.125714" fill="rgb(255, 165, 0)" style="fill-opacity:1.00" />
<!-- End 'G' -->
<!-- Begin 'A' -->
<polygon points=" 210.000000, 110.000000, 231.000000, 108.715408, 239.000000, 108.715408, 260.000000, 110.000000, 252.500000, 110.000000, 246.250000, 109.678852, 223.750000, 109.678852, 217.500000, 110.000000" fill="rgb(178, 34, 34)" style="fill-opacity:1.00" />
<!-- End 'A' -->
<!-- Begin 'T' -->
<rect height="1.061417" width="50.000000" x="270.000000" y="95.994051" fill="rgb(0, 100, 0)" style="fill-opacity:1.00" />
<rect height="6.633857" width="10.000000" x="290.000000" y="95.994051" fill="rgb(0, 100, 0)" style="fill-opacity:1.00" />
<!-- End 'T' -->
<!-- Begin 'C' -->
<ellipse cx="295.000000" cy="104.837485" rx="25.000000" ry="2.209577" fill="rgb(0, 0, 128)" style="fill-opacity:1.00" />
<ellipse cx="295.000000" cy="104.837485" rx="16.666667" ry="1.473051" fill="rgb(255, 255, 255)" style="fill-opacity:1.00" />
<rect height="2.209577" width="25.000000" x="295.000000" y="103.732697" fill="rgb(255, 255, 255)" style="fill-opacity:1.00" />
<!-- End 'C' -->
<!-- Begin 'G' -->
<ellipse cx="295.000000" cy="107.810930" rx="25.000000" ry="0.763868" fill="rgb(255, 165, 0)" style="fill-opacity:1.00" />
<ellipse cx="295.000000" cy="107.810930" rx="16.666667" ry="0.509245" fill="rgb(255, 255, 255)" style="fill-opacity:1.00" />
<rect height="0.763868" width="25.000000" x="295.000000" y="107.428996" fill="rgb(255, 255, 255)" style="fill-opacity:1.00" />
<rect height="0.190967" width="25.000000" x="295.000000" y="108.001897" fill="rgb(255, 165, 0)" style="fill-opacity:1.00" />
<rect height="0.572901" width="6.250000" x="313.750000" y="108.001897" fill="rgb(255, 165, 0)" style="fill-opacity:1.00" />
<!-- End 'G' -->
<!-- Begin 'A' -->
<polygon points=" 270.000000, 110.000000, 291.000000, 108.574797, 299.000000, 108.574797, 320.000000, 110.000000, 312.500000, 110.000000, 306.250000, 109.643699, 283.750000, 109.643699, 277.500000, 110.000000" fill="rgb(178, 34, 34)" style="fill-opacity:1.00" />
<!-- End 'A' -->
<!-- Begin 'A' -->
<polygon points=" 330.000000, 101.639870, 351.000000, 91.873115, 359.000000, 91.873115, 380.000000, 101.639870, 372.500000, 101.639870, 366.250000, 99.198182, 343.750000, 99.198182, 337.500000, 101.639870" fill="rgb(178, 34, 34)" style="fill-opacity:1.00" />
<polygon points=" 355.000000, 93.826466, 347.000000, 96.733168, 362.000000, 96.733168" fill="rgb(255, 255, 255)" style="fill-opacity:1.00" />
<!-- End 'A' -->
<!-- Begin 'G' -->
<ellipse cx="355.000000" cy="104.041749" rx="25.000000" ry="2.401879" fill="rgb(255, 165, 0)" style="fill-opacity:1.00" />
<ellipse cx="355.000000" cy="104.041749" rx="16.666667" ry="1.601252" fill="rgb(255, 255, 255)" style="fill-opacity:1.00" />
<rect height="2.401879" width="25.000000" x="355.000000" y="102.840810" fill="rgb(255, 255, 255)" style="fill-opacity:1.00" />
<rect height="0.600470" width="25.000000" x="355.000000" y="104.642218" fill="rgb(255, 165, 0)" style="fill-opacity:1.00" />
<rect height="1.801409" width="6.250000" x="373.750000" y="104.642218" fill="rgb(255, 165, 0)" style="fill-opacity:1.00" />
<!-- End 'G' -->
<!-- Begin 'T' -->
<rect height="0.352452" width="50.000000" x="330.000000" y="106.443627" fill="rgb(0, 100, 0)" style="fill-opacity:1.00" />
<rect height="2.202828" width="10.000000" x="350.000000" y="106.443627" fill="rgb(0, 100, 0)" style="fill-opacity:1.00" />
<!-- End 'T' -->
<!-- Begin 'C' -->
<ellipse cx="355.000000" cy="109.323228" rx="25.000000" ry="0.676772" fill="rgb(0, 0, 128)" style="fill-opacity:1.00" />
<ellipse cx="355.000000" cy="109.323228" rx="16.666667" ry="0.451182" fill="rgb(255, 255, 255)" style="fill-opacity:1.00" />
<rect height="0.676772" width="25.000000" x="355.000000" y="108.984841" fill="rgb(255, 255, 255)" style="fill-opacity:1.00" />
<!-- End 'C' -->
<!-- Begin 'C' -->
<ellipse cx="415.000000" cy="83.158919" rx="25.000000" ry="10.977296" fill="rgb(0, 0, 128)" style="fill-opacity:1.00" />
<ellipse cx="415.000000" cy="83.158919" rx="16.666667" ry="7.318197" fill="rgb(255, 255, 255)" style="fill-opacity:1.00" />
<rect height="10.977296" width="25.000000" x="415.000000" y="77.670271" fill="rgb(255, 255, 255)" style="fill-opacity:1.00" />
<!-- End 'C' -->
<!-- Begin 'G' -->
<ellipse cx="415.000000" cy="101.154487" rx="25.000000" ry="7.018271" fill="rgb(255, 165, 0)" style="fill-opacity:1.00" />
<ellipse cx="415.000000" cy="101.154487" rx="16.666667" ry="4.678847" fill="rgb(255, 255, 255)" style="fill-opacity:1.00" />
<rect height="7.018271" width="25.000000" x="415.000000" y="97.645351" fill="rgb(255, 255, 255)" style="fill-opacity:1.00" />
<rect height="1.754568" width="25.000000" x="415.000000" y="102.909054" fill="rgb(255, 165, 0)" style="fill-opacity:1.00" />
<rect height="5.263703" width="6.250000" x="433.750000" y="102.909054" fill="rgb(255, 165, 0)" style="fill-opacity:1.00" />
<!-- End 'G' -->
<!-- Begin 'T' -->
<rect height="0.181617" width="50.000000" x="390.000000" y="108.172758" fill="rgb(0, 100, 0)" style="fill-opacity:1.00" />
<rect height="1.135105" width="10.000000" x="410.000000" y="108.172758" fill="rgb(0, 100, 0)" style="fill-opacity:1.00" />
<!-- End 'T' -->
<!-- Begin 'A' -->
<polygon points=" 390.000000, 110.000000, 411.000000, 109.307863, 419.000000, 109.307863, 440.000000, 110.000000, 432.500000, 110.000000, 426.250000, 109.826966, 403.750000, 109.826966, 397.500000, 110.000000" fill="rgb(178, 34, 34)" style="fill-opacity:1.00" />
<!-- End 'A' -->
<!-- Begin 'T' -->
<rect height="15.073336" width="50.000000" x="450.000000" y="14.745666" fill="rgb(0, 100, 0)" style="fill-opacity:1.00" />
<rect height="94.208350" width="10.000000" x="470.000000" y="14.745666" fill="rgb(0, 100, 0)" style="fill-opacity:1.00" />
<!-- End 'T' -->
<!-- Begin 'A' -->
<polygon points=" 450.000000, 109.860535, 471.000000, 108.954015, 479.000000, 108.954015, 500.000000, 109.860535, 492.500000, 109.860535, 486.250000, 109.633905, 463.750000, 109.633905, 457.500000, 109.860535" fill="rgb(178, 34, 34)" style="fill-opacity:1.00" />
<!-- End 'A' -->
<!-- Begin 'G' -->
<ellipse cx="475.000000" cy="109.895402" rx="25.000000" ry="0.034866" fill="rgb(255, 165, 0)" style="fill-opacity:1.00" />
<ellipse cx="475.000000" cy="109.895402" rx="16.666667" ry="0.023244" fill="rgb(255, 255, 255)" style="fill-opacity:1.00" />
<rect height="0.034866" width="25.000000" x="475.000000" y="109.877968" fill="rgb(255, 255, 255)" style="fill-opacity:1.00" />
<rect height="0.008717" width="25.000000" x="475.000000" y="109.904118" fill="rgb(255, 165, 0)" style="fill-opacity:1.00" />
<rect height="0.026150" width="6.250000" x="493.750000" y="109.904118" fill="rgb(255, 165, 0)" style="fill-opacity:1.00" />
<!-- End 'G' -->
<!-- Begin 'C' -->
<ellipse cx="475.000000" cy="109.965134" rx="25.000000" ry="0.034866" fill="rgb(0, 0, 128)" style="fill-opacity:1.00" />
<ellipse cx="475.000000" cy="109.965134" rx="16.666667" ry="0.023244" fill="rgb(255, 255, 255)" style="fill-opacity:1.00" />
<rect height="0.034866" width="25.000000" x="475.000000" y="109.947701" fill="rgb(255, 255, 255)" style="fill-opacity:1.00" />
<!-- End 'C' -->
<!-- Begin 'T' -->
<rect height="14.216494" width="50.000000" x="510.000000" y="18.878890" fill="rgb(0, 100, 0)" style="fill-opacity:1.00" />
<rect height="88.853088" width="10.000000" x="530.000000" y="18.878890" fill="rgb(0, 100, 0)" style="fill-opacity:1.00" />
<!-- End 'T' -->
<!-- Begin 'C' -->
<ellipse cx="535.000000" cy="108.799283" rx="25.000000" ry="1.067304" fill="rgb(0, 0, 128)" style="fill-opacity:1.00" />
<ellipse cx="535.000000" cy="108.799283" rx="16.666667" ry="0.711536" fill="rgb(255, 255, 255)" style="fill-opacity:1.00" />
<rect height="1.067304" width="25.000000" x="535.000000" y="108.265630" fill="rgb(255, 255, 255)" style="fill-opacity:1.00" />
<!-- End 'C' -->
<!-- Begin 'G' -->
<ellipse cx="535.000000" cy="109.899940" rx="25.000000" ry="0.033353" fill="rgb(255, 165, 0)" style="fill-opacity:1.00" />
<ellipse cx="535.000000" cy="109.899940" rx="16.666667" ry="0.022236" fill="rgb(255, 255, 255)" style="fill-opacity:1.00" />
<rect height="0.033353" width="25.000000" x="535.000000" y="109.883264" fill="rgb(255, 255, 255)" style="fill-opacity:1.00" />
<rect height="0.008338" width="25.000000" x="535.000000" y="109.908279" fill="rgb(255, 165, 0)" style="fill-opacity:1.00" />
<rect height="0.025015" width="6.250000" x="553.750000" y="109.908279" fill="rgb(255, 165, 0)" style="fill-opacity:1.00" />
<!-- End 'G' -->
<!-- Begin 'A' -->
<polygon points=" 510.000000, 110.000000, 531.000000, 109.933293, 539.000000, 109.933293, 560.000000, 110.000000, 552.500000, 110.000000, 546.250000, 109.983323, 523.750000, 109.983323, 517.500000, 110.000000" fill="rgb(178, 34, 34)" style="fill-opacity:1.00" />
<!-- End 'A' -->
<!-- Begin 'T' -->
<rect height="13.022664" width="50.000000" x="570.000000" y="24.673069" fill="rgb(0, 100, 0)" style="fill-opacity:1.00" />
<rect height="81.391648" width="10.000000" x="590.000000" y="24.673069" fill="rgb(0, 100, 0)" style="fill-opacity:1.00" />
<!-- End 'T' -->
<!-- Begin 'C' -->
<ellipse cx="595.000000" cy="107.844964" rx="25.000000" ry="1.780247" fill="rgb(0, 0, 128)" style="fill-opacity:1.00" />
<ellipse cx="595.000000" cy="107.844964" rx="16.666667" ry="1.186831" fill="rgb(255, 255, 255)" style="fill-opacity:1.00" />
<rect height="1.780247" width="25.000000" x="595.000000" y="106.954840" fill="rgb(255, 255, 255)" style="fill-opacity:1.00" />
<!-- End 'C' -->
<!-- Begin 'G' -->
<ellipse cx="595.000000" cy="109.781373" rx="25.000000" ry="0.156162" fill="rgb(255, 165, 0)" style="fill-opacity:1.00" />
<ellipse cx="595.000000" cy="109.781373" rx="16.666667" ry="0.104108" fill="rgb(255, 255, 255)" style="fill-opacity:1.00" />
<rect height="0.156162" width="25.000000" x="595.000000" y="109.703292" fill="rgb(255, 255, 255)" style="fill-opacity:1.00" />
<rect height="0.039041" width="25.000000" x="595.000000" y="109.820414" fill="rgb(255, 165, 0)" style="fill-opacity:1.00" />
<rect height="0.117122" width="6.250000" x="613.750000" y="109.820414" fill="rgb(255, 165, 0)" style="fill-opacity:1.00" />
<!-- End 'G' -->
<!-- Begin 'A' -->
<polygon points=" 570.000000, 110.000000, 591.000000, 109.937535, 599.000000, 109.937535, 620.000000, 110.000000, 612.500000, 110.000000, 606.250000, 109.984384, 583.750000, 109.984384, 577.500000, 110.000000" fill="rgb(178, 34, 34)" style="fill-opacity:1.00" />
<!-- End 'A' -->
<!-- Begin 'C' -->
<ellipse cx="655.000000" cy="67.455298" rx="25.000000" ry="35.884533" fill="rgb(0, 0, 128)" style="fill-opacity:1.00" />
<ellipse cx="655.000000" cy="67.455298" rx="16.666667" ry="23.923022" fill="rgb(255, 255, 255)" style="fill-opacity:1.00" />
<rect height="35.884533" width="25.000000" x="655.000000" y="49.513032" fill="rgb(255, 255, 255)" style="fill-opacity:1.00" />
<!-- End 'C' -->
<!-- Begin 'T' -->
<rect height="1.047254" width="50.000000" x="630.000000" y="103.339831" fill="rgb(0, 100, 0)" style="fill-opacity:1.00" />
<rect height="6.545339" width="10.000000" x="650.000000" y="103.339831" fill="rgb(0, 100, 0)" style="fill-opacity:1.00" />
<!-- End 'T' -->
<!-- Begin 'G' -->
<ellipse cx="655.000000" cy="109.913877" rx="25.000000" ry="0.028708" fill="rgb(255, 165, 0)" style="fill-opacity:1.00" />
<ellipse cx="655.000000" cy="109.913877" rx="16.666667" ry="0.019138" fill="rgb(255, 255, 255)" style="fill-opacity:1.00" />
<rect height="0.028708" width="25.000000" x="655.000000" y="109.899523" fill="rgb(255, 255, 255)" style="fill-opacity:1.00" />
<rect height="0.007177" width="25.000000" x="655.000000" y="109.921054" fill="rgb(255, 165, 0)" style="fill-opacity:1.00" />
<rect height="0.021531" width="6.250000" x="673.750000" y="109.921054" fill="rgb(255, 165, 0)" style="fill-opacity:1.00" />
<!-- End 'G' -->
<!-- Begin 'A' -->
<polygon points=" 630.000000, 110.000000, 651.000000, 109.942585, 659.000000, 109.942585, 680.000000, 110.000000, 672.500000, 110.000000, 666.250000, 109.985646, 643.750000, 109.985646, 637.500000, 110.000000" fill="rgb(178, 34, 34)" style="fill-opacity:1.00" />
<!-- End 'A' -->
<!-- Begin 'A' -->
<polygon points=" 690.000000, 99.322014, 711.000000, 77.729804, 719.000000, 77.729804, 740.000000, 99.322014, 732.500000, 99.322014, 726.250000, 93.923962, 703.750000, 93.923962, 697.500000, 99.322014" fill="rgb(178, 34, 34)" style="fill-opacity:1.00" />
<polygon points=" 715.000000, 82.048246, 707.000000, 89.685130, 722.000000, 89.685130" fill="rgb(255, 255, 255)" style="fill-opacity:1.00" />
<!-- End 'A' -->
<!-- Begin 'G' -->
<ellipse cx="715.000000" cy="102.145066" rx="25.000000" ry="2.823052" fill="rgb(255, 165, 0)" style="fill-opacity:1.00" />
<ellipse cx="715.000000" cy="102.145066" rx="16.666667" ry="1.882034" fill="rgb(255, 255, 255)" style="fill-opacity:1.00" />
<rect height="2.823052" width="25.000000" x="715.000000" y="100.733540" fill="rgb(255, 255, 255)" style="fill-opacity:1.00" />
<rect height="0.705763" width="25.000000" x="715.000000" y="102.850829" fill="rgb(255, 165, 0)" style="fill-opacity:1.00" />
<rect height="2.117289" width="6.250000" x="733.750000" y="102.850829" fill="rgb(255, 165, 0)" style="fill-opacity:1.00" />
<!-- End 'G' -->
<!-- Begin 'T' -->
<rect height="0.653909" width="50.000000" x="690.000000" y="104.968117" fill="rgb(0, 100, 0)" style="fill-opacity:1.00" />
<rect height="4.086928" width="10.000000" x="710.000000" y="104.968117" fill="rgb(0, 100, 0)" style="fill-opacity:1.00" />
<!-- End 'T' -->
<!-- Begin 'C' -->
<ellipse cx="715.000000" cy="109.527523" rx="25.000000" ry="0.472477" fill="rgb(0, 0, 128)" style="fill-opacity:1.00" />
<ellipse cx="715.000000" cy="109.527523" rx="16.666667" ry="0.314985" fill="rgb(255, 255, 255)" style="fill-opacity:1.00" />
<rect height="0.472477" width="25.000000" x="715.000000" y="109.291284" fill="rgb(255, 255, 255)" style="fill-opacity:1.00" />
<!-- End 'C' -->
<!-- Begin 'C' -->
<ellipse cx="775.000000" cy="91.089686" rx="25.000000" ry="7.665292" fill="rgb(0, 0, 128)" style="fill-opacity:1.00" />
<ellipse cx="775.000000" cy="91.089686" rx="16.666667" ry="5.110194" fill="rgb(255, 255, 255)" style="fill-opacity:1.00" />
<rect height="7.665292" width="25.000000" x="775.000000" y="87.257040" fill="rgb(255, 255, 255)" style="fill-opacity:1.00" />
<!-- End 'C' -->
<!-- Begin 'G' -->
<ellipse cx="775.000000" cy="102.120703" rx="25.000000" ry="3.365725" fill="rgb(255, 165, 0)" style="fill-opacity:1.00" />
<ellipse cx="775.000000" cy="102.120703" rx="16.666667" ry="2.243816" fill="rgb(255, 255, 255)" style="fill-opacity:1.00" />
<rect height="3.365725" width="25.000000" x="775.000000" y="100.437840" fill="rgb(255, 255, 255)" style="fill-opacity:1.00" />
<rect height="0.841431" width="25.000000" x="775.000000" y="102.962134" fill="rgb(255, 165, 0)" style="fill-opacity:1.00" />
<rect height="2.524293" width="6.250000" x="793.750000" y="102.962134" fill="rgb(255, 165, 0)" style="fill-opacity:1.00" />
<!-- End 'G' -->
<!-- Begin 'T' -->
<rect height="0.656803" width="50.000000" x="750.000000" y="105.486427" fill="rgb(0, 100, 0)" style="fill-opacity:1.00" />
<rect height="4.105017" width="10.000000" x="770.000000" y="105.486427" fill="rgb(0, 100, 0)" style="fill-opacity:1.00" />
<!-- End 'T' -->
<!-- Begin 'A' -->
<polygon points=" 750.000000, 110.000000, 771.000000, 109.591444, 779.000000, 109.591444, 800.000000, 110.000000, 792.500000, 110.000000, 786.250000, 109.897861, 763.750000, 109.897861, 757.500000, 110.000000" fill="rgb(178, 34, 34)" style="fill-opacity:1.00" />
<!-- End 'A' -->
<!-- Begin 'T' -->
<rect height="14.810853" width="50.000000" x="810.000000" y="16.056720" fill="rgb(0, 100, 0)" style="fill-opacity:1.00" />
<rect height="92.567829" width="10.000000" x="830.000000" y="16.056720" fill="rgb(0, 100, 0)" style="fill-opacity:1.00" />
<!-- End 'T' -->
<!-- Begin 'A' -->
<polygon points=" 810.000000, 109.793682, 831.000000, 108.624549, 839.000000, 108.624549, 860.000000, 109.793682, 852.500000, 109.793682, 846.250000, 109.501399, 823.750000, 109.501399, 817.500000, 109.793682" fill="rgb(178, 34, 34)" style="fill-opacity:1.00" />
<!-- End 'A' -->
<!-- Begin 'C' -->
<ellipse cx="835.000000" cy="109.862455" rx="25.000000" ry="0.068773" fill="rgb(0, 0, 128)" style="fill-opacity:1.00" />
<ellipse cx="835.000000" cy="109.862455" rx="16.666667" ry="0.045848" fill="rgb(255, 255, 255)" style="fill-opacity:1.00" />
<rect height="0.068773" width="25.000000" x="835.000000" y="109.828069" fill="rgb(255, 255, 255)" style="fill-opacity:1.00" />
<!-- End 'C' -->
<!-- Begin 'G' -->
<ellipse cx="835.000000" cy="109.965614" rx="25.000000" ry="0.034386" fill="rgb(255, 165, 0)" style="fill-opacity:1.00" />
<ellipse cx="835.000000" cy="109.965614" rx="16.666667" ry="0.022924" fill="rgb(255, 255, 255)" style="fill-opacity:1.00" />
<rect height="0.034386" width="25.000000" x="835.000000" y="109.948421" fill="rgb(255, 255, 255)" style="fill-opacity:1.00" />
<rect height="0.008597" width="25.000000" x="835.000000" y="109.974210" fill="rgb(255, 165, 0)" style="fill-opacity:1.00" />
<rect height="0.025790" width="6.250000" x="853.750000" y="109.974210" fill="rgb(255, 165, 0)" style="fill-opacity:1.00" />
<!-- End 'G' -->
<!-- Begin 'T' -->
<rect height="14.254021" width="50.000000" x="870.000000" y="18.980024" fill="rgb(0, 100, 0)" style="fill-opacity:1.00" />
<rect height="89.087634" width="10.000000" x="890.000000" y="18.980024" fill="rgb(0, 100, 0)" style="fill-opacity:1.00" />
<!-- End 'T' -->
<!-- Begin 'C' -->
<ellipse cx="895.000000" cy="108.567402" rx="25.000000" ry="0.499744" fill="rgb(0, 0, 128)" style="fill-opacity:1.00" />
<ellipse cx="895.000000" cy="108.567402" rx="16.666667" ry="0.333162" fill="rgb(255, 255, 255)" style="fill-opacity:1.00" />
<rect height="0.499744" width="25.000000" x="895.000000" y="108.317530" fill="rgb(255, 255, 255)" style="fill-opacity:1.00" />
<!-- End 'C' -->
<!-- Begin 'A' -->
<polygon points=" 870.000000, 109.600205, 891.000000, 109.067145, 899.000000, 109.067145, 920.000000, 109.600205, 912.500000, 109.600205, 906.250000, 109.466940, 883.750000, 109.466940, 877.500000, 109.600205" fill="rgb(178, 34, 34)" style="fill-opacity:1.00" />
<!-- End 'A' -->
<!-- Begin 'G' -->
<ellipse cx="895.000000" cy="109.800103" rx="25.000000" ry="0.199897" fill="rgb(255, 165, 0)" style="fill-opacity:1.00" />
<ellipse cx="895.000000" cy="109.800103" rx="16.666667" ry="0.133265" fill="rgb(255, 255, 255)" style="fill-opacity:1.00" />
<rect height="0.199897" width="25.000000" x="895.000000" y="109.700154" fill="rgb(255, 255, 255)" style="fill-opacity:1.00" />
<rect height="0.049974" width="25.000000" x="895.000000" y="109.850077" fill="rgb(255, 165, 0)" style="fill-opacity:1.00" />
<rect height="0.149923" width="6.250000" x="913.750000" y="109.850077" fill="rgb(255, 165, 0)" style="fill-opacity:1.00" />
<!-- End 'G' -->
<!-- Begin 'T' -->
<rect height="12.599530" width="50.000000" x="930.000000" y="26.871341" fill="rgb(0, 100, 0)" style="fill-opacity:1.00" />
<rect height="78.747061" width="10.000000" x="950.000000" y="26.871341" fill="rgb(0, 100, 0)" style="fill-opacity:1.00" />
<!-- End 'T' -->
<!-- Begin 'C' -->
<ellipse cx="955.000000" cy="107.413640" rx="25.000000" ry="1.795238" fill="rgb(0, 0, 128)" style="fill-opacity:1.00" />
<ellipse cx="955.000000" cy="107.413640" rx="16.666667" ry="1.196826" fill="rgb(255, 255, 255)" style="fill-opacity:1.00" />
<rect height="1.795238" width="25.000000" x="955.000000" y="106.516021" fill="rgb(255, 255, 255)" style="fill-opacity:1.00" />
<!-- End 'C' -->
<!-- Begin 'A' -->
<polygon points=" 930.000000, 109.939144, 951.000000, 109.208878, 959.000000, 109.208878, 980.000000, 109.939144, 972.500000, 109.939144, 966.250000, 109.756578, 943.750000, 109.756578, 937.500000, 109.939144" fill="rgb(178, 34, 34)" style="fill-opacity:1.00" />
<!-- End 'A' -->
<!-- Begin 'G' -->
<ellipse cx="955.000000" cy="109.969572" rx="25.000000" ry="0.030428" fill="rgb(255, 165, 0)" style="fill-opacity:1.00" />
<ellipse cx="955.000000" cy="109.969572" rx="16.666667" ry="0.020285" fill="rgb(255, 255, 255)" style="fill-opacity:1.00" />
<rect height="0.030428" width="25.000000" x="955.000000" y="109.954358" fill="rgb(255, 255, 255)" style="fill-opacity:1.00" />
<rect height="0.007607" width="25.000000" x="955.000000" y="109.977179" fill="rgb(255, 165, 0)" style="fill-opacity:1.00" />
<rect height="0.022821" width="6.250000" x="973.750000" y="109.977179" fill="rgb(255, 165, 0)" style="fill-opacity:1.00" />
<!-- End 'G' -->
<!-- Begin 'C' -->
<ellipse cx="1015.000000" cy="78.411659" rx="25.000000" ry="18.938209" fill="rgb(0, 0, 128)" style="fill-opacity:1.00" />
<ellipse cx="1015.000000" cy="78.411659" rx="16.666667" ry="12.625473" fill="rgb(255, 255, 255)" style="fill-opacity:1.00" />
<rect height="18.938209" width="25.000000" x="1015.000000" y="68.942555" fill="rgb(255, 255, 255)" style="fill-opacity:1.00" />
<!-- End 'C' -->
<!-- Begin 'T' -->
<rect height="1.745866" width="50.000000" x="990.000000" y="97.349868" fill="rgb(0, 100, 0)" style="fill-opacity:1.00" />
<rect height="10.911663" width="10.000000" x="1010.000000" y="97.349868" fill="rgb(0, 100, 0)" style="fill-opacity:1.00" />
<!-- End 'T' -->
<!-- Begin 'G' -->
<ellipse cx="1015.000000" cy="108.797868" rx="25.000000" ry="0.536336" fill="rgb(255, 165, 0)" style="fill-opacity:1.00" />
<ellipse cx="1015.000000" cy="108.797868" rx="16.666667" ry="0.357557" fill="rgb(255, 255, 255)" style="fill-opacity:1.00" />
<rect height="0.536336" width="25.000000" x="1015.000000" y="108.529700" fill="rgb(255, 255, 255)" style="fill-opacity:1.00" />
<rect height="0.134084" width="25.000000" x="1015.000000" y="108.931952" fill="rgb(255, 165, 0)" style="fill-opacity:1.00" />
<rect height="0.402252" width="6.250000" x="1033.750000" y="108.931952" fill="rgb(255, 165, 0)" style="fill-opacity:1.00" />
<!-- End 'G' -->
<!-- Begin 'A' -->
<polygon points=" 990.000000, 110.000000, 1011.000000, 109.334204, 1019.000000, 109.334204, 1040.000000, 110.000000, 1032.500000, 110.000000, 1026.250000, 109.833551, 1003.750000, 109.833551, 997.500000, 110.000000" fill="rgb(178, 34, 34)" style="fill-opacity:1.00" />
<!-- End 'A' -->
<!-- Begin 'A' -->
<polygon points=" 1050.000000, 107.957345, 1071.000000, 106.725039, 1079.000000, 106.725039, 1100.000000, 107.957345, 1092.500000, 107.957345, 1086.250000, 107.649268, 1063.750000, 107.649268, 1057.500000, 107.957345" fill="rgb(178, 34, 34)" style="fill-opacity:1.00" />
<!-- End 'A' -->
<!-- Begin 'T' -->
<rect height="0.131190" width="50.000000" x="1050.000000" y="107.957345" fill="rgb(0, 100, 0)" style="fill-opacity:1.00" />
<rect height="0.819939" width="10.000000" x="1070.000000" y="107.957345" fill="rgb(0, 100, 0)" style="fill-opacity:1.00" />
<!-- End 'T' -->
<!-- Begin 'G' -->
<ellipse cx="1075.000000" cy="109.093752" rx="25.000000" ry="0.316468" fill="rgb(255, 165, 0)" style="fill-opacity:1.00" />
<ellipse cx="1075.000000" cy="109.093752" rx="16.666667" ry="0.210978" fill="rgb(255, 255, 255)" style="fill-opacity:1.00" />
<rect height="0.316468" width="25.000000" x="1075.000000" y="108.935518" fill="rgb(255, 255, 255)" style="fill-opacity:1.00" />
<rect height="0.079117" width="25.000000" x="1075.000000" y="109.172869" fill="rgb(255, 165, 0)" style="fill-opacity:1.00" />
<rect height="0.237351" width="6.250000" x="1093.750000" y="109.172869" fill="rgb(255, 165, 0)" style="fill-opacity:1.00" />
<!-- End 'G' -->
<!-- Begin 'C' -->
<ellipse cx="1075.000000" cy="109.705110" rx="25.000000" ry="0.294890" fill="rgb(0, 0, 128)" style="fill-opacity:1.00" />
<ellipse cx="1075.000000" cy="109.705110" rx="16.666667" ry="0.196594" fill="rgb(255, 255, 255)" style="fill-opacity:1.00" />
<rect height="0.294890" width="25.000000" x="1075.000000" y="109.557664" fill="rgb(255, 255, 255)" style="fill-opacity:1.00" />
<!-- End 'C' -->
<!-- Begin 'C' -->
<ellipse cx="1135.000000" cy="107.707794" rx="25.000000" ry="0.470170" fill="rgb(0, 0, 128)" style="fill-opacity:1.00" />
<ellipse cx="1135.000000" cy="107.707794" rx="16.666667" ry="0.313447" fill="rgb(255, 255, 255)" style="fill-opacity:1.00" />
<rect height="0.470170" width="25.000000" x="1135.000000" y="107.472709" fill="rgb(255, 255, 255)" style="fill-opacity:1.00" />
<!-- End 'C' -->
<!-- Begin 'T' -->
<rect height="0.126188" width="50.000000" x="1110.000000" y="108.177964" fill="rgb(0, 100, 0)" style="fill-opacity:1.00" />
<rect height="0.788673" width="10.000000" x="1130.000000" y="108.177964" fill="rgb(0, 100, 0)" style="fill-opacity:1.00" />
<!-- End 'T' -->
<!-- Begin 'G' -->
<ellipse cx="1135.000000" cy="109.261883" rx="25.000000" ry="0.295247" fill="rgb(255, 165, 0)" style="fill-opacity:1.00" />
<ellipse cx="1135.000000" cy="109.261883" rx="16.666667" ry="0.196831" fill="rgb(255, 255, 255)" style="fill-opacity:1.00" />
<rect height="0.295247" width="25.000000" x="1135.000000" y="109.114260" fill="rgb(255, 255, 255)" style="fill-opacity:1.00" />
<rect height="0.073812" width="25.000000" x="1135.000000" y="109.335695" fill="rgb(255, 165, 0)" style="fill-opacity:1.00" />
<rect height="0.221435" width="6.250000" x="1153.750000" y="109.335695" fill="rgb(255, 165, 0)" style="fill-opacity:1.00" />
<!-- End 'G' -->
<!-- Begin 'A' -->
<polygon points=" 1110.000000, 110.000000, 1131.000000, 109.557130, 1139.000000, 109.557130, 1160.000000, 110.000000, 1152.500000, 110.000000, 1146.250000, 109.889283, 1123.750000, 109.889283, 1117.500000, 110.000000" fill="rgb(178, 34, 34)" style="fill-opacity:1.00" />
<!-- End 'A' -->
<!-- Begin 'T' -->
<rect height="3.099782" width="50.000000" x="1170.000000" y="81.171692" fill="rgb(0, 100, 0)" style="fill-opacity:1.00" />
<rect height="19.373636" width="10.000000" x="1190.000000" y="81.171692" fill="rgb(0, 100, 0)" style="fill-opacity:1.00" />
<!-- End 'T' -->
<!-- Begin 'C' -->
<ellipse cx="1195.000000" cy="102.518569" rx="25.000000" ry="1.973241" fill="rgb(0, 0, 128)" style="fill-opacity:1.00" />
<ellipse cx="1195.000000" cy="102.518569" rx="16.666667" ry="1.315494" fill="rgb(255, 255, 255)" style="fill-opacity:1.00" />
<rect height="1.973241" width="25.000000" x="1195.000000" y="101.531948" fill="rgb(255, 255, 255)" style="fill-opacity:1.00" />
<!-- End 'C' -->
<!-- Begin 'A' -->
<polygon points=" 1170.000000, 107.573019, 1191.000000, 104.491809, 1199.000000, 104.491809, 1220.000000, 107.573019, 1212.500000, 107.573019, 1206.250000, 106.802717, 1183.750000, 106.802717, 1177.500000, 107.573019" fill="rgb(178, 34, 34)" style="fill-opacity:1.00" />
<!-- End 'A' -->
<!-- Begin 'G' -->
<ellipse cx="1195.000000" cy="108.786510" rx="25.000000" ry="1.213490" fill="rgb(255, 165, 0)" style="fill-opacity:1.00" />
<ellipse cx="1195.000000" cy="108.786510" rx="16.666667" ry="0.808994" fill="rgb(255, 255, 255)" style="fill-opacity:1.00" />
<rect height="1.213490" width="25.000000" x="1195.000000" y="108.179765" fill="rgb(255, 255, 255)" style="fill-opacity:1.00" />
<rect height="0.303373" width="25.000000" x="1195.000000" y="109.089882" fill="rgb(255, 165, 0)" style="fill-opacity:1.00" />
<rect height="0.910118" width="6.250000" x="1213.750000" y="109.089882" fill="rgb(255, 165, 0)" style="fill-opacity:1.00" />
<!-- End 'G' -->
<!-- Begin 'T' -->
<rect height="2.588641" width="50.000000" x="1230.000000" y="84.684400" fill="rgb(0, 100, 0)" style="fill-opacity:1.00" />
<rect height="16.179004" width="10.000000" x="1250.000000" y="84.684400" fill="rgb(0, 100, 0)" style="fill-opacity:1.00" />
<!-- End 'T' -->
<!-- Begin 'A' -->
<polygon points=" 1230.000000, 104.551401, 1251.000000, 100.863404, 1259.000000, 100.863404, 1280.000000, 104.551401, 1272.500000, 104.551401, 1266.250000, 103.629402, 1243.750000, 103.629402, 1237.500000, 104.551401" fill="rgb(178, 34, 34)" style="fill-opacity:1.00" />
<!-- End 'A' -->
<!-- Begin 'C' -->
<ellipse cx="1255.000000" cy="106.349068" rx="25.000000" ry="1.797667" fill="rgb(0, 0, 128)" style="fill-opacity:1.00" />
<ellipse cx="1255.000000" cy="106.349068" rx="16.666667" ry="1.198445" fill="rgb(255, 255, 255)" style="fill-opacity:1.00" />
<rect height="1.797667" width="25.000000" x="1255.000000" y="105.450234" fill="rgb(255, 255, 255)" style="fill-opacity:1.00" />
<!-- End 'C' -->
<!-- Begin 'G' -->
<ellipse cx="1255.000000" cy="109.073367" rx="25.000000" ry="0.926633" fill="rgb(255, 165, 0)" style="fill-opacity:1.00" />
<ellipse cx="1255.000000" cy="109.073367" rx="16.666667" ry="0.617755" fill="rgb(255, 255, 255)" style="fill-opacity:1.00" />
<rect height="0.926633" width="25.000000" x="1255.000000" y="108.610051" fill="rgb(255, 255, 255)" style="fill-opacity:1.00" />
<rect height="0.231658" width="25.000000" x="1255.000000" y="109.305026" fill="rgb(255, 165, 0)" style="fill-opacity:1.00" />
<rect height="0.694974" width="6.250000" x="1273.750000" y="109.305026" fill="rgb(255, 165, 0)" style="fill-opacity:1.00" />
<!-- End 'G' -->
<!-- Begin 'T' -->
<rect height="1.222687" width="50.000000" x="1290.000000" y="95.400438" fill="rgb(0, 100, 0)" style="fill-opacity:1.00" />
<rect height="7.641791" width="10.000000" x="1310.000000" y="95.400438" fill="rgb(0, 100, 0)" style="fill-opacity:1.00" />
<!-- End 'T' -->
<!-- Begin 'C' -->
<ellipse cx="1315.000000" cy="104.816407" rx="25.000000" ry="1.774178" fill="rgb(0, 0, 128)" style="fill-opacity:1.00" />
<ellipse cx="1315.000000" cy="104.816407" rx="16.666667" ry="1.182785" fill="rgb(255, 255, 255)" style="fill-opacity:1.00" />
<rect height="1.774178" width="25.000000" x="1315.000000" y="103.929318" fill="rgb(255, 255, 255)" style="fill-opacity:1.00" />
<!-- End 'C' -->
<!-- Begin 'A' -->
<polygon points=" 1290.000000, 108.375451, 1311.000000, 106.590585, 1319.000000, 106.590585, 1340.000000, 108.375451, 1332.500000, 108.375451, 1326.250000, 107.929235, 1303.750000, 107.929235, 1297.500000, 108.375451" fill="rgb(178, 34, 34)" style="fill-opacity:1.00" />
<!-- End 'A' -->
<!-- Begin 'G' -->
<ellipse cx="1315.000000" cy="109.187726" rx="25.000000" ry="0.812274" fill="rgb(255, 165, 0)" style="fill-opacity:1.00" />
<ellipse cx="1315.000000" cy="109.187726" rx="16.666667" ry="0.541516" fill="rgb(255, 255, 255)" style="fill-opacity:1.00" />
<rect height="0.812274" width="25.000000" x="1315.000000" y="108.781589" fill="rgb(255, 255, 255)" style="fill-opacity:1.00" />
<rect height="0.203069" width="25.000000" x="1315.000000" y="109.390794" fill="rgb(255, 165, 0)" style="fill-opacity:1.00" />
<rect height="0.609206" width="6.250000" x="1333.750000" y="109.390794" fill="rgb(255, 165, 0)" style="fill-opacity:1.00" />
<!-- End 'G' -->
<text x="700.000000" y="165">
IC = 17.78
</text>

</svg>
