<?xml version="1.0" encoding="UTF-8" standalone="yes"?>
                 <!DOCTYPE svg PUBLIC "-//W3C//DTD SVG 1.0//EN" "http://www.w3.org/TR/2001/REC-SVG-20010904/DTD/svg10.dtd">
                 <svg height="170" width="1380" xmlns="http://www.w3.org/2000/svg" xmlns:xlink="http://www.w3.org/1999/xlink">
                 <line x1="85" y1="120" x2="1347" y2="120" style="stroke:rgb(99,99,99);stroke-width:2" />
<rect height="7.000000" width="2.000000" x="85.000000" y="120.000000" fill="rgb(0, 0, 0)" style="fill-opacity:1.00" />
<text x="107.000000" y="140">
1
</text>
<rect height="7.000000" width="2.000000" x="145.000000" y="120.000000" fill="rgb(0, 0, 0)" style="fill-opacity:1.00" />
<text x="167.000000" y="140">
2
</text>
<rect height="7.000000" width="2.000000" x="205.000000" y="120.000000" fill="rgb(0, 0, 0)" style="fill-opacity:1.00" />
<text x="227.000000" y="140">
3
</text>
<rect height="7.000000" width="2.000000" x="265.000000" y="120.000000" fill="rgb(0, 0, 0)" style="fill-opacity:1.00" />
<text x="287.000000" y="140">
4
</text>
<rect height="7.000000" width="2.000000" x="325.000000" y="120.000000" fill="rgb(0, 0, 0)" style="fill-opacity:1.00" />
<text x="347.000000" y="140">
5
</text>
<rect height="7.000000" width="2.000000" x="385.000000" y="120.000000" fill="rgb(0, 0, 0)" style="fill-opacity:1.00" />
<text x="407.000000" y="140">
6
</text>
<rect height="7.000000" width="2.000000" x="445.000000" y="120.000000" fill="rgb(0, 0, 0)" style="fill-opacity:1.00" />
<text x="467.000000" y="140">
7
</text>
<rect height="7.000000" width="2.000000" x="505.000000" y="120.000000" fill="rgb(0, 0, 0)" style="fill-opacity:1.00" />
<text x="527.000000" y="140">
8
</text>
<rect height="7.000000" width="2.000000" x="565.000000" y="120.000000" fill="rgb(0, 0, 0)" style="fill-opacity:1.00" />
<text x="587.000000" y="140">
9
</text>
<rect height="7.000000" width="2.000000" x="625.000000" y="120.000000" fill="rgb(0, 0, 0)" style="fill-opacity:1.00" />
<text x="647.000000" y="140">
10
</text>
<rect height="7.000000" width="2.000000" x="685.000000" y="120.000000" fill="rgb(0, 0, 0)" style="fill-opacity:1.00" />
<text x="707.000000" y="140">
11
</text>
<rect height="7.000000" width="2.000000" x="745.000000" y="120.000000" fill="rgb(0, 0, 0)" style="fill-opacity:1.00" />
<text x="767.000000" y="140">
12
</text>
<rect height="7.000000" width="2.000000" x="805.000000" y="120.000000" fill="rgb(0, 0, 0)" style="fill-opacity:1.00" />
<text x="827.000000" y="140">
13
</text>
<rect height="7.000000" width="2.000000" x="865.000000" y="120.000000" fill="rgb(0, 0, 0)" style="fill-opacity:1.00" />
<text x="887.000000" y="140">
14
</text>
<rect height="7.000000" width="2.000000" x="925.000000" y="120.000000" fill="rgb(0, 0, 0)" style="fill-opacity:1.00" />
<text x="947.000000" y="140">
15
</text>
<rect height="7.000000" width="2.000000" x="985.000000" y="120.000000" fill="rgb(0, 0, 0)" style="fill-opacity:1.00" />
<text x="1007.000000" y="140">
16
</text>
<rect height="7.000000" width="2.000000" x="1045.000000" y="120.000000" fill="rgb(0, 0, 0)" style="fill-opacity:1.00" />
<text x="1067.000000" y="140">
17
</text>
<rect height="7.000000" width="2.000000" x="1105.000000" y="120.000000" fill="rgb(0, 0, 0)" style="fill-opacity:1.00" />
<text x="1127.000000" y="140">
18
</text>
<rect height="7.000000" width="2.000000" x="1165.000000" y="120.000000" fill="rgb(0, 0, 0)" style="fill-opacity:1.00" />
<text x="1187.000000" y="140">
19
</text>
<rect height="7.000000" width="2.000000" x="1225.000000" y="120.000000" fill="rgb(0, 0, 0)" style="fill-opacity:1.00" />
<text x="1247.000000" y="140">
20
</text>
<rect height="7.000000" width="2.000000" x="1285.000000" y="120.000000" fill="rgb(0, 0, 0)" style="fill-opacity:1.00" />
<text x="1307.000000" y="140">
21
</text>
<rect height="7.000000" width="2.000000" x="1345.000000" y="120.000000" fill="rgb(0, 0, 0)" style="fill-opacity:1.00" />
<line x1="80" y1="112" x2="80" y2="10" style="stroke:rgb(99,99,99);stroke-width:2" />
<rect height="2.000000" width="7.000000" x="73.000000" y="110.000000" fill="rgb(0, 0, 0)" style="fill-opacity:1.00" />
<text x="63" y="115">
0
</text>
<rect height="2.000000" width="7.000000" x="73.000000" y="60.000000" fill="rgb(0, 0, 0)" style="fill-opacity:1.00" />
<text x="63" y="65">
1
</text>
<rect height="2.000000" width="7.000000" x="73.000000" y="10.000000" fill="rgb(0, 0, 0)" style="fill-opacity:1.00" />
<text x="63" y="15">
2
</text>
<text x="50" y="65"
transform="rotate(-90, 50, 70)">
bits
</text>
<!-- Begin 'T' -->
<rect height="0.164558" width="50.000000" x="90.000000" y="107.166528" fill="rgb(0, 100, 0)" style="fill-opacity:1.00" />
<rect height="1.028490" width="10.000000" x="110.000000" y="107.166528" fill="rgb(0, 100, 0)" style="fill-opacity:1.00" />
<!-- End 'T' -->
<!-- Begin 'A' -->
<polygon points=" 90.000000, 108.897959, 111.000000, 108.195018, 119.000000, 108.195018, 140.000000, 108.897959, 132.500000, 108.897959, 126.250000, 108.722224, 103.750000, 108.722224, 97.500000, 108.897959" fill="rgb(178, 34, 34)" style="fill-opacity:1.00" />
<!-- End 'A' -->
<!-- Begin 'C' -->
<ellipse cx="115.000000" cy="109.210570" rx="25.000000" ry="0.312611" fill="rgb(0, 0, 128)" style="fill-opacity:1.00" />
<ellipse cx="115.000000" cy="109.210570" rx="16.666667" ry="0.208407" fill="rgb(255, 255, 255)" style="fill-opacity:1.00" />
<rect height="0.312611" width="25.000000" x="115.000000" y="109.054265" fill="rgb(255, 255, 255)" style="fill-opacity:1.00" />
<!-- End 'C' -->
<!-- Begin 'G' -->
<ellipse cx="115.000000" cy="109.761591" rx="25.000000" ry="0.238409" fill="rgb(255, 165, 0)" style="fill-opacity:1.00" />
<ellipse cx="115.000000" cy="109.761591" rx="16.666667" ry="0.158940" fill="rgb(255, 255, 255)" style="fill-opacity:1.00" />
<rect height="0.238409" width="25.000000" x="115.000000" y="109.642386" fill="rgb(255, 255, 255)" style="fill-opacity:1.00" />
<rect height="0.059602" width="25.000000" x="115.000000" y="109.821193" fill="rgb(255, 165, 0)" style="fill-opacity:1.00" />
<rect height="0.178807" width="6.250000" x="133.750000" y="109.821193" fill="rgb(255, 165, 0)" style="fill-opacity:1.00" />
<!-- End 'G' -->
<!-- Begin 'T' -->
<rect height="0.380718" width="50.000000" x="150.000000" y="104.437860" fill="rgb(0, 100, 0)" style="fill-opacity:1.00" />
<rect height="2.379490" width="10.000000" x="170.000000" y="104.437860" fill="rgb(0, 100, 0)" style="fill-opacity:1.00" />
<!-- End 'T' -->
<!-- Begin 'C' -->
<ellipse cx="175.000000" cy="107.412986" rx="25.000000" ry="0.595636" fill="rgb(0, 0, 128)" style="fill-opacity:1.00" />
<ellipse cx="175.000000" cy="107.412986" rx="16.666667" ry="0.397091" fill="rgb(255, 255, 255)" style="fill-opacity:1.00" />
<rect height="0.595636" width="25.000000" x="175.000000" y="107.115168" fill="rgb(255, 255, 255)" style="fill-opacity:1.00" />
<!-- End 'C' -->
<!-- Begin 'A' -->
<polygon points=" 150.000000, 109.008218, 171.000000, 108.008622, 179.000000, 108.008622, 200.000000, 109.008218, 192.500000, 109.008218, 186.250000, 108.758319, 163.750000, 108.758319, 157.500000, 109.008218" fill="rgb(178, 34, 34)" style="fill-opacity:1.00" />
<!-- End 'A' -->
<!-- Begin 'G' -->
<ellipse cx="175.000000" cy="109.504109" rx="25.000000" ry="0.495891" fill="rgb(255, 165, 0)" style="fill-opacity:1.00" />
<ellipse cx="175.000000" cy="109.504109" rx="16.666667" ry="0.330594" fill="rgb(255, 255, 255)" style="fill-opacity:1.00" />
<rect height="0.495891" width="25.000000" x="175.000000" y="109.256163" fill="rgb(255, 255, 255)" style="fill-opacity:1.00" />
<rect height="0.123973" width="25.000000" x="175.000000" y="109.628082" fill="rgb(255, 165, 0)" style="fill-opacity:1.00" />
<rect height="0.371918" width="6.250000" x="193.750000" y="109.628082" fill="rgb(255, 165, 0)" style="fill-opacity:1.00" />
<!-- End 'G' -->
<!-- Begin 'T' -->
<rect height="0.774866" width="50.000000" x="210.000000" y="99.980665" fill="rgb(0, 100, 0)" style="fill-opacity:1.00" />
<rect height="4.842911" width="10.000000" x="230.000000" y="99.980665" fill="rgb(0, 100, 0)" style="fill-opacity:1.00" />
<!-- End 'T' -->
<!-- Begin 'C' -->
<ellipse cx="235.000000" cy="105.956370" rx="25.000000" ry="1.132795" fill="rgb(0, 0, 128)" style="fill-opacity:1.00" />
<ellipse cx="235.000000" cy="105.956370" rx="16.666667" ry="0.755196" fill="rgb(255, 255, 255)" style="fill-opacity:1.00" />
<rect height="1.132795" width="25.000000" x="235.000000" y="105.389973" fill="rgb(255, 255, 255)" style="fill-opacity:1.00" />
<!-- End 'C' -->
<!-- Begin 'G' -->
<ellipse cx="235.000000" cy="107.865768" rx="25.000000" ry="0.776603" fill="rgb(255, 165, 0)" style="fill-opacity:1.00" />
<ellipse cx="235.000000" cy="107.865768" rx="16.666667" ry="0.517735" fill="rgb(255, 255, 255)" style="fill-opacity:1.00" />
<rect height="0.776603" width="25.000000" x="235.000000" y="107.477467" fill="rgb(255, 255, 255)" style="fill-opacity:1.00" />
<rect height="0.194151" width="25.000000" x="235.000000" y="108.059919" fill="rgb(255, 165, 0)" style="fill-opacity:1.00" />
<rect height="0.582452" width="6.250000" x="253.750000" y="108.059919" fill="rgb(255, 165, 0)" style="fill-opacity:1.00" />
<!-- End 'G' -->
<!-- Begin 'A' -->
<polygon points=" 210.000000, 110.000000, 231.000000, 108.642371, 239.000000, 108.642371, 260.000000, 110.000000, 252.500000, 110.000000, 246.250000, 109.660593, 223.750000, 109.660593, 217.500000, 110.000000" fill="rgb(178, 34, 34)" style="fill-opacity:1.00" />
<!-- End 'A' -->
<!-- Begin 'T' -->
<rect height="0.993884" width="50.000000" x="270.000000" y="96.720989" fill="rgb(0, 100, 0)" style="fill-opacity:1.00" />
<rect height="6.211776" width="10.000000" x="290.000000" y="96.720989" fill="rgb(0, 100, 0)" style="fill-opacity:1.00" />
<!-- End 'T' -->
<!-- Begin 'C' -->
<ellipse cx="295.000000" cy="105.014416" rx="25.000000" ry="2.081651" fill="rgb(0, 0, 128)" style="fill-opacity:1.00" />
<ellipse cx="295.000000" cy="105.014416" rx="16.666667" ry="1.387767" fill="rgb(255, 255, 255)" style="fill-opacity:1.00" />
<rect height="2.081651" width="25.000000" x="295.000000" y="103.973590" fill="rgb(255, 255, 255)" style="fill-opacity:1.00" />
<!-- End 'C' -->
<!-- Begin 'A' -->
<polygon points=" 270.000000, 108.675907, 291.000000, 107.096067, 299.000000, 107.096067, 320.000000, 108.675907, 312.500000, 108.675907, 306.250000, 108.280947, 283.750000, 108.280947, 277.500000, 108.675907" fill="rgb(178, 34, 34)" style="fill-opacity:1.00" />
<!-- End 'A' -->
<!-- Begin 'G' -->
<ellipse cx="295.000000" cy="109.337954" rx="25.000000" ry="0.662046" fill="rgb(255, 165, 0)" style="fill-opacity:1.00" />
<ellipse cx="295.000000" cy="109.337954" rx="16.666667" ry="0.441364" fill="rgb(255, 255, 255)" style="fill-opacity:1.00" />
<rect height="0.662046" width="25.000000" x="295.000000" y="109.006931" fill="rgb(255, 255, 255)" style="fill-opacity:1.00" />
<rect height="0.165512" width="25.000000" x="295.000000" y="109.503465" fill="rgb(255, 165, 0)" style="fill-opacity:1.00" />
<rect height="0.496535" width="6.250000" x="313.750000" y="109.503465" fill="rgb(255, 165, 0)" style="fill-opacity:1.00" />
<!-- End 'G' -->
<!-- Begin 'A' -->
<polygon points=" 330.000000, 102.320516, 351.000000, 94.219896, 359.000000, 94.219896, 380.000000, 102.320516, 372.500000, 102.320516, 366.250000, 100.295361, 343.750000, 100.295361, 337.500000, 102.320516" fill="rgb(178, 34, 34)" style="fill-opacity:1.00" />
<polygon points=" 355.000000, 95.840020, 347.000000, 98.080268, 362.000000, 98.080268" fill="rgb(255, 255, 255)" style="fill-opacity:1.00" />
<!-- End 'A' -->
<!-- Begin 'G' -->
<ellipse cx="355.000000" cy="104.283050" rx="25.000000" ry="1.962534" fill="rgb(255, 165, 0)" style="fill-opacity:1.00" />
<ellipse cx="355.000000" cy="104.283050" rx="16.666667" ry="1.308356" fill="rgb(255, 255, 255)" style="fill-opacity:1.00" />
<rect height="1.962534" width="25.000000" x="355.000000" y="103.301783" fill="rgb(255, 255, 255)" style="fill-opacity:1.00" />
<rect height="0.490633" width="25.000000" x="355.000000" y="104.773683" fill="rgb(255, 165, 0)" style="fill-opacity:1.00" />
<rect height="1.471900" width="6.250000" x="373.750000" y="104.773683" fill="rgb(255, 165, 0)" style="fill-opacity:1.00" />
<!-- End 'G' -->
<!-- Begin 'T' -->
<rect height="0.441595" width="50.000000" x="330.000000" y="106.245584" fill="rgb(0, 100, 0)" style="fill-opacity:1.00" />
<rect height="2.759969" width="10.000000" x="350.000000" y="106.245584" fill="rgb(0, 100, 0)" style="fill-opacity:1.00" />
<!-- End 'T' -->
<!-- Begin 'C' -->
<ellipse cx="355.000000" cy="109.502776" rx="25.000000" ry="0.497224" fill="rgb(0, 0, 128)" style="fill-opacity:1.00" />
<ellipse cx="355.000000" cy="109.502776" rx="16.666667" ry="0.331482" fill="rgb(255, 255, 255)" style="fill-opacity:1.00" />
<rect height="0.497224" width="25.000000" x="355.000000" y="109.254165" fill="rgb(255, 255, 255)" style="fill-opacity:1.00" />
<!-- End 'C' -->
<!-- Begin 'C' -->
<ellipse cx="415.000000" cy="90.929285" rx="25.000000" ry="6.854745" fill="rgb(0, 0, 128)" style="fill-opacity:1.00" />
<ellipse cx="415.000000" cy="90.929285" rx="16.666667" ry="4.569830" fill="rgb(255, 255, 255)" style="fill-opacity:1.00" />
<rect height="6.854745" width="25.000000" x="415.000000" y="87.501913" fill="rgb(255, 255, 255)" style="fill-opacity:1.00" />
<!-- End 'C' -->
<!-- Begin 'G' -->
<ellipse cx="415.000000" cy="102.389595" rx="25.000000" ry="4.605565" fill="rgb(255, 165, 0)" style="fill-opacity:1.00" />
<ellipse cx="415.000000" cy="102.389595" rx="16.666667" ry="3.070377" fill="rgb(255, 255, 255)" style="fill-opacity:1.00" />
<rect height="4.605565" width="25.000000" x="415.000000" y="100.086813" fill="rgb(255, 255, 255)" style="fill-opacity:1.00" />
<rect height="1.151391" width="25.000000" x="415.000000" y="103.540987" fill="rgb(255, 165, 0)" style="fill-opacity:1.00" />
<rect height="3.454174" width="6.250000" x="433.750000" y="103.540987" fill="rgb(255, 165, 0)" style="fill-opacity:1.00" />
<!-- End 'G' -->
<!-- Begin 'T' -->
<rect height="0.327576" width="50.000000" x="390.000000" y="106.995161" fill="rgb(0, 100, 0)" style="fill-opacity:1.00" />
<rect height="2.047349" width="10.000000" x="410.000000" y="106.995161" fill="rgb(0, 100, 0)" style="fill-opacity:1.00" />
<!-- End 'T' -->
<!-- Begin 'A' -->
<polygon points=" 390.000000, 110.000000, 411.000000, 109.042510, 419.000000, 109.042510, 440.000000, 110.000000, 432.500000, 110.000000, 426.250000, 109.760627, 403.750000, 109.760627, 397.500000, 110.000000" fill="rgb(178, 34, 34)" style="fill-opacity:1.00" />
<!-- End 'A' -->
<!-- Begin 'T' -->
<rect height="13.720739" width="50.000000" x="450.000000" y="21.608775" fill="rgb(0, 100, 0)" style="fill-opacity:1.00" />
<rect height="85.754620" width="10.000000" x="470.000000" y="21.608775" fill="rgb(0, 100, 0)" style="fill-opacity:1.00" />
<!-- End 'T' -->
<!-- Begin 'A' -->
<polygon points=" 450.000000, 108.791422, 471.000000, 107.363394, 479.000000, 107.363394, 500.000000, 108.791422, 492.500000, 108.791422, 486.250000, 108.434415, 463.750000, 108.434415, 457.500000, 108.791422" fill="rgb(178, 34, 34)" style="fill-opacity:1.00" />
<!-- End 'A' -->
<!-- Begin 'C' -->
<ellipse cx="475.000000" cy="109.293552" rx="25.000000" ry="0.502131" fill="rgb(0, 0, 128)" style="fill-opacity:1.00" />
<ellipse cx="475.000000" cy="109.293552" rx="16.666667" ry="0.334754" fill="rgb(255, 255, 255)" style="fill-opacity:1.00" />
<rect height="0.502131" width="25.000000" x="475.000000" y="109.042487" fill="rgb(255, 255, 255)" style="fill-opacity:1.00" />
<!-- End 'C' -->
<!-- Begin 'G' -->
<ellipse cx="475.000000" cy="109.897842" rx="25.000000" ry="0.102158" fill="rgb(255, 165, 0)" style="fill-opacity:1.00" />
<ellipse cx="475.000000" cy="109.897842" rx="16.666667" ry="0.068106" fill="rgb(255, 255, 255)" style="fill-opacity:1.00" />
<rect height="0.102158" width="25.000000" x="475.000000" y="109.846762" fill="rgb(255, 255, 255)" style="fill-opacity:1.00" />
<rect height="0.025540" width="25.000000" x="475.000000" y="109.923381" fill="rgb(255, 165, 0)" style="fill-opacity:1.00" />
<rect height="0.076619" width="6.250000" x="493.750000" y="109.923381" fill="rgb(255, 165, 0)" style="fill-opacity:1.00" />
<!-- End 'G' -->
<!-- Begin 'T' -->
<rect height="12.583966" width="50.000000" x="510.000000" y="27.349435" fill="rgb(0, 100, 0)" style="fill-opacity:1.00" />
<rect height="78.649787" width="10.000000" x="530.000000" y="27.349435" fill="rgb(0, 100, 0)" style="fill-opacity:1.00" />
<!-- End 'T' -->
<!-- Begin 'C' -->
<ellipse cx="535.000000" cy="107.167671" rx="25.000000" ry="1.168449" fill="rgb(0, 0, 128)" style="fill-opacity:1.00" />
<ellipse cx="535.000000" cy="107.167671" rx="16.666667" ry="0.778966" fill="rgb(255, 255, 255)" style="fill-opacity:1.00" />
<rect height="1.168449" width="25.000000" x="535.000000" y="106.583447" fill="rgb(255, 255, 255)" style="fill-opacity:1.00" />
<!-- End 'C' -->
<!-- Begin 'A' -->
<polygon points=" 510.000000, 109.250370, 531.000000, 108.336121, 539.000000, 108.336121, 560.000000, 109.250370, 552.500000, 109.250370, 546.250000, 109.021808, 523.750000, 109.021808, 517.500000, 109.250370" fill="rgb(178, 34, 34)" style="fill-opacity:1.00" />
<!-- End 'A' -->
<!-- Begin 'G' -->
<ellipse cx="535.000000" cy="109.625185" rx="25.000000" ry="0.374815" fill="rgb(255, 165, 0)" style="fill-opacity:1.00" />
<ellipse cx="535.000000" cy="109.625185" rx="16.666667" ry="0.249877" fill="rgb(255, 255, 255)" style="fill-opacity:1.00" />
<rect height="0.374815" width="25.000000" x="535.000000" y="109.437778" fill="rgb(255, 255, 255)" style="fill-opacity:1.00" />
<rect height="0.093704" width="25.000000" x="535.000000" y="109.718889" fill="rgb(255, 165, 0)" style="fill-opacity:1.00" />
<rect height="0.281111" width="6.250000" x="553.750000" y="109.718889" fill="rgb(255, 165, 0)" style="fill-opacity:1.00" />
<!-- End 'G' -->
<!-- Begin 'T' -->
<rect height="11.008398" width="50.000000" x="570.000000" y="34.704500" fill="rgb(0, 100, 0)" style="fill-opacity:1.00" />
<rect height="68.802485" width="10.000000" x="590.000000" y="34.704500" fill="rgb(0, 100, 0)" style="fill-opacity:1.00" />
<!-- End 'T' -->
<!-- Begin 'C' -->
<ellipse cx="595.000000" cy="106.212685" rx="25.000000" ry="2.705700" fill="rgb(0, 0, 128)" style="fill-opacity:1.00" />
<ellipse cx="595.000000" cy="106.212685" rx="16.666667" ry="1.803800" fill="rgb(255, 255, 255)" style="fill-opacity:1.00" />
<rect height="2.705700" width="25.000000" x="595.000000" y="104.859835" fill="rgb(255, 255, 255)" style="fill-opacity:1.00" />
<!-- End 'C' -->
<!-- Begin 'G' -->
<ellipse cx="595.000000" cy="109.213090" rx="25.000000" ry="0.294705" fill="rgb(255, 165, 0)" style="fill-opacity:1.00" />
<ellipse cx="595.000000" cy="109.213090" rx="16.666667" ry="0.196470" fill="rgb(255, 255, 255)" style="fill-opacity:1.00" />
<rect height="0.294705" width="25.000000" x="595.000000" y="109.065738" fill="rgb(255, 255, 255)" style="fill-opacity:1.00" />
<rect height="0.073676" width="25.000000" x="595.000000" y="109.286767" fill="rgb(255, 165, 0)" style="fill-opacity:1.00" />
<rect height="0.221029" width="6.250000" x="613.750000" y="109.286767" fill="rgb(255, 165, 0)" style="fill-opacity:1.00" />
<!-- End 'G' -->
<!-- Begin 'A' -->
<polygon points=" 570.000000, 110.000000, 591.000000, 109.507796, 599.000000, 109.507796, 620.000000, 110.000000, 612.500000, 110.000000, 606.250000, 109.876949, 583.750000, 109.876949, 577.500000, 110.000000" fill="rgb(178, 34, 34)" style="fill-opacity:1.00" />
<!-- End 'A' -->
<!-- Begin 'C' -->
<ellipse cx="655.000000" cy="72.976502" rx="25.000000" ry="26.683222" fill="rgb(0, 0, 128)" style="fill-opacity:1.00" />
<ellipse cx="655.000000" cy="72.976502" rx="16.666667" ry="17.788814" fill="rgb(255, 255, 255)" style="fill-opacity:1.00" />
<rect height="26.683222" width="25.000000" x="655.000000" y="59.634891" fill="rgb(255, 255, 255)" style="fill-opacity:1.00" />
<!-- End 'C' -->
<!-- Begin 'T' -->
<rect height="1.500322" width="50.000000" x="630.000000" y="99.659724" fill="rgb(0, 100, 0)" style="fill-opacity:1.00" />
<rect height="9.377011" width="10.000000" x="650.000000" y="99.659724" fill="rgb(0, 100, 0)" style="fill-opacity:1.00" />
<!-- End 'T' -->
<!-- Begin 'A' -->
<polygon points=" 630.000000, 109.700717, 651.000000, 109.036735, 659.000000, 109.036735, 680.000000, 109.700717, 672.500000, 109.700717, 666.250000, 109.534722, 643.750000, 109.534722, 637.500000, 109.700717" fill="rgb(178, 34, 34)" style="fill-opacity:1.00" />
<!-- End 'A' -->
<!-- Begin 'G' -->
<ellipse cx="655.000000" cy="109.850359" rx="25.000000" ry="0.149641" fill="rgb(255, 165, 0)" style="fill-opacity:1.00" />
<ellipse cx="655.000000" cy="109.850359" rx="16.666667" ry="0.099761" fill="rgb(255, 255, 255)" style="fill-opacity:1.00" />
<rect height="0.149641" width="25.000000" x="655.000000" y="109.775538" fill="rgb(255, 255, 255)" style="fill-opacity:1.00" />
<rect height="0.037410" width="25.000000" x="655.000000" y="109.887769" fill="rgb(255, 165, 0)" style="fill-opacity:1.00" />
<rect height="0.112231" width="6.250000" x="673.750000" y="109.887769" fill="rgb(255, 165, 0)" style="fill-opacity:1.00" />
<!-- End 'G' -->
<!-- Begin 'A' -->
<polygon points=" 690.000000, 101.248427, 711.000000, 90.305762, 719.000000, 90.305762, 740.000000, 101.248427, 732.500000, 101.248427, 726.250000, 98.512761, 703.750000, 98.512761, 697.500000, 101.248427" fill="rgb(178, 34, 34)" style="fill-opacity:1.00" />
<polygon points=" 715.000000, 92.494295, 707.000000, 95.871361, 722.000000, 95.871361" fill="rgb(255, 255, 255)" style="fill-opacity:1.00" />
<!-- End 'A' -->
<!-- Begin 'T' -->
<rect height="0.670135" width="50.000000" x="690.000000" y="101.248427" fill="rgb(0, 100, 0)" style="fill-opacity:1.00" />
<rect height="4.188342" width="10.000000" x="710.000000" y="101.248427" fill="rgb(0, 100, 0)" style="fill-opacity:1.00" />
<!-- End 'T' -->
<!-- Begin 'G' -->
<ellipse cx="715.000000" cy="107.241947" rx="25.000000" ry="1.805178" fill="rgb(255, 165, 0)" style="fill-opacity:1.00" />
<ellipse cx="715.000000" cy="107.241947" rx="16.666667" ry="1.203452" fill="rgb(255, 255, 255)" style="fill-opacity:1.00" />
<rect height="1.805178" width="25.000000" x="715.000000" y="106.339358" fill="rgb(255, 255, 255)" style="fill-opacity:1.00" />
<rect height="0.451295" width="25.000000" x="715.000000" y="107.693241" fill="rgb(255, 165, 0)" style="fill-opacity:1.00" />
<rect height="1.353884" width="6.250000" x="733.750000" y="107.693241" fill="rgb(255, 165, 0)" style="fill-opacity:1.00" />
<!-- End 'G' -->
<!-- Begin 'C' -->
<ellipse cx="715.000000" cy="109.523563" rx="25.000000" ry="0.476437" fill="rgb(0, 0, 128)" style="fill-opacity:1.00" />
<ellipse cx="715.000000" cy="109.523563" rx="16.666667" ry="0.317625" fill="rgb(255, 255, 255)" style="fill-opacity:1.00" />
<rect height="0.476437" width="25.000000" x="715.000000" y="109.285344" fill="rgb(255, 255, 255)" style="fill-opacity:1.00" />
<!-- End 'C' -->
<!-- Begin 'C' -->
<ellipse cx="775.000000" cy="98.805942" rx="25.000000" ry="3.387993" fill="rgb(0, 0, 128)" style="fill-opacity:1.00" />
<ellipse cx="775.000000" cy="98.805942" rx="16.666667" ry="2.258662" fill="rgb(255, 255, 255)" style="fill-opacity:1.00" />
<rect height="3.387993" width="25.000000" x="775.000000" y="97.111946" fill="rgb(255, 255, 255)" style="fill-opacity:1.00" />
<!-- End 'C' -->
<!-- Begin 'T' -->
<rect height="0.593733" width="50.000000" x="750.000000" y="102.193935" fill="rgb(0, 100, 0)" style="fill-opacity:1.00" />
<rect height="3.710829" width="10.000000" x="770.000000" y="102.193935" fill="rgb(0, 100, 0)" style="fill-opacity:1.00" />
<!-- End 'T' -->
<!-- Begin 'G' -->
<ellipse cx="775.000000" cy="107.626472" rx="25.000000" ry="1.721708" fill="rgb(255, 165, 0)" style="fill-opacity:1.00" />
<ellipse cx="775.000000" cy="107.626472" rx="16.666667" ry="1.147805" fill="rgb(255, 255, 255)" style="fill-opacity:1.00" />
<rect height="1.721708" width="25.000000" x="775.000000" y="106.765618" fill="rgb(255, 255, 255)" style="fill-opacity:1.00" />
<rect height="0.430427" width="25.000000" x="775.000000" y="108.056899" fill="rgb(255, 165, 0)" style="fill-opacity:1.00" />
<rect height="1.291281" width="6.250000" x="793.750000" y="108.056899" fill="rgb(255, 165, 0)" style="fill-opacity:1.00" />
<!-- End 'G' -->
<!-- Begin 'A' -->
<polygon points=" 750.000000, 110.000000, 771.000000, 109.348180, 779.000000, 109.348180, 800.000000, 110.000000, 792.500000, 110.000000, 786.250000, 109.837045, 763.750000, 109.837045, 757.500000, 110.000000" fill="rgb(178, 34, 34)" style="fill-opacity:1.00" />
<!-- End 'A' -->
<!-- Begin 'T' -->
<rect height="12.790155" width="50.000000" x="810.000000" y="26.333475" fill="rgb(0, 100, 0)" style="fill-opacity:1.00" />
<rect height="79.938467" width="10.000000" x="830.000000" y="26.333475" fill="rgb(0, 100, 0)" style="fill-opacity:1.00" />
<!-- End 'T' -->
<!-- Begin 'A' -->
<polygon points=" 810.000000, 108.213344, 831.000000, 106.271942, 839.000000, 106.271942, 860.000000, 108.213344, 852.500000, 108.213344, 846.250000, 107.727993, 823.750000, 107.727993, 817.500000, 108.213344" fill="rgb(178, 34, 34)" style="fill-opacity:1.00" />
<!-- End 'A' -->
<!-- Begin 'C' -->
<ellipse cx="835.000000" cy="108.819348" rx="25.000000" ry="0.606004" fill="rgb(0, 0, 128)" style="fill-opacity:1.00" />
<ellipse cx="835.000000" cy="108.819348" rx="16.666667" ry="0.404003" fill="rgb(255, 255, 255)" style="fill-opacity:1.00" />
<rect height="0.606004" width="25.000000" x="835.000000" y="108.516346" fill="rgb(255, 255, 255)" style="fill-opacity:1.00" />
<!-- End 'C' -->
<!-- Begin 'G' -->
<ellipse cx="835.000000" cy="109.712676" rx="25.000000" ry="0.287324" fill="rgb(255, 165, 0)" style="fill-opacity:1.00" />
<ellipse cx="835.000000" cy="109.712676" rx="16.666667" ry="0.191550" fill="rgb(255, 255, 255)" style="fill-opacity:1.00" />
<rect height="0.287324" width="25.000000" x="835.000000" y="109.569013" fill="rgb(255, 255, 255)" style="fill-opacity:1.00" />
<rect height="0.071831" width="25.000000" x="835.000000" y="109.784507" fill="rgb(255, 165, 0)" style="fill-opacity:1.00" />
<rect height="0.215493" width="6.250000" x="853.750000" y="109.784507" fill="rgb(255, 165, 0)" style="fill-opacity:1.00" />
<!-- End 'G' -->
<!-- Begin 'T' -->
<rect height="11.045017" width="50.000000" x="870.000000" y="35.184983" fill="rgb(0, 100, 0)" style="fill-opacity:1.00" />
<rect height="69.031354" width="10.000000" x="890.000000" y="35.184983" fill="rgb(0, 100, 0)" style="fill-opacity:1.00" />
<!-- End 'T' -->
<!-- Begin 'C' -->
<ellipse cx="895.000000" cy="105.716342" rx="25.000000" ry="1.500005" fill="rgb(0, 0, 128)" style="fill-opacity:1.00" />
<ellipse cx="895.000000" cy="105.716342" rx="16.666667" ry="1.000003" fill="rgb(255, 255, 255)" style="fill-opacity:1.00" />
<rect height="1.500005" width="25.000000" x="895.000000" y="104.966339" fill="rgb(255, 255, 255)" style="fill-opacity:1.00" />
<!-- End 'C' -->
<!-- Begin 'A' -->
<polygon points=" 870.000000, 109.094791, 891.000000, 107.216346, 899.000000, 107.216346, 920.000000, 109.094791, 912.500000, 109.094791, 906.250000, 108.625180, 883.750000, 108.625180, 877.500000, 109.094791" fill="rgb(178, 34, 34)" style="fill-opacity:1.00" />
<!-- End 'A' -->
<!-- Begin 'G' -->
<ellipse cx="895.000000" cy="109.547396" rx="25.000000" ry="0.452604" fill="rgb(255, 165, 0)" style="fill-opacity:1.00" />
<ellipse cx="895.000000" cy="109.547396" rx="16.666667" ry="0.301736" fill="rgb(255, 255, 255)" style="fill-opacity:1.00" />
<rect height="0.452604" width="25.000000" x="895.000000" y="109.321093" fill="rgb(255, 255, 255)" style="fill-opacity:1.00" />
<rect height="0.113151" width="25.000000" x="895.000000" y="109.660547" fill="rgb(255, 165, 0)" style="fill-opacity:1.00" />
<rect height="0.339453" width="6.250000" x="913.750000" y="109.660547" fill="rgb(255, 165, 0)" style="fill-opacity:1.00" />
<!-- End 'G' -->
<!-- Begin 'T' -->
<rect height="8.835012" width="50.000000" x="930.000000" y="46.055088" fill="rgb(0, 100, 0)" style="fill-opacity:1.00" />
<rect height="55.218826" width="10.000000" x="950.000000" y="46.055088" fill="rgb(0, 100, 0)" style="fill-opacity:1.00" />
<!-- End 'T' -->
<!-- Begin 'C' -->
<ellipse cx="955.000000" cy="104.475994" rx="25.000000" ry="3.202080" fill="rgb(0, 0, 128)" style="fill-opacity:1.00" />
<ellipse cx="955.000000" cy="104.475994" rx="16.666667" ry="2.134720" fill="rgb(255, 255, 255)" style="fill-opacity:1.00" />
<rect height="3.202080" width="25.000000" x="955.000000" y="102.874954" fill="rgb(255, 255, 255)" style="fill-opacity:1.00" />
<!-- End 'C' -->
<!-- Begin 'A' -->
<polygon points=" 930.000000, 109.295677, 951.000000, 107.678073, 959.000000, 107.678073, 980.000000, 109.295677, 972.500000, 109.295677, 966.250000, 108.891276, 943.750000, 108.891276, 937.500000, 109.295677" fill="rgb(178, 34, 34)" style="fill-opacity:1.00" />
<!-- End 'A' -->
<!-- Begin 'G' -->
<ellipse cx="955.000000" cy="109.647838" rx="25.000000" ry="0.352162" fill="rgb(255, 165, 0)" style="fill-opacity:1.00" />
<ellipse cx="955.000000" cy="109.647838" rx="16.666667" ry="0.234774" fill="rgb(255, 255, 255)" style="fill-opacity:1.00" />
<rect height="0.352162" width="25.000000" x="955.000000" y="109.471758" fill="rgb(255, 255, 255)" style="fill-opacity:1.00" />
<rect height="0.088040" width="25.000000" x="955.000000" y="109.735879" fill="rgb(255, 165, 0)" style="fill-opacity:1.00" />
<rect height="0.264121" width="6.250000" x="973.750000" y="109.735879" fill="rgb(255, 165, 0)" style="fill-opacity:1.00" />
<!-- End 'G' -->
<!-- Begin 'C' -->
<ellipse cx="1015.000000" cy="89.640053" rx="25.000000" ry="8.849096" fill="rgb(0, 0, 128)" style="fill-opacity:1.00" />
<ellipse cx="1015.000000" cy="89.640053" rx="16.666667" ry="5.899398" fill="rgb(255, 255, 255)" style="fill-opacity:1.00" />
<rect height="8.849096" width="25.000000" x="1015.000000" y="85.215505" fill="rgb(255, 255, 255)" style="fill-opacity:1.00" />
<!-- End 'C' -->
<!-- Begin 'T' -->
<rect height="1.323353" width="50.000000" x="990.000000" y="98.489150" fill="rgb(0, 100, 0)" style="fill-opacity:1.00" />
<rect height="8.270956" width="10.000000" x="1010.000000" y="98.489150" fill="rgb(0, 100, 0)" style="fill-opacity:1.00" />
<!-- End 'T' -->
<!-- Begin 'A' -->
<polygon points=" 990.000000, 108.493229, 1011.000000, 106.760106, 1019.000000, 106.760106, 1040.000000, 108.493229, 1032.500000, 108.493229, 1026.250000, 108.059948, 1003.750000, 108.059948, 997.500000, 108.493229" fill="rgb(178, 34, 34)" style="fill-opacity:1.00" />
<!-- End 'A' -->
<!-- Begin 'G' -->
<ellipse cx="1015.000000" cy="109.246614" rx="25.000000" ry="0.753386" fill="rgb(255, 165, 0)" style="fill-opacity:1.00" />
<ellipse cx="1015.000000" cy="109.246614" rx="16.666667" ry="0.502257" fill="rgb(255, 255, 255)" style="fill-opacity:1.00" />
<rect height="0.753386" width="25.000000" x="1015.000000" y="108.869921" fill="rgb(255, 255, 255)" style="fill-opacity:1.00" />
<rect height="0.188346" width="25.000000" x="1015.000000" y="109.434961" fill="rgb(255, 165, 0)" style="fill-opacity:1.00" />
<rect height="0.565039" width="6.250000" x="1033.750000" y="109.434961" fill="rgb(255, 165, 0)" style="fill-opacity:1.00" />
<!-- End 'G' -->
<!-- Begin 'A' -->
<polygon points=" 1050.000000, 108.900288, 1071.000000, 108.413972, 1079.000000, 108.413972, 1100.000000, 108.900288, 1092.500000, 108.900288, 1086.250000, 108.778709, 1063.750000, 108.778709, 1057.500000, 108.900288" fill="rgb(178, 34, 34)" style="fill-opacity:1.00" />
<!-- End 'A' -->
<!-- Begin 'T' -->
<rect height="0.073746" width="50.000000" x="1050.000000" y="108.900288" fill="rgb(0, 100, 0)" style="fill-opacity:1.00" />
<rect height="0.460915" width="10.000000" x="1070.000000" y="108.900288" fill="rgb(0, 100, 0)" style="fill-opacity:1.00" />
<!-- End 'T' -->
<!-- Begin 'C' -->
<ellipse cx="1075.000000" cy="109.539516" rx="25.000000" ry="0.178313" fill="rgb(0, 0, 128)" style="fill-opacity:1.00" />
<ellipse cx="1075.000000" cy="109.539516" rx="16.666667" ry="0.118875" fill="rgb(255, 255, 255)" style="fill-opacity:1.00" />
<rect height="0.178313" width="25.000000" x="1075.000000" y="109.450360" fill="rgb(255, 255, 255)" style="fill-opacity:1.00" />
<!-- End 'C' -->
<!-- Begin 'G' -->
<ellipse cx="1075.000000" cy="109.858914" rx="25.000000" ry="0.141086" fill="rgb(255, 165, 0)" style="fill-opacity:1.00" />
<ellipse cx="1075.000000" cy="109.858914" rx="16.666667" ry="0.094057" fill="rgb(255, 255, 255)" style="fill-opacity:1.00" />
<rect height="0.141086" width="25.000000" x="1075.000000" y="109.788371" fill="rgb(255, 255, 255)" style="fill-opacity:1.00" />
<rect height="0.035271" width="25.000000" x="1075.000000" y="109.894186" fill="rgb(255, 165, 0)" style="fill-opacity:1.00" />
<rect height="0.105814" width="6.250000" x="1093.750000" y="109.894186" fill="rgb(255, 165, 0)" style="fill-opacity:1.00" />
<!-- End 'G' -->
<!-- Begin 'C' -->
<ellipse cx="1135.000000" cy="108.926943" rx="25.000000" ry="0.189821" fill="rgb(0, 0, 128)" style="fill-opacity:1.00" />
<ellipse cx="1135.000000" cy="108.926943" rx="16.666667" ry="0.126547" fill="rgb(255, 255, 255)" style="fill-opacity:1.00" />
<rect height="0.189821" width="25.000000" x="1135.000000" y="108.832032" fill="rgb(255, 255, 255)" style="fill-opacity:1.00" />
<!-- End 'C' -->
<!-- Begin 'T' -->
<rect height="0.059069" width="50.000000" x="1110.000000" y="109.116764" fill="rgb(0, 100, 0)" style="fill-opacity:1.00" />
<rect height="0.369184" width="10.000000" x="1130.000000" y="109.116764" fill="rgb(0, 100, 0)" style="fill-opacity:1.00" />
<!-- End 'T' -->
<!-- Begin 'A' -->
<polygon points=" 1110.000000, 109.747682, 1131.000000, 109.485948, 1139.000000, 109.485948, 1160.000000, 109.747682, 1152.500000, 109.747682, 1146.250000, 109.682248, 1123.750000, 109.682248, 1117.500000, 109.747682" fill="rgb(178, 34, 34)" style="fill-opacity:1.00" />
<!-- End 'A' -->
<!-- Begin 'G' -->
<ellipse cx="1135.000000" cy="109.873841" rx="25.000000" ry="0.126159" fill="rgb(255, 165, 0)" style="fill-opacity:1.00" />
<ellipse cx="1135.000000" cy="109.873841" rx="16.666667" ry="0.084106" fill="rgb(255, 255, 255)" style="fill-opacity:1.00" />
<rect height="0.126159" width="25.000000" x="1135.000000" y="109.810761" fill="rgb(255, 255, 255)" style="fill-opacity:1.00" />
<rect height="0.031540" width="25.000000" x="1135.000000" y="109.905381" fill="rgb(255, 165, 0)" style="fill-opacity:1.00" />
<rect height="0.094619" width="6.250000" x="1153.750000" y="109.905381" fill="rgb(255, 165, 0)" style="fill-opacity:1.00" />
<!-- End 'G' -->
<!-- Begin 'T' -->
<rect height="0.870063" width="50.000000" x="1170.000000" y="99.154983" fill="rgb(0, 100, 0)" style="fill-opacity:1.00" />
<rect height="5.437891" width="10.000000" x="1190.000000" y="99.154983" fill="rgb(0, 100, 0)" style="fill-opacity:1.00" />
<!-- End 'T' -->
<!-- Begin 'C' -->
<ellipse cx="1195.000000" cy="105.588477" rx="25.000000" ry="0.995603" fill="rgb(0, 0, 128)" style="fill-opacity:1.00" />
<ellipse cx="1195.000000" cy="105.588477" rx="16.666667" ry="0.663735" fill="rgb(255, 255, 255)" style="fill-opacity:1.00" />
<rect height="0.995603" width="25.000000" x="1195.000000" y="105.090676" fill="rgb(255, 255, 255)" style="fill-opacity:1.00" />
<!-- End 'C' -->
<!-- Begin 'A' -->
<polygon points=" 1170.000000, 108.549578, 1191.000000, 106.584080, 1199.000000, 106.584080, 1220.000000, 108.549578, 1212.500000, 108.549578, 1206.250000, 108.058203, 1183.750000, 108.058203, 1177.500000, 108.549578" fill="rgb(178, 34, 34)" style="fill-opacity:1.00" />
<!-- End 'A' -->
<!-- Begin 'G' -->
<ellipse cx="1195.000000" cy="109.274789" rx="25.000000" ry="0.725211" fill="rgb(255, 165, 0)" style="fill-opacity:1.00" />
<ellipse cx="1195.000000" cy="109.274789" rx="16.666667" ry="0.483474" fill="rgb(255, 255, 255)" style="fill-opacity:1.00" />
<rect height="0.725211" width="25.000000" x="1195.000000" y="108.912183" fill="rgb(255, 255, 255)" style="fill-opacity:1.00" />
<rect height="0.181303" width="25.000000" x="1195.000000" y="109.456092" fill="rgb(255, 165, 0)" style="fill-opacity:1.00" />
<rect height="0.543908" width="6.250000" x="1213.750000" y="109.456092" fill="rgb(255, 165, 0)" style="fill-opacity:1.00" />
<!-- End 'G' -->
<!-- Begin 'T' -->
<rect height="0.786096" width="50.000000" x="1230.000000" y="99.966399" fill="rgb(0, 100, 0)" style="fill-opacity:1.00" />
<rect height="4.913099" width="10.000000" x="1250.000000" y="99.966399" fill="rgb(0, 100, 0)" style="fill-opacity:1.00" />
<!-- End 'T' -->
<!-- Begin 'A' -->
<polygon points=" 1230.000000, 106.898036, 1251.000000, 104.879498, 1259.000000, 104.879498, 1280.000000, 106.898036, 1272.500000, 106.898036, 1266.250000, 106.393401, 1243.750000, 106.393401, 1237.500000, 106.898036" fill="rgb(178, 34, 34)" style="fill-opacity:1.00" />
<!-- End 'A' -->
<!-- Begin 'C' -->
<ellipse cx="1255.000000" cy="107.767044" rx="25.000000" ry="0.869008" fill="rgb(0, 0, 128)" style="fill-opacity:1.00" />
<ellipse cx="1255.000000" cy="107.767044" rx="16.666667" ry="0.579339" fill="rgb(255, 255, 255)" style="fill-opacity:1.00" />
<rect height="0.869008" width="25.000000" x="1255.000000" y="107.332540" fill="rgb(255, 255, 255)" style="fill-opacity:1.00" />
<!-- End 'C' -->
<!-- Begin 'G' -->
<ellipse cx="1255.000000" cy="109.318026" rx="25.000000" ry="0.681974" fill="rgb(255, 165, 0)" style="fill-opacity:1.00" />
<ellipse cx="1255.000000" cy="109.318026" rx="16.666667" ry="0.454649" fill="rgb(255, 255, 255)" style="fill-opacity:1.00" />
<rect height="0.681974" width="25.000000" x="1255.000000" y="108.977039" fill="rgb(255, 255, 255)" style="fill-opacity:1.00" />
<rect height="0.170493" width="25.000000" x="1255.000000" y="109.488520" fill="rgb(255, 165, 0)" style="fill-opacity:1.00" />
<rect height="0.511480" width="6.250000" x="1273.750000" y="109.488520" fill="rgb(255, 165, 0)" style="fill-opacity:1.00" />
<!-- End 'G' -->
<!-- Begin 'T' -->
<rect height="0.485372" width="50.000000" x="1290.000000" y="103.159127" fill="rgb(0, 100, 0)" style="fill-opacity:1.00" />
<rect height="3.033574" width="10.000000" x="1310.000000" y="103.159127" fill="rgb(0, 100, 0)" style="fill-opacity:1.00" />
<!-- End 'T' -->
<!-- Begin 'C' -->
<ellipse cx="1315.000000" cy="106.938098" rx="25.000000" ry="0.745397" fill="rgb(0, 0, 128)" style="fill-opacity:1.00" />
<ellipse cx="1315.000000" cy="106.938098" rx="16.666667" ry="0.496932" fill="rgb(255, 255, 255)" style="fill-opacity:1.00" />
<rect height="0.745397" width="25.000000" x="1315.000000" y="106.565399" fill="rgb(255, 255, 255)" style="fill-opacity:1.00" />
<!-- End 'C' -->
<!-- Begin 'A' -->
<polygon points=" 1290.000000, 108.984403, 1311.000000, 107.683495, 1319.000000, 107.683495, 1340.000000, 108.984403, 1332.500000, 108.984403, 1326.250000, 108.659176, 1303.750000, 108.659176, 1297.500000, 108.984403" fill="rgb(178, 34, 34)" style="fill-opacity:1.00" />
<!-- End 'A' -->
<!-- Begin 'G' -->
<ellipse cx="1315.000000" cy="109.492201" rx="25.000000" ry="0.507799" fill="rgb(255, 165, 0)" style="fill-opacity:1.00" />
<ellipse cx="1315.000000" cy="109.492201" rx="16.666667" ry="0.338532" fill="rgb(255, 255, 255)" style="fill-opacity:1.00" />
<rect height="0.507799" width="25.000000" x="1315.000000" y="109.238302" fill="rgb(255, 255, 255)" style="fill-opacity:1.00" />
<rect height="0.126950" width="25.000000" x="1315.000000" y="109.619151" fill="rgb(255, 165, 0)" style="fill-opacity:1.00" />
<rect height="0.380849" width="6.250000" x="1333.750000" y="109.619151" fill="rgb(255, 165, 0)" style="fill-opacity:1.00" />
<!-- End 'G' -->
<text x="700.000000" y="165">
IC = 14.00
</text>

</svg>
