<?xml version="1.0" encoding="UTF-8" standalone="yes"?>
                 <!DOCTYPE svg PUBLIC "-//W3C//DTD SVG 1.0//EN" "http://www.w3.org/TR/2001/REC-SVG-20010904/DTD/svg10.dtd">
                 <svg height="170" width="720" xmlns="http://www.w3.org/2000/svg" xmlns:xlink="http://www.w3.org/1999/xlink">
                 <line x1="85" y1="120" x2="687" y2="120" style="stroke:rgb(99,99,99);stroke-width:2" />
<rect height="7.000000" width="2.000000" x="85.000000" y="120.000000" fill="rgb(0, 0, 0)" style="fill-opacity:1.00" />
<text x="107.000000" y="140">
1
</text>
<rect height="7.000000" width="2.000000" x="145.000000" y="120.000000" fill="rgb(0, 0, 0)" style="fill-opacity:1.00" />
<text x="167.000000" y="140">
2
</text>
<rect height="7.000000" width="2.000000" x="205.000000" y="120.000000" fill="rgb(0, 0, 0)" style="fill-opacity:1.00" />
<text x="227.000000" y="140">
3
</text>
<rect height="7.000000" width="2.000000" x="265.000000" y="120.000000" fill="rgb(0, 0, 0)" style="fill-opacity:1.00" />
<text x="287.000000" y="140">
4
</text>
<rect height="7.000000" width="2.000000" x="325.000000" y="120.000000" fill="rgb(0, 0, 0)" style="fill-opacity:1.00" />
<text x="347.000000" y="140">
5
</text>
<rect height="7.000000" width="2.000000" x="385.000000" y="120.000000" fill="rgb(0, 0, 0)" style="fill-opacity:1.00" />
<text x="407.000000" y="140">
6
</text>
<rect height="7.000000" width="2.000000" x="445.000000" y="120.000000" fill="rgb(0, 0, 0)" style="fill-opacity:1.00" />
<text x="467.000000" y="140">
7
</text>
<rect height="7.000000" width="2.000000" x="505.000000" y="120.000000" fill="rgb(0, 0, 0)" style="fill-opacity:1.00" />
<text x="527.000000" y="140">
8
</text>
<rect height="7.000000" width="2.000000" x="565.000000" y="120.000000" fill="rgb(0, 0, 0)" style="fill-opacity:1.00" />
<text x="587.000000" y="140">
9
</text>
<rect height="7.000000" width="2.000000" x="625.000000" y="120.000000" fill="rgb(0, 0, 0)" style="fill-opacity:1.00" />
<text x="647.000000" y="140">
10
</text>
<rect height="7.000000" width="2.000000" x="685.000000" y="120.000000" fill="rgb(0, 0, 0)" style="fill-opacity:1.00" />
<line x1="80" y1="112" x2="80" y2="10" style="stroke:rgb(99,99,99);stroke-width:2" />
<rect height="2.000000" width="7.000000" x="73.000000" y="110.000000" fill="rgb(0, 0, 0)" style="fill-opacity:1.00" />
<text x="63" y="115">
0
</text>
<rect height="2.000000" width="7.000000" x="73.000000" y="60.000000" fill="rgb(0, 0, 0)" style="fill-opacity:1.00" />
<text x="63" y="65">
1
</text>
<rect height="2.000000" width="7.000000" x="73.000000" y="10.000000" fill="rgb(0, 0, 0)" style="fill-opacity:1.00" />
<text x="63" y="15">
2
</text>
<text x="50" y="65"
transform="rotate(-90, 50, 70)">
bits
</text>
<!-- Begin 'A' -->
<polygon points=" 90.000000, 96.254301, 111.000000, 78.170045, 119.000000, 78.170045, 140.000000, 96.254301, 132.500000, 96.254301, 126.250000, 91.733237, 103.750000, 91.733237, 97.500000, 96.254301" fill="rgb(178, 34, 34)" style="fill-opacity:1.00" />
<polygon points=" 115.000000, 81.786896, 107.000000, 88.020599, 122.000000, 88.020599" fill="rgb(255, 255, 255)" style="fill-opacity:1.00" />
<!-- End 'A' -->
<!-- Begin 'G' -->
<ellipse cx="115.000000" cy="101.510638" rx="25.000000" ry="5.256336" fill="rgb(255, 165, 0)" style="fill-opacity:1.00" />
<ellipse cx="115.000000" cy="101.510638" rx="16.666667" ry="3.504224" fill="rgb(255, 255, 255)" style="fill-opacity:1.00" />
<rect height="5.256336" width="25.000000" x="115.000000" y="98.882470" fill="rgb(255, 255, 255)" style="fill-opacity:1.00" />
<rect height="1.314084" width="25.000000" x="115.000000" y="102.824722" fill="rgb(255, 165, 0)" style="fill-opacity:1.00" />
<rect height="3.942252" width="6.250000" x="133.750000" y="102.824722" fill="rgb(255, 165, 0)" style="fill-opacity:1.00" />
<!-- End 'G' -->
<!-- Begin 'C' -->
<ellipse cx="115.000000" cy="108.271076" rx="25.000000" ry="1.504102" fill="rgb(0, 0, 128)" style="fill-opacity:1.00" />
<ellipse cx="115.000000" cy="108.271076" rx="16.666667" ry="1.002734" fill="rgb(255, 255, 255)" style="fill-opacity:1.00" />
<rect height="1.504102" width="25.000000" x="115.000000" y="107.519025" fill="rgb(255, 255, 255)" style="fill-opacity:1.00" />
<!-- End 'C' -->
<!-- Begin 'T' -->
<rect height="0.035972" width="50.000000" x="90.000000" y="109.775177" fill="rgb(0, 100, 0)" style="fill-opacity:1.00" />
<rect height="0.224823" width="10.000000" x="110.000000" y="109.775177" fill="rgb(0, 100, 0)" style="fill-opacity:1.00" />
<!-- End 'T' -->
<!-- Begin 'T' -->
<rect height="11.187824" width="50.000000" x="150.000000" y="34.477190" fill="rgb(0, 100, 0)" style="fill-opacity:1.00" />
<rect height="69.923901" width="10.000000" x="170.000000" y="34.477190" fill="rgb(0, 100, 0)" style="fill-opacity:1.00" />
<!-- End 'T' -->
<!-- Begin 'A' -->
<polygon points=" 150.000000, 106.930448, 171.000000, 104.401091, 179.000000, 104.401091, 200.000000, 106.930448, 192.500000, 106.930448, 186.250000, 106.298109, 163.750000, 106.298109, 157.500000, 106.930448" fill="rgb(178, 34, 34)" style="fill-opacity:1.00" />
<!-- End 'A' -->
<!-- Begin 'C' -->
<ellipse cx="175.000000" cy="108.036364" rx="25.000000" ry="1.105915" fill="rgb(0, 0, 128)" style="fill-opacity:1.00" />
<ellipse cx="175.000000" cy="108.036364" rx="16.666667" ry="0.737277" fill="rgb(255, 255, 255)" style="fill-opacity:1.00" />
<rect height="1.105915" width="25.000000" x="175.000000" y="107.483406" fill="rgb(255, 255, 255)" style="fill-opacity:1.00" />
<!-- End 'C' -->
<!-- Begin 'G' -->
<ellipse cx="175.000000" cy="109.571140" rx="25.000000" ry="0.428860" fill="rgb(255, 165, 0)" style="fill-opacity:1.00" />
<ellipse cx="175.000000" cy="109.571140" rx="16.666667" ry="0.285907" fill="rgb(255, 255, 255)" style="fill-opacity:1.00" />
<rect height="0.428860" width="25.000000" x="175.000000" y="109.356709" fill="rgb(255, 255, 255)" style="fill-opacity:1.00" />
<rect height="0.107215" width="25.000000" x="175.000000" y="109.678355" fill="rgb(255, 165, 0)" style="fill-opacity:1.00" />
<rect height="0.321645" width="6.250000" x="193.750000" y="109.678355" fill="rgb(255, 165, 0)" style="fill-opacity:1.00" />
<!-- End 'G' -->
<!-- Begin 'C' -->
<ellipse cx="235.000000" cy="68.314737" rx="25.000000" ry="35.253215" fill="rgb(0, 0, 128)" style="fill-opacity:1.00" />
<ellipse cx="235.000000" cy="68.314737" rx="16.666667" ry="23.502143" fill="rgb(255, 255, 255)" style="fill-opacity:1.00" />
<rect height="35.253215" width="25.000000" x="235.000000" y="50.688130" fill="rgb(255, 255, 255)" style="fill-opacity:1.00" />
<!-- End 'C' -->
<!-- Begin 'G' -->
<ellipse cx="235.000000" cy="106.472104" rx="25.000000" ry="2.904152" fill="rgb(255, 165, 0)" style="fill-opacity:1.00" />
<ellipse cx="235.000000" cy="106.472104" rx="16.666667" ry="1.936102" fill="rgb(255, 255, 255)" style="fill-opacity:1.00" />
<rect height="2.904152" width="25.000000" x="235.000000" y="105.020028" fill="rgb(255, 255, 255)" style="fill-opacity:1.00" />
<rect height="0.726038" width="25.000000" x="235.000000" y="107.198142" fill="rgb(255, 165, 0)" style="fill-opacity:1.00" />
<rect height="2.178114" width="6.250000" x="253.750000" y="107.198142" fill="rgb(255, 165, 0)" style="fill-opacity:1.00" />
<!-- End 'G' -->
<!-- Begin 'A' -->
<polygon points=" 210.000000, 109.703850, 231.000000, 109.376256, 239.000000, 109.376256, 260.000000, 109.703850, 252.500000, 109.703850, 246.250000, 109.621952, 223.750000, 109.621952, 217.500000, 109.703850" fill="rgb(178, 34, 34)" style="fill-opacity:1.00" />
<!-- End 'A' -->
<!-- Begin 'T' -->
<rect height="0.047384" width="50.000000" x="210.000000" y="109.703850" fill="rgb(0, 100, 0)" style="fill-opacity:1.00" />
<rect height="0.296150" width="10.000000" x="230.000000" y="109.703850" fill="rgb(0, 100, 0)" style="fill-opacity:1.00" />
<!-- End 'T' -->
<!-- Begin 'A' -->
<polygon points=" 270.000000, 103.042863, 291.000000, 38.341241, 299.000000, 38.341241, 320.000000, 103.042863, 312.500000, 103.042863, 306.250000, 86.867457, 283.750000, 86.867457, 277.500000, 103.042863" fill="rgb(178, 34, 34)" style="fill-opacity:1.00" />
<polygon points=" 295.000000, 51.281565, 287.000000, 76.162214, 302.000000, 76.162214" fill="rgb(255, 255, 255)" style="fill-opacity:1.00" />
<!-- End 'A' -->
<!-- Begin 'G' -->
<ellipse cx="295.000000" cy="105.498392" rx="25.000000" ry="2.455530" fill="rgb(255, 165, 0)" style="fill-opacity:1.00" />
<ellipse cx="295.000000" cy="105.498392" rx="16.666667" ry="1.637020" fill="rgb(255, 255, 255)" style="fill-opacity:1.00" />
<rect height="2.455530" width="25.000000" x="295.000000" y="104.270628" fill="rgb(255, 255, 255)" style="fill-opacity:1.00" />
<rect height="0.613882" width="25.000000" x="295.000000" y="106.112275" fill="rgb(255, 165, 0)" style="fill-opacity:1.00" />
<rect height="1.841647" width="6.250000" x="313.750000" y="106.112275" fill="rgb(255, 165, 0)" style="fill-opacity:1.00" />
<!-- End 'G' -->
<!-- Begin 'T' -->
<rect height="0.251633" width="50.000000" x="270.000000" y="107.953922" fill="rgb(0, 100, 0)" style="fill-opacity:1.00" />
<rect height="1.572706" width="10.000000" x="290.000000" y="107.953922" fill="rgb(0, 100, 0)" style="fill-opacity:1.00" />
<!-- End 'T' -->
<!-- Begin 'C' -->
<ellipse cx="295.000000" cy="109.763314" rx="25.000000" ry="0.236686" fill="rgb(0, 0, 128)" style="fill-opacity:1.00" />
<ellipse cx="295.000000" cy="109.763314" rx="16.666667" ry="0.157791" fill="rgb(255, 255, 255)" style="fill-opacity:1.00" />
<rect height="0.236686" width="25.000000" x="295.000000" y="109.644971" fill="rgb(255, 255, 255)" style="fill-opacity:1.00" />
<!-- End 'C' -->
<!-- Begin 'C' -->
<ellipse cx="355.000000" cy="81.357917" rx="25.000000" ry="11.895274" fill="rgb(0, 0, 128)" style="fill-opacity:1.00" />
<ellipse cx="355.000000" cy="81.357917" rx="16.666667" ry="7.930182" fill="rgb(255, 255, 255)" style="fill-opacity:1.00" />
<rect height="11.895274" width="25.000000" x="355.000000" y="75.410281" fill="rgb(255, 255, 255)" style="fill-opacity:1.00" />
<!-- End 'C' -->
<!-- Begin 'G' -->
<ellipse cx="355.000000" cy="100.786376" rx="25.000000" ry="7.533186" fill="rgb(255, 165, 0)" style="fill-opacity:1.00" />
<ellipse cx="355.000000" cy="100.786376" rx="16.666667" ry="5.022124" fill="rgb(255, 255, 255)" style="fill-opacity:1.00" />
<rect height="7.533186" width="25.000000" x="355.000000" y="97.019784" fill="rgb(255, 255, 255)" style="fill-opacity:1.00" />
<rect height="1.883296" width="25.000000" x="355.000000" y="102.669673" fill="rgb(255, 165, 0)" style="fill-opacity:1.00" />
<rect height="5.649889" width="6.250000" x="373.750000" y="102.669673" fill="rgb(255, 165, 0)" style="fill-opacity:1.00" />
<!-- End 'G' -->
<!-- Begin 'T' -->
<rect height="0.246862" width="50.000000" x="330.000000" y="108.319562" fill="rgb(0, 100, 0)" style="fill-opacity:1.00" />
<rect height="1.542887" width="10.000000" x="350.000000" y="108.319562" fill="rgb(0, 100, 0)" style="fill-opacity:1.00" />
<!-- End 'T' -->
<!-- Begin 'A' -->
<polygon points=" 330.000000, 110.000000, 351.000000, 109.862448, 359.000000, 109.862448, 380.000000, 110.000000, 372.500000, 110.000000, 366.250000, 109.965612, 343.750000, 109.965612, 337.500000, 110.000000" fill="rgb(178, 34, 34)" style="fill-opacity:1.00" />
<!-- End 'A' -->
<!-- Begin 'G' -->
<ellipse cx="415.000000" cy="83.373195" rx="25.000000" ry="10.525929" fill="rgb(255, 165, 0)" style="fill-opacity:1.00" />
<ellipse cx="415.000000" cy="83.373195" rx="16.666667" ry="7.017286" fill="rgb(255, 255, 255)" style="fill-opacity:1.00" />
<rect height="10.525929" width="25.000000" x="415.000000" y="78.110231" fill="rgb(255, 255, 255)" style="fill-opacity:1.00" />
<rect height="2.631482" width="25.000000" x="415.000000" y="86.004677" fill="rgb(255, 165, 0)" style="fill-opacity:1.00" />
<rect height="7.894447" width="6.250000" x="433.750000" y="86.004677" fill="rgb(255, 165, 0)" style="fill-opacity:1.00" />
<!-- End 'G' -->
<!-- Begin 'C' -->
<ellipse cx="415.000000" cy="100.927611" rx="25.000000" ry="7.028487" fill="rgb(0, 0, 128)" style="fill-opacity:1.00" />
<ellipse cx="415.000000" cy="100.927611" rx="16.666667" ry="4.685658" fill="rgb(255, 255, 255)" style="fill-opacity:1.00" />
<rect height="7.028487" width="25.000000" x="415.000000" y="97.413367" fill="rgb(255, 255, 255)" style="fill-opacity:1.00" />
<!-- End 'C' -->
<!-- Begin 'A' -->
<polygon points=" 390.000000, 109.717609, 411.000000, 107.956098, 419.000000, 107.956098, 440.000000, 109.717609, 432.500000, 109.717609, 426.250000, 109.277231, 403.750000, 109.277231, 397.500000, 109.717609" fill="rgb(178, 34, 34)" style="fill-opacity:1.00" />
<!-- End 'A' -->
<!-- Begin 'T' -->
<rect height="0.045183" width="50.000000" x="390.000000" y="109.717609" fill="rgb(0, 100, 0)" style="fill-opacity:1.00" />
<rect height="0.282391" width="10.000000" x="410.000000" y="109.717609" fill="rgb(0, 100, 0)" style="fill-opacity:1.00" />
<!-- End 'T' -->
<!-- Begin 'T' -->
<rect height="9.512629" width="50.000000" x="450.000000" y="42.420152" fill="rgb(0, 100, 0)" style="fill-opacity:1.00" />
<rect height="59.453932" width="10.000000" x="470.000000" y="42.420152" fill="rgb(0, 100, 0)" style="fill-opacity:1.00" />
<!-- End 'T' -->
<!-- Begin 'C' -->
<ellipse cx="475.000000" cy="105.007818" rx="25.000000" ry="3.133734" fill="rgb(0, 0, 128)" style="fill-opacity:1.00" />
<ellipse cx="475.000000" cy="105.007818" rx="16.666667" ry="2.089156" fill="rgb(255, 255, 255)" style="fill-opacity:1.00" />
<rect height="3.133734" width="25.000000" x="475.000000" y="103.440951" fill="rgb(255, 255, 255)" style="fill-opacity:1.00" />
<!-- End 'C' -->
<!-- Begin 'A' -->
<polygon points=" 450.000000, 109.392613, 471.000000, 108.141552, 479.000000, 108.141552, 500.000000, 109.392613, 492.500000, 109.392613, 486.250000, 109.079847, 463.750000, 109.079847, 457.500000, 109.392613" fill="rgb(178, 34, 34)" style="fill-opacity:1.00" />
<!-- End 'A' -->
<!-- Begin 'G' -->
<ellipse cx="475.000000" cy="109.696306" rx="25.000000" ry="0.303694" fill="rgb(255, 165, 0)" style="fill-opacity:1.00" />
<ellipse cx="475.000000" cy="109.696306" rx="16.666667" ry="0.202462" fill="rgb(255, 255, 255)" style="fill-opacity:1.00" />
<rect height="0.303694" width="25.000000" x="475.000000" y="109.544459" fill="rgb(255, 255, 255)" style="fill-opacity:1.00" />
<rect height="0.075923" width="25.000000" x="475.000000" y="109.772230" fill="rgb(255, 165, 0)" style="fill-opacity:1.00" />
<rect height="0.227770" width="6.250000" x="493.750000" y="109.772230" fill="rgb(255, 165, 0)" style="fill-opacity:1.00" />
<!-- End 'G' -->
<!-- Begin 'G' -->
<ellipse cx="535.000000" cy="71.960002" rx="25.000000" ry="29.600534" fill="rgb(255, 165, 0)" style="fill-opacity:1.00" />
<ellipse cx="535.000000" cy="71.960002" rx="16.666667" ry="19.733690" fill="rgb(255, 255, 255)" style="fill-opacity:1.00" />
<rect height="29.600534" width="25.000000" x="535.000000" y="57.159734" fill="rgb(255, 255, 255)" style="fill-opacity:1.00" />
<rect height="7.400134" width="25.000000" x="535.000000" y="79.360135" fill="rgb(255, 165, 0)" style="fill-opacity:1.00" />
<rect height="22.200401" width="6.250000" x="553.750000" y="79.360135" fill="rgb(255, 165, 0)" style="fill-opacity:1.00" />
<!-- End 'G' -->
<!-- Begin 'C' -->
<ellipse cx="535.000000" cy="105.049730" rx="25.000000" ry="3.489194" fill="rgb(0, 0, 128)" style="fill-opacity:1.00" />
<ellipse cx="535.000000" cy="105.049730" rx="16.666667" ry="2.326129" fill="rgb(255, 255, 255)" style="fill-opacity:1.00" />
<rect height="3.489194" width="25.000000" x="535.000000" y="103.305133" fill="rgb(255, 255, 255)" style="fill-opacity:1.00" />
<!-- End 'C' -->
<!-- Begin 'A' -->
<polygon points=" 510.000000, 109.366324, 531.000000, 108.538923, 539.000000, 108.538923, 560.000000, 109.366324, 552.500000, 109.366324, 546.250000, 109.159474, 523.750000, 109.159474, 517.500000, 109.366324" fill="rgb(178, 34, 34)" style="fill-opacity:1.00" />
<!-- End 'A' -->
<!-- Begin 'T' -->
<rect height="0.101388" width="50.000000" x="510.000000" y="109.366324" fill="rgb(0, 100, 0)" style="fill-opacity:1.00" />
<rect height="0.633676" width="10.000000" x="530.000000" y="109.366324" fill="rgb(0, 100, 0)" style="fill-opacity:1.00" />
<!-- End 'T' -->
<!-- Begin 'A' -->
<polygon points=" 570.000000, 104.646551, 591.000000, 33.218214, 599.000000, 33.218214, 620.000000, 104.646551, 612.500000, 104.646551, 606.250000, 86.789467, 583.750000, 86.789467, 577.500000, 104.646551" fill="rgb(178, 34, 34)" style="fill-opacity:1.00" />
<polygon points=" 595.000000, 47.503881, 587.000000, 75.075216, 602.000000, 75.075216" fill="rgb(255, 255, 255)" style="fill-opacity:1.00" />
<!-- End 'A' -->
<!-- Begin 'T' -->
<rect height="0.407173" width="50.000000" x="570.000000" y="104.646551" fill="rgb(0, 100, 0)" style="fill-opacity:1.00" />
<rect height="2.544834" width="10.000000" x="590.000000" y="104.646551" fill="rgb(0, 100, 0)" style="fill-opacity:1.00" />
<!-- End 'T' -->
<!-- Begin 'G' -->
<ellipse cx="595.000000" cy="108.239757" rx="25.000000" ry="1.048373" fill="rgb(255, 165, 0)" style="fill-opacity:1.00" />
<ellipse cx="595.000000" cy="108.239757" rx="16.666667" ry="0.698915" fill="rgb(255, 255, 255)" style="fill-opacity:1.00" />
<rect height="1.048373" width="25.000000" x="595.000000" y="107.715571" fill="rgb(255, 255, 255)" style="fill-opacity:1.00" />
<rect height="0.262093" width="25.000000" x="595.000000" y="108.501850" fill="rgb(255, 165, 0)" style="fill-opacity:1.00" />
<rect height="0.786280" width="6.250000" x="613.750000" y="108.501850" fill="rgb(255, 165, 0)" style="fill-opacity:1.00" />
<!-- End 'G' -->
<!-- Begin 'C' -->
<ellipse cx="595.000000" cy="109.644065" rx="25.000000" ry="0.355935" fill="rgb(0, 0, 128)" style="fill-opacity:1.00" />
<ellipse cx="595.000000" cy="109.644065" rx="16.666667" ry="0.237290" fill="rgb(255, 255, 255)" style="fill-opacity:1.00" />
<rect height="0.355935" width="25.000000" x="595.000000" y="109.466097" fill="rgb(255, 255, 255)" style="fill-opacity:1.00" />
<!-- End 'C' -->
<!-- Begin 'T' -->
<rect height="3.297843" width="50.000000" x="630.000000" y="75.466575" fill="rgb(0, 100, 0)" style="fill-opacity:1.00" />
<rect height="20.611522" width="10.000000" x="650.000000" y="75.466575" fill="rgb(0, 100, 0)" style="fill-opacity:1.00" />
<!-- End 'T' -->
<!-- Begin 'C' -->
<ellipse cx="655.000000" cy="101.493702" rx="25.000000" ry="5.415606" fill="rgb(0, 0, 128)" style="fill-opacity:1.00" />
<ellipse cx="655.000000" cy="101.493702" rx="16.666667" ry="3.610404" fill="rgb(255, 255, 255)" style="fill-opacity:1.00" />
<rect height="5.415606" width="25.000000" x="655.000000" y="98.785900" fill="rgb(255, 255, 255)" style="fill-opacity:1.00" />
<!-- End 'C' -->
<!-- Begin 'G' -->
<ellipse cx="655.000000" cy="108.364773" rx="25.000000" ry="1.455465" fill="rgb(255, 165, 0)" style="fill-opacity:1.00" />
<ellipse cx="655.000000" cy="108.364773" rx="16.666667" ry="0.970310" fill="rgb(255, 255, 255)" style="fill-opacity:1.00" />
<rect height="1.455465" width="25.000000" x="655.000000" y="107.637041" fill="rgb(255, 255, 255)" style="fill-opacity:1.00" />
<rect height="0.363866" width="25.000000" x="655.000000" y="108.728640" fill="rgb(255, 165, 0)" style="fill-opacity:1.00" />
<rect height="1.091599" width="6.250000" x="673.750000" y="108.728640" fill="rgb(255, 165, 0)" style="fill-opacity:1.00" />
<!-- End 'G' -->
<!-- Begin 'A' -->
<polygon points=" 630.000000, 110.000000, 651.000000, 109.820239, 659.000000, 109.820239, 680.000000, 110.000000, 672.500000, 110.000000, 666.250000, 109.955060, 643.750000, 109.955060, 637.500000, 110.000000" fill="rgb(178, 34, 34)" style="fill-opacity:1.00" />
<!-- End 'A' -->
<text x="370.000000" y="165">
IC = 11.60
</text>

</svg>
