<?xml version="1.0" encoding="UTF-8" standalone="yes"?>
                 <!DOCTYPE svg PUBLIC "-//W3C//DTD SVG 1.0//EN" "http://www.w3.org/TR/2001/REC-SVG-20010904/DTD/svg10.dtd">
                 <svg height="170" width="960" xmlns="http://www.w3.org/2000/svg" xmlns:xlink="http://www.w3.org/1999/xlink">
                 <line x1="85" y1="120" x2="927" y2="120" style="stroke:rgb(99,99,99);stroke-width:2" />
<rect height="7.000000" width="2.000000" x="85.000000" y="120.000000" fill="rgb(0, 0, 0)" style="fill-opacity:1.00" />
<text x="107.000000" y="140">
1
</text>
<rect height="7.000000" width="2.000000" x="145.000000" y="120.000000" fill="rgb(0, 0, 0)" style="fill-opacity:1.00" />
<text x="167.000000" y="140">
2
</text>
<rect height="7.000000" width="2.000000" x="205.000000" y="120.000000" fill="rgb(0, 0, 0)" style="fill-opacity:1.00" />
<text x="227.000000" y="140">
3
</text>
<rect height="7.000000" width="2.000000" x="265.000000" y="120.000000" fill="rgb(0, 0, 0)" style="fill-opacity:1.00" />
<text x="287.000000" y="140">
4
</text>
<rect height="7.000000" width="2.000000" x="325.000000" y="120.000000" fill="rgb(0, 0, 0)" style="fill-opacity:1.00" />
<text x="347.000000" y="140">
5
</text>
<rect height="7.000000" width="2.000000" x="385.000000" y="120.000000" fill="rgb(0, 0, 0)" style="fill-opacity:1.00" />
<text x="407.000000" y="140">
6
</text>
<rect height="7.000000" width="2.000000" x="445.000000" y="120.000000" fill="rgb(0, 0, 0)" style="fill-opacity:1.00" />
<text x="467.000000" y="140">
7
</text>
<rect height="7.000000" width="2.000000" x="505.000000" y="120.000000" fill="rgb(0, 0, 0)" style="fill-opacity:1.00" />
<text x="527.000000" y="140">
8
</text>
<rect height="7.000000" width="2.000000" x="565.000000" y="120.000000" fill="rgb(0, 0, 0)" style="fill-opacity:1.00" />
<text x="587.000000" y="140">
9
</text>
<rect height="7.000000" width="2.000000" x="625.000000" y="120.000000" fill="rgb(0, 0, 0)" style="fill-opacity:1.00" />
<text x="647.000000" y="140">
10
</text>
<rect height="7.000000" width="2.000000" x="685.000000" y="120.000000" fill="rgb(0, 0, 0)" style="fill-opacity:1.00" />
<text x="707.000000" y="140">
11
</text>
<rect height="7.000000" width="2.000000" x="745.000000" y="120.000000" fill="rgb(0, 0, 0)" style="fill-opacity:1.00" />
<text x="767.000000" y="140">
12
</text>
<rect height="7.000000" width="2.000000" x="805.000000" y="120.000000" fill="rgb(0, 0, 0)" style="fill-opacity:1.00" />
<text x="827.000000" y="140">
13
</text>
<rect height="7.000000" width="2.000000" x="865.000000" y="120.000000" fill="rgb(0, 0, 0)" style="fill-opacity:1.00" />
<text x="887.000000" y="140">
14
</text>
<rect height="7.000000" width="2.000000" x="925.000000" y="120.000000" fill="rgb(0, 0, 0)" style="fill-opacity:1.00" />
<line x1="80" y1="112" x2="80" y2="10" style="stroke:rgb(99,99,99);stroke-width:2" />
<rect height="2.000000" width="7.000000" x="73.000000" y="110.000000" fill="rgb(0, 0, 0)" style="fill-opacity:1.00" />
<text x="63" y="115">
0
</text>
<rect height="2.000000" width="7.000000" x="73.000000" y="60.000000" fill="rgb(0, 0, 0)" style="fill-opacity:1.00" />
<text x="63" y="65">
1
</text>
<rect height="2.000000" width="7.000000" x="73.000000" y="10.000000" fill="rgb(0, 0, 0)" style="fill-opacity:1.00" />
<text x="63" y="15">
2
</text>
<text x="50" y="65"
transform="rotate(-90, 50, 70)">
bits
</text>
<!-- Begin 'A' -->
<polygon points=" 90.000000, 106.108789, 111.000000, 103.937786, 119.000000, 103.937786, 140.000000, 106.108789, 132.500000, 106.108789, 126.250000, 105.566038, 103.750000, 105.566038, 97.500000, 106.108789" fill="rgb(178, 34, 34)" style="fill-opacity:1.00" />
<!-- End 'A' -->
<!-- Begin 'T' -->
<rect height="0.329882" width="50.000000" x="90.000000" y="106.108789" fill="rgb(0, 100, 0)" style="fill-opacity:1.00" />
<rect height="2.061761" width="10.000000" x="110.000000" y="106.108789" fill="rgb(0, 100, 0)" style="fill-opacity:1.00" />
<!-- End 'T' -->
<!-- Begin 'G' -->
<ellipse cx="115.000000" cy="108.692559" rx="25.000000" ry="0.522009" fill="rgb(255, 165, 0)" style="fill-opacity:1.00" />
<ellipse cx="115.000000" cy="108.692559" rx="16.666667" ry="0.348006" fill="rgb(255, 255, 255)" style="fill-opacity:1.00" />
<rect height="0.522009" width="25.000000" x="115.000000" y="108.431554" fill="rgb(255, 255, 255)" style="fill-opacity:1.00" />
<rect height="0.130502" width="25.000000" x="115.000000" y="108.823061" fill="rgb(255, 165, 0)" style="fill-opacity:1.00" />
<rect height="0.391506" width="6.250000" x="133.750000" y="108.823061" fill="rgb(255, 165, 0)" style="fill-opacity:1.00" />
<!-- End 'G' -->
<!-- Begin 'C' -->
<ellipse cx="115.000000" cy="109.607284" rx="25.000000" ry="0.392716" fill="rgb(0, 0, 128)" style="fill-opacity:1.00" />
<ellipse cx="115.000000" cy="109.607284" rx="16.666667" ry="0.261811" fill="rgb(255, 255, 255)" style="fill-opacity:1.00" />
<rect height="0.392716" width="25.000000" x="115.000000" y="109.410925" fill="rgb(255, 255, 255)" style="fill-opacity:1.00" />
<!-- End 'C' -->
<!-- Begin 'G' -->
<ellipse cx="175.000000" cy="106.654034" rx="25.000000" ry="0.810655" fill="rgb(255, 165, 0)" style="fill-opacity:1.00" />
<ellipse cx="175.000000" cy="106.654034" rx="16.666667" ry="0.540437" fill="rgb(255, 255, 255)" style="fill-opacity:1.00" />
<rect height="0.810655" width="25.000000" x="175.000000" y="106.248706" fill="rgb(255, 255, 255)" style="fill-opacity:1.00" />
<rect height="0.202664" width="25.000000" x="175.000000" y="106.856698" fill="rgb(255, 165, 0)" style="fill-opacity:1.00" />
<rect height="0.607991" width="6.250000" x="193.750000" y="106.856698" fill="rgb(255, 165, 0)" style="fill-opacity:1.00" />
<!-- End 'G' -->
<!-- Begin 'A' -->
<polygon points=" 150.000000, 108.532288, 171.000000, 107.464689, 179.000000, 107.464689, 200.000000, 108.532288, 192.500000, 108.532288, 186.250000, 108.265388, 163.750000, 108.265388, 157.500000, 108.532288" fill="rgb(178, 34, 34)" style="fill-opacity:1.00" />
<!-- End 'A' -->
<!-- Begin 'T' -->
<rect height="0.118175" width="50.000000" x="150.000000" y="108.532288" fill="rgb(0, 100, 0)" style="fill-opacity:1.00" />
<rect height="0.738597" width="10.000000" x="170.000000" y="108.532288" fill="rgb(0, 100, 0)" style="fill-opacity:1.00" />
<!-- End 'T' -->
<!-- Begin 'C' -->
<ellipse cx="175.000000" cy="109.635442" rx="25.000000" ry="0.364558" fill="rgb(0, 0, 128)" style="fill-opacity:1.00" />
<ellipse cx="175.000000" cy="109.635442" rx="16.666667" ry="0.243038" fill="rgb(255, 255, 255)" style="fill-opacity:1.00" />
<rect height="0.364558" width="25.000000" x="175.000000" y="109.453164" fill="rgb(255, 255, 255)" style="fill-opacity:1.00" />
<!-- End 'C' -->
<!-- Begin 'A' -->
<polygon points=" 210.000000, 108.036170, 231.000000, 106.955646, 239.000000, 106.955646, 260.000000, 108.036170, 252.500000, 108.036170, 246.250000, 107.766039, 223.750000, 107.766039, 217.500000, 108.036170" fill="rgb(178, 34, 34)" style="fill-opacity:1.00" />
<!-- End 'A' -->
<!-- Begin 'G' -->
<ellipse cx="235.000000" cy="108.460115" rx="25.000000" ry="0.423946" fill="rgb(255, 165, 0)" style="fill-opacity:1.00" />
<ellipse cx="235.000000" cy="108.460115" rx="16.666667" ry="0.282630" fill="rgb(255, 255, 255)" style="fill-opacity:1.00" />
<rect height="0.423946" width="25.000000" x="235.000000" y="108.248143" fill="rgb(255, 255, 255)" style="fill-opacity:1.00" />
<rect height="0.105986" width="25.000000" x="235.000000" y="108.566102" fill="rgb(255, 165, 0)" style="fill-opacity:1.00" />
<rect height="0.317959" width="6.250000" x="253.750000" y="108.566102" fill="rgb(255, 165, 0)" style="fill-opacity:1.00" />
<!-- End 'G' -->
<!-- Begin 'T' -->
<rect height="0.097442" width="50.000000" x="210.000000" y="108.884061" fill="rgb(0, 100, 0)" style="fill-opacity:1.00" />
<rect height="0.609010" width="10.000000" x="230.000000" y="108.884061" fill="rgb(0, 100, 0)" style="fill-opacity:1.00" />
<!-- End 'T' -->
<!-- Begin 'C' -->
<ellipse cx="235.000000" cy="109.746535" rx="25.000000" ry="0.253465" fill="rgb(0, 0, 128)" style="fill-opacity:1.00" />
<ellipse cx="235.000000" cy="109.746535" rx="16.666667" ry="0.168976" fill="rgb(255, 255, 255)" style="fill-opacity:1.00" />
<rect height="0.253465" width="25.000000" x="235.000000" y="109.619803" fill="rgb(255, 255, 255)" style="fill-opacity:1.00" />
<!-- End 'C' -->
<!-- Begin 'T' -->
<rect height="1.442704" width="50.000000" x="270.000000" y="93.376747" fill="rgb(0, 100, 0)" style="fill-opacity:1.00" />
<rect height="9.016902" width="10.000000" x="290.000000" y="93.376747" fill="rgb(0, 100, 0)" style="fill-opacity:1.00" />
<!-- End 'T' -->
<!-- Begin 'A' -->
<polygon points=" 270.000000, 106.382622, 291.000000, 102.393648, 299.000000, 102.393648, 320.000000, 106.382622, 312.500000, 106.382622, 306.250000, 105.385379, 283.750000, 105.385379, 277.500000, 106.382622" fill="rgb(178, 34, 34)" style="fill-opacity:1.00" />
<!-- End 'A' -->
<!-- Begin 'C' -->
<ellipse cx="295.000000" cy="107.379866" rx="25.000000" ry="0.997244" fill="rgb(0, 0, 128)" style="fill-opacity:1.00" />
<ellipse cx="295.000000" cy="107.379866" rx="16.666667" ry="0.664829" fill="rgb(255, 255, 255)" style="fill-opacity:1.00" />
<rect height="0.997244" width="25.000000" x="295.000000" y="106.881244" fill="rgb(255, 255, 255)" style="fill-opacity:1.00" />
<!-- End 'C' -->
<!-- Begin 'G' -->
<ellipse cx="295.000000" cy="109.188555" rx="25.000000" ry="0.811445" fill="rgb(255, 165, 0)" style="fill-opacity:1.00" />
<ellipse cx="295.000000" cy="109.188555" rx="16.666667" ry="0.540964" fill="rgb(255, 255, 255)" style="fill-opacity:1.00" />
<rect height="0.811445" width="25.000000" x="295.000000" y="108.782832" fill="rgb(255, 255, 255)" style="fill-opacity:1.00" />
<rect height="0.202861" width="25.000000" x="295.000000" y="109.391416" fill="rgb(255, 165, 0)" style="fill-opacity:1.00" />
<rect height="0.608584" width="6.250000" x="313.750000" y="109.391416" fill="rgb(255, 165, 0)" style="fill-opacity:1.00" />
<!-- End 'G' -->
<!-- Begin 'T' -->
<rect height="2.554904" width="50.000000" x="330.000000" y="82.297438" fill="rgb(0, 100, 0)" style="fill-opacity:1.00" />
<rect height="15.968151" width="10.000000" x="350.000000" y="82.297438" fill="rgb(0, 100, 0)" style="fill-opacity:1.00" />
<!-- End 'T' -->
<!-- Begin 'C' -->
<ellipse cx="355.000000" cy="101.608348" rx="25.000000" ry="3.342759" fill="rgb(0, 0, 128)" style="fill-opacity:1.00" />
<ellipse cx="355.000000" cy="101.608348" rx="16.666667" ry="2.228506" fill="rgb(255, 255, 255)" style="fill-opacity:1.00" />
<rect height="3.342759" width="25.000000" x="355.000000" y="99.936969" fill="rgb(255, 255, 255)" style="fill-opacity:1.00" />
<!-- End 'C' -->
<!-- Begin 'G' -->
<ellipse cx="355.000000" cy="107.371290" rx="25.000000" ry="2.420183" fill="rgb(255, 165, 0)" style="fill-opacity:1.00" />
<ellipse cx="355.000000" cy="107.371290" rx="16.666667" ry="1.613455" fill="rgb(255, 255, 255)" style="fill-opacity:1.00" />
<rect height="2.420183" width="25.000000" x="355.000000" y="106.161198" fill="rgb(255, 255, 255)" style="fill-opacity:1.00" />
<rect height="0.605046" width="25.000000" x="355.000000" y="107.976335" fill="rgb(255, 165, 0)" style="fill-opacity:1.00" />
<rect height="1.815137" width="6.250000" x="373.750000" y="107.976335" fill="rgb(255, 165, 0)" style="fill-opacity:1.00" />
<!-- End 'G' -->
<!-- Begin 'A' -->
<polygon points=" 330.000000, 110.000000, 351.000000, 109.791473, 359.000000, 109.791473, 380.000000, 110.000000, 372.500000, 110.000000, 366.250000, 109.947868, 343.750000, 109.947868, 337.500000, 110.000000" fill="rgb(178, 34, 34)" style="fill-opacity:1.00" />
<!-- End 'A' -->
<!-- Begin 'C' -->
<ellipse cx="415.000000" cy="83.666660" rx="25.000000" ry="13.807607" fill="rgb(0, 0, 128)" style="fill-opacity:1.00" />
<ellipse cx="415.000000" cy="83.666660" rx="16.666667" ry="9.205071" fill="rgb(255, 255, 255)" style="fill-opacity:1.00" />
<rect height="13.807607" width="25.000000" x="415.000000" y="76.762857" fill="rgb(255, 255, 255)" style="fill-opacity:1.00" />
<!-- End 'C' -->
<!-- Begin 'G' -->
<ellipse cx="415.000000" cy="101.663245" rx="25.000000" ry="4.188979" fill="rgb(255, 165, 0)" style="fill-opacity:1.00" />
<ellipse cx="415.000000" cy="101.663245" rx="16.666667" ry="2.792653" fill="rgb(255, 255, 255)" style="fill-opacity:1.00" />
<rect height="4.188979" width="25.000000" x="415.000000" y="99.568756" fill="rgb(255, 255, 255)" style="fill-opacity:1.00" />
<rect height="1.047245" width="25.000000" x="415.000000" y="102.710490" fill="rgb(255, 165, 0)" style="fill-opacity:1.00" />
<rect height="3.141734" width="6.250000" x="433.750000" y="102.710490" fill="rgb(255, 165, 0)" style="fill-opacity:1.00" />
<!-- End 'G' -->
<!-- Begin 'T' -->
<rect height="0.648994" width="50.000000" x="390.000000" y="105.852224" fill="rgb(0, 100, 0)" style="fill-opacity:1.00" />
<rect height="4.056213" width="10.000000" x="410.000000" y="105.852224" fill="rgb(0, 100, 0)" style="fill-opacity:1.00" />
<!-- End 'T' -->
<!-- Begin 'A' -->
<polygon points=" 390.000000, 110.000000, 411.000000, 109.908438, 419.000000, 109.908438, 440.000000, 110.000000, 432.500000, 110.000000, 426.250000, 109.977109, 403.750000, 109.977109, 397.500000, 110.000000" fill="rgb(178, 34, 34)" style="fill-opacity:1.00" />
<!-- End 'A' -->
<!-- Begin 'T' -->
<rect height="13.250437" width="50.000000" x="450.000000" y="23.329676" fill="rgb(0, 100, 0)" style="fill-opacity:1.00" />
<rect height="82.815234" width="10.000000" x="470.000000" y="23.329676" fill="rgb(0, 100, 0)" style="fill-opacity:1.00" />
<!-- End 'T' -->
<!-- Begin 'C' -->
<ellipse cx="475.000000" cy="108.052685" rx="25.000000" ry="1.907775" fill="rgb(0, 0, 128)" style="fill-opacity:1.00" />
<ellipse cx="475.000000" cy="108.052685" rx="16.666667" ry="1.271850" fill="rgb(255, 255, 255)" style="fill-opacity:1.00" />
<rect height="1.907775" width="25.000000" x="475.000000" y="107.098798" fill="rgb(255, 255, 255)" style="fill-opacity:1.00" />
<!-- End 'C' -->
<!-- Begin 'G' -->
<ellipse cx="475.000000" cy="109.970345" rx="25.000000" ry="0.009885" fill="rgb(255, 165, 0)" style="fill-opacity:1.00" />
<ellipse cx="475.000000" cy="109.970345" rx="16.666667" ry="0.006590" fill="rgb(255, 255, 255)" style="fill-opacity:1.00" />
<rect height="0.009885" width="25.000000" x="475.000000" y="109.965403" fill="rgb(255, 255, 255)" style="fill-opacity:1.00" />
<rect height="0.002471" width="25.000000" x="475.000000" y="109.972817" fill="rgb(255, 165, 0)" style="fill-opacity:1.00" />
<rect height="0.007414" width="6.250000" x="493.750000" y="109.972817" fill="rgb(255, 165, 0)" style="fill-opacity:1.00" />
<!-- End 'G' -->
<!-- Begin 'A' -->
<polygon points=" 450.000000, 110.000000, 471.000000, 109.980230, 479.000000, 109.980230, 500.000000, 110.000000, 492.500000, 110.000000, 486.250000, 109.995058, 463.750000, 109.995058, 457.500000, 110.000000" fill="rgb(178, 34, 34)" style="fill-opacity:1.00" />
<!-- End 'A' -->
<!-- Begin 'T' -->
<rect height="15.020173" width="50.000000" x="510.000000" y="14.953178" fill="rgb(0, 100, 0)" style="fill-opacity:1.00" />
<rect height="93.876081" width="10.000000" x="530.000000" y="14.953178" fill="rgb(0, 100, 0)" style="fill-opacity:1.00" />
<!-- End 'T' -->
<!-- Begin 'A' -->
<polygon points=" 510.000000, 109.956639, 531.000000, 108.829259, 539.000000, 108.829259, 560.000000, 109.956639, 552.500000, 109.956639, 546.250000, 109.674794, 523.750000, 109.674794, 517.500000, 109.956639" fill="rgb(178, 34, 34)" style="fill-opacity:1.00" />
<!-- End 'A' -->
<!-- Begin 'G' -->
<ellipse cx="535.000000" cy="109.967479" rx="25.000000" ry="0.010840" fill="rgb(255, 165, 0)" style="fill-opacity:1.00" />
<ellipse cx="535.000000" cy="109.967479" rx="16.666667" ry="0.007227" fill="rgb(255, 255, 255)" style="fill-opacity:1.00" />
<rect height="0.010840" width="25.000000" x="535.000000" y="109.962059" fill="rgb(255, 255, 255)" style="fill-opacity:1.00" />
<rect height="0.002710" width="25.000000" x="535.000000" y="109.970189" fill="rgb(255, 165, 0)" style="fill-opacity:1.00" />
<rect height="0.008130" width="6.250000" x="553.750000" y="109.970189" fill="rgb(255, 165, 0)" style="fill-opacity:1.00" />
<!-- End 'G' -->
<!-- Begin 'C' -->
<ellipse cx="535.000000" cy="109.989160" rx="25.000000" ry="0.010840" fill="rgb(0, 0, 128)" style="fill-opacity:1.00" />
<ellipse cx="535.000000" cy="109.989160" rx="16.666667" ry="0.007227" fill="rgb(255, 255, 255)" style="fill-opacity:1.00" />
<rect height="0.010840" width="25.000000" x="535.000000" y="109.983740" fill="rgb(255, 255, 255)" style="fill-opacity:1.00" />
<!-- End 'C' -->
<!-- Begin 'A' -->
<polygon points=" 570.000000, 109.931886, 591.000000, 10.463284, 599.000000, 10.463284, 620.000000, 109.931886, 612.500000, 109.931886, 606.250000, 85.064736, 583.750000, 85.064736, 577.500000, 109.931886" fill="rgb(178, 34, 34)" style="fill-opacity:1.00" />
<polygon points=" 595.000000, 30.357004, 587.000000, 69.144445, 602.000000, 69.144445" fill="rgb(255, 255, 255)" style="fill-opacity:1.00" />
<!-- End 'A' -->
<!-- Begin 'T' -->
<rect height="0.003633" width="50.000000" x="570.000000" y="109.931886" fill="rgb(0, 100, 0)" style="fill-opacity:1.00" />
<rect height="0.022705" width="10.000000" x="590.000000" y="109.931886" fill="rgb(0, 100, 0)" style="fill-opacity:1.00" />
<!-- End 'T' -->
<!-- Begin 'G' -->
<ellipse cx="595.000000" cy="109.965943" rx="25.000000" ry="0.011352" fill="rgb(255, 165, 0)" style="fill-opacity:1.00" />
<ellipse cx="595.000000" cy="109.965943" rx="16.666667" ry="0.007568" fill="rgb(255, 255, 255)" style="fill-opacity:1.00" />
<rect height="0.011352" width="25.000000" x="595.000000" y="109.960267" fill="rgb(255, 255, 255)" style="fill-opacity:1.00" />
<rect height="0.002838" width="25.000000" x="595.000000" y="109.968781" fill="rgb(255, 165, 0)" style="fill-opacity:1.00" />
<rect height="0.008514" width="6.250000" x="613.750000" y="109.968781" fill="rgb(255, 165, 0)" style="fill-opacity:1.00" />
<!-- End 'G' -->
<!-- Begin 'C' -->
<ellipse cx="595.000000" cy="109.988648" rx="25.000000" ry="0.011352" fill="rgb(0, 0, 128)" style="fill-opacity:1.00" />
<ellipse cx="595.000000" cy="109.988648" rx="16.666667" ry="0.007568" fill="rgb(255, 255, 255)" style="fill-opacity:1.00" />
<rect height="0.011352" width="25.000000" x="595.000000" y="109.982972" fill="rgb(255, 255, 255)" style="fill-opacity:1.00" />
<!-- End 'C' -->
<!-- Begin 'T' -->
<rect height="15.914976" width="50.000000" x="630.000000" y="10.463284" fill="rgb(0, 100, 0)" style="fill-opacity:1.00" />
<rect height="99.468603" width="10.000000" x="650.000000" y="10.463284" fill="rgb(0, 100, 0)" style="fill-opacity:1.00" />
<!-- End 'T' -->
<!-- Begin 'G' -->
<ellipse cx="655.000000" cy="109.943239" rx="25.000000" ry="0.011352" fill="rgb(255, 165, 0)" style="fill-opacity:1.00" />
<ellipse cx="655.000000" cy="109.943239" rx="16.666667" ry="0.007568" fill="rgb(255, 255, 255)" style="fill-opacity:1.00" />
<rect height="0.011352" width="25.000000" x="655.000000" y="109.937563" fill="rgb(255, 255, 255)" style="fill-opacity:1.00" />
<rect height="0.002838" width="25.000000" x="655.000000" y="109.946077" fill="rgb(255, 165, 0)" style="fill-opacity:1.00" />
<rect height="0.008514" width="6.250000" x="673.750000" y="109.946077" fill="rgb(255, 165, 0)" style="fill-opacity:1.00" />
<!-- End 'G' -->
<!-- Begin 'C' -->
<ellipse cx="655.000000" cy="109.965943" rx="25.000000" ry="0.011352" fill="rgb(0, 0, 128)" style="fill-opacity:1.00" />
<ellipse cx="655.000000" cy="109.965943" rx="16.666667" ry="0.007568" fill="rgb(255, 255, 255)" style="fill-opacity:1.00" />
<rect height="0.011352" width="25.000000" x="655.000000" y="109.960267" fill="rgb(255, 255, 255)" style="fill-opacity:1.00" />
<!-- End 'C' -->
<!-- Begin 'A' -->
<polygon points=" 630.000000, 110.000000, 651.000000, 109.977295, 659.000000, 109.977295, 680.000000, 110.000000, 672.500000, 110.000000, 666.250000, 109.994324, 643.750000, 109.994324, 637.500000, 110.000000" fill="rgb(178, 34, 34)" style="fill-opacity:1.00" />
<!-- End 'A' -->
<!-- Begin 'C' -->
<ellipse cx="715.000000" cy="60.197585" rx="25.000000" ry="49.734301" fill="rgb(0, 0, 128)" style="fill-opacity:1.00" />
<ellipse cx="715.000000" cy="60.197585" rx="16.666667" ry="33.156201" fill="rgb(255, 255, 255)" style="fill-opacity:1.00" />
<rect height="49.734301" width="25.000000" x="715.000000" y="35.330434" fill="rgb(255, 255, 255)" style="fill-opacity:1.00" />
<!-- End 'C' -->
<!-- Begin 'T' -->
<rect height="0.003633" width="50.000000" x="690.000000" y="109.931886" fill="rgb(0, 100, 0)" style="fill-opacity:1.00" />
<rect height="0.022705" width="10.000000" x="710.000000" y="109.931886" fill="rgb(0, 100, 0)" style="fill-opacity:1.00" />
<!-- End 'T' -->
<!-- Begin 'G' -->
<ellipse cx="715.000000" cy="109.965943" rx="25.000000" ry="0.011352" fill="rgb(255, 165, 0)" style="fill-opacity:1.00" />
<ellipse cx="715.000000" cy="109.965943" rx="16.666667" ry="0.007568" fill="rgb(255, 255, 255)" style="fill-opacity:1.00" />
<rect height="0.011352" width="25.000000" x="715.000000" y="109.960267" fill="rgb(255, 255, 255)" style="fill-opacity:1.00" />
<rect height="0.002838" width="25.000000" x="715.000000" y="109.968781" fill="rgb(255, 165, 0)" style="fill-opacity:1.00" />
<rect height="0.008514" width="6.250000" x="733.750000" y="109.968781" fill="rgb(255, 165, 0)" style="fill-opacity:1.00" />
<!-- End 'G' -->
<!-- Begin 'A' -->
<polygon points=" 690.000000, 110.000000, 711.000000, 109.977295, 719.000000, 109.977295, 740.000000, 110.000000, 732.500000, 110.000000, 726.250000, 109.994324, 703.750000, 109.994324, 697.500000, 110.000000" fill="rgb(178, 34, 34)" style="fill-opacity:1.00" />
<!-- End 'A' -->
<!-- Begin 'T' -->
<rect height="6.559993" width="50.000000" x="750.000000" y="53.046960" fill="rgb(0, 100, 0)" style="fill-opacity:1.00" />
<rect height="40.999953" width="10.000000" x="770.000000" y="53.046960" fill="rgb(0, 100, 0)" style="fill-opacity:1.00" />
<!-- End 'T' -->
<!-- Begin 'A' -->
<polygon points=" 750.000000, 109.974018, 771.000000, 94.046913, 779.000000, 94.046913, 800.000000, 109.974018, 792.500000, 109.974018, 786.250000, 105.992242, 763.750000, 105.992242, 757.500000, 109.974018" fill="rgb(178, 34, 34)" style="fill-opacity:1.00" />
<polygon points=" 775.000000, 97.232334, 767.000000, 102.603176, 782.000000, 102.603176" fill="rgb(255, 255, 255)" style="fill-opacity:1.00" />
<!-- End 'A' -->
<!-- Begin 'G' -->
<ellipse cx="775.000000" cy="109.980513" rx="25.000000" ry="0.006496" fill="rgb(255, 165, 0)" style="fill-opacity:1.00" />
<ellipse cx="775.000000" cy="109.980513" rx="16.666667" ry="0.004330" fill="rgb(255, 255, 255)" style="fill-opacity:1.00" />
<rect height="0.006496" width="25.000000" x="775.000000" y="109.977266" fill="rgb(255, 255, 255)" style="fill-opacity:1.00" />
<rect height="0.001624" width="25.000000" x="775.000000" y="109.982137" fill="rgb(255, 165, 0)" style="fill-opacity:1.00" />
<rect height="0.004872" width="6.250000" x="793.750000" y="109.982137" fill="rgb(255, 165, 0)" style="fill-opacity:1.00" />
<!-- End 'G' -->
<!-- Begin 'C' -->
<ellipse cx="775.000000" cy="109.993504" rx="25.000000" ry="0.006496" fill="rgb(0, 0, 128)" style="fill-opacity:1.00" />
<ellipse cx="775.000000" cy="109.993504" rx="16.666667" ry="0.004330" fill="rgb(255, 255, 255)" style="fill-opacity:1.00" />
<rect height="0.006496" width="25.000000" x="775.000000" y="109.990257" fill="rgb(255, 255, 255)" style="fill-opacity:1.00" />
<!-- End 'C' -->
<!-- Begin 'G' -->
<ellipse cx="835.000000" cy="92.550580" rx="25.000000" ry="5.050068" fill="rgb(255, 165, 0)" style="fill-opacity:1.00" />
<ellipse cx="835.000000" cy="92.550580" rx="16.666667" ry="3.366712" fill="rgb(255, 255, 255)" style="fill-opacity:1.00" />
<rect height="5.050068" width="25.000000" x="835.000000" y="90.025546" fill="rgb(255, 255, 255)" style="fill-opacity:1.00" />
<rect height="1.262517" width="25.000000" x="835.000000" y="93.813096" fill="rgb(255, 165, 0)" style="fill-opacity:1.00" />
<rect height="3.787551" width="6.250000" x="853.750000" y="93.813096" fill="rgb(255, 165, 0)" style="fill-opacity:1.00" />
<!-- End 'G' -->
<!-- Begin 'C' -->
<ellipse cx="835.000000" cy="102.132364" rx="25.000000" ry="4.531717" fill="rgb(0, 0, 128)" style="fill-opacity:1.00" />
<ellipse cx="835.000000" cy="102.132364" rx="16.666667" ry="3.021145" fill="rgb(255, 255, 255)" style="fill-opacity:1.00" />
<rect height="4.531717" width="25.000000" x="835.000000" y="99.866506" fill="rgb(255, 255, 255)" style="fill-opacity:1.00" />
<!-- End 'C' -->
<!-- Begin 'T' -->
<rect height="0.447526" width="50.000000" x="810.000000" y="106.664081" fill="rgb(0, 100, 0)" style="fill-opacity:1.00" />
<rect height="2.797039" width="10.000000" x="830.000000" y="106.664081" fill="rgb(0, 100, 0)" style="fill-opacity:1.00" />
<!-- End 'T' -->
<!-- Begin 'A' -->
<polygon points=" 810.000000, 110.000000, 831.000000, 109.461121, 839.000000, 109.461121, 860.000000, 110.000000, 852.500000, 110.000000, 846.250000, 109.865280, 823.750000, 109.865280, 817.500000, 110.000000" fill="rgb(178, 34, 34)" style="fill-opacity:1.00" />
<!-- End 'A' -->
<!-- Begin 'T' -->
<rect height="0.699665" width="50.000000" x="870.000000" y="98.828193" fill="rgb(0, 100, 0)" style="fill-opacity:1.00" />
<rect height="4.372906" width="10.000000" x="890.000000" y="98.828193" fill="rgb(0, 100, 0)" style="fill-opacity:1.00" />
<!-- End 'T' -->
<!-- Begin 'A' -->
<polygon points=" 870.000000, 106.404329, 891.000000, 103.201099, 899.000000, 103.201099, 920.000000, 106.404329, 912.500000, 106.404329, 906.250000, 105.603522, 883.750000, 105.603522, 877.500000, 106.404329" fill="rgb(178, 34, 34)" style="fill-opacity:1.00" />
<!-- End 'A' -->
<!-- Begin 'C' -->
<ellipse cx="895.000000" cy="107.915479" rx="25.000000" ry="1.511150" fill="rgb(0, 0, 128)" style="fill-opacity:1.00" />
<ellipse cx="895.000000" cy="107.915479" rx="16.666667" ry="1.007433" fill="rgb(255, 255, 255)" style="fill-opacity:1.00" />
<rect height="1.511150" width="25.000000" x="895.000000" y="107.159904" fill="rgb(255, 255, 255)" style="fill-opacity:1.00" />
<!-- End 'C' -->
<!-- Begin 'G' -->
<ellipse cx="895.000000" cy="109.713315" rx="25.000000" ry="0.286685" fill="rgb(255, 165, 0)" style="fill-opacity:1.00" />
<ellipse cx="895.000000" cy="109.713315" rx="16.666667" ry="0.191124" fill="rgb(255, 255, 255)" style="fill-opacity:1.00" />
<rect height="0.286685" width="25.000000" x="895.000000" y="109.569972" fill="rgb(255, 255, 255)" style="fill-opacity:1.00" />
<rect height="0.071671" width="25.000000" x="895.000000" y="109.784986" fill="rgb(255, 165, 0)" style="fill-opacity:1.00" />
<rect height="0.215014" width="6.250000" x="913.750000" y="109.784986" fill="rgb(255, 165, 0)" style="fill-opacity:1.00" />
<!-- End 'G' -->
<text x="490.000000" y="165">
IC = 13.37
</text>

</svg>
