<?xml version="1.0" encoding="UTF-8" standalone="yes"?>
                 <!DOCTYPE svg PUBLIC "-//W3C//DTD SVG 1.0//EN" "http://www.w3.org/TR/2001/REC-SVG-20010904/DTD/svg10.dtd">
                 <svg height="170" width="960" xmlns="http://www.w3.org/2000/svg" xmlns:xlink="http://www.w3.org/1999/xlink">
                 <line x1="85" y1="120" x2="927" y2="120" style="stroke:rgb(99,99,99);stroke-width:2" />
<rect height="7.000000" width="2.000000" x="85.000000" y="120.000000" fill="rgb(0, 0, 0)" style="fill-opacity:1.00" />
<text x="107.000000" y="140">
1
</text>
<rect height="7.000000" width="2.000000" x="145.000000" y="120.000000" fill="rgb(0, 0, 0)" style="fill-opacity:1.00" />
<text x="167.000000" y="140">
2
</text>
<rect height="7.000000" width="2.000000" x="205.000000" y="120.000000" fill="rgb(0, 0, 0)" style="fill-opacity:1.00" />
<text x="227.000000" y="140">
3
</text>
<rect height="7.000000" width="2.000000" x="265.000000" y="120.000000" fill="rgb(0, 0, 0)" style="fill-opacity:1.00" />
<text x="287.000000" y="140">
4
</text>
<rect height="7.000000" width="2.000000" x="325.000000" y="120.000000" fill="rgb(0, 0, 0)" style="fill-opacity:1.00" />
<text x="347.000000" y="140">
5
</text>
<rect height="7.000000" width="2.000000" x="385.000000" y="120.000000" fill="rgb(0, 0, 0)" style="fill-opacity:1.00" />
<text x="407.000000" y="140">
6
</text>
<rect height="7.000000" width="2.000000" x="445.000000" y="120.000000" fill="rgb(0, 0, 0)" style="fill-opacity:1.00" />
<text x="467.000000" y="140">
7
</text>
<rect height="7.000000" width="2.000000" x="505.000000" y="120.000000" fill="rgb(0, 0, 0)" style="fill-opacity:1.00" />
<text x="527.000000" y="140">
8
</text>
<rect height="7.000000" width="2.000000" x="565.000000" y="120.000000" fill="rgb(0, 0, 0)" style="fill-opacity:1.00" />
<text x="587.000000" y="140">
9
</text>
<rect height="7.000000" width="2.000000" x="625.000000" y="120.000000" fill="rgb(0, 0, 0)" style="fill-opacity:1.00" />
<text x="647.000000" y="140">
10
</text>
<rect height="7.000000" width="2.000000" x="685.000000" y="120.000000" fill="rgb(0, 0, 0)" style="fill-opacity:1.00" />
<text x="707.000000" y="140">
11
</text>
<rect height="7.000000" width="2.000000" x="745.000000" y="120.000000" fill="rgb(0, 0, 0)" style="fill-opacity:1.00" />
<text x="767.000000" y="140">
12
</text>
<rect height="7.000000" width="2.000000" x="805.000000" y="120.000000" fill="rgb(0, 0, 0)" style="fill-opacity:1.00" />
<text x="827.000000" y="140">
13
</text>
<rect height="7.000000" width="2.000000" x="865.000000" y="120.000000" fill="rgb(0, 0, 0)" style="fill-opacity:1.00" />
<text x="887.000000" y="140">
14
</text>
<rect height="7.000000" width="2.000000" x="925.000000" y="120.000000" fill="rgb(0, 0, 0)" style="fill-opacity:1.00" />
<line x1="80" y1="112" x2="80" y2="10" style="stroke:rgb(99,99,99);stroke-width:2" />
<rect height="2.000000" width="7.000000" x="73.000000" y="110.000000" fill="rgb(0, 0, 0)" style="fill-opacity:1.00" />
<text x="63" y="115">
0
</text>
<rect height="2.000000" width="7.000000" x="73.000000" y="60.000000" fill="rgb(0, 0, 0)" style="fill-opacity:1.00" />
<text x="63" y="65">
1
</text>
<rect height="2.000000" width="7.000000" x="73.000000" y="10.000000" fill="rgb(0, 0, 0)" style="fill-opacity:1.00" />
<text x="63" y="15">
2
</text>
<text x="50" y="65"
transform="rotate(-90, 50, 70)">
bits
</text>
<!-- Begin 'A' -->
<polygon points=" 90.000000, 107.738774, 111.000000, 106.305483, 119.000000, 106.305483, 140.000000, 107.738774, 132.500000, 107.738774, 126.250000, 107.380451, 103.750000, 107.380451, 97.500000, 107.738774" fill="rgb(178, 34, 34)" style="fill-opacity:1.00" />
<!-- End 'A' -->
<!-- Begin 'G' -->
<ellipse cx="115.000000" cy="108.160566" rx="25.000000" ry="0.421792" fill="rgb(255, 165, 0)" style="fill-opacity:1.00" />
<ellipse cx="115.000000" cy="108.160566" rx="16.666667" ry="0.281195" fill="rgb(255, 255, 255)" style="fill-opacity:1.00" />
<rect height="0.421792" width="25.000000" x="115.000000" y="107.949670" fill="rgb(255, 255, 255)" style="fill-opacity:1.00" />
<rect height="0.105448" width="25.000000" x="115.000000" y="108.266014" fill="rgb(255, 165, 0)" style="fill-opacity:1.00" />
<rect height="0.316344" width="6.250000" x="133.750000" y="108.266014" fill="rgb(255, 165, 0)" style="fill-opacity:1.00" />
<!-- End 'G' -->
<!-- Begin 'T' -->
<rect height="0.127611" width="50.000000" x="90.000000" y="108.582358" fill="rgb(0, 100, 0)" style="fill-opacity:1.00" />
<rect height="0.797569" width="10.000000" x="110.000000" y="108.582358" fill="rgb(0, 100, 0)" style="fill-opacity:1.00" />
<!-- End 'T' -->
<!-- Begin 'C' -->
<ellipse cx="115.000000" cy="109.689963" rx="25.000000" ry="0.310037" fill="rgb(0, 0, 128)" style="fill-opacity:1.00" />
<ellipse cx="115.000000" cy="109.689963" rx="16.666667" ry="0.206691" fill="rgb(255, 255, 255)" style="fill-opacity:1.00" />
<rect height="0.310037" width="25.000000" x="115.000000" y="109.534945" fill="rgb(255, 255, 255)" style="fill-opacity:1.00" />
<!-- End 'C' -->
<!-- Begin 'A' -->
<polygon points=" 150.000000, 102.886801, 171.000000, 93.573388, 179.000000, 93.573388, 200.000000, 102.886801, 192.500000, 102.886801, 186.250000, 100.558448, 163.750000, 100.558448, 157.500000, 102.886801" fill="rgb(178, 34, 34)" style="fill-opacity:1.00" />
<polygon points=" 175.000000, 95.436071, 167.000000, 98.161436, 182.000000, 98.161436" fill="rgb(255, 255, 255)" style="fill-opacity:1.00" />
<!-- End 'A' -->
<!-- Begin 'T' -->
<rect height="0.405876" width="50.000000" x="150.000000" y="102.886801" fill="rgb(0, 100, 0)" style="fill-opacity:1.00" />
<rect height="2.536724" width="10.000000" x="170.000000" y="102.886801" fill="rgb(0, 100, 0)" style="fill-opacity:1.00" />
<!-- End 'T' -->
<!-- Begin 'G' -->
<ellipse cx="175.000000" cy="106.653498" rx="25.000000" ry="1.229974" fill="rgb(255, 165, 0)" style="fill-opacity:1.00" />
<ellipse cx="175.000000" cy="106.653498" rx="16.666667" ry="0.819982" fill="rgb(255, 255, 255)" style="fill-opacity:1.00" />
<rect height="1.229974" width="25.000000" x="175.000000" y="106.038511" fill="rgb(255, 255, 255)" style="fill-opacity:1.00" />
<rect height="0.307493" width="25.000000" x="175.000000" y="106.960991" fill="rgb(255, 165, 0)" style="fill-opacity:1.00" />
<rect height="0.922480" width="6.250000" x="193.750000" y="106.960991" fill="rgb(255, 165, 0)" style="fill-opacity:1.00" />
<!-- End 'G' -->
<!-- Begin 'C' -->
<ellipse cx="175.000000" cy="108.941736" rx="25.000000" ry="1.058264" fill="rgb(0, 0, 128)" style="fill-opacity:1.00" />
<ellipse cx="175.000000" cy="108.941736" rx="16.666667" ry="0.705509" fill="rgb(255, 255, 255)" style="fill-opacity:1.00" />
<rect height="1.058264" width="25.000000" x="175.000000" y="108.412604" fill="rgb(255, 255, 255)" style="fill-opacity:1.00" />
<!-- End 'C' -->
<!-- Begin 'A' -->
<polygon points=" 210.000000, 100.071206, 231.000000, 85.374506, 239.000000, 85.374506, 260.000000, 100.071206, 252.500000, 100.071206, 246.250000, 96.397031, 223.750000, 96.397031, 217.500000, 100.071206" fill="rgb(178, 34, 34)" style="fill-opacity:1.00" />
<polygon points=" 235.000000, 88.313846, 227.000000, 93.192526, 242.000000, 93.192526" fill="rgb(255, 255, 255)" style="fill-opacity:1.00" />
<!-- End 'A' -->
<!-- Begin 'T' -->
<rect height="0.984178" width="50.000000" x="210.000000" y="100.071206" fill="rgb(0, 100, 0)" style="fill-opacity:1.00" />
<rect height="6.151110" width="10.000000" x="230.000000" y="100.071206" fill="rgb(0, 100, 0)" style="fill-opacity:1.00" />
<!-- End 'T' -->
<!-- Begin 'G' -->
<ellipse cx="235.000000" cy="107.368950" rx="25.000000" ry="1.146634" fill="rgb(255, 165, 0)" style="fill-opacity:1.00" />
<ellipse cx="235.000000" cy="107.368950" rx="16.666667" ry="0.764423" fill="rgb(255, 255, 255)" style="fill-opacity:1.00" />
<rect height="1.146634" width="25.000000" x="235.000000" y="106.795633" fill="rgb(255, 255, 255)" style="fill-opacity:1.00" />
<rect height="0.286659" width="25.000000" x="235.000000" y="107.655609" fill="rgb(255, 165, 0)" style="fill-opacity:1.00" />
<rect height="0.859976" width="6.250000" x="253.750000" y="107.655609" fill="rgb(255, 165, 0)" style="fill-opacity:1.00" />
<!-- End 'G' -->
<!-- Begin 'C' -->
<ellipse cx="235.000000" cy="109.257792" rx="25.000000" ry="0.742208" fill="rgb(0, 0, 128)" style="fill-opacity:1.00" />
<ellipse cx="235.000000" cy="109.257792" rx="16.666667" ry="0.494805" fill="rgb(255, 255, 255)" style="fill-opacity:1.00" />
<rect height="0.742208" width="25.000000" x="235.000000" y="108.886689" fill="rgb(255, 255, 255)" style="fill-opacity:1.00" />
<!-- End 'C' -->
<!-- Begin 'A' -->
<polygon points=" 270.000000, 106.952662, 291.000000, 21.905260, 299.000000, 21.905260, 320.000000, 106.952662, 312.500000, 106.952662, 306.250000, 85.690812, 283.750000, 85.690812, 277.500000, 106.952662" fill="rgb(178, 34, 34)" style="fill-opacity:1.00" />
<polygon points=" 295.000000, 38.914740, 287.000000, 71.933701, 302.000000, 71.933701" fill="rgb(255, 255, 255)" style="fill-opacity:1.00" />
<!-- End 'A' -->
<!-- Begin 'G' -->
<ellipse cx="295.000000" cy="108.307368" rx="25.000000" ry="1.354705" fill="rgb(255, 165, 0)" style="fill-opacity:1.00" />
<ellipse cx="295.000000" cy="108.307368" rx="16.666667" ry="0.903137" fill="rgb(255, 255, 255)" style="fill-opacity:1.00" />
<rect height="1.354705" width="25.000000" x="295.000000" y="107.630015" fill="rgb(255, 255, 255)" style="fill-opacity:1.00" />
<rect height="0.338676" width="25.000000" x="295.000000" y="108.646044" fill="rgb(255, 165, 0)" style="fill-opacity:1.00" />
<rect height="1.016029" width="6.250000" x="313.750000" y="108.646044" fill="rgb(255, 165, 0)" style="fill-opacity:1.00" />
<!-- End 'G' -->
<!-- Begin 'T' -->
<rect height="0.030134" width="50.000000" x="270.000000" y="109.662073" fill="rgb(0, 100, 0)" style="fill-opacity:1.00" />
<rect height="0.188339" width="10.000000" x="290.000000" y="109.662073" fill="rgb(0, 100, 0)" style="fill-opacity:1.00" />
<!-- End 'T' -->
<!-- Begin 'C' -->
<ellipse cx="295.000000" cy="109.925206" rx="25.000000" ry="0.074794" fill="rgb(0, 0, 128)" style="fill-opacity:1.00" />
<ellipse cx="295.000000" cy="109.925206" rx="16.666667" ry="0.049863" fill="rgb(255, 255, 255)" style="fill-opacity:1.00" />
<rect height="0.074794" width="25.000000" x="295.000000" y="109.887809" fill="rgb(255, 255, 255)" style="fill-opacity:1.00" />
<!-- End 'C' -->
<!-- Begin 'A' -->
<polygon points=" 330.000000, 107.517632, 351.000000, 20.773859, 359.000000, 20.773859, 380.000000, 107.517632, 372.500000, 107.517632, 366.250000, 85.831689, 343.750000, 85.831689, 337.500000, 107.517632" fill="rgb(178, 34, 34)" style="fill-opacity:1.00" />
<polygon points=" 355.000000, 38.122614, 347.000000, 71.820123, 362.000000, 71.820123" fill="rgb(255, 255, 255)" style="fill-opacity:1.00" />
<!-- End 'A' -->
<!-- Begin 'G' -->
<ellipse cx="355.000000" cy="108.316079" rx="25.000000" ry="0.798448" fill="rgb(255, 165, 0)" style="fill-opacity:1.00" />
<ellipse cx="355.000000" cy="108.316079" rx="16.666667" ry="0.532298" fill="rgb(255, 255, 255)" style="fill-opacity:1.00" />
<rect height="0.798448" width="25.000000" x="355.000000" y="107.916855" fill="rgb(255, 255, 255)" style="fill-opacity:1.00" />
<rect height="0.199612" width="25.000000" x="355.000000" y="108.515691" fill="rgb(255, 165, 0)" style="fill-opacity:1.00" />
<rect height="0.598836" width="6.250000" x="373.750000" y="108.515691" fill="rgb(255, 165, 0)" style="fill-opacity:1.00" />
<!-- End 'G' -->
<!-- Begin 'T' -->
<rect height="0.120812" width="50.000000" x="330.000000" y="109.114527" fill="rgb(0, 100, 0)" style="fill-opacity:1.00" />
<rect height="0.755077" width="10.000000" x="350.000000" y="109.114527" fill="rgb(0, 100, 0)" style="fill-opacity:1.00" />
<!-- End 'T' -->
<!-- Begin 'C' -->
<ellipse cx="355.000000" cy="109.934802" rx="25.000000" ry="0.065198" fill="rgb(0, 0, 128)" style="fill-opacity:1.00" />
<ellipse cx="355.000000" cy="109.934802" rx="16.666667" ry="0.043466" fill="rgb(255, 255, 255)" style="fill-opacity:1.00" />
<rect height="0.065198" width="25.000000" x="355.000000" y="109.902203" fill="rgb(255, 255, 255)" style="fill-opacity:1.00" />
<!-- End 'C' -->
<!-- Begin 'A' -->
<polygon points=" 390.000000, 107.676778, 411.000000, 20.352845, 419.000000, 20.352845, 440.000000, 107.676778, 432.500000, 107.676778, 426.250000, 85.845795, 403.750000, 85.845795, 397.500000, 107.676778" fill="rgb(178, 34, 34)" style="fill-opacity:1.00" />
<polygon points=" 415.000000, 37.817631, 407.000000, 71.747205, 422.000000, 71.747205" fill="rgb(255, 255, 255)" style="fill-opacity:1.00" />
<!-- End 'A' -->
<!-- Begin 'T' -->
<rect height="0.217254" width="50.000000" x="390.000000" y="107.676778" fill="rgb(0, 100, 0)" style="fill-opacity:1.00" />
<rect height="1.357837" width="10.000000" x="410.000000" y="107.676778" fill="rgb(0, 100, 0)" style="fill-opacity:1.00" />
<!-- End 'T' -->
<!-- Begin 'G' -->
<ellipse cx="415.000000" cy="109.410668" rx="25.000000" ry="0.376053" fill="rgb(255, 165, 0)" style="fill-opacity:1.00" />
<ellipse cx="415.000000" cy="109.410668" rx="16.666667" ry="0.250702" fill="rgb(255, 255, 255)" style="fill-opacity:1.00" />
<rect height="0.376053" width="25.000000" x="415.000000" y="109.222641" fill="rgb(255, 255, 255)" style="fill-opacity:1.00" />
<rect height="0.094013" width="25.000000" x="415.000000" y="109.504681" fill="rgb(255, 165, 0)" style="fill-opacity:1.00" />
<rect height="0.282040" width="6.250000" x="433.750000" y="109.504681" fill="rgb(255, 165, 0)" style="fill-opacity:1.00" />
<!-- End 'G' -->
<!-- Begin 'C' -->
<ellipse cx="415.000000" cy="109.893360" rx="25.000000" ry="0.106640" fill="rgb(0, 0, 128)" style="fill-opacity:1.00" />
<ellipse cx="415.000000" cy="109.893360" rx="16.666667" ry="0.071093" fill="rgb(255, 255, 255)" style="fill-opacity:1.00" />
<rect height="0.106640" width="25.000000" x="415.000000" y="109.840041" fill="rgb(255, 255, 255)" style="fill-opacity:1.00" />
<!-- End 'C' -->
<!-- Begin 'G' -->
<ellipse cx="475.000000" cy="74.565301" rx="25.000000" ry="26.516651" fill="rgb(255, 165, 0)" style="fill-opacity:1.00" />
<ellipse cx="475.000000" cy="74.565301" rx="16.666667" ry="17.677767" fill="rgb(255, 255, 255)" style="fill-opacity:1.00" />
<rect height="26.516651" width="25.000000" x="475.000000" y="61.306976" fill="rgb(255, 255, 255)" style="fill-opacity:1.00" />
<rect height="6.629163" width="25.000000" x="475.000000" y="81.194464" fill="rgb(255, 165, 0)" style="fill-opacity:1.00" />
<rect height="19.887488" width="6.250000" x="493.750000" y="81.194464" fill="rgb(255, 165, 0)" style="fill-opacity:1.00" />
<!-- End 'G' -->
<!-- Begin 'A' -->
<polygon points=" 450.000000, 107.154423, 471.000000, 101.081952, 479.000000, 101.081952, 500.000000, 107.154423, 492.500000, 107.154423, 486.250000, 105.636305, 463.750000, 105.636305, 457.500000, 107.154423" fill="rgb(178, 34, 34)" style="fill-opacity:1.00" />
<!-- End 'A' -->
<!-- Begin 'T' -->
<rect height="0.346532" width="50.000000" x="450.000000" y="107.154423" fill="rgb(0, 100, 0)" style="fill-opacity:1.00" />
<rect height="2.165827" width="10.000000" x="470.000000" y="107.154423" fill="rgb(0, 100, 0)" style="fill-opacity:1.00" />
<!-- End 'T' -->
<!-- Begin 'C' -->
<ellipse cx="475.000000" cy="109.660125" rx="25.000000" ry="0.339875" fill="rgb(0, 0, 128)" style="fill-opacity:1.00" />
<ellipse cx="475.000000" cy="109.660125" rx="16.666667" ry="0.226584" fill="rgb(255, 255, 255)" style="fill-opacity:1.00" />
<rect height="0.339875" width="25.000000" x="475.000000" y="109.490187" fill="rgb(255, 255, 255)" style="fill-opacity:1.00" />
<!-- End 'C' -->
<!-- Begin 'A' -->
<polygon points=" 510.000000, 105.686116, 531.000000, 102.894824, 539.000000, 102.894824, 560.000000, 105.686116, 552.500000, 105.686116, 546.250000, 104.988293, 523.750000, 104.988293, 517.500000, 105.686116" fill="rgb(178, 34, 34)" style="fill-opacity:1.00" />
<!-- End 'A' -->
<!-- Begin 'T' -->
<rect height="0.364993" width="50.000000" x="510.000000" y="105.686116" fill="rgb(0, 100, 0)" style="fill-opacity:1.00" />
<rect height="2.281209" width="10.000000" x="530.000000" y="105.686116" fill="rgb(0, 100, 0)" style="fill-opacity:1.00" />
<!-- End 'T' -->
<!-- Begin 'C' -->
<ellipse cx="535.000000" cy="108.500391" rx="25.000000" ry="0.533066" fill="rgb(0, 0, 128)" style="fill-opacity:1.00" />
<ellipse cx="535.000000" cy="108.500391" rx="16.666667" ry="0.355377" fill="rgb(255, 255, 255)" style="fill-opacity:1.00" />
<rect height="0.533066" width="25.000000" x="535.000000" y="108.233858" fill="rgb(255, 255, 255)" style="fill-opacity:1.00" />
<!-- End 'C' -->
<!-- Begin 'G' -->
<ellipse cx="535.000000" cy="109.516728" rx="25.000000" ry="0.483272" fill="rgb(255, 165, 0)" style="fill-opacity:1.00" />
<ellipse cx="535.000000" cy="109.516728" rx="16.666667" ry="0.322181" fill="rgb(255, 255, 255)" style="fill-opacity:1.00" />
<rect height="0.483272" width="25.000000" x="535.000000" y="109.275093" fill="rgb(255, 255, 255)" style="fill-opacity:1.00" />
<rect height="0.120818" width="25.000000" x="535.000000" y="109.637546" fill="rgb(255, 165, 0)" style="fill-opacity:1.00" />
<rect height="0.362454" width="6.250000" x="553.750000" y="109.637546" fill="rgb(255, 165, 0)" style="fill-opacity:1.00" />
<!-- End 'G' -->
<!-- Begin 'A' -->
<polygon points=" 570.000000, 104.413313, 591.000000, 99.492704, 599.000000, 99.492704, 620.000000, 104.413313, 612.500000, 104.413313, 606.250000, 103.183161, 583.750000, 103.183161, 577.500000, 104.413313" fill="rgb(178, 34, 34)" style="fill-opacity:1.00" />
<!-- End 'A' -->
<!-- Begin 'T' -->
<rect height="0.420318" width="50.000000" x="570.000000" y="104.413313" fill="rgb(0, 100, 0)" style="fill-opacity:1.00" />
<rect height="2.626989" width="10.000000" x="590.000000" y="104.413313" fill="rgb(0, 100, 0)" style="fill-opacity:1.00" />
<!-- End 'T' -->
<!-- Begin 'G' -->
<ellipse cx="595.000000" cy="108.006216" rx="25.000000" ry="0.965914" fill="rgb(255, 165, 0)" style="fill-opacity:1.00" />
<ellipse cx="595.000000" cy="108.006216" rx="16.666667" ry="0.643943" fill="rgb(255, 255, 255)" style="fill-opacity:1.00" />
<rect height="0.965914" width="25.000000" x="595.000000" y="107.523259" fill="rgb(255, 255, 255)" style="fill-opacity:1.00" />
<rect height="0.241479" width="25.000000" x="595.000000" y="108.247694" fill="rgb(255, 165, 0)" style="fill-opacity:1.00" />
<rect height="0.724436" width="6.250000" x="613.750000" y="108.247694" fill="rgb(255, 165, 0)" style="fill-opacity:1.00" />
<!-- End 'G' -->
<!-- Begin 'C' -->
<ellipse cx="595.000000" cy="109.486065" rx="25.000000" ry="0.513935" fill="rgb(0, 0, 128)" style="fill-opacity:1.00" />
<ellipse cx="595.000000" cy="109.486065" rx="16.666667" ry="0.342623" fill="rgb(255, 255, 255)" style="fill-opacity:1.00" />
<rect height="0.513935" width="25.000000" x="595.000000" y="109.229097" fill="rgb(255, 255, 255)" style="fill-opacity:1.00" />
<!-- End 'C' -->
<!-- Begin 'A' -->
<polygon points=" 630.000000, 102.554644, 651.000000, 94.033401, 659.000000, 94.033401, 680.000000, 102.554644, 672.500000, 102.554644, 666.250000, 100.424333, 643.750000, 100.424333, 637.500000, 102.554644" fill="rgb(178, 34, 34)" style="fill-opacity:1.00" />
<polygon points=" 655.000000, 95.737650, 647.000000, 98.146147, 662.000000, 98.146147" fill="rgb(255, 255, 255)" style="fill-opacity:1.00" />
<!-- End 'A' -->
<!-- Begin 'G' -->
<ellipse cx="655.000000" cy="104.322086" rx="25.000000" ry="1.767443" fill="rgb(255, 165, 0)" style="fill-opacity:1.00" />
<ellipse cx="655.000000" cy="104.322086" rx="16.666667" ry="1.178295" fill="rgb(255, 255, 255)" style="fill-opacity:1.00" />
<rect height="1.767443" width="25.000000" x="655.000000" y="103.438365" fill="rgb(255, 255, 255)" style="fill-opacity:1.00" />
<rect height="0.441861" width="25.000000" x="655.000000" y="104.763947" fill="rgb(255, 165, 0)" style="fill-opacity:1.00" />
<rect height="1.325582" width="6.250000" x="673.750000" y="104.763947" fill="rgb(255, 165, 0)" style="fill-opacity:1.00" />
<!-- End 'G' -->
<!-- Begin 'T' -->
<rect height="0.432286" width="50.000000" x="630.000000" y="106.089529" fill="rgb(0, 100, 0)" style="fill-opacity:1.00" />
<rect height="2.701788" width="10.000000" x="650.000000" y="106.089529" fill="rgb(0, 100, 0)" style="fill-opacity:1.00" />
<!-- End 'T' -->
<!-- Begin 'C' -->
<ellipse cx="655.000000" cy="109.395659" rx="25.000000" ry="0.604341" fill="rgb(0, 0, 128)" style="fill-opacity:1.00" />
<ellipse cx="655.000000" cy="109.395659" rx="16.666667" ry="0.402894" fill="rgb(255, 255, 255)" style="fill-opacity:1.00" />
<rect height="0.604341" width="25.000000" x="655.000000" y="109.093488" fill="rgb(255, 255, 255)" style="fill-opacity:1.00" />
<!-- End 'C' -->
<!-- Begin 'A' -->
<polygon points=" 690.000000, 104.952394, 711.000000, 100.126947, 719.000000, 100.126947, 740.000000, 104.952394, 732.500000, 104.952394, 726.250000, 103.746033, 703.750000, 103.746033, 697.500000, 104.952394" fill="rgb(178, 34, 34)" style="fill-opacity:1.00" />
<!-- End 'A' -->
<!-- Begin 'C' -->
<ellipse cx="715.000000" cy="105.942707" rx="25.000000" ry="0.990313" fill="rgb(0, 0, 128)" style="fill-opacity:1.00" />
<ellipse cx="715.000000" cy="105.942707" rx="16.666667" ry="0.660208" fill="rgb(255, 255, 255)" style="fill-opacity:1.00" />
<rect height="0.990313" width="25.000000" x="715.000000" y="105.447551" fill="rgb(255, 255, 255)" style="fill-opacity:1.00" />
<!-- End 'C' -->
<!-- Begin 'T' -->
<rect height="0.267158" width="50.000000" x="690.000000" y="106.933019" fill="rgb(0, 100, 0)" style="fill-opacity:1.00" />
<rect height="1.669737" width="10.000000" x="710.000000" y="106.933019" fill="rgb(0, 100, 0)" style="fill-opacity:1.00" />
<!-- End 'T' -->
<!-- Begin 'G' -->
<ellipse cx="715.000000" cy="109.301378" rx="25.000000" ry="0.698622" fill="rgb(255, 165, 0)" style="fill-opacity:1.00" />
<ellipse cx="715.000000" cy="109.301378" rx="16.666667" ry="0.465748" fill="rgb(255, 255, 255)" style="fill-opacity:1.00" />
<rect height="0.698622" width="25.000000" x="715.000000" y="108.952068" fill="rgb(255, 255, 255)" style="fill-opacity:1.00" />
<rect height="0.174655" width="25.000000" x="715.000000" y="109.476034" fill="rgb(255, 165, 0)" style="fill-opacity:1.00" />
<rect height="0.523966" width="6.250000" x="733.750000" y="109.476034" fill="rgb(255, 165, 0)" style="fill-opacity:1.00" />
<!-- End 'G' -->
<!-- Begin 'A' -->
<polygon points=" 750.000000, 104.165758, 771.000000, 99.279172, 779.000000, 99.279172, 800.000000, 104.165758, 792.500000, 104.165758, 786.250000, 102.944112, 763.750000, 102.944112, 757.500000, 104.165758" fill="rgb(178, 34, 34)" style="fill-opacity:1.00" />
<!-- End 'A' -->
<!-- Begin 'T' -->
<rect height="0.502467" width="50.000000" x="750.000000" y="104.165758" fill="rgb(0, 100, 0)" style="fill-opacity:1.00" />
<rect height="3.140421" width="10.000000" x="770.000000" y="104.165758" fill="rgb(0, 100, 0)" style="fill-opacity:1.00" />
<!-- End 'T' -->
<!-- Begin 'G' -->
<ellipse cx="775.000000" cy="108.049198" rx="25.000000" ry="0.743019" fill="rgb(255, 165, 0)" style="fill-opacity:1.00" />
<ellipse cx="775.000000" cy="108.049198" rx="16.666667" ry="0.495346" fill="rgb(255, 255, 255)" style="fill-opacity:1.00" />
<rect height="0.743019" width="25.000000" x="775.000000" y="107.677688" fill="rgb(255, 255, 255)" style="fill-opacity:1.00" />
<rect height="0.185755" width="25.000000" x="775.000000" y="108.234952" fill="rgb(255, 165, 0)" style="fill-opacity:1.00" />
<rect height="0.557264" width="6.250000" x="793.750000" y="108.234952" fill="rgb(255, 165, 0)" style="fill-opacity:1.00" />
<!-- End 'G' -->
<!-- Begin 'C' -->
<ellipse cx="775.000000" cy="109.396108" rx="25.000000" ry="0.603892" fill="rgb(0, 0, 128)" style="fill-opacity:1.00" />
<ellipse cx="775.000000" cy="109.396108" rx="16.666667" ry="0.402594" fill="rgb(255, 255, 255)" style="fill-opacity:1.00" />
<rect height="0.603892" width="25.000000" x="775.000000" y="109.094162" fill="rgb(255, 255, 255)" style="fill-opacity:1.00" />
<!-- End 'C' -->
<!-- Begin 'A' -->
<polygon points=" 810.000000, 104.350083, 831.000000, 100.052881, 839.000000, 100.052881, 860.000000, 104.350083, 852.500000, 104.350083, 846.250000, 103.275782, 823.750000, 103.275782, 817.500000, 104.350083" fill="rgb(178, 34, 34)" style="fill-opacity:1.00" />
<!-- End 'A' -->
<!-- Begin 'T' -->
<rect height="0.485905" width="50.000000" x="810.000000" y="104.350083" fill="rgb(0, 100, 0)" style="fill-opacity:1.00" />
<rect height="3.036909" width="10.000000" x="830.000000" y="104.350083" fill="rgb(0, 100, 0)" style="fill-opacity:1.00" />
<!-- End 'T' -->
<!-- Begin 'G' -->
<ellipse cx="835.000000" cy="108.216315" rx="25.000000" ry="0.829322" fill="rgb(255, 165, 0)" style="fill-opacity:1.00" />
<ellipse cx="835.000000" cy="108.216315" rx="16.666667" ry="0.552882" fill="rgb(255, 255, 255)" style="fill-opacity:1.00" />
<rect height="0.829322" width="25.000000" x="835.000000" y="107.801653" fill="rgb(255, 255, 255)" style="fill-opacity:1.00" />
<rect height="0.207331" width="25.000000" x="835.000000" y="108.423645" fill="rgb(255, 165, 0)" style="fill-opacity:1.00" />
<rect height="0.621992" width="6.250000" x="853.750000" y="108.423645" fill="rgb(255, 165, 0)" style="fill-opacity:1.00" />
<!-- End 'G' -->
<!-- Begin 'C' -->
<ellipse cx="835.000000" cy="109.522818" rx="25.000000" ry="0.477182" fill="rgb(0, 0, 128)" style="fill-opacity:1.00" />
<ellipse cx="835.000000" cy="109.522818" rx="16.666667" ry="0.318121" fill="rgb(255, 255, 255)" style="fill-opacity:1.00" />
<rect height="0.477182" width="25.000000" x="835.000000" y="109.284228" fill="rgb(255, 255, 255)" style="fill-opacity:1.00" />
<!-- End 'C' -->
<!-- Begin 'A' -->
<polygon points=" 870.000000, 104.776959, 891.000000, 101.043449, 899.000000, 101.043449, 920.000000, 104.776959, 912.500000, 104.776959, 906.250000, 103.843582, 883.750000, 103.843582, 877.500000, 104.776959" fill="rgb(178, 34, 34)" style="fill-opacity:1.00" />
<!-- End 'A' -->
<!-- Begin 'T' -->
<rect height="0.458304" width="50.000000" x="870.000000" y="104.776959" fill="rgb(0, 100, 0)" style="fill-opacity:1.00" />
<rect height="2.864402" width="10.000000" x="890.000000" y="104.776959" fill="rgb(0, 100, 0)" style="fill-opacity:1.00" />
<!-- End 'T' -->
<!-- Begin 'G' -->
<ellipse cx="895.000000" cy="108.285637" rx="25.000000" ry="0.644276" fill="rgb(255, 165, 0)" style="fill-opacity:1.00" />
<ellipse cx="895.000000" cy="108.285637" rx="16.666667" ry="0.429518" fill="rgb(255, 255, 255)" style="fill-opacity:1.00" />
<rect height="0.644276" width="25.000000" x="895.000000" y="107.963499" fill="rgb(255, 255, 255)" style="fill-opacity:1.00" />
<rect height="0.161069" width="25.000000" x="895.000000" y="108.446706" fill="rgb(255, 165, 0)" style="fill-opacity:1.00" />
<rect height="0.483207" width="6.250000" x="913.750000" y="108.446706" fill="rgb(255, 165, 0)" style="fill-opacity:1.00" />
<!-- End 'G' -->
<!-- Begin 'C' -->
<ellipse cx="895.000000" cy="109.464957" rx="25.000000" ry="0.535043" fill="rgb(0, 0, 128)" style="fill-opacity:1.00" />
<ellipse cx="895.000000" cy="109.464957" rx="16.666667" ry="0.356695" fill="rgb(255, 255, 255)" style="fill-opacity:1.00" />
<rect height="0.535043" width="25.000000" x="895.000000" y="109.197435" fill="rgb(255, 255, 255)" style="fill-opacity:1.00" />
<!-- End 'C' -->
<text x="490.000000" y="165">
IC = 8.93
</text>

</svg>
