<?xml version="1.0" encoding="UTF-8" standalone="yes"?>
                 <!DOCTYPE svg PUBLIC "-//W3C//DTD SVG 1.0//EN" "http://www.w3.org/TR/2001/REC-SVG-20010904/DTD/svg10.dtd">
                 <svg height="170" width="1080" xmlns="http://www.w3.org/2000/svg" xmlns:xlink="http://www.w3.org/1999/xlink">
                 <line x1="85" y1="120" x2="1047" y2="120" style="stroke:rgb(99,99,99);stroke-width:2" />
<rect height="7.000000" width="2.000000" x="85.000000" y="120.000000" fill="rgb(0, 0, 0)" style="fill-opacity:1.00" />
<text x="107.000000" y="140">
1
</text>
<rect height="7.000000" width="2.000000" x="145.000000" y="120.000000" fill="rgb(0, 0, 0)" style="fill-opacity:1.00" />
<text x="167.000000" y="140">
2
</text>
<rect height="7.000000" width="2.000000" x="205.000000" y="120.000000" fill="rgb(0, 0, 0)" style="fill-opacity:1.00" />
<text x="227.000000" y="140">
3
</text>
<rect height="7.000000" width="2.000000" x="265.000000" y="120.000000" fill="rgb(0, 0, 0)" style="fill-opacity:1.00" />
<text x="287.000000" y="140">
4
</text>
<rect height="7.000000" width="2.000000" x="325.000000" y="120.000000" fill="rgb(0, 0, 0)" style="fill-opacity:1.00" />
<text x="347.000000" y="140">
5
</text>
<rect height="7.000000" width="2.000000" x="385.000000" y="120.000000" fill="rgb(0, 0, 0)" style="fill-opacity:1.00" />
<text x="407.000000" y="140">
6
</text>
<rect height="7.000000" width="2.000000" x="445.000000" y="120.000000" fill="rgb(0, 0, 0)" style="fill-opacity:1.00" />
<text x="467.000000" y="140">
7
</text>
<rect height="7.000000" width="2.000000" x="505.000000" y="120.000000" fill="rgb(0, 0, 0)" style="fill-opacity:1.00" />
<text x="527.000000" y="140">
8
</text>
<rect height="7.000000" width="2.000000" x="565.000000" y="120.000000" fill="rgb(0, 0, 0)" style="fill-opacity:1.00" />
<text x="587.000000" y="140">
9
</text>
<rect height="7.000000" width="2.000000" x="625.000000" y="120.000000" fill="rgb(0, 0, 0)" style="fill-opacity:1.00" />
<text x="647.000000" y="140">
10
</text>
<rect height="7.000000" width="2.000000" x="685.000000" y="120.000000" fill="rgb(0, 0, 0)" style="fill-opacity:1.00" />
<text x="707.000000" y="140">
11
</text>
<rect height="7.000000" width="2.000000" x="745.000000" y="120.000000" fill="rgb(0, 0, 0)" style="fill-opacity:1.00" />
<text x="767.000000" y="140">
12
</text>
<rect height="7.000000" width="2.000000" x="805.000000" y="120.000000" fill="rgb(0, 0, 0)" style="fill-opacity:1.00" />
<text x="827.000000" y="140">
13
</text>
<rect height="7.000000" width="2.000000" x="865.000000" y="120.000000" fill="rgb(0, 0, 0)" style="fill-opacity:1.00" />
<text x="887.000000" y="140">
14
</text>
<rect height="7.000000" width="2.000000" x="925.000000" y="120.000000" fill="rgb(0, 0, 0)" style="fill-opacity:1.00" />
<text x="947.000000" y="140">
15
</text>
<rect height="7.000000" width="2.000000" x="985.000000" y="120.000000" fill="rgb(0, 0, 0)" style="fill-opacity:1.00" />
<text x="1007.000000" y="140">
16
</text>
<rect height="7.000000" width="2.000000" x="1045.000000" y="120.000000" fill="rgb(0, 0, 0)" style="fill-opacity:1.00" />
<line x1="80" y1="112" x2="80" y2="10" style="stroke:rgb(99,99,99);stroke-width:2" />
<rect height="2.000000" width="7.000000" x="73.000000" y="110.000000" fill="rgb(0, 0, 0)" style="fill-opacity:1.00" />
<text x="63" y="115">
0
</text>
<rect height="2.000000" width="7.000000" x="73.000000" y="60.000000" fill="rgb(0, 0, 0)" style="fill-opacity:1.00" />
<text x="63" y="65">
1
</text>
<rect height="2.000000" width="7.000000" x="73.000000" y="10.000000" fill="rgb(0, 0, 0)" style="fill-opacity:1.00" />
<text x="63" y="15">
2
</text>
<text x="50" y="65"
transform="rotate(-90, 50, 70)">
bits
</text>
<!-- Begin 'T' -->
<rect height="0.154664" width="50.000000" x="90.000000" y="107.318732" fill="rgb(0, 100, 0)" style="fill-opacity:1.00" />
<rect height="0.966651" width="10.000000" x="110.000000" y="107.318732" fill="rgb(0, 100, 0)" style="fill-opacity:1.00" />
<!-- End 'T' -->
<!-- Begin 'A' -->
<polygon points=" 90.000000, 108.962793, 111.000000, 108.285383, 119.000000, 108.285383, 140.000000, 108.962793, 132.500000, 108.962793, 126.250000, 108.793441, 103.750000, 108.793441, 97.500000, 108.962793" fill="rgb(178, 34, 34)" style="fill-opacity:1.00" />
<!-- End 'A' -->
<!-- Begin 'C' -->
<ellipse cx="115.000000" cy="109.247057" rx="25.000000" ry="0.284264" fill="rgb(0, 0, 128)" style="fill-opacity:1.00" />
<ellipse cx="115.000000" cy="109.247057" rx="16.666667" ry="0.189510" fill="rgb(255, 255, 255)" style="fill-opacity:1.00" />
<rect height="0.284264" width="25.000000" x="115.000000" y="109.104925" fill="rgb(255, 255, 255)" style="fill-opacity:1.00" />
<!-- End 'C' -->
<!-- Begin 'G' -->
<ellipse cx="115.000000" cy="109.765661" rx="25.000000" ry="0.234339" fill="rgb(255, 165, 0)" style="fill-opacity:1.00" />
<ellipse cx="115.000000" cy="109.765661" rx="16.666667" ry="0.156226" fill="rgb(255, 255, 255)" style="fill-opacity:1.00" />
<rect height="0.234339" width="25.000000" x="115.000000" y="109.648491" fill="rgb(255, 255, 255)" style="fill-opacity:1.00" />
<rect height="0.058585" width="25.000000" x="115.000000" y="109.824246" fill="rgb(255, 165, 0)" style="fill-opacity:1.00" />
<rect height="0.175754" width="6.250000" x="133.750000" y="109.824246" fill="rgb(255, 165, 0)" style="fill-opacity:1.00" />
<!-- End 'G' -->
<!-- Begin 'G' -->
<ellipse cx="175.000000" cy="95.322520" rx="25.000000" ry="6.108612" fill="rgb(255, 165, 0)" style="fill-opacity:1.00" />
<ellipse cx="175.000000" cy="95.322520" rx="16.666667" ry="4.072408" fill="rgb(255, 255, 255)" style="fill-opacity:1.00" />
<rect height="6.108612" width="25.000000" x="175.000000" y="92.268215" fill="rgb(255, 255, 255)" style="fill-opacity:1.00" />
<rect height="1.527153" width="25.000000" x="175.000000" y="96.849673" fill="rgb(255, 165, 0)" style="fill-opacity:1.00" />
<rect height="4.581459" width="6.250000" x="193.750000" y="96.849673" fill="rgb(255, 165, 0)" style="fill-opacity:1.00" />
<!-- End 'G' -->
<!-- Begin 'A' -->
<polygon points=" 150.000000, 105.419657, 171.000000, 101.431132, 179.000000, 101.431132, 200.000000, 105.419657, 192.500000, 105.419657, 186.250000, 104.422526, 163.750000, 104.422526, 157.500000, 105.419657" fill="rgb(178, 34, 34)" style="fill-opacity:1.00" />
<!-- End 'A' -->
<!-- Begin 'T' -->
<rect height="0.508577" width="50.000000" x="150.000000" y="105.419657" fill="rgb(0, 100, 0)" style="fill-opacity:1.00" />
<rect height="3.178609" width="10.000000" x="170.000000" y="105.419657" fill="rgb(0, 100, 0)" style="fill-opacity:1.00" />
<!-- End 'T' -->
<!-- Begin 'C' -->
<ellipse cx="175.000000" cy="109.299133" rx="25.000000" ry="0.700867" fill="rgb(0, 0, 128)" style="fill-opacity:1.00" />
<ellipse cx="175.000000" cy="109.299133" rx="16.666667" ry="0.467245" fill="rgb(255, 255, 255)" style="fill-opacity:1.00" />
<rect height="0.700867" width="25.000000" x="175.000000" y="108.948700" fill="rgb(255, 255, 255)" style="fill-opacity:1.00" />
<!-- End 'C' -->
<!-- Begin 'T' -->
<rect height="4.363011" width="50.000000" x="210.000000" y="72.753991" fill="rgb(0, 100, 0)" style="fill-opacity:1.00" />
<rect height="27.268821" width="10.000000" x="230.000000" y="72.753991" fill="rgb(0, 100, 0)" style="fill-opacity:1.00" />
<!-- End 'T' -->
<!-- Begin 'C' -->
<ellipse cx="235.000000" cy="102.036128" rx="25.000000" ry="2.013316" fill="rgb(0, 0, 128)" style="fill-opacity:1.00" />
<ellipse cx="235.000000" cy="102.036128" rx="16.666667" ry="1.342210" fill="rgb(255, 255, 255)" style="fill-opacity:1.00" />
<rect height="2.013316" width="25.000000" x="235.000000" y="101.029470" fill="rgb(255, 255, 255)" style="fill-opacity:1.00" />
<!-- End 'C' -->
<!-- Begin 'G' -->
<ellipse cx="235.000000" cy="105.803692" rx="25.000000" ry="1.754248" fill="rgb(255, 165, 0)" style="fill-opacity:1.00" />
<ellipse cx="235.000000" cy="105.803692" rx="16.666667" ry="1.169499" fill="rgb(255, 255, 255)" style="fill-opacity:1.00" />
<rect height="1.754248" width="25.000000" x="235.000000" y="104.926568" fill="rgb(255, 255, 255)" style="fill-opacity:1.00" />
<rect height="0.438562" width="25.000000" x="235.000000" y="106.242254" fill="rgb(255, 165, 0)" style="fill-opacity:1.00" />
<rect height="1.315686" width="6.250000" x="253.750000" y="106.242254" fill="rgb(255, 165, 0)" style="fill-opacity:1.00" />
<!-- End 'G' -->
<!-- Begin 'A' -->
<polygon points=" 210.000000, 110.000000, 231.000000, 107.557940, 239.000000, 107.557940, 260.000000, 110.000000, 252.500000, 110.000000, 246.250000, 109.389485, 223.750000, 109.389485, 217.500000, 110.000000" fill="rgb(178, 34, 34)" style="fill-opacity:1.00" />
<!-- End 'A' -->
<!-- Begin 'T' -->
<rect height="2.160555" width="50.000000" x="270.000000" y="85.823540" fill="rgb(0, 100, 0)" style="fill-opacity:1.00" />
<rect height="13.503469" width="10.000000" x="290.000000" y="85.823540" fill="rgb(0, 100, 0)" style="fill-opacity:1.00" />
<!-- End 'T' -->
<!-- Begin 'C' -->
<ellipse cx="295.000000" cy="102.986494" rx="25.000000" ry="3.659486" fill="rgb(0, 0, 128)" style="fill-opacity:1.00" />
<ellipse cx="295.000000" cy="102.986494" rx="16.666667" ry="2.439657" fill="rgb(255, 255, 255)" style="fill-opacity:1.00" />
<rect height="3.659486" width="25.000000" x="295.000000" y="101.156751" fill="rgb(255, 255, 255)" style="fill-opacity:1.00" />
<!-- End 'C' -->
<!-- Begin 'A' -->
<polygon points=" 270.000000, 108.816409, 291.000000, 106.645980, 299.000000, 106.645980, 320.000000, 108.816409, 312.500000, 108.816409, 306.250000, 108.273801, 283.750000, 108.273801, 277.500000, 108.816409" fill="rgb(178, 34, 34)" style="fill-opacity:1.00" />
<!-- End 'A' -->
<!-- Begin 'G' -->
<ellipse cx="295.000000" cy="109.408204" rx="25.000000" ry="0.591796" fill="rgb(255, 165, 0)" style="fill-opacity:1.00" />
<ellipse cx="295.000000" cy="109.408204" rx="16.666667" ry="0.394530" fill="rgb(255, 255, 255)" style="fill-opacity:1.00" />
<rect height="0.591796" width="25.000000" x="295.000000" y="109.112306" fill="rgb(255, 255, 255)" style="fill-opacity:1.00" />
<rect height="0.147949" width="25.000000" x="295.000000" y="109.556153" fill="rgb(255, 165, 0)" style="fill-opacity:1.00" />
<rect height="0.443847" width="6.250000" x="313.750000" y="109.556153" fill="rgb(255, 165, 0)" style="fill-opacity:1.00" />
<!-- End 'G' -->
<!-- Begin 'G' -->
<ellipse cx="355.000000" cy="104.168263" rx="25.000000" ry="1.277455" fill="rgb(255, 165, 0)" style="fill-opacity:1.00" />
<ellipse cx="355.000000" cy="104.168263" rx="16.666667" ry="0.851637" fill="rgb(255, 255, 255)" style="fill-opacity:1.00" />
<rect height="1.277455" width="25.000000" x="355.000000" y="103.529536" fill="rgb(255, 255, 255)" style="fill-opacity:1.00" />
<rect height="0.319364" width="25.000000" x="355.000000" y="104.487627" fill="rgb(255, 165, 0)" style="fill-opacity:1.00" />
<rect height="0.958091" width="6.250000" x="373.750000" y="104.487627" fill="rgb(255, 165, 0)" style="fill-opacity:1.00" />
<!-- End 'G' -->
<!-- Begin 'T' -->
<rect height="0.399334" width="50.000000" x="330.000000" y="105.445718" fill="rgb(0, 100, 0)" style="fill-opacity:1.00" />
<rect height="2.495836" width="10.000000" x="350.000000" y="105.445718" fill="rgb(0, 100, 0)" style="fill-opacity:1.00" />
<!-- End 'T' -->
<!-- Begin 'A' -->
<polygon points=" 330.000000, 109.197833, 351.000000, 107.941554, 359.000000, 107.941554, 380.000000, 109.197833, 372.500000, 109.197833, 366.250000, 108.883763, 343.750000, 108.883763, 337.500000, 109.197833" fill="rgb(178, 34, 34)" style="fill-opacity:1.00" />
<!-- End 'A' -->
<!-- Begin 'C' -->
<ellipse cx="355.000000" cy="109.598917" rx="25.000000" ry="0.401083" fill="rgb(0, 0, 128)" style="fill-opacity:1.00" />
<ellipse cx="355.000000" cy="109.598917" rx="16.666667" ry="0.267389" fill="rgb(255, 255, 255)" style="fill-opacity:1.00" />
<rect height="0.401083" width="25.000000" x="355.000000" y="109.398375" fill="rgb(255, 255, 255)" style="fill-opacity:1.00" />
<!-- End 'C' -->
<!-- Begin 'C' -->
<ellipse cx="415.000000" cy="92.216059" rx="25.000000" ry="8.610640" fill="rgb(0, 0, 128)" style="fill-opacity:1.00" />
<ellipse cx="415.000000" cy="92.216059" rx="16.666667" ry="5.740427" fill="rgb(255, 255, 255)" style="fill-opacity:1.00" />
<rect height="8.610640" width="25.000000" x="415.000000" y="87.910739" fill="rgb(255, 255, 255)" style="fill-opacity:1.00" />
<!-- End 'C' -->
<!-- Begin 'G' -->
<ellipse cx="415.000000" cy="102.806510" rx="25.000000" ry="1.979811" fill="rgb(255, 165, 0)" style="fill-opacity:1.00" />
<ellipse cx="415.000000" cy="102.806510" rx="16.666667" ry="1.319874" fill="rgb(255, 255, 255)" style="fill-opacity:1.00" />
<rect height="1.979811" width="25.000000" x="415.000000" y="101.816605" fill="rgb(255, 255, 255)" style="fill-opacity:1.00" />
<rect height="0.494953" width="25.000000" x="415.000000" y="103.301463" fill="rgb(255, 165, 0)" style="fill-opacity:1.00" />
<rect height="1.484859" width="6.250000" x="433.750000" y="103.301463" fill="rgb(255, 165, 0)" style="fill-opacity:1.00" />
<!-- End 'G' -->
<!-- Begin 'A' -->
<polygon points=" 390.000000, 107.469157, 411.000000, 104.786322, 419.000000, 104.786322, 440.000000, 107.469157, 432.500000, 107.469157, 426.250000, 106.798448, 403.750000, 106.798448, 397.500000, 107.469157" fill="rgb(178, 34, 34)" style="fill-opacity:1.00" />
<!-- End 'A' -->
<!-- Begin 'T' -->
<rect height="0.404935" width="50.000000" x="390.000000" y="107.469157" fill="rgb(0, 100, 0)" style="fill-opacity:1.00" />
<rect height="2.530843" width="10.000000" x="410.000000" y="107.469157" fill="rgb(0, 100, 0)" style="fill-opacity:1.00" />
<!-- End 'T' -->
<!-- Begin 'C' -->
<ellipse cx="475.000000" cy="77.259885" rx="25.000000" ry="17.841545" fill="rgb(0, 0, 128)" style="fill-opacity:1.00" />
<ellipse cx="475.000000" cy="77.259885" rx="16.666667" ry="11.894364" fill="rgb(255, 255, 255)" style="fill-opacity:1.00" />
<rect height="17.841545" width="25.000000" x="475.000000" y="68.339112" fill="rgb(255, 255, 255)" style="fill-opacity:1.00" />
<!-- End 'C' -->
<!-- Begin 'T' -->
<rect height="2.239770" width="50.000000" x="450.000000" y="95.101430" fill="rgb(0, 100, 0)" style="fill-opacity:1.00" />
<rect height="13.998560" width="10.000000" x="470.000000" y="95.101430" fill="rgb(0, 100, 0)" style="fill-opacity:1.00" />
<!-- End 'T' -->
<!-- Begin 'A' -->
<polygon points=" 450.000000, 109.666584, 471.000000, 109.099990, 479.000000, 109.099990, 500.000000, 109.666584, 492.500000, 109.666584, 486.250000, 109.524936, 463.750000, 109.524936, 457.500000, 109.666584" fill="rgb(178, 34, 34)" style="fill-opacity:1.00" />
<!-- End 'A' -->
<!-- Begin 'G' -->
<ellipse cx="475.000000" cy="109.833292" rx="25.000000" ry="0.166708" fill="rgb(255, 165, 0)" style="fill-opacity:1.00" />
<ellipse cx="475.000000" cy="109.833292" rx="16.666667" ry="0.111139" fill="rgb(255, 255, 255)" style="fill-opacity:1.00" />
<rect height="0.166708" width="25.000000" x="475.000000" y="109.749938" fill="rgb(255, 255, 255)" style="fill-opacity:1.00" />
<rect height="0.041677" width="25.000000" x="475.000000" y="109.874969" fill="rgb(255, 165, 0)" style="fill-opacity:1.00" />
<rect height="0.125031" width="6.250000" x="493.750000" y="109.874969" fill="rgb(255, 165, 0)" style="fill-opacity:1.00" />
<!-- End 'G' -->
<!-- Begin 'A' -->
<polygon points=" 510.000000, 102.206975, 531.000000, 93.364058, 539.000000, 93.364058, 560.000000, 102.206975, 552.500000, 102.206975, 546.250000, 99.996246, 523.750000, 99.996246, 517.500000, 102.206975" fill="rgb(178, 34, 34)" style="fill-opacity:1.00" />
<polygon points=" 535.000000, 95.132641, 527.000000, 97.669808, 542.000000, 97.669808" fill="rgb(255, 255, 255)" style="fill-opacity:1.00" />
<!-- End 'A' -->
<!-- Begin 'C' -->
<ellipse cx="535.000000" cy="104.383054" rx="25.000000" ry="2.176079" fill="rgb(0, 0, 128)" style="fill-opacity:1.00" />
<ellipse cx="535.000000" cy="104.383054" rx="16.666667" ry="1.450719" fill="rgb(255, 255, 255)" style="fill-opacity:1.00" />
<rect height="2.176079" width="25.000000" x="535.000000" y="103.295015" fill="rgb(255, 255, 255)" style="fill-opacity:1.00" />
<!-- End 'C' -->
<!-- Begin 'G' -->
<ellipse cx="535.000000" cy="107.468684" rx="25.000000" ry="0.909551" fill="rgb(255, 165, 0)" style="fill-opacity:1.00" />
<ellipse cx="535.000000" cy="107.468684" rx="16.666667" ry="0.606367" fill="rgb(255, 255, 255)" style="fill-opacity:1.00" />
<rect height="0.909551" width="25.000000" x="535.000000" y="107.013909" fill="rgb(255, 255, 255)" style="fill-opacity:1.00" />
<rect height="0.227388" width="25.000000" x="535.000000" y="107.696072" fill="rgb(255, 165, 0)" style="fill-opacity:1.00" />
<rect height="0.682163" width="6.250000" x="553.750000" y="107.696072" fill="rgb(255, 165, 0)" style="fill-opacity:1.00" />
<!-- End 'G' -->
<!-- Begin 'T' -->
<rect height="0.259482" width="50.000000" x="510.000000" y="108.378235" fill="rgb(0, 100, 0)" style="fill-opacity:1.00" />
<rect height="1.621765" width="10.000000" x="530.000000" y="108.378235" fill="rgb(0, 100, 0)" style="fill-opacity:1.00" />
<!-- End 'T' -->
<!-- Begin 'T' -->
<rect height="1.575063" width="50.000000" x="570.000000" y="92.293263" fill="rgb(0, 100, 0)" style="fill-opacity:1.00" />
<rect height="9.844146" width="10.000000" x="590.000000" y="92.293263" fill="rgb(0, 100, 0)" style="fill-opacity:1.00" />
<!-- End 'T' -->
<!-- Begin 'G' -->
<ellipse cx="595.000000" cy="104.192157" rx="25.000000" ry="2.054748" fill="rgb(255, 165, 0)" style="fill-opacity:1.00" />
<ellipse cx="595.000000" cy="104.192157" rx="16.666667" ry="1.369832" fill="rgb(255, 255, 255)" style="fill-opacity:1.00" />
<rect height="2.054748" width="25.000000" x="595.000000" y="103.164783" fill="rgb(255, 255, 255)" style="fill-opacity:1.00" />
<rect height="0.513687" width="25.000000" x="595.000000" y="104.705844" fill="rgb(255, 165, 0)" style="fill-opacity:1.00" />
<rect height="1.541061" width="6.250000" x="613.750000" y="104.705844" fill="rgb(255, 165, 0)" style="fill-opacity:1.00" />
<!-- End 'G' -->
<!-- Begin 'C' -->
<ellipse cx="595.000000" cy="107.234761" rx="25.000000" ry="0.987856" fill="rgb(0, 0, 128)" style="fill-opacity:1.00" />
<ellipse cx="595.000000" cy="107.234761" rx="16.666667" ry="0.658571" fill="rgb(255, 255, 255)" style="fill-opacity:1.00" />
<rect height="0.987856" width="25.000000" x="595.000000" y="106.740833" fill="rgb(255, 255, 255)" style="fill-opacity:1.00" />
<!-- End 'C' -->
<!-- Begin 'A' -->
<polygon points=" 570.000000, 110.000000, 591.000000, 108.222617, 599.000000, 108.222617, 620.000000, 110.000000, 612.500000, 110.000000, 606.250000, 109.555654, 583.750000, 109.555654, 577.500000, 110.000000" fill="rgb(178, 34, 34)" style="fill-opacity:1.00" />
<!-- End 'A' -->
<!-- Begin 'G' -->
<ellipse cx="655.000000" cy="76.594897" rx="25.000000" ry="18.356478" fill="rgb(255, 165, 0)" style="fill-opacity:1.00" />
<ellipse cx="655.000000" cy="76.594897" rx="16.666667" ry="12.237652" fill="rgb(255, 255, 255)" style="fill-opacity:1.00" />
<rect height="18.356478" width="25.000000" x="655.000000" y="67.416657" fill="rgb(255, 255, 255)" style="fill-opacity:1.00" />
<rect height="4.589120" width="25.000000" x="655.000000" y="81.184016" fill="rgb(255, 165, 0)" style="fill-opacity:1.00" />
<rect height="13.767359" width="6.250000" x="673.750000" y="81.184016" fill="rgb(255, 165, 0)" style="fill-opacity:1.00" />
<!-- End 'G' -->
<!-- Begin 'A' -->
<polygon points=" 630.000000, 109.257069, 651.000000, 94.951375, 659.000000, 94.951375, 680.000000, 109.257069, 672.500000, 109.257069, 666.250000, 105.680645, 643.750000, 105.680645, 637.500000, 109.257069" fill="rgb(178, 34, 34)" style="fill-opacity:1.00" />
<polygon points=" 655.000000, 97.812513, 647.000000, 102.534791, 662.000000, 102.534791" fill="rgb(255, 255, 255)" style="fill-opacity:1.00" />
<!-- End 'A' -->
<!-- Begin 'T' -->
<rect height="0.083379" width="50.000000" x="630.000000" y="109.257069" fill="rgb(0, 100, 0)" style="fill-opacity:1.00" />
<rect height="0.521119" width="10.000000" x="650.000000" y="109.257069" fill="rgb(0, 100, 0)" style="fill-opacity:1.00" />
<!-- End 'T' -->
<!-- Begin 'C' -->
<ellipse cx="655.000000" cy="109.889094" rx="25.000000" ry="0.110906" fill="rgb(0, 0, 128)" style="fill-opacity:1.00" />
<ellipse cx="655.000000" cy="109.889094" rx="16.666667" ry="0.073937" fill="rgb(255, 255, 255)" style="fill-opacity:1.00" />
<rect height="0.110906" width="25.000000" x="655.000000" y="109.833641" fill="rgb(255, 255, 255)" style="fill-opacity:1.00" />
<!-- End 'C' -->
<!-- Begin 'G' -->
<ellipse cx="715.000000" cy="89.797287" rx="25.000000" ry="10.472600" fill="rgb(255, 165, 0)" style="fill-opacity:1.00" />
<ellipse cx="715.000000" cy="89.797287" rx="16.666667" ry="6.981733" fill="rgb(255, 255, 255)" style="fill-opacity:1.00" />
<rect height="10.472600" width="25.000000" x="715.000000" y="84.560987" fill="rgb(255, 255, 255)" style="fill-opacity:1.00" />
<rect height="2.618150" width="25.000000" x="715.000000" y="92.415437" fill="rgb(255, 165, 0)" style="fill-opacity:1.00" />
<rect height="7.854450" width="6.250000" x="733.750000" y="92.415437" fill="rgb(255, 165, 0)" style="fill-opacity:1.00" />
<!-- End 'G' -->
<!-- Begin 'C' -->
<ellipse cx="715.000000" cy="102.533312" rx="25.000000" ry="2.263425" fill="rgb(0, 0, 128)" style="fill-opacity:1.00" />
<ellipse cx="715.000000" cy="102.533312" rx="16.666667" ry="1.508950" fill="rgb(255, 255, 255)" style="fill-opacity:1.00" />
<rect height="2.263425" width="25.000000" x="715.000000" y="101.401599" fill="rgb(255, 255, 255)" style="fill-opacity:1.00" />
<!-- End 'C' -->
<!-- Begin 'A' -->
<polygon points=" 690.000000, 107.569106, 711.000000, 104.796737, 719.000000, 104.796737, 740.000000, 107.569106, 732.500000, 107.569106, 726.250000, 106.876014, 703.750000, 106.876014, 697.500000, 107.569106" fill="rgb(178, 34, 34)" style="fill-opacity:1.00" />
<!-- End 'A' -->
<!-- Begin 'T' -->
<rect height="0.388943" width="50.000000" x="690.000000" y="107.569106" fill="rgb(0, 100, 0)" style="fill-opacity:1.00" />
<rect height="2.430894" width="10.000000" x="710.000000" y="107.569106" fill="rgb(0, 100, 0)" style="fill-opacity:1.00" />
<!-- End 'T' -->
<!-- Begin 'C' -->
<ellipse cx="775.000000" cy="102.775334" rx="25.000000" ry="1.819409" fill="rgb(0, 0, 128)" style="fill-opacity:1.00" />
<ellipse cx="775.000000" cy="102.775334" rx="16.666667" ry="1.212939" fill="rgb(255, 255, 255)" style="fill-opacity:1.00" />
<rect height="1.819409" width="25.000000" x="775.000000" y="101.865630" fill="rgb(255, 255, 255)" style="fill-opacity:1.00" />
<!-- End 'C' -->
<!-- Begin 'A' -->
<polygon points=" 750.000000, 107.592973, 771.000000, 104.594744, 779.000000, 104.594744, 800.000000, 107.592973, 792.500000, 107.592973, 786.250000, 106.843415, 763.750000, 106.843415, 757.500000, 107.592973" fill="rgb(178, 34, 34)" style="fill-opacity:1.00" />
<!-- End 'A' -->
<!-- Begin 'T' -->
<rect height="0.240095" width="50.000000" x="750.000000" y="107.592973" fill="rgb(0, 100, 0)" style="fill-opacity:1.00" />
<rect height="1.500593" width="10.000000" x="770.000000" y="107.592973" fill="rgb(0, 100, 0)" style="fill-opacity:1.00" />
<!-- End 'T' -->
<!-- Begin 'G' -->
<ellipse cx="775.000000" cy="109.546783" rx="25.000000" ry="0.453217" fill="rgb(255, 165, 0)" style="fill-opacity:1.00" />
<ellipse cx="775.000000" cy="109.546783" rx="16.666667" ry="0.302145" fill="rgb(255, 255, 255)" style="fill-opacity:1.00" />
<rect height="0.453217" width="25.000000" x="775.000000" y="109.320174" fill="rgb(255, 255, 255)" style="fill-opacity:1.00" />
<rect height="0.113304" width="25.000000" x="775.000000" y="109.660087" fill="rgb(255, 165, 0)" style="fill-opacity:1.00" />
<rect height="0.339913" width="6.250000" x="793.750000" y="109.660087" fill="rgb(255, 165, 0)" style="fill-opacity:1.00" />
<!-- End 'G' -->
<!-- Begin 'A' -->
<polygon points=" 810.000000, 99.657668, 831.000000, 85.037739, 839.000000, 85.037739, 860.000000, 99.657668, 852.500000, 99.657668, 846.250000, 96.002686, 823.750000, 96.002686, 817.500000, 99.657668" fill="rgb(178, 34, 34)" style="fill-opacity:1.00" />
<polygon points=" 835.000000, 87.961725, 827.000000, 92.809697, 842.000000, 92.809697" fill="rgb(255, 255, 255)" style="fill-opacity:1.00" />
<!-- End 'A' -->
<!-- Begin 'G' -->
<ellipse cx="835.000000" cy="103.082371" rx="25.000000" ry="3.424702" fill="rgb(255, 165, 0)" style="fill-opacity:1.00" />
<ellipse cx="835.000000" cy="103.082371" rx="16.666667" ry="2.283135" fill="rgb(255, 255, 255)" style="fill-opacity:1.00" />
<rect height="3.424702" width="25.000000" x="835.000000" y="101.370020" fill="rgb(255, 255, 255)" style="fill-opacity:1.00" />
<rect height="0.856176" width="25.000000" x="835.000000" y="103.938546" fill="rgb(255, 165, 0)" style="fill-opacity:1.00" />
<rect height="2.568527" width="6.250000" x="853.750000" y="103.938546" fill="rgb(255, 165, 0)" style="fill-opacity:1.00" />
<!-- End 'G' -->
<!-- Begin 'C' -->
<ellipse cx="835.000000" cy="107.413897" rx="25.000000" ry="0.906824" fill="rgb(0, 0, 128)" style="fill-opacity:1.00" />
<ellipse cx="835.000000" cy="107.413897" rx="16.666667" ry="0.604550" fill="rgb(255, 255, 255)" style="fill-opacity:1.00" />
<rect height="0.906824" width="25.000000" x="835.000000" y="106.960485" fill="rgb(255, 255, 255)" style="fill-opacity:1.00" />
<!-- End 'C' -->
<!-- Begin 'T' -->
<rect height="0.268685" width="50.000000" x="810.000000" y="108.320722" fill="rgb(0, 100, 0)" style="fill-opacity:1.00" />
<rect height="1.679278" width="10.000000" x="830.000000" y="108.320722" fill="rgb(0, 100, 0)" style="fill-opacity:1.00" />
<!-- End 'T' -->
<!-- Begin 'A' -->
<polygon points=" 870.000000, 99.955791, 891.000000, 74.149133, 899.000000, 74.149133, 920.000000, 99.955791, 912.500000, 99.955791, 906.250000, 93.504126, 883.750000, 93.504126, 877.500000, 99.955791" fill="rgb(178, 34, 34)" style="fill-opacity:1.00" />
<polygon points=" 895.000000, 79.310465, 887.000000, 88.633128, 902.000000, 88.633128" fill="rgb(255, 255, 255)" style="fill-opacity:1.00" />
<!-- End 'A' -->
<!-- Begin 'G' -->
<ellipse cx="895.000000" cy="102.328540" rx="25.000000" ry="2.372749" fill="rgb(255, 165, 0)" style="fill-opacity:1.00" />
<ellipse cx="895.000000" cy="102.328540" rx="16.666667" ry="1.581833" fill="rgb(255, 255, 255)" style="fill-opacity:1.00" />
<rect height="2.372749" width="25.000000" x="895.000000" y="101.142165" fill="rgb(255, 255, 255)" style="fill-opacity:1.00" />
<rect height="0.593187" width="25.000000" x="895.000000" y="102.921727" fill="rgb(255, 165, 0)" style="fill-opacity:1.00" />
<rect height="1.779562" width="6.250000" x="913.750000" y="102.921727" fill="rgb(255, 165, 0)" style="fill-opacity:1.00" />
<!-- End 'G' -->
<!-- Begin 'C' -->
<ellipse cx="895.000000" cy="106.053650" rx="25.000000" ry="1.352361" fill="rgb(0, 0, 128)" style="fill-opacity:1.00" />
<ellipse cx="895.000000" cy="106.053650" rx="16.666667" ry="0.901574" fill="rgb(255, 255, 255)" style="fill-opacity:1.00" />
<rect height="1.352361" width="25.000000" x="895.000000" y="105.377469" fill="rgb(255, 255, 255)" style="fill-opacity:1.00" />
<!-- End 'C' -->
<!-- Begin 'T' -->
<rect height="0.415038" width="50.000000" x="870.000000" y="107.406010" fill="rgb(0, 100, 0)" style="fill-opacity:1.00" />
<rect height="2.593990" width="10.000000" x="890.000000" y="107.406010" fill="rgb(0, 100, 0)" style="fill-opacity:1.00" />
<!-- End 'T' -->
<!-- Begin 'C' -->
<ellipse cx="955.000000" cy="93.708291" rx="25.000000" ry="7.416379" fill="rgb(0, 0, 128)" style="fill-opacity:1.00" />
<ellipse cx="955.000000" cy="93.708291" rx="16.666667" ry="4.944253" fill="rgb(255, 255, 255)" style="fill-opacity:1.00" />
<rect height="7.416379" width="25.000000" x="955.000000" y="90.000102" fill="rgb(255, 255, 255)" style="fill-opacity:1.00" />
<!-- End 'C' -->
<!-- Begin 'A' -->
<polygon points=" 930.000000, 104.677675, 951.000000, 101.124671, 959.000000, 101.124671, 980.000000, 104.677675, 972.500000, 104.677675, 966.250000, 103.789424, 943.750000, 103.789424, 937.500000, 104.677675" fill="rgb(178, 34, 34)" style="fill-opacity:1.00" />
<!-- End 'A' -->
<!-- Begin 'T' -->
<rect height="0.559202" width="50.000000" x="930.000000" y="104.677675" fill="rgb(0, 100, 0)" style="fill-opacity:1.00" />
<rect height="3.495015" width="10.000000" x="950.000000" y="104.677675" fill="rgb(0, 100, 0)" style="fill-opacity:1.00" />
<!-- End 'T' -->
<!-- Begin 'G' -->
<ellipse cx="955.000000" cy="109.086345" rx="25.000000" ry="0.913655" fill="rgb(255, 165, 0)" style="fill-opacity:1.00" />
<ellipse cx="955.000000" cy="109.086345" rx="16.666667" ry="0.609103" fill="rgb(255, 255, 255)" style="fill-opacity:1.00" />
<rect height="0.913655" width="25.000000" x="955.000000" y="108.629517" fill="rgb(255, 255, 255)" style="fill-opacity:1.00" />
<rect height="0.228414" width="25.000000" x="955.000000" y="109.314759" fill="rgb(255, 165, 0)" style="fill-opacity:1.00" />
<rect height="0.685241" width="6.250000" x="973.750000" y="109.314759" fill="rgb(255, 165, 0)" style="fill-opacity:1.00" />
<!-- End 'G' -->
<!-- Begin 'A' -->
<polygon points=" 990.000000, 108.225016, 1011.000000, 107.190446, 1019.000000, 107.190446, 1040.000000, 108.225016, 1032.500000, 108.225016, 1026.250000, 107.966374, 1003.750000, 107.966374, 997.500000, 108.225016" fill="rgb(178, 34, 34)" style="fill-opacity:1.00" />
<!-- End 'A' -->
<!-- Begin 'T' -->
<rect height="0.109716" width="50.000000" x="990.000000" y="108.225016" fill="rgb(0, 100, 0)" style="fill-opacity:1.00" />
<rect height="0.685724" width="10.000000" x="1010.000000" y="108.225016" fill="rgb(0, 100, 0)" style="fill-opacity:1.00" />
<!-- End 'T' -->
<!-- Begin 'C' -->
<ellipse cx="1015.000000" cy="109.200890" rx="25.000000" ry="0.290149" fill="rgb(0, 0, 128)" style="fill-opacity:1.00" />
<ellipse cx="1015.000000" cy="109.200890" rx="16.666667" ry="0.193433" fill="rgb(255, 255, 255)" style="fill-opacity:1.00" />
<rect height="0.290149" width="25.000000" x="1015.000000" y="109.055815" fill="rgb(255, 255, 255)" style="fill-opacity:1.00" />
<!-- End 'C' -->
<!-- Begin 'G' -->
<ellipse cx="1015.000000" cy="109.745519" rx="25.000000" ry="0.254481" fill="rgb(255, 165, 0)" style="fill-opacity:1.00" />
<ellipse cx="1015.000000" cy="109.745519" rx="16.666667" ry="0.169654" fill="rgb(255, 255, 255)" style="fill-opacity:1.00" />
<rect height="0.254481" width="25.000000" x="1015.000000" y="109.618279" fill="rgb(255, 255, 255)" style="fill-opacity:1.00" />
<rect height="0.063620" width="25.000000" x="1015.000000" y="109.809140" fill="rgb(255, 165, 0)" style="fill-opacity:1.00" />
<rect height="0.190860" width="6.250000" x="1033.750000" y="109.809140" fill="rgb(255, 165, 0)" style="fill-opacity:1.00" />
<!-- End 'G' -->
<text x="550.000000" y="165">
IC = 7.64
</text>

</svg>
