<?xml version="1.0" encoding="UTF-8" standalone="yes"?>
                 <!DOCTYPE svg PUBLIC "-//W3C//DTD SVG 1.0//EN" "http://www.w3.org/TR/2001/REC-SVG-20010904/DTD/svg10.dtd">
                 <svg height="170" width="600" xmlns="http://www.w3.org/2000/svg" xmlns:xlink="http://www.w3.org/1999/xlink">
                 <line x1="85" y1="120" x2="567" y2="120" style="stroke:rgb(99,99,99);stroke-width:2" />
<rect height="7.000000" width="2.000000" x="85.000000" y="120.000000" fill="rgb(0, 0, 0)" style="fill-opacity:1.00" />
<text x="107.000000" y="140">
1
</text>
<rect height="7.000000" width="2.000000" x="145.000000" y="120.000000" fill="rgb(0, 0, 0)" style="fill-opacity:1.00" />
<text x="167.000000" y="140">
2
</text>
<rect height="7.000000" width="2.000000" x="205.000000" y="120.000000" fill="rgb(0, 0, 0)" style="fill-opacity:1.00" />
<text x="227.000000" y="140">
3
</text>
<rect height="7.000000" width="2.000000" x="265.000000" y="120.000000" fill="rgb(0, 0, 0)" style="fill-opacity:1.00" />
<text x="287.000000" y="140">
4
</text>
<rect height="7.000000" width="2.000000" x="325.000000" y="120.000000" fill="rgb(0, 0, 0)" style="fill-opacity:1.00" />
<text x="347.000000" y="140">
5
</text>
<rect height="7.000000" width="2.000000" x="385.000000" y="120.000000" fill="rgb(0, 0, 0)" style="fill-opacity:1.00" />
<text x="407.000000" y="140">
6
</text>
<rect height="7.000000" width="2.000000" x="445.000000" y="120.000000" fill="rgb(0, 0, 0)" style="fill-opacity:1.00" />
<text x="467.000000" y="140">
7
</text>
<rect height="7.000000" width="2.000000" x="505.000000" y="120.000000" fill="rgb(0, 0, 0)" style="fill-opacity:1.00" />
<text x="527.000000" y="140">
8
</text>
<rect height="7.000000" width="2.000000" x="565.000000" y="120.000000" fill="rgb(0, 0, 0)" style="fill-opacity:1.00" />
<line x1="80" y1="112" x2="80" y2="10" style="stroke:rgb(99,99,99);stroke-width:2" />
<rect height="2.000000" width="7.000000" x="73.000000" y="110.000000" fill="rgb(0, 0, 0)" style="fill-opacity:1.00" />
<text x="63" y="115">
0
</text>
<rect height="2.000000" width="7.000000" x="73.000000" y="60.000000" fill="rgb(0, 0, 0)" style="fill-opacity:1.00" />
<text x="63" y="65">
1
</text>
<rect height="2.000000" width="7.000000" x="73.000000" y="10.000000" fill="rgb(0, 0, 0)" style="fill-opacity:1.00" />
<text x="63" y="15">
2
</text>
<text x="50" y="65"
transform="rotate(-90, 50, 70)">
bits
</text>
<!-- Begin 'T' -->
<rect height="2.454643" width="50.000000" x="90.000000" y="85.313136" fill="rgb(0, 100, 0)" style="fill-opacity:1.00" />
<rect height="15.341519" width="10.000000" x="110.000000" y="85.313136" fill="rgb(0, 100, 0)" style="fill-opacity:1.00" />
<!-- End 'T' -->
<!-- Begin 'G' -->
<ellipse cx="115.000000" cy="103.104180" rx="25.000000" ry="2.449525" fill="rgb(255, 165, 0)" style="fill-opacity:1.00" />
<ellipse cx="115.000000" cy="103.104180" rx="16.666667" ry="1.633016" fill="rgb(255, 255, 255)" style="fill-opacity:1.00" />
<rect height="2.449525" width="25.000000" x="115.000000" y="101.879418" fill="rgb(255, 255, 255)" style="fill-opacity:1.00" />
<rect height="0.612381" width="25.000000" x="115.000000" y="103.716561" fill="rgb(255, 165, 0)" style="fill-opacity:1.00" />
<rect height="1.837144" width="6.250000" x="133.750000" y="103.716561" fill="rgb(255, 165, 0)" style="fill-opacity:1.00" />
<!-- End 'G' -->
<!-- Begin 'C' -->
<ellipse cx="115.000000" cy="106.952517" rx="25.000000" ry="1.398812" fill="rgb(0, 0, 128)" style="fill-opacity:1.00" />
<ellipse cx="115.000000" cy="106.952517" rx="16.666667" ry="0.932541" fill="rgb(255, 255, 255)" style="fill-opacity:1.00" />
<rect height="1.398812" width="25.000000" x="115.000000" y="106.253111" fill="rgb(255, 255, 255)" style="fill-opacity:1.00" />
<!-- End 'C' -->
<!-- Begin 'A' -->
<polygon points=" 90.000000, 110.000000, 111.000000, 108.351329, 119.000000, 108.351329, 140.000000, 110.000000, 132.500000, 110.000000, 126.250000, 109.587832, 103.750000, 109.587832, 97.500000, 110.000000" fill="rgb(178, 34, 34)" style="fill-opacity:1.00" />
<!-- End 'A' -->
<!-- Begin 'C' -->
<ellipse cx="175.000000" cy="64.932691" rx="25.000000" ry="41.968777" fill="rgb(0, 0, 128)" style="fill-opacity:1.00" />
<ellipse cx="175.000000" cy="64.932691" rx="16.666667" ry="27.979185" fill="rgb(255, 255, 255)" style="fill-opacity:1.00" />
<rect height="41.968777" width="25.000000" x="175.000000" y="43.948302" fill="rgb(255, 255, 255)" style="fill-opacity:1.00" />
<!-- End 'C' -->
<!-- Begin 'T' -->
<rect height="0.271851" width="50.000000" x="150.000000" y="106.901468" fill="rgb(0, 100, 0)" style="fill-opacity:1.00" />
<rect height="1.699068" width="10.000000" x="170.000000" y="106.901468" fill="rgb(0, 100, 0)" style="fill-opacity:1.00" />
<!-- End 'T' -->
<!-- Begin 'G' -->
<ellipse cx="175.000000" cy="109.287041" rx="25.000000" ry="0.686505" fill="rgb(255, 165, 0)" style="fill-opacity:1.00" />
<ellipse cx="175.000000" cy="109.287041" rx="16.666667" ry="0.457670" fill="rgb(255, 255, 255)" style="fill-opacity:1.00" />
<rect height="0.686505" width="25.000000" x="175.000000" y="108.943788" fill="rgb(255, 255, 255)" style="fill-opacity:1.00" />
<rect height="0.171626" width="25.000000" x="175.000000" y="109.458667" fill="rgb(255, 165, 0)" style="fill-opacity:1.00" />
<rect height="0.514879" width="6.250000" x="193.750000" y="109.458667" fill="rgb(255, 165, 0)" style="fill-opacity:1.00" />
<!-- End 'G' -->
<!-- Begin 'A' -->
<polygon points=" 150.000000, 110.000000, 171.000000, 109.973546, 179.000000, 109.973546, 200.000000, 110.000000, 192.500000, 110.000000, 186.250000, 109.993387, 163.750000, 109.993387, 157.500000, 110.000000" fill="rgb(178, 34, 34)" style="fill-opacity:1.00" />
<!-- End 'A' -->
<!-- Begin 'T' -->
<rect height="13.190743" width="50.000000" x="210.000000" y="24.090894" fill="rgb(0, 100, 0)" style="fill-opacity:1.00" />
<rect height="82.442144" width="10.000000" x="230.000000" y="24.090894" fill="rgb(0, 100, 0)" style="fill-opacity:1.00" />
<!-- End 'T' -->
<!-- Begin 'A' -->
<polygon points=" 210.000000, 108.983755, 231.000000, 106.533038, 239.000000, 106.533038, 260.000000, 108.983755, 252.500000, 108.983755, 246.250000, 108.371076, 223.750000, 108.371076, 217.500000, 108.983755" fill="rgb(178, 34, 34)" style="fill-opacity:1.00" />
<!-- End 'A' -->
<!-- Begin 'C' -->
<ellipse cx="235.000000" cy="109.473314" rx="25.000000" ry="0.489559" fill="rgb(0, 0, 128)" style="fill-opacity:1.00" />
<ellipse cx="235.000000" cy="109.473314" rx="16.666667" ry="0.326373" fill="rgb(255, 255, 255)" style="fill-opacity:1.00" />
<rect height="0.489559" width="25.000000" x="235.000000" y="109.228534" fill="rgb(255, 255, 255)" style="fill-opacity:1.00" />
<!-- End 'C' -->
<!-- Begin 'G' -->
<ellipse cx="235.000000" cy="109.981436" rx="25.000000" ry="0.018564" fill="rgb(255, 165, 0)" style="fill-opacity:1.00" />
<ellipse cx="235.000000" cy="109.981436" rx="16.666667" ry="0.012376" fill="rgb(255, 255, 255)" style="fill-opacity:1.00" />
<rect height="0.018564" width="25.000000" x="235.000000" y="109.972155" fill="rgb(255, 255, 255)" style="fill-opacity:1.00" />
<rect height="0.004641" width="25.000000" x="235.000000" y="109.986077" fill="rgb(255, 165, 0)" style="fill-opacity:1.00" />
<rect height="0.013923" width="6.250000" x="253.750000" y="109.986077" fill="rgb(255, 165, 0)" style="fill-opacity:1.00" />
<!-- End 'G' -->
<!-- Begin 'G' -->
<ellipse cx="295.000000" cy="90.652927" rx="25.000000" ry="8.667839" fill="rgb(255, 165, 0)" style="fill-opacity:1.00" />
<ellipse cx="295.000000" cy="90.652927" rx="16.666667" ry="5.778560" fill="rgb(255, 255, 255)" style="fill-opacity:1.00" />
<rect height="8.667839" width="25.000000" x="295.000000" y="86.319007" fill="rgb(255, 255, 255)" style="fill-opacity:1.00" />
<rect height="2.166960" width="25.000000" x="295.000000" y="92.819886" fill="rgb(255, 165, 0)" style="fill-opacity:1.00" />
<rect height="6.500880" width="6.250000" x="313.750000" y="92.819886" fill="rgb(255, 165, 0)" style="fill-opacity:1.00" />
<!-- End 'G' -->
<!-- Begin 'C' -->
<ellipse cx="295.000000" cy="102.553981" rx="25.000000" ry="3.233215" fill="rgb(0, 0, 128)" style="fill-opacity:1.00" />
<ellipse cx="295.000000" cy="102.553981" rx="16.666667" ry="2.155477" fill="rgb(255, 255, 255)" style="fill-opacity:1.00" />
<rect height="3.233215" width="25.000000" x="295.000000" y="100.937374" fill="rgb(255, 255, 255)" style="fill-opacity:1.00" />
<!-- End 'C' -->
<!-- Begin 'A' -->
<polygon points=" 270.000000, 109.108608, 291.000000, 105.787196, 299.000000, 105.787196, 320.000000, 109.108608, 312.500000, 109.108608, 306.250000, 108.278255, 283.750000, 108.278255, 277.500000, 109.108608" fill="rgb(178, 34, 34)" style="fill-opacity:1.00" />
<!-- End 'A' -->
<!-- Begin 'T' -->
<rect height="0.142623" width="50.000000" x="270.000000" y="109.108608" fill="rgb(0, 100, 0)" style="fill-opacity:1.00" />
<rect height="0.891392" width="10.000000" x="290.000000" y="109.108608" fill="rgb(0, 100, 0)" style="fill-opacity:1.00" />
<!-- End 'T' -->
<!-- Begin 'T' -->
<rect height="0.295045" width="50.000000" x="330.000000" y="105.174908" fill="rgb(0, 100, 0)" style="fill-opacity:1.00" />
<rect height="1.844033" width="10.000000" x="350.000000" y="105.174908" fill="rgb(0, 100, 0)" style="fill-opacity:1.00" />
<!-- End 'T' -->
<!-- Begin 'A' -->
<polygon points=" 330.000000, 108.214390, 351.000000, 107.018941, 359.000000, 107.018941, 380.000000, 108.214390, 372.500000, 108.214390, 366.250000, 107.915528, 343.750000, 107.915528, 337.500000, 108.214390" fill="rgb(178, 34, 34)" style="fill-opacity:1.00" />
<!-- End 'A' -->
<!-- Begin 'G' -->
<ellipse cx="355.000000" cy="108.799942" rx="25.000000" ry="0.585552" fill="rgb(255, 165, 0)" style="fill-opacity:1.00" />
<ellipse cx="355.000000" cy="108.799942" rx="16.666667" ry="0.390368" fill="rgb(255, 255, 255)" style="fill-opacity:1.00" />
<rect height="0.585552" width="25.000000" x="355.000000" y="108.507166" fill="rgb(255, 255, 255)" style="fill-opacity:1.00" />
<rect height="0.146388" width="25.000000" x="355.000000" y="108.946330" fill="rgb(255, 165, 0)" style="fill-opacity:1.00" />
<rect height="0.439164" width="6.250000" x="373.750000" y="108.946330" fill="rgb(255, 165, 0)" style="fill-opacity:1.00" />
<!-- End 'G' -->
<!-- Begin 'C' -->
<ellipse cx="355.000000" cy="109.692747" rx="25.000000" ry="0.307253" fill="rgb(0, 0, 128)" style="fill-opacity:1.00" />
<ellipse cx="355.000000" cy="109.692747" rx="16.666667" ry="0.204835" fill="rgb(255, 255, 255)" style="fill-opacity:1.00" />
<rect height="0.307253" width="25.000000" x="355.000000" y="109.539121" fill="rgb(255, 255, 255)" style="fill-opacity:1.00" />
<!-- End 'C' -->
<!-- Begin 'C' -->
<ellipse cx="415.000000" cy="68.312779" rx="25.000000" ry="36.351982" fill="rgb(0, 0, 128)" style="fill-opacity:1.00" />
<ellipse cx="415.000000" cy="68.312779" rx="16.666667" ry="24.234655" fill="rgb(255, 255, 255)" style="fill-opacity:1.00" />
<rect height="36.351982" width="25.000000" x="415.000000" y="50.136788" fill="rgb(255, 255, 255)" style="fill-opacity:1.00" />
<!-- End 'C' -->
<!-- Begin 'G' -->
<ellipse cx="415.000000" cy="106.555306" rx="25.000000" ry="1.890545" fill="rgb(255, 165, 0)" style="fill-opacity:1.00" />
<ellipse cx="415.000000" cy="106.555306" rx="16.666667" ry="1.260363" fill="rgb(255, 255, 255)" style="fill-opacity:1.00" />
<rect height="1.890545" width="25.000000" x="415.000000" y="105.610034" fill="rgb(255, 255, 255)" style="fill-opacity:1.00" />
<rect height="0.472636" width="25.000000" x="415.000000" y="107.027942" fill="rgb(255, 165, 0)" style="fill-opacity:1.00" />
<rect height="1.417908" width="6.250000" x="433.750000" y="107.027942" fill="rgb(255, 165, 0)" style="fill-opacity:1.00" />
<!-- End 'G' -->
<!-- Begin 'A' -->
<polygon points=" 390.000000, 109.229637, 411.000000, 108.445850, 419.000000, 108.445850, 440.000000, 109.229637, 432.500000, 109.229637, 426.250000, 109.033691, 403.750000, 109.033691, 397.500000, 109.229637" fill="rgb(178, 34, 34)" style="fill-opacity:1.00" />
<!-- End 'A' -->
<!-- Begin 'T' -->
<rect height="0.123258" width="50.000000" x="390.000000" y="109.229637" fill="rgb(0, 100, 0)" style="fill-opacity:1.00" />
<rect height="0.770363" width="10.000000" x="410.000000" y="109.229637" fill="rgb(0, 100, 0)" style="fill-opacity:1.00" />
<!-- End 'T' -->
<!-- Begin 'A' -->
<polygon points=" 450.000000, 100.294590, 471.000000, 84.405391, 479.000000, 84.405391, 500.000000, 100.294590, 492.500000, 100.294590, 486.250000, 96.322291, 463.750000, 96.322291, 457.500000, 100.294590" fill="rgb(178, 34, 34)" style="fill-opacity:1.00" />
<polygon points=" 475.000000, 87.583231, 467.000000, 92.938911, 482.000000, 92.938911" fill="rgb(255, 255, 255)" style="fill-opacity:1.00" />
<!-- End 'A' -->
<!-- Begin 'T' -->
<rect height="0.902346" width="50.000000" x="450.000000" y="100.294590" fill="rgb(0, 100, 0)" style="fill-opacity:1.00" />
<rect height="5.639663" width="10.000000" x="470.000000" y="100.294590" fill="rgb(0, 100, 0)" style="fill-opacity:1.00" />
<!-- End 'T' -->
<!-- Begin 'G' -->
<ellipse cx="475.000000" cy="106.991970" rx="25.000000" ry="1.057717" fill="rgb(255, 165, 0)" style="fill-opacity:1.00" />
<ellipse cx="475.000000" cy="106.991970" rx="16.666667" ry="0.705145" fill="rgb(255, 255, 255)" style="fill-opacity:1.00" />
<rect height="1.057717" width="25.000000" x="475.000000" y="106.463112" fill="rgb(255, 255, 255)" style="fill-opacity:1.00" />
<rect height="0.264429" width="25.000000" x="475.000000" y="107.256400" fill="rgb(255, 165, 0)" style="fill-opacity:1.00" />
<rect height="0.793288" width="6.250000" x="493.750000" y="107.256400" fill="rgb(255, 165, 0)" style="fill-opacity:1.00" />
<!-- End 'G' -->
<!-- Begin 'C' -->
<ellipse cx="475.000000" cy="109.024844" rx="25.000000" ry="0.975156" fill="rgb(0, 0, 128)" style="fill-opacity:1.00" />
<ellipse cx="475.000000" cy="109.024844" rx="16.666667" ry="0.650104" fill="rgb(255, 255, 255)" style="fill-opacity:1.00" />
<rect height="0.975156" width="25.000000" x="475.000000" y="108.537266" fill="rgb(255, 255, 255)" style="fill-opacity:1.00" />
<!-- End 'C' -->
<!-- Begin 'C' -->
<ellipse cx="535.000000" cy="88.931879" rx="25.000000" ry="9.669891" fill="rgb(0, 0, 128)" style="fill-opacity:1.00" />
<ellipse cx="535.000000" cy="88.931879" rx="16.666667" ry="6.446594" fill="rgb(255, 255, 255)" style="fill-opacity:1.00" />
<rect height="9.669891" width="25.000000" x="535.000000" y="84.096933" fill="rgb(255, 255, 255)" style="fill-opacity:1.00" />
<!-- End 'C' -->
<!-- Begin 'G' -->
<ellipse cx="535.000000" cy="102.500571" rx="25.000000" ry="3.898801" fill="rgb(255, 165, 0)" style="fill-opacity:1.00" />
<ellipse cx="535.000000" cy="102.500571" rx="16.666667" ry="2.599201" fill="rgb(255, 255, 255)" style="fill-opacity:1.00" />
<rect height="3.898801" width="25.000000" x="535.000000" y="100.551170" fill="rgb(255, 255, 255)" style="fill-opacity:1.00" />
<rect height="0.974700" width="25.000000" x="535.000000" y="103.475271" fill="rgb(255, 165, 0)" style="fill-opacity:1.00" />
<rect height="2.924101" width="6.250000" x="553.750000" y="103.475271" fill="rgb(255, 165, 0)" style="fill-opacity:1.00" />
<!-- End 'G' -->
<!-- Begin 'T' -->
<rect height="0.414614" width="50.000000" x="510.000000" y="106.399372" fill="rgb(0, 100, 0)" style="fill-opacity:1.00" />
<rect height="2.591338" width="10.000000" x="530.000000" y="106.399372" fill="rgb(0, 100, 0)" style="fill-opacity:1.00" />
<!-- End 'T' -->
<!-- Begin 'A' -->
<polygon points=" 510.000000, 110.000000, 531.000000, 108.990710, 539.000000, 108.990710, 560.000000, 110.000000, 552.500000, 110.000000, 546.250000, 109.747678, 523.750000, 109.747678, 517.500000, 110.000000" fill="rgb(178, 34, 34)" style="fill-opacity:1.00" />
<!-- End 'A' -->
<text x="310.000000" y="165">
IC = 7.30
</text>

</svg>
