<?xml version="1.0" encoding="UTF-8" standalone="yes"?>
                 <!DOCTYPE svg PUBLIC "-//W3C//DTD SVG 1.0//EN" "http://www.w3.org/TR/2001/REC-SVG-20010904/DTD/svg10.dtd">
                 <svg height="170" width="1020" xmlns="http://www.w3.org/2000/svg" xmlns:xlink="http://www.w3.org/1999/xlink">
                 <line x1="85" y1="120" x2="987" y2="120" style="stroke:rgb(99,99,99);stroke-width:2" />
<rect height="7.000000" width="2.000000" x="85.000000" y="120.000000" fill="rgb(0, 0, 0)" style="fill-opacity:1.00" />
<text x="107.000000" y="140">
1
</text>
<rect height="7.000000" width="2.000000" x="145.000000" y="120.000000" fill="rgb(0, 0, 0)" style="fill-opacity:1.00" />
<text x="167.000000" y="140">
2
</text>
<rect height="7.000000" width="2.000000" x="205.000000" y="120.000000" fill="rgb(0, 0, 0)" style="fill-opacity:1.00" />
<text x="227.000000" y="140">
3
</text>
<rect height="7.000000" width="2.000000" x="265.000000" y="120.000000" fill="rgb(0, 0, 0)" style="fill-opacity:1.00" />
<text x="287.000000" y="140">
4
</text>
<rect height="7.000000" width="2.000000" x="325.000000" y="120.000000" fill="rgb(0, 0, 0)" style="fill-opacity:1.00" />
<text x="347.000000" y="140">
5
</text>
<rect height="7.000000" width="2.000000" x="385.000000" y="120.000000" fill="rgb(0, 0, 0)" style="fill-opacity:1.00" />
<text x="407.000000" y="140">
6
</text>
<rect height="7.000000" width="2.000000" x="445.000000" y="120.000000" fill="rgb(0, 0, 0)" style="fill-opacity:1.00" />
<text x="467.000000" y="140">
7
</text>
<rect height="7.000000" width="2.000000" x="505.000000" y="120.000000" fill="rgb(0, 0, 0)" style="fill-opacity:1.00" />
<text x="527.000000" y="140">
8
</text>
<rect height="7.000000" width="2.000000" x="565.000000" y="120.000000" fill="rgb(0, 0, 0)" style="fill-opacity:1.00" />
<text x="587.000000" y="140">
9
</text>
<rect height="7.000000" width="2.000000" x="625.000000" y="120.000000" fill="rgb(0, 0, 0)" style="fill-opacity:1.00" />
<text x="647.000000" y="140">
10
</text>
<rect height="7.000000" width="2.000000" x="685.000000" y="120.000000" fill="rgb(0, 0, 0)" style="fill-opacity:1.00" />
<text x="707.000000" y="140">
11
</text>
<rect height="7.000000" width="2.000000" x="745.000000" y="120.000000" fill="rgb(0, 0, 0)" style="fill-opacity:1.00" />
<text x="767.000000" y="140">
12
</text>
<rect height="7.000000" width="2.000000" x="805.000000" y="120.000000" fill="rgb(0, 0, 0)" style="fill-opacity:1.00" />
<text x="827.000000" y="140">
13
</text>
<rect height="7.000000" width="2.000000" x="865.000000" y="120.000000" fill="rgb(0, 0, 0)" style="fill-opacity:1.00" />
<text x="887.000000" y="140">
14
</text>
<rect height="7.000000" width="2.000000" x="925.000000" y="120.000000" fill="rgb(0, 0, 0)" style="fill-opacity:1.00" />
<text x="947.000000" y="140">
15
</text>
<rect height="7.000000" width="2.000000" x="985.000000" y="120.000000" fill="rgb(0, 0, 0)" style="fill-opacity:1.00" />
<line x1="80" y1="112" x2="80" y2="10" style="stroke:rgb(99,99,99);stroke-width:2" />
<rect height="2.000000" width="7.000000" x="73.000000" y="110.000000" fill="rgb(0, 0, 0)" style="fill-opacity:1.00" />
<text x="63" y="115">
0
</text>
<rect height="2.000000" width="7.000000" x="73.000000" y="60.000000" fill="rgb(0, 0, 0)" style="fill-opacity:1.00" />
<text x="63" y="65">
1
</text>
<rect height="2.000000" width="7.000000" x="73.000000" y="10.000000" fill="rgb(0, 0, 0)" style="fill-opacity:1.00" />
<text x="63" y="15">
2
</text>
<text x="50" y="65"
transform="rotate(-90, 50, 70)">
bits
</text>
<!-- Begin 'A' -->
<polygon points=" 90.000000, 106.425602, 111.000000, 104.219069, 119.000000, 104.219069, 140.000000, 106.425602, 132.500000, 106.425602, 126.250000, 105.873968, 103.750000, 105.873968, 97.500000, 106.425602" fill="rgb(178, 34, 34)" style="fill-opacity:1.00" />
<!-- End 'A' -->
<!-- Begin 'G' -->
<ellipse cx="115.000000" cy="107.251073" rx="25.000000" ry="0.825471" fill="rgb(255, 165, 0)" style="fill-opacity:1.00" />
<ellipse cx="115.000000" cy="107.251073" rx="16.666667" ry="0.550314" fill="rgb(255, 255, 255)" style="fill-opacity:1.00" />
<rect height="0.825471" width="25.000000" x="115.000000" y="106.838337" fill="rgb(255, 255, 255)" style="fill-opacity:1.00" />
<rect height="0.206368" width="25.000000" x="115.000000" y="107.457441" fill="rgb(255, 165, 0)" style="fill-opacity:1.00" />
<rect height="0.619104" width="6.250000" x="133.750000" y="107.457441" fill="rgb(255, 165, 0)" style="fill-opacity:1.00" />
<!-- End 'G' -->
<!-- Begin 'C' -->
<ellipse cx="115.000000" cy="108.705959" rx="25.000000" ry="0.629415" fill="rgb(0, 0, 128)" style="fill-opacity:1.00" />
<ellipse cx="115.000000" cy="108.705959" rx="16.666667" ry="0.419610" fill="rgb(255, 255, 255)" style="fill-opacity:1.00" />
<rect height="0.629415" width="25.000000" x="115.000000" y="108.391252" fill="rgb(255, 255, 255)" style="fill-opacity:1.00" />
<!-- End 'C' -->
<!-- Begin 'T' -->
<rect height="0.106340" width="50.000000" x="90.000000" y="109.335374" fill="rgb(0, 100, 0)" style="fill-opacity:1.00" />
<rect height="0.664626" width="10.000000" x="110.000000" y="109.335374" fill="rgb(0, 100, 0)" style="fill-opacity:1.00" />
<!-- End 'T' -->
<!-- Begin 'A' -->
<polygon points=" 150.000000, 107.234994, 171.000000, 105.437679, 179.000000, 105.437679, 200.000000, 107.234994, 192.500000, 107.234994, 186.250000, 106.785665, 163.750000, 106.785665, 157.500000, 107.234994" fill="rgb(178, 34, 34)" style="fill-opacity:1.00" />
<!-- End 'A' -->
<!-- Begin 'C' -->
<ellipse cx="175.000000" cy="107.834578" rx="25.000000" ry="0.599585" fill="rgb(0, 0, 128)" style="fill-opacity:1.00" />
<ellipse cx="175.000000" cy="107.834578" rx="16.666667" ry="0.399723" fill="rgb(255, 255, 255)" style="fill-opacity:1.00" />
<rect height="0.599585" width="25.000000" x="175.000000" y="107.534786" fill="rgb(255, 255, 255)" style="fill-opacity:1.00" />
<!-- End 'C' -->
<!-- Begin 'T' -->
<rect height="0.127769" width="50.000000" x="150.000000" y="108.434163" fill="rgb(0, 100, 0)" style="fill-opacity:1.00" />
<rect height="0.798554" width="10.000000" x="170.000000" y="108.434163" fill="rgb(0, 100, 0)" style="fill-opacity:1.00" />
<!-- End 'T' -->
<!-- Begin 'G' -->
<ellipse cx="175.000000" cy="109.616358" rx="25.000000" ry="0.383642" fill="rgb(255, 165, 0)" style="fill-opacity:1.00" />
<ellipse cx="175.000000" cy="109.616358" rx="16.666667" ry="0.255761" fill="rgb(255, 255, 255)" style="fill-opacity:1.00" />
<rect height="0.383642" width="25.000000" x="175.000000" y="109.424538" fill="rgb(255, 255, 255)" style="fill-opacity:1.00" />
<rect height="0.095910" width="25.000000" x="175.000000" y="109.712269" fill="rgb(255, 165, 0)" style="fill-opacity:1.00" />
<rect height="0.287731" width="6.250000" x="193.750000" y="109.712269" fill="rgb(255, 165, 0)" style="fill-opacity:1.00" />
<!-- End 'G' -->
<!-- Begin 'A' -->
<polygon points=" 210.000000, 106.566955, 231.000000, 104.136647, 239.000000, 104.136647, 260.000000, 106.566955, 252.500000, 106.566955, 246.250000, 105.959378, 223.750000, 105.959378, 217.500000, 106.566955" fill="rgb(178, 34, 34)" style="fill-opacity:1.00" />
<!-- End 'A' -->
<!-- Begin 'C' -->
<ellipse cx="235.000000" cy="107.332035" rx="25.000000" ry="0.765079" fill="rgb(0, 0, 128)" style="fill-opacity:1.00" />
<ellipse cx="235.000000" cy="107.332035" rx="16.666667" ry="0.510053" fill="rgb(255, 255, 255)" style="fill-opacity:1.00" />
<rect height="0.765079" width="25.000000" x="235.000000" y="106.949495" fill="rgb(255, 255, 255)" style="fill-opacity:1.00" />
<!-- End 'C' -->
<!-- Begin 'T' -->
<rect height="0.162780" width="50.000000" x="210.000000" y="108.097114" fill="rgb(0, 100, 0)" style="fill-opacity:1.00" />
<rect height="1.017373" width="10.000000" x="230.000000" y="108.097114" fill="rgb(0, 100, 0)" style="fill-opacity:1.00" />
<!-- End 'T' -->
<!-- Begin 'G' -->
<ellipse cx="235.000000" cy="109.557244" rx="25.000000" ry="0.442756" fill="rgb(255, 165, 0)" style="fill-opacity:1.00" />
<ellipse cx="235.000000" cy="109.557244" rx="16.666667" ry="0.295171" fill="rgb(255, 255, 255)" style="fill-opacity:1.00" />
<rect height="0.442756" width="25.000000" x="235.000000" y="109.335865" fill="rgb(255, 255, 255)" style="fill-opacity:1.00" />
<rect height="0.110689" width="25.000000" x="235.000000" y="109.667933" fill="rgb(255, 165, 0)" style="fill-opacity:1.00" />
<rect height="0.332067" width="6.250000" x="253.750000" y="109.667933" fill="rgb(255, 165, 0)" style="fill-opacity:1.00" />
<!-- End 'G' -->
<!-- Begin 'T' -->
<rect height="1.004978" width="50.000000" x="270.000000" y="96.139808" fill="rgb(0, 100, 0)" style="fill-opacity:1.00" />
<rect height="6.281115" width="10.000000" x="290.000000" y="96.139808" fill="rgb(0, 100, 0)" style="fill-opacity:1.00" />
<!-- End 'T' -->
<!-- Begin 'C' -->
<ellipse cx="295.000000" cy="104.718542" rx="25.000000" ry="2.297620" fill="rgb(0, 0, 128)" style="fill-opacity:1.00" />
<ellipse cx="295.000000" cy="104.718542" rx="16.666667" ry="1.531747" fill="rgb(255, 255, 255)" style="fill-opacity:1.00" />
<rect height="2.297620" width="25.000000" x="295.000000" y="103.569732" fill="rgb(255, 255, 255)" style="fill-opacity:1.00" />
<!-- End 'C' -->
<!-- Begin 'G' -->
<ellipse cx="295.000000" cy="107.992116" rx="25.000000" ry="0.975954" fill="rgb(255, 165, 0)" style="fill-opacity:1.00" />
<ellipse cx="295.000000" cy="107.992116" rx="16.666667" ry="0.650636" fill="rgb(255, 255, 255)" style="fill-opacity:1.00" />
<rect height="0.975954" width="25.000000" x="295.000000" y="107.504139" fill="rgb(255, 255, 255)" style="fill-opacity:1.00" />
<rect height="0.243988" width="25.000000" x="295.000000" y="108.236105" fill="rgb(255, 165, 0)" style="fill-opacity:1.00" />
<rect height="0.731965" width="6.250000" x="313.750000" y="108.236105" fill="rgb(255, 165, 0)" style="fill-opacity:1.00" />
<!-- End 'G' -->
<!-- Begin 'A' -->
<polygon points=" 270.000000, 110.000000, 291.000000, 108.968070, 299.000000, 108.968070, 320.000000, 110.000000, 312.500000, 110.000000, 306.250000, 109.742018, 283.750000, 109.742018, 277.500000, 110.000000" fill="rgb(178, 34, 34)" style="fill-opacity:1.00" />
<!-- End 'A' -->
<!-- Begin 'G' -->
<ellipse cx="355.000000" cy="103.774278" rx="25.000000" ry="1.728791" fill="rgb(255, 165, 0)" style="fill-opacity:1.00" />
<ellipse cx="355.000000" cy="103.774278" rx="16.666667" ry="1.152527" fill="rgb(255, 255, 255)" style="fill-opacity:1.00" />
<rect height="1.728791" width="25.000000" x="355.000000" y="102.909882" fill="rgb(255, 255, 255)" style="fill-opacity:1.00" />
<rect height="0.432198" width="25.000000" x="355.000000" y="104.206475" fill="rgb(255, 165, 0)" style="fill-opacity:1.00" />
<rect height="1.296593" width="6.250000" x="373.750000" y="104.206475" fill="rgb(255, 165, 0)" style="fill-opacity:1.00" />
<!-- End 'G' -->
<!-- Begin 'C' -->
<ellipse cx="355.000000" cy="106.563133" rx="25.000000" ry="1.060065" fill="rgb(0, 0, 128)" style="fill-opacity:1.00" />
<ellipse cx="355.000000" cy="106.563133" rx="16.666667" ry="0.706710" fill="rgb(255, 255, 255)" style="fill-opacity:1.00" />
<rect height="1.060065" width="25.000000" x="355.000000" y="106.033101" fill="rgb(255, 255, 255)" style="fill-opacity:1.00" />
<!-- End 'C' -->
<!-- Begin 'T' -->
<rect height="0.230000" width="50.000000" x="330.000000" y="107.623198" fill="rgb(0, 100, 0)" style="fill-opacity:1.00" />
<rect height="1.437502" width="10.000000" x="350.000000" y="107.623198" fill="rgb(0, 100, 0)" style="fill-opacity:1.00" />
<!-- End 'T' -->
<!-- Begin 'A' -->
<polygon points=" 330.000000, 110.000000, 351.000000, 109.060700, 359.000000, 109.060700, 380.000000, 110.000000, 372.500000, 110.000000, 366.250000, 109.765175, 343.750000, 109.765175, 337.500000, 110.000000" fill="rgb(178, 34, 34)" style="fill-opacity:1.00" />
<!-- End 'A' -->
<!-- Begin 'G' -->
<ellipse cx="415.000000" cy="96.005354" rx="25.000000" ry="4.621325" fill="rgb(255, 165, 0)" style="fill-opacity:1.00" />
<ellipse cx="415.000000" cy="96.005354" rx="16.666667" ry="3.080883" fill="rgb(255, 255, 255)" style="fill-opacity:1.00" />
<rect height="4.621325" width="25.000000" x="415.000000" y="93.694692" fill="rgb(255, 255, 255)" style="fill-opacity:1.00" />
<rect height="1.155331" width="25.000000" x="415.000000" y="97.160685" fill="rgb(255, 165, 0)" style="fill-opacity:1.00" />
<rect height="3.465994" width="6.250000" x="433.750000" y="97.160685" fill="rgb(255, 165, 0)" style="fill-opacity:1.00" />
<!-- End 'G' -->
<!-- Begin 'A' -->
<polygon points=" 390.000000, 106.398393, 411.000000, 100.626679, 419.000000, 100.626679, 440.000000, 106.398393, 432.500000, 106.398393, 426.250000, 104.955465, 403.750000, 104.955465, 397.500000, 106.398393" fill="rgb(178, 34, 34)" style="fill-opacity:1.00" />
<!-- End 'A' -->
<!-- Begin 'C' -->
<ellipse cx="415.000000" cy="107.819081" rx="25.000000" ry="1.420687" fill="rgb(0, 0, 128)" style="fill-opacity:1.00" />
<ellipse cx="415.000000" cy="107.819081" rx="16.666667" ry="0.947125" fill="rgb(255, 255, 255)" style="fill-opacity:1.00" />
<rect height="1.420687" width="25.000000" x="415.000000" y="107.108737" fill="rgb(255, 255, 255)" style="fill-opacity:1.00" />
<!-- End 'C' -->
<!-- Begin 'T' -->
<rect height="0.121637" width="50.000000" x="390.000000" y="109.239768" fill="rgb(0, 100, 0)" style="fill-opacity:1.00" />
<rect height="0.760232" width="10.000000" x="410.000000" y="109.239768" fill="rgb(0, 100, 0)" style="fill-opacity:1.00" />
<!-- End 'T' -->
<!-- Begin 'A' -->
<polygon points=" 450.000000, 96.990616, 471.000000, 79.743513, 479.000000, 79.743513, 500.000000, 96.990616, 492.500000, 96.990616, 486.250000, 92.678840, 463.750000, 92.678840, 457.500000, 96.990616" fill="rgb(178, 34, 34)" style="fill-opacity:1.00" />
<polygon points=" 475.000000, 83.192934, 467.000000, 89.091775, 482.000000, 89.091775" fill="rgb(255, 255, 255)" style="fill-opacity:1.00" />
<!-- End 'A' -->
<!-- Begin 'G' -->
<ellipse cx="475.000000" cy="102.072503" rx="25.000000" ry="5.081887" fill="rgb(255, 165, 0)" style="fill-opacity:1.00" />
<ellipse cx="475.000000" cy="102.072503" rx="16.666667" ry="3.387925" fill="rgb(255, 255, 255)" style="fill-opacity:1.00" />
<rect height="5.081887" width="25.000000" x="475.000000" y="99.531559" fill="rgb(255, 255, 255)" style="fill-opacity:1.00" />
<rect height="1.270472" width="25.000000" x="475.000000" y="103.342974" fill="rgb(255, 165, 0)" style="fill-opacity:1.00" />
<rect height="3.811415" width="6.250000" x="493.750000" y="103.342974" fill="rgb(255, 165, 0)" style="fill-opacity:1.00" />
<!-- End 'G' -->
<!-- Begin 'T' -->
<rect height="0.317395" width="50.000000" x="450.000000" y="107.154389" fill="rgb(0, 100, 0)" style="fill-opacity:1.00" />
<rect height="1.983719" width="10.000000" x="470.000000" y="107.154389" fill="rgb(0, 100, 0)" style="fill-opacity:1.00" />
<!-- End 'T' -->
<!-- Begin 'C' -->
<ellipse cx="475.000000" cy="109.569054" rx="25.000000" ry="0.430946" fill="rgb(0, 0, 128)" style="fill-opacity:1.00" />
<ellipse cx="475.000000" cy="109.569054" rx="16.666667" ry="0.287297" fill="rgb(255, 255, 255)" style="fill-opacity:1.00" />
<rect height="0.430946" width="25.000000" x="475.000000" y="109.353581" fill="rgb(255, 255, 255)" style="fill-opacity:1.00" />
<!-- End 'C' -->
<!-- Begin 'C' -->
<ellipse cx="535.000000" cy="62.007831" rx="25.000000" ry="46.984289" fill="rgb(0, 0, 128)" style="fill-opacity:1.00" />
<ellipse cx="535.000000" cy="62.007831" rx="16.666667" ry="31.322860" fill="rgb(255, 255, 255)" style="fill-opacity:1.00" />
<rect height="46.984289" width="25.000000" x="535.000000" y="38.515687" fill="rgb(255, 255, 255)" style="fill-opacity:1.00" />
<!-- End 'C' -->
<!-- Begin 'T' -->
<rect height="0.082116" width="50.000000" x="510.000000" y="108.992121" fill="rgb(0, 100, 0)" style="fill-opacity:1.00" />
<rect height="0.513224" width="10.000000" x="530.000000" y="108.992121" fill="rgb(0, 100, 0)" style="fill-opacity:1.00" />
<!-- End 'T' -->
<!-- Begin 'A' -->
<polygon points=" 510.000000, 109.804996, 531.000000, 109.505344, 539.000000, 109.505344, 560.000000, 109.804996, 552.500000, 109.804996, 546.250000, 109.730083, 523.750000, 109.730083, 517.500000, 109.804996" fill="rgb(178, 34, 34)" style="fill-opacity:1.00" />
<!-- End 'A' -->
<!-- Begin 'G' -->
<ellipse cx="535.000000" cy="109.902498" rx="25.000000" ry="0.097502" fill="rgb(255, 165, 0)" style="fill-opacity:1.00" />
<ellipse cx="535.000000" cy="109.902498" rx="16.666667" ry="0.065001" fill="rgb(255, 255, 255)" style="fill-opacity:1.00" />
<rect height="0.097502" width="25.000000" x="535.000000" y="109.853747" fill="rgb(255, 255, 255)" style="fill-opacity:1.00" />
<rect height="0.024375" width="25.000000" x="535.000000" y="109.926874" fill="rgb(255, 165, 0)" style="fill-opacity:1.00" />
<rect height="0.073126" width="6.250000" x="553.750000" y="109.926874" fill="rgb(255, 165, 0)" style="fill-opacity:1.00" />
<!-- End 'G' -->
<!-- Begin 'C' -->
<ellipse cx="595.000000" cy="63.150665" rx="25.000000" ry="45.155940" fill="rgb(0, 0, 128)" style="fill-opacity:1.00" />
<ellipse cx="595.000000" cy="63.150665" rx="16.666667" ry="30.103960" fill="rgb(255, 255, 255)" style="fill-opacity:1.00" />
<rect height="45.155940" width="25.000000" x="595.000000" y="40.572695" fill="rgb(255, 255, 255)" style="fill-opacity:1.00" />
<!-- End 'C' -->
<!-- Begin 'A' -->
<polygon points=" 570.000000, 109.060101, 591.000000, 108.306605, 599.000000, 108.306605, 620.000000, 109.060101, 612.500000, 109.060101, 606.250000, 108.871727, 583.750000, 108.871727, 577.500000, 109.060101" fill="rgb(178, 34, 34)" style="fill-opacity:1.00" />
<!-- End 'A' -->
<!-- Begin 'T' -->
<rect height="0.101988" width="50.000000" x="570.000000" y="109.060101" fill="rgb(0, 100, 0)" style="fill-opacity:1.00" />
<rect height="0.637423" width="10.000000" x="590.000000" y="109.060101" fill="rgb(0, 100, 0)" style="fill-opacity:1.00" />
<!-- End 'T' -->
<!-- Begin 'G' -->
<ellipse cx="595.000000" cy="109.848762" rx="25.000000" ry="0.151238" fill="rgb(255, 165, 0)" style="fill-opacity:1.00" />
<ellipse cx="595.000000" cy="109.848762" rx="16.666667" ry="0.100825" fill="rgb(255, 255, 255)" style="fill-opacity:1.00" />
<rect height="0.151238" width="25.000000" x="595.000000" y="109.773143" fill="rgb(255, 255, 255)" style="fill-opacity:1.00" />
<rect height="0.037810" width="25.000000" x="595.000000" y="109.886571" fill="rgb(255, 165, 0)" style="fill-opacity:1.00" />
<rect height="0.113429" width="6.250000" x="613.750000" y="109.886571" fill="rgb(255, 165, 0)" style="fill-opacity:1.00" />
<!-- End 'G' -->
<!-- Begin 'A' -->
<polygon points=" 630.000000, 108.763237, 651.000000, 15.870354, 659.000000, 15.870354, 680.000000, 108.763237, 672.500000, 108.763237, 666.250000, 85.540016, 643.750000, 85.540016, 637.500000, 108.763237" fill="rgb(178, 34, 34)" style="fill-opacity:1.00" />
<polygon points=" 655.000000, 34.448930, 647.000000, 70.606084, 662.000000, 70.606084" fill="rgb(255, 255, 255)" style="fill-opacity:1.00" />
<!-- End 'A' -->
<!-- Begin 'T' -->
<rect height="0.131385" width="50.000000" x="630.000000" y="108.763237" fill="rgb(0, 100, 0)" style="fill-opacity:1.00" />
<rect height="0.821155" width="10.000000" x="650.000000" y="108.763237" fill="rgb(0, 100, 0)" style="fill-opacity:1.00" />
<!-- End 'T' -->
<!-- Begin 'C' -->
<ellipse cx="655.000000" cy="109.702262" rx="25.000000" ry="0.117870" fill="rgb(0, 0, 128)" style="fill-opacity:1.00" />
<ellipse cx="655.000000" cy="109.702262" rx="16.666667" ry="0.078580" fill="rgb(255, 255, 255)" style="fill-opacity:1.00" />
<rect height="0.117870" width="25.000000" x="655.000000" y="109.643327" fill="rgb(255, 255, 255)" style="fill-opacity:1.00" />
<!-- End 'C' -->
<!-- Begin 'G' -->
<ellipse cx="655.000000" cy="109.910066" rx="25.000000" ry="0.089934" fill="rgb(255, 165, 0)" style="fill-opacity:1.00" />
<ellipse cx="655.000000" cy="109.910066" rx="16.666667" ry="0.059956" fill="rgb(255, 255, 255)" style="fill-opacity:1.00" />
<rect height="0.089934" width="25.000000" x="655.000000" y="109.865099" fill="rgb(255, 255, 255)" style="fill-opacity:1.00" />
<rect height="0.022483" width="25.000000" x="655.000000" y="109.932550" fill="rgb(255, 165, 0)" style="fill-opacity:1.00" />
<rect height="0.067450" width="6.250000" x="673.750000" y="109.932550" fill="rgb(255, 165, 0)" style="fill-opacity:1.00" />
<!-- End 'G' -->
<!-- Begin 'A' -->
<polygon points=" 690.000000, 106.122271, 711.000000, 26.189992, 719.000000, 26.189992, 740.000000, 106.122271, 732.500000, 106.122271, 726.250000, 86.139201, 703.750000, 86.139201, 697.500000, 106.122271" fill="rgb(178, 34, 34)" style="fill-opacity:1.00" />
<polygon points=" 715.000000, 42.176448, 707.000000, 73.149360, 722.000000, 73.149360" fill="rgb(255, 255, 255)" style="fill-opacity:1.00" />
<!-- End 'A' -->
<!-- Begin 'G' -->
<ellipse cx="715.000000" cy="107.365508" rx="25.000000" ry="1.243237" fill="rgb(255, 165, 0)" style="fill-opacity:1.00" />
<ellipse cx="715.000000" cy="107.365508" rx="16.666667" ry="0.828825" fill="rgb(255, 255, 255)" style="fill-opacity:1.00" />
<rect height="1.243237" width="25.000000" x="715.000000" y="106.743889" fill="rgb(255, 255, 255)" style="fill-opacity:1.00" />
<rect height="0.310809" width="25.000000" x="715.000000" y="107.676317" fill="rgb(255, 165, 0)" style="fill-opacity:1.00" />
<rect height="0.932428" width="6.250000" x="733.750000" y="107.676317" fill="rgb(255, 165, 0)" style="fill-opacity:1.00" />
<!-- End 'G' -->
<!-- Begin 'C' -->
<ellipse cx="715.000000" cy="109.203670" rx="25.000000" ry="0.594925" fill="rgb(0, 0, 128)" style="fill-opacity:1.00" />
<ellipse cx="715.000000" cy="109.203670" rx="16.666667" ry="0.396617" fill="rgb(255, 255, 255)" style="fill-opacity:1.00" />
<rect height="0.594925" width="25.000000" x="715.000000" y="108.906207" fill="rgb(255, 255, 255)" style="fill-opacity:1.00" />
<!-- End 'C' -->
<!-- Begin 'T' -->
<rect height="0.032225" width="50.000000" x="690.000000" y="109.798595" fill="rgb(0, 100, 0)" style="fill-opacity:1.00" />
<rect height="0.201405" width="10.000000" x="710.000000" y="109.798595" fill="rgb(0, 100, 0)" style="fill-opacity:1.00" />
<!-- End 'T' -->
<!-- Begin 'T' -->
<rect height="15.061908" width="50.000000" x="750.000000" y="14.829658" fill="rgb(0, 100, 0)" style="fill-opacity:1.00" />
<rect height="94.136924" width="10.000000" x="770.000000" y="14.829658" fill="rgb(0, 100, 0)" style="fill-opacity:1.00" />
<!-- End 'T' -->
<!-- Begin 'C' -->
<ellipse cx="775.000000" cy="109.376381" rx="25.000000" ry="0.409799" fill="rgb(0, 0, 128)" style="fill-opacity:1.00" />
<ellipse cx="775.000000" cy="109.376381" rx="16.666667" ry="0.273199" fill="rgb(255, 255, 255)" style="fill-opacity:1.00" />
<rect height="0.409799" width="25.000000" x="775.000000" y="109.171481" fill="rgb(255, 255, 255)" style="fill-opacity:1.00" />
<!-- End 'C' -->
<!-- Begin 'A' -->
<polygon points=" 750.000000, 109.915744, 771.000000, 109.786180, 779.000000, 109.786180, 800.000000, 109.915744, 792.500000, 109.915744, 786.250000, 109.883353, 763.750000, 109.883353, 757.500000, 109.915744" fill="rgb(178, 34, 34)" style="fill-opacity:1.00" />
<!-- End 'A' -->
<!-- Begin 'G' -->
<ellipse cx="775.000000" cy="109.957872" rx="25.000000" ry="0.042128" fill="rgb(255, 165, 0)" style="fill-opacity:1.00" />
<ellipse cx="775.000000" cy="109.957872" rx="16.666667" ry="0.028085" fill="rgb(255, 255, 255)" style="fill-opacity:1.00" />
<rect height="0.042128" width="25.000000" x="775.000000" y="109.936808" fill="rgb(255, 255, 255)" style="fill-opacity:1.00" />
<rect height="0.010532" width="25.000000" x="775.000000" y="109.968404" fill="rgb(255, 165, 0)" style="fill-opacity:1.00" />
<rect height="0.031596" width="6.250000" x="793.750000" y="109.968404" fill="rgb(255, 165, 0)" style="fill-opacity:1.00" />
<!-- End 'G' -->
<!-- Begin 'C' -->
<ellipse cx="835.000000" cy="83.245535" rx="25.000000" ry="15.718583" fill="rgb(0, 0, 128)" style="fill-opacity:1.00" />
<ellipse cx="835.000000" cy="83.245535" rx="16.666667" ry="10.479056" fill="rgb(255, 255, 255)" style="fill-opacity:1.00" />
<rect height="15.718583" width="25.000000" x="835.000000" y="75.386243" fill="rgb(255, 255, 255)" style="fill-opacity:1.00" />
<!-- End 'C' -->
<!-- Begin 'G' -->
<ellipse cx="835.000000" cy="102.632517" rx="25.000000" ry="3.668398" fill="rgb(255, 165, 0)" style="fill-opacity:1.00" />
<ellipse cx="835.000000" cy="102.632517" rx="16.666667" ry="2.445599" fill="rgb(255, 255, 255)" style="fill-opacity:1.00" />
<rect height="3.668398" width="25.000000" x="835.000000" y="100.798318" fill="rgb(255, 255, 255)" style="fill-opacity:1.00" />
<rect height="0.917100" width="25.000000" x="835.000000" y="103.549616" fill="rgb(255, 165, 0)" style="fill-opacity:1.00" />
<rect height="2.751299" width="6.250000" x="853.750000" y="103.549616" fill="rgb(255, 165, 0)" style="fill-opacity:1.00" />
<!-- End 'G' -->
<!-- Begin 'A' -->
<polygon points=" 810.000000, 108.489975, 831.000000, 106.300915, 839.000000, 106.300915, 860.000000, 108.489975, 852.500000, 108.489975, 846.250000, 107.942710, 823.750000, 107.942710, 817.500000, 108.489975" fill="rgb(178, 34, 34)" style="fill-opacity:1.00" />
<!-- End 'A' -->
<!-- Begin 'T' -->
<rect height="0.241604" width="50.000000" x="810.000000" y="108.489975" fill="rgb(0, 100, 0)" style="fill-opacity:1.00" />
<rect height="1.510025" width="10.000000" x="830.000000" y="108.489975" fill="rgb(0, 100, 0)" style="fill-opacity:1.00" />
<!-- End 'T' -->
<!-- Begin 'A' -->
<polygon points=" 870.000000, 97.882497, 891.000000, 59.566573, 899.000000, 59.566573, 920.000000, 97.882497, 912.500000, 97.882497, 906.250000, 88.303516, 883.750000, 88.303516, 877.500000, 97.882497" fill="rgb(178, 34, 34)" style="fill-opacity:1.00" />
<polygon points=" 895.000000, 67.229758, 887.000000, 81.556127, 902.000000, 81.556127" fill="rgb(255, 255, 255)" style="fill-opacity:1.00" />
<!-- End 'A' -->
<!-- Begin 'G' -->
<ellipse cx="895.000000" cy="102.775679" rx="25.000000" ry="4.893182" fill="rgb(255, 165, 0)" style="fill-opacity:1.00" />
<ellipse cx="895.000000" cy="102.775679" rx="16.666667" ry="3.262121" fill="rgb(255, 255, 255)" style="fill-opacity:1.00" />
<rect height="4.893182" width="25.000000" x="895.000000" y="100.329088" fill="rgb(255, 255, 255)" style="fill-opacity:1.00" />
<rect height="1.223295" width="25.000000" x="895.000000" y="103.998975" fill="rgb(255, 165, 0)" style="fill-opacity:1.00" />
<rect height="3.669886" width="6.250000" x="913.750000" y="103.998975" fill="rgb(255, 165, 0)" style="fill-opacity:1.00" />
<!-- End 'G' -->
<!-- Begin 'C' -->
<ellipse cx="895.000000" cy="108.679653" rx="25.000000" ry="1.010792" fill="rgb(0, 0, 128)" style="fill-opacity:1.00" />
<ellipse cx="895.000000" cy="108.679653" rx="16.666667" ry="0.673861" fill="rgb(255, 255, 255)" style="fill-opacity:1.00" />
<rect height="1.010792" width="25.000000" x="895.000000" y="108.174257" fill="rgb(255, 255, 255)" style="fill-opacity:1.00" />
<!-- End 'C' -->
<!-- Begin 'T' -->
<rect height="0.049529" width="50.000000" x="870.000000" y="109.690445" fill="rgb(0, 100, 0)" style="fill-opacity:1.00" />
<rect height="0.309555" width="10.000000" x="890.000000" y="109.690445" fill="rgb(0, 100, 0)" style="fill-opacity:1.00" />
<!-- End 'T' -->
<!-- Begin 'G' -->
<ellipse cx="955.000000" cy="85.279092" rx="25.000000" ry="14.238208" fill="rgb(255, 165, 0)" style="fill-opacity:1.00" />
<ellipse cx="955.000000" cy="85.279092" rx="16.666667" ry="9.492138" fill="rgb(255, 255, 255)" style="fill-opacity:1.00" />
<rect height="14.238208" width="25.000000" x="955.000000" y="78.159988" fill="rgb(255, 255, 255)" style="fill-opacity:1.00" />
<rect height="3.559552" width="25.000000" x="955.000000" y="88.838644" fill="rgb(255, 165, 0)" style="fill-opacity:1.00" />
<rect height="10.678656" width="6.250000" x="973.750000" y="88.838644" fill="rgb(255, 165, 0)" style="fill-opacity:1.00" />
<!-- End 'G' -->
<!-- Begin 'C' -->
<ellipse cx="955.000000" cy="102.213791" rx="25.000000" ry="2.696491" fill="rgb(0, 0, 128)" style="fill-opacity:1.00" />
<ellipse cx="955.000000" cy="102.213791" rx="16.666667" ry="1.797661" fill="rgb(255, 255, 255)" style="fill-opacity:1.00" />
<rect height="2.696491" width="25.000000" x="955.000000" y="100.865545" fill="rgb(255, 255, 255)" style="fill-opacity:1.00" />
<!-- End 'C' -->
<!-- Begin 'A' -->
<polygon points=" 930.000000, 108.574115, 951.000000, 104.910282, 959.000000, 104.910282, 980.000000, 108.574115, 972.500000, 108.574115, 966.250000, 107.658156, 943.750000, 107.658156, 937.500000, 108.574115" fill="rgb(178, 34, 34)" style="fill-opacity:1.00" />
<!-- End 'A' -->
<!-- Begin 'T' -->
<rect height="0.228142" width="50.000000" x="930.000000" y="108.574115" fill="rgb(0, 100, 0)" style="fill-opacity:1.00" />
<rect height="1.425885" width="10.000000" x="950.000000" y="108.574115" fill="rgb(0, 100, 0)" style="fill-opacity:1.00" />
<!-- End 'T' -->
<text x="520.000000" y="165">
IC = 13.58
</text>

</svg>
