<?xml version="1.0" encoding="UTF-8" standalone="yes"?>
                 <!DOCTYPE svg PUBLIC "-//W3C//DTD SVG 1.0//EN" "http://www.w3.org/TR/2001/REC-SVG-20010904/DTD/svg10.dtd">
                 <svg height="170" width="780" xmlns="http://www.w3.org/2000/svg" xmlns:xlink="http://www.w3.org/1999/xlink">
                 <line x1="85" y1="120" x2="747" y2="120" style="stroke:rgb(99,99,99);stroke-width:2" />
<rect height="7.000000" width="2.000000" x="85.000000" y="120.000000" fill="rgb(0, 0, 0)" style="fill-opacity:1.00" />
<text x="107.000000" y="140">
1
</text>
<rect height="7.000000" width="2.000000" x="145.000000" y="120.000000" fill="rgb(0, 0, 0)" style="fill-opacity:1.00" />
<text x="167.000000" y="140">
2
</text>
<rect height="7.000000" width="2.000000" x="205.000000" y="120.000000" fill="rgb(0, 0, 0)" style="fill-opacity:1.00" />
<text x="227.000000" y="140">
3
</text>
<rect height="7.000000" width="2.000000" x="265.000000" y="120.000000" fill="rgb(0, 0, 0)" style="fill-opacity:1.00" />
<text x="287.000000" y="140">
4
</text>
<rect height="7.000000" width="2.000000" x="325.000000" y="120.000000" fill="rgb(0, 0, 0)" style="fill-opacity:1.00" />
<text x="347.000000" y="140">
5
</text>
<rect height="7.000000" width="2.000000" x="385.000000" y="120.000000" fill="rgb(0, 0, 0)" style="fill-opacity:1.00" />
<text x="407.000000" y="140">
6
</text>
<rect height="7.000000" width="2.000000" x="445.000000" y="120.000000" fill="rgb(0, 0, 0)" style="fill-opacity:1.00" />
<text x="467.000000" y="140">
7
</text>
<rect height="7.000000" width="2.000000" x="505.000000" y="120.000000" fill="rgb(0, 0, 0)" style="fill-opacity:1.00" />
<text x="527.000000" y="140">
8
</text>
<rect height="7.000000" width="2.000000" x="565.000000" y="120.000000" fill="rgb(0, 0, 0)" style="fill-opacity:1.00" />
<text x="587.000000" y="140">
9
</text>
<rect height="7.000000" width="2.000000" x="625.000000" y="120.000000" fill="rgb(0, 0, 0)" style="fill-opacity:1.00" />
<text x="647.000000" y="140">
10
</text>
<rect height="7.000000" width="2.000000" x="685.000000" y="120.000000" fill="rgb(0, 0, 0)" style="fill-opacity:1.00" />
<text x="707.000000" y="140">
11
</text>
<rect height="7.000000" width="2.000000" x="745.000000" y="120.000000" fill="rgb(0, 0, 0)" style="fill-opacity:1.00" />
<line x1="80" y1="112" x2="80" y2="10" style="stroke:rgb(99,99,99);stroke-width:2" />
<rect height="2.000000" width="7.000000" x="73.000000" y="110.000000" fill="rgb(0, 0, 0)" style="fill-opacity:1.00" />
<text x="63" y="115">
0
</text>
<rect height="2.000000" width="7.000000" x="73.000000" y="60.000000" fill="rgb(0, 0, 0)" style="fill-opacity:1.00" />
<text x="63" y="65">
1
</text>
<rect height="2.000000" width="7.000000" x="73.000000" y="10.000000" fill="rgb(0, 0, 0)" style="fill-opacity:1.00" />
<text x="63" y="15">
2
</text>
<text x="50" y="65"
transform="rotate(-90, 50, 70)">
bits
</text>
<!-- Begin 'A' -->
<polygon points=" 90.000000, 103.037368, 111.000000, 95.442927, 119.000000, 95.442927, 140.000000, 103.037368, 132.500000, 103.037368, 126.250000, 101.138758, 103.750000, 101.138758, 97.500000, 103.037368" fill="rgb(178, 34, 34)" style="fill-opacity:1.00" />
<!-- End 'A' -->
<!-- Begin 'G' -->
<ellipse cx="115.000000" cy="104.780146" rx="25.000000" ry="1.742778" fill="rgb(255, 165, 0)" style="fill-opacity:1.00" />
<ellipse cx="115.000000" cy="104.780146" rx="16.666667" ry="1.161852" fill="rgb(255, 255, 255)" style="fill-opacity:1.00" />
<rect height="1.742778" width="25.000000" x="115.000000" y="103.908757" fill="rgb(255, 255, 255)" style="fill-opacity:1.00" />
<rect height="0.435695" width="25.000000" x="115.000000" y="105.215841" fill="rgb(255, 165, 0)" style="fill-opacity:1.00" />
<rect height="1.307084" width="6.250000" x="133.750000" y="105.215841" fill="rgb(255, 165, 0)" style="fill-opacity:1.00" />
<!-- End 'G' -->
<!-- Begin 'T' -->
<rect height="0.333799" width="50.000000" x="90.000000" y="106.522925" fill="rgb(0, 100, 0)" style="fill-opacity:1.00" />
<rect height="2.086245" width="10.000000" x="110.000000" y="106.522925" fill="rgb(0, 100, 0)" style="fill-opacity:1.00" />
<!-- End 'T' -->
<!-- Begin 'C' -->
<ellipse cx="115.000000" cy="109.304585" rx="25.000000" ry="0.695415" fill="rgb(0, 0, 128)" style="fill-opacity:1.00" />
<ellipse cx="115.000000" cy="109.304585" rx="16.666667" ry="0.463610" fill="rgb(255, 255, 255)" style="fill-opacity:1.00" />
<rect height="0.695415" width="25.000000" x="115.000000" y="108.956877" fill="rgb(255, 255, 255)" style="fill-opacity:1.00" />
<!-- End 'C' -->
<!-- Begin 'G' -->
<ellipse cx="175.000000" cy="97.763350" rx="25.000000" ry="3.327789" fill="rgb(255, 165, 0)" style="fill-opacity:1.00" />
<ellipse cx="175.000000" cy="97.763350" rx="16.666667" ry="2.218526" fill="rgb(255, 255, 255)" style="fill-opacity:1.00" />
<rect height="3.327789" width="25.000000" x="175.000000" y="96.099455" fill="rgb(255, 255, 255)" style="fill-opacity:1.00" />
<rect height="0.831947" width="25.000000" x="175.000000" y="98.595297" fill="rgb(255, 165, 0)" style="fill-opacity:1.00" />
<rect height="2.495841" width="6.250000" x="193.750000" y="98.595297" fill="rgb(255, 165, 0)" style="fill-opacity:1.00" />
<!-- End 'G' -->
<!-- Begin 'A' -->
<polygon points=" 150.000000, 106.907968, 171.000000, 101.091138, 179.000000, 101.091138, 200.000000, 106.907968, 192.500000, 106.907968, 186.250000, 105.453760, 163.750000, 105.453760, 157.500000, 106.907968" fill="rgb(178, 34, 34)" style="fill-opacity:1.00" />
<!-- End 'A' -->
<!-- Begin 'T' -->
<rect height="0.354722" width="50.000000" x="150.000000" y="106.907968" fill="rgb(0, 100, 0)" style="fill-opacity:1.00" />
<rect height="2.217014" width="10.000000" x="170.000000" y="106.907968" fill="rgb(0, 100, 0)" style="fill-opacity:1.00" />
<!-- End 'T' -->
<!-- Begin 'C' -->
<ellipse cx="175.000000" cy="109.562491" rx="25.000000" ry="0.437509" fill="rgb(0, 0, 128)" style="fill-opacity:1.00" />
<ellipse cx="175.000000" cy="109.562491" rx="16.666667" ry="0.291673" fill="rgb(255, 255, 255)" style="fill-opacity:1.00" />
<rect height="0.437509" width="25.000000" x="175.000000" y="109.343737" fill="rgb(255, 255, 255)" style="fill-opacity:1.00" />
<!-- End 'C' -->
<!-- Begin 'C' -->
<ellipse cx="235.000000" cy="87.518352" rx="25.000000" ry="7.856205" fill="rgb(0, 0, 128)" style="fill-opacity:1.00" />
<ellipse cx="235.000000" cy="87.518352" rx="16.666667" ry="5.237470" fill="rgb(255, 255, 255)" style="fill-opacity:1.00" />
<rect height="7.856205" width="25.000000" x="235.000000" y="83.590250" fill="rgb(255, 255, 255)" style="fill-opacity:1.00" />
<!-- End 'C' -->
<!-- Begin 'G' -->
<ellipse cx="235.000000" cy="101.087759" rx="25.000000" ry="5.713202" fill="rgb(255, 165, 0)" style="fill-opacity:1.00" />
<ellipse cx="235.000000" cy="101.087759" rx="16.666667" ry="3.808801" fill="rgb(255, 255, 255)" style="fill-opacity:1.00" />
<rect height="5.713202" width="25.000000" x="235.000000" y="98.231158" fill="rgb(255, 255, 255)" style="fill-opacity:1.00" />
<rect height="1.428300" width="25.000000" x="235.000000" y="102.516059" fill="rgb(255, 165, 0)" style="fill-opacity:1.00" />
<rect height="4.284901" width="6.250000" x="253.750000" y="102.516059" fill="rgb(255, 165, 0)" style="fill-opacity:1.00" />
<!-- End 'G' -->
<!-- Begin 'A' -->
<polygon points=" 210.000000, 109.849769, 231.000000, 106.800961, 239.000000, 106.800961, 260.000000, 109.849769, 252.500000, 109.849769, 246.250000, 109.087567, 223.750000, 109.087567, 217.500000, 109.849769" fill="rgb(178, 34, 34)" style="fill-opacity:1.00" />
<!-- End 'A' -->
<!-- Begin 'T' -->
<rect height="0.024037" width="50.000000" x="210.000000" y="109.849769" fill="rgb(0, 100, 0)" style="fill-opacity:1.00" />
<rect height="0.150231" width="10.000000" x="230.000000" y="109.849769" fill="rgb(0, 100, 0)" style="fill-opacity:1.00" />
<!-- End 'T' -->
<!-- Begin 'C' -->
<ellipse cx="295.000000" cy="60.244659" rx="25.000000" ry="49.668458" fill="rgb(0, 0, 128)" style="fill-opacity:1.00" />
<ellipse cx="295.000000" cy="60.244659" rx="16.666667" ry="33.112305" fill="rgb(255, 255, 255)" style="fill-opacity:1.00" />
<rect height="49.668458" width="25.000000" x="295.000000" y="35.410430" fill="rgb(255, 255, 255)" style="fill-opacity:1.00" />
<!-- End 'C' -->
<!-- Begin 'T' -->
<rect height="0.004634" width="50.000000" x="270.000000" y="109.913116" fill="rgb(0, 100, 0)" style="fill-opacity:1.00" />
<rect height="0.028961" width="10.000000" x="290.000000" y="109.913116" fill="rgb(0, 100, 0)" style="fill-opacity:1.00" />
<!-- End 'T' -->
<!-- Begin 'G' -->
<ellipse cx="295.000000" cy="109.956558" rx="25.000000" ry="0.014481" fill="rgb(255, 165, 0)" style="fill-opacity:1.00" />
<ellipse cx="295.000000" cy="109.956558" rx="16.666667" ry="0.009654" fill="rgb(255, 255, 255)" style="fill-opacity:1.00" />
<rect height="0.014481" width="25.000000" x="295.000000" y="109.949318" fill="rgb(255, 255, 255)" style="fill-opacity:1.00" />
<rect height="0.003620" width="25.000000" x="295.000000" y="109.960178" fill="rgb(255, 165, 0)" style="fill-opacity:1.00" />
<rect height="0.010860" width="6.250000" x="313.750000" y="109.960178" fill="rgb(255, 165, 0)" style="fill-opacity:1.00" />
<!-- End 'G' -->
<!-- Begin 'A' -->
<polygon points=" 270.000000, 110.000000, 291.000000, 109.971039, 299.000000, 109.971039, 320.000000, 110.000000, 312.500000, 110.000000, 306.250000, 109.992760, 283.750000, 109.992760, 277.500000, 110.000000" fill="rgb(178, 34, 34)" style="fill-opacity:1.00" />
<!-- End 'A' -->
<!-- Begin 'A' -->
<polygon points=" 330.000000, 94.225866, 351.000000, 53.883314, 359.000000, 53.883314, 380.000000, 94.225866, 372.500000, 94.225866, 366.250000, 84.140228, 343.750000, 84.140228, 337.500000, 94.225866" fill="rgb(178, 34, 34)" style="fill-opacity:1.00" />
<polygon points=" 355.000000, 61.951825, 347.000000, 77.088845, 362.000000, 77.088845" fill="rgb(255, 255, 255)" style="fill-opacity:1.00" />
<!-- End 'A' -->
<!-- Begin 'T' -->
<rect height="2.502938" width="50.000000" x="330.000000" y="94.225866" fill="rgb(0, 100, 0)" style="fill-opacity:1.00" />
<rect height="15.643364" width="10.000000" x="350.000000" y="94.225866" fill="rgb(0, 100, 0)" style="fill-opacity:1.00" />
<!-- End 'T' -->
<!-- Begin 'C' -->
<ellipse cx="355.000000" cy="109.926442" rx="25.000000" ry="0.057212" fill="rgb(0, 0, 128)" style="fill-opacity:1.00" />
<ellipse cx="355.000000" cy="109.926442" rx="16.666667" ry="0.038141" fill="rgb(255, 255, 255)" style="fill-opacity:1.00" />
<rect height="0.057212" width="25.000000" x="355.000000" y="109.897836" fill="rgb(255, 255, 255)" style="fill-opacity:1.00" />
<!-- End 'C' -->
<!-- Begin 'G' -->
<ellipse cx="355.000000" cy="109.991827" rx="25.000000" ry="0.008173" fill="rgb(255, 165, 0)" style="fill-opacity:1.00" />
<ellipse cx="355.000000" cy="109.991827" rx="16.666667" ry="0.005449" fill="rgb(255, 255, 255)" style="fill-opacity:1.00" />
<rect height="0.008173" width="25.000000" x="355.000000" y="109.987740" fill="rgb(255, 255, 255)" style="fill-opacity:1.00" />
<rect height="0.002043" width="25.000000" x="355.000000" y="109.993870" fill="rgb(255, 165, 0)" style="fill-opacity:1.00" />
<rect height="0.006130" width="6.250000" x="373.750000" y="109.993870" fill="rgb(255, 165, 0)" style="fill-opacity:1.00" />
<!-- End 'G' -->
<!-- Begin 'C' -->
<ellipse cx="415.000000" cy="60.244659" rx="25.000000" ry="49.668458" fill="rgb(0, 0, 128)" style="fill-opacity:1.00" />
<ellipse cx="415.000000" cy="60.244659" rx="16.666667" ry="33.112305" fill="rgb(255, 255, 255)" style="fill-opacity:1.00" />
<rect height="49.668458" width="25.000000" x="415.000000" y="35.410430" fill="rgb(255, 255, 255)" style="fill-opacity:1.00" />
<!-- End 'C' -->
<!-- Begin 'T' -->
<rect height="0.004634" width="50.000000" x="390.000000" y="109.913116" fill="rgb(0, 100, 0)" style="fill-opacity:1.00" />
<rect height="0.028961" width="10.000000" x="410.000000" y="109.913116" fill="rgb(0, 100, 0)" style="fill-opacity:1.00" />
<!-- End 'T' -->
<!-- Begin 'G' -->
<ellipse cx="415.000000" cy="109.956558" rx="25.000000" ry="0.014481" fill="rgb(255, 165, 0)" style="fill-opacity:1.00" />
<ellipse cx="415.000000" cy="109.956558" rx="16.666667" ry="0.009654" fill="rgb(255, 255, 255)" style="fill-opacity:1.00" />
<rect height="0.014481" width="25.000000" x="415.000000" y="109.949318" fill="rgb(255, 255, 255)" style="fill-opacity:1.00" />
<rect height="0.003620" width="25.000000" x="415.000000" y="109.960178" fill="rgb(255, 165, 0)" style="fill-opacity:1.00" />
<rect height="0.010860" width="6.250000" x="433.750000" y="109.960178" fill="rgb(255, 165, 0)" style="fill-opacity:1.00" />
<!-- End 'G' -->
<!-- Begin 'A' -->
<polygon points=" 390.000000, 110.000000, 411.000000, 109.971039, 419.000000, 109.971039, 440.000000, 110.000000, 432.500000, 110.000000, 426.250000, 109.992760, 403.750000, 109.992760, 397.500000, 110.000000" fill="rgb(178, 34, 34)" style="fill-opacity:1.00" />
<!-- End 'A' -->
<!-- Begin 'T' -->
<rect height="15.893906" width="50.000000" x="450.000000" y="10.576201" fill="rgb(0, 100, 0)" style="fill-opacity:1.00" />
<rect height="99.336915" width="10.000000" x="470.000000" y="10.576201" fill="rgb(0, 100, 0)" style="fill-opacity:1.00" />
<!-- End 'T' -->
<!-- Begin 'G' -->
<ellipse cx="475.000000" cy="109.927597" rx="25.000000" ry="0.014481" fill="rgb(255, 165, 0)" style="fill-opacity:1.00" />
<ellipse cx="475.000000" cy="109.927597" rx="16.666667" ry="0.009654" fill="rgb(255, 255, 255)" style="fill-opacity:1.00" />
<rect height="0.014481" width="25.000000" x="475.000000" y="109.920357" fill="rgb(255, 255, 255)" style="fill-opacity:1.00" />
<rect height="0.003620" width="25.000000" x="475.000000" y="109.931217" fill="rgb(255, 165, 0)" style="fill-opacity:1.00" />
<rect height="0.010860" width="6.250000" x="493.750000" y="109.931217" fill="rgb(255, 165, 0)" style="fill-opacity:1.00" />
<!-- End 'G' -->
<!-- Begin 'C' -->
<ellipse cx="475.000000" cy="109.956558" rx="25.000000" ry="0.014481" fill="rgb(0, 0, 128)" style="fill-opacity:1.00" />
<ellipse cx="475.000000" cy="109.956558" rx="16.666667" ry="0.009654" fill="rgb(255, 255, 255)" style="fill-opacity:1.00" />
<rect height="0.014481" width="25.000000" x="475.000000" y="109.949318" fill="rgb(255, 255, 255)" style="fill-opacity:1.00" />
<!-- End 'C' -->
<!-- Begin 'A' -->
<polygon points=" 450.000000, 110.000000, 471.000000, 109.971039, 479.000000, 109.971039, 500.000000, 110.000000, 492.500000, 110.000000, 486.250000, 109.992760, 463.750000, 109.992760, 457.500000, 110.000000" fill="rgb(178, 34, 34)" style="fill-opacity:1.00" />
<!-- End 'A' -->
<!-- Begin 'C' -->
<ellipse cx="535.000000" cy="61.865804" rx="25.000000" ry="46.998041" fill="rgb(0, 0, 128)" style="fill-opacity:1.00" />
<ellipse cx="535.000000" cy="61.865804" rx="16.666667" ry="31.332027" fill="rgb(255, 255, 255)" style="fill-opacity:1.00" />
<rect height="46.998041" width="25.000000" x="535.000000" y="38.366783" fill="rgb(255, 255, 255)" style="fill-opacity:1.00" />
<!-- End 'C' -->
<!-- Begin 'T' -->
<rect height="0.172917" width="50.000000" x="510.000000" y="108.863845" fill="rgb(0, 100, 0)" style="fill-opacity:1.00" />
<rect height="1.080733" width="10.000000" x="530.000000" y="108.863845" fill="rgb(0, 100, 0)" style="fill-opacity:1.00" />
<!-- End 'T' -->
<!-- Begin 'G' -->
<ellipse cx="535.000000" cy="109.958433" rx="25.000000" ry="0.013856" fill="rgb(255, 165, 0)" style="fill-opacity:1.00" />
<ellipse cx="535.000000" cy="109.958433" rx="16.666667" ry="0.009237" fill="rgb(255, 255, 255)" style="fill-opacity:1.00" />
<rect height="0.013856" width="25.000000" x="535.000000" y="109.951506" fill="rgb(255, 255, 255)" style="fill-opacity:1.00" />
<rect height="0.003464" width="25.000000" x="535.000000" y="109.961897" fill="rgb(255, 165, 0)" style="fill-opacity:1.00" />
<rect height="0.010392" width="6.250000" x="553.750000" y="109.961897" fill="rgb(255, 165, 0)" style="fill-opacity:1.00" />
<!-- End 'G' -->
<!-- Begin 'A' -->
<polygon points=" 510.000000, 110.000000, 531.000000, 109.972289, 539.000000, 109.972289, 560.000000, 110.000000, 552.500000, 110.000000, 546.250000, 109.993072, 523.750000, 109.993072, 517.500000, 110.000000" fill="rgb(178, 34, 34)" style="fill-opacity:1.00" />
<!-- End 'A' -->
<!-- Begin 'A' -->
<polygon points=" 570.000000, 99.873587, 591.000000, 49.435584, 599.000000, 49.435584, 620.000000, 99.873587, 612.500000, 99.873587, 606.250000, 87.264086, 583.750000, 87.264086, 577.500000, 99.873587" fill="rgb(178, 34, 34)" style="fill-opacity:1.00" />
<polygon points=" 595.000000, 59.523185, 587.000000, 78.698386, 602.000000, 78.698386" fill="rgb(255, 255, 255)" style="fill-opacity:1.00" />
<!-- End 'A' -->
<!-- Begin 'C' -->
<ellipse cx="595.000000" cy="103.684223" rx="25.000000" ry="3.810636" fill="rgb(0, 0, 128)" style="fill-opacity:1.00" />
<ellipse cx="595.000000" cy="103.684223" rx="16.666667" ry="2.540424" fill="rgb(255, 255, 255)" style="fill-opacity:1.00" />
<rect height="3.810636" width="25.000000" x="595.000000" y="101.778905" fill="rgb(255, 255, 255)" style="fill-opacity:1.00" />
<!-- End 'C' -->
<!-- Begin 'T' -->
<rect height="0.398000" width="50.000000" x="570.000000" y="107.494860" fill="rgb(0, 100, 0)" style="fill-opacity:1.00" />
<rect height="2.487499" width="10.000000" x="590.000000" y="107.494860" fill="rgb(0, 100, 0)" style="fill-opacity:1.00" />
<!-- End 'T' -->
<!-- Begin 'G' -->
<ellipse cx="595.000000" cy="109.991179" rx="25.000000" ry="0.008821" fill="rgb(255, 165, 0)" style="fill-opacity:1.00" />
<ellipse cx="595.000000" cy="109.991179" rx="16.666667" ry="0.005881" fill="rgb(255, 255, 255)" style="fill-opacity:1.00" />
<rect height="0.008821" width="25.000000" x="595.000000" y="109.986769" fill="rgb(255, 255, 255)" style="fill-opacity:1.00" />
<rect height="0.002205" width="25.000000" x="595.000000" y="109.993384" fill="rgb(255, 165, 0)" style="fill-opacity:1.00" />
<rect height="0.006616" width="6.250000" x="613.750000" y="109.993384" fill="rgb(255, 165, 0)" style="fill-opacity:1.00" />
<!-- End 'G' -->
<!-- Begin 'A' -->
<polygon points=" 630.000000, 96.915394, 651.000000, 71.508609, 659.000000, 71.508609, 680.000000, 96.915394, 672.500000, 96.915394, 666.250000, 90.563698, 643.750000, 90.563698, 637.500000, 96.915394" fill="rgb(178, 34, 34)" style="fill-opacity:1.00" />
<polygon points=" 655.000000, 76.589966, 647.000000, 85.752680, 662.000000, 85.752680" fill="rgb(255, 255, 255)" style="fill-opacity:1.00" />
<!-- End 'A' -->
<!-- Begin 'G' -->
<ellipse cx="655.000000" cy="101.546021" rx="25.000000" ry="4.630628" fill="rgb(255, 165, 0)" style="fill-opacity:1.00" />
<ellipse cx="655.000000" cy="101.546021" rx="16.666667" ry="3.087085" fill="rgb(255, 255, 255)" style="fill-opacity:1.00" />
<rect height="4.630628" width="25.000000" x="655.000000" y="99.230708" fill="rgb(255, 255, 255)" style="fill-opacity:1.00" />
<rect height="1.157657" width="25.000000" x="655.000000" y="102.703678" fill="rgb(255, 165, 0)" style="fill-opacity:1.00" />
<rect height="3.472971" width="6.250000" x="673.750000" y="102.703678" fill="rgb(255, 165, 0)" style="fill-opacity:1.00" />
<!-- End 'G' -->
<!-- Begin 'T' -->
<rect height="0.604560" width="50.000000" x="630.000000" y="106.176649" fill="rgb(0, 100, 0)" style="fill-opacity:1.00" />
<rect height="3.778502" width="10.000000" x="650.000000" y="106.176649" fill="rgb(0, 100, 0)" style="fill-opacity:1.00" />
<!-- End 'T' -->
<!-- Begin 'C' -->
<ellipse cx="655.000000" cy="109.977576" rx="25.000000" ry="0.022424" fill="rgb(0, 0, 128)" style="fill-opacity:1.00" />
<ellipse cx="655.000000" cy="109.977576" rx="16.666667" ry="0.014950" fill="rgb(255, 255, 255)" style="fill-opacity:1.00" />
<rect height="0.022424" width="25.000000" x="655.000000" y="109.966363" fill="rgb(255, 255, 255)" style="fill-opacity:1.00" />
<!-- End 'C' -->
<!-- Begin 'G' -->
<ellipse cx="715.000000" cy="96.311365" rx="25.000000" ry="4.849071" fill="rgb(255, 165, 0)" style="fill-opacity:1.00" />
<ellipse cx="715.000000" cy="96.311365" rx="16.666667" ry="3.232714" fill="rgb(255, 255, 255)" style="fill-opacity:1.00" />
<rect height="4.849071" width="25.000000" x="715.000000" y="93.886829" fill="rgb(255, 255, 255)" style="fill-opacity:1.00" />
<rect height="1.212268" width="25.000000" x="715.000000" y="97.523632" fill="rgb(255, 165, 0)" style="fill-opacity:1.00" />
<rect height="3.636803" width="6.250000" x="733.750000" y="97.523632" fill="rgb(255, 165, 0)" style="fill-opacity:1.00" />
<!-- End 'G' -->
<!-- Begin 'C' -->
<ellipse cx="715.000000" cy="103.744267" rx="25.000000" ry="2.583831" fill="rgb(0, 0, 128)" style="fill-opacity:1.00" />
<ellipse cx="715.000000" cy="103.744267" rx="16.666667" ry="1.722554" fill="rgb(255, 255, 255)" style="fill-opacity:1.00" />
<rect height="2.583831" width="25.000000" x="715.000000" y="102.452351" fill="rgb(255, 255, 255)" style="fill-opacity:1.00" />
<!-- End 'C' -->
<!-- Begin 'A' -->
<polygon points=" 690.000000, 109.044225, 711.000000, 106.328098, 719.000000, 106.328098, 740.000000, 109.044225, 732.500000, 109.044225, 726.250000, 108.365194, 703.750000, 108.365194, 697.500000, 109.044225" fill="rgb(178, 34, 34)" style="fill-opacity:1.00" />
<!-- End 'A' -->
<!-- Begin 'T' -->
<rect height="0.152924" width="50.000000" x="690.000000" y="109.044225" fill="rgb(0, 100, 0)" style="fill-opacity:1.00" />
<rect height="0.955775" width="10.000000" x="710.000000" y="109.044225" fill="rgb(0, 100, 0)" style="fill-opacity:1.00" />
<!-- End 'T' -->
<text x="400.000000" y="165">
IC = 12.55
</text>

</svg>
