<?xml version="1.0" encoding="UTF-8" standalone="yes"?>
                 <!DOCTYPE svg PUBLIC "-//W3C//DTD SVG 1.0//EN" "http://www.w3.org/TR/2001/REC-SVG-20010904/DTD/svg10.dtd">
                 <svg height="170" width="1020" xmlns="http://www.w3.org/2000/svg" xmlns:xlink="http://www.w3.org/1999/xlink">
                 <line x1="85" y1="120" x2="987" y2="120" style="stroke:rgb(99,99,99);stroke-width:2" />
<rect height="7.000000" width="2.000000" x="85.000000" y="120.000000" fill="rgb(0, 0, 0)" style="fill-opacity:1.00" />
<text x="107.000000" y="140">
1
</text>
<rect height="7.000000" width="2.000000" x="145.000000" y="120.000000" fill="rgb(0, 0, 0)" style="fill-opacity:1.00" />
<text x="167.000000" y="140">
2
</text>
<rect height="7.000000" width="2.000000" x="205.000000" y="120.000000" fill="rgb(0, 0, 0)" style="fill-opacity:1.00" />
<text x="227.000000" y="140">
3
</text>
<rect height="7.000000" width="2.000000" x="265.000000" y="120.000000" fill="rgb(0, 0, 0)" style="fill-opacity:1.00" />
<text x="287.000000" y="140">
4
</text>
<rect height="7.000000" width="2.000000" x="325.000000" y="120.000000" fill="rgb(0, 0, 0)" style="fill-opacity:1.00" />
<text x="347.000000" y="140">
5
</text>
<rect height="7.000000" width="2.000000" x="385.000000" y="120.000000" fill="rgb(0, 0, 0)" style="fill-opacity:1.00" />
<text x="407.000000" y="140">
6
</text>
<rect height="7.000000" width="2.000000" x="445.000000" y="120.000000" fill="rgb(0, 0, 0)" style="fill-opacity:1.00" />
<text x="467.000000" y="140">
7
</text>
<rect height="7.000000" width="2.000000" x="505.000000" y="120.000000" fill="rgb(0, 0, 0)" style="fill-opacity:1.00" />
<text x="527.000000" y="140">
8
</text>
<rect height="7.000000" width="2.000000" x="565.000000" y="120.000000" fill="rgb(0, 0, 0)" style="fill-opacity:1.00" />
<text x="587.000000" y="140">
9
</text>
<rect height="7.000000" width="2.000000" x="625.000000" y="120.000000" fill="rgb(0, 0, 0)" style="fill-opacity:1.00" />
<text x="647.000000" y="140">
10
</text>
<rect height="7.000000" width="2.000000" x="685.000000" y="120.000000" fill="rgb(0, 0, 0)" style="fill-opacity:1.00" />
<text x="707.000000" y="140">
11
</text>
<rect height="7.000000" width="2.000000" x="745.000000" y="120.000000" fill="rgb(0, 0, 0)" style="fill-opacity:1.00" />
<text x="767.000000" y="140">
12
</text>
<rect height="7.000000" width="2.000000" x="805.000000" y="120.000000" fill="rgb(0, 0, 0)" style="fill-opacity:1.00" />
<text x="827.000000" y="140">
13
</text>
<rect height="7.000000" width="2.000000" x="865.000000" y="120.000000" fill="rgb(0, 0, 0)" style="fill-opacity:1.00" />
<text x="887.000000" y="140">
14
</text>
<rect height="7.000000" width="2.000000" x="925.000000" y="120.000000" fill="rgb(0, 0, 0)" style="fill-opacity:1.00" />
<text x="947.000000" y="140">
15
</text>
<rect height="7.000000" width="2.000000" x="985.000000" y="120.000000" fill="rgb(0, 0, 0)" style="fill-opacity:1.00" />
<line x1="80" y1="112" x2="80" y2="10" style="stroke:rgb(99,99,99);stroke-width:2" />
<rect height="2.000000" width="7.000000" x="73.000000" y="110.000000" fill="rgb(0, 0, 0)" style="fill-opacity:1.00" />
<text x="63" y="115">
0
</text>
<rect height="2.000000" width="7.000000" x="73.000000" y="60.000000" fill="rgb(0, 0, 0)" style="fill-opacity:1.00" />
<text x="63" y="65">
1
</text>
<rect height="2.000000" width="7.000000" x="73.000000" y="10.000000" fill="rgb(0, 0, 0)" style="fill-opacity:1.00" />
<text x="63" y="15">
2
</text>
<text x="50" y="65"
transform="rotate(-90, 50, 70)">
bits
</text>
<!-- Begin 'T' -->
<rect height="0.513369" width="50.000000" x="90.000000" y="102.042062" fill="rgb(0, 100, 0)" style="fill-opacity:1.00" />
<rect height="3.208555" width="10.000000" x="110.000000" y="102.042062" fill="rgb(0, 100, 0)" style="fill-opacity:1.00" />
<!-- End 'T' -->
<!-- Begin 'A' -->
<polygon points=" 90.000000, 107.781012, 111.000000, 105.250617, 119.000000, 105.250617, 140.000000, 107.781012, 132.500000, 107.781012, 126.250000, 107.148414, 103.750000, 107.148414, 97.500000, 107.781012" fill="rgb(178, 34, 34)" style="fill-opacity:1.00" />
<!-- End 'A' -->
<!-- Begin 'C' -->
<ellipse cx="115.000000" cy="108.429269" rx="25.000000" ry="0.648257" fill="rgb(0, 0, 128)" style="fill-opacity:1.00" />
<ellipse cx="115.000000" cy="108.429269" rx="16.666667" ry="0.432171" fill="rgb(255, 255, 255)" style="fill-opacity:1.00" />
<rect height="0.648257" width="25.000000" x="115.000000" y="108.105141" fill="rgb(255, 255, 255)" style="fill-opacity:1.00" />
<!-- End 'C' -->
<!-- Begin 'G' -->
<ellipse cx="115.000000" cy="109.538763" rx="25.000000" ry="0.461237" fill="rgb(255, 165, 0)" style="fill-opacity:1.00" />
<ellipse cx="115.000000" cy="109.538763" rx="16.666667" ry="0.307491" fill="rgb(255, 255, 255)" style="fill-opacity:1.00" />
<rect height="0.461237" width="25.000000" x="115.000000" y="109.308145" fill="rgb(255, 255, 255)" style="fill-opacity:1.00" />
<rect height="0.115309" width="25.000000" x="115.000000" y="109.654072" fill="rgb(255, 165, 0)" style="fill-opacity:1.00" />
<rect height="0.345928" width="6.250000" x="133.750000" y="109.654072" fill="rgb(255, 165, 0)" style="fill-opacity:1.00" />
<!-- End 'G' -->
<!-- Begin 'T' -->
<rect height="0.399455" width="50.000000" x="150.000000" y="103.174873" fill="rgb(0, 100, 0)" style="fill-opacity:1.00" />
<rect height="2.496592" width="10.000000" x="170.000000" y="103.174873" fill="rgb(0, 100, 0)" style="fill-opacity:1.00" />
<!-- End 'T' -->
<!-- Begin 'A' -->
<polygon points=" 150.000000, 108.024824, 171.000000, 105.671465, 179.000000, 105.671465, 200.000000, 108.024824, 192.500000, 108.024824, 186.250000, 107.436484, 163.750000, 107.436484, 157.500000, 108.024824" fill="rgb(178, 34, 34)" style="fill-opacity:1.00" />
<!-- End 'A' -->
<!-- Begin 'C' -->
<ellipse cx="175.000000" cy="108.586839" rx="25.000000" ry="0.562016" fill="rgb(0, 0, 128)" style="fill-opacity:1.00" />
<ellipse cx="175.000000" cy="108.586839" rx="16.666667" ry="0.374677" fill="rgb(255, 255, 255)" style="fill-opacity:1.00" />
<rect height="0.562016" width="25.000000" x="175.000000" y="108.305831" fill="rgb(255, 255, 255)" style="fill-opacity:1.00" />
<!-- End 'C' -->
<!-- Begin 'G' -->
<ellipse cx="175.000000" cy="109.574427" rx="25.000000" ry="0.425573" fill="rgb(255, 165, 0)" style="fill-opacity:1.00" />
<ellipse cx="175.000000" cy="109.574427" rx="16.666667" ry="0.283715" fill="rgb(255, 255, 255)" style="fill-opacity:1.00" />
<rect height="0.425573" width="25.000000" x="175.000000" y="109.361641" fill="rgb(255, 255, 255)" style="fill-opacity:1.00" />
<rect height="0.106393" width="25.000000" x="175.000000" y="109.680821" fill="rgb(255, 165, 0)" style="fill-opacity:1.00" />
<rect height="0.319179" width="6.250000" x="193.750000" y="109.680821" fill="rgb(255, 165, 0)" style="fill-opacity:1.00" />
<!-- End 'G' -->
<!-- Begin 'A' -->
<polygon points=" 210.000000, 105.780702, 231.000000, 103.431580, 239.000000, 103.431580, 260.000000, 105.780702, 252.500000, 105.780702, 246.250000, 105.193421, 223.750000, 105.193421, 217.500000, 105.780702" fill="rgb(178, 34, 34)" style="fill-opacity:1.00" />
<!-- End 'A' -->
<!-- Begin 'T' -->
<rect height="0.370313" width="50.000000" x="210.000000" y="105.780702" fill="rgb(0, 100, 0)" style="fill-opacity:1.00" />
<rect height="2.314459" width="10.000000" x="230.000000" y="105.780702" fill="rgb(0, 100, 0)" style="fill-opacity:1.00" />
<!-- End 'T' -->
<!-- Begin 'G' -->
<ellipse cx="235.000000" cy="108.579496" rx="25.000000" ry="0.484336" fill="rgb(255, 165, 0)" style="fill-opacity:1.00" />
<ellipse cx="235.000000" cy="108.579496" rx="16.666667" ry="0.322890" fill="rgb(255, 255, 255)" style="fill-opacity:1.00" />
<rect height="0.484336" width="25.000000" x="235.000000" y="108.337328" fill="rgb(255, 255, 255)" style="fill-opacity:1.00" />
<rect height="0.121084" width="25.000000" x="235.000000" y="108.700580" fill="rgb(255, 165, 0)" style="fill-opacity:1.00" />
<rect height="0.363252" width="6.250000" x="253.750000" y="108.700580" fill="rgb(255, 165, 0)" style="fill-opacity:1.00" />
<!-- End 'G' -->
<!-- Begin 'C' -->
<ellipse cx="235.000000" cy="109.531916" rx="25.000000" ry="0.468084" fill="rgb(0, 0, 128)" style="fill-opacity:1.00" />
<ellipse cx="235.000000" cy="109.531916" rx="16.666667" ry="0.312056" fill="rgb(255, 255, 255)" style="fill-opacity:1.00" />
<rect height="0.468084" width="25.000000" x="235.000000" y="109.297874" fill="rgb(255, 255, 255)" style="fill-opacity:1.00" />
<!-- End 'C' -->
<!-- Begin 'T' -->
<rect height="0.261654" width="50.000000" x="270.000000" y="105.293202" fill="rgb(0, 100, 0)" style="fill-opacity:1.00" />
<rect height="1.635336" width="10.000000" x="290.000000" y="105.293202" fill="rgb(0, 100, 0)" style="fill-opacity:1.00" />
<!-- End 'T' -->
<!-- Begin 'A' -->
<polygon points=" 270.000000, 108.436300, 291.000000, 106.928538, 299.000000, 106.928538, 320.000000, 108.436300, 312.500000, 108.436300, 306.250000, 108.059360, 283.750000, 108.059360, 277.500000, 108.436300" fill="rgb(178, 34, 34)" style="fill-opacity:1.00" />
<!-- End 'A' -->
<!-- Begin 'G' -->
<ellipse cx="295.000000" cy="108.908838" rx="25.000000" ry="0.472538" fill="rgb(255, 165, 0)" style="fill-opacity:1.00" />
<ellipse cx="295.000000" cy="108.908838" rx="16.666667" ry="0.315025" fill="rgb(255, 255, 255)" style="fill-opacity:1.00" />
<rect height="0.472538" width="25.000000" x="295.000000" y="108.672569" fill="rgb(255, 255, 255)" style="fill-opacity:1.00" />
<rect height="0.118135" width="25.000000" x="295.000000" y="109.026973" fill="rgb(255, 165, 0)" style="fill-opacity:1.00" />
<rect height="0.354404" width="6.250000" x="313.750000" y="109.026973" fill="rgb(255, 165, 0)" style="fill-opacity:1.00" />
<!-- End 'G' -->
<!-- Begin 'C' -->
<ellipse cx="295.000000" cy="109.690688" rx="25.000000" ry="0.309312" fill="rgb(0, 0, 128)" style="fill-opacity:1.00" />
<ellipse cx="295.000000" cy="109.690688" rx="16.666667" ry="0.206208" fill="rgb(255, 255, 255)" style="fill-opacity:1.00" />
<rect height="0.309312" width="25.000000" x="295.000000" y="109.536033" fill="rgb(255, 255, 255)" style="fill-opacity:1.00" />
<!-- End 'C' -->
<!-- Begin 'A' -->
<polygon points=" 330.000000, 101.205516, 351.000000, 92.436452, 359.000000, 92.436452, 380.000000, 101.205516, 372.500000, 101.205516, 366.250000, 99.013250, 343.750000, 99.013250, 337.500000, 101.205516" fill="rgb(178, 34, 34)" style="fill-opacity:1.00" />
<polygon points=" 355.000000, 94.190265, 347.000000, 96.697891, 362.000000, 96.697891" fill="rgb(255, 255, 255)" style="fill-opacity:1.00" />
<!-- End 'A' -->
<!-- Begin 'T' -->
<rect height="0.893106" width="50.000000" x="330.000000" y="101.205516" fill="rgb(0, 100, 0)" style="fill-opacity:1.00" />
<rect height="5.581910" width="10.000000" x="350.000000" y="101.205516" fill="rgb(0, 100, 0)" style="fill-opacity:1.00" />
<!-- End 'T' -->
<!-- Begin 'C' -->
<ellipse cx="355.000000" cy="107.791673" rx="25.000000" ry="1.004246" fill="rgb(0, 0, 128)" style="fill-opacity:1.00" />
<ellipse cx="355.000000" cy="107.791673" rx="16.666667" ry="0.669498" fill="rgb(255, 255, 255)" style="fill-opacity:1.00" />
<rect height="1.004246" width="25.000000" x="355.000000" y="107.289550" fill="rgb(255, 255, 255)" style="fill-opacity:1.00" />
<!-- End 'C' -->
<!-- Begin 'G' -->
<ellipse cx="355.000000" cy="109.397960" rx="25.000000" ry="0.602040" fill="rgb(255, 165, 0)" style="fill-opacity:1.00" />
<ellipse cx="355.000000" cy="109.397960" rx="16.666667" ry="0.401360" fill="rgb(255, 255, 255)" style="fill-opacity:1.00" />
<rect height="0.602040" width="25.000000" x="355.000000" y="109.096940" fill="rgb(255, 255, 255)" style="fill-opacity:1.00" />
<rect height="0.150510" width="25.000000" x="355.000000" y="109.548470" fill="rgb(255, 165, 0)" style="fill-opacity:1.00" />
<rect height="0.451530" width="6.250000" x="373.750000" y="109.548470" fill="rgb(255, 165, 0)" style="fill-opacity:1.00" />
<!-- End 'G' -->
<!-- Begin 'A' -->
<polygon points=" 390.000000, 96.853399, 411.000000, 72.812252, 419.000000, 72.812252, 440.000000, 96.853399, 432.500000, 96.853399, 426.250000, 90.843112, 403.750000, 90.843112, 397.500000, 96.853399" fill="rgb(178, 34, 34)" style="fill-opacity:1.00" />
<polygon points=" 415.000000, 77.620481, 407.000000, 86.236940, 422.000000, 86.236940" fill="rgb(255, 255, 255)" style="fill-opacity:1.00" />
<!-- End 'A' -->
<!-- Begin 'T' -->
<rect height="1.686482" width="50.000000" x="390.000000" y="96.853399" fill="rgb(0, 100, 0)" style="fill-opacity:1.00" />
<rect height="10.540514" width="10.000000" x="410.000000" y="96.853399" fill="rgb(0, 100, 0)" style="fill-opacity:1.00" />
<!-- End 'T' -->
<!-- Begin 'G' -->
<ellipse cx="415.000000" cy="108.247983" rx="25.000000" ry="0.854070" fill="rgb(255, 165, 0)" style="fill-opacity:1.00" />
<ellipse cx="415.000000" cy="108.247983" rx="16.666667" ry="0.569380" fill="rgb(255, 255, 255)" style="fill-opacity:1.00" />
<rect height="0.854070" width="25.000000" x="415.000000" y="107.820948" fill="rgb(255, 255, 255)" style="fill-opacity:1.00" />
<rect height="0.213518" width="25.000000" x="415.000000" y="108.461500" fill="rgb(255, 165, 0)" style="fill-opacity:1.00" />
<rect height="0.640553" width="6.250000" x="433.750000" y="108.461500" fill="rgb(255, 165, 0)" style="fill-opacity:1.00" />
<!-- End 'G' -->
<!-- Begin 'C' -->
<ellipse cx="415.000000" cy="109.551026" rx="25.000000" ry="0.448974" fill="rgb(0, 0, 128)" style="fill-opacity:1.00" />
<ellipse cx="415.000000" cy="109.551026" rx="16.666667" ry="0.299316" fill="rgb(255, 255, 255)" style="fill-opacity:1.00" />
<rect height="0.448974" width="25.000000" x="415.000000" y="109.326540" fill="rgb(255, 255, 255)" style="fill-opacity:1.00" />
<!-- End 'C' -->
<!-- Begin 'T' -->
<rect height="0.439095" width="50.000000" x="450.000000" y="102.958298" fill="rgb(0, 100, 0)" style="fill-opacity:1.00" />
<rect height="2.744343" width="10.000000" x="470.000000" y="102.958298" fill="rgb(0, 100, 0)" style="fill-opacity:1.00" />
<!-- End 'T' -->
<!-- Begin 'A' -->
<polygon points=" 450.000000, 107.762904, 471.000000, 105.702641, 479.000000, 105.702641, 500.000000, 107.762904, 492.500000, 107.762904, 486.250000, 107.247838, 463.750000, 107.247838, 457.500000, 107.762904" fill="rgb(178, 34, 34)" style="fill-opacity:1.00" />
<!-- End 'A' -->
<!-- Begin 'C' -->
<ellipse cx="475.000000" cy="108.530816" rx="25.000000" ry="0.767913" fill="rgb(0, 0, 128)" style="fill-opacity:1.00" />
<ellipse cx="475.000000" cy="108.530816" rx="16.666667" ry="0.511942" fill="rgb(255, 255, 255)" style="fill-opacity:1.00" />
<rect height="0.767913" width="25.000000" x="475.000000" y="108.146860" fill="rgb(255, 255, 255)" style="fill-opacity:1.00" />
<!-- End 'C' -->
<!-- Begin 'G' -->
<ellipse cx="475.000000" cy="109.649365" rx="25.000000" ry="0.350635" fill="rgb(255, 165, 0)" style="fill-opacity:1.00" />
<ellipse cx="475.000000" cy="109.649365" rx="16.666667" ry="0.233757" fill="rgb(255, 255, 255)" style="fill-opacity:1.00" />
<rect height="0.350635" width="25.000000" x="475.000000" y="109.474047" fill="rgb(255, 255, 255)" style="fill-opacity:1.00" />
<rect height="0.087659" width="25.000000" x="475.000000" y="109.737023" fill="rgb(255, 165, 0)" style="fill-opacity:1.00" />
<rect height="0.262977" width="6.250000" x="493.750000" y="109.737023" fill="rgb(255, 165, 0)" style="fill-opacity:1.00" />
<!-- End 'G' -->
<!-- Begin 'A' -->
<polygon points=" 510.000000, 105.498749, 531.000000, 30.049824, 539.000000, 30.049824, 560.000000, 105.498749, 552.500000, 105.498749, 546.250000, 86.636518, 523.750000, 86.636518, 517.500000, 105.498749" fill="rgb(178, 34, 34)" style="fill-opacity:1.00" />
<polygon points=" 535.000000, 45.139609, 527.000000, 74.319179, 542.000000, 74.319179" fill="rgb(255, 255, 255)" style="fill-opacity:1.00" />
<!-- End 'A' -->
<!-- Begin 'G' -->
<ellipse cx="535.000000" cy="106.380883" rx="25.000000" ry="0.882134" fill="rgb(255, 165, 0)" style="fill-opacity:1.00" />
<ellipse cx="535.000000" cy="106.380883" rx="16.666667" ry="0.588089" fill="rgb(255, 255, 255)" style="fill-opacity:1.00" />
<rect height="0.882134" width="25.000000" x="535.000000" y="105.939816" fill="rgb(255, 255, 255)" style="fill-opacity:1.00" />
<rect height="0.220534" width="25.000000" x="535.000000" y="106.601417" fill="rgb(255, 165, 0)" style="fill-opacity:1.00" />
<rect height="0.661601" width="6.250000" x="553.750000" y="106.601417" fill="rgb(255, 165, 0)" style="fill-opacity:1.00" />
<!-- End 'G' -->
<!-- Begin 'T' -->
<rect height="0.239031" width="50.000000" x="510.000000" y="107.263017" fill="rgb(0, 100, 0)" style="fill-opacity:1.00" />
<rect height="1.493944" width="10.000000" x="530.000000" y="107.263017" fill="rgb(0, 100, 0)" style="fill-opacity:1.00" />
<!-- End 'T' -->
<!-- Begin 'C' -->
<ellipse cx="535.000000" cy="109.378481" rx="25.000000" ry="0.621519" fill="rgb(0, 0, 128)" style="fill-opacity:1.00" />
<ellipse cx="535.000000" cy="109.378481" rx="16.666667" ry="0.414346" fill="rgb(255, 255, 255)" style="fill-opacity:1.00" />
<rect height="0.621519" width="25.000000" x="535.000000" y="109.067721" fill="rgb(255, 255, 255)" style="fill-opacity:1.00" />
<!-- End 'C' -->
<!-- Begin 'T' -->
<rect height="15.002453" width="50.000000" x="570.000000" y="15.154336" fill="rgb(0, 100, 0)" style="fill-opacity:1.00" />
<rect height="93.765334" width="10.000000" x="590.000000" y="15.154336" fill="rgb(0, 100, 0)" style="fill-opacity:1.00" />
<!-- End 'T' -->
<!-- Begin 'A' -->
<polygon points=" 570.000000, 109.659967, 591.000000, 108.919670, 599.000000, 108.919670, 620.000000, 109.659967, 612.500000, 109.659967, 606.250000, 109.474893, 583.750000, 109.474893, 577.500000, 109.659967" fill="rgb(178, 34, 34)" style="fill-opacity:1.00" />
<!-- End 'A' -->
<!-- Begin 'C' -->
<ellipse cx="595.000000" cy="109.785407" rx="25.000000" ry="0.125440" fill="rgb(0, 0, 128)" style="fill-opacity:1.00" />
<ellipse cx="595.000000" cy="109.785407" rx="16.666667" ry="0.083627" fill="rgb(255, 255, 255)" style="fill-opacity:1.00" />
<rect height="0.125440" width="25.000000" x="595.000000" y="109.722687" fill="rgb(255, 255, 255)" style="fill-opacity:1.00" />
<!-- End 'C' -->
<!-- Begin 'G' -->
<ellipse cx="595.000000" cy="109.955424" rx="25.000000" ry="0.044576" fill="rgb(255, 165, 0)" style="fill-opacity:1.00" />
<ellipse cx="595.000000" cy="109.955424" rx="16.666667" ry="0.029717" fill="rgb(255, 255, 255)" style="fill-opacity:1.00" />
<rect height="0.044576" width="25.000000" x="595.000000" y="109.933136" fill="rgb(255, 255, 255)" style="fill-opacity:1.00" />
<rect height="0.011144" width="25.000000" x="595.000000" y="109.966568" fill="rgb(255, 165, 0)" style="fill-opacity:1.00" />
<rect height="0.033432" width="6.250000" x="613.750000" y="109.966568" fill="rgb(255, 165, 0)" style="fill-opacity:1.00" />
<!-- End 'G' -->
<!-- Begin 'T' -->
<rect height="11.181083" width="50.000000" x="630.000000" y="34.280082" fill="rgb(0, 100, 0)" style="fill-opacity:1.00" />
<rect height="69.881769" width="10.000000" x="650.000000" y="34.280082" fill="rgb(0, 100, 0)" style="fill-opacity:1.00" />
<!-- End 'T' -->
<!-- Begin 'A' -->
<polygon points=" 630.000000, 108.027412, 651.000000, 104.161851, 659.000000, 104.161851, 680.000000, 108.027412, 672.500000, 108.027412, 666.250000, 107.061022, 643.750000, 107.061022, 637.500000, 108.027412" fill="rgb(178, 34, 34)" style="fill-opacity:1.00" />
<!-- End 'A' -->
<!-- Begin 'G' -->
<ellipse cx="655.000000" cy="108.729474" rx="25.000000" ry="0.702062" fill="rgb(255, 165, 0)" style="fill-opacity:1.00" />
<ellipse cx="655.000000" cy="108.729474" rx="16.666667" ry="0.468041" fill="rgb(255, 255, 255)" style="fill-opacity:1.00" />
<rect height="0.702062" width="25.000000" x="655.000000" y="108.378443" fill="rgb(255, 255, 255)" style="fill-opacity:1.00" />
<rect height="0.175515" width="25.000000" x="655.000000" y="108.904989" fill="rgb(255, 165, 0)" style="fill-opacity:1.00" />
<rect height="0.526546" width="6.250000" x="673.750000" y="108.904989" fill="rgb(255, 165, 0)" style="fill-opacity:1.00" />
<!-- End 'G' -->
<!-- Begin 'C' -->
<ellipse cx="655.000000" cy="109.715768" rx="25.000000" ry="0.284232" fill="rgb(0, 0, 128)" style="fill-opacity:1.00" />
<ellipse cx="655.000000" cy="109.715768" rx="16.666667" ry="0.189488" fill="rgb(255, 255, 255)" style="fill-opacity:1.00" />
<rect height="0.284232" width="25.000000" x="655.000000" y="109.573652" fill="rgb(255, 255, 255)" style="fill-opacity:1.00" />
<!-- End 'C' -->
<!-- Begin 'C' -->
<ellipse cx="715.000000" cy="66.673533" rx="25.000000" ry="39.193706" fill="rgb(0, 0, 128)" style="fill-opacity:1.00" />
<ellipse cx="715.000000" cy="66.673533" rx="16.666667" ry="26.129137" fill="rgb(255, 255, 255)" style="fill-opacity:1.00" />
<rect height="39.193706" width="25.000000" x="715.000000" y="47.076680" fill="rgb(255, 255, 255)" style="fill-opacity:1.00" />
<!-- End 'C' -->
<!-- Begin 'T' -->
<rect height="0.375470" width="50.000000" x="690.000000" y="105.867239" fill="rgb(0, 100, 0)" style="fill-opacity:1.00" />
<rect height="2.346690" width="10.000000" x="710.000000" y="105.867239" fill="rgb(0, 100, 0)" style="fill-opacity:1.00" />
<!-- End 'T' -->
<!-- Begin 'A' -->
<polygon points=" 690.000000, 109.724173, 711.000000, 108.213929, 719.000000, 108.213929, 740.000000, 109.724173, 732.500000, 109.724173, 726.250000, 109.346612, 703.750000, 109.346612, 697.500000, 109.724173" fill="rgb(178, 34, 34)" style="fill-opacity:1.00" />
<!-- End 'A' -->
<!-- Begin 'G' -->
<ellipse cx="715.000000" cy="109.862087" rx="25.000000" ry="0.137913" fill="rgb(255, 165, 0)" style="fill-opacity:1.00" />
<ellipse cx="715.000000" cy="109.862087" rx="16.666667" ry="0.091942" fill="rgb(255, 255, 255)" style="fill-opacity:1.00" />
<rect height="0.137913" width="25.000000" x="715.000000" y="109.793130" fill="rgb(255, 255, 255)" style="fill-opacity:1.00" />
<rect height="0.034478" width="25.000000" x="715.000000" y="109.896565" fill="rgb(255, 165, 0)" style="fill-opacity:1.00" />
<rect height="0.103435" width="6.250000" x="733.750000" y="109.896565" fill="rgb(255, 165, 0)" style="fill-opacity:1.00" />
<!-- End 'G' -->
<!-- Begin 'T' -->
<rect height="3.704781" width="50.000000" x="750.000000" y="73.937312" fill="rgb(0, 100, 0)" style="fill-opacity:1.00" />
<rect height="23.154883" width="10.000000" x="770.000000" y="73.937312" fill="rgb(0, 100, 0)" style="fill-opacity:1.00" />
<!-- End 'T' -->
<!-- Begin 'C' -->
<ellipse cx="775.000000" cy="102.079305" rx="25.000000" ry="4.987110" fill="rgb(0, 0, 128)" style="fill-opacity:1.00" />
<ellipse cx="775.000000" cy="102.079305" rx="16.666667" ry="3.324740" fill="rgb(255, 255, 255)" style="fill-opacity:1.00" />
<rect height="4.987110" width="25.000000" x="775.000000" y="99.585750" fill="rgb(255, 255, 255)" style="fill-opacity:1.00" />
<!-- End 'C' -->
<!-- Begin 'G' -->
<ellipse cx="775.000000" cy="108.218299" rx="25.000000" ry="1.151884" fill="rgb(255, 165, 0)" style="fill-opacity:1.00" />
<ellipse cx="775.000000" cy="108.218299" rx="16.666667" ry="0.767923" fill="rgb(255, 255, 255)" style="fill-opacity:1.00" />
<rect height="1.151884" width="25.000000" x="775.000000" y="107.642356" fill="rgb(255, 255, 255)" style="fill-opacity:1.00" />
<rect height="0.287971" width="25.000000" x="775.000000" y="108.506270" fill="rgb(255, 165, 0)" style="fill-opacity:1.00" />
<rect height="0.863913" width="6.250000" x="793.750000" y="108.506270" fill="rgb(255, 165, 0)" style="fill-opacity:1.00" />
<!-- End 'G' -->
<!-- Begin 'A' -->
<polygon points=" 750.000000, 110.000000, 771.000000, 109.370183, 779.000000, 109.370183, 800.000000, 110.000000, 792.500000, 110.000000, 786.250000, 109.842546, 763.750000, 109.842546, 757.500000, 110.000000" fill="rgb(178, 34, 34)" style="fill-opacity:1.00" />
<!-- End 'A' -->
<!-- Begin 'T' -->
<rect height="0.614784" width="50.000000" x="810.000000" y="100.943449" fill="rgb(0, 100, 0)" style="fill-opacity:1.00" />
<rect height="3.842398" width="10.000000" x="830.000000" y="100.943449" fill="rgb(0, 100, 0)" style="fill-opacity:1.00" />
<!-- End 'T' -->
<!-- Begin 'A' -->
<polygon points=" 810.000000, 107.362601, 831.000000, 104.785847, 839.000000, 104.785847, 860.000000, 107.362601, 852.500000, 107.362601, 846.250000, 106.718412, 823.750000, 106.718412, 817.500000, 107.362601" fill="rgb(178, 34, 34)" style="fill-opacity:1.00" />
<!-- End 'A' -->
<!-- Begin 'C' -->
<ellipse cx="835.000000" cy="108.273676" rx="25.000000" ry="0.911076" fill="rgb(0, 0, 128)" style="fill-opacity:1.00" />
<ellipse cx="835.000000" cy="108.273676" rx="16.666667" ry="0.607384" fill="rgb(255, 255, 255)" style="fill-opacity:1.00" />
<rect height="0.911076" width="25.000000" x="835.000000" y="107.818139" fill="rgb(255, 255, 255)" style="fill-opacity:1.00" />
<!-- End 'C' -->
<!-- Begin 'G' -->
<ellipse cx="835.000000" cy="109.592376" rx="25.000000" ry="0.407624" fill="rgb(255, 165, 0)" style="fill-opacity:1.00" />
<ellipse cx="835.000000" cy="109.592376" rx="16.666667" ry="0.271749" fill="rgb(255, 255, 255)" style="fill-opacity:1.00" />
<rect height="0.407624" width="25.000000" x="835.000000" y="109.388564" fill="rgb(255, 255, 255)" style="fill-opacity:1.00" />
<rect height="0.101906" width="25.000000" x="835.000000" y="109.694282" fill="rgb(255, 165, 0)" style="fill-opacity:1.00" />
<rect height="0.305718" width="6.250000" x="853.750000" y="109.694282" fill="rgb(255, 165, 0)" style="fill-opacity:1.00" />
<!-- End 'G' -->
<!-- Begin 'T' -->
<rect height="1.170561" width="50.000000" x="870.000000" y="95.417485" fill="rgb(0, 100, 0)" style="fill-opacity:1.00" />
<rect height="7.316008" width="10.000000" x="890.000000" y="95.417485" fill="rgb(0, 100, 0)" style="fill-opacity:1.00" />
<!-- End 'T' -->
<!-- Begin 'A' -->
<polygon points=" 870.000000, 106.654198, 891.000000, 102.733493, 899.000000, 102.733493, 920.000000, 106.654198, 912.500000, 106.654198, 906.250000, 105.674022, 883.750000, 105.674022, 877.500000, 106.654198" fill="rgb(178, 34, 34)" style="fill-opacity:1.00" />
<!-- End 'A' -->
<!-- Begin 'C' -->
<ellipse cx="895.000000" cy="107.757413" rx="25.000000" ry="1.103215" fill="rgb(0, 0, 128)" style="fill-opacity:1.00" />
<ellipse cx="895.000000" cy="107.757413" rx="16.666667" ry="0.735477" fill="rgb(255, 255, 255)" style="fill-opacity:1.00" />
<rect height="1.103215" width="25.000000" x="895.000000" y="107.205806" fill="rgb(255, 255, 255)" style="fill-opacity:1.00" />
<!-- End 'C' -->
<!-- Begin 'G' -->
<ellipse cx="895.000000" cy="109.430314" rx="25.000000" ry="0.569686" fill="rgb(255, 165, 0)" style="fill-opacity:1.00" />
<ellipse cx="895.000000" cy="109.430314" rx="16.666667" ry="0.379791" fill="rgb(255, 255, 255)" style="fill-opacity:1.00" />
<rect height="0.569686" width="25.000000" x="895.000000" y="109.145471" fill="rgb(255, 255, 255)" style="fill-opacity:1.00" />
<rect height="0.142422" width="25.000000" x="895.000000" y="109.572735" fill="rgb(255, 165, 0)" style="fill-opacity:1.00" />
<rect height="0.427265" width="6.250000" x="913.750000" y="109.572735" fill="rgb(255, 165, 0)" style="fill-opacity:1.00" />
<!-- End 'G' -->
<!-- Begin 'T' -->
<rect height="0.588877" width="50.000000" x="930.000000" y="101.484807" fill="rgb(0, 100, 0)" style="fill-opacity:1.00" />
<rect height="3.680484" width="10.000000" x="950.000000" y="101.484807" fill="rgb(0, 100, 0)" style="fill-opacity:1.00" />
<!-- End 'T' -->
<!-- Begin 'A' -->
<polygon points=" 930.000000, 107.653011, 951.000000, 105.165291, 959.000000, 105.165291, 980.000000, 107.653011, 972.500000, 107.653011, 966.250000, 107.031081, 943.750000, 107.031081, 937.500000, 107.653011" fill="rgb(178, 34, 34)" style="fill-opacity:1.00" />
<!-- End 'A' -->
<!-- Begin 'G' -->
<ellipse cx="955.000000" cy="108.249978" rx="25.000000" ry="0.596967" fill="rgb(255, 165, 0)" style="fill-opacity:1.00" />
<ellipse cx="955.000000" cy="108.249978" rx="16.666667" ry="0.397978" fill="rgb(255, 255, 255)" style="fill-opacity:1.00" />
<rect height="0.596967" width="25.000000" x="955.000000" y="107.951495" fill="rgb(255, 255, 255)" style="fill-opacity:1.00" />
<rect height="0.149242" width="25.000000" x="955.000000" y="108.399220" fill="rgb(255, 165, 0)" style="fill-opacity:1.00" />
<rect height="0.447725" width="6.250000" x="973.750000" y="108.399220" fill="rgb(255, 165, 0)" style="fill-opacity:1.00" />
<!-- End 'G' -->
<!-- Begin 'C' -->
<ellipse cx="955.000000" cy="109.423473" rx="25.000000" ry="0.576527" fill="rgb(0, 0, 128)" style="fill-opacity:1.00" />
<ellipse cx="955.000000" cy="109.423473" rx="16.666667" ry="0.384351" fill="rgb(255, 255, 255)" style="fill-opacity:1.00" />
<rect height="0.576527" width="25.000000" x="955.000000" y="109.135209" fill="rgb(255, 255, 255)" style="fill-opacity:1.00" />
<!-- End 'C' -->
<text x="520.000000" y="165">
IC = 9.78
</text>

</svg>
