<?xml version="1.0" encoding="UTF-8" standalone="yes"?>
                 <!DOCTYPE svg PUBLIC "-//W3C//DTD SVG 1.0//EN" "http://www.w3.org/TR/2001/REC-SVG-20010904/DTD/svg10.dtd">
                 <svg height="170" width="1200" xmlns="http://www.w3.org/2000/svg" xmlns:xlink="http://www.w3.org/1999/xlink">
                 <line x1="85" y1="120" x2="1167" y2="120" style="stroke:rgb(99,99,99);stroke-width:2" />
<rect height="7.000000" width="2.000000" x="85.000000" y="120.000000" fill="rgb(0, 0, 0)" style="fill-opacity:1.00" />
<text x="107.000000" y="140">
1
</text>
<rect height="7.000000" width="2.000000" x="145.000000" y="120.000000" fill="rgb(0, 0, 0)" style="fill-opacity:1.00" />
<text x="167.000000" y="140">
2
</text>
<rect height="7.000000" width="2.000000" x="205.000000" y="120.000000" fill="rgb(0, 0, 0)" style="fill-opacity:1.00" />
<text x="227.000000" y="140">
3
</text>
<rect height="7.000000" width="2.000000" x="265.000000" y="120.000000" fill="rgb(0, 0, 0)" style="fill-opacity:1.00" />
<text x="287.000000" y="140">
4
</text>
<rect height="7.000000" width="2.000000" x="325.000000" y="120.000000" fill="rgb(0, 0, 0)" style="fill-opacity:1.00" />
<text x="347.000000" y="140">
5
</text>
<rect height="7.000000" width="2.000000" x="385.000000" y="120.000000" fill="rgb(0, 0, 0)" style="fill-opacity:1.00" />
<text x="407.000000" y="140">
6
</text>
<rect height="7.000000" width="2.000000" x="445.000000" y="120.000000" fill="rgb(0, 0, 0)" style="fill-opacity:1.00" />
<text x="467.000000" y="140">
7
</text>
<rect height="7.000000" width="2.000000" x="505.000000" y="120.000000" fill="rgb(0, 0, 0)" style="fill-opacity:1.00" />
<text x="527.000000" y="140">
8
</text>
<rect height="7.000000" width="2.000000" x="565.000000" y="120.000000" fill="rgb(0, 0, 0)" style="fill-opacity:1.00" />
<text x="587.000000" y="140">
9
</text>
<rect height="7.000000" width="2.000000" x="625.000000" y="120.000000" fill="rgb(0, 0, 0)" style="fill-opacity:1.00" />
<text x="647.000000" y="140">
10
</text>
<rect height="7.000000" width="2.000000" x="685.000000" y="120.000000" fill="rgb(0, 0, 0)" style="fill-opacity:1.00" />
<text x="707.000000" y="140">
11
</text>
<rect height="7.000000" width="2.000000" x="745.000000" y="120.000000" fill="rgb(0, 0, 0)" style="fill-opacity:1.00" />
<text x="767.000000" y="140">
12
</text>
<rect height="7.000000" width="2.000000" x="805.000000" y="120.000000" fill="rgb(0, 0, 0)" style="fill-opacity:1.00" />
<text x="827.000000" y="140">
13
</text>
<rect height="7.000000" width="2.000000" x="865.000000" y="120.000000" fill="rgb(0, 0, 0)" style="fill-opacity:1.00" />
<text x="887.000000" y="140">
14
</text>
<rect height="7.000000" width="2.000000" x="925.000000" y="120.000000" fill="rgb(0, 0, 0)" style="fill-opacity:1.00" />
<text x="947.000000" y="140">
15
</text>
<rect height="7.000000" width="2.000000" x="985.000000" y="120.000000" fill="rgb(0, 0, 0)" style="fill-opacity:1.00" />
<text x="1007.000000" y="140">
16
</text>
<rect height="7.000000" width="2.000000" x="1045.000000" y="120.000000" fill="rgb(0, 0, 0)" style="fill-opacity:1.00" />
<text x="1067.000000" y="140">
17
</text>
<rect height="7.000000" width="2.000000" x="1105.000000" y="120.000000" fill="rgb(0, 0, 0)" style="fill-opacity:1.00" />
<text x="1127.000000" y="140">
18
</text>
<rect height="7.000000" width="2.000000" x="1165.000000" y="120.000000" fill="rgb(0, 0, 0)" style="fill-opacity:1.00" />
<line x1="80" y1="112" x2="80" y2="10" style="stroke:rgb(99,99,99);stroke-width:2" />
<rect height="2.000000" width="7.000000" x="73.000000" y="110.000000" fill="rgb(0, 0, 0)" style="fill-opacity:1.00" />
<text x="63" y="115">
0
</text>
<rect height="2.000000" width="7.000000" x="73.000000" y="60.000000" fill="rgb(0, 0, 0)" style="fill-opacity:1.00" />
<text x="63" y="65">
1
</text>
<rect height="2.000000" width="7.000000" x="73.000000" y="10.000000" fill="rgb(0, 0, 0)" style="fill-opacity:1.00" />
<text x="63" y="15">
2
</text>
<text x="50" y="65"
transform="rotate(-90, 50, 70)">
bits
</text>
<!-- Begin 'A' -->
<polygon points=" 90.000000, 106.412760, 111.000000, 104.099110, 119.000000, 104.099110, 140.000000, 106.412760, 132.500000, 106.412760, 126.250000, 105.834347, 103.750000, 105.834347, 97.500000, 106.412760" fill="rgb(178, 34, 34)" style="fill-opacity:1.00" />
<!-- End 'A' -->
<!-- Begin 'T' -->
<rect height="0.264017" width="50.000000" x="90.000000" y="106.412760" fill="rgb(0, 100, 0)" style="fill-opacity:1.00" />
<rect height="1.650106" width="10.000000" x="110.000000" y="106.412760" fill="rgb(0, 100, 0)" style="fill-opacity:1.00" />
<!-- End 'T' -->
<!-- Begin 'G' -->
<ellipse cx="115.000000" cy="108.678103" rx="25.000000" ry="0.615238" fill="rgb(255, 165, 0)" style="fill-opacity:1.00" />
<ellipse cx="115.000000" cy="108.678103" rx="16.666667" ry="0.410159" fill="rgb(255, 255, 255)" style="fill-opacity:1.00" />
<rect height="0.615238" width="25.000000" x="115.000000" y="108.370484" fill="rgb(255, 255, 255)" style="fill-opacity:1.00" />
<rect height="0.153809" width="25.000000" x="115.000000" y="108.831913" fill="rgb(255, 165, 0)" style="fill-opacity:1.00" />
<rect height="0.461428" width="6.250000" x="133.750000" y="108.831913" fill="rgb(255, 165, 0)" style="fill-opacity:1.00" />
<!-- End 'G' -->
<!-- Begin 'C' -->
<ellipse cx="115.000000" cy="109.646671" rx="25.000000" ry="0.353329" fill="rgb(0, 0, 128)" style="fill-opacity:1.00" />
<ellipse cx="115.000000" cy="109.646671" rx="16.666667" ry="0.235553" fill="rgb(255, 255, 255)" style="fill-opacity:1.00" />
<rect height="0.353329" width="25.000000" x="115.000000" y="109.470006" fill="rgb(255, 255, 255)" style="fill-opacity:1.00" />
<!-- End 'C' -->
<!-- Begin 'G' -->
<ellipse cx="175.000000" cy="100.215768" rx="25.000000" ry="2.742872" fill="rgb(255, 165, 0)" style="fill-opacity:1.00" />
<ellipse cx="175.000000" cy="100.215768" rx="16.666667" ry="1.828581" fill="rgb(255, 255, 255)" style="fill-opacity:1.00" />
<rect height="2.742872" width="25.000000" x="175.000000" y="98.844332" fill="rgb(255, 255, 255)" style="fill-opacity:1.00" />
<rect height="0.685718" width="25.000000" x="175.000000" y="100.901486" fill="rgb(255, 165, 0)" style="fill-opacity:1.00" />
<rect height="2.057154" width="6.250000" x="193.750000" y="100.901486" fill="rgb(255, 165, 0)" style="fill-opacity:1.00" />
<!-- End 'G' -->
<!-- Begin 'A' -->
<polygon points=" 150.000000, 107.212077, 171.000000, 102.958640, 179.000000, 102.958640, 200.000000, 107.212077, 192.500000, 107.212077, 186.250000, 106.148718, 163.750000, 106.148718, 157.500000, 107.212077" fill="rgb(178, 34, 34)" style="fill-opacity:1.00" />
<!-- End 'A' -->
<!-- Begin 'T' -->
<rect height="0.267204" width="50.000000" x="150.000000" y="107.212077" fill="rgb(0, 100, 0)" style="fill-opacity:1.00" />
<rect height="1.670023" width="10.000000" x="170.000000" y="107.212077" fill="rgb(0, 100, 0)" style="fill-opacity:1.00" />
<!-- End 'T' -->
<!-- Begin 'C' -->
<ellipse cx="175.000000" cy="109.441050" rx="25.000000" ry="0.558950" fill="rgb(0, 0, 128)" style="fill-opacity:1.00" />
<ellipse cx="175.000000" cy="109.441050" rx="16.666667" ry="0.372633" fill="rgb(255, 255, 255)" style="fill-opacity:1.00" />
<rect height="0.558950" width="25.000000" x="175.000000" y="109.161575" fill="rgb(255, 255, 255)" style="fill-opacity:1.00" />
<!-- End 'C' -->
<!-- Begin 'A' -->
<polygon points=" 210.000000, 98.798928, 231.000000, 73.281380, 239.000000, 73.281380, 260.000000, 98.798928, 252.500000, 98.798928, 246.250000, 92.419541, 223.750000, 92.419541, 217.500000, 98.798928" fill="rgb(178, 34, 34)" style="fill-opacity:1.00" />
<polygon points=" 235.000000, 78.384890, 227.000000, 87.591909, 242.000000, 87.591909" fill="rgb(255, 255, 255)" style="fill-opacity:1.00" />
<!-- End 'A' -->
<!-- Begin 'G' -->
<ellipse cx="235.000000" cy="102.310273" rx="25.000000" ry="3.511345" fill="rgb(255, 165, 0)" style="fill-opacity:1.00" />
<ellipse cx="235.000000" cy="102.310273" rx="16.666667" ry="2.340897" fill="rgb(255, 255, 255)" style="fill-opacity:1.00" />
<rect height="3.511345" width="25.000000" x="235.000000" y="100.554600" fill="rgb(255, 255, 255)" style="fill-opacity:1.00" />
<rect height="0.877836" width="25.000000" x="235.000000" y="103.188109" fill="rgb(255, 165, 0)" style="fill-opacity:1.00" />
<rect height="2.633509" width="6.250000" x="253.750000" y="103.188109" fill="rgb(255, 165, 0)" style="fill-opacity:1.00" />
<!-- End 'G' -->
<!-- Begin 'T' -->
<rect height="0.518076" width="50.000000" x="210.000000" y="105.821618" fill="rgb(0, 100, 0)" style="fill-opacity:1.00" />
<rect height="3.237977" width="10.000000" x="230.000000" y="105.821618" fill="rgb(0, 100, 0)" style="fill-opacity:1.00" />
<!-- End 'T' -->
<!-- Begin 'C' -->
<ellipse cx="235.000000" cy="109.529798" rx="25.000000" ry="0.470202" fill="rgb(0, 0, 128)" style="fill-opacity:1.00" />
<ellipse cx="235.000000" cy="109.529798" rx="16.666667" ry="0.313468" fill="rgb(255, 255, 255)" style="fill-opacity:1.00" />
<rect height="0.470202" width="25.000000" x="235.000000" y="109.294696" fill="rgb(255, 255, 255)" style="fill-opacity:1.00" />
<!-- End 'C' -->
<!-- Begin 'A' -->
<polygon points=" 270.000000, 100.006033, 291.000000, 63.388459, 299.000000, 63.388459, 320.000000, 100.006033, 312.500000, 100.006033, 306.250000, 90.851640, 283.750000, 90.851640, 277.500000, 100.006033" fill="rgb(178, 34, 34)" style="fill-opacity:1.00" />
<polygon points=" 295.000000, 70.711974, 287.000000, 84.359004, 302.000000, 84.359004" fill="rgb(255, 255, 255)" style="fill-opacity:1.00" />
<!-- End 'A' -->
<!-- Begin 'G' -->
<ellipse cx="295.000000" cy="102.191880" rx="25.000000" ry="2.185846" fill="rgb(255, 165, 0)" style="fill-opacity:1.00" />
<ellipse cx="295.000000" cy="102.191880" rx="16.666667" ry="1.457231" fill="rgb(255, 255, 255)" style="fill-opacity:1.00" />
<rect height="2.185846" width="25.000000" x="295.000000" y="101.098957" fill="rgb(255, 255, 255)" style="fill-opacity:1.00" />
<rect height="0.546462" width="25.000000" x="295.000000" y="102.738342" fill="rgb(255, 165, 0)" style="fill-opacity:1.00" />
<rect height="1.639385" width="6.250000" x="313.750000" y="102.738342" fill="rgb(255, 165, 0)" style="fill-opacity:1.00" />
<!-- End 'G' -->
<!-- Begin 'T' -->
<rect height="0.631762" width="50.000000" x="270.000000" y="104.377726" fill="rgb(0, 100, 0)" style="fill-opacity:1.00" />
<rect height="3.948514" width="10.000000" x="290.000000" y="104.377726" fill="rgb(0, 100, 0)" style="fill-opacity:1.00" />
<!-- End 'T' -->
<!-- Begin 'C' -->
<ellipse cx="295.000000" cy="109.163120" rx="25.000000" ry="0.836880" fill="rgb(0, 0, 128)" style="fill-opacity:1.00" />
<ellipse cx="295.000000" cy="109.163120" rx="16.666667" ry="0.557920" fill="rgb(255, 255, 255)" style="fill-opacity:1.00" />
<rect height="0.836880" width="25.000000" x="295.000000" y="108.744680" fill="rgb(255, 255, 255)" style="fill-opacity:1.00" />
<!-- End 'C' -->
<!-- Begin 'A' -->
<polygon points=" 330.000000, 100.419298, 351.000000, 54.304804, 359.000000, 54.304804, 380.000000, 100.419298, 372.500000, 100.419298, 366.250000, 88.890674, 343.750000, 88.890674, 337.500000, 100.419298" fill="rgb(178, 34, 34)" style="fill-opacity:1.00" />
<polygon points=" 355.000000, 63.527702, 347.000000, 80.973500, 362.000000, 80.973500" fill="rgb(255, 255, 255)" style="fill-opacity:1.00" />
<!-- End 'A' -->
<!-- Begin 'G' -->
<ellipse cx="355.000000" cy="102.865583" rx="25.000000" ry="2.446286" fill="rgb(255, 165, 0)" style="fill-opacity:1.00" />
<ellipse cx="355.000000" cy="102.865583" rx="16.666667" ry="1.630857" fill="rgb(255, 255, 255)" style="fill-opacity:1.00" />
<rect height="2.446286" width="25.000000" x="355.000000" y="101.642441" fill="rgb(255, 255, 255)" style="fill-opacity:1.00" />
<rect height="0.611571" width="25.000000" x="355.000000" y="103.477155" fill="rgb(255, 165, 0)" style="fill-opacity:1.00" />
<rect height="1.834714" width="6.250000" x="373.750000" y="103.477155" fill="rgb(255, 165, 0)" style="fill-opacity:1.00" />
<!-- End 'G' -->
<!-- Begin 'T' -->
<rect height="0.635819" width="50.000000" x="330.000000" y="105.311869" fill="rgb(0, 100, 0)" style="fill-opacity:1.00" />
<rect height="3.973866" width="10.000000" x="350.000000" y="105.311869" fill="rgb(0, 100, 0)" style="fill-opacity:1.00" />
<!-- End 'T' -->
<!-- Begin 'C' -->
<ellipse cx="355.000000" cy="109.642867" rx="25.000000" ry="0.357133" fill="rgb(0, 0, 128)" style="fill-opacity:1.00" />
<ellipse cx="355.000000" cy="109.642867" rx="16.666667" ry="0.238088" fill="rgb(255, 255, 255)" style="fill-opacity:1.00" />
<rect height="0.357133" width="25.000000" x="355.000000" y="109.464301" fill="rgb(255, 255, 255)" style="fill-opacity:1.00" />
<!-- End 'C' -->
<!-- Begin 'A' -->
<polygon points=" 390.000000, 106.720260, 411.000000, 105.013257, 419.000000, 105.013257, 440.000000, 106.720260, 432.500000, 106.720260, 426.250000, 106.293509, 403.750000, 106.293509, 397.500000, 106.720260" fill="rgb(178, 34, 34)" style="fill-opacity:1.00" />
<!-- End 'A' -->
<!-- Begin 'G' -->
<ellipse cx="415.000000" cy="107.563662" rx="25.000000" ry="0.843402" fill="rgb(255, 165, 0)" style="fill-opacity:1.00" />
<ellipse cx="415.000000" cy="107.563662" rx="16.666667" ry="0.562268" fill="rgb(255, 255, 255)" style="fill-opacity:1.00" />
<rect height="0.843402" width="25.000000" x="415.000000" y="107.141961" fill="rgb(255, 255, 255)" style="fill-opacity:1.00" />
<rect height="0.210851" width="25.000000" x="415.000000" y="107.774513" fill="rgb(255, 165, 0)" style="fill-opacity:1.00" />
<rect height="0.632552" width="6.250000" x="433.750000" y="107.774513" fill="rgb(255, 165, 0)" style="fill-opacity:1.00" />
<!-- End 'G' -->
<!-- Begin 'C' -->
<ellipse cx="415.000000" cy="108.854193" rx="25.000000" ry="0.447129" fill="rgb(0, 0, 128)" style="fill-opacity:1.00" />
<ellipse cx="415.000000" cy="108.854193" rx="16.666667" ry="0.298086" fill="rgb(255, 255, 255)" style="fill-opacity:1.00" />
<rect height="0.447129" width="25.000000" x="415.000000" y="108.630629" fill="rgb(255, 255, 255)" style="fill-opacity:1.00" />
<!-- End 'C' -->
<!-- Begin 'T' -->
<rect height="0.111788" width="50.000000" x="390.000000" y="109.301322" fill="rgb(0, 100, 0)" style="fill-opacity:1.00" />
<rect height="0.698678" width="10.000000" x="410.000000" y="109.301322" fill="rgb(0, 100, 0)" style="fill-opacity:1.00" />
<!-- End 'T' -->
<!-- Begin 'T' -->
<rect height="0.437040" width="50.000000" x="450.000000" y="102.690028" fill="rgb(0, 100, 0)" style="fill-opacity:1.00" />
<rect height="2.731497" width="10.000000" x="470.000000" y="102.690028" fill="rgb(0, 100, 0)" style="fill-opacity:1.00" />
<!-- End 'T' -->
<!-- Begin 'A' -->
<polygon points=" 450.000000, 107.954450, 471.000000, 105.421525, 479.000000, 105.421525, 500.000000, 107.954450, 492.500000, 107.954450, 486.250000, 107.321219, 463.750000, 107.321219, 457.500000, 107.954450" fill="rgb(178, 34, 34)" style="fill-opacity:1.00" />
<!-- End 'A' -->
<!-- Begin 'C' -->
<ellipse cx="475.000000" cy="108.495496" rx="25.000000" ry="0.541046" fill="rgb(0, 0, 128)" style="fill-opacity:1.00" />
<ellipse cx="475.000000" cy="108.495496" rx="16.666667" ry="0.360697" fill="rgb(255, 255, 255)" style="fill-opacity:1.00" />
<rect height="0.541046" width="25.000000" x="475.000000" y="108.224973" fill="rgb(255, 255, 255)" style="fill-opacity:1.00" />
<!-- End 'C' -->
<!-- Begin 'G' -->
<ellipse cx="475.000000" cy="109.518271" rx="25.000000" ry="0.481729" fill="rgb(255, 165, 0)" style="fill-opacity:1.00" />
<ellipse cx="475.000000" cy="109.518271" rx="16.666667" ry="0.321153" fill="rgb(255, 255, 255)" style="fill-opacity:1.00" />
<rect height="0.481729" width="25.000000" x="475.000000" y="109.277406" fill="rgb(255, 255, 255)" style="fill-opacity:1.00" />
<rect height="0.120432" width="25.000000" x="475.000000" y="109.638703" fill="rgb(255, 165, 0)" style="fill-opacity:1.00" />
<rect height="0.361297" width="6.250000" x="493.750000" y="109.638703" fill="rgb(255, 165, 0)" style="fill-opacity:1.00" />
<!-- End 'G' -->
<!-- Begin 'G' -->
<ellipse cx="535.000000" cy="88.936392" rx="25.000000" ry="9.282551" fill="rgb(255, 165, 0)" style="fill-opacity:1.00" />
<ellipse cx="535.000000" cy="88.936392" rx="16.666667" ry="6.188367" fill="rgb(255, 255, 255)" style="fill-opacity:1.00" />
<rect height="9.282551" width="25.000000" x="535.000000" y="84.295117" fill="rgb(255, 255, 255)" style="fill-opacity:1.00" />
<rect height="2.320638" width="25.000000" x="535.000000" y="91.257030" fill="rgb(255, 165, 0)" style="fill-opacity:1.00" />
<rect height="6.961913" width="6.250000" x="553.750000" y="91.257030" fill="rgb(255, 165, 0)" style="fill-opacity:1.00" />
<!-- End 'G' -->
<!-- Begin 'A' -->
<polygon points=" 510.000000, 106.619298, 531.000000, 98.218943, 539.000000, 98.218943, 560.000000, 106.619298, 552.500000, 106.619298, 546.250000, 104.519209, 523.750000, 104.519209, 517.500000, 106.619298" fill="rgb(178, 34, 34)" style="fill-opacity:1.00" />
<polygon points=" 535.000000, 99.899014, 527.000000, 102.259156, 542.000000, 102.259156" fill="rgb(255, 255, 255)" style="fill-opacity:1.00" />
<!-- End 'A' -->
<!-- Begin 'T' -->
<rect height="0.394965" width="50.000000" x="510.000000" y="106.619298" fill="rgb(0, 100, 0)" style="fill-opacity:1.00" />
<rect height="2.468532" width="10.000000" x="530.000000" y="106.619298" fill="rgb(0, 100, 0)" style="fill-opacity:1.00" />
<!-- End 'T' -->
<!-- Begin 'C' -->
<ellipse cx="535.000000" cy="109.543915" rx="25.000000" ry="0.456085" fill="rgb(0, 0, 128)" style="fill-opacity:1.00" />
<ellipse cx="535.000000" cy="109.543915" rx="16.666667" ry="0.304057" fill="rgb(255, 255, 255)" style="fill-opacity:1.00" />
<rect height="0.456085" width="25.000000" x="535.000000" y="109.315872" fill="rgb(255, 255, 255)" style="fill-opacity:1.00" />
<!-- End 'C' -->
<!-- Begin 'A' -->
<polygon points=" 570.000000, 99.625832, 591.000000, 69.210317, 599.000000, 69.210317, 620.000000, 99.625832, 612.500000, 99.625832, 606.250000, 92.021953, 583.750000, 92.021953, 577.500000, 99.625832" fill="rgb(178, 34, 34)" style="fill-opacity:1.00" />
<polygon points=" 595.000000, 75.293420, 587.000000, 86.459626, 602.000000, 86.459626" fill="rgb(255, 255, 255)" style="fill-opacity:1.00" />
<!-- End 'A' -->
<!-- Begin 'G' -->
<ellipse cx="595.000000" cy="101.874141" rx="25.000000" ry="2.248309" fill="rgb(255, 165, 0)" style="fill-opacity:1.00" />
<ellipse cx="595.000000" cy="101.874141" rx="16.666667" ry="1.498873" fill="rgb(255, 255, 255)" style="fill-opacity:1.00" />
<rect height="2.248309" width="25.000000" x="595.000000" y="100.749986" fill="rgb(255, 255, 255)" style="fill-opacity:1.00" />
<rect height="0.562077" width="25.000000" x="595.000000" y="102.436218" fill="rgb(255, 165, 0)" style="fill-opacity:1.00" />
<rect height="1.686232" width="6.250000" x="613.750000" y="102.436218" fill="rgb(255, 165, 0)" style="fill-opacity:1.00" />
<!-- End 'G' -->
<!-- Begin 'T' -->
<rect height="0.712742" width="50.000000" x="570.000000" y="104.122450" fill="rgb(0, 100, 0)" style="fill-opacity:1.00" />
<rect height="4.454637" width="10.000000" x="590.000000" y="104.122450" fill="rgb(0, 100, 0)" style="fill-opacity:1.00" />
<!-- End 'T' -->
<!-- Begin 'C' -->
<ellipse cx="595.000000" cy="109.288543" rx="25.000000" ry="0.711457" fill="rgb(0, 0, 128)" style="fill-opacity:1.00" />
<ellipse cx="595.000000" cy="109.288543" rx="16.666667" ry="0.474305" fill="rgb(255, 255, 255)" style="fill-opacity:1.00" />
<rect height="0.711457" width="25.000000" x="595.000000" y="108.932815" fill="rgb(255, 255, 255)" style="fill-opacity:1.00" />
<!-- End 'C' -->
<!-- Begin 'A' -->
<polygon points=" 630.000000, 100.170272, 651.000000, 65.346253, 659.000000, 65.346253, 680.000000, 100.170272, 672.500000, 100.170272, 666.250000, 91.464267, 643.750000, 91.464267, 637.500000, 100.170272" fill="rgb(178, 34, 34)" style="fill-opacity:1.00" />
<polygon points=" 655.000000, 72.311056, 647.000000, 85.240664, 662.000000, 85.240664" fill="rgb(255, 255, 255)" style="fill-opacity:1.00" />
<!-- End 'A' -->
<!-- Begin 'G' -->
<ellipse cx="655.000000" cy="102.091094" rx="25.000000" ry="1.920822" fill="rgb(255, 165, 0)" style="fill-opacity:1.00" />
<ellipse cx="655.000000" cy="102.091094" rx="16.666667" ry="1.280548" fill="rgb(255, 255, 255)" style="fill-opacity:1.00" />
<rect height="1.920822" width="25.000000" x="655.000000" y="101.130683" fill="rgb(255, 255, 255)" style="fill-opacity:1.00" />
<rect height="0.480206" width="25.000000" x="655.000000" y="102.571300" fill="rgb(255, 165, 0)" style="fill-opacity:1.00" />
<rect height="1.440617" width="6.250000" x="673.750000" y="102.571300" fill="rgb(255, 165, 0)" style="fill-opacity:1.00" />
<!-- End 'G' -->
<!-- Begin 'T' -->
<rect height="0.493121" width="50.000000" x="630.000000" y="104.011917" fill="rgb(0, 100, 0)" style="fill-opacity:1.00" />
<rect height="3.082007" width="10.000000" x="650.000000" y="104.011917" fill="rgb(0, 100, 0)" style="fill-opacity:1.00" />
<!-- End 'T' -->
<!-- Begin 'C' -->
<ellipse cx="655.000000" cy="108.546962" rx="25.000000" ry="1.453038" fill="rgb(0, 0, 128)" style="fill-opacity:1.00" />
<ellipse cx="655.000000" cy="108.546962" rx="16.666667" ry="0.968692" fill="rgb(255, 255, 255)" style="fill-opacity:1.00" />
<rect height="1.453038" width="25.000000" x="655.000000" y="107.820443" fill="rgb(255, 255, 255)" style="fill-opacity:1.00" />
<!-- End 'C' -->
<!-- Begin 'A' -->
<polygon points=" 690.000000, 99.635364, 711.000000, 72.869744, 719.000000, 72.869744, 740.000000, 99.635364, 732.500000, 99.635364, 726.250000, 92.943959, 703.750000, 92.943959, 697.500000, 99.635364" fill="rgb(178, 34, 34)" style="fill-opacity:1.00" />
<polygon points=" 715.000000, 78.222868, 707.000000, 87.929116, 722.000000, 87.929116" fill="rgb(255, 255, 255)" style="fill-opacity:1.00" />
<!-- End 'A' -->
<!-- Begin 'T' -->
<rect height="0.801346" width="50.000000" x="690.000000" y="99.635364" fill="rgb(0, 100, 0)" style="fill-opacity:1.00" />
<rect height="5.008412" width="10.000000" x="710.000000" y="99.635364" fill="rgb(0, 100, 0)" style="fill-opacity:1.00" />
<!-- End 'T' -->
<!-- Begin 'G' -->
<ellipse cx="715.000000" cy="106.561051" rx="25.000000" ry="1.917275" fill="rgb(255, 165, 0)" style="fill-opacity:1.00" />
<ellipse cx="715.000000" cy="106.561051" rx="16.666667" ry="1.278184" fill="rgb(255, 255, 255)" style="fill-opacity:1.00" />
<rect height="1.917275" width="25.000000" x="715.000000" y="105.602414" fill="rgb(255, 255, 255)" style="fill-opacity:1.00" />
<rect height="0.479319" width="25.000000" x="715.000000" y="107.040370" fill="rgb(255, 165, 0)" style="fill-opacity:1.00" />
<rect height="1.437957" width="6.250000" x="733.750000" y="107.040370" fill="rgb(255, 165, 0)" style="fill-opacity:1.00" />
<!-- End 'G' -->
<!-- Begin 'C' -->
<ellipse cx="715.000000" cy="109.239163" rx="25.000000" ry="0.760837" fill="rgb(0, 0, 128)" style="fill-opacity:1.00" />
<ellipse cx="715.000000" cy="109.239163" rx="16.666667" ry="0.507224" fill="rgb(255, 255, 255)" style="fill-opacity:1.00" />
<rect height="0.760837" width="25.000000" x="715.000000" y="108.858745" fill="rgb(255, 255, 255)" style="fill-opacity:1.00" />
<!-- End 'C' -->
<!-- Begin 'G' -->
<ellipse cx="775.000000" cy="104.160233" rx="25.000000" ry="1.586923" fill="rgb(255, 165, 0)" style="fill-opacity:1.00" />
<ellipse cx="775.000000" cy="104.160233" rx="16.666667" ry="1.057949" fill="rgb(255, 255, 255)" style="fill-opacity:1.00" />
<rect height="1.586923" width="25.000000" x="775.000000" y="103.366771" fill="rgb(255, 255, 255)" style="fill-opacity:1.00" />
<rect height="0.396731" width="25.000000" x="775.000000" y="104.556964" fill="rgb(255, 165, 0)" style="fill-opacity:1.00" />
<rect height="1.190192" width="6.250000" x="793.750000" y="104.556964" fill="rgb(255, 165, 0)" style="fill-opacity:1.00" />
<!-- End 'G' -->
<!-- Begin 'C' -->
<ellipse cx="775.000000" cy="106.628764" rx="25.000000" ry="0.881608" fill="rgb(0, 0, 128)" style="fill-opacity:1.00" />
<ellipse cx="775.000000" cy="106.628764" rx="16.666667" ry="0.587739" fill="rgb(255, 255, 255)" style="fill-opacity:1.00" />
<rect height="0.881608" width="25.000000" x="775.000000" y="106.187960" fill="rgb(255, 255, 255)" style="fill-opacity:1.00" />
<!-- End 'C' -->
<!-- Begin 'A' -->
<polygon points=" 750.000000, 109.181998, 771.000000, 107.510373, 779.000000, 107.510373, 800.000000, 109.181998, 792.500000, 109.181998, 786.250000, 108.764092, 763.750000, 108.764092, 757.500000, 109.181998" fill="rgb(178, 34, 34)" style="fill-opacity:1.00" />
<!-- End 'A' -->
<!-- Begin 'T' -->
<rect height="0.130880" width="50.000000" x="750.000000" y="109.181998" fill="rgb(0, 100, 0)" style="fill-opacity:1.00" />
<rect height="0.818002" width="10.000000" x="770.000000" y="109.181998" fill="rgb(0, 100, 0)" style="fill-opacity:1.00" />
<!-- End 'T' -->
<!-- Begin 'T' -->
<rect height="0.595441" width="50.000000" x="810.000000" y="101.717559" fill="rgb(0, 100, 0)" style="fill-opacity:1.00" />
<rect height="3.721506" width="10.000000" x="830.000000" y="101.717559" fill="rgb(0, 100, 0)" style="fill-opacity:1.00" />
<!-- End 'T' -->
<!-- Begin 'A' -->
<polygon points=" 810.000000, 107.503308, 831.000000, 105.439064, 839.000000, 105.439064, 860.000000, 107.503308, 852.500000, 107.503308, 846.250000, 106.987247, 823.750000, 106.987247, 817.500000, 107.503308" fill="rgb(178, 34, 34)" style="fill-opacity:1.00" />
<!-- End 'A' -->
<!-- Begin 'C' -->
<ellipse cx="835.000000" cy="108.237323" rx="25.000000" ry="0.734014" fill="rgb(0, 0, 128)" style="fill-opacity:1.00" />
<ellipse cx="835.000000" cy="108.237323" rx="16.666667" ry="0.489343" fill="rgb(255, 255, 255)" style="fill-opacity:1.00" />
<rect height="0.734014" width="25.000000" x="835.000000" y="107.870316" fill="rgb(255, 255, 255)" style="fill-opacity:1.00" />
<!-- End 'C' -->
<!-- Begin 'G' -->
<ellipse cx="835.000000" cy="109.485668" rx="25.000000" ry="0.514332" fill="rgb(255, 165, 0)" style="fill-opacity:1.00" />
<ellipse cx="835.000000" cy="109.485668" rx="16.666667" ry="0.342888" fill="rgb(255, 255, 255)" style="fill-opacity:1.00" />
<rect height="0.514332" width="25.000000" x="835.000000" y="109.228503" fill="rgb(255, 255, 255)" style="fill-opacity:1.00" />
<rect height="0.128583" width="25.000000" x="835.000000" y="109.614251" fill="rgb(255, 165, 0)" style="fill-opacity:1.00" />
<rect height="0.385749" width="6.250000" x="853.750000" y="109.614251" fill="rgb(255, 165, 0)" style="fill-opacity:1.00" />
<!-- End 'G' -->
<!-- Begin 'A' -->
<polygon points=" 870.000000, 101.087869, 891.000000, 94.726632, 899.000000, 94.726632, 920.000000, 101.087869, 912.500000, 101.087869, 906.250000, 99.497560, 883.750000, 99.497560, 877.500000, 101.087869" fill="rgb(178, 34, 34)" style="fill-opacity:1.00" />
<!-- End 'A' -->
<!-- Begin 'G' -->
<ellipse cx="895.000000" cy="104.093849" rx="25.000000" ry="3.005980" fill="rgb(255, 165, 0)" style="fill-opacity:1.00" />
<ellipse cx="895.000000" cy="104.093849" rx="16.666667" ry="2.003987" fill="rgb(255, 255, 255)" style="fill-opacity:1.00" />
<rect height="3.005980" width="25.000000" x="895.000000" y="102.590859" fill="rgb(255, 255, 255)" style="fill-opacity:1.00" />
<rect height="0.751495" width="25.000000" x="895.000000" y="104.845344" fill="rgb(255, 165, 0)" style="fill-opacity:1.00" />
<rect height="2.254485" width="6.250000" x="913.750000" y="104.845344" fill="rgb(255, 165, 0)" style="fill-opacity:1.00" />
<!-- End 'G' -->
<!-- Begin 'T' -->
<rect height="0.281309" width="50.000000" x="870.000000" y="107.099829" fill="rgb(0, 100, 0)" style="fill-opacity:1.00" />
<rect height="1.758183" width="10.000000" x="890.000000" y="107.099829" fill="rgb(0, 100, 0)" style="fill-opacity:1.00" />
<!-- End 'T' -->
<!-- Begin 'C' -->
<ellipse cx="895.000000" cy="109.429006" rx="25.000000" ry="0.570994" fill="rgb(0, 0, 128)" style="fill-opacity:1.00" />
<ellipse cx="895.000000" cy="109.429006" rx="16.666667" ry="0.380663" fill="rgb(255, 255, 255)" style="fill-opacity:1.00" />
<rect height="0.570994" width="25.000000" x="895.000000" y="109.143509" fill="rgb(255, 255, 255)" style="fill-opacity:1.00" />
<!-- End 'C' -->
<!-- Begin 'A' -->
<polygon points=" 930.000000, 102.712245, 951.000000, 93.508268, 959.000000, 93.508268, 980.000000, 102.712245, 972.500000, 102.712245, 966.250000, 100.411251, 943.750000, 100.411251, 937.500000, 102.712245" fill="rgb(178, 34, 34)" style="fill-opacity:1.00" />
<polygon points=" 955.000000, 95.349063, 947.000000, 98.030654, 962.000000, 98.030654" fill="rgb(255, 255, 255)" style="fill-opacity:1.00" />
<!-- End 'A' -->
<!-- Begin 'G' -->
<ellipse cx="955.000000" cy="104.370794" rx="25.000000" ry="1.658549" fill="rgb(255, 165, 0)" style="fill-opacity:1.00" />
<ellipse cx="955.000000" cy="104.370794" rx="16.666667" ry="1.105699" fill="rgb(255, 255, 255)" style="fill-opacity:1.00" />
<rect height="1.658549" width="25.000000" x="955.000000" y="103.541519" fill="rgb(255, 255, 255)" style="fill-opacity:1.00" />
<rect height="0.414637" width="25.000000" x="955.000000" y="104.785431" fill="rgb(255, 165, 0)" style="fill-opacity:1.00" />
<rect height="1.243912" width="6.250000" x="973.750000" y="104.785431" fill="rgb(255, 165, 0)" style="fill-opacity:1.00" />
<!-- End 'G' -->
<!-- Begin 'T' -->
<rect height="0.327789" width="50.000000" x="930.000000" y="106.029343" fill="rgb(0, 100, 0)" style="fill-opacity:1.00" />
<rect height="2.048681" width="10.000000" x="950.000000" y="106.029343" fill="rgb(0, 100, 0)" style="fill-opacity:1.00" />
<!-- End 'T' -->
<!-- Begin 'C' -->
<ellipse cx="955.000000" cy="109.039012" rx="25.000000" ry="0.960988" fill="rgb(0, 0, 128)" style="fill-opacity:1.00" />
<ellipse cx="955.000000" cy="109.039012" rx="16.666667" ry="0.640659" fill="rgb(255, 255, 255)" style="fill-opacity:1.00" />
<rect height="0.960988" width="25.000000" x="955.000000" y="108.558518" fill="rgb(255, 255, 255)" style="fill-opacity:1.00" />
<!-- End 'C' -->
<!-- Begin 'A' -->
<polygon points=" 990.000000, 104.283108, 1011.000000, 98.518546, 1019.000000, 98.518546, 1040.000000, 104.283108, 1032.500000, 104.283108, 1026.250000, 102.841968, 1003.750000, 102.841968, 997.500000, 104.283108" fill="rgb(178, 34, 34)" style="fill-opacity:1.00" />
<!-- End 'A' -->
<!-- Begin 'T' -->
<rect height="0.370300" width="50.000000" x="990.000000" y="104.283108" fill="rgb(0, 100, 0)" style="fill-opacity:1.00" />
<rect height="2.314372" width="10.000000" x="1010.000000" y="104.283108" fill="rgb(0, 100, 0)" style="fill-opacity:1.00" />
<!-- End 'T' -->
<!-- Begin 'G' -->
<ellipse cx="1015.000000" cy="107.638475" rx="25.000000" ry="1.040995" fill="rgb(255, 165, 0)" style="fill-opacity:1.00" />
<ellipse cx="1015.000000" cy="107.638475" rx="16.666667" ry="0.693996" fill="rgb(255, 255, 255)" style="fill-opacity:1.00" />
<rect height="1.040995" width="25.000000" x="1015.000000" y="107.117978" fill="rgb(255, 255, 255)" style="fill-opacity:1.00" />
<rect height="0.260249" width="25.000000" x="1015.000000" y="107.898724" fill="rgb(255, 165, 0)" style="fill-opacity:1.00" />
<rect height="0.780746" width="6.250000" x="1033.750000" y="107.898724" fill="rgb(255, 165, 0)" style="fill-opacity:1.00" />
<!-- End 'G' -->
<!-- Begin 'C' -->
<ellipse cx="1015.000000" cy="109.339735" rx="25.000000" ry="0.660265" fill="rgb(0, 0, 128)" style="fill-opacity:1.00" />
<ellipse cx="1015.000000" cy="109.339735" rx="16.666667" ry="0.440177" fill="rgb(255, 255, 255)" style="fill-opacity:1.00" />
<rect height="0.660265" width="25.000000" x="1015.000000" y="109.009602" fill="rgb(255, 255, 255)" style="fill-opacity:1.00" />
<!-- End 'C' -->
<!-- Begin 'A' -->
<polygon points=" 1050.000000, 103.859405, 1071.000000, 97.046397, 1079.000000, 97.046397, 1100.000000, 103.859405, 1092.500000, 103.859405, 1086.250000, 102.156153, 1063.750000, 102.156153, 1057.500000, 103.859405" fill="rgb(178, 34, 34)" style="fill-opacity:1.00" />
<!-- End 'A' -->
<!-- Begin 'T' -->
<rect height="0.363786" width="50.000000" x="1050.000000" y="103.859405" fill="rgb(0, 100, 0)" style="fill-opacity:1.00" />
<rect height="2.273662" width="10.000000" x="1070.000000" y="103.859405" fill="rgb(0, 100, 0)" style="fill-opacity:1.00" />
<!-- End 'T' -->
<!-- Begin 'G' -->
<ellipse cx="1075.000000" cy="107.266153" rx="25.000000" ry="1.133086" fill="rgb(255, 165, 0)" style="fill-opacity:1.00" />
<ellipse cx="1075.000000" cy="107.266153" rx="16.666667" ry="0.755391" fill="rgb(255, 255, 255)" style="fill-opacity:1.00" />
<rect height="1.133086" width="25.000000" x="1075.000000" y="106.699610" fill="rgb(255, 255, 255)" style="fill-opacity:1.00" />
<rect height="0.283272" width="25.000000" x="1075.000000" y="107.549425" fill="rgb(255, 165, 0)" style="fill-opacity:1.00" />
<rect height="0.849815" width="6.250000" x="1093.750000" y="107.549425" fill="rgb(255, 165, 0)" style="fill-opacity:1.00" />
<!-- End 'G' -->
<!-- Begin 'C' -->
<ellipse cx="1075.000000" cy="109.199620" rx="25.000000" ry="0.800380" fill="rgb(0, 0, 128)" style="fill-opacity:1.00" />
<ellipse cx="1075.000000" cy="109.199620" rx="16.666667" ry="0.533587" fill="rgb(255, 255, 255)" style="fill-opacity:1.00" />
<rect height="0.800380" width="25.000000" x="1075.000000" y="108.799429" fill="rgb(255, 255, 255)" style="fill-opacity:1.00" />
<!-- End 'C' -->
<!-- Begin 'G' -->
<ellipse cx="1135.000000" cy="108.462078" rx="25.000000" ry="0.290912" fill="rgb(255, 165, 0)" style="fill-opacity:1.00" />
<ellipse cx="1135.000000" cy="108.462078" rx="16.666667" ry="0.193941" fill="rgb(255, 255, 255)" style="fill-opacity:1.00" />
<rect height="0.290912" width="25.000000" x="1135.000000" y="108.316622" fill="rgb(255, 255, 255)" style="fill-opacity:1.00" />
<rect height="0.072728" width="25.000000" x="1135.000000" y="108.534806" fill="rgb(255, 165, 0)" style="fill-opacity:1.00" />
<rect height="0.218184" width="6.250000" x="1153.750000" y="108.534806" fill="rgb(255, 165, 0)" style="fill-opacity:1.00" />
<!-- End 'G' -->
<!-- Begin 'A' -->
<polygon points=" 1110.000000, 109.280808, 1131.000000, 108.752989, 1139.000000, 108.752989, 1160.000000, 109.280808, 1152.500000, 109.280808, 1146.250000, 109.148854, 1123.750000, 109.148854, 1117.500000, 109.280808" fill="rgb(178, 34, 34)" style="fill-opacity:1.00" />
<!-- End 'A' -->
<!-- Begin 'C' -->
<ellipse cx="1135.000000" cy="109.477151" rx="25.000000" ry="0.196342" fill="rgb(0, 0, 128)" style="fill-opacity:1.00" />
<ellipse cx="1135.000000" cy="109.477151" rx="16.666667" ry="0.130895" fill="rgb(255, 255, 255)" style="fill-opacity:1.00" />
<rect height="0.196342" width="25.000000" x="1135.000000" y="109.378980" fill="rgb(255, 255, 255)" style="fill-opacity:1.00" />
<!-- End 'C' -->
<!-- Begin 'T' -->
<rect height="0.052241" width="50.000000" x="1110.000000" y="109.673493" fill="rgb(0, 100, 0)" style="fill-opacity:1.00" />
<rect height="0.326507" width="10.000000" x="1130.000000" y="109.673493" fill="rgb(0, 100, 0)" style="fill-opacity:1.00" />
<!-- End 'T' -->
<text x="610.000000" y="165">
IC = 7.93
</text>

</svg>
