<?xml version="1.0" encoding="UTF-8" standalone="yes"?>
                 <!DOCTYPE svg PUBLIC "-//W3C//DTD SVG 1.0//EN" "http://www.w3.org/TR/2001/REC-SVG-20010904/DTD/svg10.dtd">
                 <svg height="170" width="840" xmlns="http://www.w3.org/2000/svg" xmlns:xlink="http://www.w3.org/1999/xlink">
                 <line x1="85" y1="120" x2="807" y2="120" style="stroke:rgb(99,99,99);stroke-width:2" />
<rect height="7.000000" width="2.000000" x="85.000000" y="120.000000" fill="rgb(0, 0, 0)" style="fill-opacity:1.00" />
<text x="107.000000" y="140">
1
</text>
<rect height="7.000000" width="2.000000" x="145.000000" y="120.000000" fill="rgb(0, 0, 0)" style="fill-opacity:1.00" />
<text x="167.000000" y="140">
2
</text>
<rect height="7.000000" width="2.000000" x="205.000000" y="120.000000" fill="rgb(0, 0, 0)" style="fill-opacity:1.00" />
<text x="227.000000" y="140">
3
</text>
<rect height="7.000000" width="2.000000" x="265.000000" y="120.000000" fill="rgb(0, 0, 0)" style="fill-opacity:1.00" />
<text x="287.000000" y="140">
4
</text>
<rect height="7.000000" width="2.000000" x="325.000000" y="120.000000" fill="rgb(0, 0, 0)" style="fill-opacity:1.00" />
<text x="347.000000" y="140">
5
</text>
<rect height="7.000000" width="2.000000" x="385.000000" y="120.000000" fill="rgb(0, 0, 0)" style="fill-opacity:1.00" />
<text x="407.000000" y="140">
6
</text>
<rect height="7.000000" width="2.000000" x="445.000000" y="120.000000" fill="rgb(0, 0, 0)" style="fill-opacity:1.00" />
<text x="467.000000" y="140">
7
</text>
<rect height="7.000000" width="2.000000" x="505.000000" y="120.000000" fill="rgb(0, 0, 0)" style="fill-opacity:1.00" />
<text x="527.000000" y="140">
8
</text>
<rect height="7.000000" width="2.000000" x="565.000000" y="120.000000" fill="rgb(0, 0, 0)" style="fill-opacity:1.00" />
<text x="587.000000" y="140">
9
</text>
<rect height="7.000000" width="2.000000" x="625.000000" y="120.000000" fill="rgb(0, 0, 0)" style="fill-opacity:1.00" />
<text x="647.000000" y="140">
10
</text>
<rect height="7.000000" width="2.000000" x="685.000000" y="120.000000" fill="rgb(0, 0, 0)" style="fill-opacity:1.00" />
<text x="707.000000" y="140">
11
</text>
<rect height="7.000000" width="2.000000" x="745.000000" y="120.000000" fill="rgb(0, 0, 0)" style="fill-opacity:1.00" />
<text x="767.000000" y="140">
12
</text>
<rect height="7.000000" width="2.000000" x="805.000000" y="120.000000" fill="rgb(0, 0, 0)" style="fill-opacity:1.00" />
<line x1="80" y1="112" x2="80" y2="10" style="stroke:rgb(99,99,99);stroke-width:2" />
<rect height="2.000000" width="7.000000" x="73.000000" y="110.000000" fill="rgb(0, 0, 0)" style="fill-opacity:1.00" />
<text x="63" y="115">
0
</text>
<rect height="2.000000" width="7.000000" x="73.000000" y="60.000000" fill="rgb(0, 0, 0)" style="fill-opacity:1.00" />
<text x="63" y="65">
1
</text>
<rect height="2.000000" width="7.000000" x="73.000000" y="10.000000" fill="rgb(0, 0, 0)" style="fill-opacity:1.00" />
<text x="63" y="15">
2
</text>
<text x="50" y="65"
transform="rotate(-90, 50, 70)">
bits
</text>
<!-- Begin 'G' -->
<ellipse cx="115.000000" cy="97.970821" rx="25.000000" ry="3.428983" fill="rgb(255, 165, 0)" style="fill-opacity:1.00" />
<ellipse cx="115.000000" cy="97.970821" rx="16.666667" ry="2.285989" fill="rgb(255, 255, 255)" style="fill-opacity:1.00" />
<rect height="3.428983" width="25.000000" x="115.000000" y="96.256329" fill="rgb(255, 255, 255)" style="fill-opacity:1.00" />
<rect height="0.857246" width="25.000000" x="115.000000" y="98.828066" fill="rgb(255, 165, 0)" style="fill-opacity:1.00" />
<rect height="2.571737" width="6.250000" x="133.750000" y="98.828066" fill="rgb(255, 165, 0)" style="fill-opacity:1.00" />
<!-- End 'G' -->
<!-- Begin 'C' -->
<ellipse cx="115.000000" cy="104.235312" rx="25.000000" ry="2.835508" fill="rgb(0, 0, 128)" style="fill-opacity:1.00" />
<ellipse cx="115.000000" cy="104.235312" rx="16.666667" ry="1.890339" fill="rgb(255, 255, 255)" style="fill-opacity:1.00" />
<rect height="2.835508" width="25.000000" x="115.000000" y="102.817558" fill="rgb(255, 255, 255)" style="fill-opacity:1.00" />
<!-- End 'C' -->
<!-- Begin 'A' -->
<polygon points=" 90.000000, 108.794887, 111.000000, 107.070820, 119.000000, 107.070820, 140.000000, 108.794887, 132.500000, 108.794887, 126.250000, 108.363870, 103.750000, 108.363870, 97.500000, 108.794887" fill="rgb(178, 34, 34)" style="fill-opacity:1.00" />
<!-- End 'A' -->
<!-- Begin 'T' -->
<rect height="0.192818" width="50.000000" x="90.000000" y="108.794887" fill="rgb(0, 100, 0)" style="fill-opacity:1.00" />
<rect height="1.205113" width="10.000000" x="110.000000" y="108.794887" fill="rgb(0, 100, 0)" style="fill-opacity:1.00" />
<!-- End 'T' -->
<!-- Begin 'G' -->
<ellipse cx="175.000000" cy="105.575672" rx="25.000000" ry="0.923415" fill="rgb(255, 165, 0)" style="fill-opacity:1.00" />
<ellipse cx="175.000000" cy="105.575672" rx="16.666667" ry="0.615610" fill="rgb(255, 255, 255)" style="fill-opacity:1.00" />
<rect height="0.923415" width="25.000000" x="175.000000" y="105.113964" fill="rgb(255, 255, 255)" style="fill-opacity:1.00" />
<rect height="0.230854" width="25.000000" x="175.000000" y="105.806526" fill="rgb(255, 165, 0)" style="fill-opacity:1.00" />
<rect height="0.692561" width="6.250000" x="193.750000" y="105.806526" fill="rgb(255, 165, 0)" style="fill-opacity:1.00" />
<!-- End 'G' -->
<!-- Begin 'C' -->
<ellipse cx="175.000000" cy="107.419697" rx="25.000000" ry="0.920610" fill="rgb(0, 0, 128)" style="fill-opacity:1.00" />
<ellipse cx="175.000000" cy="107.419697" rx="16.666667" ry="0.613740" fill="rgb(255, 255, 255)" style="fill-opacity:1.00" />
<rect height="0.920610" width="25.000000" x="175.000000" y="106.959392" fill="rgb(255, 255, 255)" style="fill-opacity:1.00" />
<!-- End 'C' -->
<!-- Begin 'T' -->
<rect height="0.139266" width="50.000000" x="150.000000" y="108.340307" fill="rgb(0, 100, 0)" style="fill-opacity:1.00" />
<rect height="0.870414" width="10.000000" x="170.000000" y="108.340307" fill="rgb(0, 100, 0)" style="fill-opacity:1.00" />
<!-- End 'T' -->
<!-- Begin 'A' -->
<polygon points=" 150.000000, 110.000000, 171.000000, 109.210721, 179.000000, 109.210721, 200.000000, 110.000000, 192.500000, 110.000000, 186.250000, 109.802680, 163.750000, 109.802680, 157.500000, 110.000000" fill="rgb(178, 34, 34)" style="fill-opacity:1.00" />
<!-- End 'A' -->
<!-- Begin 'G' -->
<ellipse cx="235.000000" cy="105.786490" rx="25.000000" ry="0.978967" fill="rgb(255, 165, 0)" style="fill-opacity:1.00" />
<ellipse cx="235.000000" cy="105.786490" rx="16.666667" ry="0.652645" fill="rgb(255, 255, 255)" style="fill-opacity:1.00" />
<rect height="0.978967" width="25.000000" x="235.000000" y="105.297007" fill="rgb(255, 255, 255)" style="fill-opacity:1.00" />
<rect height="0.244742" width="25.000000" x="235.000000" y="106.031232" fill="rgb(255, 165, 0)" style="fill-opacity:1.00" />
<rect height="0.734226" width="6.250000" x="253.750000" y="106.031232" fill="rgb(255, 165, 0)" style="fill-opacity:1.00" />
<!-- End 'G' -->
<!-- Begin 'C' -->
<ellipse cx="235.000000" cy="107.554760" rx="25.000000" ry="0.789302" fill="rgb(0, 0, 128)" style="fill-opacity:1.00" />
<ellipse cx="235.000000" cy="107.554760" rx="16.666667" ry="0.526201" fill="rgb(255, 255, 255)" style="fill-opacity:1.00" />
<rect height="0.789302" width="25.000000" x="235.000000" y="107.160109" fill="rgb(255, 255, 255)" style="fill-opacity:1.00" />
<!-- End 'C' -->
<!-- Begin 'T' -->
<rect height="0.142729" width="50.000000" x="210.000000" y="108.344062" fill="rgb(0, 100, 0)" style="fill-opacity:1.00" />
<rect height="0.892057" width="10.000000" x="230.000000" y="108.344062" fill="rgb(0, 100, 0)" style="fill-opacity:1.00" />
<!-- End 'T' -->
<!-- Begin 'A' -->
<polygon points=" 210.000000, 110.000000, 231.000000, 109.236119, 239.000000, 109.236119, 260.000000, 110.000000, 252.500000, 110.000000, 246.250000, 109.809030, 223.750000, 109.809030, 217.500000, 110.000000" fill="rgb(178, 34, 34)" style="fill-opacity:1.00" />
<!-- End 'A' -->
<!-- Begin 'G' -->
<ellipse cx="295.000000" cy="85.549603" rx="25.000000" ry="7.316999" fill="rgb(255, 165, 0)" style="fill-opacity:1.00" />
<ellipse cx="295.000000" cy="85.549603" rx="16.666667" ry="4.877999" fill="rgb(255, 255, 255)" style="fill-opacity:1.00" />
<rect height="7.316999" width="25.000000" x="295.000000" y="81.891103" fill="rgb(255, 255, 255)" style="fill-opacity:1.00" />
<rect height="1.829250" width="25.000000" x="295.000000" y="87.378852" fill="rgb(255, 165, 0)" style="fill-opacity:1.00" />
<rect height="5.487749" width="6.250000" x="313.750000" y="87.378852" fill="rgb(255, 165, 0)" style="fill-opacity:1.00" />
<!-- End 'G' -->
<!-- Begin 'C' -->
<ellipse cx="295.000000" cy="100.037011" rx="25.000000" ry="7.170410" fill="rgb(0, 0, 128)" style="fill-opacity:1.00" />
<ellipse cx="295.000000" cy="100.037011" rx="16.666667" ry="4.780273" fill="rgb(255, 255, 255)" style="fill-opacity:1.00" />
<rect height="7.170410" width="25.000000" x="295.000000" y="96.451807" fill="rgb(255, 255, 255)" style="fill-opacity:1.00" />
<!-- End 'C' -->
<!-- Begin 'A' -->
<polygon points=" 270.000000, 109.875006, 291.000000, 107.207421, 299.000000, 107.207421, 320.000000, 109.875006, 312.500000, 109.875006, 306.250000, 109.208109, 283.750000, 109.208109, 277.500000, 109.875006" fill="rgb(178, 34, 34)" style="fill-opacity:1.00" />
<!-- End 'A' -->
<!-- Begin 'T' -->
<rect height="0.019999" width="50.000000" x="270.000000" y="109.875006" fill="rgb(0, 100, 0)" style="fill-opacity:1.00" />
<rect height="0.124994" width="10.000000" x="290.000000" y="109.875006" fill="rgb(0, 100, 0)" style="fill-opacity:1.00" />
<!-- End 'T' -->
<!-- Begin 'G' -->
<ellipse cx="355.000000" cy="74.257232" rx="25.000000" ry="17.160926" fill="rgb(255, 165, 0)" style="fill-opacity:1.00" />
<ellipse cx="355.000000" cy="74.257232" rx="16.666667" ry="11.440618" fill="rgb(255, 255, 255)" style="fill-opacity:1.00" />
<rect height="17.160926" width="25.000000" x="355.000000" y="65.676768" fill="rgb(255, 255, 255)" style="fill-opacity:1.00" />
<rect height="4.290232" width="25.000000" x="355.000000" y="78.547463" fill="rgb(255, 165, 0)" style="fill-opacity:1.00" />
<rect height="12.870695" width="6.250000" x="373.750000" y="78.547463" fill="rgb(255, 165, 0)" style="fill-opacity:1.00" />
<!-- End 'G' -->
<!-- Begin 'C' -->
<ellipse cx="355.000000" cy="100.692797" rx="25.000000" ry="9.274639" fill="rgb(0, 0, 128)" style="fill-opacity:1.00" />
<ellipse cx="355.000000" cy="100.692797" rx="16.666667" ry="6.183093" fill="rgb(255, 255, 255)" style="fill-opacity:1.00" />
<rect height="9.274639" width="25.000000" x="355.000000" y="96.055478" fill="rgb(255, 255, 255)" style="fill-opacity:1.00" />
<!-- End 'C' -->
<!-- Begin 'A' -->
<polygon points=" 330.000000, 109.997608, 351.000000, 109.967436, 359.000000, 109.967436, 380.000000, 109.997608, 372.500000, 109.997608, 366.250000, 109.990065, 343.750000, 109.990065, 337.500000, 109.997608" fill="rgb(178, 34, 34)" style="fill-opacity:1.00" />
<!-- End 'A' -->
<!-- Begin 'T' -->
<rect height="0.000383" width="50.000000" x="330.000000" y="109.997608" fill="rgb(0, 100, 0)" style="fill-opacity:1.00" />
<rect height="0.002392" width="10.000000" x="350.000000" y="109.997608" fill="rgb(0, 100, 0)" style="fill-opacity:1.00" />
<!-- End 'T' -->
<!-- Begin 'C' -->
<ellipse cx="415.000000" cy="61.008683" rx="25.000000" ry="48.502318" fill="rgb(0, 0, 128)" style="fill-opacity:1.00" />
<ellipse cx="415.000000" cy="61.008683" rx="16.666667" ry="32.334879" fill="rgb(255, 255, 255)" style="fill-opacity:1.00" />
<rect height="48.502318" width="25.000000" x="415.000000" y="36.757524" fill="rgb(255, 255, 255)" style="fill-opacity:1.00" />
<!-- End 'C' -->
<!-- Begin 'A' -->
<polygon points=" 390.000000, 109.870072, 411.000000, 109.511001, 419.000000, 109.511001, 440.000000, 109.870072, 432.500000, 109.870072, 426.250000, 109.780304, 403.750000, 109.780304, 397.500000, 109.870072" fill="rgb(178, 34, 34)" style="fill-opacity:1.00" />
<!-- End 'A' -->
<!-- Begin 'T' -->
<rect height="0.019668" width="50.000000" x="390.000000" y="109.870072" fill="rgb(0, 100, 0)" style="fill-opacity:1.00" />
<rect height="0.122924" width="10.000000" x="410.000000" y="109.870072" fill="rgb(0, 100, 0)" style="fill-opacity:1.00" />
<!-- End 'T' -->
<!-- Begin 'G' -->
<ellipse cx="415.000000" cy="109.996498" rx="25.000000" ry="0.003502" fill="rgb(255, 165, 0)" style="fill-opacity:1.00" />
<ellipse cx="415.000000" cy="109.996498" rx="16.666667" ry="0.002335" fill="rgb(255, 255, 255)" style="fill-opacity:1.00" />
<rect height="0.003502" width="25.000000" x="415.000000" y="109.994747" fill="rgb(255, 255, 255)" style="fill-opacity:1.00" />
<rect height="0.000876" width="25.000000" x="415.000000" y="109.997373" fill="rgb(255, 165, 0)" style="fill-opacity:1.00" />
<rect height="0.002627" width="6.250000" x="433.750000" y="109.997373" fill="rgb(255, 165, 0)" style="fill-opacity:1.00" />
<!-- End 'G' -->
<!-- Begin 'G' -->
<ellipse cx="475.000000" cy="60.534732" rx="25.000000" ry="49.227552" fill="rgb(255, 165, 0)" style="fill-opacity:1.00" />
<ellipse cx="475.000000" cy="60.534732" rx="16.666667" ry="32.818368" fill="rgb(255, 255, 255)" style="fill-opacity:1.00" />
<rect height="49.227552" width="25.000000" x="475.000000" y="35.920956" fill="rgb(255, 255, 255)" style="fill-opacity:1.00" />
<rect height="12.306888" width="25.000000" x="475.000000" y="72.841620" fill="rgb(255, 165, 0)" style="fill-opacity:1.00" />
<rect height="36.920664" width="6.250000" x="493.750000" y="72.841620" fill="rgb(255, 165, 0)" style="fill-opacity:1.00" />
<!-- End 'G' -->
<!-- Begin 'T' -->
<rect height="0.032526" width="50.000000" x="450.000000" y="109.762285" fill="rgb(0, 100, 0)" style="fill-opacity:1.00" />
<rect height="0.203285" width="10.000000" x="470.000000" y="109.762285" fill="rgb(0, 100, 0)" style="fill-opacity:1.00" />
<!-- End 'T' -->
<!-- Begin 'A' -->
<polygon points=" 450.000000, 109.991194, 471.000000, 109.965570, 479.000000, 109.965570, 500.000000, 109.991194, 492.500000, 109.991194, 486.250000, 109.984788, 463.750000, 109.984788, 457.500000, 109.991194" fill="rgb(178, 34, 34)" style="fill-opacity:1.00" />
<!-- End 'A' -->
<!-- Begin 'C' -->
<ellipse cx="475.000000" cy="109.995597" rx="25.000000" ry="0.004403" fill="rgb(0, 0, 128)" style="fill-opacity:1.00" />
<ellipse cx="475.000000" cy="109.995597" rx="16.666667" ry="0.002935" fill="rgb(255, 255, 255)" style="fill-opacity:1.00" />
<rect height="0.004403" width="25.000000" x="475.000000" y="109.993396" fill="rgb(255, 255, 255)" style="fill-opacity:1.00" />
<!-- End 'C' -->
<!-- Begin 'C' -->
<ellipse cx="535.000000" cy="74.242323" rx="25.000000" ry="17.064770" fill="rgb(0, 0, 128)" style="fill-opacity:1.00" />
<ellipse cx="535.000000" cy="74.242323" rx="16.666667" ry="11.376513" fill="rgb(255, 255, 255)" style="fill-opacity:1.00" />
<rect height="17.064770" width="25.000000" x="535.000000" y="65.709938" fill="rgb(255, 255, 255)" style="fill-opacity:1.00" />
<!-- End 'C' -->
<!-- Begin 'G' -->
<ellipse cx="535.000000" cy="100.639680" rx="25.000000" ry="9.332588" fill="rgb(255, 165, 0)" style="fill-opacity:1.00" />
<ellipse cx="535.000000" cy="100.639680" rx="16.666667" ry="6.221725" fill="rgb(255, 255, 255)" style="fill-opacity:1.00" />
<rect height="9.332588" width="25.000000" x="535.000000" y="95.973386" fill="rgb(255, 255, 255)" style="fill-opacity:1.00" />
<rect height="2.333147" width="25.000000" x="535.000000" y="102.972827" fill="rgb(255, 165, 0)" style="fill-opacity:1.00" />
<rect height="6.999441" width="6.250000" x="553.750000" y="102.972827" fill="rgb(255, 165, 0)" style="fill-opacity:1.00" />
<!-- End 'G' -->
<!-- Begin 'T' -->
<rect height="0.003572" width="50.000000" x="510.000000" y="109.972268" fill="rgb(0, 100, 0)" style="fill-opacity:1.00" />
<rect height="0.022328" width="10.000000" x="530.000000" y="109.972268" fill="rgb(0, 100, 0)" style="fill-opacity:1.00" />
<!-- End 'T' -->
<!-- Begin 'A' -->
<polygon points=" 510.000000, 110.000000, 531.000000, 109.994596, 539.000000, 109.994596, 560.000000, 110.000000, 552.500000, 110.000000, 546.250000, 109.998649, 523.750000, 109.998649, 517.500000, 110.000000" fill="rgb(178, 34, 34)" style="fill-opacity:1.00" />
<!-- End 'A' -->
<!-- Begin 'C' -->
<ellipse cx="595.000000" cy="84.948403" rx="25.000000" ry="7.647839" fill="rgb(0, 0, 128)" style="fill-opacity:1.00" />
<ellipse cx="595.000000" cy="84.948403" rx="16.666667" ry="5.098559" fill="rgb(255, 255, 255)" style="fill-opacity:1.00" />
<rect height="7.647839" width="25.000000" x="595.000000" y="81.124483" fill="rgb(255, 255, 255)" style="fill-opacity:1.00" />
<!-- End 'C' -->
<!-- Begin 'G' -->
<ellipse cx="595.000000" cy="99.913281" rx="25.000000" ry="7.317039" fill="rgb(255, 165, 0)" style="fill-opacity:1.00" />
<ellipse cx="595.000000" cy="99.913281" rx="16.666667" ry="4.878026" fill="rgb(255, 255, 255)" style="fill-opacity:1.00" />
<rect height="7.317039" width="25.000000" x="595.000000" y="96.254761" fill="rgb(255, 255, 255)" style="fill-opacity:1.00" />
<rect height="1.829260" width="25.000000" x="595.000000" y="101.742540" fill="rgb(255, 165, 0)" style="fill-opacity:1.00" />
<rect height="5.487779" width="6.250000" x="613.750000" y="101.742540" fill="rgb(255, 165, 0)" style="fill-opacity:1.00" />
<!-- End 'G' -->
<!-- Begin 'T' -->
<rect height="0.433794" width="50.000000" x="570.000000" y="107.230320" fill="rgb(0, 100, 0)" style="fill-opacity:1.00" />
<rect height="2.711215" width="10.000000" x="590.000000" y="107.230320" fill="rgb(0, 100, 0)" style="fill-opacity:1.00" />
<!-- End 'T' -->
<!-- Begin 'A' -->
<polygon points=" 570.000000, 110.000000, 591.000000, 109.941534, 599.000000, 109.941534, 620.000000, 110.000000, 612.500000, 110.000000, 606.250000, 109.985384, 583.750000, 109.985384, 577.500000, 110.000000" fill="rgb(178, 34, 34)" style="fill-opacity:1.00" />
<!-- End 'A' -->
<!-- Begin 'C' -->
<ellipse cx="655.000000" cy="105.283492" rx="25.000000" ry="1.127925" fill="rgb(0, 0, 128)" style="fill-opacity:1.00" />
<ellipse cx="655.000000" cy="105.283492" rx="16.666667" ry="0.751950" fill="rgb(255, 255, 255)" style="fill-opacity:1.00" />
<rect height="1.127925" width="25.000000" x="655.000000" y="104.719530" fill="rgb(255, 255, 255)" style="fill-opacity:1.00" />
<!-- End 'C' -->
<!-- Begin 'G' -->
<ellipse cx="655.000000" cy="107.306955" rx="25.000000" ry="0.895538" fill="rgb(255, 165, 0)" style="fill-opacity:1.00" />
<ellipse cx="655.000000" cy="107.306955" rx="16.666667" ry="0.597025" fill="rgb(255, 255, 255)" style="fill-opacity:1.00" />
<rect height="0.895538" width="25.000000" x="655.000000" y="106.859186" fill="rgb(255, 255, 255)" style="fill-opacity:1.00" />
<rect height="0.223884" width="25.000000" x="655.000000" y="107.530839" fill="rgb(255, 165, 0)" style="fill-opacity:1.00" />
<rect height="0.671653" width="6.250000" x="673.750000" y="107.530839" fill="rgb(255, 165, 0)" style="fill-opacity:1.00" />
<!-- End 'G' -->
<!-- Begin 'A' -->
<polygon points=" 630.000000, 109.148805, 651.000000, 108.202492, 659.000000, 108.202492, 680.000000, 109.148805, 672.500000, 109.148805, 666.250000, 108.912227, 643.750000, 108.912227, 637.500000, 109.148805" fill="rgb(178, 34, 34)" style="fill-opacity:1.00" />
<!-- End 'A' -->
<!-- Begin 'T' -->
<rect height="0.136191" width="50.000000" x="630.000000" y="109.148805" fill="rgb(0, 100, 0)" style="fill-opacity:1.00" />
<rect height="0.851195" width="10.000000" x="650.000000" y="109.148805" fill="rgb(0, 100, 0)" style="fill-opacity:1.00" />
<!-- End 'T' -->
<!-- Begin 'C' -->
<ellipse cx="715.000000" cy="105.981174" rx="25.000000" ry="0.830524" fill="rgb(0, 0, 128)" style="fill-opacity:1.00" />
<ellipse cx="715.000000" cy="105.981174" rx="16.666667" ry="0.553683" fill="rgb(255, 255, 255)" style="fill-opacity:1.00" />
<rect height="0.830524" width="25.000000" x="715.000000" y="105.565912" fill="rgb(255, 255, 255)" style="fill-opacity:1.00" />
<!-- End 'C' -->
<!-- Begin 'G' -->
<ellipse cx="715.000000" cy="107.632958" rx="25.000000" ry="0.821259" fill="rgb(255, 165, 0)" style="fill-opacity:1.00" />
<ellipse cx="715.000000" cy="107.632958" rx="16.666667" ry="0.547506" fill="rgb(255, 255, 255)" style="fill-opacity:1.00" />
<rect height="0.821259" width="25.000000" x="715.000000" y="107.222328" fill="rgb(255, 255, 255)" style="fill-opacity:1.00" />
<rect height="0.205315" width="25.000000" x="715.000000" y="107.838272" fill="rgb(255, 165, 0)" style="fill-opacity:1.00" />
<rect height="0.615944" width="6.250000" x="733.750000" y="107.838272" fill="rgb(255, 165, 0)" style="fill-opacity:1.00" />
<!-- End 'G' -->
<!-- Begin 'A' -->
<polygon points=" 690.000000, 109.228223, 711.000000, 108.454217, 719.000000, 108.454217, 740.000000, 109.228223, 732.500000, 109.228223, 726.250000, 109.034721, 703.750000, 109.034721, 697.500000, 109.228223" fill="rgb(178, 34, 34)" style="fill-opacity:1.00" />
<!-- End 'A' -->
<!-- Begin 'T' -->
<rect height="0.123484" width="50.000000" x="690.000000" y="109.228223" fill="rgb(0, 100, 0)" style="fill-opacity:1.00" />
<rect height="0.771777" width="10.000000" x="710.000000" y="109.228223" fill="rgb(0, 100, 0)" style="fill-opacity:1.00" />
<!-- End 'T' -->
<!-- Begin 'C' -->
<ellipse cx="775.000000" cy="99.034462" rx="25.000000" ry="2.938561" fill="rgb(0, 0, 128)" style="fill-opacity:1.00" />
<ellipse cx="775.000000" cy="99.034462" rx="16.666667" ry="1.959041" fill="rgb(255, 255, 255)" style="fill-opacity:1.00" />
<rect height="2.938561" width="25.000000" x="775.000000" y="97.565181" fill="rgb(255, 255, 255)" style="fill-opacity:1.00" />
<!-- End 'C' -->
<!-- Begin 'G' -->
<ellipse cx="775.000000" cy="104.562258" rx="25.000000" ry="2.589235" fill="rgb(255, 165, 0)" style="fill-opacity:1.00" />
<ellipse cx="775.000000" cy="104.562258" rx="16.666667" ry="1.726157" fill="rgb(255, 255, 255)" style="fill-opacity:1.00" />
<rect height="2.589235" width="25.000000" x="775.000000" y="103.267640" fill="rgb(255, 255, 255)" style="fill-opacity:1.00" />
<rect height="0.647309" width="25.000000" x="775.000000" y="105.209567" fill="rgb(255, 165, 0)" style="fill-opacity:1.00" />
<rect height="1.941926" width="6.250000" x="793.750000" y="105.209567" fill="rgb(255, 165, 0)" style="fill-opacity:1.00" />
<!-- End 'G' -->
<!-- Begin 'T' -->
<rect height="0.278483" width="50.000000" x="750.000000" y="107.151493" fill="rgb(0, 100, 0)" style="fill-opacity:1.00" />
<rect height="1.740520" width="10.000000" x="770.000000" y="107.151493" fill="rgb(0, 100, 0)" style="fill-opacity:1.00" />
<!-- End 'T' -->
<!-- Begin 'A' -->
<polygon points=" 750.000000, 110.000000, 771.000000, 108.892013, 779.000000, 108.892013, 800.000000, 110.000000, 792.500000, 110.000000, 786.250000, 109.723003, 763.750000, 109.723003, 757.500000, 110.000000" fill="rgb(178, 34, 34)" style="fill-opacity:1.00" />
<!-- End 'A' -->
<text x="430.000000" y="165">
IC = 8.34
</text>

</svg>
