<?xml version="1.0" encoding="UTF-8" standalone="yes"?>
                 <!DOCTYPE svg PUBLIC "-//W3C//DTD SVG 1.0//EN" "http://www.w3.org/TR/2001/REC-SVG-20010904/DTD/svg10.dtd">
                 <svg height="170" width="900" xmlns="http://www.w3.org/2000/svg" xmlns:xlink="http://www.w3.org/1999/xlink">
                 <line x1="85" y1="120" x2="867" y2="120" style="stroke:rgb(99,99,99);stroke-width:2" />
<rect height="7.000000" width="2.000000" x="85.000000" y="120.000000" fill="rgb(0, 0, 0)" style="fill-opacity:1.00" />
<text x="107.000000" y="140">
1
</text>
<rect height="7.000000" width="2.000000" x="145.000000" y="120.000000" fill="rgb(0, 0, 0)" style="fill-opacity:1.00" />
<text x="167.000000" y="140">
2
</text>
<rect height="7.000000" width="2.000000" x="205.000000" y="120.000000" fill="rgb(0, 0, 0)" style="fill-opacity:1.00" />
<text x="227.000000" y="140">
3
</text>
<rect height="7.000000" width="2.000000" x="265.000000" y="120.000000" fill="rgb(0, 0, 0)" style="fill-opacity:1.00" />
<text x="287.000000" y="140">
4
</text>
<rect height="7.000000" width="2.000000" x="325.000000" y="120.000000" fill="rgb(0, 0, 0)" style="fill-opacity:1.00" />
<text x="347.000000" y="140">
5
</text>
<rect height="7.000000" width="2.000000" x="385.000000" y="120.000000" fill="rgb(0, 0, 0)" style="fill-opacity:1.00" />
<text x="407.000000" y="140">
6
</text>
<rect height="7.000000" width="2.000000" x="445.000000" y="120.000000" fill="rgb(0, 0, 0)" style="fill-opacity:1.00" />
<text x="467.000000" y="140">
7
</text>
<rect height="7.000000" width="2.000000" x="505.000000" y="120.000000" fill="rgb(0, 0, 0)" style="fill-opacity:1.00" />
<text x="527.000000" y="140">
8
</text>
<rect height="7.000000" width="2.000000" x="565.000000" y="120.000000" fill="rgb(0, 0, 0)" style="fill-opacity:1.00" />
<text x="587.000000" y="140">
9
</text>
<rect height="7.000000" width="2.000000" x="625.000000" y="120.000000" fill="rgb(0, 0, 0)" style="fill-opacity:1.00" />
<text x="647.000000" y="140">
10
</text>
<rect height="7.000000" width="2.000000" x="685.000000" y="120.000000" fill="rgb(0, 0, 0)" style="fill-opacity:1.00" />
<text x="707.000000" y="140">
11
</text>
<rect height="7.000000" width="2.000000" x="745.000000" y="120.000000" fill="rgb(0, 0, 0)" style="fill-opacity:1.00" />
<text x="767.000000" y="140">
12
</text>
<rect height="7.000000" width="2.000000" x="805.000000" y="120.000000" fill="rgb(0, 0, 0)" style="fill-opacity:1.00" />
<text x="827.000000" y="140">
13
</text>
<rect height="7.000000" width="2.000000" x="865.000000" y="120.000000" fill="rgb(0, 0, 0)" style="fill-opacity:1.00" />
<line x1="80" y1="112" x2="80" y2="10" style="stroke:rgb(99,99,99);stroke-width:2" />
<rect height="2.000000" width="7.000000" x="73.000000" y="110.000000" fill="rgb(0, 0, 0)" style="fill-opacity:1.00" />
<text x="63" y="115">
0
</text>
<rect height="2.000000" width="7.000000" x="73.000000" y="60.000000" fill="rgb(0, 0, 0)" style="fill-opacity:1.00" />
<text x="63" y="65">
1
</text>
<rect height="2.000000" width="7.000000" x="73.000000" y="10.000000" fill="rgb(0, 0, 0)" style="fill-opacity:1.00" />
<text x="63" y="15">
2
</text>
<text x="50" y="65"
transform="rotate(-90, 50, 70)">
bits
</text>
<!-- Begin 'A' -->
<polygon points=" 90.000000, 106.603636, 111.000000, 104.703199, 119.000000, 104.703199, 140.000000, 106.603636, 132.500000, 106.603636, 126.250000, 106.128527, 103.750000, 106.128527, 97.500000, 106.603636" fill="rgb(178, 34, 34)" style="fill-opacity:1.00" />
<!-- End 'A' -->
<!-- Begin 'T' -->
<rect height="0.271615" width="50.000000" x="90.000000" y="106.603636" fill="rgb(0, 100, 0)" style="fill-opacity:1.00" />
<rect height="1.697596" width="10.000000" x="110.000000" y="106.603636" fill="rgb(0, 100, 0)" style="fill-opacity:1.00" />
<!-- End 'T' -->
<!-- Begin 'G' -->
<ellipse cx="115.000000" cy="108.811850" rx="25.000000" ry="0.510618" fill="rgb(255, 165, 0)" style="fill-opacity:1.00" />
<ellipse cx="115.000000" cy="108.811850" rx="16.666667" ry="0.340412" fill="rgb(255, 255, 255)" style="fill-opacity:1.00" />
<rect height="0.510618" width="25.000000" x="115.000000" y="108.556541" fill="rgb(255, 255, 255)" style="fill-opacity:1.00" />
<rect height="0.127654" width="25.000000" x="115.000000" y="108.939504" fill="rgb(255, 165, 0)" style="fill-opacity:1.00" />
<rect height="0.382963" width="6.250000" x="133.750000" y="108.939504" fill="rgb(255, 165, 0)" style="fill-opacity:1.00" />
<!-- End 'G' -->
<!-- Begin 'C' -->
<ellipse cx="115.000000" cy="109.661234" rx="25.000000" ry="0.338766" fill="rgb(0, 0, 128)" style="fill-opacity:1.00" />
<ellipse cx="115.000000" cy="109.661234" rx="16.666667" ry="0.225844" fill="rgb(255, 255, 255)" style="fill-opacity:1.00" />
<rect height="0.338766" width="25.000000" x="115.000000" y="109.491851" fill="rgb(255, 255, 255)" style="fill-opacity:1.00" />
<!-- End 'C' -->
<!-- Begin 'T' -->
<rect height="0.169202" width="50.000000" x="150.000000" y="106.872283" fill="rgb(0, 100, 0)" style="fill-opacity:1.00" />
<rect height="1.057512" width="10.000000" x="170.000000" y="106.872283" fill="rgb(0, 100, 0)" style="fill-opacity:1.00" />
<!-- End 'T' -->
<!-- Begin 'A' -->
<polygon points=" 150.000000, 108.877484, 171.000000, 107.929795, 179.000000, 107.929795, 200.000000, 108.877484, 192.500000, 108.877484, 186.250000, 108.640562, 163.750000, 108.640562, 157.500000, 108.877484" fill="rgb(178, 34, 34)" style="fill-opacity:1.00" />
<!-- End 'A' -->
<!-- Begin 'G' -->
<ellipse cx="175.000000" cy="109.187924" rx="25.000000" ry="0.310440" fill="rgb(255, 165, 0)" style="fill-opacity:1.00" />
<ellipse cx="175.000000" cy="109.187924" rx="16.666667" ry="0.206960" fill="rgb(255, 255, 255)" style="fill-opacity:1.00" />
<rect height="0.310440" width="25.000000" x="175.000000" y="109.032704" fill="rgb(255, 255, 255)" style="fill-opacity:1.00" />
<rect height="0.077610" width="25.000000" x="175.000000" y="109.265534" fill="rgb(255, 165, 0)" style="fill-opacity:1.00" />
<rect height="0.232830" width="6.250000" x="193.750000" y="109.265534" fill="rgb(255, 165, 0)" style="fill-opacity:1.00" />
<!-- End 'G' -->
<!-- Begin 'C' -->
<ellipse cx="175.000000" cy="109.749182" rx="25.000000" ry="0.250818" fill="rgb(0, 0, 128)" style="fill-opacity:1.00" />
<ellipse cx="175.000000" cy="109.749182" rx="16.666667" ry="0.167212" fill="rgb(255, 255, 255)" style="fill-opacity:1.00" />
<rect height="0.250818" width="25.000000" x="175.000000" y="109.623773" fill="rgb(255, 255, 255)" style="fill-opacity:1.00" />
<!-- End 'C' -->
<!-- Begin 'T' -->
<rect height="0.109029" width="50.000000" x="210.000000" y="107.837182" fill="rgb(0, 100, 0)" style="fill-opacity:1.00" />
<rect height="0.681430" width="10.000000" x="230.000000" y="107.837182" fill="rgb(0, 100, 0)" style="fill-opacity:1.00" />
<!-- End 'T' -->
<!-- Begin 'C' -->
<ellipse cx="235.000000" cy="108.844543" rx="25.000000" ry="0.325931" fill="rgb(0, 0, 128)" style="fill-opacity:1.00" />
<ellipse cx="235.000000" cy="108.844543" rx="16.666667" ry="0.217288" fill="rgb(255, 255, 255)" style="fill-opacity:1.00" />
<rect height="0.325931" width="25.000000" x="235.000000" y="108.681578" fill="rgb(255, 255, 255)" style="fill-opacity:1.00" />
<!-- End 'C' -->
<!-- Begin 'A' -->
<polygon points=" 210.000000, 109.632110, 231.000000, 109.170475, 239.000000, 109.170475, 260.000000, 109.632110, 252.500000, 109.632110, 246.250000, 109.516701, 223.750000, 109.516701, 217.500000, 109.632110" fill="rgb(178, 34, 34)" style="fill-opacity:1.00" />
<!-- End 'A' -->
<!-- Begin 'G' -->
<ellipse cx="235.000000" cy="109.816055" rx="25.000000" ry="0.183945" fill="rgb(255, 165, 0)" style="fill-opacity:1.00" />
<ellipse cx="235.000000" cy="109.816055" rx="16.666667" ry="0.122630" fill="rgb(255, 255, 255)" style="fill-opacity:1.00" />
<rect height="0.183945" width="25.000000" x="235.000000" y="109.724082" fill="rgb(255, 255, 255)" style="fill-opacity:1.00" />
<rect height="0.045986" width="25.000000" x="235.000000" y="109.862041" fill="rgb(255, 165, 0)" style="fill-opacity:1.00" />
<rect height="0.137959" width="6.250000" x="253.750000" y="109.862041" fill="rgb(255, 165, 0)" style="fill-opacity:1.00" />
<!-- End 'G' -->
<!-- Begin 'T' -->
<rect height="0.854053" width="50.000000" x="270.000000" y="97.087853" fill="rgb(0, 100, 0)" style="fill-opacity:1.00" />
<rect height="5.337834" width="10.000000" x="290.000000" y="97.087853" fill="rgb(0, 100, 0)" style="fill-opacity:1.00" />
<!-- End 'T' -->
<!-- Begin 'G' -->
<ellipse cx="295.000000" cy="104.736012" rx="25.000000" ry="2.310325" fill="rgb(255, 165, 0)" style="fill-opacity:1.00" />
<ellipse cx="295.000000" cy="104.736012" rx="16.666667" ry="1.540217" fill="rgb(255, 255, 255)" style="fill-opacity:1.00" />
<rect height="2.310325" width="25.000000" x="295.000000" y="103.580849" fill="rgb(255, 255, 255)" style="fill-opacity:1.00" />
<rect height="0.577581" width="25.000000" x="295.000000" y="105.313593" fill="rgb(255, 165, 0)" style="fill-opacity:1.00" />
<rect height="1.732744" width="6.250000" x="313.750000" y="105.313593" fill="rgb(255, 165, 0)" style="fill-opacity:1.00" />
<!-- End 'G' -->
<!-- Begin 'A' -->
<polygon points=" 270.000000, 109.154834, 291.000000, 107.046337, 299.000000, 107.046337, 320.000000, 109.154834, 312.500000, 109.154834, 306.250000, 108.627710, 283.750000, 108.627710, 277.500000, 109.154834" fill="rgb(178, 34, 34)" style="fill-opacity:1.00" />
<!-- End 'A' -->
<!-- Begin 'C' -->
<ellipse cx="295.000000" cy="109.577417" rx="25.000000" ry="0.422583" fill="rgb(0, 0, 128)" style="fill-opacity:1.00" />
<ellipse cx="295.000000" cy="109.577417" rx="16.666667" ry="0.281722" fill="rgb(255, 255, 255)" style="fill-opacity:1.00" />
<rect height="0.422583" width="25.000000" x="295.000000" y="109.366125" fill="rgb(255, 255, 255)" style="fill-opacity:1.00" />
<!-- End 'C' -->
<!-- Begin 'T' -->
<rect height="9.991521" width="50.000000" x="330.000000" y="40.512394" fill="rgb(0, 100, 0)" style="fill-opacity:1.00" />
<rect height="62.447003" width="10.000000" x="350.000000" y="40.512394" fill="rgb(0, 100, 0)" style="fill-opacity:1.00" />
<!-- End 'T' -->
<!-- Begin 'A' -->
<polygon points=" 330.000000, 106.330906, 351.000000, 102.959398, 359.000000, 102.959398, 380.000000, 106.330906, 372.500000, 106.330906, 366.250000, 105.488029, 343.750000, 105.488029, 337.500000, 106.330906" fill="rgb(178, 34, 34)" style="fill-opacity:1.00" />
<!-- End 'A' -->
<!-- Begin 'C' -->
<ellipse cx="355.000000" cy="107.835616" rx="25.000000" ry="1.504710" fill="rgb(0, 0, 128)" style="fill-opacity:1.00" />
<ellipse cx="355.000000" cy="107.835616" rx="16.666667" ry="1.003140" fill="rgb(255, 255, 255)" style="fill-opacity:1.00" />
<rect height="1.504710" width="25.000000" x="355.000000" y="107.083261" fill="rgb(255, 255, 255)" style="fill-opacity:1.00" />
<!-- End 'C' -->
<!-- Begin 'G' -->
<ellipse cx="355.000000" cy="109.670163" rx="25.000000" ry="0.329837" fill="rgb(255, 165, 0)" style="fill-opacity:1.00" />
<ellipse cx="355.000000" cy="109.670163" rx="16.666667" ry="0.219891" fill="rgb(255, 255, 255)" style="fill-opacity:1.00" />
<rect height="0.329837" width="25.000000" x="355.000000" y="109.505245" fill="rgb(255, 255, 255)" style="fill-opacity:1.00" />
<rect height="0.082459" width="25.000000" x="355.000000" y="109.752623" fill="rgb(255, 165, 0)" style="fill-opacity:1.00" />
<rect height="0.247377" width="6.250000" x="373.750000" y="109.752623" fill="rgb(255, 165, 0)" style="fill-opacity:1.00" />
<!-- End 'G' -->
<!-- Begin 'T' -->
<rect height="11.472222" width="50.000000" x="390.000000" y="33.044177" fill="rgb(0, 100, 0)" style="fill-opacity:1.00" />
<rect height="71.701388" width="10.000000" x="410.000000" y="33.044177" fill="rgb(0, 100, 0)" style="fill-opacity:1.00" />
<!-- End 'T' -->
<!-- Begin 'G' -->
<ellipse cx="415.000000" cy="105.963160" rx="25.000000" ry="1.217595" fill="rgb(255, 165, 0)" style="fill-opacity:1.00" />
<ellipse cx="415.000000" cy="105.963160" rx="16.666667" ry="0.811730" fill="rgb(255, 255, 255)" style="fill-opacity:1.00" />
<rect height="1.217595" width="25.000000" x="415.000000" y="105.354362" fill="rgb(255, 255, 255)" style="fill-opacity:1.00" />
<rect height="0.304399" width="25.000000" x="415.000000" y="106.267558" fill="rgb(255, 165, 0)" style="fill-opacity:1.00" />
<rect height="0.913196" width="6.250000" x="433.750000" y="106.267558" fill="rgb(255, 165, 0)" style="fill-opacity:1.00" />
<!-- End 'G' -->
<!-- Begin 'A' -->
<polygon points=" 390.000000, 109.078320, 411.000000, 107.180754, 419.000000, 107.180754, 440.000000, 109.078320, 432.500000, 109.078320, 426.250000, 108.603929, 403.750000, 108.603929, 397.500000, 109.078320" fill="rgb(178, 34, 34)" style="fill-opacity:1.00" />
<!-- End 'A' -->
<!-- Begin 'C' -->
<ellipse cx="415.000000" cy="109.539160" rx="25.000000" ry="0.460840" fill="rgb(0, 0, 128)" style="fill-opacity:1.00" />
<ellipse cx="415.000000" cy="109.539160" rx="16.666667" ry="0.307227" fill="rgb(255, 255, 255)" style="fill-opacity:1.00" />
<rect height="0.460840" width="25.000000" x="415.000000" y="109.308740" fill="rgb(255, 255, 255)" style="fill-opacity:1.00" />
<!-- End 'C' -->
<!-- Begin 'G' -->
<ellipse cx="475.000000" cy="63.541686" rx="25.000000" ry="44.243633" fill="rgb(255, 165, 0)" style="fill-opacity:1.00" />
<ellipse cx="475.000000" cy="63.541686" rx="16.666667" ry="29.495755" fill="rgb(255, 255, 255)" style="fill-opacity:1.00" />
<rect height="44.243633" width="25.000000" x="475.000000" y="41.419870" fill="rgb(255, 255, 255)" style="fill-opacity:1.00" />
<rect height="11.060908" width="25.000000" x="475.000000" y="74.602595" fill="rgb(255, 165, 0)" style="fill-opacity:1.00" />
<rect height="33.182725" width="6.250000" x="493.750000" y="74.602595" fill="rgb(255, 165, 0)" style="fill-opacity:1.00" />
<!-- End 'G' -->
<!-- Begin 'T' -->
<rect height="0.283155" width="50.000000" x="450.000000" y="107.785319" fill="rgb(0, 100, 0)" style="fill-opacity:1.00" />
<rect height="1.769716" width="10.000000" x="470.000000" y="107.785319" fill="rgb(0, 100, 0)" style="fill-opacity:1.00" />
<!-- End 'T' -->
<!-- Begin 'A' -->
<polygon points=" 450.000000, 109.942673, 471.000000, 109.555035, 479.000000, 109.555035, 500.000000, 109.942673, 492.500000, 109.942673, 486.250000, 109.845764, 463.750000, 109.845764, 457.500000, 109.942673" fill="rgb(178, 34, 34)" style="fill-opacity:1.00" />
<!-- End 'A' -->
<!-- Begin 'C' -->
<ellipse cx="475.000000" cy="109.971337" rx="25.000000" ry="0.028663" fill="rgb(0, 0, 128)" style="fill-opacity:1.00" />
<ellipse cx="475.000000" cy="109.971337" rx="16.666667" ry="0.019109" fill="rgb(255, 255, 255)" style="fill-opacity:1.00" />
<rect height="0.028663" width="25.000000" x="475.000000" y="109.957005" fill="rgb(255, 255, 255)" style="fill-opacity:1.00" />
<!-- End 'C' -->
<!-- Begin 'A' -->
<polygon points=" 510.000000, 108.628864, 531.000000, 16.615383, 539.000000, 16.615383, 560.000000, 108.628864, 552.500000, 108.628864, 546.250000, 85.625494, 523.750000, 85.625494, 517.500000, 108.628864" fill="rgb(178, 34, 34)" style="fill-opacity:1.00" />
<polygon points=" 535.000000, 35.018080, 527.000000, 70.823472, 542.000000, 70.823472" fill="rgb(255, 255, 255)" style="fill-opacity:1.00" />
<!-- End 'A' -->
<!-- Begin 'T' -->
<rect height="0.111957" width="50.000000" x="510.000000" y="108.628864" fill="rgb(0, 100, 0)" style="fill-opacity:1.00" />
<rect height="0.699734" width="10.000000" x="530.000000" y="108.628864" fill="rgb(0, 100, 0)" style="fill-opacity:1.00" />
<!-- End 'T' -->
<!-- Begin 'G' -->
<ellipse cx="535.000000" cy="109.497305" rx="25.000000" ry="0.168707" fill="rgb(255, 165, 0)" style="fill-opacity:1.00" />
<ellipse cx="535.000000" cy="109.497305" rx="16.666667" ry="0.112471" fill="rgb(255, 255, 255)" style="fill-opacity:1.00" />
<rect height="0.168707" width="25.000000" x="535.000000" y="109.412952" fill="rgb(255, 255, 255)" style="fill-opacity:1.00" />
<rect height="0.042177" width="25.000000" x="535.000000" y="109.539482" fill="rgb(255, 165, 0)" style="fill-opacity:1.00" />
<rect height="0.126530" width="6.250000" x="553.750000" y="109.539482" fill="rgb(255, 165, 0)" style="fill-opacity:1.00" />
<!-- End 'G' -->
<!-- Begin 'C' -->
<ellipse cx="535.000000" cy="109.833006" rx="25.000000" ry="0.166994" fill="rgb(0, 0, 128)" style="fill-opacity:1.00" />
<ellipse cx="535.000000" cy="109.833006" rx="16.666667" ry="0.111329" fill="rgb(255, 255, 255)" style="fill-opacity:1.00" />
<rect height="0.166994" width="25.000000" x="535.000000" y="109.749509" fill="rgb(255, 255, 255)" style="fill-opacity:1.00" />
<!-- End 'C' -->
<!-- Begin 'C' -->
<ellipse cx="595.000000" cy="68.734535" rx="25.000000" ry="35.530954" fill="rgb(0, 0, 128)" style="fill-opacity:1.00" />
<ellipse cx="595.000000" cy="68.734535" rx="16.666667" ry="23.687303" fill="rgb(255, 255, 255)" style="fill-opacity:1.00" />
<rect height="35.530954" width="25.000000" x="595.000000" y="50.969058" fill="rgb(255, 255, 255)" style="fill-opacity:1.00" />
<!-- End 'C' -->
<!-- Begin 'A' -->
<polygon points=" 570.000000, 107.723717, 591.000000, 104.265490, 599.000000, 104.265490, 620.000000, 107.723717, 612.500000, 107.723717, 606.250000, 106.859160, 583.750000, 106.859160, 577.500000, 107.723717" fill="rgb(178, 34, 34)" style="fill-opacity:1.00" />
<!-- End 'A' -->
<!-- Begin 'T' -->
<rect height="0.345717" width="50.000000" x="570.000000" y="107.723717" fill="rgb(0, 100, 0)" style="fill-opacity:1.00" />
<rect height="2.160734" width="10.000000" x="590.000000" y="107.723717" fill="rgb(0, 100, 0)" style="fill-opacity:1.00" />
<!-- End 'T' -->
<!-- Begin 'G' -->
<ellipse cx="595.000000" cy="109.942225" rx="25.000000" ry="0.057775" fill="rgb(255, 165, 0)" style="fill-opacity:1.00" />
<ellipse cx="595.000000" cy="109.942225" rx="16.666667" ry="0.038516" fill="rgb(255, 255, 255)" style="fill-opacity:1.00" />
<rect height="0.057775" width="25.000000" x="595.000000" y="109.913338" fill="rgb(255, 255, 255)" style="fill-opacity:1.00" />
<rect height="0.014444" width="25.000000" x="595.000000" y="109.956669" fill="rgb(255, 165, 0)" style="fill-opacity:1.00" />
<rect height="0.043331" width="6.250000" x="613.750000" y="109.956669" fill="rgb(255, 165, 0)" style="fill-opacity:1.00" />
<!-- End 'G' -->
<!-- Begin 'T' -->
<rect height="2.756764" width="50.000000" x="630.000000" y="82.336826" fill="rgb(0, 100, 0)" style="fill-opacity:1.00" />
<rect height="17.229772" width="10.000000" x="650.000000" y="82.336826" fill="rgb(0, 100, 0)" style="fill-opacity:1.00" />
<!-- End 'T' -->
<!-- Begin 'C' -->
<ellipse cx="655.000000" cy="102.625962" rx="25.000000" ry="3.059363" fill="rgb(0, 0, 128)" style="fill-opacity:1.00" />
<ellipse cx="655.000000" cy="102.625962" rx="16.666667" ry="2.039576" fill="rgb(255, 255, 255)" style="fill-opacity:1.00" />
<rect height="3.059363" width="25.000000" x="655.000000" y="101.096280" fill="rgb(255, 255, 255)" style="fill-opacity:1.00" />
<!-- End 'C' -->
<!-- Begin 'A' -->
<polygon points=" 630.000000, 109.001335, 651.000000, 105.685325, 659.000000, 105.685325, 680.000000, 109.001335, 672.500000, 109.001335, 666.250000, 108.172333, 643.750000, 108.172333, 637.500000, 109.001335" fill="rgb(178, 34, 34)" style="fill-opacity:1.00" />
<!-- End 'A' -->
<!-- Begin 'G' -->
<ellipse cx="655.000000" cy="109.500668" rx="25.000000" ry="0.499332" fill="rgb(255, 165, 0)" style="fill-opacity:1.00" />
<ellipse cx="655.000000" cy="109.500668" rx="16.666667" ry="0.332888" fill="rgb(255, 255, 255)" style="fill-opacity:1.00" />
<rect height="0.499332" width="25.000000" x="655.000000" y="109.251001" fill="rgb(255, 255, 255)" style="fill-opacity:1.00" />
<rect height="0.124833" width="25.000000" x="655.000000" y="109.625501" fill="rgb(255, 165, 0)" style="fill-opacity:1.00" />
<rect height="0.374499" width="6.250000" x="673.750000" y="109.625501" fill="rgb(255, 165, 0)" style="fill-opacity:1.00" />
<!-- End 'G' -->
<!-- Begin 'T' -->
<rect height="1.592061" width="50.000000" x="690.000000" y="90.670029" fill="rgb(0, 100, 0)" style="fill-opacity:1.00" />
<rect height="9.950382" width="10.000000" x="710.000000" y="90.670029" fill="rgb(0, 100, 0)" style="fill-opacity:1.00" />
<!-- End 'T' -->
<!-- Begin 'A' -->
<polygon points=" 690.000000, 106.761510, 711.000000, 100.620411, 719.000000, 100.620411, 740.000000, 106.761510, 732.500000, 106.761510, 726.250000, 105.226235, 703.750000, 105.226235, 697.500000, 106.761510" fill="rgb(178, 34, 34)" style="fill-opacity:1.00" />
<!-- End 'A' -->
<!-- Begin 'C' -->
<ellipse cx="715.000000" cy="107.729708" rx="25.000000" ry="0.968198" fill="rgb(0, 0, 128)" style="fill-opacity:1.00" />
<ellipse cx="715.000000" cy="107.729708" rx="16.666667" ry="0.645465" fill="rgb(255, 255, 255)" style="fill-opacity:1.00" />
<rect height="0.968198" width="25.000000" x="715.000000" y="107.245609" fill="rgb(255, 255, 255)" style="fill-opacity:1.00" />
<!-- End 'C' -->
<!-- Begin 'G' -->
<ellipse cx="715.000000" cy="109.348953" rx="25.000000" ry="0.651047" fill="rgb(255, 165, 0)" style="fill-opacity:1.00" />
<ellipse cx="715.000000" cy="109.348953" rx="16.666667" ry="0.434032" fill="rgb(255, 255, 255)" style="fill-opacity:1.00" />
<rect height="0.651047" width="25.000000" x="715.000000" y="109.023429" fill="rgb(255, 255, 255)" style="fill-opacity:1.00" />
<rect height="0.162762" width="25.000000" x="715.000000" y="109.511714" fill="rgb(255, 165, 0)" style="fill-opacity:1.00" />
<rect height="0.488286" width="6.250000" x="733.750000" y="109.511714" fill="rgb(255, 165, 0)" style="fill-opacity:1.00" />
<!-- End 'G' -->
<!-- Begin 'T' -->
<rect height="0.822988" width="50.000000" x="750.000000" y="99.006252" fill="rgb(0, 100, 0)" style="fill-opacity:1.00" />
<rect height="5.143678" width="10.000000" x="770.000000" y="99.006252" fill="rgb(0, 100, 0)" style="fill-opacity:1.00" />
<!-- End 'T' -->
<!-- Begin 'A' -->
<polygon points=" 750.000000, 107.223735, 771.000000, 104.149930, 779.000000, 104.149930, 800.000000, 107.223735, 792.500000, 107.223735, 786.250000, 106.455283, 763.750000, 106.455283, 757.500000, 107.223735" fill="rgb(178, 34, 34)" style="fill-opacity:1.00" />
<!-- End 'A' -->
<!-- Begin 'G' -->
<ellipse cx="775.000000" cy="107.956263" rx="25.000000" ry="0.732528" fill="rgb(255, 165, 0)" style="fill-opacity:1.00" />
<ellipse cx="775.000000" cy="107.956263" rx="16.666667" ry="0.488352" fill="rgb(255, 255, 255)" style="fill-opacity:1.00" />
<rect height="0.732528" width="25.000000" x="775.000000" y="107.589999" fill="rgb(255, 255, 255)" style="fill-opacity:1.00" />
<rect height="0.183132" width="25.000000" x="775.000000" y="108.139395" fill="rgb(255, 165, 0)" style="fill-opacity:1.00" />
<rect height="0.549396" width="6.250000" x="793.750000" y="108.139395" fill="rgb(255, 165, 0)" style="fill-opacity:1.00" />
<!-- End 'G' -->
<!-- Begin 'C' -->
<ellipse cx="775.000000" cy="109.344395" rx="25.000000" ry="0.655605" fill="rgb(0, 0, 128)" style="fill-opacity:1.00" />
<ellipse cx="775.000000" cy="109.344395" rx="16.666667" ry="0.437070" fill="rgb(255, 255, 255)" style="fill-opacity:1.00" />
<rect height="0.655605" width="25.000000" x="775.000000" y="109.016593" fill="rgb(255, 255, 255)" style="fill-opacity:1.00" />
<!-- End 'C' -->
<!-- Begin 'T' -->
<rect height="0.451785" width="50.000000" x="810.000000" y="103.152484" fill="rgb(0, 100, 0)" style="fill-opacity:1.00" />
<rect height="2.823659" width="10.000000" x="830.000000" y="103.152484" fill="rgb(0, 100, 0)" style="fill-opacity:1.00" />
<!-- End 'T' -->
<!-- Begin 'A' -->
<polygon points=" 810.000000, 107.910706, 831.000000, 105.976143, 839.000000, 105.976143, 860.000000, 107.910706, 852.500000, 107.910706, 846.250000, 107.427065, 823.750000, 107.427065, 817.500000, 107.910706" fill="rgb(178, 34, 34)" style="fill-opacity:1.00" />
<!-- End 'A' -->
<!-- Begin 'G' -->
<ellipse cx="835.000000" cy="108.524617" rx="25.000000" ry="0.613912" fill="rgb(255, 165, 0)" style="fill-opacity:1.00" />
<ellipse cx="835.000000" cy="108.524617" rx="16.666667" ry="0.409274" fill="rgb(255, 255, 255)" style="fill-opacity:1.00" />
<rect height="0.613912" width="25.000000" x="835.000000" y="108.217662" fill="rgb(255, 255, 255)" style="fill-opacity:1.00" />
<rect height="0.153478" width="25.000000" x="835.000000" y="108.678095" fill="rgb(255, 165, 0)" style="fill-opacity:1.00" />
<rect height="0.460434" width="6.250000" x="853.750000" y="108.678095" fill="rgb(255, 165, 0)" style="fill-opacity:1.00" />
<!-- End 'G' -->
<!-- Begin 'C' -->
<ellipse cx="835.000000" cy="109.569265" rx="25.000000" ry="0.430735" fill="rgb(0, 0, 128)" style="fill-opacity:1.00" />
<ellipse cx="835.000000" cy="109.569265" rx="16.666667" ry="0.287157" fill="rgb(255, 255, 255)" style="fill-opacity:1.00" />
<rect height="0.430735" width="25.000000" x="835.000000" y="109.353897" fill="rgb(255, 255, 255)" style="fill-opacity:1.00" />
<!-- End 'C' -->
<text x="460.000000" y="165">
IC = 9.91
</text>

</svg>
