<?xml version="1.0" encoding="UTF-8" standalone="yes"?>
                 <!DOCTYPE svg PUBLIC "-//W3C//DTD SVG 1.0//EN" "http://www.w3.org/TR/2001/REC-SVG-20010904/DTD/svg10.dtd">
                 <svg height="170" width="540" xmlns="http://www.w3.org/2000/svg" xmlns:xlink="http://www.w3.org/1999/xlink">
                 <line x1="85" y1="120" x2="507" y2="120" style="stroke:rgb(99,99,99);stroke-width:2" />
<rect height="7.000000" width="2.000000" x="85.000000" y="120.000000" fill="rgb(0, 0, 0)" style="fill-opacity:1.00" />
<text x="107.000000" y="140">
1
</text>
<rect height="7.000000" width="2.000000" x="145.000000" y="120.000000" fill="rgb(0, 0, 0)" style="fill-opacity:1.00" />
<text x="167.000000" y="140">
2
</text>
<rect height="7.000000" width="2.000000" x="205.000000" y="120.000000" fill="rgb(0, 0, 0)" style="fill-opacity:1.00" />
<text x="227.000000" y="140">
3
</text>
<rect height="7.000000" width="2.000000" x="265.000000" y="120.000000" fill="rgb(0, 0, 0)" style="fill-opacity:1.00" />
<text x="287.000000" y="140">
4
</text>
<rect height="7.000000" width="2.000000" x="325.000000" y="120.000000" fill="rgb(0, 0, 0)" style="fill-opacity:1.00" />
<text x="347.000000" y="140">
5
</text>
<rect height="7.000000" width="2.000000" x="385.000000" y="120.000000" fill="rgb(0, 0, 0)" style="fill-opacity:1.00" />
<text x="407.000000" y="140">
6
</text>
<rect height="7.000000" width="2.000000" x="445.000000" y="120.000000" fill="rgb(0, 0, 0)" style="fill-opacity:1.00" />
<text x="467.000000" y="140">
7
</text>
<rect height="7.000000" width="2.000000" x="505.000000" y="120.000000" fill="rgb(0, 0, 0)" style="fill-opacity:1.00" />
<line x1="80" y1="112" x2="80" y2="10" style="stroke:rgb(99,99,99);stroke-width:2" />
<rect height="2.000000" width="7.000000" x="73.000000" y="110.000000" fill="rgb(0, 0, 0)" style="fill-opacity:1.00" />
<text x="63" y="115">
0
</text>
<rect height="2.000000" width="7.000000" x="73.000000" y="60.000000" fill="rgb(0, 0, 0)" style="fill-opacity:1.00" />
<text x="63" y="65">
1
</text>
<rect height="2.000000" width="7.000000" x="73.000000" y="10.000000" fill="rgb(0, 0, 0)" style="fill-opacity:1.00" />
<text x="63" y="15">
2
</text>
<text x="50" y="65"
transform="rotate(-90, 50, 70)">
bits
</text>
<!-- Begin 'A' -->
<polygon points=" 90.000000, 102.593256, 111.000000, 92.522958, 119.000000, 92.522958, 140.000000, 102.593256, 132.500000, 102.593256, 126.250000, 100.075681, 103.750000, 100.075681, 97.500000, 102.593256" fill="rgb(178, 34, 34)" style="fill-opacity:1.00" />
<polygon points=" 115.000000, 94.537018, 107.000000, 97.565137, 122.000000, 97.565137" fill="rgb(255, 255, 255)" style="fill-opacity:1.00" />
<!-- End 'A' -->
<!-- Begin 'T' -->
<rect height="0.436657" width="50.000000" x="90.000000" y="102.593256" fill="rgb(0, 100, 0)" style="fill-opacity:1.00" />
<rect height="2.729104" width="10.000000" x="110.000000" y="102.593256" fill="rgb(0, 100, 0)" style="fill-opacity:1.00" />
<!-- End 'T' -->
<!-- Begin 'G' -->
<ellipse cx="115.000000" cy="106.631311" rx="25.000000" ry="1.308952" fill="rgb(255, 165, 0)" style="fill-opacity:1.00" />
<ellipse cx="115.000000" cy="106.631311" rx="16.666667" ry="0.872635" fill="rgb(255, 255, 255)" style="fill-opacity:1.00" />
<rect height="1.308952" width="25.000000" x="115.000000" y="105.976835" fill="rgb(255, 255, 255)" style="fill-opacity:1.00" />
<rect height="0.327238" width="25.000000" x="115.000000" y="106.958549" fill="rgb(255, 165, 0)" style="fill-opacity:1.00" />
<rect height="0.981714" width="6.250000" x="133.750000" y="106.958549" fill="rgb(255, 165, 0)" style="fill-opacity:1.00" />
<!-- End 'G' -->
<!-- Begin 'C' -->
<ellipse cx="115.000000" cy="108.970132" rx="25.000000" ry="1.029868" fill="rgb(0, 0, 128)" style="fill-opacity:1.00" />
<ellipse cx="115.000000" cy="108.970132" rx="16.666667" ry="0.686579" fill="rgb(255, 255, 255)" style="fill-opacity:1.00" />
<rect height="1.029868" width="25.000000" x="115.000000" y="108.455197" fill="rgb(255, 255, 255)" style="fill-opacity:1.00" />
<!-- End 'C' -->
<!-- Begin 'A' -->
<polygon points=" 150.000000, 99.033362, 171.000000, 79.238689, 179.000000, 79.238689, 200.000000, 99.033362, 192.500000, 99.033362, 186.250000, 94.084694, 163.750000, 94.084694, 157.500000, 99.033362" fill="rgb(178, 34, 34)" style="fill-opacity:1.00" />
<polygon points=" 175.000000, 83.197624, 167.000000, 90.115493, 182.000000, 90.115493" fill="rgb(255, 255, 255)" style="fill-opacity:1.00" />
<!-- End 'A' -->
<!-- Begin 'T' -->
<rect height="1.160982" width="50.000000" x="150.000000" y="99.033362" fill="rgb(0, 100, 0)" style="fill-opacity:1.00" />
<rect height="7.256138" width="10.000000" x="170.000000" y="99.033362" fill="rgb(0, 100, 0)" style="fill-opacity:1.00" />
<!-- End 'T' -->
<!-- Begin 'G' -->
<ellipse cx="175.000000" cy="107.432449" rx="25.000000" ry="1.142949" fill="rgb(255, 165, 0)" style="fill-opacity:1.00" />
<ellipse cx="175.000000" cy="107.432449" rx="16.666667" ry="0.761966" fill="rgb(255, 255, 255)" style="fill-opacity:1.00" />
<rect height="1.142949" width="25.000000" x="175.000000" y="106.860974" fill="rgb(255, 255, 255)" style="fill-opacity:1.00" />
<rect height="0.285737" width="25.000000" x="175.000000" y="107.718186" fill="rgb(255, 165, 0)" style="fill-opacity:1.00" />
<rect height="0.857212" width="6.250000" x="193.750000" y="107.718186" fill="rgb(255, 165, 0)" style="fill-opacity:1.00" />
<!-- End 'G' -->
<!-- Begin 'C' -->
<ellipse cx="175.000000" cy="109.287699" rx="25.000000" ry="0.712301" fill="rgb(0, 0, 128)" style="fill-opacity:1.00" />
<ellipse cx="175.000000" cy="109.287699" rx="16.666667" ry="0.474868" fill="rgb(255, 255, 255)" style="fill-opacity:1.00" />
<rect height="0.712301" width="25.000000" x="175.000000" y="108.931548" fill="rgb(255, 255, 255)" style="fill-opacity:1.00" />
<!-- End 'C' -->
<!-- Begin 'A' -->
<polygon points=" 210.000000, 105.009522, 231.000000, 32.195280, 239.000000, 32.195280, 260.000000, 105.009522, 252.500000, 105.009522, 246.250000, 86.805961, 223.750000, 86.805961, 217.500000, 105.009522" fill="rgb(178, 34, 34)" style="fill-opacity:1.00" />
<polygon points=" 235.000000, 46.758129, 227.000000, 74.883825, 242.000000, 74.883825" fill="rgb(255, 255, 255)" style="fill-opacity:1.00" />
<!-- End 'A' -->
<!-- Begin 'T' -->
<rect height="0.305770" width="50.000000" x="210.000000" y="105.009522" fill="rgb(0, 100, 0)" style="fill-opacity:1.00" />
<rect height="1.911062" width="10.000000" x="230.000000" y="105.009522" fill="rgb(0, 100, 0)" style="fill-opacity:1.00" />
<!-- End 'T' -->
<!-- Begin 'G' -->
<ellipse cx="235.000000" cy="107.828505" rx="25.000000" ry="0.907921" fill="rgb(255, 165, 0)" style="fill-opacity:1.00" />
<ellipse cx="235.000000" cy="107.828505" rx="16.666667" ry="0.605281" fill="rgb(255, 255, 255)" style="fill-opacity:1.00" />
<rect height="0.907921" width="25.000000" x="235.000000" y="107.374544" fill="rgb(255, 255, 255)" style="fill-opacity:1.00" />
<rect height="0.226980" width="25.000000" x="235.000000" y="108.055485" fill="rgb(255, 165, 0)" style="fill-opacity:1.00" />
<rect height="0.680941" width="6.250000" x="253.750000" y="108.055485" fill="rgb(255, 165, 0)" style="fill-opacity:1.00" />
<!-- End 'G' -->
<!-- Begin 'C' -->
<ellipse cx="235.000000" cy="109.368213" rx="25.000000" ry="0.631787" fill="rgb(0, 0, 128)" style="fill-opacity:1.00" />
<ellipse cx="235.000000" cy="109.368213" rx="16.666667" ry="0.421191" fill="rgb(255, 255, 255)" style="fill-opacity:1.00" />
<rect height="0.631787" width="25.000000" x="235.000000" y="109.052320" fill="rgb(255, 255, 255)" style="fill-opacity:1.00" />
<!-- End 'C' -->
<!-- Begin 'A' -->
<polygon points=" 270.000000, 104.813944, 291.000000, 29.776289, 299.000000, 29.776289, 320.000000, 104.813944, 312.500000, 104.813944, 306.250000, 86.054530, 283.750000, 86.054530, 277.500000, 104.813944" fill="rgb(178, 34, 34)" style="fill-opacity:1.00" />
<polygon points=" 295.000000, 44.783820, 287.000000, 73.798882, 302.000000, 73.798882" fill="rgb(255, 255, 255)" style="fill-opacity:1.00" />
<!-- End 'A' -->
<!-- Begin 'T' -->
<rect height="0.694679" width="50.000000" x="270.000000" y="104.813944" fill="rgb(0, 100, 0)" style="fill-opacity:1.00" />
<rect height="4.341744" width="10.000000" x="290.000000" y="104.813944" fill="rgb(0, 100, 0)" style="fill-opacity:1.00" />
<!-- End 'T' -->
<!-- Begin 'C' -->
<ellipse cx="295.000000" cy="109.473869" rx="25.000000" ry="0.318181" fill="rgb(0, 0, 128)" style="fill-opacity:1.00" />
<ellipse cx="295.000000" cy="109.473869" rx="16.666667" ry="0.212121" fill="rgb(255, 255, 255)" style="fill-opacity:1.00" />
<rect height="0.318181" width="25.000000" x="295.000000" y="109.314779" fill="rgb(255, 255, 255)" style="fill-opacity:1.00" />
<!-- End 'C' -->
<!-- Begin 'G' -->
<ellipse cx="295.000000" cy="109.896025" rx="25.000000" ry="0.103975" fill="rgb(255, 165, 0)" style="fill-opacity:1.00" />
<ellipse cx="295.000000" cy="109.896025" rx="16.666667" ry="0.069317" fill="rgb(255, 255, 255)" style="fill-opacity:1.00" />
<rect height="0.103975" width="25.000000" x="295.000000" y="109.844038" fill="rgb(255, 255, 255)" style="fill-opacity:1.00" />
<rect height="0.025994" width="25.000000" x="295.000000" y="109.922019" fill="rgb(255, 165, 0)" style="fill-opacity:1.00" />
<rect height="0.077981" width="6.250000" x="313.750000" y="109.922019" fill="rgb(255, 165, 0)" style="fill-opacity:1.00" />
<!-- End 'G' -->
<!-- Begin 'A' -->
<polygon points=" 330.000000, 102.118919, 351.000000, 45.138182, 359.000000, 45.138182, 380.000000, 102.118919, 372.500000, 102.118919, 366.250000, 87.873735, 343.750000, 87.873735, 337.500000, 102.118919" fill="rgb(178, 34, 34)" style="fill-opacity:1.00" />
<polygon points=" 355.000000, 56.534330, 347.000000, 78.326624, 362.000000, 78.326624" fill="rgb(255, 255, 255)" style="fill-opacity:1.00" />
<!-- End 'A' -->
<!-- Begin 'T' -->
<rect height="0.586072" width="50.000000" x="330.000000" y="102.118919" fill="rgb(0, 100, 0)" style="fill-opacity:1.00" />
<rect height="3.662949" width="10.000000" x="350.000000" y="102.118919" fill="rgb(0, 100, 0)" style="fill-opacity:1.00" />
<!-- End 'T' -->
<!-- Begin 'C' -->
<ellipse cx="355.000000" cy="107.451425" rx="25.000000" ry="1.669557" fill="rgb(0, 0, 128)" style="fill-opacity:1.00" />
<ellipse cx="355.000000" cy="107.451425" rx="16.666667" ry="1.113038" fill="rgb(255, 255, 255)" style="fill-opacity:1.00" />
<rect height="1.669557" width="25.000000" x="355.000000" y="106.616646" fill="rgb(255, 255, 255)" style="fill-opacity:1.00" />
<!-- End 'C' -->
<!-- Begin 'G' -->
<ellipse cx="355.000000" cy="109.560491" rx="25.000000" ry="0.439509" fill="rgb(255, 165, 0)" style="fill-opacity:1.00" />
<ellipse cx="355.000000" cy="109.560491" rx="16.666667" ry="0.293006" fill="rgb(255, 255, 255)" style="fill-opacity:1.00" />
<rect height="0.439509" width="25.000000" x="355.000000" y="109.340736" fill="rgb(255, 255, 255)" style="fill-opacity:1.00" />
<rect height="0.109877" width="25.000000" x="355.000000" y="109.670368" fill="rgb(255, 165, 0)" style="fill-opacity:1.00" />
<rect height="0.329632" width="6.250000" x="373.750000" y="109.670368" fill="rgb(255, 165, 0)" style="fill-opacity:1.00" />
<!-- End 'G' -->
<!-- Begin 'G' -->
<ellipse cx="415.000000" cy="84.300876" rx="25.000000" ry="14.919530" fill="rgb(255, 165, 0)" style="fill-opacity:1.00" />
<ellipse cx="415.000000" cy="84.300876" rx="16.666667" ry="9.946353" fill="rgb(255, 255, 255)" style="fill-opacity:1.00" />
<rect height="14.919530" width="25.000000" x="415.000000" y="76.841111" fill="rgb(255, 255, 255)" style="fill-opacity:1.00" />
<rect height="3.729882" width="25.000000" x="415.000000" y="88.030758" fill="rgb(255, 165, 0)" style="fill-opacity:1.00" />
<rect height="11.189647" width="6.250000" x="433.750000" y="88.030758" fill="rgb(255, 165, 0)" style="fill-opacity:1.00" />
<!-- End 'G' -->
<!-- Begin 'A' -->
<polygon points=" 390.000000, 105.806583, 411.000000, 99.220406, 419.000000, 99.220406, 440.000000, 105.806583, 432.500000, 105.806583, 426.250000, 104.160039, 403.750000, 104.160039, 397.500000, 105.806583" fill="rgb(178, 34, 34)" style="fill-opacity:1.00" />
<!-- End 'A' -->
<!-- Begin 'T' -->
<rect height="0.431977" width="50.000000" x="390.000000" y="105.806583" fill="rgb(0, 100, 0)" style="fill-opacity:1.00" />
<rect height="2.699857" width="10.000000" x="410.000000" y="105.806583" fill="rgb(0, 100, 0)" style="fill-opacity:1.00" />
<!-- End 'T' -->
<!-- Begin 'C' -->
<ellipse cx="415.000000" cy="109.253220" rx="25.000000" ry="0.746780" fill="rgb(0, 0, 128)" style="fill-opacity:1.00" />
<ellipse cx="415.000000" cy="109.253220" rx="16.666667" ry="0.497853" fill="rgb(255, 255, 255)" style="fill-opacity:1.00" />
<rect height="0.746780" width="25.000000" x="415.000000" y="108.879830" fill="rgb(255, 255, 255)" style="fill-opacity:1.00" />
<!-- End 'C' -->
<!-- Begin 'T' -->
<rect height="0.335011" width="50.000000" x="450.000000" y="104.272822" fill="rgb(0, 100, 0)" style="fill-opacity:1.00" />
<rect height="2.093822" width="10.000000" x="470.000000" y="104.272822" fill="rgb(0, 100, 0)" style="fill-opacity:1.00" />
<!-- End 'T' -->
<!-- Begin 'A' -->
<polygon points=" 450.000000, 108.249354, 471.000000, 106.366643, 479.000000, 106.366643, 500.000000, 108.249354, 492.500000, 108.249354, 486.250000, 107.778676, 463.750000, 107.778676, 457.500000, 108.249354" fill="rgb(178, 34, 34)" style="fill-opacity:1.00" />
<!-- End 'A' -->
<!-- Begin 'G' -->
<ellipse cx="475.000000" cy="108.719914" rx="25.000000" ry="0.470560" fill="rgb(255, 165, 0)" style="fill-opacity:1.00" />
<ellipse cx="475.000000" cy="108.719914" rx="16.666667" ry="0.313707" fill="rgb(255, 255, 255)" style="fill-opacity:1.00" />
<rect height="0.470560" width="25.000000" x="475.000000" y="108.484634" fill="rgb(255, 255, 255)" style="fill-opacity:1.00" />
<rect height="0.117640" width="25.000000" x="475.000000" y="108.837554" fill="rgb(255, 165, 0)" style="fill-opacity:1.00" />
<rect height="0.352920" width="6.250000" x="493.750000" y="108.837554" fill="rgb(255, 165, 0)" style="fill-opacity:1.00" />
<!-- End 'G' -->
<!-- Begin 'C' -->
<ellipse cx="475.000000" cy="109.595237" rx="25.000000" ry="0.404763" fill="rgb(0, 0, 128)" style="fill-opacity:1.00" />
<ellipse cx="475.000000" cy="109.595237" rx="16.666667" ry="0.269842" fill="rgb(255, 255, 255)" style="fill-opacity:1.00" />
<rect height="0.404763" width="25.000000" x="475.000000" y="109.392856" fill="rgb(255, 255, 255)" style="fill-opacity:1.00" />
<!-- End 'C' -->
<text x="280.000000" y="165">
IC = 6.35
</text>

</svg>
