<?xml version="1.0" encoding="UTF-8" standalone="yes"?>
                 <!DOCTYPE svg PUBLIC "-//W3C//DTD SVG 1.0//EN" "http://www.w3.org/TR/2001/REC-SVG-20010904/DTD/svg10.dtd">
                 <svg height="170" width="900" xmlns="http://www.w3.org/2000/svg" xmlns:xlink="http://www.w3.org/1999/xlink">
                 <line x1="85" y1="120" x2="867" y2="120" style="stroke:rgb(99,99,99);stroke-width:2" />
<rect height="7.000000" width="2.000000" x="85.000000" y="120.000000" fill="rgb(0, 0, 0)" style="fill-opacity:1.00" />
<text x="107.000000" y="140">
1
</text>
<rect height="7.000000" width="2.000000" x="145.000000" y="120.000000" fill="rgb(0, 0, 0)" style="fill-opacity:1.00" />
<text x="167.000000" y="140">
2
</text>
<rect height="7.000000" width="2.000000" x="205.000000" y="120.000000" fill="rgb(0, 0, 0)" style="fill-opacity:1.00" />
<text x="227.000000" y="140">
3
</text>
<rect height="7.000000" width="2.000000" x="265.000000" y="120.000000" fill="rgb(0, 0, 0)" style="fill-opacity:1.00" />
<text x="287.000000" y="140">
4
</text>
<rect height="7.000000" width="2.000000" x="325.000000" y="120.000000" fill="rgb(0, 0, 0)" style="fill-opacity:1.00" />
<text x="347.000000" y="140">
5
</text>
<rect height="7.000000" width="2.000000" x="385.000000" y="120.000000" fill="rgb(0, 0, 0)" style="fill-opacity:1.00" />
<text x="407.000000" y="140">
6
</text>
<rect height="7.000000" width="2.000000" x="445.000000" y="120.000000" fill="rgb(0, 0, 0)" style="fill-opacity:1.00" />
<text x="467.000000" y="140">
7
</text>
<rect height="7.000000" width="2.000000" x="505.000000" y="120.000000" fill="rgb(0, 0, 0)" style="fill-opacity:1.00" />
<text x="527.000000" y="140">
8
</text>
<rect height="7.000000" width="2.000000" x="565.000000" y="120.000000" fill="rgb(0, 0, 0)" style="fill-opacity:1.00" />
<text x="587.000000" y="140">
9
</text>
<rect height="7.000000" width="2.000000" x="625.000000" y="120.000000" fill="rgb(0, 0, 0)" style="fill-opacity:1.00" />
<text x="647.000000" y="140">
10
</text>
<rect height="7.000000" width="2.000000" x="685.000000" y="120.000000" fill="rgb(0, 0, 0)" style="fill-opacity:1.00" />
<text x="707.000000" y="140">
11
</text>
<rect height="7.000000" width="2.000000" x="745.000000" y="120.000000" fill="rgb(0, 0, 0)" style="fill-opacity:1.00" />
<text x="767.000000" y="140">
12
</text>
<rect height="7.000000" width="2.000000" x="805.000000" y="120.000000" fill="rgb(0, 0, 0)" style="fill-opacity:1.00" />
<text x="827.000000" y="140">
13
</text>
<rect height="7.000000" width="2.000000" x="865.000000" y="120.000000" fill="rgb(0, 0, 0)" style="fill-opacity:1.00" />
<line x1="80" y1="112" x2="80" y2="10" style="stroke:rgb(99,99,99);stroke-width:2" />
<rect height="2.000000" width="7.000000" x="73.000000" y="110.000000" fill="rgb(0, 0, 0)" style="fill-opacity:1.00" />
<text x="63" y="115">
0
</text>
<rect height="2.000000" width="7.000000" x="73.000000" y="60.000000" fill="rgb(0, 0, 0)" style="fill-opacity:1.00" />
<text x="63" y="65">
1
</text>
<rect height="2.000000" width="7.000000" x="73.000000" y="10.000000" fill="rgb(0, 0, 0)" style="fill-opacity:1.00" />
<text x="63" y="15">
2
</text>
<text x="50" y="65"
transform="rotate(-90, 50, 70)">
bits
</text>
<!-- Begin 'G' -->
<ellipse cx="115.000000" cy="109.405443" rx="25.000000" ry="0.099296" fill="rgb(255, 165, 0)" style="fill-opacity:1.00" />
<ellipse cx="115.000000" cy="109.405443" rx="16.666667" ry="0.066197" fill="rgb(255, 255, 255)" style="fill-opacity:1.00" />
<rect height="0.099296" width="25.000000" x="115.000000" y="109.355796" fill="rgb(255, 255, 255)" style="fill-opacity:1.00" />
<rect height="0.024824" width="25.000000" x="115.000000" y="109.430267" fill="rgb(255, 165, 0)" style="fill-opacity:1.00" />
<rect height="0.074472" width="6.250000" x="133.750000" y="109.430267" fill="rgb(255, 165, 0)" style="fill-opacity:1.00" />
<!-- End 'G' -->
<!-- Begin 'T' -->
<rect height="0.029564" width="50.000000" x="90.000000" y="109.504739" fill="rgb(0, 100, 0)" style="fill-opacity:1.00" />
<rect height="0.184778" width="10.000000" x="110.000000" y="109.504739" fill="rgb(0, 100, 0)" style="fill-opacity:1.00" />
<!-- End 'T' -->
<!-- Begin 'C' -->
<ellipse cx="115.000000" cy="109.777149" rx="25.000000" ry="0.087633" fill="rgb(0, 0, 128)" style="fill-opacity:1.00" />
<ellipse cx="115.000000" cy="109.777149" rx="16.666667" ry="0.058422" fill="rgb(255, 255, 255)" style="fill-opacity:1.00" />
<rect height="0.087633" width="25.000000" x="115.000000" y="109.733333" fill="rgb(255, 255, 255)" style="fill-opacity:1.00" />
<!-- End 'C' -->
<!-- Begin 'A' -->
<polygon points=" 90.000000, 110.000000, 111.000000, 109.864782, 119.000000, 109.864782, 140.000000, 110.000000, 132.500000, 110.000000, 126.250000, 109.966195, 103.750000, 109.966195, 97.500000, 110.000000" fill="rgb(178, 34, 34)" style="fill-opacity:1.00" />
<!-- End 'A' -->
<!-- Begin 'G' -->
<ellipse cx="175.000000" cy="103.677140" rx="25.000000" ry="1.534646" fill="rgb(255, 165, 0)" style="fill-opacity:1.00" />
<ellipse cx="175.000000" cy="103.677140" rx="16.666667" ry="1.023098" fill="rgb(255, 255, 255)" style="fill-opacity:1.00" />
<rect height="1.534646" width="25.000000" x="175.000000" y="102.909816" fill="rgb(255, 255, 255)" style="fill-opacity:1.00" />
<rect height="0.383662" width="25.000000" x="175.000000" y="104.060801" fill="rgb(255, 165, 0)" style="fill-opacity:1.00" />
<rect height="1.150985" width="6.250000" x="193.750000" y="104.060801" fill="rgb(255, 165, 0)" style="fill-opacity:1.00" />
<!-- End 'G' -->
<!-- Begin 'A' -->
<polygon points=" 150.000000, 107.828302, 171.000000, 105.211786, 179.000000, 105.211786, 200.000000, 107.828302, 192.500000, 107.828302, 186.250000, 107.174173, 163.750000, 107.174173, 157.500000, 107.828302" fill="rgb(178, 34, 34)" style="fill-opacity:1.00" />
<!-- End 'A' -->
<!-- Begin 'C' -->
<ellipse cx="175.000000" cy="108.450955" rx="25.000000" ry="0.622654" fill="rgb(0, 0, 128)" style="fill-opacity:1.00" />
<ellipse cx="175.000000" cy="108.450955" rx="16.666667" ry="0.415102" fill="rgb(255, 255, 255)" style="fill-opacity:1.00" />
<rect height="0.622654" width="25.000000" x="175.000000" y="108.139628" fill="rgb(255, 255, 255)" style="fill-opacity:1.00" />
<!-- End 'C' -->
<!-- Begin 'T' -->
<rect height="0.148223" width="50.000000" x="150.000000" y="109.073609" fill="rgb(0, 100, 0)" style="fill-opacity:1.00" />
<rect height="0.926391" width="10.000000" x="170.000000" y="109.073609" fill="rgb(0, 100, 0)" style="fill-opacity:1.00" />
<!-- End 'T' -->
<!-- Begin 'C' -->
<ellipse cx="235.000000" cy="95.281870" rx="25.000000" ry="4.053899" fill="rgb(0, 0, 128)" style="fill-opacity:1.00" />
<ellipse cx="235.000000" cy="95.281870" rx="16.666667" ry="2.702599" fill="rgb(255, 255, 255)" style="fill-opacity:1.00" />
<rect height="4.053899" width="25.000000" x="235.000000" y="93.254921" fill="rgb(255, 255, 255)" style="fill-opacity:1.00" />
<!-- End 'C' -->
<!-- Begin 'A' -->
<polygon points=" 210.000000, 104.804283, 231.000000, 99.335769, 239.000000, 99.335769, 260.000000, 104.804283, 252.500000, 104.804283, 246.250000, 103.437155, 223.750000, 103.437155, 217.500000, 104.804283" fill="rgb(178, 34, 34)" style="fill-opacity:1.00" />
<!-- End 'A' -->
<!-- Begin 'G' -->
<ellipse cx="235.000000" cy="107.291830" rx="25.000000" ry="2.487547" fill="rgb(255, 165, 0)" style="fill-opacity:1.00" />
<ellipse cx="235.000000" cy="107.291830" rx="16.666667" ry="1.658364" fill="rgb(255, 255, 255)" style="fill-opacity:1.00" />
<rect height="2.487547" width="25.000000" x="235.000000" y="106.048056" fill="rgb(255, 255, 255)" style="fill-opacity:1.00" />
<rect height="0.621887" width="25.000000" x="235.000000" y="107.913716" fill="rgb(255, 165, 0)" style="fill-opacity:1.00" />
<rect height="1.865660" width="6.250000" x="253.750000" y="107.913716" fill="rgb(255, 165, 0)" style="fill-opacity:1.00" />
<!-- End 'G' -->
<!-- Begin 'T' -->
<rect height="0.035300" width="50.000000" x="210.000000" y="109.779376" fill="rgb(0, 100, 0)" style="fill-opacity:1.00" />
<rect height="0.220624" width="10.000000" x="230.000000" y="109.779376" fill="rgb(0, 100, 0)" style="fill-opacity:1.00" />
<!-- End 'T' -->
<!-- Begin 'C' -->
<ellipse cx="295.000000" cy="63.330412" rx="25.000000" ry="44.745587" fill="rgb(0, 0, 128)" style="fill-opacity:1.00" />
<ellipse cx="295.000000" cy="63.330412" rx="16.666667" ry="29.830391" fill="rgb(255, 255, 255)" style="fill-opacity:1.00" />
<rect height="44.745587" width="25.000000" x="295.000000" y="40.957618" fill="rgb(255, 255, 255)" style="fill-opacity:1.00" />
<!-- End 'C' -->
<!-- Begin 'A' -->
<polygon points=" 270.000000, 109.106716, 291.000000, 108.075999, 299.000000, 108.075999, 320.000000, 109.106716, 312.500000, 109.106716, 306.250000, 108.849037, 283.750000, 108.849037, 277.500000, 109.106716" fill="rgb(178, 34, 34)" style="fill-opacity:1.00" />
<!-- End 'A' -->
<!-- Begin 'G' -->
<ellipse cx="295.000000" cy="109.523634" rx="25.000000" ry="0.416918" fill="rgb(255, 165, 0)" style="fill-opacity:1.00" />
<ellipse cx="295.000000" cy="109.523634" rx="16.666667" ry="0.277945" fill="rgb(255, 255, 255)" style="fill-opacity:1.00" />
<rect height="0.416918" width="25.000000" x="295.000000" y="109.315175" fill="rgb(255, 255, 255)" style="fill-opacity:1.00" />
<rect height="0.104229" width="25.000000" x="295.000000" y="109.627864" fill="rgb(255, 165, 0)" style="fill-opacity:1.00" />
<rect height="0.312688" width="6.250000" x="313.750000" y="109.627864" fill="rgb(255, 165, 0)" style="fill-opacity:1.00" />
<!-- End 'G' -->
<!-- Begin 'T' -->
<rect height="0.009512" width="50.000000" x="270.000000" y="109.940552" fill="rgb(0, 100, 0)" style="fill-opacity:1.00" />
<rect height="0.059448" width="10.000000" x="290.000000" y="109.940552" fill="rgb(0, 100, 0)" style="fill-opacity:1.00" />
<!-- End 'T' -->
<!-- Begin 'A' -->
<polygon points=" 330.000000, 106.654084, 351.000000, 24.008780, 359.000000, 24.008780, 380.000000, 106.654084, 372.500000, 106.654084, 366.250000, 85.992758, 343.750000, 85.992758, 337.500000, 106.654084" fill="rgb(178, 34, 34)" style="fill-opacity:1.00" />
<polygon points=" 355.000000, 40.537841, 347.000000, 72.595962, 362.000000, 72.595962" fill="rgb(255, 255, 255)" style="fill-opacity:1.00" />
<!-- End 'A' -->
<!-- Begin 'T' -->
<rect height="0.330541" width="50.000000" x="330.000000" y="106.654084" fill="rgb(0, 100, 0)" style="fill-opacity:1.00" />
<rect height="2.065881" width="10.000000" x="350.000000" y="106.654084" fill="rgb(0, 100, 0)" style="fill-opacity:1.00" />
<!-- End 'T' -->
<!-- Begin 'G' -->
<ellipse cx="355.000000" cy="109.313912" rx="25.000000" ry="0.593947" fill="rgb(255, 165, 0)" style="fill-opacity:1.00" />
<ellipse cx="355.000000" cy="109.313912" rx="16.666667" ry="0.395965" fill="rgb(255, 255, 255)" style="fill-opacity:1.00" />
<rect height="0.593947" width="25.000000" x="355.000000" y="109.016939" fill="rgb(255, 255, 255)" style="fill-opacity:1.00" />
<rect height="0.148487" width="25.000000" x="355.000000" y="109.462399" fill="rgb(255, 165, 0)" style="fill-opacity:1.00" />
<rect height="0.445460" width="6.250000" x="373.750000" y="109.462399" fill="rgb(255, 165, 0)" style="fill-opacity:1.00" />
<!-- End 'G' -->
<!-- Begin 'C' -->
<ellipse cx="355.000000" cy="109.953930" rx="25.000000" ry="0.046070" fill="rgb(0, 0, 128)" style="fill-opacity:1.00" />
<ellipse cx="355.000000" cy="109.953930" rx="16.666667" ry="0.030713" fill="rgb(255, 255, 255)" style="fill-opacity:1.00" />
<rect height="0.046070" width="25.000000" x="355.000000" y="109.930895" fill="rgb(255, 255, 255)" style="fill-opacity:1.00" />
<!-- End 'C' -->
<!-- Begin 'G' -->
<ellipse cx="415.000000" cy="82.588725" rx="25.000000" ry="12.654687" fill="rgb(255, 165, 0)" style="fill-opacity:1.00" />
<ellipse cx="415.000000" cy="82.588725" rx="16.666667" ry="8.436458" fill="rgb(255, 255, 255)" style="fill-opacity:1.00" />
<rect height="12.654687" width="25.000000" x="415.000000" y="76.261381" fill="rgb(255, 255, 255)" style="fill-opacity:1.00" />
<rect height="3.163672" width="25.000000" x="415.000000" y="85.752397" fill="rgb(255, 165, 0)" style="fill-opacity:1.00" />
<rect height="9.491015" width="6.250000" x="433.750000" y="85.752397" fill="rgb(255, 165, 0)" style="fill-opacity:1.00" />
<!-- End 'G' -->
<!-- Begin 'T' -->
<rect height="1.971910" width="50.000000" x="390.000000" y="95.243412" fill="rgb(0, 100, 0)" style="fill-opacity:1.00" />
<rect height="12.324437" width="10.000000" x="410.000000" y="95.243412" fill="rgb(0, 100, 0)" style="fill-opacity:1.00" />
<!-- End 'T' -->
<!-- Begin 'C' -->
<ellipse cx="415.000000" cy="108.748649" rx="25.000000" ry="1.180800" fill="rgb(0, 0, 128)" style="fill-opacity:1.00" />
<ellipse cx="415.000000" cy="108.748649" rx="16.666667" ry="0.787200" fill="rgb(255, 255, 255)" style="fill-opacity:1.00" />
<rect height="1.180800" width="25.000000" x="415.000000" y="108.158249" fill="rgb(255, 255, 255)" style="fill-opacity:1.00" />
<!-- End 'C' -->
<!-- Begin 'A' -->
<polygon points=" 390.000000, 110.000000, 411.000000, 109.929449, 419.000000, 109.929449, 440.000000, 110.000000, 432.500000, 110.000000, 426.250000, 109.982362, 403.750000, 109.982362, 397.500000, 110.000000" fill="rgb(178, 34, 34)" style="fill-opacity:1.00" />
<!-- End 'A' -->
<!-- Begin 'C' -->
<ellipse cx="475.000000" cy="83.535371" rx="25.000000" ry="11.054034" fill="rgb(0, 0, 128)" style="fill-opacity:1.00" />
<ellipse cx="475.000000" cy="83.535371" rx="16.666667" ry="7.369356" fill="rgb(255, 255, 255)" style="fill-opacity:1.00" />
<rect height="11.054034" width="25.000000" x="475.000000" y="78.008354" fill="rgb(255, 255, 255)" style="fill-opacity:1.00" />
<!-- End 'C' -->
<!-- Begin 'A' -->
<polygon points=" 450.000000, 107.523069, 471.000000, 94.589405, 479.000000, 94.589405, 500.000000, 107.523069, 492.500000, 107.523069, 486.250000, 104.289653, 463.750000, 104.289653, 457.500000, 107.523069" fill="rgb(178, 34, 34)" style="fill-opacity:1.00" />
<polygon points=" 475.000000, 97.176138, 467.000000, 101.349603, 482.000000, 101.349603" fill="rgb(255, 255, 255)" style="fill-opacity:1.00" />
<!-- End 'A' -->
<!-- Begin 'G' -->
<ellipse cx="475.000000" cy="108.729333" rx="25.000000" ry="1.206264" fill="rgb(255, 165, 0)" style="fill-opacity:1.00" />
<ellipse cx="475.000000" cy="108.729333" rx="16.666667" ry="0.804176" fill="rgb(255, 255, 255)" style="fill-opacity:1.00" />
<rect height="1.206264" width="25.000000" x="475.000000" y="108.126201" fill="rgb(255, 255, 255)" style="fill-opacity:1.00" />
<rect height="0.301566" width="25.000000" x="475.000000" y="109.030899" fill="rgb(255, 165, 0)" style="fill-opacity:1.00" />
<rect height="0.904698" width="6.250000" x="493.750000" y="109.030899" fill="rgb(255, 165, 0)" style="fill-opacity:1.00" />
<!-- End 'G' -->
<!-- Begin 'T' -->
<rect height="0.010305" width="50.000000" x="450.000000" y="109.935596" fill="rgb(0, 100, 0)" style="fill-opacity:1.00" />
<rect height="0.064404" width="10.000000" x="470.000000" y="109.935596" fill="rgb(0, 100, 0)" style="fill-opacity:1.00" />
<!-- End 'T' -->
<!-- Begin 'T' -->
<rect height="10.440396" width="50.000000" x="510.000000" y="38.117507" fill="rgb(0, 100, 0)" style="fill-opacity:1.00" />
<rect height="65.252474" width="10.000000" x="530.000000" y="38.117507" fill="rgb(0, 100, 0)" style="fill-opacity:1.00" />
<!-- End 'T' -->
<!-- Begin 'A' -->
<polygon points=" 510.000000, 107.373093, 531.000000, 103.369981, 539.000000, 103.369981, 560.000000, 107.373093, 552.500000, 107.373093, 546.250000, 106.372315, 523.750000, 106.372315, 517.500000, 107.373093" fill="rgb(178, 34, 34)" style="fill-opacity:1.00" />
<!-- End 'A' -->
<!-- Begin 'C' -->
<ellipse cx="535.000000" cy="108.369891" rx="25.000000" ry="0.996797" fill="rgb(0, 0, 128)" style="fill-opacity:1.00" />
<ellipse cx="535.000000" cy="108.369891" rx="16.666667" ry="0.664531" fill="rgb(255, 255, 255)" style="fill-opacity:1.00" />
<rect height="0.996797" width="25.000000" x="535.000000" y="107.871492" fill="rgb(255, 255, 255)" style="fill-opacity:1.00" />
<!-- End 'C' -->
<!-- Begin 'G' -->
<ellipse cx="535.000000" cy="109.683344" rx="25.000000" ry="0.316656" fill="rgb(255, 165, 0)" style="fill-opacity:1.00" />
<ellipse cx="535.000000" cy="109.683344" rx="16.666667" ry="0.211104" fill="rgb(255, 255, 255)" style="fill-opacity:1.00" />
<rect height="0.316656" width="25.000000" x="535.000000" y="109.525016" fill="rgb(255, 255, 255)" style="fill-opacity:1.00" />
<rect height="0.079164" width="25.000000" x="535.000000" y="109.762508" fill="rgb(255, 165, 0)" style="fill-opacity:1.00" />
<rect height="0.237492" width="6.250000" x="553.750000" y="109.762508" fill="rgb(255, 165, 0)" style="fill-opacity:1.00" />
<!-- End 'G' -->
<!-- Begin 'G' -->
<ellipse cx="595.000000" cy="63.864645" rx="25.000000" ry="43.571593" fill="rgb(255, 165, 0)" style="fill-opacity:1.00" />
<ellipse cx="595.000000" cy="63.864645" rx="16.666667" ry="29.047728" fill="rgb(255, 255, 255)" style="fill-opacity:1.00" />
<rect height="43.571593" width="25.000000" x="595.000000" y="42.078849" fill="rgb(255, 255, 255)" style="fill-opacity:1.00" />
<rect height="10.892898" width="25.000000" x="595.000000" y="74.757543" fill="rgb(255, 165, 0)" style="fill-opacity:1.00" />
<rect height="32.678695" width="6.250000" x="613.750000" y="74.757543" fill="rgb(255, 165, 0)" style="fill-opacity:1.00" />
<!-- End 'G' -->
<!-- Begin 'T' -->
<rect height="0.359362" width="50.000000" x="570.000000" y="107.436238" fill="rgb(0, 100, 0)" style="fill-opacity:1.00" />
<rect height="2.246012" width="10.000000" x="590.000000" y="107.436238" fill="rgb(0, 100, 0)" style="fill-opacity:1.00" />
<!-- End 'T' -->
<!-- Begin 'A' -->
<polygon points=" 570.000000, 109.898981, 591.000000, 109.682249, 599.000000, 109.682249, 620.000000, 109.898981, 612.500000, 109.898981, 606.250000, 109.844798, 583.750000, 109.844798, 577.500000, 109.898981" fill="rgb(178, 34, 34)" style="fill-opacity:1.00" />
<!-- End 'A' -->
<!-- Begin 'C' -->
<ellipse cx="595.000000" cy="109.949491" rx="25.000000" ry="0.050509" fill="rgb(0, 0, 128)" style="fill-opacity:1.00" />
<ellipse cx="595.000000" cy="109.949491" rx="16.666667" ry="0.033673" fill="rgb(255, 255, 255)" style="fill-opacity:1.00" />
<rect height="0.050509" width="25.000000" x="595.000000" y="109.924236" fill="rgb(255, 255, 255)" style="fill-opacity:1.00" />
<!-- End 'C' -->
<!-- Begin 'G' -->
<ellipse cx="655.000000" cy="96.100816" rx="25.000000" ry="4.216653" fill="rgb(255, 165, 0)" style="fill-opacity:1.00" />
<ellipse cx="655.000000" cy="96.100816" rx="16.666667" ry="2.811102" fill="rgb(255, 255, 255)" style="fill-opacity:1.00" />
<rect height="4.216653" width="25.000000" x="655.000000" y="93.992490" fill="rgb(255, 255, 255)" style="fill-opacity:1.00" />
<rect height="1.054163" width="25.000000" x="655.000000" y="97.154980" fill="rgb(255, 165, 0)" style="fill-opacity:1.00" />
<rect height="3.162490" width="6.250000" x="673.750000" y="97.154980" fill="rgb(255, 165, 0)" style="fill-opacity:1.00" />
<!-- End 'G' -->
<!-- Begin 'T' -->
<rect height="0.788120" width="50.000000" x="630.000000" y="100.317470" fill="rgb(0, 100, 0)" style="fill-opacity:1.00" />
<rect height="4.925752" width="10.000000" x="650.000000" y="100.317470" fill="rgb(0, 100, 0)" style="fill-opacity:1.00" />
<!-- End 'T' -->
<!-- Begin 'C' -->
<ellipse cx="655.000000" cy="107.428367" rx="25.000000" ry="2.185146" fill="rgb(0, 0, 128)" style="fill-opacity:1.00" />
<ellipse cx="655.000000" cy="107.428367" rx="16.666667" ry="1.456764" fill="rgb(255, 255, 255)" style="fill-opacity:1.00" />
<rect height="2.185146" width="25.000000" x="655.000000" y="106.335794" fill="rgb(255, 255, 255)" style="fill-opacity:1.00" />
<!-- End 'C' -->
<!-- Begin 'A' -->
<polygon points=" 630.000000, 110.000000, 651.000000, 109.613513, 659.000000, 109.613513, 680.000000, 110.000000, 672.500000, 110.000000, 666.250000, 109.903378, 643.750000, 109.903378, 637.500000, 110.000000" fill="rgb(178, 34, 34)" style="fill-opacity:1.00" />
<!-- End 'A' -->
<!-- Begin 'C' -->
<ellipse cx="715.000000" cy="104.583939" rx="25.000000" ry="1.249648" fill="rgb(0, 0, 128)" style="fill-opacity:1.00" />
<ellipse cx="715.000000" cy="104.583939" rx="16.666667" ry="0.833099" fill="rgb(255, 255, 255)" style="fill-opacity:1.00" />
<rect height="1.249648" width="25.000000" x="715.000000" y="103.959115" fill="rgb(255, 255, 255)" style="fill-opacity:1.00" />
<!-- End 'C' -->
<!-- Begin 'T' -->
<rect height="0.352976" width="50.000000" x="690.000000" y="105.833587" fill="rgb(0, 100, 0)" style="fill-opacity:1.00" />
<rect height="2.206098" width="10.000000" x="710.000000" y="105.833587" fill="rgb(0, 100, 0)" style="fill-opacity:1.00" />
<!-- End 'T' -->
<!-- Begin 'G' -->
<ellipse cx="715.000000" cy="108.606929" rx="25.000000" ry="0.567243" fill="rgb(255, 165, 0)" style="fill-opacity:1.00" />
<ellipse cx="715.000000" cy="108.606929" rx="16.666667" ry="0.378162" fill="rgb(255, 255, 255)" style="fill-opacity:1.00" />
<rect height="0.567243" width="25.000000" x="715.000000" y="108.323307" fill="rgb(255, 255, 255)" style="fill-opacity:1.00" />
<rect height="0.141811" width="25.000000" x="715.000000" y="108.748739" fill="rgb(255, 165, 0)" style="fill-opacity:1.00" />
<rect height="0.425432" width="6.250000" x="733.750000" y="108.748739" fill="rgb(255, 165, 0)" style="fill-opacity:1.00" />
<!-- End 'G' -->
<!-- Begin 'A' -->
<polygon points=" 690.000000, 110.000000, 711.000000, 109.174172, 719.000000, 109.174172, 740.000000, 110.000000, 732.500000, 110.000000, 726.250000, 109.793543, 703.750000, 109.793543, 697.500000, 110.000000" fill="rgb(178, 34, 34)" style="fill-opacity:1.00" />
<!-- End 'A' -->
<!-- Begin 'A' -->
<polygon points=" 750.000000, 109.718372, 771.000000, 109.610385, 779.000000, 109.610385, 800.000000, 109.718372, 792.500000, 109.718372, 786.250000, 109.691375, 763.750000, 109.691375, 757.500000, 109.718372" fill="rgb(178, 34, 34)" style="fill-opacity:1.00" />
<!-- End 'A' -->
<!-- Begin 'C' -->
<ellipse cx="775.000000" cy="109.770126" rx="25.000000" ry="0.051754" fill="rgb(0, 0, 128)" style="fill-opacity:1.00" />
<ellipse cx="775.000000" cy="109.770126" rx="16.666667" ry="0.034503" fill="rgb(255, 255, 255)" style="fill-opacity:1.00" />
<rect height="0.051754" width="25.000000" x="775.000000" y="109.744249" fill="rgb(255, 255, 255)" style="fill-opacity:1.00" />
<!-- End 'C' -->
<!-- Begin 'G' -->
<ellipse cx="775.000000" cy="109.870140" rx="25.000000" ry="0.048261" fill="rgb(255, 165, 0)" style="fill-opacity:1.00" />
<ellipse cx="775.000000" cy="109.870140" rx="16.666667" ry="0.032174" fill="rgb(255, 255, 255)" style="fill-opacity:1.00" />
<rect height="0.048261" width="25.000000" x="775.000000" y="109.846010" fill="rgb(255, 255, 255)" style="fill-opacity:1.00" />
<rect height="0.012065" width="25.000000" x="775.000000" y="109.882205" fill="rgb(255, 165, 0)" style="fill-opacity:1.00" />
<rect height="0.036196" width="6.250000" x="793.750000" y="109.882205" fill="rgb(255, 165, 0)" style="fill-opacity:1.00" />
<!-- End 'G' -->
<!-- Begin 'T' -->
<rect height="0.013056" width="50.000000" x="750.000000" y="109.918401" fill="rgb(0, 100, 0)" style="fill-opacity:1.00" />
<rect height="0.081599" width="10.000000" x="770.000000" y="109.918401" fill="rgb(0, 100, 0)" style="fill-opacity:1.00" />
<!-- End 'T' -->
<!-- Begin 'C' -->
<ellipse cx="835.000000" cy="109.270384" rx="25.000000" ry="0.133435" fill="rgb(0, 0, 128)" style="fill-opacity:1.00" />
<ellipse cx="835.000000" cy="109.270384" rx="16.666667" ry="0.088957" fill="rgb(255, 255, 255)" style="fill-opacity:1.00" />
<rect height="0.133435" width="25.000000" x="835.000000" y="109.203667" fill="rgb(255, 255, 255)" style="fill-opacity:1.00" />
<!-- End 'C' -->
<!-- Begin 'G' -->
<ellipse cx="835.000000" cy="109.515327" rx="25.000000" ry="0.111508" fill="rgb(255, 165, 0)" style="fill-opacity:1.00" />
<ellipse cx="835.000000" cy="109.515327" rx="16.666667" ry="0.074339" fill="rgb(255, 255, 255)" style="fill-opacity:1.00" />
<rect height="0.111508" width="25.000000" x="835.000000" y="109.459573" fill="rgb(255, 255, 255)" style="fill-opacity:1.00" />
<rect height="0.027877" width="25.000000" x="835.000000" y="109.543204" fill="rgb(255, 165, 0)" style="fill-opacity:1.00" />
<rect height="0.083631" width="6.250000" x="853.750000" y="109.543204" fill="rgb(255, 165, 0)" style="fill-opacity:1.00" />
<!-- End 'G' -->
<!-- Begin 'T' -->
<rect height="0.031308" width="50.000000" x="810.000000" y="109.626836" fill="rgb(0, 100, 0)" style="fill-opacity:1.00" />
<rect height="0.195675" width="10.000000" x="830.000000" y="109.626836" fill="rgb(0, 100, 0)" style="fill-opacity:1.00" />
<!-- End 'T' -->
<!-- Begin 'A' -->
<polygon points=" 810.000000, 110.000000, 831.000000, 109.822511, 839.000000, 109.822511, 860.000000, 110.000000, 852.500000, 110.000000, 846.250000, 109.955628, 823.750000, 109.955628, 817.500000, 110.000000" fill="rgb(178, 34, 34)" style="fill-opacity:1.00" />
<!-- End 'A' -->
<text x="460.000000" y="165">
IC = 9.40
</text>

</svg>
