<?xml version="1.0" encoding="UTF-8" standalone="yes"?>
                 <!DOCTYPE svg PUBLIC "-//W3C//DTD SVG 1.0//EN" "http://www.w3.org/TR/2001/REC-SVG-20010904/DTD/svg10.dtd">
                 <svg height="170" width="780" xmlns="http://www.w3.org/2000/svg" xmlns:xlink="http://www.w3.org/1999/xlink">
                 <line x1="85" y1="120" x2="747" y2="120" style="stroke:rgb(99,99,99);stroke-width:2" />
<rect height="7.000000" width="2.000000" x="85.000000" y="120.000000" fill="rgb(0, 0, 0)" style="fill-opacity:1.00" />
<text x="107.000000" y="140">
1
</text>
<rect height="7.000000" width="2.000000" x="145.000000" y="120.000000" fill="rgb(0, 0, 0)" style="fill-opacity:1.00" />
<text x="167.000000" y="140">
2
</text>
<rect height="7.000000" width="2.000000" x="205.000000" y="120.000000" fill="rgb(0, 0, 0)" style="fill-opacity:1.00" />
<text x="227.000000" y="140">
3
</text>
<rect height="7.000000" width="2.000000" x="265.000000" y="120.000000" fill="rgb(0, 0, 0)" style="fill-opacity:1.00" />
<text x="287.000000" y="140">
4
</text>
<rect height="7.000000" width="2.000000" x="325.000000" y="120.000000" fill="rgb(0, 0, 0)" style="fill-opacity:1.00" />
<text x="347.000000" y="140">
5
</text>
<rect height="7.000000" width="2.000000" x="385.000000" y="120.000000" fill="rgb(0, 0, 0)" style="fill-opacity:1.00" />
<text x="407.000000" y="140">
6
</text>
<rect height="7.000000" width="2.000000" x="445.000000" y="120.000000" fill="rgb(0, 0, 0)" style="fill-opacity:1.00" />
<text x="467.000000" y="140">
7
</text>
<rect height="7.000000" width="2.000000" x="505.000000" y="120.000000" fill="rgb(0, 0, 0)" style="fill-opacity:1.00" />
<text x="527.000000" y="140">
8
</text>
<rect height="7.000000" width="2.000000" x="565.000000" y="120.000000" fill="rgb(0, 0, 0)" style="fill-opacity:1.00" />
<text x="587.000000" y="140">
9
</text>
<rect height="7.000000" width="2.000000" x="625.000000" y="120.000000" fill="rgb(0, 0, 0)" style="fill-opacity:1.00" />
<text x="647.000000" y="140">
10
</text>
<rect height="7.000000" width="2.000000" x="685.000000" y="120.000000" fill="rgb(0, 0, 0)" style="fill-opacity:1.00" />
<text x="707.000000" y="140">
11
</text>
<rect height="7.000000" width="2.000000" x="745.000000" y="120.000000" fill="rgb(0, 0, 0)" style="fill-opacity:1.00" />
<line x1="80" y1="112" x2="80" y2="10" style="stroke:rgb(99,99,99);stroke-width:2" />
<rect height="2.000000" width="7.000000" x="73.000000" y="110.000000" fill="rgb(0, 0, 0)" style="fill-opacity:1.00" />
<text x="63" y="115">
0
</text>
<rect height="2.000000" width="7.000000" x="73.000000" y="60.000000" fill="rgb(0, 0, 0)" style="fill-opacity:1.00" />
<text x="63" y="65">
1
</text>
<rect height="2.000000" width="7.000000" x="73.000000" y="10.000000" fill="rgb(0, 0, 0)" style="fill-opacity:1.00" />
<text x="63" y="15">
2
</text>
<text x="50" y="65"
transform="rotate(-90, 50, 70)">
bits
</text>
<!-- Begin 'T' -->
<rect height="0.121097" width="50.000000" x="90.000000" y="107.428556" fill="rgb(0, 100, 0)" style="fill-opacity:1.00" />
<rect height="0.756856" width="10.000000" x="110.000000" y="107.428556" fill="rgb(0, 100, 0)" style="fill-opacity:1.00" />
<!-- End 'T' -->
<!-- Begin 'C' -->
<ellipse cx="115.000000" cy="108.554619" rx="25.000000" ry="0.369206" fill="rgb(0, 0, 128)" style="fill-opacity:1.00" />
<ellipse cx="115.000000" cy="108.554619" rx="16.666667" ry="0.246138" fill="rgb(255, 255, 255)" style="fill-opacity:1.00" />
<rect height="0.369206" width="25.000000" x="115.000000" y="108.370016" fill="rgb(255, 255, 255)" style="fill-opacity:1.00" />
<!-- End 'C' -->
<!-- Begin 'G' -->
<ellipse cx="115.000000" cy="109.279838" rx="25.000000" ry="0.356012" fill="rgb(255, 165, 0)" style="fill-opacity:1.00" />
<ellipse cx="115.000000" cy="109.279838" rx="16.666667" ry="0.237341" fill="rgb(255, 255, 255)" style="fill-opacity:1.00" />
<rect height="0.356012" width="25.000000" x="115.000000" y="109.101832" fill="rgb(255, 255, 255)" style="fill-opacity:1.00" />
<rect height="0.089003" width="25.000000" x="115.000000" y="109.368840" fill="rgb(255, 165, 0)" style="fill-opacity:1.00" />
<rect height="0.267009" width="6.250000" x="133.750000" y="109.368840" fill="rgb(255, 165, 0)" style="fill-opacity:1.00" />
<!-- End 'G' -->
<!-- Begin 'A' -->
<polygon points=" 90.000000, 110.000000, 111.000000, 109.635849, 119.000000, 109.635849, 140.000000, 110.000000, 132.500000, 110.000000, 126.250000, 109.908962, 103.750000, 109.908962, 97.500000, 110.000000" fill="rgb(178, 34, 34)" style="fill-opacity:1.00" />
<!-- End 'A' -->
<!-- Begin 'A' -->
<polygon points=" 150.000000, 104.761674, 171.000000, 100.541506, 179.000000, 100.541506, 200.000000, 104.761674, 192.500000, 104.761674, 186.250000, 103.706632, 163.750000, 103.706632, 157.500000, 104.761674" fill="rgb(178, 34, 34)" style="fill-opacity:1.00" />
<!-- End 'A' -->
<!-- Begin 'G' -->
<ellipse cx="175.000000" cy="106.000665" rx="25.000000" ry="1.238991" fill="rgb(255, 165, 0)" style="fill-opacity:1.00" />
<ellipse cx="175.000000" cy="106.000665" rx="16.666667" ry="0.825994" fill="rgb(255, 255, 255)" style="fill-opacity:1.00" />
<rect height="1.238991" width="25.000000" x="175.000000" y="105.381170" fill="rgb(255, 255, 255)" style="fill-opacity:1.00" />
<rect height="0.309748" width="25.000000" x="175.000000" y="106.310413" fill="rgb(255, 165, 0)" style="fill-opacity:1.00" />
<rect height="0.929243" width="6.250000" x="193.750000" y="106.310413" fill="rgb(255, 165, 0)" style="fill-opacity:1.00" />
<!-- End 'G' -->
<!-- Begin 'C' -->
<ellipse cx="175.000000" cy="108.166518" rx="25.000000" ry="0.926862" fill="rgb(0, 0, 128)" style="fill-opacity:1.00" />
<ellipse cx="175.000000" cy="108.166518" rx="16.666667" ry="0.617908" fill="rgb(255, 255, 255)" style="fill-opacity:1.00" />
<rect height="0.926862" width="25.000000" x="175.000000" y="107.703087" fill="rgb(255, 255, 255)" style="fill-opacity:1.00" />
<!-- End 'C' -->
<!-- Begin 'T' -->
<rect height="0.145059" width="50.000000" x="150.000000" y="109.093380" fill="rgb(0, 100, 0)" style="fill-opacity:1.00" />
<rect height="0.906620" width="10.000000" x="170.000000" y="109.093380" fill="rgb(0, 100, 0)" style="fill-opacity:1.00" />
<!-- End 'T' -->
<!-- Begin 'C' -->
<ellipse cx="235.000000" cy="63.684000" rx="25.000000" ry="43.919484" fill="rgb(0, 0, 128)" style="fill-opacity:1.00" />
<ellipse cx="235.000000" cy="63.684000" rx="16.666667" ry="29.279656" fill="rgb(255, 255, 255)" style="fill-opacity:1.00" />
<rect height="43.919484" width="25.000000" x="235.000000" y="41.724258" fill="rgb(255, 255, 255)" style="fill-opacity:1.00" />
<!-- End 'C' -->
<!-- Begin 'T' -->
<rect height="0.328396" width="50.000000" x="210.000000" y="107.603484" fill="rgb(0, 100, 0)" style="fill-opacity:1.00" />
<rect height="2.052474" width="10.000000" x="230.000000" y="107.603484" fill="rgb(0, 100, 0)" style="fill-opacity:1.00" />
<!-- End 'T' -->
<!-- Begin 'A' -->
<polygon points=" 210.000000, 109.933495, 231.000000, 109.655957, 239.000000, 109.655957, 260.000000, 109.933495, 252.500000, 109.933495, 246.250000, 109.864111, 223.750000, 109.864111, 217.500000, 109.933495" fill="rgb(178, 34, 34)" style="fill-opacity:1.00" />
<!-- End 'A' -->
<!-- Begin 'G' -->
<ellipse cx="235.000000" cy="109.966747" rx="25.000000" ry="0.033253" fill="rgb(255, 165, 0)" style="fill-opacity:1.00" />
<ellipse cx="235.000000" cy="109.966747" rx="16.666667" ry="0.022168" fill="rgb(255, 255, 255)" style="fill-opacity:1.00" />
<rect height="0.033253" width="25.000000" x="235.000000" y="109.950121" fill="rgb(255, 255, 255)" style="fill-opacity:1.00" />
<rect height="0.008313" width="25.000000" x="235.000000" y="109.975061" fill="rgb(255, 165, 0)" style="fill-opacity:1.00" />
<rect height="0.024939" width="6.250000" x="253.750000" y="109.975061" fill="rgb(255, 165, 0)" style="fill-opacity:1.00" />
<!-- End 'G' -->
<!-- Begin 'A' -->
<polygon points=" 270.000000, 107.371314, 291.000000, 21.288409, 299.000000, 21.288409, 320.000000, 107.371314, 312.500000, 107.371314, 306.250000, 85.850588, 283.750000, 85.850588, 277.500000, 107.371314" fill="rgb(178, 34, 34)" style="fill-opacity:1.00" />
<polygon points=" 295.000000, 38.504990, 287.000000, 71.938152, 302.000000, 71.938152" fill="rgb(255, 255, 255)" style="fill-opacity:1.00" />
<!-- End 'A' -->
<!-- Begin 'T' -->
<rect height="0.234796" width="50.000000" x="270.000000" y="107.371314" fill="rgb(0, 100, 0)" style="fill-opacity:1.00" />
<rect height="1.467477" width="10.000000" x="290.000000" y="107.371314" fill="rgb(0, 100, 0)" style="fill-opacity:1.00" />
<!-- End 'T' -->
<!-- Begin 'G' -->
<ellipse cx="295.000000" cy="109.388930" rx="25.000000" ry="0.550139" fill="rgb(255, 165, 0)" style="fill-opacity:1.00" />
<ellipse cx="295.000000" cy="109.388930" rx="16.666667" ry="0.366760" fill="rgb(255, 255, 255)" style="fill-opacity:1.00" />
<rect height="0.550139" width="25.000000" x="295.000000" y="109.113861" fill="rgb(255, 255, 255)" style="fill-opacity:1.00" />
<rect height="0.137535" width="25.000000" x="295.000000" y="109.526465" fill="rgb(255, 165, 0)" style="fill-opacity:1.00" />
<rect height="0.412605" width="6.250000" x="313.750000" y="109.526465" fill="rgb(255, 165, 0)" style="fill-opacity:1.00" />
<!-- End 'G' -->
<!-- Begin 'C' -->
<ellipse cx="295.000000" cy="109.969535" rx="25.000000" ry="0.030465" fill="rgb(0, 0, 128)" style="fill-opacity:1.00" />
<ellipse cx="295.000000" cy="109.969535" rx="16.666667" ry="0.020310" fill="rgb(255, 255, 255)" style="fill-opacity:1.00" />
<rect height="0.030465" width="25.000000" x="295.000000" y="109.954302" fill="rgb(255, 255, 255)" style="fill-opacity:1.00" />
<!-- End 'C' -->
<!-- Begin 'C' -->
<ellipse cx="355.000000" cy="61.815181" rx="25.000000" ry="47.142887" fill="rgb(0, 0, 128)" style="fill-opacity:1.00" />
<ellipse cx="355.000000" cy="61.815181" rx="16.666667" ry="31.428591" fill="rgb(255, 255, 255)" style="fill-opacity:1.00" />
<rect height="47.142887" width="25.000000" x="355.000000" y="38.243738" fill="rgb(255, 255, 255)" style="fill-opacity:1.00" />
<!-- End 'C' -->
<!-- Begin 'T' -->
<rect height="0.143880" width="50.000000" x="330.000000" y="108.958068" fill="rgb(0, 100, 0)" style="fill-opacity:1.00" />
<rect height="0.899250" width="10.000000" x="350.000000" y="108.958068" fill="rgb(0, 100, 0)" style="fill-opacity:1.00" />
<!-- End 'T' -->
<!-- Begin 'A' -->
<polygon points=" 330.000000, 109.996457, 351.000000, 109.857319, 359.000000, 109.857319, 380.000000, 109.996457, 372.500000, 109.996457, 366.250000, 109.961672, 343.750000, 109.961672, 337.500000, 109.996457" fill="rgb(178, 34, 34)" style="fill-opacity:1.00" />
<!-- End 'A' -->
<!-- Begin 'G' -->
<ellipse cx="355.000000" cy="109.998228" rx="25.000000" ry="0.001772" fill="rgb(255, 165, 0)" style="fill-opacity:1.00" />
<ellipse cx="355.000000" cy="109.998228" rx="16.666667" ry="0.001181" fill="rgb(255, 255, 255)" style="fill-opacity:1.00" />
<rect height="0.001772" width="25.000000" x="355.000000" y="109.997342" fill="rgb(255, 255, 255)" style="fill-opacity:1.00" />
<rect height="0.000443" width="25.000000" x="355.000000" y="109.998671" fill="rgb(255, 165, 0)" style="fill-opacity:1.00" />
<rect height="0.001329" width="6.250000" x="373.750000" y="109.998671" fill="rgb(255, 165, 0)" style="fill-opacity:1.00" />
<!-- End 'G' -->
<!-- Begin 'G' -->
<ellipse cx="415.000000" cy="61.962199" rx="25.000000" ry="46.840009" fill="rgb(255, 165, 0)" style="fill-opacity:1.00" />
<ellipse cx="415.000000" cy="61.962199" rx="16.666667" ry="31.226673" fill="rgb(255, 255, 255)" style="fill-opacity:1.00" />
<rect height="46.840009" width="25.000000" x="415.000000" y="38.542195" fill="rgb(255, 255, 255)" style="fill-opacity:1.00" />
<rect height="11.710002" width="25.000000" x="415.000000" y="73.672202" fill="rgb(255, 165, 0)" style="fill-opacity:1.00" />
<rect height="35.130007" width="6.250000" x="433.750000" y="73.672202" fill="rgb(255, 165, 0)" style="fill-opacity:1.00" />
<!-- End 'G' -->
<!-- Begin 'A' -->
<polygon points=" 390.000000, 109.919999, 411.000000, 108.802208, 419.000000, 108.802208, 440.000000, 109.919999, 432.500000, 109.919999, 426.250000, 109.640552, 403.750000, 109.640552, 397.500000, 109.919999" fill="rgb(178, 34, 34)" style="fill-opacity:1.00" />
<!-- End 'A' -->
<!-- Begin 'T' -->
<rect height="0.012137" width="50.000000" x="390.000000" y="109.919999" fill="rgb(0, 100, 0)" style="fill-opacity:1.00" />
<rect height="0.075857" width="10.000000" x="410.000000" y="109.919999" fill="rgb(0, 100, 0)" style="fill-opacity:1.00" />
<!-- End 'T' -->
<!-- Begin 'C' -->
<ellipse cx="415.000000" cy="109.997928" rx="25.000000" ry="0.002072" fill="rgb(0, 0, 128)" style="fill-opacity:1.00" />
<ellipse cx="415.000000" cy="109.997928" rx="16.666667" ry="0.001381" fill="rgb(255, 255, 255)" style="fill-opacity:1.00" />
<rect height="0.002072" width="25.000000" x="415.000000" y="109.996892" fill="rgb(255, 255, 255)" style="fill-opacity:1.00" />
<!-- End 'C' -->
<!-- Begin 'T' -->
<rect height="13.891442" width="50.000000" x="450.000000" y="20.705022" fill="rgb(0, 100, 0)" style="fill-opacity:1.00" />
<rect height="86.821515" width="10.000000" x="470.000000" y="20.705022" fill="rgb(0, 100, 0)" style="fill-opacity:1.00" />
<!-- End 'T' -->
<!-- Begin 'A' -->
<polygon points=" 450.000000, 109.031626, 471.000000, 107.526537, 479.000000, 107.526537, 500.000000, 109.031626, 492.500000, 109.031626, 486.250000, 108.655354, 463.750000, 108.655354, 457.500000, 109.031626" fill="rgb(178, 34, 34)" style="fill-opacity:1.00" />
<!-- End 'A' -->
<!-- Begin 'C' -->
<ellipse cx="475.000000" cy="109.473656" rx="25.000000" ry="0.442031" fill="rgb(0, 0, 128)" style="fill-opacity:1.00" />
<ellipse cx="475.000000" cy="109.473656" rx="16.666667" ry="0.294687" fill="rgb(255, 255, 255)" style="fill-opacity:1.00" />
<rect height="0.442031" width="25.000000" x="475.000000" y="109.252641" fill="rgb(255, 255, 255)" style="fill-opacity:1.00" />
<!-- End 'C' -->
<!-- Begin 'G' -->
<ellipse cx="475.000000" cy="109.957844" rx="25.000000" ry="0.042156" fill="rgb(255, 165, 0)" style="fill-opacity:1.00" />
<ellipse cx="475.000000" cy="109.957844" rx="16.666667" ry="0.028104" fill="rgb(255, 255, 255)" style="fill-opacity:1.00" />
<rect height="0.042156" width="25.000000" x="475.000000" y="109.936765" fill="rgb(255, 255, 255)" style="fill-opacity:1.00" />
<rect height="0.010539" width="25.000000" x="475.000000" y="109.968383" fill="rgb(255, 165, 0)" style="fill-opacity:1.00" />
<rect height="0.031617" width="6.250000" x="493.750000" y="109.968383" fill="rgb(255, 165, 0)" style="fill-opacity:1.00" />
<!-- End 'G' -->
<!-- Begin 'G' -->
<ellipse cx="535.000000" cy="64.750228" rx="25.000000" ry="42.457384" fill="rgb(255, 165, 0)" style="fill-opacity:1.00" />
<ellipse cx="535.000000" cy="64.750228" rx="16.666667" ry="28.304923" fill="rgb(255, 255, 255)" style="fill-opacity:1.00" />
<rect height="42.457384" width="25.000000" x="535.000000" y="43.521536" fill="rgb(255, 255, 255)" style="fill-opacity:1.00" />
<rect height="10.614346" width="25.000000" x="535.000000" y="75.364574" fill="rgb(255, 165, 0)" style="fill-opacity:1.00" />
<rect height="31.843038" width="6.250000" x="553.750000" y="75.364574" fill="rgb(255, 165, 0)" style="fill-opacity:1.00" />
<!-- End 'G' -->
<!-- Begin 'A' -->
<polygon points=" 510.000000, 108.906248, 531.000000, 107.207613, 539.000000, 107.207613, 560.000000, 108.906248, 552.500000, 108.906248, 546.250000, 108.481589, 523.750000, 108.481589, 517.500000, 108.906248" fill="rgb(178, 34, 34)" style="fill-opacity:1.00" />
<!-- End 'A' -->
<!-- Begin 'T' -->
<rect height="0.114799" width="50.000000" x="510.000000" y="108.906248" fill="rgb(0, 100, 0)" style="fill-opacity:1.00" />
<rect height="0.717493" width="10.000000" x="530.000000" y="108.906248" fill="rgb(0, 100, 0)" style="fill-opacity:1.00" />
<!-- End 'T' -->
<!-- Begin 'C' -->
<ellipse cx="535.000000" cy="109.811870" rx="25.000000" ry="0.188130" fill="rgb(0, 0, 128)" style="fill-opacity:1.00" />
<ellipse cx="535.000000" cy="109.811870" rx="16.666667" ry="0.125420" fill="rgb(255, 255, 255)" style="fill-opacity:1.00" />
<rect height="0.188130" width="25.000000" x="535.000000" y="109.717806" fill="rgb(255, 255, 255)" style="fill-opacity:1.00" />
<!-- End 'C' -->
<!-- Begin 'T' -->
<rect height="0.751868" width="50.000000" x="570.000000" y="99.835952" fill="rgb(0, 100, 0)" style="fill-opacity:1.00" />
<rect height="4.699175" width="10.000000" x="590.000000" y="99.835952" fill="rgb(0, 100, 0)" style="fill-opacity:1.00" />
<!-- End 'T' -->
<!-- Begin 'C' -->
<ellipse cx="595.000000" cy="105.806653" rx="25.000000" ry="1.271526" fill="rgb(0, 0, 128)" style="fill-opacity:1.00" />
<ellipse cx="595.000000" cy="105.806653" rx="16.666667" ry="0.847684" fill="rgb(255, 255, 255)" style="fill-opacity:1.00" />
<rect height="1.271526" width="25.000000" x="595.000000" y="105.170890" fill="rgb(255, 255, 255)" style="fill-opacity:1.00" />
<!-- End 'C' -->
<!-- Begin 'G' -->
<ellipse cx="595.000000" cy="108.046795" rx="25.000000" ry="0.968616" fill="rgb(255, 165, 0)" style="fill-opacity:1.00" />
<ellipse cx="595.000000" cy="108.046795" rx="16.666667" ry="0.645744" fill="rgb(255, 255, 255)" style="fill-opacity:1.00" />
<rect height="0.968616" width="25.000000" x="595.000000" y="107.562487" fill="rgb(255, 255, 255)" style="fill-opacity:1.00" />
<rect height="0.242154" width="25.000000" x="595.000000" y="108.288949" fill="rgb(255, 165, 0)" style="fill-opacity:1.00" />
<rect height="0.726462" width="6.250000" x="613.750000" y="108.288949" fill="rgb(255, 165, 0)" style="fill-opacity:1.00" />
<!-- End 'G' -->
<!-- Begin 'A' -->
<polygon points=" 570.000000, 110.000000, 591.000000, 109.015411, 599.000000, 109.015411, 620.000000, 110.000000, 612.500000, 110.000000, 606.250000, 109.753853, 583.750000, 109.753853, 577.500000, 110.000000" fill="rgb(178, 34, 34)" style="fill-opacity:1.00" />
<!-- End 'A' -->
<!-- Begin 'G' -->
<ellipse cx="655.000000" cy="108.262401" rx="25.000000" ry="0.293759" fill="rgb(255, 165, 0)" style="fill-opacity:1.00" />
<ellipse cx="655.000000" cy="108.262401" rx="16.666667" ry="0.195839" fill="rgb(255, 255, 255)" style="fill-opacity:1.00" />
<rect height="0.293759" width="25.000000" x="655.000000" y="108.115522" fill="rgb(255, 255, 255)" style="fill-opacity:1.00" />
<rect height="0.073440" width="25.000000" x="655.000000" y="108.335841" fill="rgb(255, 165, 0)" style="fill-opacity:1.00" />
<rect height="0.220319" width="6.250000" x="673.750000" y="108.335841" fill="rgb(255, 165, 0)" style="fill-opacity:1.00" />
<!-- End 'G' -->
<!-- Begin 'A' -->
<polygon points=" 630.000000, 109.131260, 651.000000, 108.556160, 659.000000, 108.556160, 680.000000, 109.131260, 672.500000, 109.131260, 666.250000, 108.987485, 643.750000, 108.987485, 637.500000, 109.131260" fill="rgb(178, 34, 34)" style="fill-opacity:1.00" />
<!-- End 'A' -->
<!-- Begin 'C' -->
<ellipse cx="655.000000" cy="109.410368" rx="25.000000" ry="0.279108" fill="rgb(0, 0, 128)" style="fill-opacity:1.00" />
<ellipse cx="655.000000" cy="109.410368" rx="16.666667" ry="0.186072" fill="rgb(255, 255, 255)" style="fill-opacity:1.00" />
<rect height="0.279108" width="25.000000" x="655.000000" y="109.270814" fill="rgb(255, 255, 255)" style="fill-opacity:1.00" />
<!-- End 'C' -->
<!-- Begin 'T' -->
<rect height="0.049684" width="50.000000" x="630.000000" y="109.689476" fill="rgb(0, 100, 0)" style="fill-opacity:1.00" />
<rect height="0.310524" width="10.000000" x="650.000000" y="109.689476" fill="rgb(0, 100, 0)" style="fill-opacity:1.00" />
<!-- End 'T' -->
<!-- Begin 'A' -->
<polygon points=" 690.000000, 108.959004, 711.000000, 108.431809, 719.000000, 108.431809, 740.000000, 108.959004, 732.500000, 108.959004, 726.250000, 108.827205, 703.750000, 108.827205, 697.500000, 108.959004" fill="rgb(178, 34, 34)" style="fill-opacity:1.00" />
<!-- End 'A' -->
<!-- Begin 'T' -->
<rect height="0.063196" width="50.000000" x="690.000000" y="108.959004" fill="rgb(0, 100, 0)" style="fill-opacity:1.00" />
<rect height="0.394977" width="10.000000" x="710.000000" y="108.959004" fill="rgb(0, 100, 0)" style="fill-opacity:1.00" />
<!-- End 'T' -->
<!-- Begin 'G' -->
<ellipse cx="715.000000" cy="109.518835" rx="25.000000" ry="0.164853" fill="rgb(255, 165, 0)" style="fill-opacity:1.00" />
<ellipse cx="715.000000" cy="109.518835" rx="16.666667" ry="0.109902" fill="rgb(255, 255, 255)" style="fill-opacity:1.00" />
<rect height="0.164853" width="25.000000" x="715.000000" y="109.436408" fill="rgb(255, 255, 255)" style="fill-opacity:1.00" />
<rect height="0.041213" width="25.000000" x="715.000000" y="109.560048" fill="rgb(255, 165, 0)" style="fill-opacity:1.00" />
<rect height="0.123640" width="6.250000" x="733.750000" y="109.560048" fill="rgb(255, 165, 0)" style="fill-opacity:1.00" />
<!-- End 'G' -->
<!-- Begin 'C' -->
<ellipse cx="715.000000" cy="109.841844" rx="25.000000" ry="0.158156" fill="rgb(0, 0, 128)" style="fill-opacity:1.00" />
<ellipse cx="715.000000" cy="109.841844" rx="16.666667" ry="0.105437" fill="rgb(255, 255, 255)" style="fill-opacity:1.00" />
<rect height="0.158156" width="25.000000" x="715.000000" y="109.762766" fill="rgb(255, 255, 255)" style="fill-opacity:1.00" />
<!-- End 'C' -->
<text x="400.000000" y="165">
IC = 11.44
</text>

</svg>
