<?xml version="1.0" encoding="UTF-8" standalone="yes"?>
                 <!DOCTYPE svg PUBLIC "-//W3C//DTD SVG 1.0//EN" "http://www.w3.org/TR/2001/REC-SVG-20010904/DTD/svg10.dtd">
                 <svg height="170" width="780" xmlns="http://www.w3.org/2000/svg" xmlns:xlink="http://www.w3.org/1999/xlink">
                 <line x1="85" y1="120" x2="747" y2="120" style="stroke:rgb(99,99,99);stroke-width:2" />
<rect height="7.000000" width="2.000000" x="85.000000" y="120.000000" fill="rgb(0, 0, 0)" style="fill-opacity:1.00" />
<text x="107.000000" y="140">
1
</text>
<rect height="7.000000" width="2.000000" x="145.000000" y="120.000000" fill="rgb(0, 0, 0)" style="fill-opacity:1.00" />
<text x="167.000000" y="140">
2
</text>
<rect height="7.000000" width="2.000000" x="205.000000" y="120.000000" fill="rgb(0, 0, 0)" style="fill-opacity:1.00" />
<text x="227.000000" y="140">
3
</text>
<rect height="7.000000" width="2.000000" x="265.000000" y="120.000000" fill="rgb(0, 0, 0)" style="fill-opacity:1.00" />
<text x="287.000000" y="140">
4
</text>
<rect height="7.000000" width="2.000000" x="325.000000" y="120.000000" fill="rgb(0, 0, 0)" style="fill-opacity:1.00" />
<text x="347.000000" y="140">
5
</text>
<rect height="7.000000" width="2.000000" x="385.000000" y="120.000000" fill="rgb(0, 0, 0)" style="fill-opacity:1.00" />
<text x="407.000000" y="140">
6
</text>
<rect height="7.000000" width="2.000000" x="445.000000" y="120.000000" fill="rgb(0, 0, 0)" style="fill-opacity:1.00" />
<text x="467.000000" y="140">
7
</text>
<rect height="7.000000" width="2.000000" x="505.000000" y="120.000000" fill="rgb(0, 0, 0)" style="fill-opacity:1.00" />
<text x="527.000000" y="140">
8
</text>
<rect height="7.000000" width="2.000000" x="565.000000" y="120.000000" fill="rgb(0, 0, 0)" style="fill-opacity:1.00" />
<text x="587.000000" y="140">
9
</text>
<rect height="7.000000" width="2.000000" x="625.000000" y="120.000000" fill="rgb(0, 0, 0)" style="fill-opacity:1.00" />
<text x="647.000000" y="140">
10
</text>
<rect height="7.000000" width="2.000000" x="685.000000" y="120.000000" fill="rgb(0, 0, 0)" style="fill-opacity:1.00" />
<text x="707.000000" y="140">
11
</text>
<rect height="7.000000" width="2.000000" x="745.000000" y="120.000000" fill="rgb(0, 0, 0)" style="fill-opacity:1.00" />
<line x1="80" y1="112" x2="80" y2="10" style="stroke:rgb(99,99,99);stroke-width:2" />
<rect height="2.000000" width="7.000000" x="73.000000" y="110.000000" fill="rgb(0, 0, 0)" style="fill-opacity:1.00" />
<text x="63" y="115">
0
</text>
<rect height="2.000000" width="7.000000" x="73.000000" y="60.000000" fill="rgb(0, 0, 0)" style="fill-opacity:1.00" />
<text x="63" y="65">
1
</text>
<rect height="2.000000" width="7.000000" x="73.000000" y="10.000000" fill="rgb(0, 0, 0)" style="fill-opacity:1.00" />
<text x="63" y="15">
2
</text>
<text x="50" y="65"
transform="rotate(-90, 50, 70)">
bits
</text>
<!-- Begin 'T' -->
<rect height="0.118446" width="50.000000" x="90.000000" y="107.478294" fill="rgb(0, 100, 0)" style="fill-opacity:1.00" />
<rect height="0.740288" width="10.000000" x="110.000000" y="107.478294" fill="rgb(0, 100, 0)" style="fill-opacity:1.00" />
<!-- End 'T' -->
<!-- Begin 'C' -->
<ellipse cx="115.000000" cy="108.578066" rx="25.000000" ry="0.359485" fill="rgb(0, 0, 128)" style="fill-opacity:1.00" />
<ellipse cx="115.000000" cy="108.578066" rx="16.666667" ry="0.239657" fill="rgb(255, 255, 255)" style="fill-opacity:1.00" />
<rect height="0.359485" width="25.000000" x="115.000000" y="108.398324" fill="rgb(255, 255, 255)" style="fill-opacity:1.00" />
<!-- End 'C' -->
<!-- Begin 'G' -->
<ellipse cx="115.000000" cy="109.289120" rx="25.000000" ry="0.351569" fill="rgb(255, 165, 0)" style="fill-opacity:1.00" />
<ellipse cx="115.000000" cy="109.289120" rx="16.666667" ry="0.234379" fill="rgb(255, 255, 255)" style="fill-opacity:1.00" />
<rect height="0.351569" width="25.000000" x="115.000000" y="109.113336" fill="rgb(255, 255, 255)" style="fill-opacity:1.00" />
<rect height="0.087892" width="25.000000" x="115.000000" y="109.377012" fill="rgb(255, 165, 0)" style="fill-opacity:1.00" />
<rect height="0.263676" width="6.250000" x="133.750000" y="109.377012" fill="rgb(255, 165, 0)" style="fill-opacity:1.00" />
<!-- End 'G' -->
<!-- Begin 'A' -->
<polygon points=" 90.000000, 110.000000, 111.000000, 109.640689, 119.000000, 109.640689, 140.000000, 110.000000, 132.500000, 110.000000, 126.250000, 109.910172, 103.750000, 109.910172, 97.500000, 110.000000" fill="rgb(178, 34, 34)" style="fill-opacity:1.00" />
<!-- End 'A' -->
<!-- Begin 'A' -->
<polygon points=" 150.000000, 104.808948, 171.000000, 100.645673, 179.000000, 100.645673, 200.000000, 104.808948, 192.500000, 104.808948, 186.250000, 103.768130, 163.750000, 103.768130, 157.500000, 104.808948" fill="rgb(178, 34, 34)" style="fill-opacity:1.00" />
<!-- End 'A' -->
<!-- Begin 'G' -->
<ellipse cx="175.000000" cy="106.031925" rx="25.000000" ry="1.222977" fill="rgb(255, 165, 0)" style="fill-opacity:1.00" />
<ellipse cx="175.000000" cy="106.031925" rx="16.666667" ry="0.815318" fill="rgb(255, 255, 255)" style="fill-opacity:1.00" />
<rect height="1.222977" width="25.000000" x="175.000000" y="105.420437" fill="rgb(255, 255, 255)" style="fill-opacity:1.00" />
<rect height="0.305744" width="25.000000" x="175.000000" y="106.337669" fill="rgb(255, 165, 0)" style="fill-opacity:1.00" />
<rect height="0.917232" width="6.250000" x="193.750000" y="106.337669" fill="rgb(255, 165, 0)" style="fill-opacity:1.00" />
<!-- End 'G' -->
<!-- Begin 'C' -->
<ellipse cx="175.000000" cy="108.176600" rx="25.000000" ry="0.921698" fill="rgb(0, 0, 128)" style="fill-opacity:1.00" />
<ellipse cx="175.000000" cy="108.176600" rx="16.666667" ry="0.614466" fill="rgb(255, 255, 255)" style="fill-opacity:1.00" />
<rect height="0.921698" width="25.000000" x="175.000000" y="107.715751" fill="rgb(255, 255, 255)" style="fill-opacity:1.00" />
<!-- End 'C' -->
<!-- Begin 'T' -->
<rect height="0.144272" width="50.000000" x="150.000000" y="109.098299" fill="rgb(0, 100, 0)" style="fill-opacity:1.00" />
<rect height="0.901701" width="10.000000" x="170.000000" y="109.098299" fill="rgb(0, 100, 0)" style="fill-opacity:1.00" />
<!-- End 'T' -->
<!-- Begin 'C' -->
<ellipse cx="235.000000" cy="64.187345" rx="25.000000" ry="43.084916" fill="rgb(0, 0, 128)" style="fill-opacity:1.00" />
<ellipse cx="235.000000" cy="64.187345" rx="16.666667" ry="28.723278" fill="rgb(255, 255, 255)" style="fill-opacity:1.00" />
<rect height="43.084916" width="25.000000" x="235.000000" y="42.644886" fill="rgb(255, 255, 255)" style="fill-opacity:1.00" />
<!-- End 'C' -->
<!-- Begin 'T' -->
<rect height="0.362170" width="50.000000" x="210.000000" y="107.272261" fill="rgb(0, 100, 0)" style="fill-opacity:1.00" />
<rect height="2.263563" width="10.000000" x="230.000000" y="107.272261" fill="rgb(0, 100, 0)" style="fill-opacity:1.00" />
<!-- End 'T' -->
<!-- Begin 'A' -->
<polygon points=" 210.000000, 109.894133, 231.000000, 109.535824, 239.000000, 109.535824, 260.000000, 109.894133, 252.500000, 109.894133, 246.250000, 109.804556, 223.750000, 109.804556, 217.500000, 109.894133" fill="rgb(178, 34, 34)" style="fill-opacity:1.00" />
<!-- End 'A' -->
<!-- Begin 'G' -->
<ellipse cx="235.000000" cy="109.947066" rx="25.000000" ry="0.052934" fill="rgb(255, 165, 0)" style="fill-opacity:1.00" />
<ellipse cx="235.000000" cy="109.947066" rx="16.666667" ry="0.035289" fill="rgb(255, 255, 255)" style="fill-opacity:1.00" />
<rect height="0.052934" width="25.000000" x="235.000000" y="109.920600" fill="rgb(255, 255, 255)" style="fill-opacity:1.00" />
<rect height="0.013233" width="25.000000" x="235.000000" y="109.960300" fill="rgb(255, 165, 0)" style="fill-opacity:1.00" />
<rect height="0.039700" width="6.250000" x="253.750000" y="109.960300" fill="rgb(255, 165, 0)" style="fill-opacity:1.00" />
<!-- End 'G' -->
<!-- Begin 'A' -->
<polygon points=" 270.000000, 107.117701, 291.000000, 22.286334, 299.000000, 22.286334, 320.000000, 107.117701, 312.500000, 107.117701, 306.250000, 85.909860, 283.750000, 85.909860, 277.500000, 107.117701" fill="rgb(178, 34, 34)" style="fill-opacity:1.00" />
<polygon points=" 295.000000, 39.252608, 287.000000, 72.185155, 302.000000, 72.185155" fill="rgb(255, 255, 255)" style="fill-opacity:1.00" />
<!-- End 'A' -->
<!-- Begin 'T' -->
<rect height="0.238535" width="50.000000" x="270.000000" y="107.117701" fill="rgb(0, 100, 0)" style="fill-opacity:1.00" />
<rect height="1.490843" width="10.000000" x="290.000000" y="107.117701" fill="rgb(0, 100, 0)" style="fill-opacity:1.00" />
<!-- End 'T' -->
<!-- Begin 'G' -->
<ellipse cx="295.000000" cy="109.271408" rx="25.000000" ry="0.662864" fill="rgb(255, 165, 0)" style="fill-opacity:1.00" />
<ellipse cx="295.000000" cy="109.271408" rx="16.666667" ry="0.441909" fill="rgb(255, 255, 255)" style="fill-opacity:1.00" />
<rect height="0.662864" width="25.000000" x="295.000000" y="108.939976" fill="rgb(255, 255, 255)" style="fill-opacity:1.00" />
<rect height="0.165716" width="25.000000" x="295.000000" y="109.437124" fill="rgb(255, 165, 0)" style="fill-opacity:1.00" />
<rect height="0.497148" width="6.250000" x="313.750000" y="109.437124" fill="rgb(255, 165, 0)" style="fill-opacity:1.00" />
<!-- End 'G' -->
<!-- Begin 'C' -->
<ellipse cx="295.000000" cy="109.967136" rx="25.000000" ry="0.032864" fill="rgb(0, 0, 128)" style="fill-opacity:1.00" />
<ellipse cx="295.000000" cy="109.967136" rx="16.666667" ry="0.021909" fill="rgb(255, 255, 255)" style="fill-opacity:1.00" />
<rect height="0.032864" width="25.000000" x="295.000000" y="109.950704" fill="rgb(255, 255, 255)" style="fill-opacity:1.00" />
<!-- End 'C' -->
<!-- Begin 'C' -->
<ellipse cx="355.000000" cy="62.172665" rx="25.000000" ry="46.519768" fill="rgb(0, 0, 128)" style="fill-opacity:1.00" />
<ellipse cx="355.000000" cy="62.172665" rx="16.666667" ry="31.013179" fill="rgb(255, 255, 255)" style="fill-opacity:1.00" />
<rect height="46.519768" width="25.000000" x="355.000000" y="38.912781" fill="rgb(255, 255, 255)" style="fill-opacity:1.00" />
<!-- End 'C' -->
<!-- Begin 'T' -->
<rect height="0.183600" width="50.000000" x="330.000000" y="108.692433" fill="rgb(0, 100, 0)" style="fill-opacity:1.00" />
<rect height="1.147501" width="10.000000" x="350.000000" y="108.692433" fill="rgb(0, 100, 0)" style="fill-opacity:1.00" />
<!-- End 'T' -->
<!-- Begin 'A' -->
<polygon points=" 330.000000, 109.997163, 351.000000, 109.839934, 359.000000, 109.839934, 380.000000, 109.997163, 372.500000, 109.997163, 366.250000, 109.957856, 343.750000, 109.957856, 337.500000, 109.997163" fill="rgb(178, 34, 34)" style="fill-opacity:1.00" />
<!-- End 'A' -->
<!-- Begin 'G' -->
<ellipse cx="355.000000" cy="109.998582" rx="25.000000" ry="0.001418" fill="rgb(255, 165, 0)" style="fill-opacity:1.00" />
<ellipse cx="355.000000" cy="109.998582" rx="16.666667" ry="0.000946" fill="rgb(255, 255, 255)" style="fill-opacity:1.00" />
<rect height="0.001418" width="25.000000" x="355.000000" y="109.997872" fill="rgb(255, 255, 255)" style="fill-opacity:1.00" />
<rect height="0.000355" width="25.000000" x="355.000000" y="109.998936" fill="rgb(255, 165, 0)" style="fill-opacity:1.00" />
<rect height="0.001064" width="6.250000" x="373.750000" y="109.998936" fill="rgb(255, 165, 0)" style="fill-opacity:1.00" />
<!-- End 'G' -->
<!-- Begin 'G' -->
<ellipse cx="415.000000" cy="62.215164" rx="25.000000" ry="46.409241" fill="rgb(255, 165, 0)" style="fill-opacity:1.00" />
<ellipse cx="415.000000" cy="62.215164" rx="16.666667" ry="30.939494" fill="rgb(255, 255, 255)" style="fill-opacity:1.00" />
<rect height="46.409241" width="25.000000" x="415.000000" y="39.010543" fill="rgb(255, 255, 255)" style="fill-opacity:1.00" />
<rect height="11.602310" width="25.000000" x="415.000000" y="73.817474" fill="rgb(255, 165, 0)" style="fill-opacity:1.00" />
<rect height="34.806931" width="6.250000" x="433.750000" y="73.817474" fill="rgb(255, 165, 0)" style="fill-opacity:1.00" />
<!-- End 'G' -->
<!-- Begin 'A' -->
<polygon points=" 390.000000, 109.889217, 411.000000, 108.624405, 419.000000, 108.624405, 440.000000, 109.889217, 432.500000, 109.889217, 426.250000, 109.573014, 403.750000, 109.573014, 397.500000, 109.889217" fill="rgb(178, 34, 34)" style="fill-opacity:1.00" />
<!-- End 'A' -->
<!-- Begin 'T' -->
<rect height="0.017108" width="50.000000" x="390.000000" y="109.889217" fill="rgb(0, 100, 0)" style="fill-opacity:1.00" />
<rect height="0.106927" width="10.000000" x="410.000000" y="109.889217" fill="rgb(0, 100, 0)" style="fill-opacity:1.00" />
<!-- End 'T' -->
<!-- Begin 'C' -->
<ellipse cx="415.000000" cy="109.998072" rx="25.000000" ry="0.001928" fill="rgb(0, 0, 128)" style="fill-opacity:1.00" />
<ellipse cx="415.000000" cy="109.998072" rx="16.666667" ry="0.001285" fill="rgb(255, 255, 255)" style="fill-opacity:1.00" />
<rect height="0.001928" width="25.000000" x="415.000000" y="109.997108" fill="rgb(255, 255, 255)" style="fill-opacity:1.00" />
<!-- End 'C' -->
<!-- Begin 'T' -->
<rect height="13.808402" width="50.000000" x="450.000000" y="21.125125" fill="rgb(0, 100, 0)" style="fill-opacity:1.00" />
<rect height="86.302513" width="10.000000" x="470.000000" y="21.125125" fill="rgb(0, 100, 0)" style="fill-opacity:1.00" />
<!-- End 'T' -->
<!-- Begin 'A' -->
<polygon points=" 450.000000, 108.953901, 471.000000, 107.427638, 479.000000, 107.427638, 500.000000, 108.953901, 492.500000, 108.953901, 486.250000, 108.572336, 463.750000, 108.572336, 457.500000, 108.953901" fill="rgb(178, 34, 34)" style="fill-opacity:1.00" />
<!-- End 'A' -->
<!-- Begin 'C' -->
<ellipse cx="475.000000" cy="109.428712" rx="25.000000" ry="0.474811" fill="rgb(0, 0, 128)" style="fill-opacity:1.00" />
<ellipse cx="475.000000" cy="109.428712" rx="16.666667" ry="0.316541" fill="rgb(255, 255, 255)" style="fill-opacity:1.00" />
<rect height="0.474811" width="25.000000" x="475.000000" y="109.191307" fill="rgb(255, 255, 255)" style="fill-opacity:1.00" />
<!-- End 'C' -->
<!-- Begin 'G' -->
<ellipse cx="475.000000" cy="109.951762" rx="25.000000" ry="0.048238" fill="rgb(255, 165, 0)" style="fill-opacity:1.00" />
<ellipse cx="475.000000" cy="109.951762" rx="16.666667" ry="0.032159" fill="rgb(255, 255, 255)" style="fill-opacity:1.00" />
<rect height="0.048238" width="25.000000" x="475.000000" y="109.927642" fill="rgb(255, 255, 255)" style="fill-opacity:1.00" />
<rect height="0.012060" width="25.000000" x="475.000000" y="109.963821" fill="rgb(255, 165, 0)" style="fill-opacity:1.00" />
<rect height="0.036179" width="6.250000" x="493.750000" y="109.963821" fill="rgb(255, 165, 0)" style="fill-opacity:1.00" />
<!-- End 'G' -->
<!-- Begin 'G' -->
<ellipse cx="535.000000" cy="65.387834" rx="25.000000" ry="41.458367" fill="rgb(255, 165, 0)" style="fill-opacity:1.00" />
<ellipse cx="535.000000" cy="65.387834" rx="16.666667" ry="27.638911" fill="rgb(255, 255, 255)" style="fill-opacity:1.00" />
<rect height="41.458367" width="25.000000" x="535.000000" y="44.658651" fill="rgb(255, 255, 255)" style="fill-opacity:1.00" />
<rect height="10.364592" width="25.000000" x="535.000000" y="75.752426" fill="rgb(255, 165, 0)" style="fill-opacity:1.00" />
<rect height="31.093775" width="6.250000" x="553.750000" y="75.752426" fill="rgb(255, 165, 0)" style="fill-opacity:1.00" />
<!-- End 'G' -->
<!-- Begin 'A' -->
<polygon points=" 510.000000, 108.631488, 531.000000, 106.846201, 539.000000, 106.846201, 560.000000, 108.631488, 552.500000, 108.631488, 546.250000, 108.185166, 523.750000, 108.185166, 517.500000, 108.631488" fill="rgb(178, 34, 34)" style="fill-opacity:1.00" />
<!-- End 'A' -->
<!-- Begin 'T' -->
<rect height="0.122711" width="50.000000" x="510.000000" y="108.631488" fill="rgb(0, 100, 0)" style="fill-opacity:1.00" />
<rect height="0.766941" width="10.000000" x="530.000000" y="108.631488" fill="rgb(0, 100, 0)" style="fill-opacity:1.00" />
<!-- End 'T' -->
<!-- Begin 'C' -->
<ellipse cx="535.000000" cy="109.699215" rx="25.000000" ry="0.300785" fill="rgb(0, 0, 128)" style="fill-opacity:1.00" />
<ellipse cx="535.000000" cy="109.699215" rx="16.666667" ry="0.200524" fill="rgb(255, 255, 255)" style="fill-opacity:1.00" />
<rect height="0.300785" width="25.000000" x="535.000000" y="109.548822" fill="rgb(255, 255, 255)" style="fill-opacity:1.00" />
<!-- End 'C' -->
<!-- Begin 'T' -->
<rect height="0.729364" width="50.000000" x="570.000000" y="100.092396" fill="rgb(0, 100, 0)" style="fill-opacity:1.00" />
<rect height="4.558527" width="10.000000" x="590.000000" y="100.092396" fill="rgb(0, 100, 0)" style="fill-opacity:1.00" />
<!-- End 'T' -->
<!-- Begin 'C' -->
<ellipse cx="595.000000" cy="105.886807" rx="25.000000" ry="1.235884" fill="rgb(0, 0, 128)" style="fill-opacity:1.00" />
<ellipse cx="595.000000" cy="105.886807" rx="16.666667" ry="0.823923" fill="rgb(255, 255, 255)" style="fill-opacity:1.00" />
<rect height="1.235884" width="25.000000" x="595.000000" y="105.268865" fill="rgb(255, 255, 255)" style="fill-opacity:1.00" />
<!-- End 'C' -->
<!-- Begin 'G' -->
<ellipse cx="595.000000" cy="108.071115" rx="25.000000" ry="0.948424" fill="rgb(255, 165, 0)" style="fill-opacity:1.00" />
<ellipse cx="595.000000" cy="108.071115" rx="16.666667" ry="0.632283" fill="rgb(255, 255, 255)" style="fill-opacity:1.00" />
<rect height="0.948424" width="25.000000" x="595.000000" y="107.596903" fill="rgb(255, 255, 255)" style="fill-opacity:1.00" />
<rect height="0.237106" width="25.000000" x="595.000000" y="108.308222" fill="rgb(255, 165, 0)" style="fill-opacity:1.00" />
<rect height="0.711318" width="6.250000" x="613.750000" y="108.308222" fill="rgb(255, 165, 0)" style="fill-opacity:1.00" />
<!-- End 'G' -->
<!-- Begin 'A' -->
<polygon points=" 570.000000, 110.000000, 591.000000, 109.019540, 599.000000, 109.019540, 620.000000, 110.000000, 612.500000, 110.000000, 606.250000, 109.754885, 583.750000, 109.754885, 577.500000, 110.000000" fill="rgb(178, 34, 34)" style="fill-opacity:1.00" />
<!-- End 'A' -->
<!-- Begin 'G' -->
<ellipse cx="655.000000" cy="108.271146" rx="25.000000" ry="0.292607" fill="rgb(255, 165, 0)" style="fill-opacity:1.00" />
<ellipse cx="655.000000" cy="108.271146" rx="16.666667" ry="0.195072" fill="rgb(255, 255, 255)" style="fill-opacity:1.00" />
<rect height="0.292607" width="25.000000" x="655.000000" y="108.124843" fill="rgb(255, 255, 255)" style="fill-opacity:1.00" />
<rect height="0.073152" width="25.000000" x="655.000000" y="108.344298" fill="rgb(255, 165, 0)" style="fill-opacity:1.00" />
<rect height="0.219456" width="6.250000" x="673.750000" y="108.344298" fill="rgb(255, 165, 0)" style="fill-opacity:1.00" />
<!-- End 'G' -->
<!-- Begin 'A' -->
<polygon points=" 630.000000, 109.134942, 651.000000, 108.563754, 659.000000, 108.563754, 680.000000, 109.134942, 672.500000, 109.134942, 666.250000, 108.992145, 643.750000, 108.992145, 637.500000, 109.134942" fill="rgb(178, 34, 34)" style="fill-opacity:1.00" />
<!-- End 'A' -->
<!-- Begin 'C' -->
<ellipse cx="655.000000" cy="109.412731" rx="25.000000" ry="0.277790" fill="rgb(0, 0, 128)" style="fill-opacity:1.00" />
<ellipse cx="655.000000" cy="109.412731" rx="16.666667" ry="0.185193" fill="rgb(255, 255, 255)" style="fill-opacity:1.00" />
<rect height="0.277790" width="25.000000" x="655.000000" y="109.273837" fill="rgb(255, 255, 255)" style="fill-opacity:1.00" />
<!-- End 'C' -->
<!-- Begin 'T' -->
<rect height="0.049517" width="50.000000" x="630.000000" y="109.690521" fill="rgb(0, 100, 0)" style="fill-opacity:1.00" />
<rect height="0.309479" width="10.000000" x="650.000000" y="109.690521" fill="rgb(0, 100, 0)" style="fill-opacity:1.00" />
<!-- End 'T' -->
<!-- Begin 'A' -->
<polygon points=" 690.000000, 108.986390, 711.000000, 108.475915, 719.000000, 108.475915, 740.000000, 108.986390, 732.500000, 108.986390, 726.250000, 108.858771, 703.750000, 108.858771, 697.500000, 108.986390" fill="rgb(178, 34, 34)" style="fill-opacity:1.00" />
<!-- End 'A' -->
<!-- Begin 'T' -->
<rect height="0.061430" width="50.000000" x="690.000000" y="108.986390" fill="rgb(0, 100, 0)" style="fill-opacity:1.00" />
<rect height="0.383935" width="10.000000" x="710.000000" y="108.986390" fill="rgb(0, 100, 0)" style="fill-opacity:1.00" />
<!-- End 'T' -->
<!-- Begin 'G' -->
<ellipse cx="715.000000" cy="109.530690" rx="25.000000" ry="0.160364" fill="rgb(255, 165, 0)" style="fill-opacity:1.00" />
<ellipse cx="715.000000" cy="109.530690" rx="16.666667" ry="0.106909" fill="rgb(255, 255, 255)" style="fill-opacity:1.00" />
<rect height="0.160364" width="25.000000" x="715.000000" y="109.450508" fill="rgb(255, 255, 255)" style="fill-opacity:1.00" />
<rect height="0.040091" width="25.000000" x="715.000000" y="109.570781" fill="rgb(255, 165, 0)" style="fill-opacity:1.00" />
<rect height="0.120273" width="6.250000" x="733.750000" y="109.570781" fill="rgb(255, 165, 0)" style="fill-opacity:1.00" />
<!-- End 'G' -->
<!-- Begin 'C' -->
<ellipse cx="715.000000" cy="109.845527" rx="25.000000" ry="0.154473" fill="rgb(0, 0, 128)" style="fill-opacity:1.00" />
<ellipse cx="715.000000" cy="109.845527" rx="16.666667" ry="0.102982" fill="rgb(255, 255, 255)" style="fill-opacity:1.00" />
<rect height="0.154473" width="25.000000" x="715.000000" y="109.768290" fill="rgb(255, 255, 255)" style="fill-opacity:1.00" />
<!-- End 'C' -->
<text x="400.000000" y="165">
IC = 11.31
</text>

</svg>
