<?xml version="1.0" encoding="UTF-8" standalone="yes"?>
                 <!DOCTYPE svg PUBLIC "-//W3C//DTD SVG 1.0//EN" "http://www.w3.org/TR/2001/REC-SVG-20010904/DTD/svg10.dtd">
                 <svg height="170" width="840" xmlns="http://www.w3.org/2000/svg" xmlns:xlink="http://www.w3.org/1999/xlink">
                 <line x1="85" y1="120" x2="807" y2="120" style="stroke:rgb(99,99,99);stroke-width:2" />
<rect height="7.000000" width="2.000000" x="85.000000" y="120.000000" fill="rgb(0, 0, 0)" style="fill-opacity:1.00" />
<text x="107.000000" y="140">
1
</text>
<rect height="7.000000" width="2.000000" x="145.000000" y="120.000000" fill="rgb(0, 0, 0)" style="fill-opacity:1.00" />
<text x="167.000000" y="140">
2
</text>
<rect height="7.000000" width="2.000000" x="205.000000" y="120.000000" fill="rgb(0, 0, 0)" style="fill-opacity:1.00" />
<text x="227.000000" y="140">
3
</text>
<rect height="7.000000" width="2.000000" x="265.000000" y="120.000000" fill="rgb(0, 0, 0)" style="fill-opacity:1.00" />
<text x="287.000000" y="140">
4
</text>
<rect height="7.000000" width="2.000000" x="325.000000" y="120.000000" fill="rgb(0, 0, 0)" style="fill-opacity:1.00" />
<text x="347.000000" y="140">
5
</text>
<rect height="7.000000" width="2.000000" x="385.000000" y="120.000000" fill="rgb(0, 0, 0)" style="fill-opacity:1.00" />
<text x="407.000000" y="140">
6
</text>
<rect height="7.000000" width="2.000000" x="445.000000" y="120.000000" fill="rgb(0, 0, 0)" style="fill-opacity:1.00" />
<text x="467.000000" y="140">
7
</text>
<rect height="7.000000" width="2.000000" x="505.000000" y="120.000000" fill="rgb(0, 0, 0)" style="fill-opacity:1.00" />
<text x="527.000000" y="140">
8
</text>
<rect height="7.000000" width="2.000000" x="565.000000" y="120.000000" fill="rgb(0, 0, 0)" style="fill-opacity:1.00" />
<text x="587.000000" y="140">
9
</text>
<rect height="7.000000" width="2.000000" x="625.000000" y="120.000000" fill="rgb(0, 0, 0)" style="fill-opacity:1.00" />
<text x="647.000000" y="140">
10
</text>
<rect height="7.000000" width="2.000000" x="685.000000" y="120.000000" fill="rgb(0, 0, 0)" style="fill-opacity:1.00" />
<text x="707.000000" y="140">
11
</text>
<rect height="7.000000" width="2.000000" x="745.000000" y="120.000000" fill="rgb(0, 0, 0)" style="fill-opacity:1.00" />
<text x="767.000000" y="140">
12
</text>
<rect height="7.000000" width="2.000000" x="805.000000" y="120.000000" fill="rgb(0, 0, 0)" style="fill-opacity:1.00" />
<line x1="80" y1="112" x2="80" y2="10" style="stroke:rgb(99,99,99);stroke-width:2" />
<rect height="2.000000" width="7.000000" x="73.000000" y="110.000000" fill="rgb(0, 0, 0)" style="fill-opacity:1.00" />
<text x="63" y="115">
0
</text>
<rect height="2.000000" width="7.000000" x="73.000000" y="60.000000" fill="rgb(0, 0, 0)" style="fill-opacity:1.00" />
<text x="63" y="65">
1
</text>
<rect height="2.000000" width="7.000000" x="73.000000" y="10.000000" fill="rgb(0, 0, 0)" style="fill-opacity:1.00" />
<text x="63" y="15">
2
</text>
<text x="50" y="65"
transform="rotate(-90, 50, 70)">
bits
</text>
<!-- Begin 'T' -->
<rect height="1.363595" width="50.000000" x="90.000000" y="92.674146" fill="rgb(0, 100, 0)" style="fill-opacity:1.00" />
<rect height="8.522470" width="10.000000" x="110.000000" y="92.674146" fill="rgb(0, 100, 0)" style="fill-opacity:1.00" />
<!-- End 'T' -->
<!-- Begin 'C' -->
<ellipse cx="115.000000" cy="103.755086" rx="25.000000" ry="2.558470" fill="rgb(0, 0, 128)" style="fill-opacity:1.00" />
<ellipse cx="115.000000" cy="103.755086" rx="16.666667" ry="1.705647" fill="rgb(255, 255, 255)" style="fill-opacity:1.00" />
<rect height="2.558470" width="25.000000" x="115.000000" y="102.475851" fill="rgb(255, 255, 255)" style="fill-opacity:1.00" />
<!-- End 'C' -->
<!-- Begin 'A' -->
<polygon points=" 90.000000, 109.248017, 111.000000, 106.313556, 119.000000, 106.313556, 140.000000, 109.248017, 132.500000, 109.248017, 126.250000, 108.514402, 103.750000, 108.514402, 97.500000, 109.248017" fill="rgb(178, 34, 34)" style="fill-opacity:1.00" />
<!-- End 'A' -->
<!-- Begin 'G' -->
<ellipse cx="115.000000" cy="109.624009" rx="25.000000" ry="0.375991" fill="rgb(255, 165, 0)" style="fill-opacity:1.00" />
<ellipse cx="115.000000" cy="109.624009" rx="16.666667" ry="0.250661" fill="rgb(255, 255, 255)" style="fill-opacity:1.00" />
<rect height="0.375991" width="25.000000" x="115.000000" y="109.436013" fill="rgb(255, 255, 255)" style="fill-opacity:1.00" />
<rect height="0.093998" width="25.000000" x="115.000000" y="109.718006" fill="rgb(255, 165, 0)" style="fill-opacity:1.00" />
<rect height="0.281994" width="6.250000" x="133.750000" y="109.718006" fill="rgb(255, 165, 0)" style="fill-opacity:1.00" />
<!-- End 'G' -->
<!-- Begin 'G' -->
<ellipse cx="175.000000" cy="90.718317" rx="25.000000" ry="7.887872" fill="rgb(255, 165, 0)" style="fill-opacity:1.00" />
<ellipse cx="175.000000" cy="90.718317" rx="16.666667" ry="5.258581" fill="rgb(255, 255, 255)" style="fill-opacity:1.00" />
<rect height="7.887872" width="25.000000" x="175.000000" y="86.774381" fill="rgb(255, 255, 255)" style="fill-opacity:1.00" />
<rect height="1.971968" width="25.000000" x="175.000000" y="92.690285" fill="rgb(255, 165, 0)" style="fill-opacity:1.00" />
<rect height="5.915904" width="6.250000" x="193.750000" y="92.690285" fill="rgb(255, 165, 0)" style="fill-opacity:1.00" />
<!-- End 'G' -->
<!-- Begin 'C' -->
<ellipse cx="175.000000" cy="102.360162" rx="25.000000" ry="3.753973" fill="rgb(0, 0, 128)" style="fill-opacity:1.00" />
<ellipse cx="175.000000" cy="102.360162" rx="16.666667" ry="2.502649" fill="rgb(255, 255, 255)" style="fill-opacity:1.00" />
<rect height="3.753973" width="25.000000" x="175.000000" y="100.483176" fill="rgb(255, 255, 255)" style="fill-opacity:1.00" />
<!-- End 'C' -->
<!-- Begin 'A' -->
<polygon points=" 150.000000, 109.417317, 171.000000, 106.114136, 179.000000, 106.114136, 200.000000, 109.417317, 192.500000, 109.417317, 186.250000, 108.591522, 163.750000, 108.591522, 157.500000, 109.417317" fill="rgb(178, 34, 34)" style="fill-opacity:1.00" />
<!-- End 'A' -->
<!-- Begin 'T' -->
<rect height="0.093229" width="50.000000" x="150.000000" y="109.417317" fill="rgb(0, 100, 0)" style="fill-opacity:1.00" />
<rect height="0.582683" width="10.000000" x="170.000000" y="109.417317" fill="rgb(0, 100, 0)" style="fill-opacity:1.00" />
<!-- End 'T' -->
<!-- Begin 'C' -->
<ellipse cx="235.000000" cy="66.142982" rx="25.000000" ry="39.043561" fill="rgb(0, 0, 128)" style="fill-opacity:1.00" />
<ellipse cx="235.000000" cy="66.142982" rx="16.666667" ry="26.029041" fill="rgb(255, 255, 255)" style="fill-opacity:1.00" />
<rect height="39.043561" width="25.000000" x="235.000000" y="46.621202" fill="rgb(255, 255, 255)" style="fill-opacity:1.00" />
<!-- End 'C' -->
<!-- Begin 'G' -->
<ellipse cx="235.000000" cy="107.427627" rx="25.000000" ry="2.241083" fill="rgb(255, 165, 0)" style="fill-opacity:1.00" />
<ellipse cx="235.000000" cy="107.427627" rx="16.666667" ry="1.494055" fill="rgb(255, 255, 255)" style="fill-opacity:1.00" />
<rect height="2.241083" width="25.000000" x="235.000000" y="106.307085" fill="rgb(255, 255, 255)" style="fill-opacity:1.00" />
<rect height="0.560271" width="25.000000" x="235.000000" y="107.987897" fill="rgb(255, 165, 0)" style="fill-opacity:1.00" />
<rect height="1.680812" width="6.250000" x="253.750000" y="107.987897" fill="rgb(255, 165, 0)" style="fill-opacity:1.00" />
<!-- End 'G' -->
<!-- Begin 'A' -->
<polygon points=" 210.000000, 109.980512, 231.000000, 109.668709, 239.000000, 109.668709, 260.000000, 109.980512, 252.500000, 109.980512, 246.250000, 109.902562, 223.750000, 109.902562, 217.500000, 109.980512" fill="rgb(178, 34, 34)" style="fill-opacity:1.00" />
<!-- End 'A' -->
<!-- Begin 'T' -->
<rect height="0.003118" width="50.000000" x="210.000000" y="109.980512" fill="rgb(0, 100, 0)" style="fill-opacity:1.00" />
<rect height="0.019488" width="10.000000" x="230.000000" y="109.980512" fill="rgb(0, 100, 0)" style="fill-opacity:1.00" />
<!-- End 'T' -->
<!-- Begin 'C' -->
<ellipse cx="295.000000" cy="61.966870" rx="25.000000" ry="46.955051" fill="rgb(0, 0, 128)" style="fill-opacity:1.00" />
<ellipse cx="295.000000" cy="61.966870" rx="16.666667" ry="31.303367" fill="rgb(255, 255, 255)" style="fill-opacity:1.00" />
<rect height="46.955051" width="25.000000" x="295.000000" y="38.489345" fill="rgb(255, 255, 255)" style="fill-opacity:1.00" />
<!-- End 'C' -->
<!-- Begin 'T' -->
<rect height="0.127495" width="50.000000" x="270.000000" y="108.921920" fill="rgb(0, 100, 0)" style="fill-opacity:1.00" />
<rect height="0.796841" width="10.000000" x="290.000000" y="108.921920" fill="rgb(0, 100, 0)" style="fill-opacity:1.00" />
<!-- End 'T' -->
<!-- Begin 'G' -->
<ellipse cx="295.000000" cy="109.847663" rx="25.000000" ry="0.128901" fill="rgb(255, 165, 0)" style="fill-opacity:1.00" />
<ellipse cx="295.000000" cy="109.847663" rx="16.666667" ry="0.085934" fill="rgb(255, 255, 255)" style="fill-opacity:1.00" />
<rect height="0.128901" width="25.000000" x="295.000000" y="109.783212" fill="rgb(255, 255, 255)" style="fill-opacity:1.00" />
<rect height="0.032225" width="25.000000" x="295.000000" y="109.879888" fill="rgb(255, 165, 0)" style="fill-opacity:1.00" />
<rect height="0.096676" width="6.250000" x="313.750000" y="109.879888" fill="rgb(255, 165, 0)" style="fill-opacity:1.00" />
<!-- End 'G' -->
<!-- Begin 'A' -->
<polygon points=" 270.000000, 110.000000, 291.000000, 109.976563, 299.000000, 109.976563, 320.000000, 110.000000, 312.500000, 110.000000, 306.250000, 109.994141, 283.750000, 109.994141, 277.500000, 110.000000" fill="rgb(178, 34, 34)" style="fill-opacity:1.00" />
<!-- End 'A' -->
<!-- Begin 'C' -->
<ellipse cx="355.000000" cy="81.032561" rx="25.000000" ry="15.649204" fill="rgb(0, 0, 128)" style="fill-opacity:1.00" />
<ellipse cx="355.000000" cy="81.032561" rx="16.666667" ry="10.432803" fill="rgb(255, 255, 255)" style="fill-opacity:1.00" />
<rect height="15.649204" width="25.000000" x="355.000000" y="73.207959" fill="rgb(255, 255, 255)" style="fill-opacity:1.00" />
<!-- End 'C' -->
<!-- Begin 'T' -->
<rect height="1.716127" width="50.000000" x="330.000000" y="96.681765" fill="rgb(0, 100, 0)" style="fill-opacity:1.00" />
<rect height="10.725797" width="10.000000" x="350.000000" y="96.681765" fill="rgb(0, 100, 0)" style="fill-opacity:1.00" />
<!-- End 'T' -->
<!-- Begin 'G' -->
<ellipse cx="355.000000" cy="108.642586" rx="25.000000" ry="1.235024" fill="rgb(255, 165, 0)" style="fill-opacity:1.00" />
<ellipse cx="355.000000" cy="108.642586" rx="16.666667" ry="0.823350" fill="rgb(255, 255, 255)" style="fill-opacity:1.00" />
<rect height="1.235024" width="25.000000" x="355.000000" y="108.025074" fill="rgb(255, 255, 255)" style="fill-opacity:1.00" />
<rect height="0.308756" width="25.000000" x="355.000000" y="108.951342" fill="rgb(255, 165, 0)" style="fill-opacity:1.00" />
<rect height="0.926268" width="6.250000" x="373.750000" y="108.951342" fill="rgb(255, 165, 0)" style="fill-opacity:1.00" />
<!-- End 'G' -->
<!-- Begin 'A' -->
<polygon points=" 330.000000, 110.000000, 351.000000, 109.877610, 359.000000, 109.877610, 380.000000, 110.000000, 372.500000, 110.000000, 366.250000, 109.969403, 343.750000, 109.969403, 337.500000, 110.000000" fill="rgb(178, 34, 34)" style="fill-opacity:1.00" />
<!-- End 'A' -->
<!-- Begin 'C' -->
<ellipse cx="415.000000" cy="99.682130" rx="25.000000" ry="2.681609" fill="rgb(0, 0, 128)" style="fill-opacity:1.00" />
<ellipse cx="415.000000" cy="99.682130" rx="16.666667" ry="1.787739" fill="rgb(255, 255, 255)" style="fill-opacity:1.00" />
<rect height="2.681609" width="25.000000" x="415.000000" y="98.341325" fill="rgb(255, 255, 255)" style="fill-opacity:1.00" />
<!-- End 'C' -->
<!-- Begin 'T' -->
<rect height="0.687426" width="50.000000" x="390.000000" y="102.363738" fill="rgb(0, 100, 0)" style="fill-opacity:1.00" />
<rect height="4.296411" width="10.000000" x="410.000000" y="102.363738" fill="rgb(0, 100, 0)" style="fill-opacity:1.00" />
<!-- End 'T' -->
<!-- Begin 'G' -->
<ellipse cx="415.000000" cy="108.009060" rx="25.000000" ry="1.348911" fill="rgb(255, 165, 0)" style="fill-opacity:1.00" />
<ellipse cx="415.000000" cy="108.009060" rx="16.666667" ry="0.899274" fill="rgb(255, 255, 255)" style="fill-opacity:1.00" />
<rect height="1.348911" width="25.000000" x="415.000000" y="107.334604" fill="rgb(255, 255, 255)" style="fill-opacity:1.00" />
<rect height="0.337228" width="25.000000" x="415.000000" y="108.346287" fill="rgb(255, 165, 0)" style="fill-opacity:1.00" />
<rect height="1.011683" width="6.250000" x="433.750000" y="108.346287" fill="rgb(255, 165, 0)" style="fill-opacity:1.00" />
<!-- End 'G' -->
<!-- Begin 'A' -->
<polygon points=" 390.000000, 110.000000, 411.000000, 109.357970, 419.000000, 109.357970, 440.000000, 110.000000, 432.500000, 110.000000, 426.250000, 109.839493, 403.750000, 109.839493, 397.500000, 110.000000" fill="rgb(178, 34, 34)" style="fill-opacity:1.00" />
<!-- End 'A' -->
<!-- Begin 'C' -->
<ellipse cx="475.000000" cy="100.718300" rx="25.000000" ry="2.031254" fill="rgb(0, 0, 128)" style="fill-opacity:1.00" />
<ellipse cx="475.000000" cy="100.718300" rx="16.666667" ry="1.354169" fill="rgb(255, 255, 255)" style="fill-opacity:1.00" />
<rect height="2.031254" width="25.000000" x="475.000000" y="99.702673" fill="rgb(255, 255, 255)" style="fill-opacity:1.00" />
<!-- End 'C' -->
<!-- Begin 'A' -->
<polygon points=" 450.000000, 106.487624, 471.000000, 102.749553, 479.000000, 102.749553, 500.000000, 106.487624, 492.500000, 106.487624, 486.250000, 105.553106, 463.750000, 105.553106, 457.500000, 106.487624" fill="rgb(178, 34, 34)" style="fill-opacity:1.00" />
<!-- End 'A' -->
<!-- Begin 'G' -->
<ellipse cx="475.000000" cy="107.975799" rx="25.000000" ry="1.488175" fill="rgb(255, 165, 0)" style="fill-opacity:1.00" />
<ellipse cx="475.000000" cy="107.975799" rx="16.666667" ry="0.992117" fill="rgb(255, 255, 255)" style="fill-opacity:1.00" />
<rect height="1.488175" width="25.000000" x="475.000000" y="107.231712" fill="rgb(255, 255, 255)" style="fill-opacity:1.00" />
<rect height="0.372044" width="25.000000" x="475.000000" y="108.347843" fill="rgb(255, 165, 0)" style="fill-opacity:1.00" />
<rect height="1.116132" width="6.250000" x="493.750000" y="108.347843" fill="rgb(255, 165, 0)" style="fill-opacity:1.00" />
<!-- End 'G' -->
<!-- Begin 'T' -->
<rect height="0.085764" width="50.000000" x="450.000000" y="109.463975" fill="rgb(0, 100, 0)" style="fill-opacity:1.00" />
<rect height="0.536025" width="10.000000" x="470.000000" y="109.463975" fill="rgb(0, 100, 0)" style="fill-opacity:1.00" />
<!-- End 'T' -->
<!-- Begin 'G' -->
<ellipse cx="535.000000" cy="87.959301" rx="25.000000" ry="6.722700" fill="rgb(255, 165, 0)" style="fill-opacity:1.00" />
<ellipse cx="535.000000" cy="87.959301" rx="16.666667" ry="4.481800" fill="rgb(255, 255, 255)" style="fill-opacity:1.00" />
<rect height="6.722700" width="25.000000" x="535.000000" y="84.597951" fill="rgb(255, 255, 255)" style="fill-opacity:1.00" />
<rect height="1.680675" width="25.000000" x="535.000000" y="89.639976" fill="rgb(255, 165, 0)" style="fill-opacity:1.00" />
<rect height="5.042025" width="6.250000" x="553.750000" y="89.639976" fill="rgb(255, 165, 0)" style="fill-opacity:1.00" />
<!-- End 'G' -->
<!-- Begin 'A' -->
<polygon points=" 510.000000, 106.864653, 531.000000, 94.682001, 539.000000, 94.682001, 560.000000, 106.864653, 552.500000, 106.864653, 546.250000, 103.818990, 523.750000, 103.818990, 517.500000, 106.864653" fill="rgb(178, 34, 34)" style="fill-opacity:1.00" />
<polygon points=" 535.000000, 97.118531, 527.000000, 100.991592, 542.000000, 100.991592" fill="rgb(255, 255, 255)" style="fill-opacity:1.00" />
<!-- End 'A' -->
<!-- Begin 'C' -->
<ellipse cx="535.000000" cy="108.328293" rx="25.000000" ry="1.463640" fill="rgb(0, 0, 128)" style="fill-opacity:1.00" />
<ellipse cx="535.000000" cy="108.328293" rx="16.666667" ry="0.975760" fill="rgb(255, 255, 255)" style="fill-opacity:1.00" />
<rect height="1.463640" width="25.000000" x="535.000000" y="107.596473" fill="rgb(255, 255, 255)" style="fill-opacity:1.00" />
<!-- End 'C' -->
<!-- Begin 'T' -->
<rect height="0.033291" width="50.000000" x="510.000000" y="109.791934" fill="rgb(0, 100, 0)" style="fill-opacity:1.00" />
<rect height="0.208066" width="10.000000" x="530.000000" y="109.791934" fill="rgb(0, 100, 0)" style="fill-opacity:1.00" />
<!-- End 'T' -->
<!-- Begin 'G' -->
<ellipse cx="595.000000" cy="66.210745" rx="25.000000" ry="39.315157" fill="rgb(255, 165, 0)" style="fill-opacity:1.00" />
<ellipse cx="595.000000" cy="66.210745" rx="16.666667" ry="26.210104" fill="rgb(255, 255, 255)" style="fill-opacity:1.00" />
<rect height="39.315157" width="25.000000" x="595.000000" y="46.553167" fill="rgb(255, 255, 255)" style="fill-opacity:1.00" />
<rect height="9.828789" width="25.000000" x="595.000000" y="76.039534" fill="rgb(255, 165, 0)" style="fill-opacity:1.00" />
<rect height="29.486367" width="6.250000" x="613.750000" y="76.039534" fill="rgb(255, 165, 0)" style="fill-opacity:1.00" />
<!-- End 'G' -->
<!-- Begin 'A' -->
<polygon points=" 570.000000, 109.293563, 591.000000, 105.525902, 599.000000, 105.525902, 620.000000, 109.293563, 612.500000, 109.293563, 606.250000, 108.351648, 583.750000, 108.351648, 577.500000, 109.293563" fill="rgb(178, 34, 34)" style="fill-opacity:1.00" />
<!-- End 'A' -->
<!-- Begin 'C' -->
<ellipse cx="595.000000" cy="109.636970" rx="25.000000" ry="0.343407" fill="rgb(0, 0, 128)" style="fill-opacity:1.00" />
<ellipse cx="595.000000" cy="109.636970" rx="16.666667" ry="0.228938" fill="rgb(255, 255, 255)" style="fill-opacity:1.00" />
<rect height="0.343407" width="25.000000" x="595.000000" y="109.465267" fill="rgb(255, 255, 255)" style="fill-opacity:1.00" />
<!-- End 'C' -->
<!-- Begin 'T' -->
<rect height="0.003140" width="50.000000" x="570.000000" y="109.980377" fill="rgb(0, 100, 0)" style="fill-opacity:1.00" />
<rect height="0.019623" width="10.000000" x="590.000000" y="109.980377" fill="rgb(0, 100, 0)" style="fill-opacity:1.00" />
<!-- End 'T' -->
<!-- Begin 'G' -->
<ellipse cx="655.000000" cy="71.470281" rx="25.000000" ry="27.476167" fill="rgb(255, 165, 0)" style="fill-opacity:1.00" />
<ellipse cx="655.000000" cy="71.470281" rx="16.666667" ry="18.317445" fill="rgb(255, 255, 255)" style="fill-opacity:1.00" />
<rect height="27.476167" width="25.000000" x="655.000000" y="57.732198" fill="rgb(255, 255, 255)" style="fill-opacity:1.00" />
<rect height="6.869042" width="25.000000" x="655.000000" y="78.339323" fill="rgb(255, 165, 0)" style="fill-opacity:1.00" />
<rect height="20.607125" width="6.250000" x="673.750000" y="78.339323" fill="rgb(255, 165, 0)" style="fill-opacity:1.00" />
<!-- End 'G' -->
<!-- Begin 'C' -->
<ellipse cx="655.000000" cy="104.356654" rx="25.000000" ry="5.410206" fill="rgb(0, 0, 128)" style="fill-opacity:1.00" />
<ellipse cx="655.000000" cy="104.356654" rx="16.666667" ry="3.606804" fill="rgb(255, 255, 255)" style="fill-opacity:1.00" />
<rect height="5.410206" width="25.000000" x="655.000000" y="101.651551" fill="rgb(255, 255, 255)" style="fill-opacity:1.00" />
<!-- End 'C' -->
<!-- Begin 'T' -->
<rect height="0.024137" width="50.000000" x="630.000000" y="109.766861" fill="rgb(0, 100, 0)" style="fill-opacity:1.00" />
<rect height="0.150855" width="10.000000" x="650.000000" y="109.766861" fill="rgb(0, 100, 0)" style="fill-opacity:1.00" />
<!-- End 'T' -->
<!-- Begin 'A' -->
<polygon points=" 630.000000, 110.000000, 651.000000, 109.917715, 659.000000, 109.917715, 680.000000, 110.000000, 672.500000, 110.000000, 666.250000, 109.979429, 643.750000, 109.979429, 637.500000, 110.000000" fill="rgb(178, 34, 34)" style="fill-opacity:1.00" />
<!-- End 'A' -->
<!-- Begin 'C' -->
<ellipse cx="715.000000" cy="77.121886" rx="25.000000" ry="23.512869" fill="rgb(0, 0, 128)" style="fill-opacity:1.00" />
<ellipse cx="715.000000" cy="77.121886" rx="16.666667" ry="15.675246" fill="rgb(255, 255, 255)" style="fill-opacity:1.00" />
<rect height="23.512869" width="25.000000" x="715.000000" y="65.365451" fill="rgb(255, 255, 255)" style="fill-opacity:1.00" />
<!-- End 'C' -->
<!-- Begin 'G' -->
<ellipse cx="715.000000" cy="103.386822" rx="25.000000" ry="2.752068" fill="rgb(255, 165, 0)" style="fill-opacity:1.00" />
<ellipse cx="715.000000" cy="103.386822" rx="16.666667" ry="1.834712" fill="rgb(255, 255, 255)" style="fill-opacity:1.00" />
<rect height="2.752068" width="25.000000" x="715.000000" y="102.010788" fill="rgb(255, 255, 255)" style="fill-opacity:1.00" />
<rect height="0.688017" width="25.000000" x="715.000000" y="104.074839" fill="rgb(255, 165, 0)" style="fill-opacity:1.00" />
<rect height="2.064051" width="6.250000" x="733.750000" y="104.074839" fill="rgb(255, 165, 0)" style="fill-opacity:1.00" />
<!-- End 'G' -->
<!-- Begin 'T' -->
<rect height="0.426248" width="50.000000" x="690.000000" y="106.138890" fill="rgb(0, 100, 0)" style="fill-opacity:1.00" />
<rect height="2.664049" width="10.000000" x="710.000000" y="106.138890" fill="rgb(0, 100, 0)" style="fill-opacity:1.00" />
<!-- End 'T' -->
<!-- Begin 'A' -->
<polygon points=" 690.000000, 110.000000, 711.000000, 108.802939, 719.000000, 108.802939, 740.000000, 110.000000, 732.500000, 110.000000, 726.250000, 109.700735, 703.750000, 109.700735, 697.500000, 110.000000" fill="rgb(178, 34, 34)" style="fill-opacity:1.00" />
<!-- End 'A' -->
<!-- Begin 'A' -->
<polygon points=" 750.000000, 104.397687, 771.000000, 99.235614, 779.000000, 99.235614, 800.000000, 104.397687, 792.500000, 104.397687, 786.250000, 103.107169, 763.750000, 103.107169, 757.500000, 104.397687" fill="rgb(178, 34, 34)" style="fill-opacity:1.00" />
<!-- End 'A' -->
<!-- Begin 'G' -->
<ellipse cx="775.000000" cy="105.713036" rx="25.000000" ry="1.315349" fill="rgb(255, 165, 0)" style="fill-opacity:1.00" />
<ellipse cx="775.000000" cy="105.713036" rx="16.666667" ry="0.876899" fill="rgb(255, 255, 255)" style="fill-opacity:1.00" />
<rect height="1.315349" width="25.000000" x="775.000000" y="105.055362" fill="rgb(255, 255, 255)" style="fill-opacity:1.00" />
<rect height="0.328837" width="25.000000" x="775.000000" y="106.041874" fill="rgb(255, 165, 0)" style="fill-opacity:1.00" />
<rect height="0.986512" width="6.250000" x="793.750000" y="106.041874" fill="rgb(255, 165, 0)" style="fill-opacity:1.00" />
<!-- End 'G' -->
<!-- Begin 'T' -->
<rect height="0.288625" width="50.000000" x="750.000000" y="107.028385" fill="rgb(0, 100, 0)" style="fill-opacity:1.00" />
<rect height="1.803907" width="10.000000" x="770.000000" y="107.028385" fill="rgb(0, 100, 0)" style="fill-opacity:1.00" />
<!-- End 'T' -->
<!-- Begin 'C' -->
<ellipse cx="775.000000" cy="109.416146" rx="25.000000" ry="0.583854" fill="rgb(0, 0, 128)" style="fill-opacity:1.00" />
<ellipse cx="775.000000" cy="109.416146" rx="16.666667" ry="0.389236" fill="rgb(255, 255, 255)" style="fill-opacity:1.00" />
<rect height="0.583854" width="25.000000" x="775.000000" y="109.124219" fill="rgb(255, 255, 255)" style="fill-opacity:1.00" />
<!-- End 'C' -->
<text x="430.000000" y="165">
IC = 10.73
</text>

</svg>
