<?xml version="1.0" encoding="UTF-8" standalone="yes"?>
                 <!DOCTYPE svg PUBLIC "-//W3C//DTD SVG 1.0//EN" "http://www.w3.org/TR/2001/REC-SVG-20010904/DTD/svg10.dtd">
                 <svg height="170" width="960" xmlns="http://www.w3.org/2000/svg" xmlns:xlink="http://www.w3.org/1999/xlink">
                 <line x1="85" y1="120" x2="927" y2="120" style="stroke:rgb(99,99,99);stroke-width:2" />
<rect height="7.000000" width="2.000000" x="85.000000" y="120.000000" fill="rgb(0, 0, 0)" style="fill-opacity:1.00" />
<text x="107.000000" y="140">
1
</text>
<rect height="7.000000" width="2.000000" x="145.000000" y="120.000000" fill="rgb(0, 0, 0)" style="fill-opacity:1.00" />
<text x="167.000000" y="140">
2
</text>
<rect height="7.000000" width="2.000000" x="205.000000" y="120.000000" fill="rgb(0, 0, 0)" style="fill-opacity:1.00" />
<text x="227.000000" y="140">
3
</text>
<rect height="7.000000" width="2.000000" x="265.000000" y="120.000000" fill="rgb(0, 0, 0)" style="fill-opacity:1.00" />
<text x="287.000000" y="140">
4
</text>
<rect height="7.000000" width="2.000000" x="325.000000" y="120.000000" fill="rgb(0, 0, 0)" style="fill-opacity:1.00" />
<text x="347.000000" y="140">
5
</text>
<rect height="7.000000" width="2.000000" x="385.000000" y="120.000000" fill="rgb(0, 0, 0)" style="fill-opacity:1.00" />
<text x="407.000000" y="140">
6
</text>
<rect height="7.000000" width="2.000000" x="445.000000" y="120.000000" fill="rgb(0, 0, 0)" style="fill-opacity:1.00" />
<text x="467.000000" y="140">
7
</text>
<rect height="7.000000" width="2.000000" x="505.000000" y="120.000000" fill="rgb(0, 0, 0)" style="fill-opacity:1.00" />
<text x="527.000000" y="140">
8
</text>
<rect height="7.000000" width="2.000000" x="565.000000" y="120.000000" fill="rgb(0, 0, 0)" style="fill-opacity:1.00" />
<text x="587.000000" y="140">
9
</text>
<rect height="7.000000" width="2.000000" x="625.000000" y="120.000000" fill="rgb(0, 0, 0)" style="fill-opacity:1.00" />
<text x="647.000000" y="140">
10
</text>
<rect height="7.000000" width="2.000000" x="685.000000" y="120.000000" fill="rgb(0, 0, 0)" style="fill-opacity:1.00" />
<text x="707.000000" y="140">
11
</text>
<rect height="7.000000" width="2.000000" x="745.000000" y="120.000000" fill="rgb(0, 0, 0)" style="fill-opacity:1.00" />
<text x="767.000000" y="140">
12
</text>
<rect height="7.000000" width="2.000000" x="805.000000" y="120.000000" fill="rgb(0, 0, 0)" style="fill-opacity:1.00" />
<text x="827.000000" y="140">
13
</text>
<rect height="7.000000" width="2.000000" x="865.000000" y="120.000000" fill="rgb(0, 0, 0)" style="fill-opacity:1.00" />
<text x="887.000000" y="140">
14
</text>
<rect height="7.000000" width="2.000000" x="925.000000" y="120.000000" fill="rgb(0, 0, 0)" style="fill-opacity:1.00" />
<line x1="80" y1="112" x2="80" y2="10" style="stroke:rgb(99,99,99);stroke-width:2" />
<rect height="2.000000" width="7.000000" x="73.000000" y="110.000000" fill="rgb(0, 0, 0)" style="fill-opacity:1.00" />
<text x="63" y="115">
0
</text>
<rect height="2.000000" width="7.000000" x="73.000000" y="60.000000" fill="rgb(0, 0, 0)" style="fill-opacity:1.00" />
<text x="63" y="65">
1
</text>
<rect height="2.000000" width="7.000000" x="73.000000" y="10.000000" fill="rgb(0, 0, 0)" style="fill-opacity:1.00" />
<text x="63" y="15">
2
</text>
<text x="50" y="65"
transform="rotate(-90, 50, 70)">
bits
</text>
<!-- Begin 'G' -->
<ellipse cx="115.000000" cy="87.034220" rx="25.000000" ry="13.058501" fill="rgb(255, 165, 0)" style="fill-opacity:1.00" />
<ellipse cx="115.000000" cy="87.034220" rx="16.666667" ry="8.705667" fill="rgb(255, 255, 255)" style="fill-opacity:1.00" />
<rect height="13.058501" width="25.000000" x="115.000000" y="80.504969" fill="rgb(255, 255, 255)" style="fill-opacity:1.00" />
<rect height="3.264625" width="25.000000" x="115.000000" y="90.298845" fill="rgb(255, 165, 0)" style="fill-opacity:1.00" />
<rect height="9.793876" width="6.250000" x="133.750000" y="90.298845" fill="rgb(255, 165, 0)" style="fill-opacity:1.00" />
<!-- End 'G' -->
<!-- Begin 'A' -->
<polygon points=" 90.000000, 104.108994, 111.000000, 100.092721, 119.000000, 100.092721, 140.000000, 104.108994, 132.500000, 104.108994, 126.250000, 103.104926, 103.750000, 103.104926, 97.500000, 104.108994" fill="rgb(178, 34, 34)" style="fill-opacity:1.00" />
<!-- End 'A' -->
<!-- Begin 'T' -->
<rect height="0.500576" width="50.000000" x="90.000000" y="104.108994" fill="rgb(0, 100, 0)" style="fill-opacity:1.00" />
<rect height="3.128601" width="10.000000" x="110.000000" y="104.108994" fill="rgb(0, 100, 0)" style="fill-opacity:1.00" />
<!-- End 'T' -->
<!-- Begin 'C' -->
<ellipse cx="115.000000" cy="108.618798" rx="25.000000" ry="1.381202" fill="rgb(0, 0, 128)" style="fill-opacity:1.00" />
<ellipse cx="115.000000" cy="108.618798" rx="16.666667" ry="0.920802" fill="rgb(255, 255, 255)" style="fill-opacity:1.00" />
<rect height="1.381202" width="25.000000" x="115.000000" y="107.928197" fill="rgb(255, 255, 255)" style="fill-opacity:1.00" />
<!-- End 'C' -->
<!-- Begin 'T' -->
<rect height="2.424420" width="50.000000" x="150.000000" y="85.267209" fill="rgb(0, 100, 0)" style="fill-opacity:1.00" />
<rect height="15.152625" width="10.000000" x="170.000000" y="85.267209" fill="rgb(0, 100, 0)" style="fill-opacity:1.00" />
<!-- End 'T' -->
<!-- Begin 'G' -->
<ellipse cx="175.000000" cy="102.833344" rx="25.000000" ry="2.413510" fill="rgb(255, 165, 0)" style="fill-opacity:1.00" />
<ellipse cx="175.000000" cy="102.833344" rx="16.666667" ry="1.609007" fill="rgb(255, 255, 255)" style="fill-opacity:1.00" />
<rect height="2.413510" width="25.000000" x="175.000000" y="101.626589" fill="rgb(255, 255, 255)" style="fill-opacity:1.00" />
<rect height="0.603378" width="25.000000" x="175.000000" y="103.436722" fill="rgb(255, 165, 0)" style="fill-opacity:1.00" />
<rect height="1.810133" width="6.250000" x="193.750000" y="103.436722" fill="rgb(255, 165, 0)" style="fill-opacity:1.00" />
<!-- End 'G' -->
<!-- Begin 'C' -->
<ellipse cx="175.000000" cy="107.036743" rx="25.000000" ry="1.789888" fill="rgb(0, 0, 128)" style="fill-opacity:1.00" />
<ellipse cx="175.000000" cy="107.036743" rx="16.666667" ry="1.193259" fill="rgb(255, 255, 255)" style="fill-opacity:1.00" />
<rect height="1.789888" width="25.000000" x="175.000000" y="106.141799" fill="rgb(255, 255, 255)" style="fill-opacity:1.00" />
<!-- End 'C' -->
<!-- Begin 'A' -->
<polygon points=" 150.000000, 110.000000, 171.000000, 108.826631, 179.000000, 108.826631, 200.000000, 110.000000, 192.500000, 110.000000, 186.250000, 109.706658, 163.750000, 109.706658, 157.500000, 110.000000" fill="rgb(178, 34, 34)" style="fill-opacity:1.00" />
<!-- End 'A' -->
<!-- Begin 'T' -->
<rect height="1.404659" width="50.000000" x="210.000000" y="93.106998" fill="rgb(0, 100, 0)" style="fill-opacity:1.00" />
<rect height="8.779120" width="10.000000" x="230.000000" y="93.106998" fill="rgb(0, 100, 0)" style="fill-opacity:1.00" />
<!-- End 'T' -->
<!-- Begin 'C' -->
<ellipse cx="235.000000" cy="104.292901" rx="25.000000" ry="2.406784" fill="rgb(0, 0, 128)" style="fill-opacity:1.00" />
<ellipse cx="235.000000" cy="104.292901" rx="16.666667" ry="1.604522" fill="rgb(255, 255, 255)" style="fill-opacity:1.00" />
<rect height="2.406784" width="25.000000" x="235.000000" y="103.089509" fill="rgb(255, 255, 255)" style="fill-opacity:1.00" />
<!-- End 'C' -->
<!-- Begin 'A' -->
<polygon points=" 210.000000, 108.425342, 231.000000, 106.699685, 239.000000, 106.699685, 260.000000, 108.425342, 252.500000, 108.425342, 246.250000, 107.993928, 223.750000, 107.993928, 217.500000, 108.425342" fill="rgb(178, 34, 34)" style="fill-opacity:1.00" />
<!-- End 'A' -->
<!-- Begin 'G' -->
<ellipse cx="235.000000" cy="109.212671" rx="25.000000" ry="0.787329" fill="rgb(255, 165, 0)" style="fill-opacity:1.00" />
<ellipse cx="235.000000" cy="109.212671" rx="16.666667" ry="0.524886" fill="rgb(255, 255, 255)" style="fill-opacity:1.00" />
<rect height="0.787329" width="25.000000" x="235.000000" y="108.819006" fill="rgb(255, 255, 255)" style="fill-opacity:1.00" />
<rect height="0.196832" width="25.000000" x="235.000000" y="109.409503" fill="rgb(255, 165, 0)" style="fill-opacity:1.00" />
<rect height="0.590497" width="6.250000" x="253.750000" y="109.409503" fill="rgb(255, 165, 0)" style="fill-opacity:1.00" />
<!-- End 'G' -->
<!-- Begin 'G' -->
<ellipse cx="295.000000" cy="103.160432" rx="25.000000" ry="2.080525" fill="rgb(255, 165, 0)" style="fill-opacity:1.00" />
<ellipse cx="295.000000" cy="103.160432" rx="16.666667" ry="1.387017" fill="rgb(255, 255, 255)" style="fill-opacity:1.00" />
<rect height="2.080525" width="25.000000" x="295.000000" y="102.120169" fill="rgb(255, 255, 255)" style="fill-opacity:1.00" />
<rect height="0.520131" width="25.000000" x="295.000000" y="103.680563" fill="rgb(255, 165, 0)" style="fill-opacity:1.00" />
<rect height="1.560394" width="6.250000" x="313.750000" y="103.680563" fill="rgb(255, 165, 0)" style="fill-opacity:1.00" />
<!-- End 'G' -->
<!-- Begin 'T' -->
<rect height="0.338422" width="50.000000" x="270.000000" y="105.240957" fill="rgb(0, 100, 0)" style="fill-opacity:1.00" />
<rect height="2.115137" width="10.000000" x="290.000000" y="105.240957" fill="rgb(0, 100, 0)" style="fill-opacity:1.00" />
<!-- End 'T' -->
<!-- Begin 'A' -->
<polygon points=" 270.000000, 108.728781, 291.000000, 107.356094, 299.000000, 107.356094, 320.000000, 108.728781, 312.500000, 108.728781, 306.250000, 108.385609, 283.750000, 108.385609, 277.500000, 108.728781" fill="rgb(178, 34, 34)" style="fill-opacity:1.00" />
<!-- End 'A' -->
<!-- Begin 'C' -->
<ellipse cx="295.000000" cy="109.364391" rx="25.000000" ry="0.635609" fill="rgb(0, 0, 128)" style="fill-opacity:1.00" />
<ellipse cx="295.000000" cy="109.364391" rx="16.666667" ry="0.423740" fill="rgb(255, 255, 255)" style="fill-opacity:1.00" />
<rect height="0.635609" width="25.000000" x="295.000000" y="109.046586" fill="rgb(255, 255, 255)" style="fill-opacity:1.00" />
<!-- End 'C' -->
<!-- Begin 'C' -->
<ellipse cx="355.000000" cy="82.649388" rx="25.000000" ry="16.863136" fill="rgb(0, 0, 128)" style="fill-opacity:1.00" />
<ellipse cx="355.000000" cy="82.649388" rx="16.666667" ry="11.242090" fill="rgb(255, 255, 255)" style="fill-opacity:1.00" />
<rect height="16.863136" width="25.000000" x="355.000000" y="74.217820" fill="rgb(255, 255, 255)" style="fill-opacity:1.00" />
<!-- End 'C' -->
<!-- Begin 'T' -->
<rect height="0.873764" width="50.000000" x="330.000000" y="99.512524" fill="rgb(0, 100, 0)" style="fill-opacity:1.00" />
<rect height="5.461028" width="10.000000" x="350.000000" y="99.512524" fill="rgb(0, 100, 0)" style="fill-opacity:1.00" />
<!-- End 'T' -->
<!-- Begin 'G' -->
<ellipse cx="355.000000" cy="106.908491" rx="25.000000" ry="1.934940" fill="rgb(255, 165, 0)" style="fill-opacity:1.00" />
<ellipse cx="355.000000" cy="106.908491" rx="16.666667" ry="1.289960" fill="rgb(255, 255, 255)" style="fill-opacity:1.00" />
<rect height="1.934940" width="25.000000" x="355.000000" y="105.941021" fill="rgb(255, 255, 255)" style="fill-opacity:1.00" />
<rect height="0.483735" width="25.000000" x="355.000000" y="107.392226" fill="rgb(255, 165, 0)" style="fill-opacity:1.00" />
<rect height="1.451205" width="6.250000" x="373.750000" y="107.392226" fill="rgb(255, 165, 0)" style="fill-opacity:1.00" />
<!-- End 'G' -->
<!-- Begin 'A' -->
<polygon points=" 330.000000, 110.000000, 351.000000, 108.843431, 359.000000, 108.843431, 380.000000, 110.000000, 372.500000, 110.000000, 366.250000, 109.710858, 343.750000, 109.710858, 337.500000, 110.000000" fill="rgb(178, 34, 34)" style="fill-opacity:1.00" />
<!-- End 'A' -->
<!-- Begin 'C' -->
<ellipse cx="415.000000" cy="70.494349" rx="25.000000" ry="30.063771" fill="rgb(0, 0, 128)" style="fill-opacity:1.00" />
<ellipse cx="415.000000" cy="70.494349" rx="16.666667" ry="20.042514" fill="rgb(255, 255, 255)" style="fill-opacity:1.00" />
<rect height="30.063771" width="25.000000" x="415.000000" y="55.462463" fill="rgb(255, 255, 255)" style="fill-opacity:1.00" />
<!-- End 'C' -->
<!-- Begin 'T' -->
<rect height="1.455425" width="50.000000" x="390.000000" y="100.558120" fill="rgb(0, 100, 0)" style="fill-opacity:1.00" />
<rect height="9.096407" width="10.000000" x="410.000000" y="100.558120" fill="rgb(0, 100, 0)" style="fill-opacity:1.00" />
<!-- End 'T' -->
<!-- Begin 'G' -->
<ellipse cx="415.000000" cy="109.742463" rx="25.000000" ry="0.087936" fill="rgb(255, 165, 0)" style="fill-opacity:1.00" />
<ellipse cx="415.000000" cy="109.742463" rx="16.666667" ry="0.058624" fill="rgb(255, 255, 255)" style="fill-opacity:1.00" />
<rect height="0.087936" width="25.000000" x="415.000000" y="109.698495" fill="rgb(255, 255, 255)" style="fill-opacity:1.00" />
<rect height="0.021984" width="25.000000" x="415.000000" y="109.764447" fill="rgb(255, 165, 0)" style="fill-opacity:1.00" />
<rect height="0.065952" width="6.250000" x="433.750000" y="109.764447" fill="rgb(255, 165, 0)" style="fill-opacity:1.00" />
<!-- End 'G' -->
<!-- Begin 'A' -->
<polygon points=" 390.000000, 110.000000, 411.000000, 109.830399, 419.000000, 109.830399, 440.000000, 110.000000, 432.500000, 110.000000, 426.250000, 109.957600, 403.750000, 109.957600, 397.500000, 110.000000" fill="rgb(178, 34, 34)" style="fill-opacity:1.00" />
<!-- End 'A' -->
<!-- Begin 'A' -->
<polygon points=" 450.000000, 103.215656, 471.000000, 95.450918, 479.000000, 95.450918, 500.000000, 103.215656, 492.500000, 103.215656, 486.250000, 101.274471, 463.750000, 101.274471, 457.500000, 103.215656" fill="rgb(178, 34, 34)" style="fill-opacity:1.00" />
<!-- End 'A' -->
<!-- Begin 'C' -->
<ellipse cx="475.000000" cy="104.677878" rx="25.000000" ry="1.462222" fill="rgb(0, 0, 128)" style="fill-opacity:1.00" />
<ellipse cx="475.000000" cy="104.677878" rx="16.666667" ry="0.974815" fill="rgb(255, 255, 255)" style="fill-opacity:1.00" />
<rect height="1.462222" width="25.000000" x="475.000000" y="103.946767" fill="rgb(255, 255, 255)" style="fill-opacity:1.00" />
<!-- End 'C' -->
<!-- Begin 'T' -->
<rect height="0.388502" width="50.000000" x="450.000000" y="106.140101" fill="rgb(0, 100, 0)" style="fill-opacity:1.00" />
<rect height="2.428135" width="10.000000" x="470.000000" y="106.140101" fill="rgb(0, 100, 0)" style="fill-opacity:1.00" />
<!-- End 'T' -->
<!-- Begin 'G' -->
<ellipse cx="475.000000" cy="109.284118" rx="25.000000" ry="0.715882" fill="rgb(255, 165, 0)" style="fill-opacity:1.00" />
<ellipse cx="475.000000" cy="109.284118" rx="16.666667" ry="0.477255" fill="rgb(255, 255, 255)" style="fill-opacity:1.00" />
<rect height="0.715882" width="25.000000" x="475.000000" y="108.926177" fill="rgb(255, 255, 255)" style="fill-opacity:1.00" />
<rect height="0.178971" width="25.000000" x="475.000000" y="109.463088" fill="rgb(255, 165, 0)" style="fill-opacity:1.00" />
<rect height="0.536912" width="6.250000" x="493.750000" y="109.463088" fill="rgb(255, 165, 0)" style="fill-opacity:1.00" />
<!-- End 'G' -->
<!-- Begin 'T' -->
<rect height="2.173036" width="50.000000" x="510.000000" y="88.019864" fill="rgb(0, 100, 0)" style="fill-opacity:1.00" />
<rect height="13.581473" width="10.000000" x="530.000000" y="88.019864" fill="rgb(0, 100, 0)" style="fill-opacity:1.00" />
<!-- End 'T' -->
<!-- Begin 'A' -->
<polygon points=" 510.000000, 104.821754, 531.000000, 101.601336, 539.000000, 101.601336, 560.000000, 104.821754, 552.500000, 104.821754, 546.250000, 104.016650, 523.750000, 104.016650, 517.500000, 104.821754" fill="rgb(178, 34, 34)" style="fill-opacity:1.00" />
<!-- End 'A' -->
<!-- Begin 'G' -->
<ellipse cx="535.000000" cy="106.245284" rx="25.000000" ry="1.423530" fill="rgb(255, 165, 0)" style="fill-opacity:1.00" />
<ellipse cx="535.000000" cy="106.245284" rx="16.666667" ry="0.949020" fill="rgb(255, 255, 255)" style="fill-opacity:1.00" />
<rect height="1.423530" width="25.000000" x="535.000000" y="105.533519" fill="rgb(255, 255, 255)" style="fill-opacity:1.00" />
<rect height="0.355882" width="25.000000" x="535.000000" y="106.601166" fill="rgb(255, 165, 0)" style="fill-opacity:1.00" />
<rect height="1.067647" width="6.250000" x="553.750000" y="106.601166" fill="rgb(255, 165, 0)" style="fill-opacity:1.00" />
<!-- End 'G' -->
<!-- Begin 'C' -->
<ellipse cx="535.000000" cy="108.834407" rx="25.000000" ry="1.165593" fill="rgb(0, 0, 128)" style="fill-opacity:1.00" />
<ellipse cx="535.000000" cy="108.834407" rx="16.666667" ry="0.777062" fill="rgb(255, 255, 255)" style="fill-opacity:1.00" />
<rect height="1.165593" width="25.000000" x="535.000000" y="108.251610" fill="rgb(255, 255, 255)" style="fill-opacity:1.00" />
<!-- End 'C' -->
<!-- Begin 'G' -->
<ellipse cx="595.000000" cy="72.388425" rx="25.000000" ry="25.243059" fill="rgb(255, 165, 0)" style="fill-opacity:1.00" />
<ellipse cx="595.000000" cy="72.388425" rx="16.666667" ry="16.828706" fill="rgb(255, 255, 255)" style="fill-opacity:1.00" />
<rect height="25.243059" width="25.000000" x="595.000000" y="59.766895" fill="rgb(255, 255, 255)" style="fill-opacity:1.00" />
<rect height="6.310765" width="25.000000" x="595.000000" y="78.699190" fill="rgb(255, 165, 0)" style="fill-opacity:1.00" />
<rect height="18.932295" width="6.250000" x="613.750000" y="78.699190" fill="rgb(255, 165, 0)" style="fill-opacity:1.00" />
<!-- End 'G' -->
<!-- Begin 'A' -->
<polygon points=" 570.000000, 109.787551, 591.000000, 97.631485, 599.000000, 97.631485, 620.000000, 109.787551, 612.500000, 109.787551, 606.250000, 106.748535, 583.750000, 106.748535, 577.500000, 109.787551" fill="rgb(178, 34, 34)" style="fill-opacity:1.00" />
<polygon points=" 595.000000, 100.062698, 587.000000, 103.925125, 602.000000, 103.925125" fill="rgb(255, 255, 255)" style="fill-opacity:1.00" />
<!-- End 'A' -->
<!-- Begin 'C' -->
<ellipse cx="595.000000" cy="109.865740" rx="25.000000" ry="0.078189" fill="rgb(0, 0, 128)" style="fill-opacity:1.00" />
<ellipse cx="595.000000" cy="109.865740" rx="16.666667" ry="0.052126" fill="rgb(255, 255, 255)" style="fill-opacity:1.00" />
<rect height="0.078189" width="25.000000" x="595.000000" y="109.826646" fill="rgb(255, 255, 255)" style="fill-opacity:1.00" />
<!-- End 'C' -->
<!-- Begin 'T' -->
<rect height="0.008971" width="50.000000" x="570.000000" y="109.943928" fill="rgb(0, 100, 0)" style="fill-opacity:1.00" />
<rect height="0.056072" width="10.000000" x="590.000000" y="109.943928" fill="rgb(0, 100, 0)" style="fill-opacity:1.00" />
<!-- End 'T' -->
<!-- Begin 'G' -->
<ellipse cx="655.000000" cy="69.240775" rx="25.000000" ry="33.723412" fill="rgb(255, 165, 0)" style="fill-opacity:1.00" />
<ellipse cx="655.000000" cy="69.240775" rx="16.666667" ry="22.482275" fill="rgb(255, 255, 255)" style="fill-opacity:1.00" />
<rect height="33.723412" width="25.000000" x="655.000000" y="52.379069" fill="rgb(255, 255, 255)" style="fill-opacity:1.00" />
<rect height="8.430853" width="25.000000" x="655.000000" y="77.671628" fill="rgb(255, 165, 0)" style="fill-opacity:1.00" />
<rect height="25.292559" width="6.250000" x="673.750000" y="77.671628" fill="rgb(255, 165, 0)" style="fill-opacity:1.00" />
<!-- End 'G' -->
<!-- Begin 'A' -->
<polygon points=" 630.000000, 109.130174, 651.000000, 102.964187, 659.000000, 102.964187, 680.000000, 109.130174, 672.500000, 109.130174, 666.250000, 107.588677, 643.750000, 107.588677, 637.500000, 109.130174" fill="rgb(178, 34, 34)" style="fill-opacity:1.00" />
<!-- End 'A' -->
<!-- Begin 'C' -->
<ellipse cx="655.000000" cy="109.482779" rx="25.000000" ry="0.352605" fill="rgb(0, 0, 128)" style="fill-opacity:1.00" />
<ellipse cx="655.000000" cy="109.482779" rx="16.666667" ry="0.235070" fill="rgb(255, 255, 255)" style="fill-opacity:1.00" />
<rect height="0.352605" width="25.000000" x="655.000000" y="109.306476" fill="rgb(255, 255, 255)" style="fill-opacity:1.00" />
<!-- End 'C' -->
<!-- Begin 'T' -->
<rect height="0.026339" width="50.000000" x="630.000000" y="109.835384" fill="rgb(0, 100, 0)" style="fill-opacity:1.00" />
<rect height="0.164616" width="10.000000" x="650.000000" y="109.835384" fill="rgb(0, 100, 0)" style="fill-opacity:1.00" />
<!-- End 'T' -->
<!-- Begin 'C' -->
<ellipse cx="715.000000" cy="96.950175" rx="25.000000" ry="5.112537" fill="rgb(0, 0, 128)" style="fill-opacity:1.00" />
<ellipse cx="715.000000" cy="96.950175" rx="16.666667" ry="3.408358" fill="rgb(255, 255, 255)" style="fill-opacity:1.00" />
<rect height="5.112537" width="25.000000" x="715.000000" y="94.393907" fill="rgb(255, 255, 255)" style="fill-opacity:1.00" />
<!-- End 'C' -->
<!-- Begin 'A' -->
<polygon points=" 690.000000, 105.686821, 711.000000, 102.062712, 719.000000, 102.062712, 740.000000, 105.686821, 732.500000, 105.686821, 726.250000, 104.780794, 703.750000, 104.780794, 697.500000, 105.686821" fill="rgb(178, 34, 34)" style="fill-opacity:1.00" />
<!-- End 'A' -->
<!-- Begin 'T' -->
<rect height="0.472391" width="50.000000" x="690.000000" y="105.686821" fill="rgb(0, 100, 0)" style="fill-opacity:1.00" />
<rect height="2.952444" width="10.000000" x="710.000000" y="105.686821" fill="rgb(0, 100, 0)" style="fill-opacity:1.00" />
<!-- End 'T' -->
<!-- Begin 'G' -->
<ellipse cx="715.000000" cy="109.319632" rx="25.000000" ry="0.680368" fill="rgb(255, 165, 0)" style="fill-opacity:1.00" />
<ellipse cx="715.000000" cy="109.319632" rx="16.666667" ry="0.453578" fill="rgb(255, 255, 255)" style="fill-opacity:1.00" />
<rect height="0.680368" width="25.000000" x="715.000000" y="108.979449" fill="rgb(255, 255, 255)" style="fill-opacity:1.00" />
<rect height="0.170092" width="25.000000" x="715.000000" y="109.489724" fill="rgb(255, 165, 0)" style="fill-opacity:1.00" />
<rect height="0.510276" width="6.250000" x="733.750000" y="109.489724" fill="rgb(255, 165, 0)" style="fill-opacity:1.00" />
<!-- End 'G' -->
<!-- Begin 'A' -->
<polygon points=" 750.000000, 99.417682, 771.000000, 86.414797, 779.000000, 86.414797, 800.000000, 99.417682, 792.500000, 99.417682, 786.250000, 96.166961, 763.750000, 96.166961, 757.500000, 99.417682" fill="rgb(178, 34, 34)" style="fill-opacity:1.00" />
<polygon points=" 775.000000, 89.015374, 767.000000, 93.216528, 782.000000, 93.216528" fill="rgb(255, 255, 255)" style="fill-opacity:1.00" />
<!-- End 'A' -->
<!-- Begin 'G' -->
<ellipse cx="775.000000" cy="102.961731" rx="25.000000" ry="3.544049" fill="rgb(255, 165, 0)" style="fill-opacity:1.00" />
<ellipse cx="775.000000" cy="102.961731" rx="16.666667" ry="2.362699" fill="rgb(255, 255, 255)" style="fill-opacity:1.00" />
<rect height="3.544049" width="25.000000" x="775.000000" y="101.189707" fill="rgb(255, 255, 255)" style="fill-opacity:1.00" />
<rect height="0.886012" width="25.000000" x="775.000000" y="103.847744" fill="rgb(255, 165, 0)" style="fill-opacity:1.00" />
<rect height="2.658037" width="6.250000" x="793.750000" y="103.847744" fill="rgb(255, 165, 0)" style="fill-opacity:1.00" />
<!-- End 'G' -->
<!-- Begin 'T' -->
<rect height="0.406430" width="50.000000" x="750.000000" y="106.505780" fill="rgb(0, 100, 0)" style="fill-opacity:1.00" />
<rect height="2.540189" width="10.000000" x="770.000000" y="106.505780" fill="rgb(0, 100, 0)" style="fill-opacity:1.00" />
<!-- End 'T' -->
<!-- Begin 'C' -->
<ellipse cx="775.000000" cy="109.522984" rx="25.000000" ry="0.477016" fill="rgb(0, 0, 128)" style="fill-opacity:1.00" />
<ellipse cx="775.000000" cy="109.522984" rx="16.666667" ry="0.318010" fill="rgb(255, 255, 255)" style="fill-opacity:1.00" />
<rect height="0.477016" width="25.000000" x="775.000000" y="109.284477" fill="rgb(255, 255, 255)" style="fill-opacity:1.00" />
<!-- End 'C' -->
<!-- Begin 'A' -->
<polygon points=" 810.000000, 99.508229, 831.000000, 60.013943, 839.000000, 60.013943, 860.000000, 99.508229, 852.500000, 99.508229, 846.250000, 89.634658, 823.750000, 89.634658, 817.500000, 99.508229" fill="rgb(178, 34, 34)" style="fill-opacity:1.00" />
<polygon points=" 835.000000, 67.912801, 827.000000, 82.710515, 842.000000, 82.710515" fill="rgb(255, 255, 255)" style="fill-opacity:1.00" />
<!-- End 'A' -->
<!-- Begin 'G' -->
<ellipse cx="835.000000" cy="102.800728" rx="25.000000" ry="3.292499" fill="rgb(255, 165, 0)" style="fill-opacity:1.00" />
<ellipse cx="835.000000" cy="102.800728" rx="16.666667" ry="2.195000" fill="rgb(255, 255, 255)" style="fill-opacity:1.00" />
<rect height="3.292499" width="25.000000" x="835.000000" y="101.154479" fill="rgb(255, 255, 255)" style="fill-opacity:1.00" />
<rect height="0.823125" width="25.000000" x="835.000000" y="103.623853" fill="rgb(255, 165, 0)" style="fill-opacity:1.00" />
<rect height="2.469375" width="6.250000" x="853.750000" y="103.623853" fill="rgb(255, 165, 0)" style="fill-opacity:1.00" />
<!-- End 'G' -->
<!-- Begin 'C' -->
<ellipse cx="835.000000" cy="107.621384" rx="25.000000" ry="1.528156" fill="rgb(0, 0, 128)" style="fill-opacity:1.00" />
<ellipse cx="835.000000" cy="107.621384" rx="16.666667" ry="1.018771" fill="rgb(255, 255, 255)" style="fill-opacity:1.00" />
<rect height="1.528156" width="25.000000" x="835.000000" y="106.857306" fill="rgb(255, 255, 255)" style="fill-opacity:1.00" />
<!-- End 'C' -->
<!-- Begin 'T' -->
<rect height="0.136074" width="50.000000" x="810.000000" y="109.149540" fill="rgb(0, 100, 0)" style="fill-opacity:1.00" />
<rect height="0.850460" width="10.000000" x="830.000000" y="109.149540" fill="rgb(0, 100, 0)" style="fill-opacity:1.00" />
<!-- End 'T' -->
<!-- Begin 'C' -->
<ellipse cx="895.000000" cy="70.954778" rx="25.000000" ry="32.163393" fill="rgb(0, 0, 128)" style="fill-opacity:1.00" />
<ellipse cx="895.000000" cy="70.954778" rx="16.666667" ry="21.442262" fill="rgb(255, 255, 255)" style="fill-opacity:1.00" />
<rect height="32.163393" width="25.000000" x="895.000000" y="54.873082" fill="rgb(255, 255, 255)" style="fill-opacity:1.00" />
<!-- End 'C' -->
<!-- Begin 'T' -->
<rect height="0.751413" width="50.000000" x="870.000000" y="103.118171" fill="rgb(0, 100, 0)" style="fill-opacity:1.00" />
<rect height="4.696334" width="10.000000" x="890.000000" y="103.118171" fill="rgb(0, 100, 0)" style="fill-opacity:1.00" />
<!-- End 'T' -->
<!-- Begin 'G' -->
<ellipse cx="895.000000" cy="108.421473" rx="25.000000" ry="0.606968" fill="rgb(255, 165, 0)" style="fill-opacity:1.00" />
<ellipse cx="895.000000" cy="108.421473" rx="16.666667" ry="0.404645" fill="rgb(255, 255, 255)" style="fill-opacity:1.00" />
<rect height="0.606968" width="25.000000" x="895.000000" y="108.117989" fill="rgb(255, 255, 255)" style="fill-opacity:1.00" />
<rect height="0.151742" width="25.000000" x="895.000000" y="108.573215" fill="rgb(255, 165, 0)" style="fill-opacity:1.00" />
<rect height="0.455226" width="6.250000" x="913.750000" y="108.573215" fill="rgb(255, 165, 0)" style="fill-opacity:1.00" />
<!-- End 'G' -->
<!-- Begin 'A' -->
<polygon points=" 870.000000, 110.000000, 891.000000, 109.028441, 899.000000, 109.028441, 920.000000, 110.000000, 912.500000, 110.000000, 906.250000, 109.757110, 883.750000, 109.757110, 877.500000, 110.000000" fill="rgb(178, 34, 34)" style="fill-opacity:1.00" />
<!-- End 'A' -->
<text x="490.000000" y="165">
IC = 10.74
</text>

</svg>
