<?xml version="1.0" encoding="UTF-8" standalone="yes"?>
                 <!DOCTYPE svg PUBLIC "-//W3C//DTD SVG 1.0//EN" "http://www.w3.org/TR/2001/REC-SVG-20010904/DTD/svg10.dtd">
                 <svg height="170" width="600" xmlns="http://www.w3.org/2000/svg" xmlns:xlink="http://www.w3.org/1999/xlink">
                 <line x1="85" y1="120" x2="567" y2="120" style="stroke:rgb(99,99,99);stroke-width:2" />
<rect height="7.000000" width="2.000000" x="85.000000" y="120.000000" fill="rgb(0, 0, 0)" style="fill-opacity:1.00" />
<text x="107.000000" y="140">
1
</text>
<rect height="7.000000" width="2.000000" x="145.000000" y="120.000000" fill="rgb(0, 0, 0)" style="fill-opacity:1.00" />
<text x="167.000000" y="140">
2
</text>
<rect height="7.000000" width="2.000000" x="205.000000" y="120.000000" fill="rgb(0, 0, 0)" style="fill-opacity:1.00" />
<text x="227.000000" y="140">
3
</text>
<rect height="7.000000" width="2.000000" x="265.000000" y="120.000000" fill="rgb(0, 0, 0)" style="fill-opacity:1.00" />
<text x="287.000000" y="140">
4
</text>
<rect height="7.000000" width="2.000000" x="325.000000" y="120.000000" fill="rgb(0, 0, 0)" style="fill-opacity:1.00" />
<text x="347.000000" y="140">
5
</text>
<rect height="7.000000" width="2.000000" x="385.000000" y="120.000000" fill="rgb(0, 0, 0)" style="fill-opacity:1.00" />
<text x="407.000000" y="140">
6
</text>
<rect height="7.000000" width="2.000000" x="445.000000" y="120.000000" fill="rgb(0, 0, 0)" style="fill-opacity:1.00" />
<text x="467.000000" y="140">
7
</text>
<rect height="7.000000" width="2.000000" x="505.000000" y="120.000000" fill="rgb(0, 0, 0)" style="fill-opacity:1.00" />
<text x="527.000000" y="140">
8
</text>
<rect height="7.000000" width="2.000000" x="565.000000" y="120.000000" fill="rgb(0, 0, 0)" style="fill-opacity:1.00" />
<line x1="80" y1="112" x2="80" y2="10" style="stroke:rgb(99,99,99);stroke-width:2" />
<rect height="2.000000" width="7.000000" x="73.000000" y="110.000000" fill="rgb(0, 0, 0)" style="fill-opacity:1.00" />
<text x="63" y="115">
0
</text>
<rect height="2.000000" width="7.000000" x="73.000000" y="60.000000" fill="rgb(0, 0, 0)" style="fill-opacity:1.00" />
<text x="63" y="65">
1
</text>
<rect height="2.000000" width="7.000000" x="73.000000" y="10.000000" fill="rgb(0, 0, 0)" style="fill-opacity:1.00" />
<text x="63" y="15">
2
</text>
<text x="50" y="65"
transform="rotate(-90, 50, 70)">
bits
</text>
<!-- Begin 'C' -->
<ellipse cx="115.000000" cy="60.506599" rx="25.000000" ry="49.293158" fill="rgb(0, 0, 128)" style="fill-opacity:1.00" />
<ellipse cx="115.000000" cy="60.506599" rx="16.666667" ry="32.862105" fill="rgb(255, 255, 255)" style="fill-opacity:1.00" />
<rect height="49.293158" width="25.000000" x="115.000000" y="35.860020" fill="rgb(255, 255, 255)" style="fill-opacity:1.00" />
<!-- End 'C' -->
<!-- Begin 'T' -->
<rect height="0.010680" width="50.000000" x="90.000000" y="109.799757" fill="rgb(0, 100, 0)" style="fill-opacity:1.00" />
<rect height="0.066748" width="10.000000" x="110.000000" y="109.799757" fill="rgb(0, 100, 0)" style="fill-opacity:1.00" />
<!-- End 'T' -->
<!-- Begin 'G' -->
<ellipse cx="115.000000" cy="109.899878" rx="25.000000" ry="0.033374" fill="rgb(255, 165, 0)" style="fill-opacity:1.00" />
<ellipse cx="115.000000" cy="109.899878" rx="16.666667" ry="0.022249" fill="rgb(255, 255, 255)" style="fill-opacity:1.00" />
<rect height="0.033374" width="25.000000" x="115.000000" y="109.883192" fill="rgb(255, 255, 255)" style="fill-opacity:1.00" />
<rect height="0.008343" width="25.000000" x="115.000000" y="109.908222" fill="rgb(255, 165, 0)" style="fill-opacity:1.00" />
<rect height="0.025030" width="6.250000" x="133.750000" y="109.908222" fill="rgb(255, 165, 0)" style="fill-opacity:1.00" />
<!-- End 'G' -->
<!-- Begin 'A' -->
<polygon points=" 90.000000, 110.000000, 111.000000, 109.933252, 119.000000, 109.933252, 140.000000, 110.000000, 132.500000, 110.000000, 126.250000, 109.983313, 103.750000, 109.983313, 97.500000, 110.000000" fill="rgb(178, 34, 34)" style="fill-opacity:1.00" />
<!-- End 'A' -->
<!-- Begin 'C' -->
<ellipse cx="175.000000" cy="60.506599" rx="25.000000" ry="49.293158" fill="rgb(0, 0, 128)" style="fill-opacity:1.00" />
<ellipse cx="175.000000" cy="60.506599" rx="16.666667" ry="32.862105" fill="rgb(255, 255, 255)" style="fill-opacity:1.00" />
<rect height="49.293158" width="25.000000" x="175.000000" y="35.860020" fill="rgb(255, 255, 255)" style="fill-opacity:1.00" />
<!-- End 'C' -->
<!-- Begin 'T' -->
<rect height="0.010680" width="50.000000" x="150.000000" y="109.799757" fill="rgb(0, 100, 0)" style="fill-opacity:1.00" />
<rect height="0.066748" width="10.000000" x="170.000000" y="109.799757" fill="rgb(0, 100, 0)" style="fill-opacity:1.00" />
<!-- End 'T' -->
<!-- Begin 'G' -->
<ellipse cx="175.000000" cy="109.899878" rx="25.000000" ry="0.033374" fill="rgb(255, 165, 0)" style="fill-opacity:1.00" />
<ellipse cx="175.000000" cy="109.899878" rx="16.666667" ry="0.022249" fill="rgb(255, 255, 255)" style="fill-opacity:1.00" />
<rect height="0.033374" width="25.000000" x="175.000000" y="109.883192" fill="rgb(255, 255, 255)" style="fill-opacity:1.00" />
<rect height="0.008343" width="25.000000" x="175.000000" y="109.908222" fill="rgb(255, 165, 0)" style="fill-opacity:1.00" />
<rect height="0.025030" width="6.250000" x="193.750000" y="109.908222" fill="rgb(255, 165, 0)" style="fill-opacity:1.00" />
<!-- End 'G' -->
<!-- Begin 'A' -->
<polygon points=" 150.000000, 110.000000, 171.000000, 109.933252, 179.000000, 109.933252, 200.000000, 110.000000, 192.500000, 110.000000, 186.250000, 109.983313, 163.750000, 109.983313, 157.500000, 110.000000" fill="rgb(178, 34, 34)" style="fill-opacity:1.00" />
<!-- End 'A' -->
<!-- Begin 'T' -->
<rect height="4.330272" width="50.000000" x="210.000000" y="60.426963" fill="rgb(0, 100, 0)" style="fill-opacity:1.00" />
<rect height="27.064199" width="10.000000" x="230.000000" y="60.426963" fill="rgb(0, 100, 0)" style="fill-opacity:1.00" />
<!-- End 'T' -->
<!-- Begin 'A' -->
<polygon points=" 210.000000, 109.933009, 231.000000, 87.491162, 239.000000, 87.491162, 260.000000, 109.933009, 252.500000, 109.933009, 246.250000, 104.322547, 223.750000, 104.322547, 217.500000, 109.933009" fill="rgb(178, 34, 34)" style="fill-opacity:1.00" />
<polygon points=" 235.000000, 91.979531, 227.000000, 99.956270, 242.000000, 99.956270" fill="rgb(255, 255, 255)" style="fill-opacity:1.00" />
<!-- End 'A' -->
<!-- Begin 'G' -->
<ellipse cx="235.000000" cy="109.949757" rx="25.000000" ry="0.016748" fill="rgb(255, 165, 0)" style="fill-opacity:1.00" />
<ellipse cx="235.000000" cy="109.949757" rx="16.666667" ry="0.011165" fill="rgb(255, 255, 255)" style="fill-opacity:1.00" />
<rect height="0.016748" width="25.000000" x="235.000000" y="109.941383" fill="rgb(255, 255, 255)" style="fill-opacity:1.00" />
<rect height="0.004187" width="25.000000" x="235.000000" y="109.953944" fill="rgb(255, 165, 0)" style="fill-opacity:1.00" />
<rect height="0.012561" width="6.250000" x="253.750000" y="109.953944" fill="rgb(255, 165, 0)" style="fill-opacity:1.00" />
<!-- End 'G' -->
<!-- Begin 'C' -->
<ellipse cx="235.000000" cy="109.983252" rx="25.000000" ry="0.016748" fill="rgb(0, 0, 128)" style="fill-opacity:1.00" />
<ellipse cx="235.000000" cy="109.983252" rx="16.666667" ry="0.011165" fill="rgb(255, 255, 255)" style="fill-opacity:1.00" />
<rect height="0.016748" width="25.000000" x="235.000000" y="109.974879" fill="rgb(255, 255, 255)" style="fill-opacity:1.00" />
<!-- End 'C' -->
<!-- Begin 'T' -->
<rect height="15.773811" width="50.000000" x="270.000000" y="11.213441" fill="rgb(0, 100, 0)" style="fill-opacity:1.00" />
<rect height="98.586316" width="10.000000" x="290.000000" y="11.213441" fill="rgb(0, 100, 0)" style="fill-opacity:1.00" />
<!-- End 'T' -->
<!-- Begin 'G' -->
<ellipse cx="295.000000" cy="109.833131" rx="25.000000" ry="0.033374" fill="rgb(255, 165, 0)" style="fill-opacity:1.00" />
<ellipse cx="295.000000" cy="109.833131" rx="16.666667" ry="0.022249" fill="rgb(255, 255, 255)" style="fill-opacity:1.00" />
<rect height="0.033374" width="25.000000" x="295.000000" y="109.816444" fill="rgb(255, 255, 255)" style="fill-opacity:1.00" />
<rect height="0.008343" width="25.000000" x="295.000000" y="109.841474" fill="rgb(255, 165, 0)" style="fill-opacity:1.00" />
<rect height="0.025030" width="6.250000" x="313.750000" y="109.841474" fill="rgb(255, 165, 0)" style="fill-opacity:1.00" />
<!-- End 'G' -->
<!-- Begin 'C' -->
<ellipse cx="295.000000" cy="109.899878" rx="25.000000" ry="0.033374" fill="rgb(0, 0, 128)" style="fill-opacity:1.00" />
<ellipse cx="295.000000" cy="109.899878" rx="16.666667" ry="0.022249" fill="rgb(255, 255, 255)" style="fill-opacity:1.00" />
<rect height="0.033374" width="25.000000" x="295.000000" y="109.883192" fill="rgb(255, 255, 255)" style="fill-opacity:1.00" />
<!-- End 'C' -->
<!-- Begin 'A' -->
<polygon points=" 270.000000, 110.000000, 291.000000, 109.933252, 299.000000, 109.933252, 320.000000, 110.000000, 312.500000, 110.000000, 306.250000, 109.983313, 283.750000, 109.983313, 277.500000, 110.000000" fill="rgb(178, 34, 34)" style="fill-opacity:1.00" />
<!-- End 'A' -->
<!-- Begin 'T' -->
<rect height="15.773811" width="50.000000" x="330.000000" y="11.213441" fill="rgb(0, 100, 0)" style="fill-opacity:1.00" />
<rect height="98.586316" width="10.000000" x="350.000000" y="11.213441" fill="rgb(0, 100, 0)" style="fill-opacity:1.00" />
<!-- End 'T' -->
<!-- Begin 'G' -->
<ellipse cx="355.000000" cy="109.833131" rx="25.000000" ry="0.033374" fill="rgb(255, 165, 0)" style="fill-opacity:1.00" />
<ellipse cx="355.000000" cy="109.833131" rx="16.666667" ry="0.022249" fill="rgb(255, 255, 255)" style="fill-opacity:1.00" />
<rect height="0.033374" width="25.000000" x="355.000000" y="109.816444" fill="rgb(255, 255, 255)" style="fill-opacity:1.00" />
<rect height="0.008343" width="25.000000" x="355.000000" y="109.841474" fill="rgb(255, 165, 0)" style="fill-opacity:1.00" />
<rect height="0.025030" width="6.250000" x="373.750000" y="109.841474" fill="rgb(255, 165, 0)" style="fill-opacity:1.00" />
<!-- End 'G' -->
<!-- Begin 'C' -->
<ellipse cx="355.000000" cy="109.899878" rx="25.000000" ry="0.033374" fill="rgb(0, 0, 128)" style="fill-opacity:1.00" />
<ellipse cx="355.000000" cy="109.899878" rx="16.666667" ry="0.022249" fill="rgb(255, 255, 255)" style="fill-opacity:1.00" />
<rect height="0.033374" width="25.000000" x="355.000000" y="109.883192" fill="rgb(255, 255, 255)" style="fill-opacity:1.00" />
<!-- End 'C' -->
<!-- Begin 'A' -->
<polygon points=" 330.000000, 110.000000, 351.000000, 109.933252, 359.000000, 109.933252, 380.000000, 110.000000, 372.500000, 110.000000, 366.250000, 109.983313, 343.750000, 109.983313, 337.500000, 110.000000" fill="rgb(178, 34, 34)" style="fill-opacity:1.00" />
<!-- End 'A' -->
<!-- Begin 'G' -->
<ellipse cx="415.000000" cy="60.506599" rx="25.000000" ry="49.293158" fill="rgb(255, 165, 0)" style="fill-opacity:1.00" />
<ellipse cx="415.000000" cy="60.506599" rx="16.666667" ry="32.862105" fill="rgb(255, 255, 255)" style="fill-opacity:1.00" />
<rect height="49.293158" width="25.000000" x="415.000000" y="35.860020" fill="rgb(255, 255, 255)" style="fill-opacity:1.00" />
<rect height="12.323290" width="25.000000" x="415.000000" y="72.829888" fill="rgb(255, 165, 0)" style="fill-opacity:1.00" />
<rect height="36.969869" width="6.250000" x="433.750000" y="72.829888" fill="rgb(255, 165, 0)" style="fill-opacity:1.00" />
<!-- End 'G' -->
<!-- Begin 'T' -->
<rect height="0.010680" width="50.000000" x="390.000000" y="109.799757" fill="rgb(0, 100, 0)" style="fill-opacity:1.00" />
<rect height="0.066748" width="10.000000" x="410.000000" y="109.799757" fill="rgb(0, 100, 0)" style="fill-opacity:1.00" />
<!-- End 'T' -->
<!-- Begin 'C' -->
<ellipse cx="415.000000" cy="109.899878" rx="25.000000" ry="0.033374" fill="rgb(0, 0, 128)" style="fill-opacity:1.00" />
<ellipse cx="415.000000" cy="109.899878" rx="16.666667" ry="0.022249" fill="rgb(255, 255, 255)" style="fill-opacity:1.00" />
<rect height="0.033374" width="25.000000" x="415.000000" y="109.883192" fill="rgb(255, 255, 255)" style="fill-opacity:1.00" />
<!-- End 'C' -->
<!-- Begin 'A' -->
<polygon points=" 390.000000, 110.000000, 411.000000, 109.933252, 419.000000, 109.933252, 440.000000, 110.000000, 432.500000, 110.000000, 426.250000, 109.983313, 403.750000, 109.983313, 397.500000, 110.000000" fill="rgb(178, 34, 34)" style="fill-opacity:1.00" />
<!-- End 'A' -->
<!-- Begin 'T' -->
<rect height="15.773811" width="50.000000" x="450.000000" y="11.213441" fill="rgb(0, 100, 0)" style="fill-opacity:1.00" />
<rect height="98.586316" width="10.000000" x="470.000000" y="11.213441" fill="rgb(0, 100, 0)" style="fill-opacity:1.00" />
<!-- End 'T' -->
<!-- Begin 'G' -->
<ellipse cx="475.000000" cy="109.833131" rx="25.000000" ry="0.033374" fill="rgb(255, 165, 0)" style="fill-opacity:1.00" />
<ellipse cx="475.000000" cy="109.833131" rx="16.666667" ry="0.022249" fill="rgb(255, 255, 255)" style="fill-opacity:1.00" />
<rect height="0.033374" width="25.000000" x="475.000000" y="109.816444" fill="rgb(255, 255, 255)" style="fill-opacity:1.00" />
<rect height="0.008343" width="25.000000" x="475.000000" y="109.841474" fill="rgb(255, 165, 0)" style="fill-opacity:1.00" />
<rect height="0.025030" width="6.250000" x="493.750000" y="109.841474" fill="rgb(255, 165, 0)" style="fill-opacity:1.00" />
<!-- End 'G' -->
<!-- Begin 'C' -->
<ellipse cx="475.000000" cy="109.899878" rx="25.000000" ry="0.033374" fill="rgb(0, 0, 128)" style="fill-opacity:1.00" />
<ellipse cx="475.000000" cy="109.899878" rx="16.666667" ry="0.022249" fill="rgb(255, 255, 255)" style="fill-opacity:1.00" />
<rect height="0.033374" width="25.000000" x="475.000000" y="109.883192" fill="rgb(255, 255, 255)" style="fill-opacity:1.00" />
<!-- End 'C' -->
<!-- Begin 'A' -->
<polygon points=" 450.000000, 110.000000, 471.000000, 109.933252, 479.000000, 109.933252, 500.000000, 110.000000, 492.500000, 110.000000, 486.250000, 109.983313, 463.750000, 109.983313, 457.500000, 110.000000" fill="rgb(178, 34, 34)" style="fill-opacity:1.00" />
<!-- End 'A' -->
<!-- Begin 'T' -->
<rect height="2.131674" width="50.000000" x="510.000000" y="84.089374" fill="rgb(0, 100, 0)" style="fill-opacity:1.00" />
<rect height="13.322964" width="10.000000" x="530.000000" y="84.089374" fill="rgb(0, 100, 0)" style="fill-opacity:1.00" />
<!-- End 'T' -->
<!-- Begin 'C' -->
<ellipse cx="535.000000" cy="101.088845" rx="25.000000" ry="3.676508" fill="rgb(0, 0, 128)" style="fill-opacity:1.00" />
<ellipse cx="535.000000" cy="101.088845" rx="16.666667" ry="2.451005" fill="rgb(255, 255, 255)" style="fill-opacity:1.00" />
<rect height="3.676508" width="25.000000" x="535.000000" y="99.250592" fill="rgb(255, 255, 255)" style="fill-opacity:1.00" />
<!-- End 'C' -->
<!-- Begin 'G' -->
<ellipse cx="535.000000" cy="107.373923" rx="25.000000" ry="2.608570" fill="rgb(255, 165, 0)" style="fill-opacity:1.00" />
<ellipse cx="535.000000" cy="107.373923" rx="16.666667" ry="1.739047" fill="rgb(255, 255, 255)" style="fill-opacity:1.00" />
<rect height="2.608570" width="25.000000" x="535.000000" y="106.069638" fill="rgb(255, 255, 255)" style="fill-opacity:1.00" />
<rect height="0.652142" width="25.000000" x="535.000000" y="108.026065" fill="rgb(255, 165, 0)" style="fill-opacity:1.00" />
<rect height="1.956427" width="6.250000" x="553.750000" y="108.026065" fill="rgb(255, 165, 0)" style="fill-opacity:1.00" />
<!-- End 'G' -->
<!-- Begin 'A' -->
<polygon points=" 510.000000, 110.000000, 531.000000, 109.982493, 539.000000, 109.982493, 560.000000, 110.000000, 552.500000, 110.000000, 546.250000, 109.995623, 523.750000, 109.995623, 517.500000, 110.000000" fill="rgb(178, 34, 34)" style="fill-opacity:1.00" />
<!-- End 'A' -->
<text x="310.000000" y="165">
IC = 13.36
</text>

</svg>
