<?xml version="1.0" encoding="UTF-8" standalone="yes"?>
                 <!DOCTYPE svg PUBLIC "-//W3C//DTD SVG 1.0//EN" "http://www.w3.org/TR/2001/REC-SVG-20010904/DTD/svg10.dtd">
                 <svg height="170" width="780" xmlns="http://www.w3.org/2000/svg" xmlns:xlink="http://www.w3.org/1999/xlink">
                 <line x1="85" y1="120" x2="747" y2="120" style="stroke:rgb(99,99,99);stroke-width:2" />
<rect height="7.000000" width="2.000000" x="85.000000" y="120.000000" fill="rgb(0, 0, 0)" style="fill-opacity:1.00" />
<text x="107.000000" y="140">
1
</text>
<rect height="7.000000" width="2.000000" x="145.000000" y="120.000000" fill="rgb(0, 0, 0)" style="fill-opacity:1.00" />
<text x="167.000000" y="140">
2
</text>
<rect height="7.000000" width="2.000000" x="205.000000" y="120.000000" fill="rgb(0, 0, 0)" style="fill-opacity:1.00" />
<text x="227.000000" y="140">
3
</text>
<rect height="7.000000" width="2.000000" x="265.000000" y="120.000000" fill="rgb(0, 0, 0)" style="fill-opacity:1.00" />
<text x="287.000000" y="140">
4
</text>
<rect height="7.000000" width="2.000000" x="325.000000" y="120.000000" fill="rgb(0, 0, 0)" style="fill-opacity:1.00" />
<text x="347.000000" y="140">
5
</text>
<rect height="7.000000" width="2.000000" x="385.000000" y="120.000000" fill="rgb(0, 0, 0)" style="fill-opacity:1.00" />
<text x="407.000000" y="140">
6
</text>
<rect height="7.000000" width="2.000000" x="445.000000" y="120.000000" fill="rgb(0, 0, 0)" style="fill-opacity:1.00" />
<text x="467.000000" y="140">
7
</text>
<rect height="7.000000" width="2.000000" x="505.000000" y="120.000000" fill="rgb(0, 0, 0)" style="fill-opacity:1.00" />
<text x="527.000000" y="140">
8
</text>
<rect height="7.000000" width="2.000000" x="565.000000" y="120.000000" fill="rgb(0, 0, 0)" style="fill-opacity:1.00" />
<text x="587.000000" y="140">
9
</text>
<rect height="7.000000" width="2.000000" x="625.000000" y="120.000000" fill="rgb(0, 0, 0)" style="fill-opacity:1.00" />
<text x="647.000000" y="140">
10
</text>
<rect height="7.000000" width="2.000000" x="685.000000" y="120.000000" fill="rgb(0, 0, 0)" style="fill-opacity:1.00" />
<text x="707.000000" y="140">
11
</text>
<rect height="7.000000" width="2.000000" x="745.000000" y="120.000000" fill="rgb(0, 0, 0)" style="fill-opacity:1.00" />
<line x1="80" y1="112" x2="80" y2="10" style="stroke:rgb(99,99,99);stroke-width:2" />
<rect height="2.000000" width="7.000000" x="73.000000" y="110.000000" fill="rgb(0, 0, 0)" style="fill-opacity:1.00" />
<text x="63" y="115">
0
</text>
<rect height="2.000000" width="7.000000" x="73.000000" y="60.000000" fill="rgb(0, 0, 0)" style="fill-opacity:1.00" />
<text x="63" y="65">
1
</text>
<rect height="2.000000" width="7.000000" x="73.000000" y="10.000000" fill="rgb(0, 0, 0)" style="fill-opacity:1.00" />
<text x="63" y="15">
2
</text>
<text x="50" y="65"
transform="rotate(-90, 50, 70)">
bits
</text>
<!-- Begin 'T' -->
<rect height="1.259835" width="50.000000" x="90.000000" y="93.838372" fill="rgb(0, 100, 0)" style="fill-opacity:1.00" />
<rect height="7.873969" width="10.000000" x="110.000000" y="93.838372" fill="rgb(0, 100, 0)" style="fill-opacity:1.00" />
<!-- End 'T' -->
<!-- Begin 'A' -->
<polygon points=" 90.000000, 105.841846, 111.000000, 101.712341, 119.000000, 101.712341, 140.000000, 105.841846, 132.500000, 105.841846, 126.250000, 104.809469, 103.750000, 104.809469, 97.500000, 105.841846" fill="rgb(178, 34, 34)" style="fill-opacity:1.00" />
<!-- End 'A' -->
<!-- Begin 'C' -->
<ellipse cx="115.000000" cy="107.584038" rx="25.000000" ry="1.742192" fill="rgb(0, 0, 128)" style="fill-opacity:1.00" />
<ellipse cx="115.000000" cy="107.584038" rx="16.666667" ry="1.161462" fill="rgb(255, 255, 255)" style="fill-opacity:1.00" />
<rect height="1.742192" width="25.000000" x="115.000000" y="106.712942" fill="rgb(255, 255, 255)" style="fill-opacity:1.00" />
<!-- End 'C' -->
<!-- Begin 'G' -->
<ellipse cx="115.000000" cy="109.663115" rx="25.000000" ry="0.336885" fill="rgb(255, 165, 0)" style="fill-opacity:1.00" />
<ellipse cx="115.000000" cy="109.663115" rx="16.666667" ry="0.224590" fill="rgb(255, 255, 255)" style="fill-opacity:1.00" />
<rect height="0.336885" width="25.000000" x="115.000000" y="109.494673" fill="rgb(255, 255, 255)" style="fill-opacity:1.00" />
<rect height="0.084221" width="25.000000" x="115.000000" y="109.747336" fill="rgb(255, 165, 0)" style="fill-opacity:1.00" />
<rect height="0.252664" width="6.250000" x="133.750000" y="109.747336" fill="rgb(255, 165, 0)" style="fill-opacity:1.00" />
<!-- End 'G' -->
<!-- Begin 'A' -->
<polygon points=" 150.000000, 99.862967, 171.000000, 78.709959, 179.000000, 78.709959, 200.000000, 99.862967, 192.500000, 99.862967, 186.250000, 94.574715, 163.750000, 94.574715, 157.500000, 99.862967" fill="rgb(178, 34, 34)" style="fill-opacity:1.00" />
<polygon points=" 175.000000, 82.940560, 167.000000, 90.401764, 182.000000, 90.401764" fill="rgb(255, 255, 255)" style="fill-opacity:1.00" />
<!-- End 'A' -->
<!-- Begin 'T' -->
<rect height="0.746474" width="50.000000" x="150.000000" y="99.862967" fill="rgb(0, 100, 0)" style="fill-opacity:1.00" />
<rect height="4.665464" width="10.000000" x="170.000000" y="99.862967" fill="rgb(0, 100, 0)" style="fill-opacity:1.00" />
<!-- End 'T' -->
<!-- Begin 'G' -->
<ellipse cx="175.000000" cy="106.568328" rx="25.000000" ry="2.039897" fill="rgb(255, 165, 0)" style="fill-opacity:1.00" />
<ellipse cx="175.000000" cy="106.568328" rx="16.666667" ry="1.359931" fill="rgb(255, 255, 255)" style="fill-opacity:1.00" />
<rect height="2.039897" width="25.000000" x="175.000000" y="105.548380" fill="rgb(255, 255, 255)" style="fill-opacity:1.00" />
<rect height="0.509974" width="25.000000" x="175.000000" y="107.078302" fill="rgb(255, 165, 0)" style="fill-opacity:1.00" />
<rect height="1.529923" width="6.250000" x="193.750000" y="107.078302" fill="rgb(255, 165, 0)" style="fill-opacity:1.00" />
<!-- End 'G' -->
<!-- Begin 'C' -->
<ellipse cx="175.000000" cy="109.304112" rx="25.000000" ry="0.695888" fill="rgb(0, 0, 128)" style="fill-opacity:1.00" />
<ellipse cx="175.000000" cy="109.304112" rx="16.666667" ry="0.463925" fill="rgb(255, 255, 255)" style="fill-opacity:1.00" />
<rect height="0.695888" width="25.000000" x="175.000000" y="108.956169" fill="rgb(255, 255, 255)" style="fill-opacity:1.00" />
<!-- End 'C' -->
<!-- Begin 'A' -->
<polygon points=" 210.000000, 99.844895, 231.000000, 83.953306, 239.000000, 83.953306, 260.000000, 99.844895, 252.500000, 99.844895, 246.250000, 95.871998, 223.750000, 95.871998, 217.500000, 99.844895" fill="rgb(178, 34, 34)" style="fill-opacity:1.00" />
<polygon points=" 235.000000, 87.131624, 227.000000, 92.488260, 242.000000, 92.488260" fill="rgb(255, 255, 255)" style="fill-opacity:1.00" />
<!-- End 'A' -->
<!-- Begin 'G' -->
<ellipse cx="235.000000" cy="102.829494" rx="25.000000" ry="2.984599" fill="rgb(255, 165, 0)" style="fill-opacity:1.00" />
<ellipse cx="235.000000" cy="102.829494" rx="16.666667" ry="1.989732" fill="rgb(255, 255, 255)" style="fill-opacity:1.00" />
<rect height="2.984599" width="25.000000" x="235.000000" y="101.337194" fill="rgb(255, 255, 255)" style="fill-opacity:1.00" />
<rect height="0.746150" width="25.000000" x="235.000000" y="103.575643" fill="rgb(255, 165, 0)" style="fill-opacity:1.00" />
<rect height="2.238449" width="6.250000" x="253.750000" y="103.575643" fill="rgb(255, 165, 0)" style="fill-opacity:1.00" />
<!-- End 'G' -->
<!-- Begin 'T' -->
<rect height="0.494736" width="50.000000" x="210.000000" y="105.814092" fill="rgb(0, 100, 0)" style="fill-opacity:1.00" />
<rect height="3.092100" width="10.000000" x="230.000000" y="105.814092" fill="rgb(0, 100, 0)" style="fill-opacity:1.00" />
<!-- End 'T' -->
<!-- Begin 'C' -->
<ellipse cx="235.000000" cy="109.453096" rx="25.000000" ry="0.546904" fill="rgb(0, 0, 128)" style="fill-opacity:1.00" />
<ellipse cx="235.000000" cy="109.453096" rx="16.666667" ry="0.364602" fill="rgb(255, 255, 255)" style="fill-opacity:1.00" />
<rect height="0.546904" width="25.000000" x="235.000000" y="109.179644" fill="rgb(255, 255, 255)" style="fill-opacity:1.00" />
<!-- End 'C' -->
<!-- Begin 'C' -->
<ellipse cx="295.000000" cy="70.747341" rx="25.000000" ry="28.593262" fill="rgb(0, 0, 128)" style="fill-opacity:1.00" />
<ellipse cx="295.000000" cy="70.747341" rx="16.666667" ry="19.062174" fill="rgb(255, 255, 255)" style="fill-opacity:1.00" />
<rect height="28.593262" width="25.000000" x="295.000000" y="56.450711" fill="rgb(255, 255, 255)" style="fill-opacity:1.00" />
<!-- End 'C' -->
<!-- Begin 'T' -->
<rect height="1.685503" width="50.000000" x="270.000000" y="99.340603" fill="rgb(0, 100, 0)" style="fill-opacity:1.00" />
<rect height="10.534391" width="10.000000" x="290.000000" y="99.340603" fill="rgb(0, 100, 0)" style="fill-opacity:1.00" />
<!-- End 'T' -->
<!-- Begin 'A' -->
<polygon points=" 270.000000, 109.977089, 291.000000, 109.874994, 299.000000, 109.874994, 320.000000, 109.977089, 312.500000, 109.977089, 306.250000, 109.951565, 283.750000, 109.951565, 277.500000, 109.977089" fill="rgb(178, 34, 34)" style="fill-opacity:1.00" />
<!-- End 'A' -->
<!-- Begin 'G' -->
<ellipse cx="295.000000" cy="109.988545" rx="25.000000" ry="0.011455" fill="rgb(255, 165, 0)" style="fill-opacity:1.00" />
<ellipse cx="295.000000" cy="109.988545" rx="16.666667" ry="0.007637" fill="rgb(255, 255, 255)" style="fill-opacity:1.00" />
<rect height="0.011455" width="25.000000" x="295.000000" y="109.982817" fill="rgb(255, 255, 255)" style="fill-opacity:1.00" />
<rect height="0.002864" width="25.000000" x="295.000000" y="109.991408" fill="rgb(255, 165, 0)" style="fill-opacity:1.00" />
<rect height="0.008592" width="6.250000" x="313.750000" y="109.991408" fill="rgb(255, 165, 0)" style="fill-opacity:1.00" />
<!-- End 'G' -->
<!-- Begin 'T' -->
<rect height="0.257999" width="50.000000" x="330.000000" y="105.659696" fill="rgb(0, 100, 0)" style="fill-opacity:1.00" />
<rect height="1.612491" width="10.000000" x="350.000000" y="105.659696" fill="rgb(0, 100, 0)" style="fill-opacity:1.00" />
<!-- End 'T' -->
<!-- Begin 'C' -->
<ellipse cx="355.000000" cy="107.889204" rx="25.000000" ry="0.617017" fill="rgb(0, 0, 128)" style="fill-opacity:1.00" />
<ellipse cx="355.000000" cy="107.889204" rx="16.666667" ry="0.411344" fill="rgb(255, 255, 255)" style="fill-opacity:1.00" />
<rect height="0.617017" width="25.000000" x="355.000000" y="107.580696" fill="rgb(255, 255, 255)" style="fill-opacity:1.00" />
<!-- End 'C' -->
<!-- Begin 'G' -->
<ellipse cx="355.000000" cy="108.942963" rx="25.000000" ry="0.436743" fill="rgb(255, 165, 0)" style="fill-opacity:1.00" />
<ellipse cx="355.000000" cy="108.942963" rx="16.666667" ry="0.291162" fill="rgb(255, 255, 255)" style="fill-opacity:1.00" />
<rect height="0.436743" width="25.000000" x="355.000000" y="108.724592" fill="rgb(255, 255, 255)" style="fill-opacity:1.00" />
<rect height="0.109186" width="25.000000" x="355.000000" y="109.052149" fill="rgb(255, 165, 0)" style="fill-opacity:1.00" />
<rect height="0.327557" width="6.250000" x="373.750000" y="109.052149" fill="rgb(255, 165, 0)" style="fill-opacity:1.00" />
<!-- End 'G' -->
<!-- Begin 'A' -->
<polygon points=" 330.000000, 110.000000, 351.000000, 109.379706, 359.000000, 109.379706, 380.000000, 110.000000, 372.500000, 110.000000, 366.250000, 109.844926, 343.750000, 109.844926, 337.500000, 110.000000" fill="rgb(178, 34, 34)" style="fill-opacity:1.00" />
<!-- End 'A' -->
<!-- Begin 'G' -->
<ellipse cx="415.000000" cy="78.571838" rx="25.000000" ry="14.944973" fill="rgb(255, 165, 0)" style="fill-opacity:1.00" />
<ellipse cx="415.000000" cy="78.571838" rx="16.666667" ry="9.963316" fill="rgb(255, 255, 255)" style="fill-opacity:1.00" />
<rect height="14.944973" width="25.000000" x="415.000000" y="71.099351" fill="rgb(255, 255, 255)" style="fill-opacity:1.00" />
<rect height="3.736243" width="25.000000" x="415.000000" y="82.308081" fill="rgb(255, 165, 0)" style="fill-opacity:1.00" />
<rect height="11.208730" width="6.250000" x="433.750000" y="82.308081" fill="rgb(255, 165, 0)" style="fill-opacity:1.00" />
<!-- End 'G' -->
<!-- Begin 'A' -->
<polygon points=" 390.000000, 108.995638, 411.000000, 93.516811, 419.000000, 93.516811, 440.000000, 108.995638, 432.500000, 108.995638, 426.250000, 105.125931, 403.750000, 105.125931, 397.500000, 108.995638" fill="rgb(178, 34, 34)" style="fill-opacity:1.00" />
<polygon points=" 415.000000, 96.612576, 407.000000, 101.804107, 422.000000, 101.804107" fill="rgb(255, 255, 255)" style="fill-opacity:1.00" />
<!-- End 'A' -->
<!-- Begin 'T' -->
<rect height="0.127191" width="50.000000" x="390.000000" y="108.995638" fill="rgb(0, 100, 0)" style="fill-opacity:1.00" />
<rect height="0.794941" width="10.000000" x="410.000000" y="108.995638" fill="rgb(0, 100, 0)" style="fill-opacity:1.00" />
<!-- End 'T' -->
<!-- Begin 'C' -->
<ellipse cx="415.000000" cy="109.895290" rx="25.000000" ry="0.104710" fill="rgb(0, 0, 128)" style="fill-opacity:1.00" />
<ellipse cx="415.000000" cy="109.895290" rx="16.666667" ry="0.069807" fill="rgb(255, 255, 255)" style="fill-opacity:1.00" />
<rect height="0.104710" width="25.000000" x="415.000000" y="109.842934" fill="rgb(255, 255, 255)" style="fill-opacity:1.00" />
<!-- End 'C' -->
<!-- Begin 'T' -->
<rect height="0.677219" width="50.000000" x="450.000000" y="99.673109" fill="rgb(0, 100, 0)" style="fill-opacity:1.00" />
<rect height="4.232616" width="10.000000" x="470.000000" y="99.673109" fill="rgb(0, 100, 0)" style="fill-opacity:1.00" />
<!-- End 'T' -->
<!-- Begin 'A' -->
<polygon points=" 450.000000, 107.409294, 471.000000, 103.905725, 479.000000, 103.905725, 500.000000, 107.409294, 492.500000, 107.409294, 486.250000, 106.533402, 463.750000, 106.533402, 457.500000, 107.409294" fill="rgb(178, 34, 34)" style="fill-opacity:1.00" />
<!-- End 'A' -->
<!-- Begin 'C' -->
<ellipse cx="475.000000" cy="108.238360" rx="25.000000" ry="0.829066" fill="rgb(0, 0, 128)" style="fill-opacity:1.00" />
<ellipse cx="475.000000" cy="108.238360" rx="16.666667" ry="0.552711" fill="rgb(255, 255, 255)" style="fill-opacity:1.00" />
<rect height="0.829066" width="25.000000" x="475.000000" y="107.823827" fill="rgb(255, 255, 255)" style="fill-opacity:1.00" />
<!-- End 'C' -->
<!-- Begin 'G' -->
<ellipse cx="475.000000" cy="109.533713" rx="25.000000" ry="0.466287" fill="rgb(255, 165, 0)" style="fill-opacity:1.00" />
<ellipse cx="475.000000" cy="109.533713" rx="16.666667" ry="0.310858" fill="rgb(255, 255, 255)" style="fill-opacity:1.00" />
<rect height="0.466287" width="25.000000" x="475.000000" y="109.300570" fill="rgb(255, 255, 255)" style="fill-opacity:1.00" />
<rect height="0.116572" width="25.000000" x="475.000000" y="109.650285" fill="rgb(255, 165, 0)" style="fill-opacity:1.00" />
<rect height="0.349715" width="6.250000" x="493.750000" y="109.650285" fill="rgb(255, 165, 0)" style="fill-opacity:1.00" />
<!-- End 'G' -->
<!-- Begin 'T' -->
<rect height="1.175862" width="50.000000" x="510.000000" y="93.941033" fill="rgb(0, 100, 0)" style="fill-opacity:1.00" />
<rect height="7.349137" width="10.000000" x="530.000000" y="93.941033" fill="rgb(0, 100, 0)" style="fill-opacity:1.00" />
<!-- End 'T' -->
<!-- Begin 'A' -->
<polygon points=" 510.000000, 106.339204, 531.000000, 101.290170, 539.000000, 101.290170, 560.000000, 106.339204, 552.500000, 106.339204, 546.250000, 105.076945, 523.750000, 105.076945, 517.500000, 106.339204" fill="rgb(178, 34, 34)" style="fill-opacity:1.00" />
<!-- End 'A' -->
<!-- Begin 'C' -->
<ellipse cx="535.000000" cy="107.852453" rx="25.000000" ry="1.513250" fill="rgb(0, 0, 128)" style="fill-opacity:1.00" />
<ellipse cx="535.000000" cy="107.852453" rx="16.666667" ry="1.008833" fill="rgb(255, 255, 255)" style="fill-opacity:1.00" />
<rect height="1.513250" width="25.000000" x="535.000000" y="107.095828" fill="rgb(255, 255, 255)" style="fill-opacity:1.00" />
<!-- End 'C' -->
<!-- Begin 'G' -->
<ellipse cx="535.000000" cy="109.682851" rx="25.000000" ry="0.317149" fill="rgb(255, 165, 0)" style="fill-opacity:1.00" />
<ellipse cx="535.000000" cy="109.682851" rx="16.666667" ry="0.211432" fill="rgb(255, 255, 255)" style="fill-opacity:1.00" />
<rect height="0.317149" width="25.000000" x="535.000000" y="109.524277" fill="rgb(255, 255, 255)" style="fill-opacity:1.00" />
<rect height="0.079287" width="25.000000" x="535.000000" y="109.762138" fill="rgb(255, 165, 0)" style="fill-opacity:1.00" />
<rect height="0.237862" width="6.250000" x="553.750000" y="109.762138" fill="rgb(255, 165, 0)" style="fill-opacity:1.00" />
<!-- End 'G' -->
<!-- Begin 'A' -->
<polygon points=" 570.000000, 104.939296, 591.000000, 101.278471, 599.000000, 101.278471, 620.000000, 104.939296, 612.500000, 104.939296, 606.250000, 104.024090, 583.750000, 104.024090, 577.500000, 104.939296" fill="rgb(178, 34, 34)" style="fill-opacity:1.00" />
<!-- End 'A' -->
<!-- Begin 'T' -->
<rect height="0.433936" width="50.000000" x="570.000000" y="104.939296" fill="rgb(0, 100, 0)" style="fill-opacity:1.00" />
<rect height="2.712101" width="10.000000" x="590.000000" y="104.939296" fill="rgb(0, 100, 0)" style="fill-opacity:1.00" />
<!-- End 'T' -->
<!-- Begin 'G' -->
<ellipse cx="595.000000" cy="108.313178" rx="25.000000" ry="0.661781" fill="rgb(255, 165, 0)" style="fill-opacity:1.00" />
<ellipse cx="595.000000" cy="108.313178" rx="16.666667" ry="0.441187" fill="rgb(255, 255, 255)" style="fill-opacity:1.00" />
<rect height="0.661781" width="25.000000" x="595.000000" y="107.982288" fill="rgb(255, 255, 255)" style="fill-opacity:1.00" />
<rect height="0.165445" width="25.000000" x="595.000000" y="108.478623" fill="rgb(255, 165, 0)" style="fill-opacity:1.00" />
<rect height="0.496336" width="6.250000" x="613.750000" y="108.478623" fill="rgb(255, 165, 0)" style="fill-opacity:1.00" />
<!-- End 'G' -->
<!-- Begin 'C' -->
<ellipse cx="595.000000" cy="109.487479" rx="25.000000" ry="0.512521" fill="rgb(0, 0, 128)" style="fill-opacity:1.00" />
<ellipse cx="595.000000" cy="109.487479" rx="16.666667" ry="0.341680" fill="rgb(255, 255, 255)" style="fill-opacity:1.00" />
<rect height="0.512521" width="25.000000" x="595.000000" y="109.231219" fill="rgb(255, 255, 255)" style="fill-opacity:1.00" />
<!-- End 'C' -->
<!-- Begin 'A' -->
<polygon points=" 630.000000, 107.754888, 651.000000, 106.658238, 659.000000, 106.658238, 680.000000, 107.754888, 672.500000, 107.754888, 666.250000, 107.480726, 643.750000, 107.480726, 637.500000, 107.754888" fill="rgb(178, 34, 34)" style="fill-opacity:1.00" />
<!-- End 'A' -->
<!-- Begin 'T' -->
<rect height="0.166476" width="50.000000" x="630.000000" y="107.754888" fill="rgb(0, 100, 0)" style="fill-opacity:1.00" />
<rect height="1.040478" width="10.000000" x="650.000000" y="107.754888" fill="rgb(0, 100, 0)" style="fill-opacity:1.00" />
<!-- End 'T' -->
<!-- Begin 'C' -->
<ellipse cx="655.000000" cy="109.154200" rx="25.000000" ry="0.358834" fill="rgb(0, 0, 128)" style="fill-opacity:1.00" />
<ellipse cx="655.000000" cy="109.154200" rx="16.666667" ry="0.239223" fill="rgb(255, 255, 255)" style="fill-opacity:1.00" />
<rect height="0.358834" width="25.000000" x="655.000000" y="108.974783" fill="rgb(255, 255, 255)" style="fill-opacity:1.00" />
<!-- End 'C' -->
<!-- Begin 'G' -->
<ellipse cx="655.000000" cy="109.756517" rx="25.000000" ry="0.243483" fill="rgb(255, 165, 0)" style="fill-opacity:1.00" />
<ellipse cx="655.000000" cy="109.756517" rx="16.666667" ry="0.162322" fill="rgb(255, 255, 255)" style="fill-opacity:1.00" />
<rect height="0.243483" width="25.000000" x="655.000000" y="109.634776" fill="rgb(255, 255, 255)" style="fill-opacity:1.00" />
<rect height="0.060871" width="25.000000" x="655.000000" y="109.817388" fill="rgb(255, 165, 0)" style="fill-opacity:1.00" />
<rect height="0.182612" width="6.250000" x="673.750000" y="109.817388" fill="rgb(255, 165, 0)" style="fill-opacity:1.00" />
<!-- End 'G' -->
<!-- Begin 'A' -->
<polygon points=" 690.000000, 107.352904, 711.000000, 105.855364, 719.000000, 105.855364, 740.000000, 107.352904, 732.500000, 107.352904, 726.250000, 106.978519, 703.750000, 106.978519, 697.500000, 107.352904" fill="rgb(178, 34, 34)" style="fill-opacity:1.00" />
<!-- End 'A' -->
<!-- Begin 'T' -->
<rect height="0.199883" width="50.000000" x="690.000000" y="107.352904" fill="rgb(0, 100, 0)" style="fill-opacity:1.00" />
<rect height="1.249272" width="10.000000" x="710.000000" y="107.352904" fill="rgb(0, 100, 0)" style="fill-opacity:1.00" />
<!-- End 'T' -->
<!-- Begin 'G' -->
<ellipse cx="715.000000" cy="108.975706" rx="25.000000" ry="0.373530" fill="rgb(255, 165, 0)" style="fill-opacity:1.00" />
<ellipse cx="715.000000" cy="108.975706" rx="16.666667" ry="0.249020" fill="rgb(255, 255, 255)" style="fill-opacity:1.00" />
<rect height="0.373530" width="25.000000" x="715.000000" y="108.788941" fill="rgb(255, 255, 255)" style="fill-opacity:1.00" />
<rect height="0.093383" width="25.000000" x="715.000000" y="109.069088" fill="rgb(255, 165, 0)" style="fill-opacity:1.00" />
<rect height="0.280148" width="6.250000" x="733.750000" y="109.069088" fill="rgb(255, 165, 0)" style="fill-opacity:1.00" />
<!-- End 'G' -->
<!-- Begin 'C' -->
<ellipse cx="715.000000" cy="109.674618" rx="25.000000" ry="0.325382" fill="rgb(0, 0, 128)" style="fill-opacity:1.00" />
<ellipse cx="715.000000" cy="109.674618" rx="16.666667" ry="0.216921" fill="rgb(255, 255, 255)" style="fill-opacity:1.00" />
<rect height="0.325382" width="25.000000" x="715.000000" y="109.511927" fill="rgb(255, 255, 255)" style="fill-opacity:1.00" />
<!-- End 'C' -->
<text x="400.000000" y="165">
IC = 4.69
</text>

</svg>
