<?xml version="1.0" encoding="UTF-8" standalone="yes"?>
                 <!DOCTYPE svg PUBLIC "-//W3C//DTD SVG 1.0//EN" "http://www.w3.org/TR/2001/REC-SVG-20010904/DTD/svg10.dtd">
                 <svg height="170" width="840" xmlns="http://www.w3.org/2000/svg" xmlns:xlink="http://www.w3.org/1999/xlink">
                 <line x1="85" y1="120" x2="807" y2="120" style="stroke:rgb(99,99,99);stroke-width:2" />
<rect height="7.000000" width="2.000000" x="85.000000" y="120.000000" fill="rgb(0, 0, 0)" style="fill-opacity:1.00" />
<text x="107.000000" y="140">
1
</text>
<rect height="7.000000" width="2.000000" x="145.000000" y="120.000000" fill="rgb(0, 0, 0)" style="fill-opacity:1.00" />
<text x="167.000000" y="140">
2
</text>
<rect height="7.000000" width="2.000000" x="205.000000" y="120.000000" fill="rgb(0, 0, 0)" style="fill-opacity:1.00" />
<text x="227.000000" y="140">
3
</text>
<rect height="7.000000" width="2.000000" x="265.000000" y="120.000000" fill="rgb(0, 0, 0)" style="fill-opacity:1.00" />
<text x="287.000000" y="140">
4
</text>
<rect height="7.000000" width="2.000000" x="325.000000" y="120.000000" fill="rgb(0, 0, 0)" style="fill-opacity:1.00" />
<text x="347.000000" y="140">
5
</text>
<rect height="7.000000" width="2.000000" x="385.000000" y="120.000000" fill="rgb(0, 0, 0)" style="fill-opacity:1.00" />
<text x="407.000000" y="140">
6
</text>
<rect height="7.000000" width="2.000000" x="445.000000" y="120.000000" fill="rgb(0, 0, 0)" style="fill-opacity:1.00" />
<text x="467.000000" y="140">
7
</text>
<rect height="7.000000" width="2.000000" x="505.000000" y="120.000000" fill="rgb(0, 0, 0)" style="fill-opacity:1.00" />
<text x="527.000000" y="140">
8
</text>
<rect height="7.000000" width="2.000000" x="565.000000" y="120.000000" fill="rgb(0, 0, 0)" style="fill-opacity:1.00" />
<text x="587.000000" y="140">
9
</text>
<rect height="7.000000" width="2.000000" x="625.000000" y="120.000000" fill="rgb(0, 0, 0)" style="fill-opacity:1.00" />
<text x="647.000000" y="140">
10
</text>
<rect height="7.000000" width="2.000000" x="685.000000" y="120.000000" fill="rgb(0, 0, 0)" style="fill-opacity:1.00" />
<text x="707.000000" y="140">
11
</text>
<rect height="7.000000" width="2.000000" x="745.000000" y="120.000000" fill="rgb(0, 0, 0)" style="fill-opacity:1.00" />
<text x="767.000000" y="140">
12
</text>
<rect height="7.000000" width="2.000000" x="805.000000" y="120.000000" fill="rgb(0, 0, 0)" style="fill-opacity:1.00" />
<line x1="80" y1="112" x2="80" y2="10" style="stroke:rgb(99,99,99);stroke-width:2" />
<rect height="2.000000" width="7.000000" x="73.000000" y="110.000000" fill="rgb(0, 0, 0)" style="fill-opacity:1.00" />
<text x="63" y="115">
0
</text>
<rect height="2.000000" width="7.000000" x="73.000000" y="60.000000" fill="rgb(0, 0, 0)" style="fill-opacity:1.00" />
<text x="63" y="65">
1
</text>
<rect height="2.000000" width="7.000000" x="73.000000" y="10.000000" fill="rgb(0, 0, 0)" style="fill-opacity:1.00" />
<text x="63" y="15">
2
</text>
<text x="50" y="65"
transform="rotate(-90, 50, 70)">
bits
</text>
<!-- Begin 'G' -->
<ellipse cx="115.000000" cy="106.994060" rx="25.000000" ry="0.720602" fill="rgb(255, 165, 0)" style="fill-opacity:1.00" />
<ellipse cx="115.000000" cy="106.994060" rx="16.666667" ry="0.480401" fill="rgb(255, 255, 255)" style="fill-opacity:1.00" />
<rect height="0.720602" width="25.000000" x="115.000000" y="106.633759" fill="rgb(255, 255, 255)" style="fill-opacity:1.00" />
<rect height="0.180151" width="25.000000" x="115.000000" y="107.174210" fill="rgb(255, 165, 0)" style="fill-opacity:1.00" />
<rect height="0.540452" width="6.250000" x="133.750000" y="107.174210" fill="rgb(255, 165, 0)" style="fill-opacity:1.00" />
<!-- End 'G' -->
<!-- Begin 'T' -->
<rect height="0.144944" width="50.000000" x="90.000000" y="107.714662" fill="rgb(0, 100, 0)" style="fill-opacity:1.00" />
<rect height="0.905900" width="10.000000" x="110.000000" y="107.714662" fill="rgb(0, 100, 0)" style="fill-opacity:1.00" />
<!-- End 'T' -->
<!-- Begin 'C' -->
<ellipse cx="115.000000" cy="108.991157" rx="25.000000" ry="0.370595" fill="rgb(0, 0, 128)" style="fill-opacity:1.00" />
<ellipse cx="115.000000" cy="108.991157" rx="16.666667" ry="0.247064" fill="rgb(255, 255, 255)" style="fill-opacity:1.00" />
<rect height="0.370595" width="25.000000" x="115.000000" y="108.805859" fill="rgb(255, 255, 255)" style="fill-opacity:1.00" />
<!-- End 'C' -->
<!-- Begin 'A' -->
<polygon points=" 90.000000, 110.000000, 111.000000, 109.361752, 119.000000, 109.361752, 140.000000, 110.000000, 132.500000, 110.000000, 126.250000, 109.840438, 103.750000, 109.840438, 97.500000, 110.000000" fill="rgb(178, 34, 34)" style="fill-opacity:1.00" />
<!-- End 'A' -->
<!-- Begin 'G' -->
<ellipse cx="175.000000" cy="95.669277" rx="25.000000" ry="13.863417" fill="rgb(255, 165, 0)" style="fill-opacity:1.00" />
<ellipse cx="175.000000" cy="95.669277" rx="16.666667" ry="9.242278" fill="rgb(255, 255, 255)" style="fill-opacity:1.00" />
<rect height="13.863417" width="25.000000" x="175.000000" y="88.737568" fill="rgb(255, 255, 255)" style="fill-opacity:1.00" />
<rect height="3.465854" width="25.000000" x="175.000000" y="99.135131" fill="rgb(255, 165, 0)" style="fill-opacity:1.00" />
<rect height="10.397563" width="6.250000" x="193.750000" y="99.135131" fill="rgb(255, 165, 0)" style="fill-opacity:1.00" />
<!-- End 'G' -->
<!-- Begin 'A' -->
<polygon points=" 150.000000, 117.009593, 171.000000, 109.532694, 179.000000, 109.532694, 200.000000, 117.009593, 192.500000, 117.009593, 186.250000, 115.140368, 163.750000, 115.140368, 157.500000, 117.009593" fill="rgb(178, 34, 34)" style="fill-opacity:1.00" />
<!-- End 'A' -->
<!-- Begin 'C' -->
<ellipse cx="175.000000" cy="120.124967" rx="25.000000" ry="3.115375" fill="rgb(0, 0, 128)" style="fill-opacity:1.00" />
<ellipse cx="175.000000" cy="120.124967" rx="16.666667" ry="2.076916" fill="rgb(255, 255, 255)" style="fill-opacity:1.00" />
<rect height="3.115375" width="25.000000" x="175.000000" y="118.567280" fill="rgb(255, 255, 255)" style="fill-opacity:1.00" />
<!-- End 'C' -->
<!-- Begin 'T' -->
<rect height="0.722767" width="50.000000" x="150.000000" y="123.240342" fill="rgb(0, 100, 0)" style="fill-opacity:1.00" />
<rect height="4.517293" width="10.000000" x="170.000000" y="123.240342" fill="rgb(0, 100, 0)" style="fill-opacity:1.00" />
<!-- End 'T' -->
<!-- Begin 'C' -->
<ellipse cx="235.000000" cy="84.749052" rx="25.000000" ry="101.900342" fill="rgb(0, 0, 128)" style="fill-opacity:1.00" />
<ellipse cx="235.000000" cy="84.749052" rx="16.666667" ry="67.933562" fill="rgb(255, 255, 255)" style="fill-opacity:1.00" />
<rect height="101.900342" width="25.000000" x="235.000000" y="33.798881" fill="rgb(255, 255, 255)" style="fill-opacity:1.00" />
<!-- End 'C' -->
<!-- Begin 'G' -->
<ellipse cx="235.000000" cy="196.953924" rx="25.000000" ry="10.304529" fill="rgb(255, 165, 0)" style="fill-opacity:1.00" />
<ellipse cx="235.000000" cy="196.953924" rx="16.666667" ry="6.869686" fill="rgb(255, 255, 255)" style="fill-opacity:1.00" />
<rect height="10.304529" width="25.000000" x="235.000000" y="191.801659" fill="rgb(255, 255, 255)" style="fill-opacity:1.00" />
<rect height="2.576132" width="25.000000" x="235.000000" y="199.530056" fill="rgb(255, 165, 0)" style="fill-opacity:1.00" />
<rect height="7.728397" width="6.250000" x="253.750000" y="199.530056" fill="rgb(255, 165, 0)" style="fill-opacity:1.00" />
<!-- End 'G' -->
<!-- Begin 'T' -->
<rect height="0.183192" width="50.000000" x="210.000000" y="207.258453" fill="rgb(0, 100, 0)" style="fill-opacity:1.00" />
<rect height="1.144948" width="10.000000" x="230.000000" y="207.258453" fill="rgb(0, 100, 0)" style="fill-opacity:1.00" />
<!-- End 'T' -->
<!-- Begin 'A' -->
<polygon points=" 210.000000, 209.548348, 231.000000, 208.403401, 239.000000, 208.403401, 260.000000, 209.548348, 252.500000, 209.548348, 246.250000, 209.262111, 223.750000, 209.262111, 217.500000, 209.548348" fill="rgb(178, 34, 34)" style="fill-opacity:1.00" />
<!-- End 'A' -->
<!-- Begin 'G' -->
<ellipse cx="295.000000" cy="92.667320" rx="25.000000" ry="123.218656" fill="rgb(255, 165, 0)" style="fill-opacity:1.00" />
<ellipse cx="295.000000" cy="92.667320" rx="16.666667" ry="82.145771" fill="rgb(255, 255, 255)" style="fill-opacity:1.00" />
<rect height="123.218656" width="25.000000" x="295.000000" y="31.057992" fill="rgb(255, 255, 255)" style="fill-opacity:1.00" />
<rect height="30.804664" width="25.000000" x="295.000000" y="123.471984" fill="rgb(255, 165, 0)" style="fill-opacity:1.00" />
<rect height="92.413992" width="6.250000" x="313.750000" y="123.471984" fill="rgb(255, 165, 0)" style="fill-opacity:1.00" />
<!-- End 'G' -->
<!-- Begin 'A' -->
<polygon points=" 270.000000, 246.344520, 291.000000, 215.885976, 299.000000, 215.885976, 320.000000, 246.344520, 312.500000, 246.344520, 306.250000, 238.729884, 283.750000, 238.729884, 277.500000, 246.344520" fill="rgb(178, 34, 34)" style="fill-opacity:1.00" />
<polygon points=" 295.000000, 221.977684, 287.000000, 233.161102, 302.000000, 233.161102" fill="rgb(255, 255, 255)" style="fill-opacity:1.00" />
<!-- End 'A' -->
<!-- Begin 'T' -->
<rect height="0.221517" width="50.000000" x="270.000000" y="246.344520" fill="rgb(0, 100, 0)" style="fill-opacity:1.00" />
<rect height="1.384479" width="10.000000" x="290.000000" y="246.344520" fill="rgb(0, 100, 0)" style="fill-opacity:1.00" />
<!-- End 'T' -->
<!-- Begin 'C' -->
<ellipse cx="295.000000" cy="248.421239" rx="25.000000" ry="0.692240" fill="rgb(0, 0, 128)" style="fill-opacity:1.00" />
<ellipse cx="295.000000" cy="248.421239" rx="16.666667" ry="0.461493" fill="rgb(255, 255, 255)" style="fill-opacity:1.00" />
<rect height="0.692240" width="25.000000" x="295.000000" y="248.075119" fill="rgb(255, 255, 255)" style="fill-opacity:1.00" />
<!-- End 'C' -->
<!-- Begin 'A' -->
<polygon points=" 330.000000, 250.505946, 351.000000, -36.851355, 359.000000, -36.851355, 380.000000, 250.505946, 372.500000, 250.505946, 366.250000, 178.666621, 343.750000, 178.666621, 337.500000, 250.505946" fill="rgb(178, 34, 34)" style="fill-opacity:1.00" />
<polygon points=" 355.000000, 20.620105, 347.000000, 134.563026, 362.000000, 134.563026" fill="rgb(255, 255, 255)" style="fill-opacity:1.00" />
<!-- End 'A' -->
<!-- Begin 'C' -->
<ellipse cx="355.000000" cy="286.022017" rx="25.000000" ry="35.516071" fill="rgb(0, 0, 128)" style="fill-opacity:1.00" />
<ellipse cx="355.000000" cy="286.022017" rx="16.666667" ry="23.677381" fill="rgb(255, 255, 255)" style="fill-opacity:1.00" />
<rect height="35.516071" width="25.000000" x="355.000000" y="268.263982" fill="rgb(255, 255, 255)" style="fill-opacity:1.00" />
<!-- End 'C' -->
<!-- Begin 'T' -->
<rect height="2.324688" width="50.000000" x="330.000000" y="321.538088" fill="rgb(0, 100, 0)" style="fill-opacity:1.00" />
<rect height="14.529302" width="10.000000" x="350.000000" y="321.538088" fill="rgb(0, 100, 0)" style="fill-opacity:1.00" />
<!-- End 'T' -->
<!-- Begin 'G' -->
<ellipse cx="355.000000" cy="337.681757" rx="25.000000" ry="1.614367" fill="rgb(255, 165, 0)" style="fill-opacity:1.00" />
<ellipse cx="355.000000" cy="337.681757" rx="16.666667" ry="1.076245" fill="rgb(255, 255, 255)" style="fill-opacity:1.00" />
<rect height="1.614367" width="25.000000" x="355.000000" y="336.874573" fill="rgb(255, 255, 255)" style="fill-opacity:1.00" />
<rect height="0.403592" width="25.000000" x="355.000000" y="338.085349" fill="rgb(255, 165, 0)" style="fill-opacity:1.00" />
<rect height="1.210775" width="6.250000" x="373.750000" y="338.085349" fill="rgb(255, 165, 0)" style="fill-opacity:1.00" />
<!-- End 'G' -->
<!-- Begin 'C' -->
<ellipse cx="415.000000" cy="174.740251" rx="25.000000" ry="314.239233" fill="rgb(0, 0, 128)" style="fill-opacity:1.00" />
<ellipse cx="415.000000" cy="174.740251" rx="16.666667" ry="209.492822" fill="rgb(255, 255, 255)" style="fill-opacity:1.00" />
<rect height="314.239233" width="25.000000" x="415.000000" y="17.620635" fill="rgb(255, 255, 255)" style="fill-opacity:1.00" />
<!-- End 'C' -->
<!-- Begin 'T' -->
<rect height="1.694773" width="50.000000" x="390.000000" y="488.979484" fill="rgb(0, 100, 0)" style="fill-opacity:1.00" />
<rect height="10.592334" width="10.000000" x="410.000000" y="488.979484" fill="rgb(0, 100, 0)" style="fill-opacity:1.00" />
<!-- End 'T' -->
<!-- Begin 'G' -->
<ellipse cx="415.000000" cy="501.337207" rx="25.000000" ry="1.765389" fill="rgb(255, 165, 0)" style="fill-opacity:1.00" />
<ellipse cx="415.000000" cy="501.337207" rx="16.666667" ry="1.176926" fill="rgb(255, 255, 255)" style="fill-opacity:1.00" />
<rect height="1.765389" width="25.000000" x="415.000000" y="500.454512" fill="rgb(255, 255, 255)" style="fill-opacity:1.00" />
<rect height="0.441347" width="25.000000" x="415.000000" y="501.778554" fill="rgb(255, 165, 0)" style="fill-opacity:1.00" />
<rect height="1.324042" width="6.250000" x="433.750000" y="501.778554" fill="rgb(255, 165, 0)" style="fill-opacity:1.00" />
<!-- End 'G' -->
<!-- Begin 'A' -->
<polygon points=" 390.000000, 506.633374, 411.000000, 503.102596, 419.000000, 503.102596, 440.000000, 506.633374, 432.500000, 506.633374, 426.250000, 505.750679, 403.750000, 505.750679, 397.500000, 506.633374" fill="rgb(178, 34, 34)" style="fill-opacity:1.00" />
<!-- End 'A' -->
<!-- Begin 'C' -->
<ellipse cx="475.000000" cy="172.362931" rx="25.000000" ry="290.466079" fill="rgb(0, 0, 128)" style="fill-opacity:1.00" />
<ellipse cx="475.000000" cy="172.362931" rx="16.666667" ry="193.644053" fill="rgb(255, 255, 255)" style="fill-opacity:1.00" />
<rect height="290.466079" width="25.000000" x="475.000000" y="27.129892" fill="rgb(255, 255, 255)" style="fill-opacity:1.00" />
<!-- End 'C' -->
<!-- Begin 'G' -->
<ellipse cx="475.000000" cy="474.251834" rx="25.000000" ry="11.422823" fill="rgb(255, 165, 0)" style="fill-opacity:1.00" />
<ellipse cx="475.000000" cy="474.251834" rx="16.666667" ry="7.615216" fill="rgb(255, 255, 255)" style="fill-opacity:1.00" />
<rect height="11.422823" width="25.000000" x="475.000000" y="468.540422" fill="rgb(255, 255, 255)" style="fill-opacity:1.00" />
<rect height="2.855706" width="25.000000" x="475.000000" y="477.107540" fill="rgb(255, 165, 0)" style="fill-opacity:1.00" />
<rect height="8.567118" width="6.250000" x="493.750000" y="477.107540" fill="rgb(255, 165, 0)" style="fill-opacity:1.00" />
<!-- End 'G' -->
<!-- Begin 'T' -->
<rect height="3.133117" width="50.000000" x="450.000000" y="485.674657" fill="rgb(0, 100, 0)" style="fill-opacity:1.00" />
<rect height="19.581983" width="10.000000" x="470.000000" y="485.674657" fill="rgb(0, 100, 0)" style="fill-opacity:1.00" />
<!-- End 'T' -->
<!-- Begin 'A' -->
<polygon points=" 450.000000, 518.311295, 471.000000, 505.256640, 479.000000, 505.256640, 500.000000, 518.311295, 492.500000, 518.311295, 486.250000, 515.047631, 463.750000, 515.047631, 457.500000, 518.311295" fill="rgb(178, 34, 34)" style="fill-opacity:1.00" />
<polygon points=" 475.000000, 507.867571, 467.000000, 512.089433, 482.000000, 512.089433" fill="rgb(255, 255, 255)" style="fill-opacity:1.00" />
<!-- End 'A' -->
<!-- Begin 'A' -->
<polygon points=" 510.000000, 553.906223, 531.000000, -144.564677, 539.000000, -144.564677, 560.000000, 553.906223, 552.500000, 553.906223, 546.250000, 379.288498, 523.750000, 379.288498, 517.500000, 553.906223" fill="rgb(178, 34, 34)" style="fill-opacity:1.00" />
<polygon points=" 535.000000, -4.870497, 527.000000, 273.517863, 542.000000, 273.517863" fill="rgb(255, 255, 255)" style="fill-opacity:1.00" />
<!-- End 'A' -->
<!-- Begin 'C' -->
<ellipse cx="535.000000" cy="579.412183" rx="25.000000" ry="25.505960" fill="rgb(0, 0, 128)" style="fill-opacity:1.00" />
<ellipse cx="535.000000" cy="579.412183" rx="16.666667" ry="17.003973" fill="rgb(255, 255, 255)" style="fill-opacity:1.00" />
<rect height="25.505960" width="25.000000" x="535.000000" y="566.659203" fill="rgb(255, 255, 255)" style="fill-opacity:1.00" />
<!-- End 'C' -->
<!-- Begin 'T' -->
<rect height="4.394873" width="50.000000" x="510.000000" y="604.918143" fill="rgb(0, 100, 0)" style="fill-opacity:1.00" />
<rect height="27.467957" width="10.000000" x="530.000000" y="604.918143" fill="rgb(0, 100, 0)" style="fill-opacity:1.00" />
<!-- End 'T' -->
<!-- Begin 'G' -->
<ellipse cx="535.000000" cy="634.348096" rx="25.000000" ry="1.961997" fill="rgb(255, 165, 0)" style="fill-opacity:1.00" />
<ellipse cx="535.000000" cy="634.348096" rx="16.666667" ry="1.307998" fill="rgb(255, 255, 255)" style="fill-opacity:1.00" />
<rect height="1.961997" width="25.000000" x="535.000000" y="633.367098" fill="rgb(255, 255, 255)" style="fill-opacity:1.00" />
<rect height="0.490499" width="25.000000" x="535.000000" y="634.838596" fill="rgb(255, 165, 0)" style="fill-opacity:1.00" />
<rect height="1.471498" width="6.250000" x="553.750000" y="634.838596" fill="rgb(255, 165, 0)" style="fill-opacity:1.00" />
<!-- End 'G' -->
<!-- Begin 'C' -->
<ellipse cx="595.000000" cy="275.364563" rx="25.000000" ry="490.677782" fill="rgb(0, 0, 128)" style="fill-opacity:1.00" />
<ellipse cx="595.000000" cy="275.364563" rx="16.666667" ry="327.118521" fill="rgb(255, 255, 255)" style="fill-opacity:1.00" />
<rect height="490.677782" width="25.000000" x="595.000000" y="30.025672" fill="rgb(255, 255, 255)" style="fill-opacity:1.00" />
<!-- End 'C' -->
<!-- Begin 'T' -->
<rect height="0.882117" width="50.000000" x="570.000000" y="766.042345" fill="rgb(0, 100, 0)" style="fill-opacity:1.00" />
<rect height="5.513234" width="10.000000" x="590.000000" y="766.042345" fill="rgb(0, 100, 0)" style="fill-opacity:1.00" />
<!-- End 'T' -->
<!-- Begin 'G' -->
<ellipse cx="595.000000" cy="774.312195" rx="25.000000" ry="2.756617" fill="rgb(255, 165, 0)" style="fill-opacity:1.00" />
<ellipse cx="595.000000" cy="774.312195" rx="16.666667" ry="1.837745" fill="rgb(255, 255, 255)" style="fill-opacity:1.00" />
<rect height="2.756617" width="25.000000" x="595.000000" y="772.933887" fill="rgb(255, 255, 255)" style="fill-opacity:1.00" />
<rect height="0.689154" width="25.000000" x="595.000000" y="775.001349" fill="rgb(255, 165, 0)" style="fill-opacity:1.00" />
<rect height="2.067463" width="6.250000" x="613.750000" y="775.001349" fill="rgb(255, 165, 0)" style="fill-opacity:1.00" />
<!-- End 'G' -->
<!-- Begin 'A' -->
<polygon points=" 570.000000, 782.582045, 591.000000, 777.068812, 599.000000, 777.068812, 620.000000, 782.582045, 612.500000, 782.582045, 606.250000, 781.203737, 583.750000, 781.203737, 577.500000, 782.582045" fill="rgb(178, 34, 34)" style="fill-opacity:1.00" />
<!-- End 'A' -->
<!-- Begin 'C' -->
<ellipse cx="655.000000" cy="251.259826" rx="25.000000" ry="419.153033" fill="rgb(0, 0, 128)" style="fill-opacity:1.00" />
<ellipse cx="655.000000" cy="251.259826" rx="16.666667" ry="279.435355" fill="rgb(255, 255, 255)" style="fill-opacity:1.00" />
<rect height="419.153033" width="25.000000" x="655.000000" y="41.683309" fill="rgb(255, 255, 255)" style="fill-opacity:1.00" />
<!-- End 'C' -->
<!-- Begin 'A' -->
<polygon points=" 630.000000, 872.924999, 651.000000, 670.412859, 659.000000, 670.412859, 680.000000, 872.924999, 672.500000, 872.924999, 666.250000, 822.296964, 643.750000, 822.296964, 637.500000, 872.924999" fill="rgb(178, 34, 34)" style="fill-opacity:1.00" />
<polygon points=" 655.000000, 710.915287, 647.000000, 790.920143, 662.000000, 790.920143" fill="rgb(255, 255, 255)" style="fill-opacity:1.00" />
<!-- End 'A' -->
<!-- Begin 'T' -->
<rect height="9.795936" width="50.000000" x="630.000000" y="872.924999" fill="rgb(0, 100, 0)" style="fill-opacity:1.00" />
<rect height="61.224600" width="10.000000" x="650.000000" y="872.924999" fill="rgb(0, 100, 0)" style="fill-opacity:1.00" />
<!-- End 'T' -->
<!-- Begin 'G' -->
<ellipse cx="655.000000" cy="957.697522" rx="25.000000" ry="23.547923" fill="rgb(255, 165, 0)" style="fill-opacity:1.00" />
<ellipse cx="655.000000" cy="957.697522" rx="16.666667" ry="15.698615" fill="rgb(255, 255, 255)" style="fill-opacity:1.00" />
<rect height="23.547923" width="25.000000" x="655.000000" y="945.923561" fill="rgb(255, 255, 255)" style="fill-opacity:1.00" />
<rect height="5.886981" width="25.000000" x="655.000000" y="963.584503" fill="rgb(255, 165, 0)" style="fill-opacity:1.00" />
<rect height="17.660942" width="6.250000" x="673.750000" y="963.584503" fill="rgb(255, 165, 0)" style="fill-opacity:1.00" />
<!-- End 'G' -->
<!-- Begin 'G' -->
<ellipse cx="715.000000" cy="112.505343" rx="25.000000" ry="152.881859" fill="rgb(255, 165, 0)" style="fill-opacity:1.00" />
<ellipse cx="715.000000" cy="112.505343" rx="16.666667" ry="101.921239" fill="rgb(255, 255, 255)" style="fill-opacity:1.00" />
<rect height="152.881859" width="25.000000" x="715.000000" y="36.064414" fill="rgb(255, 255, 255)" style="fill-opacity:1.00" />
<rect height="38.220465" width="25.000000" x="715.000000" y="150.725808" fill="rgb(255, 165, 0)" style="fill-opacity:1.00" />
<rect height="114.661394" width="6.250000" x="733.750000" y="150.725808" fill="rgb(255, 165, 0)" style="fill-opacity:1.00" />
<!-- End 'G' -->
<!-- Begin 'T' -->
<rect height="18.139690" width="50.000000" x="690.000000" y="265.387202" fill="rgb(0, 100, 0)" style="fill-opacity:1.00" />
<rect height="113.373064" width="10.000000" x="710.000000" y="265.387202" fill="rgb(0, 100, 0)" style="fill-opacity:1.00" />
<!-- End 'T' -->
<!-- Begin 'A' -->
<polygon points=" 690.000000, 481.826688, 711.000000, 378.760266, 719.000000, 378.760266, 740.000000, 481.826688, 732.500000, 481.826688, 726.250000, 456.060082, 703.750000, 456.060082, 697.500000, 481.826688" fill="rgb(178, 34, 34)" style="fill-opacity:1.00" />
<polygon points=" 715.000000, 399.373550, 707.000000, 439.600119, 722.000000, 439.600119" fill="rgb(255, 255, 255)" style="fill-opacity:1.00" />
<!-- End 'A' -->
<!-- Begin 'C' -->
<ellipse cx="715.000000" cy="531.642125" rx="25.000000" ry="49.815437" fill="rgb(0, 0, 128)" style="fill-opacity:1.00" />
<ellipse cx="715.000000" cy="531.642125" rx="16.666667" ry="33.210291" fill="rgb(255, 255, 255)" style="fill-opacity:1.00" />
<rect height="49.815437" width="25.000000" x="715.000000" y="506.734406" fill="rgb(255, 255, 255)" style="fill-opacity:1.00" />
<!-- End 'C' -->
<!-- Begin 'A' -->
<polygon points=" 750.000000, 248.186445, 771.000000, -36.704749, 779.000000, -36.704749, 800.000000, 248.186445, 792.500000, 248.186445, 786.250000, 176.963646, 763.750000, 176.963646, 757.500000, 248.186445" fill="rgb(178, 34, 34)" style="fill-opacity:1.00" />
<polygon points=" 775.000000, 20.273490, 767.000000, 133.229967, 782.000000, 133.229967" fill="rgb(255, 255, 255)" style="fill-opacity:1.00" />
<!-- End 'A' -->
<!-- Begin 'C' -->
<ellipse cx="775.000000" cy="311.868006" rx="25.000000" ry="63.681561" fill="rgb(0, 0, 128)" style="fill-opacity:1.00" />
<ellipse cx="775.000000" cy="311.868006" rx="16.666667" ry="42.454374" fill="rgb(255, 255, 255)" style="fill-opacity:1.00" />
<rect height="63.681561" width="25.000000" x="775.000000" y="280.027225" fill="rgb(255, 255, 255)" style="fill-opacity:1.00" />
<!-- End 'C' -->
<!-- Begin 'G' -->
<ellipse cx="775.000000" cy="435.879466" rx="25.000000" ry="60.329900" fill="rgb(255, 165, 0)" style="fill-opacity:1.00" />
<ellipse cx="775.000000" cy="435.879466" rx="16.666667" ry="40.219933" fill="rgb(255, 255, 255)" style="fill-opacity:1.00" />
<rect height="60.329900" width="25.000000" x="775.000000" y="405.714517" fill="rgb(255, 255, 255)" style="fill-opacity:1.00" />
<rect height="15.082475" width="25.000000" x="775.000000" y="450.961941" fill="rgb(255, 165, 0)" style="fill-opacity:1.00" />
<rect height="45.247425" width="6.250000" x="793.750000" y="450.961941" fill="rgb(255, 165, 0)" style="fill-opacity:1.00" />
<!-- End 'G' -->
<!-- Begin 'T' -->
<rect height="10.725316" width="50.000000" x="750.000000" y="496.209366" fill="rgb(0, 100, 0)" style="fill-opacity:1.00" />
<rect height="67.033222" width="10.000000" x="770.000000" y="496.209366" fill="rgb(0, 100, 0)" style="fill-opacity:1.00" />
<!-- End 'T' -->
<text x="430.000000" y="165">
IC = 41.58
</text>

</svg>
