<?xml version="1.0" encoding="UTF-8" standalone="yes"?>
                 <!DOCTYPE svg PUBLIC "-//W3C//DTD SVG 1.0//EN" "http://www.w3.org/TR/2001/REC-SVG-20010904/DTD/svg10.dtd">
                 <svg height="170" width="600" xmlns="http://www.w3.org/2000/svg" xmlns:xlink="http://www.w3.org/1999/xlink">
                 <line x1="85" y1="120" x2="567" y2="120" style="stroke:rgb(99,99,99);stroke-width:2" />
<rect height="7.000000" width="2.000000" x="85.000000" y="120.000000" fill="rgb(0, 0, 0)" style="fill-opacity:1.00" />
<text x="107.000000" y="140">
1
</text>
<rect height="7.000000" width="2.000000" x="145.000000" y="120.000000" fill="rgb(0, 0, 0)" style="fill-opacity:1.00" />
<text x="167.000000" y="140">
2
</text>
<rect height="7.000000" width="2.000000" x="205.000000" y="120.000000" fill="rgb(0, 0, 0)" style="fill-opacity:1.00" />
<text x="227.000000" y="140">
3
</text>
<rect height="7.000000" width="2.000000" x="265.000000" y="120.000000" fill="rgb(0, 0, 0)" style="fill-opacity:1.00" />
<text x="287.000000" y="140">
4
</text>
<rect height="7.000000" width="2.000000" x="325.000000" y="120.000000" fill="rgb(0, 0, 0)" style="fill-opacity:1.00" />
<text x="347.000000" y="140">
5
</text>
<rect height="7.000000" width="2.000000" x="385.000000" y="120.000000" fill="rgb(0, 0, 0)" style="fill-opacity:1.00" />
<text x="407.000000" y="140">
6
</text>
<rect height="7.000000" width="2.000000" x="445.000000" y="120.000000" fill="rgb(0, 0, 0)" style="fill-opacity:1.00" />
<text x="467.000000" y="140">
7
</text>
<rect height="7.000000" width="2.000000" x="505.000000" y="120.000000" fill="rgb(0, 0, 0)" style="fill-opacity:1.00" />
<text x="527.000000" y="140">
8
</text>
<rect height="7.000000" width="2.000000" x="565.000000" y="120.000000" fill="rgb(0, 0, 0)" style="fill-opacity:1.00" />
<line x1="80" y1="112" x2="80" y2="10" style="stroke:rgb(99,99,99);stroke-width:2" />
<rect height="2.000000" width="7.000000" x="73.000000" y="110.000000" fill="rgb(0, 0, 0)" style="fill-opacity:1.00" />
<text x="63" y="115">
0
</text>
<rect height="2.000000" width="7.000000" x="73.000000" y="60.000000" fill="rgb(0, 0, 0)" style="fill-opacity:1.00" />
<text x="63" y="65">
1
</text>
<rect height="2.000000" width="7.000000" x="73.000000" y="10.000000" fill="rgb(0, 0, 0)" style="fill-opacity:1.00" />
<text x="63" y="15">
2
</text>
<text x="50" y="65"
transform="rotate(-90, 50, 70)">
bits
</text>
<!-- Begin 'A' -->
<polygon points=" 90.000000, 102.385467, 111.000000, 95.208985, 119.000000, 95.208985, 140.000000, 102.385467, 132.500000, 102.385467, 126.250000, 100.591346, 103.750000, 100.591346, 97.500000, 102.385467" fill="rgb(178, 34, 34)" style="fill-opacity:1.00" />
<!-- End 'A' -->
<!-- Begin 'T' -->
<rect height="0.731791" width="50.000000" x="90.000000" y="102.385467" fill="rgb(0, 100, 0)" style="fill-opacity:1.00" />
<rect height="4.573692" width="10.000000" x="110.000000" y="102.385467" fill="rgb(0, 100, 0)" style="fill-opacity:1.00" />
<!-- End 'T' -->
<!-- Begin 'G' -->
<ellipse cx="115.000000" cy="107.760312" rx="25.000000" ry="0.801153" fill="rgb(255, 165, 0)" style="fill-opacity:1.00" />
<ellipse cx="115.000000" cy="107.760312" rx="16.666667" ry="0.534102" fill="rgb(255, 255, 255)" style="fill-opacity:1.00" />
<rect height="0.801153" width="25.000000" x="115.000000" y="107.359736" fill="rgb(255, 255, 255)" style="fill-opacity:1.00" />
<rect height="0.200288" width="25.000000" x="115.000000" y="107.960600" fill="rgb(255, 165, 0)" style="fill-opacity:1.00" />
<rect height="0.600865" width="6.250000" x="133.750000" y="107.960600" fill="rgb(255, 165, 0)" style="fill-opacity:1.00" />
<!-- End 'G' -->
<!-- Begin 'C' -->
<ellipse cx="115.000000" cy="109.280732" rx="25.000000" ry="0.719268" fill="rgb(0, 0, 128)" style="fill-opacity:1.00" />
<ellipse cx="115.000000" cy="109.280732" rx="16.666667" ry="0.479512" fill="rgb(255, 255, 255)" style="fill-opacity:1.00" />
<rect height="0.719268" width="25.000000" x="115.000000" y="108.921099" fill="rgb(255, 255, 255)" style="fill-opacity:1.00" />
<!-- End 'C' -->
<!-- Begin 'A' -->
<polygon points=" 150.000000, 96.580426, 171.000000, 69.443725, 179.000000, 69.443725, 200.000000, 96.580426, 192.500000, 96.580426, 186.250000, 89.796251, 163.750000, 89.796251, 157.500000, 96.580426" fill="rgb(178, 34, 34)" style="fill-opacity:1.00" />
<polygon points=" 175.000000, 74.871065, 167.000000, 84.725746, 182.000000, 84.725746" fill="rgb(255, 255, 255)" style="fill-opacity:1.00" />
<!-- End 'A' -->
<!-- Begin 'G' -->
<ellipse cx="175.000000" cy="102.154270" rx="25.000000" ry="5.573844" fill="rgb(255, 165, 0)" style="fill-opacity:1.00" />
<ellipse cx="175.000000" cy="102.154270" rx="16.666667" ry="3.715896" fill="rgb(255, 255, 255)" style="fill-opacity:1.00" />
<rect height="5.573844" width="25.000000" x="175.000000" y="99.367348" fill="rgb(255, 255, 255)" style="fill-opacity:1.00" />
<rect height="1.393461" width="25.000000" x="175.000000" y="103.547732" fill="rgb(255, 165, 0)" style="fill-opacity:1.00" />
<rect height="4.180383" width="6.250000" x="193.750000" y="103.547732" fill="rgb(255, 165, 0)" style="fill-opacity:1.00" />
<!-- End 'G' -->
<!-- Begin 'T' -->
<rect height="0.189172" width="50.000000" x="150.000000" y="107.728115" fill="rgb(0, 100, 0)" style="fill-opacity:1.00" />
<rect height="1.182324" width="10.000000" x="170.000000" y="107.728115" fill="rgb(0, 100, 0)" style="fill-opacity:1.00" />
<!-- End 'T' -->
<!-- Begin 'C' -->
<ellipse cx="175.000000" cy="109.455220" rx="25.000000" ry="0.544780" fill="rgb(0, 0, 128)" style="fill-opacity:1.00" />
<ellipse cx="175.000000" cy="109.455220" rx="16.666667" ry="0.363187" fill="rgb(255, 255, 255)" style="fill-opacity:1.00" />
<rect height="0.544780" width="25.000000" x="175.000000" y="109.182829" fill="rgb(255, 255, 255)" style="fill-opacity:1.00" />
<!-- End 'C' -->
<!-- Begin 'G' -->
<ellipse cx="235.000000" cy="61.761330" rx="25.000000" ry="47.350085" fill="rgb(255, 165, 0)" style="fill-opacity:1.00" />
<ellipse cx="235.000000" cy="61.761330" rx="16.666667" ry="31.566723" fill="rgb(255, 255, 255)" style="fill-opacity:1.00" />
<rect height="47.350085" width="25.000000" x="235.000000" y="38.086288" fill="rgb(255, 255, 255)" style="fill-opacity:1.00" />
<rect height="11.837521" width="25.000000" x="235.000000" y="73.598851" fill="rgb(255, 165, 0)" style="fill-opacity:1.00" />
<rect height="35.512563" width="6.250000" x="253.750000" y="73.598851" fill="rgb(255, 165, 0)" style="fill-opacity:1.00" />
<!-- End 'G' -->
<!-- Begin 'A' -->
<polygon points=" 210.000000, 109.632843, 231.000000, 109.111415, 239.000000, 109.111415, 260.000000, 109.632843, 252.500000, 109.632843, 246.250000, 109.502486, 223.750000, 109.502486, 217.500000, 109.632843" fill="rgb(178, 34, 34)" style="fill-opacity:1.00" />
<!-- End 'A' -->
<!-- Begin 'T' -->
<rect height="0.044739" width="50.000000" x="210.000000" y="109.632843" fill="rgb(0, 100, 0)" style="fill-opacity:1.00" />
<rect height="0.279620" width="10.000000" x="230.000000" y="109.632843" fill="rgb(0, 100, 0)" style="fill-opacity:1.00" />
<!-- End 'T' -->
<!-- Begin 'C' -->
<ellipse cx="235.000000" cy="109.956231" rx="25.000000" ry="0.043769" fill="rgb(0, 0, 128)" style="fill-opacity:1.00" />
<ellipse cx="235.000000" cy="109.956231" rx="16.666667" ry="0.029179" fill="rgb(255, 255, 255)" style="fill-opacity:1.00" />
<rect height="0.043769" width="25.000000" x="235.000000" y="109.934347" fill="rgb(255, 255, 255)" style="fill-opacity:1.00" />
<!-- End 'C' -->
<!-- Begin 'T' -->
<rect height="15.497168" width="50.000000" x="270.000000" y="12.642051" fill="rgb(0, 100, 0)" style="fill-opacity:1.00" />
<rect height="96.857297" width="10.000000" x="290.000000" y="12.642051" fill="rgb(0, 100, 0)" style="fill-opacity:1.00" />
<!-- End 'T' -->
<!-- Begin 'C' -->
<ellipse cx="295.000000" cy="109.661435" rx="25.000000" ry="0.162086" fill="rgb(0, 0, 128)" style="fill-opacity:1.00" />
<ellipse cx="295.000000" cy="109.661435" rx="16.666667" ry="0.108057" fill="rgb(255, 255, 255)" style="fill-opacity:1.00" />
<rect height="0.162086" width="25.000000" x="295.000000" y="109.580392" fill="rgb(255, 255, 255)" style="fill-opacity:1.00" />
<!-- End 'C' -->
<!-- Begin 'A' -->
<polygon points=" 270.000000, 109.952220, 291.000000, 109.823521, 299.000000, 109.823521, 320.000000, 109.952220, 312.500000, 109.952220, 306.250000, 109.920045, 283.750000, 109.920045, 277.500000, 109.952220" fill="rgb(178, 34, 34)" style="fill-opacity:1.00" />
<!-- End 'A' -->
<!-- Begin 'G' -->
<ellipse cx="295.000000" cy="109.976110" rx="25.000000" ry="0.023890" fill="rgb(255, 165, 0)" style="fill-opacity:1.00" />
<ellipse cx="295.000000" cy="109.976110" rx="16.666667" ry="0.015927" fill="rgb(255, 255, 255)" style="fill-opacity:1.00" />
<rect height="0.023890" width="25.000000" x="295.000000" y="109.964165" fill="rgb(255, 255, 255)" style="fill-opacity:1.00" />
<rect height="0.005973" width="25.000000" x="295.000000" y="109.982082" fill="rgb(255, 165, 0)" style="fill-opacity:1.00" />
<rect height="0.017918" width="6.250000" x="313.750000" y="109.982082" fill="rgb(255, 165, 0)" style="fill-opacity:1.00" />
<!-- End 'G' -->
<!-- Begin 'C' -->
<ellipse cx="355.000000" cy="61.260420" rx="25.000000" ry="48.131449" fill="rgb(0, 0, 128)" style="fill-opacity:1.00" />
<ellipse cx="355.000000" cy="61.260420" rx="16.666667" ry="32.087633" fill="rgb(255, 255, 255)" style="fill-opacity:1.00" />
<rect height="48.131449" width="25.000000" x="355.000000" y="37.194695" fill="rgb(255, 255, 255)" style="fill-opacity:1.00" />
<!-- End 'C' -->
<!-- Begin 'A' -->
<polygon points=" 330.000000, 109.791672, 351.000000, 109.391869, 359.000000, 109.391869, 380.000000, 109.791672, 372.500000, 109.791672, 366.250000, 109.691721, 343.750000, 109.691721, 337.500000, 109.791672" fill="rgb(178, 34, 34)" style="fill-opacity:1.00" />
<!-- End 'A' -->
<!-- Begin 'T' -->
<rect height="0.024384" width="50.000000" x="330.000000" y="109.791672" fill="rgb(0, 100, 0)" style="fill-opacity:1.00" />
<rect height="0.152398" width="10.000000" x="350.000000" y="109.791672" fill="rgb(0, 100, 0)" style="fill-opacity:1.00" />
<!-- End 'T' -->
<!-- Begin 'G' -->
<ellipse cx="355.000000" cy="109.972035" rx="25.000000" ry="0.027965" fill="rgb(255, 165, 0)" style="fill-opacity:1.00" />
<ellipse cx="355.000000" cy="109.972035" rx="16.666667" ry="0.018643" fill="rgb(255, 255, 255)" style="fill-opacity:1.00" />
<rect height="0.027965" width="25.000000" x="355.000000" y="109.958053" fill="rgb(255, 255, 255)" style="fill-opacity:1.00" />
<rect height="0.006991" width="25.000000" x="355.000000" y="109.979026" fill="rgb(255, 165, 0)" style="fill-opacity:1.00" />
<rect height="0.020974" width="6.250000" x="373.750000" y="109.979026" fill="rgb(255, 165, 0)" style="fill-opacity:1.00" />
<!-- End 'G' -->
<!-- Begin 'A' -->
<polygon points=" 390.000000, 108.946171, 411.000000, 15.128194, 419.000000, 15.128194, 440.000000, 108.946171, 432.500000, 108.946171, 426.250000, 85.491677, 403.750000, 85.491677, 397.500000, 108.946171" fill="rgb(178, 34, 34)" style="fill-opacity:1.00" />
<polygon points=" 415.000000, 33.891789, 407.000000, 70.418980, 422.000000, 70.418980" fill="rgb(255, 255, 255)" style="fill-opacity:1.00" />
<!-- End 'A' -->
<!-- Begin 'C' -->
<ellipse cx="415.000000" cy="109.261918" rx="25.000000" ry="0.315747" fill="rgb(0, 0, 128)" style="fill-opacity:1.00" />
<ellipse cx="415.000000" cy="109.261918" rx="16.666667" ry="0.210498" fill="rgb(255, 255, 255)" style="fill-opacity:1.00" />
<rect height="0.315747" width="25.000000" x="415.000000" y="109.104045" fill="rgb(255, 255, 255)" style="fill-opacity:1.00" />
<!-- End 'C' -->
<!-- Begin 'T' -->
<rect height="0.049578" width="50.000000" x="390.000000" y="109.577665" fill="rgb(0, 100, 0)" style="fill-opacity:1.00" />
<rect height="0.309865" width="10.000000" x="410.000000" y="109.577665" fill="rgb(0, 100, 0)" style="fill-opacity:1.00" />
<!-- End 'T' -->
<!-- Begin 'G' -->
<ellipse cx="415.000000" cy="109.943765" rx="25.000000" ry="0.056235" fill="rgb(255, 165, 0)" style="fill-opacity:1.00" />
<ellipse cx="415.000000" cy="109.943765" rx="16.666667" ry="0.037490" fill="rgb(255, 255, 255)" style="fill-opacity:1.00" />
<rect height="0.056235" width="25.000000" x="415.000000" y="109.915647" fill="rgb(255, 255, 255)" style="fill-opacity:1.00" />
<rect height="0.014059" width="25.000000" x="415.000000" y="109.957824" fill="rgb(255, 165, 0)" style="fill-opacity:1.00" />
<rect height="0.042176" width="6.250000" x="433.750000" y="109.957824" fill="rgb(255, 165, 0)" style="fill-opacity:1.00" />
<!-- End 'G' -->
<!-- Begin 'A' -->
<polygon points=" 450.000000, 107.872896, 471.000000, 19.547791, 479.000000, 19.547791, 500.000000, 107.872896, 492.500000, 107.872896, 486.250000, 85.791620, 463.750000, 85.791620, 457.500000, 107.872896" fill="rgb(178, 34, 34)" style="fill-opacity:1.00" />
<polygon points=" 475.000000, 37.212812, 467.000000, 71.542854, 482.000000, 71.542854" fill="rgb(255, 255, 255)" style="fill-opacity:1.00" />
<!-- End 'A' -->
<!-- Begin 'G' -->
<ellipse cx="475.000000" cy="108.515598" rx="25.000000" ry="0.642702" fill="rgb(255, 165, 0)" style="fill-opacity:1.00" />
<ellipse cx="475.000000" cy="108.515598" rx="16.666667" ry="0.428468" fill="rgb(255, 255, 255)" style="fill-opacity:1.00" />
<rect height="0.642702" width="25.000000" x="475.000000" y="108.194247" fill="rgb(255, 255, 255)" style="fill-opacity:1.00" />
<rect height="0.160675" width="25.000000" x="475.000000" y="108.676274" fill="rgb(255, 165, 0)" style="fill-opacity:1.00" />
<rect height="0.482026" width="6.250000" x="493.750000" y="108.676274" fill="rgb(255, 165, 0)" style="fill-opacity:1.00" />
<!-- End 'G' -->
<!-- Begin 'T' -->
<rect height="0.102070" width="50.000000" x="450.000000" y="109.158300" fill="rgb(0, 100, 0)" style="fill-opacity:1.00" />
<rect height="0.637934" width="10.000000" x="470.000000" y="109.158300" fill="rgb(0, 100, 0)" style="fill-opacity:1.00" />
<!-- End 'T' -->
<!-- Begin 'C' -->
<ellipse cx="475.000000" cy="109.898117" rx="25.000000" ry="0.101883" fill="rgb(0, 0, 128)" style="fill-opacity:1.00" />
<ellipse cx="475.000000" cy="109.898117" rx="16.666667" ry="0.067922" fill="rgb(255, 255, 255)" style="fill-opacity:1.00" />
<rect height="0.101883" width="25.000000" x="475.000000" y="109.847176" fill="rgb(255, 255, 255)" style="fill-opacity:1.00" />
<!-- End 'C' -->
<!-- Begin 'C' -->
<ellipse cx="535.000000" cy="95.572134" rx="25.000000" ry="4.256103" fill="rgb(0, 0, 128)" style="fill-opacity:1.00" />
<ellipse cx="535.000000" cy="95.572134" rx="16.666667" ry="2.837402" fill="rgb(255, 255, 255)" style="fill-opacity:1.00" />
<rect height="4.256103" width="25.000000" x="535.000000" y="93.444082" fill="rgb(255, 255, 255)" style="fill-opacity:1.00" />
<!-- End 'C' -->
<!-- Begin 'A' -->
<polygon points=" 510.000000, 106.742361, 531.000000, 99.828237, 539.000000, 99.828237, 560.000000, 106.742361, 552.500000, 106.742361, 546.250000, 105.013830, 523.750000, 105.013830, 517.500000, 106.742361" fill="rgb(178, 34, 34)" style="fill-opacity:1.00" />
<!-- End 'A' -->
<!-- Begin 'T' -->
<rect height="0.394519" width="50.000000" x="510.000000" y="106.742361" fill="rgb(0, 100, 0)" style="fill-opacity:1.00" />
<rect height="2.465744" width="10.000000" x="530.000000" y="106.742361" fill="rgb(0, 100, 0)" style="fill-opacity:1.00" />
<!-- End 'T' -->
<!-- Begin 'G' -->
<ellipse cx="535.000000" cy="109.604052" rx="25.000000" ry="0.395948" fill="rgb(255, 165, 0)" style="fill-opacity:1.00" />
<ellipse cx="535.000000" cy="109.604052" rx="16.666667" ry="0.263965" fill="rgb(255, 255, 255)" style="fill-opacity:1.00" />
<rect height="0.395948" width="25.000000" x="535.000000" y="109.406078" fill="rgb(255, 255, 255)" style="fill-opacity:1.00" />
<rect height="0.098987" width="25.000000" x="535.000000" y="109.703039" fill="rgb(255, 165, 0)" style="fill-opacity:1.00" />
<rect height="0.296961" width="6.250000" x="553.750000" y="109.703039" fill="rgb(255, 165, 0)" style="fill-opacity:1.00" />
<!-- End 'G' -->
<text x="310.000000" y="165">
IC = 10.98
</text>

</svg>
