<?xml version="1.0" encoding="UTF-8" standalone="yes"?>
                 <!DOCTYPE svg PUBLIC "-//W3C//DTD SVG 1.0//EN" "http://www.w3.org/TR/2001/REC-SVG-20010904/DTD/svg10.dtd">
                 <svg height="170" width="1020" xmlns="http://www.w3.org/2000/svg" xmlns:xlink="http://www.w3.org/1999/xlink">
                 <line x1="85" y1="120" x2="987" y2="120" style="stroke:rgb(99,99,99);stroke-width:2" />
<rect height="7.000000" width="2.000000" x="85.000000" y="120.000000" fill="rgb(0, 0, 0)" style="fill-opacity:1.00" />
<text x="107.000000" y="140">
1
</text>
<rect height="7.000000" width="2.000000" x="145.000000" y="120.000000" fill="rgb(0, 0, 0)" style="fill-opacity:1.00" />
<text x="167.000000" y="140">
2
</text>
<rect height="7.000000" width="2.000000" x="205.000000" y="120.000000" fill="rgb(0, 0, 0)" style="fill-opacity:1.00" />
<text x="227.000000" y="140">
3
</text>
<rect height="7.000000" width="2.000000" x="265.000000" y="120.000000" fill="rgb(0, 0, 0)" style="fill-opacity:1.00" />
<text x="287.000000" y="140">
4
</text>
<rect height="7.000000" width="2.000000" x="325.000000" y="120.000000" fill="rgb(0, 0, 0)" style="fill-opacity:1.00" />
<text x="347.000000" y="140">
5
</text>
<rect height="7.000000" width="2.000000" x="385.000000" y="120.000000" fill="rgb(0, 0, 0)" style="fill-opacity:1.00" />
<text x="407.000000" y="140">
6
</text>
<rect height="7.000000" width="2.000000" x="445.000000" y="120.000000" fill="rgb(0, 0, 0)" style="fill-opacity:1.00" />
<text x="467.000000" y="140">
7
</text>
<rect height="7.000000" width="2.000000" x="505.000000" y="120.000000" fill="rgb(0, 0, 0)" style="fill-opacity:1.00" />
<text x="527.000000" y="140">
8
</text>
<rect height="7.000000" width="2.000000" x="565.000000" y="120.000000" fill="rgb(0, 0, 0)" style="fill-opacity:1.00" />
<text x="587.000000" y="140">
9
</text>
<rect height="7.000000" width="2.000000" x="625.000000" y="120.000000" fill="rgb(0, 0, 0)" style="fill-opacity:1.00" />
<text x="647.000000" y="140">
10
</text>
<rect height="7.000000" width="2.000000" x="685.000000" y="120.000000" fill="rgb(0, 0, 0)" style="fill-opacity:1.00" />
<text x="707.000000" y="140">
11
</text>
<rect height="7.000000" width="2.000000" x="745.000000" y="120.000000" fill="rgb(0, 0, 0)" style="fill-opacity:1.00" />
<text x="767.000000" y="140">
12
</text>
<rect height="7.000000" width="2.000000" x="805.000000" y="120.000000" fill="rgb(0, 0, 0)" style="fill-opacity:1.00" />
<text x="827.000000" y="140">
13
</text>
<rect height="7.000000" width="2.000000" x="865.000000" y="120.000000" fill="rgb(0, 0, 0)" style="fill-opacity:1.00" />
<text x="887.000000" y="140">
14
</text>
<rect height="7.000000" width="2.000000" x="925.000000" y="120.000000" fill="rgb(0, 0, 0)" style="fill-opacity:1.00" />
<text x="947.000000" y="140">
15
</text>
<rect height="7.000000" width="2.000000" x="985.000000" y="120.000000" fill="rgb(0, 0, 0)" style="fill-opacity:1.00" />
<line x1="80" y1="112" x2="80" y2="10" style="stroke:rgb(99,99,99);stroke-width:2" />
<rect height="2.000000" width="7.000000" x="73.000000" y="110.000000" fill="rgb(0, 0, 0)" style="fill-opacity:1.00" />
<text x="63" y="115">
0
</text>
<rect height="2.000000" width="7.000000" x="73.000000" y="60.000000" fill="rgb(0, 0, 0)" style="fill-opacity:1.00" />
<text x="63" y="65">
1
</text>
<rect height="2.000000" width="7.000000" x="73.000000" y="10.000000" fill="rgb(0, 0, 0)" style="fill-opacity:1.00" />
<text x="63" y="15">
2
</text>
<text x="50" y="65"
transform="rotate(-90, 50, 70)">
bits
</text>
<!-- Begin 'A' -->
<polygon points=" 90.000000, 108.766792, 111.000000, 108.234800, 119.000000, 108.234800, 140.000000, 108.766792, 132.500000, 108.766792, 126.250000, 108.633794, 103.750000, 108.633794, 97.500000, 108.766792" fill="rgb(178, 34, 34)" style="fill-opacity:1.00" />
<!-- End 'A' -->
<!-- Begin 'T' -->
<rect height="0.081836" width="50.000000" x="90.000000" y="108.766792" fill="rgb(0, 100, 0)" style="fill-opacity:1.00" />
<rect height="0.511477" width="10.000000" x="110.000000" y="108.766792" fill="rgb(0, 100, 0)" style="fill-opacity:1.00" />
<!-- End 'T' -->
<!-- Begin 'C' -->
<ellipse cx="115.000000" cy="109.493502" rx="25.000000" ry="0.215233" fill="rgb(0, 0, 128)" style="fill-opacity:1.00" />
<ellipse cx="115.000000" cy="109.493502" rx="16.666667" ry="0.143488" fill="rgb(255, 255, 255)" style="fill-opacity:1.00" />
<rect height="0.215233" width="25.000000" x="115.000000" y="109.385886" fill="rgb(255, 255, 255)" style="fill-opacity:1.00" />
<!-- End 'C' -->
<!-- Begin 'G' -->
<ellipse cx="115.000000" cy="109.854368" rx="25.000000" ry="0.145632" fill="rgb(255, 165, 0)" style="fill-opacity:1.00" />
<ellipse cx="115.000000" cy="109.854368" rx="16.666667" ry="0.097088" fill="rgb(255, 255, 255)" style="fill-opacity:1.00" />
<rect height="0.145632" width="25.000000" x="115.000000" y="109.781551" fill="rgb(255, 255, 255)" style="fill-opacity:1.00" />
<rect height="0.036408" width="25.000000" x="115.000000" y="109.890776" fill="rgb(255, 165, 0)" style="fill-opacity:1.00" />
<rect height="0.109224" width="6.250000" x="133.750000" y="109.890776" fill="rgb(255, 165, 0)" style="fill-opacity:1.00" />
<!-- End 'G' -->
<!-- Begin 'T' -->
<rect height="0.018491" width="50.000000" x="150.000000" y="109.594419" fill="rgb(0, 100, 0)" style="fill-opacity:1.00" />
<rect height="0.115571" width="10.000000" x="170.000000" y="109.594419" fill="rgb(0, 100, 0)" style="fill-opacity:1.00" />
<!-- End 'T' -->
<!-- Begin 'A' -->
<polygon points=" 150.000000, 109.816929, 171.000000, 109.709990, 179.000000, 109.709990, 200.000000, 109.816929, 192.500000, 109.816929, 186.250000, 109.790194, 163.750000, 109.790194, 157.500000, 109.816929" fill="rgb(178, 34, 34)" style="fill-opacity:1.00" />
<!-- End 'A' -->
<!-- Begin 'G' -->
<ellipse cx="175.000000" cy="109.864795" rx="25.000000" ry="0.047866" fill="rgb(255, 165, 0)" style="fill-opacity:1.00" />
<ellipse cx="175.000000" cy="109.864795" rx="16.666667" ry="0.031910" fill="rgb(255, 255, 255)" style="fill-opacity:1.00" />
<rect height="0.047866" width="25.000000" x="175.000000" y="109.840862" fill="rgb(255, 255, 255)" style="fill-opacity:1.00" />
<rect height="0.011966" width="25.000000" x="175.000000" y="109.876761" fill="rgb(255, 165, 0)" style="fill-opacity:1.00" />
<rect height="0.035899" width="6.250000" x="193.750000" y="109.876761" fill="rgb(255, 165, 0)" style="fill-opacity:1.00" />
<!-- End 'G' -->
<!-- Begin 'C' -->
<ellipse cx="175.000000" cy="109.956330" rx="25.000000" ry="0.043670" fill="rgb(0, 0, 128)" style="fill-opacity:1.00" />
<ellipse cx="175.000000" cy="109.956330" rx="16.666667" ry="0.029113" fill="rgb(255, 255, 255)" style="fill-opacity:1.00" />
<rect height="0.043670" width="25.000000" x="175.000000" y="109.934495" fill="rgb(255, 255, 255)" style="fill-opacity:1.00" />
<!-- End 'C' -->
<!-- Begin 'T' -->
<rect height="0.062364" width="50.000000" x="210.000000" y="108.728853" fill="rgb(0, 100, 0)" style="fill-opacity:1.00" />
<rect height="0.389776" width="10.000000" x="230.000000" y="108.728853" fill="rgb(0, 100, 0)" style="fill-opacity:1.00" />
<!-- End 'T' -->
<!-- Begin 'C' -->
<ellipse cx="235.000000" cy="109.300370" rx="25.000000" ry="0.181741" fill="rgb(0, 0, 128)" style="fill-opacity:1.00" />
<ellipse cx="235.000000" cy="109.300370" rx="16.666667" ry="0.121161" fill="rgb(255, 255, 255)" style="fill-opacity:1.00" />
<rect height="0.181741" width="25.000000" x="235.000000" y="109.209499" fill="rgb(255, 255, 255)" style="fill-opacity:1.00" />
<!-- End 'C' -->
<!-- Begin 'G' -->
<ellipse cx="235.000000" cy="109.612832" rx="25.000000" ry="0.130722" fill="rgb(255, 165, 0)" style="fill-opacity:1.00" />
<ellipse cx="235.000000" cy="109.612832" rx="16.666667" ry="0.087148" fill="rgb(255, 255, 255)" style="fill-opacity:1.00" />
<rect height="0.130722" width="25.000000" x="235.000000" y="109.547471" fill="rgb(255, 255, 255)" style="fill-opacity:1.00" />
<rect height="0.032680" width="25.000000" x="235.000000" y="109.645512" fill="rgb(255, 165, 0)" style="fill-opacity:1.00" />
<rect height="0.098041" width="6.250000" x="253.750000" y="109.645512" fill="rgb(255, 165, 0)" style="fill-opacity:1.00" />
<!-- End 'G' -->
<!-- Begin 'A' -->
<polygon points=" 210.000000, 110.000000, 231.000000, 109.743554, 239.000000, 109.743554, 260.000000, 110.000000, 252.500000, 110.000000, 246.250000, 109.935888, 223.750000, 109.935888, 217.500000, 110.000000" fill="rgb(178, 34, 34)" style="fill-opacity:1.00" />
<!-- End 'A' -->
<!-- Begin 'C' -->
<ellipse cx="295.000000" cy="104.974752" rx="25.000000" ry="0.943693" fill="rgb(0, 0, 128)" style="fill-opacity:1.00" />
<ellipse cx="295.000000" cy="104.974752" rx="16.666667" ry="0.629129" fill="rgb(255, 255, 255)" style="fill-opacity:1.00" />
<rect height="0.943693" width="25.000000" x="295.000000" y="104.502906" fill="rgb(255, 255, 255)" style="fill-opacity:1.00" />
<!-- End 'C' -->
<!-- Begin 'T' -->
<rect height="0.301715" width="50.000000" x="270.000000" y="105.918445" fill="rgb(0, 100, 0)" style="fill-opacity:1.00" />
<rect height="1.885718" width="10.000000" x="290.000000" y="105.918445" fill="rgb(0, 100, 0)" style="fill-opacity:1.00" />
<!-- End 'T' -->
<!-- Begin 'A' -->
<polygon points=" 270.000000, 109.447185, 291.000000, 107.804164, 299.000000, 107.804164, 320.000000, 109.447185, 312.500000, 109.447185, 306.250000, 109.036429, 283.750000, 109.036429, 277.500000, 109.447185" fill="rgb(178, 34, 34)" style="fill-opacity:1.00" />
<!-- End 'A' -->
<!-- Begin 'G' -->
<ellipse cx="295.000000" cy="109.723592" rx="25.000000" ry="0.276408" fill="rgb(255, 165, 0)" style="fill-opacity:1.00" />
<ellipse cx="295.000000" cy="109.723592" rx="16.666667" ry="0.184272" fill="rgb(255, 255, 255)" style="fill-opacity:1.00" />
<rect height="0.276408" width="25.000000" x="295.000000" y="109.585388" fill="rgb(255, 255, 255)" style="fill-opacity:1.00" />
<rect height="0.069102" width="25.000000" x="295.000000" y="109.792694" fill="rgb(255, 165, 0)" style="fill-opacity:1.00" />
<rect height="0.207306" width="6.250000" x="313.750000" y="109.792694" fill="rgb(255, 165, 0)" style="fill-opacity:1.00" />
<!-- End 'G' -->
<!-- Begin 'C' -->
<ellipse cx="355.000000" cy="101.756166" rx="25.000000" ry="2.568537" fill="rgb(0, 0, 128)" style="fill-opacity:1.00" />
<ellipse cx="355.000000" cy="101.756166" rx="16.666667" ry="1.712358" fill="rgb(255, 255, 255)" style="fill-opacity:1.00" />
<rect height="2.568537" width="25.000000" x="355.000000" y="100.471897" fill="rgb(255, 255, 255)" style="fill-opacity:1.00" />
<!-- End 'C' -->
<!-- Begin 'G' -->
<ellipse cx="355.000000" cy="105.691067" rx="25.000000" ry="1.366363" fill="rgb(255, 165, 0)" style="fill-opacity:1.00" />
<ellipse cx="355.000000" cy="105.691067" rx="16.666667" ry="0.910909" fill="rgb(255, 255, 255)" style="fill-opacity:1.00" />
<rect height="1.366363" width="25.000000" x="355.000000" y="105.007885" fill="rgb(255, 255, 255)" style="fill-opacity:1.00" />
<rect height="0.341591" width="25.000000" x="355.000000" y="106.032658" fill="rgb(255, 165, 0)" style="fill-opacity:1.00" />
<rect height="1.024772" width="6.250000" x="373.750000" y="106.032658" fill="rgb(255, 165, 0)" style="fill-opacity:1.00" />
<!-- End 'G' -->
<!-- Begin 'A' -->
<polygon points=" 330.000000, 108.875024, 351.000000, 107.057430, 359.000000, 107.057430, 380.000000, 108.875024, 372.500000, 108.875024, 366.250000, 108.420626, 343.750000, 108.420626, 337.500000, 108.875024" fill="rgb(178, 34, 34)" style="fill-opacity:1.00" />
<!-- End 'A' -->
<!-- Begin 'T' -->
<rect height="0.179996" width="50.000000" x="330.000000" y="108.875024" fill="rgb(0, 100, 0)" style="fill-opacity:1.00" />
<rect height="1.124976" width="10.000000" x="350.000000" y="108.875024" fill="rgb(0, 100, 0)" style="fill-opacity:1.00" />
<!-- End 'T' -->
<!-- Begin 'A' -->
<polygon points=" 390.000000, 94.432153, 411.000000, 80.021640, 419.000000, 80.021640, 440.000000, 94.432153, 432.500000, 94.432153, 426.250000, 90.829525, 403.750000, 90.829525, 397.500000, 94.432153" fill="rgb(178, 34, 34)" style="fill-opacity:1.00" />
<polygon points=" 415.000000, 82.903742, 407.000000, 87.667948, 422.000000, 87.667948" fill="rgb(255, 255, 255)" style="fill-opacity:1.00" />
<!-- End 'A' -->
<!-- Begin 'G' -->
<ellipse cx="415.000000" cy="100.592004" rx="25.000000" ry="6.159851" fill="rgb(255, 165, 0)" style="fill-opacity:1.00" />
<ellipse cx="415.000000" cy="100.592004" rx="16.666667" ry="4.106567" fill="rgb(255, 255, 255)" style="fill-opacity:1.00" />
<rect height="6.159851" width="25.000000" x="415.000000" y="97.512078" fill="rgb(255, 255, 255)" style="fill-opacity:1.00" />
<rect height="1.539963" width="25.000000" x="415.000000" y="102.131967" fill="rgb(255, 165, 0)" style="fill-opacity:1.00" />
<rect height="4.619888" width="6.250000" x="433.750000" y="102.131967" fill="rgb(255, 165, 0)" style="fill-opacity:1.00" />
<!-- End 'G' -->
<!-- Begin 'C' -->
<ellipse cx="415.000000" cy="108.336654" rx="25.000000" ry="1.584799" fill="rgb(0, 0, 128)" style="fill-opacity:1.00" />
<ellipse cx="415.000000" cy="108.336654" rx="16.666667" ry="1.056533" fill="rgb(255, 255, 255)" style="fill-opacity:1.00" />
<rect height="1.584799" width="25.000000" x="415.000000" y="107.544255" fill="rgb(255, 255, 255)" style="fill-opacity:1.00" />
<!-- End 'C' -->
<!-- Begin 'T' -->
<rect height="0.012568" width="50.000000" x="390.000000" y="109.921453" fill="rgb(0, 100, 0)" style="fill-opacity:1.00" />
<rect height="0.078547" width="10.000000" x="410.000000" y="109.921453" fill="rgb(0, 100, 0)" style="fill-opacity:1.00" />
<!-- End 'T' -->
<!-- Begin 'C' -->
<ellipse cx="475.000000" cy="74.694887" rx="25.000000" ry="27.040176" fill="rgb(0, 0, 128)" style="fill-opacity:1.00" />
<ellipse cx="475.000000" cy="74.694887" rx="16.666667" ry="18.026784" fill="rgb(255, 255, 255)" style="fill-opacity:1.00" />
<rect height="27.040176" width="25.000000" x="475.000000" y="61.174799" fill="rgb(255, 255, 255)" style="fill-opacity:1.00" />
<!-- End 'C' -->
<!-- Begin 'T' -->
<rect height="0.692530" width="50.000000" x="450.000000" y="101.735063" fill="rgb(0, 100, 0)" style="fill-opacity:1.00" />
<rect height="4.328313" width="10.000000" x="470.000000" y="101.735063" fill="rgb(0, 100, 0)" style="fill-opacity:1.00" />
<!-- End 'T' -->
<!-- Begin 'A' -->
<polygon points=" 450.000000, 108.784592, 471.000000, 106.063375, 479.000000, 106.063375, 500.000000, 108.784592, 492.500000, 108.784592, 486.250000, 108.104288, 463.750000, 108.104288, 457.500000, 108.784592" fill="rgb(178, 34, 34)" style="fill-opacity:1.00" />
<!-- End 'A' -->
<!-- Begin 'G' -->
<ellipse cx="475.000000" cy="109.392296" rx="25.000000" ry="0.607704" fill="rgb(255, 165, 0)" style="fill-opacity:1.00" />
<ellipse cx="475.000000" cy="109.392296" rx="16.666667" ry="0.405136" fill="rgb(255, 255, 255)" style="fill-opacity:1.00" />
<rect height="0.607704" width="25.000000" x="475.000000" y="109.088444" fill="rgb(255, 255, 255)" style="fill-opacity:1.00" />
<rect height="0.151926" width="25.000000" x="475.000000" y="109.544222" fill="rgb(255, 165, 0)" style="fill-opacity:1.00" />
<rect height="0.455778" width="6.250000" x="493.750000" y="109.544222" fill="rgb(255, 165, 0)" style="fill-opacity:1.00" />
<!-- End 'G' -->
<!-- Begin 'G' -->
<ellipse cx="535.000000" cy="79.988024" rx="25.000000" ry="20.285779" fill="rgb(255, 165, 0)" style="fill-opacity:1.00" />
<ellipse cx="535.000000" cy="79.988024" rx="16.666667" ry="13.523853" fill="rgb(255, 255, 255)" style="fill-opacity:1.00" />
<rect height="20.285779" width="25.000000" x="535.000000" y="69.845134" fill="rgb(255, 255, 255)" style="fill-opacity:1.00" />
<rect height="5.071445" width="25.000000" x="535.000000" y="85.059469" fill="rgb(255, 165, 0)" style="fill-opacity:1.00" />
<rect height="15.214334" width="6.250000" x="553.750000" y="85.059469" fill="rgb(255, 165, 0)" style="fill-opacity:1.00" />
<!-- End 'G' -->
<!-- Begin 'C' -->
<ellipse cx="535.000000" cy="102.434110" rx="25.000000" ry="2.160307" fill="rgb(0, 0, 128)" style="fill-opacity:1.00" />
<ellipse cx="535.000000" cy="102.434110" rx="16.666667" ry="1.440204" fill="rgb(255, 255, 255)" style="fill-opacity:1.00" />
<rect height="2.160307" width="25.000000" x="535.000000" y="101.353956" fill="rgb(255, 255, 255)" style="fill-opacity:1.00" />
<!-- End 'C' -->
<!-- Begin 'T' -->
<rect height="0.610446" width="50.000000" x="510.000000" y="104.594416" fill="rgb(0, 100, 0)" style="fill-opacity:1.00" />
<rect height="3.815287" width="10.000000" x="530.000000" y="104.594416" fill="rgb(0, 100, 0)" style="fill-opacity:1.00" />
<!-- End 'T' -->
<!-- Begin 'A' -->
<polygon points=" 510.000000, 110.000000, 531.000000, 108.409704, 539.000000, 108.409704, 560.000000, 110.000000, 552.500000, 110.000000, 546.250000, 109.602426, 523.750000, 109.602426, 517.500000, 110.000000" fill="rgb(178, 34, 34)" style="fill-opacity:1.00" />
<!-- End 'A' -->
<!-- Begin 'C' -->
<ellipse cx="595.000000" cy="74.424535" rx="25.000000" ry="26.517809" fill="rgb(0, 0, 128)" style="fill-opacity:1.00" />
<ellipse cx="595.000000" cy="74.424535" rx="16.666667" ry="17.678540" fill="rgb(255, 255, 255)" style="fill-opacity:1.00" />
<rect height="26.517809" width="25.000000" x="595.000000" y="61.165630" fill="rgb(255, 255, 255)" style="fill-opacity:1.00" />
<!-- End 'C' -->
<!-- Begin 'T' -->
<rect height="0.986481" width="50.000000" x="570.000000" y="100.942344" fill="rgb(0, 100, 0)" style="fill-opacity:1.00" />
<rect height="6.165506" width="10.000000" x="590.000000" y="100.942344" fill="rgb(0, 100, 0)" style="fill-opacity:1.00" />
<!-- End 'T' -->
<!-- Begin 'A' -->
<polygon points=" 570.000000, 109.602249, 591.000000, 107.107850, 599.000000, 107.107850, 620.000000, 109.602249, 612.500000, 109.602249, 606.250000, 108.978649, 583.750000, 108.978649, 577.500000, 109.602249" fill="rgb(178, 34, 34)" style="fill-opacity:1.00" />
<!-- End 'A' -->
<!-- Begin 'G' -->
<ellipse cx="595.000000" cy="109.801125" rx="25.000000" ry="0.198875" fill="rgb(255, 165, 0)" style="fill-opacity:1.00" />
<ellipse cx="595.000000" cy="109.801125" rx="16.666667" ry="0.132584" fill="rgb(255, 255, 255)" style="fill-opacity:1.00" />
<rect height="0.198875" width="25.000000" x="595.000000" y="109.701687" fill="rgb(255, 255, 255)" style="fill-opacity:1.00" />
<rect height="0.049719" width="25.000000" x="595.000000" y="109.850843" fill="rgb(255, 165, 0)" style="fill-opacity:1.00" />
<rect height="0.149157" width="6.250000" x="613.750000" y="109.850843" fill="rgb(255, 165, 0)" style="fill-opacity:1.00" />
<!-- End 'G' -->
<!-- Begin 'G' -->
<ellipse cx="655.000000" cy="74.486366" rx="25.000000" ry="27.540472" fill="rgb(255, 165, 0)" style="fill-opacity:1.00" />
<ellipse cx="655.000000" cy="74.486366" rx="16.666667" ry="18.360315" fill="rgb(255, 255, 255)" style="fill-opacity:1.00" />
<rect height="27.540472" width="25.000000" x="655.000000" y="60.716129" fill="rgb(255, 255, 255)" style="fill-opacity:1.00" />
<rect height="6.885118" width="25.000000" x="655.000000" y="81.371484" fill="rgb(255, 165, 0)" style="fill-opacity:1.00" />
<rect height="20.655354" width="6.250000" x="673.750000" y="81.371484" fill="rgb(255, 165, 0)" style="fill-opacity:1.00" />
<!-- End 'G' -->
<!-- Begin 'T' -->
<rect height="0.604558" width="50.000000" x="630.000000" y="102.026838" fill="rgb(0, 100, 0)" style="fill-opacity:1.00" />
<rect height="3.778488" width="10.000000" x="650.000000" y="102.026838" fill="rgb(0, 100, 0)" style="fill-opacity:1.00" />
<!-- End 'T' -->
<!-- Begin 'C' -->
<ellipse cx="655.000000" cy="107.034444" rx="25.000000" ry="1.229118" fill="rgb(0, 0, 128)" style="fill-opacity:1.00" />
<ellipse cx="655.000000" cy="107.034444" rx="16.666667" ry="0.819412" fill="rgb(255, 255, 255)" style="fill-opacity:1.00" />
<rect height="1.229118" width="25.000000" x="655.000000" y="106.419885" fill="rgb(255, 255, 255)" style="fill-opacity:1.00" />
<!-- End 'C' -->
<!-- Begin 'A' -->
<polygon points=" 630.000000, 110.000000, 651.000000, 108.263561, 659.000000, 108.263561, 680.000000, 110.000000, 672.500000, 110.000000, 666.250000, 109.565890, 643.750000, 109.565890, 637.500000, 110.000000" fill="rgb(178, 34, 34)" style="fill-opacity:1.00" />
<!-- End 'A' -->
<!-- Begin 'C' -->
<ellipse cx="715.000000" cy="78.901831" rx="25.000000" ry="10.911666" fill="rgb(0, 0, 128)" style="fill-opacity:1.00" />
<ellipse cx="715.000000" cy="78.901831" rx="16.666667" ry="7.274444" fill="rgb(255, 255, 255)" style="fill-opacity:1.00" />
<rect height="10.911666" width="25.000000" x="715.000000" y="73.445998" fill="rgb(255, 255, 255)" style="fill-opacity:1.00" />
<!-- End 'C' -->
<!-- Begin 'T' -->
<rect height="3.056231" width="50.000000" x="690.000000" y="89.813497" fill="rgb(0, 100, 0)" style="fill-opacity:1.00" />
<rect height="19.101445" width="10.000000" x="710.000000" y="89.813497" fill="rgb(0, 100, 0)" style="fill-opacity:1.00" />
<!-- End 'T' -->
<!-- Begin 'A' -->
<polygon points=" 690.000000, 109.837733, 711.000000, 108.914942, 719.000000, 108.914942, 740.000000, 109.837733, 732.500000, 109.837733, 726.250000, 109.607035, 703.750000, 109.607035, 697.500000, 109.837733" fill="rgb(178, 34, 34)" style="fill-opacity:1.00" />
<!-- End 'A' -->
<!-- Begin 'G' -->
<ellipse cx="715.000000" cy="109.918866" rx="25.000000" ry="0.081134" fill="rgb(255, 165, 0)" style="fill-opacity:1.00" />
<ellipse cx="715.000000" cy="109.918866" rx="16.666667" ry="0.054089" fill="rgb(255, 255, 255)" style="fill-opacity:1.00" />
<rect height="0.081134" width="25.000000" x="715.000000" y="109.878299" fill="rgb(255, 255, 255)" style="fill-opacity:1.00" />
<rect height="0.020283" width="25.000000" x="715.000000" y="109.939150" fill="rgb(255, 165, 0)" style="fill-opacity:1.00" />
<rect height="0.060850" width="6.250000" x="733.750000" y="109.939150" fill="rgb(255, 165, 0)" style="fill-opacity:1.00" />
<!-- End 'G' -->
<!-- Begin 'G' -->
<ellipse cx="775.000000" cy="99.882459" rx="25.000000" ry="2.633789" fill="rgb(255, 165, 0)" style="fill-opacity:1.00" />
<ellipse cx="775.000000" cy="99.882459" rx="16.666667" ry="1.755860" fill="rgb(255, 255, 255)" style="fill-opacity:1.00" />
<rect height="2.633789" width="25.000000" x="775.000000" y="98.565564" fill="rgb(255, 255, 255)" style="fill-opacity:1.00" />
<rect height="0.658447" width="25.000000" x="775.000000" y="100.540906" fill="rgb(255, 165, 0)" style="fill-opacity:1.00" />
<rect height="1.975342" width="6.250000" x="793.750000" y="100.540906" fill="rgb(255, 165, 0)" style="fill-opacity:1.00" />
<!-- End 'G' -->
<!-- Begin 'C' -->
<ellipse cx="775.000000" cy="104.528898" rx="25.000000" ry="2.012650" fill="rgb(0, 0, 128)" style="fill-opacity:1.00" />
<ellipse cx="775.000000" cy="104.528898" rx="16.666667" ry="1.341767" fill="rgb(255, 255, 255)" style="fill-opacity:1.00" />
<rect height="2.012650" width="25.000000" x="775.000000" y="103.522573" fill="rgb(255, 255, 255)" style="fill-opacity:1.00" />
<!-- End 'C' -->
<!-- Begin 'T' -->
<rect height="0.455644" width="50.000000" x="750.000000" y="106.541548" fill="rgb(0, 100, 0)" style="fill-opacity:1.00" />
<rect height="2.847773" width="10.000000" x="770.000000" y="106.541548" fill="rgb(0, 100, 0)" style="fill-opacity:1.00" />
<!-- End 'T' -->
<!-- Begin 'A' -->
<polygon points=" 750.000000, 110.000000, 771.000000, 109.389321, 779.000000, 109.389321, 800.000000, 110.000000, 792.500000, 110.000000, 786.250000, 109.847330, 763.750000, 109.847330, 757.500000, 110.000000" fill="rgb(178, 34, 34)" style="fill-opacity:1.00" />
<!-- End 'A' -->
<!-- Begin 'G' -->
<ellipse cx="835.000000" cy="104.906996" rx="25.000000" ry="0.950755" fill="rgb(255, 165, 0)" style="fill-opacity:1.00" />
<ellipse cx="835.000000" cy="104.906996" rx="16.666667" ry="0.633837" fill="rgb(255, 255, 255)" style="fill-opacity:1.00" />
<rect height="0.950755" width="25.000000" x="835.000000" y="104.431619" fill="rgb(255, 255, 255)" style="fill-opacity:1.00" />
<rect height="0.237689" width="25.000000" x="835.000000" y="105.144685" fill="rgb(255, 165, 0)" style="fill-opacity:1.00" />
<rect height="0.713066" width="6.250000" x="853.750000" y="105.144685" fill="rgb(255, 165, 0)" style="fill-opacity:1.00" />
<!-- End 'G' -->
<!-- Begin 'T' -->
<rect height="0.294668" width="50.000000" x="810.000000" y="105.857751" fill="rgb(0, 100, 0)" style="fill-opacity:1.00" />
<rect height="1.841672" width="10.000000" x="830.000000" y="105.857751" fill="rgb(0, 100, 0)" style="fill-opacity:1.00" />
<!-- End 'T' -->
<!-- Begin 'A' -->
<polygon points=" 810.000000, 109.452364, 831.000000, 107.699423, 839.000000, 107.699423, 860.000000, 109.452364, 852.500000, 109.452364, 846.250000, 109.014129, 823.750000, 109.014129, 817.500000, 109.452364" fill="rgb(178, 34, 34)" style="fill-opacity:1.00" />
<!-- End 'A' -->
<!-- Begin 'C' -->
<ellipse cx="835.000000" cy="109.726182" rx="25.000000" ry="0.273818" fill="rgb(0, 0, 128)" style="fill-opacity:1.00" />
<ellipse cx="835.000000" cy="109.726182" rx="16.666667" ry="0.182545" fill="rgb(255, 255, 255)" style="fill-opacity:1.00" />
<rect height="0.273818" width="25.000000" x="835.000000" y="109.589273" fill="rgb(255, 255, 255)" style="fill-opacity:1.00" />
<!-- End 'C' -->
<!-- Begin 'C' -->
<ellipse cx="895.000000" cy="109.830683" rx="25.000000" ry="0.026537" fill="rgb(0, 0, 128)" style="fill-opacity:1.00" />
<ellipse cx="895.000000" cy="109.830683" rx="16.666667" ry="0.017691" fill="rgb(255, 255, 255)" style="fill-opacity:1.00" />
<rect height="0.026537" width="25.000000" x="895.000000" y="109.817415" fill="rgb(255, 255, 255)" style="fill-opacity:1.00" />
<!-- End 'C' -->
<!-- Begin 'A' -->
<polygon points=" 870.000000, 109.909222, 891.000000, 109.857220, 899.000000, 109.857220, 920.000000, 109.909222, 912.500000, 109.909222, 906.250000, 109.896221, 883.750000, 109.896221, 877.500000, 109.909222" fill="rgb(178, 34, 34)" style="fill-opacity:1.00" />
<!-- End 'A' -->
<!-- Begin 'G' -->
<ellipse cx="895.000000" cy="109.932129" rx="25.000000" ry="0.022907" fill="rgb(255, 165, 0)" style="fill-opacity:1.00" />
<ellipse cx="895.000000" cy="109.932129" rx="16.666667" ry="0.015271" fill="rgb(255, 255, 255)" style="fill-opacity:1.00" />
<rect height="0.022907" width="25.000000" x="895.000000" y="109.920675" fill="rgb(255, 255, 255)" style="fill-opacity:1.00" />
<rect height="0.005727" width="25.000000" x="895.000000" y="109.937856" fill="rgb(255, 165, 0)" style="fill-opacity:1.00" />
<rect height="0.017180" width="6.250000" x="913.750000" y="109.937856" fill="rgb(255, 165, 0)" style="fill-opacity:1.00" />
<!-- End 'G' -->
<!-- Begin 'T' -->
<rect height="0.007194" width="50.000000" x="870.000000" y="109.955036" fill="rgb(0, 100, 0)" style="fill-opacity:1.00" />
<rect height="0.044964" width="10.000000" x="890.000000" y="109.955036" fill="rgb(0, 100, 0)" style="fill-opacity:1.00" />
<!-- End 'T' -->
<!-- Begin 'T' -->
<rect height="0.020412" width="50.000000" x="930.000000" y="109.545158" fill="rgb(0, 100, 0)" style="fill-opacity:1.00" />
<rect height="0.127573" width="10.000000" x="950.000000" y="109.545158" fill="rgb(0, 100, 0)" style="fill-opacity:1.00" />
<!-- End 'T' -->
<!-- Begin 'C' -->
<ellipse cx="955.000000" cy="109.733514" rx="25.000000" ry="0.060782" fill="rgb(0, 0, 128)" style="fill-opacity:1.00" />
<ellipse cx="955.000000" cy="109.733514" rx="16.666667" ry="0.040522" fill="rgb(255, 255, 255)" style="fill-opacity:1.00" />
<rect height="0.060782" width="25.000000" x="955.000000" y="109.703122" fill="rgb(255, 255, 255)" style="fill-opacity:1.00" />
<!-- End 'C' -->
<!-- Begin 'A' -->
<polygon points=" 930.000000, 109.905740, 951.000000, 109.794296, 959.000000, 109.794296, 980.000000, 109.905740, 972.500000, 109.905740, 966.250000, 109.877879, 943.750000, 109.877879, 937.500000, 109.905740" fill="rgb(178, 34, 34)" style="fill-opacity:1.00" />
<!-- End 'A' -->
<!-- Begin 'G' -->
<ellipse cx="955.000000" cy="109.952870" rx="25.000000" ry="0.047130" fill="rgb(255, 165, 0)" style="fill-opacity:1.00" />
<ellipse cx="955.000000" cy="109.952870" rx="16.666667" ry="0.031420" fill="rgb(255, 255, 255)" style="fill-opacity:1.00" />
<rect height="0.047130" width="25.000000" x="955.000000" y="109.929305" fill="rgb(255, 255, 255)" style="fill-opacity:1.00" />
<rect height="0.011783" width="25.000000" x="955.000000" y="109.964652" fill="rgb(255, 165, 0)" style="fill-opacity:1.00" />
<rect height="0.035348" width="6.250000" x="973.750000" y="109.964652" fill="rgb(255, 165, 0)" style="fill-opacity:1.00" />
<!-- End 'G' -->
<text x="520.000000" y="165">
IC = 6.99
</text>

</svg>
