<?xml version="1.0" encoding="UTF-8" standalone="yes"?>
                 <!DOCTYPE svg PUBLIC "-//W3C//DTD SVG 1.0//EN" "http://www.w3.org/TR/2001/REC-SVG-20010904/DTD/svg10.dtd">
                 <svg height="170" width="900" xmlns="http://www.w3.org/2000/svg" xmlns:xlink="http://www.w3.org/1999/xlink">
                 <line x1="85" y1="120" x2="867" y2="120" style="stroke:rgb(99,99,99);stroke-width:2" />
<rect height="7.000000" width="2.000000" x="85.000000" y="120.000000" fill="rgb(0, 0, 0)" style="fill-opacity:1.00" />
<text x="107.000000" y="140">
1
</text>
<rect height="7.000000" width="2.000000" x="145.000000" y="120.000000" fill="rgb(0, 0, 0)" style="fill-opacity:1.00" />
<text x="167.000000" y="140">
2
</text>
<rect height="7.000000" width="2.000000" x="205.000000" y="120.000000" fill="rgb(0, 0, 0)" style="fill-opacity:1.00" />
<text x="227.000000" y="140">
3
</text>
<rect height="7.000000" width="2.000000" x="265.000000" y="120.000000" fill="rgb(0, 0, 0)" style="fill-opacity:1.00" />
<text x="287.000000" y="140">
4
</text>
<rect height="7.000000" width="2.000000" x="325.000000" y="120.000000" fill="rgb(0, 0, 0)" style="fill-opacity:1.00" />
<text x="347.000000" y="140">
5
</text>
<rect height="7.000000" width="2.000000" x="385.000000" y="120.000000" fill="rgb(0, 0, 0)" style="fill-opacity:1.00" />
<text x="407.000000" y="140">
6
</text>
<rect height="7.000000" width="2.000000" x="445.000000" y="120.000000" fill="rgb(0, 0, 0)" style="fill-opacity:1.00" />
<text x="467.000000" y="140">
7
</text>
<rect height="7.000000" width="2.000000" x="505.000000" y="120.000000" fill="rgb(0, 0, 0)" style="fill-opacity:1.00" />
<text x="527.000000" y="140">
8
</text>
<rect height="7.000000" width="2.000000" x="565.000000" y="120.000000" fill="rgb(0, 0, 0)" style="fill-opacity:1.00" />
<text x="587.000000" y="140">
9
</text>
<rect height="7.000000" width="2.000000" x="625.000000" y="120.000000" fill="rgb(0, 0, 0)" style="fill-opacity:1.00" />
<text x="647.000000" y="140">
10
</text>
<rect height="7.000000" width="2.000000" x="685.000000" y="120.000000" fill="rgb(0, 0, 0)" style="fill-opacity:1.00" />
<text x="707.000000" y="140">
11
</text>
<rect height="7.000000" width="2.000000" x="745.000000" y="120.000000" fill="rgb(0, 0, 0)" style="fill-opacity:1.00" />
<text x="767.000000" y="140">
12
</text>
<rect height="7.000000" width="2.000000" x="805.000000" y="120.000000" fill="rgb(0, 0, 0)" style="fill-opacity:1.00" />
<text x="827.000000" y="140">
13
</text>
<rect height="7.000000" width="2.000000" x="865.000000" y="120.000000" fill="rgb(0, 0, 0)" style="fill-opacity:1.00" />
<line x1="80" y1="112" x2="80" y2="10" style="stroke:rgb(99,99,99);stroke-width:2" />
<rect height="2.000000" width="7.000000" x="73.000000" y="110.000000" fill="rgb(0, 0, 0)" style="fill-opacity:1.00" />
<text x="63" y="115">
0
</text>
<rect height="2.000000" width="7.000000" x="73.000000" y="60.000000" fill="rgb(0, 0, 0)" style="fill-opacity:1.00" />
<text x="63" y="65">
1
</text>
<rect height="2.000000" width="7.000000" x="73.000000" y="10.000000" fill="rgb(0, 0, 0)" style="fill-opacity:1.00" />
<text x="63" y="15">
2
</text>
<text x="50" y="65"
transform="rotate(-90, 50, 70)">
bits
</text>
<!-- Begin 'T' -->
<rect height="0.165895" width="50.000000" x="90.000000" y="107.111694" fill="rgb(0, 100, 0)" style="fill-opacity:1.00" />
<rect height="1.036841" width="10.000000" x="110.000000" y="107.111694" fill="rgb(0, 100, 0)" style="fill-opacity:1.00" />
<!-- End 'T' -->
<!-- Begin 'C' -->
<ellipse cx="115.000000" cy="108.526504" rx="25.000000" ry="0.377970" fill="rgb(0, 0, 128)" style="fill-opacity:1.00" />
<ellipse cx="115.000000" cy="108.526504" rx="16.666667" ry="0.251980" fill="rgb(255, 255, 255)" style="fill-opacity:1.00" />
<rect height="0.377970" width="25.000000" x="115.000000" y="108.337519" fill="rgb(255, 255, 255)" style="fill-opacity:1.00" />
<!-- End 'C' -->
<!-- Begin 'A' -->
<polygon points=" 90.000000, 109.520598, 111.000000, 108.904474, 119.000000, 108.904474, 140.000000, 109.520598, 132.500000, 109.520598, 126.250000, 109.366567, 103.750000, 109.366567, 97.500000, 109.520598" fill="rgb(178, 34, 34)" style="fill-opacity:1.00" />
<!-- End 'A' -->
<!-- Begin 'G' -->
<ellipse cx="115.000000" cy="109.760299" rx="25.000000" ry="0.239701" fill="rgb(255, 165, 0)" style="fill-opacity:1.00" />
<ellipse cx="115.000000" cy="109.760299" rx="16.666667" ry="0.159801" fill="rgb(255, 255, 255)" style="fill-opacity:1.00" />
<rect height="0.239701" width="25.000000" x="115.000000" y="109.640448" fill="rgb(255, 255, 255)" style="fill-opacity:1.00" />
<rect height="0.059925" width="25.000000" x="115.000000" y="109.820224" fill="rgb(255, 165, 0)" style="fill-opacity:1.00" />
<rect height="0.179776" width="6.250000" x="133.750000" y="109.820224" fill="rgb(255, 165, 0)" style="fill-opacity:1.00" />
<!-- End 'G' -->
<!-- Begin 'T' -->
<rect height="0.356028" width="50.000000" x="150.000000" y="104.626795" fill="rgb(0, 100, 0)" style="fill-opacity:1.00" />
<rect height="2.225175" width="10.000000" x="170.000000" y="104.626795" fill="rgb(0, 100, 0)" style="fill-opacity:1.00" />
<!-- End 'T' -->
<!-- Begin 'G' -->
<ellipse cx="175.000000" cy="107.490954" rx="25.000000" ry="0.638984" fill="rgb(255, 165, 0)" style="fill-opacity:1.00" />
<ellipse cx="175.000000" cy="107.490954" rx="16.666667" ry="0.425990" fill="rgb(255, 255, 255)" style="fill-opacity:1.00" />
<rect height="0.638984" width="25.000000" x="175.000000" y="107.171462" fill="rgb(255, 255, 255)" style="fill-opacity:1.00" />
<rect height="0.159746" width="25.000000" x="175.000000" y="107.650700" fill="rgb(255, 165, 0)" style="fill-opacity:1.00" />
<rect height="0.479238" width="6.250000" x="193.750000" y="107.650700" fill="rgb(255, 165, 0)" style="fill-opacity:1.00" />
<!-- End 'G' -->
<!-- Begin 'A' -->
<polygon points=" 150.000000, 109.196048, 171.000000, 108.129939, 179.000000, 108.129939, 200.000000, 109.196048, 192.500000, 109.196048, 186.250000, 108.929521, 163.750000, 108.929521, 157.500000, 109.196048" fill="rgb(178, 34, 34)" style="fill-opacity:1.00" />
<!-- End 'A' -->
<!-- Begin 'C' -->
<ellipse cx="175.000000" cy="109.598024" rx="25.000000" ry="0.401976" fill="rgb(0, 0, 128)" style="fill-opacity:1.00" />
<ellipse cx="175.000000" cy="109.598024" rx="16.666667" ry="0.267984" fill="rgb(255, 255, 255)" style="fill-opacity:1.00" />
<rect height="0.401976" width="25.000000" x="175.000000" y="109.397036" fill="rgb(255, 255, 255)" style="fill-opacity:1.00" />
<!-- End 'C' -->
<!-- Begin 'T' -->
<rect height="6.957892" width="50.000000" x="210.000000" y="56.701016" fill="rgb(0, 100, 0)" style="fill-opacity:1.00" />
<rect height="43.486823" width="10.000000" x="230.000000" y="56.701016" fill="rgb(0, 100, 0)" style="fill-opacity:1.00" />
<!-- End 'T' -->
<!-- Begin 'A' -->
<polygon points=" 210.000000, 106.305947, 231.000000, 100.187839, 239.000000, 100.187839, 260.000000, 106.305947, 252.500000, 106.305947, 246.250000, 104.776420, 223.750000, 104.776420, 217.500000, 106.305947" fill="rgb(178, 34, 34)" style="fill-opacity:1.00" />
<!-- End 'A' -->
<!-- Begin 'C' -->
<ellipse cx="235.000000" cy="107.280422" rx="25.000000" ry="0.974475" fill="rgb(0, 0, 128)" style="fill-opacity:1.00" />
<ellipse cx="235.000000" cy="107.280422" rx="16.666667" ry="0.649650" fill="rgb(255, 255, 255)" style="fill-opacity:1.00" />
<rect height="0.974475" width="25.000000" x="235.000000" y="106.793185" fill="rgb(255, 255, 255)" style="fill-opacity:1.00" />
<!-- End 'C' -->
<!-- Begin 'G' -->
<ellipse cx="235.000000" cy="109.127448" rx="25.000000" ry="0.872552" fill="rgb(255, 165, 0)" style="fill-opacity:1.00" />
<ellipse cx="235.000000" cy="109.127448" rx="16.666667" ry="0.581701" fill="rgb(255, 255, 255)" style="fill-opacity:1.00" />
<rect height="0.872552" width="25.000000" x="235.000000" y="108.691173" fill="rgb(255, 255, 255)" style="fill-opacity:1.00" />
<rect height="0.218138" width="25.000000" x="235.000000" y="109.345586" fill="rgb(255, 165, 0)" style="fill-opacity:1.00" />
<rect height="0.654414" width="6.250000" x="253.750000" y="109.345586" fill="rgb(255, 165, 0)" style="fill-opacity:1.00" />
<!-- End 'G' -->
<!-- Begin 'T' -->
<rect height="9.892412" width="50.000000" x="270.000000" y="41.031741" fill="rgb(0, 100, 0)" style="fill-opacity:1.00" />
<rect height="61.827572" width="10.000000" x="290.000000" y="41.031741" fill="rgb(0, 100, 0)" style="fill-opacity:1.00" />
<!-- End 'T' -->
<!-- Begin 'A' -->
<polygon points=" 270.000000, 107.196168, 291.000000, 102.859314, 299.000000, 102.859314, 320.000000, 107.196168, 312.500000, 107.196168, 306.250000, 106.111954, 283.750000, 106.111954, 277.500000, 107.196168" fill="rgb(178, 34, 34)" style="fill-opacity:1.00" />
<!-- End 'A' -->
<!-- Begin 'G' -->
<ellipse cx="295.000000" cy="107.953584" rx="25.000000" ry="0.757416" fill="rgb(255, 165, 0)" style="fill-opacity:1.00" />
<ellipse cx="295.000000" cy="107.953584" rx="16.666667" ry="0.504944" fill="rgb(255, 255, 255)" style="fill-opacity:1.00" />
<rect height="0.757416" width="25.000000" x="295.000000" y="107.574876" fill="rgb(255, 255, 255)" style="fill-opacity:1.00" />
<rect height="0.189354" width="25.000000" x="295.000000" y="108.142938" fill="rgb(255, 165, 0)" style="fill-opacity:1.00" />
<rect height="0.568062" width="6.250000" x="313.750000" y="108.142938" fill="rgb(255, 165, 0)" style="fill-opacity:1.00" />
<!-- End 'G' -->
<!-- Begin 'C' -->
<ellipse cx="295.000000" cy="109.355500" rx="25.000000" ry="0.644500" fill="rgb(0, 0, 128)" style="fill-opacity:1.00" />
<ellipse cx="295.000000" cy="109.355500" rx="16.666667" ry="0.429667" fill="rgb(255, 255, 255)" style="fill-opacity:1.00" />
<rect height="0.644500" width="25.000000" x="295.000000" y="109.033250" fill="rgb(255, 255, 255)" style="fill-opacity:1.00" />
<!-- End 'C' -->
<!-- Begin 'G' -->
<ellipse cx="355.000000" cy="77.620506" rx="25.000000" ry="17.988508" fill="rgb(255, 165, 0)" style="fill-opacity:1.00" />
<ellipse cx="355.000000" cy="77.620506" rx="16.666667" ry="11.992339" fill="rgb(255, 255, 255)" style="fill-opacity:1.00" />
<rect height="17.988508" width="25.000000" x="355.000000" y="68.626252" fill="rgb(255, 255, 255)" style="fill-opacity:1.00" />
<rect height="4.497127" width="25.000000" x="355.000000" y="82.117633" fill="rgb(255, 165, 0)" style="fill-opacity:1.00" />
<rect height="13.491381" width="6.250000" x="373.750000" y="82.117633" fill="rgb(255, 165, 0)" style="fill-opacity:1.00" />
<!-- End 'G' -->
<!-- Begin 'T' -->
<rect height="2.098244" width="50.000000" x="330.000000" y="95.609014" fill="rgb(0, 100, 0)" style="fill-opacity:1.00" />
<rect height="13.114027" width="10.000000" x="350.000000" y="95.609014" fill="rgb(0, 100, 0)" style="fill-opacity:1.00" />
<!-- End 'T' -->
<!-- Begin 'C' -->
<ellipse cx="355.000000" cy="109.336645" rx="25.000000" ry="0.613604" fill="rgb(0, 0, 128)" style="fill-opacity:1.00" />
<ellipse cx="355.000000" cy="109.336645" rx="16.666667" ry="0.409069" fill="rgb(255, 255, 255)" style="fill-opacity:1.00" />
<rect height="0.613604" width="25.000000" x="355.000000" y="109.029843" fill="rgb(255, 255, 255)" style="fill-opacity:1.00" />
<!-- End 'C' -->
<!-- Begin 'A' -->
<polygon points=" 330.000000, 110.000000, 351.000000, 109.950249, 359.000000, 109.950249, 380.000000, 110.000000, 372.500000, 110.000000, 366.250000, 109.987562, 343.750000, 109.987562, 337.500000, 110.000000" fill="rgb(178, 34, 34)" style="fill-opacity:1.00" />
<!-- End 'A' -->
<!-- Begin 'A' -->
<polygon points=" 390.000000, 95.503332, 411.000000, 59.020254, 419.000000, 59.020254, 440.000000, 95.503332, 432.500000, 95.503332, 426.250000, 86.382563, 403.750000, 86.382563, 397.500000, 95.503332" fill="rgb(178, 34, 34)" style="fill-opacity:1.00" />
<polygon points=" 415.000000, 66.316870, 407.000000, 79.910101, 422.000000, 79.910101" fill="rgb(255, 255, 255)" style="fill-opacity:1.00" />
<!-- End 'A' -->
<!-- Begin 'T' -->
<rect height="2.165409" width="50.000000" x="390.000000" y="95.503332" fill="rgb(0, 100, 0)" style="fill-opacity:1.00" />
<rect height="13.533805" width="10.000000" x="410.000000" y="95.503332" fill="rgb(0, 100, 0)" style="fill-opacity:1.00" />
<!-- End 'T' -->
<!-- Begin 'G' -->
<ellipse cx="415.000000" cy="109.287454" rx="25.000000" ry="0.250317" fill="rgb(255, 165, 0)" style="fill-opacity:1.00" />
<ellipse cx="415.000000" cy="109.287454" rx="16.666667" ry="0.166878" fill="rgb(255, 255, 255)" style="fill-opacity:1.00" />
<rect height="0.250317" width="25.000000" x="415.000000" y="109.162296" fill="rgb(255, 255, 255)" style="fill-opacity:1.00" />
<rect height="0.062579" width="25.000000" x="415.000000" y="109.350033" fill="rgb(255, 165, 0)" style="fill-opacity:1.00" />
<rect height="0.187738" width="6.250000" x="433.750000" y="109.350033" fill="rgb(255, 165, 0)" style="fill-opacity:1.00" />
<!-- End 'G' -->
<!-- Begin 'C' -->
<ellipse cx="415.000000" cy="109.768886" rx="25.000000" ry="0.231114" fill="rgb(0, 0, 128)" style="fill-opacity:1.00" />
<ellipse cx="415.000000" cy="109.768886" rx="16.666667" ry="0.154076" fill="rgb(255, 255, 255)" style="fill-opacity:1.00" />
<rect height="0.231114" width="25.000000" x="415.000000" y="109.653328" fill="rgb(255, 255, 255)" style="fill-opacity:1.00" />
<!-- End 'C' -->
<!-- Begin 'C' -->
<ellipse cx="475.000000" cy="66.989936" rx="25.000000" ry="38.359977" fill="rgb(0, 0, 128)" style="fill-opacity:1.00" />
<ellipse cx="475.000000" cy="66.989936" rx="16.666667" ry="25.573318" fill="rgb(255, 255, 255)" style="fill-opacity:1.00" />
<rect height="38.359977" width="25.000000" x="475.000000" y="47.809948" fill="rgb(255, 255, 255)" style="fill-opacity:1.00" />
<!-- End 'C' -->
<!-- Begin 'T' -->
<rect height="0.571654" width="50.000000" x="450.000000" y="105.349913" fill="rgb(0, 100, 0)" style="fill-opacity:1.00" />
<rect height="3.572840" width="10.000000" x="470.000000" y="105.349913" fill="rgb(0, 100, 0)" style="fill-opacity:1.00" />
<!-- End 'T' -->
<!-- Begin 'A' -->
<polygon points=" 450.000000, 109.656446, 471.000000, 108.922752, 479.000000, 108.922752, 500.000000, 109.656446, 492.500000, 109.656446, 486.250000, 109.473022, 463.750000, 109.473022, 457.500000, 109.656446" fill="rgb(178, 34, 34)" style="fill-opacity:1.00" />
<!-- End 'A' -->
<!-- Begin 'G' -->
<ellipse cx="475.000000" cy="109.828223" rx="25.000000" ry="0.171777" fill="rgb(255, 165, 0)" style="fill-opacity:1.00" />
<ellipse cx="475.000000" cy="109.828223" rx="16.666667" ry="0.114518" fill="rgb(255, 255, 255)" style="fill-opacity:1.00" />
<rect height="0.171777" width="25.000000" x="475.000000" y="109.742334" fill="rgb(255, 255, 255)" style="fill-opacity:1.00" />
<rect height="0.042944" width="25.000000" x="475.000000" y="109.871167" fill="rgb(255, 165, 0)" style="fill-opacity:1.00" />
<rect height="0.128833" width="6.250000" x="493.750000" y="109.871167" fill="rgb(255, 165, 0)" style="fill-opacity:1.00" />
<!-- End 'G' -->
<!-- Begin 'T' -->
<rect height="4.695386" width="50.000000" x="510.000000" y="68.170644" fill="rgb(0, 100, 0)" style="fill-opacity:1.00" />
<rect height="29.346165" width="10.000000" x="530.000000" y="68.170644" fill="rgb(0, 100, 0)" style="fill-opacity:1.00" />
<!-- End 'T' -->
<!-- Begin 'C' -->
<ellipse cx="535.000000" cy="102.436860" rx="25.000000" ry="4.920051" fill="rgb(0, 0, 128)" style="fill-opacity:1.00" />
<ellipse cx="535.000000" cy="102.436860" rx="16.666667" ry="3.280034" fill="rgb(255, 255, 255)" style="fill-opacity:1.00" />
<rect height="4.920051" width="25.000000" x="535.000000" y="99.976834" fill="rgb(255, 255, 255)" style="fill-opacity:1.00" />
<!-- End 'C' -->
<!-- Begin 'A' -->
<polygon points=" 510.000000, 108.909900, 531.000000, 107.356911, 539.000000, 107.356911, 560.000000, 108.909900, 552.500000, 108.909900, 546.250000, 108.521652, 523.750000, 108.521652, 517.500000, 108.909900" fill="rgb(178, 34, 34)" style="fill-opacity:1.00" />
<!-- End 'A' -->
<!-- Begin 'G' -->
<ellipse cx="535.000000" cy="109.454950" rx="25.000000" ry="0.545050" fill="rgb(255, 165, 0)" style="fill-opacity:1.00" />
<ellipse cx="535.000000" cy="109.454950" rx="16.666667" ry="0.363367" fill="rgb(255, 255, 255)" style="fill-opacity:1.00" />
<rect height="0.545050" width="25.000000" x="535.000000" y="109.182425" fill="rgb(255, 255, 255)" style="fill-opacity:1.00" />
<rect height="0.136263" width="25.000000" x="535.000000" y="109.591212" fill="rgb(255, 165, 0)" style="fill-opacity:1.00" />
<rect height="0.408788" width="6.250000" x="553.750000" y="109.591212" fill="rgb(255, 165, 0)" style="fill-opacity:1.00" />
<!-- End 'G' -->
<!-- Begin 'T' -->
<rect height="2.246858" width="50.000000" x="570.000000" y="85.404626" fill="rgb(0, 100, 0)" style="fill-opacity:1.00" />
<rect height="14.042862" width="10.000000" x="590.000000" y="85.404626" fill="rgb(0, 100, 0)" style="fill-opacity:1.00" />
<!-- End 'T' -->
<!-- Begin 'A' -->
<polygon points=" 570.000000, 106.634712, 591.000000, 99.447487, 599.000000, 99.447487, 620.000000, 106.634712, 612.500000, 106.634712, 606.250000, 104.837906, 583.750000, 104.837906, 577.500000, 106.634712" fill="rgb(178, 34, 34)" style="fill-opacity:1.00" />
<!-- End 'A' -->
<!-- Begin 'C' -->
<ellipse cx="595.000000" cy="107.585203" rx="25.000000" ry="0.950491" fill="rgb(0, 0, 128)" style="fill-opacity:1.00" />
<ellipse cx="595.000000" cy="107.585203" rx="16.666667" ry="0.633661" fill="rgb(255, 255, 255)" style="fill-opacity:1.00" />
<rect height="0.950491" width="25.000000" x="595.000000" y="107.109957" fill="rgb(255, 255, 255)" style="fill-opacity:1.00" />
<!-- End 'C' -->
<!-- Begin 'G' -->
<ellipse cx="595.000000" cy="109.267847" rx="25.000000" ry="0.732153" fill="rgb(255, 165, 0)" style="fill-opacity:1.00" />
<ellipse cx="595.000000" cy="109.267847" rx="16.666667" ry="0.488102" fill="rgb(255, 255, 255)" style="fill-opacity:1.00" />
<rect height="0.732153" width="25.000000" x="595.000000" y="108.901771" fill="rgb(255, 255, 255)" style="fill-opacity:1.00" />
<rect height="0.183038" width="25.000000" x="595.000000" y="109.450885" fill="rgb(255, 165, 0)" style="fill-opacity:1.00" />
<rect height="0.549115" width="6.250000" x="613.750000" y="109.450885" fill="rgb(255, 165, 0)" style="fill-opacity:1.00" />
<!-- End 'G' -->
<!-- Begin 'T' -->
<rect height="1.290769" width="50.000000" x="630.000000" y="95.002503" fill="rgb(0, 100, 0)" style="fill-opacity:1.00" />
<rect height="8.067305" width="10.000000" x="650.000000" y="95.002503" fill="rgb(0, 100, 0)" style="fill-opacity:1.00" />
<!-- End 'T' -->
<!-- Begin 'A' -->
<polygon points=" 630.000000, 106.293606, 651.000000, 103.069809, 659.000000, 103.069809, 680.000000, 106.293606, 672.500000, 106.293606, 666.250000, 105.487656, 643.750000, 105.487656, 637.500000, 106.293606" fill="rgb(178, 34, 34)" style="fill-opacity:1.00" />
<!-- End 'A' -->
<!-- Begin 'C' -->
<ellipse cx="655.000000" cy="107.348069" rx="25.000000" ry="1.054463" fill="rgb(0, 0, 128)" style="fill-opacity:1.00" />
<ellipse cx="655.000000" cy="107.348069" rx="16.666667" ry="0.702975" fill="rgb(255, 255, 255)" style="fill-opacity:1.00" />
<rect height="1.054463" width="25.000000" x="655.000000" y="106.820837" fill="rgb(255, 255, 255)" style="fill-opacity:1.00" />
<!-- End 'C' -->
<!-- Begin 'G' -->
<ellipse cx="655.000000" cy="109.201266" rx="25.000000" ry="0.798734" fill="rgb(255, 165, 0)" style="fill-opacity:1.00" />
<ellipse cx="655.000000" cy="109.201266" rx="16.666667" ry="0.532489" fill="rgb(255, 255, 255)" style="fill-opacity:1.00" />
<rect height="0.798734" width="25.000000" x="655.000000" y="108.801899" fill="rgb(255, 255, 255)" style="fill-opacity:1.00" />
<rect height="0.199684" width="25.000000" x="655.000000" y="109.400949" fill="rgb(255, 165, 0)" style="fill-opacity:1.00" />
<rect height="0.599051" width="6.250000" x="673.750000" y="109.400949" fill="rgb(255, 165, 0)" style="fill-opacity:1.00" />
<!-- End 'G' -->
<!-- Begin 'T' -->
<rect height="0.597486" width="50.000000" x="690.000000" y="101.798705" fill="rgb(0, 100, 0)" style="fill-opacity:1.00" />
<rect height="3.734287" width="10.000000" x="710.000000" y="101.798705" fill="rgb(0, 100, 0)" style="fill-opacity:1.00" />
<!-- End 'T' -->
<!-- Begin 'A' -->
<polygon points=" 690.000000, 107.522461, 711.000000, 105.532991, 719.000000, 105.532991, 740.000000, 107.522461, 732.500000, 107.522461, 726.250000, 107.025094, 703.750000, 107.025094, 697.500000, 107.522461" fill="rgb(178, 34, 34)" style="fill-opacity:1.00" />
<!-- End 'A' -->
<!-- Begin 'G' -->
<ellipse cx="715.000000" cy="108.165686" rx="25.000000" ry="0.643224" fill="rgb(255, 165, 0)" style="fill-opacity:1.00" />
<ellipse cx="715.000000" cy="108.165686" rx="16.666667" ry="0.428816" fill="rgb(255, 255, 255)" style="fill-opacity:1.00" />
<rect height="0.643224" width="25.000000" x="715.000000" y="107.844074" fill="rgb(255, 255, 255)" style="fill-opacity:1.00" />
<rect height="0.160806" width="25.000000" x="715.000000" y="108.326492" fill="rgb(255, 165, 0)" style="fill-opacity:1.00" />
<rect height="0.482418" width="6.250000" x="733.750000" y="108.326492" fill="rgb(255, 165, 0)" style="fill-opacity:1.00" />
<!-- End 'G' -->
<!-- Begin 'C' -->
<ellipse cx="715.000000" cy="109.404455" rx="25.000000" ry="0.595545" fill="rgb(0, 0, 128)" style="fill-opacity:1.00" />
<ellipse cx="715.000000" cy="109.404455" rx="16.666667" ry="0.397030" fill="rgb(255, 255, 255)" style="fill-opacity:1.00" />
<rect height="0.595545" width="25.000000" x="715.000000" y="109.106683" fill="rgb(255, 255, 255)" style="fill-opacity:1.00" />
<!-- End 'C' -->
<!-- Begin 'T' -->
<rect height="0.411275" width="50.000000" x="750.000000" y="103.893032" fill="rgb(0, 100, 0)" style="fill-opacity:1.00" />
<rect height="2.570471" width="10.000000" x="770.000000" y="103.893032" fill="rgb(0, 100, 0)" style="fill-opacity:1.00" />
<!-- End 'T' -->
<!-- Begin 'A' -->
<polygon points=" 750.000000, 108.031068, 771.000000, 106.463504, 779.000000, 106.463504, 800.000000, 108.031068, 792.500000, 108.031068, 786.250000, 107.639177, 763.750000, 107.639177, 757.500000, 108.031068" fill="rgb(178, 34, 34)" style="fill-opacity:1.00" />
<!-- End 'A' -->
<!-- Begin 'C' -->
<ellipse cx="775.000000" cy="108.534523" rx="25.000000" ry="0.503454" fill="rgb(0, 0, 128)" style="fill-opacity:1.00" />
<ellipse cx="775.000000" cy="108.534523" rx="16.666667" ry="0.335636" fill="rgb(255, 255, 255)" style="fill-opacity:1.00" />
<rect height="0.503454" width="25.000000" x="775.000000" y="108.282795" fill="rgb(255, 255, 255)" style="fill-opacity:1.00" />
<!-- End 'C' -->
<!-- Begin 'G' -->
<ellipse cx="775.000000" cy="109.518988" rx="25.000000" ry="0.481012" fill="rgb(255, 165, 0)" style="fill-opacity:1.00" />
<ellipse cx="775.000000" cy="109.518988" rx="16.666667" ry="0.320674" fill="rgb(255, 255, 255)" style="fill-opacity:1.00" />
<rect height="0.481012" width="25.000000" x="775.000000" y="109.278483" fill="rgb(255, 255, 255)" style="fill-opacity:1.00" />
<rect height="0.120253" width="25.000000" x="775.000000" y="109.639241" fill="rgb(255, 165, 0)" style="fill-opacity:1.00" />
<rect height="0.360759" width="6.250000" x="793.750000" y="109.639241" fill="rgb(255, 165, 0)" style="fill-opacity:1.00" />
<!-- End 'G' -->
<!-- Begin 'T' -->
<rect height="0.232699" width="50.000000" x="810.000000" y="106.071582" fill="rgb(0, 100, 0)" style="fill-opacity:1.00" />
<rect height="1.454372" width="10.000000" x="830.000000" y="106.071582" fill="rgb(0, 100, 0)" style="fill-opacity:1.00" />
<!-- End 'T' -->
<!-- Begin 'A' -->
<polygon points=" 810.000000, 108.607807, 831.000000, 107.525953, 839.000000, 107.525953, 860.000000, 108.607807, 852.500000, 108.607807, 846.250000, 108.337344, 823.750000, 108.337344, 817.500000, 108.607807" fill="rgb(178, 34, 34)" style="fill-opacity:1.00" />
<!-- End 'A' -->
<!-- Begin 'C' -->
<ellipse cx="835.000000" cy="109.010865" rx="25.000000" ry="0.403058" fill="rgb(0, 0, 128)" style="fill-opacity:1.00" />
<ellipse cx="835.000000" cy="109.010865" rx="16.666667" ry="0.268705" fill="rgb(255, 255, 255)" style="fill-opacity:1.00" />
<rect height="0.403058" width="25.000000" x="835.000000" y="108.809336" fill="rgb(255, 255, 255)" style="fill-opacity:1.00" />
<!-- End 'C' -->
<!-- Begin 'G' -->
<ellipse cx="835.000000" cy="109.706962" rx="25.000000" ry="0.293038" fill="rgb(255, 165, 0)" style="fill-opacity:1.00" />
<ellipse cx="835.000000" cy="109.706962" rx="16.666667" ry="0.195359" fill="rgb(255, 255, 255)" style="fill-opacity:1.00" />
<rect height="0.293038" width="25.000000" x="835.000000" y="109.560442" fill="rgb(255, 255, 255)" style="fill-opacity:1.00" />
<rect height="0.073260" width="25.000000" x="835.000000" y="109.780221" fill="rgb(255, 165, 0)" style="fill-opacity:1.00" />
<rect height="0.219779" width="6.250000" x="853.750000" y="109.780221" fill="rgb(255, 165, 0)" style="fill-opacity:1.00" />
<!-- End 'G' -->
<text x="460.000000" y="165">
IC = 8.26
</text>

</svg>
