<?xml version="1.0" encoding="UTF-8" standalone="yes"?>
                 <!DOCTYPE svg PUBLIC "-//W3C//DTD SVG 1.0//EN" "http://www.w3.org/TR/2001/REC-SVG-20010904/DTD/svg10.dtd">
                 <svg height="170" width="780" xmlns="http://www.w3.org/2000/svg" xmlns:xlink="http://www.w3.org/1999/xlink">
                 <line x1="85" y1="120" x2="747" y2="120" style="stroke:rgb(99,99,99);stroke-width:2" />
<rect height="7.000000" width="2.000000" x="85.000000" y="120.000000" fill="rgb(0, 0, 0)" style="fill-opacity:1.00" />
<text x="107.000000" y="140">
1
</text>
<rect height="7.000000" width="2.000000" x="145.000000" y="120.000000" fill="rgb(0, 0, 0)" style="fill-opacity:1.00" />
<text x="167.000000" y="140">
2
</text>
<rect height="7.000000" width="2.000000" x="205.000000" y="120.000000" fill="rgb(0, 0, 0)" style="fill-opacity:1.00" />
<text x="227.000000" y="140">
3
</text>
<rect height="7.000000" width="2.000000" x="265.000000" y="120.000000" fill="rgb(0, 0, 0)" style="fill-opacity:1.00" />
<text x="287.000000" y="140">
4
</text>
<rect height="7.000000" width="2.000000" x="325.000000" y="120.000000" fill="rgb(0, 0, 0)" style="fill-opacity:1.00" />
<text x="347.000000" y="140">
5
</text>
<rect height="7.000000" width="2.000000" x="385.000000" y="120.000000" fill="rgb(0, 0, 0)" style="fill-opacity:1.00" />
<text x="407.000000" y="140">
6
</text>
<rect height="7.000000" width="2.000000" x="445.000000" y="120.000000" fill="rgb(0, 0, 0)" style="fill-opacity:1.00" />
<text x="467.000000" y="140">
7
</text>
<rect height="7.000000" width="2.000000" x="505.000000" y="120.000000" fill="rgb(0, 0, 0)" style="fill-opacity:1.00" />
<text x="527.000000" y="140">
8
</text>
<rect height="7.000000" width="2.000000" x="565.000000" y="120.000000" fill="rgb(0, 0, 0)" style="fill-opacity:1.00" />
<text x="587.000000" y="140">
9
</text>
<rect height="7.000000" width="2.000000" x="625.000000" y="120.000000" fill="rgb(0, 0, 0)" style="fill-opacity:1.00" />
<text x="647.000000" y="140">
10
</text>
<rect height="7.000000" width="2.000000" x="685.000000" y="120.000000" fill="rgb(0, 0, 0)" style="fill-opacity:1.00" />
<text x="707.000000" y="140">
11
</text>
<rect height="7.000000" width="2.000000" x="745.000000" y="120.000000" fill="rgb(0, 0, 0)" style="fill-opacity:1.00" />
<line x1="80" y1="112" x2="80" y2="10" style="stroke:rgb(99,99,99);stroke-width:2" />
<rect height="2.000000" width="7.000000" x="73.000000" y="110.000000" fill="rgb(0, 0, 0)" style="fill-opacity:1.00" />
<text x="63" y="115">
0
</text>
<rect height="2.000000" width="7.000000" x="73.000000" y="60.000000" fill="rgb(0, 0, 0)" style="fill-opacity:1.00" />
<text x="63" y="65">
1
</text>
<rect height="2.000000" width="7.000000" x="73.000000" y="10.000000" fill="rgb(0, 0, 0)" style="fill-opacity:1.00" />
<text x="63" y="15">
2
</text>
<text x="50" y="65"
transform="rotate(-90, 50, 70)">
bits
</text>
<!-- Begin 'A' -->
<polygon points=" 90.000000, 98.778259, 111.000000, 70.881612, 119.000000, 70.881612, 140.000000, 98.778259, 132.500000, 98.778259, 126.250000, 91.804097, 103.750000, 91.804097, 97.500000, 98.778259" fill="rgb(178, 34, 34)" style="fill-opacity:1.00" />
<polygon points=" 115.000000, 76.460941, 107.000000, 86.619600, 122.000000, 86.619600" fill="rgb(255, 255, 255)" style="fill-opacity:1.00" />
<!-- End 'A' -->
<!-- Begin 'T' -->
<rect height="1.138612" width="50.000000" x="90.000000" y="98.778259" fill="rgb(0, 100, 0)" style="fill-opacity:1.00" />
<rect height="7.116324" width="10.000000" x="110.000000" y="98.778259" fill="rgb(0, 100, 0)" style="fill-opacity:1.00" />
<!-- End 'T' -->
<!-- Begin 'G' -->
<ellipse cx="115.000000" cy="107.480106" rx="25.000000" ry="1.585523" fill="rgb(255, 165, 0)" style="fill-opacity:1.00" />
<ellipse cx="115.000000" cy="107.480106" rx="16.666667" ry="1.057015" fill="rgb(255, 255, 255)" style="fill-opacity:1.00" />
<rect height="1.585523" width="25.000000" x="115.000000" y="106.687344" fill="rgb(255, 255, 255)" style="fill-opacity:1.00" />
<rect height="0.396381" width="25.000000" x="115.000000" y="107.876487" fill="rgb(255, 165, 0)" style="fill-opacity:1.00" />
<rect height="1.189142" width="6.250000" x="133.750000" y="107.876487" fill="rgb(255, 165, 0)" style="fill-opacity:1.00" />
<!-- End 'G' -->
<!-- Begin 'C' -->
<ellipse cx="115.000000" cy="109.532815" rx="25.000000" ry="0.467185" fill="rgb(0, 0, 128)" style="fill-opacity:1.00" />
<ellipse cx="115.000000" cy="109.532815" rx="16.666667" ry="0.311457" fill="rgb(255, 255, 255)" style="fill-opacity:1.00" />
<rect height="0.467185" width="25.000000" x="115.000000" y="109.299222" fill="rgb(255, 255, 255)" style="fill-opacity:1.00" />
<!-- End 'C' -->
<!-- Begin 'G' -->
<ellipse cx="175.000000" cy="88.944329" rx="25.000000" ry="7.188846" fill="rgb(255, 165, 0)" style="fill-opacity:1.00" />
<ellipse cx="175.000000" cy="88.944329" rx="16.666667" ry="4.792564" fill="rgb(255, 255, 255)" style="fill-opacity:1.00" />
<rect height="7.188846" width="25.000000" x="175.000000" y="85.349906" fill="rgb(255, 255, 255)" style="fill-opacity:1.00" />
<rect height="1.797212" width="25.000000" x="175.000000" y="90.741541" fill="rgb(255, 165, 0)" style="fill-opacity:1.00" />
<rect height="5.391635" width="6.250000" x="193.750000" y="90.741541" fill="rgb(255, 165, 0)" style="fill-opacity:1.00" />
<!-- End 'G' -->
<!-- Begin 'A' -->
<polygon points=" 150.000000, 107.160006, 171.000000, 96.133175, 179.000000, 96.133175, 200.000000, 107.160006, 192.500000, 107.160006, 186.250000, 104.403298, 163.750000, 104.403298, 157.500000, 107.160006" fill="rgb(178, 34, 34)" style="fill-opacity:1.00" />
<polygon points=" 175.000000, 98.338542, 167.000000, 101.749274, 182.000000, 101.749274" fill="rgb(255, 255, 255)" style="fill-opacity:1.00" />
<!-- End 'A' -->
<!-- Begin 'T' -->
<rect height="0.354905" width="50.000000" x="150.000000" y="107.160006" fill="rgb(0, 100, 0)" style="fill-opacity:1.00" />
<rect height="2.218155" width="10.000000" x="170.000000" y="107.160006" fill="rgb(0, 100, 0)" style="fill-opacity:1.00" />
<!-- End 'T' -->
<!-- Begin 'C' -->
<ellipse cx="175.000000" cy="109.689080" rx="25.000000" ry="0.310920" fill="rgb(0, 0, 128)" style="fill-opacity:1.00" />
<ellipse cx="175.000000" cy="109.689080" rx="16.666667" ry="0.207280" fill="rgb(255, 255, 255)" style="fill-opacity:1.00" />
<rect height="0.310920" width="25.000000" x="175.000000" y="109.533621" fill="rgb(255, 255, 255)" style="fill-opacity:1.00" />
<!-- End 'C' -->
<!-- Begin 'A' -->
<polygon points=" 210.000000, 108.535992, 231.000000, 16.612740, 239.000000, 16.612740, 260.000000, 108.535992, 252.500000, 108.535992, 246.250000, 85.555179, 223.750000, 85.555179, 217.500000, 108.535992" fill="rgb(178, 34, 34)" style="fill-opacity:1.00" />
<polygon points=" 235.000000, 34.997391, 227.000000, 70.766691, 242.000000, 70.766691" fill="rgb(255, 255, 255)" style="fill-opacity:1.00" />
<!-- End 'A' -->
<!-- Begin 'C' -->
<ellipse cx="235.000000" cy="109.091659" rx="25.000000" ry="0.555667" fill="rgb(0, 0, 128)" style="fill-opacity:1.00" />
<ellipse cx="235.000000" cy="109.091659" rx="16.666667" ry="0.370445" fill="rgb(255, 255, 255)" style="fill-opacity:1.00" />
<rect height="0.555667" width="25.000000" x="235.000000" y="108.813826" fill="rgb(255, 255, 255)" style="fill-opacity:1.00" />
<!-- End 'C' -->
<!-- Begin 'T' -->
<rect height="0.039308" width="50.000000" x="210.000000" y="109.647327" fill="rgb(0, 100, 0)" style="fill-opacity:1.00" />
<rect height="0.245677" width="10.000000" x="230.000000" y="109.647327" fill="rgb(0, 100, 0)" style="fill-opacity:1.00" />
<!-- End 'T' -->
<!-- Begin 'G' -->
<ellipse cx="235.000000" cy="109.946502" rx="25.000000" ry="0.053498" fill="rgb(255, 165, 0)" style="fill-opacity:1.00" />
<ellipse cx="235.000000" cy="109.946502" rx="16.666667" ry="0.035665" fill="rgb(255, 255, 255)" style="fill-opacity:1.00" />
<rect height="0.053498" width="25.000000" x="235.000000" y="109.919753" fill="rgb(255, 255, 255)" style="fill-opacity:1.00" />
<rect height="0.013375" width="25.000000" x="235.000000" y="109.959876" fill="rgb(255, 165, 0)" style="fill-opacity:1.00" />
<rect height="0.040124" width="6.250000" x="253.750000" y="109.959876" fill="rgb(255, 165, 0)" style="fill-opacity:1.00" />
<!-- End 'G' -->
<!-- Begin 'T' -->
<rect height="14.265588" width="50.000000" x="270.000000" y="18.587634" fill="rgb(0, 100, 0)" style="fill-opacity:1.00" />
<rect height="89.159925" width="10.000000" x="290.000000" y="18.587634" fill="rgb(0, 100, 0)" style="fill-opacity:1.00" />
<!-- End 'T' -->
<!-- Begin 'G' -->
<ellipse cx="295.000000" cy="108.838874" rx="25.000000" ry="1.091316" fill="rgb(255, 165, 0)" style="fill-opacity:1.00" />
<ellipse cx="295.000000" cy="108.838874" rx="16.666667" ry="0.727544" fill="rgb(255, 255, 255)" style="fill-opacity:1.00" />
<rect height="1.091316" width="25.000000" x="295.000000" y="108.293217" fill="rgb(255, 255, 255)" style="fill-opacity:1.00" />
<rect height="0.272829" width="25.000000" x="295.000000" y="109.111703" fill="rgb(255, 165, 0)" style="fill-opacity:1.00" />
<rect height="0.818487" width="6.250000" x="313.750000" y="109.111703" fill="rgb(255, 165, 0)" style="fill-opacity:1.00" />
<!-- End 'G' -->
<!-- Begin 'A' -->
<polygon points=" 270.000000, 109.998980, 291.000000, 109.930190, 299.000000, 109.930190, 320.000000, 109.998980, 312.500000, 109.998980, 306.250000, 109.981783, 283.750000, 109.981783, 277.500000, 109.998980" fill="rgb(178, 34, 34)" style="fill-opacity:1.00" />
<!-- End 'A' -->
<!-- Begin 'C' -->
<ellipse cx="295.000000" cy="109.999490" rx="25.000000" ry="0.000510" fill="rgb(0, 0, 128)" style="fill-opacity:1.00" />
<ellipse cx="295.000000" cy="109.999490" rx="16.666667" ry="0.000340" fill="rgb(255, 255, 255)" style="fill-opacity:1.00" />
<rect height="0.000510" width="25.000000" x="295.000000" y="109.999235" fill="rgb(255, 255, 255)" style="fill-opacity:1.00" />
<!-- End 'C' -->
<!-- Begin 'A' -->
<polygon points=" 330.000000, 99.963222, 351.000000, 51.243777, 359.000000, 51.243777, 380.000000, 99.963222, 372.500000, 99.963222, 366.250000, 87.783361, 343.750000, 87.783361, 337.500000, 99.963222" fill="rgb(178, 34, 34)" style="fill-opacity:1.00" />
<polygon points=" 355.000000, 60.987666, 347.000000, 79.475444, 362.000000, 79.475444" fill="rgb(255, 255, 255)" style="fill-opacity:1.00" />
<!-- End 'A' -->
<!-- Begin 'T' -->
<rect height="1.028955" width="50.000000" x="330.000000" y="99.963222" fill="rgb(0, 100, 0)" style="fill-opacity:1.00" />
<rect height="6.430970" width="10.000000" x="350.000000" y="99.963222" fill="rgb(0, 100, 0)" style="fill-opacity:1.00" />
<!-- End 'T' -->
<!-- Begin 'C' -->
<ellipse cx="355.000000" cy="108.181621" rx="25.000000" ry="1.787430" fill="rgb(0, 0, 128)" style="fill-opacity:1.00" />
<ellipse cx="355.000000" cy="108.181621" rx="16.666667" ry="1.191620" fill="rgb(255, 255, 255)" style="fill-opacity:1.00" />
<rect height="1.787430" width="25.000000" x="355.000000" y="107.287906" fill="rgb(255, 255, 255)" style="fill-opacity:1.00" />
<!-- End 'C' -->
<!-- Begin 'G' -->
<ellipse cx="355.000000" cy="109.984525" rx="25.000000" ry="0.015475" fill="rgb(255, 165, 0)" style="fill-opacity:1.00" />
<ellipse cx="355.000000" cy="109.984525" rx="16.666667" ry="0.010316" fill="rgb(255, 255, 255)" style="fill-opacity:1.00" />
<rect height="0.015475" width="25.000000" x="355.000000" y="109.976788" fill="rgb(255, 255, 255)" style="fill-opacity:1.00" />
<rect height="0.003869" width="25.000000" x="355.000000" y="109.988394" fill="rgb(255, 165, 0)" style="fill-opacity:1.00" />
<rect height="0.011606" width="6.250000" x="373.750000" y="109.988394" fill="rgb(255, 165, 0)" style="fill-opacity:1.00" />
<!-- End 'G' -->
<!-- Begin 'T' -->
<rect height="13.031346" width="50.000000" x="390.000000" y="25.110300" fill="rgb(0, 100, 0)" style="fill-opacity:1.00" />
<rect height="81.445910" width="10.000000" x="410.000000" y="25.110300" fill="rgb(0, 100, 0)" style="fill-opacity:1.00" />
<!-- End 'T' -->
<!-- Begin 'C' -->
<ellipse cx="415.000000" cy="107.435632" rx="25.000000" ry="0.879422" fill="rgb(0, 0, 128)" style="fill-opacity:1.00" />
<ellipse cx="415.000000" cy="107.435632" rx="16.666667" ry="0.586282" fill="rgb(255, 255, 255)" style="fill-opacity:1.00" />
<rect height="0.879422" width="25.000000" x="415.000000" y="106.995921" fill="rgb(255, 255, 255)" style="fill-opacity:1.00" />
<!-- End 'C' -->
<!-- Begin 'A' -->
<polygon points=" 390.000000, 109.541491, 411.000000, 108.315054, 419.000000, 108.315054, 440.000000, 109.541491, 432.500000, 109.541491, 426.250000, 109.234882, 403.750000, 109.234882, 397.500000, 109.541491" fill="rgb(178, 34, 34)" style="fill-opacity:1.00" />
<!-- End 'A' -->
<!-- Begin 'G' -->
<ellipse cx="415.000000" cy="109.770745" rx="25.000000" ry="0.229255" fill="rgb(255, 165, 0)" style="fill-opacity:1.00" />
<ellipse cx="415.000000" cy="109.770745" rx="16.666667" ry="0.152836" fill="rgb(255, 255, 255)" style="fill-opacity:1.00" />
<rect height="0.229255" width="25.000000" x="415.000000" y="109.656118" fill="rgb(255, 255, 255)" style="fill-opacity:1.00" />
<rect height="0.057314" width="25.000000" x="415.000000" y="109.828059" fill="rgb(255, 165, 0)" style="fill-opacity:1.00" />
<rect height="0.171941" width="6.250000" x="433.750000" y="109.828059" fill="rgb(255, 165, 0)" style="fill-opacity:1.00" />
<!-- End 'G' -->
<!-- Begin 'T' -->
<rect height="2.795975" width="50.000000" x="450.000000" y="78.916928" fill="rgb(0, 100, 0)" style="fill-opacity:1.00" />
<rect height="17.474846" width="10.000000" x="470.000000" y="78.916928" fill="rgb(0, 100, 0)" style="fill-opacity:1.00" />
<!-- End 'T' -->
<!-- Begin 'C' -->
<ellipse cx="475.000000" cy="101.889897" rx="25.000000" ry="5.498123" fill="rgb(0, 0, 128)" style="fill-opacity:1.00" />
<ellipse cx="475.000000" cy="101.889897" rx="16.666667" ry="3.665415" fill="rgb(255, 255, 255)" style="fill-opacity:1.00" />
<rect height="5.498123" width="25.000000" x="475.000000" y="99.140836" fill="rgb(255, 255, 255)" style="fill-opacity:1.00" />
<!-- End 'C' -->
<!-- Begin 'A' -->
<polygon points=" 450.000000, 109.000864, 471.000000, 107.388021, 479.000000, 107.388021, 500.000000, 109.000864, 492.500000, 109.000864, 486.250000, 108.597653, 463.750000, 108.597653, 457.500000, 109.000864" fill="rgb(178, 34, 34)" style="fill-opacity:1.00" />
<!-- End 'A' -->
<!-- Begin 'G' -->
<ellipse cx="475.000000" cy="109.500432" rx="25.000000" ry="0.499568" fill="rgb(255, 165, 0)" style="fill-opacity:1.00" />
<ellipse cx="475.000000" cy="109.500432" rx="16.666667" ry="0.333045" fill="rgb(255, 255, 255)" style="fill-opacity:1.00" />
<rect height="0.499568" width="25.000000" x="475.000000" y="109.250648" fill="rgb(255, 255, 255)" style="fill-opacity:1.00" />
<rect height="0.124892" width="25.000000" x="475.000000" y="109.625324" fill="rgb(255, 165, 0)" style="fill-opacity:1.00" />
<rect height="0.374676" width="6.250000" x="493.750000" y="109.625324" fill="rgb(255, 165, 0)" style="fill-opacity:1.00" />
<!-- End 'G' -->
<!-- Begin 'T' -->
<rect height="3.863130" width="50.000000" x="510.000000" y="75.239756" fill="rgb(0, 100, 0)" style="fill-opacity:1.00" />
<rect height="24.144563" width="10.000000" x="530.000000" y="75.239756" fill="rgb(0, 100, 0)" style="fill-opacity:1.00" />
<!-- End 'T' -->
<!-- Begin 'A' -->
<polygon points=" 510.000000, 105.728949, 531.000000, 99.384320, 539.000000, 99.384320, 560.000000, 105.728949, 552.500000, 105.728949, 546.250000, 104.142792, 523.750000, 104.142792, 517.500000, 105.728949" fill="rgb(178, 34, 34)" style="fill-opacity:1.00" />
<!-- End 'A' -->
<!-- Begin 'C' -->
<ellipse cx="535.000000" cy="106.986087" rx="25.000000" ry="1.257138" fill="rgb(0, 0, 128)" style="fill-opacity:1.00" />
<ellipse cx="535.000000" cy="106.986087" rx="16.666667" ry="0.838092" fill="rgb(255, 255, 255)" style="fill-opacity:1.00" />
<rect height="1.257138" width="25.000000" x="535.000000" y="106.357518" fill="rgb(255, 255, 255)" style="fill-opacity:1.00" />
<!-- End 'C' -->
<!-- Begin 'G' -->
<ellipse cx="535.000000" cy="109.121613" rx="25.000000" ry="0.878387" fill="rgb(255, 165, 0)" style="fill-opacity:1.00" />
<ellipse cx="535.000000" cy="109.121613" rx="16.666667" ry="0.585592" fill="rgb(255, 255, 255)" style="fill-opacity:1.00" />
<rect height="0.878387" width="25.000000" x="535.000000" y="108.682419" fill="rgb(255, 255, 255)" style="fill-opacity:1.00" />
<rect height="0.219597" width="25.000000" x="535.000000" y="109.341209" fill="rgb(255, 165, 0)" style="fill-opacity:1.00" />
<rect height="0.658791" width="6.250000" x="553.750000" y="109.341209" fill="rgb(255, 165, 0)" style="fill-opacity:1.00" />
<!-- End 'G' -->
<!-- Begin 'T' -->
<rect height="1.116972" width="50.000000" x="570.000000" y="95.549811" fill="rgb(0, 100, 0)" style="fill-opacity:1.00" />
<rect height="6.981076" width="10.000000" x="590.000000" y="95.549811" fill="rgb(0, 100, 0)" style="fill-opacity:1.00" />
<!-- End 'T' -->
<!-- Begin 'A' -->
<polygon points=" 570.000000, 106.980678, 591.000000, 102.530887, 599.000000, 102.530887, 620.000000, 106.980678, 612.500000, 106.980678, 606.250000, 105.868230, 583.750000, 105.868230, 577.500000, 106.980678" fill="rgb(178, 34, 34)" style="fill-opacity:1.00" />
<!-- End 'A' -->
<!-- Begin 'G' -->
<ellipse cx="595.000000" cy="107.766474" rx="25.000000" ry="0.785796" fill="rgb(255, 165, 0)" style="fill-opacity:1.00" />
<ellipse cx="595.000000" cy="107.766474" rx="16.666667" ry="0.523864" fill="rgb(255, 255, 255)" style="fill-opacity:1.00" />
<rect height="0.785796" width="25.000000" x="595.000000" y="107.373576" fill="rgb(255, 255, 255)" style="fill-opacity:1.00" />
<rect height="0.196449" width="25.000000" x="595.000000" y="107.962923" fill="rgb(255, 165, 0)" style="fill-opacity:1.00" />
<rect height="0.589347" width="6.250000" x="613.750000" y="107.962923" fill="rgb(255, 165, 0)" style="fill-opacity:1.00" />
<!-- End 'G' -->
<!-- Begin 'C' -->
<ellipse cx="595.000000" cy="109.276135" rx="25.000000" ry="0.723865" fill="rgb(0, 0, 128)" style="fill-opacity:1.00" />
<ellipse cx="595.000000" cy="109.276135" rx="16.666667" ry="0.482577" fill="rgb(255, 255, 255)" style="fill-opacity:1.00" />
<rect height="0.723865" width="25.000000" x="595.000000" y="108.914203" fill="rgb(255, 255, 255)" style="fill-opacity:1.00" />
<!-- End 'C' -->
<!-- Begin 'T' -->
<rect height="0.480422" width="50.000000" x="630.000000" y="102.597833" fill="rgb(0, 100, 0)" style="fill-opacity:1.00" />
<rect height="3.002639" width="10.000000" x="650.000000" y="102.597833" fill="rgb(0, 100, 0)" style="fill-opacity:1.00" />
<!-- End 'T' -->
<!-- Begin 'A' -->
<polygon points=" 630.000000, 107.888940, 651.000000, 105.600471, 659.000000, 105.600471, 680.000000, 107.888940, 672.500000, 107.888940, 666.250000, 107.316822, 643.750000, 107.316822, 637.500000, 107.888940" fill="rgb(178, 34, 34)" style="fill-opacity:1.00" />
<!-- End 'A' -->
<!-- Begin 'C' -->
<ellipse cx="655.000000" cy="108.454461" rx="25.000000" ry="0.565522" fill="rgb(0, 0, 128)" style="fill-opacity:1.00" />
<ellipse cx="655.000000" cy="108.454461" rx="16.666667" ry="0.377015" fill="rgb(255, 255, 255)" style="fill-opacity:1.00" />
<rect height="0.565522" width="25.000000" x="655.000000" y="108.171700" fill="rgb(255, 255, 255)" style="fill-opacity:1.00" />
<!-- End 'C' -->
<!-- Begin 'G' -->
<ellipse cx="655.000000" cy="109.509992" rx="25.000000" ry="0.490008" fill="rgb(255, 165, 0)" style="fill-opacity:1.00" />
<ellipse cx="655.000000" cy="109.509992" rx="16.666667" ry="0.326672" fill="rgb(255, 255, 255)" style="fill-opacity:1.00" />
<rect height="0.490008" width="25.000000" x="655.000000" y="109.264987" fill="rgb(255, 255, 255)" style="fill-opacity:1.00" />
<rect height="0.122502" width="25.000000" x="655.000000" y="109.632494" fill="rgb(255, 165, 0)" style="fill-opacity:1.00" />
<rect height="0.367506" width="6.250000" x="673.750000" y="109.632494" fill="rgb(255, 165, 0)" style="fill-opacity:1.00" />
<!-- End 'G' -->
<!-- Begin 'T' -->
<rect height="0.396111" width="50.000000" x="690.000000" y="103.151014" fill="rgb(0, 100, 0)" style="fill-opacity:1.00" />
<rect height="2.475693" width="10.000000" x="710.000000" y="103.151014" fill="rgb(0, 100, 0)" style="fill-opacity:1.00" />
<!-- End 'T' -->
<!-- Begin 'A' -->
<polygon points=" 690.000000, 108.039747, 711.000000, 105.626706, 719.000000, 105.626706, 740.000000, 108.039747, 732.500000, 108.039747, 726.250000, 107.436487, 703.750000, 107.436487, 697.500000, 108.039747" fill="rgb(178, 34, 34)" style="fill-opacity:1.00" />
<!-- End 'A' -->
<!-- Begin 'G' -->
<ellipse cx="715.000000" cy="108.557742" rx="25.000000" ry="0.517995" fill="rgb(255, 165, 0)" style="fill-opacity:1.00" />
<ellipse cx="715.000000" cy="108.557742" rx="16.666667" ry="0.345330" fill="rgb(255, 255, 255)" style="fill-opacity:1.00" />
<rect height="0.517995" width="25.000000" x="715.000000" y="108.298744" fill="rgb(255, 255, 255)" style="fill-opacity:1.00" />
<rect height="0.129499" width="25.000000" x="715.000000" y="108.687240" fill="rgb(255, 165, 0)" style="fill-opacity:1.00" />
<rect height="0.388496" width="6.250000" x="733.750000" y="108.687240" fill="rgb(255, 165, 0)" style="fill-opacity:1.00" />
<!-- End 'G' -->
<!-- Begin 'C' -->
<ellipse cx="715.000000" cy="109.537868" rx="25.000000" ry="0.462132" fill="rgb(0, 0, 128)" style="fill-opacity:1.00" />
<ellipse cx="715.000000" cy="109.537868" rx="16.666667" ry="0.308088" fill="rgb(255, 255, 255)" style="fill-opacity:1.00" />
<rect height="0.462132" width="25.000000" x="715.000000" y="109.306802" fill="rgb(255, 255, 255)" style="fill-opacity:1.00" />
<!-- End 'C' -->
<text x="400.000000" y="165">
IC = 9.81
</text>

</svg>
