<?xml version="1.0" encoding="UTF-8" standalone="yes"?>
                 <!DOCTYPE svg PUBLIC "-//W3C//DTD SVG 1.0//EN" "http://www.w3.org/TR/2001/REC-SVG-20010904/DTD/svg10.dtd">
                 <svg height="170" width="1020" xmlns="http://www.w3.org/2000/svg" xmlns:xlink="http://www.w3.org/1999/xlink">
                 <line x1="85" y1="120" x2="987" y2="120" style="stroke:rgb(99,99,99);stroke-width:2" />
<rect height="7.000000" width="2.000000" x="85.000000" y="120.000000" fill="rgb(0, 0, 0)" style="fill-opacity:1.00" />
<text x="107.000000" y="140">
1
</text>
<rect height="7.000000" width="2.000000" x="145.000000" y="120.000000" fill="rgb(0, 0, 0)" style="fill-opacity:1.00" />
<text x="167.000000" y="140">
2
</text>
<rect height="7.000000" width="2.000000" x="205.000000" y="120.000000" fill="rgb(0, 0, 0)" style="fill-opacity:1.00" />
<text x="227.000000" y="140">
3
</text>
<rect height="7.000000" width="2.000000" x="265.000000" y="120.000000" fill="rgb(0, 0, 0)" style="fill-opacity:1.00" />
<text x="287.000000" y="140">
4
</text>
<rect height="7.000000" width="2.000000" x="325.000000" y="120.000000" fill="rgb(0, 0, 0)" style="fill-opacity:1.00" />
<text x="347.000000" y="140">
5
</text>
<rect height="7.000000" width="2.000000" x="385.000000" y="120.000000" fill="rgb(0, 0, 0)" style="fill-opacity:1.00" />
<text x="407.000000" y="140">
6
</text>
<rect height="7.000000" width="2.000000" x="445.000000" y="120.000000" fill="rgb(0, 0, 0)" style="fill-opacity:1.00" />
<text x="467.000000" y="140">
7
</text>
<rect height="7.000000" width="2.000000" x="505.000000" y="120.000000" fill="rgb(0, 0, 0)" style="fill-opacity:1.00" />
<text x="527.000000" y="140">
8
</text>
<rect height="7.000000" width="2.000000" x="565.000000" y="120.000000" fill="rgb(0, 0, 0)" style="fill-opacity:1.00" />
<text x="587.000000" y="140">
9
</text>
<rect height="7.000000" width="2.000000" x="625.000000" y="120.000000" fill="rgb(0, 0, 0)" style="fill-opacity:1.00" />
<text x="647.000000" y="140">
10
</text>
<rect height="7.000000" width="2.000000" x="685.000000" y="120.000000" fill="rgb(0, 0, 0)" style="fill-opacity:1.00" />
<text x="707.000000" y="140">
11
</text>
<rect height="7.000000" width="2.000000" x="745.000000" y="120.000000" fill="rgb(0, 0, 0)" style="fill-opacity:1.00" />
<text x="767.000000" y="140">
12
</text>
<rect height="7.000000" width="2.000000" x="805.000000" y="120.000000" fill="rgb(0, 0, 0)" style="fill-opacity:1.00" />
<text x="827.000000" y="140">
13
</text>
<rect height="7.000000" width="2.000000" x="865.000000" y="120.000000" fill="rgb(0, 0, 0)" style="fill-opacity:1.00" />
<text x="887.000000" y="140">
14
</text>
<rect height="7.000000" width="2.000000" x="925.000000" y="120.000000" fill="rgb(0, 0, 0)" style="fill-opacity:1.00" />
<text x="947.000000" y="140">
15
</text>
<rect height="7.000000" width="2.000000" x="985.000000" y="120.000000" fill="rgb(0, 0, 0)" style="fill-opacity:1.00" />
<line x1="80" y1="112" x2="80" y2="10" style="stroke:rgb(99,99,99);stroke-width:2" />
<rect height="2.000000" width="7.000000" x="73.000000" y="110.000000" fill="rgb(0, 0, 0)" style="fill-opacity:1.00" />
<text x="63" y="115">
0
</text>
<rect height="2.000000" width="7.000000" x="73.000000" y="60.000000" fill="rgb(0, 0, 0)" style="fill-opacity:1.00" />
<text x="63" y="65">
1
</text>
<rect height="2.000000" width="7.000000" x="73.000000" y="10.000000" fill="rgb(0, 0, 0)" style="fill-opacity:1.00" />
<text x="63" y="15">
2
</text>
<text x="50" y="65"
transform="rotate(-90, 50, 70)">
bits
</text>
<!-- Begin 'A' -->
<polygon points=" 90.000000, 103.739658, 111.000000, 98.984630, 119.000000, 98.984630, 140.000000, 103.739658, 132.500000, 103.739658, 126.250000, 102.550901, 103.750000, 102.550901, 97.500000, 103.739658" fill="rgb(178, 34, 34)" style="fill-opacity:1.00" />
<!-- End 'A' -->
<!-- Begin 'T' -->
<rect height="0.584535" width="50.000000" x="90.000000" y="103.739658" fill="rgb(0, 100, 0)" style="fill-opacity:1.00" />
<rect height="3.653344" width="10.000000" x="110.000000" y="103.739658" fill="rgb(0, 100, 0)" style="fill-opacity:1.00" />
<!-- End 'T' -->
<!-- Begin 'C' -->
<ellipse cx="115.000000" cy="108.071364" rx="25.000000" ry="0.678361" fill="rgb(0, 0, 128)" style="fill-opacity:1.00" />
<ellipse cx="115.000000" cy="108.071364" rx="16.666667" ry="0.452241" fill="rgb(255, 255, 255)" style="fill-opacity:1.00" />
<rect height="0.678361" width="25.000000" x="115.000000" y="107.732183" fill="rgb(255, 255, 255)" style="fill-opacity:1.00" />
<!-- End 'C' -->
<!-- Begin 'G' -->
<ellipse cx="115.000000" cy="109.374862" rx="25.000000" ry="0.625138" fill="rgb(255, 165, 0)" style="fill-opacity:1.00" />
<ellipse cx="115.000000" cy="109.374862" rx="16.666667" ry="0.416758" fill="rgb(255, 255, 255)" style="fill-opacity:1.00" />
<rect height="0.625138" width="25.000000" x="115.000000" y="109.062294" fill="rgb(255, 255, 255)" style="fill-opacity:1.00" />
<rect height="0.156284" width="25.000000" x="115.000000" y="109.531147" fill="rgb(255, 165, 0)" style="fill-opacity:1.00" />
<rect height="0.468853" width="6.250000" x="133.750000" y="109.531147" fill="rgb(255, 165, 0)" style="fill-opacity:1.00" />
<!-- End 'G' -->
<!-- Begin 'A' -->
<polygon points=" 150.000000, 103.140792, 171.000000, 97.516025, 179.000000, 97.516025, 200.000000, 103.140792, 192.500000, 103.140792, 186.250000, 101.734600, 163.750000, 101.734600, 157.500000, 103.140792" fill="rgb(178, 34, 34)" style="fill-opacity:1.00" />
<!-- End 'A' -->
<!-- Begin 'T' -->
<rect height="0.645216" width="50.000000" x="150.000000" y="103.140792" fill="rgb(0, 100, 0)" style="fill-opacity:1.00" />
<rect height="4.032603" width="10.000000" x="170.000000" y="103.140792" fill="rgb(0, 100, 0)" style="fill-opacity:1.00" />
<!-- End 'T' -->
<!-- Begin 'G' -->
<ellipse cx="175.000000" cy="108.016833" rx="25.000000" ry="0.843439" fill="rgb(255, 165, 0)" style="fill-opacity:1.00" />
<ellipse cx="175.000000" cy="108.016833" rx="16.666667" ry="0.562292" fill="rgb(255, 255, 255)" style="fill-opacity:1.00" />
<rect height="0.843439" width="25.000000" x="175.000000" y="107.595114" fill="rgb(255, 255, 255)" style="fill-opacity:1.00" />
<rect height="0.210860" width="25.000000" x="175.000000" y="108.227693" fill="rgb(255, 165, 0)" style="fill-opacity:1.00" />
<rect height="0.632579" width="6.250000" x="193.750000" y="108.227693" fill="rgb(255, 165, 0)" style="fill-opacity:1.00" />
<!-- End 'G' -->
<!-- Begin 'C' -->
<ellipse cx="175.000000" cy="109.430136" rx="25.000000" ry="0.569864" fill="rgb(0, 0, 128)" style="fill-opacity:1.00" />
<ellipse cx="175.000000" cy="109.430136" rx="16.666667" ry="0.379909" fill="rgb(255, 255, 255)" style="fill-opacity:1.00" />
<rect height="0.569864" width="25.000000" x="175.000000" y="109.145204" fill="rgb(255, 255, 255)" style="fill-opacity:1.00" />
<!-- End 'C' -->
<!-- Begin 'C' -->
<ellipse cx="235.000000" cy="104.214355" rx="25.000000" ry="1.255738" fill="rgb(0, 0, 128)" style="fill-opacity:1.00" />
<ellipse cx="235.000000" cy="104.214355" rx="16.666667" ry="0.837158" fill="rgb(255, 255, 255)" style="fill-opacity:1.00" />
<rect height="1.255738" width="25.000000" x="235.000000" y="103.586487" fill="rgb(255, 255, 255)" style="fill-opacity:1.00" />
<!-- End 'C' -->
<!-- Begin 'T' -->
<rect height="0.395741" width="50.000000" x="210.000000" y="105.470093" fill="rgb(0, 100, 0)" style="fill-opacity:1.00" />
<rect height="2.473383" width="10.000000" x="230.000000" y="105.470093" fill="rgb(0, 100, 0)" style="fill-opacity:1.00" />
<!-- End 'T' -->
<!-- Begin 'A' -->
<polygon points=" 210.000000, 109.217664, 231.000000, 107.943476, 239.000000, 107.943476, 260.000000, 109.217664, 252.500000, 109.217664, 246.250000, 108.899117, 223.750000, 108.899117, 217.500000, 109.217664" fill="rgb(178, 34, 34)" style="fill-opacity:1.00" />
<!-- End 'A' -->
<!-- Begin 'G' -->
<ellipse cx="235.000000" cy="109.608832" rx="25.000000" ry="0.391168" fill="rgb(255, 165, 0)" style="fill-opacity:1.00" />
<ellipse cx="235.000000" cy="109.608832" rx="16.666667" ry="0.260779" fill="rgb(255, 255, 255)" style="fill-opacity:1.00" />
<rect height="0.391168" width="25.000000" x="235.000000" y="109.413248" fill="rgb(255, 255, 255)" style="fill-opacity:1.00" />
<rect height="0.097792" width="25.000000" x="235.000000" y="109.706624" fill="rgb(255, 165, 0)" style="fill-opacity:1.00" />
<rect height="0.293376" width="6.250000" x="253.750000" y="109.706624" fill="rgb(255, 165, 0)" style="fill-opacity:1.00" />
<!-- End 'G' -->
<!-- Begin 'C' -->
<ellipse cx="295.000000" cy="105.446116" rx="25.000000" ry="0.960264" fill="rgb(0, 0, 128)" style="fill-opacity:1.00" />
<ellipse cx="295.000000" cy="105.446116" rx="16.666667" ry="0.640176" fill="rgb(255, 255, 255)" style="fill-opacity:1.00" />
<rect height="0.960264" width="25.000000" x="295.000000" y="104.965984" fill="rgb(255, 255, 255)" style="fill-opacity:1.00" />
<!-- End 'C' -->
<!-- Begin 'T' -->
<rect height="0.261210" width="50.000000" x="270.000000" y="106.406380" fill="rgb(0, 100, 0)" style="fill-opacity:1.00" />
<rect height="1.632562" width="10.000000" x="290.000000" y="106.406380" fill="rgb(0, 100, 0)" style="fill-opacity:1.00" />
<!-- End 'T' -->
<!-- Begin 'A' -->
<polygon points=" 270.000000, 109.429340, 291.000000, 108.038942, 299.000000, 108.038942, 320.000000, 109.429340, 312.500000, 109.429340, 306.250000, 109.081741, 283.750000, 109.081741, 277.500000, 109.429340" fill="rgb(178, 34, 34)" style="fill-opacity:1.00" />
<!-- End 'A' -->
<!-- Begin 'G' -->
<ellipse cx="295.000000" cy="109.714670" rx="25.000000" ry="0.285330" fill="rgb(255, 165, 0)" style="fill-opacity:1.00" />
<ellipse cx="295.000000" cy="109.714670" rx="16.666667" ry="0.190220" fill="rgb(255, 255, 255)" style="fill-opacity:1.00" />
<rect height="0.285330" width="25.000000" x="295.000000" y="109.572005" fill="rgb(255, 255, 255)" style="fill-opacity:1.00" />
<rect height="0.071332" width="25.000000" x="295.000000" y="109.786003" fill="rgb(255, 165, 0)" style="fill-opacity:1.00" />
<rect height="0.213997" width="6.250000" x="313.750000" y="109.786003" fill="rgb(255, 165, 0)" style="fill-opacity:1.00" />
<!-- End 'G' -->
<!-- Begin 'T' -->
<rect height="6.114750" width="50.000000" x="330.000000" y="60.793625" fill="rgb(0, 100, 0)" style="fill-opacity:1.00" />
<rect height="38.217187" width="10.000000" x="350.000000" y="60.793625" fill="rgb(0, 100, 0)" style="fill-opacity:1.00" />
<!-- End 'T' -->
<!-- Begin 'A' -->
<polygon points=" 330.000000, 105.740190, 351.000000, 99.010812, 359.000000, 99.010812, 380.000000, 105.740190, 372.500000, 105.740190, 366.250000, 104.057845, 343.750000, 104.057845, 337.500000, 105.740190" fill="rgb(178, 34, 34)" style="fill-opacity:1.00" />
<!-- End 'A' -->
<!-- Begin 'C' -->
<ellipse cx="355.000000" cy="107.701556" rx="25.000000" ry="1.961366" fill="rgb(0, 0, 128)" style="fill-opacity:1.00" />
<ellipse cx="355.000000" cy="107.701556" rx="16.666667" ry="1.307577" fill="rgb(255, 255, 255)" style="fill-opacity:1.00" />
<rect height="1.961366" width="25.000000" x="355.000000" y="106.720873" fill="rgb(255, 255, 255)" style="fill-opacity:1.00" />
<!-- End 'C' -->
<!-- Begin 'G' -->
<ellipse cx="355.000000" cy="109.831461" rx="25.000000" ry="0.168539" fill="rgb(255, 165, 0)" style="fill-opacity:1.00" />
<ellipse cx="355.000000" cy="109.831461" rx="16.666667" ry="0.112359" fill="rgb(255, 255, 255)" style="fill-opacity:1.00" />
<rect height="0.168539" width="25.000000" x="355.000000" y="109.747191" fill="rgb(255, 255, 255)" style="fill-opacity:1.00" />
<rect height="0.042135" width="25.000000" x="355.000000" y="109.873596" fill="rgb(255, 165, 0)" style="fill-opacity:1.00" />
<rect height="0.126404" width="6.250000" x="373.750000" y="109.873596" fill="rgb(255, 165, 0)" style="fill-opacity:1.00" />
<!-- End 'G' -->
<!-- Begin 'T' -->
<rect height="7.620282" width="50.000000" x="390.000000" y="53.351855" fill="rgb(0, 100, 0)" style="fill-opacity:1.00" />
<rect height="47.626764" width="10.000000" x="410.000000" y="53.351855" fill="rgb(0, 100, 0)" style="fill-opacity:1.00" />
<!-- End 'T' -->
<!-- Begin 'A' -->
<polygon points=" 390.000000, 105.519287, 411.000000, 100.978619, 419.000000, 100.978619, 440.000000, 105.519287, 432.500000, 105.519287, 426.250000, 104.384120, 403.750000, 104.384120, 397.500000, 105.519287" fill="rgb(178, 34, 34)" style="fill-opacity:1.00" />
<!-- End 'A' -->
<!-- Begin 'C' -->
<ellipse cx="415.000000" cy="106.927951" rx="25.000000" ry="1.408664" fill="rgb(0, 0, 128)" style="fill-opacity:1.00" />
<ellipse cx="415.000000" cy="106.927951" rx="16.666667" ry="0.939109" fill="rgb(255, 255, 255)" style="fill-opacity:1.00" />
<rect height="1.408664" width="25.000000" x="415.000000" y="106.223619" fill="rgb(255, 255, 255)" style="fill-opacity:1.00" />
<!-- End 'C' -->
<!-- Begin 'G' -->
<ellipse cx="415.000000" cy="109.168308" rx="25.000000" ry="0.831692" fill="rgb(255, 165, 0)" style="fill-opacity:1.00" />
<ellipse cx="415.000000" cy="109.168308" rx="16.666667" ry="0.554462" fill="rgb(255, 255, 255)" style="fill-opacity:1.00" />
<rect height="0.831692" width="25.000000" x="415.000000" y="108.752461" fill="rgb(255, 255, 255)" style="fill-opacity:1.00" />
<rect height="0.207923" width="25.000000" x="415.000000" y="109.376231" fill="rgb(255, 165, 0)" style="fill-opacity:1.00" />
<rect height="0.623769" width="6.250000" x="433.750000" y="109.376231" fill="rgb(255, 165, 0)" style="fill-opacity:1.00" />
<!-- End 'G' -->
<!-- Begin 'A' -->
<polygon points=" 450.000000, 105.931489, 471.000000, 27.326582, 479.000000, 27.326582, 500.000000, 105.931489, 492.500000, 105.931489, 486.250000, 86.280262, 463.750000, 86.280262, 457.500000, 105.931489" fill="rgb(178, 34, 34)" style="fill-opacity:1.00" />
<polygon points=" 475.000000, 43.047563, 467.000000, 73.489526, 482.000000, 73.489526" fill="rgb(255, 255, 255)" style="fill-opacity:1.00" />
<!-- End 'A' -->
<!-- Begin 'T' -->
<rect height="0.392826" width="50.000000" x="450.000000" y="105.931489" fill="rgb(0, 100, 0)" style="fill-opacity:1.00" />
<rect height="2.455165" width="10.000000" x="470.000000" y="105.931489" fill="rgb(0, 100, 0)" style="fill-opacity:1.00" />
<!-- End 'T' -->
<!-- Begin 'C' -->
<ellipse cx="475.000000" cy="108.992197" rx="25.000000" ry="0.605542" fill="rgb(0, 0, 128)" style="fill-opacity:1.00" />
<ellipse cx="475.000000" cy="108.992197" rx="16.666667" ry="0.403695" fill="rgb(255, 255, 255)" style="fill-opacity:1.00" />
<rect height="0.605542" width="25.000000" x="475.000000" y="108.689425" fill="rgb(255, 255, 255)" style="fill-opacity:1.00" />
<!-- End 'C' -->
<!-- Begin 'G' -->
<ellipse cx="475.000000" cy="109.798870" rx="25.000000" ry="0.201130" fill="rgb(255, 165, 0)" style="fill-opacity:1.00" />
<ellipse cx="475.000000" cy="109.798870" rx="16.666667" ry="0.134087" fill="rgb(255, 255, 255)" style="fill-opacity:1.00" />
<rect height="0.201130" width="25.000000" x="475.000000" y="109.698304" fill="rgb(255, 255, 255)" style="fill-opacity:1.00" />
<rect height="0.050283" width="25.000000" x="475.000000" y="109.849152" fill="rgb(255, 165, 0)" style="fill-opacity:1.00" />
<rect height="0.150848" width="6.250000" x="493.750000" y="109.849152" fill="rgb(255, 165, 0)" style="fill-opacity:1.00" />
<!-- End 'G' -->
<!-- Begin 'T' -->
<rect height="14.628585" width="50.000000" x="510.000000" y="17.102193" fill="rgb(0, 100, 0)" style="fill-opacity:1.00" />
<rect height="91.428658" width="10.000000" x="530.000000" y="17.102193" fill="rgb(0, 100, 0)" style="fill-opacity:1.00" />
<!-- End 'T' -->
<!-- Begin 'A' -->
<polygon points=" 510.000000, 109.100028, 531.000000, 108.530852, 539.000000, 108.530852, 560.000000, 109.100028, 552.500000, 109.100028, 546.250000, 108.957734, 523.750000, 108.957734, 517.500000, 109.100028" fill="rgb(178, 34, 34)" style="fill-opacity:1.00" />
<!-- End 'A' -->
<!-- Begin 'G' -->
<ellipse cx="535.000000" cy="109.354747" rx="25.000000" ry="0.254719" fill="rgb(255, 165, 0)" style="fill-opacity:1.00" />
<ellipse cx="535.000000" cy="109.354747" rx="16.666667" ry="0.169812" fill="rgb(255, 255, 255)" style="fill-opacity:1.00" />
<rect height="0.254719" width="25.000000" x="535.000000" y="109.227388" fill="rgb(255, 255, 255)" style="fill-opacity:1.00" />
<rect height="0.063680" width="25.000000" x="535.000000" y="109.418427" fill="rgb(255, 165, 0)" style="fill-opacity:1.00" />
<rect height="0.191039" width="6.250000" x="553.750000" y="109.418427" fill="rgb(255, 165, 0)" style="fill-opacity:1.00" />
<!-- End 'G' -->
<!-- Begin 'C' -->
<ellipse cx="535.000000" cy="109.804733" rx="25.000000" ry="0.195267" fill="rgb(0, 0, 128)" style="fill-opacity:1.00" />
<ellipse cx="535.000000" cy="109.804733" rx="16.666667" ry="0.130178" fill="rgb(255, 255, 255)" style="fill-opacity:1.00" />
<rect height="0.195267" width="25.000000" x="535.000000" y="109.707099" fill="rgb(255, 255, 255)" style="fill-opacity:1.00" />
<!-- End 'C' -->
<!-- Begin 'C' -->
<ellipse cx="595.000000" cy="63.613084" rx="25.000000" ry="44.407895" fill="rgb(0, 0, 128)" style="fill-opacity:1.00" />
<ellipse cx="595.000000" cy="63.613084" rx="16.666667" ry="29.605263" fill="rgb(255, 255, 255)" style="fill-opacity:1.00" />
<rect height="44.407895" width="25.000000" x="595.000000" y="41.409137" fill="rgb(255, 255, 255)" style="fill-opacity:1.00" />
<!-- End 'C' -->
<!-- Begin 'A' -->
<polygon points=" 570.000000, 108.923384, 591.000000, 108.020979, 599.000000, 108.020979, 620.000000, 108.923384, 612.500000, 108.923384, 606.250000, 108.697783, 583.750000, 108.697783, 577.500000, 108.923384" fill="rgb(178, 34, 34)" style="fill-opacity:1.00" />
<!-- End 'A' -->
<!-- Begin 'T' -->
<rect height="0.112916" width="50.000000" x="570.000000" y="108.923384" fill="rgb(0, 100, 0)" style="fill-opacity:1.00" />
<rect height="0.705723" width="10.000000" x="590.000000" y="108.923384" fill="rgb(0, 100, 0)" style="fill-opacity:1.00" />
<!-- End 'T' -->
<!-- Begin 'G' -->
<ellipse cx="595.000000" cy="109.814553" rx="25.000000" ry="0.185447" fill="rgb(255, 165, 0)" style="fill-opacity:1.00" />
<ellipse cx="595.000000" cy="109.814553" rx="16.666667" ry="0.123631" fill="rgb(255, 255, 255)" style="fill-opacity:1.00" />
<rect height="0.185447" width="25.000000" x="595.000000" y="109.721830" fill="rgb(255, 255, 255)" style="fill-opacity:1.00" />
<rect height="0.046362" width="25.000000" x="595.000000" y="109.860915" fill="rgb(255, 165, 0)" style="fill-opacity:1.00" />
<rect height="0.139085" width="6.250000" x="613.750000" y="109.860915" fill="rgb(255, 165, 0)" style="fill-opacity:1.00" />
<!-- End 'G' -->
<!-- Begin 'C' -->
<ellipse cx="655.000000" cy="83.888052" rx="25.000000" ry="10.241415" fill="rgb(0, 0, 128)" style="fill-opacity:1.00" />
<ellipse cx="655.000000" cy="83.888052" rx="16.666667" ry="6.827610" fill="rgb(255, 255, 255)" style="fill-opacity:1.00" />
<rect height="10.241415" width="25.000000" x="655.000000" y="78.767344" fill="rgb(255, 255, 255)" style="fill-opacity:1.00" />
<!-- End 'C' -->
<!-- Begin 'T' -->
<rect height="2.222098" width="50.000000" x="630.000000" y="94.129466" fill="rgb(0, 100, 0)" style="fill-opacity:1.00" />
<rect height="13.888113" width="10.000000" x="650.000000" y="94.129466" fill="rgb(0, 100, 0)" style="fill-opacity:1.00" />
<!-- End 'T' -->
<!-- Begin 'A' -->
<polygon points=" 630.000000, 109.424809, 651.000000, 108.017580, 659.000000, 108.017580, 680.000000, 109.424809, 672.500000, 109.424809, 666.250000, 109.073002, 643.750000, 109.073002, 637.500000, 109.424809" fill="rgb(178, 34, 34)" style="fill-opacity:1.00" />
<!-- End 'A' -->
<!-- Begin 'G' -->
<ellipse cx="655.000000" cy="109.712404" rx="25.000000" ry="0.287596" fill="rgb(255, 165, 0)" style="fill-opacity:1.00" />
<ellipse cx="655.000000" cy="109.712404" rx="16.666667" ry="0.191730" fill="rgb(255, 255, 255)" style="fill-opacity:1.00" />
<rect height="0.287596" width="25.000000" x="655.000000" y="109.568607" fill="rgb(255, 255, 255)" style="fill-opacity:1.00" />
<rect height="0.071899" width="25.000000" x="655.000000" y="109.784303" fill="rgb(255, 165, 0)" style="fill-opacity:1.00" />
<rect height="0.215697" width="6.250000" x="673.750000" y="109.784303" fill="rgb(255, 165, 0)" style="fill-opacity:1.00" />
<!-- End 'G' -->
<!-- Begin 'A' -->
<polygon points=" 690.000000, 99.878313, 711.000000, 86.825595, 719.000000, 86.825595, 740.000000, 99.878313, 732.500000, 99.878313, 726.250000, 96.615134, 703.750000, 96.615134, 697.500000, 99.878313" fill="rgb(178, 34, 34)" style="fill-opacity:1.00" />
<polygon points=" 715.000000, 89.436138, 707.000000, 93.657226, 722.000000, 93.657226" fill="rgb(255, 255, 255)" style="fill-opacity:1.00" />
<!-- End 'A' -->
<!-- Begin 'T' -->
<rect height="1.044780" width="50.000000" x="690.000000" y="99.878313" fill="rgb(0, 100, 0)" style="fill-opacity:1.00" />
<rect height="6.529877" width="10.000000" x="710.000000" y="99.878313" fill="rgb(0, 100, 0)" style="fill-opacity:1.00" />
<!-- End 'T' -->
<!-- Begin 'G' -->
<ellipse cx="715.000000" cy="107.649171" rx="25.000000" ry="1.240981" fill="rgb(255, 165, 0)" style="fill-opacity:1.00" />
<ellipse cx="715.000000" cy="107.649171" rx="16.666667" ry="0.827321" fill="rgb(255, 255, 255)" style="fill-opacity:1.00" />
<rect height="1.240981" width="25.000000" x="715.000000" y="107.028680" fill="rgb(255, 255, 255)" style="fill-opacity:1.00" />
<rect height="0.310245" width="25.000000" x="715.000000" y="107.959416" fill="rgb(255, 165, 0)" style="fill-opacity:1.00" />
<rect height="0.930736" width="6.250000" x="733.750000" y="107.959416" fill="rgb(255, 165, 0)" style="fill-opacity:1.00" />
<!-- End 'G' -->
<!-- Begin 'C' -->
<ellipse cx="715.000000" cy="109.445076" rx="25.000000" ry="0.554924" fill="rgb(0, 0, 128)" style="fill-opacity:1.00" />
<ellipse cx="715.000000" cy="109.445076" rx="16.666667" ry="0.369949" fill="rgb(255, 255, 255)" style="fill-opacity:1.00" />
<rect height="0.554924" width="25.000000" x="715.000000" y="109.167614" fill="rgb(255, 255, 255)" style="fill-opacity:1.00" />
<!-- End 'C' -->
<!-- Begin 'T' -->
<rect height="0.645594" width="50.000000" x="750.000000" y="99.867706" fill="rgb(0, 100, 0)" style="fill-opacity:1.00" />
<rect height="4.034963" width="10.000000" x="770.000000" y="99.867706" fill="rgb(0, 100, 0)" style="fill-opacity:1.00" />
<!-- End 'T' -->
<!-- Begin 'A' -->
<polygon points=" 750.000000, 107.338018, 771.000000, 103.902669, 779.000000, 103.902669, 800.000000, 107.338018, 792.500000, 107.338018, 786.250000, 106.479181, 763.750000, 106.479181, 757.500000, 107.338018" fill="rgb(178, 34, 34)" style="fill-opacity:1.00" />
<!-- End 'A' -->
<!-- Begin 'C' -->
<ellipse cx="775.000000" cy="108.264919" rx="25.000000" ry="0.926901" fill="rgb(0, 0, 128)" style="fill-opacity:1.00" />
<ellipse cx="775.000000" cy="108.264919" rx="16.666667" ry="0.617934" fill="rgb(255, 255, 255)" style="fill-opacity:1.00" />
<rect height="0.926901" width="25.000000" x="775.000000" y="107.801469" fill="rgb(255, 255, 255)" style="fill-opacity:1.00" />
<!-- End 'C' -->
<!-- Begin 'G' -->
<ellipse cx="775.000000" cy="109.595910" rx="25.000000" ry="0.404090" fill="rgb(255, 165, 0)" style="fill-opacity:1.00" />
<ellipse cx="775.000000" cy="109.595910" rx="16.666667" ry="0.269394" fill="rgb(255, 255, 255)" style="fill-opacity:1.00" />
<rect height="0.404090" width="25.000000" x="775.000000" y="109.393865" fill="rgb(255, 255, 255)" style="fill-opacity:1.00" />
<rect height="0.101023" width="25.000000" x="775.000000" y="109.696932" fill="rgb(255, 165, 0)" style="fill-opacity:1.00" />
<rect height="0.303068" width="6.250000" x="793.750000" y="109.696932" fill="rgb(255, 165, 0)" style="fill-opacity:1.00" />
<!-- End 'G' -->
<!-- Begin 'A' -->
<polygon points=" 810.000000, 97.225025, 831.000000, 84.320260, 839.000000, 84.320260, 860.000000, 97.225025, 852.500000, 97.225025, 846.250000, 93.998834, 823.750000, 93.998834, 817.500000, 97.225025" fill="rgb(178, 34, 34)" style="fill-opacity:1.00" />
<polygon points=" 835.000000, 86.901213, 827.000000, 91.063119, 842.000000, 91.063119" fill="rgb(255, 255, 255)" style="fill-opacity:1.00" />
<!-- End 'A' -->
<!-- Begin 'T' -->
<rect height="1.593529" width="50.000000" x="810.000000" y="97.225025" fill="rgb(0, 100, 0)" style="fill-opacity:1.00" />
<rect height="9.959558" width="10.000000" x="830.000000" y="97.225025" fill="rgb(0, 100, 0)" style="fill-opacity:1.00" />
<!-- End 'T' -->
<!-- Begin 'C' -->
<ellipse cx="835.000000" cy="107.992183" rx="25.000000" ry="0.807599" fill="rgb(0, 0, 128)" style="fill-opacity:1.00" />
<ellipse cx="835.000000" cy="107.992183" rx="16.666667" ry="0.538399" fill="rgb(255, 255, 255)" style="fill-opacity:1.00" />
<rect height="0.807599" width="25.000000" x="835.000000" y="107.588383" fill="rgb(255, 255, 255)" style="fill-opacity:1.00" />
<!-- End 'C' -->
<!-- Begin 'G' -->
<ellipse cx="835.000000" cy="109.399891" rx="25.000000" ry="0.600109" fill="rgb(255, 165, 0)" style="fill-opacity:1.00" />
<ellipse cx="835.000000" cy="109.399891" rx="16.666667" ry="0.400073" fill="rgb(255, 255, 255)" style="fill-opacity:1.00" />
<rect height="0.600109" width="25.000000" x="835.000000" y="109.099836" fill="rgb(255, 255, 255)" style="fill-opacity:1.00" />
<rect height="0.150027" width="25.000000" x="835.000000" y="109.549918" fill="rgb(255, 165, 0)" style="fill-opacity:1.00" />
<rect height="0.450082" width="6.250000" x="853.750000" y="109.549918" fill="rgb(255, 165, 0)" style="fill-opacity:1.00" />
<!-- End 'G' -->
<!-- Begin 'T' -->
<rect height="0.991739" width="50.000000" x="870.000000" y="95.140583" fill="rgb(0, 100, 0)" style="fill-opacity:1.00" />
<rect height="6.198370" width="10.000000" x="890.000000" y="95.140583" fill="rgb(0, 100, 0)" style="fill-opacity:1.00" />
<!-- End 'T' -->
<!-- Begin 'A' -->
<polygon points=" 870.000000, 107.104777, 891.000000, 101.338953, 899.000000, 101.338953, 920.000000, 107.104777, 912.500000, 107.104777, 906.250000, 105.663321, 883.750000, 105.663321, 877.500000, 107.104777" fill="rgb(178, 34, 34)" style="fill-opacity:1.00" />
<!-- End 'A' -->
<!-- Begin 'C' -->
<ellipse cx="895.000000" cy="107.999572" rx="25.000000" ry="0.894795" fill="rgb(0, 0, 128)" style="fill-opacity:1.00" />
<ellipse cx="895.000000" cy="107.999572" rx="16.666667" ry="0.596530" fill="rgb(255, 255, 255)" style="fill-opacity:1.00" />
<rect height="0.894795" width="25.000000" x="895.000000" y="107.552174" fill="rgb(255, 255, 255)" style="fill-opacity:1.00" />
<!-- End 'C' -->
<!-- Begin 'G' -->
<ellipse cx="895.000000" cy="109.447184" rx="25.000000" ry="0.552816" fill="rgb(255, 165, 0)" style="fill-opacity:1.00" />
<ellipse cx="895.000000" cy="109.447184" rx="16.666667" ry="0.368544" fill="rgb(255, 255, 255)" style="fill-opacity:1.00" />
<rect height="0.552816" width="25.000000" x="895.000000" y="109.170775" fill="rgb(255, 255, 255)" style="fill-opacity:1.00" />
<rect height="0.138204" width="25.000000" x="895.000000" y="109.585388" fill="rgb(255, 165, 0)" style="fill-opacity:1.00" />
<rect height="0.414612" width="6.250000" x="913.750000" y="109.585388" fill="rgb(255, 165, 0)" style="fill-opacity:1.00" />
<!-- End 'G' -->
<!-- Begin 'A' -->
<polygon points=" 930.000000, 107.382502, 951.000000, 106.088704, 959.000000, 106.088704, 980.000000, 107.382502, 972.500000, 107.382502, 966.250000, 107.059052, 943.750000, 107.059052, 937.500000, 107.382502" fill="rgb(178, 34, 34)" style="fill-opacity:1.00" />
<!-- End 'A' -->
<!-- Begin 'T' -->
<rect height="0.201426" width="50.000000" x="930.000000" y="107.382502" fill="rgb(0, 100, 0)" style="fill-opacity:1.00" />
<rect height="1.258912" width="10.000000" x="950.000000" y="107.382502" fill="rgb(0, 100, 0)" style="fill-opacity:1.00" />
<!-- End 'T' -->
<!-- Begin 'C' -->
<ellipse cx="955.000000" cy="109.048068" rx="25.000000" ry="0.406654" fill="rgb(0, 0, 128)" style="fill-opacity:1.00" />
<ellipse cx="955.000000" cy="109.048068" rx="16.666667" ry="0.271103" fill="rgb(255, 255, 255)" style="fill-opacity:1.00" />
<rect height="0.406654" width="25.000000" x="955.000000" y="108.844741" fill="rgb(255, 255, 255)" style="fill-opacity:1.00" />
<!-- End 'C' -->
<!-- Begin 'G' -->
<ellipse cx="955.000000" cy="109.727361" rx="25.000000" ry="0.272639" fill="rgb(255, 165, 0)" style="fill-opacity:1.00" />
<ellipse cx="955.000000" cy="109.727361" rx="16.666667" ry="0.181759" fill="rgb(255, 255, 255)" style="fill-opacity:1.00" />
<rect height="0.272639" width="25.000000" x="955.000000" y="109.591042" fill="rgb(255, 255, 255)" style="fill-opacity:1.00" />
<rect height="0.068160" width="25.000000" x="955.000000" y="109.795521" fill="rgb(255, 165, 0)" style="fill-opacity:1.00" />
<rect height="0.204479" width="6.250000" x="973.750000" y="109.795521" fill="rgb(255, 165, 0)" style="fill-opacity:1.00" />
<!-- End 'G' -->
<text x="520.000000" y="165">
IC = 10.45
</text>

</svg>
