<?xml version="1.0" encoding="UTF-8" standalone="yes"?>
                 <!DOCTYPE svg PUBLIC "-//W3C//DTD SVG 1.0//EN" "http://www.w3.org/TR/2001/REC-SVG-20010904/DTD/svg10.dtd">
                 <svg height="170" width="1020" xmlns="http://www.w3.org/2000/svg" xmlns:xlink="http://www.w3.org/1999/xlink">
                 <line x1="85" y1="120" x2="987" y2="120" style="stroke:rgb(99,99,99);stroke-width:2" />
<rect height="7.000000" width="2.000000" x="85.000000" y="120.000000" fill="rgb(0, 0, 0)" style="fill-opacity:1.00" />
<text x="107.000000" y="140">
1
</text>
<rect height="7.000000" width="2.000000" x="145.000000" y="120.000000" fill="rgb(0, 0, 0)" style="fill-opacity:1.00" />
<text x="167.000000" y="140">
2
</text>
<rect height="7.000000" width="2.000000" x="205.000000" y="120.000000" fill="rgb(0, 0, 0)" style="fill-opacity:1.00" />
<text x="227.000000" y="140">
3
</text>
<rect height="7.000000" width="2.000000" x="265.000000" y="120.000000" fill="rgb(0, 0, 0)" style="fill-opacity:1.00" />
<text x="287.000000" y="140">
4
</text>
<rect height="7.000000" width="2.000000" x="325.000000" y="120.000000" fill="rgb(0, 0, 0)" style="fill-opacity:1.00" />
<text x="347.000000" y="140">
5
</text>
<rect height="7.000000" width="2.000000" x="385.000000" y="120.000000" fill="rgb(0, 0, 0)" style="fill-opacity:1.00" />
<text x="407.000000" y="140">
6
</text>
<rect height="7.000000" width="2.000000" x="445.000000" y="120.000000" fill="rgb(0, 0, 0)" style="fill-opacity:1.00" />
<text x="467.000000" y="140">
7
</text>
<rect height="7.000000" width="2.000000" x="505.000000" y="120.000000" fill="rgb(0, 0, 0)" style="fill-opacity:1.00" />
<text x="527.000000" y="140">
8
</text>
<rect height="7.000000" width="2.000000" x="565.000000" y="120.000000" fill="rgb(0, 0, 0)" style="fill-opacity:1.00" />
<text x="587.000000" y="140">
9
</text>
<rect height="7.000000" width="2.000000" x="625.000000" y="120.000000" fill="rgb(0, 0, 0)" style="fill-opacity:1.00" />
<text x="647.000000" y="140">
10
</text>
<rect height="7.000000" width="2.000000" x="685.000000" y="120.000000" fill="rgb(0, 0, 0)" style="fill-opacity:1.00" />
<text x="707.000000" y="140">
11
</text>
<rect height="7.000000" width="2.000000" x="745.000000" y="120.000000" fill="rgb(0, 0, 0)" style="fill-opacity:1.00" />
<text x="767.000000" y="140">
12
</text>
<rect height="7.000000" width="2.000000" x="805.000000" y="120.000000" fill="rgb(0, 0, 0)" style="fill-opacity:1.00" />
<text x="827.000000" y="140">
13
</text>
<rect height="7.000000" width="2.000000" x="865.000000" y="120.000000" fill="rgb(0, 0, 0)" style="fill-opacity:1.00" />
<text x="887.000000" y="140">
14
</text>
<rect height="7.000000" width="2.000000" x="925.000000" y="120.000000" fill="rgb(0, 0, 0)" style="fill-opacity:1.00" />
<text x="947.000000" y="140">
15
</text>
<rect height="7.000000" width="2.000000" x="985.000000" y="120.000000" fill="rgb(0, 0, 0)" style="fill-opacity:1.00" />
<line x1="80" y1="112" x2="80" y2="10" style="stroke:rgb(99,99,99);stroke-width:2" />
<rect height="2.000000" width="7.000000" x="73.000000" y="110.000000" fill="rgb(0, 0, 0)" style="fill-opacity:1.00" />
<text x="63" y="115">
0
</text>
<rect height="2.000000" width="7.000000" x="73.000000" y="60.000000" fill="rgb(0, 0, 0)" style="fill-opacity:1.00" />
<text x="63" y="65">
1
</text>
<rect height="2.000000" width="7.000000" x="73.000000" y="10.000000" fill="rgb(0, 0, 0)" style="fill-opacity:1.00" />
<text x="63" y="15">
2
</text>
<text x="50" y="65"
transform="rotate(-90, 50, 70)">
bits
</text>
<!-- Begin 'A' -->
<polygon points=" 90.000000, 107.463584, 111.000000, 105.985158, 119.000000, 105.985158, 140.000000, 107.463584, 132.500000, 107.463584, 126.250000, 107.093978, 103.750000, 107.093978, 97.500000, 107.463584" fill="rgb(178, 34, 34)" style="fill-opacity:1.00" />
<!-- End 'A' -->
<!-- Begin 'T' -->
<rect height="0.186306" width="50.000000" x="90.000000" y="107.463584" fill="rgb(0, 100, 0)" style="fill-opacity:1.00" />
<rect height="1.164410" width="10.000000" x="110.000000" y="107.463584" fill="rgb(0, 100, 0)" style="fill-opacity:1.00" />
<!-- End 'T' -->
<!-- Begin 'G' -->
<ellipse cx="115.000000" cy="108.975641" rx="25.000000" ry="0.347647" fill="rgb(255, 165, 0)" style="fill-opacity:1.00" />
<ellipse cx="115.000000" cy="108.975641" rx="16.666667" ry="0.231765" fill="rgb(255, 255, 255)" style="fill-opacity:1.00" />
<rect height="0.347647" width="25.000000" x="115.000000" y="108.801818" fill="rgb(255, 255, 255)" style="fill-opacity:1.00" />
<rect height="0.086912" width="25.000000" x="115.000000" y="109.062553" fill="rgb(255, 165, 0)" style="fill-opacity:1.00" />
<rect height="0.260735" width="6.250000" x="133.750000" y="109.062553" fill="rgb(255, 165, 0)" style="fill-opacity:1.00" />
<!-- End 'G' -->
<!-- Begin 'C' -->
<ellipse cx="115.000000" cy="109.661644" rx="25.000000" ry="0.338356" fill="rgb(0, 0, 128)" style="fill-opacity:1.00" />
<ellipse cx="115.000000" cy="109.661644" rx="16.666667" ry="0.225571" fill="rgb(255, 255, 255)" style="fill-opacity:1.00" />
<rect height="0.338356" width="25.000000" x="115.000000" y="109.492466" fill="rgb(255, 255, 255)" style="fill-opacity:1.00" />
<!-- End 'C' -->
<!-- Begin 'A' -->
<polygon points=" 150.000000, 103.812147, 171.000000, 98.474630, 179.000000, 98.474630, 200.000000, 103.812147, 192.500000, 103.812147, 186.250000, 102.477768, 163.750000, 102.477768, 157.500000, 103.812147" fill="rgb(178, 34, 34)" style="fill-opacity:1.00" />
<!-- End 'A' -->
<!-- Begin 'T' -->
<rect height="0.543138" width="50.000000" x="150.000000" y="103.812147" fill="rgb(0, 100, 0)" style="fill-opacity:1.00" />
<rect height="3.394612" width="10.000000" x="170.000000" y="103.812147" fill="rgb(0, 100, 0)" style="fill-opacity:1.00" />
<!-- End 'T' -->
<!-- Begin 'G' -->
<ellipse cx="175.000000" cy="107.982595" rx="25.000000" ry="0.775836" fill="rgb(255, 165, 0)" style="fill-opacity:1.00" />
<ellipse cx="175.000000" cy="107.982595" rx="16.666667" ry="0.517224" fill="rgb(255, 255, 255)" style="fill-opacity:1.00" />
<rect height="0.775836" width="25.000000" x="175.000000" y="107.594677" fill="rgb(255, 255, 255)" style="fill-opacity:1.00" />
<rect height="0.193959" width="25.000000" x="175.000000" y="108.176554" fill="rgb(255, 165, 0)" style="fill-opacity:1.00" />
<rect height="0.581877" width="6.250000" x="193.750000" y="108.176554" fill="rgb(255, 165, 0)" style="fill-opacity:1.00" />
<!-- End 'G' -->
<!-- Begin 'C' -->
<ellipse cx="175.000000" cy="109.379215" rx="25.000000" ry="0.620785" fill="rgb(0, 0, 128)" style="fill-opacity:1.00" />
<ellipse cx="175.000000" cy="109.379215" rx="16.666667" ry="0.413856" fill="rgb(255, 255, 255)" style="fill-opacity:1.00" />
<rect height="0.620785" width="25.000000" x="175.000000" y="109.068823" fill="rgb(255, 255, 255)" style="fill-opacity:1.00" />
<!-- End 'C' -->
<!-- Begin 'A' -->
<polygon points=" 210.000000, 104.267634, 231.000000, 100.765063, 239.000000, 100.765063, 260.000000, 104.267634, 252.500000, 104.267634, 246.250000, 103.391991, 223.750000, 103.391991, 217.500000, 104.267634" fill="rgb(178, 34, 34)" style="fill-opacity:1.00" />
<!-- End 'A' -->
<!-- Begin 'T' -->
<rect height="0.541506" width="50.000000" x="210.000000" y="104.267634" fill="rgb(0, 100, 0)" style="fill-opacity:1.00" />
<rect height="3.384413" width="10.000000" x="230.000000" y="104.267634" fill="rgb(0, 100, 0)" style="fill-opacity:1.00" />
<!-- End 'T' -->
<!-- Begin 'G' -->
<ellipse cx="235.000000" cy="108.307221" rx="25.000000" ry="0.655174" fill="rgb(255, 165, 0)" style="fill-opacity:1.00" />
<ellipse cx="235.000000" cy="108.307221" rx="16.666667" ry="0.436783" fill="rgb(255, 255, 255)" style="fill-opacity:1.00" />
<rect height="0.655174" width="25.000000" x="235.000000" y="107.979634" fill="rgb(255, 255, 255)" style="fill-opacity:1.00" />
<rect height="0.163794" width="25.000000" x="235.000000" y="108.471015" fill="rgb(255, 165, 0)" style="fill-opacity:1.00" />
<rect height="0.491381" width="6.250000" x="253.750000" y="108.471015" fill="rgb(255, 165, 0)" style="fill-opacity:1.00" />
<!-- End 'G' -->
<!-- Begin 'C' -->
<ellipse cx="235.000000" cy="109.481198" rx="25.000000" ry="0.518802" fill="rgb(0, 0, 128)" style="fill-opacity:1.00" />
<ellipse cx="235.000000" cy="109.481198" rx="16.666667" ry="0.345868" fill="rgb(255, 255, 255)" style="fill-opacity:1.00" />
<rect height="0.518802" width="25.000000" x="235.000000" y="109.221797" fill="rgb(255, 255, 255)" style="fill-opacity:1.00" />
<!-- End 'C' -->
<!-- Begin 'A' -->
<polygon points=" 270.000000, 106.914141, 291.000000, 105.179898, 299.000000, 105.179898, 320.000000, 106.914141, 312.500000, 106.914141, 306.250000, 106.480581, 283.750000, 106.480581, 277.500000, 106.914141" fill="rgb(178, 34, 34)" style="fill-opacity:1.00" />
<!-- End 'A' -->
<!-- Begin 'T' -->
<rect height="0.246221" width="50.000000" x="270.000000" y="106.914141" fill="rgb(0, 100, 0)" style="fill-opacity:1.00" />
<rect height="1.538879" width="10.000000" x="290.000000" y="106.914141" fill="rgb(0, 100, 0)" style="fill-opacity:1.00" />
<!-- End 'T' -->
<!-- Begin 'C' -->
<ellipse cx="295.000000" cy="108.846001" rx="25.000000" ry="0.392980" fill="rgb(0, 0, 128)" style="fill-opacity:1.00" />
<ellipse cx="295.000000" cy="108.846001" rx="16.666667" ry="0.261987" fill="rgb(255, 255, 255)" style="fill-opacity:1.00" />
<rect height="0.392980" width="25.000000" x="295.000000" y="108.649511" fill="rgb(255, 255, 255)" style="fill-opacity:1.00" />
<!-- End 'C' -->
<!-- Begin 'G' -->
<ellipse cx="295.000000" cy="109.619490" rx="25.000000" ry="0.380510" fill="rgb(255, 165, 0)" style="fill-opacity:1.00" />
<ellipse cx="295.000000" cy="109.619490" rx="16.666667" ry="0.253673" fill="rgb(255, 255, 255)" style="fill-opacity:1.00" />
<rect height="0.380510" width="25.000000" x="295.000000" y="109.429236" fill="rgb(255, 255, 255)" style="fill-opacity:1.00" />
<rect height="0.095127" width="25.000000" x="295.000000" y="109.714618" fill="rgb(255, 165, 0)" style="fill-opacity:1.00" />
<rect height="0.285382" width="6.250000" x="313.750000" y="109.714618" fill="rgb(255, 165, 0)" style="fill-opacity:1.00" />
<!-- End 'G' -->
<!-- Begin 'A' -->
<polygon points=" 330.000000, 107.071982, 351.000000, 105.363683, 359.000000, 105.363683, 380.000000, 107.071982, 372.500000, 107.071982, 366.250000, 106.644907, 343.750000, 106.644907, 337.500000, 107.071982" fill="rgb(178, 34, 34)" style="fill-opacity:1.00" />
<!-- End 'A' -->
<!-- Begin 'G' -->
<ellipse cx="355.000000" cy="107.755928" rx="25.000000" ry="0.683947" fill="rgb(255, 165, 0)" style="fill-opacity:1.00" />
<ellipse cx="355.000000" cy="107.755928" rx="16.666667" ry="0.455965" fill="rgb(255, 255, 255)" style="fill-opacity:1.00" />
<rect height="0.683947" width="25.000000" x="355.000000" y="107.413955" fill="rgb(255, 255, 255)" style="fill-opacity:1.00" />
<rect height="0.170987" width="25.000000" x="355.000000" y="107.926915" fill="rgb(255, 165, 0)" style="fill-opacity:1.00" />
<rect height="0.512960" width="6.250000" x="373.750000" y="107.926915" fill="rgb(255, 165, 0)" style="fill-opacity:1.00" />
<!-- End 'G' -->
<!-- Begin 'T' -->
<rect height="0.147802" width="50.000000" x="330.000000" y="108.439875" fill="rgb(0, 100, 0)" style="fill-opacity:1.00" />
<rect height="0.923762" width="10.000000" x="350.000000" y="108.439875" fill="rgb(0, 100, 0)" style="fill-opacity:1.00" />
<!-- End 'T' -->
<!-- Begin 'C' -->
<ellipse cx="355.000000" cy="109.681819" rx="25.000000" ry="0.318181" fill="rgb(0, 0, 128)" style="fill-opacity:1.00" />
<ellipse cx="355.000000" cy="109.681819" rx="16.666667" ry="0.212121" fill="rgb(255, 255, 255)" style="fill-opacity:1.00" />
<rect height="0.318181" width="25.000000" x="355.000000" y="109.522728" fill="rgb(255, 255, 255)" style="fill-opacity:1.00" />
<!-- End 'C' -->
<!-- Begin 'T' -->
<rect height="3.037448" width="50.000000" x="390.000000" y="80.643743" fill="rgb(0, 100, 0)" style="fill-opacity:1.00" />
<rect height="18.984049" width="10.000000" x="410.000000" y="80.643743" fill="rgb(0, 100, 0)" style="fill-opacity:1.00" />
<!-- End 'T' -->
<!-- Begin 'C' -->
<ellipse cx="415.000000" cy="102.318624" rx="25.000000" ry="2.690832" fill="rgb(0, 0, 128)" style="fill-opacity:1.00" />
<ellipse cx="415.000000" cy="102.318624" rx="16.666667" ry="1.793888" fill="rgb(255, 255, 255)" style="fill-opacity:1.00" />
<rect height="2.690832" width="25.000000" x="415.000000" y="100.973208" fill="rgb(255, 255, 255)" style="fill-opacity:1.00" />
<!-- End 'C' -->
<!-- Begin 'A' -->
<polygon points=" 390.000000, 108.999123, 411.000000, 105.009456, 419.000000, 105.009456, 440.000000, 108.999123, 432.500000, 108.999123, 426.250000, 108.001706, 403.750000, 108.001706, 397.500000, 108.999123" fill="rgb(178, 34, 34)" style="fill-opacity:1.00" />
<!-- End 'A' -->
<!-- Begin 'G' -->
<ellipse cx="415.000000" cy="109.499561" rx="25.000000" ry="0.500439" fill="rgb(255, 165, 0)" style="fill-opacity:1.00" />
<ellipse cx="415.000000" cy="109.499561" rx="16.666667" ry="0.333626" fill="rgb(255, 255, 255)" style="fill-opacity:1.00" />
<rect height="0.500439" width="25.000000" x="415.000000" y="109.249342" fill="rgb(255, 255, 255)" style="fill-opacity:1.00" />
<rect height="0.125110" width="25.000000" x="415.000000" y="109.624671" fill="rgb(255, 165, 0)" style="fill-opacity:1.00" />
<rect height="0.375329" width="6.250000" x="433.750000" y="109.624671" fill="rgb(255, 165, 0)" style="fill-opacity:1.00" />
<!-- End 'G' -->
<!-- Begin 'A' -->
<polygon points=" 450.000000, 100.291111, 471.000000, 83.805602, 479.000000, 83.805602, 500.000000, 100.291111, 492.500000, 100.291111, 486.250000, 96.169734, 463.750000, 96.169734, 457.500000, 100.291111" fill="rgb(178, 34, 34)" style="fill-opacity:1.00" />
<polygon points=" 475.000000, 87.102704, 467.000000, 92.696908, 482.000000, 92.696908" fill="rgb(255, 255, 255)" style="fill-opacity:1.00" />
<!-- End 'A' -->
<!-- Begin 'C' -->
<ellipse cx="475.000000" cy="103.039649" rx="25.000000" ry="2.748538" fill="rgb(0, 0, 128)" style="fill-opacity:1.00" />
<ellipse cx="475.000000" cy="103.039649" rx="16.666667" ry="1.832359" fill="rgb(255, 255, 255)" style="fill-opacity:1.00" />
<rect height="2.748538" width="25.000000" x="475.000000" y="101.665380" fill="rgb(255, 255, 255)" style="fill-opacity:1.00" />
<!-- End 'C' -->
<!-- Begin 'G' -->
<ellipse cx="475.000000" cy="106.971956" rx="25.000000" ry="1.183769" fill="rgb(255, 165, 0)" style="fill-opacity:1.00" />
<ellipse cx="475.000000" cy="106.971956" rx="16.666667" ry="0.789179" fill="rgb(255, 255, 255)" style="fill-opacity:1.00" />
<rect height="1.183769" width="25.000000" x="475.000000" y="106.380072" fill="rgb(255, 255, 255)" style="fill-opacity:1.00" />
<rect height="0.295942" width="25.000000" x="475.000000" y="107.267898" fill="rgb(255, 165, 0)" style="fill-opacity:1.00" />
<rect height="0.887826" width="6.250000" x="493.750000" y="107.267898" fill="rgb(255, 165, 0)" style="fill-opacity:1.00" />
<!-- End 'G' -->
<!-- Begin 'T' -->
<rect height="0.295084" width="50.000000" x="450.000000" y="108.155724" fill="rgb(0, 100, 0)" style="fill-opacity:1.00" />
<rect height="1.844276" width="10.000000" x="470.000000" y="108.155724" fill="rgb(0, 100, 0)" style="fill-opacity:1.00" />
<!-- End 'T' -->
<!-- Begin 'A' -->
<polygon points=" 510.000000, 108.918499, 531.000000, 15.392850, 539.000000, 15.392850, 560.000000, 108.918499, 552.500000, 108.918499, 546.250000, 85.537087, 523.750000, 85.537087, 517.500000, 108.918499" fill="rgb(178, 34, 34)" style="fill-opacity:1.00" />
<polygon points=" 535.000000, 34.097980, 527.000000, 70.508239, 542.000000, 70.508239" fill="rgb(255, 255, 255)" style="fill-opacity:1.00" />
<!-- End 'A' -->
<!-- Begin 'T' -->
<rect height="0.067559" width="50.000000" x="510.000000" y="108.918499" fill="rgb(0, 100, 0)" style="fill-opacity:1.00" />
<rect height="0.422243" width="10.000000" x="530.000000" y="108.918499" fill="rgb(0, 100, 0)" style="fill-opacity:1.00" />
<!-- End 'T' -->
<!-- Begin 'C' -->
<ellipse cx="535.000000" cy="109.544539" rx="25.000000" ry="0.203798" fill="rgb(0, 0, 128)" style="fill-opacity:1.00" />
<ellipse cx="535.000000" cy="109.544539" rx="16.666667" ry="0.135865" fill="rgb(255, 255, 255)" style="fill-opacity:1.00" />
<rect height="0.203798" width="25.000000" x="535.000000" y="109.442641" fill="rgb(255, 255, 255)" style="fill-opacity:1.00" />
<!-- End 'C' -->
<!-- Begin 'G' -->
<ellipse cx="535.000000" cy="109.874169" rx="25.000000" ry="0.125831" fill="rgb(255, 165, 0)" style="fill-opacity:1.00" />
<ellipse cx="535.000000" cy="109.874169" rx="16.666667" ry="0.083888" fill="rgb(255, 255, 255)" style="fill-opacity:1.00" />
<rect height="0.125831" width="25.000000" x="535.000000" y="109.811253" fill="rgb(255, 255, 255)" style="fill-opacity:1.00" />
<rect height="0.031458" width="25.000000" x="535.000000" y="109.905627" fill="rgb(255, 165, 0)" style="fill-opacity:1.00" />
<rect height="0.094373" width="6.250000" x="553.750000" y="109.905627" fill="rgb(255, 165, 0)" style="fill-opacity:1.00" />
<!-- End 'G' -->
<!-- Begin 'T' -->
<rect height="15.613061" width="50.000000" x="570.000000" y="12.045859" fill="rgb(0, 100, 0)" style="fill-opacity:1.00" />
<rect height="97.581634" width="10.000000" x="590.000000" y="12.045859" fill="rgb(0, 100, 0)" style="fill-opacity:1.00" />
<!-- End 'T' -->
<!-- Begin 'C' -->
<ellipse cx="595.000000" cy="109.723413" rx="25.000000" ry="0.095921" fill="rgb(0, 0, 128)" style="fill-opacity:1.00" />
<ellipse cx="595.000000" cy="109.723413" rx="16.666667" ry="0.063947" fill="rgb(255, 255, 255)" style="fill-opacity:1.00" />
<rect height="0.095921" width="25.000000" x="595.000000" y="109.675453" fill="rgb(255, 255, 255)" style="fill-opacity:1.00" />
<!-- End 'C' -->
<!-- Begin 'A' -->
<polygon points=" 570.000000, 109.974965, 591.000000, 109.819334, 599.000000, 109.819334, 620.000000, 109.974965, 612.500000, 109.974965, 606.250000, 109.936057, 583.750000, 109.936057, 577.500000, 109.974965" fill="rgb(178, 34, 34)" style="fill-opacity:1.00" />
<!-- End 'A' -->
<!-- Begin 'G' -->
<ellipse cx="595.000000" cy="109.987482" rx="25.000000" ry="0.012518" fill="rgb(255, 165, 0)" style="fill-opacity:1.00" />
<ellipse cx="595.000000" cy="109.987482" rx="16.666667" ry="0.008345" fill="rgb(255, 255, 255)" style="fill-opacity:1.00" />
<rect height="0.012518" width="25.000000" x="595.000000" y="109.981224" fill="rgb(255, 255, 255)" style="fill-opacity:1.00" />
<rect height="0.003129" width="25.000000" x="595.000000" y="109.990612" fill="rgb(255, 165, 0)" style="fill-opacity:1.00" />
<rect height="0.009388" width="6.250000" x="613.750000" y="109.990612" fill="rgb(255, 165, 0)" style="fill-opacity:1.00" />
<!-- End 'G' -->
<!-- Begin 'G' -->
<ellipse cx="655.000000" cy="99.947286" rx="25.000000" ry="2.520285" fill="rgb(255, 165, 0)" style="fill-opacity:1.00" />
<ellipse cx="655.000000" cy="99.947286" rx="16.666667" ry="1.680190" fill="rgb(255, 255, 255)" style="fill-opacity:1.00" />
<rect height="2.520285" width="25.000000" x="655.000000" y="98.687144" fill="rgb(255, 255, 255)" style="fill-opacity:1.00" />
<rect height="0.630071" width="25.000000" x="655.000000" y="100.577357" fill="rgb(255, 165, 0)" style="fill-opacity:1.00" />
<rect height="1.890214" width="6.250000" x="673.750000" y="100.577357" fill="rgb(255, 165, 0)" style="fill-opacity:1.00" />
<!-- End 'G' -->
<!-- Begin 'C' -->
<ellipse cx="655.000000" cy="104.889420" rx="25.000000" ry="2.421849" fill="rgb(0, 0, 128)" style="fill-opacity:1.00" />
<ellipse cx="655.000000" cy="104.889420" rx="16.666667" ry="1.614566" fill="rgb(255, 255, 255)" style="fill-opacity:1.00" />
<rect height="2.421849" width="25.000000" x="655.000000" y="103.678496" fill="rgb(255, 255, 255)" style="fill-opacity:1.00" />
<!-- End 'C' -->
<!-- Begin 'A' -->
<polygon points=" 630.000000, 108.667529, 651.000000, 107.311268, 659.000000, 107.311268, 680.000000, 108.667529, 672.500000, 108.667529, 666.250000, 108.328464, 643.750000, 108.328464, 637.500000, 108.667529" fill="rgb(178, 34, 34)" style="fill-opacity:1.00" />
<!-- End 'A' -->
<!-- Begin 'T' -->
<rect height="0.213195" width="50.000000" x="630.000000" y="108.667529" fill="rgb(0, 100, 0)" style="fill-opacity:1.00" />
<rect height="1.332471" width="10.000000" x="650.000000" y="108.667529" fill="rgb(0, 100, 0)" style="fill-opacity:1.00" />
<!-- End 'T' -->
<!-- Begin 'A' -->
<polygon points=" 690.000000, 109.625912, 711.000000, 12.043654, 719.000000, 12.043654, 740.000000, 109.625912, 732.500000, 109.625912, 726.250000, 85.230347, 703.750000, 85.230347, 697.500000, 109.625912" fill="rgb(178, 34, 34)" style="fill-opacity:1.00" />
<polygon points=" 715.000000, 31.560105, 707.000000, 69.593009, 722.000000, 69.593009" fill="rgb(255, 255, 255)" style="fill-opacity:1.00" />
<!-- End 'A' -->
<!-- Begin 'G' -->
<ellipse cx="715.000000" cy="109.737003" rx="25.000000" ry="0.111092" fill="rgb(255, 165, 0)" style="fill-opacity:1.00" />
<ellipse cx="715.000000" cy="109.737003" rx="16.666667" ry="0.074061" fill="rgb(255, 255, 255)" style="fill-opacity:1.00" />
<rect height="0.111092" width="25.000000" x="715.000000" y="109.681457" fill="rgb(255, 255, 255)" style="fill-opacity:1.00" />
<rect height="0.027773" width="25.000000" x="715.000000" y="109.764776" fill="rgb(255, 165, 0)" style="fill-opacity:1.00" />
<rect height="0.083319" width="6.250000" x="733.750000" y="109.764776" fill="rgb(255, 165, 0)" style="fill-opacity:1.00" />
<!-- End 'G' -->
<!-- Begin 'T' -->
<rect height="0.020460" width="50.000000" x="690.000000" y="109.848095" fill="rgb(0, 100, 0)" style="fill-opacity:1.00" />
<rect height="0.127874" width="10.000000" x="710.000000" y="109.848095" fill="rgb(0, 100, 0)" style="fill-opacity:1.00" />
<!-- End 'T' -->
<!-- Begin 'C' -->
<ellipse cx="715.000000" cy="109.987984" rx="25.000000" ry="0.012016" fill="rgb(0, 0, 128)" style="fill-opacity:1.00" />
<ellipse cx="715.000000" cy="109.987984" rx="16.666667" ry="0.008011" fill="rgb(255, 255, 255)" style="fill-opacity:1.00" />
<rect height="0.012016" width="25.000000" x="715.000000" y="109.981976" fill="rgb(255, 255, 255)" style="fill-opacity:1.00" />
<!-- End 'C' -->
<!-- Begin 'T' -->
<rect height="14.635870" width="50.000000" x="750.000000" y="17.054680" fill="rgb(0, 100, 0)" style="fill-opacity:1.00" />
<rect height="91.474189" width="10.000000" x="770.000000" y="17.054680" fill="rgb(0, 100, 0)" style="fill-opacity:1.00" />
<!-- End 'T' -->
<!-- Begin 'G' -->
<ellipse cx="775.000000" cy="108.834148" rx="25.000000" ry="0.305279" fill="rgb(255, 165, 0)" style="fill-opacity:1.00" />
<ellipse cx="775.000000" cy="108.834148" rx="16.666667" ry="0.203520" fill="rgb(255, 255, 255)" style="fill-opacity:1.00" />
<rect height="0.305279" width="25.000000" x="775.000000" y="108.681508" fill="rgb(255, 255, 255)" style="fill-opacity:1.00" />
<rect height="0.076320" width="25.000000" x="775.000000" y="108.910468" fill="rgb(255, 165, 0)" style="fill-opacity:1.00" />
<rect height="0.228960" width="6.250000" x="793.750000" y="108.910468" fill="rgb(255, 165, 0)" style="fill-opacity:1.00" />
<!-- End 'G' -->
<!-- Begin 'A' -->
<polygon points=" 750.000000, 109.733133, 771.000000, 109.139427, 779.000000, 109.139427, 800.000000, 109.733133, 792.500000, 109.733133, 786.250000, 109.584706, 763.750000, 109.584706, 757.500000, 109.733133" fill="rgb(178, 34, 34)" style="fill-opacity:1.00" />
<!-- End 'A' -->
<!-- Begin 'C' -->
<ellipse cx="775.000000" cy="109.866566" rx="25.000000" ry="0.133434" fill="rgb(0, 0, 128)" style="fill-opacity:1.00" />
<ellipse cx="775.000000" cy="109.866566" rx="16.666667" ry="0.088956" fill="rgb(255, 255, 255)" style="fill-opacity:1.00" />
<rect height="0.133434" width="25.000000" x="775.000000" y="109.799850" fill="rgb(255, 255, 255)" style="fill-opacity:1.00" />
<!-- End 'C' -->
<!-- Begin 'T' -->
<rect height="2.885498" width="50.000000" x="810.000000" y="81.730958" fill="rgb(0, 100, 0)" style="fill-opacity:1.00" />
<rect height="18.034360" width="10.000000" x="830.000000" y="81.730958" fill="rgb(0, 100, 0)" style="fill-opacity:1.00" />
<!-- End 'T' -->
<!-- Begin 'G' -->
<ellipse cx="835.000000" cy="102.888949" rx="25.000000" ry="3.123631" fill="rgb(255, 165, 0)" style="fill-opacity:1.00" />
<ellipse cx="835.000000" cy="102.888949" rx="16.666667" ry="2.082421" fill="rgb(255, 255, 255)" style="fill-opacity:1.00" />
<rect height="3.123631" width="25.000000" x="835.000000" y="101.327133" fill="rgb(255, 255, 255)" style="fill-opacity:1.00" />
<rect height="0.780908" width="25.000000" x="835.000000" y="103.669857" fill="rgb(255, 165, 0)" style="fill-opacity:1.00" />
<rect height="2.342724" width="6.250000" x="853.750000" y="103.669857" fill="rgb(255, 165, 0)" style="fill-opacity:1.00" />
<!-- End 'G' -->
<!-- Begin 'C' -->
<ellipse cx="835.000000" cy="107.018790" rx="25.000000" ry="1.006209" fill="rgb(0, 0, 128)" style="fill-opacity:1.00" />
<ellipse cx="835.000000" cy="107.018790" rx="16.666667" ry="0.670806" fill="rgb(255, 255, 255)" style="fill-opacity:1.00" />
<rect height="1.006209" width="25.000000" x="835.000000" y="106.515685" fill="rgb(255, 255, 255)" style="fill-opacity:1.00" />
<!-- End 'C' -->
<!-- Begin 'A' -->
<polygon points=" 810.000000, 110.000000, 831.000000, 108.024999, 839.000000, 108.024999, 860.000000, 110.000000, 852.500000, 110.000000, 846.250000, 109.506250, 823.750000, 109.506250, 817.500000, 110.000000" fill="rgb(178, 34, 34)" style="fill-opacity:1.00" />
<!-- End 'A' -->
<!-- Begin 'A' -->
<polygon points=" 870.000000, 99.914149, 891.000000, 81.999117, 899.000000, 81.999117, 920.000000, 99.914149, 912.500000, 99.914149, 906.250000, 95.435391, 883.750000, 95.435391, 877.500000, 99.914149" fill="rgb(178, 34, 34)" style="fill-opacity:1.00" />
<polygon points=" 895.000000, 85.582123, 887.000000, 91.748136, 902.000000, 91.748136" fill="rgb(255, 255, 255)" style="fill-opacity:1.00" />
<!-- End 'A' -->
<!-- Begin 'G' -->
<ellipse cx="895.000000" cy="102.453684" rx="25.000000" ry="2.539535" fill="rgb(255, 165, 0)" style="fill-opacity:1.00" />
<ellipse cx="895.000000" cy="102.453684" rx="16.666667" ry="1.693023" fill="rgb(255, 255, 255)" style="fill-opacity:1.00" />
<rect height="2.539535" width="25.000000" x="895.000000" y="101.183917" fill="rgb(255, 255, 255)" style="fill-opacity:1.00" />
<rect height="0.634884" width="25.000000" x="895.000000" y="103.088568" fill="rgb(255, 165, 0)" style="fill-opacity:1.00" />
<rect height="1.904651" width="6.250000" x="913.750000" y="103.088568" fill="rgb(255, 165, 0)" style="fill-opacity:1.00" />
<!-- End 'G' -->
<!-- Begin 'T' -->
<rect height="0.622308" width="50.000000" x="870.000000" y="104.993220" fill="rgb(0, 100, 0)" style="fill-opacity:1.00" />
<rect height="3.889424" width="10.000000" x="890.000000" y="104.993220" fill="rgb(0, 100, 0)" style="fill-opacity:1.00" />
<!-- End 'T' -->
<!-- Begin 'C' -->
<ellipse cx="895.000000" cy="109.441322" rx="25.000000" ry="0.558678" fill="rgb(0, 0, 128)" style="fill-opacity:1.00" />
<ellipse cx="895.000000" cy="109.441322" rx="16.666667" ry="0.372452" fill="rgb(255, 255, 255)" style="fill-opacity:1.00" />
<rect height="0.558678" width="25.000000" x="895.000000" y="109.161983" fill="rgb(255, 255, 255)" style="fill-opacity:1.00" />
<!-- End 'C' -->
<!-- Begin 'T' -->
<rect height="0.283316" width="50.000000" x="930.000000" y="105.189468" fill="rgb(0, 100, 0)" style="fill-opacity:1.00" />
<rect height="1.770727" width="10.000000" x="950.000000" y="105.189468" fill="rgb(0, 100, 0)" style="fill-opacity:1.00" />
<!-- End 'T' -->
<!-- Begin 'C' -->
<ellipse cx="955.000000" cy="107.677723" rx="25.000000" ry="0.717528" fill="rgb(0, 0, 128)" style="fill-opacity:1.00" />
<ellipse cx="955.000000" cy="107.677723" rx="16.666667" ry="0.478352" fill="rgb(255, 255, 255)" style="fill-opacity:1.00" />
<rect height="0.717528" width="25.000000" x="955.000000" y="107.318959" fill="rgb(255, 255, 255)" style="fill-opacity:1.00" />
<!-- End 'C' -->
<!-- Begin 'A' -->
<polygon points=" 930.000000, 109.356388, 951.000000, 108.395251, 959.000000, 108.395251, 980.000000, 109.356388, 972.500000, 109.356388, 966.250000, 109.116104, 943.750000, 109.116104, 937.500000, 109.356388" fill="rgb(178, 34, 34)" style="fill-opacity:1.00" />
<!-- End 'A' -->
<!-- Begin 'G' -->
<ellipse cx="955.000000" cy="109.678194" rx="25.000000" ry="0.321806" fill="rgb(255, 165, 0)" style="fill-opacity:1.00" />
<ellipse cx="955.000000" cy="109.678194" rx="16.666667" ry="0.214537" fill="rgb(255, 255, 255)" style="fill-opacity:1.00" />
<rect height="0.321806" width="25.000000" x="955.000000" y="109.517291" fill="rgb(255, 255, 255)" style="fill-opacity:1.00" />
<rect height="0.080451" width="25.000000" x="955.000000" y="109.758646" fill="rgb(255, 165, 0)" style="fill-opacity:1.00" />
<rect height="0.241354" width="6.250000" x="973.750000" y="109.758646" fill="rgb(255, 165, 0)" style="fill-opacity:1.00" />
<!-- End 'G' -->
<text x="520.000000" y="165">
IC = 10.94
</text>

</svg>
