<?xml version="1.0" encoding="UTF-8" standalone="yes"?>
                 <!DOCTYPE svg PUBLIC "-//W3C//DTD SVG 1.0//EN" "http://www.w3.org/TR/2001/REC-SVG-20010904/DTD/svg10.dtd">
                 <svg height="170" width="1380" xmlns="http://www.w3.org/2000/svg" xmlns:xlink="http://www.w3.org/1999/xlink">
                 <line x1="85" y1="120" x2="1347" y2="120" style="stroke:rgb(99,99,99);stroke-width:2" />
<rect height="7.000000" width="2.000000" x="85.000000" y="120.000000" fill="rgb(0, 0, 0)" style="fill-opacity:1.00" />
<text x="107.000000" y="140">
1
</text>
<rect height="7.000000" width="2.000000" x="145.000000" y="120.000000" fill="rgb(0, 0, 0)" style="fill-opacity:1.00" />
<text x="167.000000" y="140">
2
</text>
<rect height="7.000000" width="2.000000" x="205.000000" y="120.000000" fill="rgb(0, 0, 0)" style="fill-opacity:1.00" />
<text x="227.000000" y="140">
3
</text>
<rect height="7.000000" width="2.000000" x="265.000000" y="120.000000" fill="rgb(0, 0, 0)" style="fill-opacity:1.00" />
<text x="287.000000" y="140">
4
</text>
<rect height="7.000000" width="2.000000" x="325.000000" y="120.000000" fill="rgb(0, 0, 0)" style="fill-opacity:1.00" />
<text x="347.000000" y="140">
5
</text>
<rect height="7.000000" width="2.000000" x="385.000000" y="120.000000" fill="rgb(0, 0, 0)" style="fill-opacity:1.00" />
<text x="407.000000" y="140">
6
</text>
<rect height="7.000000" width="2.000000" x="445.000000" y="120.000000" fill="rgb(0, 0, 0)" style="fill-opacity:1.00" />
<text x="467.000000" y="140">
7
</text>
<rect height="7.000000" width="2.000000" x="505.000000" y="120.000000" fill="rgb(0, 0, 0)" style="fill-opacity:1.00" />
<text x="527.000000" y="140">
8
</text>
<rect height="7.000000" width="2.000000" x="565.000000" y="120.000000" fill="rgb(0, 0, 0)" style="fill-opacity:1.00" />
<text x="587.000000" y="140">
9
</text>
<rect height="7.000000" width="2.000000" x="625.000000" y="120.000000" fill="rgb(0, 0, 0)" style="fill-opacity:1.00" />
<text x="647.000000" y="140">
10
</text>
<rect height="7.000000" width="2.000000" x="685.000000" y="120.000000" fill="rgb(0, 0, 0)" style="fill-opacity:1.00" />
<text x="707.000000" y="140">
11
</text>
<rect height="7.000000" width="2.000000" x="745.000000" y="120.000000" fill="rgb(0, 0, 0)" style="fill-opacity:1.00" />
<text x="767.000000" y="140">
12
</text>
<rect height="7.000000" width="2.000000" x="805.000000" y="120.000000" fill="rgb(0, 0, 0)" style="fill-opacity:1.00" />
<text x="827.000000" y="140">
13
</text>
<rect height="7.000000" width="2.000000" x="865.000000" y="120.000000" fill="rgb(0, 0, 0)" style="fill-opacity:1.00" />
<text x="887.000000" y="140">
14
</text>
<rect height="7.000000" width="2.000000" x="925.000000" y="120.000000" fill="rgb(0, 0, 0)" style="fill-opacity:1.00" />
<text x="947.000000" y="140">
15
</text>
<rect height="7.000000" width="2.000000" x="985.000000" y="120.000000" fill="rgb(0, 0, 0)" style="fill-opacity:1.00" />
<text x="1007.000000" y="140">
16
</text>
<rect height="7.000000" width="2.000000" x="1045.000000" y="120.000000" fill="rgb(0, 0, 0)" style="fill-opacity:1.00" />
<text x="1067.000000" y="140">
17
</text>
<rect height="7.000000" width="2.000000" x="1105.000000" y="120.000000" fill="rgb(0, 0, 0)" style="fill-opacity:1.00" />
<text x="1127.000000" y="140">
18
</text>
<rect height="7.000000" width="2.000000" x="1165.000000" y="120.000000" fill="rgb(0, 0, 0)" style="fill-opacity:1.00" />
<text x="1187.000000" y="140">
19
</text>
<rect height="7.000000" width="2.000000" x="1225.000000" y="120.000000" fill="rgb(0, 0, 0)" style="fill-opacity:1.00" />
<text x="1247.000000" y="140">
20
</text>
<rect height="7.000000" width="2.000000" x="1285.000000" y="120.000000" fill="rgb(0, 0, 0)" style="fill-opacity:1.00" />
<text x="1307.000000" y="140">
21
</text>
<rect height="7.000000" width="2.000000" x="1345.000000" y="120.000000" fill="rgb(0, 0, 0)" style="fill-opacity:1.00" />
<line x1="80" y1="112" x2="80" y2="10" style="stroke:rgb(99,99,99);stroke-width:2" />
<rect height="2.000000" width="7.000000" x="73.000000" y="110.000000" fill="rgb(0, 0, 0)" style="fill-opacity:1.00" />
<text x="63" y="115">
0
</text>
<rect height="2.000000" width="7.000000" x="73.000000" y="60.000000" fill="rgb(0, 0, 0)" style="fill-opacity:1.00" />
<text x="63" y="65">
1
</text>
<rect height="2.000000" width="7.000000" x="73.000000" y="10.000000" fill="rgb(0, 0, 0)" style="fill-opacity:1.00" />
<text x="63" y="15">
2
</text>
<text x="50" y="65"
transform="rotate(-90, 50, 70)">
bits
</text>
<!-- Begin 'C' -->
<ellipse cx="115.000000" cy="108.853915" rx="25.000000" ry="0.222482" fill="rgb(0, 0, 128)" style="fill-opacity:1.00" />
<ellipse cx="115.000000" cy="108.853915" rx="16.666667" ry="0.148321" fill="rgb(255, 255, 255)" style="fill-opacity:1.00" />
<rect height="0.222482" width="25.000000" x="115.000000" y="108.742674" fill="rgb(255, 255, 255)" style="fill-opacity:1.00" />
<!-- End 'C' -->
<!-- Begin 'T' -->
<rect height="0.055985" width="50.000000" x="90.000000" y="109.076397" fill="rgb(0, 100, 0)" style="fill-opacity:1.00" />
<rect height="0.349906" width="10.000000" x="110.000000" y="109.076397" fill="rgb(0, 100, 0)" style="fill-opacity:1.00" />
<!-- End 'T' -->
<!-- Begin 'A' -->
<polygon points=" 90.000000, 109.738914, 111.000000, 109.426303, 119.000000, 109.426303, 140.000000, 109.738914, 132.500000, 109.738914, 126.250000, 109.660761, 103.750000, 109.660761, 97.500000, 109.738914" fill="rgb(178, 34, 34)" style="fill-opacity:1.00" />
<!-- End 'A' -->
<!-- Begin 'G' -->
<ellipse cx="115.000000" cy="109.869457" rx="25.000000" ry="0.130543" fill="rgb(255, 165, 0)" style="fill-opacity:1.00" />
<ellipse cx="115.000000" cy="109.869457" rx="16.666667" ry="0.087029" fill="rgb(255, 255, 255)" style="fill-opacity:1.00" />
<rect height="0.130543" width="25.000000" x="115.000000" y="109.804185" fill="rgb(255, 255, 255)" style="fill-opacity:1.00" />
<rect height="0.032636" width="25.000000" x="115.000000" y="109.902093" fill="rgb(255, 165, 0)" style="fill-opacity:1.00" />
<rect height="0.097907" width="6.250000" x="133.750000" y="109.902093" fill="rgb(255, 165, 0)" style="fill-opacity:1.00" />
<!-- End 'G' -->
<!-- Begin 'G' -->
<ellipse cx="175.000000" cy="108.039814" rx="25.000000" ry="0.404883" fill="rgb(255, 165, 0)" style="fill-opacity:1.00" />
<ellipse cx="175.000000" cy="108.039814" rx="16.666667" ry="0.269922" fill="rgb(255, 255, 255)" style="fill-opacity:1.00" />
<rect height="0.404883" width="25.000000" x="175.000000" y="107.837372" fill="rgb(255, 255, 255)" style="fill-opacity:1.00" />
<rect height="0.101221" width="25.000000" x="175.000000" y="108.141035" fill="rgb(255, 165, 0)" style="fill-opacity:1.00" />
<rect height="0.303663" width="6.250000" x="193.750000" y="108.141035" fill="rgb(255, 165, 0)" style="fill-opacity:1.00" />
<!-- End 'G' -->
<!-- Begin 'A' -->
<polygon points=" 150.000000, 109.053345, 171.000000, 108.444697, 179.000000, 108.444697, 200.000000, 109.053345, 192.500000, 109.053345, 186.250000, 108.901183, 163.750000, 108.901183, 157.500000, 109.053345" fill="rgb(178, 34, 34)" style="fill-opacity:1.00" />
<!-- End 'A' -->
<!-- Begin 'T' -->
<rect height="0.089560" width="50.000000" x="150.000000" y="109.053345" fill="rgb(0, 100, 0)" style="fill-opacity:1.00" />
<rect height="0.559751" width="10.000000" x="170.000000" y="109.053345" fill="rgb(0, 100, 0)" style="fill-opacity:1.00" />
<!-- End 'T' -->
<!-- Begin 'C' -->
<ellipse cx="175.000000" cy="109.806548" rx="25.000000" ry="0.193452" fill="rgb(0, 0, 128)" style="fill-opacity:1.00" />
<ellipse cx="175.000000" cy="109.806548" rx="16.666667" ry="0.128968" fill="rgb(255, 255, 255)" style="fill-opacity:1.00" />
<rect height="0.193452" width="25.000000" x="175.000000" y="109.709822" fill="rgb(255, 255, 255)" style="fill-opacity:1.00" />
<!-- End 'C' -->
<!-- Begin 'G' -->
<ellipse cx="235.000000" cy="109.803098" rx="25.000000" ry="0.031326" fill="rgb(255, 165, 0)" style="fill-opacity:1.00" />
<ellipse cx="235.000000" cy="109.803098" rx="16.666667" ry="0.020884" fill="rgb(255, 255, 255)" style="fill-opacity:1.00" />
<rect height="0.031326" width="25.000000" x="235.000000" y="109.787435" fill="rgb(255, 255, 255)" style="fill-opacity:1.00" />
<rect height="0.007831" width="25.000000" x="235.000000" y="109.810929" fill="rgb(255, 165, 0)" style="fill-opacity:1.00" />
<rect height="0.023494" width="6.250000" x="253.750000" y="109.810929" fill="rgb(255, 165, 0)" style="fill-opacity:1.00" />
<!-- End 'G' -->
<!-- Begin 'C' -->
<ellipse cx="235.000000" cy="109.864622" rx="25.000000" ry="0.030199" fill="rgb(0, 0, 128)" style="fill-opacity:1.00" />
<ellipse cx="235.000000" cy="109.864622" rx="16.666667" ry="0.020133" fill="rgb(255, 255, 255)" style="fill-opacity:1.00" />
<rect height="0.030199" width="25.000000" x="235.000000" y="109.849523" fill="rgb(255, 255, 255)" style="fill-opacity:1.00" />
<!-- End 'C' -->
<!-- Begin 'A' -->
<polygon points=" 210.000000, 109.947644, 231.000000, 109.894821, 239.000000, 109.894821, 260.000000, 109.947644, 252.500000, 109.947644, 246.250000, 109.934438, 223.750000, 109.934438, 217.500000, 109.947644" fill="rgb(178, 34, 34)" style="fill-opacity:1.00" />
<!-- End 'A' -->
<!-- Begin 'T' -->
<rect height="0.008377" width="50.000000" x="210.000000" y="109.947644" fill="rgb(0, 100, 0)" style="fill-opacity:1.00" />
<rect height="0.052356" width="10.000000" x="230.000000" y="109.947644" fill="rgb(0, 100, 0)" style="fill-opacity:1.00" />
<!-- End 'T' -->
<!-- Begin 'C' -->
<ellipse cx="295.000000" cy="108.038711" rx="25.000000" ry="0.393348" fill="rgb(0, 0, 128)" style="fill-opacity:1.00" />
<ellipse cx="295.000000" cy="108.038711" rx="16.666667" ry="0.262232" fill="rgb(255, 255, 255)" style="fill-opacity:1.00" />
<rect height="0.393348" width="25.000000" x="295.000000" y="107.842037" fill="rgb(255, 255, 255)" style="fill-opacity:1.00" />
<!-- End 'C' -->
<!-- Begin 'T' -->
<rect height="0.100539" width="50.000000" x="270.000000" y="108.432059" fill="rgb(0, 100, 0)" style="fill-opacity:1.00" />
<rect height="0.628371" width="10.000000" x="290.000000" y="108.432059" fill="rgb(0, 100, 0)" style="fill-opacity:1.00" />
<!-- End 'T' -->
<!-- Begin 'A' -->
<polygon points=" 270.000000, 109.625938, 291.000000, 109.060430, 299.000000, 109.060430, 320.000000, 109.625938, 312.500000, 109.625938, 306.250000, 109.484561, 283.750000, 109.484561, 277.500000, 109.625938" fill="rgb(178, 34, 34)" style="fill-opacity:1.00" />
<!-- End 'A' -->
<!-- Begin 'G' -->
<ellipse cx="295.000000" cy="109.812969" rx="25.000000" ry="0.187031" fill="rgb(255, 165, 0)" style="fill-opacity:1.00" />
<ellipse cx="295.000000" cy="109.812969" rx="16.666667" ry="0.124687" fill="rgb(255, 255, 255)" style="fill-opacity:1.00" />
<rect height="0.187031" width="25.000000" x="295.000000" y="109.719454" fill="rgb(255, 255, 255)" style="fill-opacity:1.00" />
<rect height="0.046758" width="25.000000" x="295.000000" y="109.859727" fill="rgb(255, 165, 0)" style="fill-opacity:1.00" />
<rect height="0.140273" width="6.250000" x="313.750000" y="109.859727" fill="rgb(255, 165, 0)" style="fill-opacity:1.00" />
<!-- End 'G' -->
<!-- Begin 'G' -->
<ellipse cx="355.000000" cy="108.308964" rx="25.000000" ry="0.331302" fill="rgb(255, 165, 0)" style="fill-opacity:1.00" />
<ellipse cx="355.000000" cy="108.308964" rx="16.666667" ry="0.220868" fill="rgb(255, 255, 255)" style="fill-opacity:1.00" />
<rect height="0.331302" width="25.000000" x="355.000000" y="108.143313" fill="rgb(255, 255, 255)" style="fill-opacity:1.00" />
<rect height="0.082826" width="25.000000" x="355.000000" y="108.391790" fill="rgb(255, 165, 0)" style="fill-opacity:1.00" />
<rect height="0.248477" width="6.250000" x="373.750000" y="108.391790" fill="rgb(255, 165, 0)" style="fill-opacity:1.00" />
<!-- End 'G' -->
<!-- Begin 'A' -->
<polygon points=" 330.000000, 109.176701, 351.000000, 108.640266, 359.000000, 108.640266, 380.000000, 109.176701, 372.500000, 109.176701, 366.250000, 109.042592, 343.750000, 109.042592, 337.500000, 109.176701" fill="rgb(178, 34, 34)" style="fill-opacity:1.00" />
<!-- End 'A' -->
<!-- Begin 'T' -->
<rect height="0.078373" width="50.000000" x="330.000000" y="109.176701" fill="rgb(0, 100, 0)" style="fill-opacity:1.00" />
<rect height="0.489829" width="10.000000" x="350.000000" y="109.176701" fill="rgb(0, 100, 0)" style="fill-opacity:1.00" />
<!-- End 'T' -->
<!-- Begin 'C' -->
<ellipse cx="355.000000" cy="109.833265" rx="25.000000" ry="0.166735" fill="rgb(0, 0, 128)" style="fill-opacity:1.00" />
<ellipse cx="355.000000" cy="109.833265" rx="16.666667" ry="0.111157" fill="rgb(255, 255, 255)" style="fill-opacity:1.00" />
<rect height="0.166735" width="25.000000" x="355.000000" y="109.749897" fill="rgb(255, 255, 255)" style="fill-opacity:1.00" />
<!-- End 'C' -->
<!-- Begin 'A' -->
<polygon points=" 390.000000, 109.947389, 411.000000, 109.928255, 419.000000, 109.928255, 440.000000, 109.947389, 432.500000, 109.947389, 426.250000, 109.942605, 403.750000, 109.942605, 397.500000, 109.947389" fill="rgb(178, 34, 34)" style="fill-opacity:1.00" />
<!-- End 'A' -->
<!-- Begin 'G' -->
<ellipse cx="415.000000" cy="109.956349" rx="25.000000" ry="0.008960" fill="rgb(255, 165, 0)" style="fill-opacity:1.00" />
<ellipse cx="415.000000" cy="109.956349" rx="16.666667" ry="0.005974" fill="rgb(255, 255, 255)" style="fill-opacity:1.00" />
<rect height="0.008960" width="25.000000" x="415.000000" y="109.951869" fill="rgb(255, 255, 255)" style="fill-opacity:1.00" />
<rect height="0.002240" width="25.000000" x="415.000000" y="109.958589" fill="rgb(255, 165, 0)" style="fill-opacity:1.00" />
<rect height="0.006720" width="6.250000" x="433.750000" y="109.958589" fill="rgb(255, 165, 0)" style="fill-opacity:1.00" />
<!-- End 'G' -->
<!-- Begin 'T' -->
<rect height="0.002850" width="50.000000" x="390.000000" y="109.965310" fill="rgb(0, 100, 0)" style="fill-opacity:1.00" />
<rect height="0.017812" width="10.000000" x="410.000000" y="109.965310" fill="rgb(0, 100, 0)" style="fill-opacity:1.00" />
<!-- End 'T' -->
<!-- Begin 'C' -->
<ellipse cx="415.000000" cy="109.991561" rx="25.000000" ry="0.008439" fill="rgb(0, 0, 128)" style="fill-opacity:1.00" />
<ellipse cx="415.000000" cy="109.991561" rx="16.666667" ry="0.005626" fill="rgb(255, 255, 255)" style="fill-opacity:1.00" />
<rect height="0.008439" width="25.000000" x="415.000000" y="109.987341" fill="rgb(255, 255, 255)" style="fill-opacity:1.00" />
<!-- End 'C' -->
<!-- Begin 'C' -->
<ellipse cx="475.000000" cy="105.593730" rx="25.000000" ry="0.815121" fill="rgb(0, 0, 128)" style="fill-opacity:1.00" />
<ellipse cx="475.000000" cy="105.593730" rx="16.666667" ry="0.543414" fill="rgb(255, 255, 255)" style="fill-opacity:1.00" />
<rect height="0.815121" width="25.000000" x="475.000000" y="105.186170" fill="rgb(255, 255, 255)" style="fill-opacity:1.00" />
<!-- End 'C' -->
<!-- Begin 'A' -->
<polygon points=" 450.000000, 107.985249, 471.000000, 106.408851, 479.000000, 106.408851, 500.000000, 107.985249, 492.500000, 107.985249, 486.250000, 107.591149, 463.750000, 107.591149, 457.500000, 107.985249" fill="rgb(178, 34, 34)" style="fill-opacity:1.00" />
<!-- End 'A' -->
<!-- Begin 'T' -->
<rect height="0.238286" width="50.000000" x="450.000000" y="107.985249" fill="rgb(0, 100, 0)" style="fill-opacity:1.00" />
<rect height="1.489285" width="10.000000" x="470.000000" y="107.985249" fill="rgb(0, 100, 0)" style="fill-opacity:1.00" />
<!-- End 'T' -->
<!-- Begin 'G' -->
<ellipse cx="475.000000" cy="109.737267" rx="25.000000" ry="0.262733" fill="rgb(255, 165, 0)" style="fill-opacity:1.00" />
<ellipse cx="475.000000" cy="109.737267" rx="16.666667" ry="0.175156" fill="rgb(255, 255, 255)" style="fill-opacity:1.00" />
<rect height="0.262733" width="25.000000" x="475.000000" y="109.605900" fill="rgb(255, 255, 255)" style="fill-opacity:1.00" />
<rect height="0.065683" width="25.000000" x="475.000000" y="109.802950" fill="rgb(255, 165, 0)" style="fill-opacity:1.00" />
<rect height="0.197050" width="6.250000" x="493.750000" y="109.802950" fill="rgb(255, 165, 0)" style="fill-opacity:1.00" />
<!-- End 'G' -->
<!-- Begin 'A' -->
<polygon points=" 510.000000, 107.151449, 531.000000, 105.714264, 539.000000, 105.714264, 560.000000, 107.151449, 552.500000, 107.151449, 546.250000, 106.792153, 523.750000, 106.792153, 517.500000, 107.151449" fill="rgb(178, 34, 34)" style="fill-opacity:1.00" />
<!-- End 'A' -->
<!-- Begin 'T' -->
<rect height="0.207774" width="50.000000" x="510.000000" y="107.151449" fill="rgb(0, 100, 0)" style="fill-opacity:1.00" />
<rect height="1.298587" width="10.000000" x="530.000000" y="107.151449" fill="rgb(0, 100, 0)" style="fill-opacity:1.00" />
<!-- End 'T' -->
<!-- Begin 'G' -->
<ellipse cx="535.000000" cy="108.964600" rx="25.000000" ry="0.514565" fill="rgb(255, 165, 0)" style="fill-opacity:1.00" />
<ellipse cx="535.000000" cy="108.964600" rx="16.666667" ry="0.343043" fill="rgb(255, 255, 255)" style="fill-opacity:1.00" />
<rect height="0.514565" width="25.000000" x="535.000000" y="108.707318" fill="rgb(255, 255, 255)" style="fill-opacity:1.00" />
<rect height="0.128641" width="25.000000" x="535.000000" y="109.093242" fill="rgb(255, 165, 0)" style="fill-opacity:1.00" />
<rect height="0.385924" width="6.250000" x="553.750000" y="109.093242" fill="rgb(255, 165, 0)" style="fill-opacity:1.00" />
<!-- End 'G' -->
<!-- Begin 'C' -->
<ellipse cx="535.000000" cy="109.739583" rx="25.000000" ry="0.260417" fill="rgb(0, 0, 128)" style="fill-opacity:1.00" />
<ellipse cx="535.000000" cy="109.739583" rx="16.666667" ry="0.173612" fill="rgb(255, 255, 255)" style="fill-opacity:1.00" />
<rect height="0.260417" width="25.000000" x="535.000000" y="109.609374" fill="rgb(255, 255, 255)" style="fill-opacity:1.00" />
<!-- End 'C' -->
<!-- Begin 'T' -->
<rect height="0.014622" width="50.000000" x="570.000000" y="109.663919" fill="rgb(0, 100, 0)" style="fill-opacity:1.00" />
<rect height="0.091387" width="10.000000" x="590.000000" y="109.663919" fill="rgb(0, 100, 0)" style="fill-opacity:1.00" />
<!-- End 'T' -->
<!-- Begin 'A' -->
<polygon points=" 570.000000, 109.846645, 591.000000, 109.755306, 599.000000, 109.755306, 620.000000, 109.846645, 612.500000, 109.846645, 606.250000, 109.823810, 583.750000, 109.823810, 577.500000, 109.846645" fill="rgb(178, 34, 34)" style="fill-opacity:1.00" />
<!-- End 'A' -->
<!-- Begin 'G' -->
<ellipse cx="595.000000" cy="109.887303" rx="25.000000" ry="0.040658" fill="rgb(255, 165, 0)" style="fill-opacity:1.00" />
<ellipse cx="595.000000" cy="109.887303" rx="16.666667" ry="0.027105" fill="rgb(255, 255, 255)" style="fill-opacity:1.00" />
<rect height="0.040658" width="25.000000" x="595.000000" y="109.866974" fill="rgb(255, 255, 255)" style="fill-opacity:1.00" />
<rect height="0.010164" width="25.000000" x="595.000000" y="109.897467" fill="rgb(255, 165, 0)" style="fill-opacity:1.00" />
<rect height="0.030493" width="6.250000" x="613.750000" y="109.897467" fill="rgb(255, 165, 0)" style="fill-opacity:1.00" />
<!-- End 'G' -->
<!-- Begin 'C' -->
<ellipse cx="595.000000" cy="109.963980" rx="25.000000" ry="0.036020" fill="rgb(0, 0, 128)" style="fill-opacity:1.00" />
<ellipse cx="595.000000" cy="109.963980" rx="16.666667" ry="0.024013" fill="rgb(255, 255, 255)" style="fill-opacity:1.00" />
<rect height="0.036020" width="25.000000" x="595.000000" y="109.945970" fill="rgb(255, 255, 255)" style="fill-opacity:1.00" />
<!-- End 'C' -->
<!-- Begin 'C' -->
<ellipse cx="655.000000" cy="97.794391" rx="25.000000" ry="3.668501" fill="rgb(0, 0, 128)" style="fill-opacity:1.00" />
<ellipse cx="655.000000" cy="97.794391" rx="16.666667" ry="2.445667" fill="rgb(255, 255, 255)" style="fill-opacity:1.00" />
<rect height="3.668501" width="25.000000" x="655.000000" y="95.960141" fill="rgb(255, 255, 255)" style="fill-opacity:1.00" />
<!-- End 'C' -->
<!-- Begin 'T' -->
<rect height="0.737282" width="50.000000" x="630.000000" y="101.462892" fill="rgb(0, 100, 0)" style="fill-opacity:1.00" />
<rect height="4.608010" width="10.000000" x="650.000000" y="101.462892" fill="rgb(0, 100, 0)" style="fill-opacity:1.00" />
<!-- End 'T' -->
<!-- Begin 'A' -->
<polygon points=" 630.000000, 109.408383, 651.000000, 106.070902, 659.000000, 106.070902, 680.000000, 109.408383, 672.500000, 109.408383, 666.250000, 108.574013, 643.750000, 108.574013, 637.500000, 109.408383" fill="rgb(178, 34, 34)" style="fill-opacity:1.00" />
<!-- End 'A' -->
<!-- Begin 'G' -->
<ellipse cx="655.000000" cy="109.704192" rx="25.000000" ry="0.295808" fill="rgb(255, 165, 0)" style="fill-opacity:1.00" />
<ellipse cx="655.000000" cy="109.704192" rx="16.666667" ry="0.197206" fill="rgb(255, 255, 255)" style="fill-opacity:1.00" />
<rect height="0.295808" width="25.000000" x="655.000000" y="109.556287" fill="rgb(255, 255, 255)" style="fill-opacity:1.00" />
<rect height="0.073952" width="25.000000" x="655.000000" y="109.778144" fill="rgb(255, 165, 0)" style="fill-opacity:1.00" />
<rect height="0.221856" width="6.250000" x="673.750000" y="109.778144" fill="rgb(255, 165, 0)" style="fill-opacity:1.00" />
<!-- End 'G' -->
<!-- Begin 'G' -->
<ellipse cx="715.000000" cy="94.698537" rx="25.000000" ry="6.286866" fill="rgb(255, 165, 0)" style="fill-opacity:1.00" />
<ellipse cx="715.000000" cy="94.698537" rx="16.666667" ry="4.191244" fill="rgb(255, 255, 255)" style="fill-opacity:1.00" />
<rect height="6.286866" width="25.000000" x="715.000000" y="91.555104" fill="rgb(255, 255, 255)" style="fill-opacity:1.00" />
<rect height="1.571716" width="25.000000" x="715.000000" y="96.270254" fill="rgb(255, 165, 0)" style="fill-opacity:1.00" />
<rect height="4.715149" width="6.250000" x="733.750000" y="96.270254" fill="rgb(255, 165, 0)" style="fill-opacity:1.00" />
<!-- End 'G' -->
<!-- Begin 'T' -->
<rect height="0.724469" width="50.000000" x="690.000000" y="100.985403" fill="rgb(0, 100, 0)" style="fill-opacity:1.00" />
<rect height="4.527932" width="10.000000" x="710.000000" y="100.985403" fill="rgb(0, 100, 0)" style="fill-opacity:1.00" />
<!-- End 'T' -->
<!-- Begin 'A' -->
<polygon points=" 690.000000, 108.854027, 711.000000, 105.513335, 719.000000, 105.513335, 740.000000, 108.854027, 732.500000, 108.854027, 726.250000, 108.018854, 703.750000, 108.018854, 697.500000, 108.854027" fill="rgb(178, 34, 34)" style="fill-opacity:1.00" />
<!-- End 'A' -->
<!-- Begin 'C' -->
<ellipse cx="715.000000" cy="109.427013" rx="25.000000" ry="0.572987" fill="rgb(0, 0, 128)" style="fill-opacity:1.00" />
<ellipse cx="715.000000" cy="109.427013" rx="16.666667" ry="0.381991" fill="rgb(255, 255, 255)" style="fill-opacity:1.00" />
<rect height="0.572987" width="25.000000" x="715.000000" y="109.140520" fill="rgb(255, 255, 255)" style="fill-opacity:1.00" />
<!-- End 'C' -->
<!-- Begin 'G' -->
<ellipse cx="775.000000" cy="100.713810" rx="25.000000" ry="2.327692" fill="rgb(255, 165, 0)" style="fill-opacity:1.00" />
<ellipse cx="775.000000" cy="100.713810" rx="16.666667" ry="1.551795" fill="rgb(255, 255, 255)" style="fill-opacity:1.00" />
<rect height="2.327692" width="25.000000" x="775.000000" y="99.549964" fill="rgb(255, 255, 255)" style="fill-opacity:1.00" />
<rect height="0.581923" width="25.000000" x="775.000000" y="101.295733" fill="rgb(255, 165, 0)" style="fill-opacity:1.00" />
<rect height="1.745769" width="6.250000" x="793.750000" y="101.295733" fill="rgb(255, 165, 0)" style="fill-opacity:1.00" />
<!-- End 'G' -->
<!-- Begin 'C' -->
<ellipse cx="775.000000" cy="105.195524" rx="25.000000" ry="2.154023" fill="rgb(0, 0, 128)" style="fill-opacity:1.00" />
<ellipse cx="775.000000" cy="105.195524" rx="16.666667" ry="1.436015" fill="rgb(255, 255, 255)" style="fill-opacity:1.00" />
<rect height="2.154023" width="25.000000" x="775.000000" y="104.118513" fill="rgb(255, 255, 255)" style="fill-opacity:1.00" />
<!-- End 'C' -->
<!-- Begin 'A' -->
<polygon points=" 750.000000, 108.933736, 771.000000, 107.349547, 779.000000, 107.349547, 800.000000, 108.933736, 792.500000, 108.933736, 786.250000, 108.537689, 763.750000, 108.537689, 757.500000, 108.933736" fill="rgb(178, 34, 34)" style="fill-opacity:1.00" />
<!-- End 'A' -->
<!-- Begin 'T' -->
<rect height="0.170602" width="50.000000" x="750.000000" y="108.933736" fill="rgb(0, 100, 0)" style="fill-opacity:1.00" />
<rect height="1.066264" width="10.000000" x="770.000000" y="108.933736" fill="rgb(0, 100, 0)" style="fill-opacity:1.00" />
<!-- End 'T' -->
<!-- Begin 'C' -->
<ellipse cx="835.000000" cy="73.034084" rx="25.000000" ry="29.143120" fill="rgb(0, 0, 128)" style="fill-opacity:1.00" />
<ellipse cx="835.000000" cy="73.034084" rx="16.666667" ry="19.428747" fill="rgb(255, 255, 255)" style="fill-opacity:1.00" />
<rect height="29.143120" width="25.000000" x="835.000000" y="58.462524" fill="rgb(255, 255, 255)" style="fill-opacity:1.00" />
<!-- End 'C' -->
<!-- Begin 'A' -->
<polygon points=" 810.000000, 106.019128, 831.000000, 102.177203, 839.000000, 102.177203, 860.000000, 106.019128, 852.500000, 106.019128, 846.250000, 105.058647, 823.750000, 105.058647, 817.500000, 106.019128" fill="rgb(178, 34, 34)" style="fill-opacity:1.00" />
<!-- End 'A' -->
<!-- Begin 'T' -->
<rect height="0.548625" width="50.000000" x="810.000000" y="106.019128" fill="rgb(0, 100, 0)" style="fill-opacity:1.00" />
<rect height="3.428907" width="10.000000" x="830.000000" y="106.019128" fill="rgb(0, 100, 0)" style="fill-opacity:1.00" />
<!-- End 'T' -->
<!-- Begin 'G' -->
<ellipse cx="835.000000" cy="109.724017" rx="25.000000" ry="0.275983" fill="rgb(255, 165, 0)" style="fill-opacity:1.00" />
<ellipse cx="835.000000" cy="109.724017" rx="16.666667" ry="0.183988" fill="rgb(255, 255, 255)" style="fill-opacity:1.00" />
<rect height="0.275983" width="25.000000" x="835.000000" y="109.586026" fill="rgb(255, 255, 255)" style="fill-opacity:1.00" />
<rect height="0.068996" width="25.000000" x="835.000000" y="109.793013" fill="rgb(255, 165, 0)" style="fill-opacity:1.00" />
<rect height="0.206987" width="6.250000" x="853.750000" y="109.793013" fill="rgb(255, 165, 0)" style="fill-opacity:1.00" />
<!-- End 'G' -->
<!-- Begin 'G' -->
<ellipse cx="895.000000" cy="67.632878" rx="25.000000" ry="37.490157" fill="rgb(255, 165, 0)" style="fill-opacity:1.00" />
<ellipse cx="895.000000" cy="67.632878" rx="16.666667" ry="24.993438" fill="rgb(255, 255, 255)" style="fill-opacity:1.00" />
<rect height="37.490157" width="25.000000" x="895.000000" y="48.887799" fill="rgb(255, 255, 255)" style="fill-opacity:1.00" />
<rect height="9.372539" width="25.000000" x="895.000000" y="77.005417" fill="rgb(255, 165, 0)" style="fill-opacity:1.00" />
<rect height="28.117618" width="6.250000" x="913.750000" y="77.005417" fill="rgb(255, 165, 0)" style="fill-opacity:1.00" />
<!-- End 'G' -->
<!-- Begin 'A' -->
<polygon points=" 870.000000, 108.188850, 891.000000, 105.123035, 899.000000, 105.123035, 920.000000, 108.188850, 912.500000, 108.188850, 906.250000, 107.422396, 883.750000, 107.422396, 877.500000, 108.188850" fill="rgb(178, 34, 34)" style="fill-opacity:1.00" />
<!-- End 'A' -->
<!-- Begin 'T' -->
<rect height="0.250184" width="50.000000" x="870.000000" y="108.188850" fill="rgb(0, 100, 0)" style="fill-opacity:1.00" />
<rect height="1.563647" width="10.000000" x="890.000000" y="108.188850" fill="rgb(0, 100, 0)" style="fill-opacity:1.00" />
<!-- End 'T' -->
<!-- Begin 'C' -->
<ellipse cx="895.000000" cy="109.876249" rx="25.000000" ry="0.123751" fill="rgb(0, 0, 128)" style="fill-opacity:1.00" />
<ellipse cx="895.000000" cy="109.876249" rx="16.666667" ry="0.082501" fill="rgb(255, 255, 255)" style="fill-opacity:1.00" />
<rect height="0.123751" width="25.000000" x="895.000000" y="109.814373" fill="rgb(255, 255, 255)" style="fill-opacity:1.00" />
<!-- End 'C' -->
<!-- Begin 'G' -->
<ellipse cx="955.000000" cy="88.151707" rx="25.000000" ry="7.601697" fill="rgb(255, 165, 0)" style="fill-opacity:1.00" />
<ellipse cx="955.000000" cy="88.151707" rx="16.666667" ry="5.067798" fill="rgb(255, 255, 255)" style="fill-opacity:1.00" />
<rect height="7.601697" width="25.000000" x="955.000000" y="84.350858" fill="rgb(255, 255, 255)" style="fill-opacity:1.00" />
<rect height="1.900424" width="25.000000" x="955.000000" y="90.052131" fill="rgb(255, 165, 0)" style="fill-opacity:1.00" />
<rect height="5.701273" width="6.250000" x="973.750000" y="90.052131" fill="rgb(255, 165, 0)" style="fill-opacity:1.00" />
<!-- End 'G' -->
<!-- Begin 'C' -->
<ellipse cx="955.000000" cy="101.611637" rx="25.000000" ry="5.858233" fill="rgb(0, 0, 128)" style="fill-opacity:1.00" />
<ellipse cx="955.000000" cy="101.611637" rx="16.666667" ry="3.905489" fill="rgb(255, 255, 255)" style="fill-opacity:1.00" />
<rect height="5.858233" width="25.000000" x="955.000000" y="98.682521" fill="rgb(255, 255, 255)" style="fill-opacity:1.00" />
<!-- End 'C' -->
<!-- Begin 'T' -->
<rect height="0.222036" width="50.000000" x="930.000000" y="107.469871" fill="rgb(0, 100, 0)" style="fill-opacity:1.00" />
<rect height="1.387728" width="10.000000" x="950.000000" y="107.469871" fill="rgb(0, 100, 0)" style="fill-opacity:1.00" />
<!-- End 'T' -->
<!-- Begin 'A' -->
<polygon points=" 930.000000, 110.000000, 951.000000, 108.857598, 959.000000, 108.857598, 980.000000, 110.000000, 972.500000, 110.000000, 966.250000, 109.714400, 943.750000, 109.714400, 937.500000, 110.000000" fill="rgb(178, 34, 34)" style="fill-opacity:1.00" />
<!-- End 'A' -->
<!-- Begin 'C' -->
<ellipse cx="1015.000000" cy="75.652578" rx="25.000000" ry="24.938656" fill="rgb(0, 0, 128)" style="fill-opacity:1.00" />
<ellipse cx="1015.000000" cy="75.652578" rx="16.666667" ry="16.625771" fill="rgb(255, 255, 255)" style="fill-opacity:1.00" />
<rect height="24.938656" width="25.000000" x="1015.000000" y="63.183249" fill="rgb(255, 255, 255)" style="fill-opacity:1.00" />
<!-- End 'C' -->
<!-- Begin 'T' -->
<rect height="0.862362" width="50.000000" x="990.000000" y="100.591234" fill="rgb(0, 100, 0)" style="fill-opacity:1.00" />
<rect height="5.389760" width="10.000000" x="1010.000000" y="100.591234" fill="rgb(0, 100, 0)" style="fill-opacity:1.00" />
<!-- End 'T' -->
<!-- Begin 'A' -->
<polygon points=" 990.000000, 109.685862, 1011.000000, 105.980994, 1019.000000, 105.980994, 1040.000000, 109.685862, 1032.500000, 109.685862, 1026.250000, 108.759645, 1003.750000, 108.759645, 997.500000, 109.685862" fill="rgb(178, 34, 34)" style="fill-opacity:1.00" />
<!-- End 'A' -->
<!-- Begin 'G' -->
<ellipse cx="1015.000000" cy="109.842931" rx="25.000000" ry="0.157069" fill="rgb(255, 165, 0)" style="fill-opacity:1.00" />
<ellipse cx="1015.000000" cy="109.842931" rx="16.666667" ry="0.104713" fill="rgb(255, 255, 255)" style="fill-opacity:1.00" />
<rect height="0.157069" width="25.000000" x="1015.000000" y="109.764397" fill="rgb(255, 255, 255)" style="fill-opacity:1.00" />
<rect height="0.039267" width="25.000000" x="1015.000000" y="109.882198" fill="rgb(255, 165, 0)" style="fill-opacity:1.00" />
<rect height="0.117802" width="6.250000" x="1033.750000" y="109.882198" fill="rgb(255, 165, 0)" style="fill-opacity:1.00" />
<!-- End 'G' -->
<!-- Begin 'G' -->
<ellipse cx="1075.000000" cy="87.132754" rx="25.000000" ry="12.154908" fill="rgb(255, 165, 0)" style="fill-opacity:1.00" />
<ellipse cx="1075.000000" cy="87.132754" rx="16.666667" ry="8.103272" fill="rgb(255, 255, 255)" style="fill-opacity:1.00" />
<rect height="12.154908" width="25.000000" x="1075.000000" y="81.055300" fill="rgb(255, 255, 255)" style="fill-opacity:1.00" />
<rect height="3.038727" width="25.000000" x="1075.000000" y="90.171481" fill="rgb(255, 165, 0)" style="fill-opacity:1.00" />
<rect height="9.116181" width="6.250000" x="1093.750000" y="90.171481" fill="rgb(255, 165, 0)" style="fill-opacity:1.00" />
<!-- End 'G' -->
<!-- Begin 'T' -->
<rect height="0.817743" width="50.000000" x="1050.000000" y="99.287662" fill="rgb(0, 100, 0)" style="fill-opacity:1.00" />
<rect height="5.110891" width="10.000000" x="1070.000000" y="99.287662" fill="rgb(0, 100, 0)" style="fill-opacity:1.00" />
<!-- End 'T' -->
<!-- Begin 'A' -->
<polygon points=" 1050.000000, 109.038519, 1071.000000, 104.398553, 1079.000000, 104.398553, 1100.000000, 109.038519, 1092.500000, 109.038519, 1086.250000, 107.878527, 1063.750000, 107.878527, 1057.500000, 109.038519" fill="rgb(178, 34, 34)" style="fill-opacity:1.00" />
<!-- End 'A' -->
<!-- Begin 'C' -->
<ellipse cx="1075.000000" cy="109.519259" rx="25.000000" ry="0.480741" fill="rgb(0, 0, 128)" style="fill-opacity:1.00" />
<ellipse cx="1075.000000" cy="109.519259" rx="16.666667" ry="0.320494" fill="rgb(255, 255, 255)" style="fill-opacity:1.00" />
<rect height="0.480741" width="25.000000" x="1075.000000" y="109.278889" fill="rgb(255, 255, 255)" style="fill-opacity:1.00" />
<!-- End 'C' -->
<!-- Begin 'G' -->
<ellipse cx="1135.000000" cy="109.470191" rx="25.000000" ry="0.090964" fill="rgb(255, 165, 0)" style="fill-opacity:1.00" />
<ellipse cx="1135.000000" cy="109.470191" rx="16.666667" ry="0.060642" fill="rgb(255, 255, 255)" style="fill-opacity:1.00" />
<rect height="0.090964" width="25.000000" x="1135.000000" y="109.424709" fill="rgb(255, 255, 255)" style="fill-opacity:1.00" />
<rect height="0.022741" width="25.000000" x="1135.000000" y="109.492932" fill="rgb(255, 165, 0)" style="fill-opacity:1.00" />
<rect height="0.068223" width="6.250000" x="1153.750000" y="109.492932" fill="rgb(255, 165, 0)" style="fill-opacity:1.00" />
<!-- End 'G' -->
<!-- Begin 'C' -->
<ellipse cx="1135.000000" cy="109.644593" rx="25.000000" ry="0.083439" fill="rgb(0, 0, 128)" style="fill-opacity:1.00" />
<ellipse cx="1135.000000" cy="109.644593" rx="16.666667" ry="0.055626" fill="rgb(255, 255, 255)" style="fill-opacity:1.00" />
<rect height="0.083439" width="25.000000" x="1135.000000" y="109.602873" fill="rgb(255, 255, 255)" style="fill-opacity:1.00" />
<!-- End 'C' -->
<!-- Begin 'T' -->
<rect height="0.022690" width="50.000000" x="1110.000000" y="109.728031" fill="rgb(0, 100, 0)" style="fill-opacity:1.00" />
<rect height="0.141815" width="10.000000" x="1130.000000" y="109.728031" fill="rgb(0, 100, 0)" style="fill-opacity:1.00" />
<!-- End 'T' -->
<!-- Begin 'A' -->
<polygon points=" 1110.000000, 110.000000, 1131.000000, 109.869847, 1139.000000, 109.869847, 1160.000000, 110.000000, 1152.500000, 110.000000, 1146.250000, 109.967462, 1123.750000, 109.967462, 1117.500000, 110.000000" fill="rgb(178, 34, 34)" style="fill-opacity:1.00" />
<!-- End 'A' -->
<!-- Begin 'A' -->
<polygon points=" 1170.000000, 107.100485, 1191.000000, 105.783776, 1199.000000, 105.783776, 1220.000000, 107.100485, 1212.500000, 107.100485, 1206.250000, 106.771308, 1183.750000, 106.771308, 1177.500000, 107.100485" fill="rgb(178, 34, 34)" style="fill-opacity:1.00" />
<!-- End 'A' -->
<!-- Begin 'C' -->
<ellipse cx="1195.000000" cy="107.730052" rx="25.000000" ry="0.629567" fill="rgb(0, 0, 128)" style="fill-opacity:1.00" />
<ellipse cx="1195.000000" cy="107.730052" rx="16.666667" ry="0.419711" fill="rgb(255, 255, 255)" style="fill-opacity:1.00" />
<rect height="0.629567" width="25.000000" x="1195.000000" y="107.415269" fill="rgb(255, 255, 255)" style="fill-opacity:1.00" />
<!-- End 'C' -->
<!-- Begin 'T' -->
<rect height="0.184874" width="50.000000" x="1170.000000" y="108.359619" fill="rgb(0, 100, 0)" style="fill-opacity:1.00" />
<rect height="1.155462" width="10.000000" x="1190.000000" y="108.359619" fill="rgb(0, 100, 0)" style="fill-opacity:1.00" />
<!-- End 'T' -->
<!-- Begin 'G' -->
<ellipse cx="1195.000000" cy="109.757540" rx="25.000000" ry="0.242460" fill="rgb(255, 165, 0)" style="fill-opacity:1.00" />
<ellipse cx="1195.000000" cy="109.757540" rx="16.666667" ry="0.161640" fill="rgb(255, 255, 255)" style="fill-opacity:1.00" />
<rect height="0.242460" width="25.000000" x="1195.000000" y="109.636310" fill="rgb(255, 255, 255)" style="fill-opacity:1.00" />
<rect height="0.060615" width="25.000000" x="1195.000000" y="109.818155" fill="rgb(255, 165, 0)" style="fill-opacity:1.00" />
<rect height="0.181845" width="6.250000" x="1213.750000" y="109.818155" fill="rgb(255, 165, 0)" style="fill-opacity:1.00" />
<!-- End 'G' -->
<!-- Begin 'G' -->
<ellipse cx="1255.000000" cy="102.881935" rx="25.000000" ry="1.431260" fill="rgb(255, 165, 0)" style="fill-opacity:1.00" />
<ellipse cx="1255.000000" cy="102.881935" rx="16.666667" ry="0.954173" fill="rgb(255, 255, 255)" style="fill-opacity:1.00" />
<rect height="1.431260" width="25.000000" x="1255.000000" y="102.166305" fill="rgb(255, 255, 255)" style="fill-opacity:1.00" />
<rect height="0.357815" width="25.000000" x="1255.000000" y="103.239750" fill="rgb(255, 165, 0)" style="fill-opacity:1.00" />
<rect height="1.073445" width="6.250000" x="1273.750000" y="103.239750" fill="rgb(255, 165, 0)" style="fill-opacity:1.00" />
<!-- End 'G' -->
<!-- Begin 'A' -->
<polygon points=" 1230.000000, 107.112491, 1251.000000, 104.313195, 1259.000000, 104.313195, 1280.000000, 107.112491, 1272.500000, 107.112491, 1266.250000, 106.412667, 1243.750000, 106.412667, 1237.500000, 107.112491" fill="rgb(178, 34, 34)" style="fill-opacity:1.00" />
<!-- End 'A' -->
<!-- Begin 'T' -->
<rect height="0.369365" width="50.000000" x="1230.000000" y="107.112491" fill="rgb(0, 100, 0)" style="fill-opacity:1.00" />
<rect height="2.308532" width="10.000000" x="1250.000000" y="107.112491" fill="rgb(0, 100, 0)" style="fill-opacity:1.00" />
<!-- End 'T' -->
<!-- Begin 'C' -->
<ellipse cx="1255.000000" cy="109.710512" rx="25.000000" ry="0.289488" fill="rgb(0, 0, 128)" style="fill-opacity:1.00" />
<ellipse cx="1255.000000" cy="109.710512" rx="16.666667" ry="0.192992" fill="rgb(255, 255, 255)" style="fill-opacity:1.00" />
<rect height="0.289488" width="25.000000" x="1255.000000" y="109.565768" fill="rgb(255, 255, 255)" style="fill-opacity:1.00" />
<!-- End 'C' -->
<!-- Begin 'A' -->
<polygon points=" 1290.000000, 109.637707, 1311.000000, 109.494782, 1319.000000, 109.494782, 1340.000000, 109.637707, 1332.500000, 109.637707, 1326.250000, 109.601976, 1303.750000, 109.601976, 1297.500000, 109.637707" fill="rgb(178, 34, 34)" style="fill-opacity:1.00" />
<!-- End 'A' -->
<!-- Begin 'T' -->
<rect height="0.021779" width="50.000000" x="1290.000000" y="109.637707" fill="rgb(0, 100, 0)" style="fill-opacity:1.00" />
<rect height="0.136120" width="10.000000" x="1310.000000" y="109.637707" fill="rgb(0, 100, 0)" style="fill-opacity:1.00" />
<!-- End 'T' -->
<!-- Begin 'G' -->
<ellipse cx="1315.000000" cy="109.834765" rx="25.000000" ry="0.060938" fill="rgb(255, 165, 0)" style="fill-opacity:1.00" />
<ellipse cx="1315.000000" cy="109.834765" rx="16.666667" ry="0.040626" fill="rgb(255, 255, 255)" style="fill-opacity:1.00" />
<rect height="0.060938" width="25.000000" x="1315.000000" y="109.804296" fill="rgb(255, 255, 255)" style="fill-opacity:1.00" />
<rect height="0.015235" width="25.000000" x="1315.000000" y="109.850000" fill="rgb(255, 165, 0)" style="fill-opacity:1.00" />
<rect height="0.045704" width="6.250000" x="1333.750000" y="109.850000" fill="rgb(255, 165, 0)" style="fill-opacity:1.00" />
<!-- End 'G' -->
<!-- Begin 'C' -->
<ellipse cx="1315.000000" cy="109.947852" rx="25.000000" ry="0.052148" fill="rgb(0, 0, 128)" style="fill-opacity:1.00" />
<ellipse cx="1315.000000" cy="109.947852" rx="16.666667" ry="0.034766" fill="rgb(255, 255, 255)" style="fill-opacity:1.00" />
<rect height="0.052148" width="25.000000" x="1315.000000" y="109.921778" fill="rgb(255, 255, 255)" style="fill-opacity:1.00" />
<!-- End 'C' -->
<text x="700.000000" y="165">
IC = 7.02
</text>

</svg>
