<?xml version="1.0" encoding="UTF-8" standalone="yes"?>
                 <!DOCTYPE svg PUBLIC "-//W3C//DTD SVG 1.0//EN" "http://www.w3.org/TR/2001/REC-SVG-20010904/DTD/svg10.dtd">
                 <svg height="170" width="960" xmlns="http://www.w3.org/2000/svg" xmlns:xlink="http://www.w3.org/1999/xlink">
                 <line x1="85" y1="120" x2="927" y2="120" style="stroke:rgb(99,99,99);stroke-width:2" />
<rect height="7.000000" width="2.000000" x="85.000000" y="120.000000" fill="rgb(0, 0, 0)" style="fill-opacity:1.00" />
<text x="107.000000" y="140">
1
</text>
<rect height="7.000000" width="2.000000" x="145.000000" y="120.000000" fill="rgb(0, 0, 0)" style="fill-opacity:1.00" />
<text x="167.000000" y="140">
2
</text>
<rect height="7.000000" width="2.000000" x="205.000000" y="120.000000" fill="rgb(0, 0, 0)" style="fill-opacity:1.00" />
<text x="227.000000" y="140">
3
</text>
<rect height="7.000000" width="2.000000" x="265.000000" y="120.000000" fill="rgb(0, 0, 0)" style="fill-opacity:1.00" />
<text x="287.000000" y="140">
4
</text>
<rect height="7.000000" width="2.000000" x="325.000000" y="120.000000" fill="rgb(0, 0, 0)" style="fill-opacity:1.00" />
<text x="347.000000" y="140">
5
</text>
<rect height="7.000000" width="2.000000" x="385.000000" y="120.000000" fill="rgb(0, 0, 0)" style="fill-opacity:1.00" />
<text x="407.000000" y="140">
6
</text>
<rect height="7.000000" width="2.000000" x="445.000000" y="120.000000" fill="rgb(0, 0, 0)" style="fill-opacity:1.00" />
<text x="467.000000" y="140">
7
</text>
<rect height="7.000000" width="2.000000" x="505.000000" y="120.000000" fill="rgb(0, 0, 0)" style="fill-opacity:1.00" />
<text x="527.000000" y="140">
8
</text>
<rect height="7.000000" width="2.000000" x="565.000000" y="120.000000" fill="rgb(0, 0, 0)" style="fill-opacity:1.00" />
<text x="587.000000" y="140">
9
</text>
<rect height="7.000000" width="2.000000" x="625.000000" y="120.000000" fill="rgb(0, 0, 0)" style="fill-opacity:1.00" />
<text x="647.000000" y="140">
10
</text>
<rect height="7.000000" width="2.000000" x="685.000000" y="120.000000" fill="rgb(0, 0, 0)" style="fill-opacity:1.00" />
<text x="707.000000" y="140">
11
</text>
<rect height="7.000000" width="2.000000" x="745.000000" y="120.000000" fill="rgb(0, 0, 0)" style="fill-opacity:1.00" />
<text x="767.000000" y="140">
12
</text>
<rect height="7.000000" width="2.000000" x="805.000000" y="120.000000" fill="rgb(0, 0, 0)" style="fill-opacity:1.00" />
<text x="827.000000" y="140">
13
</text>
<rect height="7.000000" width="2.000000" x="865.000000" y="120.000000" fill="rgb(0, 0, 0)" style="fill-opacity:1.00" />
<text x="887.000000" y="140">
14
</text>
<rect height="7.000000" width="2.000000" x="925.000000" y="120.000000" fill="rgb(0, 0, 0)" style="fill-opacity:1.00" />
<line x1="80" y1="112" x2="80" y2="10" style="stroke:rgb(99,99,99);stroke-width:2" />
<rect height="2.000000" width="7.000000" x="73.000000" y="110.000000" fill="rgb(0, 0, 0)" style="fill-opacity:1.00" />
<text x="63" y="115">
0
</text>
<rect height="2.000000" width="7.000000" x="73.000000" y="60.000000" fill="rgb(0, 0, 0)" style="fill-opacity:1.00" />
<text x="63" y="65">
1
</text>
<rect height="2.000000" width="7.000000" x="73.000000" y="10.000000" fill="rgb(0, 0, 0)" style="fill-opacity:1.00" />
<text x="63" y="15">
2
</text>
<text x="50" y="65"
transform="rotate(-90, 50, 70)">
bits
</text>
<!-- Begin 'A' -->
<polygon points=" 90.000000, 108.368343, 111.000000, 107.437866, 119.000000, 107.437866, 140.000000, 108.368343, 132.500000, 108.368343, 126.250000, 108.135724, 103.750000, 108.135724, 97.500000, 108.368343" fill="rgb(178, 34, 34)" style="fill-opacity:1.00" />
<!-- End 'A' -->
<!-- Begin 'G' -->
<ellipse cx="115.000000" cy="108.670079" rx="25.000000" ry="0.301736" fill="rgb(255, 165, 0)" style="fill-opacity:1.00" />
<ellipse cx="115.000000" cy="108.670079" rx="16.666667" ry="0.201157" fill="rgb(255, 255, 255)" style="fill-opacity:1.00" />
<rect height="0.301736" width="25.000000" x="115.000000" y="108.519211" fill="rgb(255, 255, 255)" style="fill-opacity:1.00" />
<rect height="0.075434" width="25.000000" x="115.000000" y="108.745513" fill="rgb(255, 165, 0)" style="fill-opacity:1.00" />
<rect height="0.226302" width="6.250000" x="133.750000" y="108.745513" fill="rgb(255, 165, 0)" style="fill-opacity:1.00" />
<!-- End 'G' -->
<!-- Begin 'T' -->
<rect height="0.090856" width="50.000000" x="90.000000" y="108.971815" fill="rgb(0, 100, 0)" style="fill-opacity:1.00" />
<rect height="0.567848" width="10.000000" x="110.000000" y="108.971815" fill="rgb(0, 100, 0)" style="fill-opacity:1.00" />
<!-- End 'T' -->
<!-- Begin 'C' -->
<ellipse cx="115.000000" cy="109.769832" rx="25.000000" ry="0.230168" fill="rgb(0, 0, 128)" style="fill-opacity:1.00" />
<ellipse cx="115.000000" cy="109.769832" rx="16.666667" ry="0.153445" fill="rgb(255, 255, 255)" style="fill-opacity:1.00" />
<rect height="0.230168" width="25.000000" x="115.000000" y="109.654748" fill="rgb(255, 255, 255)" style="fill-opacity:1.00" />
<!-- End 'C' -->
<!-- Begin 'C' -->
<ellipse cx="175.000000" cy="109.308083" rx="25.000000" ry="0.120940" fill="rgb(0, 0, 128)" style="fill-opacity:1.00" />
<ellipse cx="175.000000" cy="109.308083" rx="16.666667" ry="0.080627" fill="rgb(255, 255, 255)" style="fill-opacity:1.00" />
<rect height="0.120940" width="25.000000" x="175.000000" y="109.247613" fill="rgb(255, 255, 255)" style="fill-opacity:1.00" />
<!-- End 'C' -->
<!-- Begin 'G' -->
<ellipse cx="175.000000" cy="109.539814" rx="25.000000" ry="0.110791" fill="rgb(255, 165, 0)" style="fill-opacity:1.00" />
<ellipse cx="175.000000" cy="109.539814" rx="16.666667" ry="0.073861" fill="rgb(255, 255, 255)" style="fill-opacity:1.00" />
<rect height="0.110791" width="25.000000" x="175.000000" y="109.484419" fill="rgb(255, 255, 255)" style="fill-opacity:1.00" />
<rect height="0.027698" width="25.000000" x="175.000000" y="109.567512" fill="rgb(255, 165, 0)" style="fill-opacity:1.00" />
<rect height="0.083093" width="6.250000" x="193.750000" y="109.567512" fill="rgb(255, 165, 0)" style="fill-opacity:1.00" />
<!-- End 'G' -->
<!-- Begin 'A' -->
<polygon points=" 150.000000, 109.836239, 171.000000, 109.650606, 179.000000, 109.650606, 200.000000, 109.836239, 192.500000, 109.836239, 186.250000, 109.789831, 163.750000, 109.789831, 157.500000, 109.836239" fill="rgb(178, 34, 34)" style="fill-opacity:1.00" />
<!-- End 'A' -->
<!-- Begin 'T' -->
<rect height="0.026202" width="50.000000" x="150.000000" y="109.836239" fill="rgb(0, 100, 0)" style="fill-opacity:1.00" />
<rect height="0.163761" width="10.000000" x="170.000000" y="109.836239" fill="rgb(0, 100, 0)" style="fill-opacity:1.00" />
<!-- End 'T' -->
<!-- Begin 'G' -->
<ellipse cx="235.000000" cy="108.112108" rx="25.000000" ry="0.393163" fill="rgb(255, 165, 0)" style="fill-opacity:1.00" />
<ellipse cx="235.000000" cy="108.112108" rx="16.666667" ry="0.262108" fill="rgb(255, 255, 255)" style="fill-opacity:1.00" />
<rect height="0.393163" width="25.000000" x="235.000000" y="107.915527" fill="rgb(255, 255, 255)" style="fill-opacity:1.00" />
<rect height="0.098291" width="25.000000" x="235.000000" y="108.210399" fill="rgb(255, 165, 0)" style="fill-opacity:1.00" />
<rect height="0.294872" width="6.250000" x="253.750000" y="108.210399" fill="rgb(255, 165, 0)" style="fill-opacity:1.00" />
<!-- End 'G' -->
<!-- Begin 'T' -->
<rect height="0.094885" width="50.000000" x="210.000000" y="108.505271" fill="rgb(0, 100, 0)" style="fill-opacity:1.00" />
<rect height="0.593029" width="10.000000" x="230.000000" y="108.505271" fill="rgb(0, 100, 0)" style="fill-opacity:1.00" />
<!-- End 'T' -->
<!-- Begin 'A' -->
<polygon points=" 210.000000, 109.609715, 231.000000, 109.098300, 239.000000, 109.098300, 260.000000, 109.609715, 252.500000, 109.609715, 246.250000, 109.481861, 223.750000, 109.481861, 217.500000, 109.609715" fill="rgb(178, 34, 34)" style="fill-opacity:1.00" />
<!-- End 'A' -->
<!-- Begin 'C' -->
<ellipse cx="235.000000" cy="109.804857" rx="25.000000" ry="0.195143" fill="rgb(0, 0, 128)" style="fill-opacity:1.00" />
<ellipse cx="235.000000" cy="109.804857" rx="16.666667" ry="0.130095" fill="rgb(255, 255, 255)" style="fill-opacity:1.00" />
<rect height="0.195143" width="25.000000" x="235.000000" y="109.707286" fill="rgb(255, 255, 255)" style="fill-opacity:1.00" />
<!-- End 'C' -->
<!-- Begin 'G' -->
<ellipse cx="295.000000" cy="102.063677" rx="25.000000" ry="2.612609" fill="rgb(255, 165, 0)" style="fill-opacity:1.00" />
<ellipse cx="295.000000" cy="102.063677" rx="16.666667" ry="1.741739" fill="rgb(255, 255, 255)" style="fill-opacity:1.00" />
<rect height="2.612609" width="25.000000" x="295.000000" y="100.757373" fill="rgb(255, 255, 255)" style="fill-opacity:1.00" />
<rect height="0.653152" width="25.000000" x="295.000000" y="102.716829" fill="rgb(255, 165, 0)" style="fill-opacity:1.00" />
<rect height="1.959457" width="6.250000" x="313.750000" y="102.716829" fill="rgb(255, 165, 0)" style="fill-opacity:1.00" />
<!-- End 'G' -->
<!-- Begin 'T' -->
<rect height="0.345697" width="50.000000" x="270.000000" y="104.676286" fill="rgb(0, 100, 0)" style="fill-opacity:1.00" />
<rect height="2.160609" width="10.000000" x="290.000000" y="104.676286" fill="rgb(0, 100, 0)" style="fill-opacity:1.00" />
<!-- End 'T' -->
<!-- Begin 'C' -->
<ellipse cx="295.000000" cy="107.711733" rx="25.000000" ry="0.874838" fill="rgb(0, 0, 128)" style="fill-opacity:1.00" />
<ellipse cx="295.000000" cy="107.711733" rx="16.666667" ry="0.583225" fill="rgb(255, 255, 255)" style="fill-opacity:1.00" />
<rect height="0.874838" width="25.000000" x="295.000000" y="107.274314" fill="rgb(255, 255, 255)" style="fill-opacity:1.00" />
<!-- End 'C' -->
<!-- Begin 'A' -->
<polygon points=" 270.000000, 110.000000, 291.000000, 108.586571, 299.000000, 108.586571, 320.000000, 110.000000, 312.500000, 110.000000, 306.250000, 109.646643, 283.750000, 109.646643, 277.500000, 110.000000" fill="rgb(178, 34, 34)" style="fill-opacity:1.00" />
<!-- End 'A' -->
<!-- Begin 'C' -->
<ellipse cx="355.000000" cy="96.021178" rx="25.000000" ry="4.661127" fill="rgb(0, 0, 128)" style="fill-opacity:1.00" />
<ellipse cx="355.000000" cy="96.021178" rx="16.666667" ry="3.107418" fill="rgb(255, 255, 255)" style="fill-opacity:1.00" />
<rect height="4.661127" width="25.000000" x="355.000000" y="93.690615" fill="rgb(255, 255, 255)" style="fill-opacity:1.00" />
<!-- End 'C' -->
<!-- Begin 'A' -->
<polygon points=" 330.000000, 106.599082, 351.000000, 100.682305, 359.000000, 100.682305, 380.000000, 106.599082, 372.500000, 106.599082, 366.250000, 105.119888, 343.750000, 105.119888, 337.500000, 106.599082" fill="rgb(178, 34, 34)" style="fill-opacity:1.00" />
<!-- End 'A' -->
<!-- Begin 'T' -->
<rect height="0.396365" width="50.000000" x="330.000000" y="106.599082" fill="rgb(0, 100, 0)" style="fill-opacity:1.00" />
<rect height="2.477283" width="10.000000" x="350.000000" y="106.599082" fill="rgb(0, 100, 0)" style="fill-opacity:1.00" />
<!-- End 'T' -->
<!-- Begin 'G' -->
<ellipse cx="355.000000" cy="109.538183" rx="25.000000" ry="0.461817" fill="rgb(255, 165, 0)" style="fill-opacity:1.00" />
<ellipse cx="355.000000" cy="109.538183" rx="16.666667" ry="0.307878" fill="rgb(255, 255, 255)" style="fill-opacity:1.00" />
<rect height="0.461817" width="25.000000" x="355.000000" y="109.307274" fill="rgb(255, 255, 255)" style="fill-opacity:1.00" />
<rect height="0.115454" width="25.000000" x="355.000000" y="109.653637" fill="rgb(255, 165, 0)" style="fill-opacity:1.00" />
<rect height="0.346363" width="6.250000" x="373.750000" y="109.653637" fill="rgb(255, 165, 0)" style="fill-opacity:1.00" />
<!-- End 'G' -->
<!-- Begin 'C' -->
<ellipse cx="415.000000" cy="90.061859" rx="25.000000" ry="10.411593" fill="rgb(0, 0, 128)" style="fill-opacity:1.00" />
<ellipse cx="415.000000" cy="90.061859" rx="16.666667" ry="6.941062" fill="rgb(255, 255, 255)" style="fill-opacity:1.00" />
<rect height="10.411593" width="25.000000" x="415.000000" y="84.856063" fill="rgb(255, 255, 255)" style="fill-opacity:1.00" />
<!-- End 'C' -->
<!-- Begin 'G' -->
<ellipse cx="415.000000" cy="102.263652" rx="25.000000" ry="1.790201" fill="rgb(255, 165, 0)" style="fill-opacity:1.00" />
<ellipse cx="415.000000" cy="102.263652" rx="16.666667" ry="1.193467" fill="rgb(255, 255, 255)" style="fill-opacity:1.00" />
<rect height="1.790201" width="25.000000" x="415.000000" y="101.368552" fill="rgb(255, 255, 255)" style="fill-opacity:1.00" />
<rect height="0.447550" width="25.000000" x="415.000000" y="102.711203" fill="rgb(255, 165, 0)" style="fill-opacity:1.00" />
<rect height="1.342650" width="6.250000" x="433.750000" y="102.711203" fill="rgb(255, 165, 0)" style="fill-opacity:1.00" />
<!-- End 'G' -->
<!-- Begin 'T' -->
<rect height="0.498068" width="50.000000" x="390.000000" y="104.053853" fill="rgb(0, 100, 0)" style="fill-opacity:1.00" />
<rect height="3.112925" width="10.000000" x="410.000000" y="104.053853" fill="rgb(0, 100, 0)" style="fill-opacity:1.00" />
<!-- End 'T' -->
<!-- Begin 'A' -->
<polygon points=" 390.000000, 110.000000, 411.000000, 107.166778, 419.000000, 107.166778, 440.000000, 110.000000, 432.500000, 110.000000, 426.250000, 109.291695, 403.750000, 109.291695, 397.500000, 110.000000" fill="rgb(178, 34, 34)" style="fill-opacity:1.00" />
<!-- End 'A' -->
<!-- Begin 'A' -->
<polygon points=" 450.000000, 99.144176, 471.000000, 66.745227, 479.000000, 66.745227, 500.000000, 99.144176, 492.500000, 99.144176, 486.250000, 91.044439, 463.750000, 91.044439, 457.500000, 99.144176" fill="rgb(178, 34, 34)" style="fill-opacity:1.00" />
<polygon points=" 475.000000, 73.225017, 467.000000, 85.184597, 482.000000, 85.184597" fill="rgb(255, 255, 255)" style="fill-opacity:1.00" />
<!-- End 'A' -->
<!-- Begin 'G' -->
<ellipse cx="475.000000" cy="102.571573" rx="25.000000" ry="3.427397" fill="rgb(255, 165, 0)" style="fill-opacity:1.00" />
<ellipse cx="475.000000" cy="102.571573" rx="16.666667" ry="2.284932" fill="rgb(255, 255, 255)" style="fill-opacity:1.00" />
<rect height="3.427397" width="25.000000" x="475.000000" y="100.857875" fill="rgb(255, 255, 255)" style="fill-opacity:1.00" />
<rect height="0.856849" width="25.000000" x="475.000000" y="103.428423" fill="rgb(255, 165, 0)" style="fill-opacity:1.00" />
<rect height="2.570548" width="6.250000" x="493.750000" y="103.428423" fill="rgb(255, 165, 0)" style="fill-opacity:1.00" />
<!-- End 'G' -->
<!-- Begin 'T' -->
<rect height="0.434566" width="50.000000" x="450.000000" y="105.998971" fill="rgb(0, 100, 0)" style="fill-opacity:1.00" />
<rect height="2.716039" width="10.000000" x="470.000000" y="105.998971" fill="rgb(0, 100, 0)" style="fill-opacity:1.00" />
<!-- End 'T' -->
<!-- Begin 'C' -->
<ellipse cx="475.000000" cy="109.357505" rx="25.000000" ry="0.642495" fill="rgb(0, 0, 128)" style="fill-opacity:1.00" />
<ellipse cx="475.000000" cy="109.357505" rx="16.666667" ry="0.428330" fill="rgb(255, 255, 255)" style="fill-opacity:1.00" />
<rect height="0.642495" width="25.000000" x="475.000000" y="109.036257" fill="rgb(255, 255, 255)" style="fill-opacity:1.00" />
<!-- End 'C' -->
<!-- Begin 'C' -->
<ellipse cx="535.000000" cy="80.956410" rx="25.000000" ry="18.996175" fill="rgb(0, 0, 128)" style="fill-opacity:1.00" />
<ellipse cx="535.000000" cy="80.956410" rx="16.666667" ry="12.664117" fill="rgb(255, 255, 255)" style="fill-opacity:1.00" />
<rect height="18.996175" width="25.000000" x="535.000000" y="71.458322" fill="rgb(255, 255, 255)" style="fill-opacity:1.00" />
<!-- End 'C' -->
<!-- Begin 'T' -->
<rect height="0.897233" width="50.000000" x="510.000000" y="99.952585" fill="rgb(0, 100, 0)" style="fill-opacity:1.00" />
<rect height="5.607705" width="10.000000" x="530.000000" y="99.952585" fill="rgb(0, 100, 0)" style="fill-opacity:1.00" />
<!-- End 'T' -->
<!-- Begin 'A' -->
<polygon points=" 510.000000, 107.891542, 531.000000, 105.560290, 539.000000, 105.560290, 560.000000, 107.891542, 552.500000, 107.891542, 546.250000, 107.308729, 523.750000, 107.308729, 517.500000, 107.891542" fill="rgb(178, 34, 34)" style="fill-opacity:1.00" />
<!-- End 'A' -->
<!-- Begin 'G' -->
<ellipse cx="535.000000" cy="108.945771" rx="25.000000" ry="1.054229" fill="rgb(255, 165, 0)" style="fill-opacity:1.00" />
<ellipse cx="535.000000" cy="108.945771" rx="16.666667" ry="0.702819" fill="rgb(255, 255, 255)" style="fill-opacity:1.00" />
<rect height="1.054229" width="25.000000" x="535.000000" y="108.418656" fill="rgb(255, 255, 255)" style="fill-opacity:1.00" />
<rect height="0.263557" width="25.000000" x="535.000000" y="109.209328" fill="rgb(255, 165, 0)" style="fill-opacity:1.00" />
<rect height="0.790672" width="6.250000" x="553.750000" y="109.209328" fill="rgb(255, 165, 0)" style="fill-opacity:1.00" />
<!-- End 'G' -->
<!-- Begin 'G' -->
<ellipse cx="595.000000" cy="84.852117" rx="25.000000" ry="13.491968" fill="rgb(255, 165, 0)" style="fill-opacity:1.00" />
<ellipse cx="595.000000" cy="84.852117" rx="16.666667" ry="8.994645" fill="rgb(255, 255, 255)" style="fill-opacity:1.00" />
<rect height="13.491968" width="25.000000" x="595.000000" y="78.106133" fill="rgb(255, 255, 255)" style="fill-opacity:1.00" />
<rect height="3.372992" width="25.000000" x="595.000000" y="88.225109" fill="rgb(255, 165, 0)" style="fill-opacity:1.00" />
<rect height="10.118976" width="6.250000" x="613.750000" y="88.225109" fill="rgb(255, 165, 0)" style="fill-opacity:1.00" />
<!-- End 'G' -->
<!-- Begin 'A' -->
<polygon points=" 570.000000, 106.616087, 591.000000, 98.344085, 599.000000, 98.344085, 620.000000, 106.616087, 612.500000, 106.616087, 606.250000, 104.548087, 583.750000, 104.548087, 577.500000, 106.616087" fill="rgb(178, 34, 34)" style="fill-opacity:1.00" />
<polygon points=" 595.000000, 99.998486, 587.000000, 102.307286, 602.000000, 102.307286" fill="rgb(255, 255, 255)" style="fill-opacity:1.00" />
<!-- End 'A' -->
<!-- Begin 'T' -->
<rect height="0.352489" width="50.000000" x="570.000000" y="106.616087" fill="rgb(0, 100, 0)" style="fill-opacity:1.00" />
<rect height="2.203054" width="10.000000" x="590.000000" y="106.616087" fill="rgb(0, 100, 0)" style="fill-opacity:1.00" />
<!-- End 'T' -->
<!-- Begin 'C' -->
<ellipse cx="595.000000" cy="109.409571" rx="25.000000" ry="0.590429" fill="rgb(0, 0, 128)" style="fill-opacity:1.00" />
<ellipse cx="595.000000" cy="109.409571" rx="16.666667" ry="0.393620" fill="rgb(255, 255, 255)" style="fill-opacity:1.00" />
<rect height="0.590429" width="25.000000" x="595.000000" y="109.114356" fill="rgb(255, 255, 255)" style="fill-opacity:1.00" />
<!-- End 'C' -->
<!-- Begin 'T' -->
<rect height="7.145043" width="50.000000" x="630.000000" y="55.233428" fill="rgb(0, 100, 0)" style="fill-opacity:1.00" />
<rect height="44.656517" width="10.000000" x="650.000000" y="55.233428" fill="rgb(0, 100, 0)" style="fill-opacity:1.00" />
<!-- End 'T' -->
<!-- Begin 'G' -->
<ellipse cx="655.000000" cy="102.360443" rx="25.000000" ry="2.470497" fill="rgb(255, 165, 0)" style="fill-opacity:1.00" />
<ellipse cx="655.000000" cy="102.360443" rx="16.666667" ry="1.646998" fill="rgb(255, 255, 255)" style="fill-opacity:1.00" />
<rect height="2.470497" width="25.000000" x="655.000000" y="101.125194" fill="rgb(255, 255, 255)" style="fill-opacity:1.00" />
<rect height="0.617624" width="25.000000" x="655.000000" y="102.978067" fill="rgb(255, 165, 0)" style="fill-opacity:1.00" />
<rect height="1.852873" width="6.250000" x="673.750000" y="102.978067" fill="rgb(255, 165, 0)" style="fill-opacity:1.00" />
<!-- End 'G' -->
<!-- Begin 'C' -->
<ellipse cx="655.000000" cy="107.265980" rx="25.000000" ry="2.435040" fill="rgb(0, 0, 128)" style="fill-opacity:1.00" />
<ellipse cx="655.000000" cy="107.265980" rx="16.666667" ry="1.623360" fill="rgb(255, 255, 255)" style="fill-opacity:1.00" />
<rect height="2.435040" width="25.000000" x="655.000000" y="106.048460" fill="rgb(255, 255, 255)" style="fill-opacity:1.00" />
<!-- End 'C' -->
<!-- Begin 'A' -->
<polygon points=" 630.000000, 110.000000, 651.000000, 109.701019, 659.000000, 109.701019, 680.000000, 110.000000, 672.500000, 110.000000, 666.250000, 109.925255, 643.750000, 109.925255, 637.500000, 110.000000" fill="rgb(178, 34, 34)" style="fill-opacity:1.00" />
<!-- End 'A' -->
<!-- Begin 'C' -->
<ellipse cx="715.000000" cy="94.385901" rx="25.000000" ry="6.282983" fill="rgb(0, 0, 128)" style="fill-opacity:1.00" />
<ellipse cx="715.000000" cy="94.385901" rx="16.666667" ry="4.188655" fill="rgb(255, 255, 255)" style="fill-opacity:1.00" />
<rect height="6.282983" width="25.000000" x="715.000000" y="91.244409" fill="rgb(255, 255, 255)" style="fill-opacity:1.00" />
<!-- End 'C' -->
<!-- Begin 'G' -->
<ellipse cx="715.000000" cy="103.333822" rx="25.000000" ry="2.664938" fill="rgb(255, 165, 0)" style="fill-opacity:1.00" />
<ellipse cx="715.000000" cy="103.333822" rx="16.666667" ry="1.776625" fill="rgb(255, 255, 255)" style="fill-opacity:1.00" />
<rect height="2.664938" width="25.000000" x="715.000000" y="102.001353" fill="rgb(255, 255, 255)" style="fill-opacity:1.00" />
<rect height="0.666235" width="25.000000" x="715.000000" y="104.000057" fill="rgb(255, 165, 0)" style="fill-opacity:1.00" />
<rect height="1.998704" width="6.250000" x="733.750000" y="104.000057" fill="rgb(255, 165, 0)" style="fill-opacity:1.00" />
<!-- End 'G' -->
<!-- Begin 'A' -->
<polygon points=" 690.000000, 108.852476, 711.000000, 105.998760, 719.000000, 105.998760, 740.000000, 108.852476, 732.500000, 108.852476, 726.250000, 108.139047, 703.750000, 108.139047, 697.500000, 108.852476" fill="rgb(178, 34, 34)" style="fill-opacity:1.00" />
<!-- End 'A' -->
<!-- Begin 'T' -->
<rect height="0.183604" width="50.000000" x="690.000000" y="108.852476" fill="rgb(0, 100, 0)" style="fill-opacity:1.00" />
<rect height="1.147524" width="10.000000" x="710.000000" y="108.852476" fill="rgb(0, 100, 0)" style="fill-opacity:1.00" />
<!-- End 'T' -->
<!-- Begin 'A' -->
<polygon points=" 750.000000, 106.163198, 771.000000, 102.990927, 779.000000, 102.990927, 800.000000, 106.163198, 792.500000, 106.163198, 786.250000, 105.370130, 763.750000, 105.370130, 757.500000, 106.163198" fill="rgb(178, 34, 34)" style="fill-opacity:1.00" />
<!-- End 'A' -->
<!-- Begin 'C' -->
<ellipse cx="775.000000" cy="106.832356" rx="25.000000" ry="0.669158" fill="rgb(0, 0, 128)" style="fill-opacity:1.00" />
<ellipse cx="775.000000" cy="106.832356" rx="16.666667" ry="0.446105" fill="rgb(255, 255, 255)" style="fill-opacity:1.00" />
<rect height="0.669158" width="25.000000" x="775.000000" y="106.497777" fill="rgb(255, 255, 255)" style="fill-opacity:1.00" />
<!-- End 'C' -->
<!-- Begin 'G' -->
<ellipse cx="775.000000" cy="108.162699" rx="25.000000" ry="0.661185" fill="rgb(255, 165, 0)" style="fill-opacity:1.00" />
<ellipse cx="775.000000" cy="108.162699" rx="16.666667" ry="0.440790" fill="rgb(255, 255, 255)" style="fill-opacity:1.00" />
<rect height="0.661185" width="25.000000" x="775.000000" y="107.832106" fill="rgb(255, 255, 255)" style="fill-opacity:1.00" />
<rect height="0.165296" width="25.000000" x="775.000000" y="108.327995" fill="rgb(255, 165, 0)" style="fill-opacity:1.00" />
<rect height="0.495889" width="6.250000" x="793.750000" y="108.327995" fill="rgb(255, 165, 0)" style="fill-opacity:1.00" />
<!-- End 'G' -->
<!-- Begin 'T' -->
<rect height="0.188179" width="50.000000" x="750.000000" y="108.823884" fill="rgb(0, 100, 0)" style="fill-opacity:1.00" />
<rect height="1.176116" width="10.000000" x="770.000000" y="108.823884" fill="rgb(0, 100, 0)" style="fill-opacity:1.00" />
<!-- End 'T' -->
<!-- Begin 'C' -->
<ellipse cx="835.000000" cy="103.625998" rx="25.000000" ry="1.324483" fill="rgb(0, 0, 128)" style="fill-opacity:1.00" />
<ellipse cx="835.000000" cy="103.625998" rx="16.666667" ry="0.882988" fill="rgb(255, 255, 255)" style="fill-opacity:1.00" />
<rect height="1.324483" width="25.000000" x="835.000000" y="102.963757" fill="rgb(255, 255, 255)" style="fill-opacity:1.00" />
<!-- End 'C' -->
<!-- Begin 'G' -->
<ellipse cx="835.000000" cy="106.093635" rx="25.000000" ry="1.143155" fill="rgb(255, 165, 0)" style="fill-opacity:1.00" />
<ellipse cx="835.000000" cy="106.093635" rx="16.666667" ry="0.762103" fill="rgb(255, 255, 255)" style="fill-opacity:1.00" />
<rect height="1.143155" width="25.000000" x="835.000000" y="105.522058" fill="rgb(255, 255, 255)" style="fill-opacity:1.00" />
<rect height="0.285789" width="25.000000" x="835.000000" y="106.379424" fill="rgb(255, 165, 0)" style="fill-opacity:1.00" />
<rect height="0.857366" width="6.250000" x="853.750000" y="106.379424" fill="rgb(255, 165, 0)" style="fill-opacity:1.00" />
<!-- End 'G' -->
<!-- Begin 'T' -->
<rect height="0.349573" width="50.000000" x="810.000000" y="107.236790" fill="rgb(0, 100, 0)" style="fill-opacity:1.00" />
<rect height="2.184833" width="10.000000" x="830.000000" y="107.236790" fill="rgb(0, 100, 0)" style="fill-opacity:1.00" />
<!-- End 'T' -->
<!-- Begin 'A' -->
<polygon points=" 810.000000, 110.000000, 831.000000, 109.421623, 839.000000, 109.421623, 860.000000, 110.000000, 852.500000, 110.000000, 846.250000, 109.855406, 823.750000, 109.855406, 817.500000, 110.000000" fill="rgb(178, 34, 34)" style="fill-opacity:1.00" />
<!-- End 'A' -->
<!-- Begin 'C' -->
<ellipse cx="895.000000" cy="103.610266" rx="25.000000" ry="1.927576" fill="rgb(0, 0, 128)" style="fill-opacity:1.00" />
<ellipse cx="895.000000" cy="103.610266" rx="16.666667" ry="1.285051" fill="rgb(255, 255, 255)" style="fill-opacity:1.00" />
<rect height="1.927576" width="25.000000" x="895.000000" y="102.646478" fill="rgb(255, 255, 255)" style="fill-opacity:1.00" />
<!-- End 'C' -->
<!-- Begin 'T' -->
<rect height="0.288470" width="50.000000" x="870.000000" y="105.537842" fill="rgb(0, 100, 0)" style="fill-opacity:1.00" />
<rect height="1.802934" width="10.000000" x="890.000000" y="105.537842" fill="rgb(0, 100, 0)" style="fill-opacity:1.00" />
<!-- End 'T' -->
<!-- Begin 'G' -->
<ellipse cx="895.000000" cy="108.096977" rx="25.000000" ry="0.756201" fill="rgb(255, 165, 0)" style="fill-opacity:1.00" />
<ellipse cx="895.000000" cy="108.096977" rx="16.666667" ry="0.504134" fill="rgb(255, 255, 255)" style="fill-opacity:1.00" />
<rect height="0.756201" width="25.000000" x="895.000000" y="107.718877" fill="rgb(255, 255, 255)" style="fill-opacity:1.00" />
<rect height="0.189050" width="25.000000" x="895.000000" y="108.286027" fill="rgb(255, 165, 0)" style="fill-opacity:1.00" />
<rect height="0.567150" width="6.250000" x="913.750000" y="108.286027" fill="rgb(255, 165, 0)" style="fill-opacity:1.00" />
<!-- End 'G' -->
<!-- Begin 'A' -->
<polygon points=" 870.000000, 110.000000, 891.000000, 108.853178, 899.000000, 108.853178, 920.000000, 110.000000, 912.500000, 110.000000, 906.250000, 109.713294, 883.750000, 109.713294, 877.500000, 110.000000" fill="rgb(178, 34, 34)" style="fill-opacity:1.00" />
<!-- End 'A' -->
<text x="490.000000" y="165">
IC = 5.90
</text>

</svg>
