<?xml version="1.0" encoding="UTF-8" standalone="yes"?>
                 <!DOCTYPE svg PUBLIC "-//W3C//DTD SVG 1.0//EN" "http://www.w3.org/TR/2001/REC-SVG-20010904/DTD/svg10.dtd">
                 <svg height="170" width="1020" xmlns="http://www.w3.org/2000/svg" xmlns:xlink="http://www.w3.org/1999/xlink">
                 <line x1="85" y1="120" x2="987" y2="120" style="stroke:rgb(99,99,99);stroke-width:2" />
<rect height="7.000000" width="2.000000" x="85.000000" y="120.000000" fill="rgb(0, 0, 0)" style="fill-opacity:1.00" />
<text x="107.000000" y="140">
1
</text>
<rect height="7.000000" width="2.000000" x="145.000000" y="120.000000" fill="rgb(0, 0, 0)" style="fill-opacity:1.00" />
<text x="167.000000" y="140">
2
</text>
<rect height="7.000000" width="2.000000" x="205.000000" y="120.000000" fill="rgb(0, 0, 0)" style="fill-opacity:1.00" />
<text x="227.000000" y="140">
3
</text>
<rect height="7.000000" width="2.000000" x="265.000000" y="120.000000" fill="rgb(0, 0, 0)" style="fill-opacity:1.00" />
<text x="287.000000" y="140">
4
</text>
<rect height="7.000000" width="2.000000" x="325.000000" y="120.000000" fill="rgb(0, 0, 0)" style="fill-opacity:1.00" />
<text x="347.000000" y="140">
5
</text>
<rect height="7.000000" width="2.000000" x="385.000000" y="120.000000" fill="rgb(0, 0, 0)" style="fill-opacity:1.00" />
<text x="407.000000" y="140">
6
</text>
<rect height="7.000000" width="2.000000" x="445.000000" y="120.000000" fill="rgb(0, 0, 0)" style="fill-opacity:1.00" />
<text x="467.000000" y="140">
7
</text>
<rect height="7.000000" width="2.000000" x="505.000000" y="120.000000" fill="rgb(0, 0, 0)" style="fill-opacity:1.00" />
<text x="527.000000" y="140">
8
</text>
<rect height="7.000000" width="2.000000" x="565.000000" y="120.000000" fill="rgb(0, 0, 0)" style="fill-opacity:1.00" />
<text x="587.000000" y="140">
9
</text>
<rect height="7.000000" width="2.000000" x="625.000000" y="120.000000" fill="rgb(0, 0, 0)" style="fill-opacity:1.00" />
<text x="647.000000" y="140">
10
</text>
<rect height="7.000000" width="2.000000" x="685.000000" y="120.000000" fill="rgb(0, 0, 0)" style="fill-opacity:1.00" />
<text x="707.000000" y="140">
11
</text>
<rect height="7.000000" width="2.000000" x="745.000000" y="120.000000" fill="rgb(0, 0, 0)" style="fill-opacity:1.00" />
<text x="767.000000" y="140">
12
</text>
<rect height="7.000000" width="2.000000" x="805.000000" y="120.000000" fill="rgb(0, 0, 0)" style="fill-opacity:1.00" />
<text x="827.000000" y="140">
13
</text>
<rect height="7.000000" width="2.000000" x="865.000000" y="120.000000" fill="rgb(0, 0, 0)" style="fill-opacity:1.00" />
<text x="887.000000" y="140">
14
</text>
<rect height="7.000000" width="2.000000" x="925.000000" y="120.000000" fill="rgb(0, 0, 0)" style="fill-opacity:1.00" />
<text x="947.000000" y="140">
15
</text>
<rect height="7.000000" width="2.000000" x="985.000000" y="120.000000" fill="rgb(0, 0, 0)" style="fill-opacity:1.00" />
<line x1="80" y1="112" x2="80" y2="10" style="stroke:rgb(99,99,99);stroke-width:2" />
<rect height="2.000000" width="7.000000" x="73.000000" y="110.000000" fill="rgb(0, 0, 0)" style="fill-opacity:1.00" />
<text x="63" y="115">
0
</text>
<rect height="2.000000" width="7.000000" x="73.000000" y="60.000000" fill="rgb(0, 0, 0)" style="fill-opacity:1.00" />
<text x="63" y="65">
1
</text>
<rect height="2.000000" width="7.000000" x="73.000000" y="10.000000" fill="rgb(0, 0, 0)" style="fill-opacity:1.00" />
<text x="63" y="15">
2
</text>
<text x="50" y="65"
transform="rotate(-90, 50, 70)">
bits
</text>
<!-- Begin 'C' -->
<ellipse cx="115.000000" cy="107.737119" rx="25.000000" ry="0.449930" fill="rgb(0, 0, 128)" style="fill-opacity:1.00" />
<ellipse cx="115.000000" cy="107.737119" rx="16.666667" ry="0.299954" fill="rgb(255, 255, 255)" style="fill-opacity:1.00" />
<rect height="0.449930" width="25.000000" x="115.000000" y="107.512154" fill="rgb(255, 255, 255)" style="fill-opacity:1.00" />
<!-- End 'C' -->
<!-- Begin 'A' -->
<polygon points=" 90.000000, 108.928343, 111.000000, 108.187050, 119.000000, 108.187050, 140.000000, 108.928343, 132.500000, 108.928343, 126.250000, 108.743019, 103.750000, 108.743019, 97.500000, 108.928343" fill="rgb(178, 34, 34)" style="fill-opacity:1.00" />
<!-- End 'A' -->
<!-- Begin 'G' -->
<ellipse cx="115.000000" cy="109.263508" rx="25.000000" ry="0.335165" fill="rgb(255, 165, 0)" style="fill-opacity:1.00" />
<ellipse cx="115.000000" cy="109.263508" rx="16.666667" ry="0.223444" fill="rgb(255, 255, 255)" style="fill-opacity:1.00" />
<rect height="0.335165" width="25.000000" x="115.000000" y="109.095925" fill="rgb(255, 255, 255)" style="fill-opacity:1.00" />
<rect height="0.083791" width="25.000000" x="115.000000" y="109.347299" fill="rgb(255, 165, 0)" style="fill-opacity:1.00" />
<rect height="0.251374" width="6.250000" x="133.750000" y="109.347299" fill="rgb(255, 165, 0)" style="fill-opacity:1.00" />
<!-- End 'G' -->
<!-- Begin 'T' -->
<rect height="0.064212" width="50.000000" x="90.000000" y="109.598673" fill="rgb(0, 100, 0)" style="fill-opacity:1.00" />
<rect height="0.401327" width="10.000000" x="110.000000" y="109.598673" fill="rgb(0, 100, 0)" style="fill-opacity:1.00" />
<!-- End 'T' -->
<!-- Begin 'G' -->
<ellipse cx="175.000000" cy="99.831494" rx="25.000000" ry="3.409916" fill="rgb(255, 165, 0)" style="fill-opacity:1.00" />
<ellipse cx="175.000000" cy="99.831494" rx="16.666667" ry="2.273277" fill="rgb(255, 255, 255)" style="fill-opacity:1.00" />
<rect height="3.409916" width="25.000000" x="175.000000" y="98.126537" fill="rgb(255, 255, 255)" style="fill-opacity:1.00" />
<rect height="0.852479" width="25.000000" x="175.000000" y="100.683973" fill="rgb(255, 165, 0)" style="fill-opacity:1.00" />
<rect height="2.557437" width="6.250000" x="193.750000" y="100.683973" fill="rgb(255, 165, 0)" style="fill-opacity:1.00" />
<!-- End 'G' -->
<!-- Begin 'C' -->
<ellipse cx="175.000000" cy="104.836937" rx="25.000000" ry="1.595527" fill="rgb(0, 0, 128)" style="fill-opacity:1.00" />
<ellipse cx="175.000000" cy="104.836937" rx="16.666667" ry="1.063685" fill="rgb(255, 255, 255)" style="fill-opacity:1.00" />
<rect height="1.595527" width="25.000000" x="175.000000" y="104.039173" fill="rgb(255, 255, 255)" style="fill-opacity:1.00" />
<!-- End 'C' -->
<!-- Begin 'A' -->
<polygon points=" 150.000000, 108.926739, 171.000000, 106.432464, 179.000000, 106.432464, 200.000000, 108.926739, 192.500000, 108.926739, 186.250000, 108.303170, 163.750000, 108.303170, 157.500000, 108.926739" fill="rgb(178, 34, 34)" style="fill-opacity:1.00" />
<!-- End 'A' -->
<!-- Begin 'T' -->
<rect height="0.171722" width="50.000000" x="150.000000" y="108.926739" fill="rgb(0, 100, 0)" style="fill-opacity:1.00" />
<rect height="1.073261" width="10.000000" x="170.000000" y="108.926739" fill="rgb(0, 100, 0)" style="fill-opacity:1.00" />
<!-- End 'T' -->
<!-- Begin 'G' -->
<ellipse cx="235.000000" cy="82.660383" rx="25.000000" ry="9.626238" fill="rgb(255, 165, 0)" style="fill-opacity:1.00" />
<ellipse cx="235.000000" cy="82.660383" rx="16.666667" ry="6.417492" fill="rgb(255, 255, 255)" style="fill-opacity:1.00" />
<rect height="9.626238" width="25.000000" x="235.000000" y="77.847264" fill="rgb(255, 255, 255)" style="fill-opacity:1.00" />
<rect height="2.406559" width="25.000000" x="235.000000" y="85.066942" fill="rgb(255, 165, 0)" style="fill-opacity:1.00" />
<rect height="7.219678" width="6.250000" x="253.750000" y="85.066942" fill="rgb(255, 165, 0)" style="fill-opacity:1.00" />
<!-- End 'G' -->
<!-- Begin 'A' -->
<polygon points=" 210.000000, 108.321538, 231.000000, 92.286621, 239.000000, 92.286621, 260.000000, 108.321538, 252.500000, 108.321538, 246.250000, 104.312809, 223.750000, 104.312809, 217.500000, 108.321538" fill="rgb(178, 34, 34)" style="fill-opacity:1.00" />
<polygon points=" 235.000000, 95.493604, 227.000000, 100.907571, 242.000000, 100.907571" fill="rgb(255, 255, 255)" style="fill-opacity:1.00" />
<!-- End 'A' -->
<!-- Begin 'C' -->
<ellipse cx="235.000000" cy="108.768055" rx="25.000000" ry="0.446517" fill="rgb(0, 0, 128)" style="fill-opacity:1.00" />
<ellipse cx="235.000000" cy="108.768055" rx="16.666667" ry="0.297678" fill="rgb(255, 255, 255)" style="fill-opacity:1.00" />
<rect height="0.446517" width="25.000000" x="235.000000" y="108.544796" fill="rgb(255, 255, 255)" style="fill-opacity:1.00" />
<!-- End 'C' -->
<!-- Begin 'T' -->
<rect height="0.125668" width="50.000000" x="210.000000" y="109.214572" fill="rgb(0, 100, 0)" style="fill-opacity:1.00" />
<rect height="0.785428" width="10.000000" x="230.000000" y="109.214572" fill="rgb(0, 100, 0)" style="fill-opacity:1.00" />
<!-- End 'T' -->
<!-- Begin 'G' -->
<ellipse cx="295.000000" cy="77.301065" rx="25.000000" ry="23.885710" fill="rgb(255, 165, 0)" style="fill-opacity:1.00" />
<ellipse cx="295.000000" cy="77.301065" rx="16.666667" ry="15.923807" fill="rgb(255, 255, 255)" style="fill-opacity:1.00" />
<rect height="23.885710" width="25.000000" x="295.000000" y="65.358210" fill="rgb(255, 255, 255)" style="fill-opacity:1.00" />
<rect height="5.971428" width="25.000000" x="295.000000" y="83.272493" fill="rgb(255, 165, 0)" style="fill-opacity:1.00" />
<rect height="17.914283" width="6.250000" x="313.750000" y="83.272493" fill="rgb(255, 165, 0)" style="fill-opacity:1.00" />
<!-- End 'G' -->
<!-- Begin 'A' -->
<polygon points=" 270.000000, 104.658961, 291.000000, 101.186775, 299.000000, 101.186775, 320.000000, 104.658961, 312.500000, 104.658961, 306.250000, 103.790914, 283.750000, 103.790914, 277.500000, 104.658961" fill="rgb(178, 34, 34)" style="fill-opacity:1.00" />
<!-- End 'A' -->
<!-- Begin 'C' -->
<ellipse cx="295.000000" cy="106.138570" rx="25.000000" ry="1.479609" fill="rgb(0, 0, 128)" style="fill-opacity:1.00" />
<ellipse cx="295.000000" cy="106.138570" rx="16.666667" ry="0.986406" fill="rgb(255, 255, 255)" style="fill-opacity:1.00" />
<rect height="1.479609" width="25.000000" x="295.000000" y="105.398765" fill="rgb(255, 255, 255)" style="fill-opacity:1.00" />
<!-- End 'C' -->
<!-- Begin 'T' -->
<rect height="0.381091" width="50.000000" x="270.000000" y="107.618178" fill="rgb(0, 100, 0)" style="fill-opacity:1.00" />
<rect height="2.381822" width="10.000000" x="290.000000" y="107.618178" fill="rgb(0, 100, 0)" style="fill-opacity:1.00" />
<!-- End 'T' -->
<!-- Begin 'G' -->
<ellipse cx="355.000000" cy="77.118068" rx="25.000000" ry="23.622789" fill="rgb(255, 165, 0)" style="fill-opacity:1.00" />
<ellipse cx="355.000000" cy="77.118068" rx="16.666667" ry="15.748526" fill="rgb(255, 255, 255)" style="fill-opacity:1.00" />
<rect height="23.622789" width="25.000000" x="355.000000" y="65.306673" fill="rgb(255, 255, 255)" style="fill-opacity:1.00" />
<rect height="5.905697" width="25.000000" x="355.000000" y="83.023765" fill="rgb(255, 165, 0)" style="fill-opacity:1.00" />
<rect height="17.717092" width="6.250000" x="373.750000" y="83.023765" fill="rgb(255, 165, 0)" style="fill-opacity:1.00" />
<!-- End 'G' -->
<!-- Begin 'T' -->
<rect height="0.806848" width="50.000000" x="330.000000" y="100.740857" fill="rgb(0, 100, 0)" style="fill-opacity:1.00" />
<rect height="5.042801" width="10.000000" x="350.000000" y="100.740857" fill="rgb(0, 100, 0)" style="fill-opacity:1.00" />
<!-- End 'T' -->
<!-- Begin 'A' -->
<polygon points=" 330.000000, 108.832814, 351.000000, 105.783658, 359.000000, 105.783658, 380.000000, 108.832814, 372.500000, 108.832814, 366.250000, 108.070525, 343.750000, 108.070525, 337.500000, 108.832814" fill="rgb(178, 34, 34)" style="fill-opacity:1.00" />
<!-- End 'A' -->
<!-- Begin 'C' -->
<ellipse cx="355.000000" cy="109.416407" rx="25.000000" ry="0.583593" fill="rgb(0, 0, 128)" style="fill-opacity:1.00" />
<ellipse cx="355.000000" cy="109.416407" rx="16.666667" ry="0.389062" fill="rgb(255, 255, 255)" style="fill-opacity:1.00" />
<rect height="0.583593" width="25.000000" x="355.000000" y="109.124610" fill="rgb(255, 255, 255)" style="fill-opacity:1.00" />
<!-- End 'C' -->
<!-- Begin 'T' -->
<rect height="3.385542" width="50.000000" x="390.000000" y="76.591348" fill="rgb(0, 100, 0)" style="fill-opacity:1.00" />
<rect height="21.159640" width="10.000000" x="410.000000" y="76.591348" fill="rgb(0, 100, 0)" style="fill-opacity:1.00" />
<!-- End 'T' -->
<!-- Begin 'G' -->
<ellipse cx="415.000000" cy="102.378442" rx="25.000000" ry="4.627454" fill="rgb(255, 165, 0)" style="fill-opacity:1.00" />
<ellipse cx="415.000000" cy="102.378442" rx="16.666667" ry="3.084969" fill="rgb(255, 255, 255)" style="fill-opacity:1.00" />
<rect height="4.627454" width="25.000000" x="415.000000" y="100.064715" fill="rgb(255, 255, 255)" style="fill-opacity:1.00" />
<rect height="1.156863" width="25.000000" x="415.000000" y="103.535306" fill="rgb(255, 165, 0)" style="fill-opacity:1.00" />
<rect height="3.470590" width="6.250000" x="433.750000" y="103.535306" fill="rgb(255, 165, 0)" style="fill-opacity:1.00" />
<!-- End 'G' -->
<!-- Begin 'C' -->
<ellipse cx="415.000000" cy="107.768830" rx="25.000000" ry="0.762934" fill="rgb(0, 0, 128)" style="fill-opacity:1.00" />
<ellipse cx="415.000000" cy="107.768830" rx="16.666667" ry="0.508623" fill="rgb(255, 255, 255)" style="fill-opacity:1.00" />
<rect height="0.762934" width="25.000000" x="415.000000" y="107.387363" fill="rgb(255, 255, 255)" style="fill-opacity:1.00" />
<!-- End 'C' -->
<!-- Begin 'A' -->
<polygon points=" 390.000000, 110.000000, 411.000000, 108.531764, 419.000000, 108.531764, 440.000000, 110.000000, 432.500000, 110.000000, 426.250000, 109.632941, 403.750000, 109.632941, 397.500000, 110.000000" fill="rgb(178, 34, 34)" style="fill-opacity:1.00" />
<!-- End 'A' -->
<!-- Begin 'C' -->
<ellipse cx="475.000000" cy="85.722949" rx="25.000000" ry="14.132580" fill="rgb(0, 0, 128)" style="fill-opacity:1.00" />
<ellipse cx="475.000000" cy="85.722949" rx="16.666667" ry="9.421720" fill="rgb(255, 255, 255)" style="fill-opacity:1.00" />
<rect height="14.132580" width="25.000000" x="475.000000" y="78.656659" fill="rgb(255, 255, 255)" style="fill-opacity:1.00" />
<!-- End 'C' -->
<!-- Begin 'G' -->
<ellipse cx="475.000000" cy="102.226558" rx="25.000000" ry="2.371028" fill="rgb(255, 165, 0)" style="fill-opacity:1.00" />
<ellipse cx="475.000000" cy="102.226558" rx="16.666667" ry="1.580686" fill="rgb(255, 255, 255)" style="fill-opacity:1.00" />
<rect height="2.371028" width="25.000000" x="475.000000" y="101.041044" fill="rgb(255, 255, 255)" style="fill-opacity:1.00" />
<rect height="0.592757" width="25.000000" x="475.000000" y="102.819315" fill="rgb(255, 165, 0)" style="fill-opacity:1.00" />
<rect height="1.778271" width="6.250000" x="493.750000" y="102.819315" fill="rgb(255, 165, 0)" style="fill-opacity:1.00" />
<!-- End 'G' -->
<!-- Begin 'T' -->
<rect height="0.528112" width="50.000000" x="450.000000" y="104.597586" fill="rgb(0, 100, 0)" style="fill-opacity:1.00" />
<rect height="3.300700" width="10.000000" x="470.000000" y="104.597586" fill="rgb(0, 100, 0)" style="fill-opacity:1.00" />
<!-- End 'T' -->
<!-- Begin 'A' -->
<polygon points=" 450.000000, 110.000000, 471.000000, 107.898287, 479.000000, 107.898287, 500.000000, 110.000000, 492.500000, 110.000000, 486.250000, 109.474572, 463.750000, 109.474572, 457.500000, 110.000000" fill="rgb(178, 34, 34)" style="fill-opacity:1.00" />
<!-- End 'A' -->
<!-- Begin 'A' -->
<polygon points=" 510.000000, 97.758455, 531.000000, 56.197778, 539.000000, 56.197778, 560.000000, 97.758455, 552.500000, 97.758455, 546.250000, 87.368285, 523.750000, 87.368285, 517.500000, 97.758455" fill="rgb(178, 34, 34)" style="fill-opacity:1.00" />
<polygon points=" 535.000000, 64.509913, 527.000000, 80.134184, 542.000000, 80.134184" fill="rgb(255, 255, 255)" style="fill-opacity:1.00" />
<!-- End 'A' -->
<!-- Begin 'G' -->
<ellipse cx="535.000000" cy="103.126122" rx="25.000000" ry="5.367667" fill="rgb(255, 165, 0)" style="fill-opacity:1.00" />
<ellipse cx="535.000000" cy="103.126122" rx="16.666667" ry="3.578445" fill="rgb(255, 255, 255)" style="fill-opacity:1.00" />
<rect height="5.367667" width="25.000000" x="535.000000" y="100.442288" fill="rgb(255, 255, 255)" style="fill-opacity:1.00" />
<rect height="1.341917" width="25.000000" x="535.000000" y="104.468038" fill="rgb(255, 165, 0)" style="fill-opacity:1.00" />
<rect height="4.025750" width="6.250000" x="553.750000" y="104.468038" fill="rgb(255, 165, 0)" style="fill-opacity:1.00" />
<!-- End 'G' -->
<!-- Begin 'C' -->
<ellipse cx="535.000000" cy="108.901375" rx="25.000000" ry="0.407586" fill="rgb(0, 0, 128)" style="fill-opacity:1.00" />
<ellipse cx="535.000000" cy="108.901375" rx="16.666667" ry="0.271724" fill="rgb(255, 255, 255)" style="fill-opacity:1.00" />
<rect height="0.407586" width="25.000000" x="535.000000" y="108.697582" fill="rgb(255, 255, 255)" style="fill-opacity:1.00" />
<!-- End 'C' -->
<!-- Begin 'T' -->
<rect height="0.110566" width="50.000000" x="510.000000" y="109.308961" fill="rgb(0, 100, 0)" style="fill-opacity:1.00" />
<rect height="0.691039" width="10.000000" x="530.000000" y="109.308961" fill="rgb(0, 100, 0)" style="fill-opacity:1.00" />
<!-- End 'T' -->
<!-- Begin 'G' -->
<ellipse cx="595.000000" cy="88.514003" rx="25.000000" ry="7.341468" fill="rgb(255, 165, 0)" style="fill-opacity:1.00" />
<ellipse cx="595.000000" cy="88.514003" rx="16.666667" ry="4.894312" fill="rgb(255, 255, 255)" style="fill-opacity:1.00" />
<rect height="7.341468" width="25.000000" x="595.000000" y="84.843269" fill="rgb(255, 255, 255)" style="fill-opacity:1.00" />
<rect height="1.835367" width="25.000000" x="595.000000" y="90.349370" fill="rgb(255, 165, 0)" style="fill-opacity:1.00" />
<rect height="5.506101" width="6.250000" x="613.750000" y="90.349370" fill="rgb(255, 165, 0)" style="fill-opacity:1.00" />
<!-- End 'G' -->
<!-- Begin 'A' -->
<polygon points=" 570.000000, 107.321706, 591.000000, 95.855470, 599.000000, 95.855470, 620.000000, 107.321706, 612.500000, 107.321706, 606.250000, 104.455147, 583.750000, 104.455147, 577.500000, 107.321706" fill="rgb(178, 34, 34)" style="fill-opacity:1.00" />
<polygon points=" 595.000000, 98.148718, 587.000000, 101.735212, 602.000000, 101.735212" fill="rgb(255, 255, 255)" style="fill-opacity:1.00" />
<!-- End 'A' -->
<!-- Begin 'C' -->
<ellipse cx="595.000000" cy="108.278317" rx="25.000000" ry="0.956611" fill="rgb(0, 0, 128)" style="fill-opacity:1.00" />
<ellipse cx="595.000000" cy="108.278317" rx="16.666667" ry="0.637741" fill="rgb(255, 255, 255)" style="fill-opacity:1.00" />
<rect height="0.956611" width="25.000000" x="595.000000" y="107.800012" fill="rgb(255, 255, 255)" style="fill-opacity:1.00" />
<!-- End 'C' -->
<!-- Begin 'T' -->
<rect height="0.122411" width="50.000000" x="570.000000" y="109.234928" fill="rgb(0, 100, 0)" style="fill-opacity:1.00" />
<rect height="0.765072" width="10.000000" x="590.000000" y="109.234928" fill="rgb(0, 100, 0)" style="fill-opacity:1.00" />
<!-- End 'T' -->
<!-- Begin 'A' -->
<polygon points=" 630.000000, 95.954285, 651.000000, 64.336147, 659.000000, 64.336147, 680.000000, 95.954285, 672.500000, 95.954285, 666.250000, 88.049750, 643.750000, 88.049750, 637.500000, 95.954285" fill="rgb(178, 34, 34)" style="fill-opacity:1.00" />
<polygon points=" 655.000000, 70.659775, 647.000000, 82.307030, 662.000000, 82.307030" fill="rgb(255, 255, 255)" style="fill-opacity:1.00" />
<!-- End 'A' -->
<!-- Begin 'G' -->
<ellipse cx="655.000000" cy="102.148295" rx="25.000000" ry="6.194010" fill="rgb(255, 165, 0)" style="fill-opacity:1.00" />
<ellipse cx="655.000000" cy="102.148295" rx="16.666667" ry="4.129340" fill="rgb(255, 255, 255)" style="fill-opacity:1.00" />
<rect height="6.194010" width="25.000000" x="655.000000" y="99.051290" fill="rgb(255, 255, 255)" style="fill-opacity:1.00" />
<rect height="1.548502" width="25.000000" x="655.000000" y="103.696797" fill="rgb(255, 165, 0)" style="fill-opacity:1.00" />
<rect height="4.645507" width="6.250000" x="673.750000" y="103.696797" fill="rgb(255, 165, 0)" style="fill-opacity:1.00" />
<!-- End 'G' -->
<!-- Begin 'C' -->
<ellipse cx="655.000000" cy="108.838194" rx="25.000000" ry="0.495889" fill="rgb(0, 0, 128)" style="fill-opacity:1.00" />
<ellipse cx="655.000000" cy="108.838194" rx="16.666667" ry="0.330593" fill="rgb(255, 255, 255)" style="fill-opacity:1.00" />
<rect height="0.495889" width="25.000000" x="655.000000" y="108.590249" fill="rgb(255, 255, 255)" style="fill-opacity:1.00" />
<!-- End 'C' -->
<!-- Begin 'T' -->
<rect height="0.106547" width="50.000000" x="630.000000" y="109.334083" fill="rgb(0, 100, 0)" style="fill-opacity:1.00" />
<rect height="0.665917" width="10.000000" x="650.000000" y="109.334083" fill="rgb(0, 100, 0)" style="fill-opacity:1.00" />
<!-- End 'T' -->
<!-- Begin 'G' -->
<ellipse cx="715.000000" cy="69.866198" rx="25.000000" ry="33.986254" fill="rgb(255, 165, 0)" style="fill-opacity:1.00" />
<ellipse cx="715.000000" cy="69.866198" rx="16.666667" ry="22.657503" fill="rgb(255, 255, 255)" style="fill-opacity:1.00" />
<rect height="33.986254" width="25.000000" x="715.000000" y="52.873070" fill="rgb(255, 255, 255)" style="fill-opacity:1.00" />
<rect height="8.496564" width="25.000000" x="715.000000" y="78.362761" fill="rgb(255, 165, 0)" style="fill-opacity:1.00" />
<rect height="25.489691" width="6.250000" x="733.750000" y="78.362761" fill="rgb(255, 165, 0)" style="fill-opacity:1.00" />
<!-- End 'G' -->
<!-- Begin 'A' -->
<polygon points=" 690.000000, 107.678462, 711.000000, 103.852452, 719.000000, 103.852452, 740.000000, 107.678462, 732.500000, 107.678462, 726.250000, 106.721960, 703.750000, 106.721960, 697.500000, 107.678462" fill="rgb(178, 34, 34)" style="fill-opacity:1.00" />
<!-- End 'A' -->
<!-- Begin 'C' -->
<ellipse cx="715.000000" cy="108.539206" rx="25.000000" ry="0.860744" fill="rgb(0, 0, 128)" style="fill-opacity:1.00" />
<ellipse cx="715.000000" cy="108.539206" rx="16.666667" ry="0.573829" fill="rgb(255, 255, 255)" style="fill-opacity:1.00" />
<rect height="0.860744" width="25.000000" x="715.000000" y="108.108834" fill="rgb(255, 255, 255)" style="fill-opacity:1.00" />
<!-- End 'C' -->
<!-- Begin 'T' -->
<rect height="0.096008" width="50.000000" x="690.000000" y="109.399950" fill="rgb(0, 100, 0)" style="fill-opacity:1.00" />
<rect height="0.600050" width="10.000000" x="710.000000" y="109.399950" fill="rgb(0, 100, 0)" style="fill-opacity:1.00" />
<!-- End 'T' -->
<!-- Begin 'G' -->
<ellipse cx="775.000000" cy="84.298555" rx="25.000000" ry="15.160053" fill="rgb(255, 165, 0)" style="fill-opacity:1.00" />
<ellipse cx="775.000000" cy="84.298555" rx="16.666667" ry="10.106702" fill="rgb(255, 255, 255)" style="fill-opacity:1.00" />
<rect height="15.160053" width="25.000000" x="775.000000" y="76.718528" fill="rgb(255, 255, 255)" style="fill-opacity:1.00" />
<rect height="3.790013" width="25.000000" x="775.000000" y="88.088568" fill="rgb(255, 165, 0)" style="fill-opacity:1.00" />
<rect height="11.370040" width="6.250000" x="793.750000" y="88.088568" fill="rgb(255, 165, 0)" style="fill-opacity:1.00" />
<!-- End 'G' -->
<!-- Begin 'T' -->
<rect height="0.895235" width="50.000000" x="750.000000" y="99.458608" fill="rgb(0, 100, 0)" style="fill-opacity:1.00" />
<rect height="5.595220" width="10.000000" x="770.000000" y="99.458608" fill="rgb(0, 100, 0)" style="fill-opacity:1.00" />
<!-- End 'T' -->
<!-- Begin 'A' -->
<polygon points=" 750.000000, 108.665682, 771.000000, 105.053827, 779.000000, 105.053827, 800.000000, 108.665682, 792.500000, 108.665682, 786.250000, 107.762718, 763.750000, 107.762718, 757.500000, 108.665682" fill="rgb(178, 34, 34)" style="fill-opacity:1.00" />
<!-- End 'A' -->
<!-- Begin 'C' -->
<ellipse cx="775.000000" cy="109.332841" rx="25.000000" ry="0.667159" fill="rgb(0, 0, 128)" style="fill-opacity:1.00" />
<ellipse cx="775.000000" cy="109.332841" rx="16.666667" ry="0.444773" fill="rgb(255, 255, 255)" style="fill-opacity:1.00" />
<rect height="0.667159" width="25.000000" x="775.000000" y="108.999261" fill="rgb(255, 255, 255)" style="fill-opacity:1.00" />
<!-- End 'C' -->
<!-- Begin 'T' -->
<rect height="1.741198" width="50.000000" x="810.000000" y="88.187477" fill="rgb(0, 100, 0)" style="fill-opacity:1.00" />
<rect height="10.882490" width="10.000000" x="830.000000" y="88.187477" fill="rgb(0, 100, 0)" style="fill-opacity:1.00" />
<!-- End 'T' -->
<!-- Begin 'G' -->
<ellipse cx="835.000000" cy="102.880249" rx="25.000000" ry="3.810281" fill="rgb(255, 165, 0)" style="fill-opacity:1.00" />
<ellipse cx="835.000000" cy="102.880249" rx="16.666667" ry="2.540187" fill="rgb(255, 255, 255)" style="fill-opacity:1.00" />
<rect height="3.810281" width="25.000000" x="835.000000" y="100.975108" fill="rgb(255, 255, 255)" style="fill-opacity:1.00" />
<rect height="0.952570" width="25.000000" x="835.000000" y="103.832819" fill="rgb(255, 165, 0)" style="fill-opacity:1.00" />
<rect height="2.857711" width="6.250000" x="853.750000" y="103.832819" fill="rgb(255, 165, 0)" style="fill-opacity:1.00" />
<!-- End 'G' -->
<!-- Begin 'C' -->
<ellipse cx="835.000000" cy="107.949260" rx="25.000000" ry="1.258730" fill="rgb(0, 0, 128)" style="fill-opacity:1.00" />
<ellipse cx="835.000000" cy="107.949260" rx="16.666667" ry="0.839153" fill="rgb(255, 255, 255)" style="fill-opacity:1.00" />
<rect height="1.258730" width="25.000000" x="835.000000" y="107.319895" fill="rgb(255, 255, 255)" style="fill-opacity:1.00" />
<!-- End 'C' -->
<!-- Begin 'A' -->
<polygon points=" 810.000000, 110.000000, 831.000000, 109.207990, 839.000000, 109.207990, 860.000000, 110.000000, 852.500000, 110.000000, 846.250000, 109.801998, 823.750000, 109.801998, 817.500000, 110.000000" fill="rgb(178, 34, 34)" style="fill-opacity:1.00" />
<!-- End 'A' -->
<!-- Begin 'C' -->
<ellipse cx="895.000000" cy="94.092952" rx="25.000000" ry="7.255613" fill="rgb(0, 0, 128)" style="fill-opacity:1.00" />
<ellipse cx="895.000000" cy="94.092952" rx="16.666667" ry="4.837075" fill="rgb(255, 255, 255)" style="fill-opacity:1.00" />
<rect height="7.255613" width="25.000000" x="895.000000" y="90.465146" fill="rgb(255, 255, 255)" style="fill-opacity:1.00" />
<!-- End 'C' -->
<!-- Begin 'G' -->
<ellipse cx="895.000000" cy="103.117487" rx="25.000000" ry="1.768922" fill="rgb(255, 165, 0)" style="fill-opacity:1.00" />
<ellipse cx="895.000000" cy="103.117487" rx="16.666667" ry="1.179281" fill="rgb(255, 255, 255)" style="fill-opacity:1.00" />
<rect height="1.768922" width="25.000000" x="895.000000" y="102.233026" fill="rgb(255, 255, 255)" style="fill-opacity:1.00" />
<rect height="0.442231" width="25.000000" x="895.000000" y="103.559718" fill="rgb(255, 165, 0)" style="fill-opacity:1.00" />
<rect height="1.326692" width="6.250000" x="913.750000" y="103.559718" fill="rgb(255, 165, 0)" style="fill-opacity:1.00" />
<!-- End 'G' -->
<!-- Begin 'T' -->
<rect height="0.453363" width="50.000000" x="870.000000" y="104.886409" fill="rgb(0, 100, 0)" style="fill-opacity:1.00" />
<rect height="2.833521" width="10.000000" x="890.000000" y="104.886409" fill="rgb(0, 100, 0)" style="fill-opacity:1.00" />
<!-- End 'T' -->
<!-- Begin 'A' -->
<polygon points=" 870.000000, 110.000000, 891.000000, 107.719931, 899.000000, 107.719931, 920.000000, 110.000000, 912.500000, 110.000000, 906.250000, 109.429983, 883.750000, 109.429983, 877.500000, 110.000000" fill="rgb(178, 34, 34)" style="fill-opacity:1.00" />
<!-- End 'A' -->
<!-- Begin 'A' -->
<polygon points=" 930.000000, 98.185240, 951.000000, 78.262356, 959.000000, 78.262356, 980.000000, 98.185240, 972.500000, 98.185240, 966.250000, 93.204519, 943.750000, 93.204519, 937.500000, 98.185240" fill="rgb(178, 34, 34)" style="fill-opacity:1.00" />
<polygon points=" 955.000000, 82.246933, 947.000000, 89.216086, 962.000000, 89.216086" fill="rgb(255, 255, 255)" style="fill-opacity:1.00" />
<!-- End 'A' -->
<!-- Begin 'G' -->
<ellipse cx="955.000000" cy="102.501638" rx="25.000000" ry="4.316398" fill="rgb(255, 165, 0)" style="fill-opacity:1.00" />
<ellipse cx="955.000000" cy="102.501638" rx="16.666667" ry="2.877599" fill="rgb(255, 255, 255)" style="fill-opacity:1.00" />
<rect height="4.316398" width="25.000000" x="955.000000" y="100.343439" fill="rgb(255, 255, 255)" style="fill-opacity:1.00" />
<rect height="1.079100" width="25.000000" x="955.000000" y="103.580738" fill="rgb(255, 165, 0)" style="fill-opacity:1.00" />
<rect height="3.237299" width="6.250000" x="973.750000" y="103.580738" fill="rgb(255, 165, 0)" style="fill-opacity:1.00" />
<!-- End 'G' -->
<!-- Begin 'T' -->
<rect height="0.270626" width="50.000000" x="930.000000" y="106.818036" fill="rgb(0, 100, 0)" style="fill-opacity:1.00" />
<rect height="1.691414" width="10.000000" x="950.000000" y="106.818036" fill="rgb(0, 100, 0)" style="fill-opacity:1.00" />
<!-- End 'T' -->
<!-- Begin 'C' -->
<ellipse cx="955.000000" cy="109.254725" rx="25.000000" ry="0.745275" fill="rgb(0, 0, 128)" style="fill-opacity:1.00" />
<ellipse cx="955.000000" cy="109.254725" rx="16.666667" ry="0.496850" fill="rgb(255, 255, 255)" style="fill-opacity:1.00" />
<rect height="0.745275" width="25.000000" x="955.000000" y="108.882088" fill="rgb(255, 255, 255)" style="fill-opacity:1.00" />
<!-- End 'C' -->
<text x="520.000000" y="165">
IC = 11.16
</text>

</svg>
