<?xml version="1.0" encoding="UTF-8" standalone="yes"?>
                 <!DOCTYPE svg PUBLIC "-//W3C//DTD SVG 1.0//EN" "http://www.w3.org/TR/2001/REC-SVG-20010904/DTD/svg10.dtd">
                 <svg height="170" width="1020" xmlns="http://www.w3.org/2000/svg" xmlns:xlink="http://www.w3.org/1999/xlink">
                 <line x1="85" y1="120" x2="987" y2="120" style="stroke:rgb(99,99,99);stroke-width:2" />
<rect height="7.000000" width="2.000000" x="85.000000" y="120.000000" fill="rgb(0, 0, 0)" style="fill-opacity:1.00" />
<text x="107.000000" y="140">
1
</text>
<rect height="7.000000" width="2.000000" x="145.000000" y="120.000000" fill="rgb(0, 0, 0)" style="fill-opacity:1.00" />
<text x="167.000000" y="140">
2
</text>
<rect height="7.000000" width="2.000000" x="205.000000" y="120.000000" fill="rgb(0, 0, 0)" style="fill-opacity:1.00" />
<text x="227.000000" y="140">
3
</text>
<rect height="7.000000" width="2.000000" x="265.000000" y="120.000000" fill="rgb(0, 0, 0)" style="fill-opacity:1.00" />
<text x="287.000000" y="140">
4
</text>
<rect height="7.000000" width="2.000000" x="325.000000" y="120.000000" fill="rgb(0, 0, 0)" style="fill-opacity:1.00" />
<text x="347.000000" y="140">
5
</text>
<rect height="7.000000" width="2.000000" x="385.000000" y="120.000000" fill="rgb(0, 0, 0)" style="fill-opacity:1.00" />
<text x="407.000000" y="140">
6
</text>
<rect height="7.000000" width="2.000000" x="445.000000" y="120.000000" fill="rgb(0, 0, 0)" style="fill-opacity:1.00" />
<text x="467.000000" y="140">
7
</text>
<rect height="7.000000" width="2.000000" x="505.000000" y="120.000000" fill="rgb(0, 0, 0)" style="fill-opacity:1.00" />
<text x="527.000000" y="140">
8
</text>
<rect height="7.000000" width="2.000000" x="565.000000" y="120.000000" fill="rgb(0, 0, 0)" style="fill-opacity:1.00" />
<text x="587.000000" y="140">
9
</text>
<rect height="7.000000" width="2.000000" x="625.000000" y="120.000000" fill="rgb(0, 0, 0)" style="fill-opacity:1.00" />
<text x="647.000000" y="140">
10
</text>
<rect height="7.000000" width="2.000000" x="685.000000" y="120.000000" fill="rgb(0, 0, 0)" style="fill-opacity:1.00" />
<text x="707.000000" y="140">
11
</text>
<rect height="7.000000" width="2.000000" x="745.000000" y="120.000000" fill="rgb(0, 0, 0)" style="fill-opacity:1.00" />
<text x="767.000000" y="140">
12
</text>
<rect height="7.000000" width="2.000000" x="805.000000" y="120.000000" fill="rgb(0, 0, 0)" style="fill-opacity:1.00" />
<text x="827.000000" y="140">
13
</text>
<rect height="7.000000" width="2.000000" x="865.000000" y="120.000000" fill="rgb(0, 0, 0)" style="fill-opacity:1.00" />
<text x="887.000000" y="140">
14
</text>
<rect height="7.000000" width="2.000000" x="925.000000" y="120.000000" fill="rgb(0, 0, 0)" style="fill-opacity:1.00" />
<text x="947.000000" y="140">
15
</text>
<rect height="7.000000" width="2.000000" x="985.000000" y="120.000000" fill="rgb(0, 0, 0)" style="fill-opacity:1.00" />
<line x1="80" y1="112" x2="80" y2="10" style="stroke:rgb(99,99,99);stroke-width:2" />
<rect height="2.000000" width="7.000000" x="73.000000" y="110.000000" fill="rgb(0, 0, 0)" style="fill-opacity:1.00" />
<text x="63" y="115">
0
</text>
<rect height="2.000000" width="7.000000" x="73.000000" y="60.000000" fill="rgb(0, 0, 0)" style="fill-opacity:1.00" />
<text x="63" y="65">
1
</text>
<rect height="2.000000" width="7.000000" x="73.000000" y="10.000000" fill="rgb(0, 0, 0)" style="fill-opacity:1.00" />
<text x="63" y="15">
2
</text>
<text x="50" y="65"
transform="rotate(-90, 50, 70)">
bits
</text>
<!-- Begin 'C' -->
<ellipse cx="115.000000" cy="107.213224" rx="25.000000" ry="0.599258" fill="rgb(0, 0, 128)" style="fill-opacity:1.00" />
<ellipse cx="115.000000" cy="107.213224" rx="16.666667" ry="0.399505" fill="rgb(255, 255, 255)" style="fill-opacity:1.00" />
<rect height="0.599258" width="25.000000" x="115.000000" y="106.913595" fill="rgb(255, 255, 255)" style="fill-opacity:1.00" />
<!-- End 'C' -->
<!-- Begin 'A' -->
<polygon points=" 90.000000, 108.726390, 111.000000, 107.812482, 119.000000, 107.812482, 140.000000, 108.726390, 132.500000, 108.726390, 126.250000, 108.497913, 103.750000, 108.497913, 97.500000, 108.726390" fill="rgb(178, 34, 34)" style="fill-opacity:1.00" />
<!-- End 'A' -->
<!-- Begin 'G' -->
<ellipse cx="115.000000" cy="109.118802" rx="25.000000" ry="0.392412" fill="rgb(255, 165, 0)" style="fill-opacity:1.00" />
<ellipse cx="115.000000" cy="109.118802" rx="16.666667" ry="0.261608" fill="rgb(255, 255, 255)" style="fill-opacity:1.00" />
<rect height="0.392412" width="25.000000" x="115.000000" y="108.922596" fill="rgb(255, 255, 255)" style="fill-opacity:1.00" />
<rect height="0.098103" width="25.000000" x="115.000000" y="109.216905" fill="rgb(255, 165, 0)" style="fill-opacity:1.00" />
<rect height="0.294309" width="6.250000" x="133.750000" y="109.216905" fill="rgb(255, 165, 0)" style="fill-opacity:1.00" />
<!-- End 'G' -->
<!-- Begin 'T' -->
<rect height="0.078206" width="50.000000" x="90.000000" y="109.511214" fill="rgb(0, 100, 0)" style="fill-opacity:1.00" />
<rect height="0.488786" width="10.000000" x="110.000000" y="109.511214" fill="rgb(0, 100, 0)" style="fill-opacity:1.00" />
<!-- End 'T' -->
<!-- Begin 'G' -->
<ellipse cx="175.000000" cy="100.235727" rx="25.000000" ry="3.216351" fill="rgb(255, 165, 0)" style="fill-opacity:1.00" />
<ellipse cx="175.000000" cy="100.235727" rx="16.666667" ry="2.144234" fill="rgb(255, 255, 255)" style="fill-opacity:1.00" />
<rect height="3.216351" width="25.000000" x="175.000000" y="98.627552" fill="rgb(255, 255, 255)" style="fill-opacity:1.00" />
<rect height="0.804088" width="25.000000" x="175.000000" y="101.039815" fill="rgb(255, 165, 0)" style="fill-opacity:1.00" />
<rect height="2.412263" width="6.250000" x="193.750000" y="101.039815" fill="rgb(255, 165, 0)" style="fill-opacity:1.00" />
<!-- End 'G' -->
<!-- Begin 'C' -->
<ellipse cx="175.000000" cy="105.005376" rx="25.000000" ry="1.553298" fill="rgb(0, 0, 128)" style="fill-opacity:1.00" />
<ellipse cx="175.000000" cy="105.005376" rx="16.666667" ry="1.035532" fill="rgb(255, 255, 255)" style="fill-opacity:1.00" />
<rect height="1.553298" width="25.000000" x="175.000000" y="104.228727" fill="rgb(255, 255, 255)" style="fill-opacity:1.00" />
<!-- End 'C' -->
<!-- Begin 'A' -->
<polygon points=" 150.000000, 108.931319, 171.000000, 106.558674, 179.000000, 106.558674, 200.000000, 108.931319, 192.500000, 108.931319, 186.250000, 108.338158, 163.750000, 108.338158, 157.500000, 108.931319" fill="rgb(178, 34, 34)" style="fill-opacity:1.00" />
<!-- End 'A' -->
<!-- Begin 'T' -->
<rect height="0.170989" width="50.000000" x="150.000000" y="108.931319" fill="rgb(0, 100, 0)" style="fill-opacity:1.00" />
<rect height="1.068681" width="10.000000" x="170.000000" y="108.931319" fill="rgb(0, 100, 0)" style="fill-opacity:1.00" />
<!-- End 'T' -->
<!-- Begin 'G' -->
<ellipse cx="235.000000" cy="82.514613" rx="25.000000" ry="9.875316" fill="rgb(255, 165, 0)" style="fill-opacity:1.00" />
<ellipse cx="235.000000" cy="82.514613" rx="16.666667" ry="6.583544" fill="rgb(255, 255, 255)" style="fill-opacity:1.00" />
<rect height="9.875316" width="25.000000" x="235.000000" y="77.576955" fill="rgb(255, 255, 255)" style="fill-opacity:1.00" />
<rect height="2.468829" width="25.000000" x="235.000000" y="84.983442" fill="rgb(255, 165, 0)" style="fill-opacity:1.00" />
<rect height="7.406487" width="6.250000" x="253.750000" y="84.983442" fill="rgb(255, 165, 0)" style="fill-opacity:1.00" />
<!-- End 'G' -->
<!-- Begin 'A' -->
<polygon points=" 210.000000, 108.351646, 231.000000, 92.389929, 239.000000, 92.389929, 260.000000, 108.351646, 252.500000, 108.351646, 246.250000, 104.361217, 223.750000, 104.361217, 217.500000, 108.351646" fill="rgb(178, 34, 34)" style="fill-opacity:1.00" />
<polygon points=" 235.000000, 95.582273, 227.000000, 100.966959, 242.000000, 100.966959" fill="rgb(255, 255, 255)" style="fill-opacity:1.00" />
<!-- End 'A' -->
<!-- Begin 'C' -->
<ellipse cx="235.000000" cy="108.804463" rx="25.000000" ry="0.452818" fill="rgb(0, 0, 128)" style="fill-opacity:1.00" />
<ellipse cx="235.000000" cy="108.804463" rx="16.666667" ry="0.301878" fill="rgb(255, 255, 255)" style="fill-opacity:1.00" />
<rect height="0.452818" width="25.000000" x="235.000000" y="108.578054" fill="rgb(255, 255, 255)" style="fill-opacity:1.00" />
<!-- End 'C' -->
<!-- Begin 'T' -->
<rect height="0.118835" width="50.000000" x="210.000000" y="109.257281" fill="rgb(0, 100, 0)" style="fill-opacity:1.00" />
<rect height="0.742719" width="10.000000" x="230.000000" y="109.257281" fill="rgb(0, 100, 0)" style="fill-opacity:1.00" />
<!-- End 'T' -->
<!-- Begin 'G' -->
<ellipse cx="295.000000" cy="77.227839" rx="25.000000" ry="23.959691" fill="rgb(255, 165, 0)" style="fill-opacity:1.00" />
<ellipse cx="295.000000" cy="77.227839" rx="16.666667" ry="15.973128" fill="rgb(255, 255, 255)" style="fill-opacity:1.00" />
<rect height="23.959691" width="25.000000" x="295.000000" y="65.247994" fill="rgb(255, 255, 255)" style="fill-opacity:1.00" />
<rect height="5.989923" width="25.000000" x="295.000000" y="83.217762" fill="rgb(255, 165, 0)" style="fill-opacity:1.00" />
<rect height="17.969769" width="6.250000" x="313.750000" y="83.217762" fill="rgb(255, 165, 0)" style="fill-opacity:1.00" />
<!-- End 'G' -->
<!-- Begin 'A' -->
<polygon points=" 270.000000, 104.758485, 291.000000, 101.187531, 299.000000, 101.187531, 320.000000, 104.758485, 312.500000, 104.758485, 306.250000, 103.865747, 283.750000, 103.865747, 277.500000, 104.758485" fill="rgb(178, 34, 34)" style="fill-opacity:1.00" />
<!-- End 'A' -->
<!-- Begin 'C' -->
<ellipse cx="295.000000" cy="106.254721" rx="25.000000" ry="1.496235" fill="rgb(0, 0, 128)" style="fill-opacity:1.00" />
<ellipse cx="295.000000" cy="106.254721" rx="16.666667" ry="0.997490" fill="rgb(255, 255, 255)" style="fill-opacity:1.00" />
<rect height="1.496235" width="25.000000" x="295.000000" y="105.506603" fill="rgb(255, 255, 255)" style="fill-opacity:1.00" />
<!-- End 'C' -->
<!-- Begin 'T' -->
<rect height="0.359847" width="50.000000" x="270.000000" y="107.750956" fill="rgb(0, 100, 0)" style="fill-opacity:1.00" />
<rect height="2.249044" width="10.000000" x="290.000000" y="107.750956" fill="rgb(0, 100, 0)" style="fill-opacity:1.00" />
<!-- End 'T' -->
<!-- Begin 'G' -->
<ellipse cx="355.000000" cy="77.040550" rx="25.000000" ry="23.691707" fill="rgb(255, 165, 0)" style="fill-opacity:1.00" />
<ellipse cx="355.000000" cy="77.040550" rx="16.666667" ry="15.794471" fill="rgb(255, 255, 255)" style="fill-opacity:1.00" />
<rect height="23.691707" width="25.000000" x="355.000000" y="65.194697" fill="rgb(255, 255, 255)" style="fill-opacity:1.00" />
<rect height="5.922927" width="25.000000" x="355.000000" y="82.963477" fill="rgb(255, 165, 0)" style="fill-opacity:1.00" />
<rect height="17.768780" width="6.250000" x="373.750000" y="82.963477" fill="rgb(255, 165, 0)" style="fill-opacity:1.00" />
<!-- End 'G' -->
<!-- Begin 'T' -->
<rect height="0.792344" width="50.000000" x="330.000000" y="100.732257" fill="rgb(0, 100, 0)" style="fill-opacity:1.00" />
<rect height="4.952151" width="10.000000" x="350.000000" y="100.732257" fill="rgb(0, 100, 0)" style="fill-opacity:1.00" />
<!-- End 'T' -->
<!-- Begin 'A' -->
<polygon points=" 330.000000, 108.945697, 351.000000, 105.684408, 359.000000, 105.684408, 380.000000, 108.945697, 372.500000, 108.945697, 366.250000, 108.130375, 343.750000, 108.130375, 337.500000, 108.945697" fill="rgb(178, 34, 34)" style="fill-opacity:1.00" />
<!-- End 'A' -->
<!-- Begin 'C' -->
<ellipse cx="355.000000" cy="109.472848" rx="25.000000" ry="0.527152" fill="rgb(0, 0, 128)" style="fill-opacity:1.00" />
<ellipse cx="355.000000" cy="109.472848" rx="16.666667" ry="0.351434" fill="rgb(255, 255, 255)" style="fill-opacity:1.00" />
<rect height="0.527152" width="25.000000" x="355.000000" y="109.209273" fill="rgb(255, 255, 255)" style="fill-opacity:1.00" />
<!-- End 'C' -->
<!-- Begin 'T' -->
<rect height="3.176838" width="50.000000" x="390.000000" y="78.073517" fill="rgb(0, 100, 0)" style="fill-opacity:1.00" />
<rect height="19.855235" width="10.000000" x="410.000000" y="78.073517" fill="rgb(0, 100, 0)" style="fill-opacity:1.00" />
<!-- End 'T' -->
<!-- Begin 'G' -->
<ellipse cx="415.000000" cy="102.433596" rx="25.000000" ry="4.504843" fill="rgb(255, 165, 0)" style="fill-opacity:1.00" />
<ellipse cx="415.000000" cy="102.433596" rx="16.666667" ry="3.003229" fill="rgb(255, 255, 255)" style="fill-opacity:1.00" />
<rect height="4.504843" width="25.000000" x="415.000000" y="100.181174" fill="rgb(255, 255, 255)" style="fill-opacity:1.00" />
<rect height="1.126211" width="25.000000" x="415.000000" y="103.559807" fill="rgb(255, 165, 0)" style="fill-opacity:1.00" />
<rect height="3.378633" width="6.250000" x="433.750000" y="103.559807" fill="rgb(255, 165, 0)" style="fill-opacity:1.00" />
<!-- End 'G' -->
<!-- Begin 'C' -->
<ellipse cx="415.000000" cy="107.708381" rx="25.000000" ry="0.769942" fill="rgb(0, 0, 128)" style="fill-opacity:1.00" />
<ellipse cx="415.000000" cy="107.708381" rx="16.666667" ry="0.513295" fill="rgb(255, 255, 255)" style="fill-opacity:1.00" />
<rect height="0.769942" width="25.000000" x="415.000000" y="107.323410" fill="rgb(255, 255, 255)" style="fill-opacity:1.00" />
<!-- End 'C' -->
<!-- Begin 'A' -->
<polygon points=" 390.000000, 110.000000, 411.000000, 108.478323, 419.000000, 108.478323, 440.000000, 110.000000, 432.500000, 110.000000, 426.250000, 109.619581, 403.750000, 109.619581, 397.500000, 110.000000" fill="rgb(178, 34, 34)" style="fill-opacity:1.00" />
<!-- End 'A' -->
<!-- Begin 'C' -->
<ellipse cx="475.000000" cy="86.938110" rx="25.000000" ry="13.070954" fill="rgb(0, 0, 128)" style="fill-opacity:1.00" />
<ellipse cx="475.000000" cy="86.938110" rx="16.666667" ry="8.713969" fill="rgb(255, 255, 255)" style="fill-opacity:1.00" />
<rect height="13.070954" width="25.000000" x="475.000000" y="80.402634" fill="rgb(255, 255, 255)" style="fill-opacity:1.00" />
<!-- End 'C' -->
<!-- Begin 'G' -->
<ellipse cx="475.000000" cy="102.200482" rx="25.000000" ry="2.191418" fill="rgb(255, 165, 0)" style="fill-opacity:1.00" />
<ellipse cx="475.000000" cy="102.200482" rx="16.666667" ry="1.460945" fill="rgb(255, 255, 255)" style="fill-opacity:1.00" />
<rect height="2.191418" width="25.000000" x="475.000000" y="101.104773" fill="rgb(255, 255, 255)" style="fill-opacity:1.00" />
<rect height="0.547854" width="25.000000" x="475.000000" y="102.748336" fill="rgb(255, 165, 0)" style="fill-opacity:1.00" />
<rect height="1.643563" width="6.250000" x="493.750000" y="102.748336" fill="rgb(255, 165, 0)" style="fill-opacity:1.00" />
<!-- End 'G' -->
<!-- Begin 'T' -->
<rect height="0.508653" width="50.000000" x="450.000000" y="104.391900" fill="rgb(0, 100, 0)" style="fill-opacity:1.00" />
<rect height="3.179079" width="10.000000" x="470.000000" y="104.391900" fill="rgb(0, 100, 0)" style="fill-opacity:1.00" />
<!-- End 'T' -->
<!-- Begin 'A' -->
<polygon points=" 450.000000, 110.000000, 471.000000, 107.570979, 479.000000, 107.570979, 500.000000, 110.000000, 492.500000, 110.000000, 486.250000, 109.392745, 463.750000, 109.392745, 457.500000, 110.000000" fill="rgb(178, 34, 34)" style="fill-opacity:1.00" />
<!-- End 'A' -->
<!-- Begin 'A' -->
<polygon points=" 510.000000, 97.393024, 531.000000, 55.942575, 539.000000, 55.942575, 560.000000, 97.393024, 552.500000, 97.393024, 546.250000, 87.030411, 523.750000, 87.030411, 517.500000, 97.393024" fill="rgb(178, 34, 34)" style="fill-opacity:1.00" />
<polygon points=" 535.000000, 64.232665, 527.000000, 79.812844, 542.000000, 79.812844" fill="rgb(255, 255, 255)" style="fill-opacity:1.00" />
<!-- End 'A' -->
<!-- Begin 'G' -->
<ellipse cx="535.000000" cy="103.048640" rx="25.000000" ry="5.655617" fill="rgb(255, 165, 0)" style="fill-opacity:1.00" />
<ellipse cx="535.000000" cy="103.048640" rx="16.666667" ry="3.770411" fill="rgb(255, 255, 255)" style="fill-opacity:1.00" />
<rect height="5.655617" width="25.000000" x="535.000000" y="100.220832" fill="rgb(255, 255, 255)" style="fill-opacity:1.00" />
<rect height="1.413904" width="25.000000" x="535.000000" y="104.462545" fill="rgb(255, 165, 0)" style="fill-opacity:1.00" />
<rect height="4.241713" width="6.250000" x="553.750000" y="104.462545" fill="rgb(255, 165, 0)" style="fill-opacity:1.00" />
<!-- End 'G' -->
<!-- Begin 'C' -->
<ellipse cx="535.000000" cy="109.053842" rx="25.000000" ry="0.349585" fill="rgb(0, 0, 128)" style="fill-opacity:1.00" />
<ellipse cx="535.000000" cy="109.053842" rx="16.666667" ry="0.233056" fill="rgb(255, 255, 255)" style="fill-opacity:1.00" />
<rect height="0.349585" width="25.000000" x="535.000000" y="108.879050" fill="rgb(255, 255, 255)" style="fill-opacity:1.00" />
<!-- End 'C' -->
<!-- Begin 'T' -->
<rect height="0.095452" width="50.000000" x="510.000000" y="109.403427" fill="rgb(0, 100, 0)" style="fill-opacity:1.00" />
<rect height="0.596573" width="10.000000" x="530.000000" y="109.403427" fill="rgb(0, 100, 0)" style="fill-opacity:1.00" />
<!-- End 'T' -->
<!-- Begin 'G' -->
<ellipse cx="595.000000" cy="89.910284" rx="25.000000" ry="6.793075" fill="rgb(255, 165, 0)" style="fill-opacity:1.00" />
<ellipse cx="595.000000" cy="89.910284" rx="16.666667" ry="4.528717" fill="rgb(255, 255, 255)" style="fill-opacity:1.00" />
<rect height="6.793075" width="25.000000" x="595.000000" y="86.513747" fill="rgb(255, 255, 255)" style="fill-opacity:1.00" />
<rect height="1.698269" width="25.000000" x="595.000000" y="91.608553" fill="rgb(255, 165, 0)" style="fill-opacity:1.00" />
<rect height="5.094806" width="6.250000" x="613.750000" y="91.608553" fill="rgb(255, 165, 0)" style="fill-opacity:1.00" />
<!-- End 'G' -->
<!-- Begin 'A' -->
<polygon points=" 570.000000, 107.124238, 591.000000, 96.703359, 599.000000, 96.703359, 620.000000, 107.124238, 612.500000, 107.124238, 606.250000, 104.519018, 583.750000, 104.519018, 577.500000, 107.124238" fill="rgb(178, 34, 34)" style="fill-opacity:1.00" />
<polygon points=" 595.000000, 98.787535, 587.000000, 101.955887, 602.000000, 101.955887" fill="rgb(255, 255, 255)" style="fill-opacity:1.00" />
<!-- End 'A' -->
<!-- Begin 'C' -->
<ellipse cx="595.000000" cy="108.175633" rx="25.000000" ry="1.051395" fill="rgb(0, 0, 128)" style="fill-opacity:1.00" />
<ellipse cx="595.000000" cy="108.175633" rx="16.666667" ry="0.700930" fill="rgb(255, 255, 255)" style="fill-opacity:1.00" />
<rect height="1.051395" width="25.000000" x="595.000000" y="107.649935" fill="rgb(255, 255, 255)" style="fill-opacity:1.00" />
<!-- End 'C' -->
<!-- Begin 'T' -->
<rect height="0.123676" width="50.000000" x="570.000000" y="109.227028" fill="rgb(0, 100, 0)" style="fill-opacity:1.00" />
<rect height="0.772972" width="10.000000" x="590.000000" y="109.227028" fill="rgb(0, 100, 0)" style="fill-opacity:1.00" />
<!-- End 'T' -->
<!-- Begin 'A' -->
<polygon points=" 630.000000, 95.818672, 651.000000, 66.598179, 659.000000, 66.598179, 680.000000, 95.818672, 672.500000, 95.818672, 666.250000, 88.513549, 643.750000, 88.513549, 637.500000, 95.818672" fill="rgb(178, 34, 34)" style="fill-opacity:1.00" />
<polygon points=" 655.000000, 72.442277, 647.000000, 83.130475, 662.000000, 83.130475" fill="rgb(255, 255, 255)" style="fill-opacity:1.00" />
<!-- End 'A' -->
<!-- Begin 'G' -->
<ellipse cx="655.000000" cy="101.996506" rx="25.000000" ry="6.177834" fill="rgb(255, 165, 0)" style="fill-opacity:1.00" />
<ellipse cx="655.000000" cy="101.996506" rx="16.666667" ry="4.118556" fill="rgb(255, 255, 255)" style="fill-opacity:1.00" />
<rect height="6.177834" width="25.000000" x="655.000000" y="98.907589" fill="rgb(255, 255, 255)" style="fill-opacity:1.00" />
<rect height="1.544459" width="25.000000" x="655.000000" y="103.540965" fill="rgb(255, 165, 0)" style="fill-opacity:1.00" />
<rect height="4.633376" width="6.250000" x="673.750000" y="103.540965" fill="rgb(255, 165, 0)" style="fill-opacity:1.00" />
<!-- End 'G' -->
<!-- Begin 'C' -->
<ellipse cx="655.000000" cy="108.765182" rx="25.000000" ry="0.590842" fill="rgb(0, 0, 128)" style="fill-opacity:1.00" />
<ellipse cx="655.000000" cy="108.765182" rx="16.666667" ry="0.393894" fill="rgb(255, 255, 255)" style="fill-opacity:1.00" />
<rect height="0.590842" width="25.000000" x="655.000000" y="108.469761" fill="rgb(255, 255, 255)" style="fill-opacity:1.00" />
<!-- End 'C' -->
<!-- Begin 'T' -->
<rect height="0.103036" width="50.000000" x="630.000000" y="109.356024" fill="rgb(0, 100, 0)" style="fill-opacity:1.00" />
<rect height="0.643976" width="10.000000" x="650.000000" y="109.356024" fill="rgb(0, 100, 0)" style="fill-opacity:1.00" />
<!-- End 'T' -->
<!-- Begin 'G' -->
<ellipse cx="715.000000" cy="70.829434" rx="25.000000" ry="32.484470" fill="rgb(255, 165, 0)" style="fill-opacity:1.00" />
<ellipse cx="715.000000" cy="70.829434" rx="16.666667" ry="21.656313" fill="rgb(255, 255, 255)" style="fill-opacity:1.00" />
<rect height="32.484470" width="25.000000" x="715.000000" y="54.587199" fill="rgb(255, 255, 255)" style="fill-opacity:1.00" />
<rect height="8.121118" width="25.000000" x="715.000000" y="78.950552" fill="rgb(255, 165, 0)" style="fill-opacity:1.00" />
<rect height="24.363353" width="6.250000" x="733.750000" y="78.950552" fill="rgb(255, 165, 0)" style="fill-opacity:1.00" />
<!-- End 'G' -->
<!-- Begin 'A' -->
<polygon points=" 690.000000, 107.330316, 711.000000, 103.313905, 719.000000, 103.313905, 740.000000, 107.330316, 732.500000, 107.330316, 726.250000, 106.326213, 703.750000, 106.326213, 697.500000, 107.330316" fill="rgb(178, 34, 34)" style="fill-opacity:1.00" />
<!-- End 'A' -->
<!-- Begin 'C' -->
<ellipse cx="715.000000" cy="108.359548" rx="25.000000" ry="1.029232" fill="rgb(0, 0, 128)" style="fill-opacity:1.00" />
<ellipse cx="715.000000" cy="108.359548" rx="16.666667" ry="0.686154" fill="rgb(255, 255, 255)" style="fill-opacity:1.00" />
<rect height="1.029232" width="25.000000" x="715.000000" y="107.844932" fill="rgb(255, 255, 255)" style="fill-opacity:1.00" />
<!-- End 'C' -->
<!-- Begin 'T' -->
<rect height="0.097795" width="50.000000" x="690.000000" y="109.388780" fill="rgb(0, 100, 0)" style="fill-opacity:1.00" />
<rect height="0.611220" width="10.000000" x="710.000000" y="109.388780" fill="rgb(0, 100, 0)" style="fill-opacity:1.00" />
<!-- End 'T' -->
<!-- Begin 'G' -->
<ellipse cx="775.000000" cy="85.992300" rx="25.000000" ry="13.635473" fill="rgb(255, 165, 0)" style="fill-opacity:1.00" />
<ellipse cx="775.000000" cy="85.992300" rx="16.666667" ry="9.090316" fill="rgb(255, 255, 255)" style="fill-opacity:1.00" />
<rect height="13.635473" width="25.000000" x="775.000000" y="79.174563" fill="rgb(255, 255, 255)" style="fill-opacity:1.00" />
<rect height="3.408868" width="25.000000" x="775.000000" y="89.401168" fill="rgb(255, 165, 0)" style="fill-opacity:1.00" />
<rect height="10.226605" width="6.250000" x="793.750000" y="89.401168" fill="rgb(255, 165, 0)" style="fill-opacity:1.00" />
<!-- End 'G' -->
<!-- Begin 'T' -->
<rect height="0.828076" width="50.000000" x="750.000000" y="99.627773" fill="rgb(0, 100, 0)" style="fill-opacity:1.00" />
<rect height="5.175473" width="10.000000" x="770.000000" y="99.627773" fill="rgb(0, 100, 0)" style="fill-opacity:1.00" />
<!-- End 'T' -->
<!-- Begin 'A' -->
<polygon points=" 750.000000, 108.421415, 771.000000, 104.803246, 779.000000, 104.803246, 800.000000, 108.421415, 792.500000, 108.421415, 786.250000, 107.516872, 763.750000, 107.516872, 757.500000, 108.421415" fill="rgb(178, 34, 34)" style="fill-opacity:1.00" />
<!-- End 'A' -->
<!-- Begin 'C' -->
<ellipse cx="775.000000" cy="109.210707" rx="25.000000" ry="0.789293" fill="rgb(0, 0, 128)" style="fill-opacity:1.00" />
<ellipse cx="775.000000" cy="109.210707" rx="16.666667" ry="0.526195" fill="rgb(255, 255, 255)" style="fill-opacity:1.00" />
<rect height="0.789293" width="25.000000" x="775.000000" y="108.816061" fill="rgb(255, 255, 255)" style="fill-opacity:1.00" />
<!-- End 'C' -->
<!-- Begin 'T' -->
<rect height="1.499974" width="50.000000" x="810.000000" y="90.208167" fill="rgb(0, 100, 0)" style="fill-opacity:1.00" />
<rect height="9.374835" width="10.000000" x="830.000000" y="90.208167" fill="rgb(0, 100, 0)" style="fill-opacity:1.00" />
<!-- End 'T' -->
<!-- Begin 'G' -->
<ellipse cx="835.000000" cy="103.174772" rx="25.000000" ry="3.591770" fill="rgb(255, 165, 0)" style="fill-opacity:1.00" />
<ellipse cx="835.000000" cy="103.174772" rx="16.666667" ry="2.394513" fill="rgb(255, 255, 255)" style="fill-opacity:1.00" />
<rect height="3.591770" width="25.000000" x="835.000000" y="101.378887" fill="rgb(255, 255, 255)" style="fill-opacity:1.00" />
<rect height="0.897943" width="25.000000" x="835.000000" y="104.072715" fill="rgb(255, 165, 0)" style="fill-opacity:1.00" />
<rect height="2.693828" width="6.250000" x="853.750000" y="104.072715" fill="rgb(255, 165, 0)" style="fill-opacity:1.00" />
<!-- End 'G' -->
<!-- Begin 'C' -->
<ellipse cx="835.000000" cy="107.957967" rx="25.000000" ry="1.191425" fill="rgb(0, 0, 128)" style="fill-opacity:1.00" />
<ellipse cx="835.000000" cy="107.957967" rx="16.666667" ry="0.794283" fill="rgb(255, 255, 255)" style="fill-opacity:1.00" />
<rect height="1.191425" width="25.000000" x="835.000000" y="107.362255" fill="rgb(255, 255, 255)" style="fill-opacity:1.00" />
<!-- End 'C' -->
<!-- Begin 'A' -->
<polygon points=" 810.000000, 110.000000, 831.000000, 109.149392, 839.000000, 109.149392, 860.000000, 110.000000, 852.500000, 110.000000, 846.250000, 109.787348, 823.750000, 109.787348, 817.500000, 110.000000" fill="rgb(178, 34, 34)" style="fill-opacity:1.00" />
<!-- End 'A' -->
<!-- Begin 'C' -->
<ellipse cx="895.000000" cy="96.115163" rx="25.000000" ry="5.931093" fill="rgb(0, 0, 128)" style="fill-opacity:1.00" />
<ellipse cx="895.000000" cy="96.115163" rx="16.666667" ry="3.954062" fill="rgb(255, 255, 255)" style="fill-opacity:1.00" />
<rect height="5.931093" width="25.000000" x="895.000000" y="93.149617" fill="rgb(255, 255, 255)" style="fill-opacity:1.00" />
<!-- End 'C' -->
<!-- Begin 'G' -->
<ellipse cx="895.000000" cy="103.596824" rx="25.000000" ry="1.550569" fill="rgb(255, 165, 0)" style="fill-opacity:1.00" />
<ellipse cx="895.000000" cy="103.596824" rx="16.666667" ry="1.033712" fill="rgb(255, 255, 255)" style="fill-opacity:1.00" />
<rect height="1.550569" width="25.000000" x="895.000000" y="102.821540" fill="rgb(255, 255, 255)" style="fill-opacity:1.00" />
<rect height="0.387642" width="25.000000" x="895.000000" y="103.984467" fill="rgb(255, 165, 0)" style="fill-opacity:1.00" />
<rect height="1.162926" width="6.250000" x="913.750000" y="103.984467" fill="rgb(255, 165, 0)" style="fill-opacity:1.00" />
<!-- End 'G' -->
<!-- Begin 'T' -->
<rect height="0.400646" width="50.000000" x="870.000000" y="105.147393" fill="rgb(0, 100, 0)" style="fill-opacity:1.00" />
<rect height="2.504036" width="10.000000" x="890.000000" y="105.147393" fill="rgb(0, 100, 0)" style="fill-opacity:1.00" />
<!-- End 'T' -->
<!-- Begin 'A' -->
<polygon points=" 870.000000, 110.000000, 891.000000, 107.651429, 899.000000, 107.651429, 920.000000, 110.000000, 912.500000, 110.000000, 906.250000, 109.412857, 883.750000, 109.412857, 877.500000, 110.000000" fill="rgb(178, 34, 34)" style="fill-opacity:1.00" />
<!-- End 'A' -->
<!-- Begin 'A' -->
<polygon points=" 930.000000, 98.562949, 951.000000, 81.018111, 959.000000, 81.018111, 980.000000, 98.562949, 972.500000, 98.562949, 966.250000, 94.176740, 943.750000, 94.176740, 937.500000, 98.562949" fill="rgb(178, 34, 34)" style="fill-opacity:1.00" />
<polygon points=" 955.000000, 84.527079, 947.000000, 90.545014, 962.000000, 90.545014" fill="rgb(255, 255, 255)" style="fill-opacity:1.00" />
<!-- End 'A' -->
<!-- Begin 'G' -->
<ellipse cx="955.000000" cy="102.651673" rx="25.000000" ry="4.088723" fill="rgb(255, 165, 0)" style="fill-opacity:1.00" />
<ellipse cx="955.000000" cy="102.651673" rx="16.666667" ry="2.725815" fill="rgb(255, 255, 255)" style="fill-opacity:1.00" />
<rect height="4.088723" width="25.000000" x="955.000000" y="100.607311" fill="rgb(255, 255, 255)" style="fill-opacity:1.00" />
<rect height="1.022181" width="25.000000" x="955.000000" y="103.673853" fill="rgb(255, 165, 0)" style="fill-opacity:1.00" />
<rect height="3.066542" width="6.250000" x="973.750000" y="103.673853" fill="rgb(255, 165, 0)" style="fill-opacity:1.00" />
<!-- End 'G' -->
<!-- Begin 'C' -->
<ellipse cx="955.000000" cy="107.579063" rx="25.000000" ry="0.838667" fill="rgb(0, 0, 128)" style="fill-opacity:1.00" />
<ellipse cx="955.000000" cy="107.579063" rx="16.666667" ry="0.559111" fill="rgb(255, 255, 255)" style="fill-opacity:1.00" />
<rect height="0.838667" width="25.000000" x="955.000000" y="107.159729" fill="rgb(255, 255, 255)" style="fill-opacity:1.00" />
<!-- End 'C' -->
<!-- Begin 'T' -->
<rect height="0.253163" width="50.000000" x="930.000000" y="108.417730" fill="rgb(0, 100, 0)" style="fill-opacity:1.00" />
<rect height="1.582270" width="10.000000" x="950.000000" y="108.417730" fill="rgb(0, 100, 0)" style="fill-opacity:1.00" />
<!-- End 'T' -->
<text x="520.000000" y="165">
IC = 10.75
</text>

</svg>
