<?xml version="1.0" encoding="UTF-8" standalone="yes"?>
                 <!DOCTYPE svg PUBLIC "-//W3C//DTD SVG 1.0//EN" "http://www.w3.org/TR/2001/REC-SVG-20010904/DTD/svg10.dtd">
                 <svg height="170" width="900" xmlns="http://www.w3.org/2000/svg" xmlns:xlink="http://www.w3.org/1999/xlink">
                 <line x1="85" y1="120" x2="867" y2="120" style="stroke:rgb(99,99,99);stroke-width:2" />
<rect height="7.000000" width="2.000000" x="85.000000" y="120.000000" fill="rgb(0, 0, 0)" style="fill-opacity:1.00" />
<text x="107.000000" y="140">
1
</text>
<rect height="7.000000" width="2.000000" x="145.000000" y="120.000000" fill="rgb(0, 0, 0)" style="fill-opacity:1.00" />
<text x="167.000000" y="140">
2
</text>
<rect height="7.000000" width="2.000000" x="205.000000" y="120.000000" fill="rgb(0, 0, 0)" style="fill-opacity:1.00" />
<text x="227.000000" y="140">
3
</text>
<rect height="7.000000" width="2.000000" x="265.000000" y="120.000000" fill="rgb(0, 0, 0)" style="fill-opacity:1.00" />
<text x="287.000000" y="140">
4
</text>
<rect height="7.000000" width="2.000000" x="325.000000" y="120.000000" fill="rgb(0, 0, 0)" style="fill-opacity:1.00" />
<text x="347.000000" y="140">
5
</text>
<rect height="7.000000" width="2.000000" x="385.000000" y="120.000000" fill="rgb(0, 0, 0)" style="fill-opacity:1.00" />
<text x="407.000000" y="140">
6
</text>
<rect height="7.000000" width="2.000000" x="445.000000" y="120.000000" fill="rgb(0, 0, 0)" style="fill-opacity:1.00" />
<text x="467.000000" y="140">
7
</text>
<rect height="7.000000" width="2.000000" x="505.000000" y="120.000000" fill="rgb(0, 0, 0)" style="fill-opacity:1.00" />
<text x="527.000000" y="140">
8
</text>
<rect height="7.000000" width="2.000000" x="565.000000" y="120.000000" fill="rgb(0, 0, 0)" style="fill-opacity:1.00" />
<text x="587.000000" y="140">
9
</text>
<rect height="7.000000" width="2.000000" x="625.000000" y="120.000000" fill="rgb(0, 0, 0)" style="fill-opacity:1.00" />
<text x="647.000000" y="140">
10
</text>
<rect height="7.000000" width="2.000000" x="685.000000" y="120.000000" fill="rgb(0, 0, 0)" style="fill-opacity:1.00" />
<text x="707.000000" y="140">
11
</text>
<rect height="7.000000" width="2.000000" x="745.000000" y="120.000000" fill="rgb(0, 0, 0)" style="fill-opacity:1.00" />
<text x="767.000000" y="140">
12
</text>
<rect height="7.000000" width="2.000000" x="805.000000" y="120.000000" fill="rgb(0, 0, 0)" style="fill-opacity:1.00" />
<text x="827.000000" y="140">
13
</text>
<rect height="7.000000" width="2.000000" x="865.000000" y="120.000000" fill="rgb(0, 0, 0)" style="fill-opacity:1.00" />
<line x1="80" y1="112" x2="80" y2="10" style="stroke:rgb(99,99,99);stroke-width:2" />
<rect height="2.000000" width="7.000000" x="73.000000" y="110.000000" fill="rgb(0, 0, 0)" style="fill-opacity:1.00" />
<text x="63" y="115">
0
</text>
<rect height="2.000000" width="7.000000" x="73.000000" y="60.000000" fill="rgb(0, 0, 0)" style="fill-opacity:1.00" />
<text x="63" y="65">
1
</text>
<rect height="2.000000" width="7.000000" x="73.000000" y="10.000000" fill="rgb(0, 0, 0)" style="fill-opacity:1.00" />
<text x="63" y="15">
2
</text>
<text x="50" y="65"
transform="rotate(-90, 50, 70)">
bits
</text>
<!-- Begin 'A' -->
<polygon points=" 90.000000, 109.528972, 111.000000, 109.324315, 119.000000, 109.324315, 140.000000, 109.528972, 132.500000, 109.528972, 126.250000, 109.477808, 103.750000, 109.477808, 97.500000, 109.528972" fill="rgb(178, 34, 34)" style="fill-opacity:1.00" />
<!-- End 'A' -->
<!-- Begin 'G' -->
<ellipse cx="115.000000" cy="109.615538" rx="25.000000" ry="0.086566" fill="rgb(255, 165, 0)" style="fill-opacity:1.00" />
<ellipse cx="115.000000" cy="109.615538" rx="16.666667" ry="0.057711" fill="rgb(255, 255, 255)" style="fill-opacity:1.00" />
<rect height="0.086566" width="25.000000" x="115.000000" y="109.572255" fill="rgb(255, 255, 255)" style="fill-opacity:1.00" />
<rect height="0.021642" width="25.000000" x="115.000000" y="109.637180" fill="rgb(255, 165, 0)" style="fill-opacity:1.00" />
<rect height="0.064925" width="6.250000" x="133.750000" y="109.637180" fill="rgb(255, 165, 0)" style="fill-opacity:1.00" />
<!-- End 'G' -->
<!-- Begin 'T' -->
<rect height="0.024861" width="50.000000" x="90.000000" y="109.702105" fill="rgb(0, 100, 0)" style="fill-opacity:1.00" />
<rect height="0.155380" width="10.000000" x="110.000000" y="109.702105" fill="rgb(0, 100, 0)" style="fill-opacity:1.00" />
<!-- End 'T' -->
<!-- Begin 'C' -->
<ellipse cx="115.000000" cy="109.928742" rx="25.000000" ry="0.071258" fill="rgb(0, 0, 128)" style="fill-opacity:1.00" />
<ellipse cx="115.000000" cy="109.928742" rx="16.666667" ry="0.047505" fill="rgb(255, 255, 255)" style="fill-opacity:1.00" />
<rect height="0.071258" width="25.000000" x="115.000000" y="109.893113" fill="rgb(255, 255, 255)" style="fill-opacity:1.00" />
<!-- End 'C' -->
<!-- Begin 'A' -->
<polygon points=" 150.000000, 108.147944, 171.000000, 107.022375, 179.000000, 107.022375, 200.000000, 108.147944, 192.500000, 108.147944, 186.250000, 107.866552, 163.750000, 107.866552, 157.500000, 108.147944" fill="rgb(178, 34, 34)" style="fill-opacity:1.00" />
<!-- End 'A' -->
<!-- Begin 'G' -->
<ellipse cx="175.000000" cy="108.479263" rx="25.000000" ry="0.331319" fill="rgb(255, 165, 0)" style="fill-opacity:1.00" />
<ellipse cx="175.000000" cy="108.479263" rx="16.666667" ry="0.220879" fill="rgb(255, 255, 255)" style="fill-opacity:1.00" />
<rect height="0.331319" width="25.000000" x="175.000000" y="108.313604" fill="rgb(255, 255, 255)" style="fill-opacity:1.00" />
<rect height="0.082830" width="25.000000" x="175.000000" y="108.562093" fill="rgb(255, 165, 0)" style="fill-opacity:1.00" />
<rect height="0.248489" width="6.250000" x="193.750000" y="108.562093" fill="rgb(255, 165, 0)" style="fill-opacity:1.00" />
<!-- End 'G' -->
<!-- Begin 'T' -->
<rect height="0.100214" width="50.000000" x="150.000000" y="108.810582" fill="rgb(0, 100, 0)" style="fill-opacity:1.00" />
<rect height="0.626338" width="10.000000" x="170.000000" y="108.810582" fill="rgb(0, 100, 0)" style="fill-opacity:1.00" />
<!-- End 'T' -->
<!-- Begin 'C' -->
<ellipse cx="175.000000" cy="109.718460" rx="25.000000" ry="0.281540" fill="rgb(0, 0, 128)" style="fill-opacity:1.00" />
<ellipse cx="175.000000" cy="109.718460" rx="16.666667" ry="0.187693" fill="rgb(255, 255, 255)" style="fill-opacity:1.00" />
<rect height="0.281540" width="25.000000" x="175.000000" y="109.577690" fill="rgb(255, 255, 255)" style="fill-opacity:1.00" />
<!-- End 'C' -->
<!-- Begin 'G' -->
<ellipse cx="235.000000" cy="104.711556" rx="25.000000" ry="1.296221" fill="rgb(255, 165, 0)" style="fill-opacity:1.00" />
<ellipse cx="235.000000" cy="104.711556" rx="16.666667" ry="0.864147" fill="rgb(255, 255, 255)" style="fill-opacity:1.00" />
<rect height="1.296221" width="25.000000" x="235.000000" y="104.063446" fill="rgb(255, 255, 255)" style="fill-opacity:1.00" />
<rect height="0.324055" width="25.000000" x="235.000000" y="105.035611" fill="rgb(255, 165, 0)" style="fill-opacity:1.00" />
<rect height="0.972166" width="6.250000" x="253.750000" y="105.035611" fill="rgb(255, 165, 0)" style="fill-opacity:1.00" />
<!-- End 'G' -->
<!-- Begin 'A' -->
<polygon points=" 210.000000, 107.840532, 231.000000, 106.007777, 239.000000, 106.007777, 260.000000, 107.840532, 252.500000, 107.840532, 246.250000, 107.382343, 223.750000, 107.382343, 217.500000, 107.840532" fill="rgb(178, 34, 34)" style="fill-opacity:1.00" />
<!-- End 'A' -->
<!-- Begin 'T' -->
<rect height="0.233774" width="50.000000" x="210.000000" y="107.840532" fill="rgb(0, 100, 0)" style="fill-opacity:1.00" />
<rect height="1.461090" width="10.000000" x="230.000000" y="107.840532" fill="rgb(0, 100, 0)" style="fill-opacity:1.00" />
<!-- End 'T' -->
<!-- Begin 'C' -->
<ellipse cx="235.000000" cy="109.650811" rx="25.000000" ry="0.349189" fill="rgb(0, 0, 128)" style="fill-opacity:1.00" />
<ellipse cx="235.000000" cy="109.650811" rx="16.666667" ry="0.232793" fill="rgb(255, 255, 255)" style="fill-opacity:1.00" />
<rect height="0.349189" width="25.000000" x="235.000000" y="109.476217" fill="rgb(255, 255, 255)" style="fill-opacity:1.00" />
<!-- End 'C' -->
<!-- Begin 'G' -->
<ellipse cx="295.000000" cy="99.485938" rx="25.000000" ry="3.412389" fill="rgb(255, 165, 0)" style="fill-opacity:1.00" />
<ellipse cx="295.000000" cy="99.485938" rx="16.666667" ry="2.274926" fill="rgb(255, 255, 255)" style="fill-opacity:1.00" />
<rect height="3.412389" width="25.000000" x="295.000000" y="97.779744" fill="rgb(255, 255, 255)" style="fill-opacity:1.00" />
<rect height="0.853097" width="25.000000" x="295.000000" y="100.339036" fill="rgb(255, 165, 0)" style="fill-opacity:1.00" />
<rect height="2.559292" width="6.250000" x="313.750000" y="100.339036" fill="rgb(255, 165, 0)" style="fill-opacity:1.00" />
<!-- End 'G' -->
<!-- Begin 'C' -->
<ellipse cx="295.000000" cy="104.855025" rx="25.000000" ry="1.956697" fill="rgb(0, 0, 128)" style="fill-opacity:1.00" />
<ellipse cx="295.000000" cy="104.855025" rx="16.666667" ry="1.304465" fill="rgb(255, 255, 255)" style="fill-opacity:1.00" />
<rect height="1.956697" width="25.000000" x="295.000000" y="103.876676" fill="rgb(255, 255, 255)" style="fill-opacity:1.00" />
<!-- End 'C' -->
<!-- Begin 'A' -->
<polygon points=" 270.000000, 108.854869, 291.000000, 106.811722, 299.000000, 106.811722, 320.000000, 108.854869, 312.500000, 108.854869, 306.250000, 108.344083, 283.750000, 108.344083, 277.500000, 108.854869" fill="rgb(178, 34, 34)" style="fill-opacity:1.00" />
<!-- End 'A' -->
<!-- Begin 'T' -->
<rect height="0.183221" width="50.000000" x="270.000000" y="108.854869" fill="rgb(0, 100, 0)" style="fill-opacity:1.00" />
<rect height="1.145131" width="10.000000" x="290.000000" y="108.854869" fill="rgb(0, 100, 0)" style="fill-opacity:1.00" />
<!-- End 'T' -->
<!-- Begin 'T' -->
<rect height="2.887591" width="50.000000" x="330.000000" y="79.222975" fill="rgb(0, 100, 0)" style="fill-opacity:1.00" />
<rect height="18.047445" width="10.000000" x="350.000000" y="79.222975" fill="rgb(0, 100, 0)" style="fill-opacity:1.00" />
<!-- End 'T' -->
<!-- Begin 'A' -->
<polygon points=" 330.000000, 107.035159, 351.000000, 97.270419, 359.000000, 97.270419, 380.000000, 107.035159, 372.500000, 107.035159, 366.250000, 104.593974, 343.750000, 104.593974, 337.500000, 107.035159" fill="rgb(178, 34, 34)" style="fill-opacity:1.00" />
<polygon points=" 355.000000, 99.223367, 347.000000, 102.129263, 362.000000, 102.129263" fill="rgb(255, 255, 255)" style="fill-opacity:1.00" />
<!-- End 'A' -->
<!-- Begin 'G' -->
<ellipse cx="355.000000" cy="108.104508" rx="25.000000" ry="1.069349" fill="rgb(255, 165, 0)" style="fill-opacity:1.00" />
<ellipse cx="355.000000" cy="108.104508" rx="16.666667" ry="0.712900" fill="rgb(255, 255, 255)" style="fill-opacity:1.00" />
<rect height="1.069349" width="25.000000" x="355.000000" y="107.569834" fill="rgb(255, 255, 255)" style="fill-opacity:1.00" />
<rect height="0.267337" width="25.000000" x="355.000000" y="108.371846" fill="rgb(255, 165, 0)" style="fill-opacity:1.00" />
<rect height="0.802012" width="6.250000" x="373.750000" y="108.371846" fill="rgb(255, 165, 0)" style="fill-opacity:1.00" />
<!-- End 'G' -->
<!-- Begin 'C' -->
<ellipse cx="355.000000" cy="109.586929" rx="25.000000" ry="0.413071" fill="rgb(0, 0, 128)" style="fill-opacity:1.00" />
<ellipse cx="355.000000" cy="109.586929" rx="16.666667" ry="0.275381" fill="rgb(255, 255, 255)" style="fill-opacity:1.00" />
<rect height="0.413071" width="25.000000" x="355.000000" y="109.380393" fill="rgb(255, 255, 255)" style="fill-opacity:1.00" />
<!-- End 'C' -->
<!-- Begin 'G' -->
<ellipse cx="415.000000" cy="64.532026" rx="25.000000" ry="42.255143" fill="rgb(255, 165, 0)" style="fill-opacity:1.00" />
<ellipse cx="415.000000" cy="64.532026" rx="16.666667" ry="28.170095" fill="rgb(255, 255, 255)" style="fill-opacity:1.00" />
<rect height="42.255143" width="25.000000" x="415.000000" y="43.404455" fill="rgb(255, 255, 255)" style="fill-opacity:1.00" />
<rect height="10.563786" width="25.000000" x="415.000000" y="75.095812" fill="rgb(255, 165, 0)" style="fill-opacity:1.00" />
<rect height="31.691357" width="6.250000" x="433.750000" y="75.095812" fill="rgb(255, 165, 0)" style="fill-opacity:1.00" />
<!-- End 'G' -->
<!-- Begin 'A' -->
<polygon points=" 390.000000, 109.717585, 411.000000, 106.787169, 419.000000, 106.787169, 440.000000, 109.717585, 432.500000, 109.717585, 426.250000, 108.984981, 403.750000, 108.984981, 397.500000, 109.717585" fill="rgb(178, 34, 34)" style="fill-opacity:1.00" />
<!-- End 'A' -->
<!-- Begin 'C' -->
<ellipse cx="415.000000" cy="109.791716" rx="25.000000" ry="0.074131" fill="rgb(0, 0, 128)" style="fill-opacity:1.00" />
<ellipse cx="415.000000" cy="109.791716" rx="16.666667" ry="0.049421" fill="rgb(255, 255, 255)" style="fill-opacity:1.00" />
<rect height="0.074131" width="25.000000" x="415.000000" y="109.754651" fill="rgb(255, 255, 255)" style="fill-opacity:1.00" />
<!-- End 'C' -->
<!-- Begin 'T' -->
<rect height="0.021464" width="50.000000" x="390.000000" y="109.865848" fill="rgb(0, 100, 0)" style="fill-opacity:1.00" />
<rect height="0.134152" width="10.000000" x="410.000000" y="109.865848" fill="rgb(0, 100, 0)" style="fill-opacity:1.00" />
<!-- End 'T' -->
<!-- Begin 'A' -->
<polygon points=" 450.000000, 103.001549, 471.000000, 98.081295, 479.000000, 98.081295, 500.000000, 103.001549, 492.500000, 103.001549, 486.250000, 101.771486, 463.750000, 101.771486, 457.500000, 103.001549" fill="rgb(178, 34, 34)" style="fill-opacity:1.00" />
<!-- End 'A' -->
<!-- Begin 'T' -->
<rect height="0.683103" width="50.000000" x="450.000000" y="103.001549" fill="rgb(0, 100, 0)" style="fill-opacity:1.00" />
<rect height="4.269393" width="10.000000" x="470.000000" y="103.001549" fill="rgb(0, 100, 0)" style="fill-opacity:1.00" />
<!-- End 'T' -->
<!-- Begin 'G' -->
<ellipse cx="475.000000" cy="108.134457" rx="25.000000" ry="0.863515" fill="rgb(255, 165, 0)" style="fill-opacity:1.00" />
<ellipse cx="475.000000" cy="108.134457" rx="16.666667" ry="0.575677" fill="rgb(255, 255, 255)" style="fill-opacity:1.00" />
<rect height="0.863515" width="25.000000" x="475.000000" y="107.702700" fill="rgb(255, 255, 255)" style="fill-opacity:1.00" />
<rect height="0.215879" width="25.000000" x="475.000000" y="108.350336" fill="rgb(255, 165, 0)" style="fill-opacity:1.00" />
<rect height="0.647637" width="6.250000" x="493.750000" y="108.350336" fill="rgb(255, 165, 0)" style="fill-opacity:1.00" />
<!-- End 'G' -->
<!-- Begin 'C' -->
<ellipse cx="475.000000" cy="109.498986" rx="25.000000" ry="0.501014" fill="rgb(0, 0, 128)" style="fill-opacity:1.00" />
<ellipse cx="475.000000" cy="109.498986" rx="16.666667" ry="0.334009" fill="rgb(255, 255, 255)" style="fill-opacity:1.00" />
<rect height="0.501014" width="25.000000" x="475.000000" y="109.248480" fill="rgb(255, 255, 255)" style="fill-opacity:1.00" />
<!-- End 'C' -->
<!-- Begin 'T' -->
<rect height="1.253755" width="50.000000" x="510.000000" y="93.380160" fill="rgb(0, 100, 0)" style="fill-opacity:1.00" />
<rect height="7.835968" width="10.000000" x="530.000000" y="93.380160" fill="rgb(0, 100, 0)" style="fill-opacity:1.00" />
<!-- End 'T' -->
<!-- Begin 'G' -->
<ellipse cx="535.000000" cy="104.105909" rx="25.000000" ry="2.889781" fill="rgb(255, 165, 0)" style="fill-opacity:1.00" />
<ellipse cx="535.000000" cy="104.105909" rx="16.666667" ry="1.926520" fill="rgb(255, 255, 255)" style="fill-opacity:1.00" />
<rect height="2.889781" width="25.000000" x="535.000000" y="102.661019" fill="rgb(255, 255, 255)" style="fill-opacity:1.00" />
<rect height="0.722445" width="25.000000" x="535.000000" y="104.828354" fill="rgb(255, 165, 0)" style="fill-opacity:1.00" />
<rect height="2.167335" width="6.250000" x="553.750000" y="104.828354" fill="rgb(255, 165, 0)" style="fill-opacity:1.00" />
<!-- End 'G' -->
<!-- Begin 'A' -->
<polygon points=" 510.000000, 108.601026, 531.000000, 106.995690, 539.000000, 106.995690, 560.000000, 108.601026, 552.500000, 108.601026, 546.250000, 108.199692, 523.750000, 108.199692, 517.500000, 108.601026" fill="rgb(178, 34, 34)" style="fill-opacity:1.00" />
<!-- End 'A' -->
<!-- Begin 'C' -->
<ellipse cx="535.000000" cy="109.300513" rx="25.000000" ry="0.699487" fill="rgb(0, 0, 128)" style="fill-opacity:1.00" />
<ellipse cx="535.000000" cy="109.300513" rx="16.666667" ry="0.466325" fill="rgb(255, 255, 255)" style="fill-opacity:1.00" />
<rect height="0.699487" width="25.000000" x="535.000000" y="108.950770" fill="rgb(255, 255, 255)" style="fill-opacity:1.00" />
<!-- End 'C' -->
<!-- Begin 'A' -->
<polygon points=" 570.000000, 98.741140, 591.000000, 70.539284, 599.000000, 70.539284, 620.000000, 98.741140, 612.500000, 98.741140, 606.250000, 91.690676, 583.750000, 91.690676, 577.500000, 98.741140" fill="rgb(178, 34, 34)" style="fill-opacity:1.00" />
<polygon points=" 595.000000, 76.179655, 587.000000, 86.460398, 602.000000, 86.460398" fill="rgb(255, 255, 255)" style="fill-opacity:1.00" />
<!-- End 'A' -->
<!-- Begin 'G' -->
<ellipse cx="595.000000" cy="101.442884" rx="25.000000" ry="2.701744" fill="rgb(255, 165, 0)" style="fill-opacity:1.00" />
<ellipse cx="595.000000" cy="101.442884" rx="16.666667" ry="1.801162" fill="rgb(255, 255, 255)" style="fill-opacity:1.00" />
<rect height="2.701744" width="25.000000" x="595.000000" y="100.092012" fill="rgb(255, 255, 255)" style="fill-opacity:1.00" />
<rect height="0.675436" width="25.000000" x="595.000000" y="102.118320" fill="rgb(255, 165, 0)" style="fill-opacity:1.00" />
<rect height="2.026308" width="6.250000" x="613.750000" y="102.118320" fill="rgb(255, 165, 0)" style="fill-opacity:1.00" />
<!-- End 'G' -->
<!-- Begin 'T' -->
<rect height="0.855474" width="50.000000" x="570.000000" y="104.144628" fill="rgb(0, 100, 0)" style="fill-opacity:1.00" />
<rect height="5.346711" width="10.000000" x="590.000000" y="104.144628" fill="rgb(0, 100, 0)" style="fill-opacity:1.00" />
<!-- End 'T' -->
<!-- Begin 'C' -->
<ellipse cx="595.000000" cy="109.745669" rx="25.000000" ry="0.254331" fill="rgb(0, 0, 128)" style="fill-opacity:1.00" />
<ellipse cx="595.000000" cy="109.745669" rx="16.666667" ry="0.169554" fill="rgb(255, 255, 255)" style="fill-opacity:1.00" />
<rect height="0.254331" width="25.000000" x="595.000000" y="109.618504" fill="rgb(255, 255, 255)" style="fill-opacity:1.00" />
<!-- End 'C' -->
<!-- Begin 'A' -->
<polygon points=" 630.000000, 102.135219, 651.000000, 91.896726, 659.000000, 91.896726, 680.000000, 102.135219, 672.500000, 102.135219, 666.250000, 99.575596, 643.750000, 99.575596, 637.500000, 102.135219" fill="rgb(178, 34, 34)" style="fill-opacity:1.00" />
<polygon points=" 655.000000, 93.944424, 647.000000, 97.039822, 662.000000, 97.039822" fill="rgb(255, 255, 255)" style="fill-opacity:1.00" />
<!-- End 'A' -->
<!-- Begin 'G' -->
<ellipse cx="655.000000" cy="104.047848" rx="25.000000" ry="1.912629" fill="rgb(255, 165, 0)" style="fill-opacity:1.00" />
<ellipse cx="655.000000" cy="104.047848" rx="16.666667" ry="1.275086" fill="rgb(255, 255, 255)" style="fill-opacity:1.00" />
<rect height="1.912629" width="25.000000" x="655.000000" y="103.091534" fill="rgb(255, 255, 255)" style="fill-opacity:1.00" />
<rect height="0.478157" width="25.000000" x="655.000000" y="104.526006" fill="rgb(255, 165, 0)" style="fill-opacity:1.00" />
<rect height="1.434472" width="6.250000" x="673.750000" y="104.526006" fill="rgb(255, 165, 0)" style="fill-opacity:1.00" />
<!-- End 'G' -->
<!-- Begin 'T' -->
<rect height="0.390178" width="50.000000" x="630.000000" y="105.960477" fill="rgb(0, 100, 0)" style="fill-opacity:1.00" />
<rect height="2.438613" width="10.000000" x="650.000000" y="105.960477" fill="rgb(0, 100, 0)" style="fill-opacity:1.00" />
<!-- End 'T' -->
<!-- Begin 'C' -->
<ellipse cx="655.000000" cy="109.199545" rx="25.000000" ry="0.800455" fill="rgb(0, 0, 128)" style="fill-opacity:1.00" />
<ellipse cx="655.000000" cy="109.199545" rx="16.666667" ry="0.533637" fill="rgb(255, 255, 255)" style="fill-opacity:1.00" />
<rect height="0.800455" width="25.000000" x="655.000000" y="108.799318" fill="rgb(255, 255, 255)" style="fill-opacity:1.00" />
<!-- End 'C' -->
<!-- Begin 'T' -->
<rect height="0.012957" width="50.000000" x="690.000000" y="109.709088" fill="rgb(0, 100, 0)" style="fill-opacity:1.00" />
<rect height="0.080981" width="10.000000" x="710.000000" y="109.709088" fill="rgb(0, 100, 0)" style="fill-opacity:1.00" />
<!-- End 'T' -->
<!-- Begin 'G' -->
<ellipse cx="715.000000" cy="109.827860" rx="25.000000" ry="0.037792" fill="rgb(255, 165, 0)" style="fill-opacity:1.00" />
<ellipse cx="715.000000" cy="109.827860" rx="16.666667" ry="0.025195" fill="rgb(255, 255, 255)" style="fill-opacity:1.00" />
<rect height="0.037792" width="25.000000" x="715.000000" y="109.808964" fill="rgb(255, 255, 255)" style="fill-opacity:1.00" />
<rect height="0.009448" width="25.000000" x="715.000000" y="109.837308" fill="rgb(255, 165, 0)" style="fill-opacity:1.00" />
<rect height="0.028344" width="6.250000" x="733.750000" y="109.837308" fill="rgb(255, 165, 0)" style="fill-opacity:1.00" />
<!-- End 'G' -->
<!-- Begin 'A' -->
<polygon points=" 690.000000, 109.936765, 711.000000, 109.865652, 719.000000, 109.865652, 740.000000, 109.936765, 732.500000, 109.936765, 726.250000, 109.918986, 703.750000, 109.918986, 697.500000, 109.936765" fill="rgb(178, 34, 34)" style="fill-opacity:1.00" />
<!-- End 'A' -->
<!-- Begin 'C' -->
<ellipse cx="715.000000" cy="109.968382" rx="25.000000" ry="0.031618" fill="rgb(0, 0, 128)" style="fill-opacity:1.00" />
<ellipse cx="715.000000" cy="109.968382" rx="16.666667" ry="0.021078" fill="rgb(255, 255, 255)" style="fill-opacity:1.00" />
<rect height="0.031618" width="25.000000" x="715.000000" y="109.952573" fill="rgb(255, 255, 255)" style="fill-opacity:1.00" />
<!-- End 'C' -->
<!-- Begin 'A' -->
<polygon points=" 750.000000, 109.110988, 771.000000, 108.707813, 779.000000, 108.707813, 800.000000, 109.110988, 792.500000, 109.110988, 786.250000, 109.010195, 763.750000, 109.010195, 757.500000, 109.110988" fill="rgb(178, 34, 34)" style="fill-opacity:1.00" />
<!-- End 'A' -->
<!-- Begin 'T' -->
<rect height="0.054196" width="50.000000" x="750.000000" y="109.110988" fill="rgb(0, 100, 0)" style="fill-opacity:1.00" />
<rect height="0.338725" width="10.000000" x="770.000000" y="109.110988" fill="rgb(0, 100, 0)" style="fill-opacity:1.00" />
<!-- End 'T' -->
<!-- Begin 'G' -->
<ellipse cx="775.000000" cy="109.607707" rx="25.000000" ry="0.157993" fill="rgb(255, 165, 0)" style="fill-opacity:1.00" />
<ellipse cx="775.000000" cy="109.607707" rx="16.666667" ry="0.105329" fill="rgb(255, 255, 255)" style="fill-opacity:1.00" />
<rect height="0.157993" width="25.000000" x="775.000000" y="109.528710" fill="rgb(255, 255, 255)" style="fill-opacity:1.00" />
<rect height="0.039498" width="25.000000" x="775.000000" y="109.647205" fill="rgb(255, 165, 0)" style="fill-opacity:1.00" />
<rect height="0.118495" width="6.250000" x="793.750000" y="109.647205" fill="rgb(255, 165, 0)" style="fill-opacity:1.00" />
<!-- End 'G' -->
<!-- Begin 'C' -->
<ellipse cx="775.000000" cy="109.882850" rx="25.000000" ry="0.117150" fill="rgb(0, 0, 128)" style="fill-opacity:1.00" />
<ellipse cx="775.000000" cy="109.882850" rx="16.666667" ry="0.078100" fill="rgb(255, 255, 255)" style="fill-opacity:1.00" />
<rect height="0.117150" width="25.000000" x="775.000000" y="109.824275" fill="rgb(255, 255, 255)" style="fill-opacity:1.00" />
<!-- End 'C' -->
<!-- Begin 'A' -->
<polygon points=" 810.000000, 108.998170, 831.000000, 108.508897, 839.000000, 108.508897, 860.000000, 108.998170, 852.500000, 108.998170, 846.250000, 108.875852, 823.750000, 108.875852, 817.500000, 108.998170" fill="rgb(178, 34, 34)" style="fill-opacity:1.00" />
<!-- End 'A' -->
<!-- Begin 'T' -->
<rect height="0.058471" width="50.000000" x="810.000000" y="108.998170" fill="rgb(0, 100, 0)" style="fill-opacity:1.00" />
<rect height="0.365443" width="10.000000" x="830.000000" y="108.998170" fill="rgb(0, 100, 0)" style="fill-opacity:1.00" />
<!-- End 'T' -->
<!-- Begin 'G' -->
<ellipse cx="835.000000" cy="109.544119" rx="25.000000" ry="0.180505" fill="rgb(255, 165, 0)" style="fill-opacity:1.00" />
<ellipse cx="835.000000" cy="109.544119" rx="16.666667" ry="0.120337" fill="rgb(255, 255, 255)" style="fill-opacity:1.00" />
<rect height="0.180505" width="25.000000" x="835.000000" y="109.453866" fill="rgb(255, 255, 255)" style="fill-opacity:1.00" />
<rect height="0.045126" width="25.000000" x="835.000000" y="109.589245" fill="rgb(255, 165, 0)" style="fill-opacity:1.00" />
<rect height="0.135379" width="6.250000" x="853.750000" y="109.589245" fill="rgb(255, 165, 0)" style="fill-opacity:1.00" />
<!-- End 'G' -->
<!-- Begin 'C' -->
<ellipse cx="835.000000" cy="109.862312" rx="25.000000" ry="0.137688" fill="rgb(0, 0, 128)" style="fill-opacity:1.00" />
<ellipse cx="835.000000" cy="109.862312" rx="16.666667" ry="0.091792" fill="rgb(255, 255, 255)" style="fill-opacity:1.00" />
<rect height="0.137688" width="25.000000" x="835.000000" y="109.793468" fill="rgb(255, 255, 255)" style="fill-opacity:1.00" />
<!-- End 'C' -->
<text x="460.000000" y="165">
IC = 4.64
</text>

</svg>
