<?xml version="1.0" encoding="UTF-8" standalone="yes"?>
                 <!DOCTYPE svg PUBLIC "-//W3C//DTD SVG 1.0//EN" "http://www.w3.org/TR/2001/REC-SVG-20010904/DTD/svg10.dtd">
                 <svg height="170" width="960" xmlns="http://www.w3.org/2000/svg" xmlns:xlink="http://www.w3.org/1999/xlink">
                 <line x1="85" y1="120" x2="927" y2="120" style="stroke:rgb(99,99,99);stroke-width:2" />
<rect height="7.000000" width="2.000000" x="85.000000" y="120.000000" fill="rgb(0, 0, 0)" style="fill-opacity:1.00" />
<text x="107.000000" y="140">
1
</text>
<rect height="7.000000" width="2.000000" x="145.000000" y="120.000000" fill="rgb(0, 0, 0)" style="fill-opacity:1.00" />
<text x="167.000000" y="140">
2
</text>
<rect height="7.000000" width="2.000000" x="205.000000" y="120.000000" fill="rgb(0, 0, 0)" style="fill-opacity:1.00" />
<text x="227.000000" y="140">
3
</text>
<rect height="7.000000" width="2.000000" x="265.000000" y="120.000000" fill="rgb(0, 0, 0)" style="fill-opacity:1.00" />
<text x="287.000000" y="140">
4
</text>
<rect height="7.000000" width="2.000000" x="325.000000" y="120.000000" fill="rgb(0, 0, 0)" style="fill-opacity:1.00" />
<text x="347.000000" y="140">
5
</text>
<rect height="7.000000" width="2.000000" x="385.000000" y="120.000000" fill="rgb(0, 0, 0)" style="fill-opacity:1.00" />
<text x="407.000000" y="140">
6
</text>
<rect height="7.000000" width="2.000000" x="445.000000" y="120.000000" fill="rgb(0, 0, 0)" style="fill-opacity:1.00" />
<text x="467.000000" y="140">
7
</text>
<rect height="7.000000" width="2.000000" x="505.000000" y="120.000000" fill="rgb(0, 0, 0)" style="fill-opacity:1.00" />
<text x="527.000000" y="140">
8
</text>
<rect height="7.000000" width="2.000000" x="565.000000" y="120.000000" fill="rgb(0, 0, 0)" style="fill-opacity:1.00" />
<text x="587.000000" y="140">
9
</text>
<rect height="7.000000" width="2.000000" x="625.000000" y="120.000000" fill="rgb(0, 0, 0)" style="fill-opacity:1.00" />
<text x="647.000000" y="140">
10
</text>
<rect height="7.000000" width="2.000000" x="685.000000" y="120.000000" fill="rgb(0, 0, 0)" style="fill-opacity:1.00" />
<text x="707.000000" y="140">
11
</text>
<rect height="7.000000" width="2.000000" x="745.000000" y="120.000000" fill="rgb(0, 0, 0)" style="fill-opacity:1.00" />
<text x="767.000000" y="140">
12
</text>
<rect height="7.000000" width="2.000000" x="805.000000" y="120.000000" fill="rgb(0, 0, 0)" style="fill-opacity:1.00" />
<text x="827.000000" y="140">
13
</text>
<rect height="7.000000" width="2.000000" x="865.000000" y="120.000000" fill="rgb(0, 0, 0)" style="fill-opacity:1.00" />
<text x="887.000000" y="140">
14
</text>
<rect height="7.000000" width="2.000000" x="925.000000" y="120.000000" fill="rgb(0, 0, 0)" style="fill-opacity:1.00" />
<line x1="80" y1="112" x2="80" y2="10" style="stroke:rgb(99,99,99);stroke-width:2" />
<rect height="2.000000" width="7.000000" x="73.000000" y="110.000000" fill="rgb(0, 0, 0)" style="fill-opacity:1.00" />
<text x="63" y="115">
0
</text>
<rect height="2.000000" width="7.000000" x="73.000000" y="60.000000" fill="rgb(0, 0, 0)" style="fill-opacity:1.00" />
<text x="63" y="65">
1
</text>
<rect height="2.000000" width="7.000000" x="73.000000" y="10.000000" fill="rgb(0, 0, 0)" style="fill-opacity:1.00" />
<text x="63" y="15">
2
</text>
<text x="50" y="65"
transform="rotate(-90, 50, 70)">
bits
</text>
<!-- Begin 'C' -->
<ellipse cx="115.000000" cy="101.659996" rx="25.000000" ry="2.542700" fill="rgb(0, 0, 128)" style="fill-opacity:1.00" />
<ellipse cx="115.000000" cy="101.659996" rx="16.666667" ry="1.695134" fill="rgb(255, 255, 255)" style="fill-opacity:1.00" />
<rect height="2.542700" width="25.000000" x="115.000000" y="100.388646" fill="rgb(255, 255, 255)" style="fill-opacity:1.00" />
<!-- End 'C' -->
<!-- Begin 'G' -->
<ellipse cx="115.000000" cy="105.571467" rx="25.000000" ry="1.368771" fill="rgb(255, 165, 0)" style="fill-opacity:1.00" />
<ellipse cx="115.000000" cy="105.571467" rx="16.666667" ry="0.912514" fill="rgb(255, 255, 255)" style="fill-opacity:1.00" />
<rect height="1.368771" width="25.000000" x="115.000000" y="104.887082" fill="rgb(255, 255, 255)" style="fill-opacity:1.00" />
<rect height="0.342193" width="25.000000" x="115.000000" y="105.913660" fill="rgb(255, 165, 0)" style="fill-opacity:1.00" />
<rect height="1.026578" width="6.250000" x="133.750000" y="105.913660" fill="rgb(255, 165, 0)" style="fill-opacity:1.00" />
<!-- End 'G' -->
<!-- Begin 'T' -->
<rect height="0.333476" width="50.000000" x="90.000000" y="106.940238" fill="rgb(0, 100, 0)" style="fill-opacity:1.00" />
<rect height="2.084224" width="10.000000" x="110.000000" y="106.940238" fill="rgb(0, 100, 0)" style="fill-opacity:1.00" />
<!-- End 'T' -->
<!-- Begin 'A' -->
<polygon points=" 90.000000, 110.000000, 111.000000, 109.024462, 119.000000, 109.024462, 140.000000, 110.000000, 132.500000, 110.000000, 126.250000, 109.756116, 103.750000, 109.756116, 97.500000, 110.000000" fill="rgb(178, 34, 34)" style="fill-opacity:1.00" />
<!-- End 'A' -->
<!-- Begin 'C' -->
<ellipse cx="175.000000" cy="97.884550" rx="25.000000" ry="4.694805" fill="rgb(0, 0, 128)" style="fill-opacity:1.00" />
<ellipse cx="175.000000" cy="97.884550" rx="16.666667" ry="3.129870" fill="rgb(255, 255, 255)" style="fill-opacity:1.00" />
<rect height="4.694805" width="25.000000" x="175.000000" y="95.537147" fill="rgb(255, 255, 255)" style="fill-opacity:1.00" />
<!-- End 'C' -->
<!-- Begin 'T' -->
<rect height="0.558331" width="50.000000" x="150.000000" y="102.579355" fill="rgb(0, 100, 0)" style="fill-opacity:1.00" />
<rect height="3.489568" width="10.000000" x="170.000000" y="102.579355" fill="rgb(0, 100, 0)" style="fill-opacity:1.00" />
<!-- End 'T' -->
<!-- Begin 'A' -->
<polygon points=" 150.000000, 108.135241, 171.000000, 106.068923, 179.000000, 106.068923, 200.000000, 108.135241, 192.500000, 108.135241, 186.250000, 107.618661, 163.750000, 107.618661, 157.500000, 108.135241" fill="rgb(178, 34, 34)" style="fill-opacity:1.00" />
<!-- End 'A' -->
<!-- Begin 'G' -->
<ellipse cx="175.000000" cy="109.067620" rx="25.000000" ry="0.932380" fill="rgb(255, 165, 0)" style="fill-opacity:1.00" />
<ellipse cx="175.000000" cy="109.067620" rx="16.666667" ry="0.621586" fill="rgb(255, 255, 255)" style="fill-opacity:1.00" />
<rect height="0.932380" width="25.000000" x="175.000000" y="108.601431" fill="rgb(255, 255, 255)" style="fill-opacity:1.00" />
<rect height="0.233095" width="25.000000" x="175.000000" y="109.300715" fill="rgb(255, 165, 0)" style="fill-opacity:1.00" />
<rect height="0.699285" width="6.250000" x="193.750000" y="109.300715" fill="rgb(255, 165, 0)" style="fill-opacity:1.00" />
<!-- End 'G' -->
<!-- Begin 'C' -->
<ellipse cx="235.000000" cy="100.971267" rx="25.000000" ry="2.957435" fill="rgb(0, 0, 128)" style="fill-opacity:1.00" />
<ellipse cx="235.000000" cy="100.971267" rx="16.666667" ry="1.971624" fill="rgb(255, 255, 255)" style="fill-opacity:1.00" />
<rect height="2.957435" width="25.000000" x="235.000000" y="99.492550" fill="rgb(255, 255, 255)" style="fill-opacity:1.00" />
<!-- End 'C' -->
<!-- Begin 'T' -->
<rect height="0.437681" width="50.000000" x="210.000000" y="103.928703" fill="rgb(0, 100, 0)" style="fill-opacity:1.00" />
<rect height="2.735506" width="10.000000" x="230.000000" y="103.928703" fill="rgb(0, 100, 0)" style="fill-opacity:1.00" />
<!-- End 'T' -->
<!-- Begin 'G' -->
<ellipse cx="235.000000" cy="107.764570" rx="25.000000" ry="1.100362" fill="rgb(255, 165, 0)" style="fill-opacity:1.00" />
<ellipse cx="235.000000" cy="107.764570" rx="16.666667" ry="0.733574" fill="rgb(255, 255, 255)" style="fill-opacity:1.00" />
<rect height="1.100362" width="25.000000" x="235.000000" y="107.214389" fill="rgb(255, 255, 255)" style="fill-opacity:1.00" />
<rect height="0.275090" width="25.000000" x="235.000000" y="108.039660" fill="rgb(255, 165, 0)" style="fill-opacity:1.00" />
<rect height="0.825271" width="6.250000" x="253.750000" y="108.039660" fill="rgb(255, 165, 0)" style="fill-opacity:1.00" />
<!-- End 'G' -->
<!-- Begin 'A' -->
<polygon points=" 210.000000, 110.000000, 231.000000, 108.864931, 239.000000, 108.864931, 260.000000, 110.000000, 252.500000, 110.000000, 246.250000, 109.716233, 223.750000, 109.716233, 217.500000, 110.000000" fill="rgb(178, 34, 34)" style="fill-opacity:1.00" />
<!-- End 'A' -->
<!-- Begin 'C' -->
<ellipse cx="295.000000" cy="73.622828" rx="25.000000" ry="26.936872" fill="rgb(0, 0, 128)" style="fill-opacity:1.00" />
<ellipse cx="295.000000" cy="73.622828" rx="16.666667" ry="17.957915" fill="rgb(255, 255, 255)" style="fill-opacity:1.00" />
<rect height="26.936872" width="25.000000" x="295.000000" y="60.154392" fill="rgb(255, 255, 255)" style="fill-opacity:1.00" />
<!-- End 'C' -->
<!-- Begin 'A' -->
<polygon points=" 270.000000, 107.459175, 291.000000, 100.559700, 299.000000, 100.559700, 320.000000, 107.459175, 312.500000, 107.459175, 306.250000, 105.734307, 283.750000, 105.734307, 277.500000, 107.459175" fill="rgb(178, 34, 34)" style="fill-opacity:1.00" />
<!-- End 'A' -->
<!-- Begin 'T' -->
<rect height="0.405706" width="50.000000" x="270.000000" y="107.459175" fill="rgb(0, 100, 0)" style="fill-opacity:1.00" />
<rect height="2.535660" width="10.000000" x="290.000000" y="107.459175" fill="rgb(0, 100, 0)" style="fill-opacity:1.00" />
<!-- End 'T' -->
<!-- Begin 'G' -->
<ellipse cx="295.000000" cy="109.997418" rx="25.000000" ry="0.002582" fill="rgb(255, 165, 0)" style="fill-opacity:1.00" />
<ellipse cx="295.000000" cy="109.997418" rx="16.666667" ry="0.001721" fill="rgb(255, 255, 255)" style="fill-opacity:1.00" />
<rect height="0.002582" width="25.000000" x="295.000000" y="109.996127" fill="rgb(255, 255, 255)" style="fill-opacity:1.00" />
<rect height="0.000646" width="25.000000" x="295.000000" y="109.998063" fill="rgb(255, 165, 0)" style="fill-opacity:1.00" />
<rect height="0.001937" width="6.250000" x="313.750000" y="109.998063" fill="rgb(255, 165, 0)" style="fill-opacity:1.00" />
<!-- End 'G' -->
<!-- Begin 'C' -->
<ellipse cx="355.000000" cy="66.799834" rx="25.000000" ry="38.628190" fill="rgb(0, 0, 128)" style="fill-opacity:1.00" />
<ellipse cx="355.000000" cy="66.799834" rx="16.666667" ry="25.752127" fill="rgb(255, 255, 255)" style="fill-opacity:1.00" />
<rect height="38.628190" width="25.000000" x="355.000000" y="47.485739" fill="rgb(255, 255, 255)" style="fill-opacity:1.00" />
<!-- End 'C' -->
<!-- Begin 'T' -->
<rect height="0.480558" width="50.000000" x="330.000000" y="105.428024" fill="rgb(0, 100, 0)" style="fill-opacity:1.00" />
<rect height="3.003488" width="10.000000" x="350.000000" y="105.428024" fill="rgb(0, 100, 0)" style="fill-opacity:1.00" />
<!-- End 'T' -->
<!-- Begin 'A' -->
<polygon points=" 330.000000, 109.993326, 351.000000, 108.431512, 359.000000, 108.431512, 380.000000, 109.993326, 372.500000, 109.993326, 366.250000, 109.602872, 343.750000, 109.602872, 337.500000, 109.993326" fill="rgb(178, 34, 34)" style="fill-opacity:1.00" />
<!-- End 'A' -->
<!-- Begin 'G' -->
<ellipse cx="355.000000" cy="109.996663" rx="25.000000" ry="0.003337" fill="rgb(255, 165, 0)" style="fill-opacity:1.00" />
<ellipse cx="355.000000" cy="109.996663" rx="16.666667" ry="0.002225" fill="rgb(255, 255, 255)" style="fill-opacity:1.00" />
<rect height="0.003337" width="25.000000" x="355.000000" y="109.994994" fill="rgb(255, 255, 255)" style="fill-opacity:1.00" />
<rect height="0.000834" width="25.000000" x="355.000000" y="109.997497" fill="rgb(255, 165, 0)" style="fill-opacity:1.00" />
<rect height="0.002503" width="6.250000" x="373.750000" y="109.997497" fill="rgb(255, 165, 0)" style="fill-opacity:1.00" />
<!-- End 'G' -->
<!-- Begin 'G' -->
<ellipse cx="415.000000" cy="89.506797" rx="25.000000" ry="7.929973" fill="rgb(255, 165, 0)" style="fill-opacity:1.00" />
<ellipse cx="415.000000" cy="89.506797" rx="16.666667" ry="5.286649" fill="rgb(255, 255, 255)" style="fill-opacity:1.00" />
<rect height="7.929973" width="25.000000" x="415.000000" y="85.541810" fill="rgb(255, 255, 255)" style="fill-opacity:1.00" />
<rect height="1.982493" width="25.000000" x="415.000000" y="91.489290" fill="rgb(255, 165, 0)" style="fill-opacity:1.00" />
<rect height="5.947480" width="6.250000" x="433.750000" y="91.489290" fill="rgb(255, 165, 0)" style="fill-opacity:1.00" />
<!-- End 'G' -->
<!-- Begin 'A' -->
<polygon points=" 390.000000, 104.187855, 411.000000, 97.436771, 419.000000, 97.436771, 440.000000, 104.187855, 432.500000, 104.187855, 426.250000, 102.500084, 403.750000, 102.500084, 397.500000, 104.187855" fill="rgb(178, 34, 34)" style="fill-opacity:1.00" />
<!-- End 'A' -->
<!-- Begin 'T' -->
<rect height="0.929572" width="50.000000" x="390.000000" y="104.187855" fill="rgb(0, 100, 0)" style="fill-opacity:1.00" />
<rect height="5.809827" width="10.000000" x="410.000000" y="104.187855" fill="rgb(0, 100, 0)" style="fill-opacity:1.00" />
<!-- End 'T' -->
<!-- Begin 'C' -->
<ellipse cx="415.000000" cy="109.998841" rx="25.000000" ry="0.001159" fill="rgb(0, 0, 128)" style="fill-opacity:1.00" />
<ellipse cx="415.000000" cy="109.998841" rx="16.666667" ry="0.000773" fill="rgb(255, 255, 255)" style="fill-opacity:1.00" />
<rect height="0.001159" width="25.000000" x="415.000000" y="109.998261" fill="rgb(255, 255, 255)" style="fill-opacity:1.00" />
<!-- End 'C' -->
<!-- Begin 'C' -->
<ellipse cx="475.000000" cy="60.079697" rx="25.000000" ry="49.895878" fill="rgb(0, 0, 128)" style="fill-opacity:1.00" />
<ellipse cx="475.000000" cy="60.079697" rx="16.666667" ry="33.263919" fill="rgb(255, 255, 255)" style="fill-opacity:1.00" />
<rect height="49.895878" width="25.000000" x="475.000000" y="35.131759" fill="rgb(255, 255, 255)" style="fill-opacity:1.00" />
<!-- End 'C' -->
<!-- Begin 'T' -->
<rect height="0.001303" width="50.000000" x="450.000000" y="109.975575" fill="rgb(0, 100, 0)" style="fill-opacity:1.00" />
<rect height="0.008142" width="10.000000" x="470.000000" y="109.975575" fill="rgb(0, 100, 0)" style="fill-opacity:1.00" />
<!-- End 'T' -->
<!-- Begin 'G' -->
<ellipse cx="475.000000" cy="109.987788" rx="25.000000" ry="0.004071" fill="rgb(255, 165, 0)" style="fill-opacity:1.00" />
<ellipse cx="475.000000" cy="109.987788" rx="16.666667" ry="0.002714" fill="rgb(255, 255, 255)" style="fill-opacity:1.00" />
<rect height="0.004071" width="25.000000" x="475.000000" y="109.985752" fill="rgb(255, 255, 255)" style="fill-opacity:1.00" />
<rect height="0.001018" width="25.000000" x="475.000000" y="109.988805" fill="rgb(255, 165, 0)" style="fill-opacity:1.00" />
<rect height="0.003053" width="6.250000" x="493.750000" y="109.988805" fill="rgb(255, 165, 0)" style="fill-opacity:1.00" />
<!-- End 'G' -->
<!-- Begin 'A' -->
<polygon points=" 450.000000, 110.000000, 471.000000, 109.991858, 479.000000, 109.991858, 500.000000, 110.000000, 492.500000, 110.000000, 486.250000, 109.997965, 463.750000, 109.997965, 457.500000, 110.000000" fill="rgb(178, 34, 34)" style="fill-opacity:1.00" />
<!-- End 'A' -->
<!-- Begin 'C' -->
<ellipse cx="535.000000" cy="63.811696" rx="25.000000" ry="43.220175" fill="rgb(0, 0, 128)" style="fill-opacity:1.00" />
<ellipse cx="535.000000" cy="63.811696" rx="16.666667" ry="28.813450" fill="rgb(255, 255, 255)" style="fill-opacity:1.00" />
<rect height="43.220175" width="25.000000" x="535.000000" y="42.201609" fill="rgb(255, 255, 255)" style="fill-opacity:1.00" />
<!-- End 'C' -->
<!-- Begin 'T' -->
<rect height="0.472567" width="50.000000" x="510.000000" y="107.031872" fill="rgb(0, 100, 0)" style="fill-opacity:1.00" />
<rect height="2.953543" width="10.000000" x="530.000000" y="107.031872" fill="rgb(0, 100, 0)" style="fill-opacity:1.00" />
<!-- End 'T' -->
<!-- Begin 'G' -->
<ellipse cx="535.000000" cy="109.989061" rx="25.000000" ry="0.003646" fill="rgb(255, 165, 0)" style="fill-opacity:1.00" />
<ellipse cx="535.000000" cy="109.989061" rx="16.666667" ry="0.002431" fill="rgb(255, 255, 255)" style="fill-opacity:1.00" />
<rect height="0.003646" width="25.000000" x="535.000000" y="109.987238" fill="rgb(255, 255, 255)" style="fill-opacity:1.00" />
<rect height="0.000912" width="25.000000" x="535.000000" y="109.989973" fill="rgb(255, 165, 0)" style="fill-opacity:1.00" />
<rect height="0.002735" width="6.250000" x="553.750000" y="109.989973" fill="rgb(255, 165, 0)" style="fill-opacity:1.00" />
<!-- End 'G' -->
<!-- Begin 'A' -->
<polygon points=" 510.000000, 110.000000, 531.000000, 109.992707, 539.000000, 109.992707, 560.000000, 110.000000, 552.500000, 110.000000, 546.250000, 109.998177, 523.750000, 109.998177, 517.500000, 110.000000" fill="rgb(178, 34, 34)" style="fill-opacity:1.00" />
<!-- End 'A' -->
<!-- Begin 'C' -->
<ellipse cx="595.000000" cy="75.196753" rx="25.000000" ry="24.603340" fill="rgb(0, 0, 128)" style="fill-opacity:1.00" />
<ellipse cx="595.000000" cy="75.196753" rx="16.666667" ry="16.402226" fill="rgb(255, 255, 255)" style="fill-opacity:1.00" />
<rect height="24.603340" width="25.000000" x="595.000000" y="62.895083" fill="rgb(255, 255, 255)" style="fill-opacity:1.00" />
<!-- End 'C' -->
<!-- Begin 'T' -->
<rect height="1.156732" width="50.000000" x="570.000000" y="99.800093" fill="rgb(0, 100, 0)" style="fill-opacity:1.00" />
<rect height="7.229578" width="10.000000" x="590.000000" y="99.800093" fill="rgb(0, 100, 0)" style="fill-opacity:1.00" />
<!-- End 'T' -->
<!-- Begin 'G' -->
<ellipse cx="595.000000" cy="108.512413" rx="25.000000" ry="1.482742" fill="rgb(255, 165, 0)" style="fill-opacity:1.00" />
<ellipse cx="595.000000" cy="108.512413" rx="16.666667" ry="0.988495" fill="rgb(255, 255, 255)" style="fill-opacity:1.00" />
<rect height="1.482742" width="25.000000" x="595.000000" y="107.771042" fill="rgb(255, 255, 255)" style="fill-opacity:1.00" />
<rect height="0.370685" width="25.000000" x="595.000000" y="108.883098" fill="rgb(255, 165, 0)" style="fill-opacity:1.00" />
<rect height="1.112056" width="6.250000" x="613.750000" y="108.883098" fill="rgb(255, 165, 0)" style="fill-opacity:1.00" />
<!-- End 'G' -->
<!-- Begin 'A' -->
<polygon points=" 570.000000, 110.000000, 591.000000, 109.995154, 599.000000, 109.995154, 620.000000, 110.000000, 612.500000, 110.000000, 606.250000, 109.998789, 583.750000, 109.998789, 577.500000, 110.000000" fill="rgb(178, 34, 34)" style="fill-opacity:1.00" />
<!-- End 'A' -->
<!-- Begin 'C' -->
<ellipse cx="655.000000" cy="77.399792" rx="25.000000" ry="16.871082" fill="rgb(0, 0, 128)" style="fill-opacity:1.00" />
<ellipse cx="655.000000" cy="77.399792" rx="16.666667" ry="11.247388" fill="rgb(255, 255, 255)" style="fill-opacity:1.00" />
<rect height="16.871082" width="25.000000" x="655.000000" y="68.964251" fill="rgb(255, 255, 255)" style="fill-opacity:1.00" />
<!-- End 'C' -->
<!-- Begin 'A' -->
<polygon points=" 630.000000, 109.011381, 651.000000, 94.270874, 659.000000, 94.270874, 680.000000, 109.011381, 672.500000, 109.011381, 666.250000, 105.326254, 643.750000, 105.326254, 637.500000, 109.011381" fill="rgb(178, 34, 34)" style="fill-opacity:1.00" />
<polygon points=" 655.000000, 97.218975, 647.000000, 102.115178, 662.000000, 102.115178" fill="rgb(255, 255, 255)" style="fill-opacity:1.00" />
<!-- End 'A' -->
<!-- Begin 'T' -->
<rect height="0.157533" width="50.000000" x="630.000000" y="109.011381" fill="rgb(0, 100, 0)" style="fill-opacity:1.00" />
<rect height="0.984584" width="10.000000" x="650.000000" y="109.011381" fill="rgb(0, 100, 0)" style="fill-opacity:1.00" />
<!-- End 'T' -->
<!-- Begin 'G' -->
<ellipse cx="655.000000" cy="109.997982" rx="25.000000" ry="0.002018" fill="rgb(255, 165, 0)" style="fill-opacity:1.00" />
<ellipse cx="655.000000" cy="109.997982" rx="16.666667" ry="0.001345" fill="rgb(255, 255, 255)" style="fill-opacity:1.00" />
<rect height="0.002018" width="25.000000" x="655.000000" y="109.996974" fill="rgb(255, 255, 255)" style="fill-opacity:1.00" />
<rect height="0.000504" width="25.000000" x="655.000000" y="109.998487" fill="rgb(255, 165, 0)" style="fill-opacity:1.00" />
<rect height="0.001513" width="6.250000" x="673.750000" y="109.998487" fill="rgb(255, 165, 0)" style="fill-opacity:1.00" />
<!-- End 'G' -->
<!-- Begin 'C' -->
<ellipse cx="715.000000" cy="63.116142" rx="25.000000" ry="44.593201" fill="rgb(0, 0, 128)" style="fill-opacity:1.00" />
<ellipse cx="715.000000" cy="63.116142" rx="16.666667" ry="29.728800" fill="rgb(255, 255, 255)" style="fill-opacity:1.00" />
<rect height="44.593201" width="25.000000" x="715.000000" y="40.819542" fill="rgb(255, 255, 255)" style="fill-opacity:1.00" />
<!-- End 'C' -->
<!-- Begin 'T' -->
<rect height="0.364117" width="50.000000" x="690.000000" y="107.709343" fill="rgb(0, 100, 0)" style="fill-opacity:1.00" />
<rect height="2.275734" width="10.000000" x="710.000000" y="107.709343" fill="rgb(0, 100, 0)" style="fill-opacity:1.00" />
<!-- End 'T' -->
<!-- Begin 'G' -->
<ellipse cx="715.000000" cy="109.988808" rx="25.000000" ry="0.003731" fill="rgb(255, 165, 0)" style="fill-opacity:1.00" />
<ellipse cx="715.000000" cy="109.988808" rx="16.666667" ry="0.002487" fill="rgb(255, 255, 255)" style="fill-opacity:1.00" />
<rect height="0.003731" width="25.000000" x="715.000000" y="109.986943" fill="rgb(255, 255, 255)" style="fill-opacity:1.00" />
<rect height="0.000933" width="25.000000" x="715.000000" y="109.989741" fill="rgb(255, 165, 0)" style="fill-opacity:1.00" />
<rect height="0.002798" width="6.250000" x="733.750000" y="109.989741" fill="rgb(255, 165, 0)" style="fill-opacity:1.00" />
<!-- End 'G' -->
<!-- Begin 'A' -->
<polygon points=" 690.000000, 110.000000, 711.000000, 109.992539, 719.000000, 109.992539, 740.000000, 110.000000, 732.500000, 110.000000, 726.250000, 109.998135, 703.750000, 109.998135, 697.500000, 110.000000" fill="rgb(178, 34, 34)" style="fill-opacity:1.00" />
<!-- End 'A' -->
<!-- Begin 'G' -->
<ellipse cx="775.000000" cy="89.888000" rx="25.000000" ry="7.407321" fill="rgb(255, 165, 0)" style="fill-opacity:1.00" />
<ellipse cx="775.000000" cy="89.888000" rx="16.666667" ry="4.938214" fill="rgb(255, 255, 255)" style="fill-opacity:1.00" />
<rect height="7.407321" width="25.000000" x="775.000000" y="86.184339" fill="rgb(255, 255, 255)" style="fill-opacity:1.00" />
<rect height="1.851830" width="25.000000" x="775.000000" y="91.739830" fill="rgb(255, 165, 0)" style="fill-opacity:1.00" />
<rect height="5.555491" width="6.250000" x="793.750000" y="91.739830" fill="rgb(255, 165, 0)" style="fill-opacity:1.00" />
<!-- End 'G' -->
<!-- Begin 'T' -->
<rect height="1.181580" width="50.000000" x="750.000000" y="97.295321" fill="rgb(0, 100, 0)" style="fill-opacity:1.00" />
<rect height="7.384875" width="10.000000" x="770.000000" y="97.295321" fill="rgb(0, 100, 0)" style="fill-opacity:1.00" />
<!-- End 'T' -->
<!-- Begin 'A' -->
<polygon points=" 750.000000, 109.997755, 771.000000, 104.680196, 779.000000, 104.680196, 800.000000, 109.997755, 792.500000, 109.997755, 786.250000, 108.668366, 763.750000, 108.668366, 757.500000, 109.997755" fill="rgb(178, 34, 34)" style="fill-opacity:1.00" />
<!-- End 'A' -->
<!-- Begin 'C' -->
<ellipse cx="775.000000" cy="109.998878" rx="25.000000" ry="0.001122" fill="rgb(0, 0, 128)" style="fill-opacity:1.00" />
<ellipse cx="775.000000" cy="109.998878" rx="16.666667" ry="0.000748" fill="rgb(255, 255, 255)" style="fill-opacity:1.00" />
<rect height="0.001122" width="25.000000" x="775.000000" y="109.998317" fill="rgb(255, 255, 255)" style="fill-opacity:1.00" />
<!-- End 'C' -->
<!-- Begin 'C' -->
<ellipse cx="835.000000" cy="77.331905" rx="25.000000" ry="21.934611" fill="rgb(0, 0, 128)" style="fill-opacity:1.00" />
<ellipse cx="835.000000" cy="77.331905" rx="16.666667" ry="14.623074" fill="rgb(255, 255, 255)" style="fill-opacity:1.00" />
<rect height="21.934611" width="25.000000" x="835.000000" y="66.364599" fill="rgb(255, 255, 255)" style="fill-opacity:1.00" />
<!-- End 'C' -->
<!-- Begin 'G' -->
<ellipse cx="835.000000" cy="102.430889" rx="25.000000" ry="3.164374" fill="rgb(255, 165, 0)" style="fill-opacity:1.00" />
<ellipse cx="835.000000" cy="102.430889" rx="16.666667" ry="2.109583" fill="rgb(255, 255, 255)" style="fill-opacity:1.00" />
<rect height="3.164374" width="25.000000" x="835.000000" y="100.848702" fill="rgb(255, 255, 255)" style="fill-opacity:1.00" />
<rect height="0.791093" width="25.000000" x="835.000000" y="103.221983" fill="rgb(255, 165, 0)" style="fill-opacity:1.00" />
<rect height="2.373280" width="6.250000" x="853.750000" y="103.221983" fill="rgb(255, 165, 0)" style="fill-opacity:1.00" />
<!-- End 'G' -->
<!-- Begin 'T' -->
<rect height="0.704045" width="50.000000" x="810.000000" y="105.595263" fill="rgb(0, 100, 0)" style="fill-opacity:1.00" />
<rect height="4.400283" width="10.000000" x="830.000000" y="105.595263" fill="rgb(0, 100, 0)" style="fill-opacity:1.00" />
<!-- End 'T' -->
<!-- Begin 'A' -->
<polygon points=" 810.000000, 110.000000, 831.000000, 109.995546, 839.000000, 109.995546, 860.000000, 110.000000, 852.500000, 110.000000, 846.250000, 109.998887, 823.750000, 109.998887, 817.500000, 110.000000" fill="rgb(178, 34, 34)" style="fill-opacity:1.00" />
<!-- End 'A' -->
<!-- Begin 'C' -->
<ellipse cx="895.000000" cy="103.472715" rx="25.000000" ry="1.930178" fill="rgb(0, 0, 128)" style="fill-opacity:1.00" />
<ellipse cx="895.000000" cy="103.472715" rx="16.666667" ry="1.286785" fill="rgb(255, 255, 255)" style="fill-opacity:1.00" />
<rect height="1.930178" width="25.000000" x="895.000000" y="102.507626" fill="rgb(255, 255, 255)" style="fill-opacity:1.00" />
<!-- End 'C' -->
<!-- Begin 'A' -->
<polygon points=" 870.000000, 107.491045, 891.000000, 105.402893, 899.000000, 105.402893, 920.000000, 107.491045, 912.500000, 107.491045, 906.250000, 106.969007, 883.750000, 106.969007, 877.500000, 107.491045" fill="rgb(178, 34, 34)" style="fill-opacity:1.00" />
<!-- End 'A' -->
<!-- Begin 'G' -->
<ellipse cx="895.000000" cy="108.151223" rx="25.000000" ry="0.660179" fill="rgb(255, 165, 0)" style="fill-opacity:1.00" />
<ellipse cx="895.000000" cy="108.151223" rx="16.666667" ry="0.440119" fill="rgb(255, 255, 255)" style="fill-opacity:1.00" />
<rect height="0.660179" width="25.000000" x="895.000000" y="107.821134" fill="rgb(255, 255, 255)" style="fill-opacity:1.00" />
<rect height="0.165045" width="25.000000" x="895.000000" y="108.316268" fill="rgb(255, 165, 0)" style="fill-opacity:1.00" />
<rect height="0.495134" width="6.250000" x="913.750000" y="108.316268" fill="rgb(255, 165, 0)" style="fill-opacity:1.00" />
<!-- End 'G' -->
<!-- Begin 'T' -->
<rect height="0.190176" width="50.000000" x="870.000000" y="108.811402" fill="rgb(0, 100, 0)" style="fill-opacity:1.00" />
<rect height="1.188598" width="10.000000" x="890.000000" y="108.811402" fill="rgb(0, 100, 0)" style="fill-opacity:1.00" />
<!-- End 'T' -->
<text x="490.000000" y="165">
IC = 13.87
</text>

</svg>
