<?xml version="1.0" encoding="UTF-8" standalone="yes"?>
                 <!DOCTYPE svg PUBLIC "-//W3C//DTD SVG 1.0//EN" "http://www.w3.org/TR/2001/REC-SVG-20010904/DTD/svg10.dtd">
                 <svg height="170" width="900" xmlns="http://www.w3.org/2000/svg" xmlns:xlink="http://www.w3.org/1999/xlink">
                 <line x1="85" y1="120" x2="867" y2="120" style="stroke:rgb(99,99,99);stroke-width:2" />
<rect height="7.000000" width="2.000000" x="85.000000" y="120.000000" fill="rgb(0, 0, 0)" style="fill-opacity:1.00" />
<text x="107.000000" y="140">
1
</text>
<rect height="7.000000" width="2.000000" x="145.000000" y="120.000000" fill="rgb(0, 0, 0)" style="fill-opacity:1.00" />
<text x="167.000000" y="140">
2
</text>
<rect height="7.000000" width="2.000000" x="205.000000" y="120.000000" fill="rgb(0, 0, 0)" style="fill-opacity:1.00" />
<text x="227.000000" y="140">
3
</text>
<rect height="7.000000" width="2.000000" x="265.000000" y="120.000000" fill="rgb(0, 0, 0)" style="fill-opacity:1.00" />
<text x="287.000000" y="140">
4
</text>
<rect height="7.000000" width="2.000000" x="325.000000" y="120.000000" fill="rgb(0, 0, 0)" style="fill-opacity:1.00" />
<text x="347.000000" y="140">
5
</text>
<rect height="7.000000" width="2.000000" x="385.000000" y="120.000000" fill="rgb(0, 0, 0)" style="fill-opacity:1.00" />
<text x="407.000000" y="140">
6
</text>
<rect height="7.000000" width="2.000000" x="445.000000" y="120.000000" fill="rgb(0, 0, 0)" style="fill-opacity:1.00" />
<text x="467.000000" y="140">
7
</text>
<rect height="7.000000" width="2.000000" x="505.000000" y="120.000000" fill="rgb(0, 0, 0)" style="fill-opacity:1.00" />
<text x="527.000000" y="140">
8
</text>
<rect height="7.000000" width="2.000000" x="565.000000" y="120.000000" fill="rgb(0, 0, 0)" style="fill-opacity:1.00" />
<text x="587.000000" y="140">
9
</text>
<rect height="7.000000" width="2.000000" x="625.000000" y="120.000000" fill="rgb(0, 0, 0)" style="fill-opacity:1.00" />
<text x="647.000000" y="140">
10
</text>
<rect height="7.000000" width="2.000000" x="685.000000" y="120.000000" fill="rgb(0, 0, 0)" style="fill-opacity:1.00" />
<text x="707.000000" y="140">
11
</text>
<rect height="7.000000" width="2.000000" x="745.000000" y="120.000000" fill="rgb(0, 0, 0)" style="fill-opacity:1.00" />
<text x="767.000000" y="140">
12
</text>
<rect height="7.000000" width="2.000000" x="805.000000" y="120.000000" fill="rgb(0, 0, 0)" style="fill-opacity:1.00" />
<text x="827.000000" y="140">
13
</text>
<rect height="7.000000" width="2.000000" x="865.000000" y="120.000000" fill="rgb(0, 0, 0)" style="fill-opacity:1.00" />
<line x1="80" y1="112" x2="80" y2="10" style="stroke:rgb(99,99,99);stroke-width:2" />
<rect height="2.000000" width="7.000000" x="73.000000" y="110.000000" fill="rgb(0, 0, 0)" style="fill-opacity:1.00" />
<text x="63" y="115">
0
</text>
<rect height="2.000000" width="7.000000" x="73.000000" y="60.000000" fill="rgb(0, 0, 0)" style="fill-opacity:1.00" />
<text x="63" y="65">
1
</text>
<rect height="2.000000" width="7.000000" x="73.000000" y="10.000000" fill="rgb(0, 0, 0)" style="fill-opacity:1.00" />
<text x="63" y="15">
2
</text>
<text x="50" y="65"
transform="rotate(-90, 50, 70)">
bits
</text>
<!-- Begin 'C' -->
<ellipse cx="115.000000" cy="106.008709" rx="25.000000" ry="0.840187" fill="rgb(0, 0, 128)" style="fill-opacity:1.00" />
<ellipse cx="115.000000" cy="106.008709" rx="16.666667" ry="0.560124" fill="rgb(255, 255, 255)" style="fill-opacity:1.00" />
<rect height="0.840187" width="25.000000" x="115.000000" y="105.588616" fill="rgb(255, 255, 255)" style="fill-opacity:1.00" />
<!-- End 'C' -->
<!-- Begin 'G' -->
<ellipse cx="115.000000" cy="107.580266" rx="25.000000" ry="0.731370" fill="rgb(255, 165, 0)" style="fill-opacity:1.00" />
<ellipse cx="115.000000" cy="107.580266" rx="16.666667" ry="0.487580" fill="rgb(255, 255, 255)" style="fill-opacity:1.00" />
<rect height="0.731370" width="25.000000" x="115.000000" y="107.214581" fill="rgb(255, 255, 255)" style="fill-opacity:1.00" />
<rect height="0.182843" width="25.000000" x="115.000000" y="107.763109" fill="rgb(255, 165, 0)" style="fill-opacity:1.00" />
<rect height="0.548528" width="6.250000" x="133.750000" y="107.763109" fill="rgb(255, 165, 0)" style="fill-opacity:1.00" />
<!-- End 'G' -->
<!-- Begin 'T' -->
<rect height="0.179628" width="50.000000" x="90.000000" y="108.311636" fill="rgb(0, 100, 0)" style="fill-opacity:1.00" />
<rect height="1.122675" width="10.000000" x="110.000000" y="108.311636" fill="rgb(0, 100, 0)" style="fill-opacity:1.00" />
<!-- End 'T' -->
<!-- Begin 'A' -->
<polygon points=" 90.000000, 110.000000, 111.000000, 109.434311, 119.000000, 109.434311, 140.000000, 110.000000, 132.500000, 110.000000, 126.250000, 109.858578, 103.750000, 109.858578, 97.500000, 110.000000" fill="rgb(178, 34, 34)" style="fill-opacity:1.00" />
<!-- End 'A' -->
<!-- Begin 'G' -->
<ellipse cx="175.000000" cy="106.154022" rx="25.000000" ry="0.987981" fill="rgb(255, 165, 0)" style="fill-opacity:1.00" />
<ellipse cx="175.000000" cy="106.154022" rx="16.666667" ry="0.658654" fill="rgb(255, 255, 255)" style="fill-opacity:1.00" />
<rect height="0.987981" width="25.000000" x="175.000000" y="105.660032" fill="rgb(255, 255, 255)" style="fill-opacity:1.00" />
<rect height="0.246995" width="25.000000" x="175.000000" y="106.401018" fill="rgb(255, 165, 0)" style="fill-opacity:1.00" />
<rect height="0.740986" width="6.250000" x="193.750000" y="106.401018" fill="rgb(255, 165, 0)" style="fill-opacity:1.00" />
<!-- End 'G' -->
<!-- Begin 'C' -->
<ellipse cx="175.000000" cy="107.718324" rx="25.000000" ry="0.576320" fill="rgb(0, 0, 128)" style="fill-opacity:1.00" />
<ellipse cx="175.000000" cy="107.718324" rx="16.666667" ry="0.384214" fill="rgb(255, 255, 255)" style="fill-opacity:1.00" />
<rect height="0.576320" width="25.000000" x="175.000000" y="107.430164" fill="rgb(255, 255, 255)" style="fill-opacity:1.00" />
<!-- End 'C' -->
<!-- Begin 'T' -->
<rect height="0.142447" width="50.000000" x="150.000000" y="108.294645" fill="rgb(0, 100, 0)" style="fill-opacity:1.00" />
<rect height="0.890297" width="10.000000" x="170.000000" y="108.294645" fill="rgb(0, 100, 0)" style="fill-opacity:1.00" />
<!-- End 'T' -->
<!-- Begin 'A' -->
<polygon points=" 150.000000, 110.000000, 171.000000, 109.184941, 179.000000, 109.184941, 200.000000, 110.000000, 192.500000, 110.000000, 186.250000, 109.796235, 163.750000, 109.796235, 157.500000, 110.000000" fill="rgb(178, 34, 34)" style="fill-opacity:1.00" />
<!-- End 'A' -->
<!-- Begin 'G' -->
<ellipse cx="235.000000" cy="90.765291" rx="25.000000" ry="5.856337" fill="rgb(255, 165, 0)" style="fill-opacity:1.00" />
<ellipse cx="235.000000" cy="90.765291" rx="16.666667" ry="3.904225" fill="rgb(255, 255, 255)" style="fill-opacity:1.00" />
<rect height="5.856337" width="25.000000" x="235.000000" y="87.837123" fill="rgb(255, 255, 255)" style="fill-opacity:1.00" />
<rect height="1.464084" width="25.000000" x="235.000000" y="92.229376" fill="rgb(255, 165, 0)" style="fill-opacity:1.00" />
<rect height="4.392253" width="6.250000" x="253.750000" y="92.229376" fill="rgb(255, 165, 0)" style="fill-opacity:1.00" />
<!-- End 'G' -->
<!-- Begin 'C' -->
<ellipse cx="235.000000" cy="101.929181" rx="25.000000" ry="5.307553" fill="rgb(0, 0, 128)" style="fill-opacity:1.00" />
<ellipse cx="235.000000" cy="101.929181" rx="16.666667" ry="3.538368" fill="rgb(255, 255, 255)" style="fill-opacity:1.00" />
<rect height="5.307553" width="25.000000" x="235.000000" y="99.275405" fill="rgb(255, 255, 255)" style="fill-opacity:1.00" />
<!-- End 'C' -->
<!-- Begin 'A' -->
<polygon points=" 210.000000, 108.735925, 231.000000, 107.236734, 239.000000, 107.236734, 260.000000, 108.735925, 252.500000, 108.735925, 246.250000, 108.361127, 223.750000, 108.361127, 217.500000, 108.735925" fill="rgb(178, 34, 34)" style="fill-opacity:1.00" />
<!-- End 'A' -->
<!-- Begin 'T' -->
<rect height="0.202252" width="50.000000" x="210.000000" y="108.735925" fill="rgb(0, 100, 0)" style="fill-opacity:1.00" />
<rect height="1.264075" width="10.000000" x="230.000000" y="108.735925" fill="rgb(0, 100, 0)" style="fill-opacity:1.00" />
<!-- End 'T' -->
<!-- Begin 'C' -->
<ellipse cx="295.000000" cy="77.579828" rx="25.000000" ry="19.842524" fill="rgb(0, 0, 128)" style="fill-opacity:1.00" />
<ellipse cx="295.000000" cy="77.579828" rx="16.666667" ry="13.228349" fill="rgb(255, 255, 255)" style="fill-opacity:1.00" />
<rect height="19.842524" width="25.000000" x="295.000000" y="67.658566" fill="rgb(255, 255, 255)" style="fill-opacity:1.00" />
<!-- End 'C' -->
<!-- Begin 'G' -->
<ellipse cx="295.000000" cy="102.876610" rx="25.000000" ry="5.454258" fill="rgb(255, 165, 0)" style="fill-opacity:1.00" />
<ellipse cx="295.000000" cy="102.876610" rx="16.666667" ry="3.636172" fill="rgb(255, 255, 255)" style="fill-opacity:1.00" />
<rect height="5.454258" width="25.000000" x="295.000000" y="100.149481" fill="rgb(255, 255, 255)" style="fill-opacity:1.00" />
<rect height="1.363565" width="25.000000" x="295.000000" y="104.240174" fill="rgb(255, 165, 0)" style="fill-opacity:1.00" />
<rect height="4.090694" width="6.250000" x="313.750000" y="104.240174" fill="rgb(255, 165, 0)" style="fill-opacity:1.00" />
<!-- End 'G' -->
<!-- Begin 'A' -->
<polygon points=" 270.000000, 109.675951, 291.000000, 108.330868, 299.000000, 108.330868, 320.000000, 109.675951, 312.500000, 109.675951, 306.250000, 109.339680, 283.750000, 109.339680, 277.500000, 109.675951" fill="rgb(178, 34, 34)" style="fill-opacity:1.00" />
<!-- End 'A' -->
<!-- Begin 'T' -->
<rect height="0.051848" width="50.000000" x="270.000000" y="109.675951" fill="rgb(0, 100, 0)" style="fill-opacity:1.00" />
<rect height="0.324049" width="10.000000" x="290.000000" y="109.675951" fill="rgb(0, 100, 0)" style="fill-opacity:1.00" />
<!-- End 'T' -->
<!-- Begin 'C' -->
<ellipse cx="355.000000" cy="91.558393" rx="25.000000" ry="7.634432" fill="rgb(0, 0, 128)" style="fill-opacity:1.00" />
<ellipse cx="355.000000" cy="91.558393" rx="16.666667" ry="5.089621" fill="rgb(255, 255, 255)" style="fill-opacity:1.00" />
<rect height="7.634432" width="25.000000" x="355.000000" y="87.741177" fill="rgb(255, 255, 255)" style="fill-opacity:1.00" />
<!-- End 'C' -->
<!-- Begin 'G' -->
<ellipse cx="355.000000" cy="102.577374" rx="25.000000" ry="3.384549" fill="rgb(255, 165, 0)" style="fill-opacity:1.00" />
<ellipse cx="355.000000" cy="102.577374" rx="16.666667" ry="2.256366" fill="rgb(255, 255, 255)" style="fill-opacity:1.00" />
<rect height="3.384549" width="25.000000" x="355.000000" y="100.885099" fill="rgb(255, 255, 255)" style="fill-opacity:1.00" />
<rect height="0.846137" width="25.000000" x="355.000000" y="103.423511" fill="rgb(255, 165, 0)" style="fill-opacity:1.00" />
<rect height="2.538412" width="6.250000" x="373.750000" y="103.423511" fill="rgb(255, 165, 0)" style="fill-opacity:1.00" />
<!-- End 'G' -->
<!-- Begin 'T' -->
<rect height="0.531241" width="50.000000" x="330.000000" y="105.961923" fill="rgb(0, 100, 0)" style="fill-opacity:1.00" />
<rect height="3.320258" width="10.000000" x="350.000000" y="105.961923" fill="rgb(0, 100, 0)" style="fill-opacity:1.00" />
<!-- End 'T' -->
<!-- Begin 'A' -->
<polygon points=" 330.000000, 110.000000, 351.000000, 109.282181, 359.000000, 109.282181, 380.000000, 110.000000, 372.500000, 110.000000, 366.250000, 109.820545, 343.750000, 109.820545, 337.500000, 110.000000" fill="rgb(178, 34, 34)" style="fill-opacity:1.00" />
<!-- End 'A' -->
<!-- Begin 'C' -->
<ellipse cx="415.000000" cy="102.005189" rx="25.000000" ry="1.970009" fill="rgb(0, 0, 128)" style="fill-opacity:1.00" />
<ellipse cx="415.000000" cy="102.005189" rx="16.666667" ry="1.313339" fill="rgb(255, 255, 255)" style="fill-opacity:1.00" />
<rect height="1.970009" width="25.000000" x="415.000000" y="101.020185" fill="rgb(255, 255, 255)" style="fill-opacity:1.00" />
<!-- End 'C' -->
<!-- Begin 'T' -->
<rect height="0.482145" width="50.000000" x="390.000000" y="103.975198" fill="rgb(0, 100, 0)" style="fill-opacity:1.00" />
<rect height="3.013408" width="10.000000" x="410.000000" y="103.975198" fill="rgb(0, 100, 0)" style="fill-opacity:1.00" />
<!-- End 'T' -->
<!-- Begin 'G' -->
<ellipse cx="415.000000" cy="108.167978" rx="25.000000" ry="1.179372" fill="rgb(255, 165, 0)" style="fill-opacity:1.00" />
<ellipse cx="415.000000" cy="108.167978" rx="16.666667" ry="0.786248" fill="rgb(255, 255, 255)" style="fill-opacity:1.00" />
<rect height="1.179372" width="25.000000" x="415.000000" y="107.578292" fill="rgb(255, 255, 255)" style="fill-opacity:1.00" />
<rect height="0.294843" width="25.000000" x="415.000000" y="108.462821" fill="rgb(255, 165, 0)" style="fill-opacity:1.00" />
<rect height="0.884529" width="6.250000" x="433.750000" y="108.462821" fill="rgb(255, 165, 0)" style="fill-opacity:1.00" />
<!-- End 'G' -->
<!-- Begin 'A' -->
<polygon points=" 390.000000, 110.000000, 411.000000, 109.347350, 419.000000, 109.347350, 440.000000, 110.000000, 432.500000, 110.000000, 426.250000, 109.836837, 403.750000, 109.836837, 397.500000, 110.000000" fill="rgb(178, 34, 34)" style="fill-opacity:1.00" />
<!-- End 'A' -->
<!-- Begin 'G' -->
<ellipse cx="475.000000" cy="96.531833" rx="25.000000" ry="3.584199" fill="rgb(255, 165, 0)" style="fill-opacity:1.00" />
<ellipse cx="475.000000" cy="96.531833" rx="16.666667" ry="2.389466" fill="rgb(255, 255, 255)" style="fill-opacity:1.00" />
<rect height="3.584199" width="25.000000" x="475.000000" y="94.739734" fill="rgb(255, 255, 255)" style="fill-opacity:1.00" />
<rect height="0.896050" width="25.000000" x="475.000000" y="97.427883" fill="rgb(255, 165, 0)" style="fill-opacity:1.00" />
<rect height="2.688149" width="6.250000" x="493.750000" y="97.427883" fill="rgb(255, 165, 0)" style="fill-opacity:1.00" />
<!-- End 'G' -->
<!-- Begin 'C' -->
<ellipse cx="475.000000" cy="103.603317" rx="25.000000" ry="3.487285" fill="rgb(0, 0, 128)" style="fill-opacity:1.00" />
<ellipse cx="475.000000" cy="103.603317" rx="16.666667" ry="2.324856" fill="rgb(255, 255, 255)" style="fill-opacity:1.00" />
<rect height="3.487285" width="25.000000" x="475.000000" y="101.859674" fill="rgb(255, 255, 255)" style="fill-opacity:1.00" />
<!-- End 'C' -->
<!-- Begin 'T' -->
<rect height="0.237246" width="50.000000" x="450.000000" y="107.090601" fill="rgb(0, 100, 0)" style="fill-opacity:1.00" />
<rect height="1.482785" width="10.000000" x="470.000000" y="107.090601" fill="rgb(0, 100, 0)" style="fill-opacity:1.00" />
<!-- End 'T' -->
<!-- Begin 'A' -->
<polygon points=" 450.000000, 110.000000, 471.000000, 108.573386, 479.000000, 108.573386, 500.000000, 110.000000, 492.500000, 110.000000, 486.250000, 109.643347, 463.750000, 109.643347, 457.500000, 110.000000" fill="rgb(178, 34, 34)" style="fill-opacity:1.00" />
<!-- End 'A' -->
<!-- Begin 'G' -->
<ellipse cx="535.000000" cy="101.911847" rx="25.000000" ry="1.918135" fill="rgb(255, 165, 0)" style="fill-opacity:1.00" />
<ellipse cx="535.000000" cy="101.911847" rx="16.666667" ry="1.278757" fill="rgb(255, 255, 255)" style="fill-opacity:1.00" />
<rect height="1.918135" width="25.000000" x="535.000000" y="100.952779" fill="rgb(255, 255, 255)" style="fill-opacity:1.00" />
<rect height="0.479534" width="25.000000" x="535.000000" y="102.391381" fill="rgb(255, 165, 0)" style="fill-opacity:1.00" />
<rect height="1.438601" width="6.250000" x="553.750000" y="102.391381" fill="rgb(255, 165, 0)" style="fill-opacity:1.00" />
<!-- End 'G' -->
<!-- Begin 'A' -->
<polygon points=" 510.000000, 106.950343, 531.000000, 103.829982, 539.000000, 103.829982, 560.000000, 106.950343, 552.500000, 106.950343, 546.250000, 106.170253, 523.750000, 106.170253, 517.500000, 106.950343" fill="rgb(178, 34, 34)" style="fill-opacity:1.00" />
<!-- End 'A' -->
<!-- Begin 'C' -->
<ellipse cx="535.000000" cy="108.162884" rx="25.000000" ry="1.212541" fill="rgb(0, 0, 128)" style="fill-opacity:1.00" />
<ellipse cx="535.000000" cy="108.162884" rx="16.666667" ry="0.808361" fill="rgb(255, 255, 255)" style="fill-opacity:1.00" />
<rect height="1.212541" width="25.000000" x="535.000000" y="107.556613" fill="rgb(255, 255, 255)" style="fill-opacity:1.00" />
<!-- End 'C' -->
<!-- Begin 'T' -->
<rect height="0.099932" width="50.000000" x="510.000000" y="109.375425" fill="rgb(0, 100, 0)" style="fill-opacity:1.00" />
<rect height="0.624575" width="10.000000" x="530.000000" y="109.375425" fill="rgb(0, 100, 0)" style="fill-opacity:1.00" />
<!-- End 'T' -->
<!-- Begin 'G' -->
<ellipse cx="595.000000" cy="91.201977" rx="25.000000" ry="7.889756" fill="rgb(255, 165, 0)" style="fill-opacity:1.00" />
<ellipse cx="595.000000" cy="91.201977" rx="16.666667" ry="5.259837" fill="rgb(255, 255, 255)" style="fill-opacity:1.00" />
<rect height="7.889756" width="25.000000" x="595.000000" y="87.257099" fill="rgb(255, 255, 255)" style="fill-opacity:1.00" />
<rect height="1.972439" width="25.000000" x="595.000000" y="93.174416" fill="rgb(255, 165, 0)" style="fill-opacity:1.00" />
<rect height="5.917317" width="6.250000" x="613.750000" y="93.174416" fill="rgb(255, 165, 0)" style="fill-opacity:1.00" />
<!-- End 'G' -->
<!-- Begin 'C' -->
<ellipse cx="595.000000" cy="102.501730" rx="25.000000" ry="3.409997" fill="rgb(0, 0, 128)" style="fill-opacity:1.00" />
<ellipse cx="595.000000" cy="102.501730" rx="16.666667" ry="2.273332" fill="rgb(255, 255, 255)" style="fill-opacity:1.00" />
<rect height="3.409997" width="25.000000" x="595.000000" y="100.796732" fill="rgb(255, 255, 255)" style="fill-opacity:1.00" />
<!-- End 'C' -->
<!-- Begin 'A' -->
<polygon points=" 570.000000, 109.309514, 591.000000, 105.911728, 599.000000, 105.911728, 620.000000, 109.309514, 612.500000, 109.309514, 606.250000, 108.460068, 583.750000, 108.460068, 577.500000, 109.309514" fill="rgb(178, 34, 34)" style="fill-opacity:1.00" />
<!-- End 'A' -->
<!-- Begin 'T' -->
<rect height="0.110478" width="50.000000" x="570.000000" y="109.309514" fill="rgb(0, 100, 0)" style="fill-opacity:1.00" />
<rect height="0.690486" width="10.000000" x="590.000000" y="109.309514" fill="rgb(0, 100, 0)" style="fill-opacity:1.00" />
<!-- End 'T' -->
<!-- Begin 'G' -->
<ellipse cx="655.000000" cy="76.729335" rx="25.000000" ry="20.992533" fill="rgb(255, 165, 0)" style="fill-opacity:1.00" />
<ellipse cx="655.000000" cy="76.729335" rx="16.666667" ry="13.995022" fill="rgb(255, 255, 255)" style="fill-opacity:1.00" />
<rect height="20.992533" width="25.000000" x="655.000000" y="66.233069" fill="rgb(255, 255, 255)" style="fill-opacity:1.00" />
<rect height="5.248133" width="25.000000" x="655.000000" y="81.977468" fill="rgb(255, 165, 0)" style="fill-opacity:1.00" />
<rect height="15.744399" width="6.250000" x="673.750000" y="81.977468" fill="rgb(255, 165, 0)" style="fill-opacity:1.00" />
<!-- End 'G' -->
<!-- Begin 'C' -->
<ellipse cx="655.000000" cy="103.108185" rx="25.000000" ry="5.386318" fill="rgb(0, 0, 128)" style="fill-opacity:1.00" />
<ellipse cx="655.000000" cy="103.108185" rx="16.666667" ry="3.590879" fill="rgb(255, 255, 255)" style="fill-opacity:1.00" />
<rect height="5.386318" width="25.000000" x="655.000000" y="100.415026" fill="rgb(255, 255, 255)" style="fill-opacity:1.00" />
<!-- End 'C' -->
<!-- Begin 'T' -->
<rect height="0.184324" width="50.000000" x="630.000000" y="108.494503" fill="rgb(0, 100, 0)" style="fill-opacity:1.00" />
<rect height="1.152025" width="10.000000" x="650.000000" y="108.494503" fill="rgb(0, 100, 0)" style="fill-opacity:1.00" />
<!-- End 'T' -->
<!-- Begin 'A' -->
<polygon points=" 630.000000, 110.000000, 651.000000, 109.646528, 659.000000, 109.646528, 680.000000, 110.000000, 672.500000, 110.000000, 666.250000, 109.911632, 643.750000, 109.911632, 637.500000, 110.000000" fill="rgb(178, 34, 34)" style="fill-opacity:1.00" />
<!-- End 'A' -->
<!-- Begin 'C' -->
<ellipse cx="715.000000" cy="91.372078" rx="25.000000" ry="5.641759" fill="rgb(0, 0, 128)" style="fill-opacity:1.00" />
<ellipse cx="715.000000" cy="91.372078" rx="16.666667" ry="3.761173" fill="rgb(255, 255, 255)" style="fill-opacity:1.00" />
<rect height="5.641759" width="25.000000" x="715.000000" y="88.551198" fill="rgb(255, 255, 255)" style="fill-opacity:1.00" />
<!-- End 'C' -->
<!-- Begin 'G' -->
<ellipse cx="715.000000" cy="102.105140" rx="25.000000" ry="5.091303" fill="rgb(255, 165, 0)" style="fill-opacity:1.00" />
<ellipse cx="715.000000" cy="102.105140" rx="16.666667" ry="3.394202" fill="rgb(255, 255, 255)" style="fill-opacity:1.00" />
<rect height="5.091303" width="25.000000" x="715.000000" y="99.559488" fill="rgb(255, 255, 255)" style="fill-opacity:1.00" />
<rect height="1.272826" width="25.000000" x="715.000000" y="103.377965" fill="rgb(255, 165, 0)" style="fill-opacity:1.00" />
<rect height="3.818477" width="6.250000" x="733.750000" y="103.377965" fill="rgb(255, 165, 0)" style="fill-opacity:1.00" />
<!-- End 'G' -->
<!-- Begin 'T' -->
<rect height="0.229788" width="50.000000" x="690.000000" y="107.196442" fill="rgb(0, 100, 0)" style="fill-opacity:1.00" />
<rect height="1.436177" width="10.000000" x="710.000000" y="107.196442" fill="rgb(0, 100, 0)" style="fill-opacity:1.00" />
<!-- End 'T' -->
<!-- Begin 'A' -->
<polygon points=" 690.000000, 110.000000, 711.000000, 108.632620, 719.000000, 108.632620, 740.000000, 110.000000, 732.500000, 110.000000, 726.250000, 109.658155, 703.750000, 109.658155, 697.500000, 110.000000" fill="rgb(178, 34, 34)" style="fill-opacity:1.00" />
<!-- End 'A' -->
<!-- Begin 'C' -->
<ellipse cx="775.000000" cy="105.791652" rx="25.000000" ry="1.124326" fill="rgb(0, 0, 128)" style="fill-opacity:1.00" />
<ellipse cx="775.000000" cy="105.791652" rx="16.666667" ry="0.749551" fill="rgb(255, 255, 255)" style="fill-opacity:1.00" />
<rect height="1.124326" width="25.000000" x="775.000000" y="105.229489" fill="rgb(255, 255, 255)" style="fill-opacity:1.00" />
<!-- End 'C' -->
<!-- Begin 'G' -->
<ellipse cx="775.000000" cy="107.511099" rx="25.000000" ry="0.595120" fill="rgb(255, 165, 0)" style="fill-opacity:1.00" />
<ellipse cx="775.000000" cy="107.511099" rx="16.666667" ry="0.396747" fill="rgb(255, 255, 255)" style="fill-opacity:1.00" />
<rect height="0.595120" width="25.000000" x="775.000000" y="107.213539" fill="rgb(255, 255, 255)" style="fill-opacity:1.00" />
<rect height="0.148780" width="25.000000" x="775.000000" y="107.659879" fill="rgb(255, 165, 0)" style="fill-opacity:1.00" />
<rect height="0.446340" width="6.250000" x="793.750000" y="107.659879" fill="rgb(255, 165, 0)" style="fill-opacity:1.00" />
<!-- End 'G' -->
<!-- Begin 'A' -->
<polygon points=" 750.000000, 109.091888, 771.000000, 108.106219, 779.000000, 108.106219, 800.000000, 109.091888, 792.500000, 109.091888, 786.250000, 108.845471, 763.750000, 108.845471, 757.500000, 109.091888" fill="rgb(178, 34, 34)" style="fill-opacity:1.00" />
<!-- End 'A' -->
<!-- Begin 'T' -->
<rect height="0.145298" width="50.000000" x="750.000000" y="109.091888" fill="rgb(0, 100, 0)" style="fill-opacity:1.00" />
<rect height="0.908112" width="10.000000" x="770.000000" y="109.091888" fill="rgb(0, 100, 0)" style="fill-opacity:1.00" />
<!-- End 'T' -->
<!-- Begin 'G' -->
<ellipse cx="835.000000" cy="106.579855" rx="25.000000" ry="0.777680" fill="rgb(255, 165, 0)" style="fill-opacity:1.00" />
<ellipse cx="835.000000" cy="106.579855" rx="16.666667" ry="0.518453" fill="rgb(255, 255, 255)" style="fill-opacity:1.00" />
<rect height="0.777680" width="25.000000" x="835.000000" y="106.191015" fill="rgb(255, 255, 255)" style="fill-opacity:1.00" />
<rect height="0.194420" width="25.000000" x="835.000000" y="106.774275" fill="rgb(255, 165, 0)" style="fill-opacity:1.00" />
<rect height="0.583260" width="6.250000" x="853.750000" y="106.774275" fill="rgb(255, 165, 0)" style="fill-opacity:1.00" />
<!-- End 'G' -->
<!-- Begin 'C' -->
<ellipse cx="835.000000" cy="107.885982" rx="25.000000" ry="0.528447" fill="rgb(0, 0, 128)" style="fill-opacity:1.00" />
<ellipse cx="835.000000" cy="107.885982" rx="16.666667" ry="0.352298" fill="rgb(255, 255, 255)" style="fill-opacity:1.00" />
<rect height="0.528447" width="25.000000" x="835.000000" y="107.621759" fill="rgb(255, 255, 255)" style="fill-opacity:1.00" />
<!-- End 'C' -->
<!-- Begin 'A' -->
<polygon points=" 810.000000, 109.440387, 831.000000, 108.414429, 839.000000, 108.414429, 860.000000, 109.440387, 852.500000, 109.440387, 846.250000, 109.183897, 823.750000, 109.183897, 817.500000, 109.440387" fill="rgb(178, 34, 34)" style="fill-opacity:1.00" />
<!-- End 'A' -->
<!-- Begin 'T' -->
<rect height="0.089538" width="50.000000" x="810.000000" y="109.440387" fill="rgb(0, 100, 0)" style="fill-opacity:1.00" />
<rect height="0.559613" width="10.000000" x="830.000000" y="109.440387" fill="rgb(0, 100, 0)" style="fill-opacity:1.00" />
<!-- End 'T' -->
<text x="460.000000" y="165">
IC = 5.30
</text>

</svg>
