<?xml version="1.0" encoding="UTF-8" standalone="yes"?>
                 <!DOCTYPE svg PUBLIC "-//W3C//DTD SVG 1.0//EN" "http://www.w3.org/TR/2001/REC-SVG-20010904/DTD/svg10.dtd">
                 <svg height="170" width="840" xmlns="http://www.w3.org/2000/svg" xmlns:xlink="http://www.w3.org/1999/xlink">
                 <line x1="85" y1="120" x2="807" y2="120" style="stroke:rgb(99,99,99);stroke-width:2" />
<rect height="7.000000" width="2.000000" x="85.000000" y="120.000000" fill="rgb(0, 0, 0)" style="fill-opacity:1.00" />
<text x="107.000000" y="140">
1
</text>
<rect height="7.000000" width="2.000000" x="145.000000" y="120.000000" fill="rgb(0, 0, 0)" style="fill-opacity:1.00" />
<text x="167.000000" y="140">
2
</text>
<rect height="7.000000" width="2.000000" x="205.000000" y="120.000000" fill="rgb(0, 0, 0)" style="fill-opacity:1.00" />
<text x="227.000000" y="140">
3
</text>
<rect height="7.000000" width="2.000000" x="265.000000" y="120.000000" fill="rgb(0, 0, 0)" style="fill-opacity:1.00" />
<text x="287.000000" y="140">
4
</text>
<rect height="7.000000" width="2.000000" x="325.000000" y="120.000000" fill="rgb(0, 0, 0)" style="fill-opacity:1.00" />
<text x="347.000000" y="140">
5
</text>
<rect height="7.000000" width="2.000000" x="385.000000" y="120.000000" fill="rgb(0, 0, 0)" style="fill-opacity:1.00" />
<text x="407.000000" y="140">
6
</text>
<rect height="7.000000" width="2.000000" x="445.000000" y="120.000000" fill="rgb(0, 0, 0)" style="fill-opacity:1.00" />
<text x="467.000000" y="140">
7
</text>
<rect height="7.000000" width="2.000000" x="505.000000" y="120.000000" fill="rgb(0, 0, 0)" style="fill-opacity:1.00" />
<text x="527.000000" y="140">
8
</text>
<rect height="7.000000" width="2.000000" x="565.000000" y="120.000000" fill="rgb(0, 0, 0)" style="fill-opacity:1.00" />
<text x="587.000000" y="140">
9
</text>
<rect height="7.000000" width="2.000000" x="625.000000" y="120.000000" fill="rgb(0, 0, 0)" style="fill-opacity:1.00" />
<text x="647.000000" y="140">
10
</text>
<rect height="7.000000" width="2.000000" x="685.000000" y="120.000000" fill="rgb(0, 0, 0)" style="fill-opacity:1.00" />
<text x="707.000000" y="140">
11
</text>
<rect height="7.000000" width="2.000000" x="745.000000" y="120.000000" fill="rgb(0, 0, 0)" style="fill-opacity:1.00" />
<text x="767.000000" y="140">
12
</text>
<rect height="7.000000" width="2.000000" x="805.000000" y="120.000000" fill="rgb(0, 0, 0)" style="fill-opacity:1.00" />
<line x1="80" y1="112" x2="80" y2="10" style="stroke:rgb(99,99,99);stroke-width:2" />
<rect height="2.000000" width="7.000000" x="73.000000" y="110.000000" fill="rgb(0, 0, 0)" style="fill-opacity:1.00" />
<text x="63" y="115">
0
</text>
<rect height="2.000000" width="7.000000" x="73.000000" y="60.000000" fill="rgb(0, 0, 0)" style="fill-opacity:1.00" />
<text x="63" y="65">
1
</text>
<rect height="2.000000" width="7.000000" x="73.000000" y="10.000000" fill="rgb(0, 0, 0)" style="fill-opacity:1.00" />
<text x="63" y="15">
2
</text>
<text x="50" y="65"
transform="rotate(-90, 50, 70)">
bits
</text>
<!-- Begin 'T' -->
<rect height="15.288983" width="50.000000" x="90.000000" y="13.732520" fill="rgb(0, 100, 0)" style="fill-opacity:1.00" />
<rect height="95.556144" width="10.000000" x="110.000000" y="13.732520" fill="rgb(0, 100, 0)" style="fill-opacity:1.00" />
<!-- End 'T' -->
<!-- Begin 'G' -->
<ellipse cx="115.000000" cy="109.407220" rx="25.000000" ry="0.118556" fill="rgb(255, 165, 0)" style="fill-opacity:1.00" />
<ellipse cx="115.000000" cy="109.407220" rx="16.666667" ry="0.079037" fill="rgb(255, 255, 255)" style="fill-opacity:1.00" />
<rect height="0.118556" width="25.000000" x="115.000000" y="109.347942" fill="rgb(255, 255, 255)" style="fill-opacity:1.00" />
<rect height="0.029639" width="25.000000" x="115.000000" y="109.436859" fill="rgb(255, 165, 0)" style="fill-opacity:1.00" />
<rect height="0.088917" width="6.250000" x="133.750000" y="109.436859" fill="rgb(255, 165, 0)" style="fill-opacity:1.00" />
<!-- End 'G' -->
<!-- Begin 'C' -->
<ellipse cx="115.000000" cy="109.644332" rx="25.000000" ry="0.118556" fill="rgb(0, 0, 128)" style="fill-opacity:1.00" />
<ellipse cx="115.000000" cy="109.644332" rx="16.666667" ry="0.079037" fill="rgb(255, 255, 255)" style="fill-opacity:1.00" />
<rect height="0.118556" width="25.000000" x="115.000000" y="109.585054" fill="rgb(255, 255, 255)" style="fill-opacity:1.00" />
<!-- End 'C' -->
<!-- Begin 'A' -->
<polygon points=" 90.000000, 110.000000, 111.000000, 109.762888, 119.000000, 109.762888, 140.000000, 110.000000, 132.500000, 110.000000, 126.250000, 109.940722, 103.750000, 109.940722, 97.500000, 110.000000" fill="rgb(178, 34, 34)" style="fill-opacity:1.00" />
<!-- End 'A' -->
<!-- Begin 'G' -->
<ellipse cx="175.000000" cy="75.712743" rx="25.000000" ry="19.202181" fill="rgb(255, 165, 0)" style="fill-opacity:1.00" />
<ellipse cx="175.000000" cy="75.712743" rx="16.666667" ry="12.801454" fill="rgb(255, 255, 255)" style="fill-opacity:1.00" />
<rect height="19.202181" width="25.000000" x="175.000000" y="66.111652" fill="rgb(255, 255, 255)" style="fill-opacity:1.00" />
<rect height="4.800545" width="25.000000" x="175.000000" y="80.513288" fill="rgb(255, 165, 0)" style="fill-opacity:1.00" />
<rect height="14.401636" width="6.250000" x="193.750000" y="80.513288" fill="rgb(255, 165, 0)" style="fill-opacity:1.00" />
<!-- End 'G' -->
<!-- Begin 'A' -->
<polygon points=" 150.000000, 109.538884, 171.000000, 94.914924, 179.000000, 94.914924, 200.000000, 109.538884, 192.500000, 109.538884, 186.250000, 105.882894, 163.750000, 105.882894, 157.500000, 109.538884" fill="rgb(178, 34, 34)" style="fill-opacity:1.00" />
<polygon points=" 175.000000, 97.839716, 167.000000, 102.689300, 182.000000, 102.689300" fill="rgb(255, 255, 255)" style="fill-opacity:1.00" />
<!-- End 'A' -->
<!-- Begin 'T' -->
<rect height="0.042159" width="50.000000" x="150.000000" y="109.538884" fill="rgb(0, 100, 0)" style="fill-opacity:1.00" />
<rect height="0.263495" width="10.000000" x="170.000000" y="109.538884" fill="rgb(0, 100, 0)" style="fill-opacity:1.00" />
<!-- End 'T' -->
<!-- Begin 'C' -->
<ellipse cx="175.000000" cy="109.934126" rx="25.000000" ry="0.131747" fill="rgb(0, 0, 128)" style="fill-opacity:1.00" />
<ellipse cx="175.000000" cy="109.934126" rx="16.666667" ry="0.087832" fill="rgb(255, 255, 255)" style="fill-opacity:1.00" />
<rect height="0.131747" width="25.000000" x="175.000000" y="109.868253" fill="rgb(255, 255, 255)" style="fill-opacity:1.00" />
<!-- End 'C' -->
<!-- Begin 'T' -->
<rect height="15.354307" width="50.000000" x="210.000000" y="13.559776" fill="rgb(0, 100, 0)" style="fill-opacity:1.00" />
<rect height="95.964418" width="10.000000" x="230.000000" y="13.559776" fill="rgb(0, 100, 0)" style="fill-opacity:1.00" />
<!-- End 'T' -->
<!-- Begin 'G' -->
<ellipse cx="235.000000" cy="109.643109" rx="25.000000" ry="0.118915" fill="rgb(255, 165, 0)" style="fill-opacity:1.00" />
<ellipse cx="235.000000" cy="109.643109" rx="16.666667" ry="0.079277" fill="rgb(255, 255, 255)" style="fill-opacity:1.00" />
<rect height="0.118915" width="25.000000" x="235.000000" y="109.583651" fill="rgb(255, 255, 255)" style="fill-opacity:1.00" />
<rect height="0.029729" width="25.000000" x="235.000000" y="109.672837" fill="rgb(255, 165, 0)" style="fill-opacity:1.00" />
<rect height="0.089186" width="6.250000" x="253.750000" y="109.672837" fill="rgb(255, 165, 0)" style="fill-opacity:1.00" />
<!-- End 'G' -->
<!-- Begin 'C' -->
<ellipse cx="235.000000" cy="109.880939" rx="25.000000" ry="0.118915" fill="rgb(0, 0, 128)" style="fill-opacity:1.00" />
<ellipse cx="235.000000" cy="109.880939" rx="16.666667" ry="0.079277" fill="rgb(255, 255, 255)" style="fill-opacity:1.00" />
<rect height="0.118915" width="25.000000" x="235.000000" y="109.821481" fill="rgb(255, 255, 255)" style="fill-opacity:1.00" />
<!-- End 'C' -->
<!-- Begin 'A' -->
<polygon points=" 210.000000, 110.237684, 231.000000, 109.999854, 239.000000, 109.999854, 260.000000, 110.237684, 252.500000, 110.237684, 246.250000, 110.178226, 223.750000, 110.178226, 217.500000, 110.237684" fill="rgb(178, 34, 34)" style="fill-opacity:1.00" />
<!-- End 'A' -->
<!-- Begin 'T' -->
<rect height="12.684513" width="50.000000" x="270.000000" y="26.603066" fill="rgb(0, 100, 0)" style="fill-opacity:1.00" />
<rect height="79.278206" width="10.000000" x="290.000000" y="26.603066" fill="rgb(0, 100, 0)" style="fill-opacity:1.00" />
<!-- End 'T' -->
<!-- Begin 'G' -->
<ellipse cx="295.000000" cy="107.786008" rx="25.000000" ry="1.904736" fill="rgb(255, 165, 0)" style="fill-opacity:1.00" />
<ellipse cx="295.000000" cy="107.786008" rx="16.666667" ry="1.269824" fill="rgb(255, 255, 255)" style="fill-opacity:1.00" />
<rect height="1.904736" width="25.000000" x="295.000000" y="106.833640" fill="rgb(255, 255, 255)" style="fill-opacity:1.00" />
<rect height="0.476184" width="25.000000" x="295.000000" y="108.262192" fill="rgb(255, 165, 0)" style="fill-opacity:1.00" />
<rect height="1.428552" width="6.250000" x="313.750000" y="108.262192" fill="rgb(255, 165, 0)" style="fill-opacity:1.00" />
<!-- End 'G' -->
<!-- Begin 'C' -->
<ellipse cx="295.000000" cy="109.896662" rx="25.000000" ry="0.205917" fill="rgb(0, 0, 128)" style="fill-opacity:1.00" />
<ellipse cx="295.000000" cy="109.896662" rx="16.666667" ry="0.137278" fill="rgb(255, 255, 255)" style="fill-opacity:1.00" />
<rect height="0.205917" width="25.000000" x="295.000000" y="109.793703" fill="rgb(255, 255, 255)" style="fill-opacity:1.00" />
<!-- End 'C' -->
<!-- Begin 'A' -->
<polygon points=" 270.000000, 110.308496, 291.000000, 110.102579, 299.000000, 110.102579, 320.000000, 110.308496, 312.500000, 110.308496, 306.250000, 110.257017, 283.750000, 110.257017, 277.500000, 110.308496" fill="rgb(178, 34, 34)" style="fill-opacity:1.00" />
<!-- End 'A' -->
<!-- Begin 'T' -->
<rect height="7.561531" width="50.000000" x="330.000000" y="49.790014" fill="rgb(0, 100, 0)" style="fill-opacity:1.00" />
<rect height="47.259571" width="10.000000" x="350.000000" y="49.790014" fill="rgb(0, 100, 0)" style="fill-opacity:1.00" />
<!-- End 'T' -->
<!-- Begin 'G' -->
<ellipse cx="355.000000" cy="103.598942" rx="25.000000" ry="6.549358" fill="rgb(255, 165, 0)" style="fill-opacity:1.00" />
<ellipse cx="355.000000" cy="103.598942" rx="16.666667" ry="4.366239" fill="rgb(255, 255, 255)" style="fill-opacity:1.00" />
<rect height="6.549358" width="25.000000" x="355.000000" y="100.324263" fill="rgb(255, 255, 255)" style="fill-opacity:1.00" />
<rect height="1.637339" width="25.000000" x="355.000000" y="105.236282" fill="rgb(255, 165, 0)" style="fill-opacity:1.00" />
<rect height="4.912018" width="6.250000" x="373.750000" y="105.236282" fill="rgb(255, 165, 0)" style="fill-opacity:1.00" />
<!-- End 'G' -->
<!-- Begin 'C' -->
<ellipse cx="355.000000" cy="110.222725" rx="25.000000" ry="0.074425" fill="rgb(0, 0, 128)" style="fill-opacity:1.00" />
<ellipse cx="355.000000" cy="110.222725" rx="16.666667" ry="0.049616" fill="rgb(255, 255, 255)" style="fill-opacity:1.00" />
<rect height="0.074425" width="25.000000" x="355.000000" y="110.185512" fill="rgb(255, 255, 255)" style="fill-opacity:1.00" />
<!-- End 'C' -->
<!-- Begin 'A' -->
<polygon points=" 330.000000, 110.445998, 351.000000, 110.297149, 359.000000, 110.297149, 380.000000, 110.445998, 372.500000, 110.445998, 366.250000, 110.408786, 343.750000, 110.408786, 337.500000, 110.445998" fill="rgb(178, 34, 34)" style="fill-opacity:1.00" />
<!-- End 'A' -->
<!-- Begin 'A' -->
<polygon points=" 390.000000, 103.587716, 411.000000, 35.126295, 419.000000, 35.126295, 440.000000, 103.587716, 432.500000, 103.587716, 426.250000, 86.472361, 403.750000, 86.472361, 397.500000, 103.587716" fill="rgb(178, 34, 34)" style="fill-opacity:1.00" />
<polygon points=" 415.000000, 48.818579, 407.000000, 75.203148, 422.000000, 75.203148" fill="rgb(255, 255, 255)" style="fill-opacity:1.00" />
<!-- End 'A' -->
<!-- Begin 'G' -->
<ellipse cx="415.000000" cy="106.746045" rx="25.000000" ry="3.158329" fill="rgb(255, 165, 0)" style="fill-opacity:1.00" />
<ellipse cx="415.000000" cy="106.746045" rx="16.666667" ry="2.105553" fill="rgb(255, 255, 255)" style="fill-opacity:1.00" />
<rect height="3.158329" width="25.000000" x="415.000000" y="105.166881" fill="rgb(255, 255, 255)" style="fill-opacity:1.00" />
<rect height="0.789582" width="25.000000" x="415.000000" y="107.535627" fill="rgb(255, 165, 0)" style="fill-opacity:1.00" />
<rect height="2.368747" width="6.250000" x="433.750000" y="107.535627" fill="rgb(255, 165, 0)" style="fill-opacity:1.00" />
<!-- End 'G' -->
<!-- Begin 'C' -->
<ellipse cx="415.000000" cy="110.136604" rx="25.000000" ry="0.232230" fill="rgb(0, 0, 128)" style="fill-opacity:1.00" />
<ellipse cx="415.000000" cy="110.136604" rx="16.666667" ry="0.154820" fill="rgb(255, 255, 255)" style="fill-opacity:1.00" />
<rect height="0.232230" width="25.000000" x="415.000000" y="110.020489" fill="rgb(255, 255, 255)" style="fill-opacity:1.00" />
<!-- End 'C' -->
<!-- Begin 'T' -->
<rect height="0.059451" width="50.000000" x="390.000000" y="110.368834" fill="rgb(0, 100, 0)" style="fill-opacity:1.00" />
<rect height="0.371568" width="10.000000" x="410.000000" y="110.368834" fill="rgb(0, 100, 0)" style="fill-opacity:1.00" />
<!-- End 'T' -->
<!-- Begin 'C' -->
<ellipse cx="475.000000" cy="69.657954" rx="25.000000" ry="33.203028" fill="rgb(0, 0, 128)" style="fill-opacity:1.00" />
<ellipse cx="475.000000" cy="69.657954" rx="16.666667" ry="22.135352" fill="rgb(255, 255, 255)" style="fill-opacity:1.00" />
<rect height="33.203028" width="25.000000" x="475.000000" y="53.056440" fill="rgb(255, 255, 255)" style="fill-opacity:1.00" />
<!-- End 'C' -->
<!-- Begin 'T' -->
<rect height="1.200065" width="50.000000" x="450.000000" y="102.860982" fill="rgb(0, 100, 0)" style="fill-opacity:1.00" />
<rect height="7.500408" width="10.000000" x="470.000000" y="102.860982" fill="rgb(0, 100, 0)" style="fill-opacity:1.00" />
<!-- End 'T' -->
<!-- Begin 'G' -->
<ellipse cx="475.000000" cy="110.498593" rx="25.000000" ry="0.137203" fill="rgb(255, 165, 0)" style="fill-opacity:1.00" />
<ellipse cx="475.000000" cy="110.498593" rx="16.666667" ry="0.091468" fill="rgb(255, 255, 255)" style="fill-opacity:1.00" />
<rect height="0.137203" width="25.000000" x="475.000000" y="110.429991" fill="rgb(255, 255, 255)" style="fill-opacity:1.00" />
<rect height="0.034301" width="25.000000" x="475.000000" y="110.532893" fill="rgb(255, 165, 0)" style="fill-opacity:1.00" />
<rect height="0.102902" width="6.250000" x="493.750000" y="110.532893" fill="rgb(255, 165, 0)" style="fill-opacity:1.00" />
<!-- End 'G' -->
<!-- Begin 'A' -->
<polygon points=" 450.000000, 110.910201, 471.000000, 110.635795, 479.000000, 110.635795, 500.000000, 110.910201, 492.500000, 110.910201, 486.250000, 110.841599, 463.750000, 110.841599, 457.500000, 110.910201" fill="rgb(178, 34, 34)" style="fill-opacity:1.00" />
<!-- End 'A' -->
<!-- Begin 'T' -->
<rect height="2.365332" width="50.000000" x="510.000000" y="79.751750" fill="rgb(0, 100, 0)" style="fill-opacity:1.00" />
<rect height="14.783327" width="10.000000" x="530.000000" y="79.751750" fill="rgb(0, 100, 0)" style="fill-opacity:1.00" />
<!-- End 'T' -->
<!-- Begin 'A' -->
<polygon points=" 510.000000, 107.319637, 531.000000, 94.535076, 539.000000, 94.535076, 560.000000, 107.319637, 552.500000, 107.319637, 546.250000, 104.123497, 523.750000, 104.123497, 517.500000, 107.319637" fill="rgb(178, 34, 34)" style="fill-opacity:1.00" />
<polygon points=" 535.000000, 97.091989, 527.000000, 101.205813, 542.000000, 101.205813" fill="rgb(255, 255, 255)" style="fill-opacity:1.00" />
<!-- End 'A' -->
<!-- Begin 'C' -->
<ellipse cx="535.000000" cy="108.790427" rx="25.000000" ry="1.470790" fill="rgb(0, 0, 128)" style="fill-opacity:1.00" />
<ellipse cx="535.000000" cy="108.790427" rx="16.666667" ry="0.980527" fill="rgb(255, 255, 255)" style="fill-opacity:1.00" />
<rect height="1.470790" width="25.000000" x="535.000000" y="108.055032" fill="rgb(255, 255, 255)" style="fill-opacity:1.00" />
<!-- End 'C' -->
<!-- Begin 'G' -->
<ellipse cx="535.000000" cy="110.336643" rx="25.000000" ry="0.075425" fill="rgb(255, 165, 0)" style="fill-opacity:1.00" />
<ellipse cx="535.000000" cy="110.336643" rx="16.666667" ry="0.050283" fill="rgb(255, 255, 255)" style="fill-opacity:1.00" />
<rect height="0.075425" width="25.000000" x="535.000000" y="110.298930" fill="rgb(255, 255, 255)" style="fill-opacity:1.00" />
<rect height="0.018856" width="25.000000" x="535.000000" y="110.355499" fill="rgb(255, 165, 0)" style="fill-opacity:1.00" />
<rect height="0.056569" width="6.250000" x="553.750000" y="110.355499" fill="rgb(255, 165, 0)" style="fill-opacity:1.00" />
<!-- End 'G' -->
<!-- Begin 'T' -->
<rect height="2.028402" width="50.000000" x="570.000000" y="86.760205" fill="rgb(0, 100, 0)" style="fill-opacity:1.00" />
<rect height="12.677514" width="10.000000" x="590.000000" y="86.760205" fill="rgb(0, 100, 0)" style="fill-opacity:1.00" />
<!-- End 'T' -->
<!-- Begin 'C' -->
<ellipse cx="595.000000" cy="103.296093" rx="25.000000" ry="3.858374" fill="rgb(0, 0, 128)" style="fill-opacity:1.00" />
<ellipse cx="595.000000" cy="103.296093" rx="16.666667" ry="2.572249" fill="rgb(255, 255, 255)" style="fill-opacity:1.00" />
<rect height="3.858374" width="25.000000" x="595.000000" y="101.366906" fill="rgb(255, 255, 255)" style="fill-opacity:1.00" />
<!-- End 'C' -->
<!-- Begin 'G' -->
<ellipse cx="595.000000" cy="108.010271" rx="25.000000" ry="0.855805" fill="rgb(255, 165, 0)" style="fill-opacity:1.00" />
<ellipse cx="595.000000" cy="108.010271" rx="16.666667" ry="0.570536" fill="rgb(255, 255, 255)" style="fill-opacity:1.00" />
<rect height="0.855805" width="25.000000" x="595.000000" y="107.582369" fill="rgb(255, 255, 255)" style="fill-opacity:1.00" />
<rect height="0.213951" width="25.000000" x="595.000000" y="108.224222" fill="rgb(255, 165, 0)" style="fill-opacity:1.00" />
<rect height="0.641854" width="6.250000" x="613.750000" y="108.224222" fill="rgb(255, 165, 0)" style="fill-opacity:1.00" />
<!-- End 'G' -->
<!-- Begin 'A' -->
<polygon points=" 570.000000, 110.345603, 591.000000, 108.866076, 599.000000, 108.866076, 620.000000, 110.345603, 612.500000, 110.345603, 606.250000, 109.975721, 583.750000, 109.975721, 577.500000, 110.345603" fill="rgb(178, 34, 34)" style="fill-opacity:1.00" />
<!-- End 'A' -->
<!-- Begin 'A' -->
<polygon points=" 630.000000, 91.457412, 651.000000, 71.172748, 659.000000, 71.172748, 680.000000, 91.457412, 672.500000, 91.457412, 666.250000, 86.386246, 643.750000, 86.386246, 637.500000, 91.457412" fill="rgb(178, 34, 34)" style="fill-opacity:1.00" />
<polygon points=" 655.000000, 75.229681, 647.000000, 82.343547, 662.000000, 82.343547" fill="rgb(255, 255, 255)" style="fill-opacity:1.00" />
<!-- End 'A' -->
<!-- Begin 'T' -->
<rect height="2.802972" width="50.000000" x="630.000000" y="91.457412" fill="rgb(0, 100, 0)" style="fill-opacity:1.00" />
<rect height="17.518573" width="10.000000" x="650.000000" y="91.457412" fill="rgb(0, 100, 0)" style="fill-opacity:1.00" />
<!-- End 'T' -->
<!-- Begin 'G' -->
<ellipse cx="655.000000" cy="109.582584" rx="25.000000" ry="0.606599" fill="rgb(255, 165, 0)" style="fill-opacity:1.00" />
<ellipse cx="655.000000" cy="109.582584" rx="16.666667" ry="0.404399" fill="rgb(255, 255, 255)" style="fill-opacity:1.00" />
<rect height="0.606599" width="25.000000" x="655.000000" y="109.279285" fill="rgb(255, 255, 255)" style="fill-opacity:1.00" />
<rect height="0.151650" width="25.000000" x="655.000000" y="109.734234" fill="rgb(255, 165, 0)" style="fill-opacity:1.00" />
<rect height="0.454949" width="6.250000" x="673.750000" y="109.734234" fill="rgb(255, 165, 0)" style="fill-opacity:1.00" />
<!-- End 'G' -->
<!-- Begin 'C' -->
<ellipse cx="655.000000" cy="110.359031" rx="25.000000" ry="0.169848" fill="rgb(0, 0, 128)" style="fill-opacity:1.00" />
<ellipse cx="655.000000" cy="110.359031" rx="16.666667" ry="0.113232" fill="rgb(255, 255, 255)" style="fill-opacity:1.00" />
<rect height="0.169848" width="25.000000" x="655.000000" y="110.274107" fill="rgb(255, 255, 255)" style="fill-opacity:1.00" />
<!-- End 'C' -->
<!-- Begin 'G' -->
<ellipse cx="715.000000" cy="95.057059" rx="25.000000" ry="6.448887" fill="rgb(255, 165, 0)" style="fill-opacity:1.00" />
<ellipse cx="715.000000" cy="95.057059" rx="16.666667" ry="4.299258" fill="rgb(255, 255, 255)" style="fill-opacity:1.00" />
<rect height="6.448887" width="25.000000" x="715.000000" y="91.832615" fill="rgb(255, 255, 255)" style="fill-opacity:1.00" />
<rect height="1.612222" width="25.000000" x="715.000000" y="96.669280" fill="rgb(255, 165, 0)" style="fill-opacity:1.00" />
<rect height="4.836665" width="6.250000" x="733.750000" y="96.669280" fill="rgb(255, 165, 0)" style="fill-opacity:1.00" />
<!-- End 'G' -->
<!-- Begin 'T' -->
<rect height="0.602430" width="50.000000" x="690.000000" y="101.505945" fill="rgb(0, 100, 0)" style="fill-opacity:1.00" />
<rect height="3.765188" width="10.000000" x="710.000000" y="101.505945" fill="rgb(0, 100, 0)" style="fill-opacity:1.00" />
<!-- End 'T' -->
<!-- Begin 'A' -->
<polygon points=" 690.000000, 108.795991, 711.000000, 105.271134, 719.000000, 105.271134, 740.000000, 108.795991, 732.500000, 108.795991, 726.250000, 107.914777, 703.750000, 107.914777, 697.500000, 108.795991" fill="rgb(178, 34, 34)" style="fill-opacity:1.00" />
<!-- End 'A' -->
<!-- Begin 'C' -->
<ellipse cx="715.000000" cy="109.516985" rx="25.000000" ry="0.720994" fill="rgb(0, 0, 128)" style="fill-opacity:1.00" />
<ellipse cx="715.000000" cy="109.516985" rx="16.666667" ry="0.480662" fill="rgb(255, 255, 255)" style="fill-opacity:1.00" />
<rect height="0.720994" width="25.000000" x="715.000000" y="109.156488" fill="rgb(255, 255, 255)" style="fill-opacity:1.00" />
<!-- End 'C' -->
<!-- Begin 'G' -->
<ellipse cx="775.000000" cy="107.728862" rx="25.000000" ry="0.502536" fill="rgb(255, 165, 0)" style="fill-opacity:1.00" />
<ellipse cx="775.000000" cy="107.728862" rx="16.666667" ry="0.335024" fill="rgb(255, 255, 255)" style="fill-opacity:1.00" />
<rect height="0.502536" width="25.000000" x="775.000000" y="107.477594" fill="rgb(255, 255, 255)" style="fill-opacity:1.00" />
<rect height="0.125634" width="25.000000" x="775.000000" y="107.854496" fill="rgb(255, 165, 0)" style="fill-opacity:1.00" />
<rect height="0.376902" width="6.250000" x="793.750000" y="107.854496" fill="rgb(255, 165, 0)" style="fill-opacity:1.00" />
<!-- End 'G' -->
<!-- Begin 'C' -->
<ellipse cx="775.000000" cy="108.569876" rx="25.000000" ry="0.338478" fill="rgb(0, 0, 128)" style="fill-opacity:1.00" />
<ellipse cx="775.000000" cy="108.569876" rx="16.666667" ry="0.225652" fill="rgb(255, 255, 255)" style="fill-opacity:1.00" />
<rect height="0.338478" width="25.000000" x="775.000000" y="108.400637" fill="rgb(255, 255, 255)" style="fill-opacity:1.00" />
<!-- End 'C' -->
<!-- Begin 'T' -->
<rect height="0.104997" width="50.000000" x="750.000000" y="108.908353" fill="rgb(0, 100, 0)" style="fill-opacity:1.00" />
<rect height="0.656233" width="10.000000" x="770.000000" y="108.908353" fill="rgb(0, 100, 0)" style="fill-opacity:1.00" />
<!-- End 'T' -->
<!-- Begin 'A' -->
<polygon points=" 750.000000, 110.013587, 771.000000, 109.564586, 779.000000, 109.564586, 800.000000, 110.013587, 792.500000, 110.013587, 786.250000, 109.901337, 763.750000, 109.901337, 757.500000, 110.013587" fill="rgb(178, 34, 34)" style="fill-opacity:1.00" />
<!-- End 'A' -->
<text x="430.000000" y="165">
IC = 13.09
</text>

</svg>
