<?xml version="1.0" encoding="UTF-8" standalone="yes"?>
                 <!DOCTYPE svg PUBLIC "-//W3C//DTD SVG 1.0//EN" "http://www.w3.org/TR/2001/REC-SVG-20010904/DTD/svg10.dtd">
                 <svg height="170" width="840" xmlns="http://www.w3.org/2000/svg" xmlns:xlink="http://www.w3.org/1999/xlink">
                 <line x1="85" y1="120" x2="807" y2="120" style="stroke:rgb(99,99,99);stroke-width:2" />
<rect height="7.000000" width="2.000000" x="85.000000" y="120.000000" fill="rgb(0, 0, 0)" style="fill-opacity:1.00" />
<text x="107.000000" y="140">
1
</text>
<rect height="7.000000" width="2.000000" x="145.000000" y="120.000000" fill="rgb(0, 0, 0)" style="fill-opacity:1.00" />
<text x="167.000000" y="140">
2
</text>
<rect height="7.000000" width="2.000000" x="205.000000" y="120.000000" fill="rgb(0, 0, 0)" style="fill-opacity:1.00" />
<text x="227.000000" y="140">
3
</text>
<rect height="7.000000" width="2.000000" x="265.000000" y="120.000000" fill="rgb(0, 0, 0)" style="fill-opacity:1.00" />
<text x="287.000000" y="140">
4
</text>
<rect height="7.000000" width="2.000000" x="325.000000" y="120.000000" fill="rgb(0, 0, 0)" style="fill-opacity:1.00" />
<text x="347.000000" y="140">
5
</text>
<rect height="7.000000" width="2.000000" x="385.000000" y="120.000000" fill="rgb(0, 0, 0)" style="fill-opacity:1.00" />
<text x="407.000000" y="140">
6
</text>
<rect height="7.000000" width="2.000000" x="445.000000" y="120.000000" fill="rgb(0, 0, 0)" style="fill-opacity:1.00" />
<text x="467.000000" y="140">
7
</text>
<rect height="7.000000" width="2.000000" x="505.000000" y="120.000000" fill="rgb(0, 0, 0)" style="fill-opacity:1.00" />
<text x="527.000000" y="140">
8
</text>
<rect height="7.000000" width="2.000000" x="565.000000" y="120.000000" fill="rgb(0, 0, 0)" style="fill-opacity:1.00" />
<text x="587.000000" y="140">
9
</text>
<rect height="7.000000" width="2.000000" x="625.000000" y="120.000000" fill="rgb(0, 0, 0)" style="fill-opacity:1.00" />
<text x="647.000000" y="140">
10
</text>
<rect height="7.000000" width="2.000000" x="685.000000" y="120.000000" fill="rgb(0, 0, 0)" style="fill-opacity:1.00" />
<text x="707.000000" y="140">
11
</text>
<rect height="7.000000" width="2.000000" x="745.000000" y="120.000000" fill="rgb(0, 0, 0)" style="fill-opacity:1.00" />
<text x="767.000000" y="140">
12
</text>
<rect height="7.000000" width="2.000000" x="805.000000" y="120.000000" fill="rgb(0, 0, 0)" style="fill-opacity:1.00" />
<line x1="80" y1="112" x2="80" y2="10" style="stroke:rgb(99,99,99);stroke-width:2" />
<rect height="2.000000" width="7.000000" x="73.000000" y="110.000000" fill="rgb(0, 0, 0)" style="fill-opacity:1.00" />
<text x="63" y="115">
0
</text>
<rect height="2.000000" width="7.000000" x="73.000000" y="60.000000" fill="rgb(0, 0, 0)" style="fill-opacity:1.00" />
<text x="63" y="65">
1
</text>
<rect height="2.000000" width="7.000000" x="73.000000" y="10.000000" fill="rgb(0, 0, 0)" style="fill-opacity:1.00" />
<text x="63" y="15">
2
</text>
<text x="50" y="65"
transform="rotate(-90, 50, 70)">
bits
</text>
<!-- Begin 'T' -->
<rect height="3.882862" width="50.000000" x="90.000000" y="74.475362" fill="rgb(0, 100, 0)" style="fill-opacity:1.00" />
<rect height="24.267887" width="10.000000" x="110.000000" y="74.475362" fill="rgb(0, 100, 0)" style="fill-opacity:1.00" />
<!-- End 'T' -->
<!-- Begin 'A' -->
<polygon points=" 90.000000, 106.244100, 111.000000, 98.743249, 119.000000, 98.743249, 140.000000, 106.244100, 132.500000, 106.244100, 126.250000, 104.368888, 103.750000, 104.368888, 97.500000, 106.244100" fill="rgb(178, 34, 34)" style="fill-opacity:1.00" />
<!-- End 'A' -->
<!-- Begin 'G' -->
<ellipse cx="115.000000" cy="107.489102" rx="25.000000" ry="1.245002" fill="rgb(255, 165, 0)" style="fill-opacity:1.00" />
<ellipse cx="115.000000" cy="107.489102" rx="16.666667" ry="0.830001" fill="rgb(255, 255, 255)" style="fill-opacity:1.00" />
<rect height="1.245002" width="25.000000" x="115.000000" y="106.866601" fill="rgb(255, 255, 255)" style="fill-opacity:1.00" />
<rect height="0.311250" width="25.000000" x="115.000000" y="107.800352" fill="rgb(255, 165, 0)" style="fill-opacity:1.00" />
<rect height="0.933751" width="6.250000" x="133.750000" y="107.800352" fill="rgb(255, 165, 0)" style="fill-opacity:1.00" />
<!-- End 'G' -->
<!-- Begin 'C' -->
<ellipse cx="115.000000" cy="109.367052" rx="25.000000" ry="0.632948" fill="rgb(0, 0, 128)" style="fill-opacity:1.00" />
<ellipse cx="115.000000" cy="109.367052" rx="16.666667" ry="0.421965" fill="rgb(255, 255, 255)" style="fill-opacity:1.00" />
<rect height="0.632948" width="25.000000" x="115.000000" y="109.050578" fill="rgb(255, 255, 255)" style="fill-opacity:1.00" />
<!-- End 'C' -->
<!-- Begin 'G' -->
<ellipse cx="175.000000" cy="80.306085" rx="25.000000" ry="14.777393" fill="rgb(255, 165, 0)" style="fill-opacity:1.00" />
<ellipse cx="175.000000" cy="80.306085" rx="16.666667" ry="9.851595" fill="rgb(255, 255, 255)" style="fill-opacity:1.00" />
<rect height="14.777393" width="25.000000" x="175.000000" y="72.917389" fill="rgb(255, 255, 255)" style="fill-opacity:1.00" />
<rect height="3.694348" width="25.000000" x="175.000000" y="84.000434" fill="rgb(255, 165, 0)" style="fill-opacity:1.00" />
<rect height="11.083045" width="6.250000" x="193.750000" y="84.000434" fill="rgb(255, 165, 0)" style="fill-opacity:1.00" />
<!-- End 'G' -->
<!-- Begin 'A' -->
<polygon points=" 150.000000, 108.504953, 171.000000, 95.083478, 179.000000, 95.083478, 200.000000, 108.504953, 192.500000, 108.504953, 186.250000, 105.149584, 163.750000, 105.149584, 157.500000, 108.504953" fill="rgb(178, 34, 34)" style="fill-opacity:1.00" />
<polygon points=" 175.000000, 97.767773, 167.000000, 102.136363, 182.000000, 102.136363" fill="rgb(255, 255, 255)" style="fill-opacity:1.00" />
<!-- End 'A' -->
<!-- Begin 'C' -->
<ellipse cx="175.000000" cy="108.952974" rx="25.000000" ry="0.448021" fill="rgb(0, 0, 128)" style="fill-opacity:1.00" />
<ellipse cx="175.000000" cy="108.952974" rx="16.666667" ry="0.298681" fill="rgb(255, 255, 255)" style="fill-opacity:1.00" />
<rect height="0.448021" width="25.000000" x="175.000000" y="108.728964" fill="rgb(255, 255, 255)" style="fill-opacity:1.00" />
<!-- End 'C' -->
<!-- Begin 'T' -->
<rect height="0.095841" width="50.000000" x="150.000000" y="109.400996" fill="rgb(0, 100, 0)" style="fill-opacity:1.00" />
<rect height="0.599004" width="10.000000" x="170.000000" y="109.400996" fill="rgb(0, 100, 0)" style="fill-opacity:1.00" />
<!-- End 'T' -->
<!-- Begin 'T' -->
<rect height="8.301383" width="50.000000" x="210.000000" y="48.861892" fill="rgb(0, 100, 0)" style="fill-opacity:1.00" />
<rect height="51.883644" width="10.000000" x="230.000000" y="48.861892" fill="rgb(0, 100, 0)" style="fill-opacity:1.00" />
<!-- End 'T' -->
<!-- Begin 'C' -->
<ellipse cx="235.000000" cy="104.107623" rx="25.000000" ry="3.362088" fill="rgb(0, 0, 128)" style="fill-opacity:1.00" />
<ellipse cx="235.000000" cy="104.107623" rx="16.666667" ry="2.241392" fill="rgb(255, 255, 255)" style="fill-opacity:1.00" />
<rect height="3.362088" width="25.000000" x="235.000000" y="102.426580" fill="rgb(255, 255, 255)" style="fill-opacity:1.00" />
<!-- End 'C' -->
<!-- Begin 'A' -->
<polygon points=" 210.000000, 109.270002, 231.000000, 107.469711, 239.000000, 107.469711, 260.000000, 109.270002, 252.500000, 109.270002, 246.250000, 108.819929, 223.750000, 108.819929, 217.500000, 109.270002" fill="rgb(178, 34, 34)" style="fill-opacity:1.00" />
<!-- End 'A' -->
<!-- Begin 'G' -->
<ellipse cx="235.000000" cy="109.635001" rx="25.000000" ry="0.364999" fill="rgb(255, 165, 0)" style="fill-opacity:1.00" />
<ellipse cx="235.000000" cy="109.635001" rx="16.666667" ry="0.243333" fill="rgb(255, 255, 255)" style="fill-opacity:1.00" />
<rect height="0.364999" width="25.000000" x="235.000000" y="109.452502" fill="rgb(255, 255, 255)" style="fill-opacity:1.00" />
<rect height="0.091250" width="25.000000" x="235.000000" y="109.726251" fill="rgb(255, 165, 0)" style="fill-opacity:1.00" />
<rect height="0.273749" width="6.250000" x="253.750000" y="109.726251" fill="rgb(255, 165, 0)" style="fill-opacity:1.00" />
<!-- End 'G' -->
<!-- Begin 'T' -->
<rect height="1.485575" width="50.000000" x="270.000000" y="91.496204" fill="rgb(0, 100, 0)" style="fill-opacity:1.00" />
<rect height="9.284845" width="10.000000" x="290.000000" y="91.496204" fill="rgb(0, 100, 0)" style="fill-opacity:1.00" />
<!-- End 'T' -->
<!-- Begin 'A' -->
<polygon points=" 270.000000, 106.756502, 291.000000, 100.781049, 299.000000, 100.781049, 320.000000, 106.756502, 312.500000, 106.756502, 306.250000, 105.262639, 283.750000, 105.262639, 277.500000, 106.756502" fill="rgb(178, 34, 34)" style="fill-opacity:1.00" />
<!-- End 'A' -->
<!-- Begin 'G' -->
<ellipse cx="295.000000" cy="107.810406" rx="25.000000" ry="1.053903" fill="rgb(255, 165, 0)" style="fill-opacity:1.00" />
<ellipse cx="295.000000" cy="107.810406" rx="16.666667" ry="0.702602" fill="rgb(255, 255, 255)" style="fill-opacity:1.00" />
<rect height="1.053903" width="25.000000" x="295.000000" y="107.283454" fill="rgb(255, 255, 255)" style="fill-opacity:1.00" />
<rect height="0.263476" width="25.000000" x="295.000000" y="108.073881" fill="rgb(255, 165, 0)" style="fill-opacity:1.00" />
<rect height="0.790428" width="6.250000" x="313.750000" y="108.073881" fill="rgb(255, 165, 0)" style="fill-opacity:1.00" />
<!-- End 'G' -->
<!-- Begin 'C' -->
<ellipse cx="295.000000" cy="109.432155" rx="25.000000" ry="0.567845" fill="rgb(0, 0, 128)" style="fill-opacity:1.00" />
<ellipse cx="295.000000" cy="109.432155" rx="16.666667" ry="0.378564" fill="rgb(255, 255, 255)" style="fill-opacity:1.00" />
<rect height="0.567845" width="25.000000" x="295.000000" y="109.148232" fill="rgb(255, 255, 255)" style="fill-opacity:1.00" />
<!-- End 'C' -->
<!-- Begin 'T' -->
<rect height="1.837747" width="50.000000" x="330.000000" y="87.782501" fill="rgb(0, 100, 0)" style="fill-opacity:1.00" />
<rect height="11.485920" width="10.000000" x="350.000000" y="87.782501" fill="rgb(0, 100, 0)" style="fill-opacity:1.00" />
<!-- End 'T' -->
<!-- Begin 'A' -->
<polygon points=" 330.000000, 106.715246, 351.000000, 99.268421, 359.000000, 99.268421, 380.000000, 106.715246, 372.500000, 106.715246, 366.250000, 104.853540, 343.750000, 104.853540, 337.500000, 106.715246" fill="rgb(178, 34, 34)" style="fill-opacity:1.00" />
<!-- End 'A' -->
<!-- Begin 'G' -->
<ellipse cx="355.000000" cy="107.891229" rx="25.000000" ry="1.175983" fill="rgb(255, 165, 0)" style="fill-opacity:1.00" />
<ellipse cx="355.000000" cy="107.891229" rx="16.666667" ry="0.783989" fill="rgb(255, 255, 255)" style="fill-opacity:1.00" />
<rect height="1.175983" width="25.000000" x="355.000000" y="107.303238" fill="rgb(255, 255, 255)" style="fill-opacity:1.00" />
<rect height="0.293996" width="25.000000" x="355.000000" y="108.185225" fill="rgb(255, 165, 0)" style="fill-opacity:1.00" />
<rect height="0.881987" width="6.250000" x="373.750000" y="108.185225" fill="rgb(255, 165, 0)" style="fill-opacity:1.00" />
<!-- End 'G' -->
<!-- Begin 'C' -->
<ellipse cx="355.000000" cy="109.533606" rx="25.000000" ry="0.466394" fill="rgb(0, 0, 128)" style="fill-opacity:1.00" />
<ellipse cx="355.000000" cy="109.533606" rx="16.666667" ry="0.310929" fill="rgb(255, 255, 255)" style="fill-opacity:1.00" />
<rect height="0.466394" width="25.000000" x="355.000000" y="109.300409" fill="rgb(255, 255, 255)" style="fill-opacity:1.00" />
<!-- End 'C' -->
<!-- Begin 'A' -->
<polygon points=" 390.000000, 98.450156, 411.000000, 67.325092, 419.000000, 67.325092, 440.000000, 98.450156, 432.500000, 98.450156, 426.250000, 90.668890, 403.750000, 90.668890, 397.500000, 98.450156" fill="rgb(178, 34, 34)" style="fill-opacity:1.00" />
<polygon points=" 415.000000, 73.550105, 407.000000, 85.000131, 422.000000, 85.000131" fill="rgb(255, 255, 255)" style="fill-opacity:1.00" />
<!-- End 'A' -->
<!-- Begin 'G' -->
<ellipse cx="415.000000" cy="102.619110" rx="25.000000" ry="4.168953" fill="rgb(255, 165, 0)" style="fill-opacity:1.00" />
<ellipse cx="415.000000" cy="102.619110" rx="16.666667" ry="2.779302" fill="rgb(255, 255, 255)" style="fill-opacity:1.00" />
<rect height="4.168953" width="25.000000" x="415.000000" y="100.534633" fill="rgb(255, 255, 255)" style="fill-opacity:1.00" />
<rect height="1.042238" width="25.000000" x="415.000000" y="103.661348" fill="rgb(255, 165, 0)" style="fill-opacity:1.00" />
<rect height="3.126715" width="6.250000" x="433.750000" y="103.661348" fill="rgb(255, 165, 0)" style="fill-opacity:1.00" />
<!-- End 'G' -->
<!-- Begin 'T' -->
<rect height="0.305801" width="50.000000" x="390.000000" y="106.788063" fill="rgb(0, 100, 0)" style="fill-opacity:1.00" />
<rect height="1.911259" width="10.000000" x="410.000000" y="106.788063" fill="rgb(0, 100, 0)" style="fill-opacity:1.00" />
<!-- End 'T' -->
<!-- Begin 'C' -->
<ellipse cx="415.000000" cy="109.349661" rx="25.000000" ry="0.650339" fill="rgb(0, 0, 128)" style="fill-opacity:1.00" />
<ellipse cx="415.000000" cy="109.349661" rx="16.666667" ry="0.433560" fill="rgb(255, 255, 255)" style="fill-opacity:1.00" />
<rect height="0.650339" width="25.000000" x="415.000000" y="109.024491" fill="rgb(255, 255, 255)" style="fill-opacity:1.00" />
<!-- End 'C' -->
<!-- Begin 'C' -->
<ellipse cx="475.000000" cy="87.503947" rx="25.000000" ry="10.281886" fill="rgb(0, 0, 128)" style="fill-opacity:1.00" />
<ellipse cx="475.000000" cy="87.503947" rx="16.666667" ry="6.854590" fill="rgb(255, 255, 255)" style="fill-opacity:1.00" />
<rect height="10.281886" width="25.000000" x="475.000000" y="82.363004" fill="rgb(255, 255, 255)" style="fill-opacity:1.00" />
<!-- End 'C' -->
<!-- Begin 'T' -->
<rect height="1.432357" width="50.000000" x="450.000000" y="97.785832" fill="rgb(0, 100, 0)" style="fill-opacity:1.00" />
<rect height="8.952234" width="10.000000" x="470.000000" y="97.785832" fill="rgb(0, 100, 0)" style="fill-opacity:1.00" />
<!-- End 'T' -->
<!-- Begin 'A' -->
<polygon points=" 450.000000, 109.203724, 471.000000, 106.738066, 479.000000, 106.738066, 500.000000, 109.203724, 492.500000, 109.203724, 486.250000, 108.587310, 463.750000, 108.587310, 457.500000, 109.203724" fill="rgb(178, 34, 34)" style="fill-opacity:1.00" />
<!-- End 'A' -->
<!-- Begin 'G' -->
<ellipse cx="475.000000" cy="109.601862" rx="25.000000" ry="0.398138" fill="rgb(255, 165, 0)" style="fill-opacity:1.00" />
<ellipse cx="475.000000" cy="109.601862" rx="16.666667" ry="0.265425" fill="rgb(255, 255, 255)" style="fill-opacity:1.00" />
<rect height="0.398138" width="25.000000" x="475.000000" y="109.402793" fill="rgb(255, 255, 255)" style="fill-opacity:1.00" />
<rect height="0.099535" width="25.000000" x="475.000000" y="109.701396" fill="rgb(255, 165, 0)" style="fill-opacity:1.00" />
<rect height="0.298604" width="6.250000" x="493.750000" y="109.701396" fill="rgb(255, 165, 0)" style="fill-opacity:1.00" />
<!-- End 'G' -->
<!-- Begin 'A' -->
<polygon points=" 510.000000, 99.495392, 531.000000, 85.905407, 539.000000, 85.905407, 560.000000, 99.495392, 552.500000, 99.495392, 546.250000, 96.097896, 523.750000, 96.097896, 517.500000, 99.495392" fill="rgb(178, 34, 34)" style="fill-opacity:1.00" />
<polygon points=" 535.000000, 88.623404, 527.000000, 93.059398, 542.000000, 93.059398" fill="rgb(255, 255, 255)" style="fill-opacity:1.00" />
<!-- End 'A' -->
<!-- Begin 'T' -->
<rect height="1.084798" width="50.000000" x="510.000000" y="99.495392" fill="rgb(0, 100, 0)" style="fill-opacity:1.00" />
<rect height="6.779988" width="10.000000" x="530.000000" y="99.495392" fill="rgb(0, 100, 0)" style="fill-opacity:1.00" />
<!-- End 'T' -->
<!-- Begin 'C' -->
<ellipse cx="535.000000" cy="107.704339" rx="25.000000" ry="1.428958" fill="rgb(0, 0, 128)" style="fill-opacity:1.00" />
<ellipse cx="535.000000" cy="107.704339" rx="16.666667" ry="0.952639" fill="rgb(255, 255, 255)" style="fill-opacity:1.00" />
<rect height="1.428958" width="25.000000" x="535.000000" y="106.989860" fill="rgb(255, 255, 255)" style="fill-opacity:1.00" />
<!-- End 'C' -->
<!-- Begin 'G' -->
<ellipse cx="535.000000" cy="109.566649" rx="25.000000" ry="0.433351" fill="rgb(255, 165, 0)" style="fill-opacity:1.00" />
<ellipse cx="535.000000" cy="109.566649" rx="16.666667" ry="0.288901" fill="rgb(255, 255, 255)" style="fill-opacity:1.00" />
<rect height="0.433351" width="25.000000" x="535.000000" y="109.349973" fill="rgb(255, 255, 255)" style="fill-opacity:1.00" />
<rect height="0.108338" width="25.000000" x="535.000000" y="109.674986" fill="rgb(255, 165, 0)" style="fill-opacity:1.00" />
<rect height="0.325014" width="6.250000" x="553.750000" y="109.674986" fill="rgb(255, 165, 0)" style="fill-opacity:1.00" />
<!-- End 'G' -->
<!-- Begin 'T' -->
<rect height="0.259876" width="50.000000" x="570.000000" y="105.837069" fill="rgb(0, 100, 0)" style="fill-opacity:1.00" />
<rect height="1.624225" width="10.000000" x="590.000000" y="105.837069" fill="rgb(0, 100, 0)" style="fill-opacity:1.00" />
<!-- End 'T' -->
<!-- Begin 'C' -->
<ellipse cx="595.000000" cy="107.993133" rx="25.000000" ry="0.531839" fill="rgb(0, 0, 128)" style="fill-opacity:1.00" />
<ellipse cx="595.000000" cy="107.993133" rx="16.666667" ry="0.354559" fill="rgb(255, 255, 255)" style="fill-opacity:1.00" />
<rect height="0.531839" width="25.000000" x="595.000000" y="107.727213" fill="rgb(255, 255, 255)" style="fill-opacity:1.00" />
<!-- End 'C' -->
<!-- Begin 'A' -->
<polygon points=" 570.000000, 109.301730, 591.000000, 108.524972, 599.000000, 108.524972, 620.000000, 109.301730, 612.500000, 109.301730, 606.250000, 109.107541, 583.750000, 109.107541, 577.500000, 109.301730" fill="rgb(178, 34, 34)" style="fill-opacity:1.00" />
<!-- End 'A' -->
<!-- Begin 'G' -->
<ellipse cx="595.000000" cy="109.650865" rx="25.000000" ry="0.349135" fill="rgb(255, 165, 0)" style="fill-opacity:1.00" />
<ellipse cx="595.000000" cy="109.650865" rx="16.666667" ry="0.232757" fill="rgb(255, 255, 255)" style="fill-opacity:1.00" />
<rect height="0.349135" width="25.000000" x="595.000000" y="109.476298" fill="rgb(255, 255, 255)" style="fill-opacity:1.00" />
<rect height="0.087284" width="25.000000" x="595.000000" y="109.738149" fill="rgb(255, 165, 0)" style="fill-opacity:1.00" />
<rect height="0.261851" width="6.250000" x="613.750000" y="109.738149" fill="rgb(255, 165, 0)" style="fill-opacity:1.00" />
<!-- End 'G' -->
<!-- Begin 'A' -->
<polygon points=" 630.000000, 104.196249, 651.000000, 100.212461, 659.000000, 100.212461, 680.000000, 104.196249, 672.500000, 104.196249, 666.250000, 103.200302, 643.750000, 103.200302, 637.500000, 104.196249" fill="rgb(178, 34, 34)" style="fill-opacity:1.00" />
<!-- End 'A' -->
<!-- Begin 'T' -->
<rect height="0.536078" width="50.000000" x="630.000000" y="104.196249" fill="rgb(0, 100, 0)" style="fill-opacity:1.00" />
<rect height="3.350486" width="10.000000" x="650.000000" y="104.196249" fill="rgb(0, 100, 0)" style="fill-opacity:1.00" />
<!-- End 'T' -->
<!-- Begin 'G' -->
<ellipse cx="655.000000" cy="108.251390" rx="25.000000" ry="0.704655" fill="rgb(255, 165, 0)" style="fill-opacity:1.00" />
<ellipse cx="655.000000" cy="108.251390" rx="16.666667" ry="0.469770" fill="rgb(255, 255, 255)" style="fill-opacity:1.00" />
<rect height="0.704655" width="25.000000" x="655.000000" y="107.899063" fill="rgb(255, 255, 255)" style="fill-opacity:1.00" />
<rect height="0.176164" width="25.000000" x="655.000000" y="108.427554" fill="rgb(255, 165, 0)" style="fill-opacity:1.00" />
<rect height="0.528491" width="6.250000" x="673.750000" y="108.427554" fill="rgb(255, 165, 0)" style="fill-opacity:1.00" />
<!-- End 'G' -->
<!-- Begin 'C' -->
<ellipse cx="655.000000" cy="109.478023" rx="25.000000" ry="0.521977" fill="rgb(0, 0, 128)" style="fill-opacity:1.00" />
<ellipse cx="655.000000" cy="109.478023" rx="16.666667" ry="0.347985" fill="rgb(255, 255, 255)" style="fill-opacity:1.00" />
<rect height="0.521977" width="25.000000" x="655.000000" y="109.217034" fill="rgb(255, 255, 255)" style="fill-opacity:1.00" />
<!-- End 'C' -->
<!-- Begin 'G' -->
<ellipse cx="715.000000" cy="108.692238" rx="25.000000" ry="0.261179" fill="rgb(255, 165, 0)" style="fill-opacity:1.00" />
<ellipse cx="715.000000" cy="108.692238" rx="16.666667" ry="0.174120" fill="rgb(255, 255, 255)" style="fill-opacity:1.00" />
<rect height="0.261179" width="25.000000" x="715.000000" y="108.561648" fill="rgb(255, 255, 255)" style="fill-opacity:1.00" />
<rect height="0.065295" width="25.000000" x="715.000000" y="108.757533" fill="rgb(255, 165, 0)" style="fill-opacity:1.00" />
<rect height="0.195885" width="6.250000" x="733.750000" y="108.757533" fill="rgb(255, 165, 0)" style="fill-opacity:1.00" />
<!-- End 'G' -->
<!-- Begin 'A' -->
<polygon points=" 690.000000, 109.332814, 711.000000, 108.953417, 719.000000, 108.953417, 740.000000, 109.332814, 732.500000, 109.332814, 726.250000, 109.237965, 703.750000, 109.237965, 697.500000, 109.332814" fill="rgb(178, 34, 34)" style="fill-opacity:1.00" />
<!-- End 'A' -->
<!-- Begin 'T' -->
<rect height="0.059994" width="50.000000" x="690.000000" y="109.332814" fill="rgb(0, 100, 0)" style="fill-opacity:1.00" />
<rect height="0.374961" width="10.000000" x="710.000000" y="109.332814" fill="rgb(0, 100, 0)" style="fill-opacity:1.00" />
<!-- End 'T' -->
<!-- Begin 'C' -->
<ellipse cx="715.000000" cy="109.853888" rx="25.000000" ry="0.146112" fill="rgb(0, 0, 128)" style="fill-opacity:1.00" />
<ellipse cx="715.000000" cy="109.853888" rx="16.666667" ry="0.097408" fill="rgb(255, 255, 255)" style="fill-opacity:1.00" />
<rect height="0.146112" width="25.000000" x="715.000000" y="109.780832" fill="rgb(255, 255, 255)" style="fill-opacity:1.00" />
<!-- End 'C' -->
<!-- Begin 'T' -->
<rect height="0.001713" width="50.000000" x="750.000000" y="109.958431" fill="rgb(0, 100, 0)" style="fill-opacity:1.00" />
<rect height="0.010709" width="10.000000" x="770.000000" y="109.958431" fill="rgb(0, 100, 0)" style="fill-opacity:1.00" />
<!-- End 'T' -->
<!-- Begin 'G' -->
<ellipse cx="775.000000" cy="109.974407" rx="25.000000" ry="0.005268" fill="rgb(255, 165, 0)" style="fill-opacity:1.00" />
<ellipse cx="775.000000" cy="109.974407" rx="16.666667" ry="0.003512" fill="rgb(255, 255, 255)" style="fill-opacity:1.00" />
<rect height="0.005268" width="25.000000" x="775.000000" y="109.971773" fill="rgb(255, 255, 255)" style="fill-opacity:1.00" />
<rect height="0.001317" width="25.000000" x="775.000000" y="109.975725" fill="rgb(255, 165, 0)" style="fill-opacity:1.00" />
<rect height="0.003951" width="6.250000" x="793.750000" y="109.975725" fill="rgb(255, 165, 0)" style="fill-opacity:1.00" />
<!-- End 'G' -->
<!-- Begin 'C' -->
<ellipse cx="775.000000" cy="109.984939" rx="25.000000" ry="0.005263" fill="rgb(0, 0, 128)" style="fill-opacity:1.00" />
<ellipse cx="775.000000" cy="109.984939" rx="16.666667" ry="0.003509" fill="rgb(255, 255, 255)" style="fill-opacity:1.00" />
<rect height="0.005263" width="25.000000" x="775.000000" y="109.982307" fill="rgb(255, 255, 255)" style="fill-opacity:1.00" />
<!-- End 'C' -->
<!-- Begin 'A' -->
<polygon points=" 750.000000, 110.000000, 771.000000, 109.990202, 779.000000, 109.990202, 800.000000, 110.000000, 792.500000, 110.000000, 786.250000, 109.997551, 763.750000, 109.997551, 757.500000, 110.000000" fill="rgb(178, 34, 34)" style="fill-opacity:1.00" />
<!-- End 'A' -->
<text x="430.000000" y="165">
IC = 5.94
</text>

</svg>
