<?xml version="1.0" encoding="UTF-8" standalone="yes"?>
                 <!DOCTYPE svg PUBLIC "-//W3C//DTD SVG 1.0//EN" "http://www.w3.org/TR/2001/REC-SVG-20010904/DTD/svg10.dtd">
                 <svg height="170" width="1140" xmlns="http://www.w3.org/2000/svg" xmlns:xlink="http://www.w3.org/1999/xlink">
                 <line x1="85" y1="120" x2="1107" y2="120" style="stroke:rgb(99,99,99);stroke-width:2" />
<rect height="7.000000" width="2.000000" x="85.000000" y="120.000000" fill="rgb(0, 0, 0)" style="fill-opacity:1.00" />
<text x="107.000000" y="140">
1
</text>
<rect height="7.000000" width="2.000000" x="145.000000" y="120.000000" fill="rgb(0, 0, 0)" style="fill-opacity:1.00" />
<text x="167.000000" y="140">
2
</text>
<rect height="7.000000" width="2.000000" x="205.000000" y="120.000000" fill="rgb(0, 0, 0)" style="fill-opacity:1.00" />
<text x="227.000000" y="140">
3
</text>
<rect height="7.000000" width="2.000000" x="265.000000" y="120.000000" fill="rgb(0, 0, 0)" style="fill-opacity:1.00" />
<text x="287.000000" y="140">
4
</text>
<rect height="7.000000" width="2.000000" x="325.000000" y="120.000000" fill="rgb(0, 0, 0)" style="fill-opacity:1.00" />
<text x="347.000000" y="140">
5
</text>
<rect height="7.000000" width="2.000000" x="385.000000" y="120.000000" fill="rgb(0, 0, 0)" style="fill-opacity:1.00" />
<text x="407.000000" y="140">
6
</text>
<rect height="7.000000" width="2.000000" x="445.000000" y="120.000000" fill="rgb(0, 0, 0)" style="fill-opacity:1.00" />
<text x="467.000000" y="140">
7
</text>
<rect height="7.000000" width="2.000000" x="505.000000" y="120.000000" fill="rgb(0, 0, 0)" style="fill-opacity:1.00" />
<text x="527.000000" y="140">
8
</text>
<rect height="7.000000" width="2.000000" x="565.000000" y="120.000000" fill="rgb(0, 0, 0)" style="fill-opacity:1.00" />
<text x="587.000000" y="140">
9
</text>
<rect height="7.000000" width="2.000000" x="625.000000" y="120.000000" fill="rgb(0, 0, 0)" style="fill-opacity:1.00" />
<text x="647.000000" y="140">
10
</text>
<rect height="7.000000" width="2.000000" x="685.000000" y="120.000000" fill="rgb(0, 0, 0)" style="fill-opacity:1.00" />
<text x="707.000000" y="140">
11
</text>
<rect height="7.000000" width="2.000000" x="745.000000" y="120.000000" fill="rgb(0, 0, 0)" style="fill-opacity:1.00" />
<text x="767.000000" y="140">
12
</text>
<rect height="7.000000" width="2.000000" x="805.000000" y="120.000000" fill="rgb(0, 0, 0)" style="fill-opacity:1.00" />
<text x="827.000000" y="140">
13
</text>
<rect height="7.000000" width="2.000000" x="865.000000" y="120.000000" fill="rgb(0, 0, 0)" style="fill-opacity:1.00" />
<text x="887.000000" y="140">
14
</text>
<rect height="7.000000" width="2.000000" x="925.000000" y="120.000000" fill="rgb(0, 0, 0)" style="fill-opacity:1.00" />
<text x="947.000000" y="140">
15
</text>
<rect height="7.000000" width="2.000000" x="985.000000" y="120.000000" fill="rgb(0, 0, 0)" style="fill-opacity:1.00" />
<text x="1007.000000" y="140">
16
</text>
<rect height="7.000000" width="2.000000" x="1045.000000" y="120.000000" fill="rgb(0, 0, 0)" style="fill-opacity:1.00" />
<text x="1067.000000" y="140">
17
</text>
<rect height="7.000000" width="2.000000" x="1105.000000" y="120.000000" fill="rgb(0, 0, 0)" style="fill-opacity:1.00" />
<line x1="80" y1="112" x2="80" y2="10" style="stroke:rgb(99,99,99);stroke-width:2" />
<rect height="2.000000" width="7.000000" x="73.000000" y="110.000000" fill="rgb(0, 0, 0)" style="fill-opacity:1.00" />
<text x="63" y="115">
0
</text>
<rect height="2.000000" width="7.000000" x="73.000000" y="60.000000" fill="rgb(0, 0, 0)" style="fill-opacity:1.00" />
<text x="63" y="65">
1
</text>
<rect height="2.000000" width="7.000000" x="73.000000" y="10.000000" fill="rgb(0, 0, 0)" style="fill-opacity:1.00" />
<text x="63" y="15">
2
</text>
<text x="50" y="65"
transform="rotate(-90, 50, 70)">
bits
</text>
<!-- Begin 'A' -->
<polygon points=" 90.000000, 108.485161, 111.000000, 107.701789, 119.000000, 107.701789, 140.000000, 108.485161, 132.500000, 108.485161, 126.250000, 108.289318, 103.750000, 108.289318, 97.500000, 108.485161" fill="rgb(178, 34, 34)" style="fill-opacity:1.00" />
<!-- End 'A' -->
<!-- Begin 'G' -->
<ellipse cx="115.000000" cy="108.800399" rx="25.000000" ry="0.315238" fill="rgb(255, 165, 0)" style="fill-opacity:1.00" />
<ellipse cx="115.000000" cy="108.800399" rx="16.666667" ry="0.210159" fill="rgb(255, 255, 255)" style="fill-opacity:1.00" />
<rect height="0.315238" width="25.000000" x="115.000000" y="108.642780" fill="rgb(255, 255, 255)" style="fill-opacity:1.00" />
<rect height="0.078809" width="25.000000" x="115.000000" y="108.879208" fill="rgb(255, 165, 0)" style="fill-opacity:1.00" />
<rect height="0.236428" width="6.250000" x="133.750000" y="108.879208" fill="rgb(255, 165, 0)" style="fill-opacity:1.00" />
<!-- End 'G' -->
<!-- Begin 'T' -->
<rect height="0.076942" width="50.000000" x="90.000000" y="109.115637" fill="rgb(0, 100, 0)" style="fill-opacity:1.00" />
<rect height="0.480886" width="10.000000" x="110.000000" y="109.115637" fill="rgb(0, 100, 0)" style="fill-opacity:1.00" />
<!-- End 'T' -->
<!-- Begin 'C' -->
<ellipse cx="115.000000" cy="109.798262" rx="25.000000" ry="0.201738" fill="rgb(0, 0, 128)" style="fill-opacity:1.00" />
<ellipse cx="115.000000" cy="109.798262" rx="16.666667" ry="0.134492" fill="rgb(255, 255, 255)" style="fill-opacity:1.00" />
<rect height="0.201738" width="25.000000" x="115.000000" y="109.697392" fill="rgb(255, 255, 255)" style="fill-opacity:1.00" />
<!-- End 'C' -->
<!-- Begin 'A' -->
<polygon points=" 150.000000, 105.680799, 171.000000, 101.855485, 179.000000, 101.855485, 200.000000, 105.680799, 192.500000, 105.680799, 186.250000, 104.724470, 163.750000, 104.724470, 157.500000, 105.680799" fill="rgb(178, 34, 34)" style="fill-opacity:1.00" />
<!-- End 'A' -->
<!-- Begin 'G' -->
<ellipse cx="175.000000" cy="106.441046" rx="25.000000" ry="0.760247" fill="rgb(255, 165, 0)" style="fill-opacity:1.00" />
<ellipse cx="175.000000" cy="106.441046" rx="16.666667" ry="0.506831" fill="rgb(255, 255, 255)" style="fill-opacity:1.00" />
<rect height="0.760247" width="25.000000" x="175.000000" y="106.060922" fill="rgb(255, 255, 255)" style="fill-opacity:1.00" />
<rect height="0.190062" width="25.000000" x="175.000000" y="106.631108" fill="rgb(255, 165, 0)" style="fill-opacity:1.00" />
<rect height="0.570185" width="6.250000" x="193.750000" y="106.631108" fill="rgb(255, 165, 0)" style="fill-opacity:1.00" />
<!-- End 'G' -->
<!-- Begin 'T' -->
<rect height="0.229886" width="50.000000" x="150.000000" y="107.201293" fill="rgb(0, 100, 0)" style="fill-opacity:1.00" />
<rect height="1.436786" width="10.000000" x="170.000000" y="107.201293" fill="rgb(0, 100, 0)" style="fill-opacity:1.00" />
<!-- End 'T' -->
<!-- Begin 'C' -->
<ellipse cx="175.000000" cy="109.319040" rx="25.000000" ry="0.680960" fill="rgb(0, 0, 128)" style="fill-opacity:1.00" />
<ellipse cx="175.000000" cy="109.319040" rx="16.666667" ry="0.453974" fill="rgb(255, 255, 255)" style="fill-opacity:1.00" />
<rect height="0.680960" width="25.000000" x="175.000000" y="108.978559" fill="rgb(255, 255, 255)" style="fill-opacity:1.00" />
<!-- End 'C' -->
<!-- Begin 'C' -->
<ellipse cx="235.000000" cy="70.489557" rx="25.000000" ry="32.186087" fill="rgb(0, 0, 128)" style="fill-opacity:1.00" />
<ellipse cx="235.000000" cy="70.489557" rx="16.666667" ry="21.457392" fill="rgb(255, 255, 255)" style="fill-opacity:1.00" />
<rect height="32.186087" width="25.000000" x="235.000000" y="54.396513" fill="rgb(255, 255, 255)" style="fill-opacity:1.00" />
<!-- End 'C' -->
<!-- Begin 'A' -->
<polygon points=" 210.000000, 108.581628, 231.000000, 102.675645, 239.000000, 102.675645, 260.000000, 108.581628, 252.500000, 108.581628, 246.250000, 107.105132, 223.750000, 107.105132, 217.500000, 108.581628" fill="rgb(178, 34, 34)" style="fill-opacity:1.00" />
<!-- End 'A' -->
<!-- Begin 'G' -->
<ellipse cx="235.000000" cy="109.065676" rx="25.000000" ry="0.484048" fill="rgb(255, 165, 0)" style="fill-opacity:1.00" />
<ellipse cx="235.000000" cy="109.065676" rx="16.666667" ry="0.322699" fill="rgb(255, 255, 255)" style="fill-opacity:1.00" />
<rect height="0.484048" width="25.000000" x="235.000000" y="108.823652" fill="rgb(255, 255, 255)" style="fill-opacity:1.00" />
<rect height="0.121012" width="25.000000" x="235.000000" y="109.186688" fill="rgb(255, 165, 0)" style="fill-opacity:1.00" />
<rect height="0.363036" width="6.250000" x="253.750000" y="109.186688" fill="rgb(255, 165, 0)" style="fill-opacity:1.00" />
<!-- End 'G' -->
<!-- Begin 'T' -->
<rect height="0.072044" width="50.000000" x="210.000000" y="109.549724" fill="rgb(0, 100, 0)" style="fill-opacity:1.00" />
<rect height="0.450276" width="10.000000" x="230.000000" y="109.549724" fill="rgb(0, 100, 0)" style="fill-opacity:1.00" />
<!-- End 'T' -->
<!-- Begin 'A' -->
<polygon points=" 270.000000, 108.224495, 291.000000, 18.176362, 299.000000, 18.176362, 320.000000, 108.224495, 312.500000, 108.224495, 306.250000, 85.712461, 283.750000, 85.712461, 277.500000, 108.224495" fill="rgb(178, 34, 34)" style="fill-opacity:1.00" />
<polygon points=" 295.000000, 36.185988, 287.000000, 71.205241, 302.000000, 71.205241" fill="rgb(255, 255, 255)" style="fill-opacity:1.00" />
<!-- End 'A' -->
<!-- Begin 'T' -->
<rect height="0.164709" width="50.000000" x="270.000000" y="108.224495" fill="rgb(0, 100, 0)" style="fill-opacity:1.00" />
<rect height="1.029434" width="10.000000" x="290.000000" y="108.224495" fill="rgb(0, 100, 0)" style="fill-opacity:1.00" />
<!-- End 'T' -->
<!-- Begin 'G' -->
<ellipse cx="295.000000" cy="109.525768" rx="25.000000" ry="0.271840" fill="rgb(255, 165, 0)" style="fill-opacity:1.00" />
<ellipse cx="295.000000" cy="109.525768" rx="16.666667" ry="0.181226" fill="rgb(255, 255, 255)" style="fill-opacity:1.00" />
<rect height="0.271840" width="25.000000" x="295.000000" y="109.389848" fill="rgb(255, 255, 255)" style="fill-opacity:1.00" />
<rect height="0.067960" width="25.000000" x="295.000000" y="109.593728" fill="rgb(255, 165, 0)" style="fill-opacity:1.00" />
<rect height="0.203880" width="6.250000" x="313.750000" y="109.593728" fill="rgb(255, 165, 0)" style="fill-opacity:1.00" />
<!-- End 'G' -->
<!-- Begin 'C' -->
<ellipse cx="295.000000" cy="109.898804" rx="25.000000" ry="0.101196" fill="rgb(0, 0, 128)" style="fill-opacity:1.00" />
<ellipse cx="295.000000" cy="109.898804" rx="16.666667" ry="0.067464" fill="rgb(255, 255, 255)" style="fill-opacity:1.00" />
<rect height="0.101196" width="25.000000" x="295.000000" y="109.848205" fill="rgb(255, 255, 255)" style="fill-opacity:1.00" />
<!-- End 'C' -->
<!-- Begin 'C' -->
<ellipse cx="355.000000" cy="70.054774" rx="25.000000" ry="30.768374" fill="rgb(0, 0, 128)" style="fill-opacity:1.00" />
<ellipse cx="355.000000" cy="70.054774" rx="16.666667" ry="20.512249" fill="rgb(255, 255, 255)" style="fill-opacity:1.00" />
<rect height="30.768374" width="25.000000" x="355.000000" y="54.670587" fill="rgb(255, 255, 255)" style="fill-opacity:1.00" />
<!-- End 'C' -->
<!-- Begin 'T' -->
<rect height="1.422519" width="50.000000" x="330.000000" y="100.823148" fill="rgb(0, 100, 0)" style="fill-opacity:1.00" />
<rect height="8.890746" width="10.000000" x="350.000000" y="100.823148" fill="rgb(0, 100, 0)" style="fill-opacity:1.00" />
<!-- End 'T' -->
<!-- Begin 'A' -->
<polygon points=" 330.000000, 109.942856, 351.000000, 109.713895, 359.000000, 109.713895, 380.000000, 109.942856, 372.500000, 109.942856, 366.250000, 109.885616, 343.750000, 109.885616, 337.500000, 109.942856" fill="rgb(178, 34, 34)" style="fill-opacity:1.00" />
<!-- End 'A' -->
<!-- Begin 'G' -->
<ellipse cx="355.000000" cy="109.971428" rx="25.000000" ry="0.028572" fill="rgb(255, 165, 0)" style="fill-opacity:1.00" />
<ellipse cx="355.000000" cy="109.971428" rx="16.666667" ry="0.019048" fill="rgb(255, 255, 255)" style="fill-opacity:1.00" />
<rect height="0.028572" width="25.000000" x="355.000000" y="109.957142" fill="rgb(255, 255, 255)" style="fill-opacity:1.00" />
<rect height="0.007143" width="25.000000" x="355.000000" y="109.978571" fill="rgb(255, 165, 0)" style="fill-opacity:1.00" />
<rect height="0.021429" width="6.250000" x="373.750000" y="109.978571" fill="rgb(255, 165, 0)" style="fill-opacity:1.00" />
<!-- End 'G' -->
<!-- Begin 'G' -->
<ellipse cx="415.000000" cy="68.212230" rx="25.000000" ry="34.493036" fill="rgb(255, 165, 0)" style="fill-opacity:1.00" />
<ellipse cx="415.000000" cy="68.212230" rx="16.666667" ry="22.995357" fill="rgb(255, 255, 255)" style="fill-opacity:1.00" />
<rect height="34.493036" width="25.000000" x="415.000000" y="50.965712" fill="rgb(255, 255, 255)" style="fill-opacity:1.00" />
<rect height="8.623259" width="25.000000" x="415.000000" y="76.835489" fill="rgb(255, 165, 0)" style="fill-opacity:1.00" />
<rect height="25.869777" width="6.250000" x="433.750000" y="76.835489" fill="rgb(255, 165, 0)" style="fill-opacity:1.00" />
<!-- End 'G' -->
<!-- Begin 'A' -->
<polygon points=" 390.000000, 109.780711, 411.000000, 102.705266, 419.000000, 102.705266, 440.000000, 109.780711, 432.500000, 109.780711, 426.250000, 108.011850, 403.750000, 108.011850, 397.500000, 109.780711" fill="rgb(178, 34, 34)" style="fill-opacity:1.00" />
<!-- End 'A' -->
<!-- Begin 'T' -->
<rect height="0.033464" width="50.000000" x="390.000000" y="109.780711" fill="rgb(0, 100, 0)" style="fill-opacity:1.00" />
<rect height="0.209148" width="10.000000" x="410.000000" y="109.780711" fill="rgb(0, 100, 0)" style="fill-opacity:1.00" />
<!-- End 'T' -->
<!-- Begin 'C' -->
<ellipse cx="415.000000" cy="109.994929" rx="25.000000" ry="0.005071" fill="rgb(0, 0, 128)" style="fill-opacity:1.00" />
<ellipse cx="415.000000" cy="109.994929" rx="16.666667" ry="0.003380" fill="rgb(255, 255, 255)" style="fill-opacity:1.00" />
<rect height="0.005071" width="25.000000" x="415.000000" y="109.992394" fill="rgb(255, 255, 255)" style="fill-opacity:1.00" />
<!-- End 'C' -->
<!-- Begin 'T' -->
<rect height="14.364009" width="50.000000" x="450.000000" y="18.331277" fill="rgb(0, 100, 0)" style="fill-opacity:1.00" />
<rect height="89.775054" width="10.000000" x="470.000000" y="18.331277" fill="rgb(0, 100, 0)" style="fill-opacity:1.00" />
<!-- End 'T' -->
<!-- Begin 'A' -->
<polygon points=" 450.000000, 109.364064, 471.000000, 108.106331, 479.000000, 108.106331, 500.000000, 109.364064, 492.500000, 109.364064, 486.250000, 109.049631, 463.750000, 109.049631, 457.500000, 109.364064" fill="rgb(178, 34, 34)" style="fill-opacity:1.00" />
<!-- End 'A' -->
<!-- Begin 'C' -->
<ellipse cx="475.000000" cy="109.660406" rx="25.000000" ry="0.296342" fill="rgb(0, 0, 128)" style="fill-opacity:1.00" />
<ellipse cx="475.000000" cy="109.660406" rx="16.666667" ry="0.197561" fill="rgb(255, 255, 255)" style="fill-opacity:1.00" />
<rect height="0.296342" width="25.000000" x="475.000000" y="109.512235" fill="rgb(255, 255, 255)" style="fill-opacity:1.00" />
<!-- End 'C' -->
<!-- Begin 'G' -->
<ellipse cx="475.000000" cy="109.978374" rx="25.000000" ry="0.021626" fill="rgb(255, 165, 0)" style="fill-opacity:1.00" />
<ellipse cx="475.000000" cy="109.978374" rx="16.666667" ry="0.014417" fill="rgb(255, 255, 255)" style="fill-opacity:1.00" />
<rect height="0.021626" width="25.000000" x="475.000000" y="109.967561" fill="rgb(255, 255, 255)" style="fill-opacity:1.00" />
<rect height="0.005406" width="25.000000" x="475.000000" y="109.983781" fill="rgb(255, 165, 0)" style="fill-opacity:1.00" />
<rect height="0.016219" width="6.250000" x="493.750000" y="109.983781" fill="rgb(255, 165, 0)" style="fill-opacity:1.00" />
<!-- End 'G' -->
<!-- Begin 'G' -->
<ellipse cx="535.000000" cy="71.191451" rx="25.000000" ry="29.601229" fill="rgb(255, 165, 0)" style="fill-opacity:1.00" />
<ellipse cx="535.000000" cy="71.191451" rx="16.666667" ry="19.734153" fill="rgb(255, 255, 255)" style="fill-opacity:1.00" />
<rect height="29.601229" width="25.000000" x="535.000000" y="56.390837" fill="rgb(255, 255, 255)" style="fill-opacity:1.00" />
<rect height="7.400307" width="25.000000" x="535.000000" y="78.591758" fill="rgb(255, 165, 0)" style="fill-opacity:1.00" />
<rect height="22.200922" width="6.250000" x="553.750000" y="78.591758" fill="rgb(255, 165, 0)" style="fill-opacity:1.00" />
<!-- End 'G' -->
<!-- Begin 'T' -->
<rect height="1.361328" width="50.000000" x="510.000000" y="100.792680" fill="rgb(0, 100, 0)" style="fill-opacity:1.00" />
<rect height="8.508297" width="10.000000" x="530.000000" y="100.792680" fill="rgb(0, 100, 0)" style="fill-opacity:1.00" />
<!-- End 'T' -->
<!-- Begin 'A' -->
<polygon points=" 510.000000, 109.739316, 531.000000, 109.300977, 539.000000, 109.300977, 560.000000, 109.739316, 552.500000, 109.739316, 546.250000, 109.629732, 523.750000, 109.629732, 517.500000, 109.739316" fill="rgb(178, 34, 34)" style="fill-opacity:1.00" />
<!-- End 'A' -->
<!-- Begin 'C' -->
<ellipse cx="535.000000" cy="109.869658" rx="25.000000" ry="0.130342" fill="rgb(0, 0, 128)" style="fill-opacity:1.00" />
<ellipse cx="535.000000" cy="109.869658" rx="16.666667" ry="0.086895" fill="rgb(255, 255, 255)" style="fill-opacity:1.00" />
<rect height="0.130342" width="25.000000" x="535.000000" y="109.804487" fill="rgb(255, 255, 255)" style="fill-opacity:1.00" />
<!-- End 'C' -->
<!-- Begin 'T' -->
<rect height="0.688733" width="50.000000" x="570.000000" y="100.909696" fill="rgb(0, 100, 0)" style="fill-opacity:1.00" />
<rect height="4.304581" width="10.000000" x="590.000000" y="100.909696" fill="rgb(0, 100, 0)" style="fill-opacity:1.00" />
<!-- End 'T' -->
<!-- Begin 'G' -->
<ellipse cx="595.000000" cy="106.189219" rx="25.000000" ry="0.974942" fill="rgb(255, 165, 0)" style="fill-opacity:1.00" />
<ellipse cx="595.000000" cy="106.189219" rx="16.666667" ry="0.649961" fill="rgb(255, 255, 255)" style="fill-opacity:1.00" />
<rect height="0.974942" width="25.000000" x="595.000000" y="105.701748" fill="rgb(255, 255, 255)" style="fill-opacity:1.00" />
<rect height="0.243736" width="25.000000" x="595.000000" y="106.432955" fill="rgb(255, 165, 0)" style="fill-opacity:1.00" />
<rect height="0.731207" width="6.250000" x="613.750000" y="106.432955" fill="rgb(255, 165, 0)" style="fill-opacity:1.00" />
<!-- End 'G' -->
<!-- Begin 'A' -->
<polygon points=" 570.000000, 108.795584, 591.000000, 107.164161, 599.000000, 107.164161, 620.000000, 108.795584, 612.500000, 108.795584, 606.250000, 108.387728, 583.750000, 108.387728, 577.500000, 108.795584" fill="rgb(178, 34, 34)" style="fill-opacity:1.00" />
<!-- End 'A' -->
<!-- Begin 'C' -->
<ellipse cx="595.000000" cy="109.397792" rx="25.000000" ry="0.602208" fill="rgb(0, 0, 128)" style="fill-opacity:1.00" />
<ellipse cx="595.000000" cy="109.397792" rx="16.666667" ry="0.401472" fill="rgb(255, 255, 255)" style="fill-opacity:1.00" />
<rect height="0.602208" width="25.000000" x="595.000000" y="109.096688" fill="rgb(255, 255, 255)" style="fill-opacity:1.00" />
<!-- End 'C' -->
<!-- Begin 'T' -->
<rect height="0.165689" width="50.000000" x="630.000000" y="107.132279" fill="rgb(0, 100, 0)" style="fill-opacity:1.00" />
<rect height="1.035557" width="10.000000" x="650.000000" y="107.132279" fill="rgb(0, 100, 0)" style="fill-opacity:1.00" />
<!-- End 'T' -->
<!-- Begin 'C' -->
<ellipse cx="655.000000" cy="108.521848" rx="25.000000" ry="0.354012" fill="rgb(0, 0, 128)" style="fill-opacity:1.00" />
<ellipse cx="655.000000" cy="108.521848" rx="16.666667" ry="0.236008" fill="rgb(255, 255, 255)" style="fill-opacity:1.00" />
<rect height="0.354012" width="25.000000" x="655.000000" y="108.344842" fill="rgb(255, 255, 255)" style="fill-opacity:1.00" />
<!-- End 'C' -->
<!-- Begin 'A' -->
<polygon points=" 630.000000, 109.531435, 651.000000, 108.875859, 659.000000, 108.875859, 680.000000, 109.531435, 672.500000, 109.531435, 666.250000, 109.367541, 643.750000, 109.367541, 637.500000, 109.531435" fill="rgb(178, 34, 34)" style="fill-opacity:1.00" />
<!-- End 'A' -->
<!-- Begin 'G' -->
<ellipse cx="655.000000" cy="109.765718" rx="25.000000" ry="0.234282" fill="rgb(255, 165, 0)" style="fill-opacity:1.00" />
<ellipse cx="655.000000" cy="109.765718" rx="16.666667" ry="0.156188" fill="rgb(255, 255, 255)" style="fill-opacity:1.00" />
<rect height="0.234282" width="25.000000" x="655.000000" y="109.648576" fill="rgb(255, 255, 255)" style="fill-opacity:1.00" />
<rect height="0.058571" width="25.000000" x="655.000000" y="109.824288" fill="rgb(255, 165, 0)" style="fill-opacity:1.00" />
<rect height="0.175712" width="6.250000" x="673.750000" y="109.824288" fill="rgb(255, 165, 0)" style="fill-opacity:1.00" />
<!-- End 'G' -->
<!-- Begin 'A' -->
<polygon points=" 690.000000, 102.691856, 711.000000, 97.822328, 719.000000, 97.822328, 740.000000, 102.691856, 732.500000, 102.691856, 726.250000, 101.474474, 703.750000, 101.474474, 697.500000, 102.691856" fill="rgb(178, 34, 34)" style="fill-opacity:1.00" />
<!-- End 'A' -->
<!-- Begin 'T' -->
<rect height="0.740509" width="50.000000" x="690.000000" y="102.691856" fill="rgb(0, 100, 0)" style="fill-opacity:1.00" />
<rect height="4.628179" width="10.000000" x="710.000000" y="102.691856" fill="rgb(0, 100, 0)" style="fill-opacity:1.00" />
<!-- End 'T' -->
<!-- Begin 'G' -->
<ellipse cx="715.000000" cy="108.089172" rx="25.000000" ry="0.769137" fill="rgb(255, 165, 0)" style="fill-opacity:1.00" />
<ellipse cx="715.000000" cy="108.089172" rx="16.666667" ry="0.512758" fill="rgb(255, 255, 255)" style="fill-opacity:1.00" />
<rect height="0.769137" width="25.000000" x="715.000000" y="107.704603" fill="rgb(255, 255, 255)" style="fill-opacity:1.00" />
<rect height="0.192284" width="25.000000" x="715.000000" y="108.281456" fill="rgb(255, 165, 0)" style="fill-opacity:1.00" />
<rect height="0.576852" width="6.250000" x="733.750000" y="108.281456" fill="rgb(255, 165, 0)" style="fill-opacity:1.00" />
<!-- End 'G' -->
<!-- Begin 'C' -->
<ellipse cx="715.000000" cy="109.429154" rx="25.000000" ry="0.570846" fill="rgb(0, 0, 128)" style="fill-opacity:1.00" />
<ellipse cx="715.000000" cy="109.429154" rx="16.666667" ry="0.380564" fill="rgb(255, 255, 255)" style="fill-opacity:1.00" />
<rect height="0.570846" width="25.000000" x="715.000000" y="109.143731" fill="rgb(255, 255, 255)" style="fill-opacity:1.00" />
<!-- End 'C' -->
<!-- Begin 'A' -->
<polygon points=" 750.000000, 104.207347, 771.000000, 99.925427, 779.000000, 99.925427, 800.000000, 104.207347, 792.500000, 104.207347, 786.250000, 103.136867, 763.750000, 103.136867, 757.500000, 104.207347" fill="rgb(178, 34, 34)" style="fill-opacity:1.00" />
<!-- End 'A' -->
<!-- Begin 'T' -->
<rect height="0.523452" width="50.000000" x="750.000000" y="104.207347" fill="rgb(0, 100, 0)" style="fill-opacity:1.00" />
<rect height="3.271578" width="10.000000" x="770.000000" y="104.207347" fill="rgb(0, 100, 0)" style="fill-opacity:1.00" />
<!-- End 'T' -->
<!-- Begin 'C' -->
<ellipse cx="775.000000" cy="108.196146" rx="25.000000" ry="0.717222" fill="rgb(0, 0, 128)" style="fill-opacity:1.00" />
<ellipse cx="775.000000" cy="108.196146" rx="16.666667" ry="0.478148" fill="rgb(255, 255, 255)" style="fill-opacity:1.00" />
<rect height="0.717222" width="25.000000" x="775.000000" y="107.837535" fill="rgb(255, 255, 255)" style="fill-opacity:1.00" />
<!-- End 'C' -->
<!-- Begin 'G' -->
<ellipse cx="775.000000" cy="109.456684" rx="25.000000" ry="0.543316" fill="rgb(255, 165, 0)" style="fill-opacity:1.00" />
<ellipse cx="775.000000" cy="109.456684" rx="16.666667" ry="0.362211" fill="rgb(255, 255, 255)" style="fill-opacity:1.00" />
<rect height="0.543316" width="25.000000" x="775.000000" y="109.185026" fill="rgb(255, 255, 255)" style="fill-opacity:1.00" />
<rect height="0.135829" width="25.000000" x="775.000000" y="109.592513" fill="rgb(255, 165, 0)" style="fill-opacity:1.00" />
<rect height="0.407487" width="6.250000" x="793.750000" y="109.592513" fill="rgb(255, 165, 0)" style="fill-opacity:1.00" />
<!-- End 'G' -->
<!-- Begin 'A' -->
<polygon points=" 810.000000, 100.320540, 831.000000, 90.964108, 839.000000, 90.964108, 860.000000, 100.320540, 852.500000, 100.320540, 846.250000, 97.981432, 823.750000, 97.981432, 817.500000, 100.320540" fill="rgb(178, 34, 34)" style="fill-opacity:1.00" />
<polygon points=" 835.000000, 92.835395, 827.000000, 95.577968, 842.000000, 95.577968" fill="rgb(255, 255, 255)" style="fill-opacity:1.00" />
<!-- End 'A' -->
<!-- Begin 'T' -->
<rect height="1.057220" width="50.000000" x="810.000000" y="100.320540" fill="rgb(0, 100, 0)" style="fill-opacity:1.00" />
<rect height="6.607628" width="10.000000" x="830.000000" y="100.320540" fill="rgb(0, 100, 0)" style="fill-opacity:1.00" />
<!-- End 'T' -->
<!-- Begin 'G' -->
<ellipse cx="835.000000" cy="107.733157" rx="25.000000" ry="0.804989" fill="rgb(255, 165, 0)" style="fill-opacity:1.00" />
<ellipse cx="835.000000" cy="107.733157" rx="16.666667" ry="0.536659" fill="rgb(255, 255, 255)" style="fill-opacity:1.00" />
<rect height="0.804989" width="25.000000" x="835.000000" y="107.330663" fill="rgb(255, 255, 255)" style="fill-opacity:1.00" />
<rect height="0.201247" width="25.000000" x="835.000000" y="107.934405" fill="rgb(255, 165, 0)" style="fill-opacity:1.00" />
<rect height="0.603742" width="6.250000" x="853.750000" y="107.934405" fill="rgb(255, 165, 0)" style="fill-opacity:1.00" />
<!-- End 'G' -->
<!-- Begin 'C' -->
<ellipse cx="835.000000" cy="109.269073" rx="25.000000" ry="0.730927" fill="rgb(0, 0, 128)" style="fill-opacity:1.00" />
<ellipse cx="835.000000" cy="109.269073" rx="16.666667" ry="0.487284" fill="rgb(255, 255, 255)" style="fill-opacity:1.00" />
<rect height="0.730927" width="25.000000" x="835.000000" y="108.903610" fill="rgb(255, 255, 255)" style="fill-opacity:1.00" />
<!-- End 'C' -->
<!-- Begin 'T' -->
<rect height="0.864646" width="50.000000" x="870.000000" y="97.429394" fill="rgb(0, 100, 0)" style="fill-opacity:1.00" />
<rect height="5.404036" width="10.000000" x="890.000000" y="97.429394" fill="rgb(0, 100, 0)" style="fill-opacity:1.00" />
<!-- End 'T' -->
<!-- Begin 'A' -->
<polygon points=" 870.000000, 107.175084, 891.000000, 102.833429, 899.000000, 102.833429, 920.000000, 107.175084, 912.500000, 107.175084, 906.250000, 106.089671, 883.750000, 106.089671, 877.500000, 107.175084" fill="rgb(178, 34, 34)" style="fill-opacity:1.00" />
<!-- End 'A' -->
<!-- Begin 'C' -->
<ellipse cx="895.000000" cy="108.083345" rx="25.000000" ry="0.908260" fill="rgb(0, 0, 128)" style="fill-opacity:1.00" />
<ellipse cx="895.000000" cy="108.083345" rx="16.666667" ry="0.605507" fill="rgb(255, 255, 255)" style="fill-opacity:1.00" />
<rect height="0.908260" width="25.000000" x="895.000000" y="107.629214" fill="rgb(255, 255, 255)" style="fill-opacity:1.00" />
<!-- End 'C' -->
<!-- Begin 'G' -->
<ellipse cx="895.000000" cy="109.495802" rx="25.000000" ry="0.504198" fill="rgb(255, 165, 0)" style="fill-opacity:1.00" />
<ellipse cx="895.000000" cy="109.495802" rx="16.666667" ry="0.336132" fill="rgb(255, 255, 255)" style="fill-opacity:1.00" />
<rect height="0.504198" width="25.000000" x="895.000000" y="109.243703" fill="rgb(255, 255, 255)" style="fill-opacity:1.00" />
<rect height="0.126049" width="25.000000" x="895.000000" y="109.621852" fill="rgb(255, 165, 0)" style="fill-opacity:1.00" />
<rect height="0.378148" width="6.250000" x="913.750000" y="109.621852" fill="rgb(255, 165, 0)" style="fill-opacity:1.00" />
<!-- End 'G' -->
<!-- Begin 'A' -->
<polygon points=" 930.000000, 104.735473, 951.000000, 101.772654, 959.000000, 101.772654, 980.000000, 104.735473, 972.500000, 104.735473, 966.250000, 103.994768, 943.750000, 103.994768, 937.500000, 104.735473" fill="rgb(178, 34, 34)" style="fill-opacity:1.00" />
<!-- End 'A' -->
<!-- Begin 'T' -->
<rect height="0.470095" width="50.000000" x="930.000000" y="104.735473" fill="rgb(0, 100, 0)" style="fill-opacity:1.00" />
<rect height="2.938093" width="10.000000" x="950.000000" y="104.735473" fill="rgb(0, 100, 0)" style="fill-opacity:1.00" />
<!-- End 'T' -->
<!-- Begin 'G' -->
<ellipse cx="955.000000" cy="108.451618" rx="25.000000" ry="0.778052" fill="rgb(255, 165, 0)" style="fill-opacity:1.00" />
<ellipse cx="955.000000" cy="108.451618" rx="16.666667" ry="0.518701" fill="rgb(255, 255, 255)" style="fill-opacity:1.00" />
<rect height="0.778052" width="25.000000" x="955.000000" y="108.062592" fill="rgb(255, 255, 255)" style="fill-opacity:1.00" />
<rect height="0.194513" width="25.000000" x="955.000000" y="108.646131" fill="rgb(255, 165, 0)" style="fill-opacity:1.00" />
<rect height="0.583539" width="6.250000" x="973.750000" y="108.646131" fill="rgb(255, 165, 0)" style="fill-opacity:1.00" />
<!-- End 'G' -->
<!-- Begin 'C' -->
<ellipse cx="955.000000" cy="109.614835" rx="25.000000" ry="0.385165" fill="rgb(0, 0, 128)" style="fill-opacity:1.00" />
<ellipse cx="955.000000" cy="109.614835" rx="16.666667" ry="0.256777" fill="rgb(255, 255, 255)" style="fill-opacity:1.00" />
<rect height="0.385165" width="25.000000" x="955.000000" y="109.422252" fill="rgb(255, 255, 255)" style="fill-opacity:1.00" />
<!-- End 'C' -->
<!-- Begin 'T' -->
<rect height="0.517258" width="50.000000" x="990.000000" y="102.484152" fill="rgb(0, 100, 0)" style="fill-opacity:1.00" />
<rect height="3.232861" width="10.000000" x="1010.000000" y="102.484152" fill="rgb(0, 100, 0)" style="fill-opacity:1.00" />
<!-- End 'T' -->
<!-- Begin 'A' -->
<polygon points=" 990.000000, 107.787050, 1011.000000, 105.717013, 1019.000000, 105.717013, 1040.000000, 107.787050, 1032.500000, 107.787050, 1026.250000, 107.269541, 1003.750000, 107.269541, 997.500000, 107.787050" fill="rgb(178, 34, 34)" style="fill-opacity:1.00" />
<!-- End 'A' -->
<!-- Begin 'C' -->
<ellipse cx="1015.000000" cy="108.346791" rx="25.000000" ry="0.559740" fill="rgb(0, 0, 128)" style="fill-opacity:1.00" />
<ellipse cx="1015.000000" cy="108.346791" rx="16.666667" ry="0.373160" fill="rgb(255, 255, 255)" style="fill-opacity:1.00" />
<rect height="0.559740" width="25.000000" x="1015.000000" y="108.066921" fill="rgb(255, 255, 255)" style="fill-opacity:1.00" />
<!-- End 'C' -->
<!-- Begin 'G' -->
<ellipse cx="1015.000000" cy="109.453265" rx="25.000000" ry="0.546735" fill="rgb(255, 165, 0)" style="fill-opacity:1.00" />
<ellipse cx="1015.000000" cy="109.453265" rx="16.666667" ry="0.364490" fill="rgb(255, 255, 255)" style="fill-opacity:1.00" />
<rect height="0.546735" width="25.000000" x="1015.000000" y="109.179898" fill="rgb(255, 255, 255)" style="fill-opacity:1.00" />
<rect height="0.136684" width="25.000000" x="1015.000000" y="109.589949" fill="rgb(255, 165, 0)" style="fill-opacity:1.00" />
<rect height="0.410051" width="6.250000" x="1033.750000" y="109.589949" fill="rgb(255, 165, 0)" style="fill-opacity:1.00" />
<!-- End 'G' -->
<!-- Begin 'T' -->
<rect height="0.076262" width="50.000000" x="1050.000000" y="108.441034" fill="rgb(0, 100, 0)" style="fill-opacity:1.00" />
<rect height="0.476640" width="10.000000" x="1070.000000" y="108.441034" fill="rgb(0, 100, 0)" style="fill-opacity:1.00" />
<!-- End 'T' -->
<!-- Begin 'A' -->
<polygon points=" 1050.000000, 109.335340, 1071.000000, 108.917674, 1079.000000, 108.917674, 1100.000000, 109.335340, 1092.500000, 109.335340, 1086.250000, 109.230923, 1063.750000, 109.230923, 1057.500000, 109.335340" fill="rgb(178, 34, 34)" style="fill-opacity:1.00" />
<!-- End 'A' -->
<!-- Begin 'G' -->
<ellipse cx="1075.000000" cy="109.536405" rx="25.000000" ry="0.201066" fill="rgb(255, 165, 0)" style="fill-opacity:1.00" />
<ellipse cx="1075.000000" cy="109.536405" rx="16.666667" ry="0.134044" fill="rgb(255, 255, 255)" style="fill-opacity:1.00" />
<rect height="0.201066" width="25.000000" x="1075.000000" y="109.435873" fill="rgb(255, 255, 255)" style="fill-opacity:1.00" />
<rect height="0.050266" width="25.000000" x="1075.000000" y="109.586672" fill="rgb(255, 165, 0)" style="fill-opacity:1.00" />
<rect height="0.150799" width="6.250000" x="1093.750000" y="109.586672" fill="rgb(255, 165, 0)" style="fill-opacity:1.00" />
<!-- End 'G' -->
<!-- Begin 'C' -->
<ellipse cx="1075.000000" cy="109.868736" rx="25.000000" ry="0.131264" fill="rgb(0, 0, 128)" style="fill-opacity:1.00" />
<ellipse cx="1075.000000" cy="109.868736" rx="16.666667" ry="0.087510" fill="rgb(255, 255, 255)" style="fill-opacity:1.00" />
<rect height="0.131264" width="25.000000" x="1075.000000" y="109.803103" fill="rgb(255, 255, 255)" style="fill-opacity:1.00" />
<!-- End 'C' -->
<text x="580.000000" y="165">
IC = 11.28
</text>

</svg>
