<?xml version="1.0" encoding="UTF-8" standalone="yes"?>
                 <!DOCTYPE svg PUBLIC "-//W3C//DTD SVG 1.0//EN" "http://www.w3.org/TR/2001/REC-SVG-20010904/DTD/svg10.dtd">
                 <svg height="170" width="720" xmlns="http://www.w3.org/2000/svg" xmlns:xlink="http://www.w3.org/1999/xlink">
                 <line x1="85" y1="120" x2="687" y2="120" style="stroke:rgb(99,99,99);stroke-width:2" />
<rect height="7.000000" width="2.000000" x="85.000000" y="120.000000" fill="rgb(0, 0, 0)" style="fill-opacity:1.00" />
<text x="107.000000" y="140">
1
</text>
<rect height="7.000000" width="2.000000" x="145.000000" y="120.000000" fill="rgb(0, 0, 0)" style="fill-opacity:1.00" />
<text x="167.000000" y="140">
2
</text>
<rect height="7.000000" width="2.000000" x="205.000000" y="120.000000" fill="rgb(0, 0, 0)" style="fill-opacity:1.00" />
<text x="227.000000" y="140">
3
</text>
<rect height="7.000000" width="2.000000" x="265.000000" y="120.000000" fill="rgb(0, 0, 0)" style="fill-opacity:1.00" />
<text x="287.000000" y="140">
4
</text>
<rect height="7.000000" width="2.000000" x="325.000000" y="120.000000" fill="rgb(0, 0, 0)" style="fill-opacity:1.00" />
<text x="347.000000" y="140">
5
</text>
<rect height="7.000000" width="2.000000" x="385.000000" y="120.000000" fill="rgb(0, 0, 0)" style="fill-opacity:1.00" />
<text x="407.000000" y="140">
6
</text>
<rect height="7.000000" width="2.000000" x="445.000000" y="120.000000" fill="rgb(0, 0, 0)" style="fill-opacity:1.00" />
<text x="467.000000" y="140">
7
</text>
<rect height="7.000000" width="2.000000" x="505.000000" y="120.000000" fill="rgb(0, 0, 0)" style="fill-opacity:1.00" />
<text x="527.000000" y="140">
8
</text>
<rect height="7.000000" width="2.000000" x="565.000000" y="120.000000" fill="rgb(0, 0, 0)" style="fill-opacity:1.00" />
<text x="587.000000" y="140">
9
</text>
<rect height="7.000000" width="2.000000" x="625.000000" y="120.000000" fill="rgb(0, 0, 0)" style="fill-opacity:1.00" />
<text x="647.000000" y="140">
10
</text>
<rect height="7.000000" width="2.000000" x="685.000000" y="120.000000" fill="rgb(0, 0, 0)" style="fill-opacity:1.00" />
<line x1="80" y1="112" x2="80" y2="10" style="stroke:rgb(99,99,99);stroke-width:2" />
<rect height="2.000000" width="7.000000" x="73.000000" y="110.000000" fill="rgb(0, 0, 0)" style="fill-opacity:1.00" />
<text x="63" y="115">
0
</text>
<rect height="2.000000" width="7.000000" x="73.000000" y="60.000000" fill="rgb(0, 0, 0)" style="fill-opacity:1.00" />
<text x="63" y="65">
1
</text>
<rect height="2.000000" width="7.000000" x="73.000000" y="10.000000" fill="rgb(0, 0, 0)" style="fill-opacity:1.00" />
<text x="63" y="15">
2
</text>
<text x="50" y="65"
transform="rotate(-90, 50, 70)">
bits
</text>
<!-- Begin 'A' -->
<polygon points=" 90.000000, 105.387512, 111.000000, 102.158922, 119.000000, 102.158922, 140.000000, 105.387512, 132.500000, 105.387512, 126.250000, 104.580365, 103.750000, 104.580365, 97.500000, 105.387512" fill="rgb(178, 34, 34)" style="fill-opacity:1.00" />
<!-- End 'A' -->
<!-- Begin 'G' -->
<ellipse cx="115.000000" cy="106.580508" rx="25.000000" ry="1.192996" fill="rgb(255, 165, 0)" style="fill-opacity:1.00" />
<ellipse cx="115.000000" cy="106.580508" rx="16.666667" ry="0.795331" fill="rgb(255, 255, 255)" style="fill-opacity:1.00" />
<rect height="1.192996" width="25.000000" x="115.000000" y="105.984010" fill="rgb(255, 255, 255)" style="fill-opacity:1.00" />
<rect height="0.298249" width="25.000000" x="115.000000" y="106.878758" fill="rgb(255, 165, 0)" style="fill-opacity:1.00" />
<rect height="0.894747" width="6.250000" x="133.750000" y="106.878758" fill="rgb(255, 165, 0)" style="fill-opacity:1.00" />
<!-- End 'G' -->
<!-- Begin 'T' -->
<rect height="0.208342" width="50.000000" x="90.000000" y="107.773505" fill="rgb(0, 100, 0)" style="fill-opacity:1.00" />
<rect height="1.302136" width="10.000000" x="110.000000" y="107.773505" fill="rgb(0, 100, 0)" style="fill-opacity:1.00" />
<!-- End 'T' -->
<!-- Begin 'C' -->
<ellipse cx="115.000000" cy="109.537820" rx="25.000000" ry="0.462180" fill="rgb(0, 0, 128)" style="fill-opacity:1.00" />
<ellipse cx="115.000000" cy="109.537820" rx="16.666667" ry="0.308120" fill="rgb(255, 255, 255)" style="fill-opacity:1.00" />
<rect height="0.462180" width="25.000000" x="115.000000" y="109.306730" fill="rgb(255, 255, 255)" style="fill-opacity:1.00" />
<!-- End 'C' -->
<!-- Begin 'G' -->
<ellipse cx="175.000000" cy="100.276821" rx="25.000000" ry="2.261832" fill="rgb(255, 165, 0)" style="fill-opacity:1.00" />
<ellipse cx="175.000000" cy="100.276821" rx="16.666667" ry="1.507888" fill="rgb(255, 255, 255)" style="fill-opacity:1.00" />
<rect height="2.261832" width="25.000000" x="175.000000" y="99.145905" fill="rgb(255, 255, 255)" style="fill-opacity:1.00" />
<rect height="0.565458" width="25.000000" x="175.000000" y="100.842279" fill="rgb(255, 165, 0)" style="fill-opacity:1.00" />
<rect height="1.696374" width="6.250000" x="193.750000" y="100.842279" fill="rgb(255, 165, 0)" style="fill-opacity:1.00" />
<!-- End 'G' -->
<!-- Begin 'C' -->
<ellipse cx="175.000000" cy="104.576935" rx="25.000000" ry="2.038282" fill="rgb(0, 0, 128)" style="fill-opacity:1.00" />
<ellipse cx="175.000000" cy="104.576935" rx="16.666667" ry="1.358855" fill="rgb(255, 255, 255)" style="fill-opacity:1.00" />
<rect height="2.038282" width="25.000000" x="175.000000" y="103.557794" fill="rgb(255, 255, 255)" style="fill-opacity:1.00" />
<!-- End 'C' -->
<!-- Begin 'A' -->
<polygon points=" 150.000000, 109.426444, 171.000000, 106.615217, 179.000000, 106.615217, 200.000000, 109.426444, 192.500000, 109.426444, 186.250000, 108.723637, 163.750000, 108.723637, 157.500000, 109.426444" fill="rgb(178, 34, 34)" style="fill-opacity:1.00" />
<!-- End 'A' -->
<!-- Begin 'T' -->
<rect height="0.091769" width="50.000000" x="150.000000" y="109.426444" fill="rgb(0, 100, 0)" style="fill-opacity:1.00" />
<rect height="0.573556" width="10.000000" x="170.000000" y="109.426444" fill="rgb(0, 100, 0)" style="fill-opacity:1.00" />
<!-- End 'T' -->
<!-- Begin 'A' -->
<polygon points=" 210.000000, 99.433245, 231.000000, 79.842407, 239.000000, 79.842407, 260.000000, 99.433245, 252.500000, 99.433245, 246.250000, 94.535536, 223.750000, 94.535536, 217.500000, 99.433245" fill="rgb(178, 34, 34)" style="fill-opacity:1.00" />
<polygon points=" 235.000000, 83.760575, 227.000000, 90.596910, 242.000000, 90.596910" fill="rgb(255, 255, 255)" style="fill-opacity:1.00" />
<!-- End 'A' -->
<!-- Begin 'G' -->
<ellipse cx="235.000000" cy="102.060694" rx="25.000000" ry="2.627449" fill="rgb(255, 165, 0)" style="fill-opacity:1.00" />
<ellipse cx="235.000000" cy="102.060694" rx="16.666667" ry="1.751632" fill="rgb(255, 255, 255)" style="fill-opacity:1.00" />
<rect height="2.627449" width="25.000000" x="235.000000" y="100.746969" fill="rgb(255, 255, 255)" style="fill-opacity:1.00" />
<rect height="0.656862" width="25.000000" x="235.000000" y="102.717556" fill="rgb(255, 165, 0)" style="fill-opacity:1.00" />
<rect height="1.970587" width="6.250000" x="253.750000" y="102.717556" fill="rgb(255, 165, 0)" style="fill-opacity:1.00" />
<!-- End 'G' -->
<!-- Begin 'C' -->
<ellipse cx="235.000000" cy="106.917009" rx="25.000000" ry="2.228867" fill="rgb(0, 0, 128)" style="fill-opacity:1.00" />
<ellipse cx="235.000000" cy="106.917009" rx="16.666667" ry="1.485911" fill="rgb(255, 255, 255)" style="fill-opacity:1.00" />
<rect height="2.228867" width="25.000000" x="235.000000" y="105.802576" fill="rgb(255, 255, 255)" style="fill-opacity:1.00" />
<!-- End 'C' -->
<!-- Begin 'T' -->
<rect height="0.136660" width="50.000000" x="210.000000" y="109.145876" fill="rgb(0, 100, 0)" style="fill-opacity:1.00" />
<rect height="0.854124" width="10.000000" x="230.000000" y="109.145876" fill="rgb(0, 100, 0)" style="fill-opacity:1.00" />
<!-- End 'T' -->
<!-- Begin 'G' -->
<ellipse cx="295.000000" cy="61.764604" rx="25.000000" ry="47.118286" fill="rgb(255, 165, 0)" style="fill-opacity:1.00" />
<ellipse cx="295.000000" cy="61.764604" rx="16.666667" ry="31.412190" fill="rgb(255, 255, 255)" style="fill-opacity:1.00" />
<rect height="47.118286" width="25.000000" x="295.000000" y="38.205461" fill="rgb(255, 255, 255)" style="fill-opacity:1.00" />
<rect height="11.779571" width="25.000000" x="295.000000" y="73.544175" fill="rgb(255, 165, 0)" style="fill-opacity:1.00" />
<rect height="35.338714" width="6.250000" x="313.750000" y="73.544175" fill="rgb(255, 165, 0)" style="fill-opacity:1.00" />
<!-- End 'G' -->
<!-- Begin 'A' -->
<polygon points=" 270.000000, 109.988585, 291.000000, 108.882889, 299.000000, 108.882889, 320.000000, 109.988585, 312.500000, 109.988585, 306.250000, 109.712161, 283.750000, 109.712161, 277.500000, 109.988585" fill="rgb(178, 34, 34)" style="fill-opacity:1.00" />
<!-- End 'A' -->
<!-- Begin 'T' -->
<rect height="0.001825" width="50.000000" x="270.000000" y="109.988585" fill="rgb(0, 100, 0)" style="fill-opacity:1.00" />
<rect height="0.011409" width="10.000000" x="290.000000" y="109.988585" fill="rgb(0, 100, 0)" style="fill-opacity:1.00" />
<!-- End 'T' -->
<!-- Begin 'C' -->
<ellipse cx="295.000000" cy="109.999997" rx="25.000000" ry="0.000003" fill="rgb(0, 0, 128)" style="fill-opacity:1.00" />
<ellipse cx="295.000000" cy="109.999997" rx="16.666667" ry="0.000002" fill="rgb(255, 255, 255)" style="fill-opacity:1.00" />
<rect height="0.000003" width="25.000000" x="295.000000" y="109.999996" fill="rgb(255, 255, 255)" style="fill-opacity:1.00" />
<!-- End 'C' -->
<!-- Begin 'G' -->
<ellipse cx="355.000000" cy="62.384367" rx="25.000000" ry="45.979772" fill="rgb(255, 165, 0)" style="fill-opacity:1.00" />
<ellipse cx="355.000000" cy="62.384367" rx="16.666667" ry="30.653181" fill="rgb(255, 255, 255)" style="fill-opacity:1.00" />
<rect height="45.979772" width="25.000000" x="355.000000" y="39.394481" fill="rgb(255, 255, 255)" style="fill-opacity:1.00" />
<rect height="11.494943" width="25.000000" x="355.000000" y="73.879310" fill="rgb(255, 165, 0)" style="fill-opacity:1.00" />
<rect height="34.484829" width="6.250000" x="373.750000" y="73.879310" fill="rgb(255, 165, 0)" style="fill-opacity:1.00" />
<!-- End 'G' -->
<!-- Begin 'A' -->
<polygon points=" 330.000000, 109.988565, 351.000000, 108.364139, 359.000000, 108.364139, 380.000000, 109.988565, 372.500000, 109.988565, 366.250000, 109.582459, 343.750000, 109.582459, 337.500000, 109.988565" fill="rgb(178, 34, 34)" style="fill-opacity:1.00" />
<!-- End 'A' -->
<!-- Begin 'T' -->
<rect height="0.001820" width="50.000000" x="330.000000" y="109.988565" fill="rgb(0, 100, 0)" style="fill-opacity:1.00" />
<rect height="0.011378" width="10.000000" x="350.000000" y="109.988565" fill="rgb(0, 100, 0)" style="fill-opacity:1.00" />
<!-- End 'T' -->
<!-- Begin 'C' -->
<ellipse cx="355.000000" cy="109.999971" rx="25.000000" ry="0.000029" fill="rgb(0, 0, 128)" style="fill-opacity:1.00" />
<ellipse cx="355.000000" cy="109.999971" rx="16.666667" ry="0.000019" fill="rgb(255, 255, 255)" style="fill-opacity:1.00" />
<rect height="0.000029" width="25.000000" x="355.000000" y="109.999957" fill="rgb(255, 255, 255)" style="fill-opacity:1.00" />
<!-- End 'C' -->
<!-- Begin 'A' -->
<polygon points=" 390.000000, 109.945504, 411.000000, 10.352206, 419.000000, 10.352206, 440.000000, 109.945504, 432.500000, 109.945504, 426.250000, 85.047180, 403.750000, 85.047180, 397.500000, 109.945504" fill="rgb(178, 34, 34)" style="fill-opacity:1.00" />
<polygon points=" 415.000000, 30.270866, 407.000000, 69.108185, 422.000000, 69.108185" fill="rgb(255, 255, 255)" style="fill-opacity:1.00" />
<!-- End 'A' -->
<!-- Begin 'C' -->
<ellipse cx="415.000000" cy="109.968948" rx="25.000000" ry="0.023443" fill="rgb(0, 0, 128)" style="fill-opacity:1.00" />
<ellipse cx="415.000000" cy="109.968948" rx="16.666667" ry="0.015629" fill="rgb(255, 255, 255)" style="fill-opacity:1.00" />
<rect height="0.023443" width="25.000000" x="415.000000" y="109.957226" fill="rgb(255, 255, 255)" style="fill-opacity:1.00" />
<!-- End 'C' -->
<!-- Begin 'G' -->
<ellipse cx="415.000000" cy="109.996125" rx="25.000000" ry="0.003735" fill="rgb(255, 165, 0)" style="fill-opacity:1.00" />
<ellipse cx="415.000000" cy="109.996125" rx="16.666667" ry="0.002490" fill="rgb(255, 255, 255)" style="fill-opacity:1.00" />
<rect height="0.003735" width="25.000000" x="415.000000" y="109.994258" fill="rgb(255, 255, 255)" style="fill-opacity:1.00" />
<rect height="0.000934" width="25.000000" x="415.000000" y="109.997059" fill="rgb(255, 165, 0)" style="fill-opacity:1.00" />
<rect height="0.002801" width="6.250000" x="433.750000" y="109.997059" fill="rgb(255, 165, 0)" style="fill-opacity:1.00" />
<!-- End 'G' -->
<!-- Begin 'T' -->
<rect height="0.000022" width="50.000000" x="390.000000" y="109.999860" fill="rgb(0, 100, 0)" style="fill-opacity:1.00" />
<rect height="0.000140" width="10.000000" x="410.000000" y="109.999860" fill="rgb(0, 100, 0)" style="fill-opacity:1.00" />
<!-- End 'T' -->
<!-- Begin 'A' -->
<polygon points=" 450.000000, 106.058478, 471.000000, 24.623970, 479.000000, 24.623970, 500.000000, 106.058478, 492.500000, 106.058478, 486.250000, 85.699851, 463.750000, 85.699851, 457.500000, 106.058478" fill="rgb(178, 34, 34)" style="fill-opacity:1.00" />
<polygon points=" 475.000000, 40.910872, 467.000000, 72.484675, 482.000000, 72.484675" fill="rgb(255, 255, 255)" style="fill-opacity:1.00" />
<!-- End 'A' -->
<!-- Begin 'T' -->
<rect height="0.571339" width="50.000000" x="450.000000" y="106.058478" fill="rgb(0, 100, 0)" style="fill-opacity:1.00" />
<rect height="3.570870" width="10.000000" x="470.000000" y="106.058478" fill="rgb(0, 100, 0)" style="fill-opacity:1.00" />
<!-- End 'T' -->
<!-- Begin 'G' -->
<ellipse cx="475.000000" cy="109.798825" rx="25.000000" ry="0.169477" fill="rgb(255, 165, 0)" style="fill-opacity:1.00" />
<ellipse cx="475.000000" cy="109.798825" rx="16.666667" ry="0.112985" fill="rgb(255, 255, 255)" style="fill-opacity:1.00" />
<rect height="0.169477" width="25.000000" x="475.000000" y="109.714087" fill="rgb(255, 255, 255)" style="fill-opacity:1.00" />
<rect height="0.042369" width="25.000000" x="475.000000" y="109.841195" fill="rgb(255, 165, 0)" style="fill-opacity:1.00" />
<rect height="0.127108" width="6.250000" x="493.750000" y="109.841195" fill="rgb(255, 165, 0)" style="fill-opacity:1.00" />
<!-- End 'G' -->
<!-- Begin 'C' -->
<ellipse cx="475.000000" cy="109.984151" rx="25.000000" ry="0.015849" fill="rgb(0, 0, 128)" style="fill-opacity:1.00" />
<ellipse cx="475.000000" cy="109.984151" rx="16.666667" ry="0.010566" fill="rgb(255, 255, 255)" style="fill-opacity:1.00" />
<rect height="0.015849" width="25.000000" x="475.000000" y="109.976227" fill="rgb(255, 255, 255)" style="fill-opacity:1.00" />
<!-- End 'C' -->
<!-- Begin 'G' -->
<ellipse cx="535.000000" cy="80.282512" rx="25.000000" ry="15.049599" fill="rgb(255, 165, 0)" style="fill-opacity:1.00" />
<ellipse cx="535.000000" cy="80.282512" rx="16.666667" ry="10.033066" fill="rgb(255, 255, 255)" style="fill-opacity:1.00" />
<rect height="15.049599" width="25.000000" x="535.000000" y="72.757712" fill="rgb(255, 255, 255)" style="fill-opacity:1.00" />
<rect height="3.762400" width="25.000000" x="535.000000" y="84.044911" fill="rgb(255, 165, 0)" style="fill-opacity:1.00" />
<rect height="11.287199" width="6.250000" x="553.750000" y="84.044911" fill="rgb(255, 165, 0)" style="fill-opacity:1.00" />
<!-- End 'G' -->
<!-- Begin 'A' -->
<polygon points=" 510.000000, 107.934064, 531.000000, 95.332110, 539.000000, 95.332110, 560.000000, 107.934064, 552.500000, 107.934064, 546.250000, 104.783576, 523.750000, 104.783576, 517.500000, 107.934064" fill="rgb(178, 34, 34)" style="fill-opacity:1.00" />
<polygon points=" 535.000000, 97.852501, 527.000000, 101.893283, 542.000000, 101.893283" fill="rgb(255, 255, 255)" style="fill-opacity:1.00" />
<!-- End 'A' -->
<!-- Begin 'C' -->
<ellipse cx="535.000000" cy="108.967031" rx="25.000000" ry="1.032967" fill="rgb(0, 0, 128)" style="fill-opacity:1.00" />
<ellipse cx="535.000000" cy="108.967031" rx="16.666667" ry="0.688645" fill="rgb(255, 255, 255)" style="fill-opacity:1.00" />
<rect height="1.032967" width="25.000000" x="535.000000" y="108.450548" fill="rgb(255, 255, 255)" style="fill-opacity:1.00" />
<!-- End 'C' -->
<!-- Begin 'T' -->
<rect height="0.000000" width="50.000000" x="510.000000" y="109.999998" fill="rgb(0, 100, 0)" style="fill-opacity:1.00" />
<rect height="0.000002" width="10.000000" x="530.000000" y="109.999998" fill="rgb(0, 100, 0)" style="fill-opacity:1.00" />
<!-- End 'T' -->
<!-- Begin 'T' -->
<rect height="1.594299" width="50.000000" x="570.000000" y="92.011521" fill="rgb(0, 100, 0)" style="fill-opacity:1.00" />
<rect height="9.964368" width="10.000000" x="590.000000" y="92.011521" fill="rgb(0, 100, 0)" style="fill-opacity:1.00" />
<!-- End 'T' -->
<!-- Begin 'C' -->
<ellipse cx="595.000000" cy="104.088783" rx="25.000000" ry="2.112894" fill="rgb(0, 0, 128)" style="fill-opacity:1.00" />
<ellipse cx="595.000000" cy="104.088783" rx="16.666667" ry="1.408596" fill="rgb(255, 255, 255)" style="fill-opacity:1.00" />
<rect height="2.112894" width="25.000000" x="595.000000" y="103.032336" fill="rgb(255, 255, 255)" style="fill-opacity:1.00" />
<!-- End 'C' -->
<!-- Begin 'G' -->
<ellipse cx="595.000000" cy="107.363447" rx="25.000000" ry="1.161770" fill="rgb(255, 165, 0)" style="fill-opacity:1.00" />
<ellipse cx="595.000000" cy="107.363447" rx="16.666667" ry="0.774513" fill="rgb(255, 255, 255)" style="fill-opacity:1.00" />
<rect height="1.161770" width="25.000000" x="595.000000" y="106.782562" fill="rgb(255, 255, 255)" style="fill-opacity:1.00" />
<rect height="0.290442" width="25.000000" x="595.000000" y="107.653889" fill="rgb(255, 165, 0)" style="fill-opacity:1.00" />
<rect height="0.871327" width="6.250000" x="613.750000" y="107.653889" fill="rgb(255, 165, 0)" style="fill-opacity:1.00" />
<!-- End 'G' -->
<!-- Begin 'A' -->
<polygon points=" 570.000000, 110.000000, 591.000000, 108.525217, 599.000000, 108.525217, 620.000000, 110.000000, 612.500000, 110.000000, 606.250000, 109.631304, 583.750000, 109.631304, 577.500000, 110.000000" fill="rgb(178, 34, 34)" style="fill-opacity:1.00" />
<!-- End 'A' -->
<!-- Begin 'G' -->
<ellipse cx="655.000000" cy="100.403717" rx="25.000000" ry="3.000364" fill="rgb(255, 165, 0)" style="fill-opacity:1.00" />
<ellipse cx="655.000000" cy="100.403717" rx="16.666667" ry="2.000243" fill="rgb(255, 255, 255)" style="fill-opacity:1.00" />
<rect height="3.000364" width="25.000000" x="655.000000" y="98.903534" fill="rgb(255, 255, 255)" style="fill-opacity:1.00" />
<rect height="0.750091" width="25.000000" x="655.000000" y="101.153808" fill="rgb(255, 165, 0)" style="fill-opacity:1.00" />
<rect height="2.250273" width="6.250000" x="673.750000" y="101.153808" fill="rgb(255, 165, 0)" style="fill-opacity:1.00" />
<!-- End 'G' -->
<!-- Begin 'A' -->
<polygon points=" 630.000000, 107.083254, 651.000000, 103.404081, 659.000000, 103.404081, 680.000000, 107.083254, 672.500000, 107.083254, 666.250000, 106.163461, 643.750000, 106.163461, 637.500000, 107.083254" fill="rgb(178, 34, 34)" style="fill-opacity:1.00" />
<!-- End 'A' -->
<!-- Begin 'C' -->
<ellipse cx="655.000000" cy="107.849782" rx="25.000000" ry="0.766529" fill="rgb(0, 0, 128)" style="fill-opacity:1.00" />
<ellipse cx="655.000000" cy="107.849782" rx="16.666667" ry="0.511019" fill="rgb(255, 255, 255)" style="fill-opacity:1.00" />
<rect height="0.766529" width="25.000000" x="655.000000" y="107.466518" fill="rgb(255, 255, 255)" style="fill-opacity:1.00" />
<!-- End 'C' -->
<!-- Begin 'T' -->
<rect height="0.221390" width="50.000000" x="630.000000" y="108.616311" fill="rgb(0, 100, 0)" style="fill-opacity:1.00" />
<rect height="1.383689" width="10.000000" x="650.000000" y="108.616311" fill="rgb(0, 100, 0)" style="fill-opacity:1.00" />
<!-- End 'T' -->
<text x="370.000000" y="165">
IC = 9.99
</text>

</svg>
