<?xml version="1.0" encoding="UTF-8" standalone="yes"?>
                 <!DOCTYPE svg PUBLIC "-//W3C//DTD SVG 1.0//EN" "http://www.w3.org/TR/2001/REC-SVG-20010904/DTD/svg10.dtd">
                 <svg height="170" width="1320" xmlns="http://www.w3.org/2000/svg" xmlns:xlink="http://www.w3.org/1999/xlink">
                 <line x1="85" y1="120" x2="1287" y2="120" style="stroke:rgb(99,99,99);stroke-width:2" />
<rect height="7.000000" width="2.000000" x="85.000000" y="120.000000" fill="rgb(0, 0, 0)" style="fill-opacity:1.00" />
<text x="107.000000" y="140">
1
</text>
<rect height="7.000000" width="2.000000" x="145.000000" y="120.000000" fill="rgb(0, 0, 0)" style="fill-opacity:1.00" />
<text x="167.000000" y="140">
2
</text>
<rect height="7.000000" width="2.000000" x="205.000000" y="120.000000" fill="rgb(0, 0, 0)" style="fill-opacity:1.00" />
<text x="227.000000" y="140">
3
</text>
<rect height="7.000000" width="2.000000" x="265.000000" y="120.000000" fill="rgb(0, 0, 0)" style="fill-opacity:1.00" />
<text x="287.000000" y="140">
4
</text>
<rect height="7.000000" width="2.000000" x="325.000000" y="120.000000" fill="rgb(0, 0, 0)" style="fill-opacity:1.00" />
<text x="347.000000" y="140">
5
</text>
<rect height="7.000000" width="2.000000" x="385.000000" y="120.000000" fill="rgb(0, 0, 0)" style="fill-opacity:1.00" />
<text x="407.000000" y="140">
6
</text>
<rect height="7.000000" width="2.000000" x="445.000000" y="120.000000" fill="rgb(0, 0, 0)" style="fill-opacity:1.00" />
<text x="467.000000" y="140">
7
</text>
<rect height="7.000000" width="2.000000" x="505.000000" y="120.000000" fill="rgb(0, 0, 0)" style="fill-opacity:1.00" />
<text x="527.000000" y="140">
8
</text>
<rect height="7.000000" width="2.000000" x="565.000000" y="120.000000" fill="rgb(0, 0, 0)" style="fill-opacity:1.00" />
<text x="587.000000" y="140">
9
</text>
<rect height="7.000000" width="2.000000" x="625.000000" y="120.000000" fill="rgb(0, 0, 0)" style="fill-opacity:1.00" />
<text x="647.000000" y="140">
10
</text>
<rect height="7.000000" width="2.000000" x="685.000000" y="120.000000" fill="rgb(0, 0, 0)" style="fill-opacity:1.00" />
<text x="707.000000" y="140">
11
</text>
<rect height="7.000000" width="2.000000" x="745.000000" y="120.000000" fill="rgb(0, 0, 0)" style="fill-opacity:1.00" />
<text x="767.000000" y="140">
12
</text>
<rect height="7.000000" width="2.000000" x="805.000000" y="120.000000" fill="rgb(0, 0, 0)" style="fill-opacity:1.00" />
<text x="827.000000" y="140">
13
</text>
<rect height="7.000000" width="2.000000" x="865.000000" y="120.000000" fill="rgb(0, 0, 0)" style="fill-opacity:1.00" />
<text x="887.000000" y="140">
14
</text>
<rect height="7.000000" width="2.000000" x="925.000000" y="120.000000" fill="rgb(0, 0, 0)" style="fill-opacity:1.00" />
<text x="947.000000" y="140">
15
</text>
<rect height="7.000000" width="2.000000" x="985.000000" y="120.000000" fill="rgb(0, 0, 0)" style="fill-opacity:1.00" />
<text x="1007.000000" y="140">
16
</text>
<rect height="7.000000" width="2.000000" x="1045.000000" y="120.000000" fill="rgb(0, 0, 0)" style="fill-opacity:1.00" />
<text x="1067.000000" y="140">
17
</text>
<rect height="7.000000" width="2.000000" x="1105.000000" y="120.000000" fill="rgb(0, 0, 0)" style="fill-opacity:1.00" />
<text x="1127.000000" y="140">
18
</text>
<rect height="7.000000" width="2.000000" x="1165.000000" y="120.000000" fill="rgb(0, 0, 0)" style="fill-opacity:1.00" />
<text x="1187.000000" y="140">
19
</text>
<rect height="7.000000" width="2.000000" x="1225.000000" y="120.000000" fill="rgb(0, 0, 0)" style="fill-opacity:1.00" />
<text x="1247.000000" y="140">
20
</text>
<rect height="7.000000" width="2.000000" x="1285.000000" y="120.000000" fill="rgb(0, 0, 0)" style="fill-opacity:1.00" />
<line x1="80" y1="112" x2="80" y2="10" style="stroke:rgb(99,99,99);stroke-width:2" />
<rect height="2.000000" width="7.000000" x="73.000000" y="110.000000" fill="rgb(0, 0, 0)" style="fill-opacity:1.00" />
<text x="63" y="115">
0
</text>
<rect height="2.000000" width="7.000000" x="73.000000" y="60.000000" fill="rgb(0, 0, 0)" style="fill-opacity:1.00" />
<text x="63" y="65">
1
</text>
<rect height="2.000000" width="7.000000" x="73.000000" y="10.000000" fill="rgb(0, 0, 0)" style="fill-opacity:1.00" />
<text x="63" y="15">
2
</text>
<text x="50" y="65"
transform="rotate(-90, 50, 70)">
bits
</text>
<!-- Begin 'A' -->
<polygon points=" 90.000000, 101.917043, 111.000000, 40.658228, 119.000000, 40.658228, 140.000000, 101.917043, 132.500000, 101.917043, 126.250000, 86.602339, 103.750000, 86.602339, 97.500000, 101.917043" fill="rgb(178, 34, 34)" style="fill-opacity:1.00" />
<polygon points=" 115.000000, 52.909991, 107.000000, 76.413517, 122.000000, 76.413517" fill="rgb(255, 255, 255)" style="fill-opacity:1.00" />
<!-- End 'A' -->
<!-- Begin 'T' -->
<rect height="1.037203" width="50.000000" x="90.000000" y="101.917043" fill="rgb(0, 100, 0)" style="fill-opacity:1.00" />
<rect height="6.482517" width="10.000000" x="110.000000" y="101.917043" fill="rgb(0, 100, 0)" style="fill-opacity:1.00" />
<!-- End 'T' -->
<!-- Begin 'C' -->
<ellipse cx="115.000000" cy="109.127820" rx="25.000000" ry="0.728260" fill="rgb(0, 0, 128)" style="fill-opacity:1.00" />
<ellipse cx="115.000000" cy="109.127820" rx="16.666667" ry="0.485507" fill="rgb(255, 255, 255)" style="fill-opacity:1.00" />
<rect height="0.728260" width="25.000000" x="115.000000" y="108.763690" fill="rgb(255, 255, 255)" style="fill-opacity:1.00" />
<!-- End 'C' -->
<!-- Begin 'G' -->
<ellipse cx="115.000000" cy="109.928040" rx="25.000000" ry="0.071960" fill="rgb(255, 165, 0)" style="fill-opacity:1.00" />
<ellipse cx="115.000000" cy="109.928040" rx="16.666667" ry="0.047973" fill="rgb(255, 255, 255)" style="fill-opacity:1.00" />
<rect height="0.071960" width="25.000000" x="115.000000" y="109.892060" fill="rgb(255, 255, 255)" style="fill-opacity:1.00" />
<rect height="0.017990" width="25.000000" x="115.000000" y="109.946030" fill="rgb(255, 165, 0)" style="fill-opacity:1.00" />
<rect height="0.053970" width="6.250000" x="133.750000" y="109.946030" fill="rgb(255, 165, 0)" style="fill-opacity:1.00" />
<!-- End 'G' -->
<!-- Begin 'A' -->
<polygon points=" 150.000000, 104.060598, 171.000000, 36.541349, 179.000000, 36.541349, 200.000000, 104.060598, 192.500000, 104.060598, 186.250000, 87.180786, 163.750000, 87.180786, 157.500000, 104.060598" fill="rgb(178, 34, 34)" style="fill-opacity:1.00" />
<polygon points=" 175.000000, 50.045199, 167.000000, 76.052899, 182.000000, 76.052899" fill="rgb(255, 255, 255)" style="fill-opacity:1.00" />
<!-- End 'A' -->
<!-- Begin 'C' -->
<ellipse cx="175.000000" cy="105.307674" rx="25.000000" ry="1.247076" fill="rgb(0, 0, 128)" style="fill-opacity:1.00" />
<ellipse cx="175.000000" cy="105.307674" rx="16.666667" ry="0.831384" fill="rgb(255, 255, 255)" style="fill-opacity:1.00" />
<rect height="1.247076" width="25.000000" x="175.000000" y="104.684136" fill="rgb(255, 255, 255)" style="fill-opacity:1.00" />
<!-- End 'C' -->
<!-- Begin 'G' -->
<ellipse cx="175.000000" cy="107.531091" rx="25.000000" ry="0.976341" fill="rgb(255, 165, 0)" style="fill-opacity:1.00" />
<ellipse cx="175.000000" cy="107.531091" rx="16.666667" ry="0.650894" fill="rgb(255, 255, 255)" style="fill-opacity:1.00" />
<rect height="0.976341" width="25.000000" x="175.000000" y="107.042920" fill="rgb(255, 255, 255)" style="fill-opacity:1.00" />
<rect height="0.244085" width="25.000000" x="175.000000" y="107.775176" fill="rgb(255, 165, 0)" style="fill-opacity:1.00" />
<rect height="0.732256" width="6.250000" x="193.750000" y="107.775176" fill="rgb(255, 165, 0)" style="fill-opacity:1.00" />
<!-- End 'G' -->
<!-- Begin 'T' -->
<rect height="0.238811" width="50.000000" x="150.000000" y="108.507432" fill="rgb(0, 100, 0)" style="fill-opacity:1.00" />
<rect height="1.492568" width="10.000000" x="170.000000" y="108.507432" fill="rgb(0, 100, 0)" style="fill-opacity:1.00" />
<!-- End 'T' -->
<!-- Begin 'A' -->
<polygon points=" 210.000000, 103.562255, 231.000000, 37.805034, 239.000000, 37.805034, 260.000000, 103.562255, 252.500000, 103.562255, 246.250000, 87.122950, 223.750000, 87.122950, 217.500000, 103.562255" fill="rgb(178, 34, 34)" style="fill-opacity:1.00" />
<polygon points=" 235.000000, 50.956478, 227.000000, 76.259367, 242.000000, 76.259367" fill="rgb(255, 255, 255)" style="fill-opacity:1.00" />
<!-- End 'A' -->
<!-- Begin 'T' -->
<rect height="0.528369" width="50.000000" x="210.000000" y="103.562255" fill="rgb(0, 100, 0)" style="fill-opacity:1.00" />
<rect height="3.302308" width="10.000000" x="230.000000" y="103.562255" fill="rgb(0, 100, 0)" style="fill-opacity:1.00" />
<!-- End 'T' -->
<!-- Begin 'C' -->
<ellipse cx="235.000000" cy="108.082220" rx="25.000000" ry="1.217657" fill="rgb(0, 0, 128)" style="fill-opacity:1.00" />
<ellipse cx="235.000000" cy="108.082220" rx="16.666667" ry="0.811771" fill="rgb(255, 255, 255)" style="fill-opacity:1.00" />
<rect height="1.217657" width="25.000000" x="235.000000" y="107.473392" fill="rgb(255, 255, 255)" style="fill-opacity:1.00" />
<!-- End 'C' -->
<!-- Begin 'G' -->
<ellipse cx="235.000000" cy="109.649939" rx="25.000000" ry="0.350061" fill="rgb(255, 165, 0)" style="fill-opacity:1.00" />
<ellipse cx="235.000000" cy="109.649939" rx="16.666667" ry="0.233374" fill="rgb(255, 255, 255)" style="fill-opacity:1.00" />
<rect height="0.350061" width="25.000000" x="235.000000" y="109.474908" fill="rgb(255, 255, 255)" style="fill-opacity:1.00" />
<rect height="0.087515" width="25.000000" x="235.000000" y="109.737454" fill="rgb(255, 165, 0)" style="fill-opacity:1.00" />
<rect height="0.262546" width="6.250000" x="253.750000" y="109.737454" fill="rgb(255, 165, 0)" style="fill-opacity:1.00" />
<!-- End 'G' -->
<!-- Begin 'C' -->
<ellipse cx="295.000000" cy="79.036162" rx="25.000000" ry="20.722087" fill="rgb(0, 0, 128)" style="fill-opacity:1.00" />
<ellipse cx="295.000000" cy="79.036162" rx="16.666667" ry="13.814725" fill="rgb(255, 255, 255)" style="fill-opacity:1.00" />
<rect height="20.722087" width="25.000000" x="295.000000" y="68.675118" fill="rgb(255, 255, 255)" style="fill-opacity:1.00" />
<!-- End 'C' -->
<!-- Begin 'A' -->
<polygon points=" 270.000000, 105.379814, 291.000000, 99.758248, 299.000000, 99.758248, 320.000000, 105.379814, 312.500000, 105.379814, 306.250000, 103.974422, 283.750000, 103.974422, 277.500000, 105.379814" fill="rgb(178, 34, 34)" style="fill-opacity:1.00" />
<!-- End 'A' -->
<!-- Begin 'T' -->
<rect height="0.638704" width="50.000000" x="270.000000" y="105.379814" fill="rgb(0, 100, 0)" style="fill-opacity:1.00" />
<rect height="3.991902" width="10.000000" x="290.000000" y="105.379814" fill="rgb(0, 100, 0)" style="fill-opacity:1.00" />
<!-- End 'T' -->
<!-- Begin 'G' -->
<ellipse cx="295.000000" cy="109.685858" rx="25.000000" ry="0.314142" fill="rgb(255, 165, 0)" style="fill-opacity:1.00" />
<ellipse cx="295.000000" cy="109.685858" rx="16.666667" ry="0.209428" fill="rgb(255, 255, 255)" style="fill-opacity:1.00" />
<rect height="0.314142" width="25.000000" x="295.000000" y="109.528787" fill="rgb(255, 255, 255)" style="fill-opacity:1.00" />
<rect height="0.078536" width="25.000000" x="295.000000" y="109.764393" fill="rgb(255, 165, 0)" style="fill-opacity:1.00" />
<rect height="0.235607" width="6.250000" x="313.750000" y="109.764393" fill="rgb(255, 165, 0)" style="fill-opacity:1.00" />
<!-- End 'G' -->
<!-- Begin 'C' -->
<ellipse cx="355.000000" cy="76.388133" rx="25.000000" ry="24.163604" fill="rgb(0, 0, 128)" style="fill-opacity:1.00" />
<ellipse cx="355.000000" cy="76.388133" rx="16.666667" ry="16.109069" fill="rgb(255, 255, 255)" style="fill-opacity:1.00" />
<rect height="24.163604" width="25.000000" x="355.000000" y="64.306331" fill="rgb(255, 255, 255)" style="fill-opacity:1.00" />
<!-- End 'C' -->
<!-- Begin 'T' -->
<rect height="0.971496" width="50.000000" x="330.000000" y="100.551736" fill="rgb(0, 100, 0)" style="fill-opacity:1.00" />
<rect height="6.071852" width="10.000000" x="350.000000" y="100.551736" fill="rgb(0, 100, 0)" style="fill-opacity:1.00" />
<!-- End 'T' -->
<!-- Begin 'A' -->
<polygon points=" 330.000000, 109.134318, 351.000000, 106.623589, 359.000000, 106.623589, 380.000000, 109.134318, 372.500000, 109.134318, 366.250000, 108.506636, 343.750000, 108.506636, 337.500000, 109.134318" fill="rgb(178, 34, 34)" style="fill-opacity:1.00" />
<!-- End 'A' -->
<!-- Begin 'G' -->
<ellipse cx="355.000000" cy="109.567159" rx="25.000000" ry="0.432841" fill="rgb(255, 165, 0)" style="fill-opacity:1.00" />
<ellipse cx="355.000000" cy="109.567159" rx="16.666667" ry="0.288561" fill="rgb(255, 255, 255)" style="fill-opacity:1.00" />
<rect height="0.432841" width="25.000000" x="355.000000" y="109.350738" fill="rgb(255, 255, 255)" style="fill-opacity:1.00" />
<rect height="0.108210" width="25.000000" x="355.000000" y="109.675369" fill="rgb(255, 165, 0)" style="fill-opacity:1.00" />
<rect height="0.324631" width="6.250000" x="373.750000" y="109.675369" fill="rgb(255, 165, 0)" style="fill-opacity:1.00" />
<!-- End 'G' -->
<!-- Begin 'C' -->
<ellipse cx="415.000000" cy="80.047504" rx="25.000000" ry="18.813712" fill="rgb(0, 0, 128)" style="fill-opacity:1.00" />
<ellipse cx="415.000000" cy="80.047504" rx="16.666667" ry="12.542475" fill="rgb(255, 255, 255)" style="fill-opacity:1.00" />
<rect height="18.813712" width="25.000000" x="415.000000" y="70.640648" fill="rgb(255, 255, 255)" style="fill-opacity:1.00" />
<!-- End 'C' -->
<!-- Begin 'T' -->
<rect height="1.174959" width="50.000000" x="390.000000" y="98.861216" fill="rgb(0, 100, 0)" style="fill-opacity:1.00" />
<rect height="7.343494" width="10.000000" x="410.000000" y="98.861216" fill="rgb(0, 100, 0)" style="fill-opacity:1.00" />
<!-- End 'T' -->
<!-- Begin 'A' -->
<polygon points=" 390.000000, 109.596325, 411.000000, 106.204710, 419.000000, 106.204710, 440.000000, 109.596325, 432.500000, 109.596325, 426.250000, 108.748421, 403.750000, 108.748421, 397.500000, 109.596325" fill="rgb(178, 34, 34)" style="fill-opacity:1.00" />
<!-- End 'A' -->
<!-- Begin 'G' -->
<ellipse cx="415.000000" cy="109.798162" rx="25.000000" ry="0.201838" fill="rgb(255, 165, 0)" style="fill-opacity:1.00" />
<ellipse cx="415.000000" cy="109.798162" rx="16.666667" ry="0.134558" fill="rgb(255, 255, 255)" style="fill-opacity:1.00" />
<rect height="0.201838" width="25.000000" x="415.000000" y="109.697244" fill="rgb(255, 255, 255)" style="fill-opacity:1.00" />
<rect height="0.050459" width="25.000000" x="415.000000" y="109.848622" fill="rgb(255, 165, 0)" style="fill-opacity:1.00" />
<rect height="0.151378" width="6.250000" x="433.750000" y="109.848622" fill="rgb(255, 165, 0)" style="fill-opacity:1.00" />
<!-- End 'G' -->
<!-- Begin 'T' -->
<rect height="7.988721" width="50.000000" x="450.000000" y="51.092487" fill="rgb(0, 100, 0)" style="fill-opacity:1.00" />
<rect height="49.929507" width="10.000000" x="470.000000" y="51.092487" fill="rgb(0, 100, 0)" style="fill-opacity:1.00" />
<!-- End 'T' -->
<!-- Begin 'A' -->
<polygon points=" 450.000000, 106.288365, 471.000000, 101.021994, 479.000000, 101.021994, 500.000000, 106.288365, 492.500000, 106.288365, 486.250000, 104.971772, 463.750000, 104.971772, 457.500000, 106.288365" fill="rgb(178, 34, 34)" style="fill-opacity:1.00" />
<!-- End 'A' -->
<!-- Begin 'C' -->
<ellipse cx="475.000000" cy="107.552028" rx="25.000000" ry="1.263663" fill="rgb(0, 0, 128)" style="fill-opacity:1.00" />
<ellipse cx="475.000000" cy="107.552028" rx="16.666667" ry="0.842442" fill="rgb(255, 255, 255)" style="fill-opacity:1.00" />
<rect height="1.263663" width="25.000000" x="475.000000" y="106.920196" fill="rgb(255, 255, 255)" style="fill-opacity:1.00" />
<!-- End 'C' -->
<!-- Begin 'G' -->
<ellipse cx="475.000000" cy="109.407846" rx="25.000000" ry="0.592154" fill="rgb(255, 165, 0)" style="fill-opacity:1.00" />
<ellipse cx="475.000000" cy="109.407846" rx="16.666667" ry="0.394770" fill="rgb(255, 255, 255)" style="fill-opacity:1.00" />
<rect height="0.592154" width="25.000000" x="475.000000" y="109.111768" fill="rgb(255, 255, 255)" style="fill-opacity:1.00" />
<rect height="0.148039" width="25.000000" x="475.000000" y="109.555884" fill="rgb(255, 165, 0)" style="fill-opacity:1.00" />
<rect height="0.444116" width="6.250000" x="493.750000" y="109.555884" fill="rgb(255, 165, 0)" style="fill-opacity:1.00" />
<!-- End 'G' -->
<!-- Begin 'A' -->
<polygon points=" 510.000000, 99.926626, 531.000000, 47.499360, 539.000000, 47.499360, 560.000000, 99.926626, 552.500000, 99.926626, 546.250000, 86.819810, 523.750000, 86.819810, 517.500000, 99.926626" fill="rgb(178, 34, 34)" style="fill-opacity:1.00" />
<polygon points=" 535.000000, 57.984813, 527.000000, 77.955720, 542.000000, 77.955720" fill="rgb(255, 255, 255)" style="fill-opacity:1.00" />
<!-- End 'A' -->
<!-- Begin 'T' -->
<rect height="1.372511" width="50.000000" x="510.000000" y="99.926626" fill="rgb(0, 100, 0)" style="fill-opacity:1.00" />
<rect height="8.578195" width="10.000000" x="530.000000" y="99.926626" fill="rgb(0, 100, 0)" style="fill-opacity:1.00" />
<!-- End 'T' -->
<!-- Begin 'G' -->
<ellipse cx="535.000000" cy="109.132107" rx="25.000000" ry="0.627286" fill="rgb(255, 165, 0)" style="fill-opacity:1.00" />
<ellipse cx="535.000000" cy="109.132107" rx="16.666667" ry="0.418191" fill="rgb(255, 255, 255)" style="fill-opacity:1.00" />
<rect height="0.627286" width="25.000000" x="535.000000" y="108.818464" fill="rgb(255, 255, 255)" style="fill-opacity:1.00" />
<rect height="0.156821" width="25.000000" x="535.000000" y="109.288928" fill="rgb(255, 165, 0)" style="fill-opacity:1.00" />
<rect height="0.470464" width="6.250000" x="553.750000" y="109.288928" fill="rgb(255, 165, 0)" style="fill-opacity:1.00" />
<!-- End 'G' -->
<!-- Begin 'C' -->
<ellipse cx="535.000000" cy="109.879696" rx="25.000000" ry="0.120304" fill="rgb(0, 0, 128)" style="fill-opacity:1.00" />
<ellipse cx="535.000000" cy="109.879696" rx="16.666667" ry="0.080202" fill="rgb(255, 255, 255)" style="fill-opacity:1.00" />
<rect height="0.120304" width="25.000000" x="535.000000" y="109.819544" fill="rgb(255, 255, 255)" style="fill-opacity:1.00" />
<!-- End 'C' -->
<!-- Begin 'A' -->
<polygon points=" 570.000000, 105.873893, 591.000000, 28.453578, 599.000000, 28.453578, 620.000000, 105.873893, 612.500000, 105.873893, 606.250000, 86.518814, 583.750000, 86.518814, 577.500000, 105.873893" fill="rgb(178, 34, 34)" style="fill-opacity:1.00" />
<polygon points=" 595.000000, 43.937641, 587.000000, 73.905767, 602.000000, 73.905767" fill="rgb(255, 255, 255)" style="fill-opacity:1.00" />
<!-- End 'A' -->
<!-- Begin 'T' -->
<rect height="0.231460" width="50.000000" x="570.000000" y="105.873893" fill="rgb(0, 100, 0)" style="fill-opacity:1.00" />
<rect height="1.446623" width="10.000000" x="590.000000" y="105.873893" fill="rgb(0, 100, 0)" style="fill-opacity:1.00" />
<!-- End 'T' -->
<!-- Begin 'G' -->
<ellipse cx="595.000000" cy="108.003524" rx="25.000000" ry="0.683008" fill="rgb(255, 165, 0)" style="fill-opacity:1.00" />
<ellipse cx="595.000000" cy="108.003524" rx="16.666667" ry="0.455339" fill="rgb(255, 255, 255)" style="fill-opacity:1.00" />
<rect height="0.683008" width="25.000000" x="595.000000" y="107.662020" fill="rgb(255, 255, 255)" style="fill-opacity:1.00" />
<rect height="0.170752" width="25.000000" x="595.000000" y="108.174276" fill="rgb(255, 165, 0)" style="fill-opacity:1.00" />
<rect height="0.512256" width="6.250000" x="613.750000" y="108.174276" fill="rgb(255, 165, 0)" style="fill-opacity:1.00" />
<!-- End 'G' -->
<!-- Begin 'C' -->
<ellipse cx="595.000000" cy="109.343266" rx="25.000000" ry="0.656734" fill="rgb(0, 0, 128)" style="fill-opacity:1.00" />
<ellipse cx="595.000000" cy="109.343266" rx="16.666667" ry="0.437823" fill="rgb(255, 255, 255)" style="fill-opacity:1.00" />
<rect height="0.656734" width="25.000000" x="595.000000" y="109.014899" fill="rgb(255, 255, 255)" style="fill-opacity:1.00" />
<!-- End 'C' -->
<!-- Begin 'A' -->
<polygon points=" 630.000000, 105.957248, 651.000000, 27.727219, 659.000000, 27.727219, 680.000000, 105.957248, 672.500000, 105.957248, 666.250000, 86.399741, 643.750000, 86.399741, 637.500000, 105.957248" fill="rgb(178, 34, 34)" style="fill-opacity:1.00" />
<polygon points=" 655.000000, 43.373225, 647.000000, 73.665237, 662.000000, 73.665237" fill="rgb(255, 255, 255)" style="fill-opacity:1.00" />
<!-- End 'A' -->
<!-- Begin 'T' -->
<rect height="0.274570" width="50.000000" x="630.000000" y="105.957248" fill="rgb(0, 100, 0)" style="fill-opacity:1.00" />
<rect height="1.716062" width="10.000000" x="650.000000" y="105.957248" fill="rgb(0, 100, 0)" style="fill-opacity:1.00" />
<!-- End 'T' -->
<!-- Begin 'C' -->
<ellipse cx="655.000000" cy="108.531122" rx="25.000000" ry="0.857812" fill="rgb(0, 0, 128)" style="fill-opacity:1.00" />
<ellipse cx="655.000000" cy="108.531122" rx="16.666667" ry="0.571875" fill="rgb(255, 255, 255)" style="fill-opacity:1.00" />
<rect height="0.857812" width="25.000000" x="655.000000" y="108.102216" fill="rgb(255, 255, 255)" style="fill-opacity:1.00" />
<!-- End 'C' -->
<!-- Begin 'G' -->
<ellipse cx="655.000000" cy="109.694467" rx="25.000000" ry="0.305533" fill="rgb(255, 165, 0)" style="fill-opacity:1.00" />
<ellipse cx="655.000000" cy="109.694467" rx="16.666667" ry="0.203689" fill="rgb(255, 255, 255)" style="fill-opacity:1.00" />
<rect height="0.305533" width="25.000000" x="655.000000" y="109.541700" fill="rgb(255, 255, 255)" style="fill-opacity:1.00" />
<rect height="0.076383" width="25.000000" x="655.000000" y="109.770850" fill="rgb(255, 165, 0)" style="fill-opacity:1.00" />
<rect height="0.229150" width="6.250000" x="673.750000" y="109.770850" fill="rgb(255, 165, 0)" style="fill-opacity:1.00" />
<!-- End 'G' -->
<!-- Begin 'C' -->
<ellipse cx="715.000000" cy="81.050975" rx="25.000000" ry="17.385246" fill="rgb(0, 0, 128)" style="fill-opacity:1.00" />
<ellipse cx="715.000000" cy="81.050975" rx="16.666667" ry="11.590164" fill="rgb(255, 255, 255)" style="fill-opacity:1.00" />
<rect height="17.385246" width="25.000000" x="715.000000" y="72.358351" fill="rgb(255, 255, 255)" style="fill-opacity:1.00" />
<!-- End 'C' -->
<!-- Begin 'A' -->
<polygon points=" 690.000000, 105.349688, 711.000000, 98.436221, 719.000000, 98.436221, 740.000000, 105.349688, 732.500000, 105.349688, 726.250000, 103.621321, 703.750000, 103.621321, 697.500000, 105.349688" fill="rgb(178, 34, 34)" style="fill-opacity:1.00" />
<!-- End 'A' -->
<!-- Begin 'T' -->
<rect height="0.720879" width="50.000000" x="690.000000" y="105.349688" fill="rgb(0, 100, 0)" style="fill-opacity:1.00" />
<rect height="4.505494" width="10.000000" x="710.000000" y="105.349688" fill="rgb(0, 100, 0)" style="fill-opacity:1.00" />
<!-- End 'T' -->
<!-- Begin 'G' -->
<ellipse cx="715.000000" cy="109.927591" rx="25.000000" ry="0.072409" fill="rgb(255, 165, 0)" style="fill-opacity:1.00" />
<ellipse cx="715.000000" cy="109.927591" rx="16.666667" ry="0.048273" fill="rgb(255, 255, 255)" style="fill-opacity:1.00" />
<rect height="0.072409" width="25.000000" x="715.000000" y="109.891386" fill="rgb(255, 255, 255)" style="fill-opacity:1.00" />
<rect height="0.018102" width="25.000000" x="715.000000" y="109.945693" fill="rgb(255, 165, 0)" style="fill-opacity:1.00" />
<rect height="0.054307" width="6.250000" x="733.750000" y="109.945693" fill="rgb(255, 165, 0)" style="fill-opacity:1.00" />
<!-- End 'G' -->
<!-- Begin 'C' -->
<ellipse cx="775.000000" cy="77.042588" rx="25.000000" ry="23.320651" fill="rgb(0, 0, 128)" style="fill-opacity:1.00" />
<ellipse cx="775.000000" cy="77.042588" rx="16.666667" ry="15.547100" fill="rgb(255, 255, 255)" style="fill-opacity:1.00" />
<rect height="23.320651" width="25.000000" x="775.000000" y="65.382263" fill="rgb(255, 255, 255)" style="fill-opacity:1.00" />
<!-- End 'C' -->
<!-- Begin 'T' -->
<rect height="0.970003" width="50.000000" x="750.000000" y="100.363239" fill="rgb(0, 100, 0)" style="fill-opacity:1.00" />
<rect height="6.062522" width="10.000000" x="770.000000" y="100.363239" fill="rgb(0, 100, 0)" style="fill-opacity:1.00" />
<!-- End 'T' -->
<!-- Begin 'A' -->
<polygon points=" 750.000000, 109.124435, 771.000000, 106.425760, 779.000000, 106.425760, 800.000000, 109.124435, 792.500000, 109.124435, 786.250000, 108.449766, 763.750000, 108.449766, 757.500000, 109.124435" fill="rgb(178, 34, 34)" style="fill-opacity:1.00" />
<!-- End 'A' -->
<!-- Begin 'G' -->
<ellipse cx="775.000000" cy="109.562217" rx="25.000000" ry="0.437783" fill="rgb(255, 165, 0)" style="fill-opacity:1.00" />
<ellipse cx="775.000000" cy="109.562217" rx="16.666667" ry="0.291855" fill="rgb(255, 255, 255)" style="fill-opacity:1.00" />
<rect height="0.437783" width="25.000000" x="775.000000" y="109.343326" fill="rgb(255, 255, 255)" style="fill-opacity:1.00" />
<rect height="0.109446" width="25.000000" x="775.000000" y="109.671663" fill="rgb(255, 165, 0)" style="fill-opacity:1.00" />
<rect height="0.328337" width="6.250000" x="793.750000" y="109.671663" fill="rgb(255, 165, 0)" style="fill-opacity:1.00" />
<!-- End 'G' -->
<!-- Begin 'C' -->
<ellipse cx="835.000000" cy="80.512657" rx="25.000000" ry="19.961920" fill="rgb(0, 0, 128)" style="fill-opacity:1.00" />
<ellipse cx="835.000000" cy="80.512657" rx="16.666667" ry="13.307947" fill="rgb(255, 255, 255)" style="fill-opacity:1.00" />
<rect height="19.961920" width="25.000000" x="835.000000" y="70.531697" fill="rgb(255, 255, 255)" style="fill-opacity:1.00" />
<!-- End 'C' -->
<!-- Begin 'T' -->
<rect height="0.576471" width="50.000000" x="810.000000" y="100.474578" fill="rgb(0, 100, 0)" style="fill-opacity:1.00" />
<rect height="3.602943" width="10.000000" x="830.000000" y="100.474578" fill="rgb(0, 100, 0)" style="fill-opacity:1.00" />
<!-- End 'T' -->
<!-- Begin 'A' -->
<polygon points=" 810.000000, 107.055279, 831.000000, 104.077520, 839.000000, 104.077520, 860.000000, 107.055279, 852.500000, 107.055279, 846.250000, 106.310840, 823.750000, 106.310840, 817.500000, 107.055279" fill="rgb(178, 34, 34)" style="fill-opacity:1.00" />
<!-- End 'A' -->
<!-- Begin 'G' -->
<ellipse cx="835.000000" cy="108.527640" rx="25.000000" ry="1.472360" fill="rgb(255, 165, 0)" style="fill-opacity:1.00" />
<ellipse cx="835.000000" cy="108.527640" rx="16.666667" ry="0.981574" fill="rgb(255, 255, 255)" style="fill-opacity:1.00" />
<rect height="1.472360" width="25.000000" x="835.000000" y="107.791459" fill="rgb(255, 255, 255)" style="fill-opacity:1.00" />
<rect height="0.368090" width="25.000000" x="835.000000" y="108.895730" fill="rgb(255, 165, 0)" style="fill-opacity:1.00" />
<rect height="1.104270" width="6.250000" x="853.750000" y="108.895730" fill="rgb(255, 165, 0)" style="fill-opacity:1.00" />
<!-- End 'G' -->
<!-- Begin 'T' -->
<rect height="8.264451" width="50.000000" x="870.000000" y="49.895509" fill="rgb(0, 100, 0)" style="fill-opacity:1.00" />
<rect height="51.652819" width="10.000000" x="890.000000" y="49.895509" fill="rgb(0, 100, 0)" style="fill-opacity:1.00" />
<!-- End 'T' -->
<!-- Begin 'A' -->
<polygon points=" 870.000000, 105.326392, 891.000000, 101.548328, 899.000000, 101.548328, 920.000000, 105.326392, 912.500000, 105.326392, 906.250000, 104.381876, 883.750000, 104.381876, 877.500000, 105.326392" fill="rgb(178, 34, 34)" style="fill-opacity:1.00" />
<!-- End 'A' -->
<!-- Begin 'C' -->
<ellipse cx="895.000000" cy="106.846895" rx="25.000000" ry="1.520503" fill="rgb(0, 0, 128)" style="fill-opacity:1.00" />
<ellipse cx="895.000000" cy="106.846895" rx="16.666667" ry="1.013669" fill="rgb(255, 255, 255)" style="fill-opacity:1.00" />
<rect height="1.520503" width="25.000000" x="895.000000" y="106.086644" fill="rgb(255, 255, 255)" style="fill-opacity:1.00" />
<!-- End 'C' -->
<!-- Begin 'G' -->
<ellipse cx="895.000000" cy="109.183699" rx="25.000000" ry="0.816301" fill="rgb(255, 165, 0)" style="fill-opacity:1.00" />
<ellipse cx="895.000000" cy="109.183699" rx="16.666667" ry="0.544201" fill="rgb(255, 255, 255)" style="fill-opacity:1.00" />
<rect height="0.816301" width="25.000000" x="895.000000" y="108.775549" fill="rgb(255, 255, 255)" style="fill-opacity:1.00" />
<rect height="0.204075" width="25.000000" x="895.000000" y="109.387774" fill="rgb(255, 165, 0)" style="fill-opacity:1.00" />
<rect height="0.612226" width="6.250000" x="913.750000" y="109.387774" fill="rgb(255, 165, 0)" style="fill-opacity:1.00" />
<!-- End 'G' -->
<!-- Begin 'A' -->
<polygon points=" 930.000000, 101.290240, 951.000000, 44.571696, 959.000000, 44.571696, 980.000000, 101.290240, 972.500000, 101.290240, 966.250000, 87.110604, 943.750000, 87.110604, 937.500000, 101.290240" fill="rgb(178, 34, 34)" style="fill-opacity:1.00" />
<polygon points=" 955.000000, 55.915404, 947.000000, 77.602822, 962.000000, 77.602822" fill="rgb(255, 255, 255)" style="fill-opacity:1.00" />
<!-- End 'A' -->
<!-- Begin 'T' -->
<rect height="1.105037" width="50.000000" x="930.000000" y="101.290240" fill="rgb(0, 100, 0)" style="fill-opacity:1.00" />
<rect height="6.906484" width="10.000000" x="950.000000" y="101.290240" fill="rgb(0, 100, 0)" style="fill-opacity:1.00" />
<!-- End 'T' -->
<!-- Begin 'C' -->
<ellipse cx="955.000000" cy="108.655073" rx="25.000000" ry="0.458349" fill="rgb(0, 0, 128)" style="fill-opacity:1.00" />
<ellipse cx="955.000000" cy="108.655073" rx="16.666667" ry="0.305566" fill="rgb(255, 255, 255)" style="fill-opacity:1.00" />
<rect height="0.458349" width="25.000000" x="955.000000" y="108.425898" fill="rgb(255, 255, 255)" style="fill-opacity:1.00" />
<!-- End 'C' -->
<!-- Begin 'G' -->
<ellipse cx="955.000000" cy="109.556711" rx="25.000000" ry="0.443289" fill="rgb(255, 165, 0)" style="fill-opacity:1.00" />
<ellipse cx="955.000000" cy="109.556711" rx="16.666667" ry="0.295526" fill="rgb(255, 255, 255)" style="fill-opacity:1.00" />
<rect height="0.443289" width="25.000000" x="955.000000" y="109.335067" fill="rgb(255, 255, 255)" style="fill-opacity:1.00" />
<rect height="0.110822" width="25.000000" x="955.000000" y="109.667533" fill="rgb(255, 165, 0)" style="fill-opacity:1.00" />
<rect height="0.332467" width="6.250000" x="973.750000" y="109.667533" fill="rgb(255, 165, 0)" style="fill-opacity:1.00" />
<!-- End 'G' -->
<!-- Begin 'A' -->
<polygon points=" 990.000000, 103.887193, 1011.000000, 37.393302, 1019.000000, 37.393302, 1040.000000, 103.887193, 1032.500000, 103.887193, 1026.250000, 87.263720, 1003.750000, 87.263720, 997.500000, 103.887193" fill="rgb(178, 34, 34)" style="fill-opacity:1.00" />
<polygon points=" 1015.000000, 50.692080, 1007.000000, 76.289636, 1022.000000, 76.289636" fill="rgb(255, 255, 255)" style="fill-opacity:1.00" />
<!-- End 'A' -->
<!-- Begin 'C' -->
<ellipse cx="1015.000000" cy="105.126641" rx="25.000000" ry="1.239448" fill="rgb(0, 0, 128)" style="fill-opacity:1.00" />
<ellipse cx="1015.000000" cy="105.126641" rx="16.666667" ry="0.826299" fill="rgb(255, 255, 255)" style="fill-opacity:1.00" />
<rect height="1.239448" width="25.000000" x="1015.000000" y="104.506917" fill="rgb(255, 255, 255)" style="fill-opacity:1.00" />
<!-- End 'C' -->
<!-- Begin 'G' -->
<ellipse cx="1015.000000" cy="107.423025" rx="25.000000" ry="1.056936" fill="rgb(255, 165, 0)" style="fill-opacity:1.00" />
<ellipse cx="1015.000000" cy="107.423025" rx="16.666667" ry="0.704624" fill="rgb(255, 255, 255)" style="fill-opacity:1.00" />
<rect height="1.056936" width="25.000000" x="1015.000000" y="106.894557" fill="rgb(255, 255, 255)" style="fill-opacity:1.00" />
<rect height="0.264234" width="25.000000" x="1015.000000" y="107.687259" fill="rgb(255, 165, 0)" style="fill-opacity:1.00" />
<rect height="0.792702" width="6.250000" x="1033.750000" y="107.687259" fill="rgb(255, 165, 0)" style="fill-opacity:1.00" />
<!-- End 'G' -->
<!-- Begin 'T' -->
<rect height="0.243206" width="50.000000" x="990.000000" y="108.479961" fill="rgb(0, 100, 0)" style="fill-opacity:1.00" />
<rect height="1.520039" width="10.000000" x="1010.000000" y="108.479961" fill="rgb(0, 100, 0)" style="fill-opacity:1.00" />
<!-- End 'T' -->
<!-- Begin 'A' -->
<polygon points=" 1050.000000, 105.303015, 1071.000000, 30.140843, 1079.000000, 30.140843, 1100.000000, 105.303015, 1092.500000, 105.303015, 1086.250000, 86.512472, 1063.750000, 86.512472, 1057.500000, 105.303015" fill="rgb(178, 34, 34)" style="fill-opacity:1.00" />
<polygon points=" 1075.000000, 45.173277, 1067.000000, 74.238146, 1082.000000, 74.238146" fill="rgb(255, 255, 255)" style="fill-opacity:1.00" />
<!-- End 'A' -->
<!-- Begin 'T' -->
<rect height="0.413189" width="50.000000" x="1050.000000" y="105.303015" fill="rgb(0, 100, 0)" style="fill-opacity:1.00" />
<rect height="2.582429" width="10.000000" x="1070.000000" y="105.303015" fill="rgb(0, 100, 0)" style="fill-opacity:1.00" />
<!-- End 'T' -->
<!-- Begin 'C' -->
<ellipse cx="1075.000000" cy="108.672919" rx="25.000000" ry="0.787475" fill="rgb(0, 0, 128)" style="fill-opacity:1.00" />
<ellipse cx="1075.000000" cy="108.672919" rx="16.666667" ry="0.524983" fill="rgb(255, 255, 255)" style="fill-opacity:1.00" />
<rect height="0.787475" width="25.000000" x="1075.000000" y="108.279182" fill="rgb(255, 255, 255)" style="fill-opacity:1.00" />
<!-- End 'C' -->
<!-- Begin 'G' -->
<ellipse cx="1075.000000" cy="109.730197" rx="25.000000" ry="0.269803" fill="rgb(255, 165, 0)" style="fill-opacity:1.00" />
<ellipse cx="1075.000000" cy="109.730197" rx="16.666667" ry="0.179869" fill="rgb(255, 255, 255)" style="fill-opacity:1.00" />
<rect height="0.269803" width="25.000000" x="1075.000000" y="109.595295" fill="rgb(255, 255, 255)" style="fill-opacity:1.00" />
<rect height="0.067451" width="25.000000" x="1075.000000" y="109.797648" fill="rgb(255, 165, 0)" style="fill-opacity:1.00" />
<rect height="0.202352" width="6.250000" x="1093.750000" y="109.797648" fill="rgb(255, 165, 0)" style="fill-opacity:1.00" />
<!-- End 'G' -->
<!-- Begin 'C' -->
<ellipse cx="1135.000000" cy="80.546730" rx="25.000000" ry="18.626141" fill="rgb(0, 0, 128)" style="fill-opacity:1.00" />
<ellipse cx="1135.000000" cy="80.546730" rx="16.666667" ry="12.417427" fill="rgb(255, 255, 255)" style="fill-opacity:1.00" />
<rect height="18.626141" width="25.000000" x="1135.000000" y="71.233659" fill="rgb(255, 255, 255)" style="fill-opacity:1.00" />
<!-- End 'C' -->
<!-- Begin 'T' -->
<rect height="0.857635" width="50.000000" x="1110.000000" y="99.172871" fill="rgb(0, 100, 0)" style="fill-opacity:1.00" />
<rect height="5.360221" width="10.000000" x="1130.000000" y="99.172871" fill="rgb(0, 100, 0)" style="fill-opacity:1.00" />
<!-- End 'T' -->
<!-- Begin 'A' -->
<polygon points=" 1110.000000, 109.589981, 1131.000000, 104.533092, 1139.000000, 104.533092, 1160.000000, 109.589981, 1152.500000, 109.589981, 1146.250000, 108.325759, 1123.750000, 108.325759, 1117.500000, 109.589981" fill="rgb(178, 34, 34)" style="fill-opacity:1.00" />
<!-- End 'A' -->
<!-- Begin 'G' -->
<ellipse cx="1135.000000" cy="109.794991" rx="25.000000" ry="0.205009" fill="rgb(255, 165, 0)" style="fill-opacity:1.00" />
<ellipse cx="1135.000000" cy="109.794991" rx="16.666667" ry="0.136673" fill="rgb(255, 255, 255)" style="fill-opacity:1.00" />
<rect height="0.205009" width="25.000000" x="1135.000000" y="109.692486" fill="rgb(255, 255, 255)" style="fill-opacity:1.00" />
<rect height="0.051252" width="25.000000" x="1135.000000" y="109.846243" fill="rgb(255, 165, 0)" style="fill-opacity:1.00" />
<rect height="0.153757" width="6.250000" x="1153.750000" y="109.846243" fill="rgb(255, 165, 0)" style="fill-opacity:1.00" />
<!-- End 'G' -->
<!-- Begin 'C' -->
<ellipse cx="1195.000000" cy="77.193058" rx="25.000000" ry="23.303332" fill="rgb(0, 0, 128)" style="fill-opacity:1.00" />
<ellipse cx="1195.000000" cy="77.193058" rx="16.666667" ry="15.535555" fill="rgb(255, 255, 255)" style="fill-opacity:1.00" />
<rect height="23.303332" width="25.000000" x="1195.000000" y="65.541392" fill="rgb(255, 255, 255)" style="fill-opacity:1.00" />
<!-- End 'C' -->
<!-- Begin 'T' -->
<rect height="0.887831" width="50.000000" x="1170.000000" y="100.496390" fill="rgb(0, 100, 0)" style="fill-opacity:1.00" />
<rect height="5.548944" width="10.000000" x="1190.000000" y="100.496390" fill="rgb(0, 100, 0)" style="fill-opacity:1.00" />
<!-- End 'T' -->
<!-- Begin 'A' -->
<polygon points=" 1170.000000, 109.065250, 1191.000000, 106.045334, 1199.000000, 106.045334, 1220.000000, 109.065250, 1212.500000, 109.065250, 1206.250000, 108.310271, 1183.750000, 108.310271, 1177.500000, 109.065250" fill="rgb(178, 34, 34)" style="fill-opacity:1.00" />
<!-- End 'A' -->
<!-- Begin 'G' -->
<ellipse cx="1195.000000" cy="109.532625" rx="25.000000" ry="0.467375" fill="rgb(255, 165, 0)" style="fill-opacity:1.00" />
<ellipse cx="1195.000000" cy="109.532625" rx="16.666667" ry="0.311583" fill="rgb(255, 255, 255)" style="fill-opacity:1.00" />
<rect height="0.467375" width="25.000000" x="1195.000000" y="109.298937" fill="rgb(255, 255, 255)" style="fill-opacity:1.00" />
<rect height="0.116844" width="25.000000" x="1195.000000" y="109.649469" fill="rgb(255, 165, 0)" style="fill-opacity:1.00" />
<rect height="0.350531" width="6.250000" x="1213.750000" y="109.649469" fill="rgb(255, 165, 0)" style="fill-opacity:1.00" />
<!-- End 'G' -->
<!-- Begin 'C' -->
<ellipse cx="1255.000000" cy="81.785626" rx="25.000000" ry="17.627905" fill="rgb(0, 0, 128)" style="fill-opacity:1.00" />
<ellipse cx="1255.000000" cy="81.785626" rx="16.666667" ry="11.751936" fill="rgb(255, 255, 255)" style="fill-opacity:1.00" />
<rect height="17.627905" width="25.000000" x="1255.000000" y="72.971673" fill="rgb(255, 255, 255)" style="fill-opacity:1.00" />
<!-- End 'C' -->
<!-- Begin 'T' -->
<rect height="0.855203" width="50.000000" x="1230.000000" y="99.413530" fill="rgb(0, 100, 0)" style="fill-opacity:1.00" />
<rect height="5.345021" width="10.000000" x="1250.000000" y="99.413530" fill="rgb(0, 100, 0)" style="fill-opacity:1.00" />
<!-- End 'T' -->
<!-- Begin 'A' -->
<polygon points=" 1230.000000, 109.159836, 1251.000000, 104.758551, 1259.000000, 104.758551, 1280.000000, 109.159836, 1272.500000, 109.159836, 1266.250000, 108.059515, 1243.750000, 108.059515, 1237.500000, 109.159836" fill="rgb(178, 34, 34)" style="fill-opacity:1.00" />
<!-- End 'A' -->
<!-- Begin 'G' -->
<ellipse cx="1255.000000" cy="109.579918" rx="25.000000" ry="0.420082" fill="rgb(255, 165, 0)" style="fill-opacity:1.00" />
<ellipse cx="1255.000000" cy="109.579918" rx="16.666667" ry="0.280055" fill="rgb(255, 255, 255)" style="fill-opacity:1.00" />
<rect height="0.420082" width="25.000000" x="1255.000000" y="109.369877" fill="rgb(255, 255, 255)" style="fill-opacity:1.00" />
<rect height="0.105020" width="25.000000" x="1255.000000" y="109.684939" fill="rgb(255, 165, 0)" style="fill-opacity:1.00" />
<rect height="0.315061" width="6.250000" x="1273.750000" y="109.684939" fill="rgb(255, 165, 0)" style="fill-opacity:1.00" />
<!-- End 'G' -->
<text x="670.000000" y="165">
IC = 24.77
</text>

</svg>
