<?xml version="1.0" encoding="UTF-8" standalone="yes"?>
                 <!DOCTYPE svg PUBLIC "-//W3C//DTD SVG 1.0//EN" "http://www.w3.org/TR/2001/REC-SVG-20010904/DTD/svg10.dtd">
                 <svg height="170" width="900" xmlns="http://www.w3.org/2000/svg" xmlns:xlink="http://www.w3.org/1999/xlink">
                 <line x1="85" y1="120" x2="867" y2="120" style="stroke:rgb(99,99,99);stroke-width:2" />
<rect height="7.000000" width="2.000000" x="85.000000" y="120.000000" fill="rgb(0, 0, 0)" style="fill-opacity:1.00" />
<text x="107.000000" y="140">
1
</text>
<rect height="7.000000" width="2.000000" x="145.000000" y="120.000000" fill="rgb(0, 0, 0)" style="fill-opacity:1.00" />
<text x="167.000000" y="140">
2
</text>
<rect height="7.000000" width="2.000000" x="205.000000" y="120.000000" fill="rgb(0, 0, 0)" style="fill-opacity:1.00" />
<text x="227.000000" y="140">
3
</text>
<rect height="7.000000" width="2.000000" x="265.000000" y="120.000000" fill="rgb(0, 0, 0)" style="fill-opacity:1.00" />
<text x="287.000000" y="140">
4
</text>
<rect height="7.000000" width="2.000000" x="325.000000" y="120.000000" fill="rgb(0, 0, 0)" style="fill-opacity:1.00" />
<text x="347.000000" y="140">
5
</text>
<rect height="7.000000" width="2.000000" x="385.000000" y="120.000000" fill="rgb(0, 0, 0)" style="fill-opacity:1.00" />
<text x="407.000000" y="140">
6
</text>
<rect height="7.000000" width="2.000000" x="445.000000" y="120.000000" fill="rgb(0, 0, 0)" style="fill-opacity:1.00" />
<text x="467.000000" y="140">
7
</text>
<rect height="7.000000" width="2.000000" x="505.000000" y="120.000000" fill="rgb(0, 0, 0)" style="fill-opacity:1.00" />
<text x="527.000000" y="140">
8
</text>
<rect height="7.000000" width="2.000000" x="565.000000" y="120.000000" fill="rgb(0, 0, 0)" style="fill-opacity:1.00" />
<text x="587.000000" y="140">
9
</text>
<rect height="7.000000" width="2.000000" x="625.000000" y="120.000000" fill="rgb(0, 0, 0)" style="fill-opacity:1.00" />
<text x="647.000000" y="140">
10
</text>
<rect height="7.000000" width="2.000000" x="685.000000" y="120.000000" fill="rgb(0, 0, 0)" style="fill-opacity:1.00" />
<text x="707.000000" y="140">
11
</text>
<rect height="7.000000" width="2.000000" x="745.000000" y="120.000000" fill="rgb(0, 0, 0)" style="fill-opacity:1.00" />
<text x="767.000000" y="140">
12
</text>
<rect height="7.000000" width="2.000000" x="805.000000" y="120.000000" fill="rgb(0, 0, 0)" style="fill-opacity:1.00" />
<text x="827.000000" y="140">
13
</text>
<rect height="7.000000" width="2.000000" x="865.000000" y="120.000000" fill="rgb(0, 0, 0)" style="fill-opacity:1.00" />
<line x1="80" y1="112" x2="80" y2="10" style="stroke:rgb(99,99,99);stroke-width:2" />
<rect height="2.000000" width="7.000000" x="73.000000" y="110.000000" fill="rgb(0, 0, 0)" style="fill-opacity:1.00" />
<text x="63" y="115">
0
</text>
<rect height="2.000000" width="7.000000" x="73.000000" y="60.000000" fill="rgb(0, 0, 0)" style="fill-opacity:1.00" />
<text x="63" y="65">
1
</text>
<rect height="2.000000" width="7.000000" x="73.000000" y="10.000000" fill="rgb(0, 0, 0)" style="fill-opacity:1.00" />
<text x="63" y="15">
2
</text>
<text x="50" y="65"
transform="rotate(-90, 50, 70)">
bits
</text>
<!-- Begin 'A' -->
<polygon points=" 90.000000, 107.271446, 111.000000, 105.676486, 119.000000, 105.676486, 140.000000, 107.271446, 132.500000, 107.271446, 126.250000, 106.872706, 103.750000, 106.872706, 97.500000, 107.271446" fill="rgb(178, 34, 34)" style="fill-opacity:1.00" />
<!-- End 'A' -->
<!-- Begin 'T' -->
<rect height="0.199273" width="50.000000" x="90.000000" y="107.271446" fill="rgb(0, 100, 0)" style="fill-opacity:1.00" />
<rect height="1.245454" width="10.000000" x="110.000000" y="107.271446" fill="rgb(0, 100, 0)" style="fill-opacity:1.00" />
<!-- End 'T' -->
<!-- Begin 'G' -->
<ellipse cx="115.000000" cy="108.949742" rx="25.000000" ry="0.432843" fill="rgb(255, 165, 0)" style="fill-opacity:1.00" />
<ellipse cx="115.000000" cy="108.949742" rx="16.666667" ry="0.288562" fill="rgb(255, 255, 255)" style="fill-opacity:1.00" />
<rect height="0.432843" width="25.000000" x="115.000000" y="108.733321" fill="rgb(255, 255, 255)" style="fill-opacity:1.00" />
<rect height="0.108211" width="25.000000" x="115.000000" y="109.057953" fill="rgb(255, 165, 0)" style="fill-opacity:1.00" />
<rect height="0.324632" width="6.250000" x="133.750000" y="109.057953" fill="rgb(255, 165, 0)" style="fill-opacity:1.00" />
<!-- End 'G' -->
<!-- Begin 'C' -->
<ellipse cx="115.000000" cy="109.691292" rx="25.000000" ry="0.308708" fill="rgb(0, 0, 128)" style="fill-opacity:1.00" />
<ellipse cx="115.000000" cy="109.691292" rx="16.666667" ry="0.205805" fill="rgb(255, 255, 255)" style="fill-opacity:1.00" />
<rect height="0.308708" width="25.000000" x="115.000000" y="109.536939" fill="rgb(255, 255, 255)" style="fill-opacity:1.00" />
<!-- End 'C' -->
<!-- Begin 'T' -->
<rect height="0.142074" width="50.000000" x="150.000000" y="107.092100" fill="rgb(0, 100, 0)" style="fill-opacity:1.00" />
<rect height="0.887963" width="10.000000" x="170.000000" y="107.092100" fill="rgb(0, 100, 0)" style="fill-opacity:1.00" />
<!-- End 'T' -->
<!-- Begin 'A' -->
<polygon points=" 150.000000, 108.824245, 171.000000, 107.980064, 179.000000, 107.980064, 200.000000, 108.824245, 192.500000, 108.824245, 186.250000, 108.613200, 163.750000, 108.613200, 157.500000, 108.824245" fill="rgb(178, 34, 34)" style="fill-opacity:1.00" />
<!-- End 'A' -->
<!-- Begin 'C' -->
<ellipse cx="175.000000" cy="109.213621" rx="25.000000" ry="0.389376" fill="rgb(0, 0, 128)" style="fill-opacity:1.00" />
<ellipse cx="175.000000" cy="109.213621" rx="16.666667" ry="0.259584" fill="rgb(255, 255, 255)" style="fill-opacity:1.00" />
<rect height="0.389376" width="25.000000" x="175.000000" y="109.018933" fill="rgb(255, 255, 255)" style="fill-opacity:1.00" />
<!-- End 'C' -->
<!-- Begin 'G' -->
<ellipse cx="175.000000" cy="109.801498" rx="25.000000" ry="0.198502" fill="rgb(255, 165, 0)" style="fill-opacity:1.00" />
<ellipse cx="175.000000" cy="109.801498" rx="16.666667" ry="0.132334" fill="rgb(255, 255, 255)" style="fill-opacity:1.00" />
<rect height="0.198502" width="25.000000" x="175.000000" y="109.702248" fill="rgb(255, 255, 255)" style="fill-opacity:1.00" />
<rect height="0.049625" width="25.000000" x="175.000000" y="109.851124" fill="rgb(255, 165, 0)" style="fill-opacity:1.00" />
<rect height="0.148876" width="6.250000" x="193.750000" y="109.851124" fill="rgb(255, 165, 0)" style="fill-opacity:1.00" />
<!-- End 'G' -->
<!-- Begin 'T' -->
<rect height="0.146183" width="50.000000" x="210.000000" y="107.186098" fill="rgb(0, 100, 0)" style="fill-opacity:1.00" />
<rect height="0.913641" width="10.000000" x="230.000000" y="107.186098" fill="rgb(0, 100, 0)" style="fill-opacity:1.00" />
<!-- End 'T' -->
<!-- Begin 'A' -->
<polygon points=" 210.000000, 108.877033, 231.000000, 108.099738, 239.000000, 108.099738, 260.000000, 108.877033, 252.500000, 108.877033, 246.250000, 108.682709, 223.750000, 108.682709, 217.500000, 108.877033" fill="rgb(178, 34, 34)" style="fill-opacity:1.00" />
<!-- End 'A' -->
<!-- Begin 'C' -->
<ellipse cx="235.000000" cy="109.238044" rx="25.000000" ry="0.361012" fill="rgb(0, 0, 128)" style="fill-opacity:1.00" />
<ellipse cx="235.000000" cy="109.238044" rx="16.666667" ry="0.240674" fill="rgb(255, 255, 255)" style="fill-opacity:1.00" />
<rect height="0.361012" width="25.000000" x="235.000000" y="109.057539" fill="rgb(255, 255, 255)" style="fill-opacity:1.00" />
<!-- End 'C' -->
<!-- Begin 'G' -->
<ellipse cx="235.000000" cy="109.799528" rx="25.000000" ry="0.200472" fill="rgb(255, 165, 0)" style="fill-opacity:1.00" />
<ellipse cx="235.000000" cy="109.799528" rx="16.666667" ry="0.133648" fill="rgb(255, 255, 255)" style="fill-opacity:1.00" />
<rect height="0.200472" width="25.000000" x="235.000000" y="109.699292" fill="rgb(255, 255, 255)" style="fill-opacity:1.00" />
<rect height="0.050118" width="25.000000" x="235.000000" y="109.849646" fill="rgb(255, 165, 0)" style="fill-opacity:1.00" />
<rect height="0.150354" width="6.250000" x="253.750000" y="109.849646" fill="rgb(255, 165, 0)" style="fill-opacity:1.00" />
<!-- End 'G' -->
<!-- Begin 'G' -->
<ellipse cx="295.000000" cy="109.161870" rx="25.000000" ry="0.142088" fill="rgb(255, 165, 0)" style="fill-opacity:1.00" />
<ellipse cx="295.000000" cy="109.161870" rx="16.666667" ry="0.094725" fill="rgb(255, 255, 255)" style="fill-opacity:1.00" />
<rect height="0.142088" width="25.000000" x="295.000000" y="109.090826" fill="rgb(255, 255, 255)" style="fill-opacity:1.00" />
<rect height="0.035522" width="25.000000" x="295.000000" y="109.197392" fill="rgb(255, 165, 0)" style="fill-opacity:1.00" />
<rect height="0.106566" width="6.250000" x="313.750000" y="109.197392" fill="rgb(255, 165, 0)" style="fill-opacity:1.00" />
<!-- End 'G' -->
<!-- Begin 'A' -->
<polygon points=" 270.000000, 109.575057, 291.000000, 109.303958, 299.000000, 109.303958, 320.000000, 109.575057, 312.500000, 109.575057, 306.250000, 109.507282, 283.750000, 109.507282, 277.500000, 109.575057" fill="rgb(178, 34, 34)" style="fill-opacity:1.00" />
<!-- End 'A' -->
<!-- Begin 'T' -->
<rect height="0.038921" width="50.000000" x="270.000000" y="109.575057" fill="rgb(0, 100, 0)" style="fill-opacity:1.00" />
<rect height="0.243255" width="10.000000" x="290.000000" y="109.575057" fill="rgb(0, 100, 0)" style="fill-opacity:1.00" />
<!-- End 'T' -->
<!-- Begin 'C' -->
<ellipse cx="295.000000" cy="109.909156" rx="25.000000" ry="0.090844" fill="rgb(0, 0, 128)" style="fill-opacity:1.00" />
<ellipse cx="295.000000" cy="109.909156" rx="16.666667" ry="0.060563" fill="rgb(255, 255, 255)" style="fill-opacity:1.00" />
<rect height="0.090844" width="25.000000" x="295.000000" y="109.863734" fill="rgb(255, 255, 255)" style="fill-opacity:1.00" />
<!-- End 'C' -->
<!-- Begin 'T' -->
<rect height="0.945068" width="50.000000" x="330.000000" y="97.691661" fill="rgb(0, 100, 0)" style="fill-opacity:1.00" />
<rect height="5.906675" width="10.000000" x="350.000000" y="97.691661" fill="rgb(0, 100, 0)" style="fill-opacity:1.00" />
<!-- End 'T' -->
<!-- Begin 'A' -->
<polygon points=" 330.000000, 106.837162, 351.000000, 103.598336, 359.000000, 103.598336, 380.000000, 106.837162, 372.500000, 106.837162, 366.250000, 106.027456, 343.750000, 106.027456, 337.500000, 106.837162" fill="rgb(178, 34, 34)" style="fill-opacity:1.00" />
<!-- End 'A' -->
<!-- Begin 'C' -->
<ellipse cx="355.000000" cy="107.897679" rx="25.000000" ry="1.060517" fill="rgb(0, 0, 128)" style="fill-opacity:1.00" />
<ellipse cx="355.000000" cy="107.897679" rx="16.666667" ry="0.707011" fill="rgb(255, 255, 255)" style="fill-opacity:1.00" />
<rect height="1.060517" width="25.000000" x="355.000000" y="107.367421" fill="rgb(255, 255, 255)" style="fill-opacity:1.00" />
<!-- End 'C' -->
<!-- Begin 'G' -->
<ellipse cx="355.000000" cy="109.479098" rx="25.000000" ry="0.520902" fill="rgb(255, 165, 0)" style="fill-opacity:1.00" />
<ellipse cx="355.000000" cy="109.479098" rx="16.666667" ry="0.347268" fill="rgb(255, 255, 255)" style="fill-opacity:1.00" />
<rect height="0.520902" width="25.000000" x="355.000000" y="109.218647" fill="rgb(255, 255, 255)" style="fill-opacity:1.00" />
<rect height="0.130225" width="25.000000" x="355.000000" y="109.609324" fill="rgb(255, 165, 0)" style="fill-opacity:1.00" />
<rect height="0.390676" width="6.250000" x="373.750000" y="109.609324" fill="rgb(255, 165, 0)" style="fill-opacity:1.00" />
<!-- End 'G' -->
<!-- Begin 'A' -->
<polygon points=" 390.000000, 100.210023, 411.000000, 83.095764, 419.000000, 83.095764, 440.000000, 100.210023, 432.500000, 100.210023, 426.250000, 95.931458, 403.750000, 95.931458, 397.500000, 100.210023" fill="rgb(178, 34, 34)" style="fill-opacity:1.00" />
<polygon points=" 415.000000, 86.518616, 407.000000, 92.364320, 422.000000, 92.364320" fill="rgb(255, 255, 255)" style="fill-opacity:1.00" />
<!-- End 'A' -->
<!-- Begin 'T' -->
<rect height="0.874501" width="50.000000" x="390.000000" y="100.210023" fill="rgb(0, 100, 0)" style="fill-opacity:1.00" />
<rect height="5.465631" width="10.000000" x="410.000000" y="100.210023" fill="rgb(0, 100, 0)" style="fill-opacity:1.00" />
<!-- End 'T' -->
<!-- Begin 'G' -->
<ellipse cx="415.000000" cy="106.980022" rx="25.000000" ry="1.304368" fill="rgb(255, 165, 0)" style="fill-opacity:1.00" />
<ellipse cx="415.000000" cy="106.980022" rx="16.666667" ry="0.869579" fill="rgb(255, 255, 255)" style="fill-opacity:1.00" />
<rect height="1.304368" width="25.000000" x="415.000000" y="106.327838" fill="rgb(255, 255, 255)" style="fill-opacity:1.00" />
<rect height="0.326092" width="25.000000" x="415.000000" y="107.306115" fill="rgb(255, 165, 0)" style="fill-opacity:1.00" />
<rect height="0.978276" width="6.250000" x="433.750000" y="107.306115" fill="rgb(255, 165, 0)" style="fill-opacity:1.00" />
<!-- End 'G' -->
<!-- Begin 'C' -->
<ellipse cx="415.000000" cy="109.142195" rx="25.000000" ry="0.857805" fill="rgb(0, 0, 128)" style="fill-opacity:1.00" />
<ellipse cx="415.000000" cy="109.142195" rx="16.666667" ry="0.571870" fill="rgb(255, 255, 255)" style="fill-opacity:1.00" />
<rect height="0.857805" width="25.000000" x="415.000000" y="108.713293" fill="rgb(255, 255, 255)" style="fill-opacity:1.00" />
<!-- End 'C' -->
<!-- Begin 'A' -->
<polygon points=" 450.000000, 99.290518, 471.000000, 73.464521, 479.000000, 73.464521, 500.000000, 99.290518, 492.500000, 99.290518, 486.250000, 92.834019, 463.750000, 92.834019, 457.500000, 99.290518" fill="rgb(178, 34, 34)" style="fill-opacity:1.00" />
<polygon points=" 475.000000, 78.629721, 467.000000, 87.960119, 482.000000, 87.960119" fill="rgb(255, 255, 255)" style="fill-opacity:1.00" />
<!-- End 'A' -->
<!-- Begin 'T' -->
<rect height="0.813393" width="50.000000" x="450.000000" y="99.290518" fill="rgb(0, 100, 0)" style="fill-opacity:1.00" />
<rect height="5.083708" width="10.000000" x="470.000000" y="99.290518" fill="rgb(0, 100, 0)" style="fill-opacity:1.00" />
<!-- End 'T' -->
<!-- Begin 'G' -->
<ellipse cx="475.000000" cy="106.686916" rx="25.000000" ry="2.312690" fill="rgb(255, 165, 0)" style="fill-opacity:1.00" />
<ellipse cx="475.000000" cy="106.686916" rx="16.666667" ry="1.541793" fill="rgb(255, 255, 255)" style="fill-opacity:1.00" />
<rect height="2.312690" width="25.000000" x="475.000000" y="105.530571" fill="rgb(255, 255, 255)" style="fill-opacity:1.00" />
<rect height="0.578173" width="25.000000" x="475.000000" y="107.265088" fill="rgb(255, 165, 0)" style="fill-opacity:1.00" />
<rect height="1.734518" width="6.250000" x="493.750000" y="107.265088" fill="rgb(255, 165, 0)" style="fill-opacity:1.00" />
<!-- End 'G' -->
<!-- Begin 'C' -->
<ellipse cx="475.000000" cy="109.499803" rx="25.000000" ry="0.500197" fill="rgb(0, 0, 128)" style="fill-opacity:1.00" />
<ellipse cx="475.000000" cy="109.499803" rx="16.666667" ry="0.333465" fill="rgb(255, 255, 255)" style="fill-opacity:1.00" />
<rect height="0.500197" width="25.000000" x="475.000000" y="109.249704" fill="rgb(255, 255, 255)" style="fill-opacity:1.00" />
<!-- End 'C' -->
<!-- Begin 'C' -->
<ellipse cx="535.000000" cy="60.833945" rx="25.000000" ry="48.773219" fill="rgb(0, 0, 128)" style="fill-opacity:1.00" />
<ellipse cx="535.000000" cy="60.833945" rx="16.666667" ry="32.515479" fill="rgb(255, 255, 255)" style="fill-opacity:1.00" />
<rect height="48.773219" width="25.000000" x="535.000000" y="36.447335" fill="rgb(255, 255, 255)" style="fill-opacity:1.00" />
<!-- End 'C' -->
<!-- Begin 'T' -->
<rect height="0.047321" width="50.000000" x="510.000000" y="109.607164" fill="rgb(0, 100, 0)" style="fill-opacity:1.00" />
<rect height="0.295756" width="10.000000" x="530.000000" y="109.607164" fill="rgb(0, 100, 0)" style="fill-opacity:1.00" />
<!-- End 'T' -->
<!-- Begin 'A' -->
<polygon points=" 510.000000, 109.995489, 531.000000, 109.902919, 539.000000, 109.902919, 560.000000, 109.995489, 552.500000, 109.995489, 546.250000, 109.972347, 523.750000, 109.972347, 517.500000, 109.995489" fill="rgb(178, 34, 34)" style="fill-opacity:1.00" />
<!-- End 'A' -->
<!-- Begin 'G' -->
<ellipse cx="535.000000" cy="109.997745" rx="25.000000" ry="0.002255" fill="rgb(255, 165, 0)" style="fill-opacity:1.00" />
<ellipse cx="535.000000" cy="109.997745" rx="16.666667" ry="0.001504" fill="rgb(255, 255, 255)" style="fill-opacity:1.00" />
<rect height="0.002255" width="25.000000" x="535.000000" y="109.996617" fill="rgb(255, 255, 255)" style="fill-opacity:1.00" />
<rect height="0.000564" width="25.000000" x="535.000000" y="109.998308" fill="rgb(255, 165, 0)" style="fill-opacity:1.00" />
<rect height="0.001692" width="6.250000" x="553.750000" y="109.998308" fill="rgb(255, 165, 0)" style="fill-opacity:1.00" />
<!-- End 'G' -->
<!-- Begin 'C' -->
<ellipse cx="595.000000" cy="105.897510" rx="25.000000" ry="0.977592" fill="rgb(0, 0, 128)" style="fill-opacity:1.00" />
<ellipse cx="595.000000" cy="105.897510" rx="16.666667" ry="0.651728" fill="rgb(255, 255, 255)" style="fill-opacity:1.00" />
<rect height="0.977592" width="25.000000" x="595.000000" y="105.408714" fill="rgb(255, 255, 255)" style="fill-opacity:1.00" />
<!-- End 'C' -->
<!-- Begin 'G' -->
<ellipse cx="595.000000" cy="107.603828" rx="25.000000" ry="0.728726" fill="rgb(255, 165, 0)" style="fill-opacity:1.00" />
<ellipse cx="595.000000" cy="107.603828" rx="16.666667" ry="0.485818" fill="rgb(255, 255, 255)" style="fill-opacity:1.00" />
<rect height="0.728726" width="25.000000" x="595.000000" y="107.239465" fill="rgb(255, 255, 255)" style="fill-opacity:1.00" />
<rect height="0.182182" width="25.000000" x="595.000000" y="107.786010" fill="rgb(255, 165, 0)" style="fill-opacity:1.00" />
<rect height="0.546545" width="6.250000" x="613.750000" y="107.786010" fill="rgb(255, 165, 0)" style="fill-opacity:1.00" />
<!-- End 'G' -->
<!-- Begin 'A' -->
<polygon points=" 570.000000, 109.279325, 591.000000, 108.332555, 599.000000, 108.332555, 620.000000, 109.279325, 612.500000, 109.279325, 606.250000, 109.042632, 583.750000, 109.042632, 577.500000, 109.279325" fill="rgb(178, 34, 34)" style="fill-opacity:1.00" />
<!-- End 'A' -->
<!-- Begin 'T' -->
<rect height="0.115308" width="50.000000" x="570.000000" y="109.279325" fill="rgb(0, 100, 0)" style="fill-opacity:1.00" />
<rect height="0.720675" width="10.000000" x="590.000000" y="109.279325" fill="rgb(0, 100, 0)" style="fill-opacity:1.00" />
<!-- End 'T' -->
<!-- Begin 'G' -->
<ellipse cx="655.000000" cy="78.441640" rx="25.000000" ry="17.820667" fill="rgb(255, 165, 0)" style="fill-opacity:1.00" />
<ellipse cx="655.000000" cy="78.441640" rx="16.666667" ry="11.880445" fill="rgb(255, 255, 255)" style="fill-opacity:1.00" />
<rect height="17.820667" width="25.000000" x="655.000000" y="69.531306" fill="rgb(255, 255, 255)" style="fill-opacity:1.00" />
<rect height="4.455167" width="25.000000" x="655.000000" y="82.896807" fill="rgb(255, 165, 0)" style="fill-opacity:1.00" />
<rect height="13.365500" width="6.250000" x="673.750000" y="82.896807" fill="rgb(255, 165, 0)" style="fill-opacity:1.00" />
<!-- End 'G' -->
<!-- Begin 'A' -->
<polygon points=" 630.000000, 108.558240, 651.000000, 96.262307, 659.000000, 96.262307, 680.000000, 108.558240, 672.500000, 108.558240, 666.250000, 105.484256, 643.750000, 105.484256, 637.500000, 108.558240" fill="rgb(178, 34, 34)" style="fill-opacity:1.00" />
<polygon points=" 655.000000, 98.721493, 647.000000, 102.639866, 662.000000, 102.639866" fill="rgb(255, 255, 255)" style="fill-opacity:1.00" />
<!-- End 'A' -->
<!-- Begin 'T' -->
<rect height="0.168056" width="50.000000" x="630.000000" y="108.558240" fill="rgb(0, 100, 0)" style="fill-opacity:1.00" />
<rect height="1.050353" width="10.000000" x="650.000000" y="108.558240" fill="rgb(0, 100, 0)" style="fill-opacity:1.00" />
<!-- End 'T' -->
<!-- Begin 'C' -->
<ellipse cx="655.000000" cy="109.804296" rx="25.000000" ry="0.195704" fill="rgb(0, 0, 128)" style="fill-opacity:1.00" />
<ellipse cx="655.000000" cy="109.804296" rx="16.666667" ry="0.130469" fill="rgb(255, 255, 255)" style="fill-opacity:1.00" />
<rect height="0.195704" width="25.000000" x="655.000000" y="109.706444" fill="rgb(255, 255, 255)" style="fill-opacity:1.00" />
<!-- End 'C' -->
<!-- Begin 'T' -->
<rect height="1.142665" width="50.000000" x="690.000000" y="94.608562" fill="rgb(0, 100, 0)" style="fill-opacity:1.00" />
<rect height="7.141655" width="10.000000" x="710.000000" y="94.608562" fill="rgb(0, 100, 0)" style="fill-opacity:1.00" />
<!-- End 'T' -->
<!-- Begin 'A' -->
<polygon points=" 690.000000, 106.329354, 711.000000, 101.750217, 719.000000, 101.750217, 740.000000, 106.329354, 732.500000, 106.329354, 726.250000, 105.184570, 703.750000, 105.184570, 697.500000, 106.329354" fill="rgb(178, 34, 34)" style="fill-opacity:1.00" />
<!-- End 'A' -->
<!-- Begin 'C' -->
<ellipse cx="715.000000" cy="107.825699" rx="25.000000" ry="1.496345" fill="rgb(0, 0, 128)" style="fill-opacity:1.00" />
<ellipse cx="715.000000" cy="107.825699" rx="16.666667" ry="0.997563" fill="rgb(255, 255, 255)" style="fill-opacity:1.00" />
<rect height="1.496345" width="25.000000" x="715.000000" y="107.077527" fill="rgb(255, 255, 255)" style="fill-opacity:1.00" />
<!-- End 'C' -->
<!-- Begin 'G' -->
<ellipse cx="715.000000" cy="109.661022" rx="25.000000" ry="0.338978" fill="rgb(255, 165, 0)" style="fill-opacity:1.00" />
<ellipse cx="715.000000" cy="109.661022" rx="16.666667" ry="0.225985" fill="rgb(255, 255, 255)" style="fill-opacity:1.00" />
<rect height="0.338978" width="25.000000" x="715.000000" y="109.491533" fill="rgb(255, 255, 255)" style="fill-opacity:1.00" />
<rect height="0.084744" width="25.000000" x="715.000000" y="109.745767" fill="rgb(255, 165, 0)" style="fill-opacity:1.00" />
<rect height="0.254233" width="6.250000" x="733.750000" y="109.745767" fill="rgb(255, 165, 0)" style="fill-opacity:1.00" />
<!-- End 'G' -->
<!-- Begin 'T' -->
<rect height="0.840494" width="50.000000" x="750.000000" y="97.782960" fill="rgb(0, 100, 0)" style="fill-opacity:1.00" />
<rect height="5.253087" width="10.000000" x="770.000000" y="97.782960" fill="rgb(0, 100, 0)" style="fill-opacity:1.00" />
<!-- End 'T' -->
<!-- Begin 'A' -->
<polygon points=" 750.000000, 106.679705, 771.000000, 103.036047, 779.000000, 103.036047, 800.000000, 106.679705, 792.500000, 106.679705, 786.250000, 105.768790, 763.750000, 105.768790, 757.500000, 106.679705" fill="rgb(178, 34, 34)" style="fill-opacity:1.00" />
<!-- End 'A' -->
<!-- Begin 'C' -->
<ellipse cx="775.000000" cy="107.993762" rx="25.000000" ry="1.314057" fill="rgb(0, 0, 128)" style="fill-opacity:1.00" />
<ellipse cx="775.000000" cy="107.993762" rx="16.666667" ry="0.876038" fill="rgb(255, 255, 255)" style="fill-opacity:1.00" />
<rect height="1.314057" width="25.000000" x="775.000000" y="107.336733" fill="rgb(255, 255, 255)" style="fill-opacity:1.00" />
<!-- End 'C' -->
<!-- Begin 'G' -->
<ellipse cx="775.000000" cy="109.653909" rx="25.000000" ry="0.346091" fill="rgb(255, 165, 0)" style="fill-opacity:1.00" />
<ellipse cx="775.000000" cy="109.653909" rx="16.666667" ry="0.230727" fill="rgb(255, 255, 255)" style="fill-opacity:1.00" />
<rect height="0.346091" width="25.000000" x="775.000000" y="109.480864" fill="rgb(255, 255, 255)" style="fill-opacity:1.00" />
<rect height="0.086523" width="25.000000" x="775.000000" y="109.740432" fill="rgb(255, 165, 0)" style="fill-opacity:1.00" />
<rect height="0.259568" width="6.250000" x="793.750000" y="109.740432" fill="rgb(255, 165, 0)" style="fill-opacity:1.00" />
<!-- End 'G' -->
<!-- Begin 'A' -->
<polygon points=" 810.000000, 105.956048, 831.000000, 102.948645, 839.000000, 102.948645, 860.000000, 105.956048, 852.500000, 105.956048, 846.250000, 105.204197, 823.750000, 105.204197, 817.500000, 105.956048" fill="rgb(178, 34, 34)" style="fill-opacity:1.00" />
<!-- End 'A' -->
<!-- Begin 'T' -->
<rect height="0.303623" width="50.000000" x="810.000000" y="105.956048" fill="rgb(0, 100, 0)" style="fill-opacity:1.00" />
<rect height="1.897646" width="10.000000" x="830.000000" y="105.956048" fill="rgb(0, 100, 0)" style="fill-opacity:1.00" />
<!-- End 'T' -->
<!-- Begin 'G' -->
<ellipse cx="835.000000" cy="108.437451" rx="25.000000" ry="0.583757" fill="rgb(255, 165, 0)" style="fill-opacity:1.00" />
<ellipse cx="835.000000" cy="108.437451" rx="16.666667" ry="0.389171" fill="rgb(255, 255, 255)" style="fill-opacity:1.00" />
<rect height="0.583757" width="25.000000" x="835.000000" y="108.145572" fill="rgb(255, 255, 255)" style="fill-opacity:1.00" />
<rect height="0.145939" width="25.000000" x="835.000000" y="108.583390" fill="rgb(255, 165, 0)" style="fill-opacity:1.00" />
<rect height="0.437818" width="6.250000" x="853.750000" y="108.583390" fill="rgb(255, 165, 0)" style="fill-opacity:1.00" />
<!-- End 'G' -->
<!-- Begin 'C' -->
<ellipse cx="835.000000" cy="109.510604" rx="25.000000" ry="0.489396" fill="rgb(0, 0, 128)" style="fill-opacity:1.00" />
<ellipse cx="835.000000" cy="109.510604" rx="16.666667" ry="0.326264" fill="rgb(255, 255, 255)" style="fill-opacity:1.00" />
<rect height="0.489396" width="25.000000" x="835.000000" y="109.265906" fill="rgb(255, 255, 255)" style="fill-opacity:1.00" />
<!-- End 'C' -->
<text x="460.000000" y="165">
IC = 5.48
</text>

</svg>
