<?xml version="1.0" encoding="UTF-8" standalone="yes"?>
                 <!DOCTYPE svg PUBLIC "-//W3C//DTD SVG 1.0//EN" "http://www.w3.org/TR/2001/REC-SVG-20010904/DTD/svg10.dtd">
                 <svg height="170" width="900" xmlns="http://www.w3.org/2000/svg" xmlns:xlink="http://www.w3.org/1999/xlink">
                 <line x1="85" y1="120" x2="867" y2="120" style="stroke:rgb(99,99,99);stroke-width:2" />
<rect height="7.000000" width="2.000000" x="85.000000" y="120.000000" fill="rgb(0, 0, 0)" style="fill-opacity:1.00" />
<text x="107.000000" y="140">
1
</text>
<rect height="7.000000" width="2.000000" x="145.000000" y="120.000000" fill="rgb(0, 0, 0)" style="fill-opacity:1.00" />
<text x="167.000000" y="140">
2
</text>
<rect height="7.000000" width="2.000000" x="205.000000" y="120.000000" fill="rgb(0, 0, 0)" style="fill-opacity:1.00" />
<text x="227.000000" y="140">
3
</text>
<rect height="7.000000" width="2.000000" x="265.000000" y="120.000000" fill="rgb(0, 0, 0)" style="fill-opacity:1.00" />
<text x="287.000000" y="140">
4
</text>
<rect height="7.000000" width="2.000000" x="325.000000" y="120.000000" fill="rgb(0, 0, 0)" style="fill-opacity:1.00" />
<text x="347.000000" y="140">
5
</text>
<rect height="7.000000" width="2.000000" x="385.000000" y="120.000000" fill="rgb(0, 0, 0)" style="fill-opacity:1.00" />
<text x="407.000000" y="140">
6
</text>
<rect height="7.000000" width="2.000000" x="445.000000" y="120.000000" fill="rgb(0, 0, 0)" style="fill-opacity:1.00" />
<text x="467.000000" y="140">
7
</text>
<rect height="7.000000" width="2.000000" x="505.000000" y="120.000000" fill="rgb(0, 0, 0)" style="fill-opacity:1.00" />
<text x="527.000000" y="140">
8
</text>
<rect height="7.000000" width="2.000000" x="565.000000" y="120.000000" fill="rgb(0, 0, 0)" style="fill-opacity:1.00" />
<text x="587.000000" y="140">
9
</text>
<rect height="7.000000" width="2.000000" x="625.000000" y="120.000000" fill="rgb(0, 0, 0)" style="fill-opacity:1.00" />
<text x="647.000000" y="140">
10
</text>
<rect height="7.000000" width="2.000000" x="685.000000" y="120.000000" fill="rgb(0, 0, 0)" style="fill-opacity:1.00" />
<text x="707.000000" y="140">
11
</text>
<rect height="7.000000" width="2.000000" x="745.000000" y="120.000000" fill="rgb(0, 0, 0)" style="fill-opacity:1.00" />
<text x="767.000000" y="140">
12
</text>
<rect height="7.000000" width="2.000000" x="805.000000" y="120.000000" fill="rgb(0, 0, 0)" style="fill-opacity:1.00" />
<text x="827.000000" y="140">
13
</text>
<rect height="7.000000" width="2.000000" x="865.000000" y="120.000000" fill="rgb(0, 0, 0)" style="fill-opacity:1.00" />
<line x1="80" y1="112" x2="80" y2="10" style="stroke:rgb(99,99,99);stroke-width:2" />
<rect height="2.000000" width="7.000000" x="73.000000" y="110.000000" fill="rgb(0, 0, 0)" style="fill-opacity:1.00" />
<text x="63" y="115">
0
</text>
<rect height="2.000000" width="7.000000" x="73.000000" y="60.000000" fill="rgb(0, 0, 0)" style="fill-opacity:1.00" />
<text x="63" y="65">
1
</text>
<rect height="2.000000" width="7.000000" x="73.000000" y="10.000000" fill="rgb(0, 0, 0)" style="fill-opacity:1.00" />
<text x="63" y="15">
2
</text>
<text x="50" y="65"
transform="rotate(-90, 50, 70)">
bits
</text>
<!-- Begin 'A' -->
<polygon points=" 90.000000, 107.174606, 111.000000, 105.559837, 119.000000, 105.559837, 140.000000, 107.174606, 132.500000, 107.174606, 126.250000, 106.770913, 103.750000, 106.770913, 97.500000, 107.174606" fill="rgb(178, 34, 34)" style="fill-opacity:1.00" />
<!-- End 'A' -->
<!-- Begin 'T' -->
<rect height="0.209647" width="50.000000" x="90.000000" y="107.174606" fill="rgb(0, 100, 0)" style="fill-opacity:1.00" />
<rect height="1.310293" width="10.000000" x="110.000000" y="107.174606" fill="rgb(0, 100, 0)" style="fill-opacity:1.00" />
<!-- End 'T' -->
<!-- Begin 'G' -->
<ellipse cx="115.000000" cy="108.938359" rx="25.000000" ry="0.453460" fill="rgb(255, 165, 0)" style="fill-opacity:1.00" />
<ellipse cx="115.000000" cy="108.938359" rx="16.666667" ry="0.302307" fill="rgb(255, 255, 255)" style="fill-opacity:1.00" />
<rect height="0.453460" width="25.000000" x="115.000000" y="108.711629" fill="rgb(255, 255, 255)" style="fill-opacity:1.00" />
<rect height="0.113365" width="25.000000" x="115.000000" y="109.051724" fill="rgb(255, 165, 0)" style="fill-opacity:1.00" />
<rect height="0.340095" width="6.250000" x="133.750000" y="109.051724" fill="rgb(255, 165, 0)" style="fill-opacity:1.00" />
<!-- End 'G' -->
<!-- Begin 'C' -->
<ellipse cx="115.000000" cy="109.695910" rx="25.000000" ry="0.304090" fill="rgb(0, 0, 128)" style="fill-opacity:1.00" />
<ellipse cx="115.000000" cy="109.695910" rx="16.666667" ry="0.202727" fill="rgb(255, 255, 255)" style="fill-opacity:1.00" />
<rect height="0.304090" width="25.000000" x="115.000000" y="109.543865" fill="rgb(255, 255, 255)" style="fill-opacity:1.00" />
<!-- End 'C' -->
<!-- Begin 'T' -->
<rect height="0.143968" width="50.000000" x="150.000000" y="107.080010" fill="rgb(0, 100, 0)" style="fill-opacity:1.00" />
<rect height="0.899801" width="10.000000" x="170.000000" y="107.080010" fill="rgb(0, 100, 0)" style="fill-opacity:1.00" />
<!-- End 'T' -->
<!-- Begin 'A' -->
<polygon points=" 150.000000, 108.815893, 171.000000, 107.979811, 179.000000, 107.979811, 200.000000, 108.815893, 192.500000, 108.815893, 186.250000, 108.606872, 163.750000, 108.606872, 157.500000, 108.815893" fill="rgb(178, 34, 34)" style="fill-opacity:1.00" />
<!-- End 'A' -->
<!-- Begin 'C' -->
<ellipse cx="175.000000" cy="109.208791" rx="25.000000" ry="0.392898" fill="rgb(0, 0, 128)" style="fill-opacity:1.00" />
<ellipse cx="175.000000" cy="109.208791" rx="16.666667" ry="0.261932" fill="rgb(255, 255, 255)" style="fill-opacity:1.00" />
<rect height="0.392898" width="25.000000" x="175.000000" y="109.012342" fill="rgb(255, 255, 255)" style="fill-opacity:1.00" />
<!-- End 'C' -->
<!-- Begin 'G' -->
<ellipse cx="175.000000" cy="109.800844" rx="25.000000" ry="0.199156" fill="rgb(255, 165, 0)" style="fill-opacity:1.00" />
<ellipse cx="175.000000" cy="109.800844" rx="16.666667" ry="0.132771" fill="rgb(255, 255, 255)" style="fill-opacity:1.00" />
<rect height="0.199156" width="25.000000" x="175.000000" y="109.701266" fill="rgb(255, 255, 255)" style="fill-opacity:1.00" />
<rect height="0.049789" width="25.000000" x="175.000000" y="109.850633" fill="rgb(255, 165, 0)" style="fill-opacity:1.00" />
<rect height="0.149367" width="6.250000" x="193.750000" y="109.850633" fill="rgb(255, 165, 0)" style="fill-opacity:1.00" />
<!-- End 'G' -->
<!-- Begin 'T' -->
<rect height="0.144276" width="50.000000" x="210.000000" y="107.238556" fill="rgb(0, 100, 0)" style="fill-opacity:1.00" />
<rect height="0.901723" width="10.000000" x="230.000000" y="107.238556" fill="rgb(0, 100, 0)" style="fill-opacity:1.00" />
<!-- End 'T' -->
<!-- Begin 'A' -->
<polygon points=" 210.000000, 108.891330, 231.000000, 108.140279, 239.000000, 108.140279, 260.000000, 108.891330, 252.500000, 108.891330, 246.250000, 108.703567, 223.750000, 108.703567, 217.500000, 108.891330" fill="rgb(178, 34, 34)" style="fill-opacity:1.00" />
<!-- End 'A' -->
<!-- Begin 'C' -->
<ellipse cx="235.000000" cy="109.246824" rx="25.000000" ry="0.355495" fill="rgb(0, 0, 128)" style="fill-opacity:1.00" />
<ellipse cx="235.000000" cy="109.246824" rx="16.666667" ry="0.236996" fill="rgb(255, 255, 255)" style="fill-opacity:1.00" />
<rect height="0.355495" width="25.000000" x="235.000000" y="109.069077" fill="rgb(255, 255, 255)" style="fill-opacity:1.00" />
<!-- End 'C' -->
<!-- Begin 'G' -->
<ellipse cx="235.000000" cy="109.801160" rx="25.000000" ry="0.198840" fill="rgb(255, 165, 0)" style="fill-opacity:1.00" />
<ellipse cx="235.000000" cy="109.801160" rx="16.666667" ry="0.132560" fill="rgb(255, 255, 255)" style="fill-opacity:1.00" />
<rect height="0.198840" width="25.000000" x="235.000000" y="109.701739" fill="rgb(255, 255, 255)" style="fill-opacity:1.00" />
<rect height="0.049710" width="25.000000" x="235.000000" y="109.850870" fill="rgb(255, 165, 0)" style="fill-opacity:1.00" />
<rect height="0.149130" width="6.250000" x="253.750000" y="109.850870" fill="rgb(255, 165, 0)" style="fill-opacity:1.00" />
<!-- End 'G' -->
<!-- Begin 'G' -->
<ellipse cx="295.000000" cy="109.056769" rx="25.000000" ry="0.164468" fill="rgb(255, 165, 0)" style="fill-opacity:1.00" />
<ellipse cx="295.000000" cy="109.056769" rx="16.666667" ry="0.109645" fill="rgb(255, 255, 255)" style="fill-opacity:1.00" />
<rect height="0.164468" width="25.000000" x="295.000000" y="108.974535" fill="rgb(255, 255, 255)" style="fill-opacity:1.00" />
<rect height="0.041117" width="25.000000" x="295.000000" y="109.097886" fill="rgb(255, 165, 0)" style="fill-opacity:1.00" />
<rect height="0.123351" width="6.250000" x="313.750000" y="109.097886" fill="rgb(255, 165, 0)" style="fill-opacity:1.00" />
<!-- End 'G' -->
<!-- Begin 'A' -->
<polygon points=" 270.000000, 109.525381, 291.000000, 109.221237, 299.000000, 109.221237, 320.000000, 109.525381, 312.500000, 109.525381, 306.250000, 109.449345, 283.750000, 109.449345, 277.500000, 109.525381" fill="rgb(178, 34, 34)" style="fill-opacity:1.00" />
<!-- End 'A' -->
<!-- Begin 'T' -->
<rect height="0.043553" width="50.000000" x="270.000000" y="109.525381" fill="rgb(0, 100, 0)" style="fill-opacity:1.00" />
<rect height="0.272209" width="10.000000" x="290.000000" y="109.525381" fill="rgb(0, 100, 0)" style="fill-opacity:1.00" />
<!-- End 'T' -->
<!-- Begin 'C' -->
<ellipse cx="295.000000" cy="109.898795" rx="25.000000" ry="0.101205" fill="rgb(0, 0, 128)" style="fill-opacity:1.00" />
<ellipse cx="295.000000" cy="109.898795" rx="16.666667" ry="0.067470" fill="rgb(255, 255, 255)" style="fill-opacity:1.00" />
<rect height="0.101205" width="25.000000" x="295.000000" y="109.848192" fill="rgb(255, 255, 255)" style="fill-opacity:1.00" />
<!-- End 'C' -->
<!-- Begin 'T' -->
<rect height="0.970406" width="50.000000" x="330.000000" y="97.484070" fill="rgb(0, 100, 0)" style="fill-opacity:1.00" />
<rect height="6.065036" width="10.000000" x="350.000000" y="97.484070" fill="rgb(0, 100, 0)" style="fill-opacity:1.00" />
<!-- End 'T' -->
<!-- Begin 'A' -->
<polygon points=" 330.000000, 106.822699, 351.000000, 103.549105, 359.000000, 103.549105, 380.000000, 106.822699, 372.500000, 106.822699, 366.250000, 106.004301, 343.750000, 106.004301, 337.500000, 106.822699" fill="rgb(178, 34, 34)" style="fill-opacity:1.00" />
<!-- End 'A' -->
<!-- Begin 'C' -->
<ellipse cx="355.000000" cy="107.869500" rx="25.000000" ry="1.046801" fill="rgb(0, 0, 128)" style="fill-opacity:1.00" />
<ellipse cx="355.000000" cy="107.869500" rx="16.666667" ry="0.697867" fill="rgb(255, 255, 255)" style="fill-opacity:1.00" />
<rect height="1.046801" width="25.000000" x="355.000000" y="107.346100" fill="rgb(255, 255, 255)" style="fill-opacity:1.00" />
<!-- End 'C' -->
<!-- Begin 'G' -->
<ellipse cx="355.000000" cy="109.458151" rx="25.000000" ry="0.541849" fill="rgb(255, 165, 0)" style="fill-opacity:1.00" />
<ellipse cx="355.000000" cy="109.458151" rx="16.666667" ry="0.361233" fill="rgb(255, 255, 255)" style="fill-opacity:1.00" />
<rect height="0.541849" width="25.000000" x="355.000000" y="109.187226" fill="rgb(255, 255, 255)" style="fill-opacity:1.00" />
<rect height="0.135462" width="25.000000" x="355.000000" y="109.593613" fill="rgb(255, 165, 0)" style="fill-opacity:1.00" />
<rect height="0.406387" width="6.250000" x="373.750000" y="109.593613" fill="rgb(255, 165, 0)" style="fill-opacity:1.00" />
<!-- End 'G' -->
<!-- Begin 'A' -->
<polygon points=" 390.000000, 99.990496, 411.000000, 82.739173, 419.000000, 82.739173, 440.000000, 99.990496, 432.500000, 99.990496, 426.250000, 95.677665, 403.750000, 95.677665, 397.500000, 99.990496" fill="rgb(178, 34, 34)" style="fill-opacity:1.00" />
<polygon points=" 415.000000, 86.189438, 407.000000, 92.089967, 422.000000, 92.089967" fill="rgb(255, 255, 255)" style="fill-opacity:1.00" />
<!-- End 'A' -->
<!-- Begin 'T' -->
<rect height="0.928608" width="50.000000" x="390.000000" y="99.990496" fill="rgb(0, 100, 0)" style="fill-opacity:1.00" />
<rect height="5.803798" width="10.000000" x="410.000000" y="99.990496" fill="rgb(0, 100, 0)" style="fill-opacity:1.00" />
<!-- End 'T' -->
<!-- Begin 'G' -->
<ellipse cx="415.000000" cy="107.132190" rx="25.000000" ry="1.337896" fill="rgb(255, 165, 0)" style="fill-opacity:1.00" />
<ellipse cx="415.000000" cy="107.132190" rx="16.666667" ry="0.891931" fill="rgb(255, 255, 255)" style="fill-opacity:1.00" />
<rect height="1.337896" width="25.000000" x="415.000000" y="106.463242" fill="rgb(255, 255, 255)" style="fill-opacity:1.00" />
<rect height="0.334474" width="25.000000" x="415.000000" y="107.466664" fill="rgb(255, 165, 0)" style="fill-opacity:1.00" />
<rect height="1.003422" width="6.250000" x="433.750000" y="107.466664" fill="rgb(255, 165, 0)" style="fill-opacity:1.00" />
<!-- End 'G' -->
<!-- Begin 'C' -->
<ellipse cx="415.000000" cy="109.235043" rx="25.000000" ry="0.764957" fill="rgb(0, 0, 128)" style="fill-opacity:1.00" />
<ellipse cx="415.000000" cy="109.235043" rx="16.666667" ry="0.509971" fill="rgb(255, 255, 255)" style="fill-opacity:1.00" />
<rect height="0.764957" width="25.000000" x="415.000000" y="108.852564" fill="rgb(255, 255, 255)" style="fill-opacity:1.00" />
<!-- End 'C' -->
<!-- Begin 'A' -->
<polygon points=" 450.000000, 99.202768, 471.000000, 72.625474, 479.000000, 72.625474, 500.000000, 99.202768, 492.500000, 99.202768, 486.250000, 92.558445, 463.750000, 92.558445, 457.500000, 99.202768" fill="rgb(178, 34, 34)" style="fill-opacity:1.00" />
<polygon points=" 475.000000, 77.940933, 467.000000, 87.571851, 482.000000, 87.571851" fill="rgb(255, 255, 255)" style="fill-opacity:1.00" />
<!-- End 'A' -->
<!-- Begin 'T' -->
<rect height="0.812377" width="50.000000" x="450.000000" y="99.202768" fill="rgb(0, 100, 0)" style="fill-opacity:1.00" />
<rect height="5.077359" width="10.000000" x="470.000000" y="99.202768" fill="rgb(0, 100, 0)" style="fill-opacity:1.00" />
<!-- End 'T' -->
<!-- Begin 'G' -->
<ellipse cx="475.000000" cy="106.682534" rx="25.000000" ry="2.402407" fill="rgb(255, 165, 0)" style="fill-opacity:1.00" />
<ellipse cx="475.000000" cy="106.682534" rx="16.666667" ry="1.601604" fill="rgb(255, 255, 255)" style="fill-opacity:1.00" />
<rect height="2.402407" width="25.000000" x="475.000000" y="105.481331" fill="rgb(255, 255, 255)" style="fill-opacity:1.00" />
<rect height="0.600602" width="25.000000" x="475.000000" y="107.283135" fill="rgb(255, 165, 0)" style="fill-opacity:1.00" />
<rect height="1.801805" width="6.250000" x="493.750000" y="107.283135" fill="rgb(255, 165, 0)" style="fill-opacity:1.00" />
<!-- End 'G' -->
<!-- Begin 'C' -->
<ellipse cx="475.000000" cy="109.542470" rx="25.000000" ry="0.457530" fill="rgb(0, 0, 128)" style="fill-opacity:1.00" />
<ellipse cx="475.000000" cy="109.542470" rx="16.666667" ry="0.305020" fill="rgb(255, 255, 255)" style="fill-opacity:1.00" />
<rect height="0.457530" width="25.000000" x="475.000000" y="109.313705" fill="rgb(255, 255, 255)" style="fill-opacity:1.00" />
<!-- End 'C' -->
<!-- Begin 'C' -->
<ellipse cx="535.000000" cy="60.407134" rx="25.000000" ry="49.422492" fill="rgb(0, 0, 128)" style="fill-opacity:1.00" />
<ellipse cx="535.000000" cy="60.407134" rx="16.666667" ry="32.948328" fill="rgb(255, 255, 255)" style="fill-opacity:1.00" />
<rect height="49.422492" width="25.000000" x="535.000000" y="35.695888" fill="rgb(255, 255, 255)" style="fill-opacity:1.00" />
<!-- End 'C' -->
<!-- Begin 'T' -->
<rect height="0.021376" width="50.000000" x="510.000000" y="109.829626" fill="rgb(0, 100, 0)" style="fill-opacity:1.00" />
<rect height="0.133597" width="10.000000" x="530.000000" y="109.829626" fill="rgb(0, 100, 0)" style="fill-opacity:1.00" />
<!-- End 'T' -->
<!-- Begin 'A' -->
<polygon points=" 510.000000, 109.997907, 531.000000, 109.963223, 539.000000, 109.963223, 560.000000, 109.997907, 552.500000, 109.997907, 546.250000, 109.989236, 523.750000, 109.989236, 517.500000, 109.997907" fill="rgb(178, 34, 34)" style="fill-opacity:1.00" />
<!-- End 'A' -->
<!-- Begin 'G' -->
<ellipse cx="535.000000" cy="109.998954" rx="25.000000" ry="0.001046" fill="rgb(255, 165, 0)" style="fill-opacity:1.00" />
<ellipse cx="535.000000" cy="109.998954" rx="16.666667" ry="0.000698" fill="rgb(255, 255, 255)" style="fill-opacity:1.00" />
<rect height="0.001046" width="25.000000" x="535.000000" y="109.998430" fill="rgb(255, 255, 255)" style="fill-opacity:1.00" />
<rect height="0.000262" width="25.000000" x="535.000000" y="109.999215" fill="rgb(255, 165, 0)" style="fill-opacity:1.00" />
<rect height="0.000785" width="6.250000" x="553.750000" y="109.999215" fill="rgb(255, 165, 0)" style="fill-opacity:1.00" />
<!-- End 'G' -->
<!-- Begin 'C' -->
<ellipse cx="595.000000" cy="105.562793" rx="25.000000" ry="1.061278" fill="rgb(0, 0, 128)" style="fill-opacity:1.00" />
<ellipse cx="595.000000" cy="105.562793" rx="16.666667" ry="0.707519" fill="rgb(255, 255, 255)" style="fill-opacity:1.00" />
<rect height="1.061278" width="25.000000" x="595.000000" y="105.032154" fill="rgb(255, 255, 255)" style="fill-opacity:1.00" />
<!-- End 'C' -->
<!-- Begin 'G' -->
<ellipse cx="595.000000" cy="107.436636" rx="25.000000" ry="0.812564" fill="rgb(255, 165, 0)" style="fill-opacity:1.00" />
<ellipse cx="595.000000" cy="107.436636" rx="16.666667" ry="0.541709" fill="rgb(255, 255, 255)" style="fill-opacity:1.00" />
<rect height="0.812564" width="25.000000" x="595.000000" y="107.030354" fill="rgb(255, 255, 255)" style="fill-opacity:1.00" />
<rect height="0.203141" width="25.000000" x="595.000000" y="107.639777" fill="rgb(255, 165, 0)" style="fill-opacity:1.00" />
<rect height="0.609423" width="6.250000" x="613.750000" y="107.639777" fill="rgb(255, 165, 0)" style="fill-opacity:1.00" />
<!-- End 'G' -->
<!-- Begin 'A' -->
<polygon points=" 570.000000, 109.238974, 591.000000, 108.249200, 599.000000, 108.249200, 620.000000, 109.238974, 612.500000, 109.238974, 606.250000, 108.991530, 583.750000, 108.991530, 577.500000, 109.238974" fill="rgb(178, 34, 34)" style="fill-opacity:1.00" />
<!-- End 'A' -->
<!-- Begin 'T' -->
<rect height="0.121764" width="50.000000" x="570.000000" y="109.238974" fill="rgb(0, 100, 0)" style="fill-opacity:1.00" />
<rect height="0.761026" width="10.000000" x="590.000000" y="109.238974" fill="rgb(0, 100, 0)" style="fill-opacity:1.00" />
<!-- End 'T' -->
<!-- Begin 'G' -->
<ellipse cx="655.000000" cy="76.681300" rx="25.000000" ry="19.550975" fill="rgb(255, 165, 0)" style="fill-opacity:1.00" />
<ellipse cx="655.000000" cy="76.681300" rx="16.666667" ry="13.033983" fill="rgb(255, 255, 255)" style="fill-opacity:1.00" />
<rect height="19.550975" width="25.000000" x="655.000000" y="66.905813" fill="rgb(255, 255, 255)" style="fill-opacity:1.00" />
<rect height="4.887744" width="25.000000" x="655.000000" y="81.569044" fill="rgb(255, 165, 0)" style="fill-opacity:1.00" />
<rect height="14.663231" width="6.250000" x="673.750000" y="81.569044" fill="rgb(255, 165, 0)" style="fill-opacity:1.00" />
<!-- End 'G' -->
<!-- Begin 'A' -->
<polygon points=" 630.000000, 108.953096, 651.000000, 96.232275, 659.000000, 96.232275, 680.000000, 108.953096, 672.500000, 108.953096, 666.250000, 105.772891, 643.750000, 105.772891, 637.500000, 108.953096" fill="rgb(178, 34, 34)" style="fill-opacity:1.00" />
<polygon points=" 655.000000, 98.776439, 647.000000, 102.864768, 662.000000, 102.864768" fill="rgb(255, 255, 255)" style="fill-opacity:1.00" />
<!-- End 'A' -->
<!-- Begin 'T' -->
<rect height="0.134460" width="50.000000" x="630.000000" y="108.953096" fill="rgb(0, 100, 0)" style="fill-opacity:1.00" />
<rect height="0.840374" width="10.000000" x="650.000000" y="108.953096" fill="rgb(0, 100, 0)" style="fill-opacity:1.00" />
<!-- End 'T' -->
<!-- Begin 'C' -->
<ellipse cx="655.000000" cy="109.896735" rx="25.000000" ry="0.103265" fill="rgb(0, 0, 128)" style="fill-opacity:1.00" />
<ellipse cx="655.000000" cy="109.896735" rx="16.666667" ry="0.068843" fill="rgb(255, 255, 255)" style="fill-opacity:1.00" />
<rect height="0.103265" width="25.000000" x="655.000000" y="109.845103" fill="rgb(255, 255, 255)" style="fill-opacity:1.00" />
<!-- End 'C' -->
<!-- Begin 'T' -->
<rect height="1.242974" width="50.000000" x="690.000000" y="93.798069" fill="rgb(0, 100, 0)" style="fill-opacity:1.00" />
<rect height="7.768589" width="10.000000" x="710.000000" y="93.798069" fill="rgb(0, 100, 0)" style="fill-opacity:1.00" />
<!-- End 'T' -->
<!-- Begin 'A' -->
<polygon points=" 690.000000, 106.284889, 711.000000, 101.566657, 719.000000, 101.566657, 740.000000, 106.284889, 732.500000, 106.284889, 726.250000, 105.105331, 703.750000, 105.105331, 697.500000, 106.284889" fill="rgb(178, 34, 34)" style="fill-opacity:1.00" />
<!-- End 'A' -->
<!-- Begin 'C' -->
<ellipse cx="715.000000" cy="107.785076" rx="25.000000" ry="1.500187" fill="rgb(0, 0, 128)" style="fill-opacity:1.00" />
<ellipse cx="715.000000" cy="107.785076" rx="16.666667" ry="1.000125" fill="rgb(255, 255, 255)" style="fill-opacity:1.00" />
<rect height="1.500187" width="25.000000" x="715.000000" y="107.034983" fill="rgb(255, 255, 255)" style="fill-opacity:1.00" />
<!-- End 'C' -->
<!-- Begin 'G' -->
<ellipse cx="715.000000" cy="109.642632" rx="25.000000" ry="0.357368" fill="rgb(255, 165, 0)" style="fill-opacity:1.00" />
<ellipse cx="715.000000" cy="109.642632" rx="16.666667" ry="0.238245" fill="rgb(255, 255, 255)" style="fill-opacity:1.00" />
<rect height="0.357368" width="25.000000" x="715.000000" y="109.463948" fill="rgb(255, 255, 255)" style="fill-opacity:1.00" />
<rect height="0.089342" width="25.000000" x="715.000000" y="109.731974" fill="rgb(255, 165, 0)" style="fill-opacity:1.00" />
<rect height="0.268026" width="6.250000" x="733.750000" y="109.731974" fill="rgb(255, 165, 0)" style="fill-opacity:1.00" />
<!-- End 'G' -->
<!-- Begin 'T' -->
<rect height="0.888694" width="50.000000" x="750.000000" y="97.425207" fill="rgb(0, 100, 0)" style="fill-opacity:1.00" />
<rect height="5.554335" width="10.000000" x="770.000000" y="97.425207" fill="rgb(0, 100, 0)" style="fill-opacity:1.00" />
<!-- End 'T' -->
<!-- Begin 'A' -->
<polygon points=" 750.000000, 106.597318, 771.000000, 102.979542, 779.000000, 102.979542, 800.000000, 106.597318, 792.500000, 106.597318, 786.250000, 105.692874, 763.750000, 105.692874, 757.500000, 106.597318" fill="rgb(178, 34, 34)" style="fill-opacity:1.00" />
<!-- End 'A' -->
<!-- Begin 'C' -->
<ellipse cx="775.000000" cy="107.942125" rx="25.000000" ry="1.344807" fill="rgb(0, 0, 128)" style="fill-opacity:1.00" />
<ellipse cx="775.000000" cy="107.942125" rx="16.666667" ry="0.896538" fill="rgb(255, 255, 255)" style="fill-opacity:1.00" />
<rect height="1.344807" width="25.000000" x="775.000000" y="107.269721" fill="rgb(255, 255, 255)" style="fill-opacity:1.00" />
<!-- End 'C' -->
<!-- Begin 'G' -->
<ellipse cx="775.000000" cy="109.643466" rx="25.000000" ry="0.356534" fill="rgb(255, 165, 0)" style="fill-opacity:1.00" />
<ellipse cx="775.000000" cy="109.643466" rx="16.666667" ry="0.237689" fill="rgb(255, 255, 255)" style="fill-opacity:1.00" />
<rect height="0.356534" width="25.000000" x="775.000000" y="109.465199" fill="rgb(255, 255, 255)" style="fill-opacity:1.00" />
<rect height="0.089133" width="25.000000" x="775.000000" y="109.732600" fill="rgb(255, 165, 0)" style="fill-opacity:1.00" />
<rect height="0.267400" width="6.250000" x="793.750000" y="109.732600" fill="rgb(255, 165, 0)" style="fill-opacity:1.00" />
<!-- End 'G' -->
<!-- Begin 'A' -->
<polygon points=" 810.000000, 105.767162, 831.000000, 102.543926, 839.000000, 102.543926, 860.000000, 105.767162, 852.500000, 105.767162, 846.250000, 104.961353, 823.750000, 104.961353, 817.500000, 105.767162" fill="rgb(178, 34, 34)" style="fill-opacity:1.00" />
<!-- End 'A' -->
<!-- Begin 'T' -->
<rect height="0.318866" width="50.000000" x="810.000000" y="105.767162" fill="rgb(0, 100, 0)" style="fill-opacity:1.00" />
<rect height="1.992913" width="10.000000" x="830.000000" y="105.767162" fill="rgb(0, 100, 0)" style="fill-opacity:1.00" />
<!-- End 'T' -->
<!-- Begin 'G' -->
<ellipse cx="835.000000" cy="108.381084" rx="25.000000" ry="0.621008" fill="rgb(255, 165, 0)" style="fill-opacity:1.00" />
<ellipse cx="835.000000" cy="108.381084" rx="16.666667" ry="0.414005" fill="rgb(255, 255, 255)" style="fill-opacity:1.00" />
<rect height="0.621008" width="25.000000" x="835.000000" y="108.070580" fill="rgb(255, 255, 255)" style="fill-opacity:1.00" />
<rect height="0.155252" width="25.000000" x="835.000000" y="108.536336" fill="rgb(255, 165, 0)" style="fill-opacity:1.00" />
<rect height="0.465756" width="6.250000" x="853.750000" y="108.536336" fill="rgb(255, 165, 0)" style="fill-opacity:1.00" />
<!-- End 'G' -->
<!-- Begin 'C' -->
<ellipse cx="835.000000" cy="109.501046" rx="25.000000" ry="0.498954" fill="rgb(0, 0, 128)" style="fill-opacity:1.00" />
<ellipse cx="835.000000" cy="109.501046" rx="16.666667" ry="0.332636" fill="rgb(255, 255, 255)" style="fill-opacity:1.00" />
<rect height="0.498954" width="25.000000" x="835.000000" y="109.251569" fill="rgb(255, 255, 255)" style="fill-opacity:1.00" />
<!-- End 'C' -->
<text x="460.000000" y="165">
IC = 5.64
</text>

</svg>
