<?xml version="1.0" encoding="UTF-8" standalone="yes"?>
                 <!DOCTYPE svg PUBLIC "-//W3C//DTD SVG 1.0//EN" "http://www.w3.org/TR/2001/REC-SVG-20010904/DTD/svg10.dtd">
                 <svg height="170" width="1380" xmlns="http://www.w3.org/2000/svg" xmlns:xlink="http://www.w3.org/1999/xlink">
                 <line x1="85" y1="120" x2="1347" y2="120" style="stroke:rgb(99,99,99);stroke-width:2" />
<rect height="7.000000" width="2.000000" x="85.000000" y="120.000000" fill="rgb(0, 0, 0)" style="fill-opacity:1.00" />
<text x="107.000000" y="140">
1
</text>
<rect height="7.000000" width="2.000000" x="145.000000" y="120.000000" fill="rgb(0, 0, 0)" style="fill-opacity:1.00" />
<text x="167.000000" y="140">
2
</text>
<rect height="7.000000" width="2.000000" x="205.000000" y="120.000000" fill="rgb(0, 0, 0)" style="fill-opacity:1.00" />
<text x="227.000000" y="140">
3
</text>
<rect height="7.000000" width="2.000000" x="265.000000" y="120.000000" fill="rgb(0, 0, 0)" style="fill-opacity:1.00" />
<text x="287.000000" y="140">
4
</text>
<rect height="7.000000" width="2.000000" x="325.000000" y="120.000000" fill="rgb(0, 0, 0)" style="fill-opacity:1.00" />
<text x="347.000000" y="140">
5
</text>
<rect height="7.000000" width="2.000000" x="385.000000" y="120.000000" fill="rgb(0, 0, 0)" style="fill-opacity:1.00" />
<text x="407.000000" y="140">
6
</text>
<rect height="7.000000" width="2.000000" x="445.000000" y="120.000000" fill="rgb(0, 0, 0)" style="fill-opacity:1.00" />
<text x="467.000000" y="140">
7
</text>
<rect height="7.000000" width="2.000000" x="505.000000" y="120.000000" fill="rgb(0, 0, 0)" style="fill-opacity:1.00" />
<text x="527.000000" y="140">
8
</text>
<rect height="7.000000" width="2.000000" x="565.000000" y="120.000000" fill="rgb(0, 0, 0)" style="fill-opacity:1.00" />
<text x="587.000000" y="140">
9
</text>
<rect height="7.000000" width="2.000000" x="625.000000" y="120.000000" fill="rgb(0, 0, 0)" style="fill-opacity:1.00" />
<text x="647.000000" y="140">
10
</text>
<rect height="7.000000" width="2.000000" x="685.000000" y="120.000000" fill="rgb(0, 0, 0)" style="fill-opacity:1.00" />
<text x="707.000000" y="140">
11
</text>
<rect height="7.000000" width="2.000000" x="745.000000" y="120.000000" fill="rgb(0, 0, 0)" style="fill-opacity:1.00" />
<text x="767.000000" y="140">
12
</text>
<rect height="7.000000" width="2.000000" x="805.000000" y="120.000000" fill="rgb(0, 0, 0)" style="fill-opacity:1.00" />
<text x="827.000000" y="140">
13
</text>
<rect height="7.000000" width="2.000000" x="865.000000" y="120.000000" fill="rgb(0, 0, 0)" style="fill-opacity:1.00" />
<text x="887.000000" y="140">
14
</text>
<rect height="7.000000" width="2.000000" x="925.000000" y="120.000000" fill="rgb(0, 0, 0)" style="fill-opacity:1.00" />
<text x="947.000000" y="140">
15
</text>
<rect height="7.000000" width="2.000000" x="985.000000" y="120.000000" fill="rgb(0, 0, 0)" style="fill-opacity:1.00" />
<text x="1007.000000" y="140">
16
</text>
<rect height="7.000000" width="2.000000" x="1045.000000" y="120.000000" fill="rgb(0, 0, 0)" style="fill-opacity:1.00" />
<text x="1067.000000" y="140">
17
</text>
<rect height="7.000000" width="2.000000" x="1105.000000" y="120.000000" fill="rgb(0, 0, 0)" style="fill-opacity:1.00" />
<text x="1127.000000" y="140">
18
</text>
<rect height="7.000000" width="2.000000" x="1165.000000" y="120.000000" fill="rgb(0, 0, 0)" style="fill-opacity:1.00" />
<text x="1187.000000" y="140">
19
</text>
<rect height="7.000000" width="2.000000" x="1225.000000" y="120.000000" fill="rgb(0, 0, 0)" style="fill-opacity:1.00" />
<text x="1247.000000" y="140">
20
</text>
<rect height="7.000000" width="2.000000" x="1285.000000" y="120.000000" fill="rgb(0, 0, 0)" style="fill-opacity:1.00" />
<text x="1307.000000" y="140">
21
</text>
<rect height="7.000000" width="2.000000" x="1345.000000" y="120.000000" fill="rgb(0, 0, 0)" style="fill-opacity:1.00" />
<line x1="80" y1="112" x2="80" y2="10" style="stroke:rgb(99,99,99);stroke-width:2" />
<rect height="2.000000" width="7.000000" x="73.000000" y="110.000000" fill="rgb(0, 0, 0)" style="fill-opacity:1.00" />
<text x="63" y="115">
0
</text>
<rect height="2.000000" width="7.000000" x="73.000000" y="60.000000" fill="rgb(0, 0, 0)" style="fill-opacity:1.00" />
<text x="63" y="65">
1
</text>
<rect height="2.000000" width="7.000000" x="73.000000" y="10.000000" fill="rgb(0, 0, 0)" style="fill-opacity:1.00" />
<text x="63" y="15">
2
</text>
<text x="50" y="65"
transform="rotate(-90, 50, 70)">
bits
</text>
<!-- Begin 'A' -->
<polygon points=" 90.000000, 102.843231, 111.000000, 96.749719, 119.000000, 96.749719, 140.000000, 102.843231, 132.500000, 102.843231, 126.250000, 101.319853, 103.750000, 101.319853, 97.500000, 102.843231" fill="rgb(178, 34, 34)" style="fill-opacity:1.00" />
<!-- End 'A' -->
<!-- Begin 'T' -->
<rect height="0.678758" width="50.000000" x="90.000000" y="102.843231" fill="rgb(0, 100, 0)" style="fill-opacity:1.00" />
<rect height="4.242240" width="10.000000" x="110.000000" y="102.843231" fill="rgb(0, 100, 0)" style="fill-opacity:1.00" />
<!-- End 'T' -->
<!-- Begin 'G' -->
<ellipse cx="115.000000" cy="107.966042" rx="25.000000" ry="0.880572" fill="rgb(255, 165, 0)" style="fill-opacity:1.00" />
<ellipse cx="115.000000" cy="107.966042" rx="16.666667" ry="0.587048" fill="rgb(255, 255, 255)" style="fill-opacity:1.00" />
<rect height="0.880572" width="25.000000" x="115.000000" y="107.525756" fill="rgb(255, 255, 255)" style="fill-opacity:1.00" />
<rect height="0.220143" width="25.000000" x="115.000000" y="108.186185" fill="rgb(255, 165, 0)" style="fill-opacity:1.00" />
<rect height="0.660429" width="6.250000" x="133.750000" y="108.186185" fill="rgb(255, 165, 0)" style="fill-opacity:1.00" />
<!-- End 'G' -->
<!-- Begin 'C' -->
<ellipse cx="115.000000" cy="109.423307" rx="25.000000" ry="0.576693" fill="rgb(0, 0, 128)" style="fill-opacity:1.00" />
<ellipse cx="115.000000" cy="109.423307" rx="16.666667" ry="0.384462" fill="rgb(255, 255, 255)" style="fill-opacity:1.00" />
<rect height="0.576693" width="25.000000" x="115.000000" y="109.134960" fill="rgb(255, 255, 255)" style="fill-opacity:1.00" />
<!-- End 'C' -->
<!-- Begin 'A' -->
<polygon points=" 150.000000, 99.238375, 171.000000, 89.224269, 179.000000, 89.224269, 200.000000, 99.238375, 192.500000, 99.238375, 186.250000, 96.734849, 163.750000, 96.734849, 157.500000, 99.238375" fill="rgb(178, 34, 34)" style="fill-opacity:1.00" />
<polygon points=" 175.000000, 91.227090, 167.000000, 94.232733, 182.000000, 94.232733" fill="rgb(255, 255, 255)" style="fill-opacity:1.00" />
<!-- End 'A' -->
<!-- Begin 'T' -->
<rect height="1.242100" width="50.000000" x="150.000000" y="99.238375" fill="rgb(0, 100, 0)" style="fill-opacity:1.00" />
<rect height="7.763122" width="10.000000" x="170.000000" y="99.238375" fill="rgb(0, 100, 0)" style="fill-opacity:1.00" />
<!-- End 'T' -->
<!-- Begin 'G' -->
<ellipse cx="175.000000" cy="107.826408" rx="25.000000" ry="0.824911" fill="rgb(255, 165, 0)" style="fill-opacity:1.00" />
<ellipse cx="175.000000" cy="107.826408" rx="16.666667" ry="0.549940" fill="rgb(255, 255, 255)" style="fill-opacity:1.00" />
<rect height="0.824911" width="25.000000" x="175.000000" y="107.413953" fill="rgb(255, 255, 255)" style="fill-opacity:1.00" />
<rect height="0.206228" width="25.000000" x="175.000000" y="108.032636" fill="rgb(255, 165, 0)" style="fill-opacity:1.00" />
<rect height="0.618683" width="6.250000" x="193.750000" y="108.032636" fill="rgb(255, 165, 0)" style="fill-opacity:1.00" />
<!-- End 'G' -->
<!-- Begin 'C' -->
<ellipse cx="175.000000" cy="109.325659" rx="25.000000" ry="0.674341" fill="rgb(0, 0, 128)" style="fill-opacity:1.00" />
<ellipse cx="175.000000" cy="109.325659" rx="16.666667" ry="0.449560" fill="rgb(255, 255, 255)" style="fill-opacity:1.00" />
<rect height="0.674341" width="25.000000" x="175.000000" y="108.988489" fill="rgb(255, 255, 255)" style="fill-opacity:1.00" />
<!-- End 'C' -->
<!-- Begin 'A' -->
<polygon points=" 210.000000, 99.756076, 231.000000, 92.147393, 239.000000, 92.147393, 260.000000, 99.756076, 252.500000, 99.756076, 246.250000, 97.853905, 223.750000, 97.853905, 217.500000, 99.756076" fill="rgb(178, 34, 34)" style="fill-opacity:1.00" />
<!-- End 'A' -->
<!-- Begin 'T' -->
<rect height="1.171159" width="50.000000" x="210.000000" y="99.756076" fill="rgb(0, 100, 0)" style="fill-opacity:1.00" />
<rect height="7.319741" width="10.000000" x="230.000000" y="99.756076" fill="rgb(0, 100, 0)" style="fill-opacity:1.00" />
<!-- End 'T' -->
<!-- Begin 'C' -->
<ellipse cx="235.000000" cy="107.832000" rx="25.000000" ry="0.756183" fill="rgb(0, 0, 128)" style="fill-opacity:1.00" />
<ellipse cx="235.000000" cy="107.832000" rx="16.666667" ry="0.504122" fill="rgb(255, 255, 255)" style="fill-opacity:1.00" />
<rect height="0.756183" width="25.000000" x="235.000000" y="107.453909" fill="rgb(255, 255, 255)" style="fill-opacity:1.00" />
<!-- End 'C' -->
<!-- Begin 'G' -->
<ellipse cx="235.000000" cy="109.294092" rx="25.000000" ry="0.705908" fill="rgb(255, 165, 0)" style="fill-opacity:1.00" />
<ellipse cx="235.000000" cy="109.294092" rx="16.666667" ry="0.470606" fill="rgb(255, 255, 255)" style="fill-opacity:1.00" />
<rect height="0.705908" width="25.000000" x="235.000000" y="108.941137" fill="rgb(255, 255, 255)" style="fill-opacity:1.00" />
<rect height="0.176477" width="25.000000" x="235.000000" y="109.470569" fill="rgb(255, 165, 0)" style="fill-opacity:1.00" />
<rect height="0.529431" width="6.250000" x="253.750000" y="109.470569" fill="rgb(255, 165, 0)" style="fill-opacity:1.00" />
<!-- End 'G' -->
<!-- Begin 'T' -->
<rect height="0.414935" width="50.000000" x="270.000000" y="103.424570" fill="rgb(0, 100, 0)" style="fill-opacity:1.00" />
<rect height="2.593342" width="10.000000" x="290.000000" y="103.424570" fill="rgb(0, 100, 0)" style="fill-opacity:1.00" />
<!-- End 'T' -->
<!-- Begin 'A' -->
<polygon points=" 270.000000, 108.021075, 291.000000, 106.017912, 299.000000, 106.017912, 320.000000, 108.021075, 312.500000, 108.021075, 306.250000, 107.520284, 283.750000, 107.520284, 277.500000, 108.021075" fill="rgb(178, 34, 34)" style="fill-opacity:1.00" />
<!-- End 'A' -->
<!-- Begin 'C' -->
<ellipse cx="295.000000" cy="108.595310" rx="25.000000" ry="0.574235" fill="rgb(0, 0, 128)" style="fill-opacity:1.00" />
<ellipse cx="295.000000" cy="108.595310" rx="16.666667" ry="0.382823" fill="rgb(255, 255, 255)" style="fill-opacity:1.00" />
<rect height="0.574235" width="25.000000" x="295.000000" y="108.308192" fill="rgb(255, 255, 255)" style="fill-opacity:1.00" />
<!-- End 'C' -->
<!-- Begin 'G' -->
<ellipse cx="295.000000" cy="109.584772" rx="25.000000" ry="0.415228" fill="rgb(255, 165, 0)" style="fill-opacity:1.00" />
<ellipse cx="295.000000" cy="109.584772" rx="16.666667" ry="0.276819" fill="rgb(255, 255, 255)" style="fill-opacity:1.00" />
<rect height="0.415228" width="25.000000" x="295.000000" y="109.377158" fill="rgb(255, 255, 255)" style="fill-opacity:1.00" />
<rect height="0.103807" width="25.000000" x="295.000000" y="109.688579" fill="rgb(255, 165, 0)" style="fill-opacity:1.00" />
<rect height="0.311421" width="6.250000" x="313.750000" y="109.688579" fill="rgb(255, 165, 0)" style="fill-opacity:1.00" />
<!-- End 'G' -->
<!-- Begin 'T' -->
<rect height="2.062809" width="50.000000" x="330.000000" y="88.764405" fill="rgb(0, 100, 0)" style="fill-opacity:1.00" />
<rect height="12.892556" width="10.000000" x="350.000000" y="88.764405" fill="rgb(0, 100, 0)" style="fill-opacity:1.00" />
<!-- End 'T' -->
<!-- Begin 'A' -->
<polygon points=" 330.000000, 105.286390, 351.000000, 101.656961, 359.000000, 101.656961, 380.000000, 105.286390, 372.500000, 105.286390, 366.250000, 104.379033, 343.750000, 104.379033, 337.500000, 105.286390" fill="rgb(178, 34, 34)" style="fill-opacity:1.00" />
<!-- End 'A' -->
<!-- Begin 'G' -->
<ellipse cx="355.000000" cy="106.574617" rx="25.000000" ry="1.288227" fill="rgb(255, 165, 0)" style="fill-opacity:1.00" />
<ellipse cx="355.000000" cy="106.574617" rx="16.666667" ry="0.858818" fill="rgb(255, 255, 255)" style="fill-opacity:1.00" />
<rect height="1.288227" width="25.000000" x="355.000000" y="105.930504" fill="rgb(255, 255, 255)" style="fill-opacity:1.00" />
<rect height="0.322057" width="25.000000" x="355.000000" y="106.896674" fill="rgb(255, 165, 0)" style="fill-opacity:1.00" />
<rect height="0.966170" width="6.250000" x="373.750000" y="106.896674" fill="rgb(255, 165, 0)" style="fill-opacity:1.00" />
<!-- End 'G' -->
<!-- Begin 'C' -->
<ellipse cx="355.000000" cy="108.931422" rx="25.000000" ry="1.068578" fill="rgb(0, 0, 128)" style="fill-opacity:1.00" />
<ellipse cx="355.000000" cy="108.931422" rx="16.666667" ry="0.712385" fill="rgb(255, 255, 255)" style="fill-opacity:1.00" />
<rect height="1.068578" width="25.000000" x="355.000000" y="108.397133" fill="rgb(255, 255, 255)" style="fill-opacity:1.00" />
<!-- End 'C' -->
<!-- Begin 'G' -->
<ellipse cx="415.000000" cy="94.283824" rx="25.000000" ry="7.173375" fill="rgb(255, 165, 0)" style="fill-opacity:1.00" />
<ellipse cx="415.000000" cy="94.283824" rx="16.666667" ry="4.782250" fill="rgb(255, 255, 255)" style="fill-opacity:1.00" />
<rect height="7.173375" width="25.000000" x="415.000000" y="90.697137" fill="rgb(255, 255, 255)" style="fill-opacity:1.00" />
<rect height="1.793344" width="25.000000" x="415.000000" y="96.077168" fill="rgb(255, 165, 0)" style="fill-opacity:1.00" />
<rect height="5.380031" width="6.250000" x="433.750000" y="96.077168" fill="rgb(255, 165, 0)" style="fill-opacity:1.00" />
<!-- End 'G' -->
<!-- Begin 'C' -->
<ellipse cx="415.000000" cy="103.074612" rx="25.000000" ry="1.617413" fill="rgb(0, 0, 128)" style="fill-opacity:1.00" />
<ellipse cx="415.000000" cy="103.074612" rx="16.666667" ry="1.078275" fill="rgb(255, 255, 255)" style="fill-opacity:1.00" />
<rect height="1.617413" width="25.000000" x="415.000000" y="102.265905" fill="rgb(255, 255, 255)" style="fill-opacity:1.00" />
<!-- End 'C' -->
<!-- Begin 'A' -->
<polygon points=" 390.000000, 107.353380, 411.000000, 104.692025, 419.000000, 104.692025, 440.000000, 107.353380, 432.500000, 107.353380, 426.250000, 106.688041, 403.750000, 106.688041, 397.500000, 107.353380" fill="rgb(178, 34, 34)" style="fill-opacity:1.00" />
<!-- End 'A' -->
<!-- Begin 'T' -->
<rect height="0.423459" width="50.000000" x="390.000000" y="107.353380" fill="rgb(0, 100, 0)" style="fill-opacity:1.00" />
<rect height="2.646620" width="10.000000" x="410.000000" y="107.353380" fill="rgb(0, 100, 0)" style="fill-opacity:1.00" />
<!-- End 'T' -->
<!-- Begin 'C' -->
<ellipse cx="475.000000" cy="94.680891" rx="25.000000" ry="6.282053" fill="rgb(0, 0, 128)" style="fill-opacity:1.00" />
<ellipse cx="475.000000" cy="94.680891" rx="16.666667" ry="4.188036" fill="rgb(255, 255, 255)" style="fill-opacity:1.00" />
<rect height="6.282053" width="25.000000" x="475.000000" y="91.539864" fill="rgb(255, 255, 255)" style="fill-opacity:1.00" />
<!-- End 'C' -->
<!-- Begin 'A' -->
<polygon points=" 450.000000, 105.457477, 471.000000, 100.962944, 479.000000, 100.962944, 500.000000, 105.457477, 492.500000, 105.457477, 486.250000, 104.333844, 463.750000, 104.333844, 457.500000, 105.457477" fill="rgb(178, 34, 34)" style="fill-opacity:1.00" />
<!-- End 'A' -->
<!-- Begin 'T' -->
<rect height="0.548681" width="50.000000" x="450.000000" y="105.457477" fill="rgb(0, 100, 0)" style="fill-opacity:1.00" />
<rect height="3.429258" width="10.000000" x="470.000000" y="105.457477" fill="rgb(0, 100, 0)" style="fill-opacity:1.00" />
<!-- End 'T' -->
<!-- Begin 'G' -->
<ellipse cx="475.000000" cy="109.443367" rx="25.000000" ry="0.556633" fill="rgb(255, 165, 0)" style="fill-opacity:1.00" />
<ellipse cx="475.000000" cy="109.443367" rx="16.666667" ry="0.371088" fill="rgb(255, 255, 255)" style="fill-opacity:1.00" />
<rect height="0.556633" width="25.000000" x="475.000000" y="109.165051" fill="rgb(255, 255, 255)" style="fill-opacity:1.00" />
<rect height="0.139158" width="25.000000" x="475.000000" y="109.582526" fill="rgb(255, 165, 0)" style="fill-opacity:1.00" />
<rect height="0.417474" width="6.250000" x="493.750000" y="109.582526" fill="rgb(255, 165, 0)" style="fill-opacity:1.00" />
<!-- End 'G' -->
<!-- Begin 'T' -->
<rect height="2.116763" width="50.000000" x="510.000000" y="87.931079" fill="rgb(0, 100, 0)" style="fill-opacity:1.00" />
<rect height="13.229772" width="10.000000" x="530.000000" y="87.931079" fill="rgb(0, 100, 0)" style="fill-opacity:1.00" />
<!-- End 'T' -->
<!-- Begin 'A' -->
<polygon points=" 510.000000, 105.269758, 531.000000, 101.160851, 539.000000, 101.160851, 560.000000, 105.269758, 552.500000, 105.269758, 546.250000, 104.242531, 523.750000, 104.242531, 517.500000, 105.269758" fill="rgb(178, 34, 34)" style="fill-opacity:1.00" />
<!-- End 'A' -->
<!-- Begin 'C' -->
<ellipse cx="535.000000" cy="106.930962" rx="25.000000" ry="1.661203" fill="rgb(0, 0, 128)" style="fill-opacity:1.00" />
<ellipse cx="535.000000" cy="106.930962" rx="16.666667" ry="1.107469" fill="rgb(255, 255, 255)" style="fill-opacity:1.00" />
<rect height="1.661203" width="25.000000" x="535.000000" y="106.100360" fill="rgb(255, 255, 255)" style="fill-opacity:1.00" />
<!-- End 'C' -->
<!-- Begin 'G' -->
<ellipse cx="535.000000" cy="109.296082" rx="25.000000" ry="0.703918" fill="rgb(255, 165, 0)" style="fill-opacity:1.00" />
<ellipse cx="535.000000" cy="109.296082" rx="16.666667" ry="0.469278" fill="rgb(255, 255, 255)" style="fill-opacity:1.00" />
<rect height="0.703918" width="25.000000" x="535.000000" y="108.944124" fill="rgb(255, 255, 255)" style="fill-opacity:1.00" />
<rect height="0.175979" width="25.000000" x="535.000000" y="109.472062" fill="rgb(255, 165, 0)" style="fill-opacity:1.00" />
<rect height="0.527938" width="6.250000" x="553.750000" y="109.472062" fill="rgb(255, 165, 0)" style="fill-opacity:1.00" />
<!-- End 'G' -->
<!-- Begin 'G' -->
<ellipse cx="595.000000" cy="100.267873" rx="25.000000" ry="3.170861" fill="rgb(255, 165, 0)" style="fill-opacity:1.00" />
<ellipse cx="595.000000" cy="100.267873" rx="16.666667" ry="2.113907" fill="rgb(255, 255, 255)" style="fill-opacity:1.00" />
<rect height="3.170861" width="25.000000" x="595.000000" y="98.682443" fill="rgb(255, 255, 255)" style="fill-opacity:1.00" />
<rect height="0.792715" width="25.000000" x="595.000000" y="101.060588" fill="rgb(255, 165, 0)" style="fill-opacity:1.00" />
<rect height="2.378146" width="6.250000" x="613.750000" y="101.060588" fill="rgb(255, 165, 0)" style="fill-opacity:1.00" />
<!-- End 'G' -->
<!-- Begin 'A' -->
<polygon points=" 570.000000, 106.501990, 591.000000, 103.438734, 599.000000, 103.438734, 620.000000, 106.501990, 612.500000, 106.501990, 606.250000, 105.736176, 583.750000, 105.736176, 577.500000, 106.501990" fill="rgb(178, 34, 34)" style="fill-opacity:1.00" />
<!-- End 'A' -->
<!-- Begin 'T' -->
<rect height="0.397785" width="50.000000" x="570.000000" y="106.501990" fill="rgb(0, 100, 0)" style="fill-opacity:1.00" />
<rect height="2.486157" width="10.000000" x="590.000000" y="106.501990" fill="rgb(0, 100, 0)" style="fill-opacity:1.00" />
<!-- End 'T' -->
<!-- Begin 'C' -->
<ellipse cx="595.000000" cy="109.494073" rx="25.000000" ry="0.505927" fill="rgb(0, 0, 128)" style="fill-opacity:1.00" />
<ellipse cx="595.000000" cy="109.494073" rx="16.666667" ry="0.337284" fill="rgb(255, 255, 255)" style="fill-opacity:1.00" />
<rect height="0.505927" width="25.000000" x="595.000000" y="109.241110" fill="rgb(255, 255, 255)" style="fill-opacity:1.00" />
<!-- End 'C' -->
<!-- Begin 'A' -->
<polygon points=" 630.000000, 100.341388, 651.000000, 80.069983, 659.000000, 80.069983, 680.000000, 100.341388, 672.500000, 100.341388, 666.250000, 95.273536, 643.750000, 95.273536, 637.500000, 100.341388" fill="rgb(178, 34, 34)" style="fill-opacity:1.00" />
<polygon points=" 655.000000, 84.124264, 647.000000, 91.232826, 662.000000, 91.232826" fill="rgb(255, 255, 255)" style="fill-opacity:1.00" />
<!-- End 'A' -->
<!-- Begin 'T' -->
<rect height="0.717524" width="50.000000" x="630.000000" y="100.341388" fill="rgb(0, 100, 0)" style="fill-opacity:1.00" />
<rect height="4.484528" width="10.000000" x="650.000000" y="100.341388" fill="rgb(0, 100, 0)" style="fill-opacity:1.00" />
<!-- End 'T' -->
<!-- Begin 'G' -->
<ellipse cx="655.000000" cy="106.182084" rx="25.000000" ry="1.356169" fill="rgb(255, 165, 0)" style="fill-opacity:1.00" />
<ellipse cx="655.000000" cy="106.182084" rx="16.666667" ry="0.904113" fill="rgb(255, 255, 255)" style="fill-opacity:1.00" />
<rect height="1.356169" width="25.000000" x="655.000000" y="105.504000" fill="rgb(255, 255, 255)" style="fill-opacity:1.00" />
<rect height="0.339042" width="25.000000" x="655.000000" y="106.521126" fill="rgb(255, 165, 0)" style="fill-opacity:1.00" />
<rect height="1.017127" width="6.250000" x="673.750000" y="106.521126" fill="rgb(255, 165, 0)" style="fill-opacity:1.00" />
<!-- End 'G' -->
<!-- Begin 'C' -->
<ellipse cx="655.000000" cy="108.769127" rx="25.000000" ry="1.230873" fill="rgb(0, 0, 128)" style="fill-opacity:1.00" />
<ellipse cx="655.000000" cy="108.769127" rx="16.666667" ry="0.820582" fill="rgb(255, 255, 255)" style="fill-opacity:1.00" />
<rect height="1.230873" width="25.000000" x="655.000000" y="108.153690" fill="rgb(255, 255, 255)" style="fill-opacity:1.00" />
<!-- End 'C' -->
<!-- Begin 'G' -->
<ellipse cx="715.000000" cy="104.109420" rx="25.000000" ry="1.293846" fill="rgb(255, 165, 0)" style="fill-opacity:1.00" />
<ellipse cx="715.000000" cy="104.109420" rx="16.666667" ry="0.862564" fill="rgb(255, 255, 255)" style="fill-opacity:1.00" />
<rect height="1.293846" width="25.000000" x="715.000000" y="103.462497" fill="rgb(255, 255, 255)" style="fill-opacity:1.00" />
<rect height="0.323461" width="25.000000" x="715.000000" y="104.432881" fill="rgb(255, 165, 0)" style="fill-opacity:1.00" />
<rect height="0.970384" width="6.250000" x="733.750000" y="104.432881" fill="rgb(255, 165, 0)" style="fill-opacity:1.00" />
<!-- End 'G' -->
<!-- Begin 'C' -->
<ellipse cx="715.000000" cy="106.693518" rx="25.000000" ry="1.290253" fill="rgb(0, 0, 128)" style="fill-opacity:1.00" />
<ellipse cx="715.000000" cy="106.693518" rx="16.666667" ry="0.860168" fill="rgb(255, 255, 255)" style="fill-opacity:1.00" />
<rect height="1.290253" width="25.000000" x="715.000000" y="106.048391" fill="rgb(255, 255, 255)" style="fill-opacity:1.00" />
<!-- End 'C' -->
<!-- Begin 'T' -->
<rect height="0.162277" width="50.000000" x="690.000000" y="107.983770" fill="rgb(0, 100, 0)" style="fill-opacity:1.00" />
<rect height="1.014233" width="10.000000" x="710.000000" y="107.983770" fill="rgb(0, 100, 0)" style="fill-opacity:1.00" />
<!-- End 'T' -->
<!-- Begin 'A' -->
<polygon points=" 690.000000, 110.000000, 711.000000, 108.998003, 719.000000, 108.998003, 740.000000, 110.000000, 732.500000, 110.000000, 726.250000, 109.749501, 703.750000, 109.749501, 697.500000, 110.000000" fill="rgb(178, 34, 34)" style="fill-opacity:1.00" />
<!-- End 'A' -->
<!-- Begin 'T' -->
<rect height="3.478998" width="50.000000" x="750.000000" y="78.449527" fill="rgb(0, 100, 0)" style="fill-opacity:1.00" />
<rect height="21.743739" width="10.000000" x="770.000000" y="78.449527" fill="rgb(0, 100, 0)" style="fill-opacity:1.00" />
<!-- End 'T' -->
<!-- Begin 'A' -->
<polygon points=" 750.000000, 104.793744, 771.000000, 100.193265, 779.000000, 100.193265, 800.000000, 104.793744, 792.500000, 104.793744, 786.250000, 103.643624, 763.750000, 103.643624, 757.500000, 104.793744" fill="rgb(178, 34, 34)" style="fill-opacity:1.00" />
<!-- End 'A' -->
<!-- Begin 'C' -->
<ellipse cx="775.000000" cy="106.136535" rx="25.000000" ry="1.342791" fill="rgb(0, 0, 128)" style="fill-opacity:1.00" />
<ellipse cx="775.000000" cy="106.136535" rx="16.666667" ry="0.895194" fill="rgb(255, 255, 255)" style="fill-opacity:1.00" />
<rect height="1.342791" width="25.000000" x="775.000000" y="105.465139" fill="rgb(255, 255, 255)" style="fill-opacity:1.00" />
<!-- End 'C' -->
<!-- Begin 'G' -->
<ellipse cx="775.000000" cy="108.739663" rx="25.000000" ry="1.260337" fill="rgb(255, 165, 0)" style="fill-opacity:1.00" />
<ellipse cx="775.000000" cy="108.739663" rx="16.666667" ry="0.840225" fill="rgb(255, 255, 255)" style="fill-opacity:1.00" />
<rect height="1.260337" width="25.000000" x="775.000000" y="108.109494" fill="rgb(255, 255, 255)" style="fill-opacity:1.00" />
<rect height="0.315084" width="25.000000" x="775.000000" y="109.054747" fill="rgb(255, 165, 0)" style="fill-opacity:1.00" />
<rect height="0.945253" width="6.250000" x="793.750000" y="109.054747" fill="rgb(255, 165, 0)" style="fill-opacity:1.00" />
<!-- End 'G' -->
<!-- Begin 'C' -->
<ellipse cx="835.000000" cy="99.893690" rx="25.000000" ry="3.374781" fill="rgb(0, 0, 128)" style="fill-opacity:1.00" />
<ellipse cx="835.000000" cy="99.893690" rx="16.666667" ry="2.249854" fill="rgb(255, 255, 255)" style="fill-opacity:1.00" />
<rect height="3.374781" width="25.000000" x="835.000000" y="98.206300" fill="rgb(255, 255, 255)" style="fill-opacity:1.00" />
<!-- End 'C' -->
<!-- Begin 'T' -->
<rect height="0.495314" width="50.000000" x="810.000000" y="103.268471" fill="rgb(0, 100, 0)" style="fill-opacity:1.00" />
<rect height="3.095712" width="10.000000" x="830.000000" y="103.268471" fill="rgb(0, 100, 0)" style="fill-opacity:1.00" />
<!-- End 'T' -->
<!-- Begin 'A' -->
<polygon points=" 810.000000, 108.955171, 831.000000, 106.364183, 839.000000, 106.364183, 860.000000, 108.955171, 852.500000, 108.955171, 846.250000, 108.307424, 823.750000, 108.307424, 817.500000, 108.955171" fill="rgb(178, 34, 34)" style="fill-opacity:1.00" />
<!-- End 'A' -->
<!-- Begin 'G' -->
<ellipse cx="835.000000" cy="109.477585" rx="25.000000" ry="0.522415" fill="rgb(255, 165, 0)" style="fill-opacity:1.00" />
<ellipse cx="835.000000" cy="109.477585" rx="16.666667" ry="0.348276" fill="rgb(255, 255, 255)" style="fill-opacity:1.00" />
<rect height="0.522415" width="25.000000" x="835.000000" y="109.216378" fill="rgb(255, 255, 255)" style="fill-opacity:1.00" />
<rect height="0.130604" width="25.000000" x="835.000000" y="109.608189" fill="rgb(255, 165, 0)" style="fill-opacity:1.00" />
<rect height="0.391811" width="6.250000" x="853.750000" y="109.608189" fill="rgb(255, 165, 0)" style="fill-opacity:1.00" />
<!-- End 'G' -->
<!-- Begin 'A' -->
<polygon points=" 870.000000, 100.856137, 891.000000, 86.570407, 899.000000, 86.570407, 920.000000, 100.856137, 912.500000, 100.856137, 906.250000, 97.284704, 883.750000, 97.284704, 877.500000, 100.856137" fill="rgb(178, 34, 34)" style="fill-opacity:1.00" />
<polygon points=" 895.000000, 89.427553, 887.000000, 94.141845, 902.000000, 94.141845" fill="rgb(255, 255, 255)" style="fill-opacity:1.00" />
<!-- End 'A' -->
<!-- Begin 'T' -->
<rect height="0.677391" width="50.000000" x="870.000000" y="100.856137" fill="rgb(0, 100, 0)" style="fill-opacity:1.00" />
<rect height="4.233695" width="10.000000" x="890.000000" y="100.856137" fill="rgb(0, 100, 0)" style="fill-opacity:1.00" />
<!-- End 'T' -->
<!-- Begin 'G' -->
<ellipse cx="895.000000" cy="106.870807" rx="25.000000" ry="1.780975" fill="rgb(255, 165, 0)" style="fill-opacity:1.00" />
<ellipse cx="895.000000" cy="106.870807" rx="16.666667" ry="1.187317" fill="rgb(255, 255, 255)" style="fill-opacity:1.00" />
<rect height="1.780975" width="25.000000" x="895.000000" y="105.980319" fill="rgb(255, 255, 255)" style="fill-opacity:1.00" />
<rect height="0.445244" width="25.000000" x="895.000000" y="107.316050" fill="rgb(255, 165, 0)" style="fill-opacity:1.00" />
<rect height="1.335731" width="6.250000" x="913.750000" y="107.316050" fill="rgb(255, 165, 0)" style="fill-opacity:1.00" />
<!-- End 'G' -->
<!-- Begin 'C' -->
<ellipse cx="895.000000" cy="109.325891" rx="25.000000" ry="0.674109" fill="rgb(0, 0, 128)" style="fill-opacity:1.00" />
<ellipse cx="895.000000" cy="109.325891" rx="16.666667" ry="0.449406" fill="rgb(255, 255, 255)" style="fill-opacity:1.00" />
<rect height="0.674109" width="25.000000" x="895.000000" y="108.988836" fill="rgb(255, 255, 255)" style="fill-opacity:1.00" />
<!-- End 'C' -->
<!-- Begin 'G' -->
<ellipse cx="955.000000" cy="94.165824" rx="25.000000" ry="6.677054" fill="rgb(255, 165, 0)" style="fill-opacity:1.00" />
<ellipse cx="955.000000" cy="94.165824" rx="16.666667" ry="4.451370" fill="rgb(255, 255, 255)" style="fill-opacity:1.00" />
<rect height="6.677054" width="25.000000" x="955.000000" y="90.827297" fill="rgb(255, 255, 255)" style="fill-opacity:1.00" />
<rect height="1.669264" width="25.000000" x="955.000000" y="95.835088" fill="rgb(255, 165, 0)" style="fill-opacity:1.00" />
<rect height="5.007791" width="6.250000" x="973.750000" y="95.835088" fill="rgb(255, 165, 0)" style="fill-opacity:1.00" />
<!-- End 'G' -->
<!-- Begin 'T' -->
<rect height="0.741186" width="50.000000" x="930.000000" y="100.842879" fill="rgb(0, 100, 0)" style="fill-opacity:1.00" />
<rect height="4.632413" width="10.000000" x="950.000000" y="100.842879" fill="rgb(0, 100, 0)" style="fill-opacity:1.00" />
<!-- End 'T' -->
<!-- Begin 'A' -->
<polygon points=" 930.000000, 108.791959, 951.000000, 105.475292, 959.000000, 105.475292, 980.000000, 108.791959, 972.500000, 108.791959, 966.250000, 107.962792, 943.750000, 107.962792, 937.500000, 108.791959" fill="rgb(178, 34, 34)" style="fill-opacity:1.00" />
<!-- End 'A' -->
<!-- Begin 'C' -->
<ellipse cx="955.000000" cy="109.395979" rx="25.000000" ry="0.604021" fill="rgb(0, 0, 128)" style="fill-opacity:1.00" />
<ellipse cx="955.000000" cy="109.395979" rx="16.666667" ry="0.402680" fill="rgb(255, 255, 255)" style="fill-opacity:1.00" />
<rect height="0.604021" width="25.000000" x="955.000000" y="109.093969" fill="rgb(255, 255, 255)" style="fill-opacity:1.00" />
<!-- End 'C' -->
<!-- Begin 'C' -->
<ellipse cx="1015.000000" cy="93.418212" rx="25.000000" ry="7.788622" fill="rgb(0, 0, 128)" style="fill-opacity:1.00" />
<ellipse cx="1015.000000" cy="93.418212" rx="16.666667" ry="5.192415" fill="rgb(255, 255, 255)" style="fill-opacity:1.00" />
<rect height="7.788622" width="25.000000" x="1015.000000" y="89.523900" fill="rgb(255, 255, 255)" style="fill-opacity:1.00" />
<!-- End 'C' -->
<!-- Begin 'G' -->
<ellipse cx="1015.000000" cy="102.883289" rx="25.000000" ry="1.676455" fill="rgb(255, 165, 0)" style="fill-opacity:1.00" />
<ellipse cx="1015.000000" cy="102.883289" rx="16.666667" ry="1.117637" fill="rgb(255, 255, 255)" style="fill-opacity:1.00" />
<rect height="1.676455" width="25.000000" x="1015.000000" y="102.045062" fill="rgb(255, 255, 255)" style="fill-opacity:1.00" />
<rect height="0.419114" width="25.000000" x="1015.000000" y="103.302403" fill="rgb(255, 165, 0)" style="fill-opacity:1.00" />
<rect height="1.257342" width="6.250000" x="1033.750000" y="103.302403" fill="rgb(255, 165, 0)" style="fill-opacity:1.00" />
<!-- End 'G' -->
<!-- Begin 'A' -->
<polygon points=" 990.000000, 107.289855, 1011.000000, 104.559745, 1019.000000, 104.559745, 1040.000000, 107.289855, 1032.500000, 107.289855, 1026.250000, 106.607328, 1003.750000, 106.607328, 997.500000, 107.289855" fill="rgb(178, 34, 34)" style="fill-opacity:1.00" />
<!-- End 'A' -->
<!-- Begin 'T' -->
<rect height="0.433623" width="50.000000" x="990.000000" y="107.289855" fill="rgb(0, 100, 0)" style="fill-opacity:1.00" />
<rect height="2.710145" width="10.000000" x="1010.000000" y="107.289855" fill="rgb(0, 100, 0)" style="fill-opacity:1.00" />
<!-- End 'T' -->
<!-- Begin 'A' -->
<polygon points=" 1050.000000, 101.478974, 1071.000000, 87.804944, 1079.000000, 87.804944, 1100.000000, 101.478974, 1092.500000, 101.478974, 1086.250000, 98.060466, 1063.750000, 98.060466, 1057.500000, 101.478974" fill="rgb(178, 34, 34)" style="fill-opacity:1.00" />
<polygon points=" 1075.000000, 90.539750, 1067.000000, 95.009362, 1082.000000, 95.009362" fill="rgb(255, 255, 255)" style="fill-opacity:1.00" />
<!-- End 'A' -->
<!-- Begin 'T' -->
<rect height="0.595566" width="50.000000" x="1050.000000" y="101.478974" fill="rgb(0, 100, 0)" style="fill-opacity:1.00" />
<rect height="3.722285" width="10.000000" x="1070.000000" y="101.478974" fill="rgb(0, 100, 0)" style="fill-opacity:1.00" />
<!-- End 'T' -->
<!-- Begin 'C' -->
<ellipse cx="1075.000000" cy="106.458036" rx="25.000000" ry="1.256776" fill="rgb(0, 0, 128)" style="fill-opacity:1.00" />
<ellipse cx="1075.000000" cy="106.458036" rx="16.666667" ry="0.837851" fill="rgb(255, 255, 255)" style="fill-opacity:1.00" />
<rect height="1.256776" width="25.000000" x="1075.000000" y="105.829647" fill="rgb(255, 255, 255)" style="fill-opacity:1.00" />
<!-- End 'C' -->
<!-- Begin 'G' -->
<ellipse cx="1075.000000" cy="108.857406" rx="25.000000" ry="1.142594" fill="rgb(255, 165, 0)" style="fill-opacity:1.00" />
<ellipse cx="1075.000000" cy="108.857406" rx="16.666667" ry="0.761729" fill="rgb(255, 255, 255)" style="fill-opacity:1.00" />
<rect height="1.142594" width="25.000000" x="1075.000000" y="108.286109" fill="rgb(255, 255, 255)" style="fill-opacity:1.00" />
<rect height="0.285648" width="25.000000" x="1075.000000" y="109.143055" fill="rgb(255, 165, 0)" style="fill-opacity:1.00" />
<rect height="0.856945" width="6.250000" x="1093.750000" y="109.143055" fill="rgb(255, 165, 0)" style="fill-opacity:1.00" />
<!-- End 'G' -->
<!-- Begin 'A' -->
<polygon points=" 1110.000000, 106.010114, 1131.000000, 103.395941, 1139.000000, 103.395941, 1160.000000, 106.010114, 1152.500000, 106.010114, 1146.250000, 105.356571, 1123.750000, 105.356571, 1117.500000, 106.010114" fill="rgb(178, 34, 34)" style="fill-opacity:1.00" />
<!-- End 'A' -->
<!-- Begin 'T' -->
<rect height="0.321114" width="50.000000" x="1110.000000" y="106.010114" fill="rgb(0, 100, 0)" style="fill-opacity:1.00" />
<rect height="2.006962" width="10.000000" x="1130.000000" y="106.010114" fill="rgb(0, 100, 0)" style="fill-opacity:1.00" />
<!-- End 'T' -->
<!-- Begin 'G' -->
<ellipse cx="1135.000000" cy="108.587587" rx="25.000000" ry="0.570511" fill="rgb(255, 165, 0)" style="fill-opacity:1.00" />
<ellipse cx="1135.000000" cy="108.587587" rx="16.666667" ry="0.380340" fill="rgb(255, 255, 255)" style="fill-opacity:1.00" />
<rect height="0.570511" width="25.000000" x="1135.000000" y="108.302332" fill="rgb(255, 255, 255)" style="fill-opacity:1.00" />
<rect height="0.142628" width="25.000000" x="1135.000000" y="108.730215" fill="rgb(255, 165, 0)" style="fill-opacity:1.00" />
<rect height="0.427883" width="6.250000" x="1153.750000" y="108.730215" fill="rgb(255, 165, 0)" style="fill-opacity:1.00" />
<!-- End 'G' -->
<!-- Begin 'C' -->
<ellipse cx="1135.000000" cy="109.579049" rx="25.000000" ry="0.420951" fill="rgb(0, 0, 128)" style="fill-opacity:1.00" />
<ellipse cx="1135.000000" cy="109.579049" rx="16.666667" ry="0.280634" fill="rgb(255, 255, 255)" style="fill-opacity:1.00" />
<rect height="0.420951" width="25.000000" x="1135.000000" y="109.368574" fill="rgb(255, 255, 255)" style="fill-opacity:1.00" />
<!-- End 'C' -->
<!-- Begin 'T' -->
<rect height="1.253522" width="50.000000" x="1170.000000" y="91.622240" fill="rgb(0, 100, 0)" style="fill-opacity:1.00" />
<rect height="7.834515" width="10.000000" x="1190.000000" y="91.622240" fill="rgb(0, 100, 0)" style="fill-opacity:1.00" />
<!-- End 'T' -->
<!-- Begin 'A' -->
<polygon points=" 1170.000000, 107.070520, 1191.000000, 99.456756, 1199.000000, 99.456756, 1220.000000, 107.070520, 1212.500000, 107.070520, 1206.250000, 105.167079, 1183.750000, 105.167079, 1177.500000, 107.070520" fill="rgb(178, 34, 34)" style="fill-opacity:1.00" />
<!-- End 'A' -->
<!-- Begin 'G' -->
<ellipse cx="1195.000000" cy="107.841040" rx="25.000000" ry="0.770521" fill="rgb(255, 165, 0)" style="fill-opacity:1.00" />
<ellipse cx="1195.000000" cy="107.841040" rx="16.666667" ry="0.513680" fill="rgb(255, 255, 255)" style="fill-opacity:1.00" />
<rect height="0.770521" width="25.000000" x="1195.000000" y="107.455780" fill="rgb(255, 255, 255)" style="fill-opacity:1.00" />
<rect height="0.192630" width="25.000000" x="1195.000000" y="108.033670" fill="rgb(255, 165, 0)" style="fill-opacity:1.00" />
<rect height="0.577891" width="6.250000" x="1213.750000" y="108.033670" fill="rgb(255, 165, 0)" style="fill-opacity:1.00" />
<!-- End 'G' -->
<!-- Begin 'C' -->
<ellipse cx="1195.000000" cy="109.305780" rx="25.000000" ry="0.694220" fill="rgb(0, 0, 128)" style="fill-opacity:1.00" />
<ellipse cx="1195.000000" cy="109.305780" rx="16.666667" ry="0.462813" fill="rgb(255, 255, 255)" style="fill-opacity:1.00" />
<rect height="0.694220" width="25.000000" x="1195.000000" y="108.958671" fill="rgb(255, 255, 255)" style="fill-opacity:1.00" />
<!-- End 'C' -->
<!-- Begin 'T' -->
<rect height="1.653395" width="50.000000" x="1230.000000" y="88.797502" fill="rgb(0, 100, 0)" style="fill-opacity:1.00" />
<rect height="10.333716" width="10.000000" x="1250.000000" y="88.797502" fill="rgb(0, 100, 0)" style="fill-opacity:1.00" />
<!-- End 'T' -->
<!-- Begin 'A' -->
<polygon points=" 1230.000000, 106.994402, 1251.000000, 99.131218, 1259.000000, 99.131218, 1280.000000, 106.994402, 1272.500000, 106.994402, 1266.250000, 105.028606, 1243.750000, 105.028606, 1237.500000, 106.994402" fill="rgb(178, 34, 34)" style="fill-opacity:1.00" />
<!-- End 'A' -->
<!-- Begin 'C' -->
<ellipse cx="1255.000000" cy="107.834384" rx="25.000000" ry="0.839983" fill="rgb(0, 0, 128)" style="fill-opacity:1.00" />
<ellipse cx="1255.000000" cy="107.834384" rx="16.666667" ry="0.559988" fill="rgb(255, 255, 255)" style="fill-opacity:1.00" />
<rect height="0.839983" width="25.000000" x="1255.000000" y="107.414393" fill="rgb(255, 255, 255)" style="fill-opacity:1.00" />
<!-- End 'C' -->
<!-- Begin 'G' -->
<ellipse cx="1255.000000" cy="109.337183" rx="25.000000" ry="0.662817" fill="rgb(255, 165, 0)" style="fill-opacity:1.00" />
<ellipse cx="1255.000000" cy="109.337183" rx="16.666667" ry="0.441878" fill="rgb(255, 255, 255)" style="fill-opacity:1.00" />
<rect height="0.662817" width="25.000000" x="1255.000000" y="109.005775" fill="rgb(255, 255, 255)" style="fill-opacity:1.00" />
<rect height="0.165704" width="25.000000" x="1255.000000" y="109.502888" fill="rgb(255, 165, 0)" style="fill-opacity:1.00" />
<rect height="0.497112" width="6.250000" x="1273.750000" y="109.502888" fill="rgb(255, 165, 0)" style="fill-opacity:1.00" />
<!-- End 'G' -->
<!-- Begin 'T' -->
<rect height="1.068494" width="50.000000" x="1290.000000" y="95.952712" fill="rgb(0, 100, 0)" style="fill-opacity:1.00" />
<rect height="6.678087" width="10.000000" x="1310.000000" y="95.952712" fill="rgb(0, 100, 0)" style="fill-opacity:1.00" />
<!-- End 'T' -->
<!-- Begin 'A' -->
<polygon points=" 1290.000000, 106.922035, 1311.000000, 102.630799, 1319.000000, 102.630799, 1340.000000, 106.922035, 1332.500000, 106.922035, 1326.250000, 105.849226, 1303.750000, 105.849226, 1297.500000, 106.922035" fill="rgb(178, 34, 34)" style="fill-opacity:1.00" />
<!-- End 'A' -->
<!-- Begin 'C' -->
<ellipse cx="1315.000000" cy="107.907403" rx="25.000000" ry="0.985368" fill="rgb(0, 0, 128)" style="fill-opacity:1.00" />
<ellipse cx="1315.000000" cy="107.907403" rx="16.666667" ry="0.656912" fill="rgb(255, 255, 255)" style="fill-opacity:1.00" />
<rect height="0.985368" width="25.000000" x="1315.000000" y="107.414719" fill="rgb(255, 255, 255)" style="fill-opacity:1.00" />
<!-- End 'C' -->
<!-- Begin 'G' -->
<ellipse cx="1315.000000" cy="109.446386" rx="25.000000" ry="0.553614" fill="rgb(255, 165, 0)" style="fill-opacity:1.00" />
<ellipse cx="1315.000000" cy="109.446386" rx="16.666667" ry="0.369076" fill="rgb(255, 255, 255)" style="fill-opacity:1.00" />
<rect height="0.553614" width="25.000000" x="1315.000000" y="109.169579" fill="rgb(255, 255, 255)" style="fill-opacity:1.00" />
<rect height="0.138404" width="25.000000" x="1315.000000" y="109.584789" fill="rgb(255, 165, 0)" style="fill-opacity:1.00" />
<rect height="0.415211" width="6.250000" x="1333.750000" y="109.584789" fill="rgb(255, 165, 0)" style="fill-opacity:1.00" />
<!-- End 'G' -->
<text x="700.000000" y="165">
IC = 7.88
</text>

</svg>
