<?xml version="1.0" encoding="UTF-8" standalone="yes"?>
                 <!DOCTYPE svg PUBLIC "-//W3C//DTD SVG 1.0//EN" "http://www.w3.org/TR/2001/REC-SVG-20010904/DTD/svg10.dtd">
                 <svg height="170" width="900" xmlns="http://www.w3.org/2000/svg" xmlns:xlink="http://www.w3.org/1999/xlink">
                 <line x1="85" y1="120" x2="867" y2="120" style="stroke:rgb(99,99,99);stroke-width:2" />
<rect height="7.000000" width="2.000000" x="85.000000" y="120.000000" fill="rgb(0, 0, 0)" style="fill-opacity:1.00" />
<text x="107.000000" y="140">
1
</text>
<rect height="7.000000" width="2.000000" x="145.000000" y="120.000000" fill="rgb(0, 0, 0)" style="fill-opacity:1.00" />
<text x="167.000000" y="140">
2
</text>
<rect height="7.000000" width="2.000000" x="205.000000" y="120.000000" fill="rgb(0, 0, 0)" style="fill-opacity:1.00" />
<text x="227.000000" y="140">
3
</text>
<rect height="7.000000" width="2.000000" x="265.000000" y="120.000000" fill="rgb(0, 0, 0)" style="fill-opacity:1.00" />
<text x="287.000000" y="140">
4
</text>
<rect height="7.000000" width="2.000000" x="325.000000" y="120.000000" fill="rgb(0, 0, 0)" style="fill-opacity:1.00" />
<text x="347.000000" y="140">
5
</text>
<rect height="7.000000" width="2.000000" x="385.000000" y="120.000000" fill="rgb(0, 0, 0)" style="fill-opacity:1.00" />
<text x="407.000000" y="140">
6
</text>
<rect height="7.000000" width="2.000000" x="445.000000" y="120.000000" fill="rgb(0, 0, 0)" style="fill-opacity:1.00" />
<text x="467.000000" y="140">
7
</text>
<rect height="7.000000" width="2.000000" x="505.000000" y="120.000000" fill="rgb(0, 0, 0)" style="fill-opacity:1.00" />
<text x="527.000000" y="140">
8
</text>
<rect height="7.000000" width="2.000000" x="565.000000" y="120.000000" fill="rgb(0, 0, 0)" style="fill-opacity:1.00" />
<text x="587.000000" y="140">
9
</text>
<rect height="7.000000" width="2.000000" x="625.000000" y="120.000000" fill="rgb(0, 0, 0)" style="fill-opacity:1.00" />
<text x="647.000000" y="140">
10
</text>
<rect height="7.000000" width="2.000000" x="685.000000" y="120.000000" fill="rgb(0, 0, 0)" style="fill-opacity:1.00" />
<text x="707.000000" y="140">
11
</text>
<rect height="7.000000" width="2.000000" x="745.000000" y="120.000000" fill="rgb(0, 0, 0)" style="fill-opacity:1.00" />
<text x="767.000000" y="140">
12
</text>
<rect height="7.000000" width="2.000000" x="805.000000" y="120.000000" fill="rgb(0, 0, 0)" style="fill-opacity:1.00" />
<text x="827.000000" y="140">
13
</text>
<rect height="7.000000" width="2.000000" x="865.000000" y="120.000000" fill="rgb(0, 0, 0)" style="fill-opacity:1.00" />
<line x1="80" y1="112" x2="80" y2="10" style="stroke:rgb(99,99,99);stroke-width:2" />
<rect height="2.000000" width="7.000000" x="73.000000" y="110.000000" fill="rgb(0, 0, 0)" style="fill-opacity:1.00" />
<text x="63" y="115">
0
</text>
<rect height="2.000000" width="7.000000" x="73.000000" y="60.000000" fill="rgb(0, 0, 0)" style="fill-opacity:1.00" />
<text x="63" y="65">
1
</text>
<rect height="2.000000" width="7.000000" x="73.000000" y="10.000000" fill="rgb(0, 0, 0)" style="fill-opacity:1.00" />
<text x="63" y="15">
2
</text>
<text x="50" y="65"
transform="rotate(-90, 50, 70)">
bits
</text>
<!-- Begin 'T' -->
<rect height="0.008613" width="50.000000" x="90.000000" y="109.804680" fill="rgb(0, 100, 0)" style="fill-opacity:1.00" />
<rect height="0.053834" width="10.000000" x="110.000000" y="109.804680" fill="rgb(0, 100, 0)" style="fill-opacity:1.00" />
<!-- End 'T' -->
<!-- Begin 'G' -->
<ellipse cx="115.000000" cy="109.883544" rx="25.000000" ry="0.025031" fill="rgb(255, 165, 0)" style="fill-opacity:1.00" />
<ellipse cx="115.000000" cy="109.883544" rx="16.666667" ry="0.016687" fill="rgb(255, 255, 255)" style="fill-opacity:1.00" />
<rect height="0.025031" width="25.000000" x="115.000000" y="109.871029" fill="rgb(255, 255, 255)" style="fill-opacity:1.00" />
<rect height="0.006258" width="25.000000" x="115.000000" y="109.889802" fill="rgb(255, 165, 0)" style="fill-opacity:1.00" />
<rect height="0.018773" width="6.250000" x="133.750000" y="109.889802" fill="rgb(255, 165, 0)" style="fill-opacity:1.00" />
<!-- End 'G' -->
<!-- Begin 'C' -->
<ellipse cx="115.000000" cy="109.932273" rx="25.000000" ry="0.023698" fill="rgb(0, 0, 128)" style="fill-opacity:1.00" />
<ellipse cx="115.000000" cy="109.932273" rx="16.666667" ry="0.015799" fill="rgb(255, 255, 255)" style="fill-opacity:1.00" />
<rect height="0.023698" width="25.000000" x="115.000000" y="109.920424" fill="rgb(255, 255, 255)" style="fill-opacity:1.00" />
<!-- End 'C' -->
<!-- Begin 'A' -->
<polygon points=" 90.000000, 110.000000, 111.000000, 109.955972, 119.000000, 109.955972, 140.000000, 110.000000, 132.500000, 110.000000, 126.250000, 109.988993, 103.750000, 109.988993, 97.500000, 110.000000" fill="rgb(178, 34, 34)" style="fill-opacity:1.00" />
<!-- End 'A' -->
<!-- Begin 'C' -->
<ellipse cx="175.000000" cy="103.331478" rx="25.000000" ry="1.597112" fill="rgb(0, 0, 128)" style="fill-opacity:1.00" />
<ellipse cx="175.000000" cy="103.331478" rx="16.666667" ry="1.064741" fill="rgb(255, 255, 255)" style="fill-opacity:1.00" />
<rect height="1.597112" width="25.000000" x="175.000000" y="102.532922" fill="rgb(255, 255, 255)" style="fill-opacity:1.00" />
<!-- End 'C' -->
<!-- Begin 'T' -->
<rect height="0.439726" width="50.000000" x="150.000000" y="104.928589" fill="rgb(0, 100, 0)" style="fill-opacity:1.00" />
<rect height="2.748287" width="10.000000" x="170.000000" y="104.928589" fill="rgb(0, 100, 0)" style="fill-opacity:1.00" />
<!-- End 'T' -->
<!-- Begin 'A' -->
<polygon points=" 150.000000, 109.193752, 171.000000, 107.676876, 179.000000, 107.676876, 200.000000, 109.193752, 192.500000, 109.193752, 186.250000, 108.814533, 163.750000, 108.814533, 157.500000, 109.193752" fill="rgb(178, 34, 34)" style="fill-opacity:1.00" />
<!-- End 'A' -->
<!-- Begin 'G' -->
<ellipse cx="175.000000" cy="109.596876" rx="25.000000" ry="0.403124" fill="rgb(255, 165, 0)" style="fill-opacity:1.00" />
<ellipse cx="175.000000" cy="109.596876" rx="16.666667" ry="0.268749" fill="rgb(255, 255, 255)" style="fill-opacity:1.00" />
<rect height="0.403124" width="25.000000" x="175.000000" y="109.395314" fill="rgb(255, 255, 255)" style="fill-opacity:1.00" />
<rect height="0.100781" width="25.000000" x="175.000000" y="109.697657" fill="rgb(255, 165, 0)" style="fill-opacity:1.00" />
<rect height="0.302343" width="6.250000" x="193.750000" y="109.697657" fill="rgb(255, 165, 0)" style="fill-opacity:1.00" />
<!-- End 'G' -->
<!-- Begin 'G' -->
<ellipse cx="235.000000" cy="97.839619" rx="25.000000" ry="4.526470" fill="rgb(255, 165, 0)" style="fill-opacity:1.00" />
<ellipse cx="235.000000" cy="97.839619" rx="16.666667" ry="3.017646" fill="rgb(255, 255, 255)" style="fill-opacity:1.00" />
<rect height="4.526470" width="25.000000" x="235.000000" y="95.576384" fill="rgb(255, 255, 255)" style="fill-opacity:1.00" />
<rect height="1.131617" width="25.000000" x="235.000000" y="98.971237" fill="rgb(255, 165, 0)" style="fill-opacity:1.00" />
<rect height="3.394852" width="6.250000" x="253.750000" y="98.971237" fill="rgb(255, 165, 0)" style="fill-opacity:1.00" />
<!-- End 'G' -->
<!-- Begin 'A' -->
<polygon points=" 210.000000, 105.801451, 231.000000, 102.366089, 239.000000, 102.366089, 260.000000, 105.801451, 252.500000, 105.801451, 246.250000, 104.942610, 223.750000, 104.942610, 217.500000, 105.801451" fill="rgb(178, 34, 34)" style="fill-opacity:1.00" />
<!-- End 'A' -->
<!-- Begin 'T' -->
<rect height="0.479550" width="50.000000" x="210.000000" y="105.801451" fill="rgb(0, 100, 0)" style="fill-opacity:1.00" />
<rect height="2.997186" width="10.000000" x="230.000000" y="105.801451" fill="rgb(0, 100, 0)" style="fill-opacity:1.00" />
<!-- End 'T' -->
<!-- Begin 'C' -->
<ellipse cx="235.000000" cy="109.399318" rx="25.000000" ry="0.600682" fill="rgb(0, 0, 128)" style="fill-opacity:1.00" />
<ellipse cx="235.000000" cy="109.399318" rx="16.666667" ry="0.400454" fill="rgb(255, 255, 255)" style="fill-opacity:1.00" />
<rect height="0.600682" width="25.000000" x="235.000000" y="109.098978" fill="rgb(255, 255, 255)" style="fill-opacity:1.00" />
<!-- End 'C' -->
<!-- Begin 'T' -->
<rect height="0.159851" width="50.000000" x="270.000000" y="106.925727" fill="rgb(0, 100, 0)" style="fill-opacity:1.00" />
<rect height="0.999069" width="10.000000" x="290.000000" y="106.925727" fill="rgb(0, 100, 0)" style="fill-opacity:1.00" />
<!-- End 'T' -->
<!-- Begin 'C' -->
<ellipse cx="295.000000" cy="108.377176" rx="25.000000" ry="0.452380" fill="rgb(0, 0, 128)" style="fill-opacity:1.00" />
<ellipse cx="295.000000" cy="108.377176" rx="16.666667" ry="0.301587" fill="rgb(255, 255, 255)" style="fill-opacity:1.00" />
<rect height="0.452380" width="25.000000" x="295.000000" y="108.150986" fill="rgb(255, 255, 255)" style="fill-opacity:1.00" />
<!-- End 'C' -->
<!-- Begin 'G' -->
<ellipse cx="295.000000" cy="109.198564" rx="25.000000" ry="0.369008" fill="rgb(255, 165, 0)" style="fill-opacity:1.00" />
<ellipse cx="295.000000" cy="109.198564" rx="16.666667" ry="0.246005" fill="rgb(255, 255, 255)" style="fill-opacity:1.00" />
<rect height="0.369008" width="25.000000" x="295.000000" y="109.014060" fill="rgb(255, 255, 255)" style="fill-opacity:1.00" />
<rect height="0.092252" width="25.000000" x="295.000000" y="109.290816" fill="rgb(255, 165, 0)" style="fill-opacity:1.00" />
<rect height="0.276756" width="6.250000" x="313.750000" y="109.290816" fill="rgb(255, 165, 0)" style="fill-opacity:1.00" />
<!-- End 'G' -->
<!-- Begin 'A' -->
<polygon points=" 270.000000, 110.000000, 291.000000, 109.567571, 299.000000, 109.567571, 320.000000, 110.000000, 312.500000, 110.000000, 306.250000, 109.891893, 283.750000, 109.891893, 277.500000, 110.000000" fill="rgb(178, 34, 34)" style="fill-opacity:1.00" />
<!-- End 'A' -->
<!-- Begin 'C' -->
<ellipse cx="355.000000" cy="73.889645" rx="25.000000" ry="27.112317" fill="rgb(0, 0, 128)" style="fill-opacity:1.00" />
<ellipse cx="355.000000" cy="73.889645" rx="16.666667" ry="18.074878" fill="rgb(255, 255, 255)" style="fill-opacity:1.00" />
<rect height="27.112317" width="25.000000" x="355.000000" y="60.333486" fill="rgb(255, 255, 255)" style="fill-opacity:1.00" />
<!-- End 'C' -->
<!-- Begin 'T' -->
<rect height="0.954228" width="50.000000" x="330.000000" y="101.001961" fill="rgb(0, 100, 0)" style="fill-opacity:1.00" />
<rect height="5.963923" width="10.000000" x="350.000000" y="101.001961" fill="rgb(0, 100, 0)" style="fill-opacity:1.00" />
<!-- End 'T' -->
<!-- Begin 'A' -->
<polygon points=" 330.000000, 109.844194, 351.000000, 106.965884, 359.000000, 106.965884, 380.000000, 109.844194, 372.500000, 109.844194, 366.250000, 109.124617, 343.750000, 109.124617, 337.500000, 109.844194" fill="rgb(178, 34, 34)" style="fill-opacity:1.00" />
<!-- End 'A' -->
<!-- Begin 'G' -->
<ellipse cx="355.000000" cy="109.922097" rx="25.000000" ry="0.077903" fill="rgb(255, 165, 0)" style="fill-opacity:1.00" />
<ellipse cx="355.000000" cy="109.922097" rx="16.666667" ry="0.051935" fill="rgb(255, 255, 255)" style="fill-opacity:1.00" />
<rect height="0.077903" width="25.000000" x="355.000000" y="109.883146" fill="rgb(255, 255, 255)" style="fill-opacity:1.00" />
<rect height="0.019476" width="25.000000" x="355.000000" y="109.941573" fill="rgb(255, 165, 0)" style="fill-opacity:1.00" />
<rect height="0.058427" width="6.250000" x="373.750000" y="109.941573" fill="rgb(255, 165, 0)" style="fill-opacity:1.00" />
<!-- End 'G' -->
<!-- Begin 'G' -->
<ellipse cx="415.000000" cy="81.925629" rx="25.000000" ry="14.641943" fill="rgb(255, 165, 0)" style="fill-opacity:1.00" />
<ellipse cx="415.000000" cy="81.925629" rx="16.666667" ry="9.761296" fill="rgb(255, 255, 255)" style="fill-opacity:1.00" />
<rect height="14.641943" width="25.000000" x="415.000000" y="74.604657" fill="rgb(255, 255, 255)" style="fill-opacity:1.00" />
<rect height="3.660486" width="25.000000" x="415.000000" y="85.586114" fill="rgb(255, 165, 0)" style="fill-opacity:1.00" />
<rect height="10.981458" width="6.250000" x="433.750000" y="85.586114" fill="rgb(255, 165, 0)" style="fill-opacity:1.00" />
<!-- End 'G' -->
<!-- Begin 'A' -->
<polygon points=" 390.000000, 107.371196, 411.000000, 96.567572, 419.000000, 96.567572, 440.000000, 107.371196, 432.500000, 107.371196, 426.250000, 104.670290, 403.750000, 104.670290, 397.500000, 107.371196" fill="rgb(178, 34, 34)" style="fill-opacity:1.00" />
<polygon points=" 415.000000, 98.728297, 407.000000, 102.049746, 422.000000, 102.049746" fill="rgb(255, 255, 255)" style="fill-opacity:1.00" />
<!-- End 'A' -->
<!-- Begin 'T' -->
<rect height="0.390030" width="50.000000" x="390.000000" y="107.371196" fill="rgb(0, 100, 0)" style="fill-opacity:1.00" />
<rect height="2.437689" width="10.000000" x="410.000000" y="107.371196" fill="rgb(0, 100, 0)" style="fill-opacity:1.00" />
<!-- End 'T' -->
<!-- Begin 'C' -->
<ellipse cx="415.000000" cy="109.904443" rx="25.000000" ry="0.095557" fill="rgb(0, 0, 128)" style="fill-opacity:1.00" />
<ellipse cx="415.000000" cy="109.904443" rx="16.666667" ry="0.063705" fill="rgb(255, 255, 255)" style="fill-opacity:1.00" />
<rect height="0.095557" width="25.000000" x="415.000000" y="109.856664" fill="rgb(255, 255, 255)" style="fill-opacity:1.00" />
<!-- End 'C' -->
<!-- Begin 'G' -->
<ellipse cx="475.000000" cy="83.786309" rx="25.000000" ry="8.579349" fill="rgb(255, 165, 0)" style="fill-opacity:1.00" />
<ellipse cx="475.000000" cy="83.786309" rx="16.666667" ry="5.719566" fill="rgb(255, 255, 255)" style="fill-opacity:1.00" />
<rect height="8.579349" width="25.000000" x="475.000000" y="79.496634" fill="rgb(255, 255, 255)" style="fill-opacity:1.00" />
<rect height="2.144837" width="25.000000" x="475.000000" y="85.931146" fill="rgb(255, 165, 0)" style="fill-opacity:1.00" />
<rect height="6.434512" width="6.250000" x="493.750000" y="85.931146" fill="rgb(255, 165, 0)" style="fill-opacity:1.00" />
<!-- End 'G' -->
<!-- Begin 'C' -->
<ellipse cx="475.000000" cy="100.216816" rx="25.000000" ry="7.851157" fill="rgb(0, 0, 128)" style="fill-opacity:1.00" />
<ellipse cx="475.000000" cy="100.216816" rx="16.666667" ry="5.234105" fill="rgb(255, 255, 255)" style="fill-opacity:1.00" />
<rect height="7.851157" width="25.000000" x="475.000000" y="96.291237" fill="rgb(255, 255, 255)" style="fill-opacity:1.00" />
<!-- End 'C' -->
<!-- Begin 'A' -->
<polygon points=" 450.000000, 109.335101, 471.000000, 108.067973, 479.000000, 108.067973, 500.000000, 109.335101, 492.500000, 109.335101, 486.250000, 109.018319, 463.750000, 109.018319, 457.500000, 109.335101" fill="rgb(178, 34, 34)" style="fill-opacity:1.00" />
<!-- End 'A' -->
<!-- Begin 'T' -->
<rect height="0.106384" width="50.000000" x="450.000000" y="109.335101" fill="rgb(0, 100, 0)" style="fill-opacity:1.00" />
<rect height="0.664899" width="10.000000" x="470.000000" y="109.335101" fill="rgb(0, 100, 0)" style="fill-opacity:1.00" />
<!-- End 'T' -->
<!-- Begin 'C' -->
<ellipse cx="535.000000" cy="83.145346" rx="25.000000" ry="12.632531" fill="rgb(0, 0, 128)" style="fill-opacity:1.00" />
<ellipse cx="535.000000" cy="83.145346" rx="16.666667" ry="8.421687" fill="rgb(255, 255, 255)" style="fill-opacity:1.00" />
<rect height="12.632531" width="25.000000" x="535.000000" y="76.829081" fill="rgb(255, 255, 255)" style="fill-opacity:1.00" />
<!-- End 'C' -->
<!-- Begin 'T' -->
<rect height="1.835043" width="50.000000" x="510.000000" y="95.777877" fill="rgb(0, 100, 0)" style="fill-opacity:1.00" />
<rect height="11.469020" width="10.000000" x="530.000000" y="95.777877" fill="rgb(0, 100, 0)" style="fill-opacity:1.00" />
<!-- End 'T' -->
<!-- Begin 'A' -->
<polygon points=" 510.000000, 109.928560, 531.000000, 107.246896, 539.000000, 107.246896, 560.000000, 109.928560, 552.500000, 109.928560, 546.250000, 109.258144, 523.750000, 109.258144, 517.500000, 109.928560" fill="rgb(178, 34, 34)" style="fill-opacity:1.00" />
<!-- End 'A' -->
<!-- Begin 'G' -->
<ellipse cx="535.000000" cy="109.964280" rx="25.000000" ry="0.035720" fill="rgb(255, 165, 0)" style="fill-opacity:1.00" />
<ellipse cx="535.000000" cy="109.964280" rx="16.666667" ry="0.023813" fill="rgb(255, 255, 255)" style="fill-opacity:1.00" />
<rect height="0.035720" width="25.000000" x="535.000000" y="109.946420" fill="rgb(255, 255, 255)" style="fill-opacity:1.00" />
<rect height="0.008930" width="25.000000" x="535.000000" y="109.973210" fill="rgb(255, 165, 0)" style="fill-opacity:1.00" />
<rect height="0.026790" width="6.250000" x="553.750000" y="109.973210" fill="rgb(255, 165, 0)" style="fill-opacity:1.00" />
<!-- End 'G' -->
<!-- Begin 'G' -->
<ellipse cx="595.000000" cy="77.739380" rx="25.000000" ry="22.803685" fill="rgb(255, 165, 0)" style="fill-opacity:1.00" />
<ellipse cx="595.000000" cy="77.739380" rx="16.666667" ry="15.202456" fill="rgb(255, 255, 255)" style="fill-opacity:1.00" />
<rect height="22.803685" width="25.000000" x="595.000000" y="66.337537" fill="rgb(255, 255, 255)" style="fill-opacity:1.00" />
<rect height="5.700921" width="25.000000" x="595.000000" y="83.440301" fill="rgb(255, 165, 0)" style="fill-opacity:1.00" />
<rect height="17.102764" width="6.250000" x="613.750000" y="83.440301" fill="rgb(255, 165, 0)" style="fill-opacity:1.00" />
<!-- End 'G' -->
<!-- Begin 'A' -->
<polygon points=" 570.000000, 105.314706, 591.000000, 100.543064, 599.000000, 100.543064, 620.000000, 105.314706, 612.500000, 105.314706, 606.250000, 104.121795, 583.750000, 104.121795, 577.500000, 105.314706" fill="rgb(178, 34, 34)" style="fill-opacity:1.00" />
<!-- End 'A' -->
<!-- Begin 'T' -->
<rect height="0.581694" width="50.000000" x="570.000000" y="105.314706" fill="rgb(0, 100, 0)" style="fill-opacity:1.00" />
<rect height="3.635590" width="10.000000" x="590.000000" y="105.314706" fill="rgb(0, 100, 0)" style="fill-opacity:1.00" />
<!-- End 'T' -->
<!-- Begin 'C' -->
<ellipse cx="595.000000" cy="109.475148" rx="25.000000" ry="0.524852" fill="rgb(0, 0, 128)" style="fill-opacity:1.00" />
<ellipse cx="595.000000" cy="109.475148" rx="16.666667" ry="0.349901" fill="rgb(255, 255, 255)" style="fill-opacity:1.00" />
<rect height="0.524852" width="25.000000" x="595.000000" y="109.212722" fill="rgb(255, 255, 255)" style="fill-opacity:1.00" />
<!-- End 'C' -->
<!-- Begin 'A' -->
<polygon points=" 630.000000, 107.851980, 651.000000, 106.775418, 659.000000, 106.775418, 680.000000, 107.851980, 672.500000, 107.851980, 666.250000, 107.582840, 643.750000, 107.582840, 637.500000, 107.851980" fill="rgb(178, 34, 34)" style="fill-opacity:1.00" />
<!-- End 'A' -->
<!-- Begin 'G' -->
<ellipse cx="655.000000" cy="108.341401" rx="25.000000" ry="0.489420" fill="rgb(255, 165, 0)" style="fill-opacity:1.00" />
<ellipse cx="655.000000" cy="108.341401" rx="16.666667" ry="0.326280" fill="rgb(255, 255, 255)" style="fill-opacity:1.00" />
<rect height="0.489420" width="25.000000" x="655.000000" y="108.096690" fill="rgb(255, 255, 255)" style="fill-opacity:1.00" />
<rect height="0.122355" width="25.000000" x="655.000000" y="108.463756" fill="rgb(255, 165, 0)" style="fill-opacity:1.00" />
<rect height="0.367065" width="6.250000" x="673.750000" y="108.463756" fill="rgb(255, 165, 0)" style="fill-opacity:1.00" />
<!-- End 'G' -->
<!-- Begin 'C' -->
<ellipse cx="655.000000" cy="109.174918" rx="25.000000" ry="0.344097" fill="rgb(0, 0, 128)" style="fill-opacity:1.00" />
<ellipse cx="655.000000" cy="109.174918" rx="16.666667" ry="0.229398" fill="rgb(255, 255, 255)" style="fill-opacity:1.00" />
<rect height="0.344097" width="25.000000" x="655.000000" y="109.002869" fill="rgb(255, 255, 255)" style="fill-opacity:1.00" />
<!-- End 'C' -->
<!-- Begin 'T' -->
<rect height="0.076958" width="50.000000" x="630.000000" y="109.519014" fill="rgb(0, 100, 0)" style="fill-opacity:1.00" />
<rect height="0.480986" width="10.000000" x="650.000000" y="109.519014" fill="rgb(0, 100, 0)" style="fill-opacity:1.00" />
<!-- End 'T' -->
<!-- Begin 'C' -->
<ellipse cx="715.000000" cy="99.257451" rx="25.000000" ry="3.793230" fill="rgb(0, 0, 128)" style="fill-opacity:1.00" />
<ellipse cx="715.000000" cy="99.257451" rx="16.666667" ry="2.528820" fill="rgb(255, 255, 255)" style="fill-opacity:1.00" />
<rect height="3.793230" width="25.000000" x="715.000000" y="97.360836" fill="rgb(255, 255, 255)" style="fill-opacity:1.00" />
<!-- End 'C' -->
<!-- Begin 'T' -->
<rect height="0.469138" width="50.000000" x="690.000000" y="103.050681" fill="rgb(0, 100, 0)" style="fill-opacity:1.00" />
<rect height="2.932115" width="10.000000" x="710.000000" y="103.050681" fill="rgb(0, 100, 0)" style="fill-opacity:1.00" />
<!-- End 'T' -->
<!-- Begin 'A' -->
<polygon points=" 690.000000, 108.824310, 711.000000, 105.982796, 719.000000, 105.982796, 740.000000, 108.824310, 732.500000, 108.824310, 726.250000, 108.113932, 703.750000, 108.113932, 697.500000, 108.824310" fill="rgb(178, 34, 34)" style="fill-opacity:1.00" />
<!-- End 'A' -->
<!-- Begin 'G' -->
<ellipse cx="715.000000" cy="109.412155" rx="25.000000" ry="0.587845" fill="rgb(255, 165, 0)" style="fill-opacity:1.00" />
<ellipse cx="715.000000" cy="109.412155" rx="16.666667" ry="0.391897" fill="rgb(255, 255, 255)" style="fill-opacity:1.00" />
<rect height="0.587845" width="25.000000" x="715.000000" y="109.118233" fill="rgb(255, 255, 255)" style="fill-opacity:1.00" />
<rect height="0.146961" width="25.000000" x="715.000000" y="109.559116" fill="rgb(255, 165, 0)" style="fill-opacity:1.00" />
<rect height="0.440884" width="6.250000" x="733.750000" y="109.559116" fill="rgb(255, 165, 0)" style="fill-opacity:1.00" />
<!-- End 'G' -->
<!-- Begin 'G' -->
<ellipse cx="775.000000" cy="104.311741" rx="25.000000" ry="1.361190" fill="rgb(255, 165, 0)" style="fill-opacity:1.00" />
<ellipse cx="775.000000" cy="104.311741" rx="16.666667" ry="0.907460" fill="rgb(255, 255, 255)" style="fill-opacity:1.00" />
<rect height="1.361190" width="25.000000" x="775.000000" y="103.631146" fill="rgb(255, 255, 255)" style="fill-opacity:1.00" />
<rect height="0.340297" width="25.000000" x="775.000000" y="104.652038" fill="rgb(255, 165, 0)" style="fill-opacity:1.00" />
<rect height="1.020892" width="6.250000" x="793.750000" y="104.652038" fill="rgb(255, 165, 0)" style="fill-opacity:1.00" />
<!-- End 'G' -->
<!-- Begin 'A' -->
<polygon points=" 750.000000, 107.892272, 771.000000, 105.672931, 779.000000, 105.672931, 800.000000, 107.892272, 792.500000, 107.892272, 786.250000, 107.337436, 763.750000, 107.337436, 757.500000, 107.892272" fill="rgb(178, 34, 34)" style="fill-opacity:1.00" />
<!-- End 'A' -->
<!-- Begin 'T' -->
<rect height="0.213969" width="50.000000" x="750.000000" y="107.892272" fill="rgb(0, 100, 0)" style="fill-opacity:1.00" />
<rect height="1.337307" width="10.000000" x="770.000000" y="107.892272" fill="rgb(0, 100, 0)" style="fill-opacity:1.00" />
<!-- End 'T' -->
<!-- Begin 'C' -->
<ellipse cx="775.000000" cy="109.614789" rx="25.000000" ry="0.385211" fill="rgb(0, 0, 128)" style="fill-opacity:1.00" />
<ellipse cx="775.000000" cy="109.614789" rx="16.666667" ry="0.256807" fill="rgb(255, 255, 255)" style="fill-opacity:1.00" />
<rect height="0.385211" width="25.000000" x="775.000000" y="109.422184" fill="rgb(255, 255, 255)" style="fill-opacity:1.00" />
<!-- End 'C' -->
<!-- Begin 'A' -->
<polygon points=" 810.000000, 109.768210, 831.000000, 109.675608, 839.000000, 109.675608, 860.000000, 109.768210, 852.500000, 109.768210, 846.250000, 109.745060, 823.750000, 109.745060, 817.500000, 109.768210" fill="rgb(178, 34, 34)" style="fill-opacity:1.00" />
<!-- End 'A' -->
<!-- Begin 'G' -->
<ellipse cx="835.000000" cy="109.810048" rx="25.000000" ry="0.041838" fill="rgb(255, 165, 0)" style="fill-opacity:1.00" />
<ellipse cx="835.000000" cy="109.810048" rx="16.666667" ry="0.027892" fill="rgb(255, 255, 255)" style="fill-opacity:1.00" />
<rect height="0.041838" width="25.000000" x="835.000000" y="109.789129" fill="rgb(255, 255, 255)" style="fill-opacity:1.00" />
<rect height="0.010459" width="25.000000" x="835.000000" y="109.820507" fill="rgb(255, 165, 0)" style="fill-opacity:1.00" />
<rect height="0.031378" width="6.250000" x="853.750000" y="109.820507" fill="rgb(255, 165, 0)" style="fill-opacity:1.00" />
<!-- End 'G' -->
<!-- Begin 'T' -->
<rect height="0.011978" width="50.000000" x="810.000000" y="109.851885" fill="rgb(0, 100, 0)" style="fill-opacity:1.00" />
<rect height="0.074860" width="10.000000" x="830.000000" y="109.851885" fill="rgb(0, 100, 0)" style="fill-opacity:1.00" />
<!-- End 'T' -->
<!-- Begin 'C' -->
<ellipse cx="835.000000" cy="109.963372" rx="25.000000" ry="0.036628" fill="rgb(0, 0, 128)" style="fill-opacity:1.00" />
<ellipse cx="835.000000" cy="109.963372" rx="16.666667" ry="0.024418" fill="rgb(255, 255, 255)" style="fill-opacity:1.00" />
<rect height="0.036628" width="25.000000" x="835.000000" y="109.945059" fill="rgb(255, 255, 255)" style="fill-opacity:1.00" />
<!-- End 'C' -->
<text x="460.000000" y="165">
IC = 5.77
</text>

</svg>
