<?xml version="1.0" encoding="UTF-8" standalone="yes"?>
                 <!DOCTYPE svg PUBLIC "-//W3C//DTD SVG 1.0//EN" "http://www.w3.org/TR/2001/REC-SVG-20010904/DTD/svg10.dtd">
                 <svg height="170" width="840" xmlns="http://www.w3.org/2000/svg" xmlns:xlink="http://www.w3.org/1999/xlink">
                 <line x1="85" y1="120" x2="807" y2="120" style="stroke:rgb(99,99,99);stroke-width:2" />
<rect height="7.000000" width="2.000000" x="85.000000" y="120.000000" fill="rgb(0, 0, 0)" style="fill-opacity:1.00" />
<text x="107.000000" y="140">
1
</text>
<rect height="7.000000" width="2.000000" x="145.000000" y="120.000000" fill="rgb(0, 0, 0)" style="fill-opacity:1.00" />
<text x="167.000000" y="140">
2
</text>
<rect height="7.000000" width="2.000000" x="205.000000" y="120.000000" fill="rgb(0, 0, 0)" style="fill-opacity:1.00" />
<text x="227.000000" y="140">
3
</text>
<rect height="7.000000" width="2.000000" x="265.000000" y="120.000000" fill="rgb(0, 0, 0)" style="fill-opacity:1.00" />
<text x="287.000000" y="140">
4
</text>
<rect height="7.000000" width="2.000000" x="325.000000" y="120.000000" fill="rgb(0, 0, 0)" style="fill-opacity:1.00" />
<text x="347.000000" y="140">
5
</text>
<rect height="7.000000" width="2.000000" x="385.000000" y="120.000000" fill="rgb(0, 0, 0)" style="fill-opacity:1.00" />
<text x="407.000000" y="140">
6
</text>
<rect height="7.000000" width="2.000000" x="445.000000" y="120.000000" fill="rgb(0, 0, 0)" style="fill-opacity:1.00" />
<text x="467.000000" y="140">
7
</text>
<rect height="7.000000" width="2.000000" x="505.000000" y="120.000000" fill="rgb(0, 0, 0)" style="fill-opacity:1.00" />
<text x="527.000000" y="140">
8
</text>
<rect height="7.000000" width="2.000000" x="565.000000" y="120.000000" fill="rgb(0, 0, 0)" style="fill-opacity:1.00" />
<text x="587.000000" y="140">
9
</text>
<rect height="7.000000" width="2.000000" x="625.000000" y="120.000000" fill="rgb(0, 0, 0)" style="fill-opacity:1.00" />
<text x="647.000000" y="140">
10
</text>
<rect height="7.000000" width="2.000000" x="685.000000" y="120.000000" fill="rgb(0, 0, 0)" style="fill-opacity:1.00" />
<text x="707.000000" y="140">
11
</text>
<rect height="7.000000" width="2.000000" x="745.000000" y="120.000000" fill="rgb(0, 0, 0)" style="fill-opacity:1.00" />
<text x="767.000000" y="140">
12
</text>
<rect height="7.000000" width="2.000000" x="805.000000" y="120.000000" fill="rgb(0, 0, 0)" style="fill-opacity:1.00" />
<line x1="80" y1="112" x2="80" y2="10" style="stroke:rgb(99,99,99);stroke-width:2" />
<rect height="2.000000" width="7.000000" x="73.000000" y="110.000000" fill="rgb(0, 0, 0)" style="fill-opacity:1.00" />
<text x="63" y="115">
0
</text>
<rect height="2.000000" width="7.000000" x="73.000000" y="60.000000" fill="rgb(0, 0, 0)" style="fill-opacity:1.00" />
<text x="63" y="65">
1
</text>
<rect height="2.000000" width="7.000000" x="73.000000" y="10.000000" fill="rgb(0, 0, 0)" style="fill-opacity:1.00" />
<text x="63" y="15">
2
</text>
<text x="50" y="65"
transform="rotate(-90, 50, 70)">
bits
</text>
<!-- Begin 'A' -->
<polygon points=" 90.000000, 107.209929, 111.000000, 105.431828, 119.000000, 105.431828, 140.000000, 107.209929, 132.500000, 107.209929, 126.250000, 106.765404, 103.750000, 106.765404, 97.500000, 107.209929" fill="rgb(178, 34, 34)" style="fill-opacity:1.00" />
<!-- End 'A' -->
<!-- Begin 'T' -->
<rect height="0.184959" width="50.000000" x="90.000000" y="107.209929" fill="rgb(0, 100, 0)" style="fill-opacity:1.00" />
<rect height="1.155996" width="10.000000" x="110.000000" y="107.209929" fill="rgb(0, 100, 0)" style="fill-opacity:1.00" />
<!-- End 'T' -->
<!-- Begin 'G' -->
<ellipse cx="115.000000" cy="108.859023" rx="25.000000" ry="0.493098" fill="rgb(255, 165, 0)" style="fill-opacity:1.00" />
<ellipse cx="115.000000" cy="108.859023" rx="16.666667" ry="0.328732" fill="rgb(255, 255, 255)" style="fill-opacity:1.00" />
<rect height="0.493098" width="25.000000" x="115.000000" y="108.612474" fill="rgb(255, 255, 255)" style="fill-opacity:1.00" />
<rect height="0.123275" width="25.000000" x="115.000000" y="108.982297" fill="rgb(255, 165, 0)" style="fill-opacity:1.00" />
<rect height="0.369824" width="6.250000" x="133.750000" y="108.982297" fill="rgb(255, 165, 0)" style="fill-opacity:1.00" />
<!-- End 'G' -->
<!-- Begin 'C' -->
<ellipse cx="115.000000" cy="109.676060" rx="25.000000" ry="0.323940" fill="rgb(0, 0, 128)" style="fill-opacity:1.00" />
<ellipse cx="115.000000" cy="109.676060" rx="16.666667" ry="0.215960" fill="rgb(255, 255, 255)" style="fill-opacity:1.00" />
<rect height="0.323940" width="25.000000" x="115.000000" y="109.514091" fill="rgb(255, 255, 255)" style="fill-opacity:1.00" />
<!-- End 'C' -->
<!-- Begin 'A' -->
<polygon points=" 150.000000, 105.640763, 171.000000, 102.248848, 179.000000, 102.248848, 200.000000, 105.640763, 192.500000, 105.640763, 186.250000, 104.792785, 163.750000, 104.792785, 157.500000, 105.640763" fill="rgb(178, 34, 34)" style="fill-opacity:1.00" />
<!-- End 'A' -->
<!-- Begin 'T' -->
<rect height="0.331880" width="50.000000" x="150.000000" y="105.640763" fill="rgb(0, 100, 0)" style="fill-opacity:1.00" />
<rect height="2.074250" width="10.000000" x="170.000000" y="105.640763" fill="rgb(0, 100, 0)" style="fill-opacity:1.00" />
<!-- End 'T' -->
<!-- Begin 'G' -->
<ellipse cx="175.000000" cy="108.288215" rx="25.000000" ry="0.573202" fill="rgb(255, 165, 0)" style="fill-opacity:1.00" />
<ellipse cx="175.000000" cy="108.288215" rx="16.666667" ry="0.382135" fill="rgb(255, 255, 255)" style="fill-opacity:1.00" />
<rect height="0.573202" width="25.000000" x="175.000000" y="108.001614" fill="rgb(255, 255, 255)" style="fill-opacity:1.00" />
<rect height="0.143301" width="25.000000" x="175.000000" y="108.431516" fill="rgb(255, 165, 0)" style="fill-opacity:1.00" />
<rect height="0.429902" width="6.250000" x="193.750000" y="108.431516" fill="rgb(255, 165, 0)" style="fill-opacity:1.00" />
<!-- End 'G' -->
<!-- Begin 'C' -->
<ellipse cx="175.000000" cy="109.430709" rx="25.000000" ry="0.569291" fill="rgb(0, 0, 128)" style="fill-opacity:1.00" />
<ellipse cx="175.000000" cy="109.430709" rx="16.666667" ry="0.379527" fill="rgb(255, 255, 255)" style="fill-opacity:1.00" />
<rect height="0.569291" width="25.000000" x="175.000000" y="109.146063" fill="rgb(255, 255, 255)" style="fill-opacity:1.00" />
<!-- End 'C' -->
<!-- Begin 'A' -->
<polygon points=" 210.000000, 105.663467, 231.000000, 103.037352, 239.000000, 103.037352, 260.000000, 105.663467, 252.500000, 105.663467, 246.250000, 105.006938, 223.750000, 105.006938, 217.500000, 105.663467" fill="rgb(178, 34, 34)" style="fill-opacity:1.00" />
<!-- End 'A' -->
<!-- Begin 'T' -->
<rect height="0.375204" width="50.000000" x="210.000000" y="105.663467" fill="rgb(0, 100, 0)" style="fill-opacity:1.00" />
<rect height="2.345027" width="10.000000" x="230.000000" y="105.663467" fill="rgb(0, 100, 0)" style="fill-opacity:1.00" />
<!-- End 'T' -->
<!-- Begin 'G' -->
<ellipse cx="235.000000" cy="108.543349" rx="25.000000" ry="0.534855" fill="rgb(255, 165, 0)" style="fill-opacity:1.00" />
<ellipse cx="235.000000" cy="108.543349" rx="16.666667" ry="0.356570" fill="rgb(255, 255, 255)" style="fill-opacity:1.00" />
<rect height="0.534855" width="25.000000" x="235.000000" y="108.275922" fill="rgb(255, 255, 255)" style="fill-opacity:1.00" />
<rect height="0.133714" width="25.000000" x="235.000000" y="108.677063" fill="rgb(255, 165, 0)" style="fill-opacity:1.00" />
<rect height="0.401142" width="6.250000" x="253.750000" y="108.677063" fill="rgb(255, 165, 0)" style="fill-opacity:1.00" />
<!-- End 'G' -->
<!-- Begin 'C' -->
<ellipse cx="235.000000" cy="109.539102" rx="25.000000" ry="0.460898" fill="rgb(0, 0, 128)" style="fill-opacity:1.00" />
<ellipse cx="235.000000" cy="109.539102" rx="16.666667" ry="0.307265" fill="rgb(255, 255, 255)" style="fill-opacity:1.00" />
<rect height="0.460898" width="25.000000" x="235.000000" y="109.308654" fill="rgb(255, 255, 255)" style="fill-opacity:1.00" />
<!-- End 'C' -->
<!-- Begin 'C' -->
<ellipse cx="295.000000" cy="108.930492" rx="25.000000" ry="0.209016" fill="rgb(0, 0, 128)" style="fill-opacity:1.00" />
<ellipse cx="295.000000" cy="108.930492" rx="16.666667" ry="0.139344" fill="rgb(255, 255, 255)" style="fill-opacity:1.00" />
<rect height="0.209016" width="25.000000" x="295.000000" y="108.825984" fill="rgb(255, 255, 255)" style="fill-opacity:1.00" />
<!-- End 'C' -->
<!-- Begin 'T' -->
<rect height="0.050874" width="50.000000" x="270.000000" y="109.139508" fill="rgb(0, 100, 0)" style="fill-opacity:1.00" />
<rect height="0.317962" width="10.000000" x="290.000000" y="109.139508" fill="rgb(0, 100, 0)" style="fill-opacity:1.00" />
<!-- End 'T' -->
<!-- Begin 'A' -->
<polygon points=" 270.000000, 109.746337, 291.000000, 109.457470, 299.000000, 109.457470, 320.000000, 109.746337, 312.500000, 109.746337, 306.250000, 109.674120, 283.750000, 109.674120, 277.500000, 109.746337" fill="rgb(178, 34, 34)" style="fill-opacity:1.00" />
<!-- End 'A' -->
<!-- Begin 'G' -->
<ellipse cx="295.000000" cy="109.873169" rx="25.000000" ry="0.126831" fill="rgb(255, 165, 0)" style="fill-opacity:1.00" />
<ellipse cx="295.000000" cy="109.873169" rx="16.666667" ry="0.084554" fill="rgb(255, 255, 255)" style="fill-opacity:1.00" />
<rect height="0.126831" width="25.000000" x="295.000000" y="109.809753" fill="rgb(255, 255, 255)" style="fill-opacity:1.00" />
<rect height="0.031708" width="25.000000" x="295.000000" y="109.904876" fill="rgb(255, 165, 0)" style="fill-opacity:1.00" />
<rect height="0.095124" width="6.250000" x="313.750000" y="109.904876" fill="rgb(255, 165, 0)" style="fill-opacity:1.00" />
<!-- End 'G' -->
<!-- Begin 'T' -->
<rect height="3.415641" width="50.000000" x="330.000000" y="78.330509" fill="rgb(0, 100, 0)" style="fill-opacity:1.00" />
<rect height="21.347759" width="10.000000" x="350.000000" y="78.330509" fill="rgb(0, 100, 0)" style="fill-opacity:1.00" />
<!-- End 'T' -->
<!-- Begin 'A' -->
<polygon points=" 330.000000, 105.568555, 351.000000, 99.678268, 359.000000, 99.678268, 380.000000, 105.568555, 372.500000, 105.568555, 366.250000, 104.095984, 343.750000, 104.095984, 337.500000, 105.568555" fill="rgb(178, 34, 34)" style="fill-opacity:1.00" />
<!-- End 'A' -->
<!-- Begin 'C' -->
<ellipse cx="355.000000" cy="106.927495" rx="25.000000" ry="1.358939" fill="rgb(0, 0, 128)" style="fill-opacity:1.00" />
<ellipse cx="355.000000" cy="106.927495" rx="16.666667" ry="0.905960" fill="rgb(255, 255, 255)" style="fill-opacity:1.00" />
<rect height="1.358939" width="25.000000" x="355.000000" y="106.248025" fill="rgb(255, 255, 255)" style="fill-opacity:1.00" />
<!-- End 'C' -->
<!-- Begin 'G' -->
<ellipse cx="355.000000" cy="109.143217" rx="25.000000" ry="0.856783" fill="rgb(255, 165, 0)" style="fill-opacity:1.00" />
<ellipse cx="355.000000" cy="109.143217" rx="16.666667" ry="0.571189" fill="rgb(255, 255, 255)" style="fill-opacity:1.00" />
<rect height="0.856783" width="25.000000" x="355.000000" y="108.714826" fill="rgb(255, 255, 255)" style="fill-opacity:1.00" />
<rect height="0.214196" width="25.000000" x="355.000000" y="109.357413" fill="rgb(255, 165, 0)" style="fill-opacity:1.00" />
<rect height="0.642587" width="6.250000" x="373.750000" y="109.357413" fill="rgb(255, 165, 0)" style="fill-opacity:1.00" />
<!-- End 'G' -->
<!-- Begin 'G' -->
<ellipse cx="415.000000" cy="75.094776" rx="25.000000" ry="26.635921" fill="rgb(255, 165, 0)" style="fill-opacity:1.00" />
<ellipse cx="415.000000" cy="75.094776" rx="16.666667" ry="17.757281" fill="rgb(255, 255, 255)" style="fill-opacity:1.00" />
<rect height="26.635921" width="25.000000" x="415.000000" y="61.776815" fill="rgb(255, 255, 255)" style="fill-opacity:1.00" />
<rect height="6.658980" width="25.000000" x="415.000000" y="81.753756" fill="rgb(255, 165, 0)" style="fill-opacity:1.00" />
<rect height="19.976941" width="6.250000" x="433.750000" y="81.753756" fill="rgb(255, 165, 0)" style="fill-opacity:1.00" />
<!-- End 'G' -->
<!-- Begin 'C' -->
<ellipse cx="415.000000" cy="103.814702" rx="25.000000" ry="2.084005" fill="rgb(0, 0, 128)" style="fill-opacity:1.00" />
<ellipse cx="415.000000" cy="103.814702" rx="16.666667" ry="1.389337" fill="rgb(255, 255, 255)" style="fill-opacity:1.00" />
<rect height="2.084005" width="25.000000" x="415.000000" y="102.772699" fill="rgb(255, 255, 255)" style="fill-opacity:1.00" />
<!-- End 'C' -->
<!-- Begin 'A' -->
<polygon points=" 390.000000, 108.263569, 411.000000, 105.898707, 419.000000, 105.898707, 440.000000, 108.263569, 432.500000, 108.263569, 426.250000, 107.672354, 403.750000, 107.672354, 397.500000, 108.263569" fill="rgb(178, 34, 34)" style="fill-opacity:1.00" />
<!-- End 'A' -->
<!-- Begin 'T' -->
<rect height="0.277829" width="50.000000" x="390.000000" y="108.263569" fill="rgb(0, 100, 0)" style="fill-opacity:1.00" />
<rect height="1.736431" width="10.000000" x="410.000000" y="108.263569" fill="rgb(0, 100, 0)" style="fill-opacity:1.00" />
<!-- End 'T' -->
<!-- Begin 'C' -->
<ellipse cx="475.000000" cy="74.894724" rx="25.000000" ry="25.702146" fill="rgb(0, 0, 128)" style="fill-opacity:1.00" />
<ellipse cx="475.000000" cy="74.894724" rx="16.666667" ry="17.134764" fill="rgb(255, 255, 255)" style="fill-opacity:1.00" />
<rect height="25.702146" width="25.000000" x="475.000000" y="62.043651" fill="rgb(255, 255, 255)" style="fill-opacity:1.00" />
<!-- End 'C' -->
<!-- Begin 'A' -->
<polygon points=" 450.000000, 107.663309, 471.000000, 100.596870, 479.000000, 100.596870, 500.000000, 107.663309, 492.500000, 107.663309, 486.250000, 105.896699, 463.750000, 105.896699, 457.500000, 107.663309" fill="rgb(178, 34, 34)" style="fill-opacity:1.00" />
<!-- End 'A' -->
<!-- Begin 'T' -->
<rect height="0.222117" width="50.000000" x="450.000000" y="107.663309" fill="rgb(0, 100, 0)" style="fill-opacity:1.00" />
<rect height="1.388234" width="10.000000" x="470.000000" y="107.663309" fill="rgb(0, 100, 0)" style="fill-opacity:1.00" />
<!-- End 'T' -->
<!-- Begin 'G' -->
<ellipse cx="475.000000" cy="109.525772" rx="25.000000" ry="0.474228" fill="rgb(255, 165, 0)" style="fill-opacity:1.00" />
<ellipse cx="475.000000" cy="109.525772" rx="16.666667" ry="0.316152" fill="rgb(255, 255, 255)" style="fill-opacity:1.00" />
<rect height="0.474228" width="25.000000" x="475.000000" y="109.288657" fill="rgb(255, 255, 255)" style="fill-opacity:1.00" />
<rect height="0.118557" width="25.000000" x="475.000000" y="109.644329" fill="rgb(255, 165, 0)" style="fill-opacity:1.00" />
<rect height="0.355671" width="6.250000" x="493.750000" y="109.644329" fill="rgb(255, 165, 0)" style="fill-opacity:1.00" />
<!-- End 'G' -->
<!-- Begin 'T' -->
<rect height="9.672972" width="50.000000" x="510.000000" y="41.437745" fill="rgb(0, 100, 0)" style="fill-opacity:1.00" />
<rect height="60.456073" width="10.000000" x="530.000000" y="41.437745" fill="rgb(0, 100, 0)" style="fill-opacity:1.00" />
<!-- End 'T' -->
<!-- Begin 'A' -->
<polygon points=" 510.000000, 108.132679, 531.000000, 101.893818, 539.000000, 101.893818, 560.000000, 108.132679, 552.500000, 108.132679, 546.250000, 106.572963, 523.750000, 106.572963, 517.500000, 108.132679" fill="rgb(178, 34, 34)" style="fill-opacity:1.00" />
<!-- End 'A' -->
<!-- Begin 'C' -->
<ellipse cx="535.000000" cy="108.976524" rx="25.000000" ry="0.843845" fill="rgb(0, 0, 128)" style="fill-opacity:1.00" />
<ellipse cx="535.000000" cy="108.976524" rx="16.666667" ry="0.562563" fill="rgb(255, 255, 255)" style="fill-opacity:1.00" />
<rect height="0.843845" width="25.000000" x="535.000000" y="108.554601" fill="rgb(255, 255, 255)" style="fill-opacity:1.00" />
<!-- End 'C' -->
<!-- Begin 'G' -->
<ellipse cx="535.000000" cy="109.910184" rx="25.000000" ry="0.089816" fill="rgb(255, 165, 0)" style="fill-opacity:1.00" />
<ellipse cx="535.000000" cy="109.910184" rx="16.666667" ry="0.059877" fill="rgb(255, 255, 255)" style="fill-opacity:1.00" />
<rect height="0.089816" width="25.000000" x="535.000000" y="109.865276" fill="rgb(255, 255, 255)" style="fill-opacity:1.00" />
<rect height="0.022454" width="25.000000" x="535.000000" y="109.932638" fill="rgb(255, 165, 0)" style="fill-opacity:1.00" />
<rect height="0.067362" width="6.250000" x="553.750000" y="109.932638" fill="rgb(255, 165, 0)" style="fill-opacity:1.00" />
<!-- End 'G' -->
<!-- Begin 'G' -->
<ellipse cx="595.000000" cy="76.091341" rx="25.000000" ry="24.740039" fill="rgb(255, 165, 0)" style="fill-opacity:1.00" />
<ellipse cx="595.000000" cy="76.091341" rx="16.666667" ry="16.493359" fill="rgb(255, 255, 255)" style="fill-opacity:1.00" />
<rect height="24.740039" width="25.000000" x="595.000000" y="63.721322" fill="rgb(255, 255, 255)" style="fill-opacity:1.00" />
<rect height="6.185010" width="25.000000" x="595.000000" y="82.276351" fill="rgb(255, 165, 0)" style="fill-opacity:1.00" />
<rect height="18.555029" width="6.250000" x="613.750000" y="82.276351" fill="rgb(255, 165, 0)" style="fill-opacity:1.00" />
<!-- End 'G' -->
<!-- Begin 'T' -->
<rect height="0.938776" width="50.000000" x="570.000000" y="100.831380" fill="rgb(0, 100, 0)" style="fill-opacity:1.00" />
<rect height="5.867348" width="10.000000" x="590.000000" y="100.831380" fill="rgb(0, 100, 0)" style="fill-opacity:1.00" />
<!-- End 'T' -->
<!-- Begin 'A' -->
<polygon points=" 570.000000, 108.723258, 591.000000, 106.698728, 599.000000, 106.698728, 620.000000, 108.723258, 612.500000, 108.723258, 606.250000, 108.217126, 583.750000, 108.217126, 577.500000, 108.723258" fill="rgb(178, 34, 34)" style="fill-opacity:1.00" />
<!-- End 'A' -->
<!-- Begin 'C' -->
<ellipse cx="595.000000" cy="109.361629" rx="25.000000" ry="0.638371" fill="rgb(0, 0, 128)" style="fill-opacity:1.00" />
<ellipse cx="595.000000" cy="109.361629" rx="16.666667" ry="0.425581" fill="rgb(255, 255, 255)" style="fill-opacity:1.00" />
<rect height="0.638371" width="25.000000" x="595.000000" y="109.042444" fill="rgb(255, 255, 255)" style="fill-opacity:1.00" />
<!-- End 'C' -->
<!-- Begin 'A' -->
<polygon points=" 630.000000, 99.892954, 651.000000, 65.822484, 659.000000, 65.822484, 680.000000, 99.892954, 672.500000, 99.892954, 666.250000, 91.375337, 643.750000, 91.375337, 637.500000, 99.892954" fill="rgb(178, 34, 34)" style="fill-opacity:1.00" />
<polygon points=" 655.000000, 72.636578, 647.000000, 85.264766, 662.000000, 85.264766" fill="rgb(255, 255, 255)" style="fill-opacity:1.00" />
<!-- End 'A' -->
<!-- Begin 'T' -->
<rect height="0.826002" width="50.000000" x="630.000000" y="99.892954" fill="rgb(0, 100, 0)" style="fill-opacity:1.00" />
<rect height="5.162512" width="10.000000" x="650.000000" y="99.892954" fill="rgb(0, 100, 0)" style="fill-opacity:1.00" />
<!-- End 'T' -->
<!-- Begin 'C' -->
<ellipse cx="655.000000" cy="106.326222" rx="25.000000" ry="1.270756" fill="rgb(0, 0, 128)" style="fill-opacity:1.00" />
<ellipse cx="655.000000" cy="106.326222" rx="16.666667" ry="0.847171" fill="rgb(255, 255, 255)" style="fill-opacity:1.00" />
<rect height="1.270756" width="25.000000" x="655.000000" y="105.690845" fill="rgb(255, 255, 255)" style="fill-opacity:1.00" />
<!-- End 'C' -->
<!-- Begin 'G' -->
<ellipse cx="655.000000" cy="108.798489" rx="25.000000" ry="1.201511" fill="rgb(255, 165, 0)" style="fill-opacity:1.00" />
<ellipse cx="655.000000" cy="108.798489" rx="16.666667" ry="0.801007" fill="rgb(255, 255, 255)" style="fill-opacity:1.00" />
<rect height="1.201511" width="25.000000" x="655.000000" y="108.197734" fill="rgb(255, 255, 255)" style="fill-opacity:1.00" />
<rect height="0.300378" width="25.000000" x="655.000000" y="109.098867" fill="rgb(255, 165, 0)" style="fill-opacity:1.00" />
<rect height="0.901133" width="6.250000" x="673.750000" y="109.098867" fill="rgb(255, 165, 0)" style="fill-opacity:1.00" />
<!-- End 'G' -->
<!-- Begin 'C' -->
<ellipse cx="715.000000" cy="101.232205" rx="25.000000" ry="2.434585" fill="rgb(0, 0, 128)" style="fill-opacity:1.00" />
<ellipse cx="715.000000" cy="101.232205" rx="16.666667" ry="1.623056" fill="rgb(255, 255, 255)" style="fill-opacity:1.00" />
<rect height="2.434585" width="25.000000" x="715.000000" y="100.014913" fill="rgb(255, 255, 255)" style="fill-opacity:1.00" />
<!-- End 'C' -->
<!-- Begin 'G' -->
<ellipse cx="715.000000" cy="105.472375" rx="25.000000" ry="1.805585" fill="rgb(255, 165, 0)" style="fill-opacity:1.00" />
<ellipse cx="715.000000" cy="105.472375" rx="16.666667" ry="1.203723" fill="rgb(255, 255, 255)" style="fill-opacity:1.00" />
<rect height="1.805585" width="25.000000" x="715.000000" y="104.569582" fill="rgb(255, 255, 255)" style="fill-opacity:1.00" />
<rect height="0.451396" width="25.000000" x="715.000000" y="105.923771" fill="rgb(255, 165, 0)" style="fill-opacity:1.00" />
<rect height="1.354188" width="6.250000" x="733.750000" y="105.923771" fill="rgb(255, 165, 0)" style="fill-opacity:1.00" />
<!-- End 'G' -->
<!-- Begin 'T' -->
<rect height="0.274321" width="50.000000" x="690.000000" y="107.277959" fill="rgb(0, 100, 0)" style="fill-opacity:1.00" />
<rect height="1.714506" width="10.000000" x="710.000000" y="107.277959" fill="rgb(0, 100, 0)" style="fill-opacity:1.00" />
<!-- End 'T' -->
<!-- Begin 'A' -->
<polygon points=" 690.000000, 110.000000, 711.000000, 108.992465, 719.000000, 108.992465, 740.000000, 110.000000, 732.500000, 110.000000, 726.250000, 109.748116, 703.750000, 109.748116, 697.500000, 110.000000" fill="rgb(178, 34, 34)" style="fill-opacity:1.00" />
<!-- End 'A' -->
<!-- Begin 'T' -->
<rect height="0.624908" width="50.000000" x="750.000000" y="101.607290" fill="rgb(0, 100, 0)" style="fill-opacity:1.00" />
<rect height="3.905677" width="10.000000" x="770.000000" y="101.607290" fill="rgb(0, 100, 0)" style="fill-opacity:1.00" />
<!-- End 'T' -->
<!-- Begin 'A' -->
<polygon points=" 750.000000, 107.384438, 771.000000, 105.512967, 779.000000, 105.512967, 800.000000, 107.384438, 792.500000, 107.384438, 786.250000, 106.916571, 763.750000, 106.916571, 757.500000, 107.384438" fill="rgb(178, 34, 34)" style="fill-opacity:1.00" />
<!-- End 'A' -->
<!-- Begin 'C' -->
<ellipse cx="775.000000" cy="108.044003" rx="25.000000" ry="0.659564" fill="rgb(0, 0, 128)" style="fill-opacity:1.00" />
<ellipse cx="775.000000" cy="108.044003" rx="16.666667" ry="0.439710" fill="rgb(255, 255, 255)" style="fill-opacity:1.00" />
<rect height="0.659564" width="25.000000" x="775.000000" y="107.714221" fill="rgb(255, 255, 255)" style="fill-opacity:1.00" />
<!-- End 'C' -->
<!-- Begin 'G' -->
<ellipse cx="775.000000" cy="109.351784" rx="25.000000" ry="0.648216" fill="rgb(255, 165, 0)" style="fill-opacity:1.00" />
<ellipse cx="775.000000" cy="109.351784" rx="16.666667" ry="0.432144" fill="rgb(255, 255, 255)" style="fill-opacity:1.00" />
<rect height="0.648216" width="25.000000" x="775.000000" y="109.027675" fill="rgb(255, 255, 255)" style="fill-opacity:1.00" />
<rect height="0.162054" width="25.000000" x="775.000000" y="109.513838" fill="rgb(255, 165, 0)" style="fill-opacity:1.00" />
<rect height="0.486162" width="6.250000" x="793.750000" y="109.513838" fill="rgb(255, 165, 0)" style="fill-opacity:1.00" />
<!-- End 'G' -->
<text x="430.000000" y="165">
IC = 7.31
</text>

</svg>
