<?xml version="1.0" encoding="UTF-8" standalone="yes"?>
                 <!DOCTYPE svg PUBLIC "-//W3C//DTD SVG 1.0//EN" "http://www.w3.org/TR/2001/REC-SVG-20010904/DTD/svg10.dtd">
                 <svg height="170" width="840" xmlns="http://www.w3.org/2000/svg" xmlns:xlink="http://www.w3.org/1999/xlink">
                 <line x1="85" y1="120" x2="807" y2="120" style="stroke:rgb(99,99,99);stroke-width:2" />
<rect height="7.000000" width="2.000000" x="85.000000" y="120.000000" fill="rgb(0, 0, 0)" style="fill-opacity:1.00" />
<text x="107.000000" y="140">
1
</text>
<rect height="7.000000" width="2.000000" x="145.000000" y="120.000000" fill="rgb(0, 0, 0)" style="fill-opacity:1.00" />
<text x="167.000000" y="140">
2
</text>
<rect height="7.000000" width="2.000000" x="205.000000" y="120.000000" fill="rgb(0, 0, 0)" style="fill-opacity:1.00" />
<text x="227.000000" y="140">
3
</text>
<rect height="7.000000" width="2.000000" x="265.000000" y="120.000000" fill="rgb(0, 0, 0)" style="fill-opacity:1.00" />
<text x="287.000000" y="140">
4
</text>
<rect height="7.000000" width="2.000000" x="325.000000" y="120.000000" fill="rgb(0, 0, 0)" style="fill-opacity:1.00" />
<text x="347.000000" y="140">
5
</text>
<rect height="7.000000" width="2.000000" x="385.000000" y="120.000000" fill="rgb(0, 0, 0)" style="fill-opacity:1.00" />
<text x="407.000000" y="140">
6
</text>
<rect height="7.000000" width="2.000000" x="445.000000" y="120.000000" fill="rgb(0, 0, 0)" style="fill-opacity:1.00" />
<text x="467.000000" y="140">
7
</text>
<rect height="7.000000" width="2.000000" x="505.000000" y="120.000000" fill="rgb(0, 0, 0)" style="fill-opacity:1.00" />
<text x="527.000000" y="140">
8
</text>
<rect height="7.000000" width="2.000000" x="565.000000" y="120.000000" fill="rgb(0, 0, 0)" style="fill-opacity:1.00" />
<text x="587.000000" y="140">
9
</text>
<rect height="7.000000" width="2.000000" x="625.000000" y="120.000000" fill="rgb(0, 0, 0)" style="fill-opacity:1.00" />
<text x="647.000000" y="140">
10
</text>
<rect height="7.000000" width="2.000000" x="685.000000" y="120.000000" fill="rgb(0, 0, 0)" style="fill-opacity:1.00" />
<text x="707.000000" y="140">
11
</text>
<rect height="7.000000" width="2.000000" x="745.000000" y="120.000000" fill="rgb(0, 0, 0)" style="fill-opacity:1.00" />
<text x="767.000000" y="140">
12
</text>
<rect height="7.000000" width="2.000000" x="805.000000" y="120.000000" fill="rgb(0, 0, 0)" style="fill-opacity:1.00" />
<line x1="80" y1="112" x2="80" y2="10" style="stroke:rgb(99,99,99);stroke-width:2" />
<rect height="2.000000" width="7.000000" x="73.000000" y="110.000000" fill="rgb(0, 0, 0)" style="fill-opacity:1.00" />
<text x="63" y="115">
0
</text>
<rect height="2.000000" width="7.000000" x="73.000000" y="60.000000" fill="rgb(0, 0, 0)" style="fill-opacity:1.00" />
<text x="63" y="65">
1
</text>
<rect height="2.000000" width="7.000000" x="73.000000" y="10.000000" fill="rgb(0, 0, 0)" style="fill-opacity:1.00" />
<text x="63" y="15">
2
</text>
<text x="50" y="65"
transform="rotate(-90, 50, 70)">
bits
</text>
<!-- Begin 'G' -->
<ellipse cx="115.000000" cy="100.695806" rx="25.000000" ry="2.226282" fill="rgb(255, 165, 0)" style="fill-opacity:1.00" />
<ellipse cx="115.000000" cy="100.695806" rx="16.666667" ry="1.484188" fill="rgb(255, 255, 255)" style="fill-opacity:1.00" />
<rect height="2.226282" width="25.000000" x="115.000000" y="99.582665" fill="rgb(255, 255, 255)" style="fill-opacity:1.00" />
<rect height="0.556570" width="25.000000" x="115.000000" y="101.252377" fill="rgb(255, 165, 0)" style="fill-opacity:1.00" />
<rect height="1.669711" width="6.250000" x="133.750000" y="101.252377" fill="rgb(255, 165, 0)" style="fill-opacity:1.00" />
<!-- End 'G' -->
<!-- Begin 'T' -->
<rect height="0.712392" width="50.000000" x="90.000000" y="102.922088" fill="rgb(0, 100, 0)" style="fill-opacity:1.00" />
<rect height="4.452451" width="10.000000" x="110.000000" y="102.922088" fill="rgb(0, 100, 0)" style="fill-opacity:1.00" />
<!-- End 'T' -->
<!-- Begin 'A' -->
<polygon points=" 90.000000, 108.906097, 111.000000, 107.374539, 119.000000, 107.374539, 140.000000, 108.906097, 132.500000, 108.906097, 126.250000, 108.523207, 103.750000, 108.523207, 97.500000, 108.906097" fill="rgb(178, 34, 34)" style="fill-opacity:1.00" />
<!-- End 'A' -->
<!-- Begin 'C' -->
<ellipse cx="115.000000" cy="109.453048" rx="25.000000" ry="0.546952" fill="rgb(0, 0, 128)" style="fill-opacity:1.00" />
<ellipse cx="115.000000" cy="109.453048" rx="16.666667" ry="0.364634" fill="rgb(255, 255, 255)" style="fill-opacity:1.00" />
<rect height="0.546952" width="25.000000" x="115.000000" y="109.179573" fill="rgb(255, 255, 255)" style="fill-opacity:1.00" />
<!-- End 'C' -->
<!-- Begin 'C' -->
<ellipse cx="175.000000" cy="88.661654" rx="25.000000" ry="11.222437" fill="rgb(0, 0, 128)" style="fill-opacity:1.00" />
<ellipse cx="175.000000" cy="88.661654" rx="16.666667" ry="7.481625" fill="rgb(255, 255, 255)" style="fill-opacity:1.00" />
<rect height="11.222437" width="25.000000" x="175.000000" y="83.050436" fill="rgb(255, 255, 255)" style="fill-opacity:1.00" />
<!-- End 'C' -->
<!-- Begin 'T' -->
<rect height="0.797584" width="50.000000" x="150.000000" y="99.884092" fill="rgb(0, 100, 0)" style="fill-opacity:1.00" />
<rect height="4.984901" width="10.000000" x="170.000000" y="99.884092" fill="rgb(0, 100, 0)" style="fill-opacity:1.00" />
<!-- End 'T' -->
<!-- Begin 'A' -->
<polygon points=" 150.000000, 108.306037, 171.000000, 104.868993, 179.000000, 104.868993, 200.000000, 108.306037, 192.500000, 108.306037, 186.250000, 107.446776, 163.750000, 107.446776, 157.500000, 108.306037" fill="rgb(178, 34, 34)" style="fill-opacity:1.00" />
<!-- End 'A' -->
<!-- Begin 'G' -->
<ellipse cx="175.000000" cy="109.153018" rx="25.000000" ry="0.846982" fill="rgb(255, 165, 0)" style="fill-opacity:1.00" />
<ellipse cx="175.000000" cy="109.153018" rx="16.666667" ry="0.564654" fill="rgb(255, 255, 255)" style="fill-opacity:1.00" />
<rect height="0.846982" width="25.000000" x="175.000000" y="108.729528" fill="rgb(255, 255, 255)" style="fill-opacity:1.00" />
<rect height="0.211745" width="25.000000" x="175.000000" y="109.364764" fill="rgb(255, 165, 0)" style="fill-opacity:1.00" />
<rect height="0.635236" width="6.250000" x="193.750000" y="109.364764" fill="rgb(255, 165, 0)" style="fill-opacity:1.00" />
<!-- End 'G' -->
<!-- Begin 'T' -->
<rect height="7.017890" width="50.000000" x="210.000000" y="52.276317" fill="rgb(0, 100, 0)" style="fill-opacity:1.00" />
<rect height="43.861811" width="10.000000" x="230.000000" y="52.276317" fill="rgb(0, 100, 0)" style="fill-opacity:1.00" />
<!-- End 'T' -->
<!-- Begin 'C' -->
<ellipse cx="235.000000" cy="102.851266" rx="25.000000" ry="6.713138" fill="rgb(0, 0, 128)" style="fill-opacity:1.00" />
<ellipse cx="235.000000" cy="102.851266" rx="16.666667" ry="4.475425" fill="rgb(255, 255, 255)" style="fill-opacity:1.00" />
<rect height="6.713138" width="25.000000" x="235.000000" y="99.494697" fill="rgb(255, 255, 255)" style="fill-opacity:1.00" />
<!-- End 'C' -->
<!-- Begin 'A' -->
<polygon points=" 210.000000, 109.982107, 231.000000, 109.564403, 239.000000, 109.564403, 260.000000, 109.982107, 252.500000, 109.982107, 246.250000, 109.877681, 223.750000, 109.877681, 217.500000, 109.982107" fill="rgb(178, 34, 34)" style="fill-opacity:1.00" />
<!-- End 'A' -->
<!-- Begin 'G' -->
<ellipse cx="235.000000" cy="109.991054" rx="25.000000" ry="0.008946" fill="rgb(255, 165, 0)" style="fill-opacity:1.00" />
<ellipse cx="235.000000" cy="109.991054" rx="16.666667" ry="0.005964" fill="rgb(255, 255, 255)" style="fill-opacity:1.00" />
<rect height="0.008946" width="25.000000" x="235.000000" y="109.986580" fill="rgb(255, 255, 255)" style="fill-opacity:1.00" />
<rect height="0.002237" width="25.000000" x="235.000000" y="109.993290" fill="rgb(255, 165, 0)" style="fill-opacity:1.00" />
<rect height="0.006710" width="6.250000" x="253.750000" y="109.993290" fill="rgb(255, 165, 0)" style="fill-opacity:1.00" />
<!-- End 'G' -->
<!-- Begin 'A' -->
<polygon points=" 270.000000, 100.592952, 291.000000, 55.567074, 299.000000, 55.567074, 320.000000, 100.592952, 312.500000, 100.592952, 306.250000, 89.336482, 283.750000, 89.336482, 277.500000, 100.592952" fill="rgb(178, 34, 34)" style="fill-opacity:1.00" />
<polygon points=" 295.000000, 64.572250, 287.000000, 81.582601, 302.000000, 81.582601" fill="rgb(255, 255, 255)" style="fill-opacity:1.00" />
<!-- End 'A' -->
<!-- Begin 'T' -->
<rect height="0.802168" width="50.000000" x="270.000000" y="100.592952" fill="rgb(0, 100, 0)" style="fill-opacity:1.00" />
<rect height="5.013551" width="10.000000" x="290.000000" y="100.592952" fill="rgb(0, 100, 0)" style="fill-opacity:1.00" />
<!-- End 'T' -->
<!-- Begin 'C' -->
<ellipse cx="295.000000" cy="107.047552" rx="25.000000" ry="1.441049" fill="rgb(0, 0, 128)" style="fill-opacity:1.00" />
<ellipse cx="295.000000" cy="107.047552" rx="16.666667" ry="0.960699" fill="rgb(255, 255, 255)" style="fill-opacity:1.00" />
<rect height="1.441049" width="25.000000" x="295.000000" y="106.327027" fill="rgb(255, 255, 255)" style="fill-opacity:1.00" />
<!-- End 'C' -->
<!-- Begin 'G' -->
<ellipse cx="295.000000" cy="109.244300" rx="25.000000" ry="0.755700" fill="rgb(255, 165, 0)" style="fill-opacity:1.00" />
<ellipse cx="295.000000" cy="109.244300" rx="16.666667" ry="0.503800" fill="rgb(255, 255, 255)" style="fill-opacity:1.00" />
<rect height="0.755700" width="25.000000" x="295.000000" y="108.866451" fill="rgb(255, 255, 255)" style="fill-opacity:1.00" />
<rect height="0.188925" width="25.000000" x="295.000000" y="109.433225" fill="rgb(255, 165, 0)" style="fill-opacity:1.00" />
<rect height="0.566775" width="6.250000" x="313.750000" y="109.433225" fill="rgb(255, 165, 0)" style="fill-opacity:1.00" />
<!-- End 'G' -->
<!-- Begin 'T' -->
<rect height="3.143553" width="50.000000" x="330.000000" y="74.038346" fill="rgb(0, 100, 0)" style="fill-opacity:1.00" />
<rect height="19.647205" width="10.000000" x="350.000000" y="74.038346" fill="rgb(0, 100, 0)" style="fill-opacity:1.00" />
<!-- End 'T' -->
<!-- Begin 'A' -->
<polygon points=" 330.000000, 107.874180, 351.000000, 93.685551, 359.000000, 93.685551, 380.000000, 107.874180, 372.500000, 107.874180, 366.250000, 104.327023, 343.750000, 104.327023, 337.500000, 107.874180" fill="rgb(178, 34, 34)" style="fill-opacity:1.00" />
<polygon points=" 355.000000, 96.523277, 347.000000, 101.198728, 362.000000, 101.198728" fill="rgb(255, 255, 255)" style="fill-opacity:1.00" />
<!-- End 'A' -->
<!-- Begin 'G' -->
<ellipse cx="355.000000" cy="108.793915" rx="25.000000" ry="0.919735" fill="rgb(255, 165, 0)" style="fill-opacity:1.00" />
<ellipse cx="355.000000" cy="108.793915" rx="16.666667" ry="0.613157" fill="rgb(255, 255, 255)" style="fill-opacity:1.00" />
<rect height="0.919735" width="25.000000" x="355.000000" y="108.334048" fill="rgb(255, 255, 255)" style="fill-opacity:1.00" />
<rect height="0.229934" width="25.000000" x="355.000000" y="109.023849" fill="rgb(255, 165, 0)" style="fill-opacity:1.00" />
<rect height="0.689801" width="6.250000" x="373.750000" y="109.023849" fill="rgb(255, 165, 0)" style="fill-opacity:1.00" />
<!-- End 'G' -->
<!-- Begin 'C' -->
<ellipse cx="355.000000" cy="109.856825" rx="25.000000" ry="0.143175" fill="rgb(0, 0, 128)" style="fill-opacity:1.00" />
<ellipse cx="355.000000" cy="109.856825" rx="16.666667" ry="0.095450" fill="rgb(255, 255, 255)" style="fill-opacity:1.00" />
<rect height="0.143175" width="25.000000" x="355.000000" y="109.785238" fill="rgb(255, 255, 255)" style="fill-opacity:1.00" />
<!-- End 'C' -->
<!-- Begin 'A' -->
<polygon points=" 390.000000, 91.944140, 411.000000, 71.694266, 419.000000, 71.694266, 440.000000, 91.944140, 432.500000, 91.944140, 426.250000, 86.881672, 403.750000, 86.881672, 397.500000, 91.944140" fill="rgb(178, 34, 34)" style="fill-opacity:1.00" />
<polygon points=" 415.000000, 75.744241, 407.000000, 82.844191, 422.000000, 82.844191" fill="rgb(255, 255, 255)" style="fill-opacity:1.00" />
<!-- End 'A' -->
<!-- Begin 'T' -->
<rect height="2.639917" width="50.000000" x="390.000000" y="91.944140" fill="rgb(0, 100, 0)" style="fill-opacity:1.00" />
<rect height="16.499484" width="10.000000" x="410.000000" y="91.944140" fill="rgb(0, 100, 0)" style="fill-opacity:1.00" />
<!-- End 'T' -->
<!-- Begin 'G' -->
<ellipse cx="415.000000" cy="108.976002" rx="25.000000" ry="0.532377" fill="rgb(255, 165, 0)" style="fill-opacity:1.00" />
<ellipse cx="415.000000" cy="108.976002" rx="16.666667" ry="0.354918" fill="rgb(255, 255, 255)" style="fill-opacity:1.00" />
<rect height="0.532377" width="25.000000" x="415.000000" y="108.709813" fill="rgb(255, 255, 255)" style="fill-opacity:1.00" />
<rect height="0.133094" width="25.000000" x="415.000000" y="109.109096" fill="rgb(255, 165, 0)" style="fill-opacity:1.00" />
<rect height="0.399283" width="6.250000" x="433.750000" y="109.109096" fill="rgb(255, 165, 0)" style="fill-opacity:1.00" />
<!-- End 'G' -->
<!-- Begin 'C' -->
<ellipse cx="415.000000" cy="109.754190" rx="25.000000" ry="0.245810" fill="rgb(0, 0, 128)" style="fill-opacity:1.00" />
<ellipse cx="415.000000" cy="109.754190" rx="16.666667" ry="0.163874" fill="rgb(255, 255, 255)" style="fill-opacity:1.00" />
<rect height="0.245810" width="25.000000" x="415.000000" y="109.631284" fill="rgb(255, 255, 255)" style="fill-opacity:1.00" />
<!-- End 'C' -->
<!-- Begin 'T' -->
<rect height="2.968059" width="50.000000" x="450.000000" y="72.648053" fill="rgb(0, 100, 0)" style="fill-opacity:1.00" />
<rect height="18.550367" width="10.000000" x="470.000000" y="72.648053" fill="rgb(0, 100, 0)" style="fill-opacity:1.00" />
<!-- End 'T' -->
<!-- Begin 'A' -->
<polygon points=" 450.000000, 108.376855, 471.000000, 91.198420, 479.000000, 91.198420, 500.000000, 108.376855, 492.500000, 108.376855, 486.250000, 104.082246, 463.750000, 104.082246, 457.500000, 108.376855" fill="rgb(178, 34, 34)" style="fill-opacity:1.00" />
<polygon points=" 475.000000, 94.634107, 467.000000, 100.505481, 482.000000, 100.505481" fill="rgb(255, 255, 255)" style="fill-opacity:1.00" />
<!-- End 'A' -->
<!-- Begin 'C' -->
<ellipse cx="475.000000" cy="108.924944" rx="25.000000" ry="0.548089" fill="rgb(0, 0, 128)" style="fill-opacity:1.00" />
<ellipse cx="475.000000" cy="108.924944" rx="16.666667" ry="0.365393" fill="rgb(255, 255, 255)" style="fill-opacity:1.00" />
<rect height="0.548089" width="25.000000" x="475.000000" y="108.650900" fill="rgb(255, 255, 255)" style="fill-opacity:1.00" />
<!-- End 'C' -->
<!-- Begin 'G' -->
<ellipse cx="475.000000" cy="109.736517" rx="25.000000" ry="0.263483" fill="rgb(255, 165, 0)" style="fill-opacity:1.00" />
<ellipse cx="475.000000" cy="109.736517" rx="16.666667" ry="0.175656" fill="rgb(255, 255, 255)" style="fill-opacity:1.00" />
<rect height="0.263483" width="25.000000" x="475.000000" y="109.604775" fill="rgb(255, 255, 255)" style="fill-opacity:1.00" />
<rect height="0.065871" width="25.000000" x="475.000000" y="109.802387" fill="rgb(255, 165, 0)" style="fill-opacity:1.00" />
<rect height="0.197613" width="6.250000" x="493.750000" y="109.802387" fill="rgb(255, 165, 0)" style="fill-opacity:1.00" />
<!-- End 'G' -->
<!-- Begin 'A' -->
<polygon points=" 510.000000, 93.319156, 531.000000, 72.055416, 539.000000, 72.055416, 560.000000, 93.319156, 552.500000, 93.319156, 546.250000, 88.003221, 523.750000, 88.003221, 517.500000, 93.319156" fill="rgb(178, 34, 34)" style="fill-opacity:1.00" />
<polygon points=" 535.000000, 76.308164, 527.000000, 83.813660, 542.000000, 83.813660" fill="rgb(255, 255, 255)" style="fill-opacity:1.00" />
<!-- End 'A' -->
<!-- Begin 'T' -->
<rect height="2.367096" width="50.000000" x="510.000000" y="93.319156" fill="rgb(0, 100, 0)" style="fill-opacity:1.00" />
<rect height="14.794351" width="10.000000" x="530.000000" y="93.319156" fill="rgb(0, 100, 0)" style="fill-opacity:1.00" />
<!-- End 'T' -->
<!-- Begin 'C' -->
<ellipse cx="535.000000" cy="108.933417" rx="25.000000" ry="0.819909" fill="rgb(0, 0, 128)" style="fill-opacity:1.00" />
<ellipse cx="535.000000" cy="108.933417" rx="16.666667" ry="0.546606" fill="rgb(255, 255, 255)" style="fill-opacity:1.00" />
<rect height="0.819909" width="25.000000" x="535.000000" y="108.523462" fill="rgb(255, 255, 255)" style="fill-opacity:1.00" />
<!-- End 'C' -->
<!-- Begin 'G' -->
<ellipse cx="535.000000" cy="109.876663" rx="25.000000" ry="0.123337" fill="rgb(255, 165, 0)" style="fill-opacity:1.00" />
<ellipse cx="535.000000" cy="109.876663" rx="16.666667" ry="0.082224" fill="rgb(255, 255, 255)" style="fill-opacity:1.00" />
<rect height="0.123337" width="25.000000" x="535.000000" y="109.814995" fill="rgb(255, 255, 255)" style="fill-opacity:1.00" />
<rect height="0.030834" width="25.000000" x="535.000000" y="109.907497" fill="rgb(255, 165, 0)" style="fill-opacity:1.00" />
<rect height="0.092503" width="6.250000" x="553.750000" y="109.907497" fill="rgb(255, 165, 0)" style="fill-opacity:1.00" />
<!-- End 'G' -->
<!-- Begin 'T' -->
<rect height="7.680115" width="50.000000" x="570.000000" y="52.888231" fill="rgb(0, 100, 0)" style="fill-opacity:1.00" />
<rect height="48.000717" width="10.000000" x="590.000000" y="52.888231" fill="rgb(0, 100, 0)" style="fill-opacity:1.00" />
<!-- End 'T' -->
<!-- Begin 'A' -->
<polygon points=" 570.000000, 106.096920, 591.000000, 100.888948, 599.000000, 100.888948, 620.000000, 106.096920, 612.500000, 106.096920, 606.250000, 104.794927, 583.750000, 104.794927, 577.500000, 106.096920" fill="rgb(178, 34, 34)" style="fill-opacity:1.00" />
<!-- End 'A' -->
<!-- Begin 'G' -->
<ellipse cx="595.000000" cy="107.205962" rx="25.000000" ry="1.109042" fill="rgb(255, 165, 0)" style="fill-opacity:1.00" />
<ellipse cx="595.000000" cy="107.205962" rx="16.666667" ry="0.739361" fill="rgb(255, 255, 255)" style="fill-opacity:1.00" />
<rect height="1.109042" width="25.000000" x="595.000000" y="106.651441" fill="rgb(255, 255, 255)" style="fill-opacity:1.00" />
<rect height="0.277260" width="25.000000" x="595.000000" y="107.483223" fill="rgb(255, 165, 0)" style="fill-opacity:1.00" />
<rect height="0.831781" width="6.250000" x="613.750000" y="107.483223" fill="rgb(255, 165, 0)" style="fill-opacity:1.00" />
<!-- End 'G' -->
<!-- Begin 'C' -->
<ellipse cx="595.000000" cy="109.157502" rx="25.000000" ry="0.842498" fill="rgb(0, 0, 128)" style="fill-opacity:1.00" />
<ellipse cx="595.000000" cy="109.157502" rx="16.666667" ry="0.561665" fill="rgb(255, 255, 255)" style="fill-opacity:1.00" />
<rect height="0.842498" width="25.000000" x="595.000000" y="108.736253" fill="rgb(255, 255, 255)" style="fill-opacity:1.00" />
<!-- End 'C' -->
<!-- Begin 'A' -->
<polygon points=" 630.000000, 97.584946, 651.000000, 47.333401, 659.000000, 47.333401, 680.000000, 97.584946, 672.500000, 97.584946, 666.250000, 85.022060, 643.750000, 85.022060, 637.500000, 97.584946" fill="rgb(178, 34, 34)" style="fill-opacity:1.00" />
<polygon points=" 655.000000, 57.383710, 647.000000, 76.484328, 662.000000, 76.484328" fill="rgb(255, 255, 255)" style="fill-opacity:1.00" />
<!-- End 'A' -->
<!-- Begin 'G' -->
<ellipse cx="655.000000" cy="103.678414" rx="25.000000" ry="6.093468" fill="rgb(255, 165, 0)" style="fill-opacity:1.00" />
<ellipse cx="655.000000" cy="103.678414" rx="16.666667" ry="4.062312" fill="rgb(255, 255, 255)" style="fill-opacity:1.00" />
<rect height="6.093468" width="25.000000" x="655.000000" y="100.631680" fill="rgb(255, 255, 255)" style="fill-opacity:1.00" />
<rect height="1.523367" width="25.000000" x="655.000000" y="105.201782" fill="rgb(255, 165, 0)" style="fill-opacity:1.00" />
<rect height="4.570101" width="6.250000" x="673.750000" y="105.201782" fill="rgb(255, 165, 0)" style="fill-opacity:1.00" />
<!-- End 'G' -->
<!-- Begin 'T' -->
<rect height="0.030539" width="50.000000" x="630.000000" y="109.771883" fill="rgb(0, 100, 0)" style="fill-opacity:1.00" />
<rect height="0.190866" width="10.000000" x="650.000000" y="109.771883" fill="rgb(0, 100, 0)" style="fill-opacity:1.00" />
<!-- End 'T' -->
<!-- Begin 'C' -->
<ellipse cx="655.000000" cy="109.981375" rx="25.000000" ry="0.018625" fill="rgb(0, 0, 128)" style="fill-opacity:1.00" />
<ellipse cx="655.000000" cy="109.981375" rx="16.666667" ry="0.012417" fill="rgb(255, 255, 255)" style="fill-opacity:1.00" />
<rect height="0.018625" width="25.000000" x="655.000000" y="109.972062" fill="rgb(255, 255, 255)" style="fill-opacity:1.00" />
<!-- End 'C' -->
<!-- Begin 'G' -->
<ellipse cx="715.000000" cy="87.331925" rx="25.000000" ry="12.370992" fill="rgb(255, 165, 0)" style="fill-opacity:1.00" />
<ellipse cx="715.000000" cy="87.331925" rx="16.666667" ry="8.247328" fill="rgb(255, 255, 255)" style="fill-opacity:1.00" />
<rect height="12.370992" width="25.000000" x="715.000000" y="81.146429" fill="rgb(255, 255, 255)" style="fill-opacity:1.00" />
<rect height="3.092748" width="25.000000" x="715.000000" y="90.424673" fill="rgb(255, 165, 0)" style="fill-opacity:1.00" />
<rect height="9.278244" width="6.250000" x="733.750000" y="90.424673" fill="rgb(255, 165, 0)" style="fill-opacity:1.00" />
<!-- End 'G' -->
<!-- Begin 'A' -->
<polygon points=" 690.000000, 105.071384, 711.000000, 99.702917, 719.000000, 99.702917, 740.000000, 105.071384, 732.500000, 105.071384, 726.250000, 103.729267, 703.750000, 103.729267, 697.500000, 105.071384" fill="rgb(178, 34, 34)" style="fill-opacity:1.00" />
<!-- End 'A' -->
<!-- Begin 'T' -->
<rect height="0.508280" width="50.000000" x="690.000000" y="105.071384" fill="rgb(0, 100, 0)" style="fill-opacity:1.00" />
<rect height="3.176751" width="10.000000" x="710.000000" y="105.071384" fill="rgb(0, 100, 0)" style="fill-opacity:1.00" />
<!-- End 'T' -->
<!-- Begin 'C' -->
<ellipse cx="715.000000" cy="109.124068" rx="25.000000" ry="0.875932" fill="rgb(0, 0, 128)" style="fill-opacity:1.00" />
<ellipse cx="715.000000" cy="109.124068" rx="16.666667" ry="0.583955" fill="rgb(255, 255, 255)" style="fill-opacity:1.00" />
<rect height="0.875932" width="25.000000" x="715.000000" y="108.686101" fill="rgb(255, 255, 255)" style="fill-opacity:1.00" />
<!-- End 'C' -->
<!-- Begin 'C' -->
<ellipse cx="775.000000" cy="100.675349" rx="25.000000" ry="2.375181" fill="rgb(0, 0, 128)" style="fill-opacity:1.00" />
<ellipse cx="775.000000" cy="100.675349" rx="16.666667" ry="1.583454" fill="rgb(255, 255, 255)" style="fill-opacity:1.00" />
<rect height="2.375181" width="25.000000" x="775.000000" y="99.487758" fill="rgb(255, 255, 255)" style="fill-opacity:1.00" />
<!-- End 'C' -->
<!-- Begin 'A' -->
<polygon points=" 750.000000, 107.347437, 771.000000, 103.050530, 779.000000, 103.050530, 800.000000, 107.347437, 792.500000, 107.347437, 786.250000, 106.273210, 763.750000, 106.273210, 757.500000, 107.347437" fill="rgb(178, 34, 34)" style="fill-opacity:1.00" />
<!-- End 'A' -->
<!-- Begin 'T' -->
<rect height="0.248624" width="50.000000" x="750.000000" y="107.347437" fill="rgb(0, 100, 0)" style="fill-opacity:1.00" />
<rect height="1.553901" width="10.000000" x="770.000000" y="107.347437" fill="rgb(0, 100, 0)" style="fill-opacity:1.00" />
<!-- End 'T' -->
<!-- Begin 'G' -->
<ellipse cx="775.000000" cy="109.450669" rx="25.000000" ry="0.549331" fill="rgb(255, 165, 0)" style="fill-opacity:1.00" />
<ellipse cx="775.000000" cy="109.450669" rx="16.666667" ry="0.366221" fill="rgb(255, 255, 255)" style="fill-opacity:1.00" />
<rect height="0.549331" width="25.000000" x="775.000000" y="109.176003" fill="rgb(255, 255, 255)" style="fill-opacity:1.00" />
<rect height="0.137333" width="25.000000" x="775.000000" y="109.588002" fill="rgb(255, 165, 0)" style="fill-opacity:1.00" />
<rect height="0.411998" width="6.250000" x="793.750000" y="109.588002" fill="rgb(255, 165, 0)" style="fill-opacity:1.00" />
<!-- End 'G' -->
<text x="430.000000" y="165">
IC = 9.45
</text>

</svg>
