<?xml version="1.0" encoding="UTF-8" standalone="yes"?>
                 <!DOCTYPE svg PUBLIC "-//W3C//DTD SVG 1.0//EN" "http://www.w3.org/TR/2001/REC-SVG-20010904/DTD/svg10.dtd">
                 <svg height="170" width="720" xmlns="http://www.w3.org/2000/svg" xmlns:xlink="http://www.w3.org/1999/xlink">
                 <line x1="85" y1="120" x2="687" y2="120" style="stroke:rgb(99,99,99);stroke-width:2" />
<rect height="7.000000" width="2.000000" x="85.000000" y="120.000000" fill="rgb(0, 0, 0)" style="fill-opacity:1.00" />
<text x="107.000000" y="140">
1
</text>
<rect height="7.000000" width="2.000000" x="145.000000" y="120.000000" fill="rgb(0, 0, 0)" style="fill-opacity:1.00" />
<text x="167.000000" y="140">
2
</text>
<rect height="7.000000" width="2.000000" x="205.000000" y="120.000000" fill="rgb(0, 0, 0)" style="fill-opacity:1.00" />
<text x="227.000000" y="140">
3
</text>
<rect height="7.000000" width="2.000000" x="265.000000" y="120.000000" fill="rgb(0, 0, 0)" style="fill-opacity:1.00" />
<text x="287.000000" y="140">
4
</text>
<rect height="7.000000" width="2.000000" x="325.000000" y="120.000000" fill="rgb(0, 0, 0)" style="fill-opacity:1.00" />
<text x="347.000000" y="140">
5
</text>
<rect height="7.000000" width="2.000000" x="385.000000" y="120.000000" fill="rgb(0, 0, 0)" style="fill-opacity:1.00" />
<text x="407.000000" y="140">
6
</text>
<rect height="7.000000" width="2.000000" x="445.000000" y="120.000000" fill="rgb(0, 0, 0)" style="fill-opacity:1.00" />
<text x="467.000000" y="140">
7
</text>
<rect height="7.000000" width="2.000000" x="505.000000" y="120.000000" fill="rgb(0, 0, 0)" style="fill-opacity:1.00" />
<text x="527.000000" y="140">
8
</text>
<rect height="7.000000" width="2.000000" x="565.000000" y="120.000000" fill="rgb(0, 0, 0)" style="fill-opacity:1.00" />
<text x="587.000000" y="140">
9
</text>
<rect height="7.000000" width="2.000000" x="625.000000" y="120.000000" fill="rgb(0, 0, 0)" style="fill-opacity:1.00" />
<text x="647.000000" y="140">
10
</text>
<rect height="7.000000" width="2.000000" x="685.000000" y="120.000000" fill="rgb(0, 0, 0)" style="fill-opacity:1.00" />
<line x1="80" y1="112" x2="80" y2="10" style="stroke:rgb(99,99,99);stroke-width:2" />
<rect height="2.000000" width="7.000000" x="73.000000" y="110.000000" fill="rgb(0, 0, 0)" style="fill-opacity:1.00" />
<text x="63" y="115">
0
</text>
<rect height="2.000000" width="7.000000" x="73.000000" y="60.000000" fill="rgb(0, 0, 0)" style="fill-opacity:1.00" />
<text x="63" y="65">
1
</text>
<rect height="2.000000" width="7.000000" x="73.000000" y="10.000000" fill="rgb(0, 0, 0)" style="fill-opacity:1.00" />
<text x="63" y="15">
2
</text>
<text x="50" y="65"
transform="rotate(-90, 50, 70)">
bits
</text>
<!-- Begin 'G' -->
<ellipse cx="115.000000" cy="108.375796" rx="25.000000" ry="0.274223" fill="rgb(255, 165, 0)" style="fill-opacity:1.00" />
<ellipse cx="115.000000" cy="108.375796" rx="16.666667" ry="0.182816" fill="rgb(255, 255, 255)" style="fill-opacity:1.00" />
<rect height="0.274223" width="25.000000" x="115.000000" y="108.238685" fill="rgb(255, 255, 255)" style="fill-opacity:1.00" />
<rect height="0.068556" width="25.000000" x="115.000000" y="108.444352" fill="rgb(255, 165, 0)" style="fill-opacity:1.00" />
<rect height="0.205668" width="6.250000" x="133.750000" y="108.444352" fill="rgb(255, 165, 0)" style="fill-opacity:1.00" />
<!-- End 'G' -->
<!-- Begin 'T' -->
<rect height="0.085213" width="50.000000" x="90.000000" y="108.650020" fill="rgb(0, 100, 0)" style="fill-opacity:1.00" />
<rect height="0.532583" width="10.000000" x="110.000000" y="108.650020" fill="rgb(0, 100, 0)" style="fill-opacity:1.00" />
<!-- End 'T' -->
<!-- Begin 'A' -->
<polygon points=" 90.000000, 109.703997, 111.000000, 109.182603, 119.000000, 109.182603, 140.000000, 109.703997, 132.500000, 109.703997, 126.250000, 109.573649, 103.750000, 109.573649, 97.500000, 109.703997" fill="rgb(178, 34, 34)" style="fill-opacity:1.00" />
<!-- End 'A' -->
<!-- Begin 'C' -->
<ellipse cx="115.000000" cy="109.851999" rx="25.000000" ry="0.148001" fill="rgb(0, 0, 128)" style="fill-opacity:1.00" />
<ellipse cx="115.000000" cy="109.851999" rx="16.666667" ry="0.098668" fill="rgb(255, 255, 255)" style="fill-opacity:1.00" />
<rect height="0.148001" width="25.000000" x="115.000000" y="109.777998" fill="rgb(255, 255, 255)" style="fill-opacity:1.00" />
<!-- End 'C' -->
<!-- Begin 'A' -->
<polygon points=" 150.000000, 102.409717, 171.000000, 97.180812, 179.000000, 97.180812, 200.000000, 102.409717, 192.500000, 102.409717, 186.250000, 101.102491, 163.750000, 101.102491, 157.500000, 102.409717" fill="rgb(178, 34, 34)" style="fill-opacity:1.00" />
<!-- End 'A' -->
<!-- Begin 'G' -->
<ellipse cx="175.000000" cy="104.688107" rx="25.000000" ry="2.278391" fill="rgb(255, 165, 0)" style="fill-opacity:1.00" />
<ellipse cx="175.000000" cy="104.688107" rx="16.666667" ry="1.518927" fill="rgb(255, 255, 255)" style="fill-opacity:1.00" />
<rect height="2.278391" width="25.000000" x="175.000000" y="103.548912" fill="rgb(255, 255, 255)" style="fill-opacity:1.00" />
<rect height="0.569598" width="25.000000" x="175.000000" y="105.257705" fill="rgb(255, 165, 0)" style="fill-opacity:1.00" />
<rect height="1.708793" width="6.250000" x="193.750000" y="105.257705" fill="rgb(255, 165, 0)" style="fill-opacity:1.00" />
<!-- End 'G' -->
<!-- Begin 'C' -->
<ellipse cx="175.000000" cy="108.098056" rx="25.000000" ry="1.131558" fill="rgb(0, 0, 128)" style="fill-opacity:1.00" />
<ellipse cx="175.000000" cy="108.098056" rx="16.666667" ry="0.754372" fill="rgb(255, 255, 255)" style="fill-opacity:1.00" />
<rect height="1.131558" width="25.000000" x="175.000000" y="107.532277" fill="rgb(255, 255, 255)" style="fill-opacity:1.00" />
<!-- End 'C' -->
<!-- Begin 'T' -->
<rect height="0.123262" width="50.000000" x="150.000000" y="109.229614" fill="rgb(0, 100, 0)" style="fill-opacity:1.00" />
<rect height="0.770386" width="10.000000" x="170.000000" y="109.229614" fill="rgb(0, 100, 0)" style="fill-opacity:1.00" />
<!-- End 'T' -->
<!-- Begin 'T' -->
<rect height="12.551706" width="50.000000" x="210.000000" y="27.561462" fill="rgb(0, 100, 0)" style="fill-opacity:1.00" />
<rect height="78.448165" width="10.000000" x="230.000000" y="27.561462" fill="rgb(0, 100, 0)" style="fill-opacity:1.00" />
<!-- End 'T' -->
<!-- Begin 'A' -->
<polygon points=" 210.000000, 107.677649, 231.000000, 106.009626, 239.000000, 106.009626, 260.000000, 107.677649, 252.500000, 107.677649, 246.250000, 107.260643, 223.750000, 107.260643, 217.500000, 107.677649" fill="rgb(178, 34, 34)" style="fill-opacity:1.00" />
<!-- End 'A' -->
<!-- Begin 'C' -->
<ellipse cx="235.000000" cy="108.510946" rx="25.000000" ry="0.833298" fill="rgb(0, 0, 128)" style="fill-opacity:1.00" />
<ellipse cx="235.000000" cy="108.510946" rx="16.666667" ry="0.555532" fill="rgb(255, 255, 255)" style="fill-opacity:1.00" />
<rect height="0.833298" width="25.000000" x="235.000000" y="108.094297" fill="rgb(255, 255, 255)" style="fill-opacity:1.00" />
<!-- End 'C' -->
<!-- Begin 'G' -->
<ellipse cx="235.000000" cy="109.672122" rx="25.000000" ry="0.327878" fill="rgb(255, 165, 0)" style="fill-opacity:1.00" />
<ellipse cx="235.000000" cy="109.672122" rx="16.666667" ry="0.218585" fill="rgb(255, 255, 255)" style="fill-opacity:1.00" />
<rect height="0.327878" width="25.000000" x="235.000000" y="109.508183" fill="rgb(255, 255, 255)" style="fill-opacity:1.00" />
<rect height="0.081969" width="25.000000" x="235.000000" y="109.754092" fill="rgb(255, 165, 0)" style="fill-opacity:1.00" />
<rect height="0.245908" width="6.250000" x="253.750000" y="109.754092" fill="rgb(255, 165, 0)" style="fill-opacity:1.00" />
<!-- End 'G' -->
<!-- Begin 'G' -->
<ellipse cx="295.000000" cy="76.337320" rx="25.000000" ry="23.071404" fill="rgb(255, 165, 0)" style="fill-opacity:1.00" />
<ellipse cx="295.000000" cy="76.337320" rx="16.666667" ry="15.380936" fill="rgb(255, 255, 255)" style="fill-opacity:1.00" />
<rect height="23.071404" width="25.000000" x="295.000000" y="64.801619" fill="rgb(255, 255, 255)" style="fill-opacity:1.00" />
<rect height="5.767851" width="25.000000" x="295.000000" y="82.105171" fill="rgb(255, 165, 0)" style="fill-opacity:1.00" />
<rect height="17.303553" width="6.250000" x="313.750000" y="82.105171" fill="rgb(255, 165, 0)" style="fill-opacity:1.00" />
<!-- End 'G' -->
<!-- Begin 'T' -->
<rect height="1.339349" width="50.000000" x="270.000000" y="99.408724" fill="rgb(0, 100, 0)" style="fill-opacity:1.00" />
<rect height="8.370933" width="10.000000" x="290.000000" y="99.408724" fill="rgb(0, 100, 0)" style="fill-opacity:1.00" />
<!-- End 'T' -->
<!-- Begin 'C' -->
<ellipse cx="295.000000" cy="108.597593" rx="25.000000" ry="0.817936" fill="rgb(0, 0, 128)" style="fill-opacity:1.00" />
<ellipse cx="295.000000" cy="108.597593" rx="16.666667" ry="0.545291" fill="rgb(255, 255, 255)" style="fill-opacity:1.00" />
<rect height="0.817936" width="25.000000" x="295.000000" y="108.188625" fill="rgb(255, 255, 255)" style="fill-opacity:1.00" />
<!-- End 'C' -->
<!-- Begin 'A' -->
<polygon points=" 270.000000, 110.000000, 291.000000, 109.415530, 299.000000, 109.415530, 320.000000, 110.000000, 312.500000, 110.000000, 306.250000, 109.853882, 283.750000, 109.853882, 277.500000, 110.000000" fill="rgb(178, 34, 34)" style="fill-opacity:1.00" />
<!-- End 'A' -->
<!-- Begin 'A' -->
<polygon points=" 330.000000, 107.765420, 351.000000, 19.845309, 359.000000, 19.845309, 380.000000, 107.765420, 372.500000, 107.765420, 366.250000, 85.785393, 343.750000, 85.785393, 337.500000, 107.765420" fill="rgb(178, 34, 34)" style="fill-opacity:1.00" />
<polygon points=" 355.000000, 37.429331, 347.000000, 71.597376, 362.000000, 71.597376" fill="rgb(255, 255, 255)" style="fill-opacity:1.00" />
<!-- End 'A' -->
<!-- Begin 'T' -->
<rect height="0.175319" width="50.000000" x="330.000000" y="107.765420" fill="rgb(0, 100, 0)" style="fill-opacity:1.00" />
<rect height="1.095742" width="10.000000" x="350.000000" y="107.765420" fill="rgb(0, 100, 0)" style="fill-opacity:1.00" />
<!-- End 'T' -->
<!-- Begin 'G' -->
<ellipse cx="355.000000" cy="109.391016" rx="25.000000" ry="0.529854" fill="rgb(255, 165, 0)" style="fill-opacity:1.00" />
<ellipse cx="355.000000" cy="109.391016" rx="16.666667" ry="0.353236" fill="rgb(255, 255, 255)" style="fill-opacity:1.00" />
<rect height="0.529854" width="25.000000" x="355.000000" y="109.126089" fill="rgb(255, 255, 255)" style="fill-opacity:1.00" />
<rect height="0.132464" width="25.000000" x="355.000000" y="109.523480" fill="rgb(255, 165, 0)" style="fill-opacity:1.00" />
<rect height="0.397391" width="6.250000" x="373.750000" y="109.523480" fill="rgb(255, 165, 0)" style="fill-opacity:1.00" />
<!-- End 'G' -->
<!-- Begin 'C' -->
<ellipse cx="355.000000" cy="109.960435" rx="25.000000" ry="0.039565" fill="rgb(0, 0, 128)" style="fill-opacity:1.00" />
<ellipse cx="355.000000" cy="109.960435" rx="16.666667" ry="0.026377" fill="rgb(255, 255, 255)" style="fill-opacity:1.00" />
<rect height="0.039565" width="25.000000" x="355.000000" y="109.940653" fill="rgb(255, 255, 255)" style="fill-opacity:1.00" />
<!-- End 'C' -->
<!-- Begin 'C' -->
<ellipse cx="415.000000" cy="86.486851" rx="25.000000" ry="12.655150" fill="rgb(0, 0, 128)" style="fill-opacity:1.00" />
<ellipse cx="415.000000" cy="86.486851" rx="16.666667" ry="8.436767" fill="rgb(255, 255, 255)" style="fill-opacity:1.00" />
<rect height="12.655150" width="25.000000" x="415.000000" y="80.159276" fill="rgb(255, 255, 255)" style="fill-opacity:1.00" />
<!-- End 'C' -->
<!-- Begin 'T' -->
<rect height="1.040868" width="50.000000" x="390.000000" y="99.142000" fill="rgb(0, 100, 0)" style="fill-opacity:1.00" />
<rect height="6.505426" width="10.000000" x="410.000000" y="99.142000" fill="rgb(0, 100, 0)" style="fill-opacity:1.00" />
<!-- End 'T' -->
<!-- Begin 'G' -->
<ellipse cx="415.000000" cy="107.207597" rx="25.000000" ry="1.560171" fill="rgb(255, 165, 0)" style="fill-opacity:1.00" />
<ellipse cx="415.000000" cy="107.207597" rx="16.666667" ry="1.040114" fill="rgb(255, 255, 255)" style="fill-opacity:1.00" />
<rect height="1.560171" width="25.000000" x="415.000000" y="106.427512" fill="rgb(255, 255, 255)" style="fill-opacity:1.00" />
<rect height="0.390043" width="25.000000" x="415.000000" y="107.597640" fill="rgb(255, 165, 0)" style="fill-opacity:1.00" />
<rect height="1.170128" width="6.250000" x="433.750000" y="107.597640" fill="rgb(255, 165, 0)" style="fill-opacity:1.00" />
<!-- End 'G' -->
<!-- Begin 'A' -->
<polygon points=" 390.000000, 110.000000, 411.000000, 108.767768, 419.000000, 108.767768, 440.000000, 110.000000, 432.500000, 110.000000, 426.250000, 109.691942, 403.750000, 109.691942, 397.500000, 110.000000" fill="rgb(178, 34, 34)" style="fill-opacity:1.00" />
<!-- End 'A' -->
<!-- Begin 'G' -->
<ellipse cx="475.000000" cy="88.969359" rx="25.000000" ry="10.891351" fill="rgb(255, 165, 0)" style="fill-opacity:1.00" />
<ellipse cx="475.000000" cy="88.969359" rx="16.666667" ry="7.260901" fill="rgb(255, 255, 255)" style="fill-opacity:1.00" />
<rect height="10.891351" width="25.000000" x="475.000000" y="83.523683" fill="rgb(255, 255, 255)" style="fill-opacity:1.00" />
<rect height="2.722838" width="25.000000" x="475.000000" y="91.692197" fill="rgb(255, 165, 0)" style="fill-opacity:1.00" />
<rect height="8.168513" width="6.250000" x="493.750000" y="91.692197" fill="rgb(255, 165, 0)" style="fill-opacity:1.00" />
<!-- End 'G' -->
<!-- Begin 'A' -->
<polygon points=" 450.000000, 105.397480, 471.000000, 99.860710, 479.000000, 99.860710, 500.000000, 105.397480, 492.500000, 105.397480, 486.250000, 104.013288, 463.750000, 104.013288, 457.500000, 105.397480" fill="rgb(178, 34, 34)" style="fill-opacity:1.00" />
<!-- End 'A' -->
<!-- Begin 'T' -->
<rect height="0.378509" width="50.000000" x="450.000000" y="105.397480" fill="rgb(0, 100, 0)" style="fill-opacity:1.00" />
<rect height="2.365679" width="10.000000" x="470.000000" y="105.397480" fill="rgb(0, 100, 0)" style="fill-opacity:1.00" />
<!-- End 'T' -->
<!-- Begin 'C' -->
<ellipse cx="475.000000" cy="108.881580" rx="25.000000" ry="1.118420" fill="rgb(0, 0, 128)" style="fill-opacity:1.00" />
<ellipse cx="475.000000" cy="108.881580" rx="16.666667" ry="0.745613" fill="rgb(255, 255, 255)" style="fill-opacity:1.00" />
<rect height="1.118420" width="25.000000" x="475.000000" y="108.322370" fill="rgb(255, 255, 255)" style="fill-opacity:1.00" />
<!-- End 'C' -->
<!-- Begin 'T' -->
<rect height="9.370854" width="50.000000" x="510.000000" y="43.178438" fill="rgb(0, 100, 0)" style="fill-opacity:1.00" />
<rect height="58.567839" width="10.000000" x="530.000000" y="43.178438" fill="rgb(0, 100, 0)" style="fill-opacity:1.00" />
<!-- End 'T' -->
<!-- Begin 'C' -->
<ellipse cx="535.000000" cy="104.735446" rx="25.000000" ry="2.989170" fill="rgb(0, 0, 128)" style="fill-opacity:1.00" />
<ellipse cx="535.000000" cy="104.735446" rx="16.666667" ry="1.992780" fill="rgb(255, 255, 255)" style="fill-opacity:1.00" />
<rect height="2.989170" width="25.000000" x="535.000000" y="103.240861" fill="rgb(255, 255, 255)" style="fill-opacity:1.00" />
<!-- End 'C' -->
<!-- Begin 'A' -->
<polygon points=" 510.000000, 109.697668, 531.000000, 107.724616, 539.000000, 107.724616, 560.000000, 109.697668, 552.500000, 109.697668, 546.250000, 109.204405, 523.750000, 109.204405, 517.500000, 109.697668" fill="rgb(178, 34, 34)" style="fill-opacity:1.00" />
<!-- End 'A' -->
<!-- Begin 'G' -->
<ellipse cx="535.000000" cy="109.848834" rx="25.000000" ry="0.151166" fill="rgb(255, 165, 0)" style="fill-opacity:1.00" />
<ellipse cx="535.000000" cy="109.848834" rx="16.666667" ry="0.100777" fill="rgb(255, 255, 255)" style="fill-opacity:1.00" />
<rect height="0.151166" width="25.000000" x="535.000000" y="109.773251" fill="rgb(255, 255, 255)" style="fill-opacity:1.00" />
<rect height="0.037791" width="25.000000" x="535.000000" y="109.886626" fill="rgb(255, 165, 0)" style="fill-opacity:1.00" />
<rect height="0.113374" width="6.250000" x="553.750000" y="109.886626" fill="rgb(255, 165, 0)" style="fill-opacity:1.00" />
<!-- End 'G' -->
<!-- Begin 'C' -->
<ellipse cx="595.000000" cy="97.064898" rx="25.000000" ry="4.937679" fill="rgb(0, 0, 128)" style="fill-opacity:1.00" />
<ellipse cx="595.000000" cy="97.064898" rx="16.666667" ry="3.291786" fill="rgb(255, 255, 255)" style="fill-opacity:1.00" />
<rect height="4.937679" width="25.000000" x="595.000000" y="94.596059" fill="rgb(255, 255, 255)" style="fill-opacity:1.00" />
<!-- End 'C' -->
<!-- Begin 'A' -->
<polygon points=" 570.000000, 106.119603, 591.000000, 102.002578, 599.000000, 102.002578, 620.000000, 106.119603, 612.500000, 106.119603, 606.250000, 105.090346, 583.750000, 105.090346, 577.500000, 106.119603" fill="rgb(178, 34, 34)" style="fill-opacity:1.00" />
<!-- End 'A' -->
<!-- Begin 'G' -->
<ellipse cx="595.000000" cy="107.375231" rx="25.000000" ry="1.255628" fill="rgb(255, 165, 0)" style="fill-opacity:1.00" />
<ellipse cx="595.000000" cy="107.375231" rx="16.666667" ry="0.837085" fill="rgb(255, 255, 255)" style="fill-opacity:1.00" />
<rect height="1.255628" width="25.000000" x="595.000000" y="106.747417" fill="rgb(255, 255, 255)" style="fill-opacity:1.00" />
<rect height="0.313907" width="25.000000" x="595.000000" y="107.689138" fill="rgb(255, 165, 0)" style="fill-opacity:1.00" />
<rect height="0.941721" width="6.250000" x="613.750000" y="107.689138" fill="rgb(255, 165, 0)" style="fill-opacity:1.00" />
<!-- End 'G' -->
<!-- Begin 'T' -->
<rect height="0.219063" width="50.000000" x="570.000000" y="108.630858" fill="rgb(0, 100, 0)" style="fill-opacity:1.00" />
<rect height="1.369142" width="10.000000" x="590.000000" y="108.630858" fill="rgb(0, 100, 0)" style="fill-opacity:1.00" />
<!-- End 'T' -->
<!-- Begin 'A' -->
<polygon points=" 630.000000, 100.170269, 651.000000, 80.285557, 659.000000, 80.285557, 680.000000, 100.170269, 672.500000, 100.170269, 666.250000, 95.199091, 643.750000, 95.199091, 637.500000, 100.170269" fill="rgb(178, 34, 34)" style="fill-opacity:1.00" />
<polygon points=" 655.000000, 84.262499, 647.000000, 91.216384, 662.000000, 91.216384" fill="rgb(255, 255, 255)" style="fill-opacity:1.00" />
<!-- End 'A' -->
<!-- Begin 'T' -->
<rect height="0.659758" width="50.000000" x="630.000000" y="100.170269" fill="rgb(0, 100, 0)" style="fill-opacity:1.00" />
<rect height="4.123485" width="10.000000" x="650.000000" y="100.170269" fill="rgb(0, 100, 0)" style="fill-opacity:1.00" />
<!-- End 'T' -->
<!-- Begin 'G' -->
<ellipse cx="655.000000" cy="106.335954" rx="25.000000" ry="2.042200" fill="rgb(255, 165, 0)" style="fill-opacity:1.00" />
<ellipse cx="655.000000" cy="106.335954" rx="16.666667" ry="1.361467" fill="rgb(255, 255, 255)" style="fill-opacity:1.00" />
<rect height="2.042200" width="25.000000" x="655.000000" y="105.314854" fill="rgb(255, 255, 255)" style="fill-opacity:1.00" />
<rect height="0.510550" width="25.000000" x="655.000000" y="106.846504" fill="rgb(255, 165, 0)" style="fill-opacity:1.00" />
<rect height="1.531650" width="6.250000" x="673.750000" y="106.846504" fill="rgb(255, 165, 0)" style="fill-opacity:1.00" />
<!-- End 'G' -->
<!-- Begin 'C' -->
<ellipse cx="655.000000" cy="109.189077" rx="25.000000" ry="0.810923" fill="rgb(0, 0, 128)" style="fill-opacity:1.00" />
<ellipse cx="655.000000" cy="109.189077" rx="16.666667" ry="0.540615" fill="rgb(255, 255, 255)" style="fill-opacity:1.00" />
<rect height="0.810923" width="25.000000" x="655.000000" y="108.783615" fill="rgb(255, 255, 255)" style="fill-opacity:1.00" />
<!-- End 'C' -->
<text x="370.000000" y="165">
IC = 8.53
</text>

</svg>
