<?xml version="1.0" encoding="UTF-8" standalone="yes"?>
                 <!DOCTYPE svg PUBLIC "-//W3C//DTD SVG 1.0//EN" "http://www.w3.org/TR/2001/REC-SVG-20010904/DTD/svg10.dtd">
                 <svg height="170" width="720" xmlns="http://www.w3.org/2000/svg" xmlns:xlink="http://www.w3.org/1999/xlink">
                 <line x1="85" y1="120" x2="687" y2="120" style="stroke:rgb(99,99,99);stroke-width:2" />
<rect height="7.000000" width="2.000000" x="85.000000" y="120.000000" fill="rgb(0, 0, 0)" style="fill-opacity:1.00" />
<text x="107.000000" y="140">
1
</text>
<rect height="7.000000" width="2.000000" x="145.000000" y="120.000000" fill="rgb(0, 0, 0)" style="fill-opacity:1.00" />
<text x="167.000000" y="140">
2
</text>
<rect height="7.000000" width="2.000000" x="205.000000" y="120.000000" fill="rgb(0, 0, 0)" style="fill-opacity:1.00" />
<text x="227.000000" y="140">
3
</text>
<rect height="7.000000" width="2.000000" x="265.000000" y="120.000000" fill="rgb(0, 0, 0)" style="fill-opacity:1.00" />
<text x="287.000000" y="140">
4
</text>
<rect height="7.000000" width="2.000000" x="325.000000" y="120.000000" fill="rgb(0, 0, 0)" style="fill-opacity:1.00" />
<text x="347.000000" y="140">
5
</text>
<rect height="7.000000" width="2.000000" x="385.000000" y="120.000000" fill="rgb(0, 0, 0)" style="fill-opacity:1.00" />
<text x="407.000000" y="140">
6
</text>
<rect height="7.000000" width="2.000000" x="445.000000" y="120.000000" fill="rgb(0, 0, 0)" style="fill-opacity:1.00" />
<text x="467.000000" y="140">
7
</text>
<rect height="7.000000" width="2.000000" x="505.000000" y="120.000000" fill="rgb(0, 0, 0)" style="fill-opacity:1.00" />
<text x="527.000000" y="140">
8
</text>
<rect height="7.000000" width="2.000000" x="565.000000" y="120.000000" fill="rgb(0, 0, 0)" style="fill-opacity:1.00" />
<text x="587.000000" y="140">
9
</text>
<rect height="7.000000" width="2.000000" x="625.000000" y="120.000000" fill="rgb(0, 0, 0)" style="fill-opacity:1.00" />
<text x="647.000000" y="140">
10
</text>
<rect height="7.000000" width="2.000000" x="685.000000" y="120.000000" fill="rgb(0, 0, 0)" style="fill-opacity:1.00" />
<line x1="80" y1="112" x2="80" y2="10" style="stroke:rgb(99,99,99);stroke-width:2" />
<rect height="2.000000" width="7.000000" x="73.000000" y="110.000000" fill="rgb(0, 0, 0)" style="fill-opacity:1.00" />
<text x="63" y="115">
0
</text>
<rect height="2.000000" width="7.000000" x="73.000000" y="60.000000" fill="rgb(0, 0, 0)" style="fill-opacity:1.00" />
<text x="63" y="65">
1
</text>
<rect height="2.000000" width="7.000000" x="73.000000" y="10.000000" fill="rgb(0, 0, 0)" style="fill-opacity:1.00" />
<text x="63" y="15">
2
</text>
<text x="50" y="65"
transform="rotate(-90, 50, 70)">
bits
</text>
<!-- Begin 'T' -->
<rect height="0.269412" width="50.000000" x="90.000000" y="105.027100" fill="rgb(0, 100, 0)" style="fill-opacity:1.00" />
<rect height="1.683822" width="10.000000" x="110.000000" y="105.027100" fill="rgb(0, 100, 0)" style="fill-opacity:1.00" />
<!-- End 'T' -->
<!-- Begin 'A' -->
<polygon points=" 90.000000, 108.365988, 111.000000, 106.710922, 119.000000, 106.710922, 140.000000, 108.365988, 132.500000, 108.365988, 126.250000, 107.952221, 103.750000, 107.952221, 97.500000, 108.365988" fill="rgb(178, 34, 34)" style="fill-opacity:1.00" />
<!-- End 'A' -->
<!-- Begin 'G' -->
<ellipse cx="115.000000" cy="108.869337" rx="25.000000" ry="0.503349" fill="rgb(255, 165, 0)" style="fill-opacity:1.00" />
<ellipse cx="115.000000" cy="108.869337" rx="16.666667" ry="0.335566" fill="rgb(255, 255, 255)" style="fill-opacity:1.00" />
<rect height="0.503349" width="25.000000" x="115.000000" y="108.617662" fill="rgb(255, 255, 255)" style="fill-opacity:1.00" />
<rect height="0.125837" width="25.000000" x="115.000000" y="108.995174" fill="rgb(255, 165, 0)" style="fill-opacity:1.00" />
<rect height="0.377512" width="6.250000" x="133.750000" y="108.995174" fill="rgb(255, 165, 0)" style="fill-opacity:1.00" />
<!-- End 'G' -->
<!-- Begin 'C' -->
<ellipse cx="115.000000" cy="109.686343" rx="25.000000" ry="0.313657" fill="rgb(0, 0, 128)" style="fill-opacity:1.00" />
<ellipse cx="115.000000" cy="109.686343" rx="16.666667" ry="0.209105" fill="rgb(255, 255, 255)" style="fill-opacity:1.00" />
<rect height="0.313657" width="25.000000" x="115.000000" y="109.529514" fill="rgb(255, 255, 255)" style="fill-opacity:1.00" />
<!-- End 'C' -->
<!-- Begin 'A' -->
<polygon points=" 150.000000, 107.878128, 171.000000, 106.583709, 179.000000, 106.583709, 200.000000, 107.878128, 192.500000, 107.878128, 186.250000, 107.554524, 163.750000, 107.554524, 157.500000, 107.878128" fill="rgb(178, 34, 34)" style="fill-opacity:1.00" />
<!-- End 'A' -->
<!-- Begin 'C' -->
<ellipse cx="175.000000" cy="108.299615" rx="25.000000" ry="0.421487" fill="rgb(0, 0, 128)" style="fill-opacity:1.00" />
<ellipse cx="175.000000" cy="108.299615" rx="16.666667" ry="0.280991" fill="rgb(255, 255, 255)" style="fill-opacity:1.00" />
<rect height="0.421487" width="25.000000" x="175.000000" y="108.088872" fill="rgb(255, 255, 255)" style="fill-opacity:1.00" />
<!-- End 'C' -->
<!-- Begin 'G' -->
<ellipse cx="175.000000" cy="109.068296" rx="25.000000" ry="0.347194" fill="rgb(255, 165, 0)" style="fill-opacity:1.00" />
<ellipse cx="175.000000" cy="109.068296" rx="16.666667" ry="0.231463" fill="rgb(255, 255, 255)" style="fill-opacity:1.00" />
<rect height="0.347194" width="25.000000" x="175.000000" y="108.894699" fill="rgb(255, 255, 255)" style="fill-opacity:1.00" />
<rect height="0.086799" width="25.000000" x="175.000000" y="109.155095" fill="rgb(255, 165, 0)" style="fill-opacity:1.00" />
<rect height="0.260396" width="6.250000" x="193.750000" y="109.155095" fill="rgb(255, 165, 0)" style="fill-opacity:1.00" />
<!-- End 'G' -->
<!-- Begin 'T' -->
<rect height="0.093522" width="50.000000" x="150.000000" y="109.415490" fill="rgb(0, 100, 0)" style="fill-opacity:1.00" />
<rect height="0.584510" width="10.000000" x="170.000000" y="109.415490" fill="rgb(0, 100, 0)" style="fill-opacity:1.00" />
<!-- End 'T' -->
<!-- Begin 'T' -->
<rect height="2.958811" width="50.000000" x="210.000000" y="79.983515" fill="rgb(0, 100, 0)" style="fill-opacity:1.00" />
<rect height="18.492569" width="10.000000" x="230.000000" y="79.983515" fill="rgb(0, 100, 0)" style="fill-opacity:1.00" />
<!-- End 'T' -->
<!-- Begin 'A' -->
<polygon points=" 210.000000, 106.183521, 231.000000, 98.476085, 239.000000, 98.476085, 260.000000, 106.183521, 252.500000, 106.183521, 246.250000, 104.256662, 223.750000, 104.256662, 217.500000, 106.183521" fill="rgb(178, 34, 34)" style="fill-opacity:1.00" />
<!-- End 'A' -->
<!-- Begin 'C' -->
<ellipse cx="235.000000" cy="107.743316" rx="25.000000" ry="1.559795" fill="rgb(0, 0, 128)" style="fill-opacity:1.00" />
<ellipse cx="235.000000" cy="107.743316" rx="16.666667" ry="1.039863" fill="rgb(255, 255, 255)" style="fill-opacity:1.00" />
<rect height="1.559795" width="25.000000" x="235.000000" y="106.963418" fill="rgb(255, 255, 255)" style="fill-opacity:1.00" />
<!-- End 'C' -->
<!-- Begin 'G' -->
<ellipse cx="235.000000" cy="109.651556" rx="25.000000" ry="0.348444" fill="rgb(255, 165, 0)" style="fill-opacity:1.00" />
<ellipse cx="235.000000" cy="109.651556" rx="16.666667" ry="0.232296" fill="rgb(255, 255, 255)" style="fill-opacity:1.00" />
<rect height="0.348444" width="25.000000" x="235.000000" y="109.477333" fill="rgb(255, 255, 255)" style="fill-opacity:1.00" />
<rect height="0.087111" width="25.000000" x="235.000000" y="109.738667" fill="rgb(255, 165, 0)" style="fill-opacity:1.00" />
<rect height="0.261333" width="6.250000" x="253.750000" y="109.738667" fill="rgb(255, 165, 0)" style="fill-opacity:1.00" />
<!-- End 'G' -->
<!-- Begin 'G' -->
<ellipse cx="295.000000" cy="99.703994" rx="25.000000" ry="2.791084" fill="rgb(255, 165, 0)" style="fill-opacity:1.00" />
<ellipse cx="295.000000" cy="99.703994" rx="16.666667" ry="1.860723" fill="rgb(255, 255, 255)" style="fill-opacity:1.00" />
<rect height="2.791084" width="25.000000" x="295.000000" y="98.308452" fill="rgb(255, 255, 255)" style="fill-opacity:1.00" />
<rect height="0.697771" width="25.000000" x="295.000000" y="100.401766" fill="rgb(255, 165, 0)" style="fill-opacity:1.00" />
<rect height="2.093313" width="6.250000" x="313.750000" y="100.401766" fill="rgb(255, 165, 0)" style="fill-opacity:1.00" />
<!-- End 'G' -->
<!-- Begin 'T' -->
<rect height="0.736830" width="50.000000" x="270.000000" y="102.495079" fill="rgb(0, 100, 0)" style="fill-opacity:1.00" />
<rect height="4.605186" width="10.000000" x="290.000000" y="102.495079" fill="rgb(0, 100, 0)" style="fill-opacity:1.00" />
<!-- End 'T' -->
<!-- Begin 'C' -->
<ellipse cx="295.000000" cy="108.076414" rx="25.000000" ry="0.976149" fill="rgb(0, 0, 128)" style="fill-opacity:1.00" />
<ellipse cx="295.000000" cy="108.076414" rx="16.666667" ry="0.650766" fill="rgb(255, 255, 255)" style="fill-opacity:1.00" />
<rect height="0.976149" width="25.000000" x="295.000000" y="107.588339" fill="rgb(255, 255, 255)" style="fill-opacity:1.00" />
<!-- End 'C' -->
<!-- Begin 'A' -->
<polygon points=" 270.000000, 110.000000, 291.000000, 109.052563, 299.000000, 109.052563, 320.000000, 110.000000, 312.500000, 110.000000, 306.250000, 109.763141, 283.750000, 109.763141, 277.500000, 110.000000" fill="rgb(178, 34, 34)" style="fill-opacity:1.00" />
<!-- End 'A' -->
<!-- Begin 'A' -->
<polygon points=" 330.000000, 97.439037, 351.000000, 73.586118, 359.000000, 73.586118, 380.000000, 97.439037, 372.500000, 97.439037, 366.250000, 91.475807, 343.750000, 91.475807, 337.500000, 97.439037" fill="rgb(178, 34, 34)" style="fill-opacity:1.00" />
<polygon points=" 355.000000, 78.356702, 347.000000, 86.897869, 362.000000, 86.897869" fill="rgb(255, 255, 255)" style="fill-opacity:1.00" />
<!-- End 'A' -->
<!-- Begin 'T' -->
<rect height="1.558914" width="50.000000" x="330.000000" y="97.439037" fill="rgb(0, 100, 0)" style="fill-opacity:1.00" />
<rect height="9.743215" width="10.000000" x="350.000000" y="97.439037" fill="rgb(0, 100, 0)" style="fill-opacity:1.00" />
<!-- End 'T' -->
<!-- Begin 'G' -->
<ellipse cx="355.000000" cy="107.908384" rx="25.000000" ry="0.726132" fill="rgb(255, 165, 0)" style="fill-opacity:1.00" />
<ellipse cx="355.000000" cy="107.908384" rx="16.666667" ry="0.484088" fill="rgb(255, 255, 255)" style="fill-opacity:1.00" />
<rect height="0.726132" width="25.000000" x="355.000000" y="107.545318" fill="rgb(255, 255, 255)" style="fill-opacity:1.00" />
<rect height="0.181533" width="25.000000" x="355.000000" y="108.089916" fill="rgb(255, 165, 0)" style="fill-opacity:1.00" />
<rect height="0.544599" width="6.250000" x="373.750000" y="108.089916" fill="rgb(255, 165, 0)" style="fill-opacity:1.00" />
<!-- End 'G' -->
<!-- Begin 'C' -->
<ellipse cx="355.000000" cy="109.317258" rx="25.000000" ry="0.682742" fill="rgb(0, 0, 128)" style="fill-opacity:1.00" />
<ellipse cx="355.000000" cy="109.317258" rx="16.666667" ry="0.455162" fill="rgb(255, 255, 255)" style="fill-opacity:1.00" />
<rect height="0.682742" width="25.000000" x="355.000000" y="108.975887" fill="rgb(255, 255, 255)" style="fill-opacity:1.00" />
<!-- End 'C' -->
<!-- Begin 'C' -->
<ellipse cx="415.000000" cy="107.257633" rx="25.000000" ry="0.639985" fill="rgb(0, 0, 128)" style="fill-opacity:1.00" />
<ellipse cx="415.000000" cy="107.257633" rx="16.666667" ry="0.426657" fill="rgb(255, 255, 255)" style="fill-opacity:1.00" />
<rect height="0.639985" width="25.000000" x="415.000000" y="106.937640" fill="rgb(255, 255, 255)" style="fill-opacity:1.00" />
<!-- End 'C' -->
<!-- Begin 'G' -->
<ellipse cx="415.000000" cy="108.285380" rx="25.000000" ry="0.387762" fill="rgb(255, 165, 0)" style="fill-opacity:1.00" />
<ellipse cx="415.000000" cy="108.285380" rx="16.666667" ry="0.258508" fill="rgb(255, 255, 255)" style="fill-opacity:1.00" />
<rect height="0.387762" width="25.000000" x="415.000000" y="108.091499" fill="rgb(255, 255, 255)" style="fill-opacity:1.00" />
<rect height="0.096941" width="25.000000" x="415.000000" y="108.382321" fill="rgb(255, 165, 0)" style="fill-opacity:1.00" />
<rect height="0.290822" width="6.250000" x="433.750000" y="108.382321" fill="rgb(255, 165, 0)" style="fill-opacity:1.00" />
<!-- End 'G' -->
<!-- Begin 'T' -->
<rect height="0.123084" width="50.000000" x="390.000000" y="108.673142" fill="rgb(0, 100, 0)" style="fill-opacity:1.00" />
<rect height="0.769275" width="10.000000" x="410.000000" y="108.673142" fill="rgb(0, 100, 0)" style="fill-opacity:1.00" />
<!-- End 'T' -->
<!-- Begin 'A' -->
<polygon points=" 390.000000, 110.000000, 411.000000, 109.442417, 419.000000, 109.442417, 440.000000, 110.000000, 432.500000, 110.000000, 426.250000, 109.860604, 403.750000, 109.860604, 397.500000, 110.000000" fill="rgb(178, 34, 34)" style="fill-opacity:1.00" />
<!-- End 'A' -->
<!-- Begin 'A' -->
<polygon points=" 450.000000, 104.825423, 471.000000, 101.787416, 479.000000, 101.787416, 500.000000, 104.825423, 492.500000, 104.825423, 486.250000, 104.065921, 463.750000, 104.065921, 457.500000, 104.825423" fill="rgb(178, 34, 34)" style="fill-opacity:1.00" />
<!-- End 'A' -->
<!-- Begin 'T' -->
<rect height="0.452870" width="50.000000" x="450.000000" y="104.825423" fill="rgb(0, 100, 0)" style="fill-opacity:1.00" />
<rect height="2.830437" width="10.000000" x="470.000000" y="104.825423" fill="rgb(0, 100, 0)" style="fill-opacity:1.00" />
<!-- End 'T' -->
<!-- Begin 'G' -->
<ellipse cx="475.000000" cy="108.449293" rx="25.000000" ry="0.793433" fill="rgb(255, 165, 0)" style="fill-opacity:1.00" />
<ellipse cx="475.000000" cy="108.449293" rx="16.666667" ry="0.528955" fill="rgb(255, 255, 255)" style="fill-opacity:1.00" />
<rect height="0.793433" width="25.000000" x="475.000000" y="108.052576" fill="rgb(255, 255, 255)" style="fill-opacity:1.00" />
<rect height="0.198358" width="25.000000" x="475.000000" y="108.647651" fill="rgb(255, 165, 0)" style="fill-opacity:1.00" />
<rect height="0.595075" width="6.250000" x="493.750000" y="108.647651" fill="rgb(255, 165, 0)" style="fill-opacity:1.00" />
<!-- End 'G' -->
<!-- Begin 'C' -->
<ellipse cx="475.000000" cy="109.621363" rx="25.000000" ry="0.378637" fill="rgb(0, 0, 128)" style="fill-opacity:1.00" />
<ellipse cx="475.000000" cy="109.621363" rx="16.666667" ry="0.252425" fill="rgb(255, 255, 255)" style="fill-opacity:1.00" />
<rect height="0.378637" width="25.000000" x="475.000000" y="109.432044" fill="rgb(255, 255, 255)" style="fill-opacity:1.00" />
<!-- End 'C' -->
<!-- Begin 'T' -->
<rect height="0.206966" width="50.000000" x="510.000000" y="106.502813" fill="rgb(0, 100, 0)" style="fill-opacity:1.00" />
<rect height="1.293538" width="10.000000" x="530.000000" y="106.502813" fill="rgb(0, 100, 0)" style="fill-opacity:1.00" />
<!-- End 'T' -->
<!-- Begin 'C' -->
<ellipse cx="535.000000" cy="108.221051" rx="25.000000" ry="0.424700" fill="rgb(0, 0, 128)" style="fill-opacity:1.00" />
<ellipse cx="535.000000" cy="108.221051" rx="16.666667" ry="0.283134" fill="rgb(255, 255, 255)" style="fill-opacity:1.00" />
<rect height="0.424700" width="25.000000" x="535.000000" y="108.008701" fill="rgb(255, 255, 255)" style="fill-opacity:1.00" />
<!-- End 'C' -->
<!-- Begin 'A' -->
<polygon points=" 510.000000, 109.472829, 531.000000, 108.645751, 539.000000, 108.645751, 560.000000, 109.472829, 552.500000, 109.472829, 546.250000, 109.266060, 523.750000, 109.266060, 517.500000, 109.472829" fill="rgb(178, 34, 34)" style="fill-opacity:1.00" />
<!-- End 'A' -->
<!-- Begin 'G' -->
<ellipse cx="535.000000" cy="109.736414" rx="25.000000" ry="0.263586" fill="rgb(255, 165, 0)" style="fill-opacity:1.00" />
<ellipse cx="535.000000" cy="109.736414" rx="16.666667" ry="0.175724" fill="rgb(255, 255, 255)" style="fill-opacity:1.00" />
<rect height="0.263586" width="25.000000" x="535.000000" y="109.604622" fill="rgb(255, 255, 255)" style="fill-opacity:1.00" />
<rect height="0.065896" width="25.000000" x="535.000000" y="109.802311" fill="rgb(255, 165, 0)" style="fill-opacity:1.00" />
<rect height="0.197689" width="6.250000" x="553.750000" y="109.802311" fill="rgb(255, 165, 0)" style="fill-opacity:1.00" />
<!-- End 'G' -->
<!-- Begin 'A' -->
<polygon points=" 570.000000, 104.910365, 591.000000, 100.971180, 599.000000, 100.971180, 620.000000, 104.910365, 612.500000, 104.910365, 606.250000, 103.925568, 583.750000, 103.925568, 577.500000, 104.910365" fill="rgb(178, 34, 34)" style="fill-opacity:1.00" />
<!-- End 'A' -->
<!-- Begin 'T' -->
<rect height="0.387700" width="50.000000" x="570.000000" y="104.910365" fill="rgb(0, 100, 0)" style="fill-opacity:1.00" />
<rect height="2.423124" width="10.000000" x="590.000000" y="104.910365" fill="rgb(0, 100, 0)" style="fill-opacity:1.00" />
<!-- End 'T' -->
<!-- Begin 'C' -->
<ellipse cx="595.000000" cy="108.234665" rx="25.000000" ry="0.901177" fill="rgb(0, 0, 128)" style="fill-opacity:1.00" />
<ellipse cx="595.000000" cy="108.234665" rx="16.666667" ry="0.600785" fill="rgb(255, 255, 255)" style="fill-opacity:1.00" />
<rect height="0.901177" width="25.000000" x="595.000000" y="107.784077" fill="rgb(255, 255, 255)" style="fill-opacity:1.00" />
<!-- End 'C' -->
<!-- Begin 'G' -->
<ellipse cx="595.000000" cy="109.567921" rx="25.000000" ry="0.432079" fill="rgb(255, 165, 0)" style="fill-opacity:1.00" />
<ellipse cx="595.000000" cy="109.567921" rx="16.666667" ry="0.288053" fill="rgb(255, 255, 255)" style="fill-opacity:1.00" />
<rect height="0.432079" width="25.000000" x="595.000000" y="109.351882" fill="rgb(255, 255, 255)" style="fill-opacity:1.00" />
<rect height="0.108020" width="25.000000" x="595.000000" y="109.675941" fill="rgb(255, 165, 0)" style="fill-opacity:1.00" />
<rect height="0.324059" width="6.250000" x="613.750000" y="109.675941" fill="rgb(255, 165, 0)" style="fill-opacity:1.00" />
<!-- End 'G' -->
<!-- Begin 'A' -->
<polygon points=" 630.000000, 107.153414, 651.000000, 105.615654, 659.000000, 105.615654, 680.000000, 107.153414, 672.500000, 107.153414, 666.250000, 106.768974, 643.750000, 106.768974, 637.500000, 107.153414" fill="rgb(178, 34, 34)" style="fill-opacity:1.00" />
<!-- End 'A' -->
<!-- Begin 'T' -->
<rect height="0.217494" width="50.000000" x="630.000000" y="107.153414" fill="rgb(0, 100, 0)" style="fill-opacity:1.00" />
<rect height="1.359337" width="10.000000" x="650.000000" y="107.153414" fill="rgb(0, 100, 0)" style="fill-opacity:1.00" />
<!-- End 'T' -->
<!-- Begin 'G' -->
<ellipse cx="655.000000" cy="108.959270" rx="25.000000" ry="0.446520" fill="rgb(255, 165, 0)" style="fill-opacity:1.00" />
<ellipse cx="655.000000" cy="108.959270" rx="16.666667" ry="0.297680" fill="rgb(255, 255, 255)" style="fill-opacity:1.00" />
<rect height="0.446520" width="25.000000" x="655.000000" y="108.736011" fill="rgb(255, 255, 255)" style="fill-opacity:1.00" />
<rect height="0.111630" width="25.000000" x="655.000000" y="109.070900" fill="rgb(255, 165, 0)" style="fill-opacity:1.00" />
<rect height="0.334890" width="6.250000" x="673.750000" y="109.070900" fill="rgb(255, 165, 0)" style="fill-opacity:1.00" />
<!-- End 'G' -->
<!-- Begin 'C' -->
<ellipse cx="655.000000" cy="109.702895" rx="25.000000" ry="0.297105" fill="rgb(0, 0, 128)" style="fill-opacity:1.00" />
<ellipse cx="655.000000" cy="109.702895" rx="16.666667" ry="0.198070" fill="rgb(255, 255, 255)" style="fill-opacity:1.00" />
<rect height="0.297105" width="25.000000" x="655.000000" y="109.554342" fill="rgb(255, 255, 255)" style="fill-opacity:1.00" />
<!-- End 'C' -->
<text x="370.000000" y="165">
IC = 2.33
</text>

</svg>
