<?xml version="1.0" encoding="UTF-8" standalone="yes"?>
                 <!DOCTYPE svg PUBLIC "-//W3C//DTD SVG 1.0//EN" "http://www.w3.org/TR/2001/REC-SVG-20010904/DTD/svg10.dtd">
                 <svg height="170" width="1080" xmlns="http://www.w3.org/2000/svg" xmlns:xlink="http://www.w3.org/1999/xlink">
                 <line x1="85" y1="120" x2="1047" y2="120" style="stroke:rgb(99,99,99);stroke-width:2" />
<rect height="7.000000" width="2.000000" x="85.000000" y="120.000000" fill="rgb(0, 0, 0)" style="fill-opacity:1.00" />
<text x="107.000000" y="140">
1
</text>
<rect height="7.000000" width="2.000000" x="145.000000" y="120.000000" fill="rgb(0, 0, 0)" style="fill-opacity:1.00" />
<text x="167.000000" y="140">
2
</text>
<rect height="7.000000" width="2.000000" x="205.000000" y="120.000000" fill="rgb(0, 0, 0)" style="fill-opacity:1.00" />
<text x="227.000000" y="140">
3
</text>
<rect height="7.000000" width="2.000000" x="265.000000" y="120.000000" fill="rgb(0, 0, 0)" style="fill-opacity:1.00" />
<text x="287.000000" y="140">
4
</text>
<rect height="7.000000" width="2.000000" x="325.000000" y="120.000000" fill="rgb(0, 0, 0)" style="fill-opacity:1.00" />
<text x="347.000000" y="140">
5
</text>
<rect height="7.000000" width="2.000000" x="385.000000" y="120.000000" fill="rgb(0, 0, 0)" style="fill-opacity:1.00" />
<text x="407.000000" y="140">
6
</text>
<rect height="7.000000" width="2.000000" x="445.000000" y="120.000000" fill="rgb(0, 0, 0)" style="fill-opacity:1.00" />
<text x="467.000000" y="140">
7
</text>
<rect height="7.000000" width="2.000000" x="505.000000" y="120.000000" fill="rgb(0, 0, 0)" style="fill-opacity:1.00" />
<text x="527.000000" y="140">
8
</text>
<rect height="7.000000" width="2.000000" x="565.000000" y="120.000000" fill="rgb(0, 0, 0)" style="fill-opacity:1.00" />
<text x="587.000000" y="140">
9
</text>
<rect height="7.000000" width="2.000000" x="625.000000" y="120.000000" fill="rgb(0, 0, 0)" style="fill-opacity:1.00" />
<text x="647.000000" y="140">
10
</text>
<rect height="7.000000" width="2.000000" x="685.000000" y="120.000000" fill="rgb(0, 0, 0)" style="fill-opacity:1.00" />
<text x="707.000000" y="140">
11
</text>
<rect height="7.000000" width="2.000000" x="745.000000" y="120.000000" fill="rgb(0, 0, 0)" style="fill-opacity:1.00" />
<text x="767.000000" y="140">
12
</text>
<rect height="7.000000" width="2.000000" x="805.000000" y="120.000000" fill="rgb(0, 0, 0)" style="fill-opacity:1.00" />
<text x="827.000000" y="140">
13
</text>
<rect height="7.000000" width="2.000000" x="865.000000" y="120.000000" fill="rgb(0, 0, 0)" style="fill-opacity:1.00" />
<text x="887.000000" y="140">
14
</text>
<rect height="7.000000" width="2.000000" x="925.000000" y="120.000000" fill="rgb(0, 0, 0)" style="fill-opacity:1.00" />
<text x="947.000000" y="140">
15
</text>
<rect height="7.000000" width="2.000000" x="985.000000" y="120.000000" fill="rgb(0, 0, 0)" style="fill-opacity:1.00" />
<text x="1007.000000" y="140">
16
</text>
<rect height="7.000000" width="2.000000" x="1045.000000" y="120.000000" fill="rgb(0, 0, 0)" style="fill-opacity:1.00" />
<line x1="80" y1="112" x2="80" y2="10" style="stroke:rgb(99,99,99);stroke-width:2" />
<rect height="2.000000" width="7.000000" x="73.000000" y="110.000000" fill="rgb(0, 0, 0)" style="fill-opacity:1.00" />
<text x="63" y="115">
0
</text>
<rect height="2.000000" width="7.000000" x="73.000000" y="60.000000" fill="rgb(0, 0, 0)" style="fill-opacity:1.00" />
<text x="63" y="65">
1
</text>
<rect height="2.000000" width="7.000000" x="73.000000" y="10.000000" fill="rgb(0, 0, 0)" style="fill-opacity:1.00" />
<text x="63" y="15">
2
</text>
<text x="50" y="65"
transform="rotate(-90, 50, 70)">
bits
</text>
<!-- Begin 'T' -->
<rect height="0.182248" width="50.000000" x="90.000000" y="106.328303" fill="rgb(0, 100, 0)" style="fill-opacity:1.00" />
<rect height="1.139049" width="10.000000" x="110.000000" y="106.328303" fill="rgb(0, 100, 0)" style="fill-opacity:1.00" />
<!-- End 'T' -->
<!-- Begin 'A' -->
<polygon points=" 90.000000, 108.599037, 111.000000, 107.467352, 119.000000, 107.467352, 140.000000, 108.599037, 132.500000, 108.599037, 126.250000, 108.316116, 103.750000, 108.316116, 97.500000, 108.599037" fill="rgb(178, 34, 34)" style="fill-opacity:1.00" />
<!-- End 'A' -->
<!-- Begin 'C' -->
<ellipse cx="115.000000" cy="109.068545" rx="25.000000" ry="0.469508" fill="rgb(0, 0, 128)" style="fill-opacity:1.00" />
<ellipse cx="115.000000" cy="109.068545" rx="16.666667" ry="0.313005" fill="rgb(255, 255, 255)" style="fill-opacity:1.00" />
<rect height="0.469508" width="25.000000" x="115.000000" y="108.833791" fill="rgb(255, 255, 255)" style="fill-opacity:1.00" />
<!-- End 'C' -->
<!-- Begin 'G' -->
<ellipse cx="115.000000" cy="109.769027" rx="25.000000" ry="0.230973" fill="rgb(255, 165, 0)" style="fill-opacity:1.00" />
<ellipse cx="115.000000" cy="109.769027" rx="16.666667" ry="0.153982" fill="rgb(255, 255, 255)" style="fill-opacity:1.00" />
<rect height="0.230973" width="25.000000" x="115.000000" y="109.653540" fill="rgb(255, 255, 255)" style="fill-opacity:1.00" />
<rect height="0.057743" width="25.000000" x="115.000000" y="109.826770" fill="rgb(255, 165, 0)" style="fill-opacity:1.00" />
<rect height="0.173230" width="6.250000" x="133.750000" y="109.826770" fill="rgb(255, 165, 0)" style="fill-opacity:1.00" />
<!-- End 'G' -->
<!-- Begin 'T' -->
<rect height="0.194489" width="50.000000" x="150.000000" y="106.363881" fill="rgb(0, 100, 0)" style="fill-opacity:1.00" />
<rect height="1.215554" width="10.000000" x="170.000000" y="106.363881" fill="rgb(0, 100, 0)" style="fill-opacity:1.00" />
<!-- End 'T' -->
<!-- Begin 'A' -->
<polygon points=" 150.000000, 108.723080, 171.000000, 107.579435, 179.000000, 107.579435, 200.000000, 108.723080, 192.500000, 108.723080, 186.250000, 108.437169, 163.750000, 108.437169, 157.500000, 108.723080" fill="rgb(178, 34, 34)" style="fill-opacity:1.00" />
<!-- End 'A' -->
<!-- Begin 'G' -->
<ellipse cx="175.000000" cy="109.096745" rx="25.000000" ry="0.373665" fill="rgb(255, 165, 0)" style="fill-opacity:1.00" />
<ellipse cx="175.000000" cy="109.096745" rx="16.666667" ry="0.249110" fill="rgb(255, 255, 255)" style="fill-opacity:1.00" />
<rect height="0.373665" width="25.000000" x="175.000000" y="108.909913" fill="rgb(255, 255, 255)" style="fill-opacity:1.00" />
<rect height="0.093416" width="25.000000" x="175.000000" y="109.190162" fill="rgb(255, 165, 0)" style="fill-opacity:1.00" />
<rect height="0.280249" width="6.250000" x="193.750000" y="109.190162" fill="rgb(255, 165, 0)" style="fill-opacity:1.00" />
<!-- End 'G' -->
<!-- Begin 'C' -->
<ellipse cx="175.000000" cy="109.735205" rx="25.000000" ry="0.264795" fill="rgb(0, 0, 128)" style="fill-opacity:1.00" />
<ellipse cx="175.000000" cy="109.735205" rx="16.666667" ry="0.176530" fill="rgb(255, 255, 255)" style="fill-opacity:1.00" />
<rect height="0.264795" width="25.000000" x="175.000000" y="109.602808" fill="rgb(255, 255, 255)" style="fill-opacity:1.00" />
<!-- End 'C' -->
<!-- Begin 'T' -->
<rect height="0.169109" width="50.000000" x="210.000000" y="107.111132" fill="rgb(0, 100, 0)" style="fill-opacity:1.00" />
<rect height="1.056934" width="10.000000" x="230.000000" y="107.111132" fill="rgb(0, 100, 0)" style="fill-opacity:1.00" />
<!-- End 'T' -->
<!-- Begin 'C' -->
<ellipse cx="235.000000" cy="108.539140" rx="25.000000" ry="0.371075" fill="rgb(0, 0, 128)" style="fill-opacity:1.00" />
<ellipse cx="235.000000" cy="108.539140" rx="16.666667" ry="0.247383" fill="rgb(255, 255, 255)" style="fill-opacity:1.00" />
<rect height="0.371075" width="25.000000" x="235.000000" y="108.353603" fill="rgb(255, 255, 255)" style="fill-opacity:1.00" />
<!-- End 'C' -->
<!-- Begin 'A' -->
<polygon points=" 210.000000, 109.459786, 231.000000, 108.910214, 239.000000, 108.910214, 260.000000, 109.459786, 252.500000, 109.459786, 246.250000, 109.322393, 223.750000, 109.322393, 217.500000, 109.459786" fill="rgb(178, 34, 34)" style="fill-opacity:1.00" />
<!-- End 'A' -->
<!-- Begin 'G' -->
<ellipse cx="235.000000" cy="109.729893" rx="25.000000" ry="0.270107" fill="rgb(255, 165, 0)" style="fill-opacity:1.00" />
<ellipse cx="235.000000" cy="109.729893" rx="16.666667" ry="0.180071" fill="rgb(255, 255, 255)" style="fill-opacity:1.00" />
<rect height="0.270107" width="25.000000" x="235.000000" y="109.594840" fill="rgb(255, 255, 255)" style="fill-opacity:1.00" />
<rect height="0.067527" width="25.000000" x="235.000000" y="109.797420" fill="rgb(255, 165, 0)" style="fill-opacity:1.00" />
<rect height="0.202580" width="6.250000" x="253.750000" y="109.797420" fill="rgb(255, 165, 0)" style="fill-opacity:1.00" />
<!-- End 'G' -->
<!-- Begin 'T' -->
<rect height="1.419736" width="50.000000" x="270.000000" y="89.507972" fill="rgb(0, 100, 0)" style="fill-opacity:1.00" />
<rect height="8.873347" width="10.000000" x="290.000000" y="89.507972" fill="rgb(0, 100, 0)" style="fill-opacity:1.00" />
<!-- End 'T' -->
<!-- Begin 'C' -->
<ellipse cx="295.000000" cy="102.668250" rx="25.000000" ry="4.286931" fill="rgb(0, 0, 128)" style="fill-opacity:1.00" />
<ellipse cx="295.000000" cy="102.668250" rx="16.666667" ry="2.857954" fill="rgb(255, 255, 255)" style="fill-opacity:1.00" />
<rect height="4.286931" width="25.000000" x="295.000000" y="100.524784" fill="rgb(255, 255, 255)" style="fill-opacity:1.00" />
<!-- End 'C' -->
<!-- Begin 'A' -->
<polygon points=" 270.000000, 109.057453, 291.000000, 106.955181, 299.000000, 106.955181, 320.000000, 109.057453, 312.500000, 109.057453, 306.250000, 108.531885, 283.750000, 108.531885, 277.500000, 109.057453" fill="rgb(178, 34, 34)" style="fill-opacity:1.00" />
<!-- End 'A' -->
<!-- Begin 'G' -->
<ellipse cx="295.000000" cy="109.528726" rx="25.000000" ry="0.471274" fill="rgb(255, 165, 0)" style="fill-opacity:1.00" />
<ellipse cx="295.000000" cy="109.528726" rx="16.666667" ry="0.314182" fill="rgb(255, 255, 255)" style="fill-opacity:1.00" />
<rect height="0.471274" width="25.000000" x="295.000000" y="109.293089" fill="rgb(255, 255, 255)" style="fill-opacity:1.00" />
<rect height="0.117818" width="25.000000" x="295.000000" y="109.646545" fill="rgb(255, 165, 0)" style="fill-opacity:1.00" />
<rect height="0.353455" width="6.250000" x="313.750000" y="109.646545" fill="rgb(255, 165, 0)" style="fill-opacity:1.00" />
<!-- End 'G' -->
<!-- Begin 'G' -->
<ellipse cx="355.000000" cy="79.284406" rx="25.000000" ry="13.167779" fill="rgb(255, 165, 0)" style="fill-opacity:1.00" />
<ellipse cx="355.000000" cy="79.284406" rx="16.666667" ry="8.778519" fill="rgb(255, 255, 255)" style="fill-opacity:1.00" />
<rect height="13.167779" width="25.000000" x="355.000000" y="72.700517" fill="rgb(255, 255, 255)" style="fill-opacity:1.00" />
<rect height="3.291945" width="25.000000" x="355.000000" y="82.576351" fill="rgb(255, 165, 0)" style="fill-opacity:1.00" />
<rect height="9.875834" width="6.250000" x="373.750000" y="82.576351" fill="rgb(255, 165, 0)" style="fill-opacity:1.00" />
<!-- End 'G' -->
<!-- Begin 'A' -->
<polygon points=" 330.000000, 108.873716, 351.000000, 92.452186, 359.000000, 92.452186, 380.000000, 108.873716, 372.500000, 108.873716, 366.250000, 104.768334, 343.750000, 104.768334, 337.500000, 108.873716" fill="rgb(178, 34, 34)" style="fill-opacity:1.00" />
<polygon points=" 355.000000, 95.736492, 347.000000, 101.305104, 362.000000, 101.305104" fill="rgb(255, 255, 255)" style="fill-opacity:1.00" />
<!-- End 'A' -->
<!-- Begin 'T' -->
<rect height="0.157642" width="50.000000" x="330.000000" y="108.873716" fill="rgb(0, 100, 0)" style="fill-opacity:1.00" />
<rect height="0.985265" width="10.000000" x="350.000000" y="108.873716" fill="rgb(0, 100, 0)" style="fill-opacity:1.00" />
<!-- End 'T' -->
<!-- Begin 'C' -->
<ellipse cx="355.000000" cy="109.929490" rx="25.000000" ry="0.070510" fill="rgb(0, 0, 128)" style="fill-opacity:1.00" />
<ellipse cx="355.000000" cy="109.929490" rx="16.666667" ry="0.047006" fill="rgb(255, 255, 255)" style="fill-opacity:1.00" />
<rect height="0.070510" width="25.000000" x="355.000000" y="109.894236" fill="rgb(255, 255, 255)" style="fill-opacity:1.00" />
<!-- End 'C' -->
<!-- Begin 'C' -->
<ellipse cx="415.000000" cy="86.786806" rx="25.000000" ry="8.161290" fill="rgb(0, 0, 128)" style="fill-opacity:1.00" />
<ellipse cx="415.000000" cy="86.786806" rx="16.666667" ry="5.440860" fill="rgb(255, 255, 255)" style="fill-opacity:1.00" />
<rect height="8.161290" width="25.000000" x="415.000000" y="82.706161" fill="rgb(255, 255, 255)" style="fill-opacity:1.00" />
<!-- End 'C' -->
<!-- Begin 'T' -->
<rect height="2.026293" width="50.000000" x="390.000000" y="94.948095" fill="rgb(0, 100, 0)" style="fill-opacity:1.00" />
<rect height="12.664332" width="10.000000" x="410.000000" y="94.948095" fill="rgb(0, 100, 0)" style="fill-opacity:1.00" />
<!-- End 'T' -->
<!-- Begin 'G' -->
<ellipse cx="415.000000" cy="108.390347" rx="25.000000" ry="0.777919" fill="rgb(255, 165, 0)" style="fill-opacity:1.00" />
<ellipse cx="415.000000" cy="108.390347" rx="16.666667" ry="0.518613" fill="rgb(255, 255, 255)" style="fill-opacity:1.00" />
<rect height="0.777919" width="25.000000" x="415.000000" y="108.001387" fill="rgb(255, 255, 255)" style="fill-opacity:1.00" />
<rect height="0.194480" width="25.000000" x="415.000000" y="108.584827" fill="rgb(255, 165, 0)" style="fill-opacity:1.00" />
<rect height="0.583440" width="6.250000" x="433.750000" y="108.584827" fill="rgb(255, 165, 0)" style="fill-opacity:1.00" />
<!-- End 'G' -->
<!-- Begin 'A' -->
<polygon points=" 390.000000, 110.000000, 411.000000, 109.168266, 419.000000, 109.168266, 440.000000, 110.000000, 432.500000, 110.000000, 426.250000, 109.792067, 403.750000, 109.792067, 397.500000, 110.000000" fill="rgb(178, 34, 34)" style="fill-opacity:1.00" />
<!-- End 'A' -->
<!-- Begin 'C' -->
<ellipse cx="475.000000" cy="65.303622" rx="25.000000" ry="41.251058" fill="rgb(0, 0, 128)" style="fill-opacity:1.00" />
<ellipse cx="475.000000" cy="65.303622" rx="16.666667" ry="27.500705" fill="rgb(255, 255, 255)" style="fill-opacity:1.00" />
<rect height="41.251058" width="25.000000" x="475.000000" y="44.678093" fill="rgb(255, 255, 255)" style="fill-opacity:1.00" />
<!-- End 'C' -->
<!-- Begin 'T' -->
<rect height="0.358989" width="50.000000" x="450.000000" y="106.554680" fill="rgb(0, 100, 0)" style="fill-opacity:1.00" />
<rect height="2.243684" width="10.000000" x="470.000000" y="106.554680" fill="rgb(0, 100, 0)" style="fill-opacity:1.00" />
<!-- End 'T' -->
<!-- Begin 'A' -->
<polygon points=" 450.000000, 109.990087, 471.000000, 108.798364, 479.000000, 108.798364, 500.000000, 109.990087, 492.500000, 109.990087, 486.250000, 109.692156, 463.750000, 109.692156, 457.500000, 109.990087" fill="rgb(178, 34, 34)" style="fill-opacity:1.00" />
<!-- End 'A' -->
<!-- Begin 'G' -->
<ellipse cx="475.000000" cy="109.995043" rx="25.000000" ry="0.004957" fill="rgb(255, 165, 0)" style="fill-opacity:1.00" />
<ellipse cx="475.000000" cy="109.995043" rx="16.666667" ry="0.003304" fill="rgb(255, 255, 255)" style="fill-opacity:1.00" />
<rect height="0.004957" width="25.000000" x="475.000000" y="109.992565" fill="rgb(255, 255, 255)" style="fill-opacity:1.00" />
<rect height="0.001239" width="25.000000" x="475.000000" y="109.996283" fill="rgb(255, 165, 0)" style="fill-opacity:1.00" />
<rect height="0.003717" width="6.250000" x="493.750000" y="109.996283" fill="rgb(255, 165, 0)" style="fill-opacity:1.00" />
<!-- End 'G' -->
<!-- Begin 'G' -->
<ellipse cx="535.000000" cy="67.140614" rx="25.000000" ry="38.588902" fill="rgb(255, 165, 0)" style="fill-opacity:1.00" />
<ellipse cx="535.000000" cy="67.140614" rx="16.666667" ry="25.725934" fill="rgb(255, 255, 255)" style="fill-opacity:1.00" />
<rect height="38.588902" width="25.000000" x="535.000000" y="47.846164" fill="rgb(255, 255, 255)" style="fill-opacity:1.00" />
<rect height="9.647225" width="25.000000" x="535.000000" y="76.787840" fill="rgb(255, 165, 0)" style="fill-opacity:1.00" />
<rect height="28.941676" width="6.250000" x="553.750000" y="76.787840" fill="rgb(255, 165, 0)" style="fill-opacity:1.00" />
<!-- End 'G' -->
<!-- Begin 'A' -->
<polygon points=" 510.000000, 108.058745, 531.000000, 105.729516, 539.000000, 105.729516, 560.000000, 108.058745, 552.500000, 108.058745, 546.250000, 107.476438, 523.750000, 107.476438, 517.500000, 108.058745" fill="rgb(178, 34, 34)" style="fill-opacity:1.00" />
<!-- End 'A' -->
<!-- Begin 'T' -->
<rect height="0.201694" width="50.000000" x="510.000000" y="108.058745" fill="rgb(0, 100, 0)" style="fill-opacity:1.00" />
<rect height="1.260586" width="10.000000" x="530.000000" y="108.058745" fill="rgb(0, 100, 0)" style="fill-opacity:1.00" />
<!-- End 'T' -->
<!-- Begin 'C' -->
<ellipse cx="535.000000" cy="109.659666" rx="25.000000" ry="0.340334" fill="rgb(0, 0, 128)" style="fill-opacity:1.00" />
<ellipse cx="535.000000" cy="109.659666" rx="16.666667" ry="0.226890" fill="rgb(255, 255, 255)" style="fill-opacity:1.00" />
<rect height="0.340334" width="25.000000" x="535.000000" y="109.489498" fill="rgb(255, 255, 255)" style="fill-opacity:1.00" />
<!-- End 'C' -->
<!-- Begin 'G' -->
<ellipse cx="595.000000" cy="87.049313" rx="25.000000" ry="7.177648" fill="rgb(255, 165, 0)" style="fill-opacity:1.00" />
<ellipse cx="595.000000" cy="87.049313" rx="16.666667" ry="4.785098" fill="rgb(255, 255, 255)" style="fill-opacity:1.00" />
<rect height="7.177648" width="25.000000" x="595.000000" y="83.460489" fill="rgb(255, 255, 255)" style="fill-opacity:1.00" />
<rect height="1.794412" width="25.000000" x="595.000000" y="88.843725" fill="rgb(255, 165, 0)" style="fill-opacity:1.00" />
<rect height="5.383236" width="6.250000" x="613.750000" y="88.843725" fill="rgb(255, 165, 0)" style="fill-opacity:1.00" />
<!-- End 'G' -->
<!-- Begin 'A' -->
<polygon points=" 570.000000, 107.597501, 591.000000, 94.226960, 599.000000, 94.226960, 620.000000, 107.597501, 612.500000, 107.597501, 606.250000, 104.254866, 583.750000, 104.254866, 577.500000, 107.597501" fill="rgb(178, 34, 34)" style="fill-opacity:1.00" />
<polygon points=" 595.000000, 96.901068, 587.000000, 101.249285, 602.000000, 101.249285" fill="rgb(255, 255, 255)" style="fill-opacity:1.00" />
<!-- End 'A' -->
<!-- Begin 'C' -->
<ellipse cx="595.000000" cy="108.334674" rx="25.000000" ry="0.737173" fill="rgb(0, 0, 128)" style="fill-opacity:1.00" />
<ellipse cx="595.000000" cy="108.334674" rx="16.666667" ry="0.491449" fill="rgb(255, 255, 255)" style="fill-opacity:1.00" />
<rect height="0.737173" width="25.000000" x="595.000000" y="107.966088" fill="rgb(255, 255, 255)" style="fill-opacity:1.00" />
<!-- End 'C' -->
<!-- Begin 'T' -->
<rect height="0.148504" width="50.000000" x="570.000000" y="109.071847" fill="rgb(0, 100, 0)" style="fill-opacity:1.00" />
<rect height="0.928153" width="10.000000" x="590.000000" y="109.071847" fill="rgb(0, 100, 0)" style="fill-opacity:1.00" />
<!-- End 'T' -->
<!-- Begin 'C' -->
<ellipse cx="655.000000" cy="80.919297" rx="25.000000" ry="12.791013" fill="rgb(0, 0, 128)" style="fill-opacity:1.00" />
<ellipse cx="655.000000" cy="80.919297" rx="16.666667" ry="8.527342" fill="rgb(255, 255, 255)" style="fill-opacity:1.00" />
<rect height="12.791013" width="25.000000" x="655.000000" y="74.523790" fill="rgb(255, 255, 255)" style="fill-opacity:1.00" />
<!-- End 'C' -->
<!-- Begin 'T' -->
<rect height="2.364909" width="50.000000" x="630.000000" y="93.710310" fill="rgb(0, 100, 0)" style="fill-opacity:1.00" />
<rect height="14.780679" width="10.000000" x="650.000000" y="93.710310" fill="rgb(0, 100, 0)" style="fill-opacity:1.00" />
<!-- End 'T' -->
<!-- Begin 'A' -->
<polygon points=" 630.000000, 109.715148, 651.000000, 108.490989, 659.000000, 108.490989, 680.000000, 109.715148, 672.500000, 109.715148, 666.250000, 109.409109, 643.750000, 109.409109, 637.500000, 109.715148" fill="rgb(178, 34, 34)" style="fill-opacity:1.00" />
<!-- End 'A' -->
<!-- Begin 'G' -->
<ellipse cx="655.000000" cy="109.857574" rx="25.000000" ry="0.142426" fill="rgb(255, 165, 0)" style="fill-opacity:1.00" />
<ellipse cx="655.000000" cy="109.857574" rx="16.666667" ry="0.094951" fill="rgb(255, 255, 255)" style="fill-opacity:1.00" />
<rect height="0.142426" width="25.000000" x="655.000000" y="109.786361" fill="rgb(255, 255, 255)" style="fill-opacity:1.00" />
<rect height="0.035606" width="25.000000" x="655.000000" y="109.893181" fill="rgb(255, 165, 0)" style="fill-opacity:1.00" />
<rect height="0.106819" width="6.250000" x="673.750000" y="109.893181" fill="rgb(255, 165, 0)" style="fill-opacity:1.00" />
<!-- End 'G' -->
<!-- Begin 'A' -->
<polygon points=" 690.000000, 98.373954, 711.000000, 88.218092, 719.000000, 88.218092, 740.000000, 98.373954, 732.500000, 98.373954, 726.250000, 95.834988, 703.750000, 95.834988, 697.500000, 98.373954" fill="rgb(178, 34, 34)" style="fill-opacity:1.00" />
<polygon points=" 715.000000, 90.249264, 707.000000, 93.311609, 722.000000, 93.311609" fill="rgb(255, 255, 255)" style="fill-opacity:1.00" />
<!-- End 'A' -->
<!-- Begin 'G' -->
<ellipse cx="715.000000" cy="102.650178" rx="25.000000" ry="4.276225" fill="rgb(255, 165, 0)" style="fill-opacity:1.00" />
<ellipse cx="715.000000" cy="102.650178" rx="16.666667" ry="2.850816" fill="rgb(255, 255, 255)" style="fill-opacity:1.00" />
<rect height="4.276225" width="25.000000" x="715.000000" y="100.512066" fill="rgb(255, 255, 255)" style="fill-opacity:1.00" />
<rect height="1.069056" width="25.000000" x="715.000000" y="103.719234" fill="rgb(255, 165, 0)" style="fill-opacity:1.00" />
<rect height="3.207169" width="6.250000" x="733.750000" y="103.719234" fill="rgb(255, 165, 0)" style="fill-opacity:1.00" />
<!-- End 'G' -->
<!-- Begin 'T' -->
<rect height="0.348320" width="50.000000" x="690.000000" y="106.926403" fill="rgb(0, 100, 0)" style="fill-opacity:1.00" />
<rect height="2.176999" width="10.000000" x="710.000000" y="106.926403" fill="rgb(0, 100, 0)" style="fill-opacity:1.00" />
<!-- End 'T' -->
<!-- Begin 'C' -->
<ellipse cx="715.000000" cy="109.551701" rx="25.000000" ry="0.448299" fill="rgb(0, 0, 128)" style="fill-opacity:1.00" />
<ellipse cx="715.000000" cy="109.551701" rx="16.666667" ry="0.298866" fill="rgb(255, 255, 255)" style="fill-opacity:1.00" />
<rect height="0.448299" width="25.000000" x="715.000000" y="109.327552" fill="rgb(255, 255, 255)" style="fill-opacity:1.00" />
<!-- End 'C' -->
<!-- Begin 'A' -->
<polygon points=" 750.000000, 108.166928, 771.000000, 107.085547, 779.000000, 107.085547, 800.000000, 108.166928, 792.500000, 108.166928, 786.250000, 107.896583, 763.750000, 107.896583, 757.500000, 108.166928" fill="rgb(178, 34, 34)" style="fill-opacity:1.00" />
<!-- End 'A' -->
<!-- Begin 'G' -->
<ellipse cx="775.000000" cy="108.524356" rx="25.000000" ry="0.357428" fill="rgb(255, 165, 0)" style="fill-opacity:1.00" />
<ellipse cx="775.000000" cy="108.524356" rx="16.666667" ry="0.238285" fill="rgb(255, 255, 255)" style="fill-opacity:1.00" />
<rect height="0.357428" width="25.000000" x="775.000000" y="108.345642" fill="rgb(255, 255, 255)" style="fill-opacity:1.00" />
<rect height="0.089357" width="25.000000" x="775.000000" y="108.613713" fill="rgb(255, 165, 0)" style="fill-opacity:1.00" />
<rect height="0.268071" width="6.250000" x="793.750000" y="108.613713" fill="rgb(255, 165, 0)" style="fill-opacity:1.00" />
<!-- End 'G' -->
<!-- Begin 'C' -->
<ellipse cx="775.000000" cy="109.169687" rx="25.000000" ry="0.287903" fill="rgb(0, 0, 128)" style="fill-opacity:1.00" />
<ellipse cx="775.000000" cy="109.169687" rx="16.666667" ry="0.191935" fill="rgb(255, 255, 255)" style="fill-opacity:1.00" />
<rect height="0.287903" width="25.000000" x="775.000000" y="109.025735" fill="rgb(255, 255, 255)" style="fill-opacity:1.00" />
<!-- End 'C' -->
<!-- Begin 'T' -->
<rect height="0.086786" width="50.000000" x="750.000000" y="109.457590" fill="rgb(0, 100, 0)" style="fill-opacity:1.00" />
<rect height="0.542410" width="10.000000" x="770.000000" y="109.457590" fill="rgb(0, 100, 0)" style="fill-opacity:1.00" />
<!-- End 'T' -->
<!-- Begin 'A' -->
<polygon points=" 810.000000, 107.735178, 831.000000, 106.560035, 839.000000, 106.560035, 860.000000, 107.735178, 852.500000, 107.735178, 846.250000, 107.441393, 823.750000, 107.441393, 817.500000, 107.735178" fill="rgb(178, 34, 34)" style="fill-opacity:1.00" />
<!-- End 'A' -->
<!-- Begin 'T' -->
<rect height="0.167098" width="50.000000" x="810.000000" y="107.735178" fill="rgb(0, 100, 0)" style="fill-opacity:1.00" />
<rect height="1.044361" width="10.000000" x="830.000000" y="107.735178" fill="rgb(0, 100, 0)" style="fill-opacity:1.00" />
<!-- End 'T' -->
<!-- Begin 'C' -->
<ellipse cx="835.000000" cy="109.129119" rx="25.000000" ry="0.349580" fill="rgb(0, 0, 128)" style="fill-opacity:1.00" />
<ellipse cx="835.000000" cy="109.129119" rx="16.666667" ry="0.233053" fill="rgb(255, 255, 255)" style="fill-opacity:1.00" />
<rect height="0.349580" width="25.000000" x="835.000000" y="108.954329" fill="rgb(255, 255, 255)" style="fill-opacity:1.00" />
<!-- End 'C' -->
<!-- Begin 'G' -->
<ellipse cx="835.000000" cy="109.739350" rx="25.000000" ry="0.260650" fill="rgb(255, 165, 0)" style="fill-opacity:1.00" />
<ellipse cx="835.000000" cy="109.739350" rx="16.666667" ry="0.173767" fill="rgb(255, 255, 255)" style="fill-opacity:1.00" />
<rect height="0.260650" width="25.000000" x="835.000000" y="109.609024" fill="rgb(255, 255, 255)" style="fill-opacity:1.00" />
<rect height="0.065163" width="25.000000" x="835.000000" y="109.804512" fill="rgb(255, 165, 0)" style="fill-opacity:1.00" />
<rect height="0.195488" width="6.250000" x="853.750000" y="109.804512" fill="rgb(255, 165, 0)" style="fill-opacity:1.00" />
<!-- End 'G' -->
<!-- Begin 'A' -->
<polygon points=" 870.000000, 107.907791, 891.000000, 106.918208, 899.000000, 106.918208, 920.000000, 107.907791, 912.500000, 107.907791, 906.250000, 107.660396, 883.750000, 107.660396, 877.500000, 107.907791" fill="rgb(178, 34, 34)" style="fill-opacity:1.00" />
<!-- End 'A' -->
<!-- Begin 'T' -->
<rect height="0.144329" width="50.000000" x="870.000000" y="107.907791" fill="rgb(0, 100, 0)" style="fill-opacity:1.00" />
<rect height="0.902058" width="10.000000" x="890.000000" y="107.907791" fill="rgb(0, 100, 0)" style="fill-opacity:1.00" />
<!-- End 'T' -->
<!-- Begin 'G' -->
<ellipse cx="895.000000" cy="109.192256" rx="25.000000" ry="0.382406" fill="rgb(255, 165, 0)" style="fill-opacity:1.00" />
<ellipse cx="895.000000" cy="109.192256" rx="16.666667" ry="0.254938" fill="rgb(255, 255, 255)" style="fill-opacity:1.00" />
<rect height="0.382406" width="25.000000" x="895.000000" y="109.001053" fill="rgb(255, 255, 255)" style="fill-opacity:1.00" />
<rect height="0.095602" width="25.000000" x="895.000000" y="109.287858" fill="rgb(255, 165, 0)" style="fill-opacity:1.00" />
<rect height="0.286805" width="6.250000" x="913.750000" y="109.287858" fill="rgb(255, 165, 0)" style="fill-opacity:1.00" />
<!-- End 'G' -->
<!-- Begin 'C' -->
<ellipse cx="895.000000" cy="109.787331" rx="25.000000" ry="0.212669" fill="rgb(0, 0, 128)" style="fill-opacity:1.00" />
<ellipse cx="895.000000" cy="109.787331" rx="16.666667" ry="0.141779" fill="rgb(255, 255, 255)" style="fill-opacity:1.00" />
<rect height="0.212669" width="25.000000" x="895.000000" y="109.680997" fill="rgb(255, 255, 255)" style="fill-opacity:1.00" />
<!-- End 'C' -->
<!-- Begin 'T' -->
<rect height="0.102377" width="50.000000" x="930.000000" y="108.017218" fill="rgb(0, 100, 0)" style="fill-opacity:1.00" />
<rect height="0.639858" width="10.000000" x="950.000000" y="108.017218" fill="rgb(0, 100, 0)" style="fill-opacity:1.00" />
<!-- End 'T' -->
<!-- Begin 'A' -->
<polygon points=" 930.000000, 109.236601, 951.000000, 108.657076, 959.000000, 108.657076, 980.000000, 109.236601, 972.500000, 109.236601, 966.250000, 109.091719, 943.750000, 109.091719, 937.500000, 109.236601" fill="rgb(178, 34, 34)" style="fill-opacity:1.00" />
<!-- End 'A' -->
<!-- Begin 'G' -->
<ellipse cx="955.000000" cy="109.430602" rx="25.000000" ry="0.194001" fill="rgb(255, 165, 0)" style="fill-opacity:1.00" />
<ellipse cx="955.000000" cy="109.430602" rx="16.666667" ry="0.129334" fill="rgb(255, 255, 255)" style="fill-opacity:1.00" />
<rect height="0.194001" width="25.000000" x="955.000000" y="109.333601" fill="rgb(255, 255, 255)" style="fill-opacity:1.00" />
<rect height="0.048500" width="25.000000" x="955.000000" y="109.479102" fill="rgb(255, 165, 0)" style="fill-opacity:1.00" />
<rect height="0.145501" width="6.250000" x="973.750000" y="109.479102" fill="rgb(255, 165, 0)" style="fill-opacity:1.00" />
<!-- End 'G' -->
<!-- Begin 'C' -->
<ellipse cx="955.000000" cy="109.812302" rx="25.000000" ry="0.187698" fill="rgb(0, 0, 128)" style="fill-opacity:1.00" />
<ellipse cx="955.000000" cy="109.812302" rx="16.666667" ry="0.125132" fill="rgb(255, 255, 255)" style="fill-opacity:1.00" />
<rect height="0.187698" width="25.000000" x="955.000000" y="109.718452" fill="rgb(255, 255, 255)" style="fill-opacity:1.00" />
<!-- End 'C' -->
<!-- Begin 'T' -->
<rect height="0.127981" width="50.000000" x="990.000000" y="107.520921" fill="rgb(0, 100, 0)" style="fill-opacity:1.00" />
<rect height="0.799880" width="10.000000" x="1010.000000" y="107.520921" fill="rgb(0, 100, 0)" style="fill-opacity:1.00" />
<!-- End 'T' -->
<!-- Begin 'A' -->
<polygon points=" 990.000000, 108.989951, 1011.000000, 108.320801, 1019.000000, 108.320801, 1040.000000, 108.989951, 1032.500000, 108.989951, 1026.250000, 108.822664, 1003.750000, 108.822664, 997.500000, 108.989951" fill="rgb(178, 34, 34)" style="fill-opacity:1.00" />
<!-- End 'A' -->
<!-- Begin 'C' -->
<ellipse cx="1015.000000" cy="109.310064" rx="25.000000" ry="0.320113" fill="rgb(0, 0, 128)" style="fill-opacity:1.00" />
<ellipse cx="1015.000000" cy="109.310064" rx="16.666667" ry="0.213409" fill="rgb(255, 255, 255)" style="fill-opacity:1.00" />
<rect height="0.320113" width="25.000000" x="1015.000000" y="109.150008" fill="rgb(255, 255, 255)" style="fill-opacity:1.00" />
<!-- End 'C' -->
<!-- Begin 'G' -->
<ellipse cx="1015.000000" cy="109.815088" rx="25.000000" ry="0.184912" fill="rgb(255, 165, 0)" style="fill-opacity:1.00" />
<ellipse cx="1015.000000" cy="109.815088" rx="16.666667" ry="0.123274" fill="rgb(255, 255, 255)" style="fill-opacity:1.00" />
<rect height="0.184912" width="25.000000" x="1015.000000" y="109.722633" fill="rgb(255, 255, 255)" style="fill-opacity:1.00" />
<rect height="0.046228" width="25.000000" x="1015.000000" y="109.861316" fill="rgb(255, 165, 0)" style="fill-opacity:1.00" />
<rect height="0.138684" width="6.250000" x="1033.750000" y="109.861316" fill="rgb(255, 165, 0)" style="fill-opacity:1.00" />
<!-- End 'G' -->
<text x="550.000000" y="165">
IC = 7.62
</text>

</svg>
