<?xml version="1.0" encoding="UTF-8" standalone="yes"?>
                 <!DOCTYPE svg PUBLIC "-//W3C//DTD SVG 1.0//EN" "http://www.w3.org/TR/2001/REC-SVG-20010904/DTD/svg10.dtd">
                 <svg height="170" width="780" xmlns="http://www.w3.org/2000/svg" xmlns:xlink="http://www.w3.org/1999/xlink">
                 <line x1="85" y1="120" x2="747" y2="120" style="stroke:rgb(99,99,99);stroke-width:2" />
<rect height="7.000000" width="2.000000" x="85.000000" y="120.000000" fill="rgb(0, 0, 0)" style="fill-opacity:1.00" />
<text x="107.000000" y="140">
1
</text>
<rect height="7.000000" width="2.000000" x="145.000000" y="120.000000" fill="rgb(0, 0, 0)" style="fill-opacity:1.00" />
<text x="167.000000" y="140">
2
</text>
<rect height="7.000000" width="2.000000" x="205.000000" y="120.000000" fill="rgb(0, 0, 0)" style="fill-opacity:1.00" />
<text x="227.000000" y="140">
3
</text>
<rect height="7.000000" width="2.000000" x="265.000000" y="120.000000" fill="rgb(0, 0, 0)" style="fill-opacity:1.00" />
<text x="287.000000" y="140">
4
</text>
<rect height="7.000000" width="2.000000" x="325.000000" y="120.000000" fill="rgb(0, 0, 0)" style="fill-opacity:1.00" />
<text x="347.000000" y="140">
5
</text>
<rect height="7.000000" width="2.000000" x="385.000000" y="120.000000" fill="rgb(0, 0, 0)" style="fill-opacity:1.00" />
<text x="407.000000" y="140">
6
</text>
<rect height="7.000000" width="2.000000" x="445.000000" y="120.000000" fill="rgb(0, 0, 0)" style="fill-opacity:1.00" />
<text x="467.000000" y="140">
7
</text>
<rect height="7.000000" width="2.000000" x="505.000000" y="120.000000" fill="rgb(0, 0, 0)" style="fill-opacity:1.00" />
<text x="527.000000" y="140">
8
</text>
<rect height="7.000000" width="2.000000" x="565.000000" y="120.000000" fill="rgb(0, 0, 0)" style="fill-opacity:1.00" />
<text x="587.000000" y="140">
9
</text>
<rect height="7.000000" width="2.000000" x="625.000000" y="120.000000" fill="rgb(0, 0, 0)" style="fill-opacity:1.00" />
<text x="647.000000" y="140">
10
</text>
<rect height="7.000000" width="2.000000" x="685.000000" y="120.000000" fill="rgb(0, 0, 0)" style="fill-opacity:1.00" />
<text x="707.000000" y="140">
11
</text>
<rect height="7.000000" width="2.000000" x="745.000000" y="120.000000" fill="rgb(0, 0, 0)" style="fill-opacity:1.00" />
<line x1="80" y1="112" x2="80" y2="10" style="stroke:rgb(99,99,99);stroke-width:2" />
<rect height="2.000000" width="7.000000" x="73.000000" y="110.000000" fill="rgb(0, 0, 0)" style="fill-opacity:1.00" />
<text x="63" y="115">
0
</text>
<rect height="2.000000" width="7.000000" x="73.000000" y="60.000000" fill="rgb(0, 0, 0)" style="fill-opacity:1.00" />
<text x="63" y="65">
1
</text>
<rect height="2.000000" width="7.000000" x="73.000000" y="10.000000" fill="rgb(0, 0, 0)" style="fill-opacity:1.00" />
<text x="63" y="15">
2
</text>
<text x="50" y="65"
transform="rotate(-90, 50, 70)">
bits
</text>
<!-- Begin 'G' -->
<ellipse cx="115.000000" cy="78.207838" rx="25.000000" ry="20.680779" fill="rgb(255, 165, 0)" style="fill-opacity:1.00" />
<ellipse cx="115.000000" cy="78.207838" rx="16.666667" ry="13.787186" fill="rgb(255, 255, 255)" style="fill-opacity:1.00" />
<rect height="20.680779" width="25.000000" x="115.000000" y="67.867449" fill="rgb(255, 255, 255)" style="fill-opacity:1.00" />
<rect height="5.170195" width="25.000000" x="115.000000" y="83.378033" fill="rgb(255, 165, 0)" style="fill-opacity:1.00" />
<rect height="15.510584" width="6.250000" x="133.750000" y="83.378033" fill="rgb(255, 165, 0)" style="fill-opacity:1.00" />
<!-- End 'G' -->
<!-- Begin 'A' -->
<polygon points=" 90.000000, 105.725519, 111.000000, 98.888617, 119.000000, 98.888617, 140.000000, 105.725519, 132.500000, 105.725519, 126.250000, 104.016293, 103.750000, 104.016293, 97.500000, 105.725519" fill="rgb(178, 34, 34)" style="fill-opacity:1.00" />
<!-- End 'A' -->
<!-- Begin 'C' -->
<ellipse cx="115.000000" cy="107.857090" rx="25.000000" ry="2.131571" fill="rgb(0, 0, 128)" style="fill-opacity:1.00" />
<ellipse cx="115.000000" cy="107.857090" rx="16.666667" ry="1.421048" fill="rgb(255, 255, 255)" style="fill-opacity:1.00" />
<rect height="2.131571" width="25.000000" x="115.000000" y="106.791305" fill="rgb(255, 255, 255)" style="fill-opacity:1.00" />
<!-- End 'C' -->
<!-- Begin 'T' -->
<rect height="0.001814" width="50.000000" x="90.000000" y="109.988662" fill="rgb(0, 100, 0)" style="fill-opacity:1.00" />
<rect height="0.011338" width="10.000000" x="110.000000" y="109.988662" fill="rgb(0, 100, 0)" style="fill-opacity:1.00" />
<!-- End 'T' -->
<!-- Begin 'C' -->
<ellipse cx="175.000000" cy="69.594155" rx="25.000000" ry="30.777349" fill="rgb(0, 0, 128)" style="fill-opacity:1.00" />
<ellipse cx="175.000000" cy="69.594155" rx="16.666667" ry="20.518233" fill="rgb(255, 255, 255)" style="fill-opacity:1.00" />
<rect height="30.777349" width="25.000000" x="175.000000" y="54.205480" fill="rgb(255, 255, 255)" style="fill-opacity:1.00" />
<!-- End 'C' -->
<!-- Begin 'A' -->
<polygon points=" 150.000000, 109.969238, 171.000000, 100.371504, 179.000000, 100.371504, 200.000000, 109.969238, 192.500000, 109.969238, 186.250000, 107.569805, 163.750000, 107.569805, 157.500000, 109.969238" fill="rgb(178, 34, 34)" style="fill-opacity:1.00" />
<polygon points=" 175.000000, 102.291051, 167.000000, 105.130144, 182.000000, 105.130144" fill="rgb(255, 255, 255)" style="fill-opacity:1.00" />
<!-- End 'A' -->
<!-- Begin 'T' -->
<rect height="0.002461" width="50.000000" x="150.000000" y="109.969238" fill="rgb(0, 100, 0)" style="fill-opacity:1.00" />
<rect height="0.015381" width="10.000000" x="170.000000" y="109.969238" fill="rgb(0, 100, 0)" style="fill-opacity:1.00" />
<!-- End 'T' -->
<!-- Begin 'G' -->
<ellipse cx="175.000000" cy="109.992310" rx="25.000000" ry="0.007690" fill="rgb(255, 165, 0)" style="fill-opacity:1.00" />
<ellipse cx="175.000000" cy="109.992310" rx="16.666667" ry="0.005127" fill="rgb(255, 255, 255)" style="fill-opacity:1.00" />
<rect height="0.007690" width="25.000000" x="175.000000" y="109.988464" fill="rgb(255, 255, 255)" style="fill-opacity:1.00" />
<rect height="0.001923" width="25.000000" x="175.000000" y="109.994232" fill="rgb(255, 165, 0)" style="fill-opacity:1.00" />
<rect height="0.005768" width="6.250000" x="193.750000" y="109.994232" fill="rgb(255, 165, 0)" style="fill-opacity:1.00" />
<!-- End 'G' -->
<!-- Begin 'G' -->
<ellipse cx="235.000000" cy="69.392128" rx="25.000000" ry="34.325634" fill="rgb(255, 165, 0)" style="fill-opacity:1.00" />
<ellipse cx="235.000000" cy="69.392128" rx="16.666667" ry="22.883756" fill="rgb(255, 255, 255)" style="fill-opacity:1.00" />
<rect height="34.325634" width="25.000000" x="235.000000" y="52.229311" fill="rgb(255, 255, 255)" style="fill-opacity:1.00" />
<rect height="8.581408" width="25.000000" x="235.000000" y="77.973536" fill="rgb(255, 165, 0)" style="fill-opacity:1.00" />
<rect height="25.744225" width="6.250000" x="253.750000" y="77.973536" fill="rgb(255, 165, 0)" style="fill-opacity:1.00" />
<!-- End 'G' -->
<!-- Begin 'A' -->
<polygon points=" 210.000000, 106.907455, 231.000000, 103.717761, 239.000000, 103.717761, 260.000000, 106.907455, 252.500000, 106.907455, 246.250000, 106.110031, 223.750000, 106.110031, 217.500000, 106.907455" fill="rgb(178, 34, 34)" style="fill-opacity:1.00" />
<!-- End 'A' -->
<!-- Begin 'C' -->
<ellipse cx="235.000000" cy="108.445632" rx="25.000000" ry="1.538177" fill="rgb(0, 0, 128)" style="fill-opacity:1.00" />
<ellipse cx="235.000000" cy="108.445632" rx="16.666667" ry="1.025451" fill="rgb(255, 255, 255)" style="fill-opacity:1.00" />
<rect height="1.538177" width="25.000000" x="235.000000" y="107.676543" fill="rgb(255, 255, 255)" style="fill-opacity:1.00" />
<!-- End 'C' -->
<!-- Begin 'T' -->
<rect height="0.002591" width="50.000000" x="210.000000" y="109.983809" fill="rgb(0, 100, 0)" style="fill-opacity:1.00" />
<rect height="0.016191" width="10.000000" x="230.000000" y="109.983809" fill="rgb(0, 100, 0)" style="fill-opacity:1.00" />
<!-- End 'T' -->
<!-- Begin 'C' -->
<ellipse cx="295.000000" cy="72.305914" rx="25.000000" ry="28.901917" fill="rgb(0, 0, 128)" style="fill-opacity:1.00" />
<ellipse cx="295.000000" cy="72.305914" rx="16.666667" ry="19.267945" fill="rgb(255, 255, 255)" style="fill-opacity:1.00" />
<rect height="28.901917" width="25.000000" x="295.000000" y="57.854956" fill="rgb(255, 255, 255)" style="fill-opacity:1.00" />
<!-- End 'C' -->
<!-- Begin 'G' -->
<ellipse cx="295.000000" cy="104.582240" rx="25.000000" ry="3.374409" fill="rgb(255, 165, 0)" style="fill-opacity:1.00" />
<ellipse cx="295.000000" cy="104.582240" rx="16.666667" ry="2.249606" fill="rgb(255, 255, 255)" style="fill-opacity:1.00" />
<rect height="3.374409" width="25.000000" x="295.000000" y="102.895035" fill="rgb(255, 255, 255)" style="fill-opacity:1.00" />
<rect height="0.843602" width="25.000000" x="295.000000" y="105.425842" fill="rgb(255, 165, 0)" style="fill-opacity:1.00" />
<rect height="2.530806" width="6.250000" x="313.750000" y="105.425842" fill="rgb(255, 165, 0)" style="fill-opacity:1.00" />
<!-- End 'G' -->
<!-- Begin 'T' -->
<rect height="0.324634" width="50.000000" x="270.000000" y="107.956648" fill="rgb(0, 100, 0)" style="fill-opacity:1.00" />
<rect height="2.028962" width="10.000000" x="290.000000" y="107.956648" fill="rgb(0, 100, 0)" style="fill-opacity:1.00" />
<!-- End 'T' -->
<!-- Begin 'A' -->
<polygon points=" 270.000000, 110.000000, 291.000000, 109.985610, 299.000000, 109.985610, 320.000000, 110.000000, 312.500000, 110.000000, 306.250000, 109.996403, 283.750000, 109.996403, 277.500000, 110.000000" fill="rgb(178, 34, 34)" style="fill-opacity:1.00" />
<!-- End 'A' -->
<!-- Begin 'C' -->
<ellipse cx="355.000000" cy="101.435372" rx="25.000000" ry="2.158245" fill="rgb(0, 0, 128)" style="fill-opacity:1.00" />
<ellipse cx="355.000000" cy="101.435372" rx="16.666667" ry="1.438830" fill="rgb(255, 255, 255)" style="fill-opacity:1.00" />
<rect height="2.158245" width="25.000000" x="355.000000" y="100.356250" fill="rgb(255, 255, 255)" style="fill-opacity:1.00" />
<!-- End 'C' -->
<!-- Begin 'A' -->
<polygon points=" 330.000000, 107.103805, 351.000000, 103.593617, 359.000000, 103.593617, 380.000000, 107.103805, 372.500000, 107.103805, 366.250000, 106.226258, 343.750000, 106.226258, 337.500000, 107.103805" fill="rgb(178, 34, 34)" style="fill-opacity:1.00" />
<!-- End 'A' -->
<!-- Begin 'G' -->
<ellipse cx="355.000000" cy="108.188140" rx="25.000000" ry="1.084335" fill="rgb(255, 165, 0)" style="fill-opacity:1.00" />
<ellipse cx="355.000000" cy="108.188140" rx="16.666667" ry="0.722890" fill="rgb(255, 255, 255)" style="fill-opacity:1.00" />
<rect height="1.084335" width="25.000000" x="355.000000" y="107.645973" fill="rgb(255, 255, 255)" style="fill-opacity:1.00" />
<rect height="0.271084" width="25.000000" x="355.000000" y="108.459224" fill="rgb(255, 165, 0)" style="fill-opacity:1.00" />
<rect height="0.813252" width="6.250000" x="373.750000" y="108.459224" fill="rgb(255, 165, 0)" style="fill-opacity:1.00" />
<!-- End 'G' -->
<!-- Begin 'T' -->
<rect height="0.116404" width="50.000000" x="330.000000" y="109.272476" fill="rgb(0, 100, 0)" style="fill-opacity:1.00" />
<rect height="0.727524" width="10.000000" x="350.000000" y="109.272476" fill="rgb(0, 100, 0)" style="fill-opacity:1.00" />
<!-- End 'T' -->
<!-- Begin 'T' -->
<rect height="6.851825" width="50.000000" x="390.000000" y="56.348390" fill="rgb(0, 100, 0)" style="fill-opacity:1.00" />
<rect height="42.823908" width="10.000000" x="410.000000" y="56.348390" fill="rgb(0, 100, 0)" style="fill-opacity:1.00" />
<!-- End 'T' -->
<!-- Begin 'G' -->
<ellipse cx="415.000000" cy="102.238601" rx="25.000000" ry="3.066303" fill="rgb(255, 165, 0)" style="fill-opacity:1.00" />
<ellipse cx="415.000000" cy="102.238601" rx="16.666667" ry="2.044202" fill="rgb(255, 255, 255)" style="fill-opacity:1.00" />
<rect height="3.066303" width="25.000000" x="415.000000" y="100.705450" fill="rgb(255, 255, 255)" style="fill-opacity:1.00" />
<rect height="0.766576" width="25.000000" x="415.000000" y="103.005177" fill="rgb(255, 165, 0)" style="fill-opacity:1.00" />
<rect height="2.299727" width="6.250000" x="433.750000" y="103.005177" fill="rgb(255, 165, 0)" style="fill-opacity:1.00" />
<!-- End 'G' -->
<!-- Begin 'C' -->
<ellipse cx="415.000000" cy="107.646656" rx="25.000000" ry="2.341751" fill="rgb(0, 0, 128)" style="fill-opacity:1.00" />
<ellipse cx="415.000000" cy="107.646656" rx="16.666667" ry="1.561168" fill="rgb(255, 255, 255)" style="fill-opacity:1.00" />
<rect height="2.341751" width="25.000000" x="415.000000" y="106.475780" fill="rgb(255, 255, 255)" style="fill-opacity:1.00" />
<!-- End 'C' -->
<!-- Begin 'A' -->
<polygon points=" 390.000000, 110.000000, 411.000000, 109.988407, 419.000000, 109.988407, 440.000000, 110.000000, 432.500000, 110.000000, 426.250000, 109.997102, 403.750000, 109.997102, 397.500000, 110.000000" fill="rgb(178, 34, 34)" style="fill-opacity:1.00" />
<!-- End 'A' -->
<!-- Begin 'G' -->
<ellipse cx="475.000000" cy="60.188427" rx="25.000000" ry="49.747036" fill="rgb(255, 165, 0)" style="fill-opacity:1.00" />
<ellipse cx="475.000000" cy="60.188427" rx="16.666667" ry="33.164691" fill="rgb(255, 255, 255)" style="fill-opacity:1.00" />
<rect height="49.747036" width="25.000000" x="475.000000" y="35.314909" fill="rgb(255, 255, 255)" style="fill-opacity:1.00" />
<rect height="12.436759" width="25.000000" x="475.000000" y="72.625186" fill="rgb(255, 165, 0)" style="fill-opacity:1.00" />
<rect height="37.310277" width="6.250000" x="493.750000" y="72.625186" fill="rgb(255, 165, 0)" style="fill-opacity:1.00" />
<!-- End 'G' -->
<!-- Begin 'T' -->
<rect height="0.003442" width="50.000000" x="450.000000" y="109.935463" fill="rgb(0, 100, 0)" style="fill-opacity:1.00" />
<rect height="0.021512" width="10.000000" x="470.000000" y="109.935463" fill="rgb(0, 100, 0)" style="fill-opacity:1.00" />
<!-- End 'T' -->
<!-- Begin 'C' -->
<ellipse cx="475.000000" cy="109.967732" rx="25.000000" ry="0.010756" fill="rgb(0, 0, 128)" style="fill-opacity:1.00" />
<ellipse cx="475.000000" cy="109.967732" rx="16.666667" ry="0.007171" fill="rgb(255, 255, 255)" style="fill-opacity:1.00" />
<rect height="0.010756" width="25.000000" x="475.000000" y="109.962354" fill="rgb(255, 255, 255)" style="fill-opacity:1.00" />
<!-- End 'C' -->
<!-- Begin 'A' -->
<polygon points=" 450.000000, 110.000000, 471.000000, 109.978488, 479.000000, 109.978488, 500.000000, 110.000000, 492.500000, 110.000000, 486.250000, 109.994622, 463.750000, 109.994622, 457.500000, 110.000000" fill="rgb(178, 34, 34)" style="fill-opacity:1.00" />
<!-- End 'A' -->
<!-- Begin 'C' -->
<ellipse cx="535.000000" cy="65.941244" rx="25.000000" ry="38.879589" fill="rgb(0, 0, 128)" style="fill-opacity:1.00" />
<ellipse cx="535.000000" cy="65.941244" rx="16.666667" ry="25.919726" fill="rgb(255, 255, 255)" style="fill-opacity:1.00" />
<rect height="38.879589" width="25.000000" x="535.000000" y="46.501450" fill="rgb(255, 255, 255)" style="fill-opacity:1.00" />
<!-- End 'C' -->
<!-- Begin 'T' -->
<rect height="0.822932" width="50.000000" x="510.000000" y="104.820834" fill="rgb(0, 100, 0)" style="fill-opacity:1.00" />
<rect height="5.143324" width="10.000000" x="530.000000" y="104.820834" fill="rgb(0, 100, 0)" style="fill-opacity:1.00" />
<!-- End 'T' -->
<!-- Begin 'G' -->
<ellipse cx="535.000000" cy="109.973119" rx="25.000000" ry="0.008960" fill="rgb(255, 165, 0)" style="fill-opacity:1.00" />
<ellipse cx="535.000000" cy="109.973119" rx="16.666667" ry="0.005974" fill="rgb(255, 255, 255)" style="fill-opacity:1.00" />
<rect height="0.008960" width="25.000000" x="535.000000" y="109.968638" fill="rgb(255, 255, 255)" style="fill-opacity:1.00" />
<rect height="0.002240" width="25.000000" x="535.000000" y="109.975359" fill="rgb(255, 165, 0)" style="fill-opacity:1.00" />
<rect height="0.006720" width="6.250000" x="553.750000" y="109.975359" fill="rgb(255, 165, 0)" style="fill-opacity:1.00" />
<!-- End 'G' -->
<!-- Begin 'A' -->
<polygon points=" 510.000000, 110.000000, 531.000000, 109.982079, 539.000000, 109.982079, 560.000000, 110.000000, 552.500000, 110.000000, 546.250000, 109.995520, 523.750000, 109.995520, 517.500000, 110.000000" fill="rgb(178, 34, 34)" style="fill-opacity:1.00" />
<!-- End 'A' -->
<!-- Begin 'G' -->
<ellipse cx="595.000000" cy="66.753599" rx="25.000000" ry="37.132854" fill="rgb(255, 165, 0)" style="fill-opacity:1.00" />
<ellipse cx="595.000000" cy="66.753599" rx="16.666667" ry="24.755236" fill="rgb(255, 255, 255)" style="fill-opacity:1.00" />
<rect height="37.132854" width="25.000000" x="595.000000" y="48.187172" fill="rgb(255, 255, 255)" style="fill-opacity:1.00" />
<rect height="9.283213" width="25.000000" x="595.000000" y="76.036812" fill="rgb(255, 165, 0)" style="fill-opacity:1.00" />
<rect height="27.849640" width="6.250000" x="613.750000" y="76.036812" fill="rgb(255, 165, 0)" style="fill-opacity:1.00" />
<!-- End 'G' -->
<!-- Begin 'C' -->
<ellipse cx="595.000000" cy="106.925858" rx="25.000000" ry="3.039406" fill="rgb(0, 0, 128)" style="fill-opacity:1.00" />
<ellipse cx="595.000000" cy="106.925858" rx="16.666667" ry="2.026270" fill="rgb(255, 255, 255)" style="fill-opacity:1.00" />
<rect height="3.039406" width="25.000000" x="595.000000" y="105.406155" fill="rgb(255, 255, 255)" style="fill-opacity:1.00" />
<!-- End 'C' -->
<!-- Begin 'T' -->
<rect height="0.002779" width="50.000000" x="570.000000" y="109.965264" fill="rgb(0, 100, 0)" style="fill-opacity:1.00" />
<rect height="0.017368" width="10.000000" x="590.000000" y="109.965264" fill="rgb(0, 100, 0)" style="fill-opacity:1.00" />
<!-- End 'T' -->
<!-- Begin 'A' -->
<polygon points=" 570.000000, 110.000000, 591.000000, 109.982632, 599.000000, 109.982632, 620.000000, 110.000000, 612.500000, 110.000000, 606.250000, 109.995658, 583.750000, 109.995658, 577.500000, 110.000000" fill="rgb(178, 34, 34)" style="fill-opacity:1.00" />
<!-- End 'A' -->
<!-- Begin 'C' -->
<ellipse cx="655.000000" cy="62.356425" rx="25.000000" ry="46.084146" fill="rgb(0, 0, 128)" style="fill-opacity:1.00" />
<ellipse cx="655.000000" cy="62.356425" rx="16.666667" ry="30.722764" fill="rgb(255, 255, 255)" style="fill-opacity:1.00" />
<rect height="46.084146" width="25.000000" x="655.000000" y="39.314352" fill="rgb(255, 255, 255)" style="fill-opacity:1.00" />
<!-- End 'C' -->
<!-- Begin 'A' -->
<polygon points=" 630.000000, 109.959495, 651.000000, 108.440572, 659.000000, 108.440572, 680.000000, 109.959495, 672.500000, 109.959495, 666.250000, 109.579764, 643.750000, 109.579764, 637.500000, 109.959495" fill="rgb(178, 34, 34)" style="fill-opacity:1.00" />
<!-- End 'A' -->
<!-- Begin 'T' -->
<rect height="0.003240" width="50.000000" x="630.000000" y="109.959495" fill="rgb(0, 100, 0)" style="fill-opacity:1.00" />
<rect height="0.020252" width="10.000000" x="650.000000" y="109.959495" fill="rgb(0, 100, 0)" style="fill-opacity:1.00" />
<!-- End 'T' -->
<!-- Begin 'G' -->
<ellipse cx="655.000000" cy="109.989874" rx="25.000000" ry="0.010126" fill="rgb(255, 165, 0)" style="fill-opacity:1.00" />
<ellipse cx="655.000000" cy="109.989874" rx="16.666667" ry="0.006751" fill="rgb(255, 255, 255)" style="fill-opacity:1.00" />
<rect height="0.010126" width="25.000000" x="655.000000" y="109.984811" fill="rgb(255, 255, 255)" style="fill-opacity:1.00" />
<rect height="0.002532" width="25.000000" x="655.000000" y="109.992405" fill="rgb(255, 165, 0)" style="fill-opacity:1.00" />
<rect height="0.007595" width="6.250000" x="673.750000" y="109.992405" fill="rgb(255, 165, 0)" style="fill-opacity:1.00" />
<!-- End 'G' -->
<!-- Begin 'A' -->
<polygon points=" 690.000000, 96.539895, 711.000000, 83.848294, 719.000000, 83.848294, 740.000000, 96.539895, 732.500000, 96.539895, 726.250000, 93.366995, 703.750000, 93.366995, 697.500000, 96.539895" fill="rgb(178, 34, 34)" style="fill-opacity:1.00" />
<polygon points=" 715.000000, 86.386614, 707.000000, 90.463255, 722.000000, 90.463255" fill="rgb(255, 255, 255)" style="fill-opacity:1.00" />
<!-- End 'A' -->
<!-- Begin 'G' -->
<ellipse cx="715.000000" cy="100.992692" rx="25.000000" ry="4.452797" fill="rgb(255, 165, 0)" style="fill-opacity:1.00" />
<ellipse cx="715.000000" cy="100.992692" rx="16.666667" ry="2.968531" fill="rgb(255, 255, 255)" style="fill-opacity:1.00" />
<rect height="4.452797" width="25.000000" x="715.000000" y="98.766294" fill="rgb(255, 255, 255)" style="fill-opacity:1.00" />
<rect height="1.113199" width="25.000000" x="715.000000" y="102.105892" fill="rgb(255, 165, 0)" style="fill-opacity:1.00" />
<rect height="3.339598" width="6.250000" x="733.750000" y="102.105892" fill="rgb(255, 165, 0)" style="fill-opacity:1.00" />
<!-- End 'G' -->
<!-- Begin 'C' -->
<ellipse cx="715.000000" cy="107.719919" rx="25.000000" ry="2.274430" fill="rgb(0, 0, 128)" style="fill-opacity:1.00" />
<ellipse cx="715.000000" cy="107.719919" rx="16.666667" ry="1.516287" fill="rgb(255, 255, 255)" style="fill-opacity:1.00" />
<rect height="2.274430" width="25.000000" x="715.000000" y="106.582704" fill="rgb(255, 255, 255)" style="fill-opacity:1.00" />
<!-- End 'C' -->
<!-- Begin 'T' -->
<rect height="0.000904" width="50.000000" x="690.000000" y="109.994349" fill="rgb(0, 100, 0)" style="fill-opacity:1.00" />
<rect height="0.005651" width="10.000000" x="710.000000" y="109.994349" fill="rgb(0, 100, 0)" style="fill-opacity:1.00" />
<!-- End 'T' -->
<text x="400.000000" y="165">
IC = 14.25
</text>

</svg>
