<?xml version="1.0" encoding="UTF-8" standalone="yes"?>
                 <!DOCTYPE svg PUBLIC "-//W3C//DTD SVG 1.0//EN" "http://www.w3.org/TR/2001/REC-SVG-20010904/DTD/svg10.dtd">
                 <svg height="170" width="780" xmlns="http://www.w3.org/2000/svg" xmlns:xlink="http://www.w3.org/1999/xlink">
                 <line x1="85" y1="120" x2="747" y2="120" style="stroke:rgb(99,99,99);stroke-width:2" />
<rect height="7.000000" width="2.000000" x="85.000000" y="120.000000" fill="rgb(0, 0, 0)" style="fill-opacity:1.00" />
<text x="107.000000" y="140">
1
</text>
<rect height="7.000000" width="2.000000" x="145.000000" y="120.000000" fill="rgb(0, 0, 0)" style="fill-opacity:1.00" />
<text x="167.000000" y="140">
2
</text>
<rect height="7.000000" width="2.000000" x="205.000000" y="120.000000" fill="rgb(0, 0, 0)" style="fill-opacity:1.00" />
<text x="227.000000" y="140">
3
</text>
<rect height="7.000000" width="2.000000" x="265.000000" y="120.000000" fill="rgb(0, 0, 0)" style="fill-opacity:1.00" />
<text x="287.000000" y="140">
4
</text>
<rect height="7.000000" width="2.000000" x="325.000000" y="120.000000" fill="rgb(0, 0, 0)" style="fill-opacity:1.00" />
<text x="347.000000" y="140">
5
</text>
<rect height="7.000000" width="2.000000" x="385.000000" y="120.000000" fill="rgb(0, 0, 0)" style="fill-opacity:1.00" />
<text x="407.000000" y="140">
6
</text>
<rect height="7.000000" width="2.000000" x="445.000000" y="120.000000" fill="rgb(0, 0, 0)" style="fill-opacity:1.00" />
<text x="467.000000" y="140">
7
</text>
<rect height="7.000000" width="2.000000" x="505.000000" y="120.000000" fill="rgb(0, 0, 0)" style="fill-opacity:1.00" />
<text x="527.000000" y="140">
8
</text>
<rect height="7.000000" width="2.000000" x="565.000000" y="120.000000" fill="rgb(0, 0, 0)" style="fill-opacity:1.00" />
<text x="587.000000" y="140">
9
</text>
<rect height="7.000000" width="2.000000" x="625.000000" y="120.000000" fill="rgb(0, 0, 0)" style="fill-opacity:1.00" />
<text x="647.000000" y="140">
10
</text>
<rect height="7.000000" width="2.000000" x="685.000000" y="120.000000" fill="rgb(0, 0, 0)" style="fill-opacity:1.00" />
<text x="707.000000" y="140">
11
</text>
<rect height="7.000000" width="2.000000" x="745.000000" y="120.000000" fill="rgb(0, 0, 0)" style="fill-opacity:1.00" />
<line x1="80" y1="112" x2="80" y2="10" style="stroke:rgb(99,99,99);stroke-width:2" />
<rect height="2.000000" width="7.000000" x="73.000000" y="110.000000" fill="rgb(0, 0, 0)" style="fill-opacity:1.00" />
<text x="63" y="115">
0
</text>
<rect height="2.000000" width="7.000000" x="73.000000" y="60.000000" fill="rgb(0, 0, 0)" style="fill-opacity:1.00" />
<text x="63" y="65">
1
</text>
<rect height="2.000000" width="7.000000" x="73.000000" y="10.000000" fill="rgb(0, 0, 0)" style="fill-opacity:1.00" />
<text x="63" y="15">
2
</text>
<text x="50" y="65"
transform="rotate(-90, 50, 70)">
bits
</text>
<!-- Begin 'G' -->
<ellipse cx="115.000000" cy="106.072609" rx="25.000000" ry="0.930292" fill="rgb(255, 165, 0)" style="fill-opacity:1.00" />
<ellipse cx="115.000000" cy="106.072609" rx="16.666667" ry="0.620195" fill="rgb(255, 255, 255)" style="fill-opacity:1.00" />
<rect height="0.930292" width="25.000000" x="115.000000" y="105.607463" fill="rgb(255, 255, 255)" style="fill-opacity:1.00" />
<rect height="0.232573" width="25.000000" x="115.000000" y="106.305182" fill="rgb(255, 165, 0)" style="fill-opacity:1.00" />
<rect height="0.697719" width="6.250000" x="133.750000" y="106.305182" fill="rgb(255, 165, 0)" style="fill-opacity:1.00" />
<!-- End 'G' -->
<!-- Begin 'A' -->
<polygon points=" 90.000000, 108.386882, 111.000000, 107.002901, 119.000000, 107.002901, 140.000000, 108.386882, 132.500000, 108.386882, 126.250000, 108.040887, 103.750000, 108.040887, 97.500000, 108.386882" fill="rgb(178, 34, 34)" style="fill-opacity:1.00" />
<!-- End 'A' -->
<!-- Begin 'T' -->
<rect height="0.145181" width="50.000000" x="90.000000" y="108.386882" fill="rgb(0, 100, 0)" style="fill-opacity:1.00" />
<rect height="0.907379" width="10.000000" x="110.000000" y="108.386882" fill="rgb(0, 100, 0)" style="fill-opacity:1.00" />
<!-- End 'T' -->
<!-- Begin 'C' -->
<ellipse cx="115.000000" cy="109.647131" rx="25.000000" ry="0.352869" fill="rgb(0, 0, 128)" style="fill-opacity:1.00" />
<ellipse cx="115.000000" cy="109.647131" rx="16.666667" ry="0.235246" fill="rgb(255, 255, 255)" style="fill-opacity:1.00" />
<rect height="0.352869" width="25.000000" x="115.000000" y="109.470696" fill="rgb(255, 255, 255)" style="fill-opacity:1.00" />
<!-- End 'C' -->
<!-- Begin 'G' -->
<ellipse cx="175.000000" cy="89.162780" rx="25.000000" ry="8.456484" fill="rgb(255, 165, 0)" style="fill-opacity:1.00" />
<ellipse cx="175.000000" cy="89.162780" rx="16.666667" ry="5.637656" fill="rgb(255, 255, 255)" style="fill-opacity:1.00" />
<rect height="8.456484" width="25.000000" x="175.000000" y="84.934538" fill="rgb(255, 255, 255)" style="fill-opacity:1.00" />
<rect height="2.114121" width="25.000000" x="175.000000" y="91.276901" fill="rgb(255, 165, 0)" style="fill-opacity:1.00" />
<rect height="6.342363" width="6.250000" x="193.750000" y="91.276901" fill="rgb(255, 165, 0)" style="fill-opacity:1.00" />
<!-- End 'G' -->
<!-- Begin 'A' -->
<polygon points=" 150.000000, 106.904816, 171.000000, 97.619265, 179.000000, 97.619265, 200.000000, 106.904816, 192.500000, 106.904816, 186.250000, 104.583428, 163.750000, 104.583428, 157.500000, 106.904816" fill="rgb(178, 34, 34)" style="fill-opacity:1.00" />
<polygon points=" 175.000000, 99.476375, 167.000000, 102.190596, 182.000000, 102.190596" fill="rgb(255, 255, 255)" style="fill-opacity:1.00" />
<!-- End 'A' -->
<!-- Begin 'C' -->
<ellipse cx="175.000000" cy="108.037875" rx="25.000000" ry="1.133058" fill="rgb(0, 0, 128)" style="fill-opacity:1.00" />
<ellipse cx="175.000000" cy="108.037875" rx="16.666667" ry="0.755372" fill="rgb(255, 255, 255)" style="fill-opacity:1.00" />
<rect height="1.133058" width="25.000000" x="175.000000" y="107.471345" fill="rgb(255, 255, 255)" style="fill-opacity:1.00" />
<!-- End 'C' -->
<!-- Begin 'T' -->
<rect height="0.132651" width="50.000000" x="150.000000" y="109.170933" fill="rgb(0, 100, 0)" style="fill-opacity:1.00" />
<rect height="0.829067" width="10.000000" x="170.000000" y="109.170933" fill="rgb(0, 100, 0)" style="fill-opacity:1.00" />
<!-- End 'T' -->
<!-- Begin 'C' -->
<ellipse cx="235.000000" cy="84.550864" rx="25.000000" ry="15.238774" fill="rgb(0, 0, 128)" style="fill-opacity:1.00" />
<ellipse cx="235.000000" cy="84.550864" rx="16.666667" ry="10.159182" fill="rgb(255, 255, 255)" style="fill-opacity:1.00" />
<rect height="15.238774" width="25.000000" x="235.000000" y="76.931477" fill="rgb(255, 255, 255)" style="fill-opacity:1.00" />
<!-- End 'C' -->
<!-- Begin 'A' -->
<polygon points=" 210.000000, 105.009973, 231.000000, 99.789638, 239.000000, 99.789638, 260.000000, 105.009973, 252.500000, 105.009973, 246.250000, 103.704889, 223.750000, 103.704889, 217.500000, 105.009973" fill="rgb(178, 34, 34)" style="fill-opacity:1.00" />
<!-- End 'A' -->
<!-- Begin 'G' -->
<ellipse cx="235.000000" cy="106.276672" rx="25.000000" ry="1.266699" fill="rgb(255, 165, 0)" style="fill-opacity:1.00" />
<ellipse cx="235.000000" cy="106.276672" rx="16.666667" ry="0.844466" fill="rgb(255, 255, 255)" style="fill-opacity:1.00" />
<rect height="1.266699" width="25.000000" x="235.000000" y="105.643323" fill="rgb(255, 255, 255)" style="fill-opacity:1.00" />
<rect height="0.316675" width="25.000000" x="235.000000" y="106.593347" fill="rgb(255, 165, 0)" style="fill-opacity:1.00" />
<rect height="0.950024" width="6.250000" x="253.750000" y="106.593347" fill="rgb(255, 165, 0)" style="fill-opacity:1.00" />
<!-- End 'G' -->
<!-- Begin 'T' -->
<rect height="0.393061" width="50.000000" x="210.000000" y="107.543371" fill="rgb(0, 100, 0)" style="fill-opacity:1.00" />
<rect height="2.456629" width="10.000000" x="230.000000" y="107.543371" fill="rgb(0, 100, 0)" style="fill-opacity:1.00" />
<!-- End 'T' -->
<!-- Begin 'C' -->
<ellipse cx="295.000000" cy="72.214070" rx="25.000000" ry="29.192474" fill="rgb(0, 0, 128)" style="fill-opacity:1.00" />
<ellipse cx="295.000000" cy="72.214070" rx="16.666667" ry="19.461649" fill="rgb(255, 255, 255)" style="fill-opacity:1.00" />
<rect height="29.192474" width="25.000000" x="295.000000" y="57.617833" fill="rgb(255, 255, 255)" style="fill-opacity:1.00" />
<!-- End 'C' -->
<!-- Begin 'T' -->
<rect height="1.071654" width="50.000000" x="270.000000" y="101.406544" fill="rgb(0, 100, 0)" style="fill-opacity:1.00" />
<rect height="6.697840" width="10.000000" x="290.000000" y="101.406544" fill="rgb(0, 100, 0)" style="fill-opacity:1.00" />
<!-- End 'T' -->
<!-- Begin 'A' -->
<polygon points=" 270.000000, 109.873626, 291.000000, 108.104385, 299.000000, 108.104385, 320.000000, 109.873626, 312.500000, 109.873626, 306.250000, 109.431315, 283.750000, 109.431315, 277.500000, 109.873626" fill="rgb(178, 34, 34)" style="fill-opacity:1.00" />
<!-- End 'A' -->
<!-- Begin 'G' -->
<ellipse cx="295.000000" cy="109.936813" rx="25.000000" ry="0.063187" fill="rgb(255, 165, 0)" style="fill-opacity:1.00" />
<ellipse cx="295.000000" cy="109.936813" rx="16.666667" ry="0.042125" fill="rgb(255, 255, 255)" style="fill-opacity:1.00" />
<rect height="0.063187" width="25.000000" x="295.000000" y="109.905219" fill="rgb(255, 255, 255)" style="fill-opacity:1.00" />
<rect height="0.015797" width="25.000000" x="295.000000" y="109.952610" fill="rgb(255, 165, 0)" style="fill-opacity:1.00" />
<rect height="0.047390" width="6.250000" x="313.750000" y="109.952610" fill="rgb(255, 165, 0)" style="fill-opacity:1.00" />
<!-- End 'G' -->
<!-- Begin 'A' -->
<polygon points=" 330.000000, 96.567877, 351.000000, 53.047797, 359.000000, 53.047797, 380.000000, 96.567877, 372.500000, 96.567877, 366.250000, 85.687857, 343.750000, 85.687857, 337.500000, 96.567877" fill="rgb(178, 34, 34)" style="fill-opacity:1.00" />
<polygon points=" 355.000000, 61.751813, 347.000000, 78.159845, 362.000000, 78.159845" fill="rgb(255, 255, 255)" style="fill-opacity:1.00" />
<!-- End 'A' -->
<!-- Begin 'C' -->
<ellipse cx="355.000000" cy="102.961567" rx="25.000000" ry="6.393691" fill="rgb(0, 0, 128)" style="fill-opacity:1.00" />
<ellipse cx="355.000000" cy="102.961567" rx="16.666667" ry="4.262460" fill="rgb(255, 255, 255)" style="fill-opacity:1.00" />
<rect height="6.393691" width="25.000000" x="355.000000" y="99.764722" fill="rgb(255, 255, 255)" style="fill-opacity:1.00" />
<!-- End 'C' -->
<!-- Begin 'T' -->
<rect height="0.085966" width="50.000000" x="330.000000" y="109.355258" fill="rgb(0, 100, 0)" style="fill-opacity:1.00" />
<rect height="0.537285" width="10.000000" x="350.000000" y="109.355258" fill="rgb(0, 100, 0)" style="fill-opacity:1.00" />
<!-- End 'T' -->
<!-- Begin 'G' -->
<ellipse cx="355.000000" cy="109.946272" rx="25.000000" ry="0.053728" fill="rgb(255, 165, 0)" style="fill-opacity:1.00" />
<ellipse cx="355.000000" cy="109.946272" rx="16.666667" ry="0.035819" fill="rgb(255, 255, 255)" style="fill-opacity:1.00" />
<rect height="0.053728" width="25.000000" x="355.000000" y="109.919407" fill="rgb(255, 255, 255)" style="fill-opacity:1.00" />
<rect height="0.013432" width="25.000000" x="355.000000" y="109.959704" fill="rgb(255, 165, 0)" style="fill-opacity:1.00" />
<rect height="0.040296" width="6.250000" x="373.750000" y="109.959704" fill="rgb(255, 165, 0)" style="fill-opacity:1.00" />
<!-- End 'G' -->
<!-- Begin 'C' -->
<ellipse cx="415.000000" cy="61.209597" rx="25.000000" ry="48.241167" fill="rgb(0, 0, 128)" style="fill-opacity:1.00" />
<ellipse cx="415.000000" cy="61.209597" rx="16.666667" ry="32.160778" fill="rgb(255, 255, 255)" style="fill-opacity:1.00" />
<rect height="48.241167" width="25.000000" x="415.000000" y="37.089014" fill="rgb(255, 255, 255)" style="fill-opacity:1.00" />
<!-- End 'C' -->
<!-- Begin 'T' -->
<rect height="0.029293" width="50.000000" x="390.000000" y="109.450765" fill="rgb(0, 100, 0)" style="fill-opacity:1.00" />
<rect height="0.183078" width="10.000000" x="410.000000" y="109.450765" fill="rgb(0, 100, 0)" style="fill-opacity:1.00" />
<!-- End 'T' -->
<!-- Begin 'G' -->
<ellipse cx="415.000000" cy="109.725382" rx="25.000000" ry="0.091539" fill="rgb(255, 165, 0)" style="fill-opacity:1.00" />
<ellipse cx="415.000000" cy="109.725382" rx="16.666667" ry="0.061026" fill="rgb(255, 255, 255)" style="fill-opacity:1.00" />
<rect height="0.091539" width="25.000000" x="415.000000" y="109.679613" fill="rgb(255, 255, 255)" style="fill-opacity:1.00" />
<rect height="0.022885" width="25.000000" x="415.000000" y="109.748267" fill="rgb(255, 165, 0)" style="fill-opacity:1.00" />
<rect height="0.068654" width="6.250000" x="433.750000" y="109.748267" fill="rgb(255, 165, 0)" style="fill-opacity:1.00" />
<!-- End 'G' -->
<!-- Begin 'A' -->
<polygon points=" 390.000000, 110.000000, 411.000000, 109.816922, 419.000000, 109.816922, 440.000000, 110.000000, 432.500000, 110.000000, 426.250000, 109.954230, 403.750000, 109.954230, 397.500000, 110.000000" fill="rgb(178, 34, 34)" style="fill-opacity:1.00" />
<!-- End 'A' -->
<!-- Begin 'A' -->
<polygon points=" 450.000000, 97.906896, 471.000000, 60.315153, 479.000000, 60.315153, 500.000000, 97.906896, 492.500000, 97.906896, 486.250000, 88.508960, 463.750000, 88.508960, 457.500000, 97.906896" fill="rgb(178, 34, 34)" style="fill-opacity:1.00" />
<polygon points=" 475.000000, 67.833501, 467.000000, 81.870199, 482.000000, 81.870199" fill="rgb(255, 255, 255)" style="fill-opacity:1.00" />
<!-- End 'A' -->
<!-- Begin 'G' -->
<ellipse cx="475.000000" cy="102.500400" rx="25.000000" ry="4.593505" fill="rgb(255, 165, 0)" style="fill-opacity:1.00" />
<ellipse cx="475.000000" cy="102.500400" rx="16.666667" ry="3.062336" fill="rgb(255, 255, 255)" style="fill-opacity:1.00" />
<rect height="4.593505" width="25.000000" x="475.000000" y="100.203648" fill="rgb(255, 255, 255)" style="fill-opacity:1.00" />
<rect height="1.148376" width="25.000000" x="475.000000" y="103.648777" fill="rgb(255, 165, 0)" style="fill-opacity:1.00" />
<rect height="3.445129" width="6.250000" x="493.750000" y="103.648777" fill="rgb(255, 165, 0)" style="fill-opacity:1.00" />
<!-- End 'G' -->
<!-- Begin 'T' -->
<rect height="0.449976" width="50.000000" x="450.000000" y="107.093905" fill="rgb(0, 100, 0)" style="fill-opacity:1.00" />
<rect height="2.812350" width="10.000000" x="470.000000" y="107.093905" fill="rgb(0, 100, 0)" style="fill-opacity:1.00" />
<!-- End 'T' -->
<!-- Begin 'C' -->
<ellipse cx="475.000000" cy="109.953128" rx="25.000000" ry="0.046872" fill="rgb(0, 0, 128)" style="fill-opacity:1.00" />
<ellipse cx="475.000000" cy="109.953128" rx="16.666667" ry="0.031248" fill="rgb(255, 255, 255)" style="fill-opacity:1.00" />
<rect height="0.046872" width="25.000000" x="475.000000" y="109.929691" fill="rgb(255, 255, 255)" style="fill-opacity:1.00" />
<!-- End 'C' -->
<!-- Begin 'C' -->
<ellipse cx="535.000000" cy="61.209597" rx="25.000000" ry="48.241167" fill="rgb(0, 0, 128)" style="fill-opacity:1.00" />
<ellipse cx="535.000000" cy="61.209597" rx="16.666667" ry="32.160778" fill="rgb(255, 255, 255)" style="fill-opacity:1.00" />
<rect height="48.241167" width="25.000000" x="535.000000" y="37.089014" fill="rgb(255, 255, 255)" style="fill-opacity:1.00" />
<!-- End 'C' -->
<!-- Begin 'T' -->
<rect height="0.029293" width="50.000000" x="510.000000" y="109.450765" fill="rgb(0, 100, 0)" style="fill-opacity:1.00" />
<rect height="0.183078" width="10.000000" x="530.000000" y="109.450765" fill="rgb(0, 100, 0)" style="fill-opacity:1.00" />
<!-- End 'T' -->
<!-- Begin 'G' -->
<ellipse cx="535.000000" cy="109.725382" rx="25.000000" ry="0.091539" fill="rgb(255, 165, 0)" style="fill-opacity:1.00" />
<ellipse cx="535.000000" cy="109.725382" rx="16.666667" ry="0.061026" fill="rgb(255, 255, 255)" style="fill-opacity:1.00" />
<rect height="0.091539" width="25.000000" x="535.000000" y="109.679613" fill="rgb(255, 255, 255)" style="fill-opacity:1.00" />
<rect height="0.022885" width="25.000000" x="535.000000" y="109.748267" fill="rgb(255, 165, 0)" style="fill-opacity:1.00" />
<rect height="0.068654" width="6.250000" x="553.750000" y="109.748267" fill="rgb(255, 165, 0)" style="fill-opacity:1.00" />
<!-- End 'G' -->
<!-- Begin 'A' -->
<polygon points=" 510.000000, 110.000000, 531.000000, 109.816922, 539.000000, 109.816922, 560.000000, 110.000000, 552.500000, 110.000000, 546.250000, 109.954230, 523.750000, 109.954230, 517.500000, 110.000000" fill="rgb(178, 34, 34)" style="fill-opacity:1.00" />
<!-- End 'A' -->
<!-- Begin 'C' -->
<ellipse cx="595.000000" cy="61.209597" rx="25.000000" ry="48.241167" fill="rgb(0, 0, 128)" style="fill-opacity:1.00" />
<ellipse cx="595.000000" cy="61.209597" rx="16.666667" ry="32.160778" fill="rgb(255, 255, 255)" style="fill-opacity:1.00" />
<rect height="48.241167" width="25.000000" x="595.000000" y="37.089014" fill="rgb(255, 255, 255)" style="fill-opacity:1.00" />
<!-- End 'C' -->
<!-- Begin 'T' -->
<rect height="0.029293" width="50.000000" x="570.000000" y="109.450765" fill="rgb(0, 100, 0)" style="fill-opacity:1.00" />
<rect height="0.183078" width="10.000000" x="590.000000" y="109.450765" fill="rgb(0, 100, 0)" style="fill-opacity:1.00" />
<!-- End 'T' -->
<!-- Begin 'G' -->
<ellipse cx="595.000000" cy="109.725382" rx="25.000000" ry="0.091539" fill="rgb(255, 165, 0)" style="fill-opacity:1.00" />
<ellipse cx="595.000000" cy="109.725382" rx="16.666667" ry="0.061026" fill="rgb(255, 255, 255)" style="fill-opacity:1.00" />
<rect height="0.091539" width="25.000000" x="595.000000" y="109.679613" fill="rgb(255, 255, 255)" style="fill-opacity:1.00" />
<rect height="0.022885" width="25.000000" x="595.000000" y="109.748267" fill="rgb(255, 165, 0)" style="fill-opacity:1.00" />
<rect height="0.068654" width="6.250000" x="613.750000" y="109.748267" fill="rgb(255, 165, 0)" style="fill-opacity:1.00" />
<!-- End 'G' -->
<!-- Begin 'A' -->
<polygon points=" 570.000000, 110.000000, 591.000000, 109.816922, 599.000000, 109.816922, 620.000000, 110.000000, 612.500000, 110.000000, 606.250000, 109.954230, 583.750000, 109.954230, 577.500000, 110.000000" fill="rgb(178, 34, 34)" style="fill-opacity:1.00" />
<!-- End 'A' -->
<!-- Begin 'C' -->
<ellipse cx="655.000000" cy="64.836463" rx="25.000000" ry="41.720945" fill="rgb(0, 0, 128)" style="fill-opacity:1.00" />
<ellipse cx="655.000000" cy="64.836463" rx="16.666667" ry="27.813963" fill="rgb(255, 255, 255)" style="fill-opacity:1.00" />
<rect height="41.720945" width="25.000000" x="655.000000" y="43.975990" fill="rgb(255, 255, 255)" style="fill-opacity:1.00" />
<!-- End 'C' -->
<!-- Begin 'T' -->
<rect height="0.498356" width="50.000000" x="630.000000" y="106.557407" fill="rgb(0, 100, 0)" style="fill-opacity:1.00" />
<rect height="3.114727" width="10.000000" x="650.000000" y="106.557407" fill="rgb(0, 100, 0)" style="fill-opacity:1.00" />
<!-- End 'T' -->
<!-- Begin 'G' -->
<ellipse cx="655.000000" cy="109.754101" rx="25.000000" ry="0.081966" fill="rgb(255, 165, 0)" style="fill-opacity:1.00" />
<ellipse cx="655.000000" cy="109.754101" rx="16.666667" ry="0.054644" fill="rgb(255, 255, 255)" style="fill-opacity:1.00" />
<rect height="0.081966" width="25.000000" x="655.000000" y="109.713117" fill="rgb(255, 255, 255)" style="fill-opacity:1.00" />
<rect height="0.020492" width="25.000000" x="655.000000" y="109.774592" fill="rgb(255, 165, 0)" style="fill-opacity:1.00" />
<rect height="0.061475" width="6.250000" x="673.750000" y="109.774592" fill="rgb(255, 165, 0)" style="fill-opacity:1.00" />
<!-- End 'G' -->
<!-- Begin 'A' -->
<polygon points=" 630.000000, 110.000000, 651.000000, 109.836067, 659.000000, 109.836067, 680.000000, 110.000000, 672.500000, 110.000000, 666.250000, 109.959017, 643.750000, 109.959017, 637.500000, 110.000000" fill="rgb(178, 34, 34)" style="fill-opacity:1.00" />
<!-- End 'A' -->
<!-- Begin 'A' -->
<polygon points=" 690.000000, 93.432924, 711.000000, 74.736745, 719.000000, 74.736745, 740.000000, 93.432924, 732.500000, 93.432924, 726.250000, 88.758879, 703.750000, 88.758879, 697.500000, 93.432924" fill="rgb(178, 34, 34)" style="fill-opacity:1.00" />
<polygon points=" 715.000000, 78.475981, 707.000000, 84.954452, 722.000000, 84.954452" fill="rgb(255, 255, 255)" style="fill-opacity:1.00" />
<!-- End 'A' -->
<!-- Begin 'T' -->
<rect height="2.256848" width="50.000000" x="690.000000" y="93.432924" fill="rgb(0, 100, 0)" style="fill-opacity:1.00" />
<rect height="14.105302" width="10.000000" x="710.000000" y="93.432924" fill="rgb(0, 100, 0)" style="fill-opacity:1.00" />
<!-- End 'T' -->
<!-- Begin 'C' -->
<ellipse cx="715.000000" cy="108.735846" rx="25.000000" ry="1.197620" fill="rgb(0, 0, 128)" style="fill-opacity:1.00" />
<ellipse cx="715.000000" cy="108.735846" rx="16.666667" ry="0.798413" fill="rgb(255, 255, 255)" style="fill-opacity:1.00" />
<rect height="1.197620" width="25.000000" x="715.000000" y="108.137036" fill="rgb(255, 255, 255)" style="fill-opacity:1.00" />
<!-- End 'C' -->
<!-- Begin 'G' -->
<ellipse cx="715.000000" cy="109.966733" rx="25.000000" ry="0.033267" fill="rgb(255, 165, 0)" style="fill-opacity:1.00" />
<ellipse cx="715.000000" cy="109.966733" rx="16.666667" ry="0.022178" fill="rgb(255, 255, 255)" style="fill-opacity:1.00" />
<rect height="0.033267" width="25.000000" x="715.000000" y="109.950099" fill="rgb(255, 255, 255)" style="fill-opacity:1.00" />
<rect height="0.008317" width="25.000000" x="715.000000" y="109.975050" fill="rgb(255, 165, 0)" style="fill-opacity:1.00" />
<rect height="0.024950" width="6.250000" x="733.750000" y="109.975050" fill="rgb(255, 165, 0)" style="fill-opacity:1.00" />
<!-- End 'G' -->
<text x="400.000000" y="165">
IC = 13.23
</text>

</svg>
