<?xml version="1.0" encoding="UTF-8" standalone="yes"?>
                 <!DOCTYPE svg PUBLIC "-//W3C//DTD SVG 1.0//EN" "http://www.w3.org/TR/2001/REC-SVG-20010904/DTD/svg10.dtd">
                 <svg height="170" width="1020" xmlns="http://www.w3.org/2000/svg" xmlns:xlink="http://www.w3.org/1999/xlink">
                 <line x1="85" y1="120" x2="987" y2="120" style="stroke:rgb(99,99,99);stroke-width:2" />
<rect height="7.000000" width="2.000000" x="85.000000" y="120.000000" fill="rgb(0, 0, 0)" style="fill-opacity:1.00" />
<text x="107.000000" y="140">
1
</text>
<rect height="7.000000" width="2.000000" x="145.000000" y="120.000000" fill="rgb(0, 0, 0)" style="fill-opacity:1.00" />
<text x="167.000000" y="140">
2
</text>
<rect height="7.000000" width="2.000000" x="205.000000" y="120.000000" fill="rgb(0, 0, 0)" style="fill-opacity:1.00" />
<text x="227.000000" y="140">
3
</text>
<rect height="7.000000" width="2.000000" x="265.000000" y="120.000000" fill="rgb(0, 0, 0)" style="fill-opacity:1.00" />
<text x="287.000000" y="140">
4
</text>
<rect height="7.000000" width="2.000000" x="325.000000" y="120.000000" fill="rgb(0, 0, 0)" style="fill-opacity:1.00" />
<text x="347.000000" y="140">
5
</text>
<rect height="7.000000" width="2.000000" x="385.000000" y="120.000000" fill="rgb(0, 0, 0)" style="fill-opacity:1.00" />
<text x="407.000000" y="140">
6
</text>
<rect height="7.000000" width="2.000000" x="445.000000" y="120.000000" fill="rgb(0, 0, 0)" style="fill-opacity:1.00" />
<text x="467.000000" y="140">
7
</text>
<rect height="7.000000" width="2.000000" x="505.000000" y="120.000000" fill="rgb(0, 0, 0)" style="fill-opacity:1.00" />
<text x="527.000000" y="140">
8
</text>
<rect height="7.000000" width="2.000000" x="565.000000" y="120.000000" fill="rgb(0, 0, 0)" style="fill-opacity:1.00" />
<text x="587.000000" y="140">
9
</text>
<rect height="7.000000" width="2.000000" x="625.000000" y="120.000000" fill="rgb(0, 0, 0)" style="fill-opacity:1.00" />
<text x="647.000000" y="140">
10
</text>
<rect height="7.000000" width="2.000000" x="685.000000" y="120.000000" fill="rgb(0, 0, 0)" style="fill-opacity:1.00" />
<text x="707.000000" y="140">
11
</text>
<rect height="7.000000" width="2.000000" x="745.000000" y="120.000000" fill="rgb(0, 0, 0)" style="fill-opacity:1.00" />
<text x="767.000000" y="140">
12
</text>
<rect height="7.000000" width="2.000000" x="805.000000" y="120.000000" fill="rgb(0, 0, 0)" style="fill-opacity:1.00" />
<text x="827.000000" y="140">
13
</text>
<rect height="7.000000" width="2.000000" x="865.000000" y="120.000000" fill="rgb(0, 0, 0)" style="fill-opacity:1.00" />
<text x="887.000000" y="140">
14
</text>
<rect height="7.000000" width="2.000000" x="925.000000" y="120.000000" fill="rgb(0, 0, 0)" style="fill-opacity:1.00" />
<text x="947.000000" y="140">
15
</text>
<rect height="7.000000" width="2.000000" x="985.000000" y="120.000000" fill="rgb(0, 0, 0)" style="fill-opacity:1.00" />
<line x1="80" y1="112" x2="80" y2="10" style="stroke:rgb(99,99,99);stroke-width:2" />
<rect height="2.000000" width="7.000000" x="73.000000" y="110.000000" fill="rgb(0, 0, 0)" style="fill-opacity:1.00" />
<text x="63" y="115">
0
</text>
<rect height="2.000000" width="7.000000" x="73.000000" y="60.000000" fill="rgb(0, 0, 0)" style="fill-opacity:1.00" />
<text x="63" y="65">
1
</text>
<rect height="2.000000" width="7.000000" x="73.000000" y="10.000000" fill="rgb(0, 0, 0)" style="fill-opacity:1.00" />
<text x="63" y="15">
2
</text>
<text x="50" y="65"
transform="rotate(-90, 50, 70)">
bits
</text>
<!-- Begin 'G' -->
<ellipse cx="115.000000" cy="109.899426" rx="25.000000" ry="0.015354" fill="rgb(255, 165, 0)" style="fill-opacity:1.00" />
<ellipse cx="115.000000" cy="109.899426" rx="16.666667" ry="0.010236" fill="rgb(255, 255, 255)" style="fill-opacity:1.00" />
<rect height="0.015354" width="25.000000" x="115.000000" y="109.891749" fill="rgb(255, 255, 255)" style="fill-opacity:1.00" />
<rect height="0.003839" width="25.000000" x="115.000000" y="109.903265" fill="rgb(255, 165, 0)" style="fill-opacity:1.00" />
<rect height="0.011516" width="6.250000" x="133.750000" y="109.903265" fill="rgb(255, 165, 0)" style="fill-opacity:1.00" />
<!-- End 'G' -->
<!-- Begin 'C' -->
<ellipse cx="115.000000" cy="109.929636" rx="25.000000" ry="0.014856" fill="rgb(0, 0, 128)" style="fill-opacity:1.00" />
<ellipse cx="115.000000" cy="109.929636" rx="16.666667" ry="0.009904" fill="rgb(255, 255, 255)" style="fill-opacity:1.00" />
<rect height="0.014856" width="25.000000" x="115.000000" y="109.922208" fill="rgb(255, 255, 255)" style="fill-opacity:1.00" />
<!-- End 'C' -->
<!-- Begin 'T' -->
<rect height="0.004670" width="50.000000" x="90.000000" y="109.944492" fill="rgb(0, 100, 0)" style="fill-opacity:1.00" />
<rect height="0.029187" width="10.000000" x="110.000000" y="109.944492" fill="rgb(0, 100, 0)" style="fill-opacity:1.00" />
<!-- End 'T' -->
<!-- Begin 'A' -->
<polygon points=" 90.000000, 110.000000, 111.000000, 109.973679, 119.000000, 109.973679, 140.000000, 110.000000, 132.500000, 110.000000, 126.250000, 109.993420, 103.750000, 109.993420, 97.500000, 110.000000" fill="rgb(178, 34, 34)" style="fill-opacity:1.00" />
<!-- End 'A' -->
<!-- Begin 'C' -->
<ellipse cx="175.000000" cy="103.287919" rx="25.000000" ry="1.534897" fill="rgb(0, 0, 128)" style="fill-opacity:1.00" />
<ellipse cx="175.000000" cy="103.287919" rx="16.666667" ry="1.023264" fill="rgb(255, 255, 255)" style="fill-opacity:1.00" />
<rect height="1.534897" width="25.000000" x="175.000000" y="102.520471" fill="rgb(255, 255, 255)" style="fill-opacity:1.00" />
<!-- End 'C' -->
<!-- Begin 'T' -->
<rect height="0.387979" width="50.000000" x="150.000000" y="104.822816" fill="rgb(0, 100, 0)" style="fill-opacity:1.00" />
<rect height="2.424871" width="10.000000" x="170.000000" y="104.822816" fill="rgb(0, 100, 0)" style="fill-opacity:1.00" />
<!-- End 'T' -->
<!-- Begin 'A' -->
<polygon points=" 150.000000, 109.380603, 171.000000, 107.247687, 179.000000, 107.247687, 200.000000, 109.380603, 192.500000, 109.380603, 186.250000, 108.847374, 163.750000, 108.847374, 157.500000, 109.380603" fill="rgb(178, 34, 34)" style="fill-opacity:1.00" />
<!-- End 'A' -->
<!-- Begin 'G' -->
<ellipse cx="175.000000" cy="109.690301" rx="25.000000" ry="0.309699" fill="rgb(255, 165, 0)" style="fill-opacity:1.00" />
<ellipse cx="175.000000" cy="109.690301" rx="16.666667" ry="0.206466" fill="rgb(255, 255, 255)" style="fill-opacity:1.00" />
<rect height="0.309699" width="25.000000" x="175.000000" y="109.535452" fill="rgb(255, 255, 255)" style="fill-opacity:1.00" />
<rect height="0.077425" width="25.000000" x="175.000000" y="109.767726" fill="rgb(255, 165, 0)" style="fill-opacity:1.00" />
<rect height="0.232274" width="6.250000" x="193.750000" y="109.767726" fill="rgb(255, 165, 0)" style="fill-opacity:1.00" />
<!-- End 'G' -->
<!-- Begin 'G' -->
<ellipse cx="235.000000" cy="106.879302" rx="25.000000" ry="0.572190" fill="rgb(255, 165, 0)" style="fill-opacity:1.00" />
<ellipse cx="235.000000" cy="106.879302" rx="16.666667" ry="0.381460" fill="rgb(255, 255, 255)" style="fill-opacity:1.00" />
<rect height="0.572190" width="25.000000" x="235.000000" y="106.593207" fill="rgb(255, 255, 255)" style="fill-opacity:1.00" />
<rect height="0.143048" width="25.000000" x="235.000000" y="107.022350" fill="rgb(255, 165, 0)" style="fill-opacity:1.00" />
<rect height="0.429143" width="6.250000" x="253.750000" y="107.022350" fill="rgb(255, 165, 0)" style="fill-opacity:1.00" />
<!-- End 'G' -->
<!-- Begin 'T' -->
<rect height="0.168503" width="50.000000" x="210.000000" y="107.451493" fill="rgb(0, 100, 0)" style="fill-opacity:1.00" />
<rect height="1.053146" width="10.000000" x="230.000000" y="107.451493" fill="rgb(0, 100, 0)" style="fill-opacity:1.00" />
<!-- End 'T' -->
<!-- Begin 'A' -->
<polygon points=" 210.000000, 109.547773, 231.000000, 108.504639, 239.000000, 108.504639, 260.000000, 109.547773, 252.500000, 109.547773, 246.250000, 109.286989, 223.750000, 109.286989, 217.500000, 109.547773" fill="rgb(178, 34, 34)" style="fill-opacity:1.00" />
<!-- End 'A' -->
<!-- Begin 'C' -->
<ellipse cx="235.000000" cy="109.773886" rx="25.000000" ry="0.226114" fill="rgb(0, 0, 128)" style="fill-opacity:1.00" />
<ellipse cx="235.000000" cy="109.773886" rx="16.666667" ry="0.150742" fill="rgb(255, 255, 255)" style="fill-opacity:1.00" />
<rect height="0.226114" width="25.000000" x="235.000000" y="109.660830" fill="rgb(255, 255, 255)" style="fill-opacity:1.00" />
<!-- End 'C' -->
<!-- Begin 'G' -->
<ellipse cx="295.000000" cy="109.029471" rx="25.000000" ry="0.176006" fill="rgb(255, 165, 0)" style="fill-opacity:1.00" />
<ellipse cx="295.000000" cy="109.029471" rx="16.666667" ry="0.117338" fill="rgb(255, 255, 255)" style="fill-opacity:1.00" />
<rect height="0.176006" width="25.000000" x="295.000000" y="108.941467" fill="rgb(255, 255, 255)" style="fill-opacity:1.00" />
<rect height="0.044002" width="25.000000" x="295.000000" y="109.073472" fill="rgb(255, 165, 0)" style="fill-opacity:1.00" />
<rect height="0.132005" width="6.250000" x="313.750000" y="109.073472" fill="rgb(255, 165, 0)" style="fill-opacity:1.00" />
<!-- End 'G' -->
<!-- Begin 'C' -->
<ellipse cx="295.000000" cy="109.365483" rx="25.000000" ry="0.160006" fill="rgb(0, 0, 128)" style="fill-opacity:1.00" />
<ellipse cx="295.000000" cy="109.365483" rx="16.666667" ry="0.106670" fill="rgb(255, 255, 255)" style="fill-opacity:1.00" />
<rect height="0.160006" width="25.000000" x="295.000000" y="109.285480" fill="rgb(255, 255, 255)" style="fill-opacity:1.00" />
<!-- End 'C' -->
<!-- Begin 'A' -->
<polygon points=" 270.000000, 109.772028, 291.000000, 109.525489, 299.000000, 109.525489, 320.000000, 109.772028, 312.500000, 109.772028, 306.250000, 109.710393, 283.750000, 109.710393, 277.500000, 109.772028" fill="rgb(178, 34, 34)" style="fill-opacity:1.00" />
<!-- End 'A' -->
<!-- Begin 'T' -->
<rect height="0.036476" width="50.000000" x="270.000000" y="109.772028" fill="rgb(0, 100, 0)" style="fill-opacity:1.00" />
<rect height="0.227972" width="10.000000" x="290.000000" y="109.772028" fill="rgb(0, 100, 0)" style="fill-opacity:1.00" />
<!-- End 'T' -->
<!-- Begin 'C' -->
<ellipse cx="355.000000" cy="91.029381" rx="25.000000" ry="8.193034" fill="rgb(0, 0, 128)" style="fill-opacity:1.00" />
<ellipse cx="355.000000" cy="91.029381" rx="16.666667" ry="5.462023" fill="rgb(255, 255, 255)" style="fill-opacity:1.00" />
<rect height="8.193034" width="25.000000" x="355.000000" y="86.932864" fill="rgb(255, 255, 255)" style="fill-opacity:1.00" />
<!-- End 'C' -->
<!-- Begin 'T' -->
<rect height="0.849843" width="50.000000" x="330.000000" y="99.222415" fill="rgb(0, 100, 0)" style="fill-opacity:1.00" />
<rect height="5.311516" width="10.000000" x="350.000000" y="99.222415" fill="rgb(0, 100, 0)" style="fill-opacity:1.00" />
<!-- End 'T' -->
<!-- Begin 'A' -->
<polygon points=" 330.000000, 109.481978, 351.000000, 104.533932, 359.000000, 104.533932, 380.000000, 109.481978, 372.500000, 109.481978, 366.250000, 108.244966, 343.750000, 108.244966, 337.500000, 109.481978" fill="rgb(178, 34, 34)" style="fill-opacity:1.00" />
<!-- End 'A' -->
<!-- Begin 'G' -->
<ellipse cx="355.000000" cy="109.740989" rx="25.000000" ry="0.259011" fill="rgb(255, 165, 0)" style="fill-opacity:1.00" />
<ellipse cx="355.000000" cy="109.740989" rx="16.666667" ry="0.172674" fill="rgb(255, 255, 255)" style="fill-opacity:1.00" />
<rect height="0.259011" width="25.000000" x="355.000000" y="109.611483" fill="rgb(255, 255, 255)" style="fill-opacity:1.00" />
<rect height="0.064753" width="25.000000" x="355.000000" y="109.805742" fill="rgb(255, 165, 0)" style="fill-opacity:1.00" />
<rect height="0.194258" width="6.250000" x="373.750000" y="109.805742" fill="rgb(255, 165, 0)" style="fill-opacity:1.00" />
<!-- End 'G' -->
<!-- Begin 'G' -->
<ellipse cx="415.000000" cy="79.517609" rx="25.000000" ry="20.178404" fill="rgb(255, 165, 0)" style="fill-opacity:1.00" />
<ellipse cx="415.000000" cy="79.517609" rx="16.666667" ry="13.452269" fill="rgb(255, 255, 255)" style="fill-opacity:1.00" />
<rect height="20.178404" width="25.000000" x="415.000000" y="69.428407" fill="rgb(255, 255, 255)" style="fill-opacity:1.00" />
<rect height="5.044601" width="25.000000" x="415.000000" y="84.562210" fill="rgb(255, 165, 0)" style="fill-opacity:1.00" />
<rect height="15.133803" width="6.250000" x="433.750000" y="84.562210" fill="rgb(255, 165, 0)" style="fill-opacity:1.00" />
<!-- End 'G' -->
<!-- Begin 'A' -->
<polygon points=" 390.000000, 104.652870, 411.000000, 99.696013, 419.000000, 99.696013, 440.000000, 104.652870, 432.500000, 104.652870, 426.250000, 103.413656, 403.750000, 103.413656, 397.500000, 104.652870" fill="rgb(178, 34, 34)" style="fill-opacity:1.00" />
<!-- End 'A' -->
<!-- Begin 'T' -->
<rect height="0.755479" width="50.000000" x="390.000000" y="104.652870" fill="rgb(0, 100, 0)" style="fill-opacity:1.00" />
<rect height="4.721743" width="10.000000" x="410.000000" y="104.652870" fill="rgb(0, 100, 0)" style="fill-opacity:1.00" />
<!-- End 'T' -->
<!-- Begin 'C' -->
<ellipse cx="415.000000" cy="109.687307" rx="25.000000" ry="0.312693" fill="rgb(0, 0, 128)" style="fill-opacity:1.00" />
<ellipse cx="415.000000" cy="109.687307" rx="16.666667" ry="0.208462" fill="rgb(255, 255, 255)" style="fill-opacity:1.00" />
<rect height="0.312693" width="25.000000" x="415.000000" y="109.530960" fill="rgb(255, 255, 255)" style="fill-opacity:1.00" />
<!-- End 'C' -->
<!-- Begin 'G' -->
<ellipse cx="475.000000" cy="90.989361" rx="25.000000" ry="5.486124" fill="rgb(255, 165, 0)" style="fill-opacity:1.00" />
<ellipse cx="475.000000" cy="90.989361" rx="16.666667" ry="3.657416" fill="rgb(255, 255, 255)" style="fill-opacity:1.00" />
<rect height="5.486124" width="25.000000" x="475.000000" y="88.246299" fill="rgb(255, 255, 255)" style="fill-opacity:1.00" />
<rect height="1.371531" width="25.000000" x="475.000000" y="92.360892" fill="rgb(255, 165, 0)" style="fill-opacity:1.00" />
<rect height="4.114593" width="6.250000" x="493.750000" y="92.360892" fill="rgb(255, 165, 0)" style="fill-opacity:1.00" />
<!-- End 'G' -->
<!-- Begin 'C' -->
<ellipse cx="475.000000" cy="101.779835" rx="25.000000" ry="5.304350" fill="rgb(0, 0, 128)" style="fill-opacity:1.00" />
<ellipse cx="475.000000" cy="101.779835" rx="16.666667" ry="3.536233" fill="rgb(255, 255, 255)" style="fill-opacity:1.00" />
<rect height="5.304350" width="25.000000" x="475.000000" y="99.127660" fill="rgb(255, 255, 255)" style="fill-opacity:1.00" />
<!-- End 'C' -->
<!-- Begin 'A' -->
<polygon points=" 450.000000, 109.167363, 471.000000, 107.084185, 479.000000, 107.084185, 500.000000, 109.167363, 492.500000, 109.167363, 486.250000, 108.646569, 463.750000, 108.646569, 457.500000, 109.167363" fill="rgb(178, 34, 34)" style="fill-opacity:1.00" />
<!-- End 'A' -->
<!-- Begin 'T' -->
<rect height="0.133222" width="50.000000" x="450.000000" y="109.167363" fill="rgb(0, 100, 0)" style="fill-opacity:1.00" />
<rect height="0.832637" width="10.000000" x="470.000000" y="109.167363" fill="rgb(0, 100, 0)" style="fill-opacity:1.00" />
<!-- End 'T' -->
<!-- Begin 'C' -->
<ellipse cx="535.000000" cy="71.843216" rx="25.000000" ry="30.223635" fill="rgb(0, 0, 128)" style="fill-opacity:1.00" />
<ellipse cx="535.000000" cy="71.843216" rx="16.666667" ry="20.149090" fill="rgb(255, 255, 255)" style="fill-opacity:1.00" />
<rect height="30.223635" width="25.000000" x="535.000000" y="56.731399" fill="rgb(255, 255, 255)" style="fill-opacity:1.00" />
<!-- End 'C' -->
<!-- Begin 'T' -->
<rect height="0.836565" width="50.000000" x="510.000000" y="102.066851" fill="rgb(0, 100, 0)" style="fill-opacity:1.00" />
<rect height="5.228533" width="10.000000" x="530.000000" y="102.066851" fill="rgb(0, 100, 0)" style="fill-opacity:1.00" />
<!-- End 'T' -->
<!-- Begin 'A' -->
<polygon points=" 510.000000, 109.925443, 531.000000, 107.295384, 539.000000, 107.295384, 560.000000, 109.925443, 552.500000, 109.925443, 546.250000, 109.267928, 523.750000, 109.267928, 517.500000, 109.925443" fill="rgb(178, 34, 34)" style="fill-opacity:1.00" />
<!-- End 'A' -->
<!-- Begin 'G' -->
<ellipse cx="535.000000" cy="109.962721" rx="25.000000" ry="0.037279" fill="rgb(255, 165, 0)" style="fill-opacity:1.00" />
<ellipse cx="535.000000" cy="109.962721" rx="16.666667" ry="0.024852" fill="rgb(255, 255, 255)" style="fill-opacity:1.00" />
<rect height="0.037279" width="25.000000" x="535.000000" y="109.944082" fill="rgb(255, 255, 255)" style="fill-opacity:1.00" />
<rect height="0.009320" width="25.000000" x="535.000000" y="109.972041" fill="rgb(255, 165, 0)" style="fill-opacity:1.00" />
<rect height="0.027959" width="6.250000" x="553.750000" y="109.972041" fill="rgb(255, 165, 0)" style="fill-opacity:1.00" />
<!-- End 'G' -->
<!-- Begin 'G' -->
<ellipse cx="595.000000" cy="70.364341" rx="25.000000" ry="32.896559" fill="rgb(255, 165, 0)" style="fill-opacity:1.00" />
<ellipse cx="595.000000" cy="70.364341" rx="16.666667" ry="21.931039" fill="rgb(255, 255, 255)" style="fill-opacity:1.00" />
<rect height="32.896559" width="25.000000" x="595.000000" y="53.916062" fill="rgb(255, 255, 255)" style="fill-opacity:1.00" />
<rect height="8.224140" width="25.000000" x="595.000000" y="78.588481" fill="rgb(255, 165, 0)" style="fill-opacity:1.00" />
<rect height="24.672419" width="6.250000" x="613.750000" y="78.588481" fill="rgb(255, 165, 0)" style="fill-opacity:1.00" />
<!-- End 'G' -->
<!-- Begin 'A' -->
<polygon points=" 570.000000, 107.548731, 591.000000, 103.260900, 599.000000, 103.260900, 620.000000, 107.548731, 612.500000, 107.548731, 606.250000, 106.476773, 583.750000, 106.476773, 577.500000, 107.548731" fill="rgb(178, 34, 34)" style="fill-opacity:1.00" />
<!-- End 'A' -->
<!-- Begin 'T' -->
<rect height="0.354721" width="50.000000" x="570.000000" y="107.548731" fill="rgb(0, 100, 0)" style="fill-opacity:1.00" />
<rect height="2.217004" width="10.000000" x="590.000000" y="107.548731" fill="rgb(0, 100, 0)" style="fill-opacity:1.00" />
<!-- End 'T' -->
<!-- Begin 'C' -->
<ellipse cx="595.000000" cy="109.882868" rx="25.000000" ry="0.117132" fill="rgb(0, 0, 128)" style="fill-opacity:1.00" />
<ellipse cx="595.000000" cy="109.882868" rx="16.666667" ry="0.078088" fill="rgb(255, 255, 255)" style="fill-opacity:1.00" />
<rect height="0.117132" width="25.000000" x="595.000000" y="109.824301" fill="rgb(255, 255, 255)" style="fill-opacity:1.00" />
<!-- End 'C' -->
<!-- Begin 'G' -->
<ellipse cx="655.000000" cy="92.828683" rx="25.000000" ry="5.742638" fill="rgb(255, 165, 0)" style="fill-opacity:1.00" />
<ellipse cx="655.000000" cy="92.828683" rx="16.666667" ry="3.828425" fill="rgb(255, 255, 255)" style="fill-opacity:1.00" />
<rect height="5.742638" width="25.000000" x="655.000000" y="89.957364" fill="rgb(255, 255, 255)" style="fill-opacity:1.00" />
<rect height="1.435660" width="25.000000" x="655.000000" y="94.264343" fill="rgb(255, 165, 0)" style="fill-opacity:1.00" />
<rect height="4.306979" width="6.250000" x="673.750000" y="94.264343" fill="rgb(255, 165, 0)" style="fill-opacity:1.00" />
<!-- End 'G' -->
<!-- Begin 'C' -->
<ellipse cx="655.000000" cy="102.799020" rx="25.000000" ry="4.227699" fill="rgb(0, 0, 128)" style="fill-opacity:1.00" />
<ellipse cx="655.000000" cy="102.799020" rx="16.666667" ry="2.818466" fill="rgb(255, 255, 255)" style="fill-opacity:1.00" />
<rect height="4.227699" width="25.000000" x="655.000000" y="100.685171" fill="rgb(255, 255, 255)" style="fill-opacity:1.00" />
<!-- End 'C' -->
<!-- Begin 'T' -->
<rect height="0.255334" width="50.000000" x="630.000000" y="107.026719" fill="rgb(0, 100, 0)" style="fill-opacity:1.00" />
<rect height="1.595836" width="10.000000" x="650.000000" y="107.026719" fill="rgb(0, 100, 0)" style="fill-opacity:1.00" />
<!-- End 'T' -->
<!-- Begin 'A' -->
<polygon points=" 630.000000, 110.000000, 651.000000, 108.622555, 659.000000, 108.622555, 680.000000, 110.000000, 672.500000, 110.000000, 666.250000, 109.655639, 643.750000, 109.655639, 637.500000, 110.000000" fill="rgb(178, 34, 34)" style="fill-opacity:1.00" />
<!-- End 'A' -->
<!-- Begin 'C' -->
<ellipse cx="715.000000" cy="79.035299" rx="25.000000" ry="20.548950" fill="rgb(0, 0, 128)" style="fill-opacity:1.00" />
<ellipse cx="715.000000" cy="79.035299" rx="16.666667" ry="13.699300" fill="rgb(255, 255, 255)" style="fill-opacity:1.00" />
<rect height="20.548950" width="25.000000" x="715.000000" y="68.760824" fill="rgb(255, 255, 255)" style="fill-opacity:1.00" />
<!-- End 'C' -->
<!-- Begin 'T' -->
<rect height="0.873568" width="50.000000" x="690.000000" y="99.584250" fill="rgb(0, 100, 0)" style="fill-opacity:1.00" />
<rect height="5.459802" width="10.000000" x="710.000000" y="99.584250" fill="rgb(0, 100, 0)" style="fill-opacity:1.00" />
<!-- End 'T' -->
<!-- Begin 'A' -->
<polygon points=" 690.000000, 109.560290, 711.000000, 105.044052, 719.000000, 105.044052, 740.000000, 109.560290, 732.500000, 109.560290, 726.250000, 108.431230, 703.750000, 108.431230, 697.500000, 109.560290" fill="rgb(178, 34, 34)" style="fill-opacity:1.00" />
<!-- End 'A' -->
<!-- Begin 'G' -->
<ellipse cx="715.000000" cy="109.780145" rx="25.000000" ry="0.219855" fill="rgb(255, 165, 0)" style="fill-opacity:1.00" />
<ellipse cx="715.000000" cy="109.780145" rx="16.666667" ry="0.146570" fill="rgb(255, 255, 255)" style="fill-opacity:1.00" />
<rect height="0.219855" width="25.000000" x="715.000000" y="109.670217" fill="rgb(255, 255, 255)" style="fill-opacity:1.00" />
<rect height="0.054964" width="25.000000" x="715.000000" y="109.835109" fill="rgb(255, 165, 0)" style="fill-opacity:1.00" />
<rect height="0.164891" width="6.250000" x="733.750000" y="109.835109" fill="rgb(255, 165, 0)" style="fill-opacity:1.00" />
<!-- End 'G' -->
<!-- Begin 'G' -->
<ellipse cx="775.000000" cy="89.500823" rx="25.000000" ry="9.542625" fill="rgb(255, 165, 0)" style="fill-opacity:1.00" />
<ellipse cx="775.000000" cy="89.500823" rx="16.666667" ry="6.361750" fill="rgb(255, 255, 255)" style="fill-opacity:1.00" />
<rect height="9.542625" width="25.000000" x="775.000000" y="84.729511" fill="rgb(255, 255, 255)" style="fill-opacity:1.00" />
<rect height="2.385656" width="25.000000" x="775.000000" y="91.886480" fill="rgb(255, 165, 0)" style="fill-opacity:1.00" />
<rect height="7.156969" width="6.250000" x="793.750000" y="91.886480" fill="rgb(255, 165, 0)" style="fill-opacity:1.00" />
<!-- End 'G' -->
<!-- Begin 'T' -->
<rect height="0.851079" width="50.000000" x="750.000000" y="99.043449" fill="rgb(0, 100, 0)" style="fill-opacity:1.00" />
<rect height="5.319246" width="10.000000" x="770.000000" y="99.043449" fill="rgb(0, 100, 0)" style="fill-opacity:1.00" />
<!-- End 'T' -->
<!-- Begin 'A' -->
<polygon points=" 750.000000, 109.434891, 771.000000, 104.362695, 779.000000, 104.362695, 800.000000, 109.434891, 792.500000, 109.434891, 786.250000, 108.166842, 763.750000, 108.166842, 757.500000, 109.434891" fill="rgb(178, 34, 34)" style="fill-opacity:1.00" />
<!-- End 'A' -->
<!-- Begin 'C' -->
<ellipse cx="775.000000" cy="109.717445" rx="25.000000" ry="0.282555" fill="rgb(0, 0, 128)" style="fill-opacity:1.00" />
<ellipse cx="775.000000" cy="109.717445" rx="16.666667" ry="0.188370" fill="rgb(255, 255, 255)" style="fill-opacity:1.00" />
<rect height="0.282555" width="25.000000" x="775.000000" y="109.576168" fill="rgb(255, 255, 255)" style="fill-opacity:1.00" />
<!-- End 'C' -->
<!-- Begin 'G' -->
<ellipse cx="835.000000" cy="108.376396" rx="25.000000" ry="0.313382" fill="rgb(255, 165, 0)" style="fill-opacity:1.00" />
<ellipse cx="835.000000" cy="108.376396" rx="16.666667" ry="0.208922" fill="rgb(255, 255, 255)" style="fill-opacity:1.00" />
<rect height="0.313382" width="25.000000" x="835.000000" y="108.219705" fill="rgb(255, 255, 255)" style="fill-opacity:1.00" />
<rect height="0.078346" width="25.000000" x="835.000000" y="108.454741" fill="rgb(255, 165, 0)" style="fill-opacity:1.00" />
<rect height="0.235037" width="6.250000" x="853.750000" y="108.454741" fill="rgb(255, 165, 0)" style="fill-opacity:1.00" />
<!-- End 'G' -->
<!-- Begin 'C' -->
<ellipse cx="835.000000" cy="108.970348" rx="25.000000" ry="0.280570" fill="rgb(0, 0, 128)" style="fill-opacity:1.00" />
<ellipse cx="835.000000" cy="108.970348" rx="16.666667" ry="0.187047" fill="rgb(255, 255, 255)" style="fill-opacity:1.00" />
<rect height="0.280570" width="25.000000" x="835.000000" y="108.830063" fill="rgb(255, 255, 255)" style="fill-opacity:1.00" />
<!-- End 'C' -->
<!-- Begin 'A' -->
<polygon points=" 810.000000, 109.630093, 831.000000, 109.250918, 839.000000, 109.250918, 860.000000, 109.630093, 852.500000, 109.630093, 846.250000, 109.535299, 823.750000, 109.535299, 817.500000, 109.630093" fill="rgb(178, 34, 34)" style="fill-opacity:1.00" />
<!-- End 'A' -->
<!-- Begin 'T' -->
<rect height="0.059185" width="50.000000" x="810.000000" y="109.630093" fill="rgb(0, 100, 0)" style="fill-opacity:1.00" />
<rect height="0.369907" width="10.000000" x="830.000000" y="109.630093" fill="rgb(0, 100, 0)" style="fill-opacity:1.00" />
<!-- End 'T' -->
<!-- Begin 'C' -->
<ellipse cx="895.000000" cy="106.821343" rx="25.000000" ry="0.569911" fill="rgb(0, 0, 128)" style="fill-opacity:1.00" />
<ellipse cx="895.000000" cy="106.821343" rx="16.666667" ry="0.379941" fill="rgb(255, 255, 255)" style="fill-opacity:1.00" />
<rect height="0.569911" width="25.000000" x="895.000000" y="106.536387" fill="rgb(255, 255, 255)" style="fill-opacity:1.00" />
<!-- End 'C' -->
<!-- Begin 'T' -->
<rect height="0.173436" width="50.000000" x="870.000000" y="107.391254" fill="rgb(0, 100, 0)" style="fill-opacity:1.00" />
<rect height="1.083973" width="10.000000" x="890.000000" y="107.391254" fill="rgb(0, 100, 0)" style="fill-opacity:1.00" />
<!-- End 'T' -->
<!-- Begin 'A' -->
<polygon points=" 870.000000, 109.546174, 891.000000, 108.475227, 899.000000, 108.475227, 920.000000, 109.546174, 912.500000, 109.546174, 906.250000, 109.278437, 883.750000, 109.278437, 877.500000, 109.546174" fill="rgb(178, 34, 34)" style="fill-opacity:1.00" />
<!-- End 'A' -->
<!-- Begin 'G' -->
<ellipse cx="895.000000" cy="109.773087" rx="25.000000" ry="0.226913" fill="rgb(255, 165, 0)" style="fill-opacity:1.00" />
<ellipse cx="895.000000" cy="109.773087" rx="16.666667" ry="0.151275" fill="rgb(255, 255, 255)" style="fill-opacity:1.00" />
<rect height="0.226913" width="25.000000" x="895.000000" y="109.659631" fill="rgb(255, 255, 255)" style="fill-opacity:1.00" />
<rect height="0.056728" width="25.000000" x="895.000000" y="109.829815" fill="rgb(255, 165, 0)" style="fill-opacity:1.00" />
<rect height="0.170185" width="6.250000" x="913.750000" y="109.829815" fill="rgb(255, 165, 0)" style="fill-opacity:1.00" />
<!-- End 'G' -->
<!-- Begin 'G' -->
<ellipse cx="955.000000" cy="103.210215" rx="25.000000" ry="1.570196" fill="rgb(255, 165, 0)" style="fill-opacity:1.00" />
<ellipse cx="955.000000" cy="103.210215" rx="16.666667" ry="1.046798" fill="rgb(255, 255, 255)" style="fill-opacity:1.00" />
<rect height="1.570196" width="25.000000" x="955.000000" y="102.425117" fill="rgb(255, 255, 255)" style="fill-opacity:1.00" />
<rect height="0.392549" width="25.000000" x="955.000000" y="103.602764" fill="rgb(255, 165, 0)" style="fill-opacity:1.00" />
<rect height="1.177647" width="6.250000" x="973.750000" y="103.602764" fill="rgb(255, 165, 0)" style="fill-opacity:1.00" />
<!-- End 'G' -->
<!-- Begin 'A' -->
<polygon points=" 930.000000, 107.246199, 951.000000, 104.780412, 959.000000, 104.780412, 980.000000, 107.246199, 972.500000, 107.246199, 966.250000, 106.629752, 943.750000, 106.629752, 937.500000, 107.246199" fill="rgb(178, 34, 34)" style="fill-opacity:1.00" />
<!-- End 'A' -->
<!-- Begin 'T' -->
<rect height="0.340313" width="50.000000" x="930.000000" y="107.246199" fill="rgb(0, 100, 0)" style="fill-opacity:1.00" />
<rect height="2.126958" width="10.000000" x="950.000000" y="107.246199" fill="rgb(0, 100, 0)" style="fill-opacity:1.00" />
<!-- End 'T' -->
<!-- Begin 'C' -->
<ellipse cx="955.000000" cy="109.686579" rx="25.000000" ry="0.313421" fill="rgb(0, 0, 128)" style="fill-opacity:1.00" />
<ellipse cx="955.000000" cy="109.686579" rx="16.666667" ry="0.208948" fill="rgb(255, 255, 255)" style="fill-opacity:1.00" />
<rect height="0.313421" width="25.000000" x="955.000000" y="109.529868" fill="rgb(255, 255, 255)" style="fill-opacity:1.00" />
<!-- End 'C' -->
<text x="520.000000" y="165">
IC = 7.50
</text>

</svg>
