<?xml version="1.0" encoding="UTF-8" standalone="yes"?>
                 <!DOCTYPE svg PUBLIC "-//W3C//DTD SVG 1.0//EN" "http://www.w3.org/TR/2001/REC-SVG-20010904/DTD/svg10.dtd">
                 <svg height="170" width="900" xmlns="http://www.w3.org/2000/svg" xmlns:xlink="http://www.w3.org/1999/xlink">
                 <line x1="85" y1="120" x2="867" y2="120" style="stroke:rgb(99,99,99);stroke-width:2" />
<rect height="7.000000" width="2.000000" x="85.000000" y="120.000000" fill="rgb(0, 0, 0)" style="fill-opacity:1.00" />
<text x="107.000000" y="140">
1
</text>
<rect height="7.000000" width="2.000000" x="145.000000" y="120.000000" fill="rgb(0, 0, 0)" style="fill-opacity:1.00" />
<text x="167.000000" y="140">
2
</text>
<rect height="7.000000" width="2.000000" x="205.000000" y="120.000000" fill="rgb(0, 0, 0)" style="fill-opacity:1.00" />
<text x="227.000000" y="140">
3
</text>
<rect height="7.000000" width="2.000000" x="265.000000" y="120.000000" fill="rgb(0, 0, 0)" style="fill-opacity:1.00" />
<text x="287.000000" y="140">
4
</text>
<rect height="7.000000" width="2.000000" x="325.000000" y="120.000000" fill="rgb(0, 0, 0)" style="fill-opacity:1.00" />
<text x="347.000000" y="140">
5
</text>
<rect height="7.000000" width="2.000000" x="385.000000" y="120.000000" fill="rgb(0, 0, 0)" style="fill-opacity:1.00" />
<text x="407.000000" y="140">
6
</text>
<rect height="7.000000" width="2.000000" x="445.000000" y="120.000000" fill="rgb(0, 0, 0)" style="fill-opacity:1.00" />
<text x="467.000000" y="140">
7
</text>
<rect height="7.000000" width="2.000000" x="505.000000" y="120.000000" fill="rgb(0, 0, 0)" style="fill-opacity:1.00" />
<text x="527.000000" y="140">
8
</text>
<rect height="7.000000" width="2.000000" x="565.000000" y="120.000000" fill="rgb(0, 0, 0)" style="fill-opacity:1.00" />
<text x="587.000000" y="140">
9
</text>
<rect height="7.000000" width="2.000000" x="625.000000" y="120.000000" fill="rgb(0, 0, 0)" style="fill-opacity:1.00" />
<text x="647.000000" y="140">
10
</text>
<rect height="7.000000" width="2.000000" x="685.000000" y="120.000000" fill="rgb(0, 0, 0)" style="fill-opacity:1.00" />
<text x="707.000000" y="140">
11
</text>
<rect height="7.000000" width="2.000000" x="745.000000" y="120.000000" fill="rgb(0, 0, 0)" style="fill-opacity:1.00" />
<text x="767.000000" y="140">
12
</text>
<rect height="7.000000" width="2.000000" x="805.000000" y="120.000000" fill="rgb(0, 0, 0)" style="fill-opacity:1.00" />
<text x="827.000000" y="140">
13
</text>
<rect height="7.000000" width="2.000000" x="865.000000" y="120.000000" fill="rgb(0, 0, 0)" style="fill-opacity:1.00" />
<line x1="80" y1="112" x2="80" y2="10" style="stroke:rgb(99,99,99);stroke-width:2" />
<rect height="2.000000" width="7.000000" x="73.000000" y="110.000000" fill="rgb(0, 0, 0)" style="fill-opacity:1.00" />
<text x="63" y="115">
0
</text>
<rect height="2.000000" width="7.000000" x="73.000000" y="60.000000" fill="rgb(0, 0, 0)" style="fill-opacity:1.00" />
<text x="63" y="65">
1
</text>
<rect height="2.000000" width="7.000000" x="73.000000" y="10.000000" fill="rgb(0, 0, 0)" style="fill-opacity:1.00" />
<text x="63" y="15">
2
</text>
<text x="50" y="65"
transform="rotate(-90, 50, 70)">
bits
</text>
<!-- Begin 'A' -->
<polygon points=" 90.000000, 99.913220, 111.000000, 77.645281, 119.000000, 77.645281, 140.000000, 99.913220, 132.500000, 99.913220, 126.250000, 94.346235, 103.750000, 94.346235, 97.500000, 99.913220" fill="rgb(178, 34, 34)" style="fill-opacity:1.00" />
<polygon points=" 115.000000, 82.098869, 107.000000, 90.006044, 122.000000, 90.006044" fill="rgb(255, 255, 255)" style="fill-opacity:1.00" />
<!-- End 'A' -->
<!-- Begin 'C' -->
<ellipse cx="115.000000" cy="102.569440" rx="25.000000" ry="2.656221" fill="rgb(0, 0, 128)" style="fill-opacity:1.00" />
<ellipse cx="115.000000" cy="102.569440" rx="16.666667" ry="1.770814" fill="rgb(255, 255, 255)" style="fill-opacity:1.00" />
<rect height="2.656221" width="25.000000" x="115.000000" y="101.241330" fill="rgb(255, 255, 255)" style="fill-opacity:1.00" />
<!-- End 'C' -->
<!-- Begin 'G' -->
<ellipse cx="115.000000" cy="106.532669" rx="25.000000" ry="1.307008" fill="rgb(255, 165, 0)" style="fill-opacity:1.00" />
<ellipse cx="115.000000" cy="106.532669" rx="16.666667" ry="0.871339" fill="rgb(255, 255, 255)" style="fill-opacity:1.00" />
<rect height="1.307008" width="25.000000" x="115.000000" y="105.879165" fill="rgb(255, 255, 255)" style="fill-opacity:1.00" />
<rect height="0.326752" width="25.000000" x="115.000000" y="106.859421" fill="rgb(255, 165, 0)" style="fill-opacity:1.00" />
<rect height="0.980256" width="6.250000" x="133.750000" y="106.859421" fill="rgb(255, 165, 0)" style="fill-opacity:1.00" />
<!-- End 'G' -->
<!-- Begin 'T' -->
<rect height="0.345652" width="50.000000" x="90.000000" y="107.839678" fill="rgb(0, 100, 0)" style="fill-opacity:1.00" />
<rect height="2.160322" width="10.000000" x="110.000000" y="107.839678" fill="rgb(0, 100, 0)" style="fill-opacity:1.00" />
<!-- End 'T' -->
<!-- Begin 'G' -->
<ellipse cx="175.000000" cy="76.790112" rx="25.000000" ry="115.350466" fill="rgb(255, 165, 0)" style="fill-opacity:1.00" />
<ellipse cx="175.000000" cy="76.790112" rx="16.666667" ry="76.900311" fill="rgb(255, 255, 255)" style="fill-opacity:1.00" />
<rect height="115.350466" width="25.000000" x="175.000000" y="19.114879" fill="rgb(255, 255, 255)" style="fill-opacity:1.00" />
<rect height="28.837616" width="25.000000" x="175.000000" y="105.627728" fill="rgb(255, 165, 0)" style="fill-opacity:1.00" />
<rect height="86.512849" width="6.250000" x="193.750000" y="105.627728" fill="rgb(255, 165, 0)" style="fill-opacity:1.00" />
<!-- End 'G' -->
<!-- Begin 'A' -->
<polygon points=" 150.000000, 192.261693, 171.000000, 192.140578, 179.000000, 192.140578, 200.000000, 192.261693, 192.500000, 192.261693, 186.250000, 192.231414, 163.750000, 192.231414, 157.500000, 192.261693" fill="rgb(178, 34, 34)" style="fill-opacity:1.00" />
<!-- End 'A' -->
<!-- Begin 'T' -->
<rect height="0.011627" width="50.000000" x="150.000000" y="192.261693" fill="rgb(0, 100, 0)" style="fill-opacity:1.00" />
<rect height="0.072669" width="10.000000" x="170.000000" y="192.261693" fill="rgb(0, 100, 0)" style="fill-opacity:1.00" />
<!-- End 'T' -->
<!-- Begin 'C' -->
<ellipse cx="175.000000" cy="192.340418" rx="25.000000" ry="0.006056" fill="rgb(0, 0, 128)" style="fill-opacity:1.00" />
<ellipse cx="175.000000" cy="192.340418" rx="16.666667" ry="0.004037" fill="rgb(255, 255, 255)" style="fill-opacity:1.00" />
<rect height="0.006056" width="25.000000" x="175.000000" y="192.337390" fill="rgb(255, 255, 255)" style="fill-opacity:1.00" />
<!-- End 'C' -->
<!-- Begin 'G' -->
<ellipse cx="235.000000" cy="164.862583" rx="25.000000" ry="309.944679" fill="rgb(255, 165, 0)" style="fill-opacity:1.00" />
<ellipse cx="235.000000" cy="164.862583" rx="16.666667" ry="206.629786" fill="rgb(255, 255, 255)" style="fill-opacity:1.00" />
<rect height="309.944679" width="25.000000" x="235.000000" y="9.890243" fill="rgb(255, 255, 255)" style="fill-opacity:1.00" />
<rect height="77.486170" width="25.000000" x="235.000000" y="242.348752" fill="rgb(255, 165, 0)" style="fill-opacity:1.00" />
<rect height="232.458509" width="6.250000" x="253.750000" y="242.348752" fill="rgb(255, 165, 0)" style="fill-opacity:1.00" />
<!-- End 'G' -->
<!-- Begin 'C' -->
<ellipse cx="235.000000" cy="474.871907" rx="25.000000" ry="0.064646" fill="rgb(0, 0, 128)" style="fill-opacity:1.00" />
<ellipse cx="235.000000" cy="474.871907" rx="16.666667" ry="0.043097" fill="rgb(255, 255, 255)" style="fill-opacity:1.00" />
<rect height="0.064646" width="25.000000" x="235.000000" y="474.839584" fill="rgb(255, 255, 255)" style="fill-opacity:1.00" />
<!-- End 'C' -->
<!-- Begin 'T' -->
<rect height="0.015515" width="50.000000" x="210.000000" y="474.936553" fill="rgb(0, 100, 0)" style="fill-opacity:1.00" />
<rect height="0.096969" width="10.000000" x="230.000000" y="474.936553" fill="rgb(0, 100, 0)" style="fill-opacity:1.00" />
<!-- End 'T' -->
<!-- Begin 'A' -->
<polygon points=" 210.000000, 475.065845, 231.000000, 475.033522, 239.000000, 475.033522, 260.000000, 475.065845, 252.500000, 475.065845, 246.250000, 475.057764, 223.750000, 475.057764, 217.500000, 475.065845" fill="rgb(178, 34, 34)" style="fill-opacity:1.00" />
<!-- End 'A' -->
<!-- Begin 'G' -->
<ellipse cx="295.000000" cy="517.145599" rx="25.000000" ry="859.737321" fill="rgb(255, 165, 0)" style="fill-opacity:1.00" />
<ellipse cx="295.000000" cy="517.145599" rx="16.666667" ry="573.158214" fill="rgb(255, 255, 255)" style="fill-opacity:1.00" />
<rect height="859.737321" width="25.000000" x="295.000000" y="87.276939" fill="rgb(255, 255, 255)" style="fill-opacity:1.00" />
<rect height="214.934330" width="25.000000" x="295.000000" y="732.079930" fill="rgb(255, 165, 0)" style="fill-opacity:1.00" />
<rect height="644.802991" width="6.250000" x="313.750000" y="732.079930" fill="rgb(255, 165, 0)" style="fill-opacity:1.00" />
<!-- End 'G' -->
<!-- Begin 'T' -->
<rect height="4.578568" width="50.000000" x="270.000000" y="1376.882920" fill="rgb(0, 100, 0)" style="fill-opacity:1.00" />
<rect height="28.616048" width="10.000000" x="290.000000" y="1376.882920" fill="rgb(0, 100, 0)" style="fill-opacity:1.00" />
<!-- End 'T' -->
<!-- Begin 'A' -->
<polygon points=" 270.000000, 1405.947496, 291.000000, 1405.498969, 299.000000, 1405.498969, 320.000000, 1405.947496, 312.500000, 1405.947496, 306.250000, 1405.835364, 283.750000, 1405.835364, 277.500000, 1405.947496" fill="rgb(178, 34, 34)" style="fill-opacity:1.00" />
<!-- End 'A' -->
<!-- Begin 'C' -->
<ellipse cx="295.000000" cy="1405.992349" rx="25.000000" ry="0.044853" fill="rgb(0, 0, 128)" style="fill-opacity:1.00" />
<ellipse cx="295.000000" cy="1405.992349" rx="16.666667" ry="0.029902" fill="rgb(255, 255, 255)" style="fill-opacity:1.00" />
<rect height="0.044853" width="25.000000" x="295.000000" y="1405.969922" fill="rgb(255, 255, 255)" style="fill-opacity:1.00" />
<!-- End 'C' -->
<!-- Begin 'G' -->
<ellipse cx="355.000000" cy="1935.728634" rx="25.000000" ry="2710.015460" fill="rgb(255, 165, 0)" style="fill-opacity:1.00" />
<ellipse cx="355.000000" cy="1935.728634" rx="16.666667" ry="1806.676973" fill="rgb(255, 255, 255)" style="fill-opacity:1.00" />
<rect height="2710.015460" width="25.000000" x="355.000000" y="580.720904" fill="rgb(255, 255, 255)" style="fill-opacity:1.00" />
<rect height="677.503865" width="25.000000" x="355.000000" y="2613.232499" fill="rgb(255, 165, 0)" style="fill-opacity:1.00" />
<rect height="2032.511595" width="6.250000" x="373.750000" y="2613.232499" fill="rgb(255, 165, 0)" style="fill-opacity:1.00" />
<!-- End 'G' -->
<!-- Begin 'A' -->
<polygon points=" 330.000000, 4709.807361, 351.000000, 4645.744094, 359.000000, 4645.744094, 380.000000, 4709.807361, 372.500000, 4709.807361, 366.250000, 4693.791544, 343.750000, 4693.791544, 337.500000, 4709.807361" fill="rgb(178, 34, 34)" style="fill-opacity:1.00" />
<polygon points=" 355.000000, 4658.556747, 347.000000, 4683.182054, 362.000000, 4683.182054" fill="rgb(255, 255, 255)" style="fill-opacity:1.00" />
<!-- End 'A' -->
<!-- Begin 'T' -->
<rect height="1.247841" width="50.000000" x="330.000000" y="4709.807361" fill="rgb(0, 100, 0)" style="fill-opacity:1.00" />
<rect height="7.799006" width="10.000000" x="350.000000" y="4709.807361" fill="rgb(0, 100, 0)" style="fill-opacity:1.00" />
<!-- End 'T' -->
<!-- Begin 'C' -->
<ellipse cx="355.000000" cy="4718.163439" rx="25.000000" ry="0.557072" fill="rgb(0, 0, 128)" style="fill-opacity:1.00" />
<ellipse cx="355.000000" cy="4718.163439" rx="16.666667" ry="0.371381" fill="rgb(255, 255, 255)" style="fill-opacity:1.00" />
<rect height="0.557072" width="25.000000" x="355.000000" y="4717.884903" fill="rgb(255, 255, 255)" style="fill-opacity:1.00" />
<!-- End 'C' -->
<!-- Begin 'A' -->
<polygon points=" 390.000000, 4442.719608, 411.000000, -742.961851, 419.000000, -742.961851, 440.000000, 4442.719608, 432.500000, 4442.719608, 426.250000, 3146.299244, 403.750000, 3146.299244, 397.500000, 4442.719608" fill="rgb(178, 34, 34)" style="fill-opacity:1.00" />
<polygon points=" 415.000000, 294.174441, 407.000000, 2367.447025, 422.000000, 2367.447025" fill="rgb(255, 255, 255)" style="fill-opacity:1.00" />
<!-- End 'A' -->
<!-- Begin 'G' -->
<ellipse cx="415.000000" cy="4620.255225" rx="25.000000" ry="177.535617" fill="rgb(255, 165, 0)" style="fill-opacity:1.00" />
<ellipse cx="415.000000" cy="4620.255225" rx="16.666667" ry="118.357078" fill="rgb(255, 255, 255)" style="fill-opacity:1.00" />
<rect height="177.535617" width="25.000000" x="415.000000" y="4531.487417" fill="rgb(255, 255, 255)" style="fill-opacity:1.00" />
<rect height="44.383904" width="25.000000" x="415.000000" y="4664.639129" fill="rgb(255, 165, 0)" style="fill-opacity:1.00" />
<rect height="133.151713" width="6.250000" x="433.750000" y="4664.639129" fill="rgb(255, 165, 0)" style="fill-opacity:1.00" />
<!-- End 'G' -->
<!-- Begin 'C' -->
<ellipse cx="415.000000" cy="4811.397586" rx="25.000000" ry="13.606744" fill="rgb(0, 0, 128)" style="fill-opacity:1.00" />
<ellipse cx="415.000000" cy="4811.397586" rx="16.666667" ry="9.071163" fill="rgb(255, 255, 255)" style="fill-opacity:1.00" />
<rect height="13.606744" width="25.000000" x="415.000000" y="4804.594214" fill="rgb(255, 255, 255)" style="fill-opacity:1.00" />
<!-- End 'C' -->
<!-- Begin 'T' -->
<rect height="1.935181" width="50.000000" x="390.000000" y="4825.004331" fill="rgb(0, 100, 0)" style="fill-opacity:1.00" />
<rect height="12.094884" width="10.000000" x="410.000000" y="4825.004331" fill="rgb(0, 100, 0)" style="fill-opacity:1.00" />
<!-- End 'T' -->
<!-- Begin 'A' -->
<polygon points=" 450.000000, 2240.560322, 471.000000, -668.846645, 479.000000, -668.846645, 500.000000, 2240.560322, 492.500000, 2240.560322, 486.250000, 1513.208580, 463.750000, 1513.208580, 457.500000, 2240.560322" fill="rgb(178, 34, 34)" style="fill-opacity:1.00" />
<polygon points=" 475.000000, -86.965251, 467.000000, 1075.797535, 482.000000, 1075.797535" fill="rgb(255, 255, 255)" style="fill-opacity:1.00" />
<!-- End 'A' -->
<!-- Begin 'T' -->
<rect height="448.291262" width="50.000000" x="450.000000" y="2240.560322" fill="rgb(0, 100, 0)" style="fill-opacity:1.00" />
<rect height="2801.820387" width="10.000000" x="470.000000" y="2240.560322" fill="rgb(0, 100, 0)" style="fill-opacity:1.00" />
<!-- End 'T' -->
<!-- Begin 'G' -->
<ellipse cx="475.000000" cy="5049.234680" rx="25.000000" ry="6.853971" fill="rgb(255, 165, 0)" style="fill-opacity:1.00" />
<ellipse cx="475.000000" cy="5049.234680" rx="16.666667" ry="4.569314" fill="rgb(255, 255, 255)" style="fill-opacity:1.00" />
<rect height="6.853971" width="25.000000" x="475.000000" y="5045.807694" fill="rgb(255, 255, 255)" style="fill-opacity:1.00" />
<rect height="1.713493" width="25.000000" x="475.000000" y="5050.948173" fill="rgb(255, 165, 0)" style="fill-opacity:1.00" />
<rect height="5.140478" width="6.250000" x="493.750000" y="5050.948173" fill="rgb(255, 165, 0)" style="fill-opacity:1.00" />
<!-- End 'G' -->
<!-- Begin 'C' -->
<ellipse cx="475.000000" cy="5060.034877" rx="25.000000" ry="3.946226" fill="rgb(0, 0, 128)" style="fill-opacity:1.00" />
<ellipse cx="475.000000" cy="5060.034877" rx="16.666667" ry="2.630817" fill="rgb(255, 255, 255)" style="fill-opacity:1.00" />
<rect height="3.946226" width="25.000000" x="475.000000" y="5058.061764" fill="rgb(255, 255, 255)" style="fill-opacity:1.00" />
<!-- End 'C' -->
<!-- Begin 'T' -->
<rect height="1944.794387" width="50.000000" x="510.000000" y="-1299.263828" fill="rgb(0, 100, 0)" style="fill-opacity:1.00" />
<rect height="12154.964921" width="10.000000" x="530.000000" y="-1299.263828" fill="rgb(0, 100, 0)" style="fill-opacity:1.00" />
<!-- End 'T' -->
<!-- Begin 'C' -->
<ellipse cx="535.000000" cy="11410.467459" rx="25.000000" ry="554.766367" fill="rgb(0, 0, 128)" style="fill-opacity:1.00" />
<ellipse cx="535.000000" cy="11410.467459" rx="16.666667" ry="369.844244" fill="rgb(255, 255, 255)" style="fill-opacity:1.00" />
<rect height="554.766367" width="25.000000" x="535.000000" y="11133.084276" fill="rgb(255, 255, 255)" style="fill-opacity:1.00" />
<!-- End 'C' -->
<!-- Begin 'G' -->
<ellipse cx="535.000000" cy="12014.706131" rx="25.000000" ry="49.472306" fill="rgb(255, 165, 0)" style="fill-opacity:1.00" />
<ellipse cx="535.000000" cy="12014.706131" rx="16.666667" ry="32.981537" fill="rgb(255, 255, 255)" style="fill-opacity:1.00" />
<rect height="49.472306" width="25.000000" x="535.000000" y="11989.969978" fill="rgb(255, 255, 255)" style="fill-opacity:1.00" />
<rect height="12.368076" width="25.000000" x="535.000000" y="12027.074208" fill="rgb(255, 165, 0)" style="fill-opacity:1.00" />
<rect height="37.104229" width="6.250000" x="553.750000" y="12027.074208" fill="rgb(255, 165, 0)" style="fill-opacity:1.00" />
<!-- End 'G' -->
<!-- Begin 'A' -->
<polygon points=" 510.000000, 12083.629087, 531.000000, 12064.178437, 539.000000, 12064.178437, 560.000000, 12083.629087, 552.500000, 12083.629087, 546.250000, 12078.766424, 523.750000, 12078.766424, 517.500000, 12083.629087" fill="rgb(178, 34, 34)" style="fill-opacity:1.00" />
<polygon points=" 535.000000, 12068.068567, 527.000000, 12074.848827, 542.000000, 12074.848827" fill="rgb(255, 255, 255)" style="fill-opacity:1.00" />
<!-- End 'A' -->
<!-- Begin 'C' -->
<ellipse cx="595.000000" cy="3218.705539" rx="25.000000" ry="4257.314533" fill="rgb(0, 0, 128)" style="fill-opacity:1.00" />
<ellipse cx="595.000000" cy="3218.705539" rx="16.666667" ry="2838.209689" fill="rgb(255, 255, 255)" style="fill-opacity:1.00" />
<rect height="4257.314533" width="25.000000" x="595.000000" y="1090.048272" fill="rgb(255, 255, 255)" style="fill-opacity:1.00" />
<!-- End 'C' -->
<!-- Begin 'T' -->
<rect height="18.638812" width="50.000000" x="570.000000" y="7476.020072" fill="rgb(0, 100, 0)" style="fill-opacity:1.00" />
<rect height="116.492575" width="10.000000" x="590.000000" y="7476.020072" fill="rgb(0, 100, 0)" style="fill-opacity:1.00" />
<!-- End 'T' -->
<!-- Begin 'A' -->
<polygon points=" 570.000000, 7608.519260, 591.000000, 7592.512647, 599.000000, 7592.512647, 620.000000, 7608.519260, 612.500000, 7608.519260, 606.250000, 7604.517607, 583.750000, 7604.517607, 577.500000, 7608.519260" fill="rgb(178, 34, 34)" style="fill-opacity:1.00" />
<polygon points=" 595.000000, 7595.713969, 587.000000, 7601.116615, 602.000000, 7601.116615" fill="rgb(255, 255, 255)" style="fill-opacity:1.00" />
<!-- End 'A' -->
<!-- Begin 'G' -->
<ellipse cx="595.000000" cy="7610.742401" rx="25.000000" ry="2.223141" fill="rgb(255, 165, 0)" style="fill-opacity:1.00" />
<ellipse cx="595.000000" cy="7610.742401" rx="16.666667" ry="1.482094" fill="rgb(255, 255, 255)" style="fill-opacity:1.00" />
<rect height="2.223141" width="25.000000" x="595.000000" y="7609.630831" fill="rgb(255, 255, 255)" style="fill-opacity:1.00" />
<rect height="0.555785" width="25.000000" x="595.000000" y="7611.298186" fill="rgb(255, 165, 0)" style="fill-opacity:1.00" />
<rect height="1.667356" width="6.250000" x="613.750000" y="7611.298186" fill="rgb(255, 165, 0)" style="fill-opacity:1.00" />
<!-- End 'G' -->
<!-- Begin 'C' -->
<ellipse cx="655.000000" cy="1689.015435" rx="25.000000" ry="2397.918941" fill="rgb(0, 0, 128)" style="fill-opacity:1.00" />
<ellipse cx="655.000000" cy="1689.015435" rx="16.666667" ry="1598.612627" fill="rgb(255, 255, 255)" style="fill-opacity:1.00" />
<rect height="2397.918941" width="25.000000" x="655.000000" y="490.055964" fill="rgb(255, 255, 255)" style="fill-opacity:1.00" />
<!-- End 'C' -->
<!-- Begin 'A' -->
<polygon points=" 630.000000, 4337.361896, 651.000000, 4086.934375, 659.000000, 4086.934375, 680.000000, 4337.361896, 672.500000, 4337.361896, 666.250000, 4274.755016, 643.750000, 4274.755016, 637.500000, 4337.361896" fill="rgb(178, 34, 34)" style="fill-opacity:1.00" />
<polygon points=" 655.000000, 4137.019880, 647.000000, 4236.190888, 662.000000, 4236.190888" fill="rgb(255, 255, 255)" style="fill-opacity:1.00" />
<!-- End 'A' -->
<!-- Begin 'T' -->
<rect height="0.321835" width="50.000000" x="630.000000" y="4337.361896" fill="rgb(0, 100, 0)" style="fill-opacity:1.00" />
<rect height="2.011466" width="10.000000" x="650.000000" y="4337.361896" fill="rgb(0, 100, 0)" style="fill-opacity:1.00" />
<!-- End 'T' -->
<!-- Begin 'G' -->
<ellipse cx="655.000000" cy="4339.876229" rx="25.000000" ry="0.502867" fill="rgb(255, 165, 0)" style="fill-opacity:1.00" />
<ellipse cx="655.000000" cy="4339.876229" rx="16.666667" ry="0.335244" fill="rgb(255, 255, 255)" style="fill-opacity:1.00" />
<rect height="0.502867" width="25.000000" x="655.000000" y="4339.624795" fill="rgb(255, 255, 255)" style="fill-opacity:1.00" />
<rect height="0.125717" width="25.000000" x="655.000000" y="4340.001945" fill="rgb(255, 165, 0)" style="fill-opacity:1.00" />
<rect height="0.377150" width="6.250000" x="673.750000" y="4340.001945" fill="rgb(255, 165, 0)" style="fill-opacity:1.00" />
<!-- End 'G' -->
<!-- Begin 'C' -->
<ellipse cx="715.000000" cy="1019.819824" rx="25.000000" ry="1554.685817" fill="rgb(0, 0, 128)" style="fill-opacity:1.00" />
<ellipse cx="715.000000" cy="1019.819824" rx="16.666667" ry="1036.457211" fill="rgb(255, 255, 255)" style="fill-opacity:1.00" />
<rect height="1554.685817" width="25.000000" x="715.000000" y="242.476916" fill="rgb(255, 255, 255)" style="fill-opacity:1.00" />
<!-- End 'C' -->
<!-- Begin 'A' -->
<polygon points=" 690.000000, 2576.126456, 711.000000, 2574.505641, 719.000000, 2574.505641, 740.000000, 2576.126456, 732.500000, 2576.126456, 726.250000, 2575.721252, 703.750000, 2575.721252, 697.500000, 2576.126456" fill="rgb(178, 34, 34)" style="fill-opacity:1.00" />
<!-- End 'A' -->
<!-- Begin 'T' -->
<rect height="0.155598" width="50.000000" x="690.000000" y="2576.126456" fill="rgb(0, 100, 0)" style="fill-opacity:1.00" />
<rect height="0.972489" width="10.000000" x="710.000000" y="2576.126456" fill="rgb(0, 100, 0)" style="fill-opacity:1.00" />
<!-- End 'T' -->
<!-- Begin 'G' -->
<ellipse cx="715.000000" cy="2577.423108" rx="25.000000" ry="0.324163" fill="rgb(255, 165, 0)" style="fill-opacity:1.00" />
<ellipse cx="715.000000" cy="2577.423108" rx="16.666667" ry="0.216109" fill="rgb(255, 255, 255)" style="fill-opacity:1.00" />
<rect height="0.324163" width="25.000000" x="715.000000" y="2577.261026" fill="rgb(255, 255, 255)" style="fill-opacity:1.00" />
<rect height="0.081041" width="25.000000" x="715.000000" y="2577.504149" fill="rgb(255, 165, 0)" style="fill-opacity:1.00" />
<rect height="0.243122" width="6.250000" x="733.750000" y="2577.504149" fill="rgb(255, 165, 0)" style="fill-opacity:1.00" />
<!-- End 'G' -->
<!-- Begin 'C' -->
<ellipse cx="775.000000" cy="524.408581" rx="25.000000" ry="876.250568" fill="rgb(0, 0, 128)" style="fill-opacity:1.00" />
<ellipse cx="775.000000" cy="524.408581" rx="16.666667" ry="584.167046" fill="rgb(255, 255, 255)" style="fill-opacity:1.00" />
<rect height="876.250568" width="25.000000" x="775.000000" y="86.283297" fill="rgb(255, 255, 255)" style="fill-opacity:1.00" />
<!-- End 'C' -->
<!-- Begin 'T' -->
<rect height="0.261703" width="50.000000" x="750.000000" y="1400.659150" fill="rgb(0, 100, 0)" style="fill-opacity:1.00" />
<rect height="1.635643" width="10.000000" x="770.000000" y="1400.659150" fill="rgb(0, 100, 0)" style="fill-opacity:1.00" />
<!-- End 'T' -->
<!-- Begin 'A' -->
<polygon points=" 750.000000, 1403.566960, 771.000000, 1402.294793, 779.000000, 1402.294793, 800.000000, 1403.566960, 792.500000, 1403.566960, 786.250000, 1403.248919, 763.750000, 1403.248919, 757.500000, 1403.566960" fill="rgb(178, 34, 34)" style="fill-opacity:1.00" />
<!-- End 'A' -->
<!-- Begin 'G' -->
<ellipse cx="775.000000" cy="1403.839568" rx="25.000000" ry="0.272607" fill="rgb(255, 165, 0)" style="fill-opacity:1.00" />
<ellipse cx="775.000000" cy="1403.839568" rx="16.666667" ry="0.181738" fill="rgb(255, 255, 255)" style="fill-opacity:1.00" />
<rect height="0.272607" width="25.000000" x="775.000000" y="1403.703264" fill="rgb(255, 255, 255)" style="fill-opacity:1.00" />
<rect height="0.068152" width="25.000000" x="775.000000" y="1403.907720" fill="rgb(255, 165, 0)" style="fill-opacity:1.00" />
<rect height="0.204455" width="6.250000" x="793.750000" y="1403.907720" fill="rgb(255, 165, 0)" style="fill-opacity:1.00" />
<!-- End 'G' -->
<!-- Begin 'T' -->
<rect height="127.568255" width="50.000000" x="810.000000" y="-164.017949" fill="rgb(0, 100, 0)" style="fill-opacity:1.00" />
<rect height="797.301592" width="10.000000" x="830.000000" y="-164.017949" fill="rgb(0, 100, 0)" style="fill-opacity:1.00" />
<!-- End 'T' -->
<!-- Begin 'G' -->
<ellipse cx="835.000000" cy="775.510288" rx="25.000000" ry="142.226645" fill="rgb(255, 165, 0)" style="fill-opacity:1.00" />
<ellipse cx="835.000000" cy="775.510288" rx="16.666667" ry="94.817763" fill="rgb(255, 255, 255)" style="fill-opacity:1.00" />
<rect height="142.226645" width="25.000000" x="835.000000" y="704.396965" fill="rgb(255, 255, 255)" style="fill-opacity:1.00" />
<rect height="35.556661" width="25.000000" x="835.000000" y="811.066949" fill="rgb(255, 165, 0)" style="fill-opacity:1.00" />
<rect height="106.669984" width="6.250000" x="853.750000" y="811.066949" fill="rgb(255, 165, 0)" style="fill-opacity:1.00" />
<!-- End 'G' -->
<!-- Begin 'C' -->
<ellipse cx="835.000000" cy="972.691032" rx="25.000000" ry="54.954099" fill="rgb(0, 0, 128)" style="fill-opacity:1.00" />
<ellipse cx="835.000000" cy="972.691032" rx="16.666667" ry="36.636066" fill="rgb(255, 255, 255)" style="fill-opacity:1.00" />
<rect height="54.954099" width="25.000000" x="835.000000" y="945.213982" fill="rgb(255, 255, 255)" style="fill-opacity:1.00" />
<!-- End 'C' -->
<!-- Begin 'A' -->
<polygon points=" 810.000000, 1132.287249, 831.000000, 1027.645131, 839.000000, 1027.645131, 860.000000, 1132.287249, 852.500000, 1132.287249, 846.250000, 1106.126720, 823.750000, 1106.126720, 817.500000, 1132.287249" fill="rgb(178, 34, 34)" style="fill-opacity:1.00" />
<polygon points=" 835.000000, 1048.573555, 827.000000, 1089.430402, 842.000000, 1089.430402" fill="rgb(255, 255, 255)" style="fill-opacity:1.00" />
<!-- End 'A' -->
<text x="460.000000" y="165">
IC = 163.24
</text>

</svg>
