<?xml version="1.0" encoding="UTF-8" standalone="yes"?>
                 <!DOCTYPE svg PUBLIC "-//W3C//DTD SVG 1.0//EN" "http://www.w3.org/TR/2001/REC-SVG-20010904/DTD/svg10.dtd">
                 <svg height="170" width="780" xmlns="http://www.w3.org/2000/svg" xmlns:xlink="http://www.w3.org/1999/xlink">
                 <line x1="85" y1="120" x2="747" y2="120" style="stroke:rgb(99,99,99);stroke-width:2" />
<rect height="7.000000" width="2.000000" x="85.000000" y="120.000000" fill="rgb(0, 0, 0)" style="fill-opacity:1.00" />
<text x="107.000000" y="140">
1
</text>
<rect height="7.000000" width="2.000000" x="145.000000" y="120.000000" fill="rgb(0, 0, 0)" style="fill-opacity:1.00" />
<text x="167.000000" y="140">
2
</text>
<rect height="7.000000" width="2.000000" x="205.000000" y="120.000000" fill="rgb(0, 0, 0)" style="fill-opacity:1.00" />
<text x="227.000000" y="140">
3
</text>
<rect height="7.000000" width="2.000000" x="265.000000" y="120.000000" fill="rgb(0, 0, 0)" style="fill-opacity:1.00" />
<text x="287.000000" y="140">
4
</text>
<rect height="7.000000" width="2.000000" x="325.000000" y="120.000000" fill="rgb(0, 0, 0)" style="fill-opacity:1.00" />
<text x="347.000000" y="140">
5
</text>
<rect height="7.000000" width="2.000000" x="385.000000" y="120.000000" fill="rgb(0, 0, 0)" style="fill-opacity:1.00" />
<text x="407.000000" y="140">
6
</text>
<rect height="7.000000" width="2.000000" x="445.000000" y="120.000000" fill="rgb(0, 0, 0)" style="fill-opacity:1.00" />
<text x="467.000000" y="140">
7
</text>
<rect height="7.000000" width="2.000000" x="505.000000" y="120.000000" fill="rgb(0, 0, 0)" style="fill-opacity:1.00" />
<text x="527.000000" y="140">
8
</text>
<rect height="7.000000" width="2.000000" x="565.000000" y="120.000000" fill="rgb(0, 0, 0)" style="fill-opacity:1.00" />
<text x="587.000000" y="140">
9
</text>
<rect height="7.000000" width="2.000000" x="625.000000" y="120.000000" fill="rgb(0, 0, 0)" style="fill-opacity:1.00" />
<text x="647.000000" y="140">
10
</text>
<rect height="7.000000" width="2.000000" x="685.000000" y="120.000000" fill="rgb(0, 0, 0)" style="fill-opacity:1.00" />
<text x="707.000000" y="140">
11
</text>
<rect height="7.000000" width="2.000000" x="745.000000" y="120.000000" fill="rgb(0, 0, 0)" style="fill-opacity:1.00" />
<line x1="80" y1="112" x2="80" y2="10" style="stroke:rgb(99,99,99);stroke-width:2" />
<rect height="2.000000" width="7.000000" x="73.000000" y="110.000000" fill="rgb(0, 0, 0)" style="fill-opacity:1.00" />
<text x="63" y="115">
0
</text>
<rect height="2.000000" width="7.000000" x="73.000000" y="60.000000" fill="rgb(0, 0, 0)" style="fill-opacity:1.00" />
<text x="63" y="65">
1
</text>
<rect height="2.000000" width="7.000000" x="73.000000" y="10.000000" fill="rgb(0, 0, 0)" style="fill-opacity:1.00" />
<text x="63" y="15">
2
</text>
<text x="50" y="65"
transform="rotate(-90, 50, 70)">
bits
</text>
<!-- Begin 'A' -->
<polygon points=" 90.000000, 106.011685, 111.000000, 103.266904, 119.000000, 103.266904, 140.000000, 106.011685, 132.500000, 106.011685, 126.250000, 105.325490, 103.750000, 105.325490, 97.500000, 106.011685" fill="rgb(178, 34, 34)" style="fill-opacity:1.00" />
<!-- End 'A' -->
<!-- Begin 'C' -->
<ellipse cx="115.000000" cy="106.998875" rx="25.000000" ry="0.987190" fill="rgb(0, 0, 128)" style="fill-opacity:1.00" />
<ellipse cx="115.000000" cy="106.998875" rx="16.666667" ry="0.658127" fill="rgb(255, 255, 255)" style="fill-opacity:1.00" />
<rect height="0.987190" width="25.000000" x="115.000000" y="106.505280" fill="rgb(255, 255, 255)" style="fill-opacity:1.00" />
<!-- End 'C' -->
<!-- Begin 'T' -->
<rect height="0.173746" width="50.000000" x="90.000000" y="107.986065" fill="rgb(0, 100, 0)" style="fill-opacity:1.00" />
<rect height="1.085909" width="10.000000" x="110.000000" y="107.986065" fill="rgb(0, 100, 0)" style="fill-opacity:1.00" />
<!-- End 'T' -->
<!-- Begin 'G' -->
<ellipse cx="115.000000" cy="109.535987" rx="25.000000" ry="0.464013" fill="rgb(255, 165, 0)" style="fill-opacity:1.00" />
<ellipse cx="115.000000" cy="109.535987" rx="16.666667" ry="0.309342" fill="rgb(255, 255, 255)" style="fill-opacity:1.00" />
<rect height="0.464013" width="25.000000" x="115.000000" y="109.303981" fill="rgb(255, 255, 255)" style="fill-opacity:1.00" />
<rect height="0.116003" width="25.000000" x="115.000000" y="109.651990" fill="rgb(255, 165, 0)" style="fill-opacity:1.00" />
<rect height="0.348010" width="6.250000" x="133.750000" y="109.651990" fill="rgb(255, 165, 0)" style="fill-opacity:1.00" />
<!-- End 'G' -->
<!-- Begin 'A' -->
<polygon points=" 150.000000, 101.882205, 171.000000, 89.982711, 179.000000, 89.982711, 200.000000, 101.882205, 192.500000, 101.882205, 186.250000, 98.907332, 163.750000, 98.907332, 157.500000, 101.882205" fill="rgb(178, 34, 34)" style="fill-opacity:1.00" />
<polygon points=" 175.000000, 92.362610, 167.000000, 96.122408, 182.000000, 96.122408" fill="rgb(255, 255, 255)" style="fill-opacity:1.00" />
<!-- End 'A' -->
<!-- Begin 'G' -->
<ellipse cx="175.000000" cy="103.575506" rx="25.000000" ry="1.693301" fill="rgb(255, 165, 0)" style="fill-opacity:1.00" />
<ellipse cx="175.000000" cy="103.575506" rx="16.666667" ry="1.128867" fill="rgb(255, 255, 255)" style="fill-opacity:1.00" />
<rect height="1.693301" width="25.000000" x="175.000000" y="102.728856" fill="rgb(255, 255, 255)" style="fill-opacity:1.00" />
<rect height="0.423325" width="25.000000" x="175.000000" y="103.998832" fill="rgb(255, 165, 0)" style="fill-opacity:1.00" />
<rect height="1.269976" width="6.250000" x="193.750000" y="103.998832" fill="rgb(255, 165, 0)" style="fill-opacity:1.00" />
<!-- End 'G' -->
<!-- Begin 'T' -->
<rect height="0.461548" width="50.000000" x="150.000000" y="105.268807" fill="rgb(0, 100, 0)" style="fill-opacity:1.00" />
<rect height="2.884673" width="10.000000" x="170.000000" y="105.268807" fill="rgb(0, 100, 0)" style="fill-opacity:1.00" />
<!-- End 'T' -->
<!-- Begin 'C' -->
<ellipse cx="175.000000" cy="109.076740" rx="25.000000" ry="0.923260" fill="rgb(0, 0, 128)" style="fill-opacity:1.00" />
<ellipse cx="175.000000" cy="109.076740" rx="16.666667" ry="0.615507" fill="rgb(255, 255, 255)" style="fill-opacity:1.00" />
<rect height="0.923260" width="25.000000" x="175.000000" y="108.615110" fill="rgb(255, 255, 255)" style="fill-opacity:1.00" />
<!-- End 'C' -->
<!-- Begin 'A' -->
<polygon points=" 210.000000, 106.998203, 231.000000, 105.570679, 239.000000, 105.570679, 260.000000, 106.998203, 252.500000, 106.998203, 246.250000, 106.641322, 223.750000, 106.641322, 217.500000, 106.998203" fill="rgb(178, 34, 34)" style="fill-opacity:1.00" />
<!-- End 'A' -->
<!-- Begin 'C' -->
<ellipse cx="235.000000" cy="107.643801" rx="25.000000" ry="0.645598" fill="rgb(0, 0, 128)" style="fill-opacity:1.00" />
<ellipse cx="235.000000" cy="107.643801" rx="16.666667" ry="0.430399" fill="rgb(255, 255, 255)" style="fill-opacity:1.00" />
<rect height="0.645598" width="25.000000" x="235.000000" y="107.321002" fill="rgb(255, 255, 255)" style="fill-opacity:1.00" />
<!-- End 'C' -->
<!-- Begin 'G' -->
<ellipse cx="235.000000" cy="108.895070" rx="25.000000" ry="0.605671" fill="rgb(255, 165, 0)" style="fill-opacity:1.00" />
<ellipse cx="235.000000" cy="108.895070" rx="16.666667" ry="0.403780" fill="rgb(255, 255, 255)" style="fill-opacity:1.00" />
<rect height="0.605671" width="25.000000" x="235.000000" y="108.592235" fill="rgb(255, 255, 255)" style="fill-opacity:1.00" />
<rect height="0.151418" width="25.000000" x="235.000000" y="109.046488" fill="rgb(255, 165, 0)" style="fill-opacity:1.00" />
<rect height="0.454253" width="6.250000" x="253.750000" y="109.046488" fill="rgb(255, 165, 0)" style="fill-opacity:1.00" />
<!-- End 'G' -->
<!-- Begin 'T' -->
<rect height="0.079881" width="50.000000" x="210.000000" y="109.500741" fill="rgb(0, 100, 0)" style="fill-opacity:1.00" />
<rect height="0.499259" width="10.000000" x="230.000000" y="109.500741" fill="rgb(0, 100, 0)" style="fill-opacity:1.00" />
<!-- End 'T' -->
<!-- Begin 'A' -->
<polygon points=" 270.000000, 101.503645, 291.000000, 93.305752, 299.000000, 93.305752, 320.000000, 101.503645, 312.500000, 101.503645, 306.250000, 99.454172, 283.750000, 99.454172, 277.500000, 101.503645" fill="rgb(178, 34, 34)" style="fill-opacity:1.00" />
<polygon points=" 295.000000, 94.945331, 287.000000, 97.224488, 302.000000, 97.224488" fill="rgb(255, 255, 255)" style="fill-opacity:1.00" />
<!-- End 'A' -->
<!-- Begin 'T' -->
<rect height="0.680607" width="50.000000" x="270.000000" y="101.503645" fill="rgb(0, 100, 0)" style="fill-opacity:1.00" />
<rect height="4.253792" width="10.000000" x="290.000000" y="101.503645" fill="rgb(0, 100, 0)" style="fill-opacity:1.00" />
<!-- End 'T' -->
<!-- Begin 'C' -->
<ellipse cx="295.000000" cy="107.552362" rx="25.000000" ry="1.794925" fill="rgb(0, 0, 128)" style="fill-opacity:1.00" />
<ellipse cx="295.000000" cy="107.552362" rx="16.666667" ry="1.196616" fill="rgb(255, 255, 255)" style="fill-opacity:1.00" />
<rect height="1.794925" width="25.000000" x="295.000000" y="106.654900" fill="rgb(255, 255, 255)" style="fill-opacity:1.00" />
<!-- End 'C' -->
<!-- Begin 'G' -->
<ellipse cx="295.000000" cy="109.673643" rx="25.000000" ry="0.326357" fill="rgb(255, 165, 0)" style="fill-opacity:1.00" />
<ellipse cx="295.000000" cy="109.673643" rx="16.666667" ry="0.217571" fill="rgb(255, 255, 255)" style="fill-opacity:1.00" />
<rect height="0.326357" width="25.000000" x="295.000000" y="109.510465" fill="rgb(255, 255, 255)" style="fill-opacity:1.00" />
<rect height="0.081589" width="25.000000" x="295.000000" y="109.755233" fill="rgb(255, 165, 0)" style="fill-opacity:1.00" />
<rect height="0.244767" width="6.250000" x="313.750000" y="109.755233" fill="rgb(255, 165, 0)" style="fill-opacity:1.00" />
<!-- End 'G' -->
<!-- Begin 'A' -->
<polygon points=" 330.000000, 100.961078, 351.000000, 94.518923, 359.000000, 94.518923, 380.000000, 100.961078, 372.500000, 100.961078, 366.250000, 99.350539, 343.750000, 99.350539, 337.500000, 100.961078" fill="rgb(178, 34, 34)" style="fill-opacity:1.00" />
<!-- End 'A' -->
<!-- Begin 'C' -->
<ellipse cx="355.000000" cy="103.888205" rx="25.000000" ry="2.927127" fill="rgb(0, 0, 128)" style="fill-opacity:1.00" />
<ellipse cx="355.000000" cy="103.888205" rx="16.666667" ry="1.951418" fill="rgb(255, 255, 255)" style="fill-opacity:1.00" />
<rect height="2.927127" width="25.000000" x="355.000000" y="102.424642" fill="rgb(255, 255, 255)" style="fill-opacity:1.00" />
<!-- End 'C' -->
<!-- Begin 'T' -->
<rect height="0.386294" width="50.000000" x="330.000000" y="106.815332" fill="rgb(0, 100, 0)" style="fill-opacity:1.00" />
<rect height="2.414339" width="10.000000" x="350.000000" y="106.815332" fill="rgb(0, 100, 0)" style="fill-opacity:1.00" />
<!-- End 'T' -->
<!-- Begin 'G' -->
<ellipse cx="355.000000" cy="109.614836" rx="25.000000" ry="0.385164" fill="rgb(255, 165, 0)" style="fill-opacity:1.00" />
<ellipse cx="355.000000" cy="109.614836" rx="16.666667" ry="0.256776" fill="rgb(255, 255, 255)" style="fill-opacity:1.00" />
<rect height="0.385164" width="25.000000" x="355.000000" y="109.422253" fill="rgb(255, 255, 255)" style="fill-opacity:1.00" />
<rect height="0.096291" width="25.000000" x="355.000000" y="109.711127" fill="rgb(255, 165, 0)" style="fill-opacity:1.00" />
<rect height="0.288873" width="6.250000" x="373.750000" y="109.711127" fill="rgb(255, 165, 0)" style="fill-opacity:1.00" />
<!-- End 'G' -->
<!-- Begin 'A' -->
<polygon points=" 390.000000, 102.340472, 411.000000, 43.993069, 419.000000, 43.993069, 440.000000, 102.340472, 432.500000, 102.340472, 426.250000, 87.753621, 403.750000, 87.753621, 397.500000, 102.340472" fill="rgb(178, 34, 34)" style="fill-opacity:1.00" />
<polygon points=" 415.000000, 55.662550, 407.000000, 78.001511, 422.000000, 78.001511" fill="rgb(255, 255, 255)" style="fill-opacity:1.00" />
<!-- End 'A' -->
<!-- Begin 'G' -->
<ellipse cx="415.000000" cy="104.127183" rx="25.000000" ry="1.786711" fill="rgb(255, 165, 0)" style="fill-opacity:1.00" />
<ellipse cx="415.000000" cy="104.127183" rx="16.666667" ry="1.191141" fill="rgb(255, 255, 255)" style="fill-opacity:1.00" />
<rect height="1.786711" width="25.000000" x="415.000000" y="103.233827" fill="rgb(255, 255, 255)" style="fill-opacity:1.00" />
<rect height="0.446678" width="25.000000" x="415.000000" y="104.573861" fill="rgb(255, 165, 0)" style="fill-opacity:1.00" />
<rect height="1.340033" width="6.250000" x="433.750000" y="104.573861" fill="rgb(255, 165, 0)" style="fill-opacity:1.00" />
<!-- End 'G' -->
<!-- Begin 'T' -->
<rect height="0.514139" width="50.000000" x="390.000000" y="105.913894" fill="rgb(0, 100, 0)" style="fill-opacity:1.00" />
<rect height="3.213367" width="10.000000" x="410.000000" y="105.913894" fill="rgb(0, 100, 0)" style="fill-opacity:1.00" />
<!-- End 'T' -->
<!-- Begin 'C' -->
<ellipse cx="415.000000" cy="109.563631" rx="25.000000" ry="0.436369" fill="rgb(0, 0, 128)" style="fill-opacity:1.00" />
<ellipse cx="415.000000" cy="109.563631" rx="16.666667" ry="0.290913" fill="rgb(255, 255, 255)" style="fill-opacity:1.00" />
<rect height="0.436369" width="25.000000" x="415.000000" y="109.345446" fill="rgb(255, 255, 255)" style="fill-opacity:1.00" />
<!-- End 'C' -->
<!-- Begin 'T' -->
<rect height="1.561425" width="50.000000" x="450.000000" y="91.916290" fill="rgb(0, 100, 0)" style="fill-opacity:1.00" />
<rect height="9.758908" width="10.000000" x="470.000000" y="91.916290" fill="rgb(0, 100, 0)" style="fill-opacity:1.00" />
<!-- End 'T' -->
<!-- Begin 'C' -->
<ellipse cx="475.000000" cy="104.000881" rx="25.000000" ry="2.325683" fill="rgb(0, 0, 128)" style="fill-opacity:1.00" />
<ellipse cx="475.000000" cy="104.000881" rx="16.666667" ry="1.550455" fill="rgb(255, 255, 255)" style="fill-opacity:1.00" />
<rect height="2.325683" width="25.000000" x="475.000000" y="102.838040" fill="rgb(255, 255, 255)" style="fill-opacity:1.00" />
<!-- End 'C' -->
<!-- Begin 'G' -->
<ellipse cx="475.000000" cy="107.545804" rx="25.000000" ry="1.219239" fill="rgb(255, 165, 0)" style="fill-opacity:1.00" />
<ellipse cx="475.000000" cy="107.545804" rx="16.666667" ry="0.812826" fill="rgb(255, 255, 255)" style="fill-opacity:1.00" />
<rect height="1.219239" width="25.000000" x="475.000000" y="106.936184" fill="rgb(255, 255, 255)" style="fill-opacity:1.00" />
<rect height="0.304810" width="25.000000" x="475.000000" y="107.850614" fill="rgb(255, 165, 0)" style="fill-opacity:1.00" />
<rect height="0.914430" width="6.250000" x="493.750000" y="107.850614" fill="rgb(255, 165, 0)" style="fill-opacity:1.00" />
<!-- End 'G' -->
<!-- Begin 'A' -->
<polygon points=" 450.000000, 110.000000, 471.000000, 108.765043, 479.000000, 108.765043, 500.000000, 110.000000, 492.500000, 110.000000, 486.250000, 109.691261, 463.750000, 109.691261, 457.500000, 110.000000" fill="rgb(178, 34, 34)" style="fill-opacity:1.00" />
<!-- End 'A' -->
<!-- Begin 'A' -->
<polygon points=" 510.000000, 102.704910, 531.000000, 43.055287, 539.000000, 43.055287, 560.000000, 102.704910, 552.500000, 102.704910, 546.250000, 87.792505, 523.750000, 87.792505, 517.500000, 102.704910" fill="rgb(178, 34, 34)" style="fill-opacity:1.00" />
<polygon points=" 535.000000, 54.985212, 527.000000, 77.845061, 542.000000, 77.845061" fill="rgb(255, 255, 255)" style="fill-opacity:1.00" />
<!-- End 'A' -->
<!-- Begin 'T' -->
<rect height="0.571182" width="50.000000" x="510.000000" y="102.704910" fill="rgb(0, 100, 0)" style="fill-opacity:1.00" />
<rect height="3.569890" width="10.000000" x="530.000000" y="102.704910" fill="rgb(0, 100, 0)" style="fill-opacity:1.00" />
<!-- End 'T' -->
<!-- Begin 'G' -->
<ellipse cx="535.000000" cy="107.284300" rx="25.000000" ry="1.009500" fill="rgb(255, 165, 0)" style="fill-opacity:1.00" />
<ellipse cx="535.000000" cy="107.284300" rx="16.666667" ry="0.673000" fill="rgb(255, 255, 255)" style="fill-opacity:1.00" />
<rect height="1.009500" width="25.000000" x="535.000000" y="106.779550" fill="rgb(255, 255, 255)" style="fill-opacity:1.00" />
<rect height="0.252375" width="25.000000" x="535.000000" y="107.536675" fill="rgb(255, 165, 0)" style="fill-opacity:1.00" />
<rect height="0.757125" width="6.250000" x="553.750000" y="107.536675" fill="rgb(255, 165, 0)" style="fill-opacity:1.00" />
<!-- End 'G' -->
<!-- Begin 'C' -->
<ellipse cx="535.000000" cy="109.146900" rx="25.000000" ry="0.853100" fill="rgb(0, 0, 128)" style="fill-opacity:1.00" />
<ellipse cx="535.000000" cy="109.146900" rx="16.666667" ry="0.568733" fill="rgb(255, 255, 255)" style="fill-opacity:1.00" />
<rect height="0.853100" width="25.000000" x="535.000000" y="108.720350" fill="rgb(255, 255, 255)" style="fill-opacity:1.00" />
<!-- End 'C' -->
<!-- Begin 'A' -->
<polygon points=" 570.000000, 99.197782, 591.000000, 83.563114, 599.000000, 83.563114, 620.000000, 99.197782, 612.500000, 99.197782, 606.250000, 95.289115, 583.750000, 95.289115, 577.500000, 99.197782" fill="rgb(178, 34, 34)" style="fill-opacity:1.00" />
<polygon points=" 595.000000, 86.690047, 587.000000, 91.943915, 602.000000, 91.943915" fill="rgb(255, 255, 255)" style="fill-opacity:1.00" />
<!-- End 'A' -->
<!-- Begin 'C' -->
<ellipse cx="595.000000" cy="102.828395" rx="25.000000" ry="3.630613" fill="rgb(0, 0, 128)" style="fill-opacity:1.00" />
<ellipse cx="595.000000" cy="102.828395" rx="16.666667" ry="2.420409" fill="rgb(255, 255, 255)" style="fill-opacity:1.00" />
<rect height="3.630613" width="25.000000" x="595.000000" y="101.013089" fill="rgb(255, 255, 255)" style="fill-opacity:1.00" />
<!-- End 'C' -->
<!-- Begin 'T' -->
<rect height="0.379447" width="50.000000" x="570.000000" y="106.459008" fill="rgb(0, 100, 0)" style="fill-opacity:1.00" />
<rect height="2.371544" width="10.000000" x="590.000000" y="106.459008" fill="rgb(0, 100, 0)" style="fill-opacity:1.00" />
<!-- End 'T' -->
<!-- Begin 'G' -->
<ellipse cx="595.000000" cy="109.415276" rx="25.000000" ry="0.584724" fill="rgb(255, 165, 0)" style="fill-opacity:1.00" />
<ellipse cx="595.000000" cy="109.415276" rx="16.666667" ry="0.389816" fill="rgb(255, 255, 255)" style="fill-opacity:1.00" />
<rect height="0.584724" width="25.000000" x="595.000000" y="109.122914" fill="rgb(255, 255, 255)" style="fill-opacity:1.00" />
<rect height="0.146181" width="25.000000" x="595.000000" y="109.561457" fill="rgb(255, 165, 0)" style="fill-opacity:1.00" />
<rect height="0.438543" width="6.250000" x="613.750000" y="109.561457" fill="rgb(255, 165, 0)" style="fill-opacity:1.00" />
<!-- End 'G' -->
<!-- Begin 'A' -->
<polygon points=" 630.000000, 103.263397, 651.000000, 39.036895, 659.000000, 39.036895, 680.000000, 103.263397, 672.500000, 103.263397, 666.250000, 87.206771, 643.750000, 87.206771, 637.500000, 103.263397" fill="rgb(178, 34, 34)" style="fill-opacity:1.00" />
<polygon points=" 655.000000, 51.882195, 647.000000, 76.572796, 662.000000, 76.572796" fill="rgb(255, 255, 255)" style="fill-opacity:1.00" />
<!-- End 'A' -->
<!-- Begin 'T' -->
<rect height="0.632716" width="50.000000" x="630.000000" y="103.263397" fill="rgb(0, 100, 0)" style="fill-opacity:1.00" />
<rect height="3.954475" width="10.000000" x="650.000000" y="103.263397" fill="rgb(0, 100, 0)" style="fill-opacity:1.00" />
<!-- End 'T' -->
<!-- Begin 'C' -->
<ellipse cx="655.000000" cy="108.172867" rx="25.000000" ry="0.954994" fill="rgb(0, 0, 128)" style="fill-opacity:1.00" />
<ellipse cx="655.000000" cy="108.172867" rx="16.666667" ry="0.636663" fill="rgb(255, 255, 255)" style="fill-opacity:1.00" />
<rect height="0.954994" width="25.000000" x="655.000000" y="107.695369" fill="rgb(255, 255, 255)" style="fill-opacity:1.00" />
<!-- End 'C' -->
<!-- Begin 'G' -->
<ellipse cx="655.000000" cy="109.563931" rx="25.000000" ry="0.436069" fill="rgb(255, 165, 0)" style="fill-opacity:1.00" />
<ellipse cx="655.000000" cy="109.563931" rx="16.666667" ry="0.290713" fill="rgb(255, 255, 255)" style="fill-opacity:1.00" />
<rect height="0.436069" width="25.000000" x="655.000000" y="109.345896" fill="rgb(255, 255, 255)" style="fill-opacity:1.00" />
<rect height="0.109017" width="25.000000" x="655.000000" y="109.672948" fill="rgb(255, 165, 0)" style="fill-opacity:1.00" />
<rect height="0.327052" width="6.250000" x="673.750000" y="109.672948" fill="rgb(255, 165, 0)" style="fill-opacity:1.00" />
<!-- End 'G' -->
<!-- Begin 'A' -->
<polygon points=" 690.000000, 105.967546, 711.000000, 103.374823, 719.000000, 103.374823, 740.000000, 105.967546, 732.500000, 105.967546, 726.250000, 105.319365, 703.750000, 105.319365, 697.500000, 105.967546" fill="rgb(178, 34, 34)" style="fill-opacity:1.00" />
<!-- End 'A' -->
<!-- Begin 'C' -->
<ellipse cx="715.000000" cy="106.997100" rx="25.000000" ry="1.029554" fill="rgb(0, 0, 128)" style="fill-opacity:1.00" />
<ellipse cx="715.000000" cy="106.997100" rx="16.666667" ry="0.686369" fill="rgb(255, 255, 255)" style="fill-opacity:1.00" />
<rect height="1.029554" width="25.000000" x="715.000000" y="106.482323" fill="rgb(255, 255, 255)" style="fill-opacity:1.00" />
<!-- End 'C' -->
<!-- Begin 'T' -->
<rect height="0.180619" width="50.000000" x="690.000000" y="108.026654" fill="rgb(0, 100, 0)" style="fill-opacity:1.00" />
<rect height="1.128868" width="10.000000" x="710.000000" y="108.026654" fill="rgb(0, 100, 0)" style="fill-opacity:1.00" />
<!-- End 'T' -->
<!-- Begin 'G' -->
<ellipse cx="715.000000" cy="109.577761" rx="25.000000" ry="0.422239" fill="rgb(255, 165, 0)" style="fill-opacity:1.00" />
<ellipse cx="715.000000" cy="109.577761" rx="16.666667" ry="0.281493" fill="rgb(255, 255, 255)" style="fill-opacity:1.00" />
<rect height="0.422239" width="25.000000" x="715.000000" y="109.366641" fill="rgb(255, 255, 255)" style="fill-opacity:1.00" />
<rect height="0.105560" width="25.000000" x="715.000000" y="109.683321" fill="rgb(255, 165, 0)" style="fill-opacity:1.00" />
<rect height="0.316679" width="6.250000" x="733.750000" y="109.683321" fill="rgb(255, 165, 0)" style="fill-opacity:1.00" />
<!-- End 'G' -->
<text x="400.000000" y="165">
IC = 6.37
</text>

</svg>
