<?xml version="1.0" encoding="UTF-8" standalone="yes"?>
                 <!DOCTYPE svg PUBLIC "-//W3C//DTD SVG 1.0//EN" "http://www.w3.org/TR/2001/REC-SVG-20010904/DTD/svg10.dtd">
                 <svg height="170" width="780" xmlns="http://www.w3.org/2000/svg" xmlns:xlink="http://www.w3.org/1999/xlink">
                 <line x1="85" y1="120" x2="747" y2="120" style="stroke:rgb(99,99,99);stroke-width:2" />
<rect height="7.000000" width="2.000000" x="85.000000" y="120.000000" fill="rgb(0, 0, 0)" style="fill-opacity:1.00" />
<text x="107.000000" y="140">
1
</text>
<rect height="7.000000" width="2.000000" x="145.000000" y="120.000000" fill="rgb(0, 0, 0)" style="fill-opacity:1.00" />
<text x="167.000000" y="140">
2
</text>
<rect height="7.000000" width="2.000000" x="205.000000" y="120.000000" fill="rgb(0, 0, 0)" style="fill-opacity:1.00" />
<text x="227.000000" y="140">
3
</text>
<rect height="7.000000" width="2.000000" x="265.000000" y="120.000000" fill="rgb(0, 0, 0)" style="fill-opacity:1.00" />
<text x="287.000000" y="140">
4
</text>
<rect height="7.000000" width="2.000000" x="325.000000" y="120.000000" fill="rgb(0, 0, 0)" style="fill-opacity:1.00" />
<text x="347.000000" y="140">
5
</text>
<rect height="7.000000" width="2.000000" x="385.000000" y="120.000000" fill="rgb(0, 0, 0)" style="fill-opacity:1.00" />
<text x="407.000000" y="140">
6
</text>
<rect height="7.000000" width="2.000000" x="445.000000" y="120.000000" fill="rgb(0, 0, 0)" style="fill-opacity:1.00" />
<text x="467.000000" y="140">
7
</text>
<rect height="7.000000" width="2.000000" x="505.000000" y="120.000000" fill="rgb(0, 0, 0)" style="fill-opacity:1.00" />
<text x="527.000000" y="140">
8
</text>
<rect height="7.000000" width="2.000000" x="565.000000" y="120.000000" fill="rgb(0, 0, 0)" style="fill-opacity:1.00" />
<text x="587.000000" y="140">
9
</text>
<rect height="7.000000" width="2.000000" x="625.000000" y="120.000000" fill="rgb(0, 0, 0)" style="fill-opacity:1.00" />
<text x="647.000000" y="140">
10
</text>
<rect height="7.000000" width="2.000000" x="685.000000" y="120.000000" fill="rgb(0, 0, 0)" style="fill-opacity:1.00" />
<text x="707.000000" y="140">
11
</text>
<rect height="7.000000" width="2.000000" x="745.000000" y="120.000000" fill="rgb(0, 0, 0)" style="fill-opacity:1.00" />
<line x1="80" y1="112" x2="80" y2="10" style="stroke:rgb(99,99,99);stroke-width:2" />
<rect height="2.000000" width="7.000000" x="73.000000" y="110.000000" fill="rgb(0, 0, 0)" style="fill-opacity:1.00" />
<text x="63" y="115">
0
</text>
<rect height="2.000000" width="7.000000" x="73.000000" y="60.000000" fill="rgb(0, 0, 0)" style="fill-opacity:1.00" />
<text x="63" y="65">
1
</text>
<rect height="2.000000" width="7.000000" x="73.000000" y="10.000000" fill="rgb(0, 0, 0)" style="fill-opacity:1.00" />
<text x="63" y="15">
2
</text>
<text x="50" y="65"
transform="rotate(-90, 50, 70)">
bits
</text>
<!-- Begin 'A' -->
<polygon points=" 90.000000, 104.740430, 111.000000, 99.449892, 119.000000, 99.449892, 140.000000, 104.740430, 132.500000, 104.740430, 126.250000, 103.417796, 103.750000, 103.417796, 97.500000, 104.740430" fill="rgb(178, 34, 34)" style="fill-opacity:1.00" />
<!-- End 'A' -->
<!-- Begin 'T' -->
<rect height="0.291818" width="50.000000" x="90.000000" y="104.740430" fill="rgb(0, 100, 0)" style="fill-opacity:1.00" />
<rect height="1.823863" width="10.000000" x="110.000000" y="104.740430" fill="rgb(0, 100, 0)" style="fill-opacity:1.00" />
<!-- End 'T' -->
<!-- Begin 'G' -->
<ellipse cx="115.000000" cy="107.475197" rx="25.000000" ry="0.910904" fill="rgb(255, 165, 0)" style="fill-opacity:1.00" />
<ellipse cx="115.000000" cy="107.475197" rx="16.666667" ry="0.607269" fill="rgb(255, 255, 255)" style="fill-opacity:1.00" />
<rect height="0.910904" width="25.000000" x="115.000000" y="107.019745" fill="rgb(255, 255, 255)" style="fill-opacity:1.00" />
<rect height="0.227726" width="25.000000" x="115.000000" y="107.702923" fill="rgb(255, 165, 0)" style="fill-opacity:1.00" />
<rect height="0.683178" width="6.250000" x="133.750000" y="107.702923" fill="rgb(255, 165, 0)" style="fill-opacity:1.00" />
<!-- End 'G' -->
<!-- Begin 'C' -->
<ellipse cx="115.000000" cy="109.193050" rx="25.000000" ry="0.806950" fill="rgb(0, 0, 128)" style="fill-opacity:1.00" />
<ellipse cx="115.000000" cy="109.193050" rx="16.666667" ry="0.537967" fill="rgb(255, 255, 255)" style="fill-opacity:1.00" />
<rect height="0.806950" width="25.000000" x="115.000000" y="108.789575" fill="rgb(255, 255, 255)" style="fill-opacity:1.00" />
<!-- End 'C' -->
<!-- Begin 'A' -->
<polygon points=" 150.000000, 105.156105, 171.000000, 101.086182, 179.000000, 101.086182, 200.000000, 105.156105, 192.500000, 105.156105, 186.250000, 104.138624, 163.750000, 104.138624, 157.500000, 105.156105" fill="rgb(178, 34, 34)" style="fill-opacity:1.00" />
<!-- End 'A' -->
<!-- Begin 'G' -->
<ellipse cx="175.000000" cy="106.182870" rx="25.000000" ry="1.026765" fill="rgb(255, 165, 0)" style="fill-opacity:1.00" />
<ellipse cx="175.000000" cy="106.182870" rx="16.666667" ry="0.684510" fill="rgb(255, 255, 255)" style="fill-opacity:1.00" />
<rect height="1.026765" width="25.000000" x="175.000000" y="105.669488" fill="rgb(255, 255, 255)" style="fill-opacity:1.00" />
<rect height="0.256691" width="25.000000" x="175.000000" y="106.439562" fill="rgb(255, 165, 0)" style="fill-opacity:1.00" />
<rect height="0.770074" width="6.250000" x="193.750000" y="106.439562" fill="rgb(255, 165, 0)" style="fill-opacity:1.00" />
<!-- End 'G' -->
<!-- Begin 'T' -->
<rect height="0.289457" width="50.000000" x="150.000000" y="107.209635" fill="rgb(0, 100, 0)" style="fill-opacity:1.00" />
<rect height="1.809103" width="10.000000" x="170.000000" y="107.209635" fill="rgb(0, 100, 0)" style="fill-opacity:1.00" />
<!-- End 'T' -->
<!-- Begin 'C' -->
<ellipse cx="175.000000" cy="109.509369" rx="25.000000" ry="0.490631" fill="rgb(0, 0, 128)" style="fill-opacity:1.00" />
<ellipse cx="175.000000" cy="109.509369" rx="16.666667" ry="0.327087" fill="rgb(255, 255, 255)" style="fill-opacity:1.00" />
<rect height="0.490631" width="25.000000" x="175.000000" y="109.264054" fill="rgb(255, 255, 255)" style="fill-opacity:1.00" />
<!-- End 'C' -->
<!-- Begin 'A' -->
<polygon points=" 210.000000, 102.688071, 231.000000, 97.311051, 239.000000, 97.311051, 260.000000, 102.688071, 252.500000, 102.688071, 246.250000, 101.343816, 223.750000, 101.343816, 217.500000, 102.688071" fill="rgb(178, 34, 34)" style="fill-opacity:1.00" />
<!-- End 'A' -->
<!-- Begin 'G' -->
<ellipse cx="235.000000" cy="104.971704" rx="25.000000" ry="2.283633" fill="rgb(255, 165, 0)" style="fill-opacity:1.00" />
<ellipse cx="235.000000" cy="104.971704" rx="16.666667" ry="1.522422" fill="rgb(255, 255, 255)" style="fill-opacity:1.00" />
<rect height="2.283633" width="25.000000" x="235.000000" y="103.829888" fill="rgb(255, 255, 255)" style="fill-opacity:1.00" />
<rect height="0.570908" width="25.000000" x="235.000000" y="105.542613" fill="rgb(255, 165, 0)" style="fill-opacity:1.00" />
<rect height="1.712725" width="6.250000" x="253.750000" y="105.542613" fill="rgb(255, 165, 0)" style="fill-opacity:1.00" />
<!-- End 'G' -->
<!-- Begin 'C' -->
<ellipse cx="235.000000" cy="108.042405" rx="25.000000" ry="0.787067" fill="rgb(0, 0, 128)" style="fill-opacity:1.00" />
<ellipse cx="235.000000" cy="108.042405" rx="16.666667" ry="0.524711" fill="rgb(255, 255, 255)" style="fill-opacity:1.00" />
<rect height="0.787067" width="25.000000" x="235.000000" y="107.648871" fill="rgb(255, 255, 255)" style="fill-opacity:1.00" />
<!-- End 'C' -->
<!-- Begin 'T' -->
<rect height="0.187284" width="50.000000" x="210.000000" y="108.829472" fill="rgb(0, 100, 0)" style="fill-opacity:1.00" />
<rect height="1.170528" width="10.000000" x="230.000000" y="108.829472" fill="rgb(0, 100, 0)" style="fill-opacity:1.00" />
<!-- End 'T' -->
<!-- Begin 'T' -->
<rect height="1.023011" width="50.000000" x="270.000000" y="93.767479" fill="rgb(0, 100, 0)" style="fill-opacity:1.00" />
<rect height="6.393819" width="10.000000" x="290.000000" y="93.767479" fill="rgb(0, 100, 0)" style="fill-opacity:1.00" />
<!-- End 'T' -->
<!-- Begin 'C' -->
<ellipse cx="295.000000" cy="102.777654" rx="25.000000" ry="2.616356" fill="rgb(0, 0, 128)" style="fill-opacity:1.00" />
<ellipse cx="295.000000" cy="102.777654" rx="16.666667" ry="1.744237" fill="rgb(255, 255, 255)" style="fill-opacity:1.00" />
<rect height="2.616356" width="25.000000" x="295.000000" y="101.469476" fill="rgb(255, 255, 255)" style="fill-opacity:1.00" />
<!-- End 'C' -->
<!-- Begin 'A' -->
<polygon points=" 270.000000, 109.677931, 291.000000, 105.394010, 299.000000, 105.394010, 320.000000, 109.677931, 312.500000, 109.677931, 306.250000, 108.606951, 283.750000, 108.606951, 277.500000, 109.677931" fill="rgb(178, 34, 34)" style="fill-opacity:1.00" />
<!-- End 'A' -->
<!-- Begin 'G' -->
<ellipse cx="295.000000" cy="109.838965" rx="25.000000" ry="0.161035" fill="rgb(255, 165, 0)" style="fill-opacity:1.00" />
<ellipse cx="295.000000" cy="109.838965" rx="16.666667" ry="0.107356" fill="rgb(255, 255, 255)" style="fill-opacity:1.00" />
<rect height="0.161035" width="25.000000" x="295.000000" y="109.758448" fill="rgb(255, 255, 255)" style="fill-opacity:1.00" />
<rect height="0.040259" width="25.000000" x="295.000000" y="109.879224" fill="rgb(255, 165, 0)" style="fill-opacity:1.00" />
<rect height="0.120776" width="6.250000" x="313.750000" y="109.879224" fill="rgb(255, 165, 0)" style="fill-opacity:1.00" />
<!-- End 'G' -->
<!-- Begin 'A' -->
<polygon points=" 330.000000, 98.275951, 351.000000, 81.573037, 359.000000, 81.573037, 380.000000, 98.275951, 372.500000, 98.275951, 366.250000, 94.100222, 343.750000, 94.100222, 337.500000, 98.275951" fill="rgb(178, 34, 34)" style="fill-opacity:1.00" />
<polygon points=" 355.000000, 84.913619, 347.000000, 90.594785, 362.000000, 90.594785" fill="rgb(255, 255, 255)" style="fill-opacity:1.00" />
<!-- End 'A' -->
<!-- Begin 'C' -->
<ellipse cx="355.000000" cy="101.764841" rx="25.000000" ry="3.488890" fill="rgb(0, 0, 128)" style="fill-opacity:1.00" />
<ellipse cx="355.000000" cy="101.764841" rx="16.666667" ry="2.325926" fill="rgb(255, 255, 255)" style="fill-opacity:1.00" />
<rect height="3.488890" width="25.000000" x="355.000000" y="100.020396" fill="rgb(255, 255, 255)" style="fill-opacity:1.00" />
<!-- End 'C' -->
<!-- Begin 'T' -->
<rect height="0.716726" width="50.000000" x="330.000000" y="105.253730" fill="rgb(0, 100, 0)" style="fill-opacity:1.00" />
<rect height="4.479537" width="10.000000" x="350.000000" y="105.253730" fill="rgb(0, 100, 0)" style="fill-opacity:1.00" />
<!-- End 'T' -->
<!-- Begin 'G' -->
<ellipse cx="355.000000" cy="109.866634" rx="25.000000" ry="0.133366" fill="rgb(255, 165, 0)" style="fill-opacity:1.00" />
<ellipse cx="355.000000" cy="109.866634" rx="16.666667" ry="0.088911" fill="rgb(255, 255, 255)" style="fill-opacity:1.00" />
<rect height="0.133366" width="25.000000" x="355.000000" y="109.799951" fill="rgb(255, 255, 255)" style="fill-opacity:1.00" />
<rect height="0.033342" width="25.000000" x="355.000000" y="109.899975" fill="rgb(255, 165, 0)" style="fill-opacity:1.00" />
<rect height="0.100025" width="6.250000" x="373.750000" y="109.899975" fill="rgb(255, 165, 0)" style="fill-opacity:1.00" />
<!-- End 'G' -->
<!-- Begin 'A' -->
<polygon points=" 390.000000, 102.454276, 411.000000, 38.636724, 419.000000, 38.636724, 440.000000, 102.454276, 432.500000, 102.454276, 426.250000, 86.499888, 403.750000, 86.499888, 397.500000, 102.454276" fill="rgb(178, 34, 34)" style="fill-opacity:1.00" />
<polygon points=" 415.000000, 51.400234, 407.000000, 75.927255, 422.000000, 75.927255" fill="rgb(255, 255, 255)" style="fill-opacity:1.00" />
<!-- End 'A' -->
<!-- Begin 'G' -->
<ellipse cx="415.000000" cy="105.599431" rx="25.000000" ry="3.145154" fill="rgb(255, 165, 0)" style="fill-opacity:1.00" />
<ellipse cx="415.000000" cy="105.599431" rx="16.666667" ry="2.096769" fill="rgb(255, 255, 255)" style="fill-opacity:1.00" />
<rect height="3.145154" width="25.000000" x="415.000000" y="104.026853" fill="rgb(255, 255, 255)" style="fill-opacity:1.00" />
<rect height="0.786289" width="25.000000" x="415.000000" y="106.385719" fill="rgb(255, 165, 0)" style="fill-opacity:1.00" />
<rect height="2.358866" width="6.250000" x="433.750000" y="106.385719" fill="rgb(255, 165, 0)" style="fill-opacity:1.00" />
<!-- End 'G' -->
<!-- Begin 'T' -->
<rect height="0.119044" width="50.000000" x="390.000000" y="108.744585" fill="rgb(0, 100, 0)" style="fill-opacity:1.00" />
<rect height="0.744024" width="10.000000" x="410.000000" y="108.744585" fill="rgb(0, 100, 0)" style="fill-opacity:1.00" />
<!-- End 'T' -->
<!-- Begin 'C' -->
<ellipse cx="415.000000" cy="109.744304" rx="25.000000" ry="0.255696" fill="rgb(0, 0, 128)" style="fill-opacity:1.00" />
<ellipse cx="415.000000" cy="109.744304" rx="16.666667" ry="0.170464" fill="rgb(255, 255, 255)" style="fill-opacity:1.00" />
<rect height="0.255696" width="25.000000" x="415.000000" y="109.616456" fill="rgb(255, 255, 255)" style="fill-opacity:1.00" />
<!-- End 'C' -->
<!-- Begin 'T' -->
<rect height="7.185963" width="50.000000" x="450.000000" y="55.983676" fill="rgb(0, 100, 0)" style="fill-opacity:1.00" />
<rect height="44.912267" width="10.000000" x="470.000000" y="55.983676" fill="rgb(0, 100, 0)" style="fill-opacity:1.00" />
<!-- End 'T' -->
<!-- Begin 'C' -->
<ellipse cx="475.000000" cy="102.606237" rx="25.000000" ry="1.710295" fill="rgb(0, 0, 128)" style="fill-opacity:1.00" />
<ellipse cx="475.000000" cy="102.606237" rx="16.666667" ry="1.140196" fill="rgb(255, 255, 255)" style="fill-opacity:1.00" />
<rect height="1.710295" width="25.000000" x="475.000000" y="101.751090" fill="rgb(255, 255, 255)" style="fill-opacity:1.00" />
<!-- End 'C' -->
<!-- Begin 'A' -->
<polygon points=" 450.000000, 107.459865, 471.000000, 104.316532, 479.000000, 104.316532, 500.000000, 107.459865, 492.500000, 107.459865, 486.250000, 106.674032, 463.750000, 106.674032, 457.500000, 107.459865" fill="rgb(178, 34, 34)" style="fill-opacity:1.00" />
<!-- End 'A' -->
<!-- Begin 'G' -->
<ellipse cx="475.000000" cy="108.729933" rx="25.000000" ry="1.270067" fill="rgb(255, 165, 0)" style="fill-opacity:1.00" />
<ellipse cx="475.000000" cy="108.729933" rx="16.666667" ry="0.846712" fill="rgb(255, 255, 255)" style="fill-opacity:1.00" />
<rect height="1.270067" width="25.000000" x="475.000000" y="108.094899" fill="rgb(255, 255, 255)" style="fill-opacity:1.00" />
<rect height="0.317517" width="25.000000" x="475.000000" y="109.047449" fill="rgb(255, 165, 0)" style="fill-opacity:1.00" />
<rect height="0.952551" width="6.250000" x="493.750000" y="109.047449" fill="rgb(255, 165, 0)" style="fill-opacity:1.00" />
<!-- End 'G' -->
<!-- Begin 'A' -->
<polygon points=" 510.000000, 102.651017, 531.000000, 38.652618, 539.000000, 38.652618, 560.000000, 102.651017, 552.500000, 102.651017, 546.250000, 86.651417, 523.750000, 86.651417, 517.500000, 102.651017" fill="rgb(178, 34, 34)" style="fill-opacity:1.00" />
<polygon points=" 535.000000, 51.452297, 527.000000, 76.051657, 542.000000, 76.051657" fill="rgb(255, 255, 255)" style="fill-opacity:1.00" />
<!-- End 'A' -->
<!-- Begin 'T' -->
<rect height="0.939037" width="50.000000" x="510.000000" y="102.651017" fill="rgb(0, 100, 0)" style="fill-opacity:1.00" />
<rect height="5.868981" width="10.000000" x="530.000000" y="102.651017" fill="rgb(0, 100, 0)" style="fill-opacity:1.00" />
<!-- End 'T' -->
<!-- Begin 'G' -->
<ellipse cx="535.000000" cy="108.974097" rx="25.000000" ry="0.454099" fill="rgb(255, 165, 0)" style="fill-opacity:1.00" />
<ellipse cx="535.000000" cy="108.974097" rx="16.666667" ry="0.302732" fill="rgb(255, 255, 255)" style="fill-opacity:1.00" />
<rect height="0.454099" width="25.000000" x="535.000000" y="108.747047" fill="rgb(255, 255, 255)" style="fill-opacity:1.00" />
<rect height="0.113525" width="25.000000" x="535.000000" y="109.087621" fill="rgb(255, 165, 0)" style="fill-opacity:1.00" />
<rect height="0.340574" width="6.250000" x="553.750000" y="109.087621" fill="rgb(255, 165, 0)" style="fill-opacity:1.00" />
<!-- End 'G' -->
<!-- Begin 'C' -->
<ellipse cx="535.000000" cy="109.714098" rx="25.000000" ry="0.285902" fill="rgb(0, 0, 128)" style="fill-opacity:1.00" />
<ellipse cx="535.000000" cy="109.714098" rx="16.666667" ry="0.190602" fill="rgb(255, 255, 255)" style="fill-opacity:1.00" />
<rect height="0.285902" width="25.000000" x="535.000000" y="109.571146" fill="rgb(255, 255, 255)" style="fill-opacity:1.00" />
<!-- End 'C' -->
<!-- Begin 'A' -->
<polygon points=" 570.000000, 102.969483, 591.000000, 35.927387, 599.000000, 35.927387, 620.000000, 102.969483, 612.500000, 102.969483, 606.250000, 86.208959, 583.750000, 86.208959, 577.500000, 102.969483" fill="rgb(178, 34, 34)" style="fill-opacity:1.00" />
<polygon points=" 595.000000, 49.335806, 587.000000, 75.152645, 602.000000, 75.152645" fill="rgb(255, 255, 255)" style="fill-opacity:1.00" />
<!-- End 'A' -->
<!-- Begin 'T' -->
<rect height="0.966339" width="50.000000" x="570.000000" y="102.969483" fill="rgb(0, 100, 0)" style="fill-opacity:1.00" />
<rect height="6.039618" width="10.000000" x="590.000000" y="102.969483" fill="rgb(0, 100, 0)" style="fill-opacity:1.00" />
<!-- End 'T' -->
<!-- Begin 'C' -->
<ellipse cx="595.000000" cy="109.394938" rx="25.000000" ry="0.385837" fill="rgb(0, 0, 128)" style="fill-opacity:1.00" />
<ellipse cx="595.000000" cy="109.394938" rx="16.666667" ry="0.257224" fill="rgb(255, 255, 255)" style="fill-opacity:1.00" />
<rect height="0.385837" width="25.000000" x="595.000000" y="109.202019" fill="rgb(255, 255, 255)" style="fill-opacity:1.00" />
<!-- End 'C' -->
<!-- Begin 'G' -->
<ellipse cx="595.000000" cy="109.890387" rx="25.000000" ry="0.109613" fill="rgb(255, 165, 0)" style="fill-opacity:1.00" />
<ellipse cx="595.000000" cy="109.890387" rx="16.666667" ry="0.073075" fill="rgb(255, 255, 255)" style="fill-opacity:1.00" />
<rect height="0.109613" width="25.000000" x="595.000000" y="109.835581" fill="rgb(255, 255, 255)" style="fill-opacity:1.00" />
<rect height="0.027403" width="25.000000" x="595.000000" y="109.917790" fill="rgb(255, 165, 0)" style="fill-opacity:1.00" />
<rect height="0.082210" width="6.250000" x="613.750000" y="109.917790" fill="rgb(255, 165, 0)" style="fill-opacity:1.00" />
<!-- End 'G' -->
<!-- Begin 'A' -->
<polygon points=" 630.000000, 106.256307, 651.000000, 25.337675, 659.000000, 25.337675, 680.000000, 106.256307, 672.500000, 106.256307, 666.250000, 86.026649, 643.750000, 86.026649, 637.500000, 106.256307" fill="rgb(178, 34, 34)" style="fill-opacity:1.00" />
<polygon points=" 655.000000, 41.521402, 647.000000, 72.888855, 662.000000, 72.888855" fill="rgb(255, 255, 255)" style="fill-opacity:1.00" />
<!-- End 'A' -->
<!-- Begin 'T' -->
<rect height="0.445537" width="50.000000" x="630.000000" y="106.256307" fill="rgb(0, 100, 0)" style="fill-opacity:1.00" />
<rect height="2.784603" width="10.000000" x="650.000000" y="106.256307" fill="rgb(0, 100, 0)" style="fill-opacity:1.00" />
<!-- End 'T' -->
<!-- Begin 'C' -->
<ellipse cx="655.000000" cy="109.401926" rx="25.000000" ry="0.361015" fill="rgb(0, 0, 128)" style="fill-opacity:1.00" />
<ellipse cx="655.000000" cy="109.401926" rx="16.666667" ry="0.240677" fill="rgb(255, 255, 255)" style="fill-opacity:1.00" />
<rect height="0.361015" width="25.000000" x="655.000000" y="109.221418" fill="rgb(255, 255, 255)" style="fill-opacity:1.00" />
<!-- End 'C' -->
<!-- Begin 'G' -->
<ellipse cx="655.000000" cy="109.881471" rx="25.000000" ry="0.118529" fill="rgb(255, 165, 0)" style="fill-opacity:1.00" />
<ellipse cx="655.000000" cy="109.881471" rx="16.666667" ry="0.079020" fill="rgb(255, 255, 255)" style="fill-opacity:1.00" />
<rect height="0.118529" width="25.000000" x="655.000000" y="109.822206" fill="rgb(255, 255, 255)" style="fill-opacity:1.00" />
<rect height="0.029632" width="25.000000" x="655.000000" y="109.911103" fill="rgb(255, 165, 0)" style="fill-opacity:1.00" />
<rect height="0.088897" width="6.250000" x="673.750000" y="109.911103" fill="rgb(255, 165, 0)" style="fill-opacity:1.00" />
<!-- End 'G' -->
<!-- Begin 'A' -->
<polygon points=" 690.000000, 102.259732, 711.000000, 91.807761, 719.000000, 91.807761, 740.000000, 102.259732, 732.500000, 102.259732, 726.250000, 99.646740, 703.750000, 99.646740, 697.500000, 102.259732" fill="rgb(178, 34, 34)" style="fill-opacity:1.00" />
<polygon points=" 715.000000, 93.898155, 707.000000, 97.078944, 722.000000, 97.078944" fill="rgb(255, 255, 255)" style="fill-opacity:1.00" />
<!-- End 'A' -->
<!-- Begin 'T' -->
<rect height="0.562322" width="50.000000" x="690.000000" y="102.259732" fill="rgb(0, 100, 0)" style="fill-opacity:1.00" />
<rect height="3.514515" width="10.000000" x="710.000000" y="102.259732" fill="rgb(0, 100, 0)" style="fill-opacity:1.00" />
<!-- End 'T' -->
<!-- Begin 'C' -->
<ellipse cx="715.000000" cy="106.969868" rx="25.000000" ry="1.195621" fill="rgb(0, 0, 128)" style="fill-opacity:1.00" />
<ellipse cx="715.000000" cy="106.969868" rx="16.666667" ry="0.797080" fill="rgb(255, 255, 255)" style="fill-opacity:1.00" />
<rect height="1.195621" width="25.000000" x="715.000000" y="106.372058" fill="rgb(255, 255, 255)" style="fill-opacity:1.00" />
<!-- End 'C' -->
<!-- Begin 'G' -->
<ellipse cx="715.000000" cy="109.082744" rx="25.000000" ry="0.917256" fill="rgb(255, 165, 0)" style="fill-opacity:1.00" />
<ellipse cx="715.000000" cy="109.082744" rx="16.666667" ry="0.611504" fill="rgb(255, 255, 255)" style="fill-opacity:1.00" />
<rect height="0.917256" width="25.000000" x="715.000000" y="108.624117" fill="rgb(255, 255, 255)" style="fill-opacity:1.00" />
<rect height="0.229314" width="25.000000" x="715.000000" y="109.312058" fill="rgb(255, 165, 0)" style="fill-opacity:1.00" />
<rect height="0.687942" width="6.250000" x="733.750000" y="109.312058" fill="rgb(255, 165, 0)" style="fill-opacity:1.00" />
<!-- End 'G' -->
<text x="400.000000" y="165">
IC = 9.01
</text>

</svg>
