<?xml version="1.0" encoding="UTF-8" standalone="yes"?>
                 <!DOCTYPE svg PUBLIC "-//W3C//DTD SVG 1.0//EN" "http://www.w3.org/TR/2001/REC-SVG-20010904/DTD/svg10.dtd">
                 <svg height="170" width="720" xmlns="http://www.w3.org/2000/svg" xmlns:xlink="http://www.w3.org/1999/xlink">
                 <line x1="85" y1="120" x2="687" y2="120" style="stroke:rgb(99,99,99);stroke-width:2" />
<rect height="7.000000" width="2.000000" x="85.000000" y="120.000000" fill="rgb(0, 0, 0)" style="fill-opacity:1.00" />
<text x="107.000000" y="140">
1
</text>
<rect height="7.000000" width="2.000000" x="145.000000" y="120.000000" fill="rgb(0, 0, 0)" style="fill-opacity:1.00" />
<text x="167.000000" y="140">
2
</text>
<rect height="7.000000" width="2.000000" x="205.000000" y="120.000000" fill="rgb(0, 0, 0)" style="fill-opacity:1.00" />
<text x="227.000000" y="140">
3
</text>
<rect height="7.000000" width="2.000000" x="265.000000" y="120.000000" fill="rgb(0, 0, 0)" style="fill-opacity:1.00" />
<text x="287.000000" y="140">
4
</text>
<rect height="7.000000" width="2.000000" x="325.000000" y="120.000000" fill="rgb(0, 0, 0)" style="fill-opacity:1.00" />
<text x="347.000000" y="140">
5
</text>
<rect height="7.000000" width="2.000000" x="385.000000" y="120.000000" fill="rgb(0, 0, 0)" style="fill-opacity:1.00" />
<text x="407.000000" y="140">
6
</text>
<rect height="7.000000" width="2.000000" x="445.000000" y="120.000000" fill="rgb(0, 0, 0)" style="fill-opacity:1.00" />
<text x="467.000000" y="140">
7
</text>
<rect height="7.000000" width="2.000000" x="505.000000" y="120.000000" fill="rgb(0, 0, 0)" style="fill-opacity:1.00" />
<text x="527.000000" y="140">
8
</text>
<rect height="7.000000" width="2.000000" x="565.000000" y="120.000000" fill="rgb(0, 0, 0)" style="fill-opacity:1.00" />
<text x="587.000000" y="140">
9
</text>
<rect height="7.000000" width="2.000000" x="625.000000" y="120.000000" fill="rgb(0, 0, 0)" style="fill-opacity:1.00" />
<text x="647.000000" y="140">
10
</text>
<rect height="7.000000" width="2.000000" x="685.000000" y="120.000000" fill="rgb(0, 0, 0)" style="fill-opacity:1.00" />
<line x1="80" y1="112" x2="80" y2="10" style="stroke:rgb(99,99,99);stroke-width:2" />
<rect height="2.000000" width="7.000000" x="73.000000" y="110.000000" fill="rgb(0, 0, 0)" style="fill-opacity:1.00" />
<text x="63" y="115">
0
</text>
<rect height="2.000000" width="7.000000" x="73.000000" y="60.000000" fill="rgb(0, 0, 0)" style="fill-opacity:1.00" />
<text x="63" y="65">
1
</text>
<rect height="2.000000" width="7.000000" x="73.000000" y="10.000000" fill="rgb(0, 0, 0)" style="fill-opacity:1.00" />
<text x="63" y="15">
2
</text>
<text x="50" y="65"
transform="rotate(-90, 50, 70)">
bits
</text>
<!-- Begin 'A' -->
<polygon points=" 90.000000, 107.615788, 111.000000, 106.277660, 119.000000, 106.277660, 140.000000, 107.615788, 132.500000, 107.615788, 126.250000, 107.281256, 103.750000, 107.281256, 97.500000, 107.615788" fill="rgb(178, 34, 34)" style="fill-opacity:1.00" />
<!-- End 'A' -->
<!-- Begin 'T' -->
<rect height="0.158726" width="50.000000" x="90.000000" y="107.615788" fill="rgb(0, 100, 0)" style="fill-opacity:1.00" />
<rect height="0.992039" width="10.000000" x="110.000000" y="107.615788" fill="rgb(0, 100, 0)" style="fill-opacity:1.00" />
<!-- End 'T' -->
<!-- Begin 'C' -->
<ellipse cx="115.000000" cy="109.045624" rx="25.000000" ry="0.437797" fill="rgb(0, 0, 128)" style="fill-opacity:1.00" />
<ellipse cx="115.000000" cy="109.045624" rx="16.666667" ry="0.291865" fill="rgb(255, 255, 255)" style="fill-opacity:1.00" />
<rect height="0.437797" width="25.000000" x="115.000000" y="108.826726" fill="rgb(255, 255, 255)" style="fill-opacity:1.00" />
<!-- End 'C' -->
<!-- Begin 'G' -->
<ellipse cx="115.000000" cy="109.741711" rx="25.000000" ry="0.258289" fill="rgb(255, 165, 0)" style="fill-opacity:1.00" />
<ellipse cx="115.000000" cy="109.741711" rx="16.666667" ry="0.172193" fill="rgb(255, 255, 255)" style="fill-opacity:1.00" />
<rect height="0.258289" width="25.000000" x="115.000000" y="109.612566" fill="rgb(255, 255, 255)" style="fill-opacity:1.00" />
<rect height="0.064572" width="25.000000" x="115.000000" y="109.806283" fill="rgb(255, 165, 0)" style="fill-opacity:1.00" />
<rect height="0.193717" width="6.250000" x="133.750000" y="109.806283" fill="rgb(255, 165, 0)" style="fill-opacity:1.00" />
<!-- End 'G' -->
<!-- Begin 'A' -->
<polygon points=" 150.000000, 107.835809, 171.000000, 106.739214, 179.000000, 106.739214, 200.000000, 107.835809, 192.500000, 107.835809, 186.250000, 107.561660, 163.750000, 107.561660, 157.500000, 107.835809" fill="rgb(178, 34, 34)" style="fill-opacity:1.00" />
<!-- End 'A' -->
<!-- Begin 'G' -->
<ellipse cx="175.000000" cy="108.323044" rx="25.000000" ry="0.487235" fill="rgb(255, 165, 0)" style="fill-opacity:1.00" />
<ellipse cx="175.000000" cy="108.323044" rx="16.666667" ry="0.324824" fill="rgb(255, 255, 255)" style="fill-opacity:1.00" />
<rect height="0.487235" width="25.000000" x="175.000000" y="108.079427" fill="rgb(255, 255, 255)" style="fill-opacity:1.00" />
<rect height="0.121809" width="25.000000" x="175.000000" y="108.444853" fill="rgb(255, 165, 0)" style="fill-opacity:1.00" />
<rect height="0.365426" width="6.250000" x="193.750000" y="108.444853" fill="rgb(255, 165, 0)" style="fill-opacity:1.00" />
<!-- End 'G' -->
<!-- Begin 'T' -->
<rect height="0.113911" width="50.000000" x="150.000000" y="108.810280" fill="rgb(0, 100, 0)" style="fill-opacity:1.00" />
<rect height="0.711944" width="10.000000" x="170.000000" y="108.810280" fill="rgb(0, 100, 0)" style="fill-opacity:1.00" />
<!-- End 'T' -->
<!-- Begin 'C' -->
<ellipse cx="175.000000" cy="109.761112" rx="25.000000" ry="0.238888" fill="rgb(0, 0, 128)" style="fill-opacity:1.00" />
<ellipse cx="175.000000" cy="109.761112" rx="16.666667" ry="0.159259" fill="rgb(255, 255, 255)" style="fill-opacity:1.00" />
<rect height="0.238888" width="25.000000" x="175.000000" y="109.641667" fill="rgb(255, 255, 255)" style="fill-opacity:1.00" />
<!-- End 'C' -->
<!-- Begin 'G' -->
<ellipse cx="235.000000" cy="101.781856" rx="25.000000" ry="1.953278" fill="rgb(255, 165, 0)" style="fill-opacity:1.00" />
<ellipse cx="235.000000" cy="101.781856" rx="16.666667" ry="1.302185" fill="rgb(255, 255, 255)" style="fill-opacity:1.00" />
<rect height="1.953278" width="25.000000" x="235.000000" y="100.805217" fill="rgb(255, 255, 255)" style="fill-opacity:1.00" />
<rect height="0.488319" width="25.000000" x="235.000000" y="102.270176" fill="rgb(255, 165, 0)" style="fill-opacity:1.00" />
<rect height="1.464958" width="6.250000" x="253.750000" y="102.270176" fill="rgb(255, 165, 0)" style="fill-opacity:1.00" />
<!-- End 'G' -->
<!-- Begin 'C' -->
<ellipse cx="235.000000" cy="105.507125" rx="25.000000" ry="1.771991" fill="rgb(0, 0, 128)" style="fill-opacity:1.00" />
<ellipse cx="235.000000" cy="105.507125" rx="16.666667" ry="1.181327" fill="rgb(255, 255, 255)" style="fill-opacity:1.00" />
<rect height="1.771991" width="25.000000" x="235.000000" y="104.621129" fill="rgb(255, 255, 255)" style="fill-opacity:1.00" />
<!-- End 'C' -->
<!-- Begin 'A' -->
<polygon points=" 210.000000, 109.248264, 231.000000, 107.279116, 239.000000, 107.279116, 260.000000, 109.248264, 252.500000, 109.248264, 246.250000, 108.755977, 223.750000, 108.755977, 217.500000, 109.248264" fill="rgb(178, 34, 34)" style="fill-opacity:1.00" />
<!-- End 'A' -->
<!-- Begin 'T' -->
<rect height="0.120278" width="50.000000" x="210.000000" y="109.248264" fill="rgb(0, 100, 0)" style="fill-opacity:1.00" />
<rect height="0.751736" width="10.000000" x="230.000000" y="109.248264" fill="rgb(0, 100, 0)" style="fill-opacity:1.00" />
<!-- End 'T' -->
<!-- Begin 'A' -->
<polygon points=" 270.000000, 97.553150, 291.000000, 86.533907, 299.000000, 86.533907, 320.000000, 97.553150, 312.500000, 97.553150, 306.250000, 94.798339, 283.750000, 94.798339, 277.500000, 97.553150" fill="rgb(178, 34, 34)" style="fill-opacity:1.00" />
<polygon points=" 295.000000, 88.737756, 287.000000, 92.145453, 302.000000, 92.145453" fill="rgb(255, 255, 255)" style="fill-opacity:1.00" />
<!-- End 'A' -->
<!-- Begin 'C' -->
<ellipse cx="295.000000" cy="102.247384" rx="25.000000" ry="4.694234" fill="rgb(0, 0, 128)" style="fill-opacity:1.00" />
<ellipse cx="295.000000" cy="102.247384" rx="16.666667" ry="3.129489" fill="rgb(255, 255, 255)" style="fill-opacity:1.00" />
<rect height="4.694234" width="25.000000" x="295.000000" y="99.900267" fill="rgb(255, 255, 255)" style="fill-opacity:1.00" />
<!-- End 'C' -->
<!-- Begin 'G' -->
<ellipse cx="295.000000" cy="108.081498" rx="25.000000" ry="1.139880" fill="rgb(255, 165, 0)" style="fill-opacity:1.00" />
<ellipse cx="295.000000" cy="108.081498" rx="16.666667" ry="0.759920" fill="rgb(255, 255, 255)" style="fill-opacity:1.00" />
<rect height="1.139880" width="25.000000" x="295.000000" y="107.511558" fill="rgb(255, 255, 255)" style="fill-opacity:1.00" />
<rect height="0.284970" width="25.000000" x="295.000000" y="108.366468" fill="rgb(255, 165, 0)" style="fill-opacity:1.00" />
<rect height="0.854910" width="6.250000" x="313.750000" y="108.366468" fill="rgb(255, 165, 0)" style="fill-opacity:1.00" />
<!-- End 'G' -->
<!-- Begin 'T' -->
<rect height="0.124580" width="50.000000" x="270.000000" y="109.221378" fill="rgb(0, 100, 0)" style="fill-opacity:1.00" />
<rect height="0.778622" width="10.000000" x="290.000000" y="109.221378" fill="rgb(0, 100, 0)" style="fill-opacity:1.00" />
<!-- End 'T' -->
<!-- Begin 'G' -->
<ellipse cx="355.000000" cy="86.253088" rx="25.000000" ry="7.917904" fill="rgb(255, 165, 0)" style="fill-opacity:1.00" />
<ellipse cx="355.000000" cy="86.253088" rx="16.666667" ry="5.278603" fill="rgb(255, 255, 255)" style="fill-opacity:1.00" />
<rect height="7.917904" width="25.000000" x="355.000000" y="82.294136" fill="rgb(255, 255, 255)" style="fill-opacity:1.00" />
<rect height="1.979476" width="25.000000" x="355.000000" y="88.232564" fill="rgb(255, 165, 0)" style="fill-opacity:1.00" />
<rect height="5.938428" width="6.250000" x="373.750000" y="88.232564" fill="rgb(255, 165, 0)" style="fill-opacity:1.00" />
<!-- End 'G' -->
<!-- Begin 'A' -->
<polygon points=" 330.000000, 107.740776, 351.000000, 94.170992, 359.000000, 94.170992, 380.000000, 107.740776, 372.500000, 107.740776, 366.250000, 104.348330, 343.750000, 104.348330, 337.500000, 107.740776" fill="rgb(178, 34, 34)" style="fill-opacity:1.00" />
<polygon points=" 355.000000, 96.884949, 347.000000, 101.312862, 362.000000, 101.312862" fill="rgb(255, 255, 255)" style="fill-opacity:1.00" />
<!-- End 'A' -->
<!-- Begin 'C' -->
<ellipse cx="355.000000" cy="108.344838" rx="25.000000" ry="0.604063" fill="rgb(0, 0, 128)" style="fill-opacity:1.00" />
<ellipse cx="355.000000" cy="108.344838" rx="16.666667" ry="0.402708" fill="rgb(255, 255, 255)" style="fill-opacity:1.00" />
<rect height="0.604063" width="25.000000" x="355.000000" y="108.042807" fill="rgb(255, 255, 255)" style="fill-opacity:1.00" />
<!-- End 'C' -->
<!-- Begin 'T' -->
<rect height="0.168176" width="50.000000" x="330.000000" y="108.948901" fill="rgb(0, 100, 0)" style="fill-opacity:1.00" />
<rect height="1.051099" width="10.000000" x="350.000000" y="108.948901" fill="rgb(0, 100, 0)" style="fill-opacity:1.00" />
<!-- End 'T' -->
<!-- Begin 'A' -->
<polygon points=" 390.000000, 96.491436, 411.000000, 59.661150, 419.000000, 59.661150, 440.000000, 96.491436, 432.500000, 96.491436, 426.250000, 87.283865, 403.750000, 87.283865, 397.500000, 96.491436" fill="rgb(178, 34, 34)" style="fill-opacity:1.00" />
<polygon points=" 415.000000, 67.027207, 407.000000, 80.759322, 422.000000, 80.759322" fill="rgb(255, 255, 255)" style="fill-opacity:1.00" />
<!-- End 'A' -->
<!-- Begin 'G' -->
<ellipse cx="415.000000" cy="102.458207" rx="25.000000" ry="5.966771" fill="rgb(255, 165, 0)" style="fill-opacity:1.00" />
<ellipse cx="415.000000" cy="102.458207" rx="16.666667" ry="3.977848" fill="rgb(255, 255, 255)" style="fill-opacity:1.00" />
<rect height="5.966771" width="25.000000" x="415.000000" y="99.474822" fill="rgb(255, 255, 255)" style="fill-opacity:1.00" />
<rect height="1.491693" width="25.000000" x="415.000000" y="103.949900" fill="rgb(255, 165, 0)" style="fill-opacity:1.00" />
<rect height="4.475078" width="6.250000" x="433.750000" y="103.949900" fill="rgb(255, 165, 0)" style="fill-opacity:1.00" />
<!-- End 'G' -->
<!-- Begin 'C' -->
<ellipse cx="415.000000" cy="109.133332" rx="25.000000" ry="0.708353" fill="rgb(0, 0, 128)" style="fill-opacity:1.00" />
<ellipse cx="415.000000" cy="109.133332" rx="16.666667" ry="0.472235" fill="rgb(255, 255, 255)" style="fill-opacity:1.00" />
<rect height="0.708353" width="25.000000" x="415.000000" y="108.779155" fill="rgb(255, 255, 255)" style="fill-opacity:1.00" />
<!-- End 'C' -->
<!-- Begin 'T' -->
<rect height="0.025330" width="50.000000" x="390.000000" y="109.841685" fill="rgb(0, 100, 0)" style="fill-opacity:1.00" />
<rect height="0.158315" width="10.000000" x="410.000000" y="109.841685" fill="rgb(0, 100, 0)" style="fill-opacity:1.00" />
<!-- End 'T' -->
<!-- Begin 'C' -->
<ellipse cx="475.000000" cy="76.770924" rx="25.000000" ry="23.014592" fill="rgb(0, 0, 128)" style="fill-opacity:1.00" />
<ellipse cx="475.000000" cy="76.770924" rx="16.666667" ry="15.343061" fill="rgb(255, 255, 255)" style="fill-opacity:1.00" />
<rect height="23.014592" width="25.000000" x="475.000000" y="65.263628" fill="rgb(255, 255, 255)" style="fill-opacity:1.00" />
<!-- End 'C' -->
<!-- Begin 'A' -->
<polygon points=" 450.000000, 105.953402, 471.000000, 99.785516, 479.000000, 99.785516, 500.000000, 105.953402, 492.500000, 105.953402, 486.250000, 104.411430, 463.750000, 104.411430, 457.500000, 105.953402" fill="rgb(178, 34, 34)" style="fill-opacity:1.00" />
<!-- End 'A' -->
<!-- Begin 'G' -->
<ellipse cx="475.000000" cy="107.906649" rx="25.000000" ry="1.953247" fill="rgb(255, 165, 0)" style="fill-opacity:1.00" />
<ellipse cx="475.000000" cy="107.906649" rx="16.666667" ry="1.302165" fill="rgb(255, 255, 255)" style="fill-opacity:1.00" />
<rect height="1.953247" width="25.000000" x="475.000000" y="106.930026" fill="rgb(255, 255, 255)" style="fill-opacity:1.00" />
<rect height="0.488312" width="25.000000" x="475.000000" y="108.394961" fill="rgb(255, 165, 0)" style="fill-opacity:1.00" />
<rect height="1.464936" width="6.250000" x="493.750000" y="108.394961" fill="rgb(255, 165, 0)" style="fill-opacity:1.00" />
<!-- End 'G' -->
<!-- Begin 'T' -->
<rect height="0.022417" width="50.000000" x="450.000000" y="109.859897" fill="rgb(0, 100, 0)" style="fill-opacity:1.00" />
<rect height="0.140103" width="10.000000" x="470.000000" y="109.859897" fill="rgb(0, 100, 0)" style="fill-opacity:1.00" />
<!-- End 'T' -->
<!-- Begin 'A' -->
<polygon points=" 510.000000, 100.595374, 531.000000, 51.586165, 539.000000, 51.586165, 560.000000, 100.595374, 552.500000, 100.595374, 546.250000, 88.343072, 523.750000, 88.343072, 517.500000, 100.595374" fill="rgb(178, 34, 34)" style="fill-opacity:1.00" />
<polygon points=" 535.000000, 61.388007, 527.000000, 79.991690, 542.000000, 79.991690" fill="rgb(255, 255, 255)" style="fill-opacity:1.00" />
<!-- End 'A' -->
<!-- Begin 'C' -->
<ellipse cx="535.000000" cy="103.342545" rx="25.000000" ry="2.747172" fill="rgb(0, 0, 128)" style="fill-opacity:1.00" />
<ellipse cx="535.000000" cy="103.342545" rx="16.666667" ry="1.831448" fill="rgb(255, 255, 255)" style="fill-opacity:1.00" />
<rect height="2.747172" width="25.000000" x="535.000000" y="101.968960" fill="rgb(255, 255, 255)" style="fill-opacity:1.00" />
<!-- End 'C' -->
<!-- Begin 'G' -->
<ellipse cx="535.000000" cy="107.790457" rx="25.000000" ry="1.700739" fill="rgb(255, 165, 0)" style="fill-opacity:1.00" />
<ellipse cx="535.000000" cy="107.790457" rx="16.666667" ry="1.133826" fill="rgb(255, 255, 255)" style="fill-opacity:1.00" />
<rect height="1.700739" width="25.000000" x="535.000000" y="106.940087" fill="rgb(255, 255, 255)" style="fill-opacity:1.00" />
<rect height="0.425185" width="25.000000" x="535.000000" y="108.215641" fill="rgb(255, 165, 0)" style="fill-opacity:1.00" />
<rect height="1.275555" width="6.250000" x="553.750000" y="108.215641" fill="rgb(255, 165, 0)" style="fill-opacity:1.00" />
<!-- End 'G' -->
<!-- Begin 'T' -->
<rect height="0.081409" width="50.000000" x="510.000000" y="109.491196" fill="rgb(0, 100, 0)" style="fill-opacity:1.00" />
<rect height="0.508804" width="10.000000" x="530.000000" y="109.491196" fill="rgb(0, 100, 0)" style="fill-opacity:1.00" />
<!-- End 'T' -->
<!-- Begin 'A' -->
<polygon points=" 570.000000, 105.760027, 591.000000, 102.549091, 599.000000, 102.549091, 620.000000, 105.760027, 612.500000, 105.760027, 606.250000, 104.957293, 583.750000, 104.957293, 577.500000, 105.760027" fill="rgb(178, 34, 34)" style="fill-opacity:1.00" />
<!-- End 'A' -->
<!-- Begin 'G' -->
<ellipse cx="595.000000" cy="106.697077" rx="25.000000" ry="0.937050" fill="rgb(255, 165, 0)" style="fill-opacity:1.00" />
<ellipse cx="595.000000" cy="106.697077" rx="16.666667" ry="0.624700" fill="rgb(255, 255, 255)" style="fill-opacity:1.00" />
<rect height="0.937050" width="25.000000" x="595.000000" y="106.228552" fill="rgb(255, 255, 255)" style="fill-opacity:1.00" />
<rect height="0.234263" width="25.000000" x="595.000000" y="106.931339" fill="rgb(255, 165, 0)" style="fill-opacity:1.00" />
<rect height="0.702788" width="6.250000" x="613.750000" y="106.931339" fill="rgb(255, 165, 0)" style="fill-opacity:1.00" />
<!-- End 'G' -->
<!-- Begin 'T' -->
<rect height="0.239403" width="50.000000" x="570.000000" y="107.634127" fill="rgb(0, 100, 0)" style="fill-opacity:1.00" />
<rect height="1.496267" width="10.000000" x="590.000000" y="107.634127" fill="rgb(0, 100, 0)" style="fill-opacity:1.00" />
<!-- End 'T' -->
<!-- Begin 'C' -->
<ellipse cx="595.000000" cy="109.565197" rx="25.000000" ry="0.434803" fill="rgb(0, 0, 128)" style="fill-opacity:1.00" />
<ellipse cx="595.000000" cy="109.565197" rx="16.666667" ry="0.289868" fill="rgb(255, 255, 255)" style="fill-opacity:1.00" />
<rect height="0.434803" width="25.000000" x="595.000000" y="109.347796" fill="rgb(255, 255, 255)" style="fill-opacity:1.00" />
<!-- End 'C' -->
<!-- Begin 'A' -->
<polygon points=" 630.000000, 107.816476, 651.000000, 106.415624, 659.000000, 106.415624, 680.000000, 107.816476, 672.500000, 107.816476, 666.250000, 107.466263, 643.750000, 107.466263, 637.500000, 107.816476" fill="rgb(178, 34, 34)" style="fill-opacity:1.00" />
<!-- End 'A' -->
<!-- Begin 'G' -->
<ellipse cx="655.000000" cy="108.214010" rx="25.000000" ry="0.397533" fill="rgb(255, 165, 0)" style="fill-opacity:1.00" />
<ellipse cx="655.000000" cy="108.214010" rx="16.666667" ry="0.265022" fill="rgb(255, 255, 255)" style="fill-opacity:1.00" />
<rect height="0.397533" width="25.000000" x="655.000000" y="108.015243" fill="rgb(255, 255, 255)" style="fill-opacity:1.00" />
<rect height="0.099383" width="25.000000" x="655.000000" y="108.313393" fill="rgb(255, 165, 0)" style="fill-opacity:1.00" />
<rect height="0.298150" width="6.250000" x="673.750000" y="108.313393" fill="rgb(255, 165, 0)" style="fill-opacity:1.00" />
<!-- End 'G' -->
<!-- Begin 'C' -->
<ellipse cx="655.000000" cy="108.975934" rx="25.000000" ry="0.364391" fill="rgb(0, 0, 128)" style="fill-opacity:1.00" />
<ellipse cx="655.000000" cy="108.975934" rx="16.666667" ry="0.242927" fill="rgb(255, 255, 255)" style="fill-opacity:1.00" />
<rect height="0.364391" width="25.000000" x="655.000000" y="108.793738" fill="rgb(255, 255, 255)" style="fill-opacity:1.00" />
<!-- End 'C' -->
<!-- Begin 'T' -->
<rect height="0.105548" width="50.000000" x="630.000000" y="109.340324" fill="rgb(0, 100, 0)" style="fill-opacity:1.00" />
<rect height="0.659676" width="10.000000" x="650.000000" y="109.340324" fill="rgb(0, 100, 0)" style="fill-opacity:1.00" />
<!-- End 'T' -->
<text x="370.000000" y="165">
IC = 4.97
</text>

</svg>
