<?xml version="1.0" encoding="UTF-8" standalone="yes"?>
                 <!DOCTYPE svg PUBLIC "-//W3C//DTD SVG 1.0//EN" "http://www.w3.org/TR/2001/REC-SVG-20010904/DTD/svg10.dtd">
                 <svg height="170" width="780" xmlns="http://www.w3.org/2000/svg" xmlns:xlink="http://www.w3.org/1999/xlink">
                 <line x1="85" y1="120" x2="747" y2="120" style="stroke:rgb(99,99,99);stroke-width:2" />
<rect height="7.000000" width="2.000000" x="85.000000" y="120.000000" fill="rgb(0, 0, 0)" style="fill-opacity:1.00" />
<text x="107.000000" y="140">
1
</text>
<rect height="7.000000" width="2.000000" x="145.000000" y="120.000000" fill="rgb(0, 0, 0)" style="fill-opacity:1.00" />
<text x="167.000000" y="140">
2
</text>
<rect height="7.000000" width="2.000000" x="205.000000" y="120.000000" fill="rgb(0, 0, 0)" style="fill-opacity:1.00" />
<text x="227.000000" y="140">
3
</text>
<rect height="7.000000" width="2.000000" x="265.000000" y="120.000000" fill="rgb(0, 0, 0)" style="fill-opacity:1.00" />
<text x="287.000000" y="140">
4
</text>
<rect height="7.000000" width="2.000000" x="325.000000" y="120.000000" fill="rgb(0, 0, 0)" style="fill-opacity:1.00" />
<text x="347.000000" y="140">
5
</text>
<rect height="7.000000" width="2.000000" x="385.000000" y="120.000000" fill="rgb(0, 0, 0)" style="fill-opacity:1.00" />
<text x="407.000000" y="140">
6
</text>
<rect height="7.000000" width="2.000000" x="445.000000" y="120.000000" fill="rgb(0, 0, 0)" style="fill-opacity:1.00" />
<text x="467.000000" y="140">
7
</text>
<rect height="7.000000" width="2.000000" x="505.000000" y="120.000000" fill="rgb(0, 0, 0)" style="fill-opacity:1.00" />
<text x="527.000000" y="140">
8
</text>
<rect height="7.000000" width="2.000000" x="565.000000" y="120.000000" fill="rgb(0, 0, 0)" style="fill-opacity:1.00" />
<text x="587.000000" y="140">
9
</text>
<rect height="7.000000" width="2.000000" x="625.000000" y="120.000000" fill="rgb(0, 0, 0)" style="fill-opacity:1.00" />
<text x="647.000000" y="140">
10
</text>
<rect height="7.000000" width="2.000000" x="685.000000" y="120.000000" fill="rgb(0, 0, 0)" style="fill-opacity:1.00" />
<text x="707.000000" y="140">
11
</text>
<rect height="7.000000" width="2.000000" x="745.000000" y="120.000000" fill="rgb(0, 0, 0)" style="fill-opacity:1.00" />
<line x1="80" y1="112" x2="80" y2="10" style="stroke:rgb(99,99,99);stroke-width:2" />
<rect height="2.000000" width="7.000000" x="73.000000" y="110.000000" fill="rgb(0, 0, 0)" style="fill-opacity:1.00" />
<text x="63" y="115">
0
</text>
<rect height="2.000000" width="7.000000" x="73.000000" y="60.000000" fill="rgb(0, 0, 0)" style="fill-opacity:1.00" />
<text x="63" y="65">
1
</text>
<rect height="2.000000" width="7.000000" x="73.000000" y="10.000000" fill="rgb(0, 0, 0)" style="fill-opacity:1.00" />
<text x="63" y="15">
2
</text>
<text x="50" y="65"
transform="rotate(-90, 50, 70)">
bits
</text>
<!-- Begin 'A' -->
<polygon points=" 90.000000, 107.390359, 111.000000, 105.832097, 119.000000, 105.832097, 140.000000, 107.390359, 132.500000, 107.390359, 126.250000, 107.000793, 103.750000, 107.000793, 97.500000, 107.390359" fill="rgb(178, 34, 34)" style="fill-opacity:1.00" />
<!-- End 'A' -->
<!-- Begin 'G' -->
<ellipse cx="115.000000" cy="107.948991" rx="25.000000" ry="0.558632" fill="rgb(255, 165, 0)" style="fill-opacity:1.00" />
<ellipse cx="115.000000" cy="107.948991" rx="16.666667" ry="0.372421" fill="rgb(255, 255, 255)" style="fill-opacity:1.00" />
<rect height="0.558632" width="25.000000" x="115.000000" y="107.669675" fill="rgb(255, 255, 255)" style="fill-opacity:1.00" />
<rect height="0.139658" width="25.000000" x="115.000000" y="108.088649" fill="rgb(255, 165, 0)" style="fill-opacity:1.00" />
<rect height="0.418974" width="6.250000" x="133.750000" y="108.088649" fill="rgb(255, 165, 0)" style="fill-opacity:1.00" />
<!-- End 'G' -->
<!-- Begin 'T' -->
<rect height="0.144795" width="50.000000" x="90.000000" y="108.507623" fill="rgb(0, 100, 0)" style="fill-opacity:1.00" />
<rect height="0.904968" width="10.000000" x="110.000000" y="108.507623" fill="rgb(0, 100, 0)" style="fill-opacity:1.00" />
<!-- End 'T' -->
<!-- Begin 'C' -->
<ellipse cx="115.000000" cy="109.706295" rx="25.000000" ry="0.293705" fill="rgb(0, 0, 128)" style="fill-opacity:1.00" />
<ellipse cx="115.000000" cy="109.706295" rx="16.666667" ry="0.195803" fill="rgb(255, 255, 255)" style="fill-opacity:1.00" />
<rect height="0.293705" width="25.000000" x="115.000000" y="109.559443" fill="rgb(255, 255, 255)" style="fill-opacity:1.00" />
<!-- End 'C' -->
<!-- Begin 'T' -->
<rect height="0.754784" width="50.000000" x="150.000000" y="100.187829" fill="rgb(0, 100, 0)" style="fill-opacity:1.00" />
<rect height="4.717402" width="10.000000" x="170.000000" y="100.187829" fill="rgb(0, 100, 0)" style="fill-opacity:1.00" />
<!-- End 'T' -->
<!-- Begin 'C' -->
<ellipse cx="175.000000" cy="105.974044" rx="25.000000" ry="1.068814" fill="rgb(0, 0, 128)" style="fill-opacity:1.00" />
<ellipse cx="175.000000" cy="105.974044" rx="16.666667" ry="0.712543" fill="rgb(255, 255, 255)" style="fill-opacity:1.00" />
<rect height="1.068814" width="25.000000" x="175.000000" y="105.439637" fill="rgb(255, 255, 255)" style="fill-opacity:1.00" />
<!-- End 'C' -->
<!-- Begin 'G' -->
<ellipse cx="175.000000" cy="107.905160" rx="25.000000" ry="0.862302" fill="rgb(255, 165, 0)" style="fill-opacity:1.00" />
<ellipse cx="175.000000" cy="107.905160" rx="16.666667" ry="0.574868" fill="rgb(255, 255, 255)" style="fill-opacity:1.00" />
<rect height="0.862302" width="25.000000" x="175.000000" y="107.474009" fill="rgb(255, 255, 255)" style="fill-opacity:1.00" />
<rect height="0.215575" width="25.000000" x="175.000000" y="108.120735" fill="rgb(255, 165, 0)" style="fill-opacity:1.00" />
<rect height="0.646726" width="6.250000" x="193.750000" y="108.120735" fill="rgb(255, 165, 0)" style="fill-opacity:1.00" />
<!-- End 'G' -->
<!-- Begin 'A' -->
<polygon points=" 150.000000, 110.000000, 171.000000, 108.767461, 179.000000, 108.767461, 200.000000, 110.000000, 192.500000, 110.000000, 186.250000, 109.691865, 163.750000, 109.691865, 157.500000, 110.000000" fill="rgb(178, 34, 34)" style="fill-opacity:1.00" />
<!-- End 'A' -->
<!-- Begin 'T' -->
<rect height="15.974634" width="50.000000" x="210.000000" y="10.140395" fill="rgb(0, 100, 0)" style="fill-opacity:1.00" />
<rect height="99.841461" width="10.000000" x="230.000000" y="10.140395" fill="rgb(0, 100, 0)" style="fill-opacity:1.00" />
<!-- End 'T' -->
<!-- Begin 'G' -->
<ellipse cx="235.000000" cy="109.984880" rx="25.000000" ry="0.003024" fill="rgb(255, 165, 0)" style="fill-opacity:1.00" />
<ellipse cx="235.000000" cy="109.984880" rx="16.666667" ry="0.002016" fill="rgb(255, 255, 255)" style="fill-opacity:1.00" />
<rect height="0.003024" width="25.000000" x="235.000000" y="109.983368" fill="rgb(255, 255, 255)" style="fill-opacity:1.00" />
<rect height="0.000756" width="25.000000" x="235.000000" y="109.985636" fill="rgb(255, 165, 0)" style="fill-opacity:1.00" />
<rect height="0.002268" width="6.250000" x="253.750000" y="109.985636" fill="rgb(255, 165, 0)" style="fill-opacity:1.00" />
<!-- End 'G' -->
<!-- Begin 'C' -->
<ellipse cx="235.000000" cy="109.990928" rx="25.000000" ry="0.003024" fill="rgb(0, 0, 128)" style="fill-opacity:1.00" />
<ellipse cx="235.000000" cy="109.990928" rx="16.666667" ry="0.002016" fill="rgb(255, 255, 255)" style="fill-opacity:1.00" />
<rect height="0.003024" width="25.000000" x="235.000000" y="109.989416" fill="rgb(255, 255, 255)" style="fill-opacity:1.00" />
<!-- End 'C' -->
<!-- Begin 'A' -->
<polygon points=" 210.000000, 110.000000, 231.000000, 109.993952, 239.000000, 109.993952, 260.000000, 110.000000, 252.500000, 110.000000, 246.250000, 109.998488, 223.750000, 109.998488, 217.500000, 110.000000" fill="rgb(178, 34, 34)" style="fill-opacity:1.00" />
<!-- End 'A' -->
<!-- Begin 'T' -->
<rect height="11.115536" width="50.000000" x="270.000000" y="33.057830" fill="rgb(0, 100, 0)" style="fill-opacity:1.00" />
<rect height="69.472102" width="10.000000" x="290.000000" y="33.057830" fill="rgb(0, 100, 0)" style="fill-opacity:1.00" />
<!-- End 'T' -->
<!-- Begin 'C' -->
<ellipse cx="295.000000" cy="106.260306" rx="25.000000" ry="3.730374" fill="rgb(0, 0, 128)" style="fill-opacity:1.00" />
<ellipse cx="295.000000" cy="106.260306" rx="16.666667" ry="2.486916" fill="rgb(255, 255, 255)" style="fill-opacity:1.00" />
<rect height="3.730374" width="25.000000" x="295.000000" y="104.395119" fill="rgb(255, 255, 255)" style="fill-opacity:1.00" />
<!-- End 'C' -->
<!-- Begin 'G' -->
<ellipse cx="295.000000" cy="109.993010" rx="25.000000" ry="0.002330" fill="rgb(255, 165, 0)" style="fill-opacity:1.00" />
<ellipse cx="295.000000" cy="109.993010" rx="16.666667" ry="0.001553" fill="rgb(255, 255, 255)" style="fill-opacity:1.00" />
<rect height="0.002330" width="25.000000" x="295.000000" y="109.991845" fill="rgb(255, 255, 255)" style="fill-opacity:1.00" />
<rect height="0.000583" width="25.000000" x="295.000000" y="109.993592" fill="rgb(255, 165, 0)" style="fill-opacity:1.00" />
<rect height="0.001748" width="6.250000" x="313.750000" y="109.993592" fill="rgb(255, 165, 0)" style="fill-opacity:1.00" />
<!-- End 'G' -->
<!-- Begin 'A' -->
<polygon points=" 270.000000, 110.000000, 291.000000, 109.995340, 299.000000, 109.995340, 320.000000, 110.000000, 312.500000, 110.000000, 306.250000, 109.998835, 283.750000, 109.998835, 277.500000, 110.000000" fill="rgb(178, 34, 34)" style="fill-opacity:1.00" />
<!-- End 'A' -->
<!-- Begin 'C' -->
<ellipse cx="355.000000" cy="61.595097" rx="25.000000" ry="47.424037" fill="rgb(0, 0, 128)" style="fill-opacity:1.00" />
<ellipse cx="355.000000" cy="61.595097" rx="16.666667" ry="31.616024" fill="rgb(255, 255, 255)" style="fill-opacity:1.00" />
<rect height="47.424037" width="25.000000" x="355.000000" y="37.883078" fill="rgb(255, 255, 255)" style="fill-opacity:1.00" />
<!-- End 'C' -->
<!-- Begin 'T' -->
<rect height="0.155081" width="50.000000" x="330.000000" y="109.019133" fill="rgb(0, 100, 0)" style="fill-opacity:1.00" />
<rect height="0.969259" width="10.000000" x="350.000000" y="109.019133" fill="rgb(0, 100, 0)" style="fill-opacity:1.00" />
<!-- End 'T' -->
<!-- Begin 'G' -->
<ellipse cx="355.000000" cy="109.991294" rx="25.000000" ry="0.002902" fill="rgb(255, 165, 0)" style="fill-opacity:1.00" />
<ellipse cx="355.000000" cy="109.991294" rx="16.666667" ry="0.001935" fill="rgb(255, 255, 255)" style="fill-opacity:1.00" />
<rect height="0.002902" width="25.000000" x="355.000000" y="109.989843" fill="rgb(255, 255, 255)" style="fill-opacity:1.00" />
<rect height="0.000725" width="25.000000" x="355.000000" y="109.992020" fill="rgb(255, 165, 0)" style="fill-opacity:1.00" />
<rect height="0.002176" width="6.250000" x="373.750000" y="109.992020" fill="rgb(255, 165, 0)" style="fill-opacity:1.00" />
<!-- End 'G' -->
<!-- Begin 'A' -->
<polygon points=" 330.000000, 110.000000, 351.000000, 109.994196, 359.000000, 109.994196, 380.000000, 110.000000, 372.500000, 110.000000, 366.250000, 109.998549, 343.750000, 109.998549, 337.500000, 110.000000" fill="rgb(178, 34, 34)" style="fill-opacity:1.00" />
<!-- End 'A' -->
<!-- Begin 'C' -->
<ellipse cx="415.000000" cy="74.879760" rx="25.000000" ry="22.218857" fill="rgb(0, 0, 128)" style="fill-opacity:1.00" />
<ellipse cx="415.000000" cy="74.879760" rx="16.666667" ry="14.812571" fill="rgb(255, 255, 255)" style="fill-opacity:1.00" />
<rect height="22.218857" width="25.000000" x="415.000000" y="63.770331" fill="rgb(255, 255, 255)" style="fill-opacity:1.00" />
<!-- End 'C' -->
<!-- Begin 'T' -->
<rect height="1.916975" width="50.000000" x="390.000000" y="97.098616" fill="rgb(0, 100, 0)" style="fill-opacity:1.00" />
<rect height="11.981097" width="10.000000" x="410.000000" y="97.098616" fill="rgb(0, 100, 0)" style="fill-opacity:1.00" />
<!-- End 'T' -->
<!-- Begin 'A' -->
<polygon points=" 390.000000, 109.996527, 411.000000, 109.079713, 419.000000, 109.079713, 440.000000, 109.996527, 432.500000, 109.996527, 426.250000, 109.767324, 403.750000, 109.767324, 397.500000, 109.996527" fill="rgb(178, 34, 34)" style="fill-opacity:1.00" />
<!-- End 'A' -->
<!-- Begin 'G' -->
<ellipse cx="415.000000" cy="109.998264" rx="25.000000" ry="0.001736" fill="rgb(255, 165, 0)" style="fill-opacity:1.00" />
<ellipse cx="415.000000" cy="109.998264" rx="16.666667" ry="0.001158" fill="rgb(255, 255, 255)" style="fill-opacity:1.00" />
<rect height="0.001736" width="25.000000" x="415.000000" y="109.997395" fill="rgb(255, 255, 255)" style="fill-opacity:1.00" />
<rect height="0.000434" width="25.000000" x="415.000000" y="109.998698" fill="rgb(255, 165, 0)" style="fill-opacity:1.00" />
<rect height="0.001302" width="6.250000" x="433.750000" y="109.998698" fill="rgb(255, 165, 0)" style="fill-opacity:1.00" />
<!-- End 'G' -->
<!-- Begin 'A' -->
<polygon points=" 450.000000, 96.284799, 471.000000, 86.077364, 479.000000, 86.077364, 500.000000, 96.284799, 492.500000, 96.284799, 486.250000, 93.732940, 463.750000, 93.732940, 457.500000, 96.284799" fill="rgb(178, 34, 34)" style="fill-opacity:1.00" />
<polygon points=" 475.000000, 88.118851, 467.000000, 91.201825, 482.000000, 91.201825" fill="rgb(255, 255, 255)" style="fill-opacity:1.00" />
<!-- End 'A' -->
<!-- Begin 'C' -->
<ellipse cx="475.000000" cy="100.731445" rx="25.000000" ry="4.446646" fill="rgb(0, 0, 128)" style="fill-opacity:1.00" />
<ellipse cx="475.000000" cy="100.731445" rx="16.666667" ry="2.964431" fill="rgb(255, 255, 255)" style="fill-opacity:1.00" />
<rect height="4.446646" width="25.000000" x="475.000000" y="98.508122" fill="rgb(255, 255, 255)" style="fill-opacity:1.00" />
<!-- End 'C' -->
<!-- Begin 'T' -->
<rect height="0.771274" width="50.000000" x="450.000000" y="105.178091" fill="rgb(0, 100, 0)" style="fill-opacity:1.00" />
<rect height="4.820460" width="10.000000" x="470.000000" y="105.178091" fill="rgb(0, 100, 0)" style="fill-opacity:1.00" />
<!-- End 'T' -->
<!-- Begin 'G' -->
<ellipse cx="475.000000" cy="109.999276" rx="25.000000" ry="0.000724" fill="rgb(255, 165, 0)" style="fill-opacity:1.00" />
<ellipse cx="475.000000" cy="109.999276" rx="16.666667" ry="0.000483" fill="rgb(255, 255, 255)" style="fill-opacity:1.00" />
<rect height="0.000724" width="25.000000" x="475.000000" y="109.998913" fill="rgb(255, 255, 255)" style="fill-opacity:1.00" />
<rect height="0.000181" width="25.000000" x="475.000000" y="109.999457" fill="rgb(255, 165, 0)" style="fill-opacity:1.00" />
<rect height="0.000543" width="6.250000" x="493.750000" y="109.999457" fill="rgb(255, 165, 0)" style="fill-opacity:1.00" />
<!-- End 'G' -->
<!-- Begin 'A' -->
<polygon points=" 510.000000, 96.135736, 531.000000, 63.913254, 539.000000, 63.913254, 560.000000, 96.135736, 552.500000, 96.135736, 546.250000, 88.080115, 523.750000, 88.080115, 517.500000, 96.135736" fill="rgb(178, 34, 34)" style="fill-opacity:1.00" />
<polygon points=" 535.000000, 70.357750, 527.000000, 82.246743, 542.000000, 82.246743" fill="rgb(255, 255, 255)" style="fill-opacity:1.00" />
<!-- End 'A' -->
<!-- Begin 'G' -->
<ellipse cx="535.000000" cy="101.915071" rx="25.000000" ry="5.779336" fill="rgb(255, 165, 0)" style="fill-opacity:1.00" />
<ellipse cx="535.000000" cy="101.915071" rx="16.666667" ry="3.852890" fill="rgb(255, 255, 255)" style="fill-opacity:1.00" />
<rect height="5.779336" width="25.000000" x="535.000000" y="99.025403" fill="rgb(255, 255, 255)" style="fill-opacity:1.00" />
<rect height="1.444834" width="25.000000" x="535.000000" y="103.359905" fill="rgb(255, 165, 0)" style="fill-opacity:1.00" />
<rect height="4.334502" width="6.250000" x="553.750000" y="103.359905" fill="rgb(255, 165, 0)" style="fill-opacity:1.00" />
<!-- End 'G' -->
<!-- Begin 'T' -->
<rect height="0.368448" width="50.000000" x="510.000000" y="107.694407" fill="rgb(0, 100, 0)" style="fill-opacity:1.00" />
<rect height="2.302802" width="10.000000" x="530.000000" y="107.694407" fill="rgb(0, 100, 0)" style="fill-opacity:1.00" />
<!-- End 'T' -->
<!-- Begin 'C' -->
<ellipse cx="535.000000" cy="109.998604" rx="25.000000" ry="0.001396" fill="rgb(0, 0, 128)" style="fill-opacity:1.00" />
<ellipse cx="535.000000" cy="109.998604" rx="16.666667" ry="0.000930" fill="rgb(255, 255, 255)" style="fill-opacity:1.00" />
<rect height="0.001396" width="25.000000" x="535.000000" y="109.997907" fill="rgb(255, 255, 255)" style="fill-opacity:1.00" />
<!-- End 'C' -->
<!-- Begin 'G' -->
<ellipse cx="595.000000" cy="60.061125" rx="25.000000" ry="49.920731" fill="rgb(255, 165, 0)" style="fill-opacity:1.00" />
<ellipse cx="595.000000" cy="60.061125" rx="16.666667" ry="33.280487" fill="rgb(255, 255, 255)" style="fill-opacity:1.00" />
<rect height="49.920731" width="25.000000" x="595.000000" y="35.100760" fill="rgb(255, 255, 255)" style="fill-opacity:1.00" />
<rect height="12.480183" width="25.000000" x="595.000000" y="72.541308" fill="rgb(255, 165, 0)" style="fill-opacity:1.00" />
<rect height="37.440548" width="6.250000" x="613.750000" y="72.541308" fill="rgb(255, 165, 0)" style="fill-opacity:1.00" />
<!-- End 'G' -->
<!-- Begin 'T' -->
<rect height="0.000968" width="50.000000" x="570.000000" y="109.981856" fill="rgb(0, 100, 0)" style="fill-opacity:1.00" />
<rect height="0.006048" width="10.000000" x="590.000000" y="109.981856" fill="rgb(0, 100, 0)" style="fill-opacity:1.00" />
<!-- End 'T' -->
<!-- Begin 'C' -->
<ellipse cx="595.000000" cy="109.990928" rx="25.000000" ry="0.003024" fill="rgb(0, 0, 128)" style="fill-opacity:1.00" />
<ellipse cx="595.000000" cy="109.990928" rx="16.666667" ry="0.002016" fill="rgb(255, 255, 255)" style="fill-opacity:1.00" />
<rect height="0.003024" width="25.000000" x="595.000000" y="109.989416" fill="rgb(255, 255, 255)" style="fill-opacity:1.00" />
<!-- End 'C' -->
<!-- Begin 'A' -->
<polygon points=" 570.000000, 110.000000, 591.000000, 109.993952, 599.000000, 109.993952, 620.000000, 110.000000, 612.500000, 110.000000, 606.250000, 109.998488, 583.750000, 109.998488, 577.500000, 110.000000" fill="rgb(178, 34, 34)" style="fill-opacity:1.00" />
<!-- End 'A' -->
<!-- Begin 'A' -->
<polygon points=" 630.000000, 102.609961, 651.000000, 34.773777, 659.000000, 34.773777, 680.000000, 102.609961, 672.500000, 102.609961, 666.250000, 85.650915, 643.750000, 85.650915, 637.500000, 102.609961" fill="rgb(178, 34, 34)" style="fill-opacity:1.00" />
<polygon points=" 655.000000, 48.341013, 647.000000, 74.475487, 662.000000, 74.475487" fill="rgb(255, 255, 255)" style="fill-opacity:1.00" />
<!-- End 'A' -->
<!-- Begin 'T' -->
<rect height="1.113153" width="50.000000" x="630.000000" y="102.609961" fill="rgb(0, 100, 0)" style="fill-opacity:1.00" />
<rect height="6.957207" width="10.000000" x="650.000000" y="102.609961" fill="rgb(0, 100, 0)" style="fill-opacity:1.00" />
<!-- End 'T' -->
<!-- Begin 'C' -->
<ellipse cx="655.000000" cy="109.781306" rx="25.000000" ry="0.214138" fill="rgb(0, 0, 128)" style="fill-opacity:1.00" />
<ellipse cx="655.000000" cy="109.781306" rx="16.666667" ry="0.142759" fill="rgb(255, 255, 255)" style="fill-opacity:1.00" />
<rect height="0.214138" width="25.000000" x="655.000000" y="109.674237" fill="rgb(255, 255, 255)" style="fill-opacity:1.00" />
<!-- End 'C' -->
<!-- Begin 'G' -->
<ellipse cx="655.000000" cy="109.997722" rx="25.000000" ry="0.002278" fill="rgb(255, 165, 0)" style="fill-opacity:1.00" />
<ellipse cx="655.000000" cy="109.997722" rx="16.666667" ry="0.001519" fill="rgb(255, 255, 255)" style="fill-opacity:1.00" />
<rect height="0.002278" width="25.000000" x="655.000000" y="109.996583" fill="rgb(255, 255, 255)" style="fill-opacity:1.00" />
<rect height="0.000570" width="25.000000" x="655.000000" y="109.998291" fill="rgb(255, 165, 0)" style="fill-opacity:1.00" />
<rect height="0.001709" width="6.250000" x="673.750000" y="109.998291" fill="rgb(255, 165, 0)" style="fill-opacity:1.00" />
<!-- End 'G' -->
<!-- Begin 'A' -->
<polygon points=" 690.000000, 102.452140, 711.000000, 33.261878, 719.000000, 33.261878, 740.000000, 102.452140, 732.500000, 102.452140, 726.250000, 85.154575, 703.750000, 85.154575, 697.500000, 102.452140" fill="rgb(178, 34, 34)" style="fill-opacity:1.00" />
<polygon points=" 715.000000, 47.099930, 707.000000, 73.776035, 722.000000, 73.776035" fill="rgb(255, 255, 255)" style="fill-opacity:1.00" />
<!-- End 'A' -->
<!-- Begin 'G' -->
<ellipse cx="715.000000" cy="106.221422" rx="25.000000" ry="3.769282" fill="rgb(255, 165, 0)" style="fill-opacity:1.00" />
<ellipse cx="715.000000" cy="106.221422" rx="16.666667" ry="2.512855" fill="rgb(255, 255, 255)" style="fill-opacity:1.00" />
<rect height="3.769282" width="25.000000" x="715.000000" y="104.336781" fill="rgb(255, 255, 255)" style="fill-opacity:1.00" />
<rect height="0.942321" width="25.000000" x="715.000000" y="107.163743" fill="rgb(255, 165, 0)" style="fill-opacity:1.00" />
<rect height="2.826962" width="6.250000" x="733.750000" y="107.163743" fill="rgb(255, 165, 0)" style="fill-opacity:1.00" />
<!-- End 'G' -->
<!-- Begin 'T' -->
<rect height="0.000744" width="50.000000" x="690.000000" y="109.990705" fill="rgb(0, 100, 0)" style="fill-opacity:1.00" />
<rect height="0.004648" width="10.000000" x="710.000000" y="109.990705" fill="rgb(0, 100, 0)" style="fill-opacity:1.00" />
<!-- End 'T' -->
<!-- Begin 'C' -->
<ellipse cx="715.000000" cy="109.997676" rx="25.000000" ry="0.002324" fill="rgb(0, 0, 128)" style="fill-opacity:1.00" />
<ellipse cx="715.000000" cy="109.997676" rx="16.666667" ry="0.001549" fill="rgb(255, 255, 255)" style="fill-opacity:1.00" />
<rect height="0.002324" width="25.000000" x="715.000000" y="109.996514" fill="rgb(255, 255, 255)" style="fill-opacity:1.00" />
<!-- End 'C' -->
<text x="400.000000" y="165">
IC = 13.32
</text>

</svg>
