<?xml version="1.0" encoding="UTF-8" standalone="yes"?>
                 <!DOCTYPE svg PUBLIC "-//W3C//DTD SVG 1.0//EN" "http://www.w3.org/TR/2001/REC-SVG-20010904/DTD/svg10.dtd">
                 <svg height="170" width="1020" xmlns="http://www.w3.org/2000/svg" xmlns:xlink="http://www.w3.org/1999/xlink">
                 <line x1="85" y1="120" x2="987" y2="120" style="stroke:rgb(99,99,99);stroke-width:2" />
<rect height="7.000000" width="2.000000" x="85.000000" y="120.000000" fill="rgb(0, 0, 0)" style="fill-opacity:1.00" />
<text x="107.000000" y="140">
1
</text>
<rect height="7.000000" width="2.000000" x="145.000000" y="120.000000" fill="rgb(0, 0, 0)" style="fill-opacity:1.00" />
<text x="167.000000" y="140">
2
</text>
<rect height="7.000000" width="2.000000" x="205.000000" y="120.000000" fill="rgb(0, 0, 0)" style="fill-opacity:1.00" />
<text x="227.000000" y="140">
3
</text>
<rect height="7.000000" width="2.000000" x="265.000000" y="120.000000" fill="rgb(0, 0, 0)" style="fill-opacity:1.00" />
<text x="287.000000" y="140">
4
</text>
<rect height="7.000000" width="2.000000" x="325.000000" y="120.000000" fill="rgb(0, 0, 0)" style="fill-opacity:1.00" />
<text x="347.000000" y="140">
5
</text>
<rect height="7.000000" width="2.000000" x="385.000000" y="120.000000" fill="rgb(0, 0, 0)" style="fill-opacity:1.00" />
<text x="407.000000" y="140">
6
</text>
<rect height="7.000000" width="2.000000" x="445.000000" y="120.000000" fill="rgb(0, 0, 0)" style="fill-opacity:1.00" />
<text x="467.000000" y="140">
7
</text>
<rect height="7.000000" width="2.000000" x="505.000000" y="120.000000" fill="rgb(0, 0, 0)" style="fill-opacity:1.00" />
<text x="527.000000" y="140">
8
</text>
<rect height="7.000000" width="2.000000" x="565.000000" y="120.000000" fill="rgb(0, 0, 0)" style="fill-opacity:1.00" />
<text x="587.000000" y="140">
9
</text>
<rect height="7.000000" width="2.000000" x="625.000000" y="120.000000" fill="rgb(0, 0, 0)" style="fill-opacity:1.00" />
<text x="647.000000" y="140">
10
</text>
<rect height="7.000000" width="2.000000" x="685.000000" y="120.000000" fill="rgb(0, 0, 0)" style="fill-opacity:1.00" />
<text x="707.000000" y="140">
11
</text>
<rect height="7.000000" width="2.000000" x="745.000000" y="120.000000" fill="rgb(0, 0, 0)" style="fill-opacity:1.00" />
<text x="767.000000" y="140">
12
</text>
<rect height="7.000000" width="2.000000" x="805.000000" y="120.000000" fill="rgb(0, 0, 0)" style="fill-opacity:1.00" />
<text x="827.000000" y="140">
13
</text>
<rect height="7.000000" width="2.000000" x="865.000000" y="120.000000" fill="rgb(0, 0, 0)" style="fill-opacity:1.00" />
<text x="887.000000" y="140">
14
</text>
<rect height="7.000000" width="2.000000" x="925.000000" y="120.000000" fill="rgb(0, 0, 0)" style="fill-opacity:1.00" />
<text x="947.000000" y="140">
15
</text>
<rect height="7.000000" width="2.000000" x="985.000000" y="120.000000" fill="rgb(0, 0, 0)" style="fill-opacity:1.00" />
<line x1="80" y1="112" x2="80" y2="10" style="stroke:rgb(99,99,99);stroke-width:2" />
<rect height="2.000000" width="7.000000" x="73.000000" y="110.000000" fill="rgb(0, 0, 0)" style="fill-opacity:1.00" />
<text x="63" y="115">
0
</text>
<rect height="2.000000" width="7.000000" x="73.000000" y="60.000000" fill="rgb(0, 0, 0)" style="fill-opacity:1.00" />
<text x="63" y="65">
1
</text>
<rect height="2.000000" width="7.000000" x="73.000000" y="10.000000" fill="rgb(0, 0, 0)" style="fill-opacity:1.00" />
<text x="63" y="15">
2
</text>
<text x="50" y="65"
transform="rotate(-90, 50, 70)">
bits
</text>
<!-- Begin 'A' -->
<polygon points=" 90.000000, 107.272913, 111.000000, 105.610670, 119.000000, 105.610670, 140.000000, 107.272913, 132.500000, 107.272913, 126.250000, 106.857353, 103.750000, 106.857353, 97.500000, 107.272913" fill="rgb(178, 34, 34)" style="fill-opacity:1.00" />
<!-- End 'A' -->
<!-- Begin 'T' -->
<rect height="0.188596" width="50.000000" x="90.000000" y="107.272913" fill="rgb(0, 100, 0)" style="fill-opacity:1.00" />
<rect height="1.178726" width="10.000000" x="110.000000" y="107.272913" fill="rgb(0, 100, 0)" style="fill-opacity:1.00" />
<!-- End 'T' -->
<!-- Begin 'G' -->
<ellipse cx="115.000000" cy="108.917833" rx="25.000000" ry="0.466194" fill="rgb(255, 165, 0)" style="fill-opacity:1.00" />
<ellipse cx="115.000000" cy="108.917833" rx="16.666667" ry="0.310796" fill="rgb(255, 255, 255)" style="fill-opacity:1.00" />
<rect height="0.466194" width="25.000000" x="115.000000" y="108.684736" fill="rgb(255, 255, 255)" style="fill-opacity:1.00" />
<rect height="0.116548" width="25.000000" x="115.000000" y="109.034381" fill="rgb(255, 165, 0)" style="fill-opacity:1.00" />
<rect height="0.349645" width="6.250000" x="133.750000" y="109.034381" fill="rgb(255, 165, 0)" style="fill-opacity:1.00" />
<!-- End 'G' -->
<!-- Begin 'C' -->
<ellipse cx="115.000000" cy="109.692013" rx="25.000000" ry="0.307987" fill="rgb(0, 0, 128)" style="fill-opacity:1.00" />
<ellipse cx="115.000000" cy="109.692013" rx="16.666667" ry="0.205325" fill="rgb(255, 255, 255)" style="fill-opacity:1.00" />
<rect height="0.307987" width="25.000000" x="115.000000" y="109.538020" fill="rgb(255, 255, 255)" style="fill-opacity:1.00" />
<!-- End 'C' -->
<!-- Begin 'G' -->
<ellipse cx="175.000000" cy="101.014822" rx="25.000000" ry="2.428857" fill="rgb(255, 165, 0)" style="fill-opacity:1.00" />
<ellipse cx="175.000000" cy="101.014822" rx="16.666667" ry="1.619238" fill="rgb(255, 255, 255)" style="fill-opacity:1.00" />
<rect height="2.428857" width="25.000000" x="175.000000" y="99.800394" fill="rgb(255, 255, 255)" style="fill-opacity:1.00" />
<rect height="0.607214" width="25.000000" x="175.000000" y="101.622037" fill="rgb(255, 165, 0)" style="fill-opacity:1.00" />
<rect height="1.821643" width="6.250000" x="193.750000" y="101.622037" fill="rgb(255, 165, 0)" style="fill-opacity:1.00" />
<!-- End 'G' -->
<!-- Begin 'A' -->
<polygon points=" 150.000000, 107.373979, 171.000000, 103.443680, 179.000000, 103.443680, 200.000000, 107.373979, 192.500000, 107.373979, 186.250000, 106.391404, 163.750000, 106.391404, 157.500000, 107.373979" fill="rgb(178, 34, 34)" style="fill-opacity:1.00" />
<!-- End 'A' -->
<!-- Begin 'T' -->
<rect height="0.217664" width="50.000000" x="150.000000" y="107.373979" fill="rgb(0, 100, 0)" style="fill-opacity:1.00" />
<rect height="1.360398" width="10.000000" x="170.000000" y="107.373979" fill="rgb(0, 100, 0)" style="fill-opacity:1.00" />
<!-- End 'T' -->
<!-- Begin 'C' -->
<ellipse cx="175.000000" cy="109.367188" rx="25.000000" ry="0.632812" fill="rgb(0, 0, 128)" style="fill-opacity:1.00" />
<ellipse cx="175.000000" cy="109.367188" rx="16.666667" ry="0.421874" fill="rgb(255, 255, 255)" style="fill-opacity:1.00" />
<rect height="0.632812" width="25.000000" x="175.000000" y="109.050783" fill="rgb(255, 255, 255)" style="fill-opacity:1.00" />
<!-- End 'C' -->
<!-- Begin 'A' -->
<polygon points=" 210.000000, 102.375928, 231.000000, 91.965146, 239.000000, 91.965146, 260.000000, 102.375928, 252.500000, 102.375928, 246.250000, 99.773232, 223.750000, 99.773232, 217.500000, 102.375928" fill="rgb(178, 34, 34)" style="fill-opacity:1.00" />
<polygon points=" 235.000000, 94.047302, 227.000000, 97.211615, 242.000000, 97.211615" fill="rgb(255, 255, 255)" style="fill-opacity:1.00" />
<!-- End 'A' -->
<!-- Begin 'G' -->
<ellipse cx="235.000000" cy="104.001838" rx="25.000000" ry="1.625910" fill="rgb(255, 165, 0)" style="fill-opacity:1.00" />
<ellipse cx="235.000000" cy="104.001838" rx="16.666667" ry="1.083940" fill="rgb(255, 255, 255)" style="fill-opacity:1.00" />
<rect height="1.625910" width="25.000000" x="235.000000" y="103.188883" fill="rgb(255, 255, 255)" style="fill-opacity:1.00" />
<rect height="0.406478" width="25.000000" x="235.000000" y="104.408316" fill="rgb(255, 165, 0)" style="fill-opacity:1.00" />
<rect height="1.219433" width="6.250000" x="253.750000" y="104.408316" fill="rgb(255, 165, 0)" style="fill-opacity:1.00" />
<!-- End 'G' -->
<!-- Begin 'T' -->
<rect height="0.386867" width="50.000000" x="210.000000" y="105.627748" fill="rgb(0, 100, 0)" style="fill-opacity:1.00" />
<rect height="2.417921" width="10.000000" x="230.000000" y="105.627748" fill="rgb(0, 100, 0)" style="fill-opacity:1.00" />
<!-- End 'T' -->
<!-- Begin 'C' -->
<ellipse cx="235.000000" cy="109.022835" rx="25.000000" ry="0.977165" fill="rgb(0, 0, 128)" style="fill-opacity:1.00" />
<ellipse cx="235.000000" cy="109.022835" rx="16.666667" ry="0.651443" fill="rgb(255, 255, 255)" style="fill-opacity:1.00" />
<rect height="0.977165" width="25.000000" x="235.000000" y="108.534252" fill="rgb(255, 255, 255)" style="fill-opacity:1.00" />
<!-- End 'C' -->
<!-- Begin 'A' -->
<polygon points=" 270.000000, 101.214933, 291.000000, 85.688685, 299.000000, 85.688685, 320.000000, 101.214933, 312.500000, 101.214933, 306.250000, 97.333371, 283.750000, 97.333371, 277.500000, 101.214933" fill="rgb(178, 34, 34)" style="fill-opacity:1.00" />
<polygon points=" 295.000000, 88.793934, 287.000000, 94.004434, 302.000000, 94.004434" fill="rgb(255, 255, 255)" style="fill-opacity:1.00" />
<!-- End 'A' -->
<!-- Begin 'G' -->
<ellipse cx="295.000000" cy="102.843237" rx="25.000000" ry="1.628304" fill="rgb(255, 165, 0)" style="fill-opacity:1.00" />
<ellipse cx="295.000000" cy="102.843237" rx="16.666667" ry="1.085536" fill="rgb(255, 255, 255)" style="fill-opacity:1.00" />
<rect height="1.628304" width="25.000000" x="295.000000" y="102.029085" fill="rgb(255, 255, 255)" style="fill-opacity:1.00" />
<rect height="0.407076" width="25.000000" x="295.000000" y="103.250313" fill="rgb(255, 165, 0)" style="fill-opacity:1.00" />
<rect height="1.221228" width="6.250000" x="313.750000" y="103.250313" fill="rgb(255, 165, 0)" style="fill-opacity:1.00" />
<!-- End 'G' -->
<!-- Begin 'C' -->
<ellipse cx="295.000000" cy="105.969726" rx="25.000000" ry="1.498185" fill="rgb(0, 0, 128)" style="fill-opacity:1.00" />
<ellipse cx="295.000000" cy="105.969726" rx="16.666667" ry="0.998790" fill="rgb(255, 255, 255)" style="fill-opacity:1.00" />
<rect height="1.498185" width="25.000000" x="295.000000" y="105.220633" fill="rgb(255, 255, 255)" style="fill-opacity:1.00" />
<!-- End 'C' -->
<!-- Begin 'T' -->
<rect height="0.405134" width="50.000000" x="270.000000" y="107.467911" fill="rgb(0, 100, 0)" style="fill-opacity:1.00" />
<rect height="2.532089" width="10.000000" x="290.000000" y="107.467911" fill="rgb(0, 100, 0)" style="fill-opacity:1.00" />
<!-- End 'T' -->
<!-- Begin 'A' -->
<polygon points=" 330.000000, 99.437632, 351.000000, 47.470240, 359.000000, 47.470240, 380.000000, 99.437632, 372.500000, 99.437632, 366.250000, 86.445784, 343.750000, 86.445784, 337.500000, 99.437632" fill="rgb(178, 34, 34)" style="fill-opacity:1.00" />
<polygon points=" 355.000000, 57.863718, 347.000000, 77.650675, 362.000000, 77.650675" fill="rgb(255, 255, 255)" style="fill-opacity:1.00" />
<!-- End 'A' -->
<!-- Begin 'G' -->
<ellipse cx="355.000000" cy="104.106758" rx="25.000000" ry="4.669126" fill="rgb(255, 165, 0)" style="fill-opacity:1.00" />
<ellipse cx="355.000000" cy="104.106758" rx="16.666667" ry="3.112751" fill="rgb(255, 255, 255)" style="fill-opacity:1.00" />
<rect height="4.669126" width="25.000000" x="355.000000" y="101.772195" fill="rgb(255, 255, 255)" style="fill-opacity:1.00" />
<rect height="1.167282" width="25.000000" x="355.000000" y="105.274039" fill="rgb(255, 165, 0)" style="fill-opacity:1.00" />
<rect height="3.501845" width="6.250000" x="373.750000" y="105.274039" fill="rgb(255, 165, 0)" style="fill-opacity:1.00" />
<!-- End 'G' -->
<!-- Begin 'T' -->
<rect height="0.183168" width="50.000000" x="330.000000" y="108.775884" fill="rgb(0, 100, 0)" style="fill-opacity:1.00" />
<rect height="1.144798" width="10.000000" x="350.000000" y="108.775884" fill="rgb(0, 100, 0)" style="fill-opacity:1.00" />
<!-- End 'T' -->
<!-- Begin 'C' -->
<ellipse cx="355.000000" cy="109.960341" rx="25.000000" ry="0.039659" fill="rgb(0, 0, 128)" style="fill-opacity:1.00" />
<ellipse cx="355.000000" cy="109.960341" rx="16.666667" ry="0.026440" fill="rgb(255, 255, 255)" style="fill-opacity:1.00" />
<rect height="0.039659" width="25.000000" x="355.000000" y="109.940511" fill="rgb(255, 255, 255)" style="fill-opacity:1.00" />
<!-- End 'C' -->
<!-- Begin 'G' -->
<ellipse cx="415.000000" cy="81.465436" rx="25.000000" ry="17.679445" fill="rgb(255, 165, 0)" style="fill-opacity:1.00" />
<ellipse cx="415.000000" cy="81.465436" rx="16.666667" ry="11.786297" fill="rgb(255, 255, 255)" style="fill-opacity:1.00" />
<rect height="17.679445" width="25.000000" x="415.000000" y="72.625713" fill="rgb(255, 255, 255)" style="fill-opacity:1.00" />
<rect height="4.419861" width="25.000000" x="415.000000" y="85.885297" fill="rgb(255, 165, 0)" style="fill-opacity:1.00" />
<rect height="13.259584" width="6.250000" x="433.750000" y="85.885297" fill="rgb(255, 165, 0)" style="fill-opacity:1.00" />
<!-- End 'G' -->
<!-- Begin 'A' -->
<polygon points=" 390.000000, 106.144084, 411.000000, 99.144881, 419.000000, 99.144881, 440.000000, 106.144084, 432.500000, 106.144084, 426.250000, 104.394283, 403.750000, 104.394283, 397.500000, 106.144084" fill="rgb(178, 34, 34)" style="fill-opacity:1.00" />
<!-- End 'A' -->
<!-- Begin 'T' -->
<rect height="0.457378" width="50.000000" x="390.000000" y="106.144084" fill="rgb(0, 100, 0)" style="fill-opacity:1.00" />
<rect height="2.858615" width="10.000000" x="410.000000" y="106.144084" fill="rgb(0, 100, 0)" style="fill-opacity:1.00" />
<!-- End 'T' -->
<!-- Begin 'C' -->
<ellipse cx="415.000000" cy="109.501350" rx="25.000000" ry="0.498650" fill="rgb(0, 0, 128)" style="fill-opacity:1.00" />
<ellipse cx="415.000000" cy="109.501350" rx="16.666667" ry="0.332434" fill="rgb(255, 255, 255)" style="fill-opacity:1.00" />
<rect height="0.498650" width="25.000000" x="415.000000" y="109.252024" fill="rgb(255, 255, 255)" style="fill-opacity:1.00" />
<!-- End 'C' -->
<!-- Begin 'T' -->
<rect height="1.382407" width="50.000000" x="450.000000" y="92.838811" fill="rgb(0, 100, 0)" style="fill-opacity:1.00" />
<rect height="8.640041" width="10.000000" x="470.000000" y="92.838811" fill="rgb(0, 100, 0)" style="fill-opacity:1.00" />
<!-- End 'T' -->
<!-- Begin 'A' -->
<polygon points=" 450.000000, 105.556961, 471.000000, 101.478852, 479.000000, 101.478852, 500.000000, 105.556961, 492.500000, 105.556961, 486.250000, 104.537434, 463.750000, 104.537434, 457.500000, 105.556961" fill="rgb(178, 34, 34)" style="fill-opacity:1.00" />
<!-- End 'A' -->
<!-- Begin 'G' -->
<ellipse cx="475.000000" cy="107.434703" rx="25.000000" ry="1.877742" fill="rgb(255, 165, 0)" style="fill-opacity:1.00" />
<ellipse cx="475.000000" cy="107.434703" rx="16.666667" ry="1.251828" fill="rgb(255, 255, 255)" style="fill-opacity:1.00" />
<rect height="1.877742" width="25.000000" x="475.000000" y="106.495832" fill="rgb(255, 255, 255)" style="fill-opacity:1.00" />
<rect height="0.469435" width="25.000000" x="475.000000" y="107.904138" fill="rgb(255, 165, 0)" style="fill-opacity:1.00" />
<rect height="1.408306" width="6.250000" x="493.750000" y="107.904138" fill="rgb(255, 165, 0)" style="fill-opacity:1.00" />
<!-- End 'G' -->
<!-- Begin 'C' -->
<ellipse cx="475.000000" cy="109.656222" rx="25.000000" ry="0.343778" fill="rgb(0, 0, 128)" style="fill-opacity:1.00" />
<ellipse cx="475.000000" cy="109.656222" rx="16.666667" ry="0.229185" fill="rgb(255, 255, 255)" style="fill-opacity:1.00" />
<rect height="0.343778" width="25.000000" x="475.000000" y="109.484333" fill="rgb(255, 255, 255)" style="fill-opacity:1.00" />
<!-- End 'C' -->
<!-- Begin 'G' -->
<ellipse cx="535.000000" cy="68.516236" rx="25.000000" ry="33.954765" fill="rgb(255, 165, 0)" style="fill-opacity:1.00" />
<ellipse cx="535.000000" cy="68.516236" rx="16.666667" ry="22.636510" fill="rgb(255, 255, 255)" style="fill-opacity:1.00" />
<rect height="33.954765" width="25.000000" x="535.000000" y="51.538853" fill="rgb(255, 255, 255)" style="fill-opacity:1.00" />
<rect height="8.488691" width="25.000000" x="535.000000" y="77.004927" fill="rgb(255, 165, 0)" style="fill-opacity:1.00" />
<rect height="25.466074" width="6.250000" x="553.750000" y="77.004927" fill="rgb(255, 165, 0)" style="fill-opacity:1.00" />
<!-- End 'G' -->
<!-- Begin 'A' -->
<polygon points=" 510.000000, 109.768289, 531.000000, 102.471001, 539.000000, 102.471001, 560.000000, 109.768289, 552.500000, 109.768289, 546.250000, 107.943967, 523.750000, 107.943967, 517.500000, 109.768289" fill="rgb(178, 34, 34)" style="fill-opacity:1.00" />
<!-- End 'A' -->
<!-- Begin 'C' -->
<ellipse cx="535.000000" cy="109.827424" rx="25.000000" ry="0.059135" fill="rgb(0, 0, 128)" style="fill-opacity:1.00" />
<ellipse cx="535.000000" cy="109.827424" rx="16.666667" ry="0.039424" fill="rgb(255, 255, 255)" style="fill-opacity:1.00" />
<rect height="0.059135" width="25.000000" x="535.000000" y="109.797857" fill="rgb(255, 255, 255)" style="fill-opacity:1.00" />
<!-- End 'C' -->
<!-- Begin 'T' -->
<rect height="0.018150" width="50.000000" x="510.000000" y="109.886560" fill="rgb(0, 100, 0)" style="fill-opacity:1.00" />
<rect height="0.113440" width="10.000000" x="530.000000" y="109.886560" fill="rgb(0, 100, 0)" style="fill-opacity:1.00" />
<!-- End 'T' -->
<!-- Begin 'A' -->
<polygon points=" 570.000000, 108.517672, 591.000000, 17.027568, 599.000000, 17.027568, 620.000000, 108.517672, 612.500000, 108.517672, 606.250000, 85.645146, 583.750000, 85.645146, 577.500000, 108.517672" fill="rgb(178, 34, 34)" style="fill-opacity:1.00" />
<polygon points=" 595.000000, 35.325589, 587.000000, 70.921630, 602.000000, 70.921630" fill="rgb(255, 255, 255)" style="fill-opacity:1.00" />
<!-- End 'A' -->
<!-- Begin 'T' -->
<rect height="0.114612" width="50.000000" x="570.000000" y="108.517672" fill="rgb(0, 100, 0)" style="fill-opacity:1.00" />
<rect height="0.716326" width="10.000000" x="590.000000" y="108.517672" fill="rgb(0, 100, 0)" style="fill-opacity:1.00" />
<!-- End 'T' -->
<!-- Begin 'C' -->
<ellipse cx="595.000000" cy="109.523536" rx="25.000000" ry="0.289538" fill="rgb(0, 0, 128)" style="fill-opacity:1.00" />
<ellipse cx="595.000000" cy="109.523536" rx="16.666667" ry="0.193026" fill="rgb(255, 255, 255)" style="fill-opacity:1.00" />
<rect height="0.289538" width="25.000000" x="595.000000" y="109.378767" fill="rgb(255, 255, 255)" style="fill-opacity:1.00" />
<!-- End 'C' -->
<!-- Begin 'G' -->
<ellipse cx="595.000000" cy="109.906537" rx="25.000000" ry="0.093463" fill="rgb(255, 165, 0)" style="fill-opacity:1.00" />
<ellipse cx="595.000000" cy="109.906537" rx="16.666667" ry="0.062308" fill="rgb(255, 255, 255)" style="fill-opacity:1.00" />
<rect height="0.093463" width="25.000000" x="595.000000" y="109.859806" fill="rgb(255, 255, 255)" style="fill-opacity:1.00" />
<rect height="0.023366" width="25.000000" x="595.000000" y="109.929903" fill="rgb(255, 165, 0)" style="fill-opacity:1.00" />
<rect height="0.070097" width="6.250000" x="613.750000" y="109.929903" fill="rgb(255, 165, 0)" style="fill-opacity:1.00" />
<!-- End 'G' -->
<!-- Begin 'A' -->
<polygon points=" 630.000000, 102.472342, 651.000000, 37.021680, 659.000000, 37.021680, 680.000000, 102.472342, 672.500000, 102.472342, 666.250000, 86.109677, 643.750000, 86.109677, 637.500000, 102.472342" fill="rgb(178, 34, 34)" style="fill-opacity:1.00" />
<polygon points=" 655.000000, 50.111812, 647.000000, 75.292077, 662.000000, 75.292077" fill="rgb(255, 255, 255)" style="fill-opacity:1.00" />
<!-- End 'A' -->
<!-- Begin 'G' -->
<ellipse cx="655.000000" cy="105.832463" rx="25.000000" ry="3.360121" fill="rgb(255, 165, 0)" style="fill-opacity:1.00" />
<ellipse cx="655.000000" cy="105.832463" rx="16.666667" ry="2.240081" fill="rgb(255, 255, 255)" style="fill-opacity:1.00" />
<rect height="3.360121" width="25.000000" x="655.000000" y="104.152403" fill="rgb(255, 255, 255)" style="fill-opacity:1.00" />
<rect height="0.840030" width="25.000000" x="655.000000" y="106.672494" fill="rgb(255, 165, 0)" style="fill-opacity:1.00" />
<rect height="2.520091" width="6.250000" x="673.750000" y="106.672494" fill="rgb(255, 165, 0)" style="fill-opacity:1.00" />
<!-- End 'G' -->
<!-- Begin 'T' -->
<rect height="0.075709" width="50.000000" x="630.000000" y="109.192584" fill="rgb(0, 100, 0)" style="fill-opacity:1.00" />
<rect height="0.473180" width="10.000000" x="650.000000" y="109.192584" fill="rgb(0, 100, 0)" style="fill-opacity:1.00" />
<!-- End 'T' -->
<!-- Begin 'C' -->
<ellipse cx="655.000000" cy="109.832882" rx="25.000000" ry="0.167118" fill="rgb(0, 0, 128)" style="fill-opacity:1.00" />
<ellipse cx="655.000000" cy="109.832882" rx="16.666667" ry="0.111412" fill="rgb(255, 255, 255)" style="fill-opacity:1.00" />
<rect height="0.167118" width="25.000000" x="655.000000" y="109.749323" fill="rgb(255, 255, 255)" style="fill-opacity:1.00" />
<!-- End 'C' -->
<!-- Begin 'A' -->
<polygon points=" 690.000000, 104.502544, 711.000000, 31.626963, 719.000000, 31.626963, 740.000000, 104.502544, 732.500000, 104.502544, 726.250000, 86.283649, 703.750000, 86.283649, 697.500000, 104.502544" fill="rgb(178, 34, 34)" style="fill-opacity:1.00" />
<polygon points=" 715.000000, 46.202079, 707.000000, 74.352312, 722.000000, 74.352312" fill="rgb(255, 255, 255)" style="fill-opacity:1.00" />
<!-- End 'A' -->
<!-- Begin 'T' -->
<rect height="0.582704" width="50.000000" x="690.000000" y="104.502544" fill="rgb(0, 100, 0)" style="fill-opacity:1.00" />
<rect height="3.641899" width="10.000000" x="710.000000" y="104.502544" fill="rgb(0, 100, 0)" style="fill-opacity:1.00" />
<!-- End 'T' -->
<!-- Begin 'G' -->
<ellipse cx="715.000000" cy="109.066016" rx="25.000000" ry="0.921573" fill="rgb(255, 165, 0)" style="fill-opacity:1.00" />
<ellipse cx="715.000000" cy="109.066016" rx="16.666667" ry="0.614382" fill="rgb(255, 255, 255)" style="fill-opacity:1.00" />
<rect height="0.921573" width="25.000000" x="715.000000" y="108.605230" fill="rgb(255, 255, 255)" style="fill-opacity:1.00" />
<rect height="0.230393" width="25.000000" x="715.000000" y="109.296409" fill="rgb(255, 165, 0)" style="fill-opacity:1.00" />
<rect height="0.691179" width="6.250000" x="733.750000" y="109.296409" fill="rgb(255, 165, 0)" style="fill-opacity:1.00" />
<!-- End 'G' -->
<!-- Begin 'C' -->
<ellipse cx="715.000000" cy="109.993794" rx="25.000000" ry="0.006206" fill="rgb(0, 0, 128)" style="fill-opacity:1.00" />
<ellipse cx="715.000000" cy="109.993794" rx="16.666667" ry="0.004137" fill="rgb(255, 255, 255)" style="fill-opacity:1.00" />
<rect height="0.006206" width="25.000000" x="715.000000" y="109.990691" fill="rgb(255, 255, 255)" style="fill-opacity:1.00" />
<!-- End 'C' -->
<!-- Begin 'G' -->
<ellipse cx="775.000000" cy="80.941273" rx="25.000000" ry="19.376929" fill="rgb(255, 165, 0)" style="fill-opacity:1.00" />
<ellipse cx="775.000000" cy="80.941273" rx="16.666667" ry="12.917953" fill="rgb(255, 255, 255)" style="fill-opacity:1.00" />
<rect height="19.376929" width="25.000000" x="775.000000" y="71.252808" fill="rgb(255, 255, 255)" style="fill-opacity:1.00" />
<rect height="4.844232" width="25.000000" x="775.000000" y="85.785505" fill="rgb(255, 165, 0)" style="fill-opacity:1.00" />
<rect height="14.532697" width="6.250000" x="793.750000" y="85.785505" fill="rgb(255, 165, 0)" style="fill-opacity:1.00" />
<!-- End 'G' -->
<!-- Begin 'T' -->
<rect height="0.636199" width="50.000000" x="750.000000" y="100.318202" fill="rgb(0, 100, 0)" style="fill-opacity:1.00" />
<rect height="3.976246" width="10.000000" x="770.000000" y="100.318202" fill="rgb(0, 100, 0)" style="fill-opacity:1.00" />
<!-- End 'T' -->
<!-- Begin 'A' -->
<polygon points=" 750.000000, 107.722774, 771.000000, 104.294447, 779.000000, 104.294447, 800.000000, 107.722774, 792.500000, 107.722774, 786.250000, 106.865692, 763.750000, 106.865692, 757.500000, 107.722774" fill="rgb(178, 34, 34)" style="fill-opacity:1.00" />
<!-- End 'A' -->
<!-- Begin 'C' -->
<ellipse cx="775.000000" cy="108.861387" rx="25.000000" ry="1.138613" fill="rgb(0, 0, 128)" style="fill-opacity:1.00" />
<ellipse cx="775.000000" cy="108.861387" rx="16.666667" ry="0.759075" fill="rgb(255, 255, 255)" style="fill-opacity:1.00" />
<rect height="1.138613" width="25.000000" x="775.000000" y="108.292080" fill="rgb(255, 255, 255)" style="fill-opacity:1.00" />
<!-- End 'C' -->
<!-- Begin 'T' -->
<rect height="3.450231" width="50.000000" x="810.000000" y="78.590951" fill="rgb(0, 100, 0)" style="fill-opacity:1.00" />
<rect height="21.563944" width="10.000000" x="830.000000" y="78.590951" fill="rgb(0, 100, 0)" style="fill-opacity:1.00" />
<!-- End 'T' -->
<!-- Begin 'C' -->
<ellipse cx="835.000000" cy="102.344244" rx="25.000000" ry="2.189350" fill="rgb(0, 0, 128)" style="fill-opacity:1.00" />
<ellipse cx="835.000000" cy="102.344244" rx="16.666667" ry="1.459567" fill="rgb(255, 255, 255)" style="fill-opacity:1.00" />
<rect height="2.189350" width="25.000000" x="835.000000" y="101.249569" fill="rgb(255, 255, 255)" style="fill-opacity:1.00" />
<!-- End 'C' -->
<!-- Begin 'G' -->
<ellipse cx="835.000000" cy="106.283618" rx="25.000000" ry="1.750024" fill="rgb(255, 165, 0)" style="fill-opacity:1.00" />
<ellipse cx="835.000000" cy="106.283618" rx="16.666667" ry="1.166683" fill="rgb(255, 255, 255)" style="fill-opacity:1.00" />
<rect height="1.750024" width="25.000000" x="835.000000" y="105.408606" fill="rgb(255, 255, 255)" style="fill-opacity:1.00" />
<rect height="0.437506" width="25.000000" x="835.000000" y="106.721124" fill="rgb(255, 165, 0)" style="fill-opacity:1.00" />
<rect height="1.312518" width="6.250000" x="853.750000" y="106.721124" fill="rgb(255, 165, 0)" style="fill-opacity:1.00" />
<!-- End 'G' -->
<!-- Begin 'A' -->
<polygon points=" 810.000000, 110.000000, 831.000000, 108.033643, 839.000000, 108.033643, 860.000000, 110.000000, 852.500000, 110.000000, 846.250000, 109.508411, 823.750000, 109.508411, 817.500000, 110.000000" fill="rgb(178, 34, 34)" style="fill-opacity:1.00" />
<!-- End 'A' -->
<!-- Begin 'G' -->
<ellipse cx="895.000000" cy="104.064906" rx="25.000000" ry="1.580320" fill="rgb(255, 165, 0)" style="fill-opacity:1.00" />
<ellipse cx="895.000000" cy="104.064906" rx="16.666667" ry="1.053546" fill="rgb(255, 255, 255)" style="fill-opacity:1.00" />
<rect height="1.580320" width="25.000000" x="895.000000" y="103.274747" fill="rgb(255, 255, 255)" style="fill-opacity:1.00" />
<rect height="0.395080" width="25.000000" x="895.000000" y="104.459986" fill="rgb(255, 165, 0)" style="fill-opacity:1.00" />
<rect height="1.185240" width="6.250000" x="913.750000" y="104.459986" fill="rgb(255, 165, 0)" style="fill-opacity:1.00" />
<!-- End 'G' -->
<!-- Begin 'A' -->
<polygon points=" 870.000000, 107.680074, 891.000000, 105.645226, 899.000000, 105.645226, 920.000000, 107.680074, 912.500000, 107.680074, 906.250000, 107.171362, 883.750000, 107.171362, 877.500000, 107.680074" fill="rgb(178, 34, 34)" style="fill-opacity:1.00" />
<!-- End 'A' -->
<!-- Begin 'T' -->
<rect height="0.238520" width="50.000000" x="870.000000" y="107.680074" fill="rgb(0, 100, 0)" style="fill-opacity:1.00" />
<rect height="1.490747" width="10.000000" x="890.000000" y="107.680074" fill="rgb(0, 100, 0)" style="fill-opacity:1.00" />
<!-- End 'T' -->
<!-- Begin 'C' -->
<ellipse cx="895.000000" cy="109.585411" rx="25.000000" ry="0.414589" fill="rgb(0, 0, 128)" style="fill-opacity:1.00" />
<ellipse cx="895.000000" cy="109.585411" rx="16.666667" ry="0.276393" fill="rgb(255, 255, 255)" style="fill-opacity:1.00" />
<rect height="0.414589" width="25.000000" x="895.000000" y="109.378116" fill="rgb(255, 255, 255)" style="fill-opacity:1.00" />
<!-- End 'C' -->
<!-- Begin 'A' -->
<polygon points=" 930.000000, 106.485336, 951.000000, 103.711539, 959.000000, 103.711539, 980.000000, 106.485336, 972.500000, 106.485336, 966.250000, 105.791887, 943.750000, 105.791887, 937.500000, 106.485336" fill="rgb(178, 34, 34)" style="fill-opacity:1.00" />
<!-- End 'A' -->
<!-- Begin 'G' -->
<ellipse cx="955.000000" cy="107.109860" rx="25.000000" ry="0.624524" fill="rgb(255, 165, 0)" style="fill-opacity:1.00" />
<ellipse cx="955.000000" cy="107.109860" rx="16.666667" ry="0.416349" fill="rgb(255, 255, 255)" style="fill-opacity:1.00" />
<rect height="0.624524" width="25.000000" x="955.000000" y="106.797598" fill="rgb(255, 255, 255)" style="fill-opacity:1.00" />
<rect height="0.156131" width="25.000000" x="955.000000" y="107.265991" fill="rgb(255, 165, 0)" style="fill-opacity:1.00" />
<rect height="0.468393" width="6.250000" x="973.750000" y="107.265991" fill="rgb(255, 165, 0)" style="fill-opacity:1.00" />
<!-- End 'G' -->
<!-- Begin 'T' -->
<rect height="0.190703" width="50.000000" x="930.000000" y="107.734384" fill="rgb(0, 100, 0)" style="fill-opacity:1.00" />
<rect height="1.191892" width="10.000000" x="950.000000" y="107.734384" fill="rgb(0, 100, 0)" style="fill-opacity:1.00" />
<!-- End 'T' -->
<!-- Begin 'C' -->
<ellipse cx="955.000000" cy="109.463138" rx="25.000000" ry="0.536862" fill="rgb(0, 0, 128)" style="fill-opacity:1.00" />
<ellipse cx="955.000000" cy="109.463138" rx="16.666667" ry="0.357908" fill="rgb(255, 255, 255)" style="fill-opacity:1.00" />
<rect height="0.536862" width="25.000000" x="955.000000" y="109.194707" fill="rgb(255, 255, 255)" style="fill-opacity:1.00" />
<!-- End 'C' -->
<text x="520.000000" y="165">
IC = 11.95
</text>

</svg>
