<?xml version="1.0" encoding="UTF-8" standalone="yes"?>
                 <!DOCTYPE svg PUBLIC "-//W3C//DTD SVG 1.0//EN" "http://www.w3.org/TR/2001/REC-SVG-20010904/DTD/svg10.dtd">
                 <svg height="170" width="780" xmlns="http://www.w3.org/2000/svg" xmlns:xlink="http://www.w3.org/1999/xlink">
                 <line x1="85" y1="120" x2="747" y2="120" style="stroke:rgb(99,99,99);stroke-width:2" />
<rect height="7.000000" width="2.000000" x="85.000000" y="120.000000" fill="rgb(0, 0, 0)" style="fill-opacity:1.00" />
<text x="107.000000" y="140">
1
</text>
<rect height="7.000000" width="2.000000" x="145.000000" y="120.000000" fill="rgb(0, 0, 0)" style="fill-opacity:1.00" />
<text x="167.000000" y="140">
2
</text>
<rect height="7.000000" width="2.000000" x="205.000000" y="120.000000" fill="rgb(0, 0, 0)" style="fill-opacity:1.00" />
<text x="227.000000" y="140">
3
</text>
<rect height="7.000000" width="2.000000" x="265.000000" y="120.000000" fill="rgb(0, 0, 0)" style="fill-opacity:1.00" />
<text x="287.000000" y="140">
4
</text>
<rect height="7.000000" width="2.000000" x="325.000000" y="120.000000" fill="rgb(0, 0, 0)" style="fill-opacity:1.00" />
<text x="347.000000" y="140">
5
</text>
<rect height="7.000000" width="2.000000" x="385.000000" y="120.000000" fill="rgb(0, 0, 0)" style="fill-opacity:1.00" />
<text x="407.000000" y="140">
6
</text>
<rect height="7.000000" width="2.000000" x="445.000000" y="120.000000" fill="rgb(0, 0, 0)" style="fill-opacity:1.00" />
<text x="467.000000" y="140">
7
</text>
<rect height="7.000000" width="2.000000" x="505.000000" y="120.000000" fill="rgb(0, 0, 0)" style="fill-opacity:1.00" />
<text x="527.000000" y="140">
8
</text>
<rect height="7.000000" width="2.000000" x="565.000000" y="120.000000" fill="rgb(0, 0, 0)" style="fill-opacity:1.00" />
<text x="587.000000" y="140">
9
</text>
<rect height="7.000000" width="2.000000" x="625.000000" y="120.000000" fill="rgb(0, 0, 0)" style="fill-opacity:1.00" />
<text x="647.000000" y="140">
10
</text>
<rect height="7.000000" width="2.000000" x="685.000000" y="120.000000" fill="rgb(0, 0, 0)" style="fill-opacity:1.00" />
<text x="707.000000" y="140">
11
</text>
<rect height="7.000000" width="2.000000" x="745.000000" y="120.000000" fill="rgb(0, 0, 0)" style="fill-opacity:1.00" />
<line x1="80" y1="112" x2="80" y2="10" style="stroke:rgb(99,99,99);stroke-width:2" />
<rect height="2.000000" width="7.000000" x="73.000000" y="110.000000" fill="rgb(0, 0, 0)" style="fill-opacity:1.00" />
<text x="63" y="115">
0
</text>
<rect height="2.000000" width="7.000000" x="73.000000" y="60.000000" fill="rgb(0, 0, 0)" style="fill-opacity:1.00" />
<text x="63" y="65">
1
</text>
<rect height="2.000000" width="7.000000" x="73.000000" y="10.000000" fill="rgb(0, 0, 0)" style="fill-opacity:1.00" />
<text x="63" y="15">
2
</text>
<text x="50" y="65"
transform="rotate(-90, 50, 70)">
bits
</text>
<!-- Begin 'T' -->
<rect height="0.071107" width="50.000000" x="90.000000" y="108.634945" fill="rgb(0, 100, 0)" style="fill-opacity:1.00" />
<rect height="0.444416" width="10.000000" x="110.000000" y="108.634945" fill="rgb(0, 100, 0)" style="fill-opacity:1.00" />
<!-- End 'T' -->
<!-- Begin 'C' -->
<ellipse cx="115.000000" cy="109.254929" rx="25.000000" ry="0.175568" fill="rgb(0, 0, 128)" style="fill-opacity:1.00" />
<ellipse cx="115.000000" cy="109.254929" rx="16.666667" ry="0.117045" fill="rgb(255, 255, 255)" style="fill-opacity:1.00" />
<rect height="0.175568" width="25.000000" x="115.000000" y="109.167145" fill="rgb(255, 255, 255)" style="fill-opacity:1.00" />
<!-- End 'C' -->
<!-- Begin 'G' -->
<ellipse cx="115.000000" cy="109.583364" rx="25.000000" ry="0.152868" fill="rgb(255, 165, 0)" style="fill-opacity:1.00" />
<ellipse cx="115.000000" cy="109.583364" rx="16.666667" ry="0.101912" fill="rgb(255, 255, 255)" style="fill-opacity:1.00" />
<rect height="0.152868" width="25.000000" x="115.000000" y="109.506930" fill="rgb(255, 255, 255)" style="fill-opacity:1.00" />
<rect height="0.038217" width="25.000000" x="115.000000" y="109.621581" fill="rgb(255, 165, 0)" style="fill-opacity:1.00" />
<rect height="0.114651" width="6.250000" x="133.750000" y="109.621581" fill="rgb(255, 165, 0)" style="fill-opacity:1.00" />
<!-- End 'G' -->
<!-- Begin 'A' -->
<polygon points=" 90.000000, 110.000000, 111.000000, 109.736232, 119.000000, 109.736232, 140.000000, 110.000000, 132.500000, 110.000000, 126.250000, 109.934058, 103.750000, 109.934058, 97.500000, 110.000000" fill="rgb(178, 34, 34)" style="fill-opacity:1.00" />
<!-- End 'A' -->
<!-- Begin 'T' -->
<rect height="0.130574" width="50.000000" x="150.000000" y="107.602424" fill="rgb(0, 100, 0)" style="fill-opacity:1.00" />
<rect height="0.816086" width="10.000000" x="170.000000" y="107.602424" fill="rgb(0, 100, 0)" style="fill-opacity:1.00" />
<!-- End 'T' -->
<!-- Begin 'A' -->
<polygon points=" 150.000000, 109.081521, 171.000000, 108.418510, 179.000000, 108.418510, 200.000000, 109.081521, 192.500000, 109.081521, 186.250000, 108.915768, 163.750000, 108.915768, 157.500000, 109.081521" fill="rgb(178, 34, 34)" style="fill-opacity:1.00" />
<!-- End 'A' -->
<!-- Begin 'G' -->
<ellipse cx="175.000000" cy="109.336470" rx="25.000000" ry="0.254950" fill="rgb(255, 165, 0)" style="fill-opacity:1.00" />
<ellipse cx="175.000000" cy="109.336470" rx="16.666667" ry="0.169966" fill="rgb(255, 255, 255)" style="fill-opacity:1.00" />
<rect height="0.254950" width="25.000000" x="175.000000" y="109.208995" fill="rgb(255, 255, 255)" style="fill-opacity:1.00" />
<rect height="0.063737" width="25.000000" x="175.000000" y="109.400208" fill="rgb(255, 165, 0)" style="fill-opacity:1.00" />
<rect height="0.191212" width="6.250000" x="193.750000" y="109.400208" fill="rgb(255, 165, 0)" style="fill-opacity:1.00" />
<!-- End 'G' -->
<!-- Begin 'C' -->
<ellipse cx="175.000000" cy="109.795710" rx="25.000000" ry="0.204290" fill="rgb(0, 0, 128)" style="fill-opacity:1.00" />
<ellipse cx="175.000000" cy="109.795710" rx="16.666667" ry="0.136193" fill="rgb(255, 255, 255)" style="fill-opacity:1.00" />
<rect height="0.204290" width="25.000000" x="175.000000" y="109.693565" fill="rgb(255, 255, 255)" style="fill-opacity:1.00" />
<!-- End 'C' -->
<!-- Begin 'C' -->
<ellipse cx="235.000000" cy="94.455284" rx="25.000000" ry="6.616835" fill="rgb(0, 0, 128)" style="fill-opacity:1.00" />
<ellipse cx="235.000000" cy="94.455284" rx="16.666667" ry="4.411223" fill="rgb(255, 255, 255)" style="fill-opacity:1.00" />
<rect height="6.616835" width="25.000000" x="235.000000" y="91.146866" fill="rgb(255, 255, 255)" style="fill-opacity:1.00" />
<!-- End 'C' -->
<!-- Begin 'T' -->
<rect height="0.664487" width="50.000000" x="210.000000" y="101.072119" fill="rgb(0, 100, 0)" style="fill-opacity:1.00" />
<rect height="4.153043" width="10.000000" x="230.000000" y="101.072119" fill="rgb(0, 100, 0)" style="fill-opacity:1.00" />
<!-- End 'T' -->
<!-- Begin 'G' -->
<ellipse cx="235.000000" cy="106.956797" rx="25.000000" ry="1.731635" fill="rgb(255, 165, 0)" style="fill-opacity:1.00" />
<ellipse cx="235.000000" cy="106.956797" rx="16.666667" ry="1.154424" fill="rgb(255, 255, 255)" style="fill-opacity:1.00" />
<rect height="1.731635" width="25.000000" x="235.000000" y="106.090979" fill="rgb(255, 255, 255)" style="fill-opacity:1.00" />
<rect height="0.432909" width="25.000000" x="235.000000" y="107.389705" fill="rgb(255, 165, 0)" style="fill-opacity:1.00" />
<rect height="1.298727" width="6.250000" x="253.750000" y="107.389705" fill="rgb(255, 165, 0)" style="fill-opacity:1.00" />
<!-- End 'G' -->
<!-- Begin 'A' -->
<polygon points=" 210.000000, 110.000000, 231.000000, 108.688432, 239.000000, 108.688432, 260.000000, 110.000000, 252.500000, 110.000000, 246.250000, 109.672108, 223.750000, 109.672108, 217.500000, 110.000000" fill="rgb(178, 34, 34)" style="fill-opacity:1.00" />
<!-- End 'A' -->
<!-- Begin 'T' -->
<rect height="2.902223" width="50.000000" x="270.000000" y="74.357824" fill="rgb(0, 100, 0)" style="fill-opacity:1.00" />
<rect height="18.138895" width="10.000000" x="290.000000" y="74.357824" fill="rgb(0, 100, 0)" style="fill-opacity:1.00" />
<!-- End 'T' -->
<!-- Begin 'C' -->
<ellipse cx="295.000000" cy="100.318259" rx="25.000000" ry="7.821540" fill="rgb(0, 0, 128)" style="fill-opacity:1.00" />
<ellipse cx="295.000000" cy="100.318259" rx="16.666667" ry="5.214360" fill="rgb(255, 255, 255)" style="fill-opacity:1.00" />
<rect height="7.821540" width="25.000000" x="295.000000" y="96.407489" fill="rgb(255, 255, 255)" style="fill-opacity:1.00" />
<!-- End 'C' -->
<!-- Begin 'G' -->
<ellipse cx="295.000000" cy="108.768118" rx="25.000000" ry="0.628320" fill="rgb(255, 165, 0)" style="fill-opacity:1.00" />
<ellipse cx="295.000000" cy="108.768118" rx="16.666667" ry="0.418880" fill="rgb(255, 255, 255)" style="fill-opacity:1.00" />
<rect height="0.628320" width="25.000000" x="295.000000" y="108.453958" fill="rgb(255, 255, 255)" style="fill-opacity:1.00" />
<rect height="0.157080" width="25.000000" x="295.000000" y="108.925198" fill="rgb(255, 165, 0)" style="fill-opacity:1.00" />
<rect height="0.471240" width="6.250000" x="313.750000" y="108.925198" fill="rgb(255, 165, 0)" style="fill-opacity:1.00" />
<!-- End 'G' -->
<!-- Begin 'A' -->
<polygon points=" 270.000000, 110.000000, 291.000000, 109.396437, 299.000000, 109.396437, 320.000000, 110.000000, 312.500000, 110.000000, 306.250000, 109.849109, 283.750000, 109.849109, 277.500000, 110.000000" fill="rgb(178, 34, 34)" style="fill-opacity:1.00" />
<!-- End 'A' -->
<!-- Begin 'T' -->
<rect height="6.764875" width="50.000000" x="330.000000" y="57.977234" fill="rgb(0, 100, 0)" style="fill-opacity:1.00" />
<rect height="42.280468" width="10.000000" x="350.000000" y="57.977234" fill="rgb(0, 100, 0)" style="fill-opacity:1.00" />
<!-- End 'T' -->
<!-- Begin 'G' -->
<ellipse cx="355.000000" cy="102.961711" rx="25.000000" ry="2.704010" fill="rgb(255, 165, 0)" style="fill-opacity:1.00" />
<ellipse cx="355.000000" cy="102.961711" rx="16.666667" ry="1.802673" fill="rgb(255, 255, 255)" style="fill-opacity:1.00" />
<rect height="2.704010" width="25.000000" x="355.000000" y="101.609706" fill="rgb(255, 255, 255)" style="fill-opacity:1.00" />
<rect height="0.676002" width="25.000000" x="355.000000" y="103.637713" fill="rgb(255, 165, 0)" style="fill-opacity:1.00" />
<rect height="2.028007" width="6.250000" x="373.750000" y="103.637713" fill="rgb(255, 165, 0)" style="fill-opacity:1.00" />
<!-- End 'G' -->
<!-- Begin 'A' -->
<polygon points=" 330.000000, 108.460944, 351.000000, 105.665721, 359.000000, 105.665721, 380.000000, 108.460944, 372.500000, 108.460944, 366.250000, 107.762138, 343.750000, 107.762138, 337.500000, 108.460944" fill="rgb(178, 34, 34)" style="fill-opacity:1.00" />
<!-- End 'A' -->
<!-- Begin 'C' -->
<ellipse cx="355.000000" cy="109.230472" rx="25.000000" ry="0.769528" fill="rgb(0, 0, 128)" style="fill-opacity:1.00" />
<ellipse cx="355.000000" cy="109.230472" rx="16.666667" ry="0.513019" fill="rgb(255, 255, 255)" style="fill-opacity:1.00" />
<rect height="0.769528" width="25.000000" x="355.000000" y="108.845708" fill="rgb(255, 255, 255)" style="fill-opacity:1.00" />
<!-- End 'C' -->
<!-- Begin 'G' -->
<ellipse cx="415.000000" cy="65.797348" rx="25.000000" ry="40.757466" fill="rgb(255, 165, 0)" style="fill-opacity:1.00" />
<ellipse cx="415.000000" cy="65.797348" rx="16.666667" ry="27.171644" fill="rgb(255, 255, 255)" style="fill-opacity:1.00" />
<rect height="40.757466" width="25.000000" x="415.000000" y="45.418615" fill="rgb(255, 255, 255)" style="fill-opacity:1.00" />
<rect height="10.189367" width="25.000000" x="415.000000" y="75.986714" fill="rgb(255, 165, 0)" style="fill-opacity:1.00" />
<rect height="30.568100" width="6.250000" x="433.750000" y="75.986714" fill="rgb(255, 165, 0)" style="fill-opacity:1.00" />
<!-- End 'G' -->
<!-- Begin 'A' -->
<polygon points=" 390.000000, 108.579467, 411.000000, 106.554814, 419.000000, 106.554814, 440.000000, 108.579467, 432.500000, 108.579467, 426.250000, 108.073304, 403.750000, 108.073304, 397.500000, 108.579467" fill="rgb(178, 34, 34)" style="fill-opacity:1.00" />
<!-- End 'A' -->
<!-- Begin 'T' -->
<rect height="0.133762" width="50.000000" x="390.000000" y="108.579467" fill="rgb(0, 100, 0)" style="fill-opacity:1.00" />
<rect height="0.836011" width="10.000000" x="410.000000" y="108.579467" fill="rgb(0, 100, 0)" style="fill-opacity:1.00" />
<!-- End 'T' -->
<!-- Begin 'C' -->
<ellipse cx="415.000000" cy="109.707739" rx="25.000000" ry="0.292261" fill="rgb(0, 0, 128)" style="fill-opacity:1.00" />
<ellipse cx="415.000000" cy="109.707739" rx="16.666667" ry="0.194841" fill="rgb(255, 255, 255)" style="fill-opacity:1.00" />
<rect height="0.292261" width="25.000000" x="415.000000" y="109.561609" fill="rgb(255, 255, 255)" style="fill-opacity:1.00" />
<!-- End 'C' -->
<!-- Begin 'G' -->
<ellipse cx="475.000000" cy="72.972864" rx="25.000000" ry="29.364843" fill="rgb(255, 165, 0)" style="fill-opacity:1.00" />
<ellipse cx="475.000000" cy="72.972864" rx="16.666667" ry="19.576562" fill="rgb(255, 255, 255)" style="fill-opacity:1.00" />
<rect height="29.364843" width="25.000000" x="475.000000" y="58.290442" fill="rgb(255, 255, 255)" style="fill-opacity:1.00" />
<rect height="7.341211" width="25.000000" x="475.000000" y="80.314074" fill="rgb(255, 165, 0)" style="fill-opacity:1.00" />
<rect height="22.023632" width="6.250000" x="493.750000" y="80.314074" fill="rgb(255, 165, 0)" style="fill-opacity:1.00" />
<!-- End 'G' -->
<!-- Begin 'C' -->
<ellipse cx="475.000000" cy="104.627454" rx="25.000000" ry="2.289747" fill="rgb(0, 0, 128)" style="fill-opacity:1.00" />
<ellipse cx="475.000000" cy="104.627454" rx="16.666667" ry="1.526498" fill="rgb(255, 255, 255)" style="fill-opacity:1.00" />
<rect height="2.289747" width="25.000000" x="475.000000" y="103.482580" fill="rgb(255, 255, 255)" style="fill-opacity:1.00" />
<!-- End 'C' -->
<!-- Begin 'T' -->
<rect height="0.313675" width="50.000000" x="450.000000" y="106.917201" fill="rgb(0, 100, 0)" style="fill-opacity:1.00" />
<rect height="1.960466" width="10.000000" x="470.000000" y="106.917201" fill="rgb(0, 100, 0)" style="fill-opacity:1.00" />
<!-- End 'T' -->
<!-- Begin 'A' -->
<polygon points=" 450.000000, 110.000000, 471.000000, 108.877667, 479.000000, 108.877667, 500.000000, 110.000000, 492.500000, 110.000000, 486.250000, 109.719417, 463.750000, 109.719417, 457.500000, 110.000000" fill="rgb(178, 34, 34)" style="fill-opacity:1.00" />
<!-- End 'A' -->
<!-- Begin 'C' -->
<ellipse cx="535.000000" cy="72.935038" rx="25.000000" ry="28.468969" fill="rgb(0, 0, 128)" style="fill-opacity:1.00" />
<ellipse cx="535.000000" cy="72.935038" rx="16.666667" ry="18.979313" fill="rgb(255, 255, 255)" style="fill-opacity:1.00" />
<rect height="28.468969" width="25.000000" x="535.000000" y="58.700554" fill="rgb(255, 255, 255)" style="fill-opacity:1.00" />
<!-- End 'C' -->
<!-- Begin 'A' -->
<polygon points=" 510.000000, 108.104462, 531.000000, 101.404008, 539.000000, 101.404008, 560.000000, 108.104462, 552.500000, 108.104462, 546.250000, 106.429348, 523.750000, 106.429348, 517.500000, 108.104462" fill="rgb(178, 34, 34)" style="fill-opacity:1.00" />
<!-- End 'A' -->
<!-- Begin 'G' -->
<ellipse cx="535.000000" cy="108.605896" rx="25.000000" ry="0.501435" fill="rgb(255, 165, 0)" style="fill-opacity:1.00" />
<ellipse cx="535.000000" cy="108.605896" rx="16.666667" ry="0.334290" fill="rgb(255, 255, 255)" style="fill-opacity:1.00" />
<rect height="0.501435" width="25.000000" x="535.000000" y="108.355179" fill="rgb(255, 255, 255)" style="fill-opacity:1.00" />
<rect height="0.125359" width="25.000000" x="535.000000" y="108.731255" fill="rgb(255, 165, 0)" style="fill-opacity:1.00" />
<rect height="0.376076" width="6.250000" x="553.750000" y="108.731255" fill="rgb(255, 165, 0)" style="fill-opacity:1.00" />
<!-- End 'G' -->
<!-- Begin 'T' -->
<rect height="0.142827" width="50.000000" x="510.000000" y="109.107331" fill="rgb(0, 100, 0)" style="fill-opacity:1.00" />
<rect height="0.892669" width="10.000000" x="530.000000" y="109.107331" fill="rgb(0, 100, 0)" style="fill-opacity:1.00" />
<!-- End 'T' -->
<!-- Begin 'A' -->
<polygon points=" 570.000000, 100.157681, 591.000000, 87.709602, 599.000000, 87.709602, 620.000000, 100.157681, 612.500000, 100.157681, 606.250000, 97.045661, 583.750000, 97.045661, 577.500000, 100.157681" fill="rgb(178, 34, 34)" style="fill-opacity:1.00" />
<polygon points=" 595.000000, 90.199218, 587.000000, 94.178449, 602.000000, 94.178449" fill="rgb(255, 255, 255)" style="fill-opacity:1.00" />
<!-- End 'A' -->
<!-- Begin 'T' -->
<rect height="0.927931" width="50.000000" x="570.000000" y="100.157681" fill="rgb(0, 100, 0)" style="fill-opacity:1.00" />
<rect height="5.799568" width="10.000000" x="590.000000" y="100.157681" fill="rgb(0, 100, 0)" style="fill-opacity:1.00" />
<!-- End 'T' -->
<!-- Begin 'C' -->
<ellipse cx="595.000000" cy="107.564256" rx="25.000000" ry="1.607006" fill="rgb(0, 0, 128)" style="fill-opacity:1.00" />
<ellipse cx="595.000000" cy="107.564256" rx="16.666667" ry="1.071338" fill="rgb(255, 255, 255)" style="fill-opacity:1.00" />
<rect height="1.607006" width="25.000000" x="595.000000" y="106.760752" fill="rgb(255, 255, 255)" style="fill-opacity:1.00" />
<!-- End 'C' -->
<!-- Begin 'G' -->
<ellipse cx="595.000000" cy="109.585631" rx="25.000000" ry="0.414369" fill="rgb(255, 165, 0)" style="fill-opacity:1.00" />
<ellipse cx="595.000000" cy="109.585631" rx="16.666667" ry="0.276246" fill="rgb(255, 255, 255)" style="fill-opacity:1.00" />
<rect height="0.414369" width="25.000000" x="595.000000" y="109.378447" fill="rgb(255, 255, 255)" style="fill-opacity:1.00" />
<rect height="0.103592" width="25.000000" x="595.000000" y="109.689223" fill="rgb(255, 165, 0)" style="fill-opacity:1.00" />
<rect height="0.310777" width="6.250000" x="613.750000" y="109.689223" fill="rgb(255, 165, 0)" style="fill-opacity:1.00" />
<!-- End 'G' -->
<!-- Begin 'C' -->
<ellipse cx="655.000000" cy="107.307882" rx="25.000000" ry="0.530843" fill="rgb(0, 0, 128)" style="fill-opacity:1.00" />
<ellipse cx="655.000000" cy="107.307882" rx="16.666667" ry="0.353895" fill="rgb(255, 255, 255)" style="fill-opacity:1.00" />
<rect height="0.530843" width="25.000000" x="655.000000" y="107.042460" fill="rgb(255, 255, 255)" style="fill-opacity:1.00" />
<!-- End 'C' -->
<!-- Begin 'G' -->
<ellipse cx="655.000000" cy="108.352311" rx="25.000000" ry="0.513586" fill="rgb(255, 165, 0)" style="fill-opacity:1.00" />
<ellipse cx="655.000000" cy="108.352311" rx="16.666667" ry="0.342391" fill="rgb(255, 255, 255)" style="fill-opacity:1.00" />
<rect height="0.513586" width="25.000000" x="655.000000" y="108.095518" fill="rgb(255, 255, 255)" style="fill-opacity:1.00" />
<rect height="0.128396" width="25.000000" x="655.000000" y="108.480707" fill="rgb(255, 165, 0)" style="fill-opacity:1.00" />
<rect height="0.385189" width="6.250000" x="673.750000" y="108.480707" fill="rgb(255, 165, 0)" style="fill-opacity:1.00" />
<!-- End 'G' -->
<!-- Begin 'T' -->
<rect height="0.092230" width="50.000000" x="630.000000" y="108.865897" fill="rgb(0, 100, 0)" style="fill-opacity:1.00" />
<rect height="0.576437" width="10.000000" x="650.000000" y="108.865897" fill="rgb(0, 100, 0)" style="fill-opacity:1.00" />
<!-- End 'T' -->
<!-- Begin 'A' -->
<polygon points=" 630.000000, 110.000000, 651.000000, 109.442334, 659.000000, 109.442334, 680.000000, 110.000000, 672.500000, 110.000000, 666.250000, 109.860583, 643.750000, 109.860583, 637.500000, 110.000000" fill="rgb(178, 34, 34)" style="fill-opacity:1.00" />
<!-- End 'A' -->
<!-- Begin 'G' -->
<ellipse cx="715.000000" cy="109.726683" rx="25.000000" ry="0.042911" fill="rgb(255, 165, 0)" style="fill-opacity:1.00" />
<ellipse cx="715.000000" cy="109.726683" rx="16.666667" ry="0.028607" fill="rgb(255, 255, 255)" style="fill-opacity:1.00" />
<rect height="0.042911" width="25.000000" x="715.000000" y="109.705227" fill="rgb(255, 255, 255)" style="fill-opacity:1.00" />
<rect height="0.010728" width="25.000000" x="715.000000" y="109.737410" fill="rgb(255, 165, 0)" style="fill-opacity:1.00" />
<rect height="0.032183" width="6.250000" x="733.750000" y="109.737410" fill="rgb(255, 165, 0)" style="fill-opacity:1.00" />
<!-- End 'G' -->
<!-- Begin 'A' -->
<polygon points=" 690.000000, 109.852723, 711.000000, 109.769593, 719.000000, 109.769593, 740.000000, 109.852723, 732.500000, 109.852723, 726.250000, 109.831941, 703.750000, 109.831941, 697.500000, 109.852723" fill="rgb(178, 34, 34)" style="fill-opacity:1.00" />
<!-- End 'A' -->
<!-- Begin 'C' -->
<ellipse cx="715.000000" cy="109.892923" rx="25.000000" ry="0.040199" fill="rgb(0, 0, 128)" style="fill-opacity:1.00" />
<ellipse cx="715.000000" cy="109.892923" rx="16.666667" ry="0.026800" fill="rgb(255, 255, 255)" style="fill-opacity:1.00" />
<rect height="0.040199" width="25.000000" x="715.000000" y="109.872823" fill="rgb(255, 255, 255)" style="fill-opacity:1.00" />
<!-- End 'C' -->
<!-- Begin 'T' -->
<rect height="0.010700" width="50.000000" x="690.000000" y="109.933122" fill="rgb(0, 100, 0)" style="fill-opacity:1.00" />
<rect height="0.066878" width="10.000000" x="710.000000" y="109.933122" fill="rgb(0, 100, 0)" style="fill-opacity:1.00" />
<!-- End 'T' -->
<text x="400.000000" y="165">
IC = 7.13
</text>

</svg>
