<?xml version="1.0" encoding="UTF-8" standalone="yes"?>
                 <!DOCTYPE svg PUBLIC "-//W3C//DTD SVG 1.0//EN" "http://www.w3.org/TR/2001/REC-SVG-20010904/DTD/svg10.dtd">
                 <svg height="170" width="600" xmlns="http://www.w3.org/2000/svg" xmlns:xlink="http://www.w3.org/1999/xlink">
                 <line x1="85" y1="120" x2="567" y2="120" style="stroke:rgb(99,99,99);stroke-width:2" />
<rect height="7.000000" width="2.000000" x="85.000000" y="120.000000" fill="rgb(0, 0, 0)" style="fill-opacity:1.00" />
<text x="107.000000" y="140">
1
</text>
<rect height="7.000000" width="2.000000" x="145.000000" y="120.000000" fill="rgb(0, 0, 0)" style="fill-opacity:1.00" />
<text x="167.000000" y="140">
2
</text>
<rect height="7.000000" width="2.000000" x="205.000000" y="120.000000" fill="rgb(0, 0, 0)" style="fill-opacity:1.00" />
<text x="227.000000" y="140">
3
</text>
<rect height="7.000000" width="2.000000" x="265.000000" y="120.000000" fill="rgb(0, 0, 0)" style="fill-opacity:1.00" />
<text x="287.000000" y="140">
4
</text>
<rect height="7.000000" width="2.000000" x="325.000000" y="120.000000" fill="rgb(0, 0, 0)" style="fill-opacity:1.00" />
<text x="347.000000" y="140">
5
</text>
<rect height="7.000000" width="2.000000" x="385.000000" y="120.000000" fill="rgb(0, 0, 0)" style="fill-opacity:1.00" />
<text x="407.000000" y="140">
6
</text>
<rect height="7.000000" width="2.000000" x="445.000000" y="120.000000" fill="rgb(0, 0, 0)" style="fill-opacity:1.00" />
<text x="467.000000" y="140">
7
</text>
<rect height="7.000000" width="2.000000" x="505.000000" y="120.000000" fill="rgb(0, 0, 0)" style="fill-opacity:1.00" />
<text x="527.000000" y="140">
8
</text>
<rect height="7.000000" width="2.000000" x="565.000000" y="120.000000" fill="rgb(0, 0, 0)" style="fill-opacity:1.00" />
<line x1="80" y1="112" x2="80" y2="10" style="stroke:rgb(99,99,99);stroke-width:2" />
<rect height="2.000000" width="7.000000" x="73.000000" y="110.000000" fill="rgb(0, 0, 0)" style="fill-opacity:1.00" />
<text x="63" y="115">
0
</text>
<rect height="2.000000" width="7.000000" x="73.000000" y="60.000000" fill="rgb(0, 0, 0)" style="fill-opacity:1.00" />
<text x="63" y="65">
1
</text>
<rect height="2.000000" width="7.000000" x="73.000000" y="10.000000" fill="rgb(0, 0, 0)" style="fill-opacity:1.00" />
<text x="63" y="15">
2
</text>
<text x="50" y="65"
transform="rotate(-90, 50, 70)">
bits
</text>
<!-- Begin 'A' -->
<polygon points=" 90.000000, 97.026881, 111.000000, 57.586423, 119.000000, 57.586423, 140.000000, 97.026881, 132.500000, 97.026881, 126.250000, 87.166766, 103.750000, 87.166766, 97.500000, 97.026881" fill="rgb(178, 34, 34)" style="fill-opacity:1.00" />
<polygon points=" 115.000000, 65.474515, 107.000000, 80.250698, 122.000000, 80.250698" fill="rgb(255, 255, 255)" style="fill-opacity:1.00" />
<!-- End 'A' -->
<!-- Begin 'T' -->
<rect height="1.857687" width="50.000000" x="90.000000" y="97.026881" fill="rgb(0, 100, 0)" style="fill-opacity:1.00" />
<rect height="11.610541" width="10.000000" x="110.000000" y="97.026881" fill="rgb(0, 100, 0)" style="fill-opacity:1.00" />
<!-- End 'T' -->
<!-- Begin 'C' -->
<ellipse cx="115.000000" cy="109.075753" rx="25.000000" ry="0.438331" fill="rgb(0, 0, 128)" style="fill-opacity:1.00" />
<ellipse cx="115.000000" cy="109.075753" rx="16.666667" ry="0.292221" fill="rgb(255, 255, 255)" style="fill-opacity:1.00" />
<rect height="0.438331" width="25.000000" x="115.000000" y="108.856587" fill="rgb(255, 255, 255)" style="fill-opacity:1.00" />
<!-- End 'C' -->
<!-- Begin 'G' -->
<ellipse cx="115.000000" cy="109.757042" rx="25.000000" ry="0.242958" fill="rgb(255, 165, 0)" style="fill-opacity:1.00" />
<ellipse cx="115.000000" cy="109.757042" rx="16.666667" ry="0.161972" fill="rgb(255, 255, 255)" style="fill-opacity:1.00" />
<rect height="0.242958" width="25.000000" x="115.000000" y="109.635563" fill="rgb(255, 255, 255)" style="fill-opacity:1.00" />
<rect height="0.060739" width="25.000000" x="115.000000" y="109.817782" fill="rgb(255, 165, 0)" style="fill-opacity:1.00" />
<rect height="0.182218" width="6.250000" x="133.750000" y="109.817782" fill="rgb(255, 165, 0)" style="fill-opacity:1.00" />
<!-- End 'G' -->
<!-- Begin 'G' -->
<ellipse cx="175.000000" cy="67.569344" rx="25.000000" ry="36.187318" fill="rgb(255, 165, 0)" style="fill-opacity:1.00" />
<ellipse cx="175.000000" cy="67.569344" rx="16.666667" ry="24.124879" fill="rgb(255, 255, 255)" style="fill-opacity:1.00" />
<rect height="36.187318" width="25.000000" x="175.000000" y="49.475684" fill="rgb(255, 255, 255)" style="fill-opacity:1.00" />
<rect height="9.046830" width="25.000000" x="175.000000" y="76.616173" fill="rgb(255, 165, 0)" style="fill-opacity:1.00" />
<rect height="27.140489" width="6.250000" x="193.750000" y="76.616173" fill="rgb(255, 165, 0)" style="fill-opacity:1.00" />
<!-- End 'G' -->
<!-- Begin 'A' -->
<polygon points=" 150.000000, 109.675500, 171.000000, 103.756662, 179.000000, 103.756662, 200.000000, 109.675500, 192.500000, 109.675500, 186.250000, 108.195790, 163.750000, 108.195790, 157.500000, 109.675500" fill="rgb(178, 34, 34)" style="fill-opacity:1.00" />
<!-- End 'A' -->
<!-- Begin 'T' -->
<rect height="0.026679" width="50.000000" x="150.000000" y="109.675500" fill="rgb(0, 100, 0)" style="fill-opacity:1.00" />
<rect height="0.166747" width="10.000000" x="170.000000" y="109.675500" fill="rgb(0, 100, 0)" style="fill-opacity:1.00" />
<!-- End 'T' -->
<!-- Begin 'C' -->
<ellipse cx="175.000000" cy="109.921123" rx="25.000000" ry="0.078877" fill="rgb(0, 0, 128)" style="fill-opacity:1.00" />
<ellipse cx="175.000000" cy="109.921123" rx="16.666667" ry="0.052585" fill="rgb(255, 255, 255)" style="fill-opacity:1.00" />
<rect height="0.078877" width="25.000000" x="175.000000" y="109.881685" fill="rgb(255, 255, 255)" style="fill-opacity:1.00" />
<!-- End 'C' -->
<!-- Begin 'A' -->
<polygon points=" 210.000000, 109.314103, 231.000000, 13.332192, 239.000000, 13.332192, 260.000000, 109.314103, 252.500000, 109.314103, 246.250000, 85.318625, 223.750000, 85.318625, 217.500000, 109.314103" fill="rgb(178, 34, 34)" style="fill-opacity:1.00" />
<polygon points=" 235.000000, 32.528574, 227.000000, 69.921338, 242.000000, 69.921338" fill="rgb(255, 255, 255)" style="fill-opacity:1.00" />
<!-- End 'A' -->
<!-- Begin 'G' -->
<ellipse cx="235.000000" cy="109.593284" rx="25.000000" ry="0.279181" fill="rgb(255, 165, 0)" style="fill-opacity:1.00" />
<ellipse cx="235.000000" cy="109.593284" rx="16.666667" ry="0.186121" fill="rgb(255, 255, 255)" style="fill-opacity:1.00" />
<rect height="0.279181" width="25.000000" x="235.000000" y="109.453693" fill="rgb(255, 255, 255)" style="fill-opacity:1.00" />
<rect height="0.069795" width="25.000000" x="235.000000" y="109.663079" fill="rgb(255, 165, 0)" style="fill-opacity:1.00" />
<rect height="0.209386" width="6.250000" x="253.750000" y="109.663079" fill="rgb(255, 165, 0)" style="fill-opacity:1.00" />
<!-- End 'G' -->
<!-- Begin 'T' -->
<rect height="0.016894" width="50.000000" x="210.000000" y="109.872465" fill="rgb(0, 100, 0)" style="fill-opacity:1.00" />
<rect height="0.105590" width="10.000000" x="230.000000" y="109.872465" fill="rgb(0, 100, 0)" style="fill-opacity:1.00" />
<!-- End 'T' -->
<!-- Begin 'C' -->
<ellipse cx="235.000000" cy="109.989027" rx="25.000000" ry="0.010973" fill="rgb(0, 0, 128)" style="fill-opacity:1.00" />
<ellipse cx="235.000000" cy="109.989027" rx="16.666667" ry="0.007315" fill="rgb(255, 255, 255)" style="fill-opacity:1.00" />
<rect height="0.010973" width="25.000000" x="235.000000" y="109.983541" fill="rgb(255, 255, 255)" style="fill-opacity:1.00" />
<!-- End 'C' -->
<!-- Begin 'T' -->
<rect height="12.254864" width="50.000000" x="270.000000" y="28.835516" fill="rgb(0, 100, 0)" style="fill-opacity:1.00" />
<rect height="76.592903" width="10.000000" x="290.000000" y="28.835516" fill="rgb(0, 100, 0)" style="fill-opacity:1.00" />
<!-- End 'T' -->
<!-- Begin 'A' -->
<polygon points=" 270.000000, 108.686953, 291.000000, 105.428419, 299.000000, 105.428419, 320.000000, 108.686953, 312.500000, 108.686953, 306.250000, 107.872319, 283.750000, 107.872319, 277.500000, 108.686953" fill="rgb(178, 34, 34)" style="fill-opacity:1.00" />
<!-- End 'A' -->
<!-- Begin 'G' -->
<ellipse cx="295.000000" cy="109.104488" rx="25.000000" ry="0.417535" fill="rgb(255, 165, 0)" style="fill-opacity:1.00" />
<ellipse cx="295.000000" cy="109.104488" rx="16.666667" ry="0.278357" fill="rgb(255, 255, 255)" style="fill-opacity:1.00" />
<rect height="0.417535" width="25.000000" x="295.000000" y="108.895720" fill="rgb(255, 255, 255)" style="fill-opacity:1.00" />
<rect height="0.104384" width="25.000000" x="295.000000" y="109.208872" fill="rgb(255, 165, 0)" style="fill-opacity:1.00" />
<rect height="0.313151" width="6.250000" x="313.750000" y="109.208872" fill="rgb(255, 165, 0)" style="fill-opacity:1.00" />
<!-- End 'G' -->
<!-- Begin 'C' -->
<ellipse cx="295.000000" cy="109.761011" rx="25.000000" ry="0.238989" fill="rgb(0, 0, 128)" style="fill-opacity:1.00" />
<ellipse cx="295.000000" cy="109.761011" rx="16.666667" ry="0.159326" fill="rgb(255, 255, 255)" style="fill-opacity:1.00" />
<rect height="0.238989" width="25.000000" x="295.000000" y="109.641517" fill="rgb(255, 255, 255)" style="fill-opacity:1.00" />
<!-- End 'C' -->
<!-- Begin 'A' -->
<polygon points=" 330.000000, 101.683722, 351.000000, 46.439389, 359.000000, 46.439389, 380.000000, 101.683722, 372.500000, 101.683722, 366.250000, 87.872639, 343.750000, 87.872639, 337.500000, 101.683722" fill="rgb(178, 34, 34)" style="fill-opacity:1.00" />
<polygon points=" 355.000000, 57.488255, 347.000000, 78.585989, 362.000000, 78.585989" fill="rgb(255, 255, 255)" style="fill-opacity:1.00" />
<!-- End 'A' -->
<!-- Begin 'T' -->
<rect height="0.854360" width="50.000000" x="330.000000" y="101.683722" fill="rgb(0, 100, 0)" style="fill-opacity:1.00" />
<rect height="5.339750" width="10.000000" x="350.000000" y="101.683722" fill="rgb(0, 100, 0)" style="fill-opacity:1.00" />
<!-- End 'T' -->
<!-- Begin 'C' -->
<ellipse cx="355.000000" cy="107.888282" rx="25.000000" ry="0.864810" fill="rgb(0, 0, 128)" style="fill-opacity:1.00" />
<ellipse cx="355.000000" cy="107.888282" rx="16.666667" ry="0.576540" fill="rgb(255, 255, 255)" style="fill-opacity:1.00" />
<rect height="0.864810" width="25.000000" x="355.000000" y="107.455877" fill="rgb(255, 255, 255)" style="fill-opacity:1.00" />
<!-- End 'C' -->
<!-- Begin 'G' -->
<ellipse cx="355.000000" cy="109.376546" rx="25.000000" ry="0.623454" fill="rgb(255, 165, 0)" style="fill-opacity:1.00" />
<ellipse cx="355.000000" cy="109.376546" rx="16.666667" ry="0.415636" fill="rgb(255, 255, 255)" style="fill-opacity:1.00" />
<rect height="0.623454" width="25.000000" x="355.000000" y="109.064819" fill="rgb(255, 255, 255)" style="fill-opacity:1.00" />
<rect height="0.155863" width="25.000000" x="355.000000" y="109.532410" fill="rgb(255, 165, 0)" style="fill-opacity:1.00" />
<rect height="0.467590" width="6.250000" x="373.750000" y="109.532410" fill="rgb(255, 165, 0)" style="fill-opacity:1.00" />
<!-- End 'G' -->
<!-- Begin 'A' -->
<polygon points=" 390.000000, 101.810444, 411.000000, 48.089258, 419.000000, 48.089258, 440.000000, 101.810444, 432.500000, 101.810444, 426.250000, 88.380148, 403.750000, 88.380148, 397.500000, 101.810444" fill="rgb(178, 34, 34)" style="fill-opacity:1.00" />
<polygon points=" 415.000000, 58.833495, 407.000000, 79.321970, 422.000000, 79.321970" fill="rgb(255, 255, 255)" style="fill-opacity:1.00" />
<!-- End 'A' -->
<!-- Begin 'G' -->
<ellipse cx="415.000000" cy="103.693946" rx="25.000000" ry="1.883502" fill="rgb(255, 165, 0)" style="fill-opacity:1.00" />
<ellipse cx="415.000000" cy="103.693946" rx="16.666667" ry="1.255668" fill="rgb(255, 255, 255)" style="fill-opacity:1.00" />
<rect height="1.883502" width="25.000000" x="415.000000" y="102.752195" fill="rgb(255, 255, 255)" style="fill-opacity:1.00" />
<rect height="0.470875" width="25.000000" x="415.000000" y="104.164822" fill="rgb(255, 165, 0)" style="fill-opacity:1.00" />
<rect height="1.412626" width="6.250000" x="433.750000" y="104.164822" fill="rgb(255, 165, 0)" style="fill-opacity:1.00" />
<!-- End 'G' -->
<!-- Begin 'T' -->
<rect height="0.462849" width="50.000000" x="390.000000" y="105.577448" fill="rgb(0, 100, 0)" style="fill-opacity:1.00" />
<rect height="2.892805" width="10.000000" x="410.000000" y="105.577448" fill="rgb(0, 100, 0)" style="fill-opacity:1.00" />
<!-- End 'T' -->
<!-- Begin 'C' -->
<ellipse cx="415.000000" cy="109.235126" rx="25.000000" ry="0.764874" fill="rgb(0, 0, 128)" style="fill-opacity:1.00" />
<ellipse cx="415.000000" cy="109.235126" rx="16.666667" ry="0.509916" fill="rgb(255, 255, 255)" style="fill-opacity:1.00" />
<rect height="0.764874" width="25.000000" x="415.000000" y="108.852689" fill="rgb(255, 255, 255)" style="fill-opacity:1.00" />
<!-- End 'C' -->
<!-- Begin 'G' -->
<ellipse cx="475.000000" cy="99.800277" rx="25.000000" ry="2.842307" fill="rgb(255, 165, 0)" style="fill-opacity:1.00" />
<ellipse cx="475.000000" cy="99.800277" rx="16.666667" ry="1.894872" fill="rgb(255, 255, 255)" style="fill-opacity:1.00" />
<rect height="2.842307" width="25.000000" x="475.000000" y="98.379123" fill="rgb(255, 255, 255)" style="fill-opacity:1.00" />
<rect height="0.710577" width="25.000000" x="475.000000" y="100.510854" fill="rgb(255, 165, 0)" style="fill-opacity:1.00" />
<rect height="2.131731" width="6.250000" x="493.750000" y="100.510854" fill="rgb(255, 165, 0)" style="fill-opacity:1.00" />
<!-- End 'G' -->
<!-- Begin 'A' -->
<polygon points=" 450.000000, 107.078548, 471.000000, 102.642584, 479.000000, 102.642584, 500.000000, 107.078548, 492.500000, 107.078548, 486.250000, 105.969557, 463.750000, 105.969557, 457.500000, 107.078548" fill="rgb(178, 34, 34)" style="fill-opacity:1.00" />
<!-- End 'A' -->
<!-- Begin 'C' -->
<ellipse cx="475.000000" cy="108.061352" rx="25.000000" ry="0.982804" fill="rgb(0, 0, 128)" style="fill-opacity:1.00" />
<ellipse cx="475.000000" cy="108.061352" rx="16.666667" ry="0.655203" fill="rgb(255, 255, 255)" style="fill-opacity:1.00" />
<rect height="0.982804" width="25.000000" x="475.000000" y="107.569950" fill="rgb(255, 255, 255)" style="fill-opacity:1.00" />
<!-- End 'C' -->
<!-- Begin 'T' -->
<rect height="0.152935" width="50.000000" x="450.000000" y="109.044156" fill="rgb(0, 100, 0)" style="fill-opacity:1.00" />
<rect height="0.955844" width="10.000000" x="470.000000" y="109.044156" fill="rgb(0, 100, 0)" style="fill-opacity:1.00" />
<!-- End 'T' -->
<!-- Begin 'A' -->
<polygon points=" 510.000000, 102.653271, 531.000000, 94.882726, 539.000000, 94.882726, 560.000000, 102.653271, 552.500000, 102.653271, 546.250000, 100.710635, 523.750000, 100.710635, 517.500000, 102.653271" fill="rgb(178, 34, 34)" style="fill-opacity:1.00" />
<!-- End 'A' -->
<!-- Begin 'G' -->
<ellipse cx="535.000000" cy="104.526899" rx="25.000000" ry="1.873629" fill="rgb(255, 165, 0)" style="fill-opacity:1.00" />
<ellipse cx="535.000000" cy="104.526899" rx="16.666667" ry="1.249086" fill="rgb(255, 255, 255)" style="fill-opacity:1.00" />
<rect height="1.873629" width="25.000000" x="535.000000" y="103.590085" fill="rgb(255, 255, 255)" style="fill-opacity:1.00" />
<rect height="0.468407" width="25.000000" x="535.000000" y="104.995307" fill="rgb(255, 165, 0)" style="fill-opacity:1.00" />
<rect height="1.405222" width="6.250000" x="553.750000" y="104.995307" fill="rgb(255, 165, 0)" style="fill-opacity:1.00" />
<!-- End 'G' -->
<!-- Begin 'C' -->
<ellipse cx="535.000000" cy="107.644216" rx="25.000000" ry="1.243688" fill="rgb(0, 0, 128)" style="fill-opacity:1.00" />
<ellipse cx="535.000000" cy="107.644216" rx="16.666667" ry="0.829125" fill="rgb(255, 255, 255)" style="fill-opacity:1.00" />
<rect height="1.243688" width="25.000000" x="535.000000" y="107.022372" fill="rgb(255, 255, 255)" style="fill-opacity:1.00" />
<!-- End 'C' -->
<!-- Begin 'T' -->
<rect height="0.177935" width="50.000000" x="510.000000" y="108.887904" fill="rgb(0, 100, 0)" style="fill-opacity:1.00" />
<rect height="1.112096" width="10.000000" x="530.000000" y="108.887904" fill="rgb(0, 100, 0)" style="fill-opacity:1.00" />
<!-- End 'T' -->
<text x="310.000000" y="165">
IC = 9.25
</text>

</svg>
