<?xml version="1.0" encoding="UTF-8" standalone="yes"?>
                 <!DOCTYPE svg PUBLIC "-//W3C//DTD SVG 1.0//EN" "http://www.w3.org/TR/2001/REC-SVG-20010904/DTD/svg10.dtd">
                 <svg height="170" width="1020" xmlns="http://www.w3.org/2000/svg" xmlns:xlink="http://www.w3.org/1999/xlink">
                 <line x1="85" y1="120" x2="987" y2="120" style="stroke:rgb(99,99,99);stroke-width:2" />
<rect height="7.000000" width="2.000000" x="85.000000" y="120.000000" fill="rgb(0, 0, 0)" style="fill-opacity:1.00" />
<text x="107.000000" y="140">
1
</text>
<rect height="7.000000" width="2.000000" x="145.000000" y="120.000000" fill="rgb(0, 0, 0)" style="fill-opacity:1.00" />
<text x="167.000000" y="140">
2
</text>
<rect height="7.000000" width="2.000000" x="205.000000" y="120.000000" fill="rgb(0, 0, 0)" style="fill-opacity:1.00" />
<text x="227.000000" y="140">
3
</text>
<rect height="7.000000" width="2.000000" x="265.000000" y="120.000000" fill="rgb(0, 0, 0)" style="fill-opacity:1.00" />
<text x="287.000000" y="140">
4
</text>
<rect height="7.000000" width="2.000000" x="325.000000" y="120.000000" fill="rgb(0, 0, 0)" style="fill-opacity:1.00" />
<text x="347.000000" y="140">
5
</text>
<rect height="7.000000" width="2.000000" x="385.000000" y="120.000000" fill="rgb(0, 0, 0)" style="fill-opacity:1.00" />
<text x="407.000000" y="140">
6
</text>
<rect height="7.000000" width="2.000000" x="445.000000" y="120.000000" fill="rgb(0, 0, 0)" style="fill-opacity:1.00" />
<text x="467.000000" y="140">
7
</text>
<rect height="7.000000" width="2.000000" x="505.000000" y="120.000000" fill="rgb(0, 0, 0)" style="fill-opacity:1.00" />
<text x="527.000000" y="140">
8
</text>
<rect height="7.000000" width="2.000000" x="565.000000" y="120.000000" fill="rgb(0, 0, 0)" style="fill-opacity:1.00" />
<text x="587.000000" y="140">
9
</text>
<rect height="7.000000" width="2.000000" x="625.000000" y="120.000000" fill="rgb(0, 0, 0)" style="fill-opacity:1.00" />
<text x="647.000000" y="140">
10
</text>
<rect height="7.000000" width="2.000000" x="685.000000" y="120.000000" fill="rgb(0, 0, 0)" style="fill-opacity:1.00" />
<text x="707.000000" y="140">
11
</text>
<rect height="7.000000" width="2.000000" x="745.000000" y="120.000000" fill="rgb(0, 0, 0)" style="fill-opacity:1.00" />
<text x="767.000000" y="140">
12
</text>
<rect height="7.000000" width="2.000000" x="805.000000" y="120.000000" fill="rgb(0, 0, 0)" style="fill-opacity:1.00" />
<text x="827.000000" y="140">
13
</text>
<rect height="7.000000" width="2.000000" x="865.000000" y="120.000000" fill="rgb(0, 0, 0)" style="fill-opacity:1.00" />
<text x="887.000000" y="140">
14
</text>
<rect height="7.000000" width="2.000000" x="925.000000" y="120.000000" fill="rgb(0, 0, 0)" style="fill-opacity:1.00" />
<text x="947.000000" y="140">
15
</text>
<rect height="7.000000" width="2.000000" x="985.000000" y="120.000000" fill="rgb(0, 0, 0)" style="fill-opacity:1.00" />
<line x1="80" y1="112" x2="80" y2="10" style="stroke:rgb(99,99,99);stroke-width:2" />
<rect height="2.000000" width="7.000000" x="73.000000" y="110.000000" fill="rgb(0, 0, 0)" style="fill-opacity:1.00" />
<text x="63" y="115">
0
</text>
<rect height="2.000000" width="7.000000" x="73.000000" y="60.000000" fill="rgb(0, 0, 0)" style="fill-opacity:1.00" />
<text x="63" y="65">
1
</text>
<rect height="2.000000" width="7.000000" x="73.000000" y="10.000000" fill="rgb(0, 0, 0)" style="fill-opacity:1.00" />
<text x="63" y="15">
2
</text>
<text x="50" y="65"
transform="rotate(-90, 50, 70)">
bits
</text>
<!-- Begin 'A' -->
<polygon points=" 90.000000, 107.454116, 111.000000, 106.055329, 119.000000, 106.055329, 140.000000, 107.454116, 132.500000, 107.454116, 126.250000, 107.104419, 103.750000, 107.104419, 97.500000, 107.454116" fill="rgb(178, 34, 34)" style="fill-opacity:1.00" />
<!-- End 'A' -->
<!-- Begin 'T' -->
<rect height="0.190985" width="50.000000" x="90.000000" y="107.454116" fill="rgb(0, 100, 0)" style="fill-opacity:1.00" />
<rect height="1.193659" width="10.000000" x="110.000000" y="107.454116" fill="rgb(0, 100, 0)" style="fill-opacity:1.00" />
<!-- End 'T' -->
<!-- Begin 'G' -->
<ellipse cx="115.000000" cy="109.025387" rx="25.000000" ry="0.377613" fill="rgb(255, 165, 0)" style="fill-opacity:1.00" />
<ellipse cx="115.000000" cy="109.025387" rx="16.666667" ry="0.251742" fill="rgb(255, 255, 255)" style="fill-opacity:1.00" />
<rect height="0.377613" width="25.000000" x="115.000000" y="108.836581" fill="rgb(255, 255, 255)" style="fill-opacity:1.00" />
<rect height="0.094403" width="25.000000" x="115.000000" y="109.119791" fill="rgb(255, 165, 0)" style="fill-opacity:1.00" />
<rect height="0.283210" width="6.250000" x="133.750000" y="109.119791" fill="rgb(255, 165, 0)" style="fill-opacity:1.00" />
<!-- End 'G' -->
<!-- Begin 'C' -->
<ellipse cx="115.000000" cy="109.701500" rx="25.000000" ry="0.298500" fill="rgb(0, 0, 128)" style="fill-opacity:1.00" />
<ellipse cx="115.000000" cy="109.701500" rx="16.666667" ry="0.199000" fill="rgb(255, 255, 255)" style="fill-opacity:1.00" />
<rect height="0.298500" width="25.000000" x="115.000000" y="109.552250" fill="rgb(255, 255, 255)" style="fill-opacity:1.00" />
<!-- End 'C' -->
<!-- Begin 'A' -->
<polygon points=" 150.000000, 109.126575, 171.000000, 108.737816, 179.000000, 108.737816, 200.000000, 109.126575, 192.500000, 109.126575, 186.250000, 109.029385, 163.750000, 109.029385, 157.500000, 109.126575" fill="rgb(178, 34, 34)" style="fill-opacity:1.00" />
<!-- End 'A' -->
<!-- Begin 'T' -->
<rect height="0.055796" width="50.000000" x="150.000000" y="109.126575" fill="rgb(0, 100, 0)" style="fill-opacity:1.00" />
<rect height="0.348723" width="10.000000" x="170.000000" y="109.126575" fill="rgb(0, 100, 0)" style="fill-opacity:1.00" />
<!-- End 'T' -->
<!-- Begin 'C' -->
<ellipse cx="175.000000" cy="109.620433" rx="25.000000" ry="0.145134" fill="rgb(0, 0, 128)" style="fill-opacity:1.00" />
<ellipse cx="175.000000" cy="109.620433" rx="16.666667" ry="0.096756" fill="rgb(255, 255, 255)" style="fill-opacity:1.00" />
<rect height="0.145134" width="25.000000" x="175.000000" y="109.547865" fill="rgb(255, 255, 255)" style="fill-opacity:1.00" />
<!-- End 'C' -->
<!-- Begin 'G' -->
<ellipse cx="175.000000" cy="109.882784" rx="25.000000" ry="0.117216" fill="rgb(255, 165, 0)" style="fill-opacity:1.00" />
<ellipse cx="175.000000" cy="109.882784" rx="16.666667" ry="0.078144" fill="rgb(255, 255, 255)" style="fill-opacity:1.00" />
<rect height="0.117216" width="25.000000" x="175.000000" y="109.824175" fill="rgb(255, 255, 255)" style="fill-opacity:1.00" />
<rect height="0.029304" width="25.000000" x="175.000000" y="109.912088" fill="rgb(255, 165, 0)" style="fill-opacity:1.00" />
<rect height="0.087912" width="6.250000" x="193.750000" y="109.912088" fill="rgb(255, 165, 0)" style="fill-opacity:1.00" />
<!-- End 'G' -->
<!-- Begin 'T' -->
<rect height="1.428308" width="50.000000" x="210.000000" y="92.093084" fill="rgb(0, 100, 0)" style="fill-opacity:1.00" />
<rect height="8.926925" width="10.000000" x="230.000000" y="92.093084" fill="rgb(0, 100, 0)" style="fill-opacity:1.00" />
<!-- End 'T' -->
<!-- Begin 'A' -->
<polygon points=" 210.000000, 106.750302, 231.000000, 101.020008, 239.000000, 101.020008, 260.000000, 106.750302, 252.500000, 106.750302, 246.250000, 105.317729, 223.750000, 105.317729, 217.500000, 106.750302" fill="rgb(178, 34, 34)" style="fill-opacity:1.00" />
<!-- End 'A' -->
<!-- Begin 'C' -->
<ellipse cx="235.000000" cy="107.817805" rx="25.000000" ry="1.067503" fill="rgb(0, 0, 128)" style="fill-opacity:1.00" />
<ellipse cx="235.000000" cy="107.817805" rx="16.666667" ry="0.711669" fill="rgb(255, 255, 255)" style="fill-opacity:1.00" />
<rect height="1.067503" width="25.000000" x="235.000000" y="107.284053" fill="rgb(255, 255, 255)" style="fill-opacity:1.00" />
<!-- End 'C' -->
<!-- Begin 'G' -->
<ellipse cx="235.000000" cy="109.442654" rx="25.000000" ry="0.557346" fill="rgb(255, 165, 0)" style="fill-opacity:1.00" />
<ellipse cx="235.000000" cy="109.442654" rx="16.666667" ry="0.371564" fill="rgb(255, 255, 255)" style="fill-opacity:1.00" />
<rect height="0.557346" width="25.000000" x="235.000000" y="109.163981" fill="rgb(255, 255, 255)" style="fill-opacity:1.00" />
<rect height="0.139337" width="25.000000" x="235.000000" y="109.581990" fill="rgb(255, 165, 0)" style="fill-opacity:1.00" />
<rect height="0.418010" width="6.250000" x="253.750000" y="109.581990" fill="rgb(255, 165, 0)" style="fill-opacity:1.00" />
<!-- End 'G' -->
<!-- Begin 'A' -->
<polygon points=" 270.000000, 107.785720, 291.000000, 106.479682, 299.000000, 106.479682, 320.000000, 107.785720, 312.500000, 107.785720, 306.250000, 107.459210, 283.750000, 107.459210, 277.500000, 107.785720" fill="rgb(178, 34, 34)" style="fill-opacity:1.00" />
<!-- End 'A' -->
<!-- Begin 'G' -->
<ellipse cx="295.000000" cy="108.258718" rx="25.000000" ry="0.472998" fill="rgb(255, 165, 0)" style="fill-opacity:1.00" />
<ellipse cx="295.000000" cy="108.258718" rx="16.666667" ry="0.315332" fill="rgb(255, 255, 255)" style="fill-opacity:1.00" />
<rect height="0.472998" width="25.000000" x="295.000000" y="108.022219" fill="rgb(255, 255, 255)" style="fill-opacity:1.00" />
<rect height="0.118250" width="25.000000" x="295.000000" y="108.376968" fill="rgb(255, 165, 0)" style="fill-opacity:1.00" />
<rect height="0.354749" width="6.250000" x="313.750000" y="108.376968" fill="rgb(255, 165, 0)" style="fill-opacity:1.00" />
<!-- End 'G' -->
<!-- Begin 'T' -->
<rect height="0.109096" width="50.000000" x="270.000000" y="108.731717" fill="rgb(0, 100, 0)" style="fill-opacity:1.00" />
<rect height="0.681848" width="10.000000" x="290.000000" y="108.731717" fill="rgb(0, 100, 0)" style="fill-opacity:1.00" />
<!-- End 'T' -->
<!-- Begin 'C' -->
<ellipse cx="295.000000" cy="109.706782" rx="25.000000" ry="0.293218" fill="rgb(0, 0, 128)" style="fill-opacity:1.00" />
<ellipse cx="295.000000" cy="109.706782" rx="16.666667" ry="0.195478" fill="rgb(255, 255, 255)" style="fill-opacity:1.00" />
<rect height="0.293218" width="25.000000" x="295.000000" y="109.560173" fill="rgb(255, 255, 255)" style="fill-opacity:1.00" />
<!-- End 'C' -->
<!-- Begin 'T' -->
<rect height="1.018600" width="50.000000" x="330.000000" y="95.378154" fill="rgb(0, 100, 0)" style="fill-opacity:1.00" />
<rect height="6.366249" width="10.000000" x="350.000000" y="95.378154" fill="rgb(0, 100, 0)" style="fill-opacity:1.00" />
<!-- End 'T' -->
<!-- Begin 'A' -->
<polygon points=" 330.000000, 106.649735, 351.000000, 101.744403, 359.000000, 101.744403, 380.000000, 106.649735, 372.500000, 106.649735, 366.250000, 105.423402, 343.750000, 105.423402, 337.500000, 106.649735" fill="rgb(178, 34, 34)" style="fill-opacity:1.00" />
<!-- End 'A' -->
<!-- Begin 'G' -->
<ellipse cx="355.000000" cy="107.974323" rx="25.000000" ry="1.324587" fill="rgb(255, 165, 0)" style="fill-opacity:1.00" />
<ellipse cx="355.000000" cy="107.974323" rx="16.666667" ry="0.883058" fill="rgb(255, 255, 255)" style="fill-opacity:1.00" />
<rect height="1.324587" width="25.000000" x="355.000000" y="107.312029" fill="rgb(255, 255, 255)" style="fill-opacity:1.00" />
<rect height="0.331147" width="25.000000" x="355.000000" y="108.305469" fill="rgb(255, 165, 0)" style="fill-opacity:1.00" />
<rect height="0.993440" width="6.250000" x="373.750000" y="108.305469" fill="rgb(255, 165, 0)" style="fill-opacity:1.00" />
<!-- End 'G' -->
<!-- Begin 'C' -->
<ellipse cx="355.000000" cy="109.649455" rx="25.000000" ry="0.350545" fill="rgb(0, 0, 128)" style="fill-opacity:1.00" />
<ellipse cx="355.000000" cy="109.649455" rx="16.666667" ry="0.233697" fill="rgb(255, 255, 255)" style="fill-opacity:1.00" />
<rect height="0.350545" width="25.000000" x="355.000000" y="109.474182" fill="rgb(255, 255, 255)" style="fill-opacity:1.00" />
<!-- End 'C' -->
<!-- Begin 'T' -->
<rect height="0.813668" width="50.000000" x="390.000000" y="96.269633" fill="rgb(0, 100, 0)" style="fill-opacity:1.00" />
<rect height="5.085423" width="10.000000" x="410.000000" y="96.269633" fill="rgb(0, 100, 0)" style="fill-opacity:1.00" />
<!-- End 'T' -->
<!-- Begin 'G' -->
<ellipse cx="415.000000" cy="103.635322" rx="25.000000" ry="2.280266" fill="rgb(255, 165, 0)" style="fill-opacity:1.00" />
<ellipse cx="415.000000" cy="103.635322" rx="16.666667" ry="1.520178" fill="rgb(255, 255, 255)" style="fill-opacity:1.00" />
<rect height="2.280266" width="25.000000" x="415.000000" y="102.495189" fill="rgb(255, 255, 255)" style="fill-opacity:1.00" />
<rect height="0.570067" width="25.000000" x="415.000000" y="104.205388" fill="rgb(255, 165, 0)" style="fill-opacity:1.00" />
<rect height="1.710200" width="6.250000" x="433.750000" y="104.205388" fill="rgb(255, 165, 0)" style="fill-opacity:1.00" />
<!-- End 'G' -->
<!-- Begin 'A' -->
<polygon points=" 390.000000, 109.562127, 411.000000, 105.915588, 419.000000, 105.915588, 440.000000, 109.562127, 432.500000, 109.562127, 426.250000, 108.650493, 403.750000, 108.650493, 397.500000, 109.562127" fill="rgb(178, 34, 34)" style="fill-opacity:1.00" />
<!-- End 'A' -->
<!-- Begin 'C' -->
<ellipse cx="415.000000" cy="109.781064" rx="25.000000" ry="0.218936" fill="rgb(0, 0, 128)" style="fill-opacity:1.00" />
<ellipse cx="415.000000" cy="109.781064" rx="16.666667" ry="0.145958" fill="rgb(255, 255, 255)" style="fill-opacity:1.00" />
<rect height="0.218936" width="25.000000" x="415.000000" y="109.671596" fill="rgb(255, 255, 255)" style="fill-opacity:1.00" />
<!-- End 'C' -->
<!-- Begin 'T' -->
<rect height="2.350768" width="50.000000" x="450.000000" y="86.423984" fill="rgb(0, 100, 0)" style="fill-opacity:1.00" />
<rect height="14.692302" width="10.000000" x="470.000000" y="86.423984" fill="rgb(0, 100, 0)" style="fill-opacity:1.00" />
<!-- End 'T' -->
<!-- Begin 'C' -->
<ellipse cx="475.000000" cy="103.193675" rx="25.000000" ry="2.077389" fill="rgb(0, 0, 128)" style="fill-opacity:1.00" />
<ellipse cx="475.000000" cy="103.193675" rx="16.666667" ry="1.384926" fill="rgb(255, 255, 255)" style="fill-opacity:1.00" />
<rect height="2.077389" width="25.000000" x="475.000000" y="102.154980" fill="rgb(255, 255, 255)" style="fill-opacity:1.00" />
<!-- End 'C' -->
<!-- Begin 'A' -->
<polygon points=" 450.000000, 108.004466, 471.000000, 105.271064, 479.000000, 105.271064, 500.000000, 108.004466, 492.500000, 108.004466, 486.250000, 107.321116, 463.750000, 107.321116, 457.500000, 108.004466" fill="rgb(178, 34, 34)" style="fill-opacity:1.00" />
<!-- End 'A' -->
<!-- Begin 'G' -->
<ellipse cx="475.000000" cy="109.002233" rx="25.000000" ry="0.997767" fill="rgb(255, 165, 0)" style="fill-opacity:1.00" />
<ellipse cx="475.000000" cy="109.002233" rx="16.666667" ry="0.665178" fill="rgb(255, 255, 255)" style="fill-opacity:1.00" />
<rect height="0.997767" width="25.000000" x="475.000000" y="108.503350" fill="rgb(255, 255, 255)" style="fill-opacity:1.00" />
<rect height="0.249442" width="25.000000" x="475.000000" y="109.251675" fill="rgb(255, 165, 0)" style="fill-opacity:1.00" />
<rect height="0.748325" width="6.250000" x="493.750000" y="109.251675" fill="rgb(255, 165, 0)" style="fill-opacity:1.00" />
<!-- End 'G' -->
<!-- Begin 'A' -->
<polygon points=" 510.000000, 102.032651, 531.000000, 90.661876, 539.000000, 90.661876, 560.000000, 102.032651, 552.500000, 102.032651, 546.250000, 99.189957, 523.750000, 99.189957, 517.500000, 102.032651" fill="rgb(178, 34, 34)" style="fill-opacity:1.00" />
<polygon points=" 535.000000, 92.936031, 527.000000, 96.484341, 542.000000, 96.484341" fill="rgb(255, 255, 255)" style="fill-opacity:1.00" />
<!-- End 'A' -->
<!-- Begin 'T' -->
<rect height="0.564521" width="50.000000" x="510.000000" y="102.032651" fill="rgb(0, 100, 0)" style="fill-opacity:1.00" />
<rect height="3.528255" width="10.000000" x="530.000000" y="102.032651" fill="rgb(0, 100, 0)" style="fill-opacity:1.00" />
<!-- End 'T' -->
<!-- Begin 'G' -->
<ellipse cx="535.000000" cy="106.791399" rx="25.000000" ry="1.230493" fill="rgb(255, 165, 0)" style="fill-opacity:1.00" />
<ellipse cx="535.000000" cy="106.791399" rx="16.666667" ry="0.820328" fill="rgb(255, 255, 255)" style="fill-opacity:1.00" />
<rect height="1.230493" width="25.000000" x="535.000000" y="106.176153" fill="rgb(255, 255, 255)" style="fill-opacity:1.00" />
<rect height="0.307623" width="25.000000" x="535.000000" y="107.099022" fill="rgb(255, 165, 0)" style="fill-opacity:1.00" />
<rect height="0.922870" width="6.250000" x="553.750000" y="107.099022" fill="rgb(255, 165, 0)" style="fill-opacity:1.00" />
<!-- End 'G' -->
<!-- Begin 'C' -->
<ellipse cx="535.000000" cy="109.010946" rx="25.000000" ry="0.989054" fill="rgb(0, 0, 128)" style="fill-opacity:1.00" />
<ellipse cx="535.000000" cy="109.010946" rx="16.666667" ry="0.659369" fill="rgb(255, 255, 255)" style="fill-opacity:1.00" />
<rect height="0.989054" width="25.000000" x="535.000000" y="108.516419" fill="rgb(255, 255, 255)" style="fill-opacity:1.00" />
<!-- End 'C' -->
<!-- Begin 'A' -->
<polygon points=" 570.000000, 103.934285, 591.000000, 99.696777, 599.000000, 99.696777, 620.000000, 103.934285, 612.500000, 103.934285, 606.250000, 102.874908, 583.750000, 102.874908, 577.500000, 103.934285" fill="rgb(178, 34, 34)" style="fill-opacity:1.00" />
<!-- End 'A' -->
<!-- Begin 'C' -->
<ellipse cx="595.000000" cy="105.417844" rx="25.000000" ry="1.483559" fill="rgb(0, 0, 128)" style="fill-opacity:1.00" />
<ellipse cx="595.000000" cy="105.417844" rx="16.666667" ry="0.989039" fill="rgb(255, 255, 255)" style="fill-opacity:1.00" />
<rect height="1.483559" width="25.000000" x="595.000000" y="104.676065" fill="rgb(255, 255, 255)" style="fill-opacity:1.00" />
<!-- End 'C' -->
<!-- Begin 'T' -->
<rect height="0.387035" width="50.000000" x="570.000000" y="106.901404" fill="rgb(0, 100, 0)" style="fill-opacity:1.00" />
<rect height="2.418966" width="10.000000" x="590.000000" y="106.901404" fill="rgb(0, 100, 0)" style="fill-opacity:1.00" />
<!-- End 'T' -->
<!-- Begin 'G' -->
<ellipse cx="595.000000" cy="109.660185" rx="25.000000" ry="0.339815" fill="rgb(255, 165, 0)" style="fill-opacity:1.00" />
<ellipse cx="595.000000" cy="109.660185" rx="16.666667" ry="0.226543" fill="rgb(255, 255, 255)" style="fill-opacity:1.00" />
<rect height="0.339815" width="25.000000" x="595.000000" y="109.490277" fill="rgb(255, 255, 255)" style="fill-opacity:1.00" />
<rect height="0.084954" width="25.000000" x="595.000000" y="109.745139" fill="rgb(255, 165, 0)" style="fill-opacity:1.00" />
<rect height="0.254861" width="6.250000" x="613.750000" y="109.745139" fill="rgb(255, 165, 0)" style="fill-opacity:1.00" />
<!-- End 'G' -->
<!-- Begin 'A' -->
<polygon points=" 630.000000, 100.798287, 651.000000, 92.073985, 659.000000, 92.073985, 680.000000, 100.798287, 672.500000, 100.798287, 666.250000, 98.617211, 643.750000, 98.617211, 637.500000, 100.798287" fill="rgb(178, 34, 34)" style="fill-opacity:1.00" />
<polygon points=" 655.000000, 93.818845, 647.000000, 96.308566, 662.000000, 96.308566" fill="rgb(255, 255, 255)" style="fill-opacity:1.00" />
<!-- End 'A' -->
<!-- Begin 'T' -->
<rect height="0.948063" width="50.000000" x="630.000000" y="100.798287" fill="rgb(0, 100, 0)" style="fill-opacity:1.00" />
<rect height="5.925394" width="10.000000" x="650.000000" y="100.798287" fill="rgb(0, 100, 0)" style="fill-opacity:1.00" />
<!-- End 'T' -->
<!-- Begin 'C' -->
<ellipse cx="655.000000" cy="107.879559" rx="25.000000" ry="1.155878" fill="rgb(0, 0, 128)" style="fill-opacity:1.00" />
<ellipse cx="655.000000" cy="107.879559" rx="16.666667" ry="0.770585" fill="rgb(255, 255, 255)" style="fill-opacity:1.00" />
<rect height="1.155878" width="25.000000" x="655.000000" y="107.301620" fill="rgb(255, 255, 255)" style="fill-opacity:1.00" />
<!-- End 'C' -->
<!-- Begin 'G' -->
<ellipse cx="655.000000" cy="109.517719" rx="25.000000" ry="0.482281" fill="rgb(255, 165, 0)" style="fill-opacity:1.00" />
<ellipse cx="655.000000" cy="109.517719" rx="16.666667" ry="0.321521" fill="rgb(255, 255, 255)" style="fill-opacity:1.00" />
<rect height="0.482281" width="25.000000" x="655.000000" y="109.276578" fill="rgb(255, 255, 255)" style="fill-opacity:1.00" />
<rect height="0.120570" width="25.000000" x="655.000000" y="109.638289" fill="rgb(255, 165, 0)" style="fill-opacity:1.00" />
<rect height="0.361711" width="6.250000" x="673.750000" y="109.638289" fill="rgb(255, 165, 0)" style="fill-opacity:1.00" />
<!-- End 'G' -->
<!-- Begin 'T' -->
<rect height="0.277334" width="50.000000" x="690.000000" y="105.019254" fill="rgb(0, 100, 0)" style="fill-opacity:1.00" />
<rect height="1.733339" width="10.000000" x="710.000000" y="105.019254" fill="rgb(0, 100, 0)" style="fill-opacity:1.00" />
<!-- End 'T' -->
<!-- Begin 'C' -->
<ellipse cx="715.000000" cy="107.587540" rx="25.000000" ry="0.834946" fill="rgb(0, 0, 128)" style="fill-opacity:1.00" />
<ellipse cx="715.000000" cy="107.587540" rx="16.666667" ry="0.556631" fill="rgb(255, 255, 255)" style="fill-opacity:1.00" />
<rect height="0.834946" width="25.000000" x="715.000000" y="107.170067" fill="rgb(255, 255, 255)" style="fill-opacity:1.00" />
<!-- End 'C' -->
<!-- Begin 'G' -->
<ellipse cx="715.000000" cy="108.829244" rx="25.000000" ry="0.406758" fill="rgb(255, 165, 0)" style="fill-opacity:1.00" />
<ellipse cx="715.000000" cy="108.829244" rx="16.666667" ry="0.271172" fill="rgb(255, 255, 255)" style="fill-opacity:1.00" />
<rect height="0.406758" width="25.000000" x="715.000000" y="108.625865" fill="rgb(255, 255, 255)" style="fill-opacity:1.00" />
<rect height="0.101689" width="25.000000" x="715.000000" y="108.930933" fill="rgb(255, 165, 0)" style="fill-opacity:1.00" />
<rect height="0.305068" width="6.250000" x="733.750000" y="108.930933" fill="rgb(255, 165, 0)" style="fill-opacity:1.00" />
<!-- End 'G' -->
<!-- Begin 'A' -->
<polygon points=" 690.000000, 110.000000, 711.000000, 109.236002, 719.000000, 109.236002, 740.000000, 110.000000, 732.500000, 110.000000, 726.250000, 109.809000, 703.750000, 109.809000, 697.500000, 110.000000" fill="rgb(178, 34, 34)" style="fill-opacity:1.00" />
<!-- End 'A' -->
<!-- Begin 'A' -->
<polygon points=" 750.000000, 100.278252, 771.000000, 88.256686, 779.000000, 88.256686, 800.000000, 100.278252, 792.500000, 100.278252, 786.250000, 97.272860, 763.750000, 97.272860, 757.500000, 100.278252" fill="rgb(178, 34, 34)" style="fill-opacity:1.00" />
<polygon points=" 775.000000, 90.660999, 767.000000, 94.469625, 782.000000, 94.469625" fill="rgb(255, 255, 255)" style="fill-opacity:1.00" />
<!-- End 'A' -->
<!-- Begin 'T' -->
<rect height="0.995303" width="50.000000" x="750.000000" y="100.278252" fill="rgb(0, 100, 0)" style="fill-opacity:1.00" />
<rect height="6.220644" width="10.000000" x="770.000000" y="100.278252" fill="rgb(0, 100, 0)" style="fill-opacity:1.00" />
<!-- End 'T' -->
<!-- Begin 'G' -->
<ellipse cx="775.000000" cy="107.620654" rx="25.000000" ry="1.121759" fill="rgb(255, 165, 0)" style="fill-opacity:1.00" />
<ellipse cx="775.000000" cy="107.620654" rx="16.666667" ry="0.747839" fill="rgb(255, 255, 255)" style="fill-opacity:1.00" />
<rect height="1.121759" width="25.000000" x="775.000000" y="107.059775" fill="rgb(255, 255, 255)" style="fill-opacity:1.00" />
<rect height="0.280440" width="25.000000" x="775.000000" y="107.901094" fill="rgb(255, 165, 0)" style="fill-opacity:1.00" />
<rect height="0.841319" width="6.250000" x="793.750000" y="107.901094" fill="rgb(255, 165, 0)" style="fill-opacity:1.00" />
<!-- End 'G' -->
<!-- Begin 'C' -->
<ellipse cx="775.000000" cy="109.371206" rx="25.000000" ry="0.628794" fill="rgb(0, 0, 128)" style="fill-opacity:1.00" />
<ellipse cx="775.000000" cy="109.371206" rx="16.666667" ry="0.419196" fill="rgb(255, 255, 255)" style="fill-opacity:1.00" />
<rect height="0.628794" width="25.000000" x="775.000000" y="109.056810" fill="rgb(255, 255, 255)" style="fill-opacity:1.00" />
<!-- End 'C' -->
<!-- Begin 'T' -->
<rect height="0.093651" width="50.000000" x="810.000000" y="108.181756" fill="rgb(0, 100, 0)" style="fill-opacity:1.00" />
<rect height="0.585318" width="10.000000" x="830.000000" y="108.181756" fill="rgb(0, 100, 0)" style="fill-opacity:1.00" />
<!-- End 'T' -->
<!-- Begin 'A' -->
<polygon points=" 810.000000, 109.273845, 831.000000, 108.767074, 839.000000, 108.767074, 860.000000, 109.273845, 852.500000, 109.273845, 846.250000, 109.147152, 823.750000, 109.147152, 817.500000, 109.273845" fill="rgb(178, 34, 34)" style="fill-opacity:1.00" />
<!-- End 'A' -->
<!-- Begin 'G' -->
<ellipse cx="835.000000" cy="109.478548" rx="25.000000" ry="0.204703" fill="rgb(255, 165, 0)" style="fill-opacity:1.00" />
<ellipse cx="835.000000" cy="109.478548" rx="16.666667" ry="0.136469" fill="rgb(255, 255, 255)" style="fill-opacity:1.00" />
<rect height="0.204703" width="25.000000" x="835.000000" y="109.376197" fill="rgb(255, 255, 255)" style="fill-opacity:1.00" />
<rect height="0.051176" width="25.000000" x="835.000000" y="109.529724" fill="rgb(255, 165, 0)" style="fill-opacity:1.00" />
<rect height="0.153527" width="6.250000" x="853.750000" y="109.529724" fill="rgb(255, 165, 0)" style="fill-opacity:1.00" />
<!-- End 'G' -->
<!-- Begin 'C' -->
<ellipse cx="835.000000" cy="109.841626" rx="25.000000" ry="0.158374" fill="rgb(0, 0, 128)" style="fill-opacity:1.00" />
<ellipse cx="835.000000" cy="109.841626" rx="16.666667" ry="0.105583" fill="rgb(255, 255, 255)" style="fill-opacity:1.00" />
<rect height="0.158374" width="25.000000" x="835.000000" y="109.762439" fill="rgb(255, 255, 255)" style="fill-opacity:1.00" />
<!-- End 'C' -->
<!-- Begin 'T' -->
<rect height="0.240484" width="50.000000" x="870.000000" y="105.801097" fill="rgb(0, 100, 0)" style="fill-opacity:1.00" />
<rect height="1.503023" width="10.000000" x="890.000000" y="105.801097" fill="rgb(0, 100, 0)" style="fill-opacity:1.00" />
<!-- End 'T' -->
<!-- Begin 'A' -->
<polygon points=" 870.000000, 108.555777, 891.000000, 107.304120, 899.000000, 107.304120, 920.000000, 108.555777, 912.500000, 108.555777, 906.250000, 108.242863, 883.750000, 108.242863, 877.500000, 108.555777" fill="rgb(178, 34, 34)" style="fill-opacity:1.00" />
<!-- End 'A' -->
<!-- Begin 'C' -->
<ellipse cx="895.000000" cy="108.983792" rx="25.000000" ry="0.428015" fill="rgb(0, 0, 128)" style="fill-opacity:1.00" />
<ellipse cx="895.000000" cy="108.983792" rx="16.666667" ry="0.285344" fill="rgb(255, 255, 255)" style="fill-opacity:1.00" />
<rect height="0.428015" width="25.000000" x="895.000000" y="108.769784" fill="rgb(255, 255, 255)" style="fill-opacity:1.00" />
<!-- End 'C' -->
<!-- Begin 'G' -->
<ellipse cx="895.000000" cy="109.705904" rx="25.000000" ry="0.294096" fill="rgb(255, 165, 0)" style="fill-opacity:1.00" />
<ellipse cx="895.000000" cy="109.705904" rx="16.666667" ry="0.196064" fill="rgb(255, 255, 255)" style="fill-opacity:1.00" />
<rect height="0.294096" width="25.000000" x="895.000000" y="109.558856" fill="rgb(255, 255, 255)" style="fill-opacity:1.00" />
<rect height="0.073524" width="25.000000" x="895.000000" y="109.779428" fill="rgb(255, 165, 0)" style="fill-opacity:1.00" />
<rect height="0.220572" width="6.250000" x="913.750000" y="109.779428" fill="rgb(255, 165, 0)" style="fill-opacity:1.00" />
<!-- End 'G' -->
<!-- Begin 'A' -->
<polygon points=" 930.000000, 108.446514, 951.000000, 107.731712, 959.000000, 107.731712, 980.000000, 108.446514, 972.500000, 108.446514, 966.250000, 108.267814, 943.750000, 108.267814, 937.500000, 108.446514" fill="rgb(178, 34, 34)" style="fill-opacity:1.00" />
<!-- End 'A' -->
<!-- Begin 'T' -->
<rect height="0.111256" width="50.000000" x="930.000000" y="108.446514" fill="rgb(0, 100, 0)" style="fill-opacity:1.00" />
<rect height="0.695350" width="10.000000" x="950.000000" y="108.446514" fill="rgb(0, 100, 0)" style="fill-opacity:1.00" />
<!-- End 'T' -->
<!-- Begin 'G' -->
<ellipse cx="955.000000" cy="109.375323" rx="25.000000" ry="0.233459" fill="rgb(255, 165, 0)" style="fill-opacity:1.00" />
<ellipse cx="955.000000" cy="109.375323" rx="16.666667" ry="0.155639" fill="rgb(255, 255, 255)" style="fill-opacity:1.00" />
<rect height="0.233459" width="25.000000" x="955.000000" y="109.258594" fill="rgb(255, 255, 255)" style="fill-opacity:1.00" />
<rect height="0.058365" width="25.000000" x="955.000000" y="109.433688" fill="rgb(255, 165, 0)" style="fill-opacity:1.00" />
<rect height="0.175094" width="6.250000" x="973.750000" y="109.433688" fill="rgb(255, 165, 0)" style="fill-opacity:1.00" />
<!-- End 'G' -->
<!-- Begin 'C' -->
<ellipse cx="955.000000" cy="109.804391" rx="25.000000" ry="0.195609" fill="rgb(0, 0, 128)" style="fill-opacity:1.00" />
<ellipse cx="955.000000" cy="109.804391" rx="16.666667" ry="0.130406" fill="rgb(255, 255, 255)" style="fill-opacity:1.00" />
<rect height="0.195609" width="25.000000" x="955.000000" y="109.706587" fill="rgb(255, 255, 255)" style="fill-opacity:1.00" />
<!-- End 'C' -->
<text x="520.000000" y="165">
IC = 3.22
</text>

</svg>
