<?xml version="1.0" encoding="UTF-8" standalone="yes"?>
                 <!DOCTYPE svg PUBLIC "-//W3C//DTD SVG 1.0//EN" "http://www.w3.org/TR/2001/REC-SVG-20010904/DTD/svg10.dtd">
                 <svg height="170" width="720" xmlns="http://www.w3.org/2000/svg" xmlns:xlink="http://www.w3.org/1999/xlink">
                 <line x1="85" y1="120" x2="687" y2="120" style="stroke:rgb(99,99,99);stroke-width:2" />
<rect height="7.000000" width="2.000000" x="85.000000" y="120.000000" fill="rgb(0, 0, 0)" style="fill-opacity:1.00" />
<text x="107.000000" y="140">
1
</text>
<rect height="7.000000" width="2.000000" x="145.000000" y="120.000000" fill="rgb(0, 0, 0)" style="fill-opacity:1.00" />
<text x="167.000000" y="140">
2
</text>
<rect height="7.000000" width="2.000000" x="205.000000" y="120.000000" fill="rgb(0, 0, 0)" style="fill-opacity:1.00" />
<text x="227.000000" y="140">
3
</text>
<rect height="7.000000" width="2.000000" x="265.000000" y="120.000000" fill="rgb(0, 0, 0)" style="fill-opacity:1.00" />
<text x="287.000000" y="140">
4
</text>
<rect height="7.000000" width="2.000000" x="325.000000" y="120.000000" fill="rgb(0, 0, 0)" style="fill-opacity:1.00" />
<text x="347.000000" y="140">
5
</text>
<rect height="7.000000" width="2.000000" x="385.000000" y="120.000000" fill="rgb(0, 0, 0)" style="fill-opacity:1.00" />
<text x="407.000000" y="140">
6
</text>
<rect height="7.000000" width="2.000000" x="445.000000" y="120.000000" fill="rgb(0, 0, 0)" style="fill-opacity:1.00" />
<text x="467.000000" y="140">
7
</text>
<rect height="7.000000" width="2.000000" x="505.000000" y="120.000000" fill="rgb(0, 0, 0)" style="fill-opacity:1.00" />
<text x="527.000000" y="140">
8
</text>
<rect height="7.000000" width="2.000000" x="565.000000" y="120.000000" fill="rgb(0, 0, 0)" style="fill-opacity:1.00" />
<text x="587.000000" y="140">
9
</text>
<rect height="7.000000" width="2.000000" x="625.000000" y="120.000000" fill="rgb(0, 0, 0)" style="fill-opacity:1.00" />
<text x="647.000000" y="140">
10
</text>
<rect height="7.000000" width="2.000000" x="685.000000" y="120.000000" fill="rgb(0, 0, 0)" style="fill-opacity:1.00" />
<line x1="80" y1="112" x2="80" y2="10" style="stroke:rgb(99,99,99);stroke-width:2" />
<rect height="2.000000" width="7.000000" x="73.000000" y="110.000000" fill="rgb(0, 0, 0)" style="fill-opacity:1.00" />
<text x="63" y="115">
0
</text>
<rect height="2.000000" width="7.000000" x="73.000000" y="60.000000" fill="rgb(0, 0, 0)" style="fill-opacity:1.00" />
<text x="63" y="65">
1
</text>
<rect height="2.000000" width="7.000000" x="73.000000" y="10.000000" fill="rgb(0, 0, 0)" style="fill-opacity:1.00" />
<text x="63" y="15">
2
</text>
<text x="50" y="65"
transform="rotate(-90, 50, 70)">
bits
</text>
<!-- Begin 'A' -->
<polygon points=" 90.000000, 99.269387, 111.000000, 85.168468, 119.000000, 85.168468, 140.000000, 99.269387, 132.500000, 99.269387, 126.250000, 95.744157, 103.750000, 95.744157, 97.500000, 99.269387" fill="rgb(178, 34, 34)" style="fill-opacity:1.00" />
<polygon points=" 115.000000, 87.988652, 107.000000, 92.629019, 122.000000, 92.629019" fill="rgb(255, 255, 255)" style="fill-opacity:1.00" />
<!-- End 'A' -->
<!-- Begin 'G' -->
<ellipse cx="115.000000" cy="102.712838" rx="25.000000" ry="3.443452" fill="rgb(255, 165, 0)" style="fill-opacity:1.00" />
<ellipse cx="115.000000" cy="102.712838" rx="16.666667" ry="2.295634" fill="rgb(255, 255, 255)" style="fill-opacity:1.00" />
<rect height="3.443452" width="25.000000" x="115.000000" y="100.991113" fill="rgb(255, 255, 255)" style="fill-opacity:1.00" />
<rect height="0.860863" width="25.000000" x="115.000000" y="103.573701" fill="rgb(255, 165, 0)" style="fill-opacity:1.00" />
<rect height="2.582589" width="6.250000" x="133.750000" y="103.573701" fill="rgb(255, 165, 0)" style="fill-opacity:1.00" />
<!-- End 'G' -->
<!-- Begin 'C' -->
<ellipse cx="115.000000" cy="107.704607" rx="25.000000" ry="1.548317" fill="rgb(0, 0, 128)" style="fill-opacity:1.00" />
<ellipse cx="115.000000" cy="107.704607" rx="16.666667" ry="1.032211" fill="rgb(255, 255, 255)" style="fill-opacity:1.00" />
<rect height="1.548317" width="25.000000" x="115.000000" y="106.930448" fill="rgb(255, 255, 255)" style="fill-opacity:1.00" />
<!-- End 'C' -->
<!-- Begin 'T' -->
<rect height="0.119532" width="50.000000" x="90.000000" y="109.252924" fill="rgb(0, 100, 0)" style="fill-opacity:1.00" />
<rect height="0.747076" width="10.000000" x="110.000000" y="109.252924" fill="rgb(0, 100, 0)" style="fill-opacity:1.00" />
<!-- End 'T' -->
<!-- Begin 'T' -->
<rect height="15.457159" width="50.000000" x="150.000000" y="12.846687" fill="rgb(0, 100, 0)" style="fill-opacity:1.00" />
<rect height="96.607245" width="10.000000" x="170.000000" y="12.846687" fill="rgb(0, 100, 0)" style="fill-opacity:1.00" />
<!-- End 'T' -->
<!-- Begin 'C' -->
<ellipse cx="175.000000" cy="109.611809" rx="25.000000" ry="0.157877" fill="rgb(0, 0, 128)" style="fill-opacity:1.00" />
<ellipse cx="175.000000" cy="109.611809" rx="16.666667" ry="0.105251" fill="rgb(255, 255, 255)" style="fill-opacity:1.00" />
<rect height="0.157877" width="25.000000" x="175.000000" y="109.532870" fill="rgb(255, 255, 255)" style="fill-opacity:1.00" />
<!-- End 'C' -->
<!-- Begin 'A' -->
<polygon points=" 150.000000, 109.970401, 171.000000, 109.769685, 179.000000, 109.769685, 200.000000, 109.970401, 192.500000, 109.970401, 186.250000, 109.920222, 163.750000, 109.920222, 157.500000, 109.970401" fill="rgb(178, 34, 34)" style="fill-opacity:1.00" />
<!-- End 'A' -->
<!-- Begin 'G' -->
<ellipse cx="175.000000" cy="109.985201" rx="25.000000" ry="0.014799" fill="rgb(255, 165, 0)" style="fill-opacity:1.00" />
<ellipse cx="175.000000" cy="109.985201" rx="16.666667" ry="0.009866" fill="rgb(255, 255, 255)" style="fill-opacity:1.00" />
<rect height="0.014799" width="25.000000" x="175.000000" y="109.977801" fill="rgb(255, 255, 255)" style="fill-opacity:1.00" />
<rect height="0.003700" width="25.000000" x="175.000000" y="109.988900" fill="rgb(255, 165, 0)" style="fill-opacity:1.00" />
<rect height="0.011100" width="6.250000" x="193.750000" y="109.988900" fill="rgb(255, 165, 0)" style="fill-opacity:1.00" />
<!-- End 'G' -->
<!-- Begin 'T' -->
<rect height="7.333624" width="50.000000" x="210.000000" y="50.203379" fill="rgb(0, 100, 0)" style="fill-opacity:1.00" />
<rect height="45.835149" width="10.000000" x="230.000000" y="50.203379" fill="rgb(0, 100, 0)" style="fill-opacity:1.00" />
<!-- End 'T' -->
<!-- Begin 'G' -->
<ellipse cx="235.000000" cy="102.953154" rx="25.000000" ry="6.914626" fill="rgb(255, 165, 0)" style="fill-opacity:1.00" />
<ellipse cx="235.000000" cy="102.953154" rx="16.666667" ry="4.609751" fill="rgb(255, 255, 255)" style="fill-opacity:1.00" />
<rect height="6.914626" width="25.000000" x="235.000000" y="99.495841" fill="rgb(255, 255, 255)" style="fill-opacity:1.00" />
<rect height="1.728656" width="25.000000" x="235.000000" y="104.681810" fill="rgb(255, 165, 0)" style="fill-opacity:1.00" />
<rect height="5.185969" width="6.250000" x="253.750000" y="104.681810" fill="rgb(255, 165, 0)" style="fill-opacity:1.00" />
<!-- End 'G' -->
<!-- Begin 'A' -->
<polygon points=" 210.000000, 109.957931, 231.000000, 109.867779, 239.000000, 109.867779, 260.000000, 109.957931, 252.500000, 109.957931, 246.250000, 109.935393, 223.750000, 109.935393, 217.500000, 109.957931" fill="rgb(178, 34, 34)" style="fill-opacity:1.00" />
<!-- End 'A' -->
<!-- Begin 'C' -->
<ellipse cx="235.000000" cy="109.978966" rx="25.000000" ry="0.021034" fill="rgb(0, 0, 128)" style="fill-opacity:1.00" />
<ellipse cx="235.000000" cy="109.978966" rx="16.666667" ry="0.014023" fill="rgb(255, 255, 255)" style="fill-opacity:1.00" />
<rect height="0.021034" width="25.000000" x="235.000000" y="109.968449" fill="rgb(255, 255, 255)" style="fill-opacity:1.00" />
<!-- End 'C' -->
<!-- Begin 'G' -->
<ellipse cx="295.000000" cy="90.950131" rx="25.000000" ry="6.642810" fill="rgb(255, 165, 0)" style="fill-opacity:1.00" />
<ellipse cx="295.000000" cy="90.950131" rx="16.666667" ry="4.428540" fill="rgb(255, 255, 255)" style="fill-opacity:1.00" />
<rect height="6.642810" width="25.000000" x="295.000000" y="87.628726" fill="rgb(255, 255, 255)" style="fill-opacity:1.00" />
<rect height="1.660703" width="25.000000" x="295.000000" y="92.610834" fill="rgb(255, 165, 0)" style="fill-opacity:1.00" />
<rect height="4.982108" width="6.250000" x="313.750000" y="92.610834" fill="rgb(255, 165, 0)" style="fill-opacity:1.00" />
<!-- End 'G' -->
<!-- Begin 'A' -->
<polygon points=" 270.000000, 105.212754, 291.000000, 97.592941, 299.000000, 97.592941, 320.000000, 105.212754, 312.500000, 105.212754, 306.250000, 103.307801, 283.750000, 103.307801, 277.500000, 105.212754" fill="rgb(178, 34, 34)" style="fill-opacity:1.00" />
<!-- End 'A' -->
<!-- Begin 'T' -->
<rect height="0.753459" width="50.000000" x="270.000000" y="105.212754" fill="rgb(0, 100, 0)" style="fill-opacity:1.00" />
<rect height="4.709120" width="10.000000" x="290.000000" y="105.212754" fill="rgb(0, 100, 0)" style="fill-opacity:1.00" />
<!-- End 'T' -->
<!-- Begin 'C' -->
<ellipse cx="295.000000" cy="109.960937" rx="25.000000" ry="0.039063" fill="rgb(0, 0, 128)" style="fill-opacity:1.00" />
<ellipse cx="295.000000" cy="109.960937" rx="16.666667" ry="0.026042" fill="rgb(255, 255, 255)" style="fill-opacity:1.00" />
<rect height="0.039063" width="25.000000" x="295.000000" y="109.941405" fill="rgb(255, 255, 255)" style="fill-opacity:1.00" />
<!-- End 'C' -->
<!-- Begin 'C' -->
<ellipse cx="355.000000" cy="91.417677" rx="25.000000" ry="7.583839" fill="rgb(0, 0, 128)" style="fill-opacity:1.00" />
<ellipse cx="355.000000" cy="91.417677" rx="16.666667" ry="5.055893" fill="rgb(255, 255, 255)" style="fill-opacity:1.00" />
<rect height="7.583839" width="25.000000" x="355.000000" y="87.625757" fill="rgb(255, 255, 255)" style="fill-opacity:1.00" />
<!-- End 'C' -->
<!-- Begin 'T' -->
<rect height="1.231092" width="50.000000" x="330.000000" y="99.001516" fill="rgb(0, 100, 0)" style="fill-opacity:1.00" />
<rect height="7.694323" width="10.000000" x="350.000000" y="99.001516" fill="rgb(0, 100, 0)" style="fill-opacity:1.00" />
<!-- End 'T' -->
<!-- Begin 'A' -->
<polygon points=" 330.000000, 108.583478, 351.000000, 106.695839, 359.000000, 106.695839, 380.000000, 108.583478, 372.500000, 108.583478, 366.250000, 108.111568, 343.750000, 108.111568, 337.500000, 108.583478" fill="rgb(178, 34, 34)" style="fill-opacity:1.00" />
<!-- End 'A' -->
<!-- Begin 'G' -->
<ellipse cx="355.000000" cy="109.291739" rx="25.000000" ry="0.708261" fill="rgb(255, 165, 0)" style="fill-opacity:1.00" />
<ellipse cx="355.000000" cy="109.291739" rx="16.666667" ry="0.472174" fill="rgb(255, 255, 255)" style="fill-opacity:1.00" />
<rect height="0.708261" width="25.000000" x="355.000000" y="108.937608" fill="rgb(255, 255, 255)" style="fill-opacity:1.00" />
<rect height="0.177065" width="25.000000" x="355.000000" y="109.468804" fill="rgb(255, 165, 0)" style="fill-opacity:1.00" />
<rect height="0.531196" width="6.250000" x="373.750000" y="109.468804" fill="rgb(255, 165, 0)" style="fill-opacity:1.00" />
<!-- End 'G' -->
<!-- Begin 'G' -->
<ellipse cx="415.000000" cy="91.105250" rx="25.000000" ry="7.842927" fill="rgb(255, 165, 0)" style="fill-opacity:1.00" />
<ellipse cx="415.000000" cy="91.105250" rx="16.666667" ry="5.228618" fill="rgb(255, 255, 255)" style="fill-opacity:1.00" />
<rect height="7.842927" width="25.000000" x="415.000000" y="87.183786" fill="rgb(255, 255, 255)" style="fill-opacity:1.00" />
<rect height="1.960732" width="25.000000" x="415.000000" y="93.065982" fill="rgb(255, 165, 0)" style="fill-opacity:1.00" />
<rect height="5.882195" width="6.250000" x="433.750000" y="93.065982" fill="rgb(255, 165, 0)" style="fill-opacity:1.00" />
<!-- End 'G' -->
<!-- Begin 'A' -->
<polygon points=" 390.000000, 106.677732, 411.000000, 98.948177, 419.000000, 98.948177, 440.000000, 106.677732, 432.500000, 106.677732, 426.250000, 104.745343, 403.750000, 104.745343, 397.500000, 106.677732" fill="rgb(178, 34, 34)" style="fill-opacity:1.00" />
<!-- End 'A' -->
<!-- Begin 'T' -->
<rect height="0.303508" width="50.000000" x="390.000000" y="106.677732" fill="rgb(0, 100, 0)" style="fill-opacity:1.00" />
<rect height="1.896925" width="10.000000" x="410.000000" y="106.677732" fill="rgb(0, 100, 0)" style="fill-opacity:1.00" />
<!-- End 'T' -->
<!-- Begin 'C' -->
<ellipse cx="415.000000" cy="109.287328" rx="25.000000" ry="0.712672" fill="rgb(0, 0, 128)" style="fill-opacity:1.00" />
<ellipse cx="415.000000" cy="109.287328" rx="16.666667" ry="0.475115" fill="rgb(255, 255, 255)" style="fill-opacity:1.00" />
<rect height="0.712672" width="25.000000" x="415.000000" y="108.930992" fill="rgb(255, 255, 255)" style="fill-opacity:1.00" />
<!-- End 'C' -->
<!-- Begin 'C' -->
<ellipse cx="475.000000" cy="90.170168" rx="25.000000" ry="7.032147" fill="rgb(0, 0, 128)" style="fill-opacity:1.00" />
<ellipse cx="475.000000" cy="90.170168" rx="16.666667" ry="4.688098" fill="rgb(255, 255, 255)" style="fill-opacity:1.00" />
<rect height="7.032147" width="25.000000" x="475.000000" y="86.654094" fill="rgb(255, 255, 255)" style="fill-opacity:1.00" />
<!-- End 'C' -->
<!-- Begin 'T' -->
<rect height="1.267343" width="50.000000" x="450.000000" y="97.202315" fill="rgb(0, 100, 0)" style="fill-opacity:1.00" />
<rect height="7.920896" width="10.000000" x="470.000000" y="97.202315" fill="rgb(0, 100, 0)" style="fill-opacity:1.00" />
<!-- End 'T' -->
<!-- Begin 'A' -->
<polygon points=" 450.000000, 109.977957, 471.000000, 105.123211, 479.000000, 105.123211, 500.000000, 109.977957, 492.500000, 109.977957, 486.250000, 108.764271, 463.750000, 108.764271, 457.500000, 109.977957" fill="rgb(178, 34, 34)" style="fill-opacity:1.00" />
<!-- End 'A' -->
<!-- Begin 'G' -->
<ellipse cx="475.000000" cy="109.988979" rx="25.000000" ry="0.011021" fill="rgb(255, 165, 0)" style="fill-opacity:1.00" />
<ellipse cx="475.000000" cy="109.988979" rx="16.666667" ry="0.007348" fill="rgb(255, 255, 255)" style="fill-opacity:1.00" />
<rect height="0.011021" width="25.000000" x="475.000000" y="109.983468" fill="rgb(255, 255, 255)" style="fill-opacity:1.00" />
<rect height="0.002755" width="25.000000" x="475.000000" y="109.991734" fill="rgb(255, 165, 0)" style="fill-opacity:1.00" />
<rect height="0.008266" width="6.250000" x="493.750000" y="109.991734" fill="rgb(255, 165, 0)" style="fill-opacity:1.00" />
<!-- End 'G' -->
<!-- Begin 'A' -->
<polygon points=" 510.000000, 95.916649, 531.000000, 49.111098, 539.000000, 49.111098, 560.000000, 95.916649, 552.500000, 95.916649, 546.250000, 84.215261, 523.750000, 84.215261, 517.500000, 95.916649" fill="rgb(178, 34, 34)" style="fill-opacity:1.00" />
<polygon points=" 535.000000, 58.472208, 527.000000, 76.194428, 542.000000, 76.194428" fill="rgb(255, 255, 255)" style="fill-opacity:1.00" />
<!-- End 'A' -->
<!-- Begin 'C' -->
<ellipse cx="535.000000" cy="102.953699" rx="25.000000" ry="7.037050" fill="rgb(0, 0, 128)" style="fill-opacity:1.00" />
<ellipse cx="535.000000" cy="102.953699" rx="16.666667" ry="4.691367" fill="rgb(255, 255, 255)" style="fill-opacity:1.00" />
<rect height="7.037050" width="25.000000" x="535.000000" y="99.435174" fill="rgb(255, 255, 255)" style="fill-opacity:1.00" />
<!-- End 'C' -->
<!-- Begin 'G' -->
<ellipse cx="535.000000" cy="109.994007" rx="25.000000" ry="0.003258" fill="rgb(255, 165, 0)" style="fill-opacity:1.00" />
<ellipse cx="535.000000" cy="109.994007" rx="16.666667" ry="0.002172" fill="rgb(255, 255, 255)" style="fill-opacity:1.00" />
<rect height="0.003258" width="25.000000" x="535.000000" y="109.992378" fill="rgb(255, 255, 255)" style="fill-opacity:1.00" />
<rect height="0.000815" width="25.000000" x="535.000000" y="109.994822" fill="rgb(255, 165, 0)" style="fill-opacity:1.00" />
<rect height="0.002444" width="6.250000" x="553.750000" y="109.994822" fill="rgb(255, 165, 0)" style="fill-opacity:1.00" />
<!-- End 'G' -->
<!-- Begin 'T' -->
<rect height="0.000438" width="50.000000" x="510.000000" y="109.997265" fill="rgb(0, 100, 0)" style="fill-opacity:1.00" />
<rect height="0.002735" width="10.000000" x="530.000000" y="109.997265" fill="rgb(0, 100, 0)" style="fill-opacity:1.00" />
<!-- End 'T' -->
<!-- Begin 'A' -->
<polygon points=" 570.000000, 109.831418, 591.000000, 11.015996, 599.000000, 11.015996, 620.000000, 109.831418, 612.500000, 109.831418, 606.250000, 85.127563, 583.750000, 85.127563, 577.500000, 109.831418" fill="rgb(178, 34, 34)" style="fill-opacity:1.00" />
<polygon points=" 595.000000, 30.779080, 587.000000, 69.305249, 602.000000, 69.305249" fill="rgb(255, 255, 255)" style="fill-opacity:1.00" />
<!-- End 'A' -->
<!-- Begin 'T' -->
<rect height="0.017320" width="50.000000" x="570.000000" y="109.831418" fill="rgb(0, 100, 0)" style="fill-opacity:1.00" />
<rect height="0.108247" width="10.000000" x="590.000000" y="109.831418" fill="rgb(0, 100, 0)" style="fill-opacity:1.00" />
<!-- End 'T' -->
<!-- Begin 'C' -->
<ellipse cx="595.000000" cy="109.957211" rx="25.000000" ry="0.017545" fill="rgb(0, 0, 128)" style="fill-opacity:1.00" />
<ellipse cx="595.000000" cy="109.957211" rx="16.666667" ry="0.011697" fill="rgb(255, 255, 255)" style="fill-opacity:1.00" />
<rect height="0.017545" width="25.000000" x="595.000000" y="109.948438" fill="rgb(255, 255, 255)" style="fill-opacity:1.00" />
<!-- End 'C' -->
<!-- Begin 'G' -->
<ellipse cx="595.000000" cy="109.987378" rx="25.000000" ry="0.012622" fill="rgb(255, 165, 0)" style="fill-opacity:1.00" />
<ellipse cx="595.000000" cy="109.987378" rx="16.666667" ry="0.008415" fill="rgb(255, 255, 255)" style="fill-opacity:1.00" />
<rect height="0.012622" width="25.000000" x="595.000000" y="109.981067" fill="rgb(255, 255, 255)" style="fill-opacity:1.00" />
<rect height="0.003156" width="25.000000" x="595.000000" y="109.990533" fill="rgb(255, 165, 0)" style="fill-opacity:1.00" />
<rect height="0.009467" width="6.250000" x="613.750000" y="109.990533" fill="rgb(255, 165, 0)" style="fill-opacity:1.00" />
<!-- End 'G' -->
<!-- Begin 'T' -->
<rect height="2.410653" width="50.000000" x="630.000000" y="83.572158" fill="rgb(0, 100, 0)" style="fill-opacity:1.00" />
<rect height="15.066580" width="10.000000" x="650.000000" y="83.572158" fill="rgb(0, 100, 0)" style="fill-opacity:1.00" />
<!-- End 'T' -->
<!-- Begin 'C' -->
<ellipse cx="655.000000" cy="102.416204" rx="25.000000" ry="3.777466" fill="rgb(0, 0, 128)" style="fill-opacity:1.00" />
<ellipse cx="655.000000" cy="102.416204" rx="16.666667" ry="2.518311" fill="rgb(255, 255, 255)" style="fill-opacity:1.00" />
<rect height="3.777466" width="25.000000" x="655.000000" y="100.527471" fill="rgb(255, 255, 255)" style="fill-opacity:1.00" />
<!-- End 'C' -->
<!-- Begin 'G' -->
<ellipse cx="655.000000" cy="107.798825" rx="25.000000" ry="1.605155" fill="rgb(255, 165, 0)" style="fill-opacity:1.00" />
<ellipse cx="655.000000" cy="107.798825" rx="16.666667" ry="1.070103" fill="rgb(255, 255, 255)" style="fill-opacity:1.00" />
<rect height="1.605155" width="25.000000" x="655.000000" y="106.996247" fill="rgb(255, 255, 255)" style="fill-opacity:1.00" />
<rect height="0.401289" width="25.000000" x="655.000000" y="108.200114" fill="rgb(255, 165, 0)" style="fill-opacity:1.00" />
<rect height="1.203866" width="6.250000" x="673.750000" y="108.200114" fill="rgb(255, 165, 0)" style="fill-opacity:1.00" />
<!-- End 'G' -->
<!-- Begin 'A' -->
<polygon points=" 630.000000, 110.000000, 651.000000, 109.403980, 659.000000, 109.403980, 680.000000, 110.000000, 672.500000, 110.000000, 666.250000, 109.850995, 643.750000, 109.850995, 637.500000, 110.000000" fill="rgb(178, 34, 34)" style="fill-opacity:1.00" />
<!-- End 'A' -->
<text x="370.000000" y="165">
IC = 9.47
</text>

</svg>
