<?xml version="1.0" encoding="UTF-8" standalone="yes"?>
                 <!DOCTYPE svg PUBLIC "-//W3C//DTD SVG 1.0//EN" "http://www.w3.org/TR/2001/REC-SVG-20010904/DTD/svg10.dtd">
                 <svg height="170" width="960" xmlns="http://www.w3.org/2000/svg" xmlns:xlink="http://www.w3.org/1999/xlink">
                 <line x1="85" y1="120" x2="927" y2="120" style="stroke:rgb(99,99,99);stroke-width:2" />
<rect height="7.000000" width="2.000000" x="85.000000" y="120.000000" fill="rgb(0, 0, 0)" style="fill-opacity:1.00" />
<text x="107.000000" y="140">
1
</text>
<rect height="7.000000" width="2.000000" x="145.000000" y="120.000000" fill="rgb(0, 0, 0)" style="fill-opacity:1.00" />
<text x="167.000000" y="140">
2
</text>
<rect height="7.000000" width="2.000000" x="205.000000" y="120.000000" fill="rgb(0, 0, 0)" style="fill-opacity:1.00" />
<text x="227.000000" y="140">
3
</text>
<rect height="7.000000" width="2.000000" x="265.000000" y="120.000000" fill="rgb(0, 0, 0)" style="fill-opacity:1.00" />
<text x="287.000000" y="140">
4
</text>
<rect height="7.000000" width="2.000000" x="325.000000" y="120.000000" fill="rgb(0, 0, 0)" style="fill-opacity:1.00" />
<text x="347.000000" y="140">
5
</text>
<rect height="7.000000" width="2.000000" x="385.000000" y="120.000000" fill="rgb(0, 0, 0)" style="fill-opacity:1.00" />
<text x="407.000000" y="140">
6
</text>
<rect height="7.000000" width="2.000000" x="445.000000" y="120.000000" fill="rgb(0, 0, 0)" style="fill-opacity:1.00" />
<text x="467.000000" y="140">
7
</text>
<rect height="7.000000" width="2.000000" x="505.000000" y="120.000000" fill="rgb(0, 0, 0)" style="fill-opacity:1.00" />
<text x="527.000000" y="140">
8
</text>
<rect height="7.000000" width="2.000000" x="565.000000" y="120.000000" fill="rgb(0, 0, 0)" style="fill-opacity:1.00" />
<text x="587.000000" y="140">
9
</text>
<rect height="7.000000" width="2.000000" x="625.000000" y="120.000000" fill="rgb(0, 0, 0)" style="fill-opacity:1.00" />
<text x="647.000000" y="140">
10
</text>
<rect height="7.000000" width="2.000000" x="685.000000" y="120.000000" fill="rgb(0, 0, 0)" style="fill-opacity:1.00" />
<text x="707.000000" y="140">
11
</text>
<rect height="7.000000" width="2.000000" x="745.000000" y="120.000000" fill="rgb(0, 0, 0)" style="fill-opacity:1.00" />
<text x="767.000000" y="140">
12
</text>
<rect height="7.000000" width="2.000000" x="805.000000" y="120.000000" fill="rgb(0, 0, 0)" style="fill-opacity:1.00" />
<text x="827.000000" y="140">
13
</text>
<rect height="7.000000" width="2.000000" x="865.000000" y="120.000000" fill="rgb(0, 0, 0)" style="fill-opacity:1.00" />
<text x="887.000000" y="140">
14
</text>
<rect height="7.000000" width="2.000000" x="925.000000" y="120.000000" fill="rgb(0, 0, 0)" style="fill-opacity:1.00" />
<line x1="80" y1="112" x2="80" y2="10" style="stroke:rgb(99,99,99);stroke-width:2" />
<rect height="2.000000" width="7.000000" x="73.000000" y="110.000000" fill="rgb(0, 0, 0)" style="fill-opacity:1.00" />
<text x="63" y="115">
0
</text>
<rect height="2.000000" width="7.000000" x="73.000000" y="60.000000" fill="rgb(0, 0, 0)" style="fill-opacity:1.00" />
<text x="63" y="65">
1
</text>
<rect height="2.000000" width="7.000000" x="73.000000" y="10.000000" fill="rgb(0, 0, 0)" style="fill-opacity:1.00" />
<text x="63" y="15">
2
</text>
<text x="50" y="65"
transform="rotate(-90, 50, 70)">
bits
</text>
<!-- Begin 'A' -->
<polygon points=" 90.000000, 100.138755, 111.000000, 75.068176, 119.000000, 75.068176, 140.000000, 100.138755, 132.500000, 100.138755, 126.250000, 93.871110, 103.750000, 93.871110, 97.500000, 100.138755" fill="rgb(178, 34, 34)" style="fill-opacity:1.00" />
<polygon points=" 115.000000, 80.082292, 107.000000, 89.110523, 122.000000, 89.110523" fill="rgb(255, 255, 255)" style="fill-opacity:1.00" />
<!-- End 'A' -->
<!-- Begin 'G' -->
<ellipse cx="115.000000" cy="102.022997" rx="25.000000" ry="1.884242" fill="rgb(255, 165, 0)" style="fill-opacity:1.00" />
<ellipse cx="115.000000" cy="102.022997" rx="16.666667" ry="1.256162" fill="rgb(255, 255, 255)" style="fill-opacity:1.00" />
<rect height="1.884242" width="25.000000" x="115.000000" y="101.080876" fill="rgb(255, 255, 255)" style="fill-opacity:1.00" />
<rect height="0.471061" width="25.000000" x="115.000000" y="102.494058" fill="rgb(255, 165, 0)" style="fill-opacity:1.00" />
<rect height="1.413182" width="6.250000" x="133.750000" y="102.494058" fill="rgb(255, 165, 0)" style="fill-opacity:1.00" />
<!-- End 'G' -->
<!-- Begin 'T' -->
<rect height="0.556021" width="50.000000" x="90.000000" y="103.907240" fill="rgb(0, 100, 0)" style="fill-opacity:1.00" />
<rect height="3.475130" width="10.000000" x="110.000000" y="103.907240" fill="rgb(0, 100, 0)" style="fill-opacity:1.00" />
<!-- End 'T' -->
<!-- Begin 'C' -->
<ellipse cx="115.000000" cy="108.691185" rx="25.000000" ry="1.308815" fill="rgb(0, 0, 128)" style="fill-opacity:1.00" />
<ellipse cx="115.000000" cy="108.691185" rx="16.666667" ry="0.872543" fill="rgb(255, 255, 255)" style="fill-opacity:1.00" />
<rect height="1.308815" width="25.000000" x="115.000000" y="108.036777" fill="rgb(255, 255, 255)" style="fill-opacity:1.00" />
<!-- End 'C' -->
<!-- Begin 'T' -->
<rect height="0.441421" width="50.000000" x="150.000000" y="103.706174" fill="rgb(0, 100, 0)" style="fill-opacity:1.00" />
<rect height="2.758882" width="10.000000" x="170.000000" y="103.706174" fill="rgb(0, 100, 0)" style="fill-opacity:1.00" />
<!-- End 'T' -->
<!-- Begin 'G' -->
<ellipse cx="175.000000" cy="107.145634" rx="25.000000" ry="0.680578" fill="rgb(255, 165, 0)" style="fill-opacity:1.00" />
<ellipse cx="175.000000" cy="107.145634" rx="16.666667" ry="0.453719" fill="rgb(255, 255, 255)" style="fill-opacity:1.00" />
<rect height="0.680578" width="25.000000" x="175.000000" y="106.805345" fill="rgb(255, 255, 255)" style="fill-opacity:1.00" />
<rect height="0.170145" width="25.000000" x="175.000000" y="107.315779" fill="rgb(255, 165, 0)" style="fill-opacity:1.00" />
<rect height="0.510434" width="6.250000" x="193.750000" y="107.315779" fill="rgb(255, 165, 0)" style="fill-opacity:1.00" />
<!-- End 'G' -->
<!-- Begin 'C' -->
<ellipse cx="175.000000" cy="108.388959" rx="25.000000" ry="0.562747" fill="rgb(0, 0, 128)" style="fill-opacity:1.00" />
<ellipse cx="175.000000" cy="108.388959" rx="16.666667" ry="0.375165" fill="rgb(255, 255, 255)" style="fill-opacity:1.00" />
<rect height="0.562747" width="25.000000" x="175.000000" y="108.107586" fill="rgb(255, 255, 255)" style="fill-opacity:1.00" />
<!-- End 'C' -->
<!-- Begin 'A' -->
<polygon points=" 150.000000, 110.000000, 171.000000, 108.951706, 179.000000, 108.951706, 200.000000, 110.000000, 192.500000, 110.000000, 186.250000, 109.737927, 163.750000, 109.737927, 157.500000, 110.000000" fill="rgb(178, 34, 34)" style="fill-opacity:1.00" />
<!-- End 'A' -->
<!-- Begin 'T' -->
<rect height="8.832606" width="50.000000" x="210.000000" y="45.077485" fill="rgb(0, 100, 0)" style="fill-opacity:1.00" />
<rect height="55.203790" width="10.000000" x="230.000000" y="45.077485" fill="rgb(0, 100, 0)" style="fill-opacity:1.00" />
<!-- End 'T' -->
<!-- Begin 'C' -->
<ellipse cx="235.000000" cy="104.443890" rx="25.000000" ry="4.162616" fill="rgb(0, 0, 128)" style="fill-opacity:1.00" />
<ellipse cx="235.000000" cy="104.443890" rx="16.666667" ry="2.775077" fill="rgb(255, 255, 255)" style="fill-opacity:1.00" />
<rect height="4.162616" width="25.000000" x="235.000000" y="102.362582" fill="rgb(255, 255, 255)" style="fill-opacity:1.00" />
<!-- End 'C' -->
<!-- Begin 'A' -->
<polygon points=" 210.000000, 109.964269, 231.000000, 108.606506, 239.000000, 108.606506, 260.000000, 109.964269, 252.500000, 109.964269, 246.250000, 109.624829, 223.750000, 109.624829, 217.500000, 109.964269" fill="rgb(178, 34, 34)" style="fill-opacity:1.00" />
<!-- End 'A' -->
<!-- Begin 'G' -->
<ellipse cx="235.000000" cy="109.982135" rx="25.000000" ry="0.017865" fill="rgb(255, 165, 0)" style="fill-opacity:1.00" />
<ellipse cx="235.000000" cy="109.982135" rx="16.666667" ry="0.011910" fill="rgb(255, 255, 255)" style="fill-opacity:1.00" />
<rect height="0.017865" width="25.000000" x="235.000000" y="109.973202" fill="rgb(255, 255, 255)" style="fill-opacity:1.00" />
<rect height="0.004466" width="25.000000" x="235.000000" y="109.986601" fill="rgb(255, 165, 0)" style="fill-opacity:1.00" />
<rect height="0.013399" width="6.250000" x="253.750000" y="109.986601" fill="rgb(255, 165, 0)" style="fill-opacity:1.00" />
<!-- End 'G' -->
<!-- Begin 'C' -->
<ellipse cx="295.000000" cy="60.976328" rx="25.000000" ry="48.583434" fill="rgb(0, 0, 128)" style="fill-opacity:1.00" />
<ellipse cx="295.000000" cy="60.976328" rx="16.666667" ry="32.388956" fill="rgb(255, 255, 255)" style="fill-opacity:1.00" />
<rect height="48.583434" width="25.000000" x="295.000000" y="36.684611" fill="rgb(255, 255, 255)" style="fill-opacity:1.00" />
<!-- End 'C' -->
<!-- Begin 'G' -->
<ellipse cx="295.000000" cy="109.685544" rx="25.000000" ry="0.125782" fill="rgb(255, 165, 0)" style="fill-opacity:1.00" />
<ellipse cx="295.000000" cy="109.685544" rx="16.666667" ry="0.083855" fill="rgb(255, 255, 255)" style="fill-opacity:1.00" />
<rect height="0.125782" width="25.000000" x="295.000000" y="109.622653" fill="rgb(255, 255, 255)" style="fill-opacity:1.00" />
<rect height="0.031446" width="25.000000" x="295.000000" y="109.716990" fill="rgb(255, 165, 0)" style="fill-opacity:1.00" />
<rect height="0.094337" width="6.250000" x="313.750000" y="109.716990" fill="rgb(255, 165, 0)" style="fill-opacity:1.00" />
<!-- End 'G' -->
<!-- Begin 'T' -->
<rect height="0.020125" width="50.000000" x="270.000000" y="109.811326" fill="rgb(0, 100, 0)" style="fill-opacity:1.00" />
<rect height="0.125782" width="10.000000" x="290.000000" y="109.811326" fill="rgb(0, 100, 0)" style="fill-opacity:1.00" />
<!-- End 'T' -->
<!-- Begin 'A' -->
<polygon points=" 270.000000, 110.000000, 291.000000, 109.937109, 299.000000, 109.937109, 320.000000, 110.000000, 312.500000, 110.000000, 306.250000, 109.984277, 283.750000, 109.984277, 277.500000, 110.000000" fill="rgb(178, 34, 34)" style="fill-opacity:1.00" />
<!-- End 'A' -->
<!-- Begin 'C' -->
<ellipse cx="355.000000" cy="62.944591" rx="25.000000" ry="45.409499" fill="rgb(0, 0, 128)" style="fill-opacity:1.00" />
<ellipse cx="355.000000" cy="62.944591" rx="16.666667" ry="30.272999" fill="rgb(255, 255, 255)" style="fill-opacity:1.00" />
<rect height="45.409499" width="25.000000" x="355.000000" y="40.239842" fill="rgb(255, 255, 255)" style="fill-opacity:1.00" />
<!-- End 'C' -->
<!-- Begin 'T' -->
<rect height="0.178699" width="50.000000" x="330.000000" y="108.354089" fill="rgb(0, 100, 0)" style="fill-opacity:1.00" />
<rect height="1.116868" width="10.000000" x="350.000000" y="108.354089" fill="rgb(0, 100, 0)" style="fill-opacity:1.00" />
<!-- End 'T' -->
<!-- Begin 'G' -->
<ellipse cx="355.000000" cy="109.617914" rx="25.000000" ry="0.146956" fill="rgb(255, 165, 0)" style="fill-opacity:1.00" />
<ellipse cx="355.000000" cy="109.617914" rx="16.666667" ry="0.097971" fill="rgb(255, 255, 255)" style="fill-opacity:1.00" />
<rect height="0.146956" width="25.000000" x="355.000000" y="109.544435" fill="rgb(255, 255, 255)" style="fill-opacity:1.00" />
<rect height="0.036739" width="25.000000" x="355.000000" y="109.654653" fill="rgb(255, 165, 0)" style="fill-opacity:1.00" />
<rect height="0.110217" width="6.250000" x="373.750000" y="109.654653" fill="rgb(255, 165, 0)" style="fill-opacity:1.00" />
<!-- End 'G' -->
<!-- Begin 'A' -->
<polygon points=" 330.000000, 110.000000, 351.000000, 109.764870, 359.000000, 109.764870, 380.000000, 110.000000, 372.500000, 110.000000, 366.250000, 109.941217, 343.750000, 109.941217, 337.500000, 110.000000" fill="rgb(178, 34, 34)" style="fill-opacity:1.00" />
<!-- End 'A' -->
<!-- Begin 'C' -->
<ellipse cx="415.000000" cy="61.145830" rx="25.000000" ry="48.291550" fill="rgb(0, 0, 128)" style="fill-opacity:1.00" />
<ellipse cx="415.000000" cy="61.145830" rx="16.666667" ry="32.194367" fill="rgb(255, 255, 255)" style="fill-opacity:1.00" />
<rect height="48.291550" width="25.000000" x="415.000000" y="37.000055" fill="rgb(255, 255, 255)" style="fill-opacity:1.00" />
<!-- End 'C' -->
<!-- Begin 'T' -->
<rect height="0.070015" width="50.000000" x="390.000000" y="109.437380" fill="rgb(0, 100, 0)" style="fill-opacity:1.00" />
<rect height="0.437593" width="10.000000" x="410.000000" y="109.437380" fill="rgb(0, 100, 0)" style="fill-opacity:1.00" />
<!-- End 'T' -->
<!-- Begin 'G' -->
<ellipse cx="415.000000" cy="109.906230" rx="25.000000" ry="0.031257" fill="rgb(255, 165, 0)" style="fill-opacity:1.00" />
<ellipse cx="415.000000" cy="109.906230" rx="16.666667" ry="0.020838" fill="rgb(255, 255, 255)" style="fill-opacity:1.00" />
<rect height="0.031257" width="25.000000" x="415.000000" y="109.890602" fill="rgb(255, 255, 255)" style="fill-opacity:1.00" />
<rect height="0.007814" width="25.000000" x="415.000000" y="109.914044" fill="rgb(255, 165, 0)" style="fill-opacity:1.00" />
<rect height="0.023442" width="6.250000" x="433.750000" y="109.914044" fill="rgb(255, 165, 0)" style="fill-opacity:1.00" />
<!-- End 'G' -->
<!-- Begin 'A' -->
<polygon points=" 390.000000, 110.000000, 411.000000, 109.937487, 419.000000, 109.937487, 440.000000, 110.000000, 432.500000, 110.000000, 426.250000, 109.984372, 403.750000, 109.984372, 397.500000, 110.000000" fill="rgb(178, 34, 34)" style="fill-opacity:1.00" />
<!-- End 'A' -->
<!-- Begin 'A' -->
<polygon points=" 450.000000, 102.098301, 471.000000, 97.586479, 479.000000, 97.586479, 500.000000, 102.098301, 492.500000, 102.098301, 486.250000, 100.970345, 463.750000, 100.970345, 457.500000, 102.098301" fill="rgb(178, 34, 34)" style="fill-opacity:1.00" />
<!-- End 'A' -->
<!-- Begin 'T' -->
<rect height="0.679578" width="50.000000" x="450.000000" y="102.098301" fill="rgb(0, 100, 0)" style="fill-opacity:1.00" />
<rect height="4.247364" width="10.000000" x="470.000000" y="102.098301" fill="rgb(0, 100, 0)" style="fill-opacity:1.00" />
<!-- End 'T' -->
<!-- Begin 'C' -->
<ellipse cx="475.000000" cy="107.916388" rx="25.000000" ry="1.570723" fill="rgb(0, 0, 128)" style="fill-opacity:1.00" />
<ellipse cx="475.000000" cy="107.916388" rx="16.666667" ry="1.047149" fill="rgb(255, 255, 255)" style="fill-opacity:1.00" />
<rect height="1.570723" width="25.000000" x="475.000000" y="107.131026" fill="rgb(255, 255, 255)" style="fill-opacity:1.00" />
<!-- End 'C' -->
<!-- Begin 'G' -->
<ellipse cx="475.000000" cy="109.743555" rx="25.000000" ry="0.256445" fill="rgb(255, 165, 0)" style="fill-opacity:1.00" />
<ellipse cx="475.000000" cy="109.743555" rx="16.666667" ry="0.170963" fill="rgb(255, 255, 255)" style="fill-opacity:1.00" />
<rect height="0.256445" width="25.000000" x="475.000000" y="109.615333" fill="rgb(255, 255, 255)" style="fill-opacity:1.00" />
<rect height="0.064111" width="25.000000" x="475.000000" y="109.807667" fill="rgb(255, 165, 0)" style="fill-opacity:1.00" />
<rect height="0.192333" width="6.250000" x="493.750000" y="109.807667" fill="rgb(255, 165, 0)" style="fill-opacity:1.00" />
<!-- End 'G' -->
<!-- Begin 'A' -->
<polygon points=" 510.000000, 100.806982, 531.000000, 91.518452, 539.000000, 91.518452, 560.000000, 100.806982, 552.500000, 100.806982, 546.250000, 98.484849, 523.750000, 98.484849, 517.500000, 100.806982" fill="rgb(178, 34, 34)" style="fill-opacity:1.00" />
<polygon points=" 535.000000, 93.376158, 527.000000, 96.091570, 542.000000, 96.091570" fill="rgb(255, 255, 255)" style="fill-opacity:1.00" />
<!-- End 'A' -->
<!-- Begin 'T' -->
<rect height="0.922645" width="50.000000" x="510.000000" y="100.806982" fill="rgb(0, 100, 0)" style="fill-opacity:1.00" />
<rect height="5.766530" width="10.000000" x="530.000000" y="100.806982" fill="rgb(0, 100, 0)" style="fill-opacity:1.00" />
<!-- End 'T' -->
<!-- Begin 'G' -->
<ellipse cx="535.000000" cy="107.821135" rx="25.000000" ry="1.247624" fill="rgb(255, 165, 0)" style="fill-opacity:1.00" />
<ellipse cx="535.000000" cy="107.821135" rx="16.666667" ry="0.831749" fill="rgb(255, 255, 255)" style="fill-opacity:1.00" />
<rect height="1.247624" width="25.000000" x="535.000000" y="107.197323" fill="rgb(255, 255, 255)" style="fill-opacity:1.00" />
<rect height="0.311906" width="25.000000" x="535.000000" y="108.133041" fill="rgb(255, 165, 0)" style="fill-opacity:1.00" />
<rect height="0.935718" width="6.250000" x="553.750000" y="108.133041" fill="rgb(255, 165, 0)" style="fill-opacity:1.00" />
<!-- End 'G' -->
<!-- Begin 'C' -->
<ellipse cx="535.000000" cy="109.534380" rx="25.000000" ry="0.465620" fill="rgb(0, 0, 128)" style="fill-opacity:1.00" />
<ellipse cx="535.000000" cy="109.534380" rx="16.666667" ry="0.310414" fill="rgb(255, 255, 255)" style="fill-opacity:1.00" />
<rect height="0.465620" width="25.000000" x="535.000000" y="109.301569" fill="rgb(255, 255, 255)" style="fill-opacity:1.00" />
<!-- End 'C' -->
<!-- Begin 'G' -->
<ellipse cx="595.000000" cy="62.990219" rx="25.000000" ry="45.252406" fill="rgb(255, 165, 0)" style="fill-opacity:1.00" />
<ellipse cx="595.000000" cy="62.990219" rx="16.666667" ry="30.168271" fill="rgb(255, 255, 255)" style="fill-opacity:1.00" />
<rect height="45.252406" width="25.000000" x="595.000000" y="40.364016" fill="rgb(255, 255, 255)" style="fill-opacity:1.00" />
<rect height="11.313101" width="25.000000" x="595.000000" y="74.303321" fill="rgb(255, 165, 0)" style="fill-opacity:1.00" />
<rect height="33.939304" width="6.250000" x="613.750000" y="74.303321" fill="rgb(255, 165, 0)" style="fill-opacity:1.00" />
<!-- End 'G' -->
<!-- Begin 'A' -->
<polygon points=" 570.000000, 109.531367, 591.000000, 108.242625, 599.000000, 108.242625, 620.000000, 109.531367, 612.500000, 109.531367, 606.250000, 109.209181, 583.750000, 109.209181, 577.500000, 109.531367" fill="rgb(178, 34, 34)" style="fill-opacity:1.00" />
<!-- End 'A' -->
<!-- Begin 'C' -->
<ellipse cx="595.000000" cy="109.736394" rx="25.000000" ry="0.205027" fill="rgb(0, 0, 128)" style="fill-opacity:1.00" />
<ellipse cx="595.000000" cy="109.736394" rx="16.666667" ry="0.136685" fill="rgb(255, 255, 255)" style="fill-opacity:1.00" />
<rect height="0.205027" width="25.000000" x="595.000000" y="109.633880" fill="rgb(255, 255, 255)" style="fill-opacity:1.00" />
<!-- End 'C' -->
<!-- Begin 'T' -->
<rect height="0.009373" width="50.000000" x="570.000000" y="109.941421" fill="rgb(0, 100, 0)" style="fill-opacity:1.00" />
<rect height="0.058579" width="10.000000" x="590.000000" y="109.941421" fill="rgb(0, 100, 0)" style="fill-opacity:1.00" />
<!-- End 'T' -->
<!-- Begin 'G' -->
<ellipse cx="655.000000" cy="67.215570" rx="25.000000" ry="37.115073" fill="rgb(255, 165, 0)" style="fill-opacity:1.00" />
<ellipse cx="655.000000" cy="67.215570" rx="16.666667" ry="24.743382" fill="rgb(255, 255, 255)" style="fill-opacity:1.00" />
<rect height="37.115073" width="25.000000" x="655.000000" y="48.658033" fill="rgb(255, 255, 255)" style="fill-opacity:1.00" />
<rect height="9.278768" width="25.000000" x="655.000000" y="76.494338" fill="rgb(255, 165, 0)" style="fill-opacity:1.00" />
<rect height="27.836305" width="6.250000" x="673.750000" y="76.494338" fill="rgb(255, 165, 0)" style="fill-opacity:1.00" />
<!-- End 'G' -->
<!-- Begin 'A' -->
<polygon points=" 630.000000, 109.519546, 651.000000, 104.330643, 659.000000, 104.330643, 680.000000, 109.519546, 672.500000, 109.519546, 666.250000, 108.222320, 643.750000, 108.222320, 637.500000, 109.519546" fill="rgb(178, 34, 34)" style="fill-opacity:1.00" />
<!-- End 'A' -->
<!-- Begin 'C' -->
<ellipse cx="655.000000" cy="109.735750" rx="25.000000" ry="0.216204" fill="rgb(0, 0, 128)" style="fill-opacity:1.00" />
<ellipse cx="655.000000" cy="109.735750" rx="16.666667" ry="0.144136" fill="rgb(255, 255, 255)" style="fill-opacity:1.00" />
<rect height="0.216204" width="25.000000" x="655.000000" y="109.627648" fill="rgb(255, 255, 255)" style="fill-opacity:1.00" />
<!-- End 'C' -->
<!-- Begin 'T' -->
<rect height="0.007687" width="50.000000" x="630.000000" y="109.951955" fill="rgb(0, 100, 0)" style="fill-opacity:1.00" />
<rect height="0.048045" width="10.000000" x="650.000000" y="109.951955" fill="rgb(0, 100, 0)" style="fill-opacity:1.00" />
<!-- End 'T' -->
<!-- Begin 'G' -->
<ellipse cx="715.000000" cy="63.058153" rx="25.000000" ry="45.130774" fill="rgb(255, 165, 0)" style="fill-opacity:1.00" />
<ellipse cx="715.000000" cy="63.058153" rx="16.666667" ry="30.087183" fill="rgb(255, 255, 255)" style="fill-opacity:1.00" />
<rect height="45.130774" width="25.000000" x="715.000000" y="40.492766" fill="rgb(255, 255, 255)" style="fill-opacity:1.00" />
<rect height="11.282694" width="25.000000" x="715.000000" y="74.340846" fill="rgb(255, 165, 0)" style="fill-opacity:1.00" />
<rect height="33.848081" width="6.250000" x="733.750000" y="74.340846" fill="rgb(255, 165, 0)" style="fill-opacity:1.00" />
<!-- End 'G' -->
<!-- Begin 'T' -->
<rect height="0.214992" width="50.000000" x="690.000000" y="108.188927" fill="rgb(0, 100, 0)" style="fill-opacity:1.00" />
<rect height="1.343699" width="10.000000" x="710.000000" y="108.188927" fill="rgb(0, 100, 0)" style="fill-opacity:1.00" />
<!-- End 'T' -->
<!-- Begin 'A' -->
<polygon points=" 690.000000, 109.941578, 711.000000, 109.532626, 719.000000, 109.532626, 740.000000, 109.941578, 732.500000, 109.941578, 726.250000, 109.839340, 703.750000, 109.839340, 697.500000, 109.941578" fill="rgb(178, 34, 34)" style="fill-opacity:1.00" />
<!-- End 'A' -->
<!-- Begin 'C' -->
<ellipse cx="715.000000" cy="109.970789" rx="25.000000" ry="0.029211" fill="rgb(0, 0, 128)" style="fill-opacity:1.00" />
<ellipse cx="715.000000" cy="109.970789" rx="16.666667" ry="0.019474" fill="rgb(255, 255, 255)" style="fill-opacity:1.00" />
<rect height="0.029211" width="25.000000" x="715.000000" y="109.956184" fill="rgb(255, 255, 255)" style="fill-opacity:1.00" />
<!-- End 'C' -->
<!-- Begin 'A' -->
<polygon points=" 750.000000, 104.206041, 771.000000, 34.271141, 779.000000, 34.271141, 800.000000, 104.206041, 792.500000, 104.206041, 786.250000, 86.722316, 763.750000, 86.722316, 757.500000, 104.206041" fill="rgb(178, 34, 34)" style="fill-opacity:1.00" />
<polygon points=" 775.000000, 48.258121, 767.000000, 75.232081, 782.000000, 75.232081" fill="rgb(255, 255, 255)" style="fill-opacity:1.00" />
<!-- End 'A' -->
<!-- Begin 'G' -->
<ellipse cx="775.000000" cy="106.129816" rx="25.000000" ry="1.923776" fill="rgb(255, 165, 0)" style="fill-opacity:1.00" />
<ellipse cx="775.000000" cy="106.129816" rx="16.666667" ry="1.282517" fill="rgb(255, 255, 255)" style="fill-opacity:1.00" />
<rect height="1.923776" width="25.000000" x="775.000000" y="105.167928" fill="rgb(255, 255, 255)" style="fill-opacity:1.00" />
<rect height="0.480944" width="25.000000" x="775.000000" y="106.610760" fill="rgb(255, 165, 0)" style="fill-opacity:1.00" />
<rect height="1.442832" width="6.250000" x="793.750000" y="106.610760" fill="rgb(255, 165, 0)" style="fill-opacity:1.00" />
<!-- End 'G' -->
<!-- Begin 'T' -->
<rect height="0.181061" width="50.000000" x="750.000000" y="108.053592" fill="rgb(0, 100, 0)" style="fill-opacity:1.00" />
<rect height="1.131633" width="10.000000" x="770.000000" y="108.053592" fill="rgb(0, 100, 0)" style="fill-opacity:1.00" />
<!-- End 'T' -->
<!-- Begin 'C' -->
<ellipse cx="775.000000" cy="109.592612" rx="25.000000" ry="0.407388" fill="rgb(0, 0, 128)" style="fill-opacity:1.00" />
<ellipse cx="775.000000" cy="109.592612" rx="16.666667" ry="0.271592" fill="rgb(255, 255, 255)" style="fill-opacity:1.00" />
<rect height="0.407388" width="25.000000" x="775.000000" y="109.388918" fill="rgb(255, 255, 255)" style="fill-opacity:1.00" />
<!-- End 'C' -->
<!-- Begin 'A' -->
<polygon points=" 810.000000, 103.069098, 831.000000, 98.622443, 839.000000, 98.622443, 860.000000, 103.069098, 852.500000, 103.069098, 846.250000, 101.957434, 823.750000, 101.957434, 817.500000, 103.069098" fill="rgb(178, 34, 34)" style="fill-opacity:1.00" />
<!-- End 'A' -->
<!-- Begin 'C' -->
<ellipse cx="835.000000" cy="105.226277" rx="25.000000" ry="2.157179" fill="rgb(0, 0, 128)" style="fill-opacity:1.00" />
<ellipse cx="835.000000" cy="105.226277" rx="16.666667" ry="1.438119" fill="rgb(255, 255, 255)" style="fill-opacity:1.00" />
<rect height="2.157179" width="25.000000" x="835.000000" y="104.147688" fill="rgb(255, 255, 255)" style="fill-opacity:1.00" />
<!-- End 'C' -->
<!-- Begin 'T' -->
<rect height="0.246955" width="50.000000" x="810.000000" y="107.383456" fill="rgb(0, 100, 0)" style="fill-opacity:1.00" />
<rect height="1.543467" width="10.000000" x="830.000000" y="107.383456" fill="rgb(0, 100, 0)" style="fill-opacity:1.00" />
<!-- End 'T' -->
<!-- Begin 'G' -->
<ellipse cx="835.000000" cy="109.463461" rx="25.000000" ry="0.536539" fill="rgb(255, 165, 0)" style="fill-opacity:1.00" />
<ellipse cx="835.000000" cy="109.463461" rx="16.666667" ry="0.357692" fill="rgb(255, 255, 255)" style="fill-opacity:1.00" />
<rect height="0.536539" width="25.000000" x="835.000000" y="109.195192" fill="rgb(255, 255, 255)" style="fill-opacity:1.00" />
<rect height="0.134135" width="25.000000" x="835.000000" y="109.597596" fill="rgb(255, 165, 0)" style="fill-opacity:1.00" />
<rect height="0.402404" width="6.250000" x="853.750000" y="109.597596" fill="rgb(255, 165, 0)" style="fill-opacity:1.00" />
<!-- End 'G' -->
<!-- Begin 'T' -->
<rect height="1.684704" width="50.000000" x="870.000000" y="90.824100" fill="rgb(0, 100, 0)" style="fill-opacity:1.00" />
<rect height="10.529402" width="10.000000" x="890.000000" y="90.824100" fill="rgb(0, 100, 0)" style="fill-opacity:1.00" />
<!-- End 'T' -->
<!-- Begin 'C' -->
<ellipse cx="895.000000" cy="103.614227" rx="25.000000" ry="2.260725" fill="rgb(0, 0, 128)" style="fill-opacity:1.00" />
<ellipse cx="895.000000" cy="103.614227" rx="16.666667" ry="1.507150" fill="rgb(255, 255, 255)" style="fill-opacity:1.00" />
<rect height="2.260725" width="25.000000" x="895.000000" y="102.483865" fill="rgb(255, 255, 255)" style="fill-opacity:1.00" />
<!-- End 'C' -->
<!-- Begin 'A' -->
<polygon points=" 870.000000, 108.984222, 891.000000, 105.874952, 899.000000, 105.874952, 920.000000, 108.984222, 912.500000, 108.984222, 906.250000, 108.206905, 883.750000, 108.206905, 877.500000, 108.984222" fill="rgb(178, 34, 34)" style="fill-opacity:1.00" />
<!-- End 'A' -->
<!-- Begin 'G' -->
<ellipse cx="895.000000" cy="109.492111" rx="25.000000" ry="0.507889" fill="rgb(255, 165, 0)" style="fill-opacity:1.00" />
<ellipse cx="895.000000" cy="109.492111" rx="16.666667" ry="0.338593" fill="rgb(255, 255, 255)" style="fill-opacity:1.00" />
<rect height="0.507889" width="25.000000" x="895.000000" y="109.238167" fill="rgb(255, 255, 255)" style="fill-opacity:1.00" />
<rect height="0.126972" width="25.000000" x="895.000000" y="109.619083" fill="rgb(255, 165, 0)" style="fill-opacity:1.00" />
<rect height="0.380917" width="6.250000" x="913.750000" y="109.619083" fill="rgb(255, 165, 0)" style="fill-opacity:1.00" />
<!-- End 'G' -->
<text x="490.000000" y="165">
IC = 15.90
</text>

</svg>
