<?xml version="1.0" encoding="UTF-8" standalone="yes"?>
                 <!DOCTYPE svg PUBLIC "-//W3C//DTD SVG 1.0//EN" "http://www.w3.org/TR/2001/REC-SVG-20010904/DTD/svg10.dtd">
                 <svg height="170" width="780" xmlns="http://www.w3.org/2000/svg" xmlns:xlink="http://www.w3.org/1999/xlink">
                 <line x1="85" y1="120" x2="747" y2="120" style="stroke:rgb(99,99,99);stroke-width:2" />
<rect height="7.000000" width="2.000000" x="85.000000" y="120.000000" fill="rgb(0, 0, 0)" style="fill-opacity:1.00" />
<text x="107.000000" y="140">
1
</text>
<rect height="7.000000" width="2.000000" x="145.000000" y="120.000000" fill="rgb(0, 0, 0)" style="fill-opacity:1.00" />
<text x="167.000000" y="140">
2
</text>
<rect height="7.000000" width="2.000000" x="205.000000" y="120.000000" fill="rgb(0, 0, 0)" style="fill-opacity:1.00" />
<text x="227.000000" y="140">
3
</text>
<rect height="7.000000" width="2.000000" x="265.000000" y="120.000000" fill="rgb(0, 0, 0)" style="fill-opacity:1.00" />
<text x="287.000000" y="140">
4
</text>
<rect height="7.000000" width="2.000000" x="325.000000" y="120.000000" fill="rgb(0, 0, 0)" style="fill-opacity:1.00" />
<text x="347.000000" y="140">
5
</text>
<rect height="7.000000" width="2.000000" x="385.000000" y="120.000000" fill="rgb(0, 0, 0)" style="fill-opacity:1.00" />
<text x="407.000000" y="140">
6
</text>
<rect height="7.000000" width="2.000000" x="445.000000" y="120.000000" fill="rgb(0, 0, 0)" style="fill-opacity:1.00" />
<text x="467.000000" y="140">
7
</text>
<rect height="7.000000" width="2.000000" x="505.000000" y="120.000000" fill="rgb(0, 0, 0)" style="fill-opacity:1.00" />
<text x="527.000000" y="140">
8
</text>
<rect height="7.000000" width="2.000000" x="565.000000" y="120.000000" fill="rgb(0, 0, 0)" style="fill-opacity:1.00" />
<text x="587.000000" y="140">
9
</text>
<rect height="7.000000" width="2.000000" x="625.000000" y="120.000000" fill="rgb(0, 0, 0)" style="fill-opacity:1.00" />
<text x="647.000000" y="140">
10
</text>
<rect height="7.000000" width="2.000000" x="685.000000" y="120.000000" fill="rgb(0, 0, 0)" style="fill-opacity:1.00" />
<text x="707.000000" y="140">
11
</text>
<rect height="7.000000" width="2.000000" x="745.000000" y="120.000000" fill="rgb(0, 0, 0)" style="fill-opacity:1.00" />
<line x1="80" y1="112" x2="80" y2="10" style="stroke:rgb(99,99,99);stroke-width:2" />
<rect height="2.000000" width="7.000000" x="73.000000" y="110.000000" fill="rgb(0, 0, 0)" style="fill-opacity:1.00" />
<text x="63" y="115">
0
</text>
<rect height="2.000000" width="7.000000" x="73.000000" y="60.000000" fill="rgb(0, 0, 0)" style="fill-opacity:1.00" />
<text x="63" y="65">
1
</text>
<rect height="2.000000" width="7.000000" x="73.000000" y="10.000000" fill="rgb(0, 0, 0)" style="fill-opacity:1.00" />
<text x="63" y="15">
2
</text>
<text x="50" y="65"
transform="rotate(-90, 50, 70)">
bits
</text>
<!-- Begin 'A' -->
<polygon points=" 90.000000, 98.833399, 111.000000, 79.204607, 119.000000, 79.204607, 140.000000, 98.833399, 132.500000, 98.833399, 126.250000, 93.926201, 103.750000, 93.926201, 97.500000, 98.833399" fill="rgb(178, 34, 34)" style="fill-opacity:1.00" />
<polygon points=" 115.000000, 83.130365, 107.000000, 89.981882, 122.000000, 89.981882" fill="rgb(255, 255, 255)" style="fill-opacity:1.00" />
<!-- End 'A' -->
<!-- Begin 'C' -->
<ellipse cx="115.000000" cy="102.663194" rx="25.000000" ry="3.829795" fill="rgb(0, 0, 128)" style="fill-opacity:1.00" />
<ellipse cx="115.000000" cy="102.663194" rx="16.666667" ry="2.553197" fill="rgb(255, 255, 255)" style="fill-opacity:1.00" />
<rect height="3.829795" width="25.000000" x="115.000000" y="100.748296" fill="rgb(255, 255, 255)" style="fill-opacity:1.00" />
<!-- End 'C' -->
<!-- Begin 'G' -->
<ellipse cx="115.000000" cy="107.408999" rx="25.000000" ry="0.916010" fill="rgb(255, 165, 0)" style="fill-opacity:1.00" />
<ellipse cx="115.000000" cy="107.408999" rx="16.666667" ry="0.610674" fill="rgb(255, 255, 255)" style="fill-opacity:1.00" />
<rect height="0.916010" width="25.000000" x="115.000000" y="106.950994" fill="rgb(255, 255, 255)" style="fill-opacity:1.00" />
<rect height="0.229003" width="25.000000" x="115.000000" y="107.638002" fill="rgb(255, 165, 0)" style="fill-opacity:1.00" />
<rect height="0.687008" width="6.250000" x="133.750000" y="107.638002" fill="rgb(255, 165, 0)" style="fill-opacity:1.00" />
<!-- End 'G' -->
<!-- Begin 'T' -->
<rect height="0.267998" width="50.000000" x="90.000000" y="108.325010" fill="rgb(0, 100, 0)" style="fill-opacity:1.00" />
<rect height="1.674990" width="10.000000" x="110.000000" y="108.325010" fill="rgb(0, 100, 0)" style="fill-opacity:1.00" />
<!-- End 'T' -->
<!-- Begin 'A' -->
<polygon points=" 150.000000, 109.831795, 171.000000, 11.039115, 179.000000, 11.039115, 200.000000, 109.831795, 192.500000, 109.831795, 186.250000, 85.133625, 163.750000, 85.133625, 157.500000, 109.831795" fill="rgb(178, 34, 34)" style="fill-opacity:1.00" />
<polygon points=" 175.000000, 30.797651, 167.000000, 69.314723, 182.000000, 69.314723" fill="rgb(255, 255, 255)" style="fill-opacity:1.00" />
<!-- End 'A' -->
<!-- Begin 'T' -->
<rect height="0.008971" width="50.000000" x="150.000000" y="109.831795" fill="rgb(0, 100, 0)" style="fill-opacity:1.00" />
<rect height="0.056068" width="10.000000" x="170.000000" y="109.831795" fill="rgb(0, 100, 0)" style="fill-opacity:1.00" />
<!-- End 'T' -->
<!-- Begin 'G' -->
<ellipse cx="175.000000" cy="109.915897" rx="25.000000" ry="0.028034" fill="rgb(255, 165, 0)" style="fill-opacity:1.00" />
<ellipse cx="175.000000" cy="109.915897" rx="16.666667" ry="0.018689" fill="rgb(255, 255, 255)" style="fill-opacity:1.00" />
<rect height="0.028034" width="25.000000" x="175.000000" y="109.901880" fill="rgb(255, 255, 255)" style="fill-opacity:1.00" />
<rect height="0.007009" width="25.000000" x="175.000000" y="109.922906" fill="rgb(255, 165, 0)" style="fill-opacity:1.00" />
<rect height="0.021026" width="6.250000" x="193.750000" y="109.922906" fill="rgb(255, 165, 0)" style="fill-opacity:1.00" />
<!-- End 'G' -->
<!-- Begin 'C' -->
<ellipse cx="175.000000" cy="109.971966" rx="25.000000" ry="0.028034" fill="rgb(0, 0, 128)" style="fill-opacity:1.00" />
<ellipse cx="175.000000" cy="109.971966" rx="16.666667" ry="0.018689" fill="rgb(255, 255, 255)" style="fill-opacity:1.00" />
<rect height="0.028034" width="25.000000" x="175.000000" y="109.957949" fill="rgb(255, 255, 255)" style="fill-opacity:1.00" />
<!-- End 'C' -->
<!-- Begin 'A' -->
<polygon points=" 210.000000, 109.721238, 231.000000, 11.597043, 239.000000, 11.597043, 260.000000, 109.721238, 252.500000, 109.721238, 246.250000, 85.190189, 223.750000, 85.190189, 217.500000, 109.721238" fill="rgb(178, 34, 34)" style="fill-opacity:1.00" />
<polygon points=" 235.000000, 31.221882, 227.000000, 69.471560, 242.000000, 69.471560" fill="rgb(255, 255, 255)" style="fill-opacity:1.00" />
<!-- End 'A' -->
<!-- Begin 'G' -->
<ellipse cx="235.000000" cy="109.804867" rx="25.000000" ry="0.083629" fill="rgb(255, 165, 0)" style="fill-opacity:1.00" />
<ellipse cx="235.000000" cy="109.804867" rx="16.666667" ry="0.055752" fill="rgb(255, 255, 255)" style="fill-opacity:1.00" />
<rect height="0.083629" width="25.000000" x="235.000000" y="109.763052" fill="rgb(255, 255, 255)" style="fill-opacity:1.00" />
<rect height="0.020907" width="25.000000" x="235.000000" y="109.825774" fill="rgb(255, 165, 0)" style="fill-opacity:1.00" />
<rect height="0.062721" width="6.250000" x="253.750000" y="109.825774" fill="rgb(255, 165, 0)" style="fill-opacity:1.00" />
<!-- End 'G' -->
<!-- Begin 'T' -->
<rect height="0.008920" width="50.000000" x="210.000000" y="109.888495" fill="rgb(0, 100, 0)" style="fill-opacity:1.00" />
<rect height="0.055752" width="10.000000" x="230.000000" y="109.888495" fill="rgb(0, 100, 0)" style="fill-opacity:1.00" />
<!-- End 'T' -->
<!-- Begin 'C' -->
<ellipse cx="235.000000" cy="109.972124" rx="25.000000" ry="0.027876" fill="rgb(0, 0, 128)" style="fill-opacity:1.00" />
<ellipse cx="235.000000" cy="109.972124" rx="16.666667" ry="0.018584" fill="rgb(255, 255, 255)" style="fill-opacity:1.00" />
<rect height="0.027876" width="25.000000" x="235.000000" y="109.958186" fill="rgb(255, 255, 255)" style="fill-opacity:1.00" />
<!-- End 'C' -->
<!-- Begin 'T' -->
<rect height="7.413830" width="50.000000" x="270.000000" y="51.415610" fill="rgb(0, 100, 0)" style="fill-opacity:1.00" />
<rect height="46.336436" width="10.000000" x="290.000000" y="51.415610" fill="rgb(0, 100, 0)" style="fill-opacity:1.00" />
<!-- End 'T' -->
<!-- Begin 'C' -->
<ellipse cx="295.000000" cy="103.378138" rx="25.000000" ry="5.626093" fill="rgb(0, 0, 128)" style="fill-opacity:1.00" />
<ellipse cx="295.000000" cy="103.378138" rx="16.666667" ry="3.750729" fill="rgb(255, 255, 255)" style="fill-opacity:1.00" />
<rect height="5.626093" width="25.000000" x="295.000000" y="100.565092" fill="rgb(255, 255, 255)" style="fill-opacity:1.00" />
<!-- End 'C' -->
<!-- Begin 'G' -->
<ellipse cx="295.000000" cy="109.485520" rx="25.000000" ry="0.481288" fill="rgb(255, 165, 0)" style="fill-opacity:1.00" />
<ellipse cx="295.000000" cy="109.485520" rx="16.666667" ry="0.320859" fill="rgb(255, 255, 255)" style="fill-opacity:1.00" />
<rect height="0.481288" width="25.000000" x="295.000000" y="109.244875" fill="rgb(255, 255, 255)" style="fill-opacity:1.00" />
<rect height="0.120322" width="25.000000" x="295.000000" y="109.605842" fill="rgb(255, 165, 0)" style="fill-opacity:1.00" />
<rect height="0.360966" width="6.250000" x="313.750000" y="109.605842" fill="rgb(255, 165, 0)" style="fill-opacity:1.00" />
<!-- End 'G' -->
<!-- Begin 'A' -->
<polygon points=" 270.000000, 110.000000, 291.000000, 109.966808, 299.000000, 109.966808, 320.000000, 110.000000, 312.500000, 110.000000, 306.250000, 109.991702, 283.750000, 109.991702, 277.500000, 110.000000" fill="rgb(178, 34, 34)" style="fill-opacity:1.00" />
<!-- End 'A' -->
<!-- Begin 'C' -->
<ellipse cx="355.000000" cy="60.435455" rx="25.000000" ry="49.396340" fill="rgb(0, 0, 128)" style="fill-opacity:1.00" />
<ellipse cx="355.000000" cy="60.435455" rx="16.666667" ry="32.930893" fill="rgb(255, 255, 255)" style="fill-opacity:1.00" />
<rect height="49.396340" width="25.000000" x="355.000000" y="35.737285" fill="rgb(255, 255, 255)" style="fill-opacity:1.00" />
<!-- End 'C' -->
<!-- Begin 'T' -->
<rect height="0.008971" width="50.000000" x="330.000000" y="109.831795" fill="rgb(0, 100, 0)" style="fill-opacity:1.00" />
<rect height="0.056068" width="10.000000" x="350.000000" y="109.831795" fill="rgb(0, 100, 0)" style="fill-opacity:1.00" />
<!-- End 'T' -->
<!-- Begin 'G' -->
<ellipse cx="355.000000" cy="109.915897" rx="25.000000" ry="0.028034" fill="rgb(255, 165, 0)" style="fill-opacity:1.00" />
<ellipse cx="355.000000" cy="109.915897" rx="16.666667" ry="0.018689" fill="rgb(255, 255, 255)" style="fill-opacity:1.00" />
<rect height="0.028034" width="25.000000" x="355.000000" y="109.901880" fill="rgb(255, 255, 255)" style="fill-opacity:1.00" />
<rect height="0.007009" width="25.000000" x="355.000000" y="109.922906" fill="rgb(255, 165, 0)" style="fill-opacity:1.00" />
<rect height="0.021026" width="6.250000" x="373.750000" y="109.922906" fill="rgb(255, 165, 0)" style="fill-opacity:1.00" />
<!-- End 'G' -->
<!-- Begin 'A' -->
<polygon points=" 330.000000, 110.000000, 351.000000, 109.943932, 359.000000, 109.943932, 380.000000, 110.000000, 372.500000, 110.000000, 366.250000, 109.985983, 343.750000, 109.985983, 337.500000, 110.000000" fill="rgb(178, 34, 34)" style="fill-opacity:1.00" />
<!-- End 'A' -->
<!-- Begin 'A' -->
<polygon points=" 390.000000, 90.648721, 411.000000, 63.276323, 419.000000, 63.276323, 440.000000, 90.648721, 432.500000, 90.648721, 426.250000, 83.805622, 403.750000, 83.805622, 397.500000, 90.648721" fill="rgb(178, 34, 34)" style="fill-opacity:1.00" />
<polygon points=" 415.000000, 68.750803, 407.000000, 78.699762, 422.000000, 78.699762" fill="rgb(255, 255, 255)" style="fill-opacity:1.00" />
<!-- End 'A' -->
<!-- Begin 'T' -->
<rect height="2.998786" width="50.000000" x="390.000000" y="90.648721" fill="rgb(0, 100, 0)" style="fill-opacity:1.00" />
<rect height="18.742415" width="10.000000" x="410.000000" y="90.648721" fill="rgb(0, 100, 0)" style="fill-opacity:1.00" />
<!-- End 'T' -->
<!-- Begin 'C' -->
<ellipse cx="415.000000" cy="109.682332" rx="25.000000" ry="0.291196" fill="rgb(0, 0, 128)" style="fill-opacity:1.00" />
<ellipse cx="415.000000" cy="109.682332" rx="16.666667" ry="0.194130" fill="rgb(255, 255, 255)" style="fill-opacity:1.00" />
<rect height="0.291196" width="25.000000" x="415.000000" y="109.536734" fill="rgb(255, 255, 255)" style="fill-opacity:1.00" />
<!-- End 'C' -->
<!-- Begin 'G' -->
<ellipse cx="415.000000" cy="109.986764" rx="25.000000" ry="0.013236" fill="rgb(255, 165, 0)" style="fill-opacity:1.00" />
<ellipse cx="415.000000" cy="109.986764" rx="16.666667" ry="0.008824" fill="rgb(255, 255, 255)" style="fill-opacity:1.00" />
<rect height="0.013236" width="25.000000" x="415.000000" y="109.980146" fill="rgb(255, 255, 255)" style="fill-opacity:1.00" />
<rect height="0.003309" width="25.000000" x="415.000000" y="109.990073" fill="rgb(255, 165, 0)" style="fill-opacity:1.00" />
<rect height="0.009927" width="6.250000" x="433.750000" y="109.990073" fill="rgb(255, 165, 0)" style="fill-opacity:1.00" />
<!-- End 'G' -->
<!-- Begin 'C' -->
<ellipse cx="475.000000" cy="77.787213" rx="25.000000" ry="19.077758" fill="rgb(0, 0, 128)" style="fill-opacity:1.00" />
<ellipse cx="475.000000" cy="77.787213" rx="16.666667" ry="12.718505" fill="rgb(255, 255, 255)" style="fill-opacity:1.00" />
<rect height="19.077758" width="25.000000" x="475.000000" y="68.248334" fill="rgb(255, 255, 255)" style="fill-opacity:1.00" />
<!-- End 'C' -->
<!-- Begin 'G' -->
<ellipse cx="475.000000" cy="102.517102" rx="25.000000" ry="5.652131" fill="rgb(255, 165, 0)" style="fill-opacity:1.00" />
<ellipse cx="475.000000" cy="102.517102" rx="16.666667" ry="3.768087" fill="rgb(255, 255, 255)" style="fill-opacity:1.00" />
<rect height="5.652131" width="25.000000" x="475.000000" y="99.691036" fill="rgb(255, 255, 255)" style="fill-opacity:1.00" />
<rect height="1.413033" width="25.000000" x="475.000000" y="103.930135" fill="rgb(255, 165, 0)" style="fill-opacity:1.00" />
<rect height="4.239098" width="6.250000" x="493.750000" y="103.930135" fill="rgb(255, 165, 0)" style="fill-opacity:1.00" />
<!-- End 'G' -->
<!-- Begin 'A' -->
<polygon points=" 450.000000, 109.970940, 471.000000, 108.169233, 479.000000, 108.169233, 500.000000, 109.970940, 492.500000, 109.970940, 486.250000, 109.520513, 463.750000, 109.520513, 457.500000, 109.970940" fill="rgb(178, 34, 34)" style="fill-opacity:1.00" />
<!-- End 'A' -->
<!-- Begin 'T' -->
<rect height="0.004650" width="50.000000" x="450.000000" y="109.970940" fill="rgb(0, 100, 0)" style="fill-opacity:1.00" />
<rect height="0.029060" width="10.000000" x="470.000000" y="109.970940" fill="rgb(0, 100, 0)" style="fill-opacity:1.00" />
<!-- End 'T' -->
<!-- Begin 'A' -->
<polygon points=" 510.000000, 91.012283, 531.000000, 58.281914, 539.000000, 58.281914, 560.000000, 91.012283, 552.500000, 91.012283, 546.250000, 82.829691, 523.750000, 82.829691, 517.500000, 91.012283" fill="rgb(178, 34, 34)" style="fill-opacity:1.00" />
<polygon points=" 535.000000, 64.827988, 527.000000, 76.920136, 542.000000, 76.920136" fill="rgb(255, 255, 255)" style="fill-opacity:1.00" />
<!-- End 'A' -->
<!-- Begin 'T' -->
<rect height="3.023970" width="50.000000" x="510.000000" y="91.012283" fill="rgb(0, 100, 0)" style="fill-opacity:1.00" />
<rect height="18.899811" width="10.000000" x="530.000000" y="91.012283" fill="rgb(0, 100, 0)" style="fill-opacity:1.00" />
<!-- End 'T' -->
<!-- Begin 'G' -->
<ellipse cx="535.000000" cy="109.941396" rx="25.000000" ry="0.029302" fill="rgb(255, 165, 0)" style="fill-opacity:1.00" />
<ellipse cx="535.000000" cy="109.941396" rx="16.666667" ry="0.019535" fill="rgb(255, 255, 255)" style="fill-opacity:1.00" />
<rect height="0.029302" width="25.000000" x="535.000000" y="109.926745" fill="rgb(255, 255, 255)" style="fill-opacity:1.00" />
<rect height="0.007326" width="25.000000" x="535.000000" y="109.948721" fill="rgb(255, 165, 0)" style="fill-opacity:1.00" />
<rect height="0.021977" width="6.250000" x="553.750000" y="109.948721" fill="rgb(255, 165, 0)" style="fill-opacity:1.00" />
<!-- End 'G' -->
<!-- Begin 'C' -->
<ellipse cx="535.000000" cy="109.985349" rx="25.000000" ry="0.014651" fill="rgb(0, 0, 128)" style="fill-opacity:1.00" />
<ellipse cx="535.000000" cy="109.985349" rx="16.666667" ry="0.009767" fill="rgb(255, 255, 255)" style="fill-opacity:1.00" />
<rect height="0.014651" width="25.000000" x="535.000000" y="109.978023" fill="rgb(255, 255, 255)" style="fill-opacity:1.00" />
<!-- End 'C' -->
<!-- Begin 'G' -->
<ellipse cx="595.000000" cy="66.377185" rx="25.000000" ry="39.479472" fill="rgb(255, 165, 0)" style="fill-opacity:1.00" />
<ellipse cx="595.000000" cy="66.377185" rx="16.666667" ry="26.319648" fill="rgb(255, 255, 255)" style="fill-opacity:1.00" />
<rect height="39.479472" width="25.000000" x="595.000000" y="46.637449" fill="rgb(255, 255, 255)" style="fill-opacity:1.00" />
<rect height="9.869868" width="25.000000" x="595.000000" y="76.247053" fill="rgb(255, 165, 0)" style="fill-opacity:1.00" />
<rect height="29.609604" width="6.250000" x="613.750000" y="76.247053" fill="rgb(255, 165, 0)" style="fill-opacity:1.00" />
<!-- End 'G' -->
<!-- Begin 'A' -->
<polygon points=" 570.000000, 108.587497, 591.000000, 105.856656, 599.000000, 105.856656, 620.000000, 108.587497, 612.500000, 108.587497, 606.250000, 107.904787, 583.750000, 107.904787, 577.500000, 108.587497" fill="rgb(178, 34, 34)" style="fill-opacity:1.00" />
<!-- End 'A' -->
<!-- Begin 'T' -->
<rect height="0.210934" width="50.000000" x="570.000000" y="108.587497" fill="rgb(0, 100, 0)" style="fill-opacity:1.00" />
<rect height="1.318337" width="10.000000" x="590.000000" y="108.587497" fill="rgb(0, 100, 0)" style="fill-opacity:1.00" />
<!-- End 'T' -->
<!-- Begin 'C' -->
<ellipse cx="595.000000" cy="109.952917" rx="25.000000" ry="0.047083" fill="rgb(0, 0, 128)" style="fill-opacity:1.00" />
<ellipse cx="595.000000" cy="109.952917" rx="16.666667" ry="0.031389" fill="rgb(255, 255, 255)" style="fill-opacity:1.00" />
<rect height="0.047083" width="25.000000" x="595.000000" y="109.929375" fill="rgb(255, 255, 255)" style="fill-opacity:1.00" />
<!-- End 'C' -->
<!-- Begin 'C' -->
<ellipse cx="655.000000" cy="84.123216" rx="25.000000" ry="15.624828" fill="rgb(0, 0, 128)" style="fill-opacity:1.00" />
<ellipse cx="655.000000" cy="84.123216" rx="16.666667" ry="10.416552" fill="rgb(255, 255, 255)" style="fill-opacity:1.00" />
<rect height="15.624828" width="25.000000" x="655.000000" y="76.310802" fill="rgb(255, 255, 255)" style="fill-opacity:1.00" />
<!-- End 'C' -->
<!-- Begin 'T' -->
<rect height="0.812632" width="50.000000" x="630.000000" y="99.748044" fill="rgb(0, 100, 0)" style="fill-opacity:1.00" />
<rect height="5.078951" width="10.000000" x="650.000000" y="99.748044" fill="rgb(0, 100, 0)" style="fill-opacity:1.00" />
<!-- End 'T' -->
<!-- Begin 'A' -->
<polygon points=" 630.000000, 108.189448, 651.000000, 104.826995, 659.000000, 104.826995, 680.000000, 108.189448, 672.500000, 108.189448, 666.250000, 107.348835, 643.750000, 107.348835, 637.500000, 108.189448" fill="rgb(178, 34, 34)" style="fill-opacity:1.00" />
<!-- End 'A' -->
<!-- Begin 'G' -->
<ellipse cx="655.000000" cy="109.094724" rx="25.000000" ry="0.905276" fill="rgb(255, 165, 0)" style="fill-opacity:1.00" />
<ellipse cx="655.000000" cy="109.094724" rx="16.666667" ry="0.603517" fill="rgb(255, 255, 255)" style="fill-opacity:1.00" />
<rect height="0.905276" width="25.000000" x="655.000000" y="108.642086" fill="rgb(255, 255, 255)" style="fill-opacity:1.00" />
<rect height="0.226319" width="25.000000" x="655.000000" y="109.321043" fill="rgb(255, 165, 0)" style="fill-opacity:1.00" />
<rect height="0.678957" width="6.250000" x="673.750000" y="109.321043" fill="rgb(255, 165, 0)" style="fill-opacity:1.00" />
<!-- End 'G' -->
<!-- Begin 'A' -->
<polygon points=" 690.000000, 104.405318, 711.000000, 100.356822, 719.000000, 100.356822, 740.000000, 104.405318, 732.500000, 104.405318, 726.250000, 103.393194, 703.750000, 103.393194, 697.500000, 104.405318" fill="rgb(178, 34, 34)" style="fill-opacity:1.00" />
<!-- End 'A' -->
<!-- Begin 'T' -->
<rect height="0.401244" width="50.000000" x="690.000000" y="104.405318" fill="rgb(0, 100, 0)" style="fill-opacity:1.00" />
<rect height="2.507773" width="10.000000" x="710.000000" y="104.405318" fill="rgb(0, 100, 0)" style="fill-opacity:1.00" />
<!-- End 'T' -->
<!-- Begin 'C' -->
<ellipse cx="715.000000" cy="108.098682" rx="25.000000" ry="1.185592" fill="rgb(0, 0, 128)" style="fill-opacity:1.00" />
<ellipse cx="715.000000" cy="108.098682" rx="16.666667" ry="0.790395" fill="rgb(255, 255, 255)" style="fill-opacity:1.00" />
<rect height="1.185592" width="25.000000" x="715.000000" y="107.505886" fill="rgb(255, 255, 255)" style="fill-opacity:1.00" />
<!-- End 'C' -->
<!-- Begin 'G' -->
<ellipse cx="715.000000" cy="109.642137" rx="25.000000" ry="0.357863" fill="rgb(255, 165, 0)" style="fill-opacity:1.00" />
<ellipse cx="715.000000" cy="109.642137" rx="16.666667" ry="0.238575" fill="rgb(255, 255, 255)" style="fill-opacity:1.00" />
<rect height="0.357863" width="25.000000" x="715.000000" y="109.463206" fill="rgb(255, 255, 255)" style="fill-opacity:1.00" />
<rect height="0.089466" width="25.000000" x="715.000000" y="109.731603" fill="rgb(255, 165, 0)" style="fill-opacity:1.00" />
<rect height="0.268397" width="6.250000" x="733.750000" y="109.731603" fill="rgb(255, 165, 0)" style="fill-opacity:1.00" />
<!-- End 'G' -->
<text x="400.000000" y="165">
IC = 13.39
</text>

</svg>
