<?xml version="1.0" encoding="UTF-8" standalone="yes"?>
                 <!DOCTYPE svg PUBLIC "-//W3C//DTD SVG 1.0//EN" "http://www.w3.org/TR/2001/REC-SVG-20010904/DTD/svg10.dtd">
                 <svg height="170" width="1020" xmlns="http://www.w3.org/2000/svg" xmlns:xlink="http://www.w3.org/1999/xlink">
                 <line x1="85" y1="120" x2="987" y2="120" style="stroke:rgb(99,99,99);stroke-width:2" />
<rect height="7.000000" width="2.000000" x="85.000000" y="120.000000" fill="rgb(0, 0, 0)" style="fill-opacity:1.00" />
<text x="107.000000" y="140">
1
</text>
<rect height="7.000000" width="2.000000" x="145.000000" y="120.000000" fill="rgb(0, 0, 0)" style="fill-opacity:1.00" />
<text x="167.000000" y="140">
2
</text>
<rect height="7.000000" width="2.000000" x="205.000000" y="120.000000" fill="rgb(0, 0, 0)" style="fill-opacity:1.00" />
<text x="227.000000" y="140">
3
</text>
<rect height="7.000000" width="2.000000" x="265.000000" y="120.000000" fill="rgb(0, 0, 0)" style="fill-opacity:1.00" />
<text x="287.000000" y="140">
4
</text>
<rect height="7.000000" width="2.000000" x="325.000000" y="120.000000" fill="rgb(0, 0, 0)" style="fill-opacity:1.00" />
<text x="347.000000" y="140">
5
</text>
<rect height="7.000000" width="2.000000" x="385.000000" y="120.000000" fill="rgb(0, 0, 0)" style="fill-opacity:1.00" />
<text x="407.000000" y="140">
6
</text>
<rect height="7.000000" width="2.000000" x="445.000000" y="120.000000" fill="rgb(0, 0, 0)" style="fill-opacity:1.00" />
<text x="467.000000" y="140">
7
</text>
<rect height="7.000000" width="2.000000" x="505.000000" y="120.000000" fill="rgb(0, 0, 0)" style="fill-opacity:1.00" />
<text x="527.000000" y="140">
8
</text>
<rect height="7.000000" width="2.000000" x="565.000000" y="120.000000" fill="rgb(0, 0, 0)" style="fill-opacity:1.00" />
<text x="587.000000" y="140">
9
</text>
<rect height="7.000000" width="2.000000" x="625.000000" y="120.000000" fill="rgb(0, 0, 0)" style="fill-opacity:1.00" />
<text x="647.000000" y="140">
10
</text>
<rect height="7.000000" width="2.000000" x="685.000000" y="120.000000" fill="rgb(0, 0, 0)" style="fill-opacity:1.00" />
<text x="707.000000" y="140">
11
</text>
<rect height="7.000000" width="2.000000" x="745.000000" y="120.000000" fill="rgb(0, 0, 0)" style="fill-opacity:1.00" />
<text x="767.000000" y="140">
12
</text>
<rect height="7.000000" width="2.000000" x="805.000000" y="120.000000" fill="rgb(0, 0, 0)" style="fill-opacity:1.00" />
<text x="827.000000" y="140">
13
</text>
<rect height="7.000000" width="2.000000" x="865.000000" y="120.000000" fill="rgb(0, 0, 0)" style="fill-opacity:1.00" />
<text x="887.000000" y="140">
14
</text>
<rect height="7.000000" width="2.000000" x="925.000000" y="120.000000" fill="rgb(0, 0, 0)" style="fill-opacity:1.00" />
<text x="947.000000" y="140">
15
</text>
<rect height="7.000000" width="2.000000" x="985.000000" y="120.000000" fill="rgb(0, 0, 0)" style="fill-opacity:1.00" />
<line x1="80" y1="112" x2="80" y2="10" style="stroke:rgb(99,99,99);stroke-width:2" />
<rect height="2.000000" width="7.000000" x="73.000000" y="110.000000" fill="rgb(0, 0, 0)" style="fill-opacity:1.00" />
<text x="63" y="115">
0
</text>
<rect height="2.000000" width="7.000000" x="73.000000" y="60.000000" fill="rgb(0, 0, 0)" style="fill-opacity:1.00" />
<text x="63" y="65">
1
</text>
<rect height="2.000000" width="7.000000" x="73.000000" y="10.000000" fill="rgb(0, 0, 0)" style="fill-opacity:1.00" />
<text x="63" y="15">
2
</text>
<text x="50" y="65"
transform="rotate(-90, 50, 70)">
bits
</text>
<!-- Begin 'C' -->
<ellipse cx="115.000000" cy="99.060666" rx="25.000000" ry="3.535979" fill="rgb(0, 0, 128)" style="fill-opacity:1.00" />
<ellipse cx="115.000000" cy="99.060666" rx="16.666667" ry="2.357319" fill="rgb(255, 255, 255)" style="fill-opacity:1.00" />
<rect height="3.535979" width="25.000000" x="115.000000" y="97.292677" fill="rgb(255, 255, 255)" style="fill-opacity:1.00" />
<!-- End 'C' -->
<!-- Begin 'T' -->
<rect height="0.584515" width="50.000000" x="90.000000" y="102.596645" fill="rgb(0, 100, 0)" style="fill-opacity:1.00" />
<rect height="3.653221" width="10.000000" x="110.000000" y="102.596645" fill="rgb(0, 100, 0)" style="fill-opacity:1.00" />
<!-- End 'T' -->
<!-- Begin 'A' -->
<polygon points=" 90.000000, 109.154494, 111.000000, 106.249866, 119.000000, 106.249866, 140.000000, 109.154494, 132.500000, 109.154494, 126.250000, 108.428337, 103.750000, 108.428337, 97.500000, 109.154494" fill="rgb(178, 34, 34)" style="fill-opacity:1.00" />
<!-- End 'A' -->
<!-- Begin 'G' -->
<ellipse cx="115.000000" cy="109.577247" rx="25.000000" ry="0.422753" fill="rgb(255, 165, 0)" style="fill-opacity:1.00" />
<ellipse cx="115.000000" cy="109.577247" rx="16.666667" ry="0.281835" fill="rgb(255, 255, 255)" style="fill-opacity:1.00" />
<rect height="0.422753" width="25.000000" x="115.000000" y="109.365870" fill="rgb(255, 255, 255)" style="fill-opacity:1.00" />
<rect height="0.105688" width="25.000000" x="115.000000" y="109.682935" fill="rgb(255, 165, 0)" style="fill-opacity:1.00" />
<rect height="0.317065" width="6.250000" x="133.750000" y="109.682935" fill="rgb(255, 165, 0)" style="fill-opacity:1.00" />
<!-- End 'G' -->
<!-- Begin 'G' -->
<ellipse cx="175.000000" cy="102.400891" rx="25.000000" ry="2.113507" fill="rgb(255, 165, 0)" style="fill-opacity:1.00" />
<ellipse cx="175.000000" cy="102.400891" rx="16.666667" ry="1.409005" fill="rgb(255, 255, 255)" style="fill-opacity:1.00" />
<rect height="2.113507" width="25.000000" x="175.000000" y="101.344137" fill="rgb(255, 255, 255)" style="fill-opacity:1.00" />
<rect height="0.528377" width="25.000000" x="175.000000" y="102.929268" fill="rgb(255, 165, 0)" style="fill-opacity:1.00" />
<rect height="1.585131" width="6.250000" x="193.750000" y="102.929268" fill="rgb(255, 165, 0)" style="fill-opacity:1.00" />
<!-- End 'G' -->
<!-- Begin 'T' -->
<rect height="0.396614" width="50.000000" x="150.000000" y="104.514399" fill="rgb(0, 100, 0)" style="fill-opacity:1.00" />
<rect height="2.478839" width="10.000000" x="170.000000" y="104.514399" fill="rgb(0, 100, 0)" style="fill-opacity:1.00" />
<!-- End 'T' -->
<!-- Begin 'A' -->
<polygon points=" 150.000000, 109.212135, 171.000000, 106.993237, 179.000000, 106.993237, 200.000000, 109.212135, 192.500000, 109.212135, 186.250000, 108.657410, 163.750000, 108.657410, 157.500000, 109.212135" fill="rgb(178, 34, 34)" style="fill-opacity:1.00" />
<!-- End 'A' -->
<!-- Begin 'C' -->
<ellipse cx="175.000000" cy="109.606067" rx="25.000000" ry="0.393933" fill="rgb(0, 0, 128)" style="fill-opacity:1.00" />
<ellipse cx="175.000000" cy="109.606067" rx="16.666667" ry="0.262622" fill="rgb(255, 255, 255)" style="fill-opacity:1.00" />
<rect height="0.393933" width="25.000000" x="175.000000" y="109.409101" fill="rgb(255, 255, 255)" style="fill-opacity:1.00" />
<!-- End 'C' -->
<!-- Begin 'C' -->
<ellipse cx="235.000000" cy="103.271416" rx="25.000000" ry="1.542317" fill="rgb(0, 0, 128)" style="fill-opacity:1.00" />
<ellipse cx="235.000000" cy="103.271416" rx="16.666667" ry="1.028211" fill="rgb(255, 255, 255)" style="fill-opacity:1.00" />
<rect height="1.542317" width="25.000000" x="235.000000" y="102.500257" fill="rgb(255, 255, 255)" style="fill-opacity:1.00" />
<!-- End 'C' -->
<!-- Begin 'G' -->
<ellipse cx="235.000000" cy="106.247169" rx="25.000000" ry="1.433436" fill="rgb(255, 165, 0)" style="fill-opacity:1.00" />
<ellipse cx="235.000000" cy="106.247169" rx="16.666667" ry="0.955624" fill="rgb(255, 255, 255)" style="fill-opacity:1.00" />
<rect height="1.433436" width="25.000000" x="235.000000" y="105.530451" fill="rgb(255, 255, 255)" style="fill-opacity:1.00" />
<rect height="0.358359" width="25.000000" x="235.000000" y="106.605528" fill="rgb(255, 165, 0)" style="fill-opacity:1.00" />
<rect height="1.075077" width="6.250000" x="253.750000" y="106.605528" fill="rgb(255, 165, 0)" style="fill-opacity:1.00" />
<!-- End 'G' -->
<!-- Begin 'A' -->
<polygon points=" 210.000000, 109.208575, 231.000000, 107.680605, 239.000000, 107.680605, 260.000000, 109.208575, 252.500000, 109.208575, 246.250000, 108.826582, 223.750000, 108.826582, 217.500000, 109.208575" fill="rgb(178, 34, 34)" style="fill-opacity:1.00" />
<!-- End 'A' -->
<!-- Begin 'T' -->
<rect height="0.126628" width="50.000000" x="210.000000" y="109.208575" fill="rgb(0, 100, 0)" style="fill-opacity:1.00" />
<rect height="0.791425" width="10.000000" x="230.000000" y="109.208575" fill="rgb(0, 100, 0)" style="fill-opacity:1.00" />
<!-- End 'T' -->
<!-- Begin 'C' -->
<ellipse cx="295.000000" cy="73.151643" rx="25.000000" ry="28.273869" fill="rgb(0, 0, 128)" style="fill-opacity:1.00" />
<ellipse cx="295.000000" cy="73.151643" rx="16.666667" ry="18.849246" fill="rgb(255, 255, 255)" style="fill-opacity:1.00" />
<rect height="28.273869" width="25.000000" x="295.000000" y="59.014708" fill="rgb(255, 255, 255)" style="fill-opacity:1.00" />
<!-- End 'C' -->
<!-- Begin 'T' -->
<rect height="0.708408" width="50.000000" x="270.000000" y="101.425512" fill="rgb(0, 100, 0)" style="fill-opacity:1.00" />
<rect height="4.427552" width="10.000000" x="290.000000" y="101.425512" fill="rgb(0, 100, 0)" style="fill-opacity:1.00" />
<!-- End 'T' -->
<!-- Begin 'A' -->
<polygon points=" 270.000000, 109.969470, 291.000000, 105.853065, 299.000000, 105.853065, 320.000000, 109.969470, 312.500000, 109.969470, 306.250000, 108.940369, 283.750000, 108.940369, 277.500000, 109.969470" fill="rgb(178, 34, 34)" style="fill-opacity:1.00" />
<!-- End 'A' -->
<!-- Begin 'G' -->
<ellipse cx="295.000000" cy="109.984735" rx="25.000000" ry="0.015265" fill="rgb(255, 165, 0)" style="fill-opacity:1.00" />
<ellipse cx="295.000000" cy="109.984735" rx="16.666667" ry="0.010177" fill="rgb(255, 255, 255)" style="fill-opacity:1.00" />
<rect height="0.015265" width="25.000000" x="295.000000" y="109.977103" fill="rgb(255, 255, 255)" style="fill-opacity:1.00" />
<rect height="0.003816" width="25.000000" x="295.000000" y="109.988551" fill="rgb(255, 165, 0)" style="fill-opacity:1.00" />
<rect height="0.011449" width="6.250000" x="313.750000" y="109.988551" fill="rgb(255, 165, 0)" style="fill-opacity:1.00" />
<!-- End 'G' -->
<!-- Begin 'G' -->
<ellipse cx="355.000000" cy="75.369270" rx="25.000000" ry="25.075470" fill="rgb(255, 165, 0)" style="fill-opacity:1.00" />
<ellipse cx="355.000000" cy="75.369270" rx="16.666667" ry="16.716980" fill="rgb(255, 255, 255)" style="fill-opacity:1.00" />
<rect height="25.075470" width="25.000000" x="355.000000" y="62.831535" fill="rgb(255, 255, 255)" style="fill-opacity:1.00" />
<rect height="6.268868" width="25.000000" x="355.000000" y="81.638137" fill="rgb(255, 165, 0)" style="fill-opacity:1.00" />
<rect height="18.806603" width="6.250000" x="373.750000" y="81.638137" fill="rgb(255, 165, 0)" style="fill-opacity:1.00" />
<!-- End 'G' -->
<!-- Begin 'A' -->
<polygon points=" 330.000000, 106.488459, 351.000000, 100.444740, 359.000000, 100.444740, 380.000000, 106.488459, 372.500000, 106.488459, 366.250000, 104.977529, 343.750000, 104.977529, 337.500000, 106.488459" fill="rgb(178, 34, 34)" style="fill-opacity:1.00" />
<!-- End 'A' -->
<!-- Begin 'T' -->
<rect height="0.527206" width="50.000000" x="330.000000" y="106.488459" fill="rgb(0, 100, 0)" style="fill-opacity:1.00" />
<rect height="3.295039" width="10.000000" x="350.000000" y="106.488459" fill="rgb(0, 100, 0)" style="fill-opacity:1.00" />
<!-- End 'T' -->
<!-- Begin 'C' -->
<ellipse cx="355.000000" cy="109.891749" rx="25.000000" ry="0.108251" fill="rgb(0, 0, 128)" style="fill-opacity:1.00" />
<ellipse cx="355.000000" cy="109.891749" rx="16.666667" ry="0.072167" fill="rgb(255, 255, 255)" style="fill-opacity:1.00" />
<rect height="0.108251" width="25.000000" x="355.000000" y="109.837623" fill="rgb(255, 255, 255)" style="fill-opacity:1.00" />
<!-- End 'C' -->
<!-- Begin 'C' -->
<ellipse cx="415.000000" cy="86.618495" rx="25.000000" ry="7.092035" fill="rgb(0, 0, 128)" style="fill-opacity:1.00" />
<ellipse cx="415.000000" cy="86.618495" rx="16.666667" ry="4.728023" fill="rgb(255, 255, 255)" style="fill-opacity:1.00" />
<rect height="7.092035" width="25.000000" x="415.000000" y="83.072477" fill="rgb(255, 255, 255)" style="fill-opacity:1.00" />
<!-- End 'C' -->
<!-- Begin 'G' -->
<ellipse cx="415.000000" cy="100.680239" rx="25.000000" ry="6.969709" fill="rgb(255, 165, 0)" style="fill-opacity:1.00" />
<ellipse cx="415.000000" cy="100.680239" rx="16.666667" ry="4.646473" fill="rgb(255, 255, 255)" style="fill-opacity:1.00" />
<rect height="6.969709" width="25.000000" x="415.000000" y="97.195384" fill="rgb(255, 255, 255)" style="fill-opacity:1.00" />
<rect height="1.742427" width="25.000000" x="415.000000" y="102.422666" fill="rgb(255, 165, 0)" style="fill-opacity:1.00" />
<rect height="5.227282" width="6.250000" x="433.750000" y="102.422666" fill="rgb(255, 165, 0)" style="fill-opacity:1.00" />
<!-- End 'G' -->
<!-- Begin 'A' -->
<polygon points=" 390.000000, 109.008431, 411.000000, 107.649948, 419.000000, 107.649948, 440.000000, 109.008431, 432.500000, 109.008431, 426.250000, 108.668810, 403.750000, 108.668810, 397.500000, 109.008431" fill="rgb(178, 34, 34)" style="fill-opacity:1.00" />
<!-- End 'A' -->
<!-- Begin 'T' -->
<rect height="0.158651" width="50.000000" x="390.000000" y="109.008431" fill="rgb(0, 100, 0)" style="fill-opacity:1.00" />
<rect height="0.991569" width="10.000000" x="410.000000" y="109.008431" fill="rgb(0, 100, 0)" style="fill-opacity:1.00" />
<!-- End 'T' -->
<!-- Begin 'C' -->
<ellipse cx="475.000000" cy="73.747421" rx="25.000000" ry="27.465530" fill="rgb(0, 0, 128)" style="fill-opacity:1.00" />
<ellipse cx="475.000000" cy="73.747421" rx="16.666667" ry="18.310354" fill="rgb(255, 255, 255)" style="fill-opacity:1.00" />
<rect height="27.465530" width="25.000000" x="475.000000" y="60.014656" fill="rgb(255, 255, 255)" style="fill-opacity:1.00" />
<!-- End 'C' -->
<!-- Begin 'T' -->
<rect height="0.784715" width="50.000000" x="450.000000" y="101.212951" fill="rgb(0, 100, 0)" style="fill-opacity:1.00" />
<rect height="4.904471" width="10.000000" x="470.000000" y="101.212951" fill="rgb(0, 100, 0)" style="fill-opacity:1.00" />
<!-- End 'T' -->
<!-- Begin 'A' -->
<polygon points=" 450.000000, 109.901992, 471.000000, 106.117422, 479.000000, 106.117422, 500.000000, 109.901992, 492.500000, 109.901992, 486.250000, 108.955849, 463.750000, 108.955849, 457.500000, 109.901992" fill="rgb(178, 34, 34)" style="fill-opacity:1.00" />
<!-- End 'A' -->
<!-- Begin 'G' -->
<ellipse cx="475.000000" cy="109.950996" rx="25.000000" ry="0.049004" fill="rgb(255, 165, 0)" style="fill-opacity:1.00" />
<ellipse cx="475.000000" cy="109.950996" rx="16.666667" ry="0.032669" fill="rgb(255, 255, 255)" style="fill-opacity:1.00" />
<rect height="0.049004" width="25.000000" x="475.000000" y="109.926494" fill="rgb(255, 255, 255)" style="fill-opacity:1.00" />
<rect height="0.012251" width="25.000000" x="475.000000" y="109.963247" fill="rgb(255, 165, 0)" style="fill-opacity:1.00" />
<rect height="0.036753" width="6.250000" x="493.750000" y="109.963247" fill="rgb(255, 165, 0)" style="fill-opacity:1.00" />
<!-- End 'G' -->
<!-- Begin 'G' -->
<ellipse cx="535.000000" cy="71.910222" rx="25.000000" ry="30.926370" fill="rgb(255, 165, 0)" style="fill-opacity:1.00" />
<ellipse cx="535.000000" cy="71.910222" rx="16.666667" ry="20.617580" fill="rgb(255, 255, 255)" style="fill-opacity:1.00" />
<rect height="30.926370" width="25.000000" x="535.000000" y="56.447037" fill="rgb(255, 255, 255)" style="fill-opacity:1.00" />
<rect height="7.731592" width="25.000000" x="535.000000" y="79.641815" fill="rgb(255, 165, 0)" style="fill-opacity:1.00" />
<rect height="23.194777" width="6.250000" x="553.750000" y="79.641815" fill="rgb(255, 165, 0)" style="fill-opacity:1.00" />
<!-- End 'G' -->
<!-- Begin 'T' -->
<rect height="0.607801" width="50.000000" x="510.000000" y="102.836592" fill="rgb(0, 100, 0)" style="fill-opacity:1.00" />
<rect height="3.798758" width="10.000000" x="530.000000" y="102.836592" fill="rgb(0, 100, 0)" style="fill-opacity:1.00" />
<!-- End 'T' -->
<!-- Begin 'A' -->
<polygon points=" 510.000000, 109.325065, 531.000000, 106.635350, 539.000000, 106.635350, 560.000000, 109.325065, 552.500000, 109.325065, 546.250000, 108.652636, 523.750000, 108.652636, 517.500000, 109.325065" fill="rgb(178, 34, 34)" style="fill-opacity:1.00" />
<!-- End 'A' -->
<!-- Begin 'C' -->
<ellipse cx="535.000000" cy="109.662532" rx="25.000000" ry="0.337468" fill="rgb(0, 0, 128)" style="fill-opacity:1.00" />
<ellipse cx="535.000000" cy="109.662532" rx="16.666667" ry="0.224978" fill="rgb(255, 255, 255)" style="fill-opacity:1.00" />
<rect height="0.337468" width="25.000000" x="535.000000" y="109.493799" fill="rgb(255, 255, 255)" style="fill-opacity:1.00" />
<!-- End 'C' -->
<!-- Begin 'G' -->
<ellipse cx="595.000000" cy="105.314675" rx="25.000000" ry="0.990339" fill="rgb(255, 165, 0)" style="fill-opacity:1.00" />
<ellipse cx="595.000000" cy="105.314675" rx="16.666667" ry="0.660226" fill="rgb(255, 255, 255)" style="fill-opacity:1.00" />
<rect height="0.990339" width="25.000000" x="595.000000" y="104.819505" fill="rgb(255, 255, 255)" style="fill-opacity:1.00" />
<rect height="0.247585" width="25.000000" x="595.000000" y="105.562260" fill="rgb(255, 165, 0)" style="fill-opacity:1.00" />
<rect height="0.742754" width="6.250000" x="613.750000" y="105.562260" fill="rgb(255, 165, 0)" style="fill-opacity:1.00" />
<!-- End 'G' -->
<!-- Begin 'C' -->
<ellipse cx="595.000000" cy="107.255262" rx="25.000000" ry="0.950247" fill="rgb(0, 0, 128)" style="fill-opacity:1.00" />
<ellipse cx="595.000000" cy="107.255262" rx="16.666667" ry="0.633498" fill="rgb(255, 255, 255)" style="fill-opacity:1.00" />
<rect height="0.950247" width="25.000000" x="595.000000" y="106.780138" fill="rgb(255, 255, 255)" style="fill-opacity:1.00" />
<!-- End 'C' -->
<!-- Begin 'T' -->
<rect height="0.178279" width="50.000000" x="570.000000" y="108.205509" fill="rgb(0, 100, 0)" style="fill-opacity:1.00" />
<rect height="1.114246" width="10.000000" x="590.000000" y="108.205509" fill="rgb(0, 100, 0)" style="fill-opacity:1.00" />
<!-- End 'T' -->
<!-- Begin 'A' -->
<polygon points=" 570.000000, 110.000000, 591.000000, 109.319755, 599.000000, 109.319755, 620.000000, 110.000000, 612.500000, 110.000000, 606.250000, 109.829939, 583.750000, 109.829939, 577.500000, 110.000000" fill="rgb(178, 34, 34)" style="fill-opacity:1.00" />
<!-- End 'A' -->
<!-- Begin 'C' -->
<ellipse cx="655.000000" cy="101.658191" rx="25.000000" ry="2.474351" fill="rgb(0, 0, 128)" style="fill-opacity:1.00" />
<ellipse cx="655.000000" cy="101.658191" rx="16.666667" ry="1.649567" fill="rgb(255, 255, 255)" style="fill-opacity:1.00" />
<rect height="2.474351" width="25.000000" x="655.000000" y="100.421015" fill="rgb(255, 255, 255)" style="fill-opacity:1.00" />
<!-- End 'C' -->
<!-- Begin 'A' -->
<polygon points=" 630.000000, 106.723107, 651.000000, 104.132542, 659.000000, 104.132542, 680.000000, 106.723107, 672.500000, 106.723107, 666.250000, 106.075466, 643.750000, 106.075466, 637.500000, 106.723107" fill="rgb(178, 34, 34)" style="fill-opacity:1.00" />
<!-- End 'A' -->
<!-- Begin 'T' -->
<rect height="0.386472" width="50.000000" x="630.000000" y="106.723107" fill="rgb(0, 100, 0)" style="fill-opacity:1.00" />
<rect height="2.415448" width="10.000000" x="650.000000" y="106.723107" fill="rgb(0, 100, 0)" style="fill-opacity:1.00" />
<!-- End 'T' -->
<!-- Begin 'G' -->
<ellipse cx="655.000000" cy="109.569277" rx="25.000000" ry="0.430723" fill="rgb(255, 165, 0)" style="fill-opacity:1.00" />
<ellipse cx="655.000000" cy="109.569277" rx="16.666667" ry="0.287148" fill="rgb(255, 255, 255)" style="fill-opacity:1.00" />
<rect height="0.430723" width="25.000000" x="655.000000" y="109.353916" fill="rgb(255, 255, 255)" style="fill-opacity:1.00" />
<rect height="0.107681" width="25.000000" x="655.000000" y="109.676958" fill="rgb(255, 165, 0)" style="fill-opacity:1.00" />
<rect height="0.323042" width="6.250000" x="673.750000" y="109.676958" fill="rgb(255, 165, 0)" style="fill-opacity:1.00" />
<!-- End 'G' -->
<!-- Begin 'G' -->
<ellipse cx="715.000000" cy="99.043321" rx="25.000000" ry="3.453128" fill="rgb(255, 165, 0)" style="fill-opacity:1.00" />
<ellipse cx="715.000000" cy="99.043321" rx="16.666667" ry="2.302085" fill="rgb(255, 255, 255)" style="fill-opacity:1.00" />
<rect height="3.453128" width="25.000000" x="715.000000" y="97.316757" fill="rgb(255, 255, 255)" style="fill-opacity:1.00" />
<rect height="0.863282" width="25.000000" x="715.000000" y="99.906603" fill="rgb(255, 165, 0)" style="fill-opacity:1.00" />
<rect height="2.589846" width="6.250000" x="733.750000" y="99.906603" fill="rgb(255, 165, 0)" style="fill-opacity:1.00" />
<!-- End 'G' -->
<!-- Begin 'A' -->
<polygon points=" 690.000000, 106.172463, 711.000000, 102.496449, 719.000000, 102.496449, 740.000000, 106.172463, 732.500000, 106.172463, 726.250000, 105.253460, 703.750000, 105.253460, 697.500000, 106.172463" fill="rgb(178, 34, 34)" style="fill-opacity:1.00" />
<!-- End 'A' -->
<!-- Begin 'T' -->
<rect height="0.489101" width="50.000000" x="690.000000" y="106.172463" fill="rgb(0, 100, 0)" style="fill-opacity:1.00" />
<rect height="3.056878" width="10.000000" x="710.000000" y="106.172463" fill="rgb(0, 100, 0)" style="fill-opacity:1.00" />
<!-- End 'T' -->
<!-- Begin 'C' -->
<ellipse cx="715.000000" cy="109.614671" rx="25.000000" ry="0.385329" fill="rgb(0, 0, 128)" style="fill-opacity:1.00" />
<ellipse cx="715.000000" cy="109.614671" rx="16.666667" ry="0.256886" fill="rgb(255, 255, 255)" style="fill-opacity:1.00" />
<rect height="0.385329" width="25.000000" x="715.000000" y="109.422006" fill="rgb(255, 255, 255)" style="fill-opacity:1.00" />
<!-- End 'C' -->
<!-- Begin 'G' -->
<ellipse cx="775.000000" cy="109.632823" rx="25.000000" ry="0.059633" fill="rgb(255, 165, 0)" style="fill-opacity:1.00" />
<ellipse cx="775.000000" cy="109.632823" rx="16.666667" ry="0.039756" fill="rgb(255, 255, 255)" style="fill-opacity:1.00" />
<rect height="0.059633" width="25.000000" x="775.000000" y="109.603006" fill="rgb(255, 255, 255)" style="fill-opacity:1.00" />
<rect height="0.014908" width="25.000000" x="775.000000" y="109.647731" fill="rgb(255, 165, 0)" style="fill-opacity:1.00" />
<rect height="0.044725" width="6.250000" x="793.750000" y="109.647731" fill="rgb(255, 165, 0)" style="fill-opacity:1.00" />
<!-- End 'G' -->
<!-- Begin 'C' -->
<ellipse cx="775.000000" cy="109.750476" rx="25.000000" ry="0.058019" fill="rgb(0, 0, 128)" style="fill-opacity:1.00" />
<ellipse cx="775.000000" cy="109.750476" rx="16.666667" ry="0.038679" fill="rgb(255, 255, 255)" style="fill-opacity:1.00" />
<rect height="0.058019" width="25.000000" x="775.000000" y="109.721466" fill="rgb(255, 255, 255)" style="fill-opacity:1.00" />
<!-- End 'C' -->
<!-- Begin 'A' -->
<polygon points=" 750.000000, 109.909157, 771.000000, 109.808495, 779.000000, 109.808495, 800.000000, 109.909157, 792.500000, 109.909157, 786.250000, 109.883992, 763.750000, 109.883992, 757.500000, 109.909157" fill="rgb(178, 34, 34)" style="fill-opacity:1.00" />
<!-- End 'A' -->
<!-- Begin 'T' -->
<rect height="0.014535" width="50.000000" x="750.000000" y="109.909157" fill="rgb(0, 100, 0)" style="fill-opacity:1.00" />
<rect height="0.090843" width="10.000000" x="770.000000" y="109.909157" fill="rgb(0, 100, 0)" style="fill-opacity:1.00" />
<!-- End 'T' -->
<!-- Begin 'C' -->
<ellipse cx="835.000000" cy="107.594919" rx="25.000000" ry="0.423807" fill="rgb(0, 0, 128)" style="fill-opacity:1.00" />
<ellipse cx="835.000000" cy="107.594919" rx="16.666667" ry="0.282538" fill="rgb(255, 255, 255)" style="fill-opacity:1.00" />
<rect height="0.423807" width="25.000000" x="835.000000" y="107.383016" fill="rgb(255, 255, 255)" style="fill-opacity:1.00" />
<!-- End 'C' -->
<!-- Begin 'T' -->
<rect height="0.130663" width="50.000000" x="810.000000" y="108.018727" fill="rgb(0, 100, 0)" style="fill-opacity:1.00" />
<rect height="0.816646" width="10.000000" x="830.000000" y="108.018727" fill="rgb(0, 100, 0)" style="fill-opacity:1.00" />
<!-- End 'T' -->
<!-- Begin 'A' -->
<polygon points=" 810.000000, 109.612282, 831.000000, 108.835372, 839.000000, 108.835372, 860.000000, 109.612282, 852.500000, 109.612282, 846.250000, 109.418054, 823.750000, 109.418054, 817.500000, 109.612282" fill="rgb(178, 34, 34)" style="fill-opacity:1.00" />
<!-- End 'A' -->
<!-- Begin 'G' -->
<ellipse cx="835.000000" cy="109.806141" rx="25.000000" ry="0.193859" fill="rgb(255, 165, 0)" style="fill-opacity:1.00" />
<ellipse cx="835.000000" cy="109.806141" rx="16.666667" ry="0.129239" fill="rgb(255, 255, 255)" style="fill-opacity:1.00" />
<rect height="0.193859" width="25.000000" x="835.000000" y="109.709211" fill="rgb(255, 255, 255)" style="fill-opacity:1.00" />
<rect height="0.048465" width="25.000000" x="835.000000" y="109.854606" fill="rgb(255, 165, 0)" style="fill-opacity:1.00" />
<rect height="0.145394" width="6.250000" x="853.750000" y="109.854606" fill="rgb(255, 165, 0)" style="fill-opacity:1.00" />
<!-- End 'G' -->
<!-- Begin 'G' -->
<ellipse cx="895.000000" cy="105.738550" rx="25.000000" ry="0.965838" fill="rgb(255, 165, 0)" style="fill-opacity:1.00" />
<ellipse cx="895.000000" cy="105.738550" rx="16.666667" ry="0.643892" fill="rgb(255, 255, 255)" style="fill-opacity:1.00" />
<rect height="0.965838" width="25.000000" x="895.000000" y="105.255631" fill="rgb(255, 255, 255)" style="fill-opacity:1.00" />
<rect height="0.241460" width="25.000000" x="895.000000" y="105.980010" fill="rgb(255, 165, 0)" style="fill-opacity:1.00" />
<rect height="0.724379" width="6.250000" x="913.750000" y="105.980010" fill="rgb(255, 165, 0)" style="fill-opacity:1.00" />
<!-- End 'G' -->
<!-- Begin 'A' -->
<polygon points=" 870.000000, 108.155479, 891.000000, 106.704389, 899.000000, 106.704389, 920.000000, 108.155479, 912.500000, 108.155479, 906.250000, 107.792706, 883.750000, 107.792706, 877.500000, 108.155479" fill="rgb(178, 34, 34)" style="fill-opacity:1.00" />
<!-- End 'A' -->
<!-- Begin 'T' -->
<rect height="0.199082" width="50.000000" x="870.000000" y="108.155479" fill="rgb(0, 100, 0)" style="fill-opacity:1.00" />
<rect height="1.244262" width="10.000000" x="890.000000" y="108.155479" fill="rgb(0, 100, 0)" style="fill-opacity:1.00" />
<!-- End 'T' -->
<!-- Begin 'C' -->
<ellipse cx="895.000000" cy="109.699870" rx="25.000000" ry="0.300130" fill="rgb(0, 0, 128)" style="fill-opacity:1.00" />
<ellipse cx="895.000000" cy="109.699870" rx="16.666667" ry="0.200086" fill="rgb(255, 255, 255)" style="fill-opacity:1.00" />
<rect height="0.300130" width="25.000000" x="895.000000" y="109.549805" fill="rgb(255, 255, 255)" style="fill-opacity:1.00" />
<!-- End 'C' -->
<!-- Begin 'G' -->
<ellipse cx="955.000000" cy="109.636786" rx="25.000000" ry="0.061377" fill="rgb(255, 165, 0)" style="fill-opacity:1.00" />
<ellipse cx="955.000000" cy="109.636786" rx="16.666667" ry="0.040918" fill="rgb(255, 255, 255)" style="fill-opacity:1.00" />
<rect height="0.061377" width="25.000000" x="955.000000" y="109.606098" fill="rgb(255, 255, 255)" style="fill-opacity:1.00" />
<rect height="0.015344" width="25.000000" x="955.000000" y="109.652130" fill="rgb(255, 165, 0)" style="fill-opacity:1.00" />
<rect height="0.046033" width="6.250000" x="973.750000" y="109.652130" fill="rgb(255, 165, 0)" style="fill-opacity:1.00" />
<!-- End 'G' -->
<!-- Begin 'C' -->
<ellipse cx="955.000000" cy="109.753292" rx="25.000000" ry="0.055129" fill="rgb(0, 0, 128)" style="fill-opacity:1.00" />
<ellipse cx="955.000000" cy="109.753292" rx="16.666667" ry="0.036753" fill="rgb(255, 255, 255)" style="fill-opacity:1.00" />
<rect height="0.055129" width="25.000000" x="955.000000" y="109.725728" fill="rgb(255, 255, 255)" style="fill-opacity:1.00" />
<!-- End 'C' -->
<!-- Begin 'T' -->
<rect height="0.015910" width="50.000000" x="930.000000" y="109.808421" fill="rgb(0, 100, 0)" style="fill-opacity:1.00" />
<rect height="0.099439" width="10.000000" x="950.000000" y="109.808421" fill="rgb(0, 100, 0)" style="fill-opacity:1.00" />
<!-- End 'T' -->
<!-- Begin 'A' -->
<polygon points=" 930.000000, 110.000000, 951.000000, 109.907860, 959.000000, 109.907860, 980.000000, 110.000000, 972.500000, 110.000000, 966.250000, 109.976965, 943.750000, 109.976965, 937.500000, 110.000000" fill="rgb(178, 34, 34)" style="fill-opacity:1.00" />
<!-- End 'A' -->
<text x="520.000000" y="165">
IC = 7.21
</text>

</svg>
