<?xml version="1.0" encoding="UTF-8" standalone="yes"?>
                 <!DOCTYPE svg PUBLIC "-//W3C//DTD SVG 1.0//EN" "http://www.w3.org/TR/2001/REC-SVG-20010904/DTD/svg10.dtd">
                 <svg height="170" width="1080" xmlns="http://www.w3.org/2000/svg" xmlns:xlink="http://www.w3.org/1999/xlink">
                 <line x1="85" y1="120" x2="1047" y2="120" style="stroke:rgb(99,99,99);stroke-width:2" />
<rect height="7.000000" width="2.000000" x="85.000000" y="120.000000" fill="rgb(0, 0, 0)" style="fill-opacity:1.00" />
<text x="107.000000" y="140">
1
</text>
<rect height="7.000000" width="2.000000" x="145.000000" y="120.000000" fill="rgb(0, 0, 0)" style="fill-opacity:1.00" />
<text x="167.000000" y="140">
2
</text>
<rect height="7.000000" width="2.000000" x="205.000000" y="120.000000" fill="rgb(0, 0, 0)" style="fill-opacity:1.00" />
<text x="227.000000" y="140">
3
</text>
<rect height="7.000000" width="2.000000" x="265.000000" y="120.000000" fill="rgb(0, 0, 0)" style="fill-opacity:1.00" />
<text x="287.000000" y="140">
4
</text>
<rect height="7.000000" width="2.000000" x="325.000000" y="120.000000" fill="rgb(0, 0, 0)" style="fill-opacity:1.00" />
<text x="347.000000" y="140">
5
</text>
<rect height="7.000000" width="2.000000" x="385.000000" y="120.000000" fill="rgb(0, 0, 0)" style="fill-opacity:1.00" />
<text x="407.000000" y="140">
6
</text>
<rect height="7.000000" width="2.000000" x="445.000000" y="120.000000" fill="rgb(0, 0, 0)" style="fill-opacity:1.00" />
<text x="467.000000" y="140">
7
</text>
<rect height="7.000000" width="2.000000" x="505.000000" y="120.000000" fill="rgb(0, 0, 0)" style="fill-opacity:1.00" />
<text x="527.000000" y="140">
8
</text>
<rect height="7.000000" width="2.000000" x="565.000000" y="120.000000" fill="rgb(0, 0, 0)" style="fill-opacity:1.00" />
<text x="587.000000" y="140">
9
</text>
<rect height="7.000000" width="2.000000" x="625.000000" y="120.000000" fill="rgb(0, 0, 0)" style="fill-opacity:1.00" />
<text x="647.000000" y="140">
10
</text>
<rect height="7.000000" width="2.000000" x="685.000000" y="120.000000" fill="rgb(0, 0, 0)" style="fill-opacity:1.00" />
<text x="707.000000" y="140">
11
</text>
<rect height="7.000000" width="2.000000" x="745.000000" y="120.000000" fill="rgb(0, 0, 0)" style="fill-opacity:1.00" />
<text x="767.000000" y="140">
12
</text>
<rect height="7.000000" width="2.000000" x="805.000000" y="120.000000" fill="rgb(0, 0, 0)" style="fill-opacity:1.00" />
<text x="827.000000" y="140">
13
</text>
<rect height="7.000000" width="2.000000" x="865.000000" y="120.000000" fill="rgb(0, 0, 0)" style="fill-opacity:1.00" />
<text x="887.000000" y="140">
14
</text>
<rect height="7.000000" width="2.000000" x="925.000000" y="120.000000" fill="rgb(0, 0, 0)" style="fill-opacity:1.00" />
<text x="947.000000" y="140">
15
</text>
<rect height="7.000000" width="2.000000" x="985.000000" y="120.000000" fill="rgb(0, 0, 0)" style="fill-opacity:1.00" />
<text x="1007.000000" y="140">
16
</text>
<rect height="7.000000" width="2.000000" x="1045.000000" y="120.000000" fill="rgb(0, 0, 0)" style="fill-opacity:1.00" />
<line x1="80" y1="112" x2="80" y2="10" style="stroke:rgb(99,99,99);stroke-width:2" />
<rect height="2.000000" width="7.000000" x="73.000000" y="110.000000" fill="rgb(0, 0, 0)" style="fill-opacity:1.00" />
<text x="63" y="115">
0
</text>
<rect height="2.000000" width="7.000000" x="73.000000" y="60.000000" fill="rgb(0, 0, 0)" style="fill-opacity:1.00" />
<text x="63" y="65">
1
</text>
<rect height="2.000000" width="7.000000" x="73.000000" y="10.000000" fill="rgb(0, 0, 0)" style="fill-opacity:1.00" />
<text x="63" y="15">
2
</text>
<text x="50" y="65"
transform="rotate(-90, 50, 70)">
bits
</text>
<!-- Begin 'A' -->
<polygon points=" 90.000000, 109.605278, 111.000000, 109.436437, 119.000000, 109.436437, 140.000000, 109.605278, 132.500000, 109.605278, 126.250000, 109.563068, 103.750000, 109.563068, 97.500000, 109.605278" fill="rgb(178, 34, 34)" style="fill-opacity:1.00" />
<!-- End 'A' -->
<!-- Begin 'T' -->
<rect height="0.023019" width="50.000000" x="90.000000" y="109.605278" fill="rgb(0, 100, 0)" style="fill-opacity:1.00" />
<rect height="0.143866" width="10.000000" x="110.000000" y="109.605278" fill="rgb(0, 100, 0)" style="fill-opacity:1.00" />
<!-- End 'T' -->
<!-- Begin 'G' -->
<ellipse cx="115.000000" cy="109.812191" rx="25.000000" ry="0.063047" fill="rgb(255, 165, 0)" style="fill-opacity:1.00" />
<ellipse cx="115.000000" cy="109.812191" rx="16.666667" ry="0.042031" fill="rgb(255, 255, 255)" style="fill-opacity:1.00" />
<rect height="0.063047" width="25.000000" x="115.000000" y="109.780668" fill="rgb(255, 255, 255)" style="fill-opacity:1.00" />
<rect height="0.015762" width="25.000000" x="115.000000" y="109.827953" fill="rgb(255, 165, 0)" style="fill-opacity:1.00" />
<rect height="0.047285" width="6.250000" x="133.750000" y="109.827953" fill="rgb(255, 165, 0)" style="fill-opacity:1.00" />
<!-- End 'G' -->
<!-- Begin 'C' -->
<ellipse cx="115.000000" cy="109.937619" rx="25.000000" ry="0.062381" fill="rgb(0, 0, 128)" style="fill-opacity:1.00" />
<ellipse cx="115.000000" cy="109.937619" rx="16.666667" ry="0.041587" fill="rgb(255, 255, 255)" style="fill-opacity:1.00" />
<rect height="0.062381" width="25.000000" x="115.000000" y="109.906429" fill="rgb(255, 255, 255)" style="fill-opacity:1.00" />
<!-- End 'C' -->
<!-- Begin 'A' -->
<polygon points=" 150.000000, 109.268980, 171.000000, 108.927212, 179.000000, 108.927212, 200.000000, 109.268980, 192.500000, 109.268980, 186.250000, 109.183538, 163.750000, 109.183538, 157.500000, 109.268980" fill="rgb(178, 34, 34)" style="fill-opacity:1.00" />
<!-- End 'A' -->
<!-- Begin 'T' -->
<rect height="0.043208" width="50.000000" x="150.000000" y="109.268980" fill="rgb(0, 100, 0)" style="fill-opacity:1.00" />
<rect height="0.270049" width="10.000000" x="170.000000" y="109.268980" fill="rgb(0, 100, 0)" style="fill-opacity:1.00" />
<!-- End 'T' -->
<!-- Begin 'G' -->
<ellipse cx="175.000000" cy="109.662233" rx="25.000000" ry="0.123204" fill="rgb(255, 165, 0)" style="fill-opacity:1.00" />
<ellipse cx="175.000000" cy="109.662233" rx="16.666667" ry="0.082136" fill="rgb(255, 255, 255)" style="fill-opacity:1.00" />
<rect height="0.123204" width="25.000000" x="175.000000" y="109.600631" fill="rgb(255, 255, 255)" style="fill-opacity:1.00" />
<rect height="0.030801" width="25.000000" x="175.000000" y="109.693034" fill="rgb(255, 165, 0)" style="fill-opacity:1.00" />
<rect height="0.092403" width="6.250000" x="193.750000" y="109.693034" fill="rgb(255, 165, 0)" style="fill-opacity:1.00" />
<!-- End 'G' -->
<!-- Begin 'C' -->
<ellipse cx="175.000000" cy="109.892719" rx="25.000000" ry="0.107281" fill="rgb(0, 0, 128)" style="fill-opacity:1.00" />
<ellipse cx="175.000000" cy="109.892719" rx="16.666667" ry="0.071521" fill="rgb(255, 255, 255)" style="fill-opacity:1.00" />
<rect height="0.107281" width="25.000000" x="175.000000" y="109.839078" fill="rgb(255, 255, 255)" style="fill-opacity:1.00" />
<!-- End 'C' -->
<!-- Begin 'A' -->
<polygon points=" 210.000000, 109.599539, 231.000000, 109.429723, 239.000000, 109.429723, 260.000000, 109.599539, 252.500000, 109.599539, 246.250000, 109.557085, 223.750000, 109.557085, 217.500000, 109.599539" fill="rgb(178, 34, 34)" style="fill-opacity:1.00" />
<!-- End 'A' -->
<!-- Begin 'C' -->
<ellipse cx="235.000000" cy="109.672140" rx="25.000000" ry="0.072601" fill="rgb(0, 0, 128)" style="fill-opacity:1.00" />
<ellipse cx="235.000000" cy="109.672140" rx="16.666667" ry="0.048400" fill="rgb(255, 255, 255)" style="fill-opacity:1.00" />
<rect height="0.072601" width="25.000000" x="235.000000" y="109.635840" fill="rgb(255, 255, 255)" style="fill-opacity:1.00" />
<!-- End 'C' -->
<!-- Begin 'G' -->
<ellipse cx="235.000000" cy="109.812167" rx="25.000000" ry="0.067427" fill="rgb(255, 165, 0)" style="fill-opacity:1.00" />
<ellipse cx="235.000000" cy="109.812167" rx="16.666667" ry="0.044951" fill="rgb(255, 255, 255)" style="fill-opacity:1.00" />
<rect height="0.067427" width="25.000000" x="235.000000" y="109.778454" fill="rgb(255, 255, 255)" style="fill-opacity:1.00" />
<rect height="0.016857" width="25.000000" x="235.000000" y="109.829024" fill="rgb(255, 165, 0)" style="fill-opacity:1.00" />
<rect height="0.050570" width="6.250000" x="253.750000" y="109.829024" fill="rgb(255, 165, 0)" style="fill-opacity:1.00" />
<!-- End 'G' -->
<!-- Begin 'T' -->
<rect height="0.019265" width="50.000000" x="210.000000" y="109.879594" fill="rgb(0, 100, 0)" style="fill-opacity:1.00" />
<rect height="0.120406" width="10.000000" x="230.000000" y="109.879594" fill="rgb(0, 100, 0)" style="fill-opacity:1.00" />
<!-- End 'T' -->
<!-- Begin 'T' -->
<rect height="1.426604" width="50.000000" x="270.000000" y="91.695488" fill="rgb(0, 100, 0)" style="fill-opacity:1.00" />
<rect height="8.916276" width="10.000000" x="290.000000" y="91.695488" fill="rgb(0, 100, 0)" style="fill-opacity:1.00" />
<!-- End 'T' -->
<!-- Begin 'A' -->
<polygon points=" 270.000000, 105.411776, 291.000000, 100.611764, 299.000000, 100.611764, 320.000000, 105.411776, 312.500000, 105.411776, 306.250000, 104.211773, 283.750000, 104.211773, 277.500000, 105.411776" fill="rgb(178, 34, 34)" style="fill-opacity:1.00" />
<!-- End 'A' -->
<!-- Begin 'G' -->
<ellipse cx="295.000000" cy="107.464403" rx="25.000000" ry="2.052627" fill="rgb(255, 165, 0)" style="fill-opacity:1.00" />
<ellipse cx="295.000000" cy="107.464403" rx="16.666667" ry="1.368418" fill="rgb(255, 255, 255)" style="fill-opacity:1.00" />
<rect height="2.052627" width="25.000000" x="295.000000" y="106.438090" fill="rgb(255, 255, 255)" style="fill-opacity:1.00" />
<rect height="0.513157" width="25.000000" x="295.000000" y="107.977560" fill="rgb(255, 165, 0)" style="fill-opacity:1.00" />
<rect height="1.539470" width="6.250000" x="313.750000" y="107.977560" fill="rgb(255, 165, 0)" style="fill-opacity:1.00" />
<!-- End 'G' -->
<!-- Begin 'C' -->
<ellipse cx="295.000000" cy="109.758515" rx="25.000000" ry="0.241485" fill="rgb(0, 0, 128)" style="fill-opacity:1.00" />
<ellipse cx="295.000000" cy="109.758515" rx="16.666667" ry="0.160990" fill="rgb(255, 255, 255)" style="fill-opacity:1.00" />
<rect height="0.241485" width="25.000000" x="295.000000" y="109.637773" fill="rgb(255, 255, 255)" style="fill-opacity:1.00" />
<!-- End 'C' -->
<!-- Begin 'G' -->
<ellipse cx="355.000000" cy="72.120669" rx="25.000000" ry="30.464039" fill="rgb(255, 165, 0)" style="fill-opacity:1.00" />
<ellipse cx="355.000000" cy="72.120669" rx="16.666667" ry="20.309359" fill="rgb(255, 255, 255)" style="fill-opacity:1.00" />
<rect height="30.464039" width="25.000000" x="355.000000" y="56.888649" fill="rgb(255, 255, 255)" style="fill-opacity:1.00" />
<rect height="7.616010" width="25.000000" x="355.000000" y="79.736678" fill="rgb(255, 165, 0)" style="fill-opacity:1.00" />
<rect height="22.848029" width="6.250000" x="373.750000" y="79.736678" fill="rgb(255, 165, 0)" style="fill-opacity:1.00" />
<!-- End 'G' -->
<!-- Begin 'A' -->
<polygon points=" 330.000000, 106.280379, 351.000000, 102.584708, 359.000000, 102.584708, 380.000000, 106.280379, 372.500000, 106.280379, 366.250000, 105.356461, 343.750000, 105.356461, 337.500000, 106.280379" fill="rgb(178, 34, 34)" style="fill-opacity:1.00" />
<!-- End 'A' -->
<!-- Begin 'T' -->
<rect height="0.522016" width="50.000000" x="330.000000" y="106.280379" fill="rgb(0, 100, 0)" style="fill-opacity:1.00" />
<rect height="3.262598" width="10.000000" x="350.000000" y="106.280379" fill="rgb(0, 100, 0)" style="fill-opacity:1.00" />
<!-- End 'T' -->
<!-- Begin 'C' -->
<ellipse cx="355.000000" cy="109.771488" rx="25.000000" ry="0.228512" fill="rgb(0, 0, 128)" style="fill-opacity:1.00" />
<ellipse cx="355.000000" cy="109.771488" rx="16.666667" ry="0.152341" fill="rgb(255, 255, 255)" style="fill-opacity:1.00" />
<rect height="0.228512" width="25.000000" x="355.000000" y="109.657233" fill="rgb(255, 255, 255)" style="fill-opacity:1.00" />
<!-- End 'C' -->
<!-- Begin 'A' -->
<polygon points=" 390.000000, 99.038389, 411.000000, 88.279495, 419.000000, 88.279495, 440.000000, 99.038389, 432.500000, 99.038389, 426.250000, 96.348665, 403.750000, 96.348665, 397.500000, 99.038389" fill="rgb(178, 34, 34)" style="fill-opacity:1.00" />
<polygon points=" 415.000000, 90.431274, 407.000000, 93.734831, 422.000000, 93.734831" fill="rgb(255, 255, 255)" style="fill-opacity:1.00" />
<!-- End 'A' -->
<!-- Begin 'T' -->
<rect height="1.265427" width="50.000000" x="390.000000" y="99.038389" fill="rgb(0, 100, 0)" style="fill-opacity:1.00" />
<rect height="7.908921" width="10.000000" x="410.000000" y="99.038389" fill="rgb(0, 100, 0)" style="fill-opacity:1.00" />
<!-- End 'T' -->
<!-- Begin 'G' -->
<ellipse cx="415.000000" cy="107.888476" rx="25.000000" ry="0.941166" fill="rgb(255, 165, 0)" style="fill-opacity:1.00" />
<ellipse cx="415.000000" cy="107.888476" rx="16.666667" ry="0.627444" fill="rgb(255, 255, 255)" style="fill-opacity:1.00" />
<rect height="0.941166" width="25.000000" x="415.000000" y="107.417893" fill="rgb(255, 255, 255)" style="fill-opacity:1.00" />
<rect height="0.235291" width="25.000000" x="415.000000" y="108.123767" fill="rgb(255, 165, 0)" style="fill-opacity:1.00" />
<rect height="0.705874" width="6.250000" x="433.750000" y="108.123767" fill="rgb(255, 165, 0)" style="fill-opacity:1.00" />
<!-- End 'G' -->
<!-- Begin 'C' -->
<ellipse cx="415.000000" cy="109.414821" rx="25.000000" ry="0.585179" fill="rgb(0, 0, 128)" style="fill-opacity:1.00" />
<ellipse cx="415.000000" cy="109.414821" rx="16.666667" ry="0.390119" fill="rgb(255, 255, 255)" style="fill-opacity:1.00" />
<rect height="0.585179" width="25.000000" x="415.000000" y="109.122231" fill="rgb(255, 255, 255)" style="fill-opacity:1.00" />
<!-- End 'C' -->
<!-- Begin 'A' -->
<polygon points=" 450.000000, 99.664619, 471.000000, 60.461302, 479.000000, 60.461302, 500.000000, 99.664619, 492.500000, 99.664619, 486.250000, 89.863790, 463.750000, 89.863790, 457.500000, 99.664619" fill="rgb(178, 34, 34)" style="fill-opacity:1.00" />
<polygon points=" 475.000000, 68.301966, 467.000000, 82.983292, 482.000000, 82.983292" fill="rgb(255, 255, 255)" style="fill-opacity:1.00" />
<!-- End 'A' -->
<!-- Begin 'C' -->
<ellipse cx="475.000000" cy="102.315439" rx="25.000000" ry="2.650820" fill="rgb(0, 0, 128)" style="fill-opacity:1.00" />
<ellipse cx="475.000000" cy="102.315439" rx="16.666667" ry="1.767213" fill="rgb(255, 255, 255)" style="fill-opacity:1.00" />
<rect height="2.650820" width="25.000000" x="475.000000" y="100.990029" fill="rgb(255, 255, 255)" style="fill-opacity:1.00" />
<!-- End 'C' -->
<!-- Begin 'T' -->
<rect height="0.685010" width="50.000000" x="450.000000" y="104.966259" fill="rgb(0, 100, 0)" style="fill-opacity:1.00" />
<rect height="4.281313" width="10.000000" x="470.000000" y="104.966259" fill="rgb(0, 100, 0)" style="fill-opacity:1.00" />
<!-- End 'T' -->
<!-- Begin 'G' -->
<ellipse cx="475.000000" cy="109.623786" rx="25.000000" ry="0.376214" fill="rgb(255, 165, 0)" style="fill-opacity:1.00" />
<ellipse cx="475.000000" cy="109.623786" rx="16.666667" ry="0.250809" fill="rgb(255, 255, 255)" style="fill-opacity:1.00" />
<rect height="0.376214" width="25.000000" x="475.000000" y="109.435679" fill="rgb(255, 255, 255)" style="fill-opacity:1.00" />
<rect height="0.094053" width="25.000000" x="475.000000" y="109.717840" fill="rgb(255, 165, 0)" style="fill-opacity:1.00" />
<rect height="0.282160" width="6.250000" x="493.750000" y="109.717840" fill="rgb(255, 165, 0)" style="fill-opacity:1.00" />
<!-- End 'G' -->
<!-- Begin 'A' -->
<polygon points=" 510.000000, 108.263215, 531.000000, 18.059497, 539.000000, 18.059497, 560.000000, 108.263215, 552.500000, 108.263215, 546.250000, 85.712286, 523.750000, 85.712286, 517.500000, 108.263215" fill="rgb(178, 34, 34)" style="fill-opacity:1.00" />
<polygon points=" 535.000000, 36.100241, 527.000000, 71.181728, 542.000000, 71.181728" fill="rgb(255, 255, 255)" style="fill-opacity:1.00" />
<!-- End 'A' -->
<!-- Begin 'T' -->
<rect height="0.151600" width="50.000000" x="510.000000" y="108.263215" fill="rgb(0, 100, 0)" style="fill-opacity:1.00" />
<rect height="0.947503" width="10.000000" x="530.000000" y="108.263215" fill="rgb(0, 100, 0)" style="fill-opacity:1.00" />
<!-- End 'T' -->
<!-- Begin 'G' -->
<ellipse cx="535.000000" cy="109.497989" rx="25.000000" ry="0.287271" fill="rgb(255, 165, 0)" style="fill-opacity:1.00" />
<ellipse cx="535.000000" cy="109.497989" rx="16.666667" ry="0.191514" fill="rgb(255, 255, 255)" style="fill-opacity:1.00" />
<rect height="0.287271" width="25.000000" x="535.000000" y="109.354354" fill="rgb(255, 255, 255)" style="fill-opacity:1.00" />
<rect height="0.071818" width="25.000000" x="535.000000" y="109.569807" fill="rgb(255, 165, 0)" style="fill-opacity:1.00" />
<rect height="0.215454" width="6.250000" x="553.750000" y="109.569807" fill="rgb(255, 165, 0)" style="fill-opacity:1.00" />
<!-- End 'G' -->
<!-- Begin 'C' -->
<ellipse cx="535.000000" cy="109.892630" rx="25.000000" ry="0.107370" fill="rgb(0, 0, 128)" style="fill-opacity:1.00" />
<ellipse cx="535.000000" cy="109.892630" rx="16.666667" ry="0.071580" fill="rgb(255, 255, 255)" style="fill-opacity:1.00" />
<rect height="0.107370" width="25.000000" x="535.000000" y="109.838946" fill="rgb(255, 255, 255)" style="fill-opacity:1.00" />
<!-- End 'C' -->
<!-- Begin 'T' -->
<rect height="0.922192" width="50.000000" x="570.000000" y="95.706132" fill="rgb(0, 100, 0)" style="fill-opacity:1.00" />
<rect height="5.763698" width="10.000000" x="590.000000" y="95.706132" fill="rgb(0, 100, 0)" style="fill-opacity:1.00" />
<!-- End 'T' -->
<!-- Begin 'C' -->
<ellipse cx="595.000000" cy="104.325352" rx="25.000000" ry="2.855522" fill="rgb(0, 0, 128)" style="fill-opacity:1.00" />
<ellipse cx="595.000000" cy="104.325352" rx="16.666667" ry="1.903681" fill="rgb(255, 255, 255)" style="fill-opacity:1.00" />
<rect height="2.855522" width="25.000000" x="595.000000" y="102.897591" fill="rgb(255, 255, 255)" style="fill-opacity:1.00" />
<!-- End 'C' -->
<!-- Begin 'A' -->
<polygon points=" 570.000000, 108.765929, 591.000000, 107.180874, 599.000000, 107.180874, 620.000000, 108.765929, 612.500000, 108.765929, 606.250000, 108.369666, 583.750000, 108.369666, 577.500000, 108.765929" fill="rgb(178, 34, 34)" style="fill-opacity:1.00" />
<!-- End 'A' -->
<!-- Begin 'G' -->
<ellipse cx="595.000000" cy="109.382965" rx="25.000000" ry="0.617035" fill="rgb(255, 165, 0)" style="fill-opacity:1.00" />
<ellipse cx="595.000000" cy="109.382965" rx="16.666667" ry="0.411357" fill="rgb(255, 255, 255)" style="fill-opacity:1.00" />
<rect height="0.617035" width="25.000000" x="595.000000" y="109.074447" fill="rgb(255, 255, 255)" style="fill-opacity:1.00" />
<rect height="0.154259" width="25.000000" x="595.000000" y="109.537224" fill="rgb(255, 165, 0)" style="fill-opacity:1.00" />
<rect height="0.462776" width="6.250000" x="613.750000" y="109.537224" fill="rgb(255, 165, 0)" style="fill-opacity:1.00" />
<!-- End 'G' -->
<!-- Begin 'T' -->
<rect height="0.248951" width="50.000000" x="630.000000" y="104.871461" fill="rgb(0, 100, 0)" style="fill-opacity:1.00" />
<rect height="1.555943" width="10.000000" x="650.000000" y="104.871461" fill="rgb(0, 100, 0)" style="fill-opacity:1.00" />
<!-- End 'T' -->
<!-- Begin 'A' -->
<polygon points=" 630.000000, 107.961849, 651.000000, 106.427403, 659.000000, 106.427403, 680.000000, 107.961849, 672.500000, 107.961849, 666.250000, 107.578237, 643.750000, 107.578237, 637.500000, 107.961849" fill="rgb(178, 34, 34)" style="fill-opacity:1.00" />
<!-- End 'A' -->
<!-- Begin 'C' -->
<ellipse cx="655.000000" cy="108.721189" rx="25.000000" ry="0.759341" fill="rgb(0, 0, 128)" style="fill-opacity:1.00" />
<ellipse cx="655.000000" cy="108.721189" rx="16.666667" ry="0.506227" fill="rgb(255, 255, 255)" style="fill-opacity:1.00" />
<rect height="0.759341" width="25.000000" x="655.000000" y="108.341519" fill="rgb(255, 255, 255)" style="fill-opacity:1.00" />
<!-- End 'C' -->
<!-- Begin 'G' -->
<ellipse cx="655.000000" cy="109.740265" rx="25.000000" ry="0.259735" fill="rgb(255, 165, 0)" style="fill-opacity:1.00" />
<ellipse cx="655.000000" cy="109.740265" rx="16.666667" ry="0.173157" fill="rgb(255, 255, 255)" style="fill-opacity:1.00" />
<rect height="0.259735" width="25.000000" x="655.000000" y="109.610398" fill="rgb(255, 255, 255)" style="fill-opacity:1.00" />
<rect height="0.064934" width="25.000000" x="655.000000" y="109.805199" fill="rgb(255, 165, 0)" style="fill-opacity:1.00" />
<rect height="0.194801" width="6.250000" x="673.750000" y="109.805199" fill="rgb(255, 165, 0)" style="fill-opacity:1.00" />
<!-- End 'G' -->
<!-- Begin 'T' -->
<rect height="1.029708" width="50.000000" x="690.000000" y="97.599887" fill="rgb(0, 100, 0)" style="fill-opacity:1.00" />
<rect height="6.435672" width="10.000000" x="710.000000" y="97.599887" fill="rgb(0, 100, 0)" style="fill-opacity:1.00" />
<!-- End 'T' -->
<!-- Begin 'A' -->
<polygon points=" 690.000000, 106.488525, 711.000000, 104.035559, 719.000000, 104.035559, 740.000000, 106.488525, 732.500000, 106.488525, 726.250000, 105.875283, 703.750000, 105.875283, 697.500000, 106.488525" fill="rgb(178, 34, 34)" style="fill-opacity:1.00" />
<!-- End 'A' -->
<!-- Begin 'C' -->
<ellipse cx="715.000000" cy="107.390496" rx="25.000000" ry="0.901971" fill="rgb(0, 0, 128)" style="fill-opacity:1.00" />
<ellipse cx="715.000000" cy="107.390496" rx="16.666667" ry="0.601314" fill="rgb(255, 255, 255)" style="fill-opacity:1.00" />
<rect height="0.901971" width="25.000000" x="715.000000" y="106.939510" fill="rgb(255, 255, 255)" style="fill-opacity:1.00" />
<!-- End 'C' -->
<!-- Begin 'G' -->
<ellipse cx="715.000000" cy="109.146234" rx="25.000000" ry="0.853766" fill="rgb(255, 165, 0)" style="fill-opacity:1.00" />
<ellipse cx="715.000000" cy="109.146234" rx="16.666667" ry="0.569178" fill="rgb(255, 255, 255)" style="fill-opacity:1.00" />
<rect height="0.853766" width="25.000000" x="715.000000" y="108.719350" fill="rgb(255, 255, 255)" style="fill-opacity:1.00" />
<rect height="0.213442" width="25.000000" x="715.000000" y="109.359675" fill="rgb(255, 165, 0)" style="fill-opacity:1.00" />
<rect height="0.640325" width="6.250000" x="733.750000" y="109.359675" fill="rgb(255, 165, 0)" style="fill-opacity:1.00" />
<!-- End 'G' -->
<!-- Begin 'G' -->
<ellipse cx="775.000000" cy="92.686146" rx="25.000000" ry="7.026322" fill="rgb(255, 165, 0)" style="fill-opacity:1.00" />
<ellipse cx="775.000000" cy="92.686146" rx="16.666667" ry="4.684215" fill="rgb(255, 255, 255)" style="fill-opacity:1.00" />
<rect height="7.026322" width="25.000000" x="775.000000" y="89.172985" fill="rgb(255, 255, 255)" style="fill-opacity:1.00" />
<rect height="1.756581" width="25.000000" x="775.000000" y="94.442726" fill="rgb(255, 165, 0)" style="fill-opacity:1.00" />
<rect height="5.269742" width="6.250000" x="793.750000" y="94.442726" fill="rgb(255, 165, 0)" style="fill-opacity:1.00" />
<!-- End 'G' -->
<!-- Begin 'A' -->
<polygon points=" 750.000000, 106.296219, 771.000000, 99.712468, 779.000000, 99.712468, 800.000000, 106.296219, 792.500000, 106.296219, 786.250000, 104.650281, 763.750000, 104.650281, 757.500000, 106.296219" fill="rgb(178, 34, 34)" style="fill-opacity:1.00" />
<!-- End 'A' -->
<!-- Begin 'T' -->
<rect height="0.421065" width="50.000000" x="750.000000" y="106.296219" fill="rgb(0, 100, 0)" style="fill-opacity:1.00" />
<rect height="2.631659" width="10.000000" x="770.000000" y="106.296219" fill="rgb(0, 100, 0)" style="fill-opacity:1.00" />
<!-- End 'T' -->
<!-- Begin 'C' -->
<ellipse cx="775.000000" cy="109.463939" rx="25.000000" ry="0.536061" fill="rgb(0, 0, 128)" style="fill-opacity:1.00" />
<ellipse cx="775.000000" cy="109.463939" rx="16.666667" ry="0.357374" fill="rgb(255, 255, 255)" style="fill-opacity:1.00" />
<rect height="0.536061" width="25.000000" x="775.000000" y="109.195908" fill="rgb(255, 255, 255)" style="fill-opacity:1.00" />
<!-- End 'C' -->
<!-- Begin 'A' -->
<polygon points=" 810.000000, 105.667481, 831.000000, 28.770003, 839.000000, 28.770003, 860.000000, 105.667481, 852.500000, 105.667481, 846.250000, 86.443111, 823.750000, 86.443111, 817.500000, 105.667481" fill="rgb(178, 34, 34)" style="fill-opacity:1.00" />
<polygon points=" 835.000000, 44.149498, 827.000000, 73.908490, 842.000000, 73.908490" fill="rgb(255, 255, 255)" style="fill-opacity:1.00" />
<!-- End 'A' -->
<!-- Begin 'T' -->
<rect height="0.385019" width="50.000000" x="810.000000" y="105.667481" fill="rgb(0, 100, 0)" style="fill-opacity:1.00" />
<rect height="2.406371" width="10.000000" x="830.000000" y="105.667481" fill="rgb(0, 100, 0)" style="fill-opacity:1.00" />
<!-- End 'T' -->
<!-- Begin 'G' -->
<ellipse cx="835.000000" cy="108.700572" rx="25.000000" ry="0.626721" fill="rgb(255, 165, 0)" style="fill-opacity:1.00" />
<ellipse cx="835.000000" cy="108.700572" rx="16.666667" ry="0.417814" fill="rgb(255, 255, 255)" style="fill-opacity:1.00" />
<rect height="0.626721" width="25.000000" x="835.000000" y="108.387212" fill="rgb(255, 255, 255)" style="fill-opacity:1.00" />
<rect height="0.156680" width="25.000000" x="835.000000" y="108.857252" fill="rgb(255, 165, 0)" style="fill-opacity:1.00" />
<rect height="0.470040" width="6.250000" x="853.750000" y="108.857252" fill="rgb(255, 165, 0)" style="fill-opacity:1.00" />
<!-- End 'G' -->
<!-- Begin 'C' -->
<ellipse cx="835.000000" cy="109.663646" rx="25.000000" ry="0.336354" fill="rgb(0, 0, 128)" style="fill-opacity:1.00" />
<ellipse cx="835.000000" cy="109.663646" rx="16.666667" ry="0.224236" fill="rgb(255, 255, 255)" style="fill-opacity:1.00" />
<rect height="0.336354" width="25.000000" x="835.000000" y="109.495470" fill="rgb(255, 255, 255)" style="fill-opacity:1.00" />
<!-- End 'C' -->
<!-- Begin 'T' -->
<rect height="0.417119" width="50.000000" x="870.000000" y="103.446850" fill="rgb(0, 100, 0)" style="fill-opacity:1.00" />
<rect height="2.606994" width="10.000000" x="890.000000" y="103.446850" fill="rgb(0, 100, 0)" style="fill-opacity:1.00" />
<!-- End 'T' -->
<!-- Begin 'G' -->
<ellipse cx="895.000000" cy="107.050375" rx="25.000000" ry="0.996531" fill="rgb(255, 165, 0)" style="fill-opacity:1.00" />
<ellipse cx="895.000000" cy="107.050375" rx="16.666667" ry="0.664354" fill="rgb(255, 255, 255)" style="fill-opacity:1.00" />
<rect height="0.996531" width="25.000000" x="895.000000" y="106.552109" fill="rgb(255, 255, 255)" style="fill-opacity:1.00" />
<rect height="0.249133" width="25.000000" x="895.000000" y="107.299508" fill="rgb(255, 165, 0)" style="fill-opacity:1.00" />
<rect height="0.747399" width="6.250000" x="913.750000" y="107.299508" fill="rgb(255, 165, 0)" style="fill-opacity:1.00" />
<!-- End 'G' -->
<!-- Begin 'C' -->
<ellipse cx="895.000000" cy="108.566711" rx="25.000000" ry="0.519805" fill="rgb(0, 0, 128)" style="fill-opacity:1.00" />
<ellipse cx="895.000000" cy="108.566711" rx="16.666667" ry="0.346536" fill="rgb(255, 255, 255)" style="fill-opacity:1.00" />
<rect height="0.519805" width="25.000000" x="895.000000" y="108.306809" fill="rgb(255, 255, 255)" style="fill-opacity:1.00" />
<!-- End 'C' -->
<!-- Begin 'A' -->
<polygon points=" 870.000000, 110.000000, 891.000000, 109.086516, 899.000000, 109.086516, 920.000000, 110.000000, 912.500000, 110.000000, 906.250000, 109.771629, 883.750000, 109.771629, 877.500000, 110.000000" fill="rgb(178, 34, 34)" style="fill-opacity:1.00" />
<!-- End 'A' -->
<!-- Begin 'A' -->
<polygon points=" 930.000000, 100.182769, 951.000000, 90.652577, 959.000000, 90.652577, 980.000000, 100.182769, 972.500000, 100.182769, 966.250000, 97.800221, 943.750000, 97.800221, 937.500000, 100.182769" fill="rgb(178, 34, 34)" style="fill-opacity:1.00" />
<polygon points=" 955.000000, 92.558615, 947.000000, 95.370692, 962.000000, 95.370692" fill="rgb(255, 255, 255)" style="fill-opacity:1.00" />
<!-- End 'A' -->
<!-- Begin 'C' -->
<ellipse cx="955.000000" cy="103.549176" rx="25.000000" ry="3.366406" fill="rgb(0, 0, 128)" style="fill-opacity:1.00" />
<ellipse cx="955.000000" cy="103.549176" rx="16.666667" ry="2.244271" fill="rgb(255, 255, 255)" style="fill-opacity:1.00" />
<rect height="3.366406" width="25.000000" x="955.000000" y="101.865972" fill="rgb(255, 255, 255)" style="fill-opacity:1.00" />
<!-- End 'C' -->
<!-- Begin 'T' -->
<rect height="0.277971" width="50.000000" x="930.000000" y="106.915582" fill="rgb(0, 100, 0)" style="fill-opacity:1.00" />
<rect height="1.737317" width="10.000000" x="950.000000" y="106.915582" fill="rgb(0, 100, 0)" style="fill-opacity:1.00" />
<!-- End 'T' -->
<!-- Begin 'G' -->
<ellipse cx="955.000000" cy="109.326449" rx="25.000000" ry="0.673551" fill="rgb(255, 165, 0)" style="fill-opacity:1.00" />
<ellipse cx="955.000000" cy="109.326449" rx="16.666667" ry="0.449034" fill="rgb(255, 255, 255)" style="fill-opacity:1.00" />
<rect height="0.673551" width="25.000000" x="955.000000" y="108.989674" fill="rgb(255, 255, 255)" style="fill-opacity:1.00" />
<rect height="0.168388" width="25.000000" x="955.000000" y="109.494837" fill="rgb(255, 165, 0)" style="fill-opacity:1.00" />
<rect height="0.505163" width="6.250000" x="973.750000" y="109.494837" fill="rgb(255, 165, 0)" style="fill-opacity:1.00" />
<!-- End 'G' -->
<!-- Begin 'C' -->
<ellipse cx="1015.000000" cy="100.677822" rx="25.000000" ry="2.852356" fill="rgb(0, 0, 128)" style="fill-opacity:1.00" />
<ellipse cx="1015.000000" cy="100.677822" rx="16.666667" ry="1.901571" fill="rgb(255, 255, 255)" style="fill-opacity:1.00" />
<rect height="2.852356" width="25.000000" x="1015.000000" y="99.251644" fill="rgb(255, 255, 255)" style="fill-opacity:1.00" />
<!-- End 'C' -->
<!-- Begin 'T' -->
<rect height="0.528442" width="50.000000" x="990.000000" y="103.530179" fill="rgb(0, 100, 0)" style="fill-opacity:1.00" />
<rect height="3.302764" width="10.000000" x="1010.000000" y="103.530179" fill="rgb(0, 100, 0)" style="fill-opacity:1.00" />
<!-- End 'T' -->
<!-- Begin 'A' -->
<polygon points=" 990.000000, 109.061230, 1011.000000, 106.832943, 1019.000000, 106.832943, 1040.000000, 109.061230, 1032.500000, 109.061230, 1026.250000, 108.504158, 1003.750000, 108.504158, 997.500000, 109.061230" fill="rgb(178, 34, 34)" style="fill-opacity:1.00" />
<!-- End 'A' -->
<!-- Begin 'G' -->
<ellipse cx="1015.000000" cy="109.530615" rx="25.000000" ry="0.469385" fill="rgb(255, 165, 0)" style="fill-opacity:1.00" />
<ellipse cx="1015.000000" cy="109.530615" rx="16.666667" ry="0.312923" fill="rgb(255, 255, 255)" style="fill-opacity:1.00" />
<rect height="0.469385" width="25.000000" x="1015.000000" y="109.295923" fill="rgb(255, 255, 255)" style="fill-opacity:1.00" />
<rect height="0.117346" width="25.000000" x="1015.000000" y="109.647961" fill="rgb(255, 165, 0)" style="fill-opacity:1.00" />
<rect height="0.352039" width="6.250000" x="1033.750000" y="109.647961" fill="rgb(255, 165, 0)" style="fill-opacity:1.00" />
<!-- End 'G' -->
<text x="550.000000" y="165">
IC = 8.55
</text>

</svg>
