<?xml version="1.0" encoding="UTF-8" standalone="yes"?>
                 <!DOCTYPE svg PUBLIC "-//W3C//DTD SVG 1.0//EN" "http://www.w3.org/TR/2001/REC-SVG-20010904/DTD/svg10.dtd">
                 <svg height="170" width="1080" xmlns="http://www.w3.org/2000/svg" xmlns:xlink="http://www.w3.org/1999/xlink">
                 <line x1="85" y1="120" x2="1047" y2="120" style="stroke:rgb(99,99,99);stroke-width:2" />
<rect height="7.000000" width="2.000000" x="85.000000" y="120.000000" fill="rgb(0, 0, 0)" style="fill-opacity:1.00" />
<text x="107.000000" y="140">
1
</text>
<rect height="7.000000" width="2.000000" x="145.000000" y="120.000000" fill="rgb(0, 0, 0)" style="fill-opacity:1.00" />
<text x="167.000000" y="140">
2
</text>
<rect height="7.000000" width="2.000000" x="205.000000" y="120.000000" fill="rgb(0, 0, 0)" style="fill-opacity:1.00" />
<text x="227.000000" y="140">
3
</text>
<rect height="7.000000" width="2.000000" x="265.000000" y="120.000000" fill="rgb(0, 0, 0)" style="fill-opacity:1.00" />
<text x="287.000000" y="140">
4
</text>
<rect height="7.000000" width="2.000000" x="325.000000" y="120.000000" fill="rgb(0, 0, 0)" style="fill-opacity:1.00" />
<text x="347.000000" y="140">
5
</text>
<rect height="7.000000" width="2.000000" x="385.000000" y="120.000000" fill="rgb(0, 0, 0)" style="fill-opacity:1.00" />
<text x="407.000000" y="140">
6
</text>
<rect height="7.000000" width="2.000000" x="445.000000" y="120.000000" fill="rgb(0, 0, 0)" style="fill-opacity:1.00" />
<text x="467.000000" y="140">
7
</text>
<rect height="7.000000" width="2.000000" x="505.000000" y="120.000000" fill="rgb(0, 0, 0)" style="fill-opacity:1.00" />
<text x="527.000000" y="140">
8
</text>
<rect height="7.000000" width="2.000000" x="565.000000" y="120.000000" fill="rgb(0, 0, 0)" style="fill-opacity:1.00" />
<text x="587.000000" y="140">
9
</text>
<rect height="7.000000" width="2.000000" x="625.000000" y="120.000000" fill="rgb(0, 0, 0)" style="fill-opacity:1.00" />
<text x="647.000000" y="140">
10
</text>
<rect height="7.000000" width="2.000000" x="685.000000" y="120.000000" fill="rgb(0, 0, 0)" style="fill-opacity:1.00" />
<text x="707.000000" y="140">
11
</text>
<rect height="7.000000" width="2.000000" x="745.000000" y="120.000000" fill="rgb(0, 0, 0)" style="fill-opacity:1.00" />
<text x="767.000000" y="140">
12
</text>
<rect height="7.000000" width="2.000000" x="805.000000" y="120.000000" fill="rgb(0, 0, 0)" style="fill-opacity:1.00" />
<text x="827.000000" y="140">
13
</text>
<rect height="7.000000" width="2.000000" x="865.000000" y="120.000000" fill="rgb(0, 0, 0)" style="fill-opacity:1.00" />
<text x="887.000000" y="140">
14
</text>
<rect height="7.000000" width="2.000000" x="925.000000" y="120.000000" fill="rgb(0, 0, 0)" style="fill-opacity:1.00" />
<text x="947.000000" y="140">
15
</text>
<rect height="7.000000" width="2.000000" x="985.000000" y="120.000000" fill="rgb(0, 0, 0)" style="fill-opacity:1.00" />
<text x="1007.000000" y="140">
16
</text>
<rect height="7.000000" width="2.000000" x="1045.000000" y="120.000000" fill="rgb(0, 0, 0)" style="fill-opacity:1.00" />
<line x1="80" y1="112" x2="80" y2="10" style="stroke:rgb(99,99,99);stroke-width:2" />
<rect height="2.000000" width="7.000000" x="73.000000" y="110.000000" fill="rgb(0, 0, 0)" style="fill-opacity:1.00" />
<text x="63" y="115">
0
</text>
<rect height="2.000000" width="7.000000" x="73.000000" y="60.000000" fill="rgb(0, 0, 0)" style="fill-opacity:1.00" />
<text x="63" y="65">
1
</text>
<rect height="2.000000" width="7.000000" x="73.000000" y="10.000000" fill="rgb(0, 0, 0)" style="fill-opacity:1.00" />
<text x="63" y="15">
2
</text>
<text x="50" y="65"
transform="rotate(-90, 50, 70)">
bits
</text>
<!-- Begin 'A' -->
<polygon points=" 90.000000, 109.587001, 111.000000, 109.412154, 119.000000, 109.412154, 140.000000, 109.587001, 132.500000, 109.587001, 126.250000, 109.543289, 103.750000, 109.543289, 97.500000, 109.587001" fill="rgb(178, 34, 34)" style="fill-opacity:1.00" />
<!-- End 'A' -->
<!-- Begin 'T' -->
<rect height="0.024608" width="50.000000" x="90.000000" y="109.587001" fill="rgb(0, 100, 0)" style="fill-opacity:1.00" />
<rect height="0.153798" width="10.000000" x="110.000000" y="109.587001" fill="rgb(0, 100, 0)" style="fill-opacity:1.00" />
<!-- End 'T' -->
<!-- Begin 'C' -->
<ellipse cx="115.000000" cy="109.805990" rx="25.000000" ry="0.065192" fill="rgb(0, 0, 128)" style="fill-opacity:1.00" />
<ellipse cx="115.000000" cy="109.805990" rx="16.666667" ry="0.043461" fill="rgb(255, 255, 255)" style="fill-opacity:1.00" />
<rect height="0.065192" width="25.000000" x="115.000000" y="109.773394" fill="rgb(255, 255, 255)" style="fill-opacity:1.00" />
<!-- End 'C' -->
<!-- Begin 'G' -->
<ellipse cx="115.000000" cy="109.935591" rx="25.000000" ry="0.064409" fill="rgb(255, 165, 0)" style="fill-opacity:1.00" />
<ellipse cx="115.000000" cy="109.935591" rx="16.666667" ry="0.042939" fill="rgb(255, 255, 255)" style="fill-opacity:1.00" />
<rect height="0.064409" width="25.000000" x="115.000000" y="109.903386" fill="rgb(255, 255, 255)" style="fill-opacity:1.00" />
<rect height="0.016102" width="25.000000" x="115.000000" y="109.951693" fill="rgb(255, 165, 0)" style="fill-opacity:1.00" />
<rect height="0.048307" width="6.250000" x="133.750000" y="109.951693" fill="rgb(255, 165, 0)" style="fill-opacity:1.00" />
<!-- End 'G' -->
<!-- Begin 'A' -->
<polygon points=" 150.000000, 109.266402, 171.000000, 108.923361, 179.000000, 108.923361, 200.000000, 109.266402, 192.500000, 109.266402, 186.250000, 109.180642, 163.750000, 109.180642, 157.500000, 109.266402" fill="rgb(178, 34, 34)" style="fill-opacity:1.00" />
<!-- End 'A' -->
<!-- Begin 'T' -->
<rect height="0.043512" width="50.000000" x="150.000000" y="109.266402" fill="rgb(0, 100, 0)" style="fill-opacity:1.00" />
<rect height="0.271949" width="10.000000" x="170.000000" y="109.266402" fill="rgb(0, 100, 0)" style="fill-opacity:1.00" />
<!-- End 'T' -->
<!-- Begin 'G' -->
<ellipse cx="175.000000" cy="109.661334" rx="25.000000" ry="0.122983" fill="rgb(255, 165, 0)" style="fill-opacity:1.00" />
<ellipse cx="175.000000" cy="109.661334" rx="16.666667" ry="0.081989" fill="rgb(255, 255, 255)" style="fill-opacity:1.00" />
<rect height="0.122983" width="25.000000" x="175.000000" y="109.599842" fill="rgb(255, 255, 255)" style="fill-opacity:1.00" />
<rect height="0.030746" width="25.000000" x="175.000000" y="109.692079" fill="rgb(255, 165, 0)" style="fill-opacity:1.00" />
<rect height="0.092237" width="6.250000" x="193.750000" y="109.692079" fill="rgb(255, 165, 0)" style="fill-opacity:1.00" />
<!-- End 'G' -->
<!-- Begin 'C' -->
<ellipse cx="175.000000" cy="109.892158" rx="25.000000" ry="0.107842" fill="rgb(0, 0, 128)" style="fill-opacity:1.00" />
<ellipse cx="175.000000" cy="109.892158" rx="16.666667" ry="0.071894" fill="rgb(255, 255, 255)" style="fill-opacity:1.00" />
<rect height="0.107842" width="25.000000" x="175.000000" y="109.838238" fill="rgb(255, 255, 255)" style="fill-opacity:1.00" />
<!-- End 'C' -->
<!-- Begin 'A' -->
<polygon points=" 210.000000, 109.598575, 231.000000, 109.428401, 239.000000, 109.428401, 260.000000, 109.598575, 252.500000, 109.598575, 246.250000, 109.556031, 223.750000, 109.556031, 217.500000, 109.598575" fill="rgb(178, 34, 34)" style="fill-opacity:1.00" />
<!-- End 'A' -->
<!-- Begin 'C' -->
<ellipse cx="235.000000" cy="109.671600" rx="25.000000" ry="0.073026" fill="rgb(0, 0, 128)" style="fill-opacity:1.00" />
<ellipse cx="235.000000" cy="109.671600" rx="16.666667" ry="0.048684" fill="rgb(255, 255, 255)" style="fill-opacity:1.00" />
<rect height="0.073026" width="25.000000" x="235.000000" y="109.635088" fill="rgb(255, 255, 255)" style="fill-opacity:1.00" />
<!-- End 'C' -->
<!-- Begin 'G' -->
<ellipse cx="235.000000" cy="109.811874" rx="25.000000" ry="0.067248" fill="rgb(255, 165, 0)" style="fill-opacity:1.00" />
<ellipse cx="235.000000" cy="109.811874" rx="16.666667" ry="0.044832" fill="rgb(255, 255, 255)" style="fill-opacity:1.00" />
<rect height="0.067248" width="25.000000" x="235.000000" y="109.778250" fill="rgb(255, 255, 255)" style="fill-opacity:1.00" />
<rect height="0.016812" width="25.000000" x="235.000000" y="109.828686" fill="rgb(255, 165, 0)" style="fill-opacity:1.00" />
<rect height="0.050436" width="6.250000" x="253.750000" y="109.828686" fill="rgb(255, 165, 0)" style="fill-opacity:1.00" />
<!-- End 'G' -->
<!-- Begin 'T' -->
<rect height="0.019340" width="50.000000" x="210.000000" y="109.879122" fill="rgb(0, 100, 0)" style="fill-opacity:1.00" />
<rect height="0.120878" width="10.000000" x="230.000000" y="109.879122" fill="rgb(0, 100, 0)" style="fill-opacity:1.00" />
<!-- End 'T' -->
<!-- Begin 'T' -->
<rect height="1.450974" width="50.000000" x="270.000000" y="91.466339" fill="rgb(0, 100, 0)" style="fill-opacity:1.00" />
<rect height="9.068585" width="10.000000" x="290.000000" y="91.466339" fill="rgb(0, 100, 0)" style="fill-opacity:1.00" />
<!-- End 'T' -->
<!-- Begin 'A' -->
<polygon points=" 270.000000, 105.387891, 291.000000, 100.534925, 299.000000, 100.534925, 320.000000, 105.387891, 312.500000, 105.387891, 306.250000, 104.174649, 283.750000, 104.174649, 277.500000, 105.387891" fill="rgb(178, 34, 34)" style="fill-opacity:1.00" />
<!-- End 'A' -->
<!-- Begin 'G' -->
<ellipse cx="295.000000" cy="107.456004" rx="25.000000" ry="2.068114" fill="rgb(255, 165, 0)" style="fill-opacity:1.00" />
<ellipse cx="295.000000" cy="107.456004" rx="16.666667" ry="1.378742" fill="rgb(255, 255, 255)" style="fill-opacity:1.00" />
<rect height="2.068114" width="25.000000" x="295.000000" y="106.421948" fill="rgb(255, 255, 255)" style="fill-opacity:1.00" />
<rect height="0.517028" width="25.000000" x="295.000000" y="107.973033" fill="rgb(255, 165, 0)" style="fill-opacity:1.00" />
<rect height="1.551085" width="6.250000" x="313.750000" y="107.973033" fill="rgb(255, 165, 0)" style="fill-opacity:1.00" />
<!-- End 'G' -->
<!-- Begin 'C' -->
<ellipse cx="295.000000" cy="109.762059" rx="25.000000" ry="0.237941" fill="rgb(0, 0, 128)" style="fill-opacity:1.00" />
<ellipse cx="295.000000" cy="109.762059" rx="16.666667" ry="0.158627" fill="rgb(255, 255, 255)" style="fill-opacity:1.00" />
<rect height="0.237941" width="25.000000" x="295.000000" y="109.643089" fill="rgb(255, 255, 255)" style="fill-opacity:1.00" />
<!-- End 'C' -->
<!-- Begin 'G' -->
<ellipse cx="355.000000" cy="72.249895" rx="25.000000" ry="30.253212" fill="rgb(255, 165, 0)" style="fill-opacity:1.00" />
<ellipse cx="355.000000" cy="72.249895" rx="16.666667" ry="20.168808" fill="rgb(255, 255, 255)" style="fill-opacity:1.00" />
<rect height="30.253212" width="25.000000" x="355.000000" y="57.123289" fill="rgb(255, 255, 255)" style="fill-opacity:1.00" />
<rect height="7.563303" width="25.000000" x="355.000000" y="79.813198" fill="rgb(255, 165, 0)" style="fill-opacity:1.00" />
<rect height="22.689909" width="6.250000" x="373.750000" y="79.813198" fill="rgb(255, 165, 0)" style="fill-opacity:1.00" />
<!-- End 'G' -->
<!-- Begin 'A' -->
<polygon points=" 330.000000, 106.210454, 351.000000, 102.503107, 359.000000, 102.503107, 380.000000, 106.210454, 372.500000, 106.210454, 366.250000, 105.283617, 343.750000, 105.283617, 337.500000, 106.210454" fill="rgb(178, 34, 34)" style="fill-opacity:1.00" />
<!-- End 'A' -->
<!-- Begin 'T' -->
<rect height="0.535251" width="50.000000" x="330.000000" y="106.210454" fill="rgb(0, 100, 0)" style="fill-opacity:1.00" />
<rect height="3.345318" width="10.000000" x="350.000000" y="106.210454" fill="rgb(0, 100, 0)" style="fill-opacity:1.00" />
<!-- End 'T' -->
<!-- Begin 'C' -->
<ellipse cx="355.000000" cy="109.777886" rx="25.000000" ry="0.222114" fill="rgb(0, 0, 128)" style="fill-opacity:1.00" />
<ellipse cx="355.000000" cy="109.777886" rx="16.666667" ry="0.148076" fill="rgb(255, 255, 255)" style="fill-opacity:1.00" />
<rect height="0.222114" width="25.000000" x="355.000000" y="109.666829" fill="rgb(255, 255, 255)" style="fill-opacity:1.00" />
<!-- End 'C' -->
<!-- Begin 'A' -->
<polygon points=" 390.000000, 98.887289, 411.000000, 87.960805, 419.000000, 87.960805, 440.000000, 98.887289, 432.500000, 98.887289, 426.250000, 96.155668, 403.750000, 96.155668, 397.500000, 98.887289" fill="rgb(178, 34, 34)" style="fill-opacity:1.00" />
<polygon points=" 415.000000, 90.146101, 407.000000, 93.516695, 422.000000, 93.516695" fill="rgb(255, 255, 255)" style="fill-opacity:1.00" />
<!-- End 'A' -->
<!-- Begin 'T' -->
<rect height="1.292222" width="50.000000" x="390.000000" y="98.887289" fill="rgb(0, 100, 0)" style="fill-opacity:1.00" />
<rect height="8.076388" width="10.000000" x="410.000000" y="98.887289" fill="rgb(0, 100, 0)" style="fill-opacity:1.00" />
<!-- End 'T' -->
<!-- Begin 'G' -->
<ellipse cx="415.000000" cy="107.894087" rx="25.000000" ry="0.930410" fill="rgb(255, 165, 0)" style="fill-opacity:1.00" />
<ellipse cx="415.000000" cy="107.894087" rx="16.666667" ry="0.620273" fill="rgb(255, 255, 255)" style="fill-opacity:1.00" />
<rect height="0.930410" width="25.000000" x="415.000000" y="107.428882" fill="rgb(255, 255, 255)" style="fill-opacity:1.00" />
<rect height="0.232602" width="25.000000" x="415.000000" y="108.126690" fill="rgb(255, 165, 0)" style="fill-opacity:1.00" />
<rect height="0.697807" width="6.250000" x="433.750000" y="108.126690" fill="rgb(255, 165, 0)" style="fill-opacity:1.00" />
<!-- End 'G' -->
<!-- Begin 'C' -->
<ellipse cx="415.000000" cy="109.412249" rx="25.000000" ry="0.587751" fill="rgb(0, 0, 128)" style="fill-opacity:1.00" />
<ellipse cx="415.000000" cy="109.412249" rx="16.666667" ry="0.391834" fill="rgb(255, 255, 255)" style="fill-opacity:1.00" />
<rect height="0.587751" width="25.000000" x="415.000000" y="109.118373" fill="rgb(255, 255, 255)" style="fill-opacity:1.00" />
<!-- End 'C' -->
<!-- Begin 'A' -->
<polygon points=" 450.000000, 99.641574, 471.000000, 60.528983, 479.000000, 60.528983, 500.000000, 99.641574, 492.500000, 99.641574, 486.250000, 89.863426, 463.750000, 89.863426, 457.500000, 99.641574" fill="rgb(178, 34, 34)" style="fill-opacity:1.00" />
<polygon points=" 475.000000, 68.351501, 467.000000, 82.996537, 482.000000, 82.996537" fill="rgb(255, 255, 255)" style="fill-opacity:1.00" />
<!-- End 'A' -->
<!-- Begin 'C' -->
<ellipse cx="475.000000" cy="102.296837" rx="25.000000" ry="2.655263" fill="rgb(0, 0, 128)" style="fill-opacity:1.00" />
<ellipse cx="475.000000" cy="102.296837" rx="16.666667" ry="1.770175" fill="rgb(255, 255, 255)" style="fill-opacity:1.00" />
<rect height="2.655263" width="25.000000" x="475.000000" y="100.969205" fill="rgb(255, 255, 255)" style="fill-opacity:1.00" />
<!-- End 'C' -->
<!-- Begin 'T' -->
<rect height="0.690384" width="50.000000" x="450.000000" y="104.952100" fill="rgb(0, 100, 0)" style="fill-opacity:1.00" />
<rect height="4.314898" width="10.000000" x="470.000000" y="104.952100" fill="rgb(0, 100, 0)" style="fill-opacity:1.00" />
<!-- End 'T' -->
<!-- Begin 'G' -->
<ellipse cx="475.000000" cy="109.633499" rx="25.000000" ry="0.366501" fill="rgb(255, 165, 0)" style="fill-opacity:1.00" />
<ellipse cx="475.000000" cy="109.633499" rx="16.666667" ry="0.244334" fill="rgb(255, 255, 255)" style="fill-opacity:1.00" />
<rect height="0.366501" width="25.000000" x="475.000000" y="109.450249" fill="rgb(255, 255, 255)" style="fill-opacity:1.00" />
<rect height="0.091625" width="25.000000" x="475.000000" y="109.725124" fill="rgb(255, 165, 0)" style="fill-opacity:1.00" />
<rect height="0.274876" width="6.250000" x="493.750000" y="109.725124" fill="rgb(255, 165, 0)" style="fill-opacity:1.00" />
<!-- End 'G' -->
<!-- Begin 'A' -->
<polygon points=" 510.000000, 108.190538, 531.000000, 18.351966, 539.000000, 18.351966, 560.000000, 108.190538, 552.500000, 108.190538, 546.250000, 85.730895, 523.750000, 85.730895, 517.500000, 108.190538" fill="rgb(178, 34, 34)" style="fill-opacity:1.00" />
<polygon points=" 535.000000, 36.319680, 527.000000, 71.255109, 542.000000, 71.255109" fill="rgb(255, 255, 255)" style="fill-opacity:1.00" />
<!-- End 'A' -->
<!-- Begin 'T' -->
<rect height="0.159920" width="50.000000" x="510.000000" y="108.190538" fill="rgb(0, 100, 0)" style="fill-opacity:1.00" />
<rect height="0.999498" width="10.000000" x="530.000000" y="108.190538" fill="rgb(0, 100, 0)" style="fill-opacity:1.00" />
<!-- End 'T' -->
<!-- Begin 'G' -->
<ellipse cx="535.000000" cy="109.485125" rx="25.000000" ry="0.295088" fill="rgb(255, 165, 0)" style="fill-opacity:1.00" />
<ellipse cx="535.000000" cy="109.485125" rx="16.666667" ry="0.196725" fill="rgb(255, 255, 255)" style="fill-opacity:1.00" />
<rect height="0.295088" width="25.000000" x="535.000000" y="109.337581" fill="rgb(255, 255, 255)" style="fill-opacity:1.00" />
<rect height="0.073772" width="25.000000" x="535.000000" y="109.558897" fill="rgb(255, 165, 0)" style="fill-opacity:1.00" />
<rect height="0.221316" width="6.250000" x="553.750000" y="109.558897" fill="rgb(255, 165, 0)" style="fill-opacity:1.00" />
<!-- End 'G' -->
<!-- Begin 'C' -->
<ellipse cx="535.000000" cy="109.890106" rx="25.000000" ry="0.109894" fill="rgb(0, 0, 128)" style="fill-opacity:1.00" />
<ellipse cx="535.000000" cy="109.890106" rx="16.666667" ry="0.073262" fill="rgb(255, 255, 255)" style="fill-opacity:1.00" />
<rect height="0.109894" width="25.000000" x="535.000000" y="109.835160" fill="rgb(255, 255, 255)" style="fill-opacity:1.00" />
<!-- End 'C' -->
<!-- Begin 'T' -->
<rect height="0.916816" width="50.000000" x="570.000000" y="95.757581" fill="rgb(0, 100, 0)" style="fill-opacity:1.00" />
<rect height="5.730097" width="10.000000" x="590.000000" y="95.757581" fill="rgb(0, 100, 0)" style="fill-opacity:1.00" />
<!-- End 'T' -->
<!-- Begin 'C' -->
<ellipse cx="595.000000" cy="104.334746" rx="25.000000" ry="2.847067" fill="rgb(0, 0, 128)" style="fill-opacity:1.00" />
<ellipse cx="595.000000" cy="104.334746" rx="16.666667" ry="1.898045" fill="rgb(255, 255, 255)" style="fill-opacity:1.00" />
<rect height="2.847067" width="25.000000" x="595.000000" y="102.911212" fill="rgb(255, 255, 255)" style="fill-opacity:1.00" />
<!-- End 'C' -->
<!-- Begin 'A' -->
<polygon points=" 570.000000, 108.776967, 591.000000, 107.181813, 599.000000, 107.181813, 620.000000, 108.776967, 612.500000, 108.776967, 606.250000, 108.378178, 583.750000, 108.378178, 577.500000, 108.776967" fill="rgb(178, 34, 34)" style="fill-opacity:1.00" />
<!-- End 'A' -->
<!-- Begin 'G' -->
<ellipse cx="595.000000" cy="109.388483" rx="25.000000" ry="0.611517" fill="rgb(255, 165, 0)" style="fill-opacity:1.00" />
<ellipse cx="595.000000" cy="109.388483" rx="16.666667" ry="0.407678" fill="rgb(255, 255, 255)" style="fill-opacity:1.00" />
<rect height="0.611517" width="25.000000" x="595.000000" y="109.082725" fill="rgb(255, 255, 255)" style="fill-opacity:1.00" />
<rect height="0.152879" width="25.000000" x="595.000000" y="109.541362" fill="rgb(255, 165, 0)" style="fill-opacity:1.00" />
<rect height="0.458638" width="6.250000" x="613.750000" y="109.541362" fill="rgb(255, 165, 0)" style="fill-opacity:1.00" />
<!-- End 'G' -->
<!-- Begin 'T' -->
<rect height="0.245545" width="50.000000" x="630.000000" y="104.930130" fill="rgb(0, 100, 0)" style="fill-opacity:1.00" />
<rect height="1.534657" width="10.000000" x="650.000000" y="104.930130" fill="rgb(0, 100, 0)" style="fill-opacity:1.00" />
<!-- End 'T' -->
<!-- Begin 'A' -->
<polygon points=" 630.000000, 107.995425, 651.000000, 106.464787, 659.000000, 106.464787, 680.000000, 107.995425, 672.500000, 107.995425, 666.250000, 107.612765, 643.750000, 107.612765, 637.500000, 107.995425" fill="rgb(178, 34, 34)" style="fill-opacity:1.00" />
<!-- End 'A' -->
<!-- Begin 'C' -->
<ellipse cx="655.000000" cy="108.738930" rx="25.000000" ry="0.743505" fill="rgb(0, 0, 128)" style="fill-opacity:1.00" />
<ellipse cx="655.000000" cy="108.738930" rx="16.666667" ry="0.495670" fill="rgb(255, 255, 255)" style="fill-opacity:1.00" />
<rect height="0.743505" width="25.000000" x="655.000000" y="108.367177" fill="rgb(255, 255, 255)" style="fill-opacity:1.00" />
<!-- End 'C' -->
<!-- Begin 'G' -->
<ellipse cx="655.000000" cy="109.741218" rx="25.000000" ry="0.258782" fill="rgb(255, 165, 0)" style="fill-opacity:1.00" />
<ellipse cx="655.000000" cy="109.741218" rx="16.666667" ry="0.172522" fill="rgb(255, 255, 255)" style="fill-opacity:1.00" />
<rect height="0.258782" width="25.000000" x="655.000000" y="109.611827" fill="rgb(255, 255, 255)" style="fill-opacity:1.00" />
<rect height="0.064696" width="25.000000" x="655.000000" y="109.805913" fill="rgb(255, 165, 0)" style="fill-opacity:1.00" />
<rect height="0.194087" width="6.250000" x="673.750000" y="109.805913" fill="rgb(255, 165, 0)" style="fill-opacity:1.00" />
<!-- End 'G' -->
<!-- Begin 'T' -->
<rect height="1.021464" width="50.000000" x="690.000000" y="97.665624" fill="rgb(0, 100, 0)" style="fill-opacity:1.00" />
<rect height="6.384148" width="10.000000" x="710.000000" y="97.665624" fill="rgb(0, 100, 0)" style="fill-opacity:1.00" />
<!-- End 'T' -->
<!-- Begin 'A' -->
<polygon points=" 690.000000, 106.524540, 711.000000, 104.049773, 719.000000, 104.049773, 740.000000, 106.524540, 732.500000, 106.524540, 726.250000, 105.905848, 703.750000, 105.905848, 697.500000, 106.524540" fill="rgb(178, 34, 34)" style="fill-opacity:1.00" />
<!-- End 'A' -->
<!-- Begin 'C' -->
<ellipse cx="715.000000" cy="107.411247" rx="25.000000" ry="0.886707" fill="rgb(0, 0, 128)" style="fill-opacity:1.00" />
<ellipse cx="715.000000" cy="107.411247" rx="16.666667" ry="0.591138" fill="rgb(255, 255, 255)" style="fill-opacity:1.00" />
<rect height="0.886707" width="25.000000" x="715.000000" y="106.967893" fill="rgb(255, 255, 255)" style="fill-opacity:1.00" />
<!-- End 'C' -->
<!-- Begin 'G' -->
<ellipse cx="715.000000" cy="109.148977" rx="25.000000" ry="0.851023" fill="rgb(255, 165, 0)" style="fill-opacity:1.00" />
<ellipse cx="715.000000" cy="109.148977" rx="16.666667" ry="0.567349" fill="rgb(255, 255, 255)" style="fill-opacity:1.00" />
<rect height="0.851023" width="25.000000" x="715.000000" y="108.723465" fill="rgb(255, 255, 255)" style="fill-opacity:1.00" />
<rect height="0.212756" width="25.000000" x="715.000000" y="109.361732" fill="rgb(255, 165, 0)" style="fill-opacity:1.00" />
<rect height="0.638268" width="6.250000" x="733.750000" y="109.361732" fill="rgb(255, 165, 0)" style="fill-opacity:1.00" />
<!-- End 'G' -->
<!-- Begin 'G' -->
<ellipse cx="775.000000" cy="92.902526" rx="25.000000" ry="6.859428" fill="rgb(255, 165, 0)" style="fill-opacity:1.00" />
<ellipse cx="775.000000" cy="92.902526" rx="16.666667" ry="4.572952" fill="rgb(255, 255, 255)" style="fill-opacity:1.00" />
<rect height="6.859428" width="25.000000" x="775.000000" y="89.472813" fill="rgb(255, 255, 255)" style="fill-opacity:1.00" />
<rect height="1.714857" width="25.000000" x="775.000000" y="94.617383" fill="rgb(255, 165, 0)" style="fill-opacity:1.00" />
<rect height="5.144571" width="6.250000" x="793.750000" y="94.617383" fill="rgb(255, 165, 0)" style="fill-opacity:1.00" />
<!-- End 'G' -->
<!-- Begin 'A' -->
<polygon points=" 750.000000, 106.308257, 771.000000, 99.761954, 779.000000, 99.761954, 800.000000, 106.308257, 792.500000, 106.308257, 786.250000, 104.671681, 763.750000, 104.671681, 757.500000, 106.308257" fill="rgb(178, 34, 34)" style="fill-opacity:1.00" />
<!-- End 'A' -->
<!-- Begin 'T' -->
<rect height="0.421709" width="50.000000" x="750.000000" y="106.308257" fill="rgb(0, 100, 0)" style="fill-opacity:1.00" />
<rect height="2.635681" width="10.000000" x="770.000000" y="106.308257" fill="rgb(0, 100, 0)" style="fill-opacity:1.00" />
<!-- End 'T' -->
<!-- Begin 'C' -->
<ellipse cx="775.000000" cy="109.471969" rx="25.000000" ry="0.528031" fill="rgb(0, 0, 128)" style="fill-opacity:1.00" />
<ellipse cx="775.000000" cy="109.471969" rx="16.666667" ry="0.352021" fill="rgb(255, 255, 255)" style="fill-opacity:1.00" />
<rect height="0.528031" width="25.000000" x="775.000000" y="109.207953" fill="rgb(255, 255, 255)" style="fill-opacity:1.00" />
<!-- End 'C' -->
<!-- Begin 'A' -->
<polygon points=" 810.000000, 105.721727, 831.000000, 28.470478, 839.000000, 28.470478, 860.000000, 105.721727, 852.500000, 105.721727, 846.250000, 86.408915, 823.750000, 86.408915, 817.500000, 105.721727" fill="rgb(178, 34, 34)" style="fill-opacity:1.00" />
<polygon points=" 835.000000, 43.920728, 827.000000, 73.821227, 842.000000, 73.821227" fill="rgb(255, 255, 255)" style="fill-opacity:1.00" />
<!-- End 'A' -->
<!-- Begin 'T' -->
<rect height="0.388722" width="50.000000" x="810.000000" y="105.721727" fill="rgb(0, 100, 0)" style="fill-opacity:1.00" />
<rect height="2.429513" width="10.000000" x="830.000000" y="105.721727" fill="rgb(0, 100, 0)" style="fill-opacity:1.00" />
<!-- End 'T' -->
<!-- Begin 'G' -->
<ellipse cx="835.000000" cy="108.767848" rx="25.000000" ry="0.616608" fill="rgb(255, 165, 0)" style="fill-opacity:1.00" />
<ellipse cx="835.000000" cy="108.767848" rx="16.666667" ry="0.411072" fill="rgb(255, 255, 255)" style="fill-opacity:1.00" />
<rect height="0.616608" width="25.000000" x="835.000000" y="108.459544" fill="rgb(255, 255, 255)" style="fill-opacity:1.00" />
<rect height="0.154152" width="25.000000" x="835.000000" y="108.922000" fill="rgb(255, 165, 0)" style="fill-opacity:1.00" />
<rect height="0.462456" width="6.250000" x="853.750000" y="108.922000" fill="rgb(255, 165, 0)" style="fill-opacity:1.00" />
<!-- End 'G' -->
<!-- Begin 'C' -->
<ellipse cx="835.000000" cy="109.692228" rx="25.000000" ry="0.307772" fill="rgb(0, 0, 128)" style="fill-opacity:1.00" />
<ellipse cx="835.000000" cy="109.692228" rx="16.666667" ry="0.205181" fill="rgb(255, 255, 255)" style="fill-opacity:1.00" />
<rect height="0.307772" width="25.000000" x="835.000000" y="109.538342" fill="rgb(255, 255, 255)" style="fill-opacity:1.00" />
<!-- End 'C' -->
<!-- Begin 'T' -->
<rect height="0.417973" width="50.000000" x="870.000000" y="103.436025" fill="rgb(0, 100, 0)" style="fill-opacity:1.00" />
<rect height="2.612334" width="10.000000" x="890.000000" y="103.436025" fill="rgb(0, 100, 0)" style="fill-opacity:1.00" />
<!-- End 'T' -->
<!-- Begin 'G' -->
<ellipse cx="895.000000" cy="107.047714" rx="25.000000" ry="0.999355" fill="rgb(255, 165, 0)" style="fill-opacity:1.00" />
<ellipse cx="895.000000" cy="107.047714" rx="16.666667" ry="0.666237" fill="rgb(255, 255, 255)" style="fill-opacity:1.00" />
<rect height="0.999355" width="25.000000" x="895.000000" y="106.548036" fill="rgb(255, 255, 255)" style="fill-opacity:1.00" />
<rect height="0.249839" width="25.000000" x="895.000000" y="107.297552" fill="rgb(255, 165, 0)" style="fill-opacity:1.00" />
<rect height="0.749516" width="6.250000" x="913.750000" y="107.297552" fill="rgb(255, 165, 0)" style="fill-opacity:1.00" />
<!-- End 'G' -->
<!-- Begin 'C' -->
<ellipse cx="895.000000" cy="108.559339" rx="25.000000" ry="0.512271" fill="rgb(0, 0, 128)" style="fill-opacity:1.00" />
<ellipse cx="895.000000" cy="108.559339" rx="16.666667" ry="0.341514" fill="rgb(255, 255, 255)" style="fill-opacity:1.00" />
<rect height="0.512271" width="25.000000" x="895.000000" y="108.303204" fill="rgb(255, 255, 255)" style="fill-opacity:1.00" />
<!-- End 'C' -->
<!-- Begin 'A' -->
<polygon points=" 870.000000, 110.000000, 891.000000, 109.071610, 899.000000, 109.071610, 920.000000, 110.000000, 912.500000, 110.000000, 906.250000, 109.767903, 883.750000, 109.767903, 877.500000, 110.000000" fill="rgb(178, 34, 34)" style="fill-opacity:1.00" />
<!-- End 'A' -->
<!-- Begin 'A' -->
<polygon points=" 930.000000, 100.256455, 951.000000, 90.740098, 959.000000, 90.740098, 980.000000, 100.256455, 972.500000, 100.256455, 966.250000, 97.877366, 943.750000, 97.877366, 937.500000, 100.256455" fill="rgb(178, 34, 34)" style="fill-opacity:1.00" />
<polygon points=" 955.000000, 92.643370, 947.000000, 95.449912, 962.000000, 95.449912" fill="rgb(255, 255, 255)" style="fill-opacity:1.00" />
<!-- End 'A' -->
<!-- Begin 'C' -->
<ellipse cx="955.000000" cy="103.579891" rx="25.000000" ry="3.323436" fill="rgb(0, 0, 128)" style="fill-opacity:1.00" />
<ellipse cx="955.000000" cy="103.579891" rx="16.666667" ry="2.215624" fill="rgb(255, 255, 255)" style="fill-opacity:1.00" />
<rect height="3.323436" width="25.000000" x="955.000000" y="101.918173" fill="rgb(255, 255, 255)" style="fill-opacity:1.00" />
<!-- End 'C' -->
<!-- Begin 'T' -->
<rect height="0.281778" width="50.000000" x="930.000000" y="106.903328" fill="rgb(0, 100, 0)" style="fill-opacity:1.00" />
<rect height="1.761114" width="10.000000" x="950.000000" y="106.903328" fill="rgb(0, 100, 0)" style="fill-opacity:1.00" />
<!-- End 'T' -->
<!-- Begin 'G' -->
<ellipse cx="955.000000" cy="109.332221" rx="25.000000" ry="0.667779" fill="rgb(255, 165, 0)" style="fill-opacity:1.00" />
<ellipse cx="955.000000" cy="109.332221" rx="16.666667" ry="0.445186" fill="rgb(255, 255, 255)" style="fill-opacity:1.00" />
<rect height="0.667779" width="25.000000" x="955.000000" y="108.998331" fill="rgb(255, 255, 255)" style="fill-opacity:1.00" />
<rect height="0.166945" width="25.000000" x="955.000000" y="109.499166" fill="rgb(255, 165, 0)" style="fill-opacity:1.00" />
<rect height="0.500834" width="6.250000" x="973.750000" y="109.499166" fill="rgb(255, 165, 0)" style="fill-opacity:1.00" />
<!-- End 'G' -->
<!-- Begin 'C' -->
<ellipse cx="1015.000000" cy="100.852166" rx="25.000000" ry="2.785258" fill="rgb(0, 0, 128)" style="fill-opacity:1.00" />
<ellipse cx="1015.000000" cy="100.852166" rx="16.666667" ry="1.856839" fill="rgb(255, 255, 255)" style="fill-opacity:1.00" />
<rect height="2.785258" width="25.000000" x="1015.000000" y="99.459537" fill="rgb(255, 255, 255)" style="fill-opacity:1.00" />
<!-- End 'C' -->
<!-- Begin 'T' -->
<rect height="0.514379" width="50.000000" x="990.000000" y="103.637424" fill="rgb(0, 100, 0)" style="fill-opacity:1.00" />
<rect height="3.214867" width="10.000000" x="1010.000000" y="103.637424" fill="rgb(0, 100, 0)" style="fill-opacity:1.00" />
<!-- End 'T' -->
<!-- Begin 'A' -->
<polygon points=" 990.000000, 109.066257, 1011.000000, 106.852291, 1019.000000, 106.852291, 1040.000000, 109.066257, 1032.500000, 109.066257, 1026.250000, 108.512765, 1003.750000, 108.512765, 997.500000, 109.066257" fill="rgb(178, 34, 34)" style="fill-opacity:1.00" />
<!-- End 'A' -->
<!-- Begin 'G' -->
<ellipse cx="1015.000000" cy="109.533128" rx="25.000000" ry="0.466872" fill="rgb(255, 165, 0)" style="fill-opacity:1.00" />
<ellipse cx="1015.000000" cy="109.533128" rx="16.666667" ry="0.311248" fill="rgb(255, 255, 255)" style="fill-opacity:1.00" />
<rect height="0.466872" width="25.000000" x="1015.000000" y="109.299693" fill="rgb(255, 255, 255)" style="fill-opacity:1.00" />
<rect height="0.116718" width="25.000000" x="1015.000000" y="109.649846" fill="rgb(255, 165, 0)" style="fill-opacity:1.00" />
<rect height="0.350154" width="6.250000" x="1033.750000" y="109.649846" fill="rgb(255, 165, 0)" style="fill-opacity:1.00" />
<!-- End 'G' -->
<text x="550.000000" y="165">
IC = 8.54
</text>

</svg>
