<?xml version="1.0" encoding="UTF-8" standalone="yes"?>
                 <!DOCTYPE svg PUBLIC "-//W3C//DTD SVG 1.0//EN" "http://www.w3.org/TR/2001/REC-SVG-20010904/DTD/svg10.dtd">
                 <svg height="170" width="720" xmlns="http://www.w3.org/2000/svg" xmlns:xlink="http://www.w3.org/1999/xlink">
                 <line x1="85" y1="120" x2="687" y2="120" style="stroke:rgb(99,99,99);stroke-width:2" />
<rect height="7.000000" width="2.000000" x="85.000000" y="120.000000" fill="rgb(0, 0, 0)" style="fill-opacity:1.00" />
<text x="107.000000" y="140">
1
</text>
<rect height="7.000000" width="2.000000" x="145.000000" y="120.000000" fill="rgb(0, 0, 0)" style="fill-opacity:1.00" />
<text x="167.000000" y="140">
2
</text>
<rect height="7.000000" width="2.000000" x="205.000000" y="120.000000" fill="rgb(0, 0, 0)" style="fill-opacity:1.00" />
<text x="227.000000" y="140">
3
</text>
<rect height="7.000000" width="2.000000" x="265.000000" y="120.000000" fill="rgb(0, 0, 0)" style="fill-opacity:1.00" />
<text x="287.000000" y="140">
4
</text>
<rect height="7.000000" width="2.000000" x="325.000000" y="120.000000" fill="rgb(0, 0, 0)" style="fill-opacity:1.00" />
<text x="347.000000" y="140">
5
</text>
<rect height="7.000000" width="2.000000" x="385.000000" y="120.000000" fill="rgb(0, 0, 0)" style="fill-opacity:1.00" />
<text x="407.000000" y="140">
6
</text>
<rect height="7.000000" width="2.000000" x="445.000000" y="120.000000" fill="rgb(0, 0, 0)" style="fill-opacity:1.00" />
<text x="467.000000" y="140">
7
</text>
<rect height="7.000000" width="2.000000" x="505.000000" y="120.000000" fill="rgb(0, 0, 0)" style="fill-opacity:1.00" />
<text x="527.000000" y="140">
8
</text>
<rect height="7.000000" width="2.000000" x="565.000000" y="120.000000" fill="rgb(0, 0, 0)" style="fill-opacity:1.00" />
<text x="587.000000" y="140">
9
</text>
<rect height="7.000000" width="2.000000" x="625.000000" y="120.000000" fill="rgb(0, 0, 0)" style="fill-opacity:1.00" />
<text x="647.000000" y="140">
10
</text>
<rect height="7.000000" width="2.000000" x="685.000000" y="120.000000" fill="rgb(0, 0, 0)" style="fill-opacity:1.00" />
<line x1="80" y1="112" x2="80" y2="10" style="stroke:rgb(99,99,99);stroke-width:2" />
<rect height="2.000000" width="7.000000" x="73.000000" y="110.000000" fill="rgb(0, 0, 0)" style="fill-opacity:1.00" />
<text x="63" y="115">
0
</text>
<rect height="2.000000" width="7.000000" x="73.000000" y="60.000000" fill="rgb(0, 0, 0)" style="fill-opacity:1.00" />
<text x="63" y="65">
1
</text>
<rect height="2.000000" width="7.000000" x="73.000000" y="10.000000" fill="rgb(0, 0, 0)" style="fill-opacity:1.00" />
<text x="63" y="15">
2
</text>
<text x="50" y="65"
transform="rotate(-90, 50, 70)">
bits
</text>
<!-- Begin 'A' -->
<polygon points=" 90.000000, 103.217142, 111.000000, 98.492480, 119.000000, 98.492480, 140.000000, 103.217142, 132.500000, 103.217142, 126.250000, 102.035976, 103.750000, 102.035976, 97.500000, 103.217142" fill="rgb(178, 34, 34)" style="fill-opacity:1.00" />
<!-- End 'A' -->
<!-- Begin 'T' -->
<rect height="0.586744" width="50.000000" x="90.000000" y="103.217142" fill="rgb(0, 100, 0)" style="fill-opacity:1.00" />
<rect height="3.667152" width="10.000000" x="110.000000" y="103.217142" fill="rgb(0, 100, 0)" style="fill-opacity:1.00" />
<!-- End 'T' -->
<!-- Begin 'C' -->
<ellipse cx="115.000000" cy="108.097470" rx="25.000000" ry="1.213177" fill="rgb(0, 0, 128)" style="fill-opacity:1.00" />
<ellipse cx="115.000000" cy="108.097470" rx="16.666667" ry="0.808785" fill="rgb(255, 255, 255)" style="fill-opacity:1.00" />
<rect height="1.213177" width="25.000000" x="115.000000" y="107.490882" fill="rgb(255, 255, 255)" style="fill-opacity:1.00" />
<!-- End 'C' -->
<!-- Begin 'G' -->
<ellipse cx="115.000000" cy="109.655324" rx="25.000000" ry="0.344676" fill="rgb(255, 165, 0)" style="fill-opacity:1.00" />
<ellipse cx="115.000000" cy="109.655324" rx="16.666667" ry="0.229784" fill="rgb(255, 255, 255)" style="fill-opacity:1.00" />
<rect height="0.344676" width="25.000000" x="115.000000" y="109.482985" fill="rgb(255, 255, 255)" style="fill-opacity:1.00" />
<rect height="0.086169" width="25.000000" x="115.000000" y="109.741493" fill="rgb(255, 165, 0)" style="fill-opacity:1.00" />
<rect height="0.258507" width="6.250000" x="133.750000" y="109.741493" fill="rgb(255, 165, 0)" style="fill-opacity:1.00" />
<!-- End 'G' -->
<!-- Begin 'A' -->
<polygon points=" 150.000000, 102.510308, 171.000000, 93.715063, 179.000000, 93.715063, 200.000000, 102.510308, 192.500000, 102.510308, 186.250000, 100.311497, 163.750000, 100.311497, 157.500000, 102.510308" fill="rgb(178, 34, 34)" style="fill-opacity:1.00" />
<polygon points=" 175.000000, 95.474112, 167.000000, 97.992210, 182.000000, 97.992210" fill="rgb(255, 255, 255)" style="fill-opacity:1.00" />
<!-- End 'A' -->
<!-- Begin 'G' -->
<ellipse cx="175.000000" cy="104.391317" rx="25.000000" ry="1.881009" fill="rgb(255, 165, 0)" style="fill-opacity:1.00" />
<ellipse cx="175.000000" cy="104.391317" rx="16.666667" ry="1.254006" fill="rgb(255, 255, 255)" style="fill-opacity:1.00" />
<rect height="1.881009" width="25.000000" x="175.000000" y="103.450812" fill="rgb(255, 255, 255)" style="fill-opacity:1.00" />
<rect height="0.470252" width="25.000000" x="175.000000" y="104.861569" fill="rgb(255, 165, 0)" style="fill-opacity:1.00" />
<rect height="1.410757" width="6.250000" x="193.750000" y="104.861569" fill="rgb(255, 165, 0)" style="fill-opacity:1.00" />
<!-- End 'G' -->
<!-- Begin 'C' -->
<ellipse cx="175.000000" cy="107.430936" rx="25.000000" ry="1.158611" fill="rgb(0, 0, 128)" style="fill-opacity:1.00" />
<ellipse cx="175.000000" cy="107.430936" rx="16.666667" ry="0.772407" fill="rgb(255, 255, 255)" style="fill-opacity:1.00" />
<rect height="1.158611" width="25.000000" x="175.000000" y="106.851631" fill="rgb(255, 255, 255)" style="fill-opacity:1.00" />
<!-- End 'C' -->
<!-- Begin 'T' -->
<rect height="0.225672" width="50.000000" x="150.000000" y="108.589547" fill="rgb(0, 100, 0)" style="fill-opacity:1.00" />
<rect height="1.410453" width="10.000000" x="170.000000" y="108.589547" fill="rgb(0, 100, 0)" style="fill-opacity:1.00" />
<!-- End 'T' -->
<!-- Begin 'A' -->
<polygon points=" 210.000000, 97.744453, 231.000000, 68.912120, 239.000000, 68.912120, 260.000000, 97.744453, 252.500000, 97.744453, 246.250000, 90.536370, 223.750000, 90.536370, 217.500000, 97.744453" fill="rgb(178, 34, 34)" style="fill-opacity:1.00" />
<polygon points=" 235.000000, 74.678587, 227.000000, 85.211520, 242.000000, 85.211520" fill="rgb(255, 255, 255)" style="fill-opacity:1.00" />
<!-- End 'A' -->
<!-- Begin 'G' -->
<ellipse cx="235.000000" cy="101.123891" rx="25.000000" ry="3.379438" fill="rgb(255, 165, 0)" style="fill-opacity:1.00" />
<ellipse cx="235.000000" cy="101.123891" rx="16.666667" ry="2.252959" fill="rgb(255, 255, 255)" style="fill-opacity:1.00" />
<rect height="3.379438" width="25.000000" x="235.000000" y="99.434172" fill="rgb(255, 255, 255)" style="fill-opacity:1.00" />
<rect height="0.844860" width="25.000000" x="235.000000" y="101.968751" fill="rgb(255, 165, 0)" style="fill-opacity:1.00" />
<rect height="2.534579" width="6.250000" x="253.750000" y="101.968751" fill="rgb(255, 165, 0)" style="fill-opacity:1.00" />
<!-- End 'G' -->
<!-- Begin 'C' -->
<ellipse cx="235.000000" cy="107.245488" rx="25.000000" ry="2.742158" fill="rgb(0, 0, 128)" style="fill-opacity:1.00" />
<ellipse cx="235.000000" cy="107.245488" rx="16.666667" ry="1.828105" fill="rgb(255, 255, 255)" style="fill-opacity:1.00" />
<rect height="2.742158" width="25.000000" x="235.000000" y="105.874409" fill="rgb(255, 255, 255)" style="fill-opacity:1.00" />
<!-- End 'C' -->
<!-- Begin 'T' -->
<rect height="0.001977" width="50.000000" x="210.000000" y="109.987646" fill="rgb(0, 100, 0)" style="fill-opacity:1.00" />
<rect height="0.012354" width="10.000000" x="230.000000" y="109.987646" fill="rgb(0, 100, 0)" style="fill-opacity:1.00" />
<!-- End 'T' -->
<!-- Begin 'C' -->
<ellipse cx="295.000000" cy="62.146036" rx="25.000000" ry="46.554557" fill="rgb(0, 0, 128)" style="fill-opacity:1.00" />
<ellipse cx="295.000000" cy="62.146036" rx="16.666667" ry="31.036371" fill="rgb(255, 255, 255)" style="fill-opacity:1.00" />
<rect height="46.554557" width="25.000000" x="295.000000" y="38.868757" fill="rgb(255, 255, 255)" style="fill-opacity:1.00" />
<!-- End 'C' -->
<!-- Begin 'A' -->
<polygon points=" 270.000000, 109.888034, 291.000000, 108.700593, 299.000000, 108.700593, 320.000000, 109.888034, 312.500000, 109.888034, 306.250000, 109.591174, 283.750000, 109.591174, 277.500000, 109.888034" fill="rgb(178, 34, 34)" style="fill-opacity:1.00" />
<!-- End 'A' -->
<!-- Begin 'T' -->
<rect height="0.009709" width="50.000000" x="270.000000" y="109.888034" fill="rgb(0, 100, 0)" style="fill-opacity:1.00" />
<rect height="0.060682" width="10.000000" x="290.000000" y="109.888034" fill="rgb(0, 100, 0)" style="fill-opacity:1.00" />
<!-- End 'T' -->
<!-- Begin 'G' -->
<ellipse cx="295.000000" cy="109.974358" rx="25.000000" ry="0.025642" fill="rgb(255, 165, 0)" style="fill-opacity:1.00" />
<ellipse cx="295.000000" cy="109.974358" rx="16.666667" ry="0.017095" fill="rgb(255, 255, 255)" style="fill-opacity:1.00" />
<rect height="0.025642" width="25.000000" x="295.000000" y="109.961537" fill="rgb(255, 255, 255)" style="fill-opacity:1.00" />
<rect height="0.006411" width="25.000000" x="295.000000" y="109.980768" fill="rgb(255, 165, 0)" style="fill-opacity:1.00" />
<rect height="0.019232" width="6.250000" x="313.750000" y="109.980768" fill="rgb(255, 165, 0)" style="fill-opacity:1.00" />
<!-- End 'G' -->
<!-- Begin 'C' -->
<ellipse cx="355.000000" cy="61.390353" rx="25.000000" ry="47.959788" fill="rgb(0, 0, 128)" style="fill-opacity:1.00" />
<ellipse cx="355.000000" cy="61.390353" rx="16.666667" ry="31.973192" fill="rgb(255, 255, 255)" style="fill-opacity:1.00" />
<rect height="47.959788" width="25.000000" x="355.000000" y="37.410459" fill="rgb(255, 255, 255)" style="fill-opacity:1.00" />
<!-- End 'C' -->
<!-- Begin 'A' -->
<polygon points=" 330.000000, 109.639335, 351.000000, 109.350141, 359.000000, 109.350141, 380.000000, 109.639335, 372.500000, 109.639335, 366.250000, 109.567036, 343.750000, 109.567036, 337.500000, 109.639335" fill="rgb(178, 34, 34)" style="fill-opacity:1.00" />
<!-- End 'A' -->
<!-- Begin 'T' -->
<rect height="0.031623" width="50.000000" x="330.000000" y="109.639335" fill="rgb(0, 100, 0)" style="fill-opacity:1.00" />
<rect height="0.197646" width="10.000000" x="350.000000" y="109.639335" fill="rgb(0, 100, 0)" style="fill-opacity:1.00" />
<!-- End 'T' -->
<!-- Begin 'G' -->
<ellipse cx="355.000000" cy="109.918491" rx="25.000000" ry="0.081509" fill="rgb(255, 165, 0)" style="fill-opacity:1.00" />
<ellipse cx="355.000000" cy="109.918491" rx="16.666667" ry="0.054340" fill="rgb(255, 255, 255)" style="fill-opacity:1.00" />
<rect height="0.081509" width="25.000000" x="355.000000" y="109.877736" fill="rgb(255, 255, 255)" style="fill-opacity:1.00" />
<rect height="0.020377" width="25.000000" x="355.000000" y="109.938868" fill="rgb(255, 165, 0)" style="fill-opacity:1.00" />
<rect height="0.061132" width="6.250000" x="373.750000" y="109.938868" fill="rgb(255, 165, 0)" style="fill-opacity:1.00" />
<!-- End 'G' -->
<!-- Begin 'A' -->
<polygon points=" 390.000000, 99.515672, 411.000000, 68.082136, 419.000000, 68.082136, 440.000000, 99.515672, 432.500000, 99.515672, 426.250000, 91.657288, 403.750000, 91.657288, 397.500000, 99.515672" fill="rgb(178, 34, 34)" style="fill-opacity:1.00" />
<polygon points=" 415.000000, 74.368843, 407.000000, 85.942258, 422.000000, 85.942258" fill="rgb(255, 255, 255)" style="fill-opacity:1.00" />
<!-- End 'A' -->
<!-- Begin 'G' -->
<ellipse cx="415.000000" cy="102.450682" rx="25.000000" ry="2.935010" fill="rgb(255, 165, 0)" style="fill-opacity:1.00" />
<ellipse cx="415.000000" cy="102.450682" rx="16.666667" ry="1.956673" fill="rgb(255, 255, 255)" style="fill-opacity:1.00" />
<rect height="2.935010" width="25.000000" x="415.000000" y="100.983177" fill="rgb(255, 255, 255)" style="fill-opacity:1.00" />
<rect height="0.733753" width="25.000000" x="415.000000" y="103.184435" fill="rgb(255, 165, 0)" style="fill-opacity:1.00" />
<rect height="2.201258" width="6.250000" x="433.750000" y="103.184435" fill="rgb(255, 165, 0)" style="fill-opacity:1.00" />
<!-- End 'G' -->
<!-- Begin 'T' -->
<rect height="0.481103" width="50.000000" x="390.000000" y="105.385692" fill="rgb(0, 100, 0)" style="fill-opacity:1.00" />
<rect height="3.006897" width="10.000000" x="410.000000" y="105.385692" fill="rgb(0, 100, 0)" style="fill-opacity:1.00" />
<!-- End 'T' -->
<!-- Begin 'C' -->
<ellipse cx="415.000000" cy="109.196295" rx="25.000000" ry="0.803705" fill="rgb(0, 0, 128)" style="fill-opacity:1.00" />
<ellipse cx="415.000000" cy="109.196295" rx="16.666667" ry="0.535804" fill="rgb(255, 255, 255)" style="fill-opacity:1.00" />
<rect height="0.803705" width="25.000000" x="415.000000" y="108.794442" fill="rgb(255, 255, 255)" style="fill-opacity:1.00" />
<!-- End 'C' -->
<!-- Begin 'C' -->
<ellipse cx="475.000000" cy="70.545311" rx="25.000000" ry="33.269735" fill="rgb(0, 0, 128)" style="fill-opacity:1.00" />
<ellipse cx="475.000000" cy="70.545311" rx="16.666667" ry="22.179823" fill="rgb(255, 255, 255)" style="fill-opacity:1.00" />
<rect height="33.269735" width="25.000000" x="475.000000" y="53.910443" fill="rgb(255, 255, 255)" style="fill-opacity:1.00" />
<!-- End 'C' -->
<!-- Begin 'G' -->
<ellipse cx="475.000000" cy="105.176787" rx="25.000000" ry="1.361742" fill="rgb(255, 165, 0)" style="fill-opacity:1.00" />
<ellipse cx="475.000000" cy="105.176787" rx="16.666667" ry="0.907828" fill="rgb(255, 255, 255)" style="fill-opacity:1.00" />
<rect height="1.361742" width="25.000000" x="475.000000" y="104.495916" fill="rgb(255, 255, 255)" style="fill-opacity:1.00" />
<rect height="0.340435" width="25.000000" x="475.000000" y="105.517222" fill="rgb(255, 165, 0)" style="fill-opacity:1.00" />
<rect height="1.021306" width="6.250000" x="493.750000" y="105.517222" fill="rgb(255, 165, 0)" style="fill-opacity:1.00" />
<!-- End 'G' -->
<!-- Begin 'A' -->
<polygon points=" 450.000000, 108.980430, 471.000000, 106.538529, 479.000000, 106.538529, 500.000000, 108.980430, 492.500000, 108.980430, 486.250000, 108.369955, 463.750000, 108.369955, 457.500000, 108.980430" fill="rgb(178, 34, 34)" style="fill-opacity:1.00" />
<!-- End 'A' -->
<!-- Begin 'T' -->
<rect height="0.163131" width="50.000000" x="450.000000" y="108.980430" fill="rgb(0, 100, 0)" style="fill-opacity:1.00" />
<rect height="1.019570" width="10.000000" x="470.000000" y="108.980430" fill="rgb(0, 100, 0)" style="fill-opacity:1.00" />
<!-- End 'T' -->
<!-- Begin 'A' -->
<polygon points=" 510.000000, 99.937902, 531.000000, 70.743050, 539.000000, 70.743050, 560.000000, 99.937902, 552.500000, 99.937902, 546.250000, 92.639189, 523.750000, 92.639189, 517.500000, 99.937902" fill="rgb(178, 34, 34)" style="fill-opacity:1.00" />
<polygon points=" 535.000000, 76.582021, 527.000000, 87.259961, 542.000000, 87.259961" fill="rgb(255, 255, 255)" style="fill-opacity:1.00" />
<!-- End 'A' -->
<!-- Begin 'T' -->
<rect height="0.675309" width="50.000000" x="510.000000" y="99.937902" fill="rgb(0, 100, 0)" style="fill-opacity:1.00" />
<rect height="4.220682" width="10.000000" x="530.000000" y="99.937902" fill="rgb(0, 100, 0)" style="fill-opacity:1.00" />
<!-- End 'T' -->
<!-- Begin 'C' -->
<ellipse cx="535.000000" cy="105.978307" rx="25.000000" ry="1.819723" fill="rgb(0, 0, 128)" style="fill-opacity:1.00" />
<ellipse cx="535.000000" cy="105.978307" rx="16.666667" ry="1.213149" fill="rgb(255, 255, 255)" style="fill-opacity:1.00" />
<rect height="1.819723" width="25.000000" x="535.000000" y="105.068446" fill="rgb(255, 255, 255)" style="fill-opacity:1.00" />
<!-- End 'C' -->
<!-- Begin 'G' -->
<ellipse cx="535.000000" cy="108.899015" rx="25.000000" ry="1.100985" fill="rgb(255, 165, 0)" style="fill-opacity:1.00" />
<ellipse cx="535.000000" cy="108.899015" rx="16.666667" ry="0.733990" fill="rgb(255, 255, 255)" style="fill-opacity:1.00" />
<rect height="1.100985" width="25.000000" x="535.000000" y="108.348523" fill="rgb(255, 255, 255)" style="fill-opacity:1.00" />
<rect height="0.275246" width="25.000000" x="535.000000" y="109.174261" fill="rgb(255, 165, 0)" style="fill-opacity:1.00" />
<rect height="0.825739" width="6.250000" x="553.750000" y="109.174261" fill="rgb(255, 165, 0)" style="fill-opacity:1.00" />
<!-- End 'G' -->
<!-- Begin 'G' -->
<ellipse cx="595.000000" cy="105.715884" rx="25.000000" ry="0.917548" fill="rgb(255, 165, 0)" style="fill-opacity:1.00" />
<ellipse cx="595.000000" cy="105.715884" rx="16.666667" ry="0.611699" fill="rgb(255, 255, 255)" style="fill-opacity:1.00" />
<rect height="0.917548" width="25.000000" x="595.000000" y="105.257110" fill="rgb(255, 255, 255)" style="fill-opacity:1.00" />
<rect height="0.229387" width="25.000000" x="595.000000" y="105.945272" fill="rgb(255, 165, 0)" style="fill-opacity:1.00" />
<rect height="0.688161" width="6.250000" x="613.750000" y="105.945272" fill="rgb(255, 165, 0)" style="fill-opacity:1.00" />
<!-- End 'G' -->
<!-- Begin 'A' -->
<polygon points=" 570.000000, 108.361864, 591.000000, 106.633433, 599.000000, 106.633433, 620.000000, 108.361864, 612.500000, 108.361864, 606.250000, 107.929756, 583.750000, 107.929756, 577.500000, 108.361864" fill="rgb(178, 34, 34)" style="fill-opacity:1.00" />
<!-- End 'A' -->
<!-- Begin 'T' -->
<rect height="0.144419" width="50.000000" x="570.000000" y="108.361864" fill="rgb(0, 100, 0)" style="fill-opacity:1.00" />
<rect height="0.902617" width="10.000000" x="590.000000" y="108.361864" fill="rgb(0, 100, 0)" style="fill-opacity:1.00" />
<!-- End 'T' -->
<!-- Begin 'C' -->
<ellipse cx="595.000000" cy="109.632241" rx="25.000000" ry="0.367759" fill="rgb(0, 0, 128)" style="fill-opacity:1.00" />
<ellipse cx="595.000000" cy="109.632241" rx="16.666667" ry="0.245173" fill="rgb(255, 255, 255)" style="fill-opacity:1.00" />
<rect height="0.367759" width="25.000000" x="595.000000" y="109.448361" fill="rgb(255, 255, 255)" style="fill-opacity:1.00" />
<!-- End 'C' -->
<!-- Begin 'A' -->
<polygon points=" 630.000000, 108.966433, 651.000000, 108.491961, 659.000000, 108.491961, 680.000000, 108.966433, 672.500000, 108.966433, 666.250000, 108.847815, 643.750000, 108.847815, 637.500000, 108.966433" fill="rgb(178, 34, 34)" style="fill-opacity:1.00" />
<!-- End 'A' -->
<!-- Begin 'C' -->
<ellipse cx="655.000000" cy="109.179164" rx="25.000000" ry="0.212731" fill="rgb(0, 0, 128)" style="fill-opacity:1.00" />
<ellipse cx="655.000000" cy="109.179164" rx="16.666667" ry="0.141820" fill="rgb(255, 255, 255)" style="fill-opacity:1.00" />
<rect height="0.212731" width="25.000000" x="655.000000" y="109.072799" fill="rgb(255, 255, 255)" style="fill-opacity:1.00" />
<!-- End 'C' -->
<!-- Begin 'G' -->
<ellipse cx="655.000000" cy="109.555535" rx="25.000000" ry="0.163640" fill="rgb(255, 165, 0)" style="fill-opacity:1.00" />
<ellipse cx="655.000000" cy="109.555535" rx="16.666667" ry="0.109093" fill="rgb(255, 255, 255)" style="fill-opacity:1.00" />
<rect height="0.163640" width="25.000000" x="655.000000" y="109.473715" fill="rgb(255, 255, 255)" style="fill-opacity:1.00" />
<rect height="0.040910" width="25.000000" x="655.000000" y="109.596445" fill="rgb(255, 165, 0)" style="fill-opacity:1.00" />
<rect height="0.122730" width="6.250000" x="673.750000" y="109.596445" fill="rgb(255, 165, 0)" style="fill-opacity:1.00" />
<!-- End 'G' -->
<!-- Begin 'T' -->
<rect height="0.044932" width="50.000000" x="630.000000" y="109.719175" fill="rgb(0, 100, 0)" style="fill-opacity:1.00" />
<rect height="0.280825" width="10.000000" x="650.000000" y="109.719175" fill="rgb(0, 100, 0)" style="fill-opacity:1.00" />
<!-- End 'T' -->
<text x="370.000000" y="165">
IC = 8.41
</text>

</svg>
