<?xml version="1.0" encoding="UTF-8" standalone="yes"?>
                 <!DOCTYPE svg PUBLIC "-//W3C//DTD SVG 1.0//EN" "http://www.w3.org/TR/2001/REC-SVG-20010904/DTD/svg10.dtd">
                 <svg height="170" width="780" xmlns="http://www.w3.org/2000/svg" xmlns:xlink="http://www.w3.org/1999/xlink">
                 <line x1="85" y1="120" x2="747" y2="120" style="stroke:rgb(99,99,99);stroke-width:2" />
<rect height="7.000000" width="2.000000" x="85.000000" y="120.000000" fill="rgb(0, 0, 0)" style="fill-opacity:1.00" />
<text x="107.000000" y="140">
1
</text>
<rect height="7.000000" width="2.000000" x="145.000000" y="120.000000" fill="rgb(0, 0, 0)" style="fill-opacity:1.00" />
<text x="167.000000" y="140">
2
</text>
<rect height="7.000000" width="2.000000" x="205.000000" y="120.000000" fill="rgb(0, 0, 0)" style="fill-opacity:1.00" />
<text x="227.000000" y="140">
3
</text>
<rect height="7.000000" width="2.000000" x="265.000000" y="120.000000" fill="rgb(0, 0, 0)" style="fill-opacity:1.00" />
<text x="287.000000" y="140">
4
</text>
<rect height="7.000000" width="2.000000" x="325.000000" y="120.000000" fill="rgb(0, 0, 0)" style="fill-opacity:1.00" />
<text x="347.000000" y="140">
5
</text>
<rect height="7.000000" width="2.000000" x="385.000000" y="120.000000" fill="rgb(0, 0, 0)" style="fill-opacity:1.00" />
<text x="407.000000" y="140">
6
</text>
<rect height="7.000000" width="2.000000" x="445.000000" y="120.000000" fill="rgb(0, 0, 0)" style="fill-opacity:1.00" />
<text x="467.000000" y="140">
7
</text>
<rect height="7.000000" width="2.000000" x="505.000000" y="120.000000" fill="rgb(0, 0, 0)" style="fill-opacity:1.00" />
<text x="527.000000" y="140">
8
</text>
<rect height="7.000000" width="2.000000" x="565.000000" y="120.000000" fill="rgb(0, 0, 0)" style="fill-opacity:1.00" />
<text x="587.000000" y="140">
9
</text>
<rect height="7.000000" width="2.000000" x="625.000000" y="120.000000" fill="rgb(0, 0, 0)" style="fill-opacity:1.00" />
<text x="647.000000" y="140">
10
</text>
<rect height="7.000000" width="2.000000" x="685.000000" y="120.000000" fill="rgb(0, 0, 0)" style="fill-opacity:1.00" />
<text x="707.000000" y="140">
11
</text>
<rect height="7.000000" width="2.000000" x="745.000000" y="120.000000" fill="rgb(0, 0, 0)" style="fill-opacity:1.00" />
<line x1="80" y1="112" x2="80" y2="10" style="stroke:rgb(99,99,99);stroke-width:2" />
<rect height="2.000000" width="7.000000" x="73.000000" y="110.000000" fill="rgb(0, 0, 0)" style="fill-opacity:1.00" />
<text x="63" y="115">
0
</text>
<rect height="2.000000" width="7.000000" x="73.000000" y="60.000000" fill="rgb(0, 0, 0)" style="fill-opacity:1.00" />
<text x="63" y="65">
1
</text>
<rect height="2.000000" width="7.000000" x="73.000000" y="10.000000" fill="rgb(0, 0, 0)" style="fill-opacity:1.00" />
<text x="63" y="15">
2
</text>
<text x="50" y="65"
transform="rotate(-90, 50, 70)">
bits
</text>
<!-- Begin 'T' -->
<rect height="0.825901" width="50.000000" x="90.000000" y="99.271679" fill="rgb(0, 100, 0)" style="fill-opacity:1.00" />
<rect height="5.161879" width="10.000000" x="110.000000" y="99.271679" fill="rgb(0, 100, 0)" style="fill-opacity:1.00" />
<!-- End 'T' -->
<!-- Begin 'G' -->
<ellipse cx="115.000000" cy="105.594094" rx="25.000000" ry="1.160537" fill="rgb(255, 165, 0)" style="fill-opacity:1.00" />
<ellipse cx="115.000000" cy="105.594094" rx="16.666667" ry="0.773691" fill="rgb(255, 255, 255)" style="fill-opacity:1.00" />
<rect height="1.160537" width="25.000000" x="115.000000" y="105.013826" fill="rgb(255, 255, 255)" style="fill-opacity:1.00" />
<rect height="0.290134" width="25.000000" x="115.000000" y="105.884228" fill="rgb(255, 165, 0)" style="fill-opacity:1.00" />
<rect height="0.870403" width="6.250000" x="133.750000" y="105.884228" fill="rgb(255, 165, 0)" style="fill-opacity:1.00" />
<!-- End 'G' -->
<!-- Begin 'C' -->
<ellipse cx="115.000000" cy="107.835436" rx="25.000000" ry="1.080805" fill="rgb(0, 0, 128)" style="fill-opacity:1.00" />
<ellipse cx="115.000000" cy="107.835436" rx="16.666667" ry="0.720537" fill="rgb(255, 255, 255)" style="fill-opacity:1.00" />
<rect height="1.080805" width="25.000000" x="115.000000" y="107.295034" fill="rgb(255, 255, 255)" style="fill-opacity:1.00" />
<!-- End 'C' -->
<!-- Begin 'A' -->
<polygon points=" 90.000000, 110.000000, 111.000000, 108.916242, 119.000000, 108.916242, 140.000000, 110.000000, 132.500000, 110.000000, 126.250000, 109.729060, 103.750000, 109.729060, 97.500000, 110.000000" fill="rgb(178, 34, 34)" style="fill-opacity:1.00" />
<!-- End 'A' -->
<!-- Begin 'T' -->
<rect height="14.834676" width="50.000000" x="150.000000" y="15.858062" fill="rgb(0, 100, 0)" style="fill-opacity:1.00" />
<rect height="92.716723" width="10.000000" x="170.000000" y="15.858062" fill="rgb(0, 100, 0)" style="fill-opacity:1.00" />
<!-- End 'T' -->
<!-- Begin 'C' -->
<ellipse cx="175.000000" cy="109.261479" rx="25.000000" ry="0.686695" fill="rgb(0, 0, 128)" style="fill-opacity:1.00" />
<ellipse cx="175.000000" cy="109.261479" rx="16.666667" ry="0.457796" fill="rgb(255, 255, 255)" style="fill-opacity:1.00" />
<rect height="0.686695" width="25.000000" x="175.000000" y="108.918132" fill="rgb(255, 255, 255)" style="fill-opacity:1.00" />
<!-- End 'C' -->
<!-- Begin 'G' -->
<ellipse cx="175.000000" cy="109.961130" rx="25.000000" ry="0.012957" fill="rgb(255, 165, 0)" style="fill-opacity:1.00" />
<ellipse cx="175.000000" cy="109.961130" rx="16.666667" ry="0.008638" fill="rgb(255, 255, 255)" style="fill-opacity:1.00" />
<rect height="0.012957" width="25.000000" x="175.000000" y="109.954652" fill="rgb(255, 255, 255)" style="fill-opacity:1.00" />
<rect height="0.003239" width="25.000000" x="175.000000" y="109.964370" fill="rgb(255, 165, 0)" style="fill-opacity:1.00" />
<rect height="0.009717" width="6.250000" x="193.750000" y="109.964370" fill="rgb(255, 165, 0)" style="fill-opacity:1.00" />
<!-- End 'G' -->
<!-- Begin 'A' -->
<polygon points=" 150.000000, 110.000000, 171.000000, 109.974087, 179.000000, 109.974087, 200.000000, 110.000000, 192.500000, 110.000000, 186.250000, 109.993522, 163.750000, 109.993522, 157.500000, 110.000000" fill="rgb(178, 34, 34)" style="fill-opacity:1.00" />
<!-- End 'A' -->
<!-- Begin 'T' -->
<rect height="13.766850" width="50.000000" x="210.000000" y="21.043389" fill="rgb(0, 100, 0)" style="fill-opacity:1.00" />
<rect height="86.042810" width="10.000000" x="230.000000" y="21.043389" fill="rgb(0, 100, 0)" style="fill-opacity:1.00" />
<!-- End 'T' -->
<!-- Begin 'G' -->
<ellipse cx="235.000000" cy="108.445157" rx="25.000000" ry="1.358957" fill="rgb(255, 165, 0)" style="fill-opacity:1.00" />
<ellipse cx="235.000000" cy="108.445157" rx="16.666667" ry="0.905972" fill="rgb(255, 255, 255)" style="fill-opacity:1.00" />
<rect height="1.358957" width="25.000000" x="235.000000" y="107.765678" fill="rgb(255, 255, 255)" style="fill-opacity:1.00" />
<rect height="0.339739" width="25.000000" x="235.000000" y="108.784896" fill="rgb(255, 165, 0)" style="fill-opacity:1.00" />
<rect height="1.019218" width="6.250000" x="253.750000" y="108.784896" fill="rgb(255, 165, 0)" style="fill-opacity:1.00" />
<!-- End 'G' -->
<!-- Begin 'C' -->
<ellipse cx="235.000000" cy="109.889814" rx="25.000000" ry="0.085700" fill="rgb(0, 0, 128)" style="fill-opacity:1.00" />
<ellipse cx="235.000000" cy="109.889814" rx="16.666667" ry="0.057133" fill="rgb(255, 255, 255)" style="fill-opacity:1.00" />
<rect height="0.085700" width="25.000000" x="235.000000" y="109.846964" fill="rgb(255, 255, 255)" style="fill-opacity:1.00" />
<!-- End 'C' -->
<!-- Begin 'A' -->
<polygon points=" 210.000000, 110.000000, 231.000000, 109.975514, 239.000000, 109.975514, 260.000000, 110.000000, 252.500000, 110.000000, 246.250000, 109.993879, 223.750000, 109.993879, 217.500000, 110.000000" fill="rgb(178, 34, 34)" style="fill-opacity:1.00" />
<!-- End 'A' -->
<!-- Begin 'C' -->
<ellipse cx="295.000000" cy="68.442128" rx="25.000000" ry="33.875428" fill="rgb(0, 0, 128)" style="fill-opacity:1.00" />
<ellipse cx="295.000000" cy="68.442128" rx="16.666667" ry="22.583618" fill="rgb(255, 255, 255)" style="fill-opacity:1.00" />
<rect height="33.875428" width="25.000000" x="295.000000" y="51.504414" fill="rgb(255, 255, 255)" style="fill-opacity:1.00" />
<!-- End 'C' -->
<!-- Begin 'A' -->
<polygon points=" 270.000000, 109.833893, 291.000000, 102.317555, 299.000000, 102.317555, 320.000000, 109.833893, 312.500000, 109.833893, 306.250000, 107.954809, 283.750000, 107.954809, 277.500000, 109.833893" fill="rgb(178, 34, 34)" style="fill-opacity:1.00" />
<!-- End 'A' -->
<!-- Begin 'G' -->
<ellipse cx="295.000000" cy="109.906565" rx="25.000000" ry="0.072672" fill="rgb(255, 165, 0)" style="fill-opacity:1.00" />
<ellipse cx="295.000000" cy="109.906565" rx="16.666667" ry="0.048448" fill="rgb(255, 255, 255)" style="fill-opacity:1.00" />
<rect height="0.072672" width="25.000000" x="295.000000" y="109.870229" fill="rgb(255, 255, 255)" style="fill-opacity:1.00" />
<rect height="0.018168" width="25.000000" x="295.000000" y="109.924733" fill="rgb(255, 165, 0)" style="fill-opacity:1.00" />
<rect height="0.054504" width="6.250000" x="313.750000" y="109.924733" fill="rgb(255, 165, 0)" style="fill-opacity:1.00" />
<!-- End 'G' -->
<!-- Begin 'T' -->
<rect height="0.003322" width="50.000000" x="270.000000" y="109.979237" fill="rgb(0, 100, 0)" style="fill-opacity:1.00" />
<rect height="0.020763" width="10.000000" x="290.000000" y="109.979237" fill="rgb(0, 100, 0)" style="fill-opacity:1.00" />
<!-- End 'T' -->
<!-- Begin 'C' -->
<ellipse cx="355.000000" cy="79.431971" rx="25.000000" ry="11.689828" fill="rgb(0, 0, 128)" style="fill-opacity:1.00" />
<ellipse cx="355.000000" cy="79.431971" rx="16.666667" ry="7.793219" fill="rgb(255, 255, 255)" style="fill-opacity:1.00" />
<rect height="11.689828" width="25.000000" x="355.000000" y="73.587057" fill="rgb(255, 255, 255)" style="fill-opacity:1.00" />
<!-- End 'C' -->
<!-- Begin 'T' -->
<rect height="2.813934" width="50.000000" x="330.000000" y="91.121799" fill="rgb(0, 100, 0)" style="fill-opacity:1.00" />
<rect height="17.587085" width="10.000000" x="350.000000" y="91.121799" fill="rgb(0, 100, 0)" style="fill-opacity:1.00" />
<!-- End 'T' -->
<!-- Begin 'A' -->
<polygon points=" 330.000000, 109.988368, 351.000000, 108.708885, 359.000000, 108.708885, 380.000000, 109.988368, 372.500000, 109.988368, 366.250000, 109.668497, 343.750000, 109.668497, 337.500000, 109.988368" fill="rgb(178, 34, 34)" style="fill-opacity:1.00" />
<!-- End 'A' -->
<!-- Begin 'G' -->
<ellipse cx="355.000000" cy="109.994184" rx="25.000000" ry="0.005816" fill="rgb(255, 165, 0)" style="fill-opacity:1.00" />
<ellipse cx="355.000000" cy="109.994184" rx="16.666667" ry="0.003877" fill="rgb(255, 255, 255)" style="fill-opacity:1.00" />
<rect height="0.005816" width="25.000000" x="355.000000" y="109.991276" fill="rgb(255, 255, 255)" style="fill-opacity:1.00" />
<rect height="0.001454" width="25.000000" x="355.000000" y="109.995638" fill="rgb(255, 165, 0)" style="fill-opacity:1.00" />
<rect height="0.004362" width="6.250000" x="373.750000" y="109.995638" fill="rgb(255, 165, 0)" style="fill-opacity:1.00" />
<!-- End 'G' -->
<!-- Begin 'A' -->
<polygon points=" 390.000000, 91.722032, 411.000000, 74.921364, 419.000000, 74.921364, 440.000000, 91.722032, 432.500000, 91.722032, 426.250000, 87.521865, 403.750000, 87.521865, 397.500000, 91.722032" fill="rgb(178, 34, 34)" style="fill-opacity:1.00" />
<polygon points=" 415.000000, 78.281497, 407.000000, 84.001765, 422.000000, 84.001765" fill="rgb(255, 255, 255)" style="fill-opacity:1.00" />
<!-- End 'A' -->
<!-- Begin 'G' -->
<ellipse cx="415.000000" cy="99.629932" rx="25.000000" ry="7.907901" fill="rgb(255, 165, 0)" style="fill-opacity:1.00" />
<ellipse cx="415.000000" cy="99.629932" rx="16.666667" ry="5.271934" fill="rgb(255, 255, 255)" style="fill-opacity:1.00" />
<rect height="7.907901" width="25.000000" x="415.000000" y="95.675982" fill="rgb(255, 255, 255)" style="fill-opacity:1.00" />
<rect height="1.976975" width="25.000000" x="415.000000" y="101.606908" fill="rgb(255, 165, 0)" style="fill-opacity:1.00" />
<rect height="5.930925" width="6.250000" x="433.750000" y="101.606908" fill="rgb(255, 165, 0)" style="fill-opacity:1.00" />
<!-- End 'G' -->
<!-- Begin 'T' -->
<rect height="0.392402" width="50.000000" x="390.000000" y="107.537833" fill="rgb(0, 100, 0)" style="fill-opacity:1.00" />
<rect height="2.452511" width="10.000000" x="410.000000" y="107.537833" fill="rgb(0, 100, 0)" style="fill-opacity:1.00" />
<!-- End 'T' -->
<!-- Begin 'C' -->
<ellipse cx="415.000000" cy="109.995172" rx="25.000000" ry="0.004828" fill="rgb(0, 0, 128)" style="fill-opacity:1.00" />
<ellipse cx="415.000000" cy="109.995172" rx="16.666667" ry="0.003219" fill="rgb(255, 255, 255)" style="fill-opacity:1.00" />
<rect height="0.004828" width="25.000000" x="415.000000" y="109.992758" fill="rgb(255, 255, 255)" style="fill-opacity:1.00" />
<!-- End 'C' -->
<!-- Begin 'G' -->
<ellipse cx="475.000000" cy="64.843286" rx="25.000000" ry="41.210405" fill="rgb(255, 165, 0)" style="fill-opacity:1.00" />
<ellipse cx="475.000000" cy="64.843286" rx="16.666667" ry="27.473603" fill="rgb(255, 255, 255)" style="fill-opacity:1.00" />
<rect height="41.210405" width="25.000000" x="475.000000" y="44.238084" fill="rgb(255, 255, 255)" style="fill-opacity:1.00" />
<rect height="10.302601" width="25.000000" x="475.000000" y="75.145887" fill="rgb(255, 165, 0)" style="fill-opacity:1.00" />
<rect height="30.907803" width="6.250000" x="493.750000" y="75.145887" fill="rgb(255, 165, 0)" style="fill-opacity:1.00" />
<!-- End 'G' -->
<!-- Begin 'A' -->
<polygon points=" 450.000000, 109.952454, 471.000000, 106.053691, 479.000000, 106.053691, 500.000000, 109.952454, 492.500000, 109.952454, 486.250000, 108.977763, 463.750000, 108.977763, 457.500000, 109.952454" fill="rgb(178, 34, 34)" style="fill-opacity:1.00" />
<!-- End 'A' -->
<!-- Begin 'T' -->
<rect height="0.003804" width="50.000000" x="450.000000" y="109.952454" fill="rgb(0, 100, 0)" style="fill-opacity:1.00" />
<rect height="0.023773" width="10.000000" x="470.000000" y="109.952454" fill="rgb(0, 100, 0)" style="fill-opacity:1.00" />
<!-- End 'T' -->
<!-- Begin 'C' -->
<ellipse cx="475.000000" cy="109.988114" rx="25.000000" ry="0.011886" fill="rgb(0, 0, 128)" style="fill-opacity:1.00" />
<ellipse cx="475.000000" cy="109.988114" rx="16.666667" ry="0.007924" fill="rgb(255, 255, 255)" style="fill-opacity:1.00" />
<rect height="0.011886" width="25.000000" x="475.000000" y="109.982170" fill="rgb(255, 255, 255)" style="fill-opacity:1.00" />
<!-- End 'C' -->
<!-- Begin 'G' -->
<ellipse cx="535.000000" cy="66.703996" rx="25.000000" ry="38.649493" fill="rgb(255, 165, 0)" style="fill-opacity:1.00" />
<ellipse cx="535.000000" cy="66.703996" rx="16.666667" ry="25.766329" fill="rgb(255, 255, 255)" style="fill-opacity:1.00" />
<rect height="38.649493" width="25.000000" x="535.000000" y="47.379249" fill="rgb(255, 255, 255)" style="fill-opacity:1.00" />
<rect height="9.662373" width="25.000000" x="535.000000" y="76.366369" fill="rgb(255, 165, 0)" style="fill-opacity:1.00" />
<rect height="28.987120" width="6.250000" x="553.750000" y="76.366369" fill="rgb(255, 165, 0)" style="fill-opacity:1.00" />
<!-- End 'G' -->
<!-- Begin 'T' -->
<rect height="0.606302" width="50.000000" x="510.000000" y="105.353490" fill="rgb(0, 100, 0)" style="fill-opacity:1.00" />
<rect height="3.789387" width="10.000000" x="530.000000" y="105.353490" fill="rgb(0, 100, 0)" style="fill-opacity:1.00" />
<!-- End 'T' -->
<!-- Begin 'A' -->
<polygon points=" 510.000000, 109.819553, 531.000000, 109.142877, 539.000000, 109.142877, 560.000000, 109.819553, 552.500000, 109.819553, 546.250000, 109.650384, 523.750000, 109.650384, 517.500000, 109.819553" fill="rgb(178, 34, 34)" style="fill-opacity:1.00" />
<!-- End 'A' -->
<!-- Begin 'C' -->
<ellipse cx="535.000000" cy="109.909776" rx="25.000000" ry="0.090224" fill="rgb(0, 0, 128)" style="fill-opacity:1.00" />
<ellipse cx="535.000000" cy="109.909776" rx="16.666667" ry="0.060149" fill="rgb(255, 255, 255)" style="fill-opacity:1.00" />
<rect height="0.090224" width="25.000000" x="535.000000" y="109.864665" fill="rgb(255, 255, 255)" style="fill-opacity:1.00" />
<!-- End 'C' -->
<!-- Begin 'A' -->
<polygon points=" 570.000000, 109.675422, 591.000000, 11.733936, 599.000000, 11.733936, 620.000000, 109.675422, 612.500000, 109.675422, 606.250000, 85.190050, 583.750000, 85.190050, 577.500000, 109.675422" fill="rgb(178, 34, 34)" style="fill-opacity:1.00" />
<polygon points=" 595.000000, 31.322233, 587.000000, 69.498827, 602.000000, 69.498827" fill="rgb(255, 255, 255)" style="fill-opacity:1.00" />
<!-- End 'A' -->
<!-- Begin 'G' -->
<ellipse cx="595.000000" cy="109.810663" rx="25.000000" ry="0.135241" fill="rgb(255, 165, 0)" style="fill-opacity:1.00" />
<ellipse cx="595.000000" cy="109.810663" rx="16.666667" ry="0.090161" fill="rgb(255, 255, 255)" style="fill-opacity:1.00" />
<rect height="0.135241" width="25.000000" x="595.000000" y="109.743042" fill="rgb(255, 255, 255)" style="fill-opacity:1.00" />
<rect height="0.033810" width="25.000000" x="595.000000" y="109.844473" fill="rgb(255, 165, 0)" style="fill-opacity:1.00" />
<rect height="0.101431" width="6.250000" x="613.750000" y="109.844473" fill="rgb(255, 165, 0)" style="fill-opacity:1.00" />
<!-- End 'G' -->
<!-- Begin 'T' -->
<rect height="0.004328" width="50.000000" x="570.000000" y="109.945904" fill="rgb(0, 100, 0)" style="fill-opacity:1.00" />
<rect height="0.027048" width="10.000000" x="590.000000" y="109.945904" fill="rgb(0, 100, 0)" style="fill-opacity:1.00" />
<!-- End 'T' -->
<!-- Begin 'C' -->
<ellipse cx="595.000000" cy="109.986476" rx="25.000000" ry="0.013524" fill="rgb(0, 0, 128)" style="fill-opacity:1.00" />
<ellipse cx="595.000000" cy="109.986476" rx="16.666667" ry="0.009016" fill="rgb(255, 255, 255)" style="fill-opacity:1.00" />
<rect height="0.013524" width="25.000000" x="595.000000" y="109.979714" fill="rgb(255, 255, 255)" style="fill-opacity:1.00" />
<!-- End 'C' -->
<!-- Begin 'A' -->
<polygon points=" 630.000000, 109.782543, 651.000000, 11.247380, 659.000000, 11.247380, 680.000000, 109.782543, 672.500000, 109.782543, 666.250000, 85.148752, 643.750000, 85.148752, 637.500000, 109.782543" fill="rgb(178, 34, 34)" style="fill-opacity:1.00" />
<polygon points=" 655.000000, 30.954413, 647.000000, 69.368478, 662.000000, 69.368478" fill="rgb(255, 255, 255)" style="fill-opacity:1.00" />
<!-- End 'A' -->
<!-- Begin 'C' -->
<ellipse cx="655.000000" cy="109.864089" rx="25.000000" ry="0.081546" fill="rgb(0, 0, 128)" style="fill-opacity:1.00" />
<ellipse cx="655.000000" cy="109.864089" rx="16.666667" ry="0.054364" fill="rgb(255, 255, 255)" style="fill-opacity:1.00" />
<rect height="0.081546" width="25.000000" x="655.000000" y="109.823316" fill="rgb(255, 255, 255)" style="fill-opacity:1.00" />
<!-- End 'C' -->
<!-- Begin 'T' -->
<rect height="0.004349" width="50.000000" x="630.000000" y="109.945636" fill="rgb(0, 100, 0)" style="fill-opacity:1.00" />
<rect height="0.027182" width="10.000000" x="650.000000" y="109.945636" fill="rgb(0, 100, 0)" style="fill-opacity:1.00" />
<!-- End 'T' -->
<!-- Begin 'G' -->
<ellipse cx="655.000000" cy="109.986409" rx="25.000000" ry="0.013591" fill="rgb(255, 165, 0)" style="fill-opacity:1.00" />
<ellipse cx="655.000000" cy="109.986409" rx="16.666667" ry="0.009061" fill="rgb(255, 255, 255)" style="fill-opacity:1.00" />
<rect height="0.013591" width="25.000000" x="655.000000" y="109.979613" fill="rgb(255, 255, 255)" style="fill-opacity:1.00" />
<rect height="0.003398" width="25.000000" x="655.000000" y="109.989807" fill="rgb(255, 165, 0)" style="fill-opacity:1.00" />
<rect height="0.010193" width="6.250000" x="673.750000" y="109.989807" fill="rgb(255, 165, 0)" style="fill-opacity:1.00" />
<!-- End 'G' -->
<!-- Begin 'A' -->
<polygon points=" 690.000000, 103.287017, 711.000000, 96.087698, 719.000000, 96.087698, 740.000000, 103.287017, 732.500000, 103.287017, 726.250000, 101.487187, 703.750000, 101.487187, 697.500000, 103.287017" fill="rgb(178, 34, 34)" style="fill-opacity:1.00" />
<!-- End 'A' -->
<!-- Begin 'G' -->
<ellipse cx="715.000000" cy="104.677099" rx="25.000000" ry="1.390081" fill="rgb(255, 165, 0)" style="fill-opacity:1.00" />
<ellipse cx="715.000000" cy="104.677099" rx="16.666667" ry="0.926721" fill="rgb(255, 255, 255)" style="fill-opacity:1.00" />
<rect height="1.390081" width="25.000000" x="715.000000" y="103.982058" fill="rgb(255, 255, 255)" style="fill-opacity:1.00" />
<rect height="0.347520" width="25.000000" x="715.000000" y="105.024619" fill="rgb(255, 165, 0)" style="fill-opacity:1.00" />
<rect height="1.042561" width="6.250000" x="733.750000" y="105.024619" fill="rgb(255, 165, 0)" style="fill-opacity:1.00" />
<!-- End 'G' -->
<!-- Begin 'T' -->
<rect height="0.438086" width="50.000000" x="690.000000" y="106.067180" fill="rgb(0, 100, 0)" style="fill-opacity:1.00" />
<rect height="2.738039" width="10.000000" x="710.000000" y="106.067180" fill="rgb(0, 100, 0)" style="fill-opacity:1.00" />
<!-- End 'T' -->
<!-- Begin 'C' -->
<ellipse cx="715.000000" cy="109.402610" rx="25.000000" ry="0.597390" fill="rgb(0, 0, 128)" style="fill-opacity:1.00" />
<ellipse cx="715.000000" cy="109.402610" rx="16.666667" ry="0.398260" fill="rgb(255, 255, 255)" style="fill-opacity:1.00" />
<rect height="0.597390" width="25.000000" x="715.000000" y="109.103914" fill="rgb(255, 255, 255)" style="fill-opacity:1.00" />
<!-- End 'C' -->
<text x="400.000000" y="165">
IC = 14.52
</text>

</svg>
