<?xml version="1.0" encoding="UTF-8" standalone="yes"?>
                 <!DOCTYPE svg PUBLIC "-//W3C//DTD SVG 1.0//EN" "http://www.w3.org/TR/2001/REC-SVG-20010904/DTD/svg10.dtd">
                 <svg height="170" width="1380" xmlns="http://www.w3.org/2000/svg" xmlns:xlink="http://www.w3.org/1999/xlink">
                 <line x1="85" y1="120" x2="1347" y2="120" style="stroke:rgb(99,99,99);stroke-width:2" />
<rect height="7.000000" width="2.000000" x="85.000000" y="120.000000" fill="rgb(0, 0, 0)" style="fill-opacity:1.00" />
<text x="107.000000" y="140">
1
</text>
<rect height="7.000000" width="2.000000" x="145.000000" y="120.000000" fill="rgb(0, 0, 0)" style="fill-opacity:1.00" />
<text x="167.000000" y="140">
2
</text>
<rect height="7.000000" width="2.000000" x="205.000000" y="120.000000" fill="rgb(0, 0, 0)" style="fill-opacity:1.00" />
<text x="227.000000" y="140">
3
</text>
<rect height="7.000000" width="2.000000" x="265.000000" y="120.000000" fill="rgb(0, 0, 0)" style="fill-opacity:1.00" />
<text x="287.000000" y="140">
4
</text>
<rect height="7.000000" width="2.000000" x="325.000000" y="120.000000" fill="rgb(0, 0, 0)" style="fill-opacity:1.00" />
<text x="347.000000" y="140">
5
</text>
<rect height="7.000000" width="2.000000" x="385.000000" y="120.000000" fill="rgb(0, 0, 0)" style="fill-opacity:1.00" />
<text x="407.000000" y="140">
6
</text>
<rect height="7.000000" width="2.000000" x="445.000000" y="120.000000" fill="rgb(0, 0, 0)" style="fill-opacity:1.00" />
<text x="467.000000" y="140">
7
</text>
<rect height="7.000000" width="2.000000" x="505.000000" y="120.000000" fill="rgb(0, 0, 0)" style="fill-opacity:1.00" />
<text x="527.000000" y="140">
8
</text>
<rect height="7.000000" width="2.000000" x="565.000000" y="120.000000" fill="rgb(0, 0, 0)" style="fill-opacity:1.00" />
<text x="587.000000" y="140">
9
</text>
<rect height="7.000000" width="2.000000" x="625.000000" y="120.000000" fill="rgb(0, 0, 0)" style="fill-opacity:1.00" />
<text x="647.000000" y="140">
10
</text>
<rect height="7.000000" width="2.000000" x="685.000000" y="120.000000" fill="rgb(0, 0, 0)" style="fill-opacity:1.00" />
<text x="707.000000" y="140">
11
</text>
<rect height="7.000000" width="2.000000" x="745.000000" y="120.000000" fill="rgb(0, 0, 0)" style="fill-opacity:1.00" />
<text x="767.000000" y="140">
12
</text>
<rect height="7.000000" width="2.000000" x="805.000000" y="120.000000" fill="rgb(0, 0, 0)" style="fill-opacity:1.00" />
<text x="827.000000" y="140">
13
</text>
<rect height="7.000000" width="2.000000" x="865.000000" y="120.000000" fill="rgb(0, 0, 0)" style="fill-opacity:1.00" />
<text x="887.000000" y="140">
14
</text>
<rect height="7.000000" width="2.000000" x="925.000000" y="120.000000" fill="rgb(0, 0, 0)" style="fill-opacity:1.00" />
<text x="947.000000" y="140">
15
</text>
<rect height="7.000000" width="2.000000" x="985.000000" y="120.000000" fill="rgb(0, 0, 0)" style="fill-opacity:1.00" />
<text x="1007.000000" y="140">
16
</text>
<rect height="7.000000" width="2.000000" x="1045.000000" y="120.000000" fill="rgb(0, 0, 0)" style="fill-opacity:1.00" />
<text x="1067.000000" y="140">
17
</text>
<rect height="7.000000" width="2.000000" x="1105.000000" y="120.000000" fill="rgb(0, 0, 0)" style="fill-opacity:1.00" />
<text x="1127.000000" y="140">
18
</text>
<rect height="7.000000" width="2.000000" x="1165.000000" y="120.000000" fill="rgb(0, 0, 0)" style="fill-opacity:1.00" />
<text x="1187.000000" y="140">
19
</text>
<rect height="7.000000" width="2.000000" x="1225.000000" y="120.000000" fill="rgb(0, 0, 0)" style="fill-opacity:1.00" />
<text x="1247.000000" y="140">
20
</text>
<rect height="7.000000" width="2.000000" x="1285.000000" y="120.000000" fill="rgb(0, 0, 0)" style="fill-opacity:1.00" />
<text x="1307.000000" y="140">
21
</text>
<rect height="7.000000" width="2.000000" x="1345.000000" y="120.000000" fill="rgb(0, 0, 0)" style="fill-opacity:1.00" />
<line x1="80" y1="112" x2="80" y2="10" style="stroke:rgb(99,99,99);stroke-width:2" />
<rect height="2.000000" width="7.000000" x="73.000000" y="110.000000" fill="rgb(0, 0, 0)" style="fill-opacity:1.00" />
<text x="63" y="115">
0
</text>
<rect height="2.000000" width="7.000000" x="73.000000" y="60.000000" fill="rgb(0, 0, 0)" style="fill-opacity:1.00" />
<text x="63" y="65">
1
</text>
<rect height="2.000000" width="7.000000" x="73.000000" y="10.000000" fill="rgb(0, 0, 0)" style="fill-opacity:1.00" />
<text x="63" y="15">
2
</text>
<text x="50" y="65"
transform="rotate(-90, 50, 70)">
bits
</text>
<!-- Begin 'A' -->
<polygon points=" 90.000000, 105.121917, 111.000000, 101.565712, 119.000000, 101.565712, 140.000000, 105.121917, 132.500000, 105.121917, 126.250000, 104.232866, 103.750000, 104.232866, 97.500000, 105.121917" fill="rgb(178, 34, 34)" style="fill-opacity:1.00" />
<!-- End 'A' -->
<!-- Begin 'T' -->
<rect height="0.405231" width="50.000000" x="90.000000" y="105.121917" fill="rgb(0, 100, 0)" style="fill-opacity:1.00" />
<rect height="2.532696" width="10.000000" x="110.000000" y="105.121917" fill="rgb(0, 100, 0)" style="fill-opacity:1.00" />
<!-- End 'T' -->
<!-- Begin 'G' -->
<ellipse cx="115.000000" cy="108.347977" rx="25.000000" ry="0.693365" fill="rgb(255, 165, 0)" style="fill-opacity:1.00" />
<ellipse cx="115.000000" cy="108.347977" rx="16.666667" ry="0.462243" fill="rgb(255, 255, 255)" style="fill-opacity:1.00" />
<rect height="0.693365" width="25.000000" x="115.000000" y="108.001295" fill="rgb(255, 255, 255)" style="fill-opacity:1.00" />
<rect height="0.173341" width="25.000000" x="115.000000" y="108.521318" fill="rgb(255, 165, 0)" style="fill-opacity:1.00" />
<rect height="0.520023" width="6.250000" x="133.750000" y="108.521318" fill="rgb(255, 165, 0)" style="fill-opacity:1.00" />
<!-- End 'G' -->
<!-- Begin 'C' -->
<ellipse cx="115.000000" cy="109.520671" rx="25.000000" ry="0.479329" fill="rgb(0, 0, 128)" style="fill-opacity:1.00" />
<ellipse cx="115.000000" cy="109.520671" rx="16.666667" ry="0.319553" fill="rgb(255, 255, 255)" style="fill-opacity:1.00" />
<rect height="0.479329" width="25.000000" x="115.000000" y="109.281006" fill="rgb(255, 255, 255)" style="fill-opacity:1.00" />
<!-- End 'C' -->
<!-- Begin 'A' -->
<polygon points=" 150.000000, 102.690329, 171.000000, 96.638549, 179.000000, 96.638549, 200.000000, 102.690329, 192.500000, 102.690329, 186.250000, 101.177384, 163.750000, 101.177384, 157.500000, 102.690329" fill="rgb(178, 34, 34)" style="fill-opacity:1.00" />
<!-- End 'A' -->
<!-- Begin 'T' -->
<rect height="0.715430" width="50.000000" x="150.000000" y="102.690329" fill="rgb(0, 100, 0)" style="fill-opacity:1.00" />
<rect height="4.471438" width="10.000000" x="170.000000" y="102.690329" fill="rgb(0, 100, 0)" style="fill-opacity:1.00" />
<!-- End 'T' -->
<!-- Begin 'G' -->
<ellipse cx="175.000000" cy="107.909756" rx="25.000000" ry="0.747989" fill="rgb(255, 165, 0)" style="fill-opacity:1.00" />
<ellipse cx="175.000000" cy="107.909756" rx="16.666667" ry="0.498659" fill="rgb(255, 255, 255)" style="fill-opacity:1.00" />
<rect height="0.747989" width="25.000000" x="175.000000" y="107.535762" fill="rgb(255, 255, 255)" style="fill-opacity:1.00" />
<rect height="0.186997" width="25.000000" x="175.000000" y="108.096754" fill="rgb(255, 165, 0)" style="fill-opacity:1.00" />
<rect height="0.560992" width="6.250000" x="193.750000" y="108.096754" fill="rgb(255, 165, 0)" style="fill-opacity:1.00" />
<!-- End 'G' -->
<!-- Begin 'C' -->
<ellipse cx="175.000000" cy="109.328873" rx="25.000000" ry="0.671127" fill="rgb(0, 0, 128)" style="fill-opacity:1.00" />
<ellipse cx="175.000000" cy="109.328873" rx="16.666667" ry="0.447418" fill="rgb(255, 255, 255)" style="fill-opacity:1.00" />
<rect height="0.671127" width="25.000000" x="175.000000" y="108.993309" fill="rgb(255, 255, 255)" style="fill-opacity:1.00" />
<!-- End 'C' -->
<!-- Begin 'A' -->
<polygon points=" 210.000000, 103.501908, 231.000000, 99.052169, 239.000000, 99.052169, 260.000000, 103.501908, 252.500000, 103.501908, 246.250000, 102.389474, 223.750000, 102.389474, 217.500000, 103.501908" fill="rgb(178, 34, 34)" style="fill-opacity:1.00" />
<!-- End 'A' -->
<!-- Begin 'T' -->
<rect height="0.631408" width="50.000000" x="210.000000" y="103.501908" fill="rgb(0, 100, 0)" style="fill-opacity:1.00" />
<rect height="3.946302" width="10.000000" x="230.000000" y="103.501908" fill="rgb(0, 100, 0)" style="fill-opacity:1.00" />
<!-- End 'T' -->
<!-- Begin 'C' -->
<ellipse cx="235.000000" cy="108.113948" rx="25.000000" ry="0.665737" fill="rgb(0, 0, 128)" style="fill-opacity:1.00" />
<ellipse cx="235.000000" cy="108.113948" rx="16.666667" ry="0.443825" fill="rgb(255, 255, 255)" style="fill-opacity:1.00" />
<rect height="0.665737" width="25.000000" x="235.000000" y="107.781079" fill="rgb(255, 255, 255)" style="fill-opacity:1.00" />
<!-- End 'C' -->
<!-- Begin 'G' -->
<ellipse cx="235.000000" cy="109.389842" rx="25.000000" ry="0.610158" fill="rgb(255, 165, 0)" style="fill-opacity:1.00" />
<ellipse cx="235.000000" cy="109.389842" rx="16.666667" ry="0.406772" fill="rgb(255, 255, 255)" style="fill-opacity:1.00" />
<rect height="0.610158" width="25.000000" x="235.000000" y="109.084763" fill="rgb(255, 255, 255)" style="fill-opacity:1.00" />
<rect height="0.152539" width="25.000000" x="235.000000" y="109.542382" fill="rgb(255, 165, 0)" style="fill-opacity:1.00" />
<rect height="0.457618" width="6.250000" x="253.750000" y="109.542382" fill="rgb(255, 165, 0)" style="fill-opacity:1.00" />
<!-- End 'G' -->
<!-- Begin 'T' -->
<rect height="0.220586" width="50.000000" x="270.000000" y="105.975147" fill="rgb(0, 100, 0)" style="fill-opacity:1.00" />
<rect height="1.378664" width="10.000000" x="290.000000" y="105.975147" fill="rgb(0, 100, 0)" style="fill-opacity:1.00" />
<!-- End 'T' -->
<!-- Begin 'A' -->
<polygon points=" 270.000000, 108.644535, 291.000000, 107.353811, 299.000000, 107.353811, 320.000000, 108.644535, 312.500000, 108.644535, 306.250000, 108.321854, 283.750000, 108.321854, 277.500000, 108.644535" fill="rgb(178, 34, 34)" style="fill-opacity:1.00" />
<!-- End 'A' -->
<!-- Begin 'C' -->
<ellipse cx="295.000000" cy="109.011529" rx="25.000000" ry="0.366994" fill="rgb(0, 0, 128)" style="fill-opacity:1.00" />
<ellipse cx="295.000000" cy="109.011529" rx="16.666667" ry="0.244662" fill="rgb(255, 255, 255)" style="fill-opacity:1.00" />
<rect height="0.366994" width="25.000000" x="295.000000" y="108.828032" fill="rgb(255, 255, 255)" style="fill-opacity:1.00" />
<!-- End 'C' -->
<!-- Begin 'G' -->
<ellipse cx="295.000000" cy="109.689261" rx="25.000000" ry="0.310739" fill="rgb(255, 165, 0)" style="fill-opacity:1.00" />
<ellipse cx="295.000000" cy="109.689261" rx="16.666667" ry="0.207159" fill="rgb(255, 255, 255)" style="fill-opacity:1.00" />
<rect height="0.310739" width="25.000000" x="295.000000" y="109.533892" fill="rgb(255, 255, 255)" style="fill-opacity:1.00" />
<rect height="0.077685" width="25.000000" x="295.000000" y="109.766946" fill="rgb(255, 165, 0)" style="fill-opacity:1.00" />
<rect height="0.233054" width="6.250000" x="313.750000" y="109.766946" fill="rgb(255, 165, 0)" style="fill-opacity:1.00" />
<!-- End 'G' -->
<!-- Begin 'T' -->
<rect height="1.485321" width="50.000000" x="330.000000" y="93.514104" fill="rgb(0, 100, 0)" style="fill-opacity:1.00" />
<rect height="9.283257" width="10.000000" x="350.000000" y="93.514104" fill="rgb(0, 100, 0)" style="fill-opacity:1.00" />
<!-- End 'T' -->
<!-- Begin 'A' -->
<polygon points=" 330.000000, 105.832181, 351.000000, 102.797361, 359.000000, 102.797361, 380.000000, 105.832181, 372.500000, 105.832181, 366.250000, 105.073476, 343.750000, 105.073476, 337.500000, 105.832181" fill="rgb(178, 34, 34)" style="fill-opacity:1.00" />
<!-- End 'A' -->
<!-- Begin 'G' -->
<ellipse cx="355.000000" cy="106.895275" rx="25.000000" ry="1.063094" fill="rgb(255, 165, 0)" style="fill-opacity:1.00" />
<ellipse cx="355.000000" cy="106.895275" rx="16.666667" ry="0.708729" fill="rgb(255, 255, 255)" style="fill-opacity:1.00" />
<rect height="1.063094" width="25.000000" x="355.000000" y="106.363728" fill="rgb(255, 255, 255)" style="fill-opacity:1.00" />
<rect height="0.265773" width="25.000000" x="355.000000" y="107.161049" fill="rgb(255, 165, 0)" style="fill-opacity:1.00" />
<rect height="0.797320" width="6.250000" x="373.750000" y="107.161049" fill="rgb(255, 165, 0)" style="fill-opacity:1.00" />
<!-- End 'G' -->
<!-- Begin 'C' -->
<ellipse cx="355.000000" cy="108.979185" rx="25.000000" ry="1.020815" fill="rgb(0, 0, 128)" style="fill-opacity:1.00" />
<ellipse cx="355.000000" cy="108.979185" rx="16.666667" ry="0.680544" fill="rgb(255, 255, 255)" style="fill-opacity:1.00" />
<rect height="1.020815" width="25.000000" x="355.000000" y="108.468777" fill="rgb(255, 255, 255)" style="fill-opacity:1.00" />
<!-- End 'C' -->
<!-- Begin 'G' -->
<ellipse cx="415.000000" cy="94.837649" rx="25.000000" ry="6.796634" fill="rgb(255, 165, 0)" style="fill-opacity:1.00" />
<ellipse cx="415.000000" cy="94.837649" rx="16.666667" ry="4.531089" fill="rgb(255, 255, 255)" style="fill-opacity:1.00" />
<rect height="6.796634" width="25.000000" x="415.000000" y="91.439332" fill="rgb(255, 255, 255)" style="fill-opacity:1.00" />
<rect height="1.699158" width="25.000000" x="415.000000" y="96.536807" fill="rgb(255, 165, 0)" style="fill-opacity:1.00" />
<rect height="5.097475" width="6.250000" x="433.750000" y="96.536807" fill="rgb(255, 165, 0)" style="fill-opacity:1.00" />
<!-- End 'G' -->
<!-- Begin 'A' -->
<polygon points=" 390.000000, 104.648795, 411.000000, 101.634283, 419.000000, 101.634283, 440.000000, 104.648795, 432.500000, 104.648795, 426.250000, 103.895167, 403.750000, 103.895167, 397.500000, 104.648795" fill="rgb(178, 34, 34)" style="fill-opacity:1.00" />
<!-- End 'A' -->
<!-- Begin 'C' -->
<ellipse cx="415.000000" cy="106.078860" rx="25.000000" ry="1.430065" fill="rgb(0, 0, 128)" style="fill-opacity:1.00" />
<ellipse cx="415.000000" cy="106.078860" rx="16.666667" ry="0.953377" fill="rgb(255, 255, 255)" style="fill-opacity:1.00" />
<rect height="1.430065" width="25.000000" x="415.000000" y="105.363828" fill="rgb(255, 255, 255)" style="fill-opacity:1.00" />
<!-- End 'C' -->
<!-- Begin 'T' -->
<rect height="0.398572" width="50.000000" x="390.000000" y="107.508926" fill="rgb(0, 100, 0)" style="fill-opacity:1.00" />
<rect height="2.491074" width="10.000000" x="410.000000" y="107.508926" fill="rgb(0, 100, 0)" style="fill-opacity:1.00" />
<!-- End 'T' -->
<!-- Begin 'C' -->
<ellipse cx="475.000000" cy="96.790970" rx="25.000000" ry="4.865989" fill="rgb(0, 0, 128)" style="fill-opacity:1.00" />
<ellipse cx="475.000000" cy="96.790970" rx="16.666667" ry="3.243993" fill="rgb(255, 255, 255)" style="fill-opacity:1.00" />
<rect height="4.865989" width="25.000000" x="475.000000" y="94.357975" fill="rgb(255, 255, 255)" style="fill-opacity:1.00" />
<!-- End 'C' -->
<!-- Begin 'A' -->
<polygon points=" 450.000000, 106.544849, 471.000000, 101.656959, 479.000000, 101.656959, 500.000000, 106.544849, 492.500000, 106.544849, 486.250000, 105.322876, 463.750000, 105.322876, 457.500000, 106.544849" fill="rgb(178, 34, 34)" style="fill-opacity:1.00" />
<!-- End 'A' -->
<!-- Begin 'T' -->
<rect height="0.283981" width="50.000000" x="450.000000" y="106.544849" fill="rgb(0, 100, 0)" style="fill-opacity:1.00" />
<rect height="1.774881" width="10.000000" x="470.000000" y="106.544849" fill="rgb(0, 100, 0)" style="fill-opacity:1.00" />
<!-- End 'T' -->
<!-- Begin 'G' -->
<ellipse cx="475.000000" cy="109.159865" rx="25.000000" ry="0.840135" fill="rgb(255, 165, 0)" style="fill-opacity:1.00" />
<ellipse cx="475.000000" cy="109.159865" rx="16.666667" ry="0.560090" fill="rgb(255, 255, 255)" style="fill-opacity:1.00" />
<rect height="0.840135" width="25.000000" x="475.000000" y="108.739798" fill="rgb(255, 255, 255)" style="fill-opacity:1.00" />
<rect height="0.210034" width="25.000000" x="475.000000" y="109.369899" fill="rgb(255, 165, 0)" style="fill-opacity:1.00" />
<rect height="0.630101" width="6.250000" x="493.750000" y="109.369899" fill="rgb(255, 165, 0)" style="fill-opacity:1.00" />
<!-- End 'G' -->
<!-- Begin 'T' -->
<rect height="3.931784" width="50.000000" x="510.000000" y="74.895294" fill="rgb(0, 100, 0)" style="fill-opacity:1.00" />
<rect height="24.573648" width="10.000000" x="530.000000" y="74.895294" fill="rgb(0, 100, 0)" style="fill-opacity:1.00" />
<!-- End 'T' -->
<!-- Begin 'A' -->
<polygon points=" 510.000000, 104.503747, 531.000000, 99.468942, 539.000000, 99.468942, 560.000000, 104.503747, 552.500000, 104.503747, 546.250000, 103.245046, 523.750000, 103.245046, 517.500000, 104.503747" fill="rgb(178, 34, 34)" style="fill-opacity:1.00" />
<!-- End 'A' -->
<!-- Begin 'C' -->
<ellipse cx="535.000000" cy="106.665877" rx="25.000000" ry="2.162131" fill="rgb(0, 0, 128)" style="fill-opacity:1.00" />
<ellipse cx="535.000000" cy="106.665877" rx="16.666667" ry="1.441420" fill="rgb(255, 255, 255)" style="fill-opacity:1.00" />
<rect height="2.162131" width="25.000000" x="535.000000" y="105.584812" fill="rgb(255, 255, 255)" style="fill-opacity:1.00" />
<!-- End 'C' -->
<!-- Begin 'G' -->
<ellipse cx="535.000000" cy="109.414004" rx="25.000000" ry="0.585996" fill="rgb(255, 165, 0)" style="fill-opacity:1.00" />
<ellipse cx="535.000000" cy="109.414004" rx="16.666667" ry="0.390664" fill="rgb(255, 255, 255)" style="fill-opacity:1.00" />
<rect height="0.585996" width="25.000000" x="535.000000" y="109.121006" fill="rgb(255, 255, 255)" style="fill-opacity:1.00" />
<rect height="0.146499" width="25.000000" x="535.000000" y="109.560503" fill="rgb(255, 165, 0)" style="fill-opacity:1.00" />
<rect height="0.439497" width="6.250000" x="553.750000" y="109.560503" fill="rgb(255, 165, 0)" style="fill-opacity:1.00" />
<!-- End 'G' -->
<!-- Begin 'G' -->
<ellipse cx="595.000000" cy="93.416556" rx="25.000000" ry="7.423634" fill="rgb(255, 165, 0)" style="fill-opacity:1.00" />
<ellipse cx="595.000000" cy="93.416556" rx="16.666667" ry="4.949089" fill="rgb(255, 255, 255)" style="fill-opacity:1.00" />
<rect height="7.423634" width="25.000000" x="595.000000" y="89.704739" fill="rgb(255, 255, 255)" style="fill-opacity:1.00" />
<rect height="1.855908" width="25.000000" x="595.000000" y="95.272464" fill="rgb(255, 165, 0)" style="fill-opacity:1.00" />
<rect height="5.567725" width="6.250000" x="613.750000" y="95.272464" fill="rgb(255, 165, 0)" style="fill-opacity:1.00" />
<!-- End 'G' -->
<!-- Begin 'A' -->
<polygon points=" 570.000000, 104.908173, 591.000000, 100.840190, 599.000000, 100.840190, 620.000000, 104.908173, 612.500000, 104.908173, 606.250000, 103.891177, 583.750000, 103.891177, 577.500000, 104.908173" fill="rgb(178, 34, 34)" style="fill-opacity:1.00" />
<!-- End 'A' -->
<!-- Begin 'T' -->
<rect height="0.583179" width="50.000000" x="570.000000" y="104.908173" fill="rgb(0, 100, 0)" style="fill-opacity:1.00" />
<rect height="3.644867" width="10.000000" x="590.000000" y="104.908173" fill="rgb(0, 100, 0)" style="fill-opacity:1.00" />
<!-- End 'T' -->
<!-- Begin 'C' -->
<ellipse cx="595.000000" cy="109.276520" rx="25.000000" ry="0.723480" fill="rgb(0, 0, 128)" style="fill-opacity:1.00" />
<ellipse cx="595.000000" cy="109.276520" rx="16.666667" ry="0.482320" fill="rgb(255, 255, 255)" style="fill-opacity:1.00" />
<rect height="0.723480" width="25.000000" x="595.000000" y="108.914780" fill="rgb(255, 255, 255)" style="fill-opacity:1.00" />
<!-- End 'C' -->
<!-- Begin 'A' -->
<polygon points=" 630.000000, 99.668424, 651.000000, 66.847297, 659.000000, 66.847297, 680.000000, 99.668424, 672.500000, 99.668424, 666.250000, 91.463142, 643.750000, 91.463142, 637.500000, 99.668424" fill="rgb(178, 34, 34)" style="fill-opacity:1.00" />
<polygon points=" 655.000000, 73.411522, 647.000000, 85.539973, 662.000000, 85.539973" fill="rgb(255, 255, 255)" style="fill-opacity:1.00" />
<!-- End 'A' -->
<!-- Begin 'T' -->
<rect height="0.921430" width="50.000000" x="630.000000" y="99.668424" fill="rgb(0, 100, 0)" style="fill-opacity:1.00" />
<rect height="5.758939" width="10.000000" x="650.000000" y="99.668424" fill="rgb(0, 100, 0)" style="fill-opacity:1.00" />
<!-- End 'T' -->
<!-- Begin 'C' -->
<ellipse cx="655.000000" cy="106.632914" rx="25.000000" ry="1.205551" fill="rgb(0, 0, 128)" style="fill-opacity:1.00" />
<ellipse cx="655.000000" cy="106.632914" rx="16.666667" ry="0.803701" fill="rgb(255, 255, 255)" style="fill-opacity:1.00" />
<rect height="1.205551" width="25.000000" x="655.000000" y="106.030139" fill="rgb(255, 255, 255)" style="fill-opacity:1.00" />
<!-- End 'C' -->
<!-- Begin 'G' -->
<ellipse cx="655.000000" cy="108.919233" rx="25.000000" ry="1.080767" fill="rgb(255, 165, 0)" style="fill-opacity:1.00" />
<ellipse cx="655.000000" cy="108.919233" rx="16.666667" ry="0.720512" fill="rgb(255, 255, 255)" style="fill-opacity:1.00" />
<rect height="1.080767" width="25.000000" x="655.000000" y="108.378849" fill="rgb(255, 255, 255)" style="fill-opacity:1.00" />
<rect height="0.270192" width="25.000000" x="655.000000" y="109.189425" fill="rgb(255, 165, 0)" style="fill-opacity:1.00" />
<rect height="0.810575" width="6.250000" x="673.750000" y="109.189425" fill="rgb(255, 165, 0)" style="fill-opacity:1.00" />
<!-- End 'G' -->
<!-- Begin 'G' -->
<ellipse cx="715.000000" cy="100.687726" rx="25.000000" ry="2.257849" fill="rgb(255, 165, 0)" style="fill-opacity:1.00" />
<ellipse cx="715.000000" cy="100.687726" rx="16.666667" ry="1.505233" fill="rgb(255, 255, 255)" style="fill-opacity:1.00" />
<rect height="2.257849" width="25.000000" x="715.000000" y="99.558801" fill="rgb(255, 255, 255)" style="fill-opacity:1.00" />
<rect height="0.564462" width="25.000000" x="715.000000" y="101.252188" fill="rgb(255, 165, 0)" style="fill-opacity:1.00" />
<rect height="1.693387" width="6.250000" x="733.750000" y="101.252188" fill="rgb(255, 165, 0)" style="fill-opacity:1.00" />
<!-- End 'G' -->
<!-- Begin 'C' -->
<ellipse cx="715.000000" cy="105.172991" rx="25.000000" ry="2.227415" fill="rgb(0, 0, 128)" style="fill-opacity:1.00" />
<ellipse cx="715.000000" cy="105.172991" rx="16.666667" ry="1.484944" fill="rgb(255, 255, 255)" style="fill-opacity:1.00" />
<rect height="2.227415" width="25.000000" x="715.000000" y="104.059283" fill="rgb(255, 255, 255)" style="fill-opacity:1.00" />
<!-- End 'C' -->
<!-- Begin 'T' -->
<rect height="0.208497" width="50.000000" x="690.000000" y="107.400406" fill="rgb(0, 100, 0)" style="fill-opacity:1.00" />
<rect height="1.303105" width="10.000000" x="710.000000" y="107.400406" fill="rgb(0, 100, 0)" style="fill-opacity:1.00" />
<!-- End 'T' -->
<!-- Begin 'A' -->
<polygon points=" 690.000000, 110.000000, 711.000000, 108.703510, 719.000000, 108.703510, 740.000000, 110.000000, 732.500000, 110.000000, 726.250000, 109.675878, 703.750000, 109.675878, 697.500000, 110.000000" fill="rgb(178, 34, 34)" style="fill-opacity:1.00" />
<!-- End 'A' -->
<!-- Begin 'T' -->
<rect height="5.427416" width="50.000000" x="750.000000" y="65.832680" fill="rgb(0, 100, 0)" style="fill-opacity:1.00" />
<rect height="33.921348" width="10.000000" x="770.000000" y="65.832680" fill="rgb(0, 100, 0)" style="fill-opacity:1.00" />
<!-- End 'T' -->
<!-- Begin 'A' -->
<polygon points=" 750.000000, 105.368630, 771.000000, 99.754028, 779.000000, 99.754028, 800.000000, 105.368630, 792.500000, 105.368630, 786.250000, 103.964979, 763.750000, 103.964979, 757.500000, 105.368630" fill="rgb(178, 34, 34)" style="fill-opacity:1.00" />
<!-- End 'A' -->
<!-- Begin 'G' -->
<ellipse cx="775.000000" cy="106.566829" rx="25.000000" ry="1.198199" fill="rgb(255, 165, 0)" style="fill-opacity:1.00" />
<ellipse cx="775.000000" cy="106.566829" rx="16.666667" ry="0.798800" fill="rgb(255, 255, 255)" style="fill-opacity:1.00" />
<rect height="1.198199" width="25.000000" x="775.000000" y="105.967730" fill="rgb(255, 255, 255)" style="fill-opacity:1.00" />
<rect height="0.299550" width="25.000000" x="775.000000" y="106.866379" fill="rgb(255, 165, 0)" style="fill-opacity:1.00" />
<rect height="0.898650" width="6.250000" x="793.750000" y="106.866379" fill="rgb(255, 165, 0)" style="fill-opacity:1.00" />
<!-- End 'G' -->
<!-- Begin 'C' -->
<ellipse cx="775.000000" cy="108.882514" rx="25.000000" ry="1.117486" fill="rgb(0, 0, 128)" style="fill-opacity:1.00" />
<ellipse cx="775.000000" cy="108.882514" rx="16.666667" ry="0.744990" fill="rgb(255, 255, 255)" style="fill-opacity:1.00" />
<rect height="1.117486" width="25.000000" x="775.000000" y="108.323771" fill="rgb(255, 255, 255)" style="fill-opacity:1.00" />
<!-- End 'C' -->
<!-- Begin 'C' -->
<ellipse cx="835.000000" cy="93.414139" rx="25.000000" ry="7.443252" fill="rgb(0, 0, 128)" style="fill-opacity:1.00" />
<ellipse cx="835.000000" cy="93.414139" rx="16.666667" ry="4.962168" fill="rgb(255, 255, 255)" style="fill-opacity:1.00" />
<rect height="7.443252" width="25.000000" x="835.000000" y="89.692513" fill="rgb(255, 255, 255)" style="fill-opacity:1.00" />
<!-- End 'C' -->
<!-- Begin 'T' -->
<rect height="0.655084" width="50.000000" x="810.000000" y="100.857391" fill="rgb(0, 100, 0)" style="fill-opacity:1.00" />
<rect height="4.094276" width="10.000000" x="830.000000" y="100.857391" fill="rgb(0, 100, 0)" style="fill-opacity:1.00" />
<!-- End 'T' -->
<!-- Begin 'A' -->
<polygon points=" 810.000000, 108.516452, 831.000000, 104.951666, 839.000000, 104.951666, 860.000000, 108.516452, 852.500000, 108.516452, 846.250000, 107.625255, 823.750000, 107.625255, 817.500000, 108.516452" fill="rgb(178, 34, 34)" style="fill-opacity:1.00" />
<!-- End 'A' -->
<!-- Begin 'G' -->
<ellipse cx="835.000000" cy="109.258226" rx="25.000000" ry="0.741774" fill="rgb(255, 165, 0)" style="fill-opacity:1.00" />
<ellipse cx="835.000000" cy="109.258226" rx="16.666667" ry="0.494516" fill="rgb(255, 255, 255)" style="fill-opacity:1.00" />
<rect height="0.741774" width="25.000000" x="835.000000" y="108.887339" fill="rgb(255, 255, 255)" style="fill-opacity:1.00" />
<rect height="0.185444" width="25.000000" x="835.000000" y="109.443669" fill="rgb(255, 165, 0)" style="fill-opacity:1.00" />
<rect height="0.556331" width="6.250000" x="853.750000" y="109.443669" fill="rgb(255, 165, 0)" style="fill-opacity:1.00" />
<!-- End 'G' -->
<!-- Begin 'A' -->
<polygon points=" 870.000000, 99.499685, 891.000000, 74.530457, 899.000000, 74.530457, 920.000000, 99.499685, 912.500000, 99.499685, 906.250000, 93.257378, 883.750000, 93.257378, 877.500000, 99.499685" fill="rgb(178, 34, 34)" style="fill-opacity:1.00" />
<polygon points=" 895.000000, 79.524302, 887.000000, 88.511994, 902.000000, 88.511994" fill="rgb(255, 255, 255)" style="fill-opacity:1.00" />
<!-- End 'A' -->
<!-- Begin 'T' -->
<rect height="0.772839" width="50.000000" x="870.000000" y="99.499685" fill="rgb(0, 100, 0)" style="fill-opacity:1.00" />
<rect height="4.830241" width="10.000000" x="890.000000" y="99.499685" fill="rgb(0, 100, 0)" style="fill-opacity:1.00" />
<!-- End 'T' -->
<!-- Begin 'G' -->
<ellipse cx="895.000000" cy="106.560121" rx="25.000000" ry="2.230195" fill="rgb(255, 165, 0)" style="fill-opacity:1.00" />
<ellipse cx="895.000000" cy="106.560121" rx="16.666667" ry="1.486797" fill="rgb(255, 255, 255)" style="fill-opacity:1.00" />
<rect height="2.230195" width="25.000000" x="895.000000" y="105.445023" fill="rgb(255, 255, 255)" style="fill-opacity:1.00" />
<rect height="0.557549" width="25.000000" x="895.000000" y="107.117670" fill="rgb(255, 165, 0)" style="fill-opacity:1.00" />
<rect height="1.672646" width="6.250000" x="913.750000" y="107.117670" fill="rgb(255, 165, 0)" style="fill-opacity:1.00" />
<!-- End 'G' -->
<!-- Begin 'C' -->
<ellipse cx="895.000000" cy="109.395158" rx="25.000000" ry="0.604842" fill="rgb(0, 0, 128)" style="fill-opacity:1.00" />
<ellipse cx="895.000000" cy="109.395158" rx="16.666667" ry="0.403228" fill="rgb(255, 255, 255)" style="fill-opacity:1.00" />
<rect height="0.604842" width="25.000000" x="895.000000" y="109.092737" fill="rgb(255, 255, 255)" style="fill-opacity:1.00" />
<!-- End 'C' -->
<!-- Begin 'G' -->
<ellipse cx="955.000000" cy="97.130370" rx="25.000000" ry="4.722390" fill="rgb(255, 165, 0)" style="fill-opacity:1.00" />
<ellipse cx="955.000000" cy="97.130370" rx="16.666667" ry="3.148260" fill="rgb(255, 255, 255)" style="fill-opacity:1.00" />
<rect height="4.722390" width="25.000000" x="955.000000" y="94.769174" fill="rgb(255, 255, 255)" style="fill-opacity:1.00" />
<rect height="1.180598" width="25.000000" x="955.000000" y="98.310967" fill="rgb(255, 165, 0)" style="fill-opacity:1.00" />
<rect height="3.541793" width="6.250000" x="973.750000" y="98.310967" fill="rgb(255, 165, 0)" style="fill-opacity:1.00" />
<!-- End 'G' -->
<!-- Begin 'T' -->
<rect height="0.750065" width="50.000000" x="930.000000" y="101.852760" fill="rgb(0, 100, 0)" style="fill-opacity:1.00" />
<rect height="4.687908" width="10.000000" x="950.000000" y="101.852760" fill="rgb(0, 100, 0)" style="fill-opacity:1.00" />
<!-- End 'T' -->
<!-- Begin 'C' -->
<ellipse cx="955.000000" cy="107.421786" rx="25.000000" ry="0.881118" fill="rgb(0, 0, 128)" style="fill-opacity:1.00" />
<ellipse cx="955.000000" cy="107.421786" rx="16.666667" ry="0.587412" fill="rgb(255, 255, 255)" style="fill-opacity:1.00" />
<rect height="0.881118" width="25.000000" x="955.000000" y="106.981227" fill="rgb(255, 255, 255)" style="fill-opacity:1.00" />
<!-- End 'C' -->
<!-- Begin 'A' -->
<polygon points=" 930.000000, 110.000000, 951.000000, 108.302904, 959.000000, 108.302904, 980.000000, 110.000000, 972.500000, 110.000000, 966.250000, 109.575726, 943.750000, 109.575726, 937.500000, 110.000000" fill="rgb(178, 34, 34)" style="fill-opacity:1.00" />
<!-- End 'A' -->
<!-- Begin 'C' -->
<ellipse cx="1015.000000" cy="94.893234" rx="25.000000" ry="6.758987" fill="rgb(0, 0, 128)" style="fill-opacity:1.00" />
<ellipse cx="1015.000000" cy="94.893234" rx="16.666667" ry="4.505991" fill="rgb(255, 255, 255)" style="fill-opacity:1.00" />
<rect height="6.758987" width="25.000000" x="1015.000000" y="91.513740" fill="rgb(255, 255, 255)" style="fill-opacity:1.00" />
<!-- End 'C' -->
<!-- Begin 'T' -->
<rect height="0.480458" width="50.000000" x="990.000000" y="101.652221" fill="rgb(0, 100, 0)" style="fill-opacity:1.00" />
<rect height="3.002864" width="10.000000" x="1010.000000" y="101.652221" fill="rgb(0, 100, 0)" style="fill-opacity:1.00" />
<!-- End 'T' -->
<!-- Begin 'G' -->
<ellipse cx="1015.000000" cy="106.083833" rx="25.000000" ry="1.428748" fill="rgb(255, 165, 0)" style="fill-opacity:1.00" />
<ellipse cx="1015.000000" cy="106.083833" rx="16.666667" ry="0.952499" fill="rgb(255, 255, 255)" style="fill-opacity:1.00" />
<rect height="1.428748" width="25.000000" x="1015.000000" y="105.369459" fill="rgb(255, 255, 255)" style="fill-opacity:1.00" />
<rect height="0.357187" width="25.000000" x="1015.000000" y="106.441020" fill="rgb(255, 165, 0)" style="fill-opacity:1.00" />
<rect height="1.071561" width="6.250000" x="1033.750000" y="106.441020" fill="rgb(255, 165, 0)" style="fill-opacity:1.00" />
<!-- End 'G' -->
<!-- Begin 'A' -->
<polygon points=" 990.000000, 110.000000, 1011.000000, 107.512581, 1019.000000, 107.512581, 1040.000000, 110.000000, 1032.500000, 110.000000, 1026.250000, 109.378145, 1003.750000, 109.378145, 997.500000, 110.000000" fill="rgb(178, 34, 34)" style="fill-opacity:1.00" />
<!-- End 'A' -->
<!-- Begin 'A' -->
<polygon points=" 1050.000000, 102.908055, 1071.000000, 93.861334, 1079.000000, 93.861334, 1100.000000, 102.908055, 1092.500000, 102.908055, 1086.250000, 100.646375, 1063.750000, 100.646375, 1057.500000, 102.908055" fill="rgb(178, 34, 34)" style="fill-opacity:1.00" />
<polygon points=" 1075.000000, 95.670678, 1067.000000, 98.289367, 1082.000000, 98.289367" fill="rgb(255, 255, 255)" style="fill-opacity:1.00" />
<!-- End 'A' -->
<!-- Begin 'T' -->
<rect height="0.468104" width="50.000000" x="1050.000000" y="102.908055" fill="rgb(0, 100, 0)" style="fill-opacity:1.00" />
<rect height="2.925652" width="10.000000" x="1070.000000" y="102.908055" fill="rgb(0, 100, 0)" style="fill-opacity:1.00" />
<!-- End 'T' -->
<!-- Begin 'C' -->
<ellipse cx="1075.000000" cy="106.881988" rx="25.000000" ry="1.048280" fill="rgb(0, 0, 128)" style="fill-opacity:1.00" />
<ellipse cx="1075.000000" cy="106.881988" rx="16.666667" ry="0.698854" fill="rgb(255, 255, 255)" style="fill-opacity:1.00" />
<rect height="1.048280" width="25.000000" x="1075.000000" y="106.357847" fill="rgb(255, 255, 255)" style="fill-opacity:1.00" />
<!-- End 'C' -->
<!-- Begin 'G' -->
<ellipse cx="1075.000000" cy="108.965134" rx="25.000000" ry="1.034866" fill="rgb(255, 165, 0)" style="fill-opacity:1.00" />
<ellipse cx="1075.000000" cy="108.965134" rx="16.666667" ry="0.689911" fill="rgb(255, 255, 255)" style="fill-opacity:1.00" />
<rect height="1.034866" width="25.000000" x="1075.000000" y="108.447701" fill="rgb(255, 255, 255)" style="fill-opacity:1.00" />
<rect height="0.258716" width="25.000000" x="1075.000000" y="109.223851" fill="rgb(255, 165, 0)" style="fill-opacity:1.00" />
<rect height="0.776149" width="6.250000" x="1093.750000" y="109.223851" fill="rgb(255, 165, 0)" style="fill-opacity:1.00" />
<!-- End 'G' -->
<!-- Begin 'A' -->
<polygon points=" 1110.000000, 107.209447, 1131.000000, 105.700126, 1139.000000, 105.700126, 1160.000000, 107.209447, 1152.500000, 107.209447, 1146.250000, 106.832116, 1123.750000, 106.832116, 1117.500000, 107.209447" fill="rgb(178, 34, 34)" style="fill-opacity:1.00" />
<!-- End 'A' -->
<!-- Begin 'T' -->
<rect height="0.218113" width="50.000000" x="1110.000000" y="107.209447" fill="rgb(0, 100, 0)" style="fill-opacity:1.00" />
<rect height="1.363204" width="10.000000" x="1130.000000" y="107.209447" fill="rgb(0, 100, 0)" style="fill-opacity:1.00" />
<!-- End 'T' -->
<!-- Begin 'G' -->
<ellipse cx="1135.000000" cy="108.959162" rx="25.000000" ry="0.386511" fill="rgb(255, 165, 0)" style="fill-opacity:1.00" />
<ellipse cx="1135.000000" cy="108.959162" rx="16.666667" ry="0.257674" fill="rgb(255, 255, 255)" style="fill-opacity:1.00" />
<rect height="0.386511" width="25.000000" x="1135.000000" y="108.765906" fill="rgb(255, 255, 255)" style="fill-opacity:1.00" />
<rect height="0.096628" width="25.000000" x="1135.000000" y="109.055790" fill="rgb(255, 165, 0)" style="fill-opacity:1.00" />
<rect height="0.289883" width="6.250000" x="1153.750000" y="109.055790" fill="rgb(255, 165, 0)" style="fill-opacity:1.00" />
<!-- End 'G' -->
<!-- Begin 'C' -->
<ellipse cx="1135.000000" cy="109.672836" rx="25.000000" ry="0.327164" fill="rgb(0, 0, 128)" style="fill-opacity:1.00" />
<ellipse cx="1135.000000" cy="109.672836" rx="16.666667" ry="0.218109" fill="rgb(255, 255, 255)" style="fill-opacity:1.00" />
<rect height="0.327164" width="25.000000" x="1135.000000" y="109.509255" fill="rgb(255, 255, 255)" style="fill-opacity:1.00" />
<!-- End 'C' -->
<!-- Begin 'T' -->
<rect height="0.720475" width="50.000000" x="1170.000000" y="98.927919" fill="rgb(0, 100, 0)" style="fill-opacity:1.00" />
<rect height="4.502970" width="10.000000" x="1190.000000" y="98.927919" fill="rgb(0, 100, 0)" style="fill-opacity:1.00" />
<!-- End 'T' -->
<!-- Begin 'A' -->
<polygon points=" 1170.000000, 107.433148, 1191.000000, 103.430889, 1199.000000, 103.430889, 1220.000000, 107.433148, 1212.500000, 107.433148, 1206.250000, 106.432583, 1183.750000, 106.432583, 1177.500000, 107.433148" fill="rgb(178, 34, 34)" style="fill-opacity:1.00" />
<!-- End 'A' -->
<!-- Begin 'G' -->
<ellipse cx="1195.000000" cy="108.116650" rx="25.000000" ry="0.683502" fill="rgb(255, 165, 0)" style="fill-opacity:1.00" />
<ellipse cx="1195.000000" cy="108.116650" rx="16.666667" ry="0.455668" fill="rgb(255, 255, 255)" style="fill-opacity:1.00" />
<rect height="0.683502" width="25.000000" x="1195.000000" y="107.774899" fill="rgb(255, 255, 255)" style="fill-opacity:1.00" />
<rect height="0.170875" width="25.000000" x="1195.000000" y="108.287525" fill="rgb(255, 165, 0)" style="fill-opacity:1.00" />
<rect height="0.512626" width="6.250000" x="1213.750000" y="108.287525" fill="rgb(255, 165, 0)" style="fill-opacity:1.00" />
<!-- End 'G' -->
<!-- Begin 'C' -->
<ellipse cx="1195.000000" cy="109.400076" rx="25.000000" ry="0.599924" fill="rgb(0, 0, 128)" style="fill-opacity:1.00" />
<ellipse cx="1195.000000" cy="109.400076" rx="16.666667" ry="0.399950" fill="rgb(255, 255, 255)" style="fill-opacity:1.00" />
<rect height="0.599924" width="25.000000" x="1195.000000" y="109.100114" fill="rgb(255, 255, 255)" style="fill-opacity:1.00" />
<!-- End 'C' -->
<!-- Begin 'T' -->
<rect height="1.001584" width="50.000000" x="1230.000000" y="96.319295" fill="rgb(0, 100, 0)" style="fill-opacity:1.00" />
<rect height="6.259900" width="10.000000" x="1250.000000" y="96.319295" fill="rgb(0, 100, 0)" style="fill-opacity:1.00" />
<!-- End 'T' -->
<!-- Begin 'A' -->
<polygon points=" 1230.000000, 107.124881, 1251.000000, 102.579195, 1259.000000, 102.579195, 1280.000000, 107.124881, 1272.500000, 107.124881, 1266.250000, 105.988459, 1243.750000, 105.988459, 1237.500000, 107.124881" fill="rgb(178, 34, 34)" style="fill-opacity:1.00" />
<!-- End 'A' -->
<!-- Begin 'C' -->
<ellipse cx="1255.000000" cy="107.902017" rx="25.000000" ry="0.777136" fill="rgb(0, 0, 128)" style="fill-opacity:1.00" />
<ellipse cx="1255.000000" cy="107.902017" rx="16.666667" ry="0.518091" fill="rgb(255, 255, 255)" style="fill-opacity:1.00" />
<rect height="0.777136" width="25.000000" x="1255.000000" y="107.513449" fill="rgb(255, 255, 255)" style="fill-opacity:1.00" />
<!-- End 'C' -->
<!-- Begin 'G' -->
<ellipse cx="1255.000000" cy="109.339577" rx="25.000000" ry="0.660423" fill="rgb(255, 165, 0)" style="fill-opacity:1.00" />
<ellipse cx="1255.000000" cy="109.339577" rx="16.666667" ry="0.440282" fill="rgb(255, 255, 255)" style="fill-opacity:1.00" />
<rect height="0.660423" width="25.000000" x="1255.000000" y="109.009365" fill="rgb(255, 255, 255)" style="fill-opacity:1.00" />
<rect height="0.165106" width="25.000000" x="1255.000000" y="109.504682" fill="rgb(255, 165, 0)" style="fill-opacity:1.00" />
<rect height="0.495318" width="6.250000" x="1273.750000" y="109.504682" fill="rgb(255, 165, 0)" style="fill-opacity:1.00" />
<!-- End 'G' -->
<!-- Begin 'T' -->
<rect height="0.643297" width="50.000000" x="1290.000000" y="100.792674" fill="rgb(0, 100, 0)" style="fill-opacity:1.00" />
<rect height="4.020606" width="10.000000" x="1310.000000" y="100.792674" fill="rgb(0, 100, 0)" style="fill-opacity:1.00" />
<!-- End 'T' -->
<!-- Begin 'A' -->
<polygon points=" 1290.000000, 107.452875, 1311.000000, 104.813279, 1319.000000, 104.813279, 1340.000000, 107.452875, 1332.500000, 107.452875, 1326.250000, 106.792976, 1303.750000, 106.792976, 1297.500000, 107.452875" fill="rgb(178, 34, 34)" style="fill-opacity:1.00" />
<!-- End 'A' -->
<!-- Begin 'C' -->
<ellipse cx="1315.000000" cy="108.247449" rx="25.000000" ry="0.794574" fill="rgb(0, 0, 128)" style="fill-opacity:1.00" />
<ellipse cx="1315.000000" cy="108.247449" rx="16.666667" ry="0.529716" fill="rgb(255, 255, 255)" style="fill-opacity:1.00" />
<rect height="0.794574" width="25.000000" x="1315.000000" y="107.850162" fill="rgb(255, 255, 255)" style="fill-opacity:1.00" />
<!-- End 'C' -->
<!-- Begin 'G' -->
<ellipse cx="1315.000000" cy="109.521012" rx="25.000000" ry="0.478988" fill="rgb(255, 165, 0)" style="fill-opacity:1.00" />
<ellipse cx="1315.000000" cy="109.521012" rx="16.666667" ry="0.319325" fill="rgb(255, 255, 255)" style="fill-opacity:1.00" />
<rect height="0.478988" width="25.000000" x="1315.000000" y="109.281518" fill="rgb(255, 255, 255)" style="fill-opacity:1.00" />
<rect height="0.119747" width="25.000000" x="1315.000000" y="109.640759" fill="rgb(255, 165, 0)" style="fill-opacity:1.00" />
<rect height="0.359241" width="6.250000" x="1333.750000" y="109.640759" fill="rgb(255, 165, 0)" style="fill-opacity:1.00" />
<!-- End 'G' -->
<text x="700.000000" y="165">
IC = 8.09
</text>

</svg>
