<?xml version="1.0" encoding="UTF-8" standalone="yes"?>
                 <!DOCTYPE svg PUBLIC "-//W3C//DTD SVG 1.0//EN" "http://www.w3.org/TR/2001/REC-SVG-20010904/DTD/svg10.dtd">
                 <svg height="500" width="480" xmlns="http://www.w3.org/2000/svg" xmlns:xlink="http://www.w3.org/1999/xlink">
                 <line x1="85" y1="450" x2="447" y2="450" style="stroke:rgb(99,99,99);stroke-width:2" />
<rect height="7.000000" width="2.000000" x="85.000000" y="450.000000" fill="rgb(0, 0, 0)" style="fill-opacity:1.00" />
<text x="107.000000" y="470">
1
</text>
<rect height="7.000000" width="2.000000" x="145.000000" y="450.000000" fill="rgb(0, 0, 0)" style="fill-opacity:1.00" />
<text x="167.000000" y="470">
2
</text>
<rect height="7.000000" width="2.000000" x="205.000000" y="450.000000" fill="rgb(0, 0, 0)" style="fill-opacity:1.00" />
<text x="227.000000" y="470">
3
</text>
<rect height="7.000000" width="2.000000" x="265.000000" y="450.000000" fill="rgb(0, 0, 0)" style="fill-opacity:1.00" />
<text x="287.000000" y="470">
4
</text>
<rect height="7.000000" width="2.000000" x="325.000000" y="450.000000" fill="rgb(0, 0, 0)" style="fill-opacity:1.00" />
<text x="347.000000" y="470">
5
</text>
<rect height="7.000000" width="2.000000" x="385.000000" y="450.000000" fill="rgb(0, 0, 0)" style="fill-opacity:1.00" />
<text x="407.000000" y="470">
6
</text>
<rect height="7.000000" width="2.000000" x="445.000000" y="450.000000" fill="rgb(0, 0, 0)" style="fill-opacity:1.00" />
<!-- Begin 'A' -->
<polygon points=" 10.000000, 110.000000, 35.200000, 10.000000, 44.800000, 10.000000, 70.000000, 110.000000, 61.000000, 110.000000, 53.500000, 85.000000, 26.500000, 85.000000, 19.000000, 110.000000" fill="rgb(178, 34, 34)" style="fill-opacity:1.00" />
<polygon points=" 40.000000, 30.000000, 30.400000, 69.000000, 48.400000, 69.000000" fill="rgb(255, 255, 255)" style="fill-opacity:1.00" />
<!-- End 'A' -->
<!-- Begin 'C' -->
<ellipse cx="40.000000" cy="170.000000" rx="30.000000" ry="50.000000" fill="rgb(0, 0, 128)" style="fill-opacity:1.00" />
<ellipse cx="40.000000" cy="170.000000" rx="20.000000" ry="33.333333" fill="rgb(255, 255, 255)" style="fill-opacity:1.00" />
<rect height="50.000000" width="30.000000" x="40.000000" y="145.000000" fill="rgb(255, 255, 255)" style="fill-opacity:1.00" />
<!-- End 'C' -->
<!-- Begin 'G' -->
<ellipse cx="40.000000" cy="280.000000" rx="30.000000" ry="50.000000" fill="rgb(255, 165, 0)" style="fill-opacity:1.00" />
<ellipse cx="40.000000" cy="280.000000" rx="20.000000" ry="33.333333" fill="rgb(255, 255, 255)" style="fill-opacity:1.00" />
<rect height="50.000000" width="30.000000" x="40.000000" y="255.000000" fill="rgb(255, 255, 255)" style="fill-opacity:1.00" />
<rect height="12.500000" width="30.000000" x="40.000000" y="292.500000" fill="rgb(255, 165, 0)" style="fill-opacity:1.00" />
<rect height="37.500000" width="7.500000" x="62.500000" y="292.500000" fill="rgb(255, 165, 0)" style="fill-opacity:1.00" />
<!-- End 'G' -->
<!-- Begin 'T' -->
<rect height="16.000000" width="60.000000" x="10.000000" y="340.000000" fill="rgb(0, 100, 0)" style="fill-opacity:1.00" />
<rect height="100.000000" width="12.000000" x="34.000000" y="340.000000" fill="rgb(0, 100, 0)" style="fill-opacity:1.00" />
<!-- End 'T' -->
<!-- Begin 'T' -->
<rect height="10.519375" width="50.000000" x="90.000000" y="10.000000" fill="rgb(0, 100, 0)" style="fill-opacity:0.25" />
<rect height="65.746096" width="10.000000" x="110.000000" y="10.000000" fill="rgb(0, 100, 0)" style="fill-opacity:0.25" />
<!-- End 'T' -->
<!-- Begin 'C' -->
<ellipse cx="115.000000" cy="88.997976" rx="25.000000" ry="13.251880" fill="rgb(0, 0, 128)" style="fill-opacity:0.25" />
<ellipse cx="115.000000" cy="88.997976" rx="16.666667" ry="8.834586" fill="rgb(255, 255, 255)" style="fill-opacity:1.00" />
<rect height="13.251880" width="25.000000" x="115.000000" y="82.372036" fill="rgb(255, 255, 255)" style="fill-opacity:1.00" />
<!-- End 'C' -->
<!-- Begin 'A' -->
<polygon points=" 90.000000, 107.440717, 111.000000, 102.249855, 119.000000, 102.249855, 140.000000, 107.440717, 132.500000, 107.440717, 126.250000, 106.143002, 103.750000, 106.143002, 97.500000, 107.440717" fill="rgb(178, 34, 34)" style="fill-opacity:0.25" />
<!-- End 'A' -->
<!-- Begin 'G' -->
<ellipse cx="115.000000" cy="108.720359" rx="25.000000" ry="1.279641" fill="rgb(255, 165, 0)" style="fill-opacity:0.25" />
<ellipse cx="115.000000" cy="108.720359" rx="16.666667" ry="0.853094" fill="rgb(255, 255, 255)" style="fill-opacity:1.00" />
<rect height="1.279641" width="25.000000" x="115.000000" y="108.080538" fill="rgb(255, 255, 255)" style="fill-opacity:1.00" />
<rect height="0.319910" width="25.000000" x="115.000000" y="109.040269" fill="rgb(255, 165, 0)" style="fill-opacity:0.25" />
<rect height="0.959731" width="6.250000" x="133.750000" y="109.040269" fill="rgb(255, 165, 0)" style="fill-opacity:0.25" />
<!-- End 'G' -->
<!-- Begin 'T' -->
<rect height="10.519375" width="50.000000" x="90.000000" y="120.000000" fill="rgb(0, 100, 0)" style="fill-opacity:0.25" />
<rect height="65.746096" width="10.000000" x="110.000000" y="120.000000" fill="rgb(0, 100, 0)" style="fill-opacity:0.25" />
<!-- End 'T' -->
<!-- Begin 'C' -->
<ellipse cx="115.000000" cy="198.997976" rx="25.000000" ry="13.251880" fill="rgb(0, 0, 128)" style="fill-opacity:0.25" />
<ellipse cx="115.000000" cy="198.997976" rx="16.666667" ry="8.834586" fill="rgb(255, 255, 255)" style="fill-opacity:1.00" />
<rect height="13.251880" width="25.000000" x="115.000000" y="192.372036" fill="rgb(255, 255, 255)" style="fill-opacity:1.00" />
<!-- End 'C' -->
<!-- Begin 'A' -->
<polygon points=" 90.000000, 217.440717, 111.000000, 212.249855, 119.000000, 212.249855, 140.000000, 217.440717, 132.500000, 217.440717, 126.250000, 216.143002, 103.750000, 216.143002, 97.500000, 217.440717" fill="rgb(178, 34, 34)" style="fill-opacity:0.25" />
<!-- End 'A' -->
<!-- Begin 'G' -->
<ellipse cx="115.000000" cy="218.720359" rx="25.000000" ry="1.279641" fill="rgb(255, 165, 0)" style="fill-opacity:0.25" />
<ellipse cx="115.000000" cy="218.720359" rx="16.666667" ry="0.853094" fill="rgb(255, 255, 255)" style="fill-opacity:1.00" />
<rect height="1.279641" width="25.000000" x="115.000000" y="218.080538" fill="rgb(255, 255, 255)" style="fill-opacity:1.00" />
<rect height="0.319910" width="25.000000" x="115.000000" y="219.040269" fill="rgb(255, 165, 0)" style="fill-opacity:0.25" />
<rect height="0.959731" width="6.250000" x="133.750000" y="219.040269" fill="rgb(255, 165, 0)" style="fill-opacity:0.25" />
<!-- End 'G' -->
<!-- Begin 'T' -->
<rect height="10.519375" width="50.000000" x="90.000000" y="230.000000" fill="rgb(0, 100, 0)" style="fill-opacity:0.25" />
<rect height="65.746096" width="10.000000" x="110.000000" y="230.000000" fill="rgb(0, 100, 0)" style="fill-opacity:0.25" />
<!-- End 'T' -->
<!-- Begin 'C' -->
<ellipse cx="115.000000" cy="308.997976" rx="25.000000" ry="13.251880" fill="rgb(0, 0, 128)" style="fill-opacity:0.25" />
<ellipse cx="115.000000" cy="308.997976" rx="16.666667" ry="8.834586" fill="rgb(255, 255, 255)" style="fill-opacity:1.00" />
<rect height="13.251880" width="25.000000" x="115.000000" y="302.372036" fill="rgb(255, 255, 255)" style="fill-opacity:1.00" />
<!-- End 'C' -->
<!-- Begin 'A' -->
<polygon points=" 90.000000, 327.440717, 111.000000, 322.249855, 119.000000, 322.249855, 140.000000, 327.440717, 132.500000, 327.440717, 126.250000, 326.143002, 103.750000, 326.143002, 97.500000, 327.440717" fill="rgb(178, 34, 34)" style="fill-opacity:0.25" />
<!-- End 'A' -->
<!-- Begin 'G' -->
<ellipse cx="115.000000" cy="328.720359" rx="25.000000" ry="1.279641" fill="rgb(255, 165, 0)" style="fill-opacity:0.25" />
<ellipse cx="115.000000" cy="328.720359" rx="16.666667" ry="0.853094" fill="rgb(255, 255, 255)" style="fill-opacity:1.00" />
<rect height="1.279641" width="25.000000" x="115.000000" y="328.080538" fill="rgb(255, 255, 255)" style="fill-opacity:1.00" />
<rect height="0.319910" width="25.000000" x="115.000000" y="329.040269" fill="rgb(255, 165, 0)" style="fill-opacity:0.25" />
<rect height="0.959731" width="6.250000" x="133.750000" y="329.040269" fill="rgb(255, 165, 0)" style="fill-opacity:0.25" />
<!-- End 'G' -->
<!-- Begin 'T' -->
<rect height="10.519375" width="50.000000" x="90.000000" y="340.000000" fill="rgb(0, 100, 0)" style="fill-opacity:0.25" />
<rect height="65.746096" width="10.000000" x="110.000000" y="340.000000" fill="rgb(0, 100, 0)" style="fill-opacity:0.25" />
<!-- End 'T' -->
<!-- Begin 'C' -->
<ellipse cx="115.000000" cy="418.997976" rx="25.000000" ry="13.251880" fill="rgb(0, 0, 128)" style="fill-opacity:0.25" />
<ellipse cx="115.000000" cy="418.997976" rx="16.666667" ry="8.834586" fill="rgb(255, 255, 255)" style="fill-opacity:1.00" />
<rect height="13.251880" width="25.000000" x="115.000000" y="412.372036" fill="rgb(255, 255, 255)" style="fill-opacity:1.00" />
<!-- End 'C' -->
<!-- Begin 'A' -->
<polygon points=" 90.000000, 437.440717, 111.000000, 432.249855, 119.000000, 432.249855, 140.000000, 437.440717, 132.500000, 437.440717, 126.250000, 436.143002, 103.750000, 436.143002, 97.500000, 437.440717" fill="rgb(178, 34, 34)" style="fill-opacity:0.25" />
<!-- End 'A' -->
<!-- Begin 'G' -->
<ellipse cx="115.000000" cy="438.720359" rx="25.000000" ry="1.279641" fill="rgb(255, 165, 0)" style="fill-opacity:0.25" />
<ellipse cx="115.000000" cy="438.720359" rx="16.666667" ry="0.853094" fill="rgb(255, 255, 255)" style="fill-opacity:1.00" />
<rect height="1.279641" width="25.000000" x="115.000000" y="438.080538" fill="rgb(255, 255, 255)" style="fill-opacity:1.00" />
<rect height="0.319910" width="25.000000" x="115.000000" y="439.040269" fill="rgb(255, 165, 0)" style="fill-opacity:0.25" />
<rect height="0.959731" width="6.250000" x="133.750000" y="439.040269" fill="rgb(255, 165, 0)" style="fill-opacity:0.25" />
<!-- End 'G' -->
<!-- Begin 'T' -->
<rect height="14.956622" width="50.000000" x="150.000000" y="10.000000" fill="rgb(0, 100, 0)" style="fill-opacity:0.05" />
<rect height="93.478890" width="10.000000" x="170.000000" y="10.000000" fill="rgb(0, 100, 0)" style="fill-opacity:0.05" />
<!-- End 'T' -->
<!-- Begin 'G' -->
<ellipse cx="175.000000" cy="105.655003" rx="25.000000" ry="2.176113" fill="rgb(255, 165, 0)" style="fill-opacity:0.05" />
<ellipse cx="175.000000" cy="105.655003" rx="16.666667" ry="1.450742" fill="rgb(255, 255, 255)" style="fill-opacity:1.00" />
<rect height="2.176113" width="25.000000" x="175.000000" y="104.566946" fill="rgb(255, 255, 255)" style="fill-opacity:1.00" />
<rect height="0.544028" width="25.000000" x="175.000000" y="106.199031" fill="rgb(255, 165, 0)" style="fill-opacity:0.05" />
<rect height="1.632085" width="6.250000" x="193.750000" y="106.199031" fill="rgb(255, 165, 0)" style="fill-opacity:0.05" />
<!-- End 'G' -->
<!-- Begin 'A' -->
<polygon points=" 150.000000, 109.016773, 171.000000, 107.831116, 179.000000, 107.831116, 200.000000, 109.016773, 192.500000, 109.016773, 186.250000, 108.720359, 163.750000, 108.720359, 157.500000, 109.016773" fill="rgb(178, 34, 34)" style="fill-opacity:0.05" />
<!-- End 'A' -->
<!-- Begin 'C' -->
<ellipse cx="175.000000" cy="109.508386" rx="25.000000" ry="0.491614" fill="rgb(0, 0, 128)" style="fill-opacity:0.05" />
<ellipse cx="175.000000" cy="109.508386" rx="16.666667" ry="0.327742" fill="rgb(255, 255, 255)" style="fill-opacity:1.00" />
<rect height="0.491614" width="25.000000" x="175.000000" y="109.262580" fill="rgb(255, 255, 255)" style="fill-opacity:1.00" />
<!-- End 'C' -->
<!-- Begin 'T' -->
<rect height="14.956622" width="50.000000" x="150.000000" y="120.000000" fill="rgb(0, 100, 0)" style="fill-opacity:0.27" />
<rect height="93.478890" width="10.000000" x="170.000000" y="120.000000" fill="rgb(0, 100, 0)" style="fill-opacity:0.27" />
<!-- End 'T' -->
<!-- Begin 'G' -->
<ellipse cx="175.000000" cy="215.655003" rx="25.000000" ry="2.176113" fill="rgb(255, 165, 0)" style="fill-opacity:0.27" />
<ellipse cx="175.000000" cy="215.655003" rx="16.666667" ry="1.450742" fill="rgb(255, 255, 255)" style="fill-opacity:1.00" />
<rect height="2.176113" width="25.000000" x="175.000000" y="214.566946" fill="rgb(255, 255, 255)" style="fill-opacity:1.00" />
<rect height="0.544028" width="25.000000" x="175.000000" y="216.199031" fill="rgb(255, 165, 0)" style="fill-opacity:0.27" />
<rect height="1.632085" width="6.250000" x="193.750000" y="216.199031" fill="rgb(255, 165, 0)" style="fill-opacity:0.27" />
<!-- End 'G' -->
<!-- Begin 'A' -->
<polygon points=" 150.000000, 219.016773, 171.000000, 217.831116, 179.000000, 217.831116, 200.000000, 219.016773, 192.500000, 219.016773, 186.250000, 218.720359, 163.750000, 218.720359, 157.500000, 219.016773" fill="rgb(178, 34, 34)" style="fill-opacity:0.27" />
<!-- End 'A' -->
<!-- Begin 'C' -->
<ellipse cx="175.000000" cy="219.508386" rx="25.000000" ry="0.491614" fill="rgb(0, 0, 128)" style="fill-opacity:0.27" />
<ellipse cx="175.000000" cy="219.508386" rx="16.666667" ry="0.327742" fill="rgb(255, 255, 255)" style="fill-opacity:1.00" />
<rect height="0.491614" width="25.000000" x="175.000000" y="219.262580" fill="rgb(255, 255, 255)" style="fill-opacity:1.00" />
<!-- End 'C' -->
<!-- Begin 'T' -->
<rect height="14.956622" width="50.000000" x="150.000000" y="230.000000" fill="rgb(0, 100, 0)" style="fill-opacity:0.03" />
<rect height="93.478890" width="10.000000" x="170.000000" y="230.000000" fill="rgb(0, 100, 0)" style="fill-opacity:0.03" />
<!-- End 'T' -->
<!-- Begin 'G' -->
<ellipse cx="175.000000" cy="325.655003" rx="25.000000" ry="2.176113" fill="rgb(255, 165, 0)" style="fill-opacity:0.03" />
<ellipse cx="175.000000" cy="325.655003" rx="16.666667" ry="1.450742" fill="rgb(255, 255, 255)" style="fill-opacity:1.00" />
<rect height="2.176113" width="25.000000" x="175.000000" y="324.566946" fill="rgb(255, 255, 255)" style="fill-opacity:1.00" />
<rect height="0.544028" width="25.000000" x="175.000000" y="326.199031" fill="rgb(255, 165, 0)" style="fill-opacity:0.03" />
<rect height="1.632085" width="6.250000" x="193.750000" y="326.199031" fill="rgb(255, 165, 0)" style="fill-opacity:0.03" />
<!-- End 'G' -->
<!-- Begin 'A' -->
<polygon points=" 150.000000, 329.016773, 171.000000, 327.831116, 179.000000, 327.831116, 200.000000, 329.016773, 192.500000, 329.016773, 186.250000, 328.720359, 163.750000, 328.720359, 157.500000, 329.016773" fill="rgb(178, 34, 34)" style="fill-opacity:0.03" />
<!-- End 'A' -->
<!-- Begin 'C' -->
<ellipse cx="175.000000" cy="329.508386" rx="25.000000" ry="0.491614" fill="rgb(0, 0, 128)" style="fill-opacity:0.03" />
<ellipse cx="175.000000" cy="329.508386" rx="16.666667" ry="0.327742" fill="rgb(255, 255, 255)" style="fill-opacity:1.00" />
<rect height="0.491614" width="25.000000" x="175.000000" y="329.262580" fill="rgb(255, 255, 255)" style="fill-opacity:1.00" />
<!-- End 'C' -->
<!-- Begin 'T' -->
<rect height="14.956622" width="50.000000" x="150.000000" y="340.000000" fill="rgb(0, 100, 0)" style="fill-opacity:0.66" />
<rect height="93.478890" width="10.000000" x="170.000000" y="340.000000" fill="rgb(0, 100, 0)" style="fill-opacity:0.66" />
<!-- End 'T' -->
<!-- Begin 'G' -->
<ellipse cx="175.000000" cy="435.655003" rx="25.000000" ry="2.176113" fill="rgb(255, 165, 0)" style="fill-opacity:0.66" />
<ellipse cx="175.000000" cy="435.655003" rx="16.666667" ry="1.450742" fill="rgb(255, 255, 255)" style="fill-opacity:1.00" />
<rect height="2.176113" width="25.000000" x="175.000000" y="434.566946" fill="rgb(255, 255, 255)" style="fill-opacity:1.00" />
<rect height="0.544028" width="25.000000" x="175.000000" y="436.199031" fill="rgb(255, 165, 0)" style="fill-opacity:0.66" />
<rect height="1.632085" width="6.250000" x="193.750000" y="436.199031" fill="rgb(255, 165, 0)" style="fill-opacity:0.66" />
<!-- End 'G' -->
<!-- Begin 'A' -->
<polygon points=" 150.000000, 439.016773, 171.000000, 437.831116, 179.000000, 437.831116, 200.000000, 439.016773, 192.500000, 439.016773, 186.250000, 438.720359, 163.750000, 438.720359, 157.500000, 439.016773" fill="rgb(178, 34, 34)" style="fill-opacity:0.66" />
<!-- End 'A' -->
<!-- Begin 'C' -->
<ellipse cx="175.000000" cy="439.508386" rx="25.000000" ry="0.491614" fill="rgb(0, 0, 128)" style="fill-opacity:0.66" />
<ellipse cx="175.000000" cy="439.508386" rx="16.666667" ry="0.327742" fill="rgb(255, 255, 255)" style="fill-opacity:1.00" />
<rect height="0.491614" width="25.000000" x="175.000000" y="439.262580" fill="rgb(255, 255, 255)" style="fill-opacity:1.00" />
<!-- End 'C' -->
<!-- Begin 'G' -->
<ellipse cx="235.000000" cy="58.539618" rx="25.000000" ry="48.539618" fill="rgb(255, 165, 0)" style="fill-opacity:0.01" />
<ellipse cx="235.000000" cy="58.539618" rx="16.666667" ry="32.359746" fill="rgb(255, 255, 255)" style="fill-opacity:1.00" />
<rect height="48.539618" width="25.000000" x="235.000000" y="34.269809" fill="rgb(255, 255, 255)" style="fill-opacity:1.00" />
<rect height="12.134905" width="25.000000" x="235.000000" y="70.674523" fill="rgb(255, 165, 0)" style="fill-opacity:0.01" />
<rect height="36.404714" width="6.250000" x="253.750000" y="70.674523" fill="rgb(255, 165, 0)" style="fill-opacity:0.01" />
<!-- End 'G' -->
<!-- Begin 'A' -->
<polygon points=" 210.000000, 108.264893, 231.000000, 107.079237, 239.000000, 107.079237, 260.000000, 108.264893, 252.500000, 108.264893, 246.250000, 107.968479, 223.750000, 107.968479, 217.500000, 108.264893" fill="rgb(178, 34, 34)" style="fill-opacity:0.01" />
<!-- End 'A' -->
<!-- Begin 'C' -->
<ellipse cx="235.000000" cy="108.756507" rx="25.000000" ry="0.491614" fill="rgb(0, 0, 128)" style="fill-opacity:0.01" />
<ellipse cx="235.000000" cy="108.756507" rx="16.666667" ry="0.327742" fill="rgb(255, 255, 255)" style="fill-opacity:1.00" />
<rect height="0.491614" width="25.000000" x="235.000000" y="108.510700" fill="rgb(255, 255, 255)" style="fill-opacity:1.00" />
<!-- End 'C' -->
<!-- Begin 'T' -->
<rect height="0.120301" width="50.000000" x="210.000000" y="109.248120" fill="rgb(0, 100, 0)" style="fill-opacity:0.01" />
<rect height="0.751880" width="10.000000" x="230.000000" y="109.248120" fill="rgb(0, 100, 0)" style="fill-opacity:0.01" />
<!-- End 'T' -->
<!-- Begin 'G' -->
<ellipse cx="235.000000" cy="168.539618" rx="25.000000" ry="48.539618" fill="rgb(255, 165, 0)" style="fill-opacity:0.01" />
<ellipse cx="235.000000" cy="168.539618" rx="16.666667" ry="32.359746" fill="rgb(255, 255, 255)" style="fill-opacity:1.00" />
<rect height="48.539618" width="25.000000" x="235.000000" y="144.269809" fill="rgb(255, 255, 255)" style="fill-opacity:1.00" />
<rect height="12.134905" width="25.000000" x="235.000000" y="180.674523" fill="rgb(255, 165, 0)" style="fill-opacity:0.01" />
<rect height="36.404714" width="6.250000" x="253.750000" y="180.674523" fill="rgb(255, 165, 0)" style="fill-opacity:0.01" />
<!-- End 'G' -->
<!-- Begin 'A' -->
<polygon points=" 210.000000, 218.264893, 231.000000, 217.079237, 239.000000, 217.079237, 260.000000, 218.264893, 252.500000, 218.264893, 246.250000, 217.968479, 223.750000, 217.968479, 217.500000, 218.264893" fill="rgb(178, 34, 34)" style="fill-opacity:0.01" />
<!-- End 'A' -->
<!-- Begin 'C' -->
<ellipse cx="235.000000" cy="218.756507" rx="25.000000" ry="0.491614" fill="rgb(0, 0, 128)" style="fill-opacity:0.01" />
<ellipse cx="235.000000" cy="218.756507" rx="16.666667" ry="0.327742" fill="rgb(255, 255, 255)" style="fill-opacity:1.00" />
<rect height="0.491614" width="25.000000" x="235.000000" y="218.510700" fill="rgb(255, 255, 255)" style="fill-opacity:1.00" />
<!-- End 'C' -->
<!-- Begin 'T' -->
<rect height="0.120301" width="50.000000" x="210.000000" y="219.248120" fill="rgb(0, 100, 0)" style="fill-opacity:0.01" />
<rect height="0.751880" width="10.000000" x="230.000000" y="219.248120" fill="rgb(0, 100, 0)" style="fill-opacity:0.01" />
<!-- End 'T' -->
<!-- Begin 'G' -->
<ellipse cx="235.000000" cy="278.539618" rx="25.000000" ry="48.539618" fill="rgb(255, 165, 0)" style="fill-opacity:0.04" />
<ellipse cx="235.000000" cy="278.539618" rx="16.666667" ry="32.359746" fill="rgb(255, 255, 255)" style="fill-opacity:1.00" />
<rect height="48.539618" width="25.000000" x="235.000000" y="254.269809" fill="rgb(255, 255, 255)" style="fill-opacity:1.00" />
<rect height="12.134905" width="25.000000" x="235.000000" y="290.674523" fill="rgb(255, 165, 0)" style="fill-opacity:0.04" />
<rect height="36.404714" width="6.250000" x="253.750000" y="290.674523" fill="rgb(255, 165, 0)" style="fill-opacity:0.04" />
<!-- End 'G' -->
<!-- Begin 'A' -->
<polygon points=" 210.000000, 328.264893, 231.000000, 327.079237, 239.000000, 327.079237, 260.000000, 328.264893, 252.500000, 328.264893, 246.250000, 327.968479, 223.750000, 327.968479, 217.500000, 328.264893" fill="rgb(178, 34, 34)" style="fill-opacity:0.04" />
<!-- End 'A' -->
<!-- Begin 'C' -->
<ellipse cx="235.000000" cy="328.756507" rx="25.000000" ry="0.491614" fill="rgb(0, 0, 128)" style="fill-opacity:0.04" />
<ellipse cx="235.000000" cy="328.756507" rx="16.666667" ry="0.327742" fill="rgb(255, 255, 255)" style="fill-opacity:1.00" />
<rect height="0.491614" width="25.000000" x="235.000000" y="328.510700" fill="rgb(255, 255, 255)" style="fill-opacity:1.00" />
<!-- End 'C' -->
<!-- Begin 'T' -->
<rect height="0.120301" width="50.000000" x="210.000000" y="329.248120" fill="rgb(0, 100, 0)" style="fill-opacity:0.04" />
<rect height="0.751880" width="10.000000" x="230.000000" y="329.248120" fill="rgb(0, 100, 0)" style="fill-opacity:0.04" />
<!-- End 'T' -->
<!-- Begin 'G' -->
<ellipse cx="235.000000" cy="388.539618" rx="25.000000" ry="48.539618" fill="rgb(255, 165, 0)" style="fill-opacity:0.93" />
<ellipse cx="235.000000" cy="388.539618" rx="16.666667" ry="32.359746" fill="rgb(255, 255, 255)" style="fill-opacity:1.00" />
<rect height="48.539618" width="25.000000" x="235.000000" y="364.269809" fill="rgb(255, 255, 255)" style="fill-opacity:1.00" />
<rect height="12.134905" width="25.000000" x="235.000000" y="400.674523" fill="rgb(255, 165, 0)" style="fill-opacity:0.93" />
<rect height="36.404714" width="6.250000" x="253.750000" y="400.674523" fill="rgb(255, 165, 0)" style="fill-opacity:0.93" />
<!-- End 'G' -->
<!-- Begin 'A' -->
<polygon points=" 210.000000, 438.264893, 231.000000, 437.079237, 239.000000, 437.079237, 260.000000, 438.264893, 252.500000, 438.264893, 246.250000, 437.968479, 223.750000, 437.968479, 217.500000, 438.264893" fill="rgb(178, 34, 34)" style="fill-opacity:0.93" />
<!-- End 'A' -->
<!-- Begin 'C' -->
<ellipse cx="235.000000" cy="438.756507" rx="25.000000" ry="0.491614" fill="rgb(0, 0, 128)" style="fill-opacity:0.93" />
<ellipse cx="235.000000" cy="438.756507" rx="16.666667" ry="0.327742" fill="rgb(255, 255, 255)" style="fill-opacity:1.00" />
<rect height="0.491614" width="25.000000" x="235.000000" y="438.510700" fill="rgb(255, 255, 255)" style="fill-opacity:1.00" />
<!-- End 'C' -->
<!-- Begin 'T' -->
<rect height="0.120301" width="50.000000" x="210.000000" y="439.248120" fill="rgb(0, 100, 0)" style="fill-opacity:0.93" />
<rect height="0.751880" width="10.000000" x="230.000000" y="439.248120" fill="rgb(0, 100, 0)" style="fill-opacity:0.93" />
<!-- End 'T' -->
<!-- Begin 'G' -->
<ellipse cx="295.000000" cy="58.033545" rx="25.000000" ry="48.033545" fill="rgb(255, 165, 0)" style="fill-opacity:0.01" />
<ellipse cx="295.000000" cy="58.033545" rx="16.666667" ry="32.022364" fill="rgb(255, 255, 255)" style="fill-opacity:1.00" />
<rect height="48.033545" width="25.000000" x="295.000000" y="34.016773" fill="rgb(255, 255, 255)" style="fill-opacity:1.00" />
<rect height="12.008386" width="25.000000" x="295.000000" y="70.041932" fill="rgb(255, 165, 0)" style="fill-opacity:0.01" />
<rect height="36.025159" width="6.250000" x="313.750000" y="70.041932" fill="rgb(255, 165, 0)" style="fill-opacity:0.01" />
<!-- End 'G' -->
<!-- Begin 'A' -->
<polygon points=" 270.000000, 107.397340, 291.000000, 106.067091, 299.000000, 106.067091, 320.000000, 107.397340, 312.500000, 107.397340, 306.250000, 107.064777, 283.750000, 107.064777, 277.500000, 107.397340" fill="rgb(178, 34, 34)" style="fill-opacity:0.01" />
<!-- End 'A' -->
<!-- Begin 'T' -->
<rect height="0.210526" width="50.000000" x="270.000000" y="107.397340" fill="rgb(0, 100, 0)" style="fill-opacity:0.01" />
<rect height="1.315789" width="10.000000" x="290.000000" y="107.397340" fill="rgb(0, 100, 0)" style="fill-opacity:0.01" />
<!-- End 'T' -->
<!-- Begin 'C' -->
<ellipse cx="295.000000" cy="109.356564" rx="25.000000" ry="0.643436" fill="rgb(0, 0, 128)" style="fill-opacity:0.01" />
<ellipse cx="295.000000" cy="109.356564" rx="16.666667" ry="0.428957" fill="rgb(255, 255, 255)" style="fill-opacity:1.00" />
<rect height="0.643436" width="25.000000" x="295.000000" y="109.034847" fill="rgb(255, 255, 255)" style="fill-opacity:1.00" />
<!-- End 'C' -->
<!-- Begin 'G' -->
<ellipse cx="295.000000" cy="168.033545" rx="25.000000" ry="48.033545" fill="rgb(255, 165, 0)" style="fill-opacity:0.01" />
<ellipse cx="295.000000" cy="168.033545" rx="16.666667" ry="32.022364" fill="rgb(255, 255, 255)" style="fill-opacity:1.00" />
<rect height="48.033545" width="25.000000" x="295.000000" y="144.016773" fill="rgb(255, 255, 255)" style="fill-opacity:1.00" />
<rect height="12.008386" width="25.000000" x="295.000000" y="180.041932" fill="rgb(255, 165, 0)" style="fill-opacity:0.01" />
<rect height="36.025159" width="6.250000" x="313.750000" y="180.041932" fill="rgb(255, 165, 0)" style="fill-opacity:0.01" />
<!-- End 'G' -->
<!-- Begin 'A' -->
<polygon points=" 270.000000, 217.397340, 291.000000, 216.067091, 299.000000, 216.067091, 320.000000, 217.397340, 312.500000, 217.397340, 306.250000, 217.064777, 283.750000, 217.064777, 277.500000, 217.397340" fill="rgb(178, 34, 34)" style="fill-opacity:0.01" />
<!-- End 'A' -->
<!-- Begin 'T' -->
<rect height="0.210526" width="50.000000" x="270.000000" y="217.397340" fill="rgb(0, 100, 0)" style="fill-opacity:0.01" />
<rect height="1.315789" width="10.000000" x="290.000000" y="217.397340" fill="rgb(0, 100, 0)" style="fill-opacity:0.01" />
<!-- End 'T' -->
<!-- Begin 'C' -->
<ellipse cx="295.000000" cy="219.356564" rx="25.000000" ry="0.643436" fill="rgb(0, 0, 128)" style="fill-opacity:0.01" />
<ellipse cx="295.000000" cy="219.356564" rx="16.666667" ry="0.428957" fill="rgb(255, 255, 255)" style="fill-opacity:1.00" />
<rect height="0.643436" width="25.000000" x="295.000000" y="219.034847" fill="rgb(255, 255, 255)" style="fill-opacity:1.00" />
<!-- End 'C' -->
<!-- Begin 'G' -->
<ellipse cx="295.000000" cy="278.033545" rx="25.000000" ry="48.033545" fill="rgb(255, 165, 0)" style="fill-opacity:0.97" />
<ellipse cx="295.000000" cy="278.033545" rx="16.666667" ry="32.022364" fill="rgb(255, 255, 255)" style="fill-opacity:1.00" />
<rect height="48.033545" width="25.000000" x="295.000000" y="254.016773" fill="rgb(255, 255, 255)" style="fill-opacity:1.00" />
<rect height="12.008386" width="25.000000" x="295.000000" y="290.041932" fill="rgb(255, 165, 0)" style="fill-opacity:0.97" />
<rect height="36.025159" width="6.250000" x="313.750000" y="290.041932" fill="rgb(255, 165, 0)" style="fill-opacity:0.97" />
<!-- End 'G' -->
<!-- Begin 'A' -->
<polygon points=" 270.000000, 327.397340, 291.000000, 326.067091, 299.000000, 326.067091, 320.000000, 327.397340, 312.500000, 327.397340, 306.250000, 327.064777, 283.750000, 327.064777, 277.500000, 327.397340" fill="rgb(178, 34, 34)" style="fill-opacity:0.97" />
<!-- End 'A' -->
<!-- Begin 'T' -->
<rect height="0.210526" width="50.000000" x="270.000000" y="327.397340" fill="rgb(0, 100, 0)" style="fill-opacity:0.97" />
<rect height="1.315789" width="10.000000" x="290.000000" y="327.397340" fill="rgb(0, 100, 0)" style="fill-opacity:0.97" />
<!-- End 'T' -->
<!-- Begin 'C' -->
<ellipse cx="295.000000" cy="329.356564" rx="25.000000" ry="0.643436" fill="rgb(0, 0, 128)" style="fill-opacity:0.97" />
<ellipse cx="295.000000" cy="329.356564" rx="16.666667" ry="0.428957" fill="rgb(255, 255, 255)" style="fill-opacity:1.00" />
<rect height="0.643436" width="25.000000" x="295.000000" y="329.034847" fill="rgb(255, 255, 255)" style="fill-opacity:1.00" />
<!-- End 'C' -->
<!-- Begin 'G' -->
<ellipse cx="295.000000" cy="388.033545" rx="25.000000" ry="48.033545" fill="rgb(255, 165, 0)" style="fill-opacity:0.01" />
<ellipse cx="295.000000" cy="388.033545" rx="16.666667" ry="32.022364" fill="rgb(255, 255, 255)" style="fill-opacity:1.00" />
<rect height="48.033545" width="25.000000" x="295.000000" y="364.016773" fill="rgb(255, 255, 255)" style="fill-opacity:1.00" />
<rect height="12.008386" width="25.000000" x="295.000000" y="400.041932" fill="rgb(255, 165, 0)" style="fill-opacity:0.01" />
<rect height="36.025159" width="6.250000" x="313.750000" y="400.041932" fill="rgb(255, 165, 0)" style="fill-opacity:0.01" />
<!-- End 'G' -->
<!-- Begin 'A' -->
<polygon points=" 270.000000, 437.397340, 291.000000, 436.067091, 299.000000, 436.067091, 320.000000, 437.397340, 312.500000, 437.397340, 306.250000, 437.064777, 283.750000, 437.064777, 277.500000, 437.397340" fill="rgb(178, 34, 34)" style="fill-opacity:0.01" />
<!-- End 'A' -->
<!-- Begin 'T' -->
<rect height="0.210526" width="50.000000" x="270.000000" y="437.397340" fill="rgb(0, 100, 0)" style="fill-opacity:0.01" />
<rect height="1.315789" width="10.000000" x="290.000000" y="437.397340" fill="rgb(0, 100, 0)" style="fill-opacity:0.01" />
<!-- End 'T' -->
<!-- Begin 'C' -->
<ellipse cx="295.000000" cy="439.356564" rx="25.000000" ry="0.643436" fill="rgb(0, 0, 128)" style="fill-opacity:0.01" />
<ellipse cx="295.000000" cy="439.356564" rx="16.666667" ry="0.428957" fill="rgb(255, 255, 255)" style="fill-opacity:1.00" />
<rect height="0.643436" width="25.000000" x="295.000000" y="439.034847" fill="rgb(255, 255, 255)" style="fill-opacity:1.00" />
<!-- End 'C' -->
<!-- Begin 'C' -->
<ellipse cx="355.000000" cy="48.786871" rx="25.000000" ry="38.786871" fill="rgb(0, 0, 128)" style="fill-opacity:0.01" />
<ellipse cx="355.000000" cy="48.786871" rx="16.666667" ry="25.857914" fill="rgb(255, 255, 255)" style="fill-opacity:1.00" />
<rect height="38.786871" width="25.000000" x="355.000000" y="29.393436" fill="rgb(255, 255, 255)" style="fill-opacity:1.00" />
<!-- End 'C' -->
<!-- Begin 'A' -->
<polygon points=" 330.000000, 105.315211, 351.000000, 87.573742, 359.000000, 87.573742, 380.000000, 105.315211, 372.500000, 105.315211, 366.250000, 100.879844, 343.750000, 100.879844, 337.500000, 105.315211" fill="rgb(178, 34, 34)" style="fill-opacity:0.01" />
<polygon points=" 355.000000, 91.122036, 347.000000, 97.218623, 362.000000, 97.218623" fill="rgb(255, 255, 255)" style="fill-opacity:1.00" />
<!-- End 'A' -->
<!-- Begin 'T' -->
<rect height="0.377097" width="50.000000" x="330.000000" y="105.315211" fill="rgb(0, 100, 0)" style="fill-opacity:0.01" />
<rect height="2.356854" width="10.000000" x="350.000000" y="105.315211" fill="rgb(0, 100, 0)" style="fill-opacity:0.01" />
<!-- End 'T' -->
<!-- Begin 'G' -->
<ellipse cx="355.000000" cy="108.836032" rx="25.000000" ry="1.163968" fill="rgb(255, 165, 0)" style="fill-opacity:0.01" />
<ellipse cx="355.000000" cy="108.836032" rx="16.666667" ry="0.775978" fill="rgb(255, 255, 255)" style="fill-opacity:1.00" />
<rect height="1.163968" width="25.000000" x="355.000000" y="108.254049" fill="rgb(255, 255, 255)" style="fill-opacity:1.00" />
<rect height="0.290992" width="25.000000" x="355.000000" y="109.127024" fill="rgb(255, 165, 0)" style="fill-opacity:0.01" />
<rect height="0.872976" width="6.250000" x="373.750000" y="109.127024" fill="rgb(255, 165, 0)" style="fill-opacity:0.01" />
<!-- End 'G' -->
<!-- Begin 'C' -->
<ellipse cx="355.000000" cy="158.786871" rx="25.000000" ry="38.786871" fill="rgb(0, 0, 128)" style="fill-opacity:0.01" />
<ellipse cx="355.000000" cy="158.786871" rx="16.666667" ry="25.857914" fill="rgb(255, 255, 255)" style="fill-opacity:1.00" />
<rect height="38.786871" width="25.000000" x="355.000000" y="139.393436" fill="rgb(255, 255, 255)" style="fill-opacity:1.00" />
<!-- End 'C' -->
<!-- Begin 'A' -->
<polygon points=" 330.000000, 215.315211, 351.000000, 197.573742, 359.000000, 197.573742, 380.000000, 215.315211, 372.500000, 215.315211, 366.250000, 210.879844, 343.750000, 210.879844, 337.500000, 215.315211" fill="rgb(178, 34, 34)" style="fill-opacity:0.01" />
<polygon points=" 355.000000, 201.122036, 347.000000, 207.218623, 362.000000, 207.218623" fill="rgb(255, 255, 255)" style="fill-opacity:1.00" />
<!-- End 'A' -->
<!-- Begin 'T' -->
<rect height="0.377097" width="50.000000" x="330.000000" y="215.315211" fill="rgb(0, 100, 0)" style="fill-opacity:0.01" />
<rect height="2.356854" width="10.000000" x="350.000000" y="215.315211" fill="rgb(0, 100, 0)" style="fill-opacity:0.01" />
<!-- End 'T' -->
<!-- Begin 'G' -->
<ellipse cx="355.000000" cy="218.836032" rx="25.000000" ry="1.163968" fill="rgb(255, 165, 0)" style="fill-opacity:0.01" />
<ellipse cx="355.000000" cy="218.836032" rx="16.666667" ry="0.775978" fill="rgb(255, 255, 255)" style="fill-opacity:1.00" />
<rect height="1.163968" width="25.000000" x="355.000000" y="218.254049" fill="rgb(255, 255, 255)" style="fill-opacity:1.00" />
<rect height="0.290992" width="25.000000" x="355.000000" y="219.127024" fill="rgb(255, 165, 0)" style="fill-opacity:0.01" />
<rect height="0.872976" width="6.250000" x="373.750000" y="219.127024" fill="rgb(255, 165, 0)" style="fill-opacity:0.01" />
<!-- End 'G' -->
<!-- Begin 'C' -->
<ellipse cx="355.000000" cy="268.786871" rx="25.000000" ry="38.786871" fill="rgb(0, 0, 128)" style="fill-opacity:0.96" />
<ellipse cx="355.000000" cy="268.786871" rx="16.666667" ry="25.857914" fill="rgb(255, 255, 255)" style="fill-opacity:1.00" />
<rect height="38.786871" width="25.000000" x="355.000000" y="249.393436" fill="rgb(255, 255, 255)" style="fill-opacity:1.00" />
<!-- End 'C' -->
<!-- Begin 'A' -->
<polygon points=" 330.000000, 325.315211, 351.000000, 307.573742, 359.000000, 307.573742, 380.000000, 325.315211, 372.500000, 325.315211, 366.250000, 320.879844, 343.750000, 320.879844, 337.500000, 325.315211" fill="rgb(178, 34, 34)" style="fill-opacity:0.96" />
<polygon points=" 355.000000, 311.122036, 347.000000, 317.218623, 362.000000, 317.218623" fill="rgb(255, 255, 255)" style="fill-opacity:1.00" />
<!-- End 'A' -->
<!-- Begin 'T' -->
<rect height="0.377097" width="50.000000" x="330.000000" y="325.315211" fill="rgb(0, 100, 0)" style="fill-opacity:0.96" />
<rect height="2.356854" width="10.000000" x="350.000000" y="325.315211" fill="rgb(0, 100, 0)" style="fill-opacity:0.96" />
<!-- End 'T' -->
<!-- Begin 'G' -->
<ellipse cx="355.000000" cy="328.836032" rx="25.000000" ry="1.163968" fill="rgb(255, 165, 0)" style="fill-opacity:0.96" />
<ellipse cx="355.000000" cy="328.836032" rx="16.666667" ry="0.775978" fill="rgb(255, 255, 255)" style="fill-opacity:1.00" />
<rect height="1.163968" width="25.000000" x="355.000000" y="328.254049" fill="rgb(255, 255, 255)" style="fill-opacity:1.00" />
<rect height="0.290992" width="25.000000" x="355.000000" y="329.127024" fill="rgb(255, 165, 0)" style="fill-opacity:0.96" />
<rect height="0.872976" width="6.250000" x="373.750000" y="329.127024" fill="rgb(255, 165, 0)" style="fill-opacity:0.96" />
<!-- End 'G' -->
<!-- Begin 'C' -->
<ellipse cx="355.000000" cy="378.786871" rx="25.000000" ry="38.786871" fill="rgb(0, 0, 128)" style="fill-opacity:0.01" />
<ellipse cx="355.000000" cy="378.786871" rx="16.666667" ry="25.857914" fill="rgb(255, 255, 255)" style="fill-opacity:1.00" />
<rect height="38.786871" width="25.000000" x="355.000000" y="359.393436" fill="rgb(255, 255, 255)" style="fill-opacity:1.00" />
<!-- End 'C' -->
<!-- Begin 'A' -->
<polygon points=" 330.000000, 435.315211, 351.000000, 417.573742, 359.000000, 417.573742, 380.000000, 435.315211, 372.500000, 435.315211, 366.250000, 430.879844, 343.750000, 430.879844, 337.500000, 435.315211" fill="rgb(178, 34, 34)" style="fill-opacity:0.01" />
<polygon points=" 355.000000, 421.122036, 347.000000, 427.218623, 362.000000, 427.218623" fill="rgb(255, 255, 255)" style="fill-opacity:1.00" />
<!-- End 'A' -->
<!-- Begin 'T' -->
<rect height="0.377097" width="50.000000" x="330.000000" y="435.315211" fill="rgb(0, 100, 0)" style="fill-opacity:0.01" />
<rect height="2.356854" width="10.000000" x="350.000000" y="435.315211" fill="rgb(0, 100, 0)" style="fill-opacity:0.01" />
<!-- End 'T' -->
<!-- Begin 'G' -->
<ellipse cx="355.000000" cy="438.836032" rx="25.000000" ry="1.163968" fill="rgb(255, 165, 0)" style="fill-opacity:0.01" />
<ellipse cx="355.000000" cy="438.836032" rx="16.666667" ry="0.775978" fill="rgb(255, 255, 255)" style="fill-opacity:1.00" />
<rect height="1.163968" width="25.000000" x="355.000000" y="438.254049" fill="rgb(255, 255, 255)" style="fill-opacity:1.00" />
<rect height="0.290992" width="25.000000" x="355.000000" y="439.127024" fill="rgb(255, 165, 0)" style="fill-opacity:0.01" />
<rect height="0.872976" width="6.250000" x="373.750000" y="439.127024" fill="rgb(255, 165, 0)" style="fill-opacity:0.01" />
<!-- End 'G' -->
<!-- Begin 'A' -->
<polygon points=" 390.000000, 57.700983, 411.000000, 10.000000, 419.000000, 10.000000, 440.000000, 57.700983, 432.500000, 57.700983, 426.250000, 45.775737, 403.750000, 45.775737, 397.500000, 57.700983" fill="rgb(178, 34, 34)" style="fill-opacity:0.18" />
<polygon points=" 415.000000, 19.540197, 407.000000, 37.620590, 422.000000, 37.620590" fill="rgb(255, 255, 255)" style="fill-opacity:1.00" />
<!-- End 'A' -->
<!-- Begin 'T' -->
<rect height="3.349913" width="50.000000" x="390.000000" y="57.700983" fill="rgb(0, 100, 0)" style="fill-opacity:0.18" />
<rect height="20.936958" width="10.000000" x="410.000000" y="57.700983" fill="rgb(0, 100, 0)" style="fill-opacity:0.18" />
<!-- End 'T' -->
<!-- Begin 'G' -->
<ellipse cx="415.000000" cy="87.219491" rx="25.000000" ry="8.581550" fill="rgb(255, 165, 0)" style="fill-opacity:0.18" />
<ellipse cx="415.000000" cy="87.219491" rx="16.666667" ry="5.721033" fill="rgb(255, 255, 255)" style="fill-opacity:1.00" />
<rect height="8.581550" width="25.000000" x="415.000000" y="82.928716" fill="rgb(255, 255, 255)" style="fill-opacity:1.00" />
<rect height="2.145388" width="25.000000" x="415.000000" y="89.364879" fill="rgb(255, 165, 0)" style="fill-opacity:0.18" />
<rect height="6.436163" width="6.250000" x="433.750000" y="89.364879" fill="rgb(255, 165, 0)" style="fill-opacity:0.18" />
<!-- End 'G' -->
<!-- Begin 'C' -->
<ellipse cx="415.000000" cy="102.900521" rx="25.000000" ry="7.099479" fill="rgb(0, 0, 128)" style="fill-opacity:0.18" />
<ellipse cx="415.000000" cy="102.900521" rx="16.666667" ry="4.732986" fill="rgb(255, 255, 255)" style="fill-opacity:1.00" />
<rect height="7.099479" width="25.000000" x="415.000000" y="99.350781" fill="rgb(255, 255, 255)" style="fill-opacity:1.00" />
<!-- End 'C' -->
<!-- Begin 'A' -->
<polygon points=" 390.000000, 167.700983, 411.000000, 120.000000, 419.000000, 120.000000, 440.000000, 167.700983, 432.500000, 167.700983, 426.250000, 155.775737, 403.750000, 155.775737, 397.500000, 167.700983" fill="rgb(178, 34, 34)" style="fill-opacity:0.78" />
<polygon points=" 415.000000, 129.540197, 407.000000, 147.620590, 422.000000, 147.620590" fill="rgb(255, 255, 255)" style="fill-opacity:1.00" />
<!-- End 'A' -->
<!-- Begin 'T' -->
<rect height="3.349913" width="50.000000" x="390.000000" y="167.700983" fill="rgb(0, 100, 0)" style="fill-opacity:0.78" />
<rect height="20.936958" width="10.000000" x="410.000000" y="167.700983" fill="rgb(0, 100, 0)" style="fill-opacity:0.78" />
<!-- End 'T' -->
<!-- Begin 'G' -->
<ellipse cx="415.000000" cy="197.219491" rx="25.000000" ry="8.581550" fill="rgb(255, 165, 0)" style="fill-opacity:0.78" />
<ellipse cx="415.000000" cy="197.219491" rx="16.666667" ry="5.721033" fill="rgb(255, 255, 255)" style="fill-opacity:1.00" />
<rect height="8.581550" width="25.000000" x="415.000000" y="192.928716" fill="rgb(255, 255, 255)" style="fill-opacity:1.00" />
<rect height="2.145388" width="25.000000" x="415.000000" y="199.364879" fill="rgb(255, 165, 0)" style="fill-opacity:0.78" />
<rect height="6.436163" width="6.250000" x="433.750000" y="199.364879" fill="rgb(255, 165, 0)" style="fill-opacity:0.78" />
<!-- End 'G' -->
<!-- Begin 'C' -->
<ellipse cx="415.000000" cy="212.900521" rx="25.000000" ry="7.099479" fill="rgb(0, 0, 128)" style="fill-opacity:0.78" />
<ellipse cx="415.000000" cy="212.900521" rx="16.666667" ry="4.732986" fill="rgb(255, 255, 255)" style="fill-opacity:1.00" />
<rect height="7.099479" width="25.000000" x="415.000000" y="209.350781" fill="rgb(255, 255, 255)" style="fill-opacity:1.00" />
<!-- End 'C' -->
<!-- Begin 'A' -->
<polygon points=" 390.000000, 277.700983, 411.000000, 230.000000, 419.000000, 230.000000, 440.000000, 277.700983, 432.500000, 277.700983, 426.250000, 265.775737, 403.750000, 265.775737, 397.500000, 277.700983" fill="rgb(178, 34, 34)" style="fill-opacity:0.02" />
<polygon points=" 415.000000, 239.540197, 407.000000, 257.620590, 422.000000, 257.620590" fill="rgb(255, 255, 255)" style="fill-opacity:1.00" />
<!-- End 'A' -->
<!-- Begin 'T' -->
<rect height="3.349913" width="50.000000" x="390.000000" y="277.700983" fill="rgb(0, 100, 0)" style="fill-opacity:0.02" />
<rect height="20.936958" width="10.000000" x="410.000000" y="277.700983" fill="rgb(0, 100, 0)" style="fill-opacity:0.02" />
<!-- End 'T' -->
<!-- Begin 'G' -->
<ellipse cx="415.000000" cy="307.219491" rx="25.000000" ry="8.581550" fill="rgb(255, 165, 0)" style="fill-opacity:0.02" />
<ellipse cx="415.000000" cy="307.219491" rx="16.666667" ry="5.721033" fill="rgb(255, 255, 255)" style="fill-opacity:1.00" />
<rect height="8.581550" width="25.000000" x="415.000000" y="302.928716" fill="rgb(255, 255, 255)" style="fill-opacity:1.00" />
<rect height="2.145388" width="25.000000" x="415.000000" y="309.364879" fill="rgb(255, 165, 0)" style="fill-opacity:0.02" />
<rect height="6.436163" width="6.250000" x="433.750000" y="309.364879" fill="rgb(255, 165, 0)" style="fill-opacity:0.02" />
<!-- End 'G' -->
<!-- Begin 'C' -->
<ellipse cx="415.000000" cy="322.900521" rx="25.000000" ry="7.099479" fill="rgb(0, 0, 128)" style="fill-opacity:0.02" />
<ellipse cx="415.000000" cy="322.900521" rx="16.666667" ry="4.732986" fill="rgb(255, 255, 255)" style="fill-opacity:1.00" />
<rect height="7.099479" width="25.000000" x="415.000000" y="319.350781" fill="rgb(255, 255, 255)" style="fill-opacity:1.00" />
<!-- End 'C' -->
<!-- Begin 'A' -->
<polygon points=" 390.000000, 387.700983, 411.000000, 340.000000, 419.000000, 340.000000, 440.000000, 387.700983, 432.500000, 387.700983, 426.250000, 375.775737, 403.750000, 375.775737, 397.500000, 387.700983" fill="rgb(178, 34, 34)" style="fill-opacity:0.02" />
<polygon points=" 415.000000, 349.540197, 407.000000, 367.620590, 422.000000, 367.620590" fill="rgb(255, 255, 255)" style="fill-opacity:1.00" />
<!-- End 'A' -->
<!-- Begin 'T' -->
<rect height="3.349913" width="50.000000" x="390.000000" y="387.700983" fill="rgb(0, 100, 0)" style="fill-opacity:0.02" />
<rect height="20.936958" width="10.000000" x="410.000000" y="387.700983" fill="rgb(0, 100, 0)" style="fill-opacity:0.02" />
<!-- End 'T' -->
<!-- Begin 'G' -->
<ellipse cx="415.000000" cy="417.219491" rx="25.000000" ry="8.581550" fill="rgb(255, 165, 0)" style="fill-opacity:0.02" />
<ellipse cx="415.000000" cy="417.219491" rx="16.666667" ry="5.721033" fill="rgb(255, 255, 255)" style="fill-opacity:1.00" />
<rect height="8.581550" width="25.000000" x="415.000000" y="412.928716" fill="rgb(255, 255, 255)" style="fill-opacity:1.00" />
<rect height="2.145388" width="25.000000" x="415.000000" y="419.364879" fill="rgb(255, 165, 0)" style="fill-opacity:0.02" />
<rect height="6.436163" width="6.250000" x="433.750000" y="419.364879" fill="rgb(255, 165, 0)" style="fill-opacity:0.02" />
<!-- End 'G' -->
<!-- Begin 'C' -->
<ellipse cx="415.000000" cy="432.900521" rx="25.000000" ry="7.099479" fill="rgb(0, 0, 128)" style="fill-opacity:0.02" />
<ellipse cx="415.000000" cy="432.900521" rx="16.666667" ry="4.732986" fill="rgb(255, 255, 255)" style="fill-opacity:1.00" />
<rect height="7.099479" width="25.000000" x="415.000000" y="429.350781" fill="rgb(255, 255, 255)" style="fill-opacity:1.00" />
<!-- End 'C' -->
<text x="250.000000" y="495">
IC = 6.97
</text>

</svg>
