<?xml version="1.0" encoding="UTF-8" standalone="yes"?>
                 <!DOCTYPE svg PUBLIC "-//W3C//DTD SVG 1.0//EN" "http://www.w3.org/TR/2001/REC-SVG-20010904/DTD/svg10.dtd">
                 <svg height="170" width="960" xmlns="http://www.w3.org/2000/svg" xmlns:xlink="http://www.w3.org/1999/xlink">
                 <line x1="85" y1="120" x2="927" y2="120" style="stroke:rgb(99,99,99);stroke-width:2" />
<rect height="7.000000" width="2.000000" x="85.000000" y="120.000000" fill="rgb(0, 0, 0)" style="fill-opacity:1.00" />
<text x="107.000000" y="140">
1
</text>
<rect height="7.000000" width="2.000000" x="145.000000" y="120.000000" fill="rgb(0, 0, 0)" style="fill-opacity:1.00" />
<text x="167.000000" y="140">
2
</text>
<rect height="7.000000" width="2.000000" x="205.000000" y="120.000000" fill="rgb(0, 0, 0)" style="fill-opacity:1.00" />
<text x="227.000000" y="140">
3
</text>
<rect height="7.000000" width="2.000000" x="265.000000" y="120.000000" fill="rgb(0, 0, 0)" style="fill-opacity:1.00" />
<text x="287.000000" y="140">
4
</text>
<rect height="7.000000" width="2.000000" x="325.000000" y="120.000000" fill="rgb(0, 0, 0)" style="fill-opacity:1.00" />
<text x="347.000000" y="140">
5
</text>
<rect height="7.000000" width="2.000000" x="385.000000" y="120.000000" fill="rgb(0, 0, 0)" style="fill-opacity:1.00" />
<text x="407.000000" y="140">
6
</text>
<rect height="7.000000" width="2.000000" x="445.000000" y="120.000000" fill="rgb(0, 0, 0)" style="fill-opacity:1.00" />
<text x="467.000000" y="140">
7
</text>
<rect height="7.000000" width="2.000000" x="505.000000" y="120.000000" fill="rgb(0, 0, 0)" style="fill-opacity:1.00" />
<text x="527.000000" y="140">
8
</text>
<rect height="7.000000" width="2.000000" x="565.000000" y="120.000000" fill="rgb(0, 0, 0)" style="fill-opacity:1.00" />
<text x="587.000000" y="140">
9
</text>
<rect height="7.000000" width="2.000000" x="625.000000" y="120.000000" fill="rgb(0, 0, 0)" style="fill-opacity:1.00" />
<text x="647.000000" y="140">
10
</text>
<rect height="7.000000" width="2.000000" x="685.000000" y="120.000000" fill="rgb(0, 0, 0)" style="fill-opacity:1.00" />
<text x="707.000000" y="140">
11
</text>
<rect height="7.000000" width="2.000000" x="745.000000" y="120.000000" fill="rgb(0, 0, 0)" style="fill-opacity:1.00" />
<text x="767.000000" y="140">
12
</text>
<rect height="7.000000" width="2.000000" x="805.000000" y="120.000000" fill="rgb(0, 0, 0)" style="fill-opacity:1.00" />
<text x="827.000000" y="140">
13
</text>
<rect height="7.000000" width="2.000000" x="865.000000" y="120.000000" fill="rgb(0, 0, 0)" style="fill-opacity:1.00" />
<text x="887.000000" y="140">
14
</text>
<rect height="7.000000" width="2.000000" x="925.000000" y="120.000000" fill="rgb(0, 0, 0)" style="fill-opacity:1.00" />
<line x1="80" y1="112" x2="80" y2="10" style="stroke:rgb(99,99,99);stroke-width:2" />
<rect height="2.000000" width="7.000000" x="73.000000" y="110.000000" fill="rgb(0, 0, 0)" style="fill-opacity:1.00" />
<text x="63" y="115">
0
</text>
<rect height="2.000000" width="7.000000" x="73.000000" y="60.000000" fill="rgb(0, 0, 0)" style="fill-opacity:1.00" />
<text x="63" y="65">
1
</text>
<rect height="2.000000" width="7.000000" x="73.000000" y="10.000000" fill="rgb(0, 0, 0)" style="fill-opacity:1.00" />
<text x="63" y="15">
2
</text>
<text x="50" y="65"
transform="rotate(-90, 50, 70)">
bits
</text>
<!-- Begin 'A' -->
<polygon points=" 90.000000, 106.511881, 111.000000, 103.818900, 119.000000, 103.818900, 140.000000, 106.511881, 132.500000, 106.511881, 126.250000, 105.838635, 103.750000, 105.838635, 97.500000, 106.511881" fill="rgb(178, 34, 34)" style="fill-opacity:1.00" />
<!-- End 'A' -->
<!-- Begin 'T' -->
<rect height="0.208424" width="50.000000" x="90.000000" y="106.511881" fill="rgb(0, 100, 0)" style="fill-opacity:1.00" />
<rect height="1.302652" width="10.000000" x="110.000000" y="106.511881" fill="rgb(0, 100, 0)" style="fill-opacity:1.00" />
<!-- End 'T' -->
<!-- Begin 'G' -->
<ellipse cx="115.000000" cy="108.421878" rx="25.000000" ry="0.607346" fill="rgb(255, 165, 0)" style="fill-opacity:1.00" />
<ellipse cx="115.000000" cy="108.421878" rx="16.666667" ry="0.404897" fill="rgb(255, 255, 255)" style="fill-opacity:1.00" />
<rect height="0.607346" width="25.000000" x="115.000000" y="108.118205" fill="rgb(255, 255, 255)" style="fill-opacity:1.00" />
<rect height="0.151836" width="25.000000" x="115.000000" y="108.573715" fill="rgb(255, 165, 0)" style="fill-opacity:1.00" />
<rect height="0.455509" width="6.250000" x="133.750000" y="108.573715" fill="rgb(255, 165, 0)" style="fill-opacity:1.00" />
<!-- End 'G' -->
<!-- Begin 'C' -->
<ellipse cx="115.000000" cy="109.514612" rx="25.000000" ry="0.485388" fill="rgb(0, 0, 128)" style="fill-opacity:1.00" />
<ellipse cx="115.000000" cy="109.514612" rx="16.666667" ry="0.323592" fill="rgb(255, 255, 255)" style="fill-opacity:1.00" />
<rect height="0.485388" width="25.000000" x="115.000000" y="109.271918" fill="rgb(255, 255, 255)" style="fill-opacity:1.00" />
<!-- End 'C' -->
<!-- Begin 'A' -->
<polygon points=" 150.000000, 105.054934, 171.000000, 100.623602, 179.000000, 100.623602, 200.000000, 105.054934, 192.500000, 105.054934, 186.250000, 103.947101, 163.750000, 103.947101, 157.500000, 105.054934" fill="rgb(178, 34, 34)" style="fill-opacity:1.00" />
<!-- End 'A' -->
<!-- Begin 'G' -->
<ellipse cx="175.000000" cy="106.054041" rx="25.000000" ry="0.999107" fill="rgb(255, 165, 0)" style="fill-opacity:1.00" />
<ellipse cx="175.000000" cy="106.054041" rx="16.666667" ry="0.666072" fill="rgb(255, 255, 255)" style="fill-opacity:1.00" />
<rect height="0.999107" width="25.000000" x="175.000000" y="105.554487" fill="rgb(255, 255, 255)" style="fill-opacity:1.00" />
<rect height="0.249777" width="25.000000" x="175.000000" y="106.303818" fill="rgb(255, 165, 0)" style="fill-opacity:1.00" />
<rect height="0.749330" width="6.250000" x="193.750000" y="106.303818" fill="rgb(255, 165, 0)" style="fill-opacity:1.00" />
<!-- End 'G' -->
<!-- Begin 'T' -->
<rect height="0.291829" width="50.000000" x="150.000000" y="107.053148" fill="rgb(0, 100, 0)" style="fill-opacity:1.00" />
<rect height="1.823932" width="10.000000" x="170.000000" y="107.053148" fill="rgb(0, 100, 0)" style="fill-opacity:1.00" />
<!-- End 'T' -->
<!-- Begin 'C' -->
<ellipse cx="175.000000" cy="109.438540" rx="25.000000" ry="0.561460" fill="rgb(0, 0, 128)" style="fill-opacity:1.00" />
<ellipse cx="175.000000" cy="109.438540" rx="16.666667" ry="0.374307" fill="rgb(255, 255, 255)" style="fill-opacity:1.00" />
<rect height="0.561460" width="25.000000" x="175.000000" y="109.157810" fill="rgb(255, 255, 255)" style="fill-opacity:1.00" />
<!-- End 'C' -->
<!-- Begin 'A' -->
<polygon points=" 210.000000, 105.305863, 231.000000, 101.128428, 239.000000, 101.128428, 260.000000, 105.305863, 252.500000, 105.305863, 246.250000, 104.261504, 223.750000, 104.261504, 217.500000, 105.305863" fill="rgb(178, 34, 34)" style="fill-opacity:1.00" />
<!-- End 'A' -->
<!-- Begin 'T' -->
<rect height="0.310993" width="50.000000" x="210.000000" y="105.305863" fill="rgb(0, 100, 0)" style="fill-opacity:1.00" />
<rect height="1.943709" width="10.000000" x="230.000000" y="105.305863" fill="rgb(0, 100, 0)" style="fill-opacity:1.00" />
<!-- End 'T' -->
<!-- Begin 'G' -->
<ellipse cx="235.000000" cy="108.014072" rx="25.000000" ry="0.764501" fill="rgb(255, 165, 0)" style="fill-opacity:1.00" />
<ellipse cx="235.000000" cy="108.014072" rx="16.666667" ry="0.509667" fill="rgb(255, 255, 255)" style="fill-opacity:1.00" />
<rect height="0.764501" width="25.000000" x="235.000000" y="107.631822" fill="rgb(255, 255, 255)" style="fill-opacity:1.00" />
<rect height="0.191125" width="25.000000" x="235.000000" y="108.205198" fill="rgb(255, 165, 0)" style="fill-opacity:1.00" />
<rect height="0.573376" width="6.250000" x="253.750000" y="108.205198" fill="rgb(255, 165, 0)" style="fill-opacity:1.00" />
<!-- End 'G' -->
<!-- Begin 'C' -->
<ellipse cx="235.000000" cy="109.389287" rx="25.000000" ry="0.610713" fill="rgb(0, 0, 128)" style="fill-opacity:1.00" />
<ellipse cx="235.000000" cy="109.389287" rx="16.666667" ry="0.407142" fill="rgb(255, 255, 255)" style="fill-opacity:1.00" />
<rect height="0.610713" width="25.000000" x="235.000000" y="109.083930" fill="rgb(255, 255, 255)" style="fill-opacity:1.00" />
<!-- End 'C' -->
<!-- Begin 'A' -->
<polygon points=" 270.000000, 101.930988, 291.000000, 90.066262, 299.000000, 90.066262, 320.000000, 101.930988, 312.500000, 101.930988, 306.250000, 98.964806, 283.750000, 98.964806, 277.500000, 101.930988" fill="rgb(178, 34, 34)" style="fill-opacity:1.00" />
<polygon points=" 295.000000, 92.439207, 287.000000, 96.185097, 302.000000, 96.185097" fill="rgb(255, 255, 255)" style="fill-opacity:1.00" />
<!-- End 'A' -->
<!-- Begin 'T' -->
<rect height="0.560984" width="50.000000" x="270.000000" y="101.930988" fill="rgb(0, 100, 0)" style="fill-opacity:1.00" />
<rect height="3.506153" width="10.000000" x="290.000000" y="101.930988" fill="rgb(0, 100, 0)" style="fill-opacity:1.00" />
<!-- End 'T' -->
<!-- Begin 'G' -->
<ellipse cx="295.000000" cy="106.667916" rx="25.000000" ry="1.230776" fill="rgb(255, 165, 0)" style="fill-opacity:1.00" />
<ellipse cx="295.000000" cy="106.667916" rx="16.666667" ry="0.820517" fill="rgb(255, 255, 255)" style="fill-opacity:1.00" />
<rect height="1.230776" width="25.000000" x="295.000000" y="106.052529" fill="rgb(255, 255, 255)" style="fill-opacity:1.00" />
<rect height="0.307694" width="25.000000" x="295.000000" y="106.975610" fill="rgb(255, 165, 0)" style="fill-opacity:1.00" />
<rect height="0.923082" width="6.250000" x="313.750000" y="106.975610" fill="rgb(255, 165, 0)" style="fill-opacity:1.00" />
<!-- End 'G' -->
<!-- Begin 'C' -->
<ellipse cx="295.000000" cy="108.949346" rx="25.000000" ry="1.050654" fill="rgb(0, 0, 128)" style="fill-opacity:1.00" />
<ellipse cx="295.000000" cy="108.949346" rx="16.666667" ry="0.700436" fill="rgb(255, 255, 255)" style="fill-opacity:1.00" />
<rect height="1.050654" width="25.000000" x="295.000000" y="108.424019" fill="rgb(255, 255, 255)" style="fill-opacity:1.00" />
<!-- End 'C' -->
<!-- Begin 'A' -->
<polygon points=" 330.000000, 97.918957, 351.000000, 49.098192, 359.000000, 49.098192, 380.000000, 97.918957, 372.500000, 97.918957, 366.250000, 85.713766, 343.750000, 85.713766, 337.500000, 97.918957" fill="rgb(178, 34, 34)" style="fill-opacity:1.00" />
<polygon points=" 355.000000, 58.862345, 347.000000, 77.390651, 362.000000, 77.390651" fill="rgb(255, 255, 255)" style="fill-opacity:1.00" />
<!-- End 'A' -->
<!-- Begin 'G' -->
<ellipse cx="355.000000" cy="103.675198" rx="25.000000" ry="5.756240" fill="rgb(255, 165, 0)" style="fill-opacity:1.00" />
<ellipse cx="355.000000" cy="103.675198" rx="16.666667" ry="3.837494" fill="rgb(255, 255, 255)" style="fill-opacity:1.00" />
<rect height="5.756240" width="25.000000" x="355.000000" y="100.797077" fill="rgb(255, 255, 255)" style="fill-opacity:1.00" />
<rect height="1.439060" width="25.000000" x="355.000000" y="105.114258" fill="rgb(255, 165, 0)" style="fill-opacity:1.00" />
<rect height="4.317180" width="6.250000" x="373.750000" y="105.114258" fill="rgb(255, 165, 0)" style="fill-opacity:1.00" />
<!-- End 'G' -->
<!-- Begin 'T' -->
<rect height="0.055613" width="50.000000" x="330.000000" y="109.431438" fill="rgb(0, 100, 0)" style="fill-opacity:1.00" />
<rect height="0.347584" width="10.000000" x="350.000000" y="109.431438" fill="rgb(0, 100, 0)" style="fill-opacity:1.00" />
<!-- End 'T' -->
<!-- Begin 'C' -->
<ellipse cx="355.000000" cy="109.889511" rx="25.000000" ry="0.110489" fill="rgb(0, 0, 128)" style="fill-opacity:1.00" />
<ellipse cx="355.000000" cy="109.889511" rx="16.666667" ry="0.073659" fill="rgb(255, 255, 255)" style="fill-opacity:1.00" />
<rect height="0.110489" width="25.000000" x="355.000000" y="109.834266" fill="rgb(255, 255, 255)" style="fill-opacity:1.00" />
<!-- End 'C' -->
<!-- Begin 'A' -->
<polygon points=" 390.000000, 106.678209, 411.000000, 23.770332, 419.000000, 23.770332, 440.000000, 106.678209, 432.500000, 106.678209, 426.250000, 85.951240, 403.750000, 85.951240, 397.500000, 106.678209" fill="rgb(178, 34, 34)" style="fill-opacity:1.00" />
<polygon points=" 415.000000, 40.351907, 407.000000, 72.515058, 422.000000, 72.515058" fill="rgb(255, 255, 255)" style="fill-opacity:1.00" />
<!-- End 'A' -->
<!-- Begin 'G' -->
<ellipse cx="415.000000" cy="107.916426" rx="25.000000" ry="1.238217" fill="rgb(255, 165, 0)" style="fill-opacity:1.00" />
<ellipse cx="415.000000" cy="107.916426" rx="16.666667" ry="0.825478" fill="rgb(255, 255, 255)" style="fill-opacity:1.00" />
<rect height="1.238217" width="25.000000" x="415.000000" y="107.297318" fill="rgb(255, 255, 255)" style="fill-opacity:1.00" />
<rect height="0.309554" width="25.000000" x="415.000000" y="108.225981" fill="rgb(255, 165, 0)" style="fill-opacity:1.00" />
<rect height="0.928663" width="6.250000" x="433.750000" y="108.225981" fill="rgb(255, 165, 0)" style="fill-opacity:1.00" />
<!-- End 'G' -->
<!-- Begin 'T' -->
<rect height="0.097185" width="50.000000" x="390.000000" y="109.154644" fill="rgb(0, 100, 0)" style="fill-opacity:1.00" />
<rect height="0.607404" width="10.000000" x="410.000000" y="109.154644" fill="rgb(0, 100, 0)" style="fill-opacity:1.00" />
<!-- End 'T' -->
<!-- Begin 'C' -->
<ellipse cx="415.000000" cy="109.881024" rx="25.000000" ry="0.118976" fill="rgb(0, 0, 128)" style="fill-opacity:1.00" />
<ellipse cx="415.000000" cy="109.881024" rx="16.666667" ry="0.079317" fill="rgb(255, 255, 255)" style="fill-opacity:1.00" />
<rect height="0.118976" width="25.000000" x="415.000000" y="109.821536" fill="rgb(255, 255, 255)" style="fill-opacity:1.00" />
<!-- End 'C' -->
<!-- Begin 'T' -->
<rect height="15.319505" width="50.000000" x="450.000000" y="13.569536" fill="rgb(0, 100, 0)" style="fill-opacity:1.00" />
<rect height="95.746907" width="10.000000" x="470.000000" y="13.569536" fill="rgb(0, 100, 0)" style="fill-opacity:1.00" />
<!-- End 'T' -->
<!-- Begin 'A' -->
<polygon points=" 450.000000, 109.652928, 471.000000, 109.316443, 479.000000, 109.316443, 500.000000, 109.652928, 492.500000, 109.652928, 486.250000, 109.568807, 463.750000, 109.568807, 457.500000, 109.652928" fill="rgb(178, 34, 34)" style="fill-opacity:1.00" />
<!-- End 'A' -->
<!-- Begin 'G' -->
<ellipse cx="475.000000" cy="109.756741" rx="25.000000" ry="0.103813" fill="rgb(255, 165, 0)" style="fill-opacity:1.00" />
<ellipse cx="475.000000" cy="109.756741" rx="16.666667" ry="0.069209" fill="rgb(255, 255, 255)" style="fill-opacity:1.00" />
<rect height="0.103813" width="25.000000" x="475.000000" y="109.704834" fill="rgb(255, 255, 255)" style="fill-opacity:1.00" />
<rect height="0.025953" width="25.000000" x="475.000000" y="109.782694" fill="rgb(255, 165, 0)" style="fill-opacity:1.00" />
<rect height="0.077860" width="6.250000" x="493.750000" y="109.782694" fill="rgb(255, 165, 0)" style="fill-opacity:1.00" />
<!-- End 'G' -->
<!-- Begin 'C' -->
<ellipse cx="475.000000" cy="109.930277" rx="25.000000" ry="0.069723" fill="rgb(0, 0, 128)" style="fill-opacity:1.00" />
<ellipse cx="475.000000" cy="109.930277" rx="16.666667" ry="0.046482" fill="rgb(255, 255, 255)" style="fill-opacity:1.00" />
<rect height="0.069723" width="25.000000" x="475.000000" y="109.895416" fill="rgb(255, 255, 255)" style="fill-opacity:1.00" />
<!-- End 'C' -->
<!-- Begin 'C' -->
<ellipse cx="535.000000" cy="66.408140" rx="25.000000" ry="39.621482" fill="rgb(0, 0, 128)" style="fill-opacity:1.00" />
<ellipse cx="535.000000" cy="66.408140" rx="16.666667" ry="26.414322" fill="rgb(255, 255, 255)" style="fill-opacity:1.00" />
<rect height="39.621482" width="25.000000" x="535.000000" y="46.597399" fill="rgb(255, 255, 255)" style="fill-opacity:1.00" />
<!-- End 'C' -->
<!-- Begin 'A' -->
<polygon points=" 510.000000, 108.662577, 531.000000, 106.029622, 539.000000, 106.029622, 560.000000, 108.662577, 552.500000, 108.662577, 546.250000, 108.004338, 523.750000, 108.004338, 517.500000, 108.662577" fill="rgb(178, 34, 34)" style="fill-opacity:1.00" />
<!-- End 'A' -->
<!-- Begin 'T' -->
<rect height="0.136968" width="50.000000" x="510.000000" y="108.662577" fill="rgb(0, 100, 0)" style="fill-opacity:1.00" />
<rect height="0.856050" width="10.000000" x="530.000000" y="108.662577" fill="rgb(0, 100, 0)" style="fill-opacity:1.00" />
<!-- End 'T' -->
<!-- Begin 'G' -->
<ellipse cx="535.000000" cy="109.759313" rx="25.000000" ry="0.240687" fill="rgb(255, 165, 0)" style="fill-opacity:1.00" />
<ellipse cx="535.000000" cy="109.759313" rx="16.666667" ry="0.160458" fill="rgb(255, 255, 255)" style="fill-opacity:1.00" />
<rect height="0.240687" width="25.000000" x="535.000000" y="109.638970" fill="rgb(255, 255, 255)" style="fill-opacity:1.00" />
<rect height="0.060172" width="25.000000" x="535.000000" y="109.819485" fill="rgb(255, 165, 0)" style="fill-opacity:1.00" />
<rect height="0.180515" width="6.250000" x="553.750000" y="109.819485" fill="rgb(255, 165, 0)" style="fill-opacity:1.00" />
<!-- End 'G' -->
<!-- Begin 'A' -->
<polygon points=" 570.000000, 105.132384, 591.000000, 29.971223, 599.000000, 29.971223, 620.000000, 105.132384, 612.500000, 105.132384, 606.250000, 86.342094, 583.750000, 86.342094, 577.500000, 105.132384" fill="rgb(178, 34, 34)" style="fill-opacity:1.00" />
<polygon points=" 595.000000, 45.003455, 587.000000, 74.067920, 602.000000, 74.067920" fill="rgb(255, 255, 255)" style="fill-opacity:1.00" />
<!-- End 'A' -->
<!-- Begin 'G' -->
<ellipse cx="595.000000" cy="106.819873" rx="25.000000" ry="1.687489" fill="rgb(255, 165, 0)" style="fill-opacity:1.00" />
<ellipse cx="595.000000" cy="106.819873" rx="16.666667" ry="1.124993" fill="rgb(255, 255, 255)" style="fill-opacity:1.00" />
<rect height="1.687489" width="25.000000" x="595.000000" y="105.976129" fill="rgb(255, 255, 255)" style="fill-opacity:1.00" />
<rect height="0.421872" width="25.000000" x="595.000000" y="107.241745" fill="rgb(255, 165, 0)" style="fill-opacity:1.00" />
<rect height="1.265617" width="6.250000" x="613.750000" y="107.241745" fill="rgb(255, 165, 0)" style="fill-opacity:1.00" />
<!-- End 'G' -->
<!-- Begin 'T' -->
<rect height="0.182996" width="50.000000" x="570.000000" y="108.507362" fill="rgb(0, 100, 0)" style="fill-opacity:1.00" />
<rect height="1.143727" width="10.000000" x="590.000000" y="108.507362" fill="rgb(0, 100, 0)" style="fill-opacity:1.00" />
<!-- End 'T' -->
<!-- Begin 'C' -->
<ellipse cx="595.000000" cy="109.825545" rx="25.000000" ry="0.174455" fill="rgb(0, 0, 128)" style="fill-opacity:1.00" />
<ellipse cx="595.000000" cy="109.825545" rx="16.666667" ry="0.116303" fill="rgb(255, 255, 255)" style="fill-opacity:1.00" />
<rect height="0.174455" width="25.000000" x="595.000000" y="109.738317" fill="rgb(255, 255, 255)" style="fill-opacity:1.00" />
<!-- End 'C' -->
<!-- Begin 'A' -->
<polygon points=" 630.000000, 108.843415, 651.000000, 15.568598, 659.000000, 15.568598, 680.000000, 108.843415, 672.500000, 108.843415, 666.250000, 85.524711, 643.750000, 85.524711, 637.500000, 108.843415" fill="rgb(178, 34, 34)" style="fill-opacity:1.00" />
<polygon points=" 655.000000, 34.223561, 647.000000, 70.533488, 662.000000, 70.533488" fill="rgb(255, 255, 255)" style="fill-opacity:1.00" />
<!-- End 'A' -->
<!-- Begin 'T' -->
<rect height="0.099620" width="50.000000" x="630.000000" y="108.843415" fill="rgb(0, 100, 0)" style="fill-opacity:1.00" />
<rect height="0.622624" width="10.000000" x="650.000000" y="108.843415" fill="rgb(0, 100, 0)" style="fill-opacity:1.00" />
<!-- End 'T' -->
<!-- Begin 'G' -->
<ellipse cx="655.000000" cy="109.685415" rx="25.000000" ry="0.219376" fill="rgb(255, 165, 0)" style="fill-opacity:1.00" />
<ellipse cx="655.000000" cy="109.685415" rx="16.666667" ry="0.146251" fill="rgb(255, 255, 255)" style="fill-opacity:1.00" />
<rect height="0.219376" width="25.000000" x="655.000000" y="109.575727" fill="rgb(255, 255, 255)" style="fill-opacity:1.00" />
<rect height="0.054844" width="25.000000" x="655.000000" y="109.740259" fill="rgb(255, 165, 0)" style="fill-opacity:1.00" />
<rect height="0.164532" width="6.250000" x="673.750000" y="109.740259" fill="rgb(255, 165, 0)" style="fill-opacity:1.00" />
<!-- End 'G' -->
<!-- Begin 'C' -->
<ellipse cx="655.000000" cy="109.952396" rx="25.000000" ry="0.047604" fill="rgb(0, 0, 128)" style="fill-opacity:1.00" />
<ellipse cx="655.000000" cy="109.952396" rx="16.666667" ry="0.031736" fill="rgb(255, 255, 255)" style="fill-opacity:1.00" />
<rect height="0.047604" width="25.000000" x="655.000000" y="109.928593" fill="rgb(255, 255, 255)" style="fill-opacity:1.00" />
<!-- End 'C' -->
<!-- Begin 'T' -->
<rect height="15.288409" width="50.000000" x="690.000000" y="13.713169" fill="rgb(0, 100, 0)" style="fill-opacity:1.00" />
<rect height="95.552555" width="10.000000" x="710.000000" y="13.713169" fill="rgb(0, 100, 0)" style="fill-opacity:1.00" />
<!-- End 'T' -->
<!-- Begin 'C' -->
<ellipse cx="715.000000" cy="109.460076" rx="25.000000" ry="0.194352" fill="rgb(0, 0, 128)" style="fill-opacity:1.00" />
<ellipse cx="715.000000" cy="109.460076" rx="16.666667" ry="0.129568" fill="rgb(255, 255, 255)" style="fill-opacity:1.00" />
<rect height="0.194352" width="25.000000" x="715.000000" y="109.362900" fill="rgb(255, 255, 255)" style="fill-opacity:1.00" />
<!-- End 'C' -->
<!-- Begin 'A' -->
<polygon points=" 690.000000, 109.953351, 711.000000, 109.654428, 719.000000, 109.654428, 740.000000, 109.953351, 732.500000, 109.953351, 726.250000, 109.878620, 703.750000, 109.878620, 697.500000, 109.953351" fill="rgb(178, 34, 34)" style="fill-opacity:1.00" />
<!-- End 'A' -->
<!-- Begin 'G' -->
<ellipse cx="715.000000" cy="109.976675" rx="25.000000" ry="0.023325" fill="rgb(255, 165, 0)" style="fill-opacity:1.00" />
<ellipse cx="715.000000" cy="109.976675" rx="16.666667" ry="0.015550" fill="rgb(255, 255, 255)" style="fill-opacity:1.00" />
<rect height="0.023325" width="25.000000" x="715.000000" y="109.965013" fill="rgb(255, 255, 255)" style="fill-opacity:1.00" />
<rect height="0.005831" width="25.000000" x="715.000000" y="109.982507" fill="rgb(255, 165, 0)" style="fill-opacity:1.00" />
<rect height="0.017493" width="6.250000" x="733.750000" y="109.982507" fill="rgb(255, 165, 0)" style="fill-opacity:1.00" />
<!-- End 'G' -->
<!-- Begin 'A' -->
<polygon points=" 750.000000, 99.712912, 771.000000, 63.487855, 779.000000, 63.487855, 800.000000, 99.712912, 792.500000, 99.712912, 786.250000, 90.656648, 763.750000, 90.656648, 757.500000, 99.712912" fill="rgb(178, 34, 34)" style="fill-opacity:1.00" />
<polygon points=" 775.000000, 70.732867, 767.000000, 84.222889, 782.000000, 84.222889" fill="rgb(255, 255, 255)" style="fill-opacity:1.00" />
<!-- End 'A' -->
<!-- Begin 'G' -->
<ellipse cx="775.000000" cy="102.559473" rx="25.000000" ry="2.846562" fill="rgb(255, 165, 0)" style="fill-opacity:1.00" />
<ellipse cx="775.000000" cy="102.559473" rx="16.666667" ry="1.897708" fill="rgb(255, 255, 255)" style="fill-opacity:1.00" />
<rect height="2.846562" width="25.000000" x="775.000000" y="101.136192" fill="rgb(255, 255, 255)" style="fill-opacity:1.00" />
<rect height="0.711640" width="25.000000" x="775.000000" y="103.271114" fill="rgb(255, 165, 0)" style="fill-opacity:1.00" />
<rect height="2.134921" width="6.250000" x="793.750000" y="103.271114" fill="rgb(255, 165, 0)" style="fill-opacity:1.00" />
<!-- End 'G' -->
<!-- Begin 'T' -->
<rect height="0.507842" width="50.000000" x="750.000000" y="105.406035" fill="rgb(0, 100, 0)" style="fill-opacity:1.00" />
<rect height="3.174014" width="10.000000" x="770.000000" y="105.406035" fill="rgb(0, 100, 0)" style="fill-opacity:1.00" />
<!-- End 'T' -->
<!-- Begin 'C' -->
<ellipse cx="775.000000" cy="109.290025" rx="25.000000" ry="0.709975" fill="rgb(0, 0, 128)" style="fill-opacity:1.00" />
<ellipse cx="775.000000" cy="109.290025" rx="16.666667" ry="0.473317" fill="rgb(255, 255, 255)" style="fill-opacity:1.00" />
<rect height="0.709975" width="25.000000" x="775.000000" y="108.935037" fill="rgb(255, 255, 255)" style="fill-opacity:1.00" />
<!-- End 'C' -->
<!-- Begin 'A' -->
<polygon points=" 810.000000, 105.790898, 831.000000, 102.362464, 839.000000, 102.362464, 860.000000, 105.790898, 852.500000, 105.790898, 846.250000, 104.933789, 823.750000, 104.933789, 817.500000, 105.790898" fill="rgb(178, 34, 34)" style="fill-opacity:1.00" />
<!-- End 'A' -->
<!-- Begin 'T' -->
<rect height="0.278259" width="50.000000" x="810.000000" y="105.790898" fill="rgb(0, 100, 0)" style="fill-opacity:1.00" />
<rect height="1.739119" width="10.000000" x="830.000000" y="105.790898" fill="rgb(0, 100, 0)" style="fill-opacity:1.00" />
<!-- End 'T' -->
<!-- Begin 'C' -->
<ellipse cx="835.000000" cy="108.259113" rx="25.000000" ry="0.729096" fill="rgb(0, 0, 128)" style="fill-opacity:1.00" />
<ellipse cx="835.000000" cy="108.259113" rx="16.666667" ry="0.486064" fill="rgb(255, 255, 255)" style="fill-opacity:1.00" />
<rect height="0.729096" width="25.000000" x="835.000000" y="107.894565" fill="rgb(255, 255, 255)" style="fill-opacity:1.00" />
<!-- End 'C' -->
<!-- Begin 'G' -->
<ellipse cx="835.000000" cy="109.494104" rx="25.000000" ry="0.505896" fill="rgb(255, 165, 0)" style="fill-opacity:1.00" />
<ellipse cx="835.000000" cy="109.494104" rx="16.666667" ry="0.337264" fill="rgb(255, 255, 255)" style="fill-opacity:1.00" />
<rect height="0.505896" width="25.000000" x="835.000000" y="109.241156" fill="rgb(255, 255, 255)" style="fill-opacity:1.00" />
<rect height="0.126474" width="25.000000" x="835.000000" y="109.620578" fill="rgb(255, 165, 0)" style="fill-opacity:1.00" />
<rect height="0.379422" width="6.250000" x="853.750000" y="109.620578" fill="rgb(255, 165, 0)" style="fill-opacity:1.00" />
<!-- End 'G' -->
<!-- Begin 'A' -->
<polygon points=" 870.000000, 105.871601, 891.000000, 103.114615, 899.000000, 103.114615, 920.000000, 105.871601, 912.500000, 105.871601, 906.250000, 105.182355, 883.750000, 105.182355, 877.500000, 105.871601" fill="rgb(178, 34, 34)" style="fill-opacity:1.00" />
<!-- End 'A' -->
<!-- Begin 'T' -->
<rect height="0.334388" width="50.000000" x="870.000000" y="105.871601" fill="rgb(0, 100, 0)" style="fill-opacity:1.00" />
<rect height="2.089927" width="10.000000" x="890.000000" y="105.871601" fill="rgb(0, 100, 0)" style="fill-opacity:1.00" />
<!-- End 'T' -->
<!-- Begin 'C' -->
<ellipse cx="895.000000" cy="108.544809" rx="25.000000" ry="0.583281" fill="rgb(0, 0, 128)" style="fill-opacity:1.00" />
<ellipse cx="895.000000" cy="108.544809" rx="16.666667" ry="0.388854" fill="rgb(255, 255, 255)" style="fill-opacity:1.00" />
<rect height="0.583281" width="25.000000" x="895.000000" y="108.253168" fill="rgb(255, 255, 255)" style="fill-opacity:1.00" />
<!-- End 'C' -->
<!-- Begin 'G' -->
<ellipse cx="895.000000" cy="109.564045" rx="25.000000" ry="0.435955" fill="rgb(255, 165, 0)" style="fill-opacity:1.00" />
<ellipse cx="895.000000" cy="109.564045" rx="16.666667" ry="0.290637" fill="rgb(255, 255, 255)" style="fill-opacity:1.00" />
<rect height="0.435955" width="25.000000" x="895.000000" y="109.346067" fill="rgb(255, 255, 255)" style="fill-opacity:1.00" />
<rect height="0.108989" width="25.000000" x="895.000000" y="109.673034" fill="rgb(255, 165, 0)" style="fill-opacity:1.00" />
<rect height="0.326966" width="6.250000" x="913.750000" y="109.673034" fill="rgb(255, 165, 0)" style="fill-opacity:1.00" />
<!-- End 'G' -->
<text x="490.000000" y="165">
IC = 14.06
</text>

</svg>
