<?xml version="1.0" encoding="UTF-8" standalone="yes"?>
                 <!DOCTYPE svg PUBLIC "-//W3C//DTD SVG 1.0//EN" "http://www.w3.org/TR/2001/REC-SVG-20010904/DTD/svg10.dtd">
                 <svg height="170" width="780" xmlns="http://www.w3.org/2000/svg" xmlns:xlink="http://www.w3.org/1999/xlink">
                 <line x1="85" y1="120" x2="747" y2="120" style="stroke:rgb(99,99,99);stroke-width:2" />
<rect height="7.000000" width="2.000000" x="85.000000" y="120.000000" fill="rgb(0, 0, 0)" style="fill-opacity:1.00" />
<text x="107.000000" y="140">
1
</text>
<rect height="7.000000" width="2.000000" x="145.000000" y="120.000000" fill="rgb(0, 0, 0)" style="fill-opacity:1.00" />
<text x="167.000000" y="140">
2
</text>
<rect height="7.000000" width="2.000000" x="205.000000" y="120.000000" fill="rgb(0, 0, 0)" style="fill-opacity:1.00" />
<text x="227.000000" y="140">
3
</text>
<rect height="7.000000" width="2.000000" x="265.000000" y="120.000000" fill="rgb(0, 0, 0)" style="fill-opacity:1.00" />
<text x="287.000000" y="140">
4
</text>
<rect height="7.000000" width="2.000000" x="325.000000" y="120.000000" fill="rgb(0, 0, 0)" style="fill-opacity:1.00" />
<text x="347.000000" y="140">
5
</text>
<rect height="7.000000" width="2.000000" x="385.000000" y="120.000000" fill="rgb(0, 0, 0)" style="fill-opacity:1.00" />
<text x="407.000000" y="140">
6
</text>
<rect height="7.000000" width="2.000000" x="445.000000" y="120.000000" fill="rgb(0, 0, 0)" style="fill-opacity:1.00" />
<text x="467.000000" y="140">
7
</text>
<rect height="7.000000" width="2.000000" x="505.000000" y="120.000000" fill="rgb(0, 0, 0)" style="fill-opacity:1.00" />
<text x="527.000000" y="140">
8
</text>
<rect height="7.000000" width="2.000000" x="565.000000" y="120.000000" fill="rgb(0, 0, 0)" style="fill-opacity:1.00" />
<text x="587.000000" y="140">
9
</text>
<rect height="7.000000" width="2.000000" x="625.000000" y="120.000000" fill="rgb(0, 0, 0)" style="fill-opacity:1.00" />
<text x="647.000000" y="140">
10
</text>
<rect height="7.000000" width="2.000000" x="685.000000" y="120.000000" fill="rgb(0, 0, 0)" style="fill-opacity:1.00" />
<text x="707.000000" y="140">
11
</text>
<rect height="7.000000" width="2.000000" x="745.000000" y="120.000000" fill="rgb(0, 0, 0)" style="fill-opacity:1.00" />
<line x1="80" y1="112" x2="80" y2="10" style="stroke:rgb(99,99,99);stroke-width:2" />
<rect height="2.000000" width="7.000000" x="73.000000" y="110.000000" fill="rgb(0, 0, 0)" style="fill-opacity:1.00" />
<text x="63" y="115">
0
</text>
<rect height="2.000000" width="7.000000" x="73.000000" y="60.000000" fill="rgb(0, 0, 0)" style="fill-opacity:1.00" />
<text x="63" y="65">
1
</text>
<rect height="2.000000" width="7.000000" x="73.000000" y="10.000000" fill="rgb(0, 0, 0)" style="fill-opacity:1.00" />
<text x="63" y="15">
2
</text>
<text x="50" y="65"
transform="rotate(-90, 50, 70)">
bits
</text>
<!-- Begin 'T' -->
<rect height="0.314421" width="50.000000" x="90.000000" y="105.184069" fill="rgb(0, 100, 0)" style="fill-opacity:1.00" />
<rect height="1.965134" width="10.000000" x="110.000000" y="105.184069" fill="rgb(0, 100, 0)" style="fill-opacity:1.00" />
<!-- End 'T' -->
<!-- Begin 'A' -->
<polygon points=" 90.000000, 108.200415, 111.000000, 107.149204, 119.000000, 107.149204, 140.000000, 108.200415, 132.500000, 108.200415, 126.250000, 107.937612, 103.750000, 107.937612, 97.500000, 108.200415" fill="rgb(178, 34, 34)" style="fill-opacity:1.00" />
<!-- End 'A' -->
<!-- Begin 'C' -->
<ellipse cx="115.000000" cy="108.725844" rx="25.000000" ry="0.525429" fill="rgb(0, 0, 128)" style="fill-opacity:1.00" />
<ellipse cx="115.000000" cy="108.725844" rx="16.666667" ry="0.350286" fill="rgb(255, 255, 255)" style="fill-opacity:1.00" />
<rect height="0.525429" width="25.000000" x="115.000000" y="108.463130" fill="rgb(255, 255, 255)" style="fill-opacity:1.00" />
<!-- End 'C' -->
<!-- Begin 'G' -->
<ellipse cx="115.000000" cy="109.625637" rx="25.000000" ry="0.374363" fill="rgb(255, 165, 0)" style="fill-opacity:1.00" />
<ellipse cx="115.000000" cy="109.625637" rx="16.666667" ry="0.249575" fill="rgb(255, 255, 255)" style="fill-opacity:1.00" />
<rect height="0.374363" width="25.000000" x="115.000000" y="109.438455" fill="rgb(255, 255, 255)" style="fill-opacity:1.00" />
<rect height="0.093591" width="25.000000" x="115.000000" y="109.719228" fill="rgb(255, 165, 0)" style="fill-opacity:1.00" />
<rect height="0.280772" width="6.250000" x="133.750000" y="109.719228" fill="rgb(255, 165, 0)" style="fill-opacity:1.00" />
<!-- End 'G' -->
<!-- Begin 'T' -->
<rect height="0.502718" width="50.000000" x="150.000000" y="102.549417" fill="rgb(0, 100, 0)" style="fill-opacity:1.00" />
<rect height="3.141985" width="10.000000" x="170.000000" y="102.549417" fill="rgb(0, 100, 0)" style="fill-opacity:1.00" />
<!-- End 'T' -->
<!-- Begin 'C' -->
<ellipse cx="175.000000" cy="106.749260" rx="25.000000" ry="1.057858" fill="rgb(0, 0, 128)" style="fill-opacity:1.00" />
<ellipse cx="175.000000" cy="106.749260" rx="16.666667" ry="0.705238" fill="rgb(255, 255, 255)" style="fill-opacity:1.00" />
<rect height="1.057858" width="25.000000" x="175.000000" y="106.220331" fill="rgb(255, 255, 255)" style="fill-opacity:1.00" />
<!-- End 'C' -->
<!-- Begin 'G' -->
<ellipse cx="175.000000" cy="108.427926" rx="25.000000" ry="0.620808" fill="rgb(255, 165, 0)" style="fill-opacity:1.00" />
<ellipse cx="175.000000" cy="108.427926" rx="16.666667" ry="0.413872" fill="rgb(255, 255, 255)" style="fill-opacity:1.00" />
<rect height="0.620808" width="25.000000" x="175.000000" y="108.117522" fill="rgb(255, 255, 255)" style="fill-opacity:1.00" />
<rect height="0.155202" width="25.000000" x="175.000000" y="108.583127" fill="rgb(255, 165, 0)" style="fill-opacity:1.00" />
<rect height="0.465606" width="6.250000" x="193.750000" y="108.583127" fill="rgb(255, 165, 0)" style="fill-opacity:1.00" />
<!-- End 'G' -->
<!-- Begin 'A' -->
<polygon points=" 150.000000, 110.000000, 171.000000, 109.048733, 179.000000, 109.048733, 200.000000, 110.000000, 192.500000, 110.000000, 186.250000, 109.762183, 163.750000, 109.762183, 157.500000, 110.000000" fill="rgb(178, 34, 34)" style="fill-opacity:1.00" />
<!-- End 'A' -->
<!-- Begin 'C' -->
<ellipse cx="235.000000" cy="104.395676" rx="25.000000" ry="1.514962" fill="rgb(0, 0, 128)" style="fill-opacity:1.00" />
<ellipse cx="235.000000" cy="104.395676" rx="16.666667" ry="1.009975" fill="rgb(255, 255, 255)" style="fill-opacity:1.00" />
<rect height="1.514962" width="25.000000" x="235.000000" y="103.638196" fill="rgb(255, 255, 255)" style="fill-opacity:1.00" />
<!-- End 'C' -->
<!-- Begin 'T' -->
<rect height="0.289619" width="50.000000" x="210.000000" y="105.910638" fill="rgb(0, 100, 0)" style="fill-opacity:1.00" />
<rect height="1.810121" width="10.000000" x="230.000000" y="105.910638" fill="rgb(0, 100, 0)" style="fill-opacity:1.00" />
<!-- End 'T' -->
<!-- Begin 'G' -->
<ellipse cx="235.000000" cy="108.437093" rx="25.000000" ry="0.716334" fill="rgb(255, 165, 0)" style="fill-opacity:1.00" />
<ellipse cx="235.000000" cy="108.437093" rx="16.666667" ry="0.477556" fill="rgb(255, 255, 255)" style="fill-opacity:1.00" />
<rect height="0.716334" width="25.000000" x="235.000000" y="108.078926" fill="rgb(255, 255, 255)" style="fill-opacity:1.00" />
<rect height="0.179084" width="25.000000" x="235.000000" y="108.616177" fill="rgb(255, 165, 0)" style="fill-opacity:1.00" />
<rect height="0.537251" width="6.250000" x="253.750000" y="108.616177" fill="rgb(255, 165, 0)" style="fill-opacity:1.00" />
<!-- End 'G' -->
<!-- Begin 'A' -->
<polygon points=" 210.000000, 110.000000, 231.000000, 109.153428, 239.000000, 109.153428, 260.000000, 110.000000, 252.500000, 110.000000, 246.250000, 109.788357, 223.750000, 109.788357, 217.500000, 110.000000" fill="rgb(178, 34, 34)" style="fill-opacity:1.00" />
<!-- End 'A' -->
<!-- Begin 'T' -->
<rect height="4.919501" width="50.000000" x="270.000000" y="68.894588" fill="rgb(0, 100, 0)" style="fill-opacity:1.00" />
<rect height="30.746880" width="10.000000" x="290.000000" y="68.894588" fill="rgb(0, 100, 0)" style="fill-opacity:1.00" />
<!-- End 'T' -->
<!-- Begin 'C' -->
<ellipse cx="295.000000" cy="102.254206" rx="25.000000" ry="2.612738" fill="rgb(0, 0, 128)" style="fill-opacity:1.00" />
<ellipse cx="295.000000" cy="102.254206" rx="16.666667" ry="1.741825" fill="rgb(255, 255, 255)" style="fill-opacity:1.00" />
<rect height="2.612738" width="25.000000" x="295.000000" y="100.947837" fill="rgb(255, 255, 255)" style="fill-opacity:1.00" />
<!-- End 'C' -->
<!-- Begin 'A' -->
<polygon points=" 270.000000, 108.410883, 291.000000, 104.866944, 299.000000, 104.866944, 320.000000, 108.410883, 312.500000, 108.410883, 306.250000, 107.524898, 283.750000, 107.524898, 277.500000, 108.410883" fill="rgb(178, 34, 34)" style="fill-opacity:1.00" />
<!-- End 'A' -->
<!-- Begin 'G' -->
<ellipse cx="295.000000" cy="109.205441" rx="25.000000" ry="0.794559" fill="rgb(255, 165, 0)" style="fill-opacity:1.00" />
<ellipse cx="295.000000" cy="109.205441" rx="16.666667" ry="0.529706" fill="rgb(255, 255, 255)" style="fill-opacity:1.00" />
<rect height="0.794559" width="25.000000" x="295.000000" y="108.808162" fill="rgb(255, 255, 255)" style="fill-opacity:1.00" />
<rect height="0.198640" width="25.000000" x="295.000000" y="109.404081" fill="rgb(255, 165, 0)" style="fill-opacity:1.00" />
<rect height="0.595919" width="6.250000" x="313.750000" y="109.404081" fill="rgb(255, 165, 0)" style="fill-opacity:1.00" />
<!-- End 'G' -->
<!-- Begin 'T' -->
<rect height="9.697241" width="50.000000" x="330.000000" y="41.415749" fill="rgb(0, 100, 0)" style="fill-opacity:1.00" />
<rect height="60.607754" width="10.000000" x="350.000000" y="41.415749" fill="rgb(0, 100, 0)" style="fill-opacity:1.00" />
<!-- End 'T' -->
<!-- Begin 'A' -->
<polygon points=" 330.000000, 108.170891, 351.000000, 102.023502, 359.000000, 102.023502, 380.000000, 108.170891, 372.500000, 108.170891, 366.250000, 106.634044, 343.750000, 106.634044, 337.500000, 108.170891" fill="rgb(178, 34, 34)" style="fill-opacity:1.00" />
<!-- End 'A' -->
<!-- Begin 'C' -->
<ellipse cx="355.000000" cy="108.901168" rx="25.000000" ry="0.730278" fill="rgb(0, 0, 128)" style="fill-opacity:1.00" />
<ellipse cx="355.000000" cy="108.901168" rx="16.666667" ry="0.486852" fill="rgb(255, 255, 255)" style="fill-opacity:1.00" />
<rect height="0.730278" width="25.000000" x="355.000000" y="108.536030" fill="rgb(255, 255, 255)" style="fill-opacity:1.00" />
<!-- End 'C' -->
<!-- Begin 'G' -->
<ellipse cx="355.000000" cy="109.815723" rx="25.000000" ry="0.184277" fill="rgb(255, 165, 0)" style="fill-opacity:1.00" />
<ellipse cx="355.000000" cy="109.815723" rx="16.666667" ry="0.122851" fill="rgb(255, 255, 255)" style="fill-opacity:1.00" />
<rect height="0.184277" width="25.000000" x="355.000000" y="109.723585" fill="rgb(255, 255, 255)" style="fill-opacity:1.00" />
<rect height="0.046069" width="25.000000" x="355.000000" y="109.861792" fill="rgb(255, 165, 0)" style="fill-opacity:1.00" />
<rect height="0.138208" width="6.250000" x="373.750000" y="109.861792" fill="rgb(255, 165, 0)" style="fill-opacity:1.00" />
<!-- End 'G' -->
<!-- Begin 'A' -->
<polygon points=" 390.000000, 102.606907, 411.000000, 40.462645, 419.000000, 40.462645, 440.000000, 102.606907, 432.500000, 102.606907, 426.250000, 87.070842, 403.750000, 87.070842, 397.500000, 102.606907" fill="rgb(178, 34, 34)" style="fill-opacity:1.00" />
<polygon points=" 415.000000, 52.891498, 407.000000, 76.749202, 422.000000, 76.749202" fill="rgb(255, 255, 255)" style="fill-opacity:1.00" />
<!-- End 'A' -->
<!-- Begin 'T' -->
<rect height="0.849525" width="50.000000" x="390.000000" y="102.606907" fill="rgb(0, 100, 0)" style="fill-opacity:1.00" />
<rect height="5.309530" width="10.000000" x="410.000000" y="102.606907" fill="rgb(0, 100, 0)" style="fill-opacity:1.00" />
<!-- End 'T' -->
<!-- Begin 'C' -->
<ellipse cx="415.000000" cy="108.526287" rx="25.000000" ry="0.609849" fill="rgb(0, 0, 128)" style="fill-opacity:1.00" />
<ellipse cx="415.000000" cy="108.526287" rx="16.666667" ry="0.406566" fill="rgb(255, 255, 255)" style="fill-opacity:1.00" />
<rect height="0.609849" width="25.000000" x="415.000000" y="108.221362" fill="rgb(255, 255, 255)" style="fill-opacity:1.00" />
<!-- End 'C' -->
<!-- Begin 'G' -->
<ellipse cx="415.000000" cy="109.568068" rx="25.000000" ry="0.431932" fill="rgb(255, 165, 0)" style="fill-opacity:1.00" />
<ellipse cx="415.000000" cy="109.568068" rx="16.666667" ry="0.287954" fill="rgb(255, 255, 255)" style="fill-opacity:1.00" />
<rect height="0.431932" width="25.000000" x="415.000000" y="109.352102" fill="rgb(255, 255, 255)" style="fill-opacity:1.00" />
<rect height="0.107983" width="25.000000" x="415.000000" y="109.676051" fill="rgb(255, 165, 0)" style="fill-opacity:1.00" />
<rect height="0.323949" width="6.250000" x="433.750000" y="109.676051" fill="rgb(255, 165, 0)" style="fill-opacity:1.00" />
<!-- End 'G' -->
<!-- Begin 'T' -->
<rect height="14.334100" width="50.000000" x="450.000000" y="18.552145" fill="rgb(0, 100, 0)" style="fill-opacity:1.00" />
<rect height="89.588124" width="10.000000" x="470.000000" y="18.552145" fill="rgb(0, 100, 0)" style="fill-opacity:1.00" />
<!-- End 'T' -->
<!-- Begin 'A' -->
<polygon points=" 450.000000, 109.168744, 471.000000, 108.140269, 479.000000, 108.140269, 500.000000, 109.168744, 492.500000, 109.168744, 486.250000, 108.911625, 463.750000, 108.911625, 457.500000, 109.168744" fill="rgb(178, 34, 34)" style="fill-opacity:1.00" />
<!-- End 'A' -->
<!-- Begin 'C' -->
<ellipse cx="475.000000" cy="109.475372" rx="25.000000" ry="0.306628" fill="rgb(0, 0, 128)" style="fill-opacity:1.00" />
<ellipse cx="475.000000" cy="109.475372" rx="16.666667" ry="0.204419" fill="rgb(255, 255, 255)" style="fill-opacity:1.00" />
<rect height="0.306628" width="25.000000" x="475.000000" y="109.322058" fill="rgb(255, 255, 255)" style="fill-opacity:1.00" />
<!-- End 'C' -->
<!-- Begin 'G' -->
<ellipse cx="475.000000" cy="109.891000" rx="25.000000" ry="0.109000" fill="rgb(255, 165, 0)" style="fill-opacity:1.00" />
<ellipse cx="475.000000" cy="109.891000" rx="16.666667" ry="0.072666" fill="rgb(255, 255, 255)" style="fill-opacity:1.00" />
<rect height="0.109000" width="25.000000" x="475.000000" y="109.836500" fill="rgb(255, 255, 255)" style="fill-opacity:1.00" />
<rect height="0.027250" width="25.000000" x="475.000000" y="109.918250" fill="rgb(255, 165, 0)" style="fill-opacity:1.00" />
<rect height="0.081750" width="6.250000" x="493.750000" y="109.918250" fill="rgb(255, 165, 0)" style="fill-opacity:1.00" />
<!-- End 'G' -->
<!-- Begin 'C' -->
<ellipse cx="535.000000" cy="68.515364" rx="25.000000" ry="35.881811" fill="rgb(0, 0, 128)" style="fill-opacity:1.00" />
<ellipse cx="535.000000" cy="68.515364" rx="16.666667" ry="23.921207" fill="rgb(255, 255, 255)" style="fill-opacity:1.00" />
<rect height="35.881811" width="25.000000" x="535.000000" y="50.574458" fill="rgb(255, 255, 255)" style="fill-opacity:1.00" />
<!-- End 'C' -->
<!-- Begin 'T' -->
<rect height="0.667680" width="50.000000" x="510.000000" y="104.397174" fill="rgb(0, 100, 0)" style="fill-opacity:1.00" />
<rect height="4.173000" width="10.000000" x="530.000000" y="104.397174" fill="rgb(0, 100, 0)" style="fill-opacity:1.00" />
<!-- End 'T' -->
<!-- Begin 'A' -->
<polygon points=" 510.000000, 109.323916, 531.000000, 108.570174, 539.000000, 108.570174, 560.000000, 109.323916, 552.500000, 109.323916, 546.250000, 109.135480, 523.750000, 109.135480, 517.500000, 109.323916" fill="rgb(178, 34, 34)" style="fill-opacity:1.00" />
<!-- End 'A' -->
<!-- Begin 'G' -->
<ellipse cx="535.000000" cy="109.661958" rx="25.000000" ry="0.338042" fill="rgb(255, 165, 0)" style="fill-opacity:1.00" />
<ellipse cx="535.000000" cy="109.661958" rx="16.666667" ry="0.225361" fill="rgb(255, 255, 255)" style="fill-opacity:1.00" />
<rect height="0.338042" width="25.000000" x="535.000000" y="109.492937" fill="rgb(255, 255, 255)" style="fill-opacity:1.00" />
<rect height="0.084511" width="25.000000" x="535.000000" y="109.746468" fill="rgb(255, 165, 0)" style="fill-opacity:1.00" />
<rect height="0.253532" width="6.250000" x="553.750000" y="109.746468" fill="rgb(255, 165, 0)" style="fill-opacity:1.00" />
<!-- End 'G' -->
<!-- Begin 'T' -->
<rect height="5.384627" width="50.000000" x="570.000000" y="62.845619" fill="rgb(0, 100, 0)" style="fill-opacity:1.00" />
<rect height="33.653919" width="10.000000" x="590.000000" y="62.845619" fill="rgb(0, 100, 0)" style="fill-opacity:1.00" />
<!-- End 'T' -->
<!-- Begin 'A' -->
<polygon points=" 570.000000, 108.278795, 591.000000, 96.499538, 599.000000, 96.499538, 620.000000, 108.278795, 612.500000, 108.278795, 606.250000, 105.333981, 583.750000, 105.333981, 577.500000, 108.278795" fill="rgb(178, 34, 34)" style="fill-opacity:1.00" />
<polygon points=" 595.000000, 98.855390, 587.000000, 102.567092, 602.000000, 102.567092" fill="rgb(255, 255, 255)" style="fill-opacity:1.00" />
<!-- End 'A' -->
<!-- Begin 'C' -->
<ellipse cx="595.000000" cy="108.796867" rx="25.000000" ry="0.518072" fill="rgb(0, 0, 128)" style="fill-opacity:1.00" />
<ellipse cx="595.000000" cy="108.796867" rx="16.666667" ry="0.345381" fill="rgb(255, 255, 255)" style="fill-opacity:1.00" />
<rect height="0.518072" width="25.000000" x="595.000000" y="108.537831" fill="rgb(255, 255, 255)" style="fill-opacity:1.00" />
<!-- End 'C' -->
<!-- Begin 'G' -->
<ellipse cx="595.000000" cy="109.657469" rx="25.000000" ry="0.342531" fill="rgb(255, 165, 0)" style="fill-opacity:1.00" />
<ellipse cx="595.000000" cy="109.657469" rx="16.666667" ry="0.228354" fill="rgb(255, 255, 255)" style="fill-opacity:1.00" />
<rect height="0.342531" width="25.000000" x="595.000000" y="109.486204" fill="rgb(255, 255, 255)" style="fill-opacity:1.00" />
<rect height="0.085633" width="25.000000" x="595.000000" y="109.743102" fill="rgb(255, 165, 0)" style="fill-opacity:1.00" />
<rect height="0.256898" width="6.250000" x="613.750000" y="109.743102" fill="rgb(255, 165, 0)" style="fill-opacity:1.00" />
<!-- End 'G' -->
<!-- Begin 'C' -->
<ellipse cx="655.000000" cy="107.785137" rx="25.000000" ry="0.386422" fill="rgb(0, 0, 128)" style="fill-opacity:1.00" />
<ellipse cx="655.000000" cy="107.785137" rx="16.666667" ry="0.257615" fill="rgb(255, 255, 255)" style="fill-opacity:1.00" />
<rect height="0.386422" width="25.000000" x="655.000000" y="107.591926" fill="rgb(255, 255, 255)" style="fill-opacity:1.00" />
<!-- End 'C' -->
<!-- Begin 'G' -->
<ellipse cx="655.000000" cy="108.546501" rx="25.000000" ry="0.374941" fill="rgb(255, 165, 0)" style="fill-opacity:1.00" />
<ellipse cx="655.000000" cy="108.546501" rx="16.666667" ry="0.249961" fill="rgb(255, 255, 255)" style="fill-opacity:1.00" />
<rect height="0.374941" width="25.000000" x="655.000000" y="108.359030" fill="rgb(255, 255, 255)" style="fill-opacity:1.00" />
<rect height="0.093735" width="25.000000" x="655.000000" y="108.640236" fill="rgb(255, 165, 0)" style="fill-opacity:1.00" />
<rect height="0.281206" width="6.250000" x="673.750000" y="108.640236" fill="rgb(255, 165, 0)" style="fill-opacity:1.00" />
<!-- End 'G' -->
<!-- Begin 'T' -->
<rect height="0.113731" width="50.000000" x="630.000000" y="108.921442" fill="rgb(0, 100, 0)" style="fill-opacity:1.00" />
<rect height="0.710819" width="10.000000" x="650.000000" y="108.921442" fill="rgb(0, 100, 0)" style="fill-opacity:1.00" />
<!-- End 'T' -->
<!-- Begin 'A' -->
<polygon points=" 630.000000, 110.000000, 651.000000, 109.632262, 659.000000, 109.632262, 680.000000, 110.000000, 672.500000, 110.000000, 666.250000, 109.908065, 643.750000, 109.908065, 637.500000, 110.000000" fill="rgb(178, 34, 34)" style="fill-opacity:1.00" />
<!-- End 'A' -->
<!-- Begin 'T' -->
<rect height="0.257351" width="50.000000" x="690.000000" y="105.675913" fill="rgb(0, 100, 0)" style="fill-opacity:1.00" />
<rect height="1.608442" width="10.000000" x="710.000000" y="105.675913" fill="rgb(0, 100, 0)" style="fill-opacity:1.00" />
<!-- End 'T' -->
<!-- Begin 'C' -->
<ellipse cx="715.000000" cy="107.874085" rx="25.000000" ry="0.589730" fill="rgb(0, 0, 128)" style="fill-opacity:1.00" />
<ellipse cx="715.000000" cy="107.874085" rx="16.666667" ry="0.393153" fill="rgb(255, 255, 255)" style="fill-opacity:1.00" />
<rect height="0.589730" width="25.000000" x="715.000000" y="107.579220" fill="rgb(255, 255, 255)" style="fill-opacity:1.00" />
<!-- End 'C' -->
<!-- Begin 'A' -->
<polygon points=" 690.000000, 109.411284, 711.000000, 108.463815, 719.000000, 108.463815, 740.000000, 109.411284, 732.500000, 109.411284, 726.250000, 109.174417, 703.750000, 109.174417, 697.500000, 109.411284" fill="rgb(178, 34, 34)" style="fill-opacity:1.00" />
<!-- End 'A' -->
<!-- Begin 'G' -->
<ellipse cx="715.000000" cy="109.705642" rx="25.000000" ry="0.294358" fill="rgb(255, 165, 0)" style="fill-opacity:1.00" />
<ellipse cx="715.000000" cy="109.705642" rx="16.666667" ry="0.196239" fill="rgb(255, 255, 255)" style="fill-opacity:1.00" />
<rect height="0.294358" width="25.000000" x="715.000000" y="109.558463" fill="rgb(255, 255, 255)" style="fill-opacity:1.00" />
<rect height="0.073589" width="25.000000" x="715.000000" y="109.779232" fill="rgb(255, 165, 0)" style="fill-opacity:1.00" />
<rect height="0.220768" width="6.250000" x="733.750000" y="109.779232" fill="rgb(255, 165, 0)" style="fill-opacity:1.00" />
<!-- End 'G' -->
<text x="400.000000" y="165">
IC = 8.43
</text>

</svg>
