<?xml version="1.0" encoding="UTF-8" standalone="yes"?>
                 <!DOCTYPE svg PUBLIC "-//W3C//DTD SVG 1.0//EN" "http://www.w3.org/TR/2001/REC-SVG-20010904/DTD/svg10.dtd">
                 <svg height="170" width="780" xmlns="http://www.w3.org/2000/svg" xmlns:xlink="http://www.w3.org/1999/xlink">
                 <line x1="85" y1="120" x2="747" y2="120" style="stroke:rgb(99,99,99);stroke-width:2" />
<rect height="7.000000" width="2.000000" x="85.000000" y="120.000000" fill="rgb(0, 0, 0)" style="fill-opacity:1.00" />
<text x="107.000000" y="140">
1
</text>
<rect height="7.000000" width="2.000000" x="145.000000" y="120.000000" fill="rgb(0, 0, 0)" style="fill-opacity:1.00" />
<text x="167.000000" y="140">
2
</text>
<rect height="7.000000" width="2.000000" x="205.000000" y="120.000000" fill="rgb(0, 0, 0)" style="fill-opacity:1.00" />
<text x="227.000000" y="140">
3
</text>
<rect height="7.000000" width="2.000000" x="265.000000" y="120.000000" fill="rgb(0, 0, 0)" style="fill-opacity:1.00" />
<text x="287.000000" y="140">
4
</text>
<rect height="7.000000" width="2.000000" x="325.000000" y="120.000000" fill="rgb(0, 0, 0)" style="fill-opacity:1.00" />
<text x="347.000000" y="140">
5
</text>
<rect height="7.000000" width="2.000000" x="385.000000" y="120.000000" fill="rgb(0, 0, 0)" style="fill-opacity:1.00" />
<text x="407.000000" y="140">
6
</text>
<rect height="7.000000" width="2.000000" x="445.000000" y="120.000000" fill="rgb(0, 0, 0)" style="fill-opacity:1.00" />
<text x="467.000000" y="140">
7
</text>
<rect height="7.000000" width="2.000000" x="505.000000" y="120.000000" fill="rgb(0, 0, 0)" style="fill-opacity:1.00" />
<text x="527.000000" y="140">
8
</text>
<rect height="7.000000" width="2.000000" x="565.000000" y="120.000000" fill="rgb(0, 0, 0)" style="fill-opacity:1.00" />
<text x="587.000000" y="140">
9
</text>
<rect height="7.000000" width="2.000000" x="625.000000" y="120.000000" fill="rgb(0, 0, 0)" style="fill-opacity:1.00" />
<text x="647.000000" y="140">
10
</text>
<rect height="7.000000" width="2.000000" x="685.000000" y="120.000000" fill="rgb(0, 0, 0)" style="fill-opacity:1.00" />
<text x="707.000000" y="140">
11
</text>
<rect height="7.000000" width="2.000000" x="745.000000" y="120.000000" fill="rgb(0, 0, 0)" style="fill-opacity:1.00" />
<line x1="80" y1="112" x2="80" y2="10" style="stroke:rgb(99,99,99);stroke-width:2" />
<rect height="2.000000" width="7.000000" x="73.000000" y="110.000000" fill="rgb(0, 0, 0)" style="fill-opacity:1.00" />
<text x="63" y="115">
0
</text>
<rect height="2.000000" width="7.000000" x="73.000000" y="60.000000" fill="rgb(0, 0, 0)" style="fill-opacity:1.00" />
<text x="63" y="65">
1
</text>
<rect height="2.000000" width="7.000000" x="73.000000" y="10.000000" fill="rgb(0, 0, 0)" style="fill-opacity:1.00" />
<text x="63" y="15">
2
</text>
<text x="50" y="65"
transform="rotate(-90, 50, 70)">
bits
</text>
<!-- Begin 'A' -->
<polygon points=" 90.000000, 107.174485, 111.000000, 105.700224, 119.000000, 105.700224, 140.000000, 107.174485, 132.500000, 107.174485, 126.250000, 106.805920, 103.750000, 106.805920, 97.500000, 107.174485" fill="rgb(178, 34, 34)" style="fill-opacity:1.00" />
<!-- End 'A' -->
<!-- Begin 'G' -->
<ellipse cx="115.000000" cy="107.856104" rx="25.000000" ry="0.681619" fill="rgb(255, 165, 0)" style="fill-opacity:1.00" />
<ellipse cx="115.000000" cy="107.856104" rx="16.666667" ry="0.454412" fill="rgb(255, 255, 255)" style="fill-opacity:1.00" />
<rect height="0.681619" width="25.000000" x="115.000000" y="107.515295" fill="rgb(255, 255, 255)" style="fill-opacity:1.00" />
<rect height="0.170405" width="25.000000" x="115.000000" y="108.026509" fill="rgb(255, 165, 0)" style="fill-opacity:1.00" />
<rect height="0.511214" width="6.250000" x="133.750000" y="108.026509" fill="rgb(255, 165, 0)" style="fill-opacity:1.00" />
<!-- End 'G' -->
<!-- Begin 'C' -->
<ellipse cx="115.000000" cy="108.977445" rx="25.000000" ry="0.439722" fill="rgb(0, 0, 128)" style="fill-opacity:1.00" />
<ellipse cx="115.000000" cy="108.977445" rx="16.666667" ry="0.293148" fill="rgb(255, 255, 255)" style="fill-opacity:1.00" />
<rect height="0.439722" width="25.000000" x="115.000000" y="108.757584" fill="rgb(255, 255, 255)" style="fill-opacity:1.00" />
<!-- End 'C' -->
<!-- Begin 'T' -->
<rect height="0.093253" width="50.000000" x="90.000000" y="109.417166" fill="rgb(0, 100, 0)" style="fill-opacity:1.00" />
<rect height="0.582834" width="10.000000" x="110.000000" y="109.417166" fill="rgb(0, 100, 0)" style="fill-opacity:1.00" />
<!-- End 'T' -->
<!-- Begin 'A' -->
<polygon points=" 150.000000, 104.522296, 171.000000, 100.880285, 179.000000, 100.880285, 200.000000, 104.522296, 192.500000, 104.522296, 186.250000, 103.611793, 163.750000, 103.611793, 157.500000, 104.522296" fill="rgb(178, 34, 34)" style="fill-opacity:1.00" />
<!-- End 'A' -->
<!-- Begin 'G' -->
<ellipse cx="175.000000" cy="105.979143" rx="25.000000" ry="1.456847" fill="rgb(255, 165, 0)" style="fill-opacity:1.00" />
<ellipse cx="175.000000" cy="105.979143" rx="16.666667" ry="0.971231" fill="rgb(255, 255, 255)" style="fill-opacity:1.00" />
<rect height="1.456847" width="25.000000" x="175.000000" y="105.250720" fill="rgb(255, 255, 255)" style="fill-opacity:1.00" />
<rect height="0.364212" width="25.000000" x="175.000000" y="106.343355" fill="rgb(255, 165, 0)" style="fill-opacity:1.00" />
<rect height="1.092635" width="6.250000" x="193.750000" y="106.343355" fill="rgb(255, 165, 0)" style="fill-opacity:1.00" />
<!-- End 'G' -->
<!-- Begin 'C' -->
<ellipse cx="175.000000" cy="108.331969" rx="25.000000" ry="0.895978" fill="rgb(0, 0, 128)" style="fill-opacity:1.00" />
<ellipse cx="175.000000" cy="108.331969" rx="16.666667" ry="0.597319" fill="rgb(255, 255, 255)" style="fill-opacity:1.00" />
<rect height="0.895978" width="25.000000" x="175.000000" y="107.883980" fill="rgb(255, 255, 255)" style="fill-opacity:1.00" />
<!-- End 'C' -->
<!-- Begin 'T' -->
<rect height="0.123528" width="50.000000" x="150.000000" y="109.227947" fill="rgb(0, 100, 0)" style="fill-opacity:1.00" />
<rect height="0.772053" width="10.000000" x="170.000000" y="109.227947" fill="rgb(0, 100, 0)" style="fill-opacity:1.00" />
<!-- End 'T' -->
<!-- Begin 'C' -->
<ellipse cx="235.000000" cy="60.282949" rx="25.000000" ry="49.613905" fill="rgb(0, 0, 128)" style="fill-opacity:1.00" />
<ellipse cx="235.000000" cy="60.282949" rx="16.666667" ry="33.075937" fill="rgb(255, 255, 255)" style="fill-opacity:1.00" />
<rect height="49.613905" width="25.000000" x="235.000000" y="35.475996" fill="rgb(255, 255, 255)" style="fill-opacity:1.00" />
<!-- End 'C' -->
<!-- Begin 'G' -->
<ellipse cx="235.000000" cy="109.920740" rx="25.000000" ry="0.023886" fill="rgb(255, 165, 0)" style="fill-opacity:1.00" />
<ellipse cx="235.000000" cy="109.920740" rx="16.666667" ry="0.015924" fill="rgb(255, 255, 255)" style="fill-opacity:1.00" />
<rect height="0.023886" width="25.000000" x="235.000000" y="109.908797" fill="rgb(255, 255, 255)" style="fill-opacity:1.00" />
<rect height="0.005971" width="25.000000" x="235.000000" y="109.926711" fill="rgb(255, 165, 0)" style="fill-opacity:1.00" />
<rect height="0.017914" width="6.250000" x="253.750000" y="109.926711" fill="rgb(255, 165, 0)" style="fill-opacity:1.00" />
<!-- End 'G' -->
<!-- Begin 'A' -->
<polygon points=" 210.000000, 109.973128, 231.000000, 109.944626, 239.000000, 109.944626, 260.000000, 109.973128, 252.500000, 109.973128, 246.250000, 109.966002, 223.750000, 109.966002, 217.500000, 109.973128" fill="rgb(178, 34, 34)" style="fill-opacity:1.00" />
<!-- End 'A' -->
<!-- Begin 'T' -->
<rect height="0.004300" width="50.000000" x="210.000000" y="109.973128" fill="rgb(0, 100, 0)" style="fill-opacity:1.00" />
<rect height="0.026872" width="10.000000" x="230.000000" y="109.973128" fill="rgb(0, 100, 0)" style="fill-opacity:1.00" />
<!-- End 'T' -->
<!-- Begin 'A' -->
<polygon points=" 270.000000, 109.296021, 291.000000, 13.518976, 299.000000, 13.518976, 320.000000, 109.296021, 312.500000, 109.296021, 306.250000, 85.351759, 283.750000, 85.351759, 277.500000, 109.296021" fill="rgb(178, 34, 34)" style="fill-opacity:1.00" />
<polygon points=" 295.000000, 32.674385, 287.000000, 69.985203, 302.000000, 69.985203" fill="rgb(255, 255, 255)" style="fill-opacity:1.00" />
<!-- End 'A' -->
<!-- Begin 'T' -->
<rect height="0.070046" width="50.000000" x="270.000000" y="109.296021" fill="rgb(0, 100, 0)" style="fill-opacity:1.00" />
<rect height="0.437786" width="10.000000" x="290.000000" y="109.296021" fill="rgb(0, 100, 0)" style="fill-opacity:1.00" />
<!-- End 'T' -->
<!-- Begin 'G' -->
<ellipse cx="295.000000" cy="109.856175" rx="25.000000" ry="0.122369" fill="rgb(255, 165, 0)" style="fill-opacity:1.00" />
<ellipse cx="295.000000" cy="109.856175" rx="16.666667" ry="0.081579" fill="rgb(255, 255, 255)" style="fill-opacity:1.00" />
<rect height="0.122369" width="25.000000" x="295.000000" y="109.794990" fill="rgb(255, 255, 255)" style="fill-opacity:1.00" />
<rect height="0.030592" width="25.000000" x="295.000000" y="109.886767" fill="rgb(255, 165, 0)" style="fill-opacity:1.00" />
<rect height="0.091776" width="6.250000" x="313.750000" y="109.886767" fill="rgb(255, 165, 0)" style="fill-opacity:1.00" />
<!-- End 'G' -->
<!-- Begin 'C' -->
<ellipse cx="295.000000" cy="109.989272" rx="25.000000" ry="0.010728" fill="rgb(0, 0, 128)" style="fill-opacity:1.00" />
<ellipse cx="295.000000" cy="109.989272" rx="16.666667" ry="0.007152" fill="rgb(255, 255, 255)" style="fill-opacity:1.00" />
<rect height="0.010728" width="25.000000" x="295.000000" y="109.983907" fill="rgb(255, 255, 255)" style="fill-opacity:1.00" />
<!-- End 'C' -->
<!-- Begin 'G' -->
<ellipse cx="355.000000" cy="78.967535" rx="25.000000" ry="21.445921" fill="rgb(255, 165, 0)" style="fill-opacity:1.00" />
<ellipse cx="355.000000" cy="78.967535" rx="16.666667" ry="14.297281" fill="rgb(255, 255, 255)" style="fill-opacity:1.00" />
<rect height="21.445921" width="25.000000" x="355.000000" y="68.244574" fill="rgb(255, 255, 255)" style="fill-opacity:1.00" />
<rect height="5.361480" width="25.000000" x="355.000000" y="84.329015" fill="rgb(255, 165, 0)" style="fill-opacity:1.00" />
<rect height="16.084441" width="6.250000" x="373.750000" y="84.329015" fill="rgb(255, 165, 0)" style="fill-opacity:1.00" />
<!-- End 'G' -->
<!-- Begin 'C' -->
<ellipse cx="355.000000" cy="102.876134" rx="25.000000" ry="2.462678" fill="rgb(0, 0, 128)" style="fill-opacity:1.00" />
<ellipse cx="355.000000" cy="102.876134" rx="16.666667" ry="1.641785" fill="rgb(255, 255, 255)" style="fill-opacity:1.00" />
<rect height="2.462678" width="25.000000" x="355.000000" y="101.644795" fill="rgb(255, 255, 255)" style="fill-opacity:1.00" />
<!-- End 'C' -->
<!-- Begin 'T' -->
<rect height="0.493820" width="50.000000" x="330.000000" y="105.338812" fill="rgb(0, 100, 0)" style="fill-opacity:1.00" />
<rect height="3.086374" width="10.000000" x="350.000000" y="105.338812" fill="rgb(0, 100, 0)" style="fill-opacity:1.00" />
<!-- End 'T' -->
<!-- Begin 'A' -->
<polygon points=" 330.000000, 110.000000, 351.000000, 108.425186, 359.000000, 108.425186, 380.000000, 110.000000, 372.500000, 110.000000, 366.250000, 109.606297, 343.750000, 109.606297, 337.500000, 110.000000" fill="rgb(178, 34, 34)" style="fill-opacity:1.00" />
<!-- End 'A' -->
<!-- Begin 'C' -->
<ellipse cx="415.000000" cy="78.225946" rx="25.000000" ry="22.069925" fill="rgb(0, 0, 128)" style="fill-opacity:1.00" />
<ellipse cx="415.000000" cy="78.225946" rx="16.666667" ry="14.713283" fill="rgb(255, 255, 255)" style="fill-opacity:1.00" />
<rect height="22.069925" width="25.000000" x="415.000000" y="67.190984" fill="rgb(255, 255, 255)" style="fill-opacity:1.00" />
<!-- End 'C' -->
<!-- Begin 'G' -->
<ellipse cx="415.000000" cy="102.954337" rx="25.000000" ry="2.658466" fill="rgb(255, 165, 0)" style="fill-opacity:1.00" />
<ellipse cx="415.000000" cy="102.954337" rx="16.666667" ry="1.772311" fill="rgb(255, 255, 255)" style="fill-opacity:1.00" />
<rect height="2.658466" width="25.000000" x="415.000000" y="101.625104" fill="rgb(255, 255, 255)" style="fill-opacity:1.00" />
<rect height="0.664617" width="25.000000" x="415.000000" y="103.618954" fill="rgb(255, 165, 0)" style="fill-opacity:1.00" />
<rect height="1.993850" width="6.250000" x="433.750000" y="103.618954" fill="rgb(255, 165, 0)" style="fill-opacity:1.00" />
<!-- End 'G' -->
<!-- Begin 'A' -->
<polygon points=" 390.000000, 108.987120, 411.000000, 105.612803, 419.000000, 105.612803, 440.000000, 108.987120, 432.500000, 108.987120, 426.250000, 108.143541, 403.750000, 108.143541, 397.500000, 108.987120" fill="rgb(178, 34, 34)" style="fill-opacity:1.00" />
<!-- End 'A' -->
<!-- Begin 'T' -->
<rect height="0.162061" width="50.000000" x="390.000000" y="108.987120" fill="rgb(0, 100, 0)" style="fill-opacity:1.00" />
<rect height="1.012880" width="10.000000" x="410.000000" y="108.987120" fill="rgb(0, 100, 0)" style="fill-opacity:1.00" />
<!-- End 'T' -->
<!-- Begin 'T' -->
<rect height="15.084381" width="50.000000" x="450.000000" y="14.744519" fill="rgb(0, 100, 0)" style="fill-opacity:1.00" />
<rect height="94.277382" width="10.000000" x="470.000000" y="14.744519" fill="rgb(0, 100, 0)" style="fill-opacity:1.00" />
<!-- End 'T' -->
<!-- Begin 'A' -->
<polygon points=" 450.000000, 109.538388, 471.000000, 109.021902, 479.000000, 109.021902, 500.000000, 109.538388, 492.500000, 109.538388, 486.250000, 109.409267, 463.750000, 109.409267, 457.500000, 109.538388" fill="rgb(178, 34, 34)" style="fill-opacity:1.00" />
<!-- End 'A' -->
<!-- Begin 'C' -->
<ellipse cx="475.000000" cy="109.748922" rx="25.000000" ry="0.210534" fill="rgb(0, 0, 128)" style="fill-opacity:1.00" />
<ellipse cx="475.000000" cy="109.748922" rx="16.666667" ry="0.140356" fill="rgb(255, 255, 255)" style="fill-opacity:1.00" />
<rect height="0.210534" width="25.000000" x="475.000000" y="109.643655" fill="rgb(255, 255, 255)" style="fill-opacity:1.00" />
<!-- End 'C' -->
<!-- Begin 'G' -->
<ellipse cx="475.000000" cy="109.979728" rx="25.000000" ry="0.020272" fill="rgb(255, 165, 0)" style="fill-opacity:1.00" />
<ellipse cx="475.000000" cy="109.979728" rx="16.666667" ry="0.013515" fill="rgb(255, 255, 255)" style="fill-opacity:1.00" />
<rect height="0.020272" width="25.000000" x="475.000000" y="109.969592" fill="rgb(255, 255, 255)" style="fill-opacity:1.00" />
<rect height="0.005068" width="25.000000" x="475.000000" y="109.984796" fill="rgb(255, 165, 0)" style="fill-opacity:1.00" />
<rect height="0.015204" width="6.250000" x="493.750000" y="109.984796" fill="rgb(255, 165, 0)" style="fill-opacity:1.00" />
<!-- End 'G' -->
<!-- Begin 'G' -->
<ellipse cx="535.000000" cy="60.255448" rx="25.000000" ry="49.653073" fill="rgb(255, 165, 0)" style="fill-opacity:1.00" />
<ellipse cx="535.000000" cy="60.255448" rx="16.666667" ry="33.102049" fill="rgb(255, 255, 255)" style="fill-opacity:1.00" />
<rect height="49.653073" width="25.000000" x="535.000000" y="35.428911" fill="rgb(255, 255, 255)" style="fill-opacity:1.00" />
<rect height="12.413268" width="25.000000" x="535.000000" y="72.668716" fill="rgb(255, 165, 0)" style="fill-opacity:1.00" />
<rect height="37.239805" width="6.250000" x="553.750000" y="72.668716" fill="rgb(255, 165, 0)" style="fill-opacity:1.00" />
<!-- End 'G' -->
<!-- Begin 'A' -->
<polygon points=" 510.000000, 109.946047, 531.000000, 109.908521, 539.000000, 109.908521, 560.000000, 109.946047, 552.500000, 109.946047, 546.250000, 109.936666, 523.750000, 109.936666, 517.500000, 109.946047" fill="rgb(178, 34, 34)" style="fill-opacity:1.00" />
<!-- End 'A' -->
<!-- Begin 'C' -->
<ellipse cx="535.000000" cy="109.960783" rx="25.000000" ry="0.014736" fill="rgb(0, 0, 128)" style="fill-opacity:1.00" />
<ellipse cx="535.000000" cy="109.960783" rx="16.666667" ry="0.009824" fill="rgb(255, 255, 255)" style="fill-opacity:1.00" />
<rect height="0.014736" width="25.000000" x="535.000000" y="109.953415" fill="rgb(255, 255, 255)" style="fill-opacity:1.00" />
<!-- End 'C' -->
<!-- Begin 'T' -->
<rect height="0.003917" width="50.000000" x="510.000000" y="109.975519" fill="rgb(0, 100, 0)" style="fill-opacity:1.00" />
<rect height="0.024481" width="10.000000" x="530.000000" y="109.975519" fill="rgb(0, 100, 0)" style="fill-opacity:1.00" />
<!-- End 'T' -->
<!-- Begin 'T' -->
<rect height="0.590470" width="50.000000" x="570.000000" y="100.602431" fill="rgb(0, 100, 0)" style="fill-opacity:1.00" />
<rect height="3.690438" width="10.000000" x="590.000000" y="100.602431" fill="rgb(0, 100, 0)" style="fill-opacity:1.00" />
<!-- End 'T' -->
<!-- Begin 'C' -->
<ellipse cx="595.000000" cy="105.839186" rx="25.000000" ry="1.546317" fill="rgb(0, 0, 128)" style="fill-opacity:1.00" />
<ellipse cx="595.000000" cy="105.839186" rx="16.666667" ry="1.030878" fill="rgb(255, 255, 255)" style="fill-opacity:1.00" />
<rect height="1.546317" width="25.000000" x="595.000000" y="105.066028" fill="rgb(255, 255, 255)" style="fill-opacity:1.00" />
<!-- End 'C' -->
<!-- Begin 'G' -->
<ellipse cx="595.000000" cy="108.315025" rx="25.000000" ry="0.929522" fill="rgb(255, 165, 0)" style="fill-opacity:1.00" />
<ellipse cx="595.000000" cy="108.315025" rx="16.666667" ry="0.619681" fill="rgb(255, 255, 255)" style="fill-opacity:1.00" />
<rect height="0.929522" width="25.000000" x="595.000000" y="107.850264" fill="rgb(255, 255, 255)" style="fill-opacity:1.00" />
<rect height="0.232380" width="25.000000" x="595.000000" y="108.547405" fill="rgb(255, 165, 0)" style="fill-opacity:1.00" />
<rect height="0.697141" width="6.250000" x="613.750000" y="108.547405" fill="rgb(255, 165, 0)" style="fill-opacity:1.00" />
<!-- End 'G' -->
<!-- Begin 'A' -->
<polygon points=" 570.000000, 110.000000, 591.000000, 109.244547, 599.000000, 109.244547, 620.000000, 110.000000, 612.500000, 110.000000, 606.250000, 109.811137, 583.750000, 109.811137, 577.500000, 110.000000" fill="rgb(178, 34, 34)" style="fill-opacity:1.00" />
<!-- End 'A' -->
<!-- Begin 'T' -->
<rect height="0.218541" width="50.000000" x="630.000000" y="106.096435" fill="rgb(0, 100, 0)" style="fill-opacity:1.00" />
<rect height="1.365883" width="10.000000" x="650.000000" y="106.096435" fill="rgb(0, 100, 0)" style="fill-opacity:1.00" />
<!-- End 'T' -->
<!-- Begin 'C' -->
<ellipse cx="655.000000" cy="108.059938" rx="25.000000" ry="0.597620" fill="rgb(0, 0, 128)" style="fill-opacity:1.00" />
<ellipse cx="655.000000" cy="108.059938" rx="16.666667" ry="0.398413" fill="rgb(255, 255, 255)" style="fill-opacity:1.00" />
<rect height="0.597620" width="25.000000" x="655.000000" y="107.761128" fill="rgb(255, 255, 255)" style="fill-opacity:1.00" />
<!-- End 'C' -->
<!-- Begin 'G' -->
<ellipse cx="655.000000" cy="109.038162" rx="25.000000" ry="0.380604" fill="rgb(255, 165, 0)" style="fill-opacity:1.00" />
<ellipse cx="655.000000" cy="109.038162" rx="16.666667" ry="0.253736" fill="rgb(255, 255, 255)" style="fill-opacity:1.00" />
<rect height="0.380604" width="25.000000" x="655.000000" y="108.847860" fill="rgb(255, 255, 255)" style="fill-opacity:1.00" />
<rect height="0.095151" width="25.000000" x="655.000000" y="109.133313" fill="rgb(255, 165, 0)" style="fill-opacity:1.00" />
<rect height="0.285453" width="6.250000" x="673.750000" y="109.133313" fill="rgb(255, 165, 0)" style="fill-opacity:1.00" />
<!-- End 'G' -->
<!-- Begin 'A' -->
<polygon points=" 630.000000, 110.000000, 651.000000, 109.418766, 659.000000, 109.418766, 680.000000, 110.000000, 672.500000, 110.000000, 666.250000, 109.854691, 643.750000, 109.854691, 637.500000, 110.000000" fill="rgb(178, 34, 34)" style="fill-opacity:1.00" />
<!-- End 'A' -->
<!-- Begin 'G' -->
<ellipse cx="715.000000" cy="109.773993" rx="25.000000" ry="0.036098" fill="rgb(255, 165, 0)" style="fill-opacity:1.00" />
<ellipse cx="715.000000" cy="109.773993" rx="16.666667" ry="0.024065" fill="rgb(255, 255, 255)" style="fill-opacity:1.00" />
<rect height="0.036098" width="25.000000" x="715.000000" y="109.755944" fill="rgb(255, 255, 255)" style="fill-opacity:1.00" />
<rect height="0.009024" width="25.000000" x="715.000000" y="109.783018" fill="rgb(255, 165, 0)" style="fill-opacity:1.00" />
<rect height="0.027073" width="6.250000" x="733.750000" y="109.783018" fill="rgb(255, 165, 0)" style="fill-opacity:1.00" />
<!-- End 'G' -->
<!-- Begin 'C' -->
<ellipse cx="715.000000" cy="109.845039" rx="25.000000" ry="0.034948" fill="rgb(0, 0, 128)" style="fill-opacity:1.00" />
<ellipse cx="715.000000" cy="109.845039" rx="16.666667" ry="0.023299" fill="rgb(255, 255, 255)" style="fill-opacity:1.00" />
<rect height="0.034948" width="25.000000" x="715.000000" y="109.827565" fill="rgb(255, 255, 255)" style="fill-opacity:1.00" />
<!-- End 'C' -->
<!-- Begin 'A' -->
<polygon points=" 690.000000, 109.940401, 711.000000, 109.879987, 719.000000, 109.879987, 740.000000, 109.940401, 732.500000, 109.940401, 726.250000, 109.925298, 703.750000, 109.925298, 697.500000, 109.940401" fill="rgb(178, 34, 34)" style="fill-opacity:1.00" />
<!-- End 'A' -->
<!-- Begin 'T' -->
<rect height="0.009536" width="50.000000" x="690.000000" y="109.940401" fill="rgb(0, 100, 0)" style="fill-opacity:1.00" />
<rect height="0.059599" width="10.000000" x="710.000000" y="109.940401" fill="rgb(0, 100, 0)" style="fill-opacity:1.00" />
<!-- End 'T' -->
<text x="400.000000" y="165">
IC = 10.48
</text>

</svg>
