<?xml version="1.0" encoding="UTF-8" standalone="yes"?>
                 <!DOCTYPE svg PUBLIC "-//W3C//DTD SVG 1.0//EN" "http://www.w3.org/TR/2001/REC-SVG-20010904/DTD/svg10.dtd">
                 <svg height="170" width="960" xmlns="http://www.w3.org/2000/svg" xmlns:xlink="http://www.w3.org/1999/xlink">
                 <line x1="85" y1="120" x2="927" y2="120" style="stroke:rgb(99,99,99);stroke-width:2" />
<rect height="7.000000" width="2.000000" x="85.000000" y="120.000000" fill="rgb(0, 0, 0)" style="fill-opacity:1.00" />
<text x="107.000000" y="140">
1
</text>
<rect height="7.000000" width="2.000000" x="145.000000" y="120.000000" fill="rgb(0, 0, 0)" style="fill-opacity:1.00" />
<text x="167.000000" y="140">
2
</text>
<rect height="7.000000" width="2.000000" x="205.000000" y="120.000000" fill="rgb(0, 0, 0)" style="fill-opacity:1.00" />
<text x="227.000000" y="140">
3
</text>
<rect height="7.000000" width="2.000000" x="265.000000" y="120.000000" fill="rgb(0, 0, 0)" style="fill-opacity:1.00" />
<text x="287.000000" y="140">
4
</text>
<rect height="7.000000" width="2.000000" x="325.000000" y="120.000000" fill="rgb(0, 0, 0)" style="fill-opacity:1.00" />
<text x="347.000000" y="140">
5
</text>
<rect height="7.000000" width="2.000000" x="385.000000" y="120.000000" fill="rgb(0, 0, 0)" style="fill-opacity:1.00" />
<text x="407.000000" y="140">
6
</text>
<rect height="7.000000" width="2.000000" x="445.000000" y="120.000000" fill="rgb(0, 0, 0)" style="fill-opacity:1.00" />
<text x="467.000000" y="140">
7
</text>
<rect height="7.000000" width="2.000000" x="505.000000" y="120.000000" fill="rgb(0, 0, 0)" style="fill-opacity:1.00" />
<text x="527.000000" y="140">
8
</text>
<rect height="7.000000" width="2.000000" x="565.000000" y="120.000000" fill="rgb(0, 0, 0)" style="fill-opacity:1.00" />
<text x="587.000000" y="140">
9
</text>
<rect height="7.000000" width="2.000000" x="625.000000" y="120.000000" fill="rgb(0, 0, 0)" style="fill-opacity:1.00" />
<text x="647.000000" y="140">
10
</text>
<rect height="7.000000" width="2.000000" x="685.000000" y="120.000000" fill="rgb(0, 0, 0)" style="fill-opacity:1.00" />
<text x="707.000000" y="140">
11
</text>
<rect height="7.000000" width="2.000000" x="745.000000" y="120.000000" fill="rgb(0, 0, 0)" style="fill-opacity:1.00" />
<text x="767.000000" y="140">
12
</text>
<rect height="7.000000" width="2.000000" x="805.000000" y="120.000000" fill="rgb(0, 0, 0)" style="fill-opacity:1.00" />
<text x="827.000000" y="140">
13
</text>
<rect height="7.000000" width="2.000000" x="865.000000" y="120.000000" fill="rgb(0, 0, 0)" style="fill-opacity:1.00" />
<text x="887.000000" y="140">
14
</text>
<rect height="7.000000" width="2.000000" x="925.000000" y="120.000000" fill="rgb(0, 0, 0)" style="fill-opacity:1.00" />
<line x1="80" y1="112" x2="80" y2="10" style="stroke:rgb(99,99,99);stroke-width:2" />
<rect height="2.000000" width="7.000000" x="73.000000" y="110.000000" fill="rgb(0, 0, 0)" style="fill-opacity:1.00" />
<text x="63" y="115">
0
</text>
<rect height="2.000000" width="7.000000" x="73.000000" y="60.000000" fill="rgb(0, 0, 0)" style="fill-opacity:1.00" />
<text x="63" y="65">
1
</text>
<rect height="2.000000" width="7.000000" x="73.000000" y="10.000000" fill="rgb(0, 0, 0)" style="fill-opacity:1.00" />
<text x="63" y="15">
2
</text>
<text x="50" y="65"
transform="rotate(-90, 50, 70)">
bits
</text>
<!-- Begin 'T' -->
<rect height="0.085260" width="50.000000" x="90.000000" y="108.394651" fill="rgb(0, 100, 0)" style="fill-opacity:1.00" />
<rect height="0.532876" width="10.000000" x="110.000000" y="108.394651" fill="rgb(0, 100, 0)" style="fill-opacity:1.00" />
<!-- End 'T' -->
<!-- Begin 'C' -->
<ellipse cx="115.000000" cy="109.137071" rx="25.000000" ry="0.209543" fill="rgb(0, 0, 128)" style="fill-opacity:1.00" />
<ellipse cx="115.000000" cy="109.137071" rx="16.666667" ry="0.139695" fill="rgb(255, 255, 255)" style="fill-opacity:1.00" />
<rect height="0.209543" width="25.000000" x="115.000000" y="109.032299" fill="rgb(255, 255, 255)" style="fill-opacity:1.00" />
<!-- End 'C' -->
<!-- Begin 'G' -->
<ellipse cx="115.000000" cy="109.518911" rx="25.000000" ry="0.172297" fill="rgb(255, 165, 0)" style="fill-opacity:1.00" />
<ellipse cx="115.000000" cy="109.518911" rx="16.666667" ry="0.114865" fill="rgb(255, 255, 255)" style="fill-opacity:1.00" />
<rect height="0.172297" width="25.000000" x="115.000000" y="109.432763" fill="rgb(255, 255, 255)" style="fill-opacity:1.00" />
<rect height="0.043074" width="25.000000" x="115.000000" y="109.561986" fill="rgb(255, 165, 0)" style="fill-opacity:1.00" />
<rect height="0.129223" width="6.250000" x="133.750000" y="109.561986" fill="rgb(255, 165, 0)" style="fill-opacity:1.00" />
<!-- End 'G' -->
<!-- Begin 'A' -->
<polygon points=" 90.000000, 110.000000, 111.000000, 109.691209, 119.000000, 109.691209, 140.000000, 110.000000, 132.500000, 110.000000, 126.250000, 109.922802, 103.750000, 109.922802, 97.500000, 110.000000" fill="rgb(178, 34, 34)" style="fill-opacity:1.00" />
<!-- End 'A' -->
<!-- Begin 'T' -->
<rect height="3.326691" width="50.000000" x="150.000000" y="78.827244" fill="rgb(0, 100, 0)" style="fill-opacity:1.00" />
<rect height="20.791818" width="10.000000" x="170.000000" y="78.827244" fill="rgb(0, 100, 0)" style="fill-opacity:1.00" />
<!-- End 'T' -->
<!-- Begin 'A' -->
<polygon points=" 150.000000, 105.693556, 171.000000, 99.619062, 179.000000, 99.619062, 200.000000, 105.693556, 192.500000, 105.693556, 186.250000, 104.174933, 163.750000, 104.174933, 157.500000, 105.693556" fill="rgb(178, 34, 34)" style="fill-opacity:1.00" />
<!-- End 'A' -->
<!-- Begin 'G' -->
<ellipse cx="175.000000" cy="107.023933" rx="25.000000" ry="1.330377" fill="rgb(255, 165, 0)" style="fill-opacity:1.00" />
<ellipse cx="175.000000" cy="107.023933" rx="16.666667" ry="0.886918" fill="rgb(255, 255, 255)" style="fill-opacity:1.00" />
<rect height="1.330377" width="25.000000" x="175.000000" y="106.358745" fill="rgb(255, 255, 255)" style="fill-opacity:1.00" />
<rect height="0.332594" width="25.000000" x="175.000000" y="107.356527" fill="rgb(255, 165, 0)" style="fill-opacity:1.00" />
<rect height="0.997783" width="6.250000" x="193.750000" y="107.356527" fill="rgb(255, 165, 0)" style="fill-opacity:1.00" />
<!-- End 'G' -->
<!-- Begin 'C' -->
<ellipse cx="175.000000" cy="109.177155" rx="25.000000" ry="0.822845" fill="rgb(0, 0, 128)" style="fill-opacity:1.00" />
<ellipse cx="175.000000" cy="109.177155" rx="16.666667" ry="0.548563" fill="rgb(255, 255, 255)" style="fill-opacity:1.00" />
<rect height="0.822845" width="25.000000" x="175.000000" y="108.765733" fill="rgb(255, 255, 255)" style="fill-opacity:1.00" />
<!-- End 'C' -->
<!-- Begin 'T' -->
<rect height="1.616954" width="50.000000" x="210.000000" y="90.804838" fill="rgb(0, 100, 0)" style="fill-opacity:1.00" />
<rect height="10.105962" width="10.000000" x="230.000000" y="90.804838" fill="rgb(0, 100, 0)" style="fill-opacity:1.00" />
<!-- End 'T' -->
<!-- Begin 'G' -->
<ellipse cx="235.000000" cy="103.438315" rx="25.000000" ry="2.527515" fill="rgb(255, 165, 0)" style="fill-opacity:1.00" />
<ellipse cx="235.000000" cy="103.438315" rx="16.666667" ry="1.685010" fill="rgb(255, 255, 255)" style="fill-opacity:1.00" />
<rect height="2.527515" width="25.000000" x="235.000000" y="102.174557" fill="rgb(255, 255, 255)" style="fill-opacity:1.00" />
<rect height="0.631879" width="25.000000" x="235.000000" y="104.070194" fill="rgb(255, 165, 0)" style="fill-opacity:1.00" />
<rect height="1.895636" width="6.250000" x="253.750000" y="104.070194" fill="rgb(255, 165, 0)" style="fill-opacity:1.00" />
<!-- End 'G' -->
<!-- Begin 'A' -->
<polygon points=" 210.000000, 109.219647, 231.000000, 105.965830, 239.000000, 105.965830, 260.000000, 109.219647, 252.500000, 109.219647, 246.250000, 108.406193, 223.750000, 108.406193, 217.500000, 109.219647" fill="rgb(178, 34, 34)" style="fill-opacity:1.00" />
<!-- End 'A' -->
<!-- Begin 'C' -->
<ellipse cx="235.000000" cy="109.609823" rx="25.000000" ry="0.390177" fill="rgb(0, 0, 128)" style="fill-opacity:1.00" />
<ellipse cx="235.000000" cy="109.609823" rx="16.666667" ry="0.260118" fill="rgb(255, 255, 255)" style="fill-opacity:1.00" />
<rect height="0.390177" width="25.000000" x="235.000000" y="109.414735" fill="rgb(255, 255, 255)" style="fill-opacity:1.00" />
<!-- End 'C' -->
<!-- Begin 'C' -->
<ellipse cx="295.000000" cy="96.706341" rx="25.000000" ry="4.399537" fill="rgb(0, 0, 128)" style="fill-opacity:1.00" />
<ellipse cx="295.000000" cy="96.706341" rx="16.666667" ry="2.933025" fill="rgb(255, 255, 255)" style="fill-opacity:1.00" />
<rect height="4.399537" width="25.000000" x="295.000000" y="94.506572" fill="rgb(255, 255, 255)" style="fill-opacity:1.00" />
<!-- End 'C' -->
<!-- Begin 'A' -->
<polygon points=" 270.000000, 106.702603, 291.000000, 101.105878, 299.000000, 101.105878, 320.000000, 106.702603, 312.500000, 106.702603, 306.250000, 105.303422, 283.750000, 105.303422, 277.500000, 106.702603" fill="rgb(178, 34, 34)" style="fill-opacity:1.00" />
<!-- End 'A' -->
<!-- Begin 'G' -->
<ellipse cx="295.000000" cy="107.828254" rx="25.000000" ry="1.125651" fill="rgb(255, 165, 0)" style="fill-opacity:1.00" />
<ellipse cx="295.000000" cy="107.828254" rx="16.666667" ry="0.750434" fill="rgb(255, 255, 255)" style="fill-opacity:1.00" />
<rect height="1.125651" width="25.000000" x="295.000000" y="107.265428" fill="rgb(255, 255, 255)" style="fill-opacity:1.00" />
<rect height="0.281413" width="25.000000" x="295.000000" y="108.109667" fill="rgb(255, 165, 0)" style="fill-opacity:1.00" />
<rect height="0.844238" width="6.250000" x="313.750000" y="108.109667" fill="rgb(255, 165, 0)" style="fill-opacity:1.00" />
<!-- End 'G' -->
<!-- Begin 'T' -->
<rect height="0.167375" width="50.000000" x="270.000000" y="108.953905" fill="rgb(0, 100, 0)" style="fill-opacity:1.00" />
<rect height="1.046095" width="10.000000" x="290.000000" y="108.953905" fill="rgb(0, 100, 0)" style="fill-opacity:1.00" />
<!-- End 'T' -->
<!-- Begin 'C' -->
<ellipse cx="355.000000" cy="104.286374" rx="25.000000" ry="1.549705" fill="rgb(0, 0, 128)" style="fill-opacity:1.00" />
<ellipse cx="355.000000" cy="104.286374" rx="16.666667" ry="1.033137" fill="rgb(255, 255, 255)" style="fill-opacity:1.00" />
<rect height="1.549705" width="25.000000" x="355.000000" y="103.511521" fill="rgb(255, 255, 255)" style="fill-opacity:1.00" />
<!-- End 'C' -->
<!-- Begin 'T' -->
<rect height="0.308053" width="50.000000" x="330.000000" y="105.836079" fill="rgb(0, 100, 0)" style="fill-opacity:1.00" />
<rect height="1.925332" width="10.000000" x="350.000000" y="105.836079" fill="rgb(0, 100, 0)" style="fill-opacity:1.00" />
<!-- End 'T' -->
<!-- Begin 'A' -->
<polygon points=" 330.000000, 109.103375, 351.000000, 107.761411, 359.000000, 107.761411, 380.000000, 109.103375, 372.500000, 109.103375, 366.250000, 108.767884, 343.750000, 108.767884, 337.500000, 109.103375" fill="rgb(178, 34, 34)" style="fill-opacity:1.00" />
<!-- End 'A' -->
<!-- Begin 'G' -->
<ellipse cx="355.000000" cy="109.551688" rx="25.000000" ry="0.448312" fill="rgb(255, 165, 0)" style="fill-opacity:1.00" />
<ellipse cx="355.000000" cy="109.551688" rx="16.666667" ry="0.298875" fill="rgb(255, 255, 255)" style="fill-opacity:1.00" />
<rect height="0.448312" width="25.000000" x="355.000000" y="109.327531" fill="rgb(255, 255, 255)" style="fill-opacity:1.00" />
<rect height="0.112078" width="25.000000" x="355.000000" y="109.663766" fill="rgb(255, 165, 0)" style="fill-opacity:1.00" />
<rect height="0.336234" width="6.250000" x="373.750000" y="109.663766" fill="rgb(255, 165, 0)" style="fill-opacity:1.00" />
<!-- End 'G' -->
<!-- Begin 'A' -->
<polygon points=" 390.000000, 108.715130, 411.000000, 108.037861, 419.000000, 108.037861, 440.000000, 108.715130, 432.500000, 108.715130, 426.250000, 108.545813, 403.750000, 108.545813, 397.500000, 108.715130" fill="rgb(178, 34, 34)" style="fill-opacity:1.00" />
<!-- End 'A' -->
<!-- Begin 'G' -->
<ellipse cx="415.000000" cy="108.962207" rx="25.000000" ry="0.247077" fill="rgb(255, 165, 0)" style="fill-opacity:1.00" />
<ellipse cx="415.000000" cy="108.962207" rx="16.666667" ry="0.164718" fill="rgb(255, 255, 255)" style="fill-opacity:1.00" />
<rect height="0.247077" width="25.000000" x="415.000000" y="108.838668" fill="rgb(255, 255, 255)" style="fill-opacity:1.00" />
<rect height="0.061769" width="25.000000" x="415.000000" y="109.023976" fill="rgb(255, 165, 0)" style="fill-opacity:1.00" />
<rect height="0.185307" width="6.250000" x="433.750000" y="109.023976" fill="rgb(255, 165, 0)" style="fill-opacity:1.00" />
<!-- End 'G' -->
<!-- Begin 'T' -->
<rect height="0.067562" width="50.000000" x="390.000000" y="109.209283" fill="rgb(0, 100, 0)" style="fill-opacity:1.00" />
<rect height="0.422264" width="10.000000" x="410.000000" y="109.209283" fill="rgb(0, 100, 0)" style="fill-opacity:1.00" />
<!-- End 'T' -->
<!-- Begin 'C' -->
<ellipse cx="415.000000" cy="109.815773" rx="25.000000" ry="0.184227" fill="rgb(0, 0, 128)" style="fill-opacity:1.00" />
<ellipse cx="415.000000" cy="109.815773" rx="16.666667" ry="0.122818" fill="rgb(255, 255, 255)" style="fill-opacity:1.00" />
<rect height="0.184227" width="25.000000" x="415.000000" y="109.723660" fill="rgb(255, 255, 255)" style="fill-opacity:1.00" />
<!-- End 'C' -->
<!-- Begin 'G' -->
<ellipse cx="475.000000" cy="91.734448" rx="25.000000" ry="7.062013" fill="rgb(255, 165, 0)" style="fill-opacity:1.00" />
<ellipse cx="475.000000" cy="91.734448" rx="16.666667" ry="4.708009" fill="rgb(255, 255, 255)" style="fill-opacity:1.00" />
<rect height="7.062013" width="25.000000" x="475.000000" y="88.203442" fill="rgb(255, 255, 255)" style="fill-opacity:1.00" />
<rect height="1.765503" width="25.000000" x="475.000000" y="93.499951" fill="rgb(255, 165, 0)" style="fill-opacity:1.00" />
<rect height="5.296510" width="6.250000" x="493.750000" y="93.499951" fill="rgb(255, 165, 0)" style="fill-opacity:1.00" />
<!-- End 'G' -->
<!-- Begin 'A' -->
<polygon points=" 450.000000, 106.638323, 471.000000, 98.796461, 479.000000, 98.796461, 500.000000, 106.638323, 492.500000, 106.638323, 486.250000, 104.677857, 463.750000, 104.677857, 457.500000, 106.638323" fill="rgb(178, 34, 34)" style="fill-opacity:1.00" />
<!-- End 'A' -->
<!-- Begin 'T' -->
<rect height="0.388289" width="50.000000" x="450.000000" y="106.638323" fill="rgb(0, 100, 0)" style="fill-opacity:1.00" />
<rect height="2.426808" width="10.000000" x="470.000000" y="106.638323" fill="rgb(0, 100, 0)" style="fill-opacity:1.00" />
<!-- End 'T' -->
<!-- Begin 'C' -->
<ellipse cx="475.000000" cy="109.532565" rx="25.000000" ry="0.467435" fill="rgb(0, 0, 128)" style="fill-opacity:1.00" />
<ellipse cx="475.000000" cy="109.532565" rx="16.666667" ry="0.311623" fill="rgb(255, 255, 255)" style="fill-opacity:1.00" />
<rect height="0.467435" width="25.000000" x="475.000000" y="109.298848" fill="rgb(255, 255, 255)" style="fill-opacity:1.00" />
<!-- End 'C' -->
<!-- Begin 'G' -->
<ellipse cx="535.000000" cy="81.681230" rx="25.000000" ry="17.145902" fill="rgb(255, 165, 0)" style="fill-opacity:1.00" />
<ellipse cx="535.000000" cy="81.681230" rx="16.666667" ry="11.430601" fill="rgb(255, 255, 255)" style="fill-opacity:1.00" />
<rect height="17.145902" width="25.000000" x="535.000000" y="73.108279" fill="rgb(255, 255, 255)" style="fill-opacity:1.00" />
<rect height="4.286476" width="25.000000" x="535.000000" y="85.967705" fill="rgb(255, 165, 0)" style="fill-opacity:1.00" />
<rect height="12.859427" width="6.250000" x="553.750000" y="85.967705" fill="rgb(255, 165, 0)" style="fill-opacity:1.00" />
<!-- End 'G' -->
<!-- Begin 'T' -->
<rect height="0.953590" width="50.000000" x="510.000000" y="98.827132" fill="rgb(0, 100, 0)" style="fill-opacity:1.00" />
<rect height="5.959939" width="10.000000" x="530.000000" y="98.827132" fill="rgb(0, 100, 0)" style="fill-opacity:1.00" />
<!-- End 'T' -->
<!-- Begin 'A' -->
<polygon points=" 510.000000, 109.643278, 531.000000, 104.787071, 539.000000, 104.787071, 560.000000, 109.643278, 552.500000, 109.643278, 546.250000, 108.429226, 523.750000, 108.429226, 517.500000, 109.643278" fill="rgb(178, 34, 34)" style="fill-opacity:1.00" />
<!-- End 'A' -->
<!-- Begin 'C' -->
<ellipse cx="535.000000" cy="109.821639" rx="25.000000" ry="0.178361" fill="rgb(0, 0, 128)" style="fill-opacity:1.00" />
<ellipse cx="535.000000" cy="109.821639" rx="16.666667" ry="0.118907" fill="rgb(255, 255, 255)" style="fill-opacity:1.00" />
<rect height="0.178361" width="25.000000" x="535.000000" y="109.732458" fill="rgb(255, 255, 255)" style="fill-opacity:1.00" />
<!-- End 'C' -->
<!-- Begin 'A' -->
<polygon points=" 570.000000, 102.393209, 591.000000, 40.423692, 599.000000, 40.423692, 620.000000, 102.393209, 612.500000, 102.393209, 606.250000, 86.900830, 583.750000, 86.900830, 577.500000, 102.393209" fill="rgb(178, 34, 34)" style="fill-opacity:1.00" />
<polygon points=" 595.000000, 52.817595, 587.000000, 76.605402, 602.000000, 76.605402" fill="rgb(255, 255, 255)" style="fill-opacity:1.00" />
<!-- End 'A' -->
<!-- Begin 'C' -->
<ellipse cx="595.000000" cy="104.655003" rx="25.000000" ry="2.261794" fill="rgb(0, 0, 128)" style="fill-opacity:1.00" />
<ellipse cx="595.000000" cy="104.655003" rx="16.666667" ry="1.507863" fill="rgb(255, 255, 255)" style="fill-opacity:1.00" />
<rect height="2.261794" width="25.000000" x="595.000000" y="103.524106" fill="rgb(255, 255, 255)" style="fill-opacity:1.00" />
<!-- End 'C' -->
<!-- Begin 'T' -->
<rect height="0.487496" width="50.000000" x="570.000000" y="106.916797" fill="rgb(0, 100, 0)" style="fill-opacity:1.00" />
<rect height="3.046853" width="10.000000" x="590.000000" y="106.916797" fill="rgb(0, 100, 0)" style="fill-opacity:1.00" />
<!-- End 'T' -->
<!-- Begin 'G' -->
<ellipse cx="595.000000" cy="109.981825" rx="25.000000" ry="0.018175" fill="rgb(255, 165, 0)" style="fill-opacity:1.00" />
<ellipse cx="595.000000" cy="109.981825" rx="16.666667" ry="0.012117" fill="rgb(255, 255, 255)" style="fill-opacity:1.00" />
<rect height="0.018175" width="25.000000" x="595.000000" y="109.972738" fill="rgb(255, 255, 255)" style="fill-opacity:1.00" />
<rect height="0.004544" width="25.000000" x="595.000000" y="109.986369" fill="rgb(255, 165, 0)" style="fill-opacity:1.00" />
<rect height="0.013631" width="6.250000" x="613.750000" y="109.986369" fill="rgb(255, 165, 0)" style="fill-opacity:1.00" />
<!-- End 'G' -->
<!-- Begin 'A' -->
<polygon points=" 630.000000, 104.981453, 651.000000, 31.387668, 659.000000, 31.387668, 680.000000, 104.981453, 672.500000, 104.981453, 666.250000, 86.583007, 643.750000, 86.583007, 637.500000, 104.981453" fill="rgb(178, 34, 34)" style="fill-opacity:1.00" />
<polygon points=" 655.000000, 46.106425, 647.000000, 74.543939, 662.000000, 74.543939" fill="rgb(255, 255, 255)" style="fill-opacity:1.00" />
<!-- End 'A' -->
<!-- Begin 'G' -->
<ellipse cx="655.000000" cy="106.436744" rx="25.000000" ry="1.455291" fill="rgb(255, 165, 0)" style="fill-opacity:1.00" />
<ellipse cx="655.000000" cy="106.436744" rx="16.666667" ry="0.970194" fill="rgb(255, 255, 255)" style="fill-opacity:1.00" />
<rect height="1.455291" width="25.000000" x="655.000000" y="105.709099" fill="rgb(255, 255, 255)" style="fill-opacity:1.00" />
<rect height="0.363823" width="25.000000" x="655.000000" y="106.800567" fill="rgb(255, 165, 0)" style="fill-opacity:1.00" />
<rect height="1.091468" width="6.250000" x="673.750000" y="106.800567" fill="rgb(255, 165, 0)" style="fill-opacity:1.00" />
<!-- End 'G' -->
<!-- Begin 'T' -->
<rect height="0.245918" width="50.000000" x="630.000000" y="107.892034" fill="rgb(0, 100, 0)" style="fill-opacity:1.00" />
<rect height="1.536984" width="10.000000" x="650.000000" y="107.892034" fill="rgb(0, 100, 0)" style="fill-opacity:1.00" />
<!-- End 'T' -->
<!-- Begin 'C' -->
<ellipse cx="655.000000" cy="109.714509" rx="25.000000" ry="0.285491" fill="rgb(0, 0, 128)" style="fill-opacity:1.00" />
<ellipse cx="655.000000" cy="109.714509" rx="16.666667" ry="0.190327" fill="rgb(255, 255, 255)" style="fill-opacity:1.00" />
<rect height="0.285491" width="25.000000" x="655.000000" y="109.571764" fill="rgb(255, 255, 255)" style="fill-opacity:1.00" />
<!-- End 'C' -->
<!-- Begin 'A' -->
<polygon points=" 690.000000, 103.233057, 711.000000, 97.645882, 719.000000, 97.645882, 740.000000, 103.233057, 732.500000, 103.233057, 726.250000, 101.836263, 703.750000, 101.836263, 697.500000, 103.233057" fill="rgb(178, 34, 34)" style="fill-opacity:1.00" />
<!-- End 'A' -->
<!-- Begin 'G' -->
<ellipse cx="715.000000" cy="105.211545" rx="25.000000" ry="1.978489" fill="rgb(255, 165, 0)" style="fill-opacity:1.00" />
<ellipse cx="715.000000" cy="105.211545" rx="16.666667" ry="1.318993" fill="rgb(255, 255, 255)" style="fill-opacity:1.00" />
<rect height="1.978489" width="25.000000" x="715.000000" y="104.222301" fill="rgb(255, 255, 255)" style="fill-opacity:1.00" />
<rect height="0.494622" width="25.000000" x="715.000000" y="105.706168" fill="rgb(255, 165, 0)" style="fill-opacity:1.00" />
<rect height="1.483867" width="6.250000" x="733.750000" y="105.706168" fill="rgb(255, 165, 0)" style="fill-opacity:1.00" />
<!-- End 'G' -->
<!-- Begin 'C' -->
<ellipse cx="715.000000" cy="108.005827" rx="25.000000" ry="0.815793" fill="rgb(0, 0, 128)" style="fill-opacity:1.00" />
<ellipse cx="715.000000" cy="108.005827" rx="16.666667" ry="0.543862" fill="rgb(255, 255, 255)" style="fill-opacity:1.00" />
<rect height="0.815793" width="25.000000" x="715.000000" y="107.597931" fill="rgb(255, 255, 255)" style="fill-opacity:1.00" />
<!-- End 'C' -->
<!-- Begin 'T' -->
<rect height="0.188541" width="50.000000" x="690.000000" y="108.821619" fill="rgb(0, 100, 0)" style="fill-opacity:1.00" />
<rect height="1.178381" width="10.000000" x="710.000000" y="108.821619" fill="rgb(0, 100, 0)" style="fill-opacity:1.00" />
<!-- End 'T' -->
<!-- Begin 'T' -->
<rect height="0.028523" width="50.000000" x="750.000000" y="109.392386" fill="rgb(0, 100, 0)" style="fill-opacity:1.00" />
<rect height="0.178267" width="10.000000" x="770.000000" y="109.392386" fill="rgb(0, 100, 0)" style="fill-opacity:1.00" />
<!-- End 'T' -->
<!-- Begin 'C' -->
<ellipse cx="775.000000" cy="109.651856" rx="25.000000" ry="0.081203" fill="rgb(0, 0, 128)" style="fill-opacity:1.00" />
<ellipse cx="775.000000" cy="109.651856" rx="16.666667" ry="0.054136" fill="rgb(255, 255, 255)" style="fill-opacity:1.00" />
<rect height="0.081203" width="25.000000" x="775.000000" y="109.611255" fill="rgb(255, 255, 255)" style="fill-opacity:1.00" />
<!-- End 'C' -->
<!-- Begin 'A' -->
<polygon points=" 750.000000, 109.872464, 771.000000, 109.733060, 779.000000, 109.733060, 800.000000, 109.872464, 792.500000, 109.872464, 786.250000, 109.837613, 763.750000, 109.837613, 757.500000, 109.872464" fill="rgb(178, 34, 34)" style="fill-opacity:1.00" />
<!-- End 'A' -->
<!-- Begin 'G' -->
<ellipse cx="775.000000" cy="109.936232" rx="25.000000" ry="0.063768" fill="rgb(255, 165, 0)" style="fill-opacity:1.00" />
<ellipse cx="775.000000" cy="109.936232" rx="16.666667" ry="0.042512" fill="rgb(255, 255, 255)" style="fill-opacity:1.00" />
<rect height="0.063768" width="25.000000" x="775.000000" y="109.904348" fill="rgb(255, 255, 255)" style="fill-opacity:1.00" />
<rect height="0.015942" width="25.000000" x="775.000000" y="109.952174" fill="rgb(255, 165, 0)" style="fill-opacity:1.00" />
<rect height="0.047826" width="6.250000" x="793.750000" y="109.952174" fill="rgb(255, 165, 0)" style="fill-opacity:1.00" />
<!-- End 'G' -->
<!-- Begin 'G' -->
<ellipse cx="835.000000" cy="109.312894" rx="25.000000" ry="0.127137" fill="rgb(255, 165, 0)" style="fill-opacity:1.00" />
<ellipse cx="835.000000" cy="109.312894" rx="16.666667" ry="0.084758" fill="rgb(255, 255, 255)" style="fill-opacity:1.00" />
<rect height="0.127137" width="25.000000" x="835.000000" y="109.249325" fill="rgb(255, 255, 255)" style="fill-opacity:1.00" />
<rect height="0.031784" width="25.000000" x="835.000000" y="109.344678" fill="rgb(255, 165, 0)" style="fill-opacity:1.00" />
<rect height="0.095353" width="6.250000" x="853.750000" y="109.344678" fill="rgb(255, 165, 0)" style="fill-opacity:1.00" />
<!-- End 'G' -->
<!-- Begin 'A' -->
<polygon points=" 810.000000, 109.637607, 831.000000, 109.440031, 839.000000, 109.440031, 860.000000, 109.637607, 852.500000, 109.637607, 846.250000, 109.588213, 823.750000, 109.588213, 817.500000, 109.637607" fill="rgb(178, 34, 34)" style="fill-opacity:1.00" />
<!-- End 'A' -->
<!-- Begin 'C' -->
<ellipse cx="835.000000" cy="109.733835" rx="25.000000" ry="0.096228" fill="rgb(0, 0, 128)" style="fill-opacity:1.00" />
<ellipse cx="835.000000" cy="109.733835" rx="16.666667" ry="0.064152" fill="rgb(255, 255, 255)" style="fill-opacity:1.00" />
<rect height="0.096228" width="25.000000" x="835.000000" y="109.685721" fill="rgb(255, 255, 255)" style="fill-opacity:1.00" />
<!-- End 'C' -->
<!-- Begin 'T' -->
<rect height="0.027190" width="50.000000" x="810.000000" y="109.830063" fill="rgb(0, 100, 0)" style="fill-opacity:1.00" />
<rect height="0.169937" width="10.000000" x="830.000000" y="109.830063" fill="rgb(0, 100, 0)" style="fill-opacity:1.00" />
<!-- End 'T' -->
<!-- Begin 'G' -->
<ellipse cx="895.000000" cy="108.375786" rx="25.000000" ry="0.308385" fill="rgb(255, 165, 0)" style="fill-opacity:1.00" />
<ellipse cx="895.000000" cy="108.375786" rx="16.666667" ry="0.205590" fill="rgb(255, 255, 255)" style="fill-opacity:1.00" />
<rect height="0.308385" width="25.000000" x="895.000000" y="108.221594" fill="rgb(255, 255, 255)" style="fill-opacity:1.00" />
<rect height="0.077096" width="25.000000" x="895.000000" y="108.452882" fill="rgb(255, 165, 0)" style="fill-opacity:1.00" />
<rect height="0.231289" width="6.250000" x="913.750000" y="108.452882" fill="rgb(255, 165, 0)" style="fill-opacity:1.00" />
<!-- End 'G' -->
<!-- Begin 'A' -->
<polygon points=" 870.000000, 109.253557, 891.000000, 108.684171, 899.000000, 108.684171, 920.000000, 109.253557, 912.500000, 109.253557, 906.250000, 109.111211, 883.750000, 109.111211, 877.500000, 109.253557" fill="rgb(178, 34, 34)" style="fill-opacity:1.00" />
<!-- End 'A' -->
<!-- Begin 'C' -->
<ellipse cx="895.000000" cy="109.446019" rx="25.000000" ry="0.192461" fill="rgb(0, 0, 128)" style="fill-opacity:1.00" />
<ellipse cx="895.000000" cy="109.446019" rx="16.666667" ry="0.128308" fill="rgb(255, 255, 255)" style="fill-opacity:1.00" />
<rect height="0.192461" width="25.000000" x="895.000000" y="109.349788" fill="rgb(255, 255, 255)" style="fill-opacity:1.00" />
<!-- End 'C' -->
<!-- Begin 'T' -->
<rect height="0.057843" width="50.000000" x="870.000000" y="109.638480" fill="rgb(0, 100, 0)" style="fill-opacity:1.00" />
<rect height="0.361520" width="10.000000" x="890.000000" y="109.638480" fill="rgb(0, 100, 0)" style="fill-opacity:1.00" />
<!-- End 'T' -->
<text x="490.000000" y="165">
IC = 6.27
</text>

</svg>
