<?xml version="1.0" encoding="UTF-8" standalone="yes"?>
                 <!DOCTYPE svg PUBLIC "-//W3C//DTD SVG 1.0//EN" "http://www.w3.org/TR/2001/REC-SVG-20010904/DTD/svg10.dtd">
                 <svg height="170" width="960" xmlns="http://www.w3.org/2000/svg" xmlns:xlink="http://www.w3.org/1999/xlink">
                 <line x1="85" y1="120" x2="927" y2="120" style="stroke:rgb(99,99,99);stroke-width:2" />
<rect height="7.000000" width="2.000000" x="85.000000" y="120.000000" fill="rgb(0, 0, 0)" style="fill-opacity:1.00" />
<text x="107.000000" y="140">
1
</text>
<rect height="7.000000" width="2.000000" x="145.000000" y="120.000000" fill="rgb(0, 0, 0)" style="fill-opacity:1.00" />
<text x="167.000000" y="140">
2
</text>
<rect height="7.000000" width="2.000000" x="205.000000" y="120.000000" fill="rgb(0, 0, 0)" style="fill-opacity:1.00" />
<text x="227.000000" y="140">
3
</text>
<rect height="7.000000" width="2.000000" x="265.000000" y="120.000000" fill="rgb(0, 0, 0)" style="fill-opacity:1.00" />
<text x="287.000000" y="140">
4
</text>
<rect height="7.000000" width="2.000000" x="325.000000" y="120.000000" fill="rgb(0, 0, 0)" style="fill-opacity:1.00" />
<text x="347.000000" y="140">
5
</text>
<rect height="7.000000" width="2.000000" x="385.000000" y="120.000000" fill="rgb(0, 0, 0)" style="fill-opacity:1.00" />
<text x="407.000000" y="140">
6
</text>
<rect height="7.000000" width="2.000000" x="445.000000" y="120.000000" fill="rgb(0, 0, 0)" style="fill-opacity:1.00" />
<text x="467.000000" y="140">
7
</text>
<rect height="7.000000" width="2.000000" x="505.000000" y="120.000000" fill="rgb(0, 0, 0)" style="fill-opacity:1.00" />
<text x="527.000000" y="140">
8
</text>
<rect height="7.000000" width="2.000000" x="565.000000" y="120.000000" fill="rgb(0, 0, 0)" style="fill-opacity:1.00" />
<text x="587.000000" y="140">
9
</text>
<rect height="7.000000" width="2.000000" x="625.000000" y="120.000000" fill="rgb(0, 0, 0)" style="fill-opacity:1.00" />
<text x="647.000000" y="140">
10
</text>
<rect height="7.000000" width="2.000000" x="685.000000" y="120.000000" fill="rgb(0, 0, 0)" style="fill-opacity:1.00" />
<text x="707.000000" y="140">
11
</text>
<rect height="7.000000" width="2.000000" x="745.000000" y="120.000000" fill="rgb(0, 0, 0)" style="fill-opacity:1.00" />
<text x="767.000000" y="140">
12
</text>
<rect height="7.000000" width="2.000000" x="805.000000" y="120.000000" fill="rgb(0, 0, 0)" style="fill-opacity:1.00" />
<text x="827.000000" y="140">
13
</text>
<rect height="7.000000" width="2.000000" x="865.000000" y="120.000000" fill="rgb(0, 0, 0)" style="fill-opacity:1.00" />
<text x="887.000000" y="140">
14
</text>
<rect height="7.000000" width="2.000000" x="925.000000" y="120.000000" fill="rgb(0, 0, 0)" style="fill-opacity:1.00" />
<line x1="80" y1="112" x2="80" y2="10" style="stroke:rgb(99,99,99);stroke-width:2" />
<rect height="2.000000" width="7.000000" x="73.000000" y="110.000000" fill="rgb(0, 0, 0)" style="fill-opacity:1.00" />
<text x="63" y="115">
0
</text>
<rect height="2.000000" width="7.000000" x="73.000000" y="60.000000" fill="rgb(0, 0, 0)" style="fill-opacity:1.00" />
<text x="63" y="65">
1
</text>
<rect height="2.000000" width="7.000000" x="73.000000" y="10.000000" fill="rgb(0, 0, 0)" style="fill-opacity:1.00" />
<text x="63" y="15">
2
</text>
<text x="50" y="65"
transform="rotate(-90, 50, 70)">
bits
</text>
<!-- Begin 'T' -->
<rect height="0.162863" width="50.000000" x="90.000000" y="106.987212" fill="rgb(0, 100, 0)" style="fill-opacity:1.00" />
<rect height="1.017894" width="10.000000" x="110.000000" y="106.987212" fill="rgb(0, 100, 0)" style="fill-opacity:1.00" />
<!-- End 'T' -->
<!-- Begin 'A' -->
<polygon points=" 90.000000, 108.894491, 111.000000, 108.005106, 119.000000, 108.005106, 140.000000, 108.894491, 132.500000, 108.894491, 126.250000, 108.672145, 103.750000, 108.672145, 97.500000, 108.894491" fill="rgb(178, 34, 34)" style="fill-opacity:1.00" />
<!-- End 'A' -->
<!-- Begin 'G' -->
<ellipse cx="115.000000" cy="109.214002" rx="25.000000" ry="0.319512" fill="rgb(255, 165, 0)" style="fill-opacity:1.00" />
<ellipse cx="115.000000" cy="109.214002" rx="16.666667" ry="0.213008" fill="rgb(255, 255, 255)" style="fill-opacity:1.00" />
<rect height="0.319512" width="25.000000" x="115.000000" y="109.054247" fill="rgb(255, 255, 255)" style="fill-opacity:1.00" />
<rect height="0.079878" width="25.000000" x="115.000000" y="109.293880" fill="rgb(255, 165, 0)" style="fill-opacity:1.00" />
<rect height="0.239634" width="6.250000" x="133.750000" y="109.293880" fill="rgb(255, 165, 0)" style="fill-opacity:1.00" />
<!-- End 'G' -->
<!-- Begin 'C' -->
<ellipse cx="115.000000" cy="109.766757" rx="25.000000" ry="0.233243" fill="rgb(0, 0, 128)" style="fill-opacity:1.00" />
<ellipse cx="115.000000" cy="109.766757" rx="16.666667" ry="0.155495" fill="rgb(255, 255, 255)" style="fill-opacity:1.00" />
<rect height="0.233243" width="25.000000" x="115.000000" y="109.650136" fill="rgb(255, 255, 255)" style="fill-opacity:1.00" />
<!-- End 'C' -->
<!-- Begin 'G' -->
<ellipse cx="175.000000" cy="93.883257" rx="25.000000" ry="7.198617" fill="rgb(255, 165, 0)" style="fill-opacity:1.00" />
<ellipse cx="175.000000" cy="93.883257" rx="16.666667" ry="4.799078" fill="rgb(255, 255, 255)" style="fill-opacity:1.00" />
<rect height="7.198617" width="25.000000" x="175.000000" y="90.283949" fill="rgb(255, 255, 255)" style="fill-opacity:1.00" />
<rect height="1.799654" width="25.000000" x="175.000000" y="95.682911" fill="rgb(255, 165, 0)" style="fill-opacity:1.00" />
<rect height="5.398963" width="6.250000" x="193.750000" y="95.682911" fill="rgb(255, 165, 0)" style="fill-opacity:1.00" />
<!-- End 'G' -->
<!-- Begin 'A' -->
<polygon points=" 150.000000, 105.531021, 171.000000, 101.081874, 179.000000, 101.081874, 200.000000, 105.531021, 192.500000, 105.531021, 186.250000, 104.418735, 163.750000, 104.418735, 157.500000, 105.531021" fill="rgb(178, 34, 34)" style="fill-opacity:1.00" />
<!-- End 'A' -->
<!-- Begin 'T' -->
<rect height="0.373308" width="50.000000" x="150.000000" y="105.531021" fill="rgb(0, 100, 0)" style="fill-opacity:1.00" />
<rect height="2.333174" width="10.000000" x="170.000000" y="105.531021" fill="rgb(0, 100, 0)" style="fill-opacity:1.00" />
<!-- End 'T' -->
<!-- Begin 'C' -->
<ellipse cx="175.000000" cy="108.932098" rx="25.000000" ry="1.067902" fill="rgb(0, 0, 128)" style="fill-opacity:1.00" />
<ellipse cx="175.000000" cy="108.932098" rx="16.666667" ry="0.711935" fill="rgb(255, 255, 255)" style="fill-opacity:1.00" />
<rect height="1.067902" width="25.000000" x="175.000000" y="108.398147" fill="rgb(255, 255, 255)" style="fill-opacity:1.00" />
<!-- End 'C' -->
<!-- Begin 'T' -->
<rect height="3.540114" width="50.000000" x="210.000000" y="78.075969" fill="rgb(0, 100, 0)" style="fill-opacity:1.00" />
<rect height="22.125711" width="10.000000" x="230.000000" y="78.075969" fill="rgb(0, 100, 0)" style="fill-opacity:1.00" />
<!-- End 'T' -->
<!-- Begin 'C' -->
<ellipse cx="235.000000" cy="102.374199" rx="25.000000" ry="2.172518" fill="rgb(0, 0, 128)" style="fill-opacity:1.00" />
<ellipse cx="235.000000" cy="102.374199" rx="16.666667" ry="1.448346" fill="rgb(255, 255, 255)" style="fill-opacity:1.00" />
<rect height="2.172518" width="25.000000" x="235.000000" y="101.287939" fill="rgb(255, 255, 255)" style="fill-opacity:1.00" />
<!-- End 'C' -->
<!-- Begin 'A' -->
<polygon points=" 210.000000, 107.696689, 231.000000, 104.546717, 239.000000, 104.546717, 260.000000, 107.696689, 252.500000, 107.696689, 246.250000, 106.909196, 223.750000, 106.909196, 217.500000, 107.696689" fill="rgb(178, 34, 34)" style="fill-opacity:1.00" />
<!-- End 'A' -->
<!-- Begin 'G' -->
<ellipse cx="235.000000" cy="108.848345" rx="25.000000" ry="1.151655" fill="rgb(255, 165, 0)" style="fill-opacity:1.00" />
<ellipse cx="235.000000" cy="108.848345" rx="16.666667" ry="0.767770" fill="rgb(255, 255, 255)" style="fill-opacity:1.00" />
<rect height="1.151655" width="25.000000" x="235.000000" y="108.272517" fill="rgb(255, 255, 255)" style="fill-opacity:1.00" />
<rect height="0.287914" width="25.000000" x="235.000000" y="109.136258" fill="rgb(255, 165, 0)" style="fill-opacity:1.00" />
<rect height="0.863742" width="6.250000" x="253.750000" y="109.136258" fill="rgb(255, 165, 0)" style="fill-opacity:1.00" />
<!-- End 'G' -->
<!-- Begin 'G' -->
<ellipse cx="295.000000" cy="86.917095" rx="25.000000" ry="12.794540" fill="rgb(255, 165, 0)" style="fill-opacity:1.00" />
<ellipse cx="295.000000" cy="86.917095" rx="16.666667" ry="8.529693" fill="rgb(255, 255, 255)" style="fill-opacity:1.00" />
<rect height="12.794540" width="25.000000" x="295.000000" y="80.519825" fill="rgb(255, 255, 255)" style="fill-opacity:1.00" />
<rect height="3.198635" width="25.000000" x="295.000000" y="90.115730" fill="rgb(255, 165, 0)" style="fill-opacity:1.00" />
<rect height="9.595905" width="6.250000" x="313.750000" y="90.115730" fill="rgb(255, 165, 0)" style="fill-opacity:1.00" />
<!-- End 'G' -->
<!-- Begin 'T' -->
<rect height="0.829294" width="50.000000" x="270.000000" y="99.711635" fill="rgb(0, 100, 0)" style="fill-opacity:1.00" />
<rect height="5.183089" width="10.000000" x="290.000000" y="99.711635" fill="rgb(0, 100, 0)" style="fill-opacity:1.00" />
<!-- End 'T' -->
<!-- Begin 'A' -->
<polygon points=" 270.000000, 108.279252, 291.000000, 104.894724, 299.000000, 104.894724, 320.000000, 108.279252, 312.500000, 108.279252, 306.250000, 107.433120, 283.750000, 107.433120, 277.500000, 108.279252" fill="rgb(178, 34, 34)" style="fill-opacity:1.00" />
<!-- End 'A' -->
<!-- Begin 'C' -->
<ellipse cx="295.000000" cy="109.139626" rx="25.000000" ry="0.860374" fill="rgb(0, 0, 128)" style="fill-opacity:1.00" />
<ellipse cx="295.000000" cy="109.139626" rx="16.666667" ry="0.573583" fill="rgb(255, 255, 255)" style="fill-opacity:1.00" />
<rect height="0.860374" width="25.000000" x="295.000000" y="108.709439" fill="rgb(255, 255, 255)" style="fill-opacity:1.00" />
<!-- End 'C' -->
<!-- Begin 'G' -->
<ellipse cx="355.000000" cy="63.144713" rx="25.000000" ry="45.012934" fill="rgb(255, 165, 0)" style="fill-opacity:1.00" />
<ellipse cx="355.000000" cy="63.144713" rx="16.666667" ry="30.008623" fill="rgb(255, 255, 255)" style="fill-opacity:1.00" />
<rect height="45.012934" width="25.000000" x="355.000000" y="40.638246" fill="rgb(255, 255, 255)" style="fill-opacity:1.00" />
<rect height="11.253234" width="25.000000" x="355.000000" y="74.397946" fill="rgb(255, 165, 0)" style="fill-opacity:1.00" />
<rect height="33.759701" width="6.250000" x="373.750000" y="74.397946" fill="rgb(255, 165, 0)" style="fill-opacity:1.00" />
<!-- End 'G' -->
<!-- Begin 'T' -->
<rect height="0.182177" width="50.000000" x="330.000000" y="108.157647" fill="rgb(0, 100, 0)" style="fill-opacity:1.00" />
<rect height="1.138605" width="10.000000" x="350.000000" y="108.157647" fill="rgb(0, 100, 0)" style="fill-opacity:1.00" />
<!-- End 'T' -->
<!-- Begin 'A' -->
<polygon points=" 330.000000, 109.975888, 351.000000, 109.296252, 359.000000, 109.296252, 380.000000, 109.975888, 372.500000, 109.975888, 366.250000, 109.805979, 343.750000, 109.805979, 337.500000, 109.975888" fill="rgb(178, 34, 34)" style="fill-opacity:1.00" />
<!-- End 'A' -->
<!-- Begin 'C' -->
<ellipse cx="355.000000" cy="109.987944" rx="25.000000" ry="0.012056" fill="rgb(0, 0, 128)" style="fill-opacity:1.00" />
<ellipse cx="355.000000" cy="109.987944" rx="16.666667" ry="0.008037" fill="rgb(255, 255, 255)" style="fill-opacity:1.00" />
<rect height="0.012056" width="25.000000" x="355.000000" y="109.981916" fill="rgb(255, 255, 255)" style="fill-opacity:1.00" />
<!-- End 'C' -->
<!-- Begin 'G' -->
<ellipse cx="415.000000" cy="74.509526" rx="25.000000" ry="26.748035" fill="rgb(255, 165, 0)" style="fill-opacity:1.00" />
<ellipse cx="415.000000" cy="74.509526" rx="16.666667" ry="17.832023" fill="rgb(255, 255, 255)" style="fill-opacity:1.00" />
<rect height="26.748035" width="25.000000" x="415.000000" y="61.135509" fill="rgb(255, 255, 255)" style="fill-opacity:1.00" />
<rect height="6.687009" width="25.000000" x="415.000000" y="81.196535" fill="rgb(255, 165, 0)" style="fill-opacity:1.00" />
<rect height="20.061026" width="6.250000" x="433.750000" y="81.196535" fill="rgb(255, 165, 0)" style="fill-opacity:1.00" />
<!-- End 'G' -->
<!-- Begin 'A' -->
<polygon points=" 390.000000, 107.209422, 411.000000, 101.257561, 419.000000, 101.257561, 440.000000, 107.209422, 432.500000, 107.209422, 426.250000, 105.721457, 403.750000, 105.721457, 397.500000, 107.209422" fill="rgb(178, 34, 34)" style="fill-opacity:1.00" />
<!-- End 'A' -->
<!-- Begin 'T' -->
<rect height="0.278194" width="50.000000" x="390.000000" y="107.209422" fill="rgb(0, 100, 0)" style="fill-opacity:1.00" />
<rect height="1.738714" width="10.000000" x="410.000000" y="107.209422" fill="rgb(0, 100, 0)" style="fill-opacity:1.00" />
<!-- End 'T' -->
<!-- Begin 'C' -->
<ellipse cx="415.000000" cy="109.474068" rx="25.000000" ry="0.525932" fill="rgb(0, 0, 128)" style="fill-opacity:1.00" />
<ellipse cx="415.000000" cy="109.474068" rx="16.666667" ry="0.350621" fill="rgb(255, 255, 255)" style="fill-opacity:1.00" />
<rect height="0.525932" width="25.000000" x="415.000000" y="109.211102" fill="rgb(255, 255, 255)" style="fill-opacity:1.00" />
<!-- End 'C' -->
<!-- Begin 'C' -->
<ellipse cx="475.000000" cy="106.328611" rx="25.000000" ry="0.954595" fill="rgb(0, 0, 128)" style="fill-opacity:1.00" />
<ellipse cx="475.000000" cy="106.328611" rx="16.666667" ry="0.636397" fill="rgb(255, 255, 255)" style="fill-opacity:1.00" />
<rect height="0.954595" width="25.000000" x="475.000000" y="105.851314" fill="rgb(255, 255, 255)" style="fill-opacity:1.00" />
<!-- End 'C' -->
<!-- Begin 'T' -->
<rect height="0.156111" width="50.000000" x="450.000000" y="107.283207" fill="rgb(0, 100, 0)" style="fill-opacity:1.00" />
<rect height="0.975695" width="10.000000" x="470.000000" y="107.283207" fill="rgb(0, 100, 0)" style="fill-opacity:1.00" />
<!-- End 'T' -->
<!-- Begin 'G' -->
<ellipse cx="475.000000" cy="108.694351" rx="25.000000" ry="0.435449" fill="rgb(255, 165, 0)" style="fill-opacity:1.00" />
<ellipse cx="475.000000" cy="108.694351" rx="16.666667" ry="0.290299" fill="rgb(255, 255, 255)" style="fill-opacity:1.00" />
<rect height="0.435449" width="25.000000" x="475.000000" y="108.476626" fill="rgb(255, 255, 255)" style="fill-opacity:1.00" />
<rect height="0.108862" width="25.000000" x="475.000000" y="108.803213" fill="rgb(255, 165, 0)" style="fill-opacity:1.00" />
<rect height="0.326587" width="6.250000" x="493.750000" y="108.803213" fill="rgb(255, 165, 0)" style="fill-opacity:1.00" />
<!-- End 'G' -->
<!-- Begin 'A' -->
<polygon points=" 450.000000, 110.000000, 471.000000, 109.129800, 479.000000, 109.129800, 500.000000, 110.000000, 492.500000, 110.000000, 486.250000, 109.782450, 463.750000, 109.782450, 457.500000, 110.000000" fill="rgb(178, 34, 34)" style="fill-opacity:1.00" />
<!-- End 'A' -->
<!-- Begin 'C' -->
<ellipse cx="535.000000" cy="70.647856" rx="25.000000" ry="32.221293" fill="rgb(0, 0, 128)" style="fill-opacity:1.00" />
<ellipse cx="535.000000" cy="70.647856" rx="16.666667" ry="21.480862" fill="rgb(255, 255, 255)" style="fill-opacity:1.00" />
<rect height="32.221293" width="25.000000" x="535.000000" y="54.537209" fill="rgb(255, 255, 255)" style="fill-opacity:1.00" />
<!-- End 'C' -->
<!-- Begin 'T' -->
<rect height="0.805953" width="50.000000" x="510.000000" y="102.869149" fill="rgb(0, 100, 0)" style="fill-opacity:1.00" />
<rect height="5.037209" width="10.000000" x="530.000000" y="102.869149" fill="rgb(0, 100, 0)" style="fill-opacity:1.00" />
<!-- End 'T' -->
<!-- Begin 'A' -->
<polygon points=" 510.000000, 109.791056, 531.000000, 107.906358, 539.000000, 107.906358, 560.000000, 109.791056, 552.500000, 109.791056, 546.250000, 109.319881, 523.750000, 109.319881, 517.500000, 109.791056" fill="rgb(178, 34, 34)" style="fill-opacity:1.00" />
<!-- End 'A' -->
<!-- Begin 'G' -->
<ellipse cx="535.000000" cy="109.895528" rx="25.000000" ry="0.104472" fill="rgb(255, 165, 0)" style="fill-opacity:1.00" />
<ellipse cx="535.000000" cy="109.895528" rx="16.666667" ry="0.069648" fill="rgb(255, 255, 255)" style="fill-opacity:1.00" />
<rect height="0.104472" width="25.000000" x="535.000000" y="109.843292" fill="rgb(255, 255, 255)" style="fill-opacity:1.00" />
<rect height="0.026118" width="25.000000" x="535.000000" y="109.921646" fill="rgb(255, 165, 0)" style="fill-opacity:1.00" />
<rect height="0.078354" width="6.250000" x="553.750000" y="109.921646" fill="rgb(255, 165, 0)" style="fill-opacity:1.00" />
<!-- End 'G' -->
<!-- Begin 'C' -->
<ellipse cx="595.000000" cy="70.869917" rx="25.000000" ry="31.811444" fill="rgb(0, 0, 128)" style="fill-opacity:1.00" />
<ellipse cx="595.000000" cy="70.869917" rx="16.666667" ry="21.207629" fill="rgb(255, 255, 255)" style="fill-opacity:1.00" />
<rect height="31.811444" width="25.000000" x="595.000000" y="54.964195" fill="rgb(255, 255, 255)" style="fill-opacity:1.00" />
<!-- End 'C' -->
<!-- Begin 'A' -->
<polygon points=" 570.000000, 108.303713, 591.000000, 102.681361, 599.000000, 102.681361, 620.000000, 108.303713, 612.500000, 108.303713, 606.250000, 106.898125, 583.750000, 106.898125, 577.500000, 108.303713" fill="rgb(178, 34, 34)" style="fill-opacity:1.00" />
<!-- End 'A' -->
<!-- Begin 'T' -->
<rect height="0.184382" width="50.000000" x="570.000000" y="108.303713" fill="rgb(0, 100, 0)" style="fill-opacity:1.00" />
<rect height="1.152389" width="10.000000" x="590.000000" y="108.303713" fill="rgb(0, 100, 0)" style="fill-opacity:1.00" />
<!-- End 'T' -->
<!-- Begin 'G' -->
<ellipse cx="595.000000" cy="109.728051" rx="25.000000" ry="0.271949" fill="rgb(255, 165, 0)" style="fill-opacity:1.00" />
<ellipse cx="595.000000" cy="109.728051" rx="16.666667" ry="0.181299" fill="rgb(255, 255, 255)" style="fill-opacity:1.00" />
<rect height="0.271949" width="25.000000" x="595.000000" y="109.592077" fill="rgb(255, 255, 255)" style="fill-opacity:1.00" />
<rect height="0.067987" width="25.000000" x="595.000000" y="109.796038" fill="rgb(255, 165, 0)" style="fill-opacity:1.00" />
<rect height="0.203962" width="6.250000" x="613.750000" y="109.796038" fill="rgb(255, 165, 0)" style="fill-opacity:1.00" />
<!-- End 'G' -->
<!-- Begin 'C' -->
<ellipse cx="655.000000" cy="99.787036" rx="25.000000" ry="3.268348" fill="rgb(0, 0, 128)" style="fill-opacity:1.00" />
<ellipse cx="655.000000" cy="99.787036" rx="16.666667" ry="2.178899" fill="rgb(255, 255, 255)" style="fill-opacity:1.00" />
<rect height="3.268348" width="25.000000" x="655.000000" y="98.152862" fill="rgb(255, 255, 255)" style="fill-opacity:1.00" />
<!-- End 'C' -->
<!-- Begin 'A' -->
<polygon points=" 630.000000, 106.895849, 651.000000, 103.055383, 659.000000, 103.055383, 680.000000, 106.895849, 672.500000, 106.895849, 666.250000, 105.935733, 643.750000, 105.935733, 637.500000, 106.895849" fill="rgb(178, 34, 34)" style="fill-opacity:1.00" />
<!-- End 'A' -->
<!-- Begin 'T' -->
<rect height="0.309452" width="50.000000" x="630.000000" y="106.895849" fill="rgb(0, 100, 0)" style="fill-opacity:1.00" />
<rect height="1.934077" width="10.000000" x="650.000000" y="106.895849" fill="rgb(0, 100, 0)" style="fill-opacity:1.00" />
<!-- End 'T' -->
<!-- Begin 'G' -->
<ellipse cx="655.000000" cy="109.414963" rx="25.000000" ry="0.585037" fill="rgb(255, 165, 0)" style="fill-opacity:1.00" />
<ellipse cx="655.000000" cy="109.414963" rx="16.666667" ry="0.390025" fill="rgb(255, 255, 255)" style="fill-opacity:1.00" />
<rect height="0.585037" width="25.000000" x="655.000000" y="109.122445" fill="rgb(255, 255, 255)" style="fill-opacity:1.00" />
<rect height="0.146259" width="25.000000" x="655.000000" y="109.561222" fill="rgb(255, 165, 0)" style="fill-opacity:1.00" />
<rect height="0.438778" width="6.250000" x="673.750000" y="109.561222" fill="rgb(255, 165, 0)" style="fill-opacity:1.00" />
<!-- End 'G' -->
<!-- Begin 'A' -->
<polygon points=" 690.000000, 103.325744, 711.000000, 95.889597, 719.000000, 95.889597, 740.000000, 103.325744, 732.500000, 103.325744, 726.250000, 101.466707, 703.750000, 101.466707, 697.500000, 103.325744" fill="rgb(178, 34, 34)" style="fill-opacity:1.00" />
<!-- End 'A' -->
<!-- Begin 'C' -->
<ellipse cx="715.000000" cy="104.915443" rx="25.000000" ry="1.589699" fill="rgb(0, 0, 128)" style="fill-opacity:1.00" />
<ellipse cx="715.000000" cy="104.915443" rx="16.666667" ry="1.059799" fill="rgb(255, 255, 255)" style="fill-opacity:1.00" />
<rect height="1.589699" width="25.000000" x="715.000000" y="104.120593" fill="rgb(255, 255, 255)" style="fill-opacity:1.00" />
<!-- End 'C' -->
<!-- Begin 'T' -->
<rect height="0.282798" width="50.000000" x="690.000000" y="106.505142" fill="rgb(0, 100, 0)" style="fill-opacity:1.00" />
<rect height="1.767486" width="10.000000" x="710.000000" y="106.505142" fill="rgb(0, 100, 0)" style="fill-opacity:1.00" />
<!-- End 'T' -->
<!-- Begin 'G' -->
<ellipse cx="715.000000" cy="109.136314" rx="25.000000" ry="0.863686" fill="rgb(255, 165, 0)" style="fill-opacity:1.00" />
<ellipse cx="715.000000" cy="109.136314" rx="16.666667" ry="0.575791" fill="rgb(255, 255, 255)" style="fill-opacity:1.00" />
<rect height="0.863686" width="25.000000" x="715.000000" y="108.704471" fill="rgb(255, 255, 255)" style="fill-opacity:1.00" />
<rect height="0.215921" width="25.000000" x="715.000000" y="109.352236" fill="rgb(255, 165, 0)" style="fill-opacity:1.00" />
<rect height="0.647764" width="6.250000" x="733.750000" y="109.352236" fill="rgb(255, 165, 0)" style="fill-opacity:1.00" />
<!-- End 'G' -->
<!-- Begin 'C' -->
<ellipse cx="775.000000" cy="100.179426" rx="25.000000" ry="3.344850" fill="rgb(0, 0, 128)" style="fill-opacity:1.00" />
<ellipse cx="775.000000" cy="100.179426" rx="16.666667" ry="2.229900" fill="rgb(255, 255, 255)" style="fill-opacity:1.00" />
<rect height="3.344850" width="25.000000" x="775.000000" y="98.507001" fill="rgb(255, 255, 255)" style="fill-opacity:1.00" />
<!-- End 'C' -->
<!-- Begin 'T' -->
<rect height="0.492443" width="50.000000" x="750.000000" y="103.524276" fill="rgb(0, 100, 0)" style="fill-opacity:1.00" />
<rect height="3.077771" width="10.000000" x="770.000000" y="103.524276" fill="rgb(0, 100, 0)" style="fill-opacity:1.00" />
<!-- End 'T' -->
<!-- Begin 'A' -->
<polygon points=" 750.000000, 108.733904, 771.000000, 106.602047, 779.000000, 106.602047, 800.000000, 108.733904, 792.500000, 108.733904, 786.250000, 108.200940, 763.750000, 108.200940, 757.500000, 108.733904" fill="rgb(178, 34, 34)" style="fill-opacity:1.00" />
<!-- End 'A' -->
<!-- Begin 'G' -->
<ellipse cx="775.000000" cy="109.366952" rx="25.000000" ry="0.633048" fill="rgb(255, 165, 0)" style="fill-opacity:1.00" />
<ellipse cx="775.000000" cy="109.366952" rx="16.666667" ry="0.422032" fill="rgb(255, 255, 255)" style="fill-opacity:1.00" />
<rect height="0.633048" width="25.000000" x="775.000000" y="109.050428" fill="rgb(255, 255, 255)" style="fill-opacity:1.00" />
<rect height="0.158262" width="25.000000" x="775.000000" y="109.525214" fill="rgb(255, 165, 0)" style="fill-opacity:1.00" />
<rect height="0.474786" width="6.250000" x="793.750000" y="109.525214" fill="rgb(255, 165, 0)" style="fill-opacity:1.00" />
<!-- End 'G' -->
<!-- Begin 'T' -->
<rect height="0.107569" width="50.000000" x="810.000000" y="107.881127" fill="rgb(0, 100, 0)" style="fill-opacity:1.00" />
<rect height="0.672306" width="10.000000" x="830.000000" y="107.881127" fill="rgb(0, 100, 0)" style="fill-opacity:1.00" />
<!-- End 'T' -->
<!-- Begin 'A' -->
<polygon points=" 810.000000, 109.183030, 831.000000, 108.553434, 839.000000, 108.553434, 860.000000, 109.183030, 852.500000, 109.183030, 846.250000, 109.025631, 823.750000, 109.025631, 817.500000, 109.183030" fill="rgb(178, 34, 34)" style="fill-opacity:1.00" />
<!-- End 'A' -->
<!-- Begin 'C' -->
<ellipse cx="835.000000" cy="109.411057" rx="25.000000" ry="0.228027" fill="rgb(0, 0, 128)" style="fill-opacity:1.00" />
<ellipse cx="835.000000" cy="109.411057" rx="16.666667" ry="0.152018" fill="rgb(255, 255, 255)" style="fill-opacity:1.00" />
<rect height="0.228027" width="25.000000" x="835.000000" y="109.297044" fill="rgb(255, 255, 255)" style="fill-opacity:1.00" />
<!-- End 'C' -->
<!-- Begin 'G' -->
<ellipse cx="835.000000" cy="109.819542" rx="25.000000" ry="0.180458" fill="rgb(255, 165, 0)" style="fill-opacity:1.00" />
<ellipse cx="835.000000" cy="109.819542" rx="16.666667" ry="0.120305" fill="rgb(255, 255, 255)" style="fill-opacity:1.00" />
<rect height="0.180458" width="25.000000" x="835.000000" y="109.729313" fill="rgb(255, 255, 255)" style="fill-opacity:1.00" />
<rect height="0.045115" width="25.000000" x="835.000000" y="109.864656" fill="rgb(255, 165, 0)" style="fill-opacity:1.00" />
<rect height="0.135344" width="6.250000" x="853.750000" y="109.864656" fill="rgb(255, 165, 0)" style="fill-opacity:1.00" />
<!-- End 'G' -->
<!-- Begin 'T' -->
<rect height="0.093815" width="50.000000" x="870.000000" y="108.183682" fill="rgb(0, 100, 0)" style="fill-opacity:1.00" />
<rect height="0.586344" width="10.000000" x="890.000000" y="108.183682" fill="rgb(0, 100, 0)" style="fill-opacity:1.00" />
<!-- End 'T' -->
<!-- Begin 'A' -->
<polygon points=" 870.000000, 109.289579, 891.000000, 108.770025, 899.000000, 108.770025, 920.000000, 109.289579, 912.500000, 109.289579, 906.250000, 109.159691, 883.750000, 109.159691, 877.500000, 109.289579" fill="rgb(178, 34, 34)" style="fill-opacity:1.00" />
<!-- End 'A' -->
<!-- Begin 'G' -->
<ellipse cx="895.000000" cy="109.472469" rx="25.000000" ry="0.182890" fill="rgb(255, 165, 0)" style="fill-opacity:1.00" />
<ellipse cx="895.000000" cy="109.472469" rx="16.666667" ry="0.121927" fill="rgb(255, 255, 255)" style="fill-opacity:1.00" />
<rect height="0.182890" width="25.000000" x="895.000000" y="109.381024" fill="rgb(255, 255, 255)" style="fill-opacity:1.00" />
<rect height="0.045723" width="25.000000" x="895.000000" y="109.518192" fill="rgb(255, 165, 0)" style="fill-opacity:1.00" />
<rect height="0.137168" width="6.250000" x="913.750000" y="109.518192" fill="rgb(255, 165, 0)" style="fill-opacity:1.00" />
<!-- End 'G' -->
<!-- Begin 'C' -->
<ellipse cx="895.000000" cy="109.827680" rx="25.000000" ry="0.172320" fill="rgb(0, 0, 128)" style="fill-opacity:1.00" />
<ellipse cx="895.000000" cy="109.827680" rx="16.666667" ry="0.114880" fill="rgb(255, 255, 255)" style="fill-opacity:1.00" />
<rect height="0.172320" width="25.000000" x="895.000000" y="109.741520" fill="rgb(255, 255, 255)" style="fill-opacity:1.00" />
<!-- End 'C' -->
<text x="490.000000" y="165">
IC = 8.80
</text>

</svg>
