<?xml version="1.0" encoding="UTF-8" standalone="yes"?>
                 <!DOCTYPE svg PUBLIC "-//W3C//DTD SVG 1.0//EN" "http://www.w3.org/TR/2001/REC-SVG-20010904/DTD/svg10.dtd">
                 <svg height="170" width="780" xmlns="http://www.w3.org/2000/svg" xmlns:xlink="http://www.w3.org/1999/xlink">
                 <line x1="85" y1="120" x2="747" y2="120" style="stroke:rgb(99,99,99);stroke-width:2" />
<rect height="7.000000" width="2.000000" x="85.000000" y="120.000000" fill="rgb(0, 0, 0)" style="fill-opacity:1.00" />
<text x="107.000000" y="140">
1
</text>
<rect height="7.000000" width="2.000000" x="145.000000" y="120.000000" fill="rgb(0, 0, 0)" style="fill-opacity:1.00" />
<text x="167.000000" y="140">
2
</text>
<rect height="7.000000" width="2.000000" x="205.000000" y="120.000000" fill="rgb(0, 0, 0)" style="fill-opacity:1.00" />
<text x="227.000000" y="140">
3
</text>
<rect height="7.000000" width="2.000000" x="265.000000" y="120.000000" fill="rgb(0, 0, 0)" style="fill-opacity:1.00" />
<text x="287.000000" y="140">
4
</text>
<rect height="7.000000" width="2.000000" x="325.000000" y="120.000000" fill="rgb(0, 0, 0)" style="fill-opacity:1.00" />
<text x="347.000000" y="140">
5
</text>
<rect height="7.000000" width="2.000000" x="385.000000" y="120.000000" fill="rgb(0, 0, 0)" style="fill-opacity:1.00" />
<text x="407.000000" y="140">
6
</text>
<rect height="7.000000" width="2.000000" x="445.000000" y="120.000000" fill="rgb(0, 0, 0)" style="fill-opacity:1.00" />
<text x="467.000000" y="140">
7
</text>
<rect height="7.000000" width="2.000000" x="505.000000" y="120.000000" fill="rgb(0, 0, 0)" style="fill-opacity:1.00" />
<text x="527.000000" y="140">
8
</text>
<rect height="7.000000" width="2.000000" x="565.000000" y="120.000000" fill="rgb(0, 0, 0)" style="fill-opacity:1.00" />
<text x="587.000000" y="140">
9
</text>
<rect height="7.000000" width="2.000000" x="625.000000" y="120.000000" fill="rgb(0, 0, 0)" style="fill-opacity:1.00" />
<text x="647.000000" y="140">
10
</text>
<rect height="7.000000" width="2.000000" x="685.000000" y="120.000000" fill="rgb(0, 0, 0)" style="fill-opacity:1.00" />
<text x="707.000000" y="140">
11
</text>
<rect height="7.000000" width="2.000000" x="745.000000" y="120.000000" fill="rgb(0, 0, 0)" style="fill-opacity:1.00" />
<line x1="80" y1="112" x2="80" y2="10" style="stroke:rgb(99,99,99);stroke-width:2" />
<rect height="2.000000" width="7.000000" x="73.000000" y="110.000000" fill="rgb(0, 0, 0)" style="fill-opacity:1.00" />
<text x="63" y="115">
0
</text>
<rect height="2.000000" width="7.000000" x="73.000000" y="60.000000" fill="rgb(0, 0, 0)" style="fill-opacity:1.00" />
<text x="63" y="65">
1
</text>
<rect height="2.000000" width="7.000000" x="73.000000" y="10.000000" fill="rgb(0, 0, 0)" style="fill-opacity:1.00" />
<text x="63" y="15">
2
</text>
<text x="50" y="65"
transform="rotate(-90, 50, 70)">
bits
</text>
<!-- Begin 'T' -->
<rect height="0.359888" width="50.000000" x="90.000000" y="104.020884" fill="rgb(0, 100, 0)" style="fill-opacity:1.00" />
<rect height="2.249303" width="10.000000" x="110.000000" y="104.020884" fill="rgb(0, 100, 0)" style="fill-opacity:1.00" />
<!-- End 'T' -->
<!-- Begin 'A' -->
<polygon points=" 90.000000, 108.145574, 111.000000, 106.270187, 119.000000, 106.270187, 140.000000, 108.145574, 132.500000, 108.145574, 126.250000, 107.676728, 103.750000, 107.676728, 97.500000, 108.145574" fill="rgb(178, 34, 34)" style="fill-opacity:1.00" />
<!-- End 'A' -->
<!-- Begin 'C' -->
<ellipse cx="115.000000" cy="108.701001" rx="25.000000" ry="0.555427" fill="rgb(0, 0, 128)" style="fill-opacity:1.00" />
<ellipse cx="115.000000" cy="108.701001" rx="16.666667" ry="0.370285" fill="rgb(255, 255, 255)" style="fill-opacity:1.00" />
<rect height="0.555427" width="25.000000" x="115.000000" y="108.423288" fill="rgb(255, 255, 255)" style="fill-opacity:1.00" />
<!-- End 'C' -->
<!-- Begin 'G' -->
<ellipse cx="115.000000" cy="109.628214" rx="25.000000" ry="0.371786" fill="rgb(255, 165, 0)" style="fill-opacity:1.00" />
<ellipse cx="115.000000" cy="109.628214" rx="16.666667" ry="0.247857" fill="rgb(255, 255, 255)" style="fill-opacity:1.00" />
<rect height="0.371786" width="25.000000" x="115.000000" y="109.442321" fill="rgb(255, 255, 255)" style="fill-opacity:1.00" />
<rect height="0.092946" width="25.000000" x="115.000000" y="109.721161" fill="rgb(255, 165, 0)" style="fill-opacity:1.00" />
<rect height="0.278839" width="6.250000" x="133.750000" y="109.721161" fill="rgb(255, 165, 0)" style="fill-opacity:1.00" />
<!-- End 'G' -->
<!-- Begin 'T' -->
<rect height="0.354166" width="50.000000" x="150.000000" y="103.173688" fill="rgb(0, 100, 0)" style="fill-opacity:1.00" />
<rect height="2.213540" width="10.000000" x="170.000000" y="103.173688" fill="rgb(0, 100, 0)" style="fill-opacity:1.00" />
<!-- End 'T' -->
<!-- Begin 'A' -->
<polygon points=" 150.000000, 107.545250, 171.000000, 105.387228, 179.000000, 105.387228, 200.000000, 107.545250, 192.500000, 107.545250, 186.250000, 107.005745, 163.750000, 107.005745, 157.500000, 107.545250" fill="rgb(178, 34, 34)" style="fill-opacity:1.00" />
<!-- End 'A' -->
<!-- Begin 'C' -->
<ellipse cx="175.000000" cy="108.488316" rx="25.000000" ry="0.943066" fill="rgb(0, 0, 128)" style="fill-opacity:1.00" />
<ellipse cx="175.000000" cy="108.488316" rx="16.666667" ry="0.628711" fill="rgb(255, 255, 255)" style="fill-opacity:1.00" />
<rect height="0.943066" width="25.000000" x="175.000000" y="108.016783" fill="rgb(255, 255, 255)" style="fill-opacity:1.00" />
<!-- End 'C' -->
<!-- Begin 'G' -->
<ellipse cx="175.000000" cy="109.715691" rx="25.000000" ry="0.284309" fill="rgb(255, 165, 0)" style="fill-opacity:1.00" />
<ellipse cx="175.000000" cy="109.715691" rx="16.666667" ry="0.189539" fill="rgb(255, 255, 255)" style="fill-opacity:1.00" />
<rect height="0.284309" width="25.000000" x="175.000000" y="109.573537" fill="rgb(255, 255, 255)" style="fill-opacity:1.00" />
<rect height="0.071077" width="25.000000" x="175.000000" y="109.786768" fill="rgb(255, 165, 0)" style="fill-opacity:1.00" />
<rect height="0.213232" width="6.250000" x="193.750000" y="109.786768" fill="rgb(255, 165, 0)" style="fill-opacity:1.00" />
<!-- End 'G' -->
<!-- Begin 'A' -->
<polygon points=" 210.000000, 99.556358, 231.000000, 71.437467, 239.000000, 71.437467, 260.000000, 99.556358, 252.500000, 99.556358, 246.250000, 92.526635, 223.750000, 92.526635, 217.500000, 99.556358" fill="rgb(178, 34, 34)" style="fill-opacity:1.00" />
<polygon points=" 235.000000, 77.061245, 227.000000, 87.308802, 242.000000, 87.308802" fill="rgb(255, 255, 255)" style="fill-opacity:1.00" />
<!-- End 'A' -->
<!-- Begin 'T' -->
<rect height="0.837991" width="50.000000" x="210.000000" y="99.556358" fill="rgb(0, 100, 0)" style="fill-opacity:1.00" />
<rect height="5.237444" width="10.000000" x="230.000000" y="99.556358" fill="rgb(0, 100, 0)" style="fill-opacity:1.00" />
<!-- End 'T' -->
<!-- Begin 'C' -->
<ellipse cx="235.000000" cy="106.670967" rx="25.000000" ry="1.877164" fill="rgb(0, 0, 128)" style="fill-opacity:1.00" />
<ellipse cx="235.000000" cy="106.670967" rx="16.666667" ry="1.251443" fill="rgb(255, 255, 255)" style="fill-opacity:1.00" />
<rect height="1.877164" width="25.000000" x="235.000000" y="105.732384" fill="rgb(255, 255, 255)" style="fill-opacity:1.00" />
<!-- End 'C' -->
<!-- Begin 'G' -->
<ellipse cx="235.000000" cy="109.274065" rx="25.000000" ry="0.725935" fill="rgb(255, 165, 0)" style="fill-opacity:1.00" />
<ellipse cx="235.000000" cy="109.274065" rx="16.666667" ry="0.483956" fill="rgb(255, 255, 255)" style="fill-opacity:1.00" />
<rect height="0.725935" width="25.000000" x="235.000000" y="108.911098" fill="rgb(255, 255, 255)" style="fill-opacity:1.00" />
<rect height="0.181484" width="25.000000" x="235.000000" y="109.455549" fill="rgb(255, 165, 0)" style="fill-opacity:1.00" />
<rect height="0.544451" width="6.250000" x="253.750000" y="109.455549" fill="rgb(255, 165, 0)" style="fill-opacity:1.00" />
<!-- End 'G' -->
<!-- Begin 'A' -->
<polygon points=" 270.000000, 107.624029, 291.000000, 20.470410, 299.000000, 20.470410, 320.000000, 107.624029, 312.500000, 107.624029, 306.250000, 85.835624, 283.750000, 85.835624, 277.500000, 107.624029" fill="rgb(178, 34, 34)" style="fill-opacity:1.00" />
<polygon points=" 295.000000, 37.901134, 287.000000, 71.762581, 302.000000, 71.762581" fill="rgb(255, 255, 255)" style="fill-opacity:1.00" />
<!-- End 'A' -->
<!-- Begin 'T' -->
<rect height="0.217811" width="50.000000" x="270.000000" y="107.624029" fill="rgb(0, 100, 0)" style="fill-opacity:1.00" />
<rect height="1.361316" width="10.000000" x="290.000000" y="107.624029" fill="rgb(0, 100, 0)" style="fill-opacity:1.00" />
<!-- End 'T' -->
<!-- Begin 'C' -->
<ellipse cx="295.000000" cy="109.422765" rx="25.000000" ry="0.437421" fill="rgb(0, 0, 128)" style="fill-opacity:1.00" />
<ellipse cx="295.000000" cy="109.422765" rx="16.666667" ry="0.291614" fill="rgb(255, 255, 255)" style="fill-opacity:1.00" />
<rect height="0.437421" width="25.000000" x="295.000000" y="109.204055" fill="rgb(255, 255, 255)" style="fill-opacity:1.00" />
<!-- End 'C' -->
<!-- Begin 'G' -->
<ellipse cx="295.000000" cy="109.930093" rx="25.000000" ry="0.069907" fill="rgb(255, 165, 0)" style="fill-opacity:1.00" />
<ellipse cx="295.000000" cy="109.930093" rx="16.666667" ry="0.046605" fill="rgb(255, 255, 255)" style="fill-opacity:1.00" />
<rect height="0.069907" width="25.000000" x="295.000000" y="109.895139" fill="rgb(255, 255, 255)" style="fill-opacity:1.00" />
<rect height="0.017477" width="25.000000" x="295.000000" y="109.947570" fill="rgb(255, 165, 0)" style="fill-opacity:1.00" />
<rect height="0.052430" width="6.250000" x="313.750000" y="109.947570" fill="rgb(255, 165, 0)" style="fill-opacity:1.00" />
<!-- End 'G' -->
<!-- Begin 'T' -->
<rect height="15.770478" width="50.000000" x="330.000000" y="11.223800" fill="rgb(0, 100, 0)" style="fill-opacity:1.00" />
<rect height="98.565489" width="10.000000" x="350.000000" y="11.223800" fill="rgb(0, 100, 0)" style="fill-opacity:1.00" />
<!-- End 'T' -->
<!-- Begin 'C' -->
<ellipse cx="355.000000" cy="109.855318" rx="25.000000" ry="0.066029" fill="rgb(0, 0, 128)" style="fill-opacity:1.00" />
<ellipse cx="355.000000" cy="109.855318" rx="16.666667" ry="0.044019" fill="rgb(255, 255, 255)" style="fill-opacity:1.00" />
<rect height="0.066029" width="25.000000" x="355.000000" y="109.822304" fill="rgb(255, 255, 255)" style="fill-opacity:1.00" />
<!-- End 'C' -->
<!-- Begin 'A' -->
<polygon points=" 330.000000, 109.989881, 351.000000, 109.921347, 359.000000, 109.921347, 380.000000, 109.989881, 372.500000, 109.989881, 366.250000, 109.972747, 343.750000, 109.972747, 337.500000, 109.989881" fill="rgb(178, 34, 34)" style="fill-opacity:1.00" />
<!-- End 'A' -->
<!-- Begin 'G' -->
<ellipse cx="355.000000" cy="109.994940" rx="25.000000" ry="0.005060" fill="rgb(255, 165, 0)" style="fill-opacity:1.00" />
<ellipse cx="355.000000" cy="109.994940" rx="16.666667" ry="0.003373" fill="rgb(255, 255, 255)" style="fill-opacity:1.00" />
<rect height="0.005060" width="25.000000" x="355.000000" y="109.992411" fill="rgb(255, 255, 255)" style="fill-opacity:1.00" />
<rect height="0.001265" width="25.000000" x="355.000000" y="109.996205" fill="rgb(255, 165, 0)" style="fill-opacity:1.00" />
<rect height="0.003795" width="6.250000" x="373.750000" y="109.996205" fill="rgb(255, 165, 0)" style="fill-opacity:1.00" />
<!-- End 'G' -->
<!-- Begin 'A' -->
<polygon points=" 390.000000, 107.061780, 411.000000, 105.551563, 419.000000, 105.551563, 440.000000, 107.061780, 432.500000, 107.061780, 426.250000, 106.684226, 403.750000, 106.684226, 397.500000, 107.061780" fill="rgb(178, 34, 34)" style="fill-opacity:1.00" />
<!-- End 'A' -->
<!-- Begin 'T' -->
<rect height="0.237755" width="50.000000" x="390.000000" y="107.061780" fill="rgb(0, 100, 0)" style="fill-opacity:1.00" />
<rect height="1.485969" width="10.000000" x="410.000000" y="107.061780" fill="rgb(0, 100, 0)" style="fill-opacity:1.00" />
<!-- End 'T' -->
<!-- Begin 'C' -->
<ellipse cx="415.000000" cy="108.921626" rx="25.000000" ry="0.373878" fill="rgb(0, 0, 128)" style="fill-opacity:1.00" />
<ellipse cx="415.000000" cy="108.921626" rx="16.666667" ry="0.249252" fill="rgb(255, 255, 255)" style="fill-opacity:1.00" />
<rect height="0.373878" width="25.000000" x="415.000000" y="108.734688" fill="rgb(255, 255, 255)" style="fill-opacity:1.00" />
<!-- End 'C' -->
<!-- Begin 'G' -->
<ellipse cx="415.000000" cy="109.647752" rx="25.000000" ry="0.352248" fill="rgb(255, 165, 0)" style="fill-opacity:1.00" />
<ellipse cx="415.000000" cy="109.647752" rx="16.666667" ry="0.234832" fill="rgb(255, 255, 255)" style="fill-opacity:1.00" />
<rect height="0.352248" width="25.000000" x="415.000000" y="109.471628" fill="rgb(255, 255, 255)" style="fill-opacity:1.00" />
<rect height="0.088062" width="25.000000" x="415.000000" y="109.735814" fill="rgb(255, 165, 0)" style="fill-opacity:1.00" />
<rect height="0.264186" width="6.250000" x="433.750000" y="109.735814" fill="rgb(255, 165, 0)" style="fill-opacity:1.00" />
<!-- End 'G' -->
<!-- Begin 'A' -->
<polygon points=" 450.000000, 109.585287, 471.000000, 12.238479, 479.000000, 12.238479, 500.000000, 109.585287, 492.500000, 109.585287, 486.250000, 85.248585, 463.750000, 85.248585, 457.500000, 109.585287" fill="rgb(178, 34, 34)" style="fill-opacity:1.00" />
<polygon points=" 475.000000, 31.707841, 467.000000, 69.646564, 482.000000, 69.646564" fill="rgb(255, 255, 255)" style="fill-opacity:1.00" />
<!-- End 'A' -->
<!-- Begin 'T' -->
<rect height="0.036307" width="50.000000" x="450.000000" y="109.585287" fill="rgb(0, 100, 0)" style="fill-opacity:1.00" />
<rect height="0.226921" width="10.000000" x="470.000000" y="109.585287" fill="rgb(0, 100, 0)" style="fill-opacity:1.00" />
<!-- End 'T' -->
<!-- Begin 'G' -->
<ellipse cx="475.000000" cy="109.894854" rx="25.000000" ry="0.082647" fill="rgb(255, 165, 0)" style="fill-opacity:1.00" />
<ellipse cx="475.000000" cy="109.894854" rx="16.666667" ry="0.055098" fill="rgb(255, 255, 255)" style="fill-opacity:1.00" />
<rect height="0.082647" width="25.000000" x="475.000000" y="109.853531" fill="rgb(255, 255, 255)" style="fill-opacity:1.00" />
<rect height="0.020662" width="25.000000" x="475.000000" y="109.915516" fill="rgb(255, 165, 0)" style="fill-opacity:1.00" />
<rect height="0.061985" width="6.250000" x="493.750000" y="109.915516" fill="rgb(255, 165, 0)" style="fill-opacity:1.00" />
<!-- End 'G' -->
<!-- Begin 'C' -->
<ellipse cx="475.000000" cy="109.988750" rx="25.000000" ry="0.011250" fill="rgb(0, 0, 128)" style="fill-opacity:1.00" />
<ellipse cx="475.000000" cy="109.988750" rx="16.666667" ry="0.007500" fill="rgb(255, 255, 255)" style="fill-opacity:1.00" />
<rect height="0.011250" width="25.000000" x="475.000000" y="109.983126" fill="rgb(255, 255, 255)" style="fill-opacity:1.00" />
<!-- End 'C' -->
<!-- Begin 'T' -->
<rect height="13.953418" width="50.000000" x="510.000000" y="20.410106" fill="rgb(0, 100, 0)" style="fill-opacity:1.00" />
<rect height="87.208863" width="10.000000" x="530.000000" y="20.410106" fill="rgb(0, 100, 0)" style="fill-opacity:1.00" />
<!-- End 'T' -->
<!-- Begin 'A' -->
<polygon points=" 510.000000, 109.198802, 531.000000, 107.618969, 539.000000, 107.618969, 560.000000, 109.198802, 552.500000, 109.198802, 546.250000, 108.803844, 523.750000, 108.803844, 517.500000, 109.198802" fill="rgb(178, 34, 34)" style="fill-opacity:1.00" />
<!-- End 'A' -->
<!-- Begin 'G' -->
<ellipse cx="535.000000" cy="109.511479" rx="25.000000" ry="0.312677" fill="rgb(255, 165, 0)" style="fill-opacity:1.00" />
<ellipse cx="535.000000" cy="109.511479" rx="16.666667" ry="0.208451" fill="rgb(255, 255, 255)" style="fill-opacity:1.00" />
<rect height="0.312677" width="25.000000" x="535.000000" y="109.355141" fill="rgb(255, 255, 255)" style="fill-opacity:1.00" />
<rect height="0.078169" width="25.000000" x="535.000000" y="109.589648" fill="rgb(255, 165, 0)" style="fill-opacity:1.00" />
<rect height="0.234508" width="6.250000" x="553.750000" y="109.589648" fill="rgb(255, 165, 0)" style="fill-opacity:1.00" />
<!-- End 'G' -->
<!-- Begin 'C' -->
<ellipse cx="535.000000" cy="109.912078" rx="25.000000" ry="0.087922" fill="rgb(0, 0, 128)" style="fill-opacity:1.00" />
<ellipse cx="535.000000" cy="109.912078" rx="16.666667" ry="0.058615" fill="rgb(255, 255, 255)" style="fill-opacity:1.00" />
<rect height="0.087922" width="25.000000" x="535.000000" y="109.868117" fill="rgb(255, 255, 255)" style="fill-opacity:1.00" />
<!-- End 'C' -->
<!-- Begin 'T' -->
<rect height="4.114428" width="50.000000" x="570.000000" y="73.787241" fill="rgb(0, 100, 0)" style="fill-opacity:1.00" />
<rect height="25.715172" width="10.000000" x="590.000000" y="73.787241" fill="rgb(0, 100, 0)" style="fill-opacity:1.00" />
<!-- End 'T' -->
<!-- Begin 'A' -->
<polygon points=" 570.000000, 104.967280, 591.000000, 99.502413, 599.000000, 99.502413, 620.000000, 104.967280, 612.500000, 104.967280, 606.250000, 103.601063, 583.750000, 103.601063, 577.500000, 104.967280" fill="rgb(178, 34, 34)" style="fill-opacity:1.00" />
<!-- End 'A' -->
<!-- Begin 'G' -->
<ellipse cx="595.000000" cy="106.795378" rx="25.000000" ry="1.828098" fill="rgb(255, 165, 0)" style="fill-opacity:1.00" />
<ellipse cx="595.000000" cy="106.795378" rx="16.666667" ry="1.218732" fill="rgb(255, 255, 255)" style="fill-opacity:1.00" />
<rect height="1.828098" width="25.000000" x="595.000000" y="105.881329" fill="rgb(255, 255, 255)" style="fill-opacity:1.00" />
<rect height="0.457025" width="25.000000" x="595.000000" y="107.252403" fill="rgb(255, 165, 0)" style="fill-opacity:1.00" />
<rect height="1.371074" width="6.250000" x="613.750000" y="107.252403" fill="rgb(255, 165, 0)" style="fill-opacity:1.00" />
<!-- End 'G' -->
<!-- Begin 'C' -->
<ellipse cx="595.000000" cy="109.311738" rx="25.000000" ry="0.688262" fill="rgb(0, 0, 128)" style="fill-opacity:1.00" />
<ellipse cx="595.000000" cy="109.311738" rx="16.666667" ry="0.458841" fill="rgb(255, 255, 255)" style="fill-opacity:1.00" />
<rect height="0.688262" width="25.000000" x="595.000000" y="108.967607" fill="rgb(255, 255, 255)" style="fill-opacity:1.00" />
<!-- End 'C' -->
<!-- Begin 'A' -->
<polygon points=" 630.000000, 106.133216, 651.000000, 104.313188, 659.000000, 104.313188, 680.000000, 106.133216, 672.500000, 106.133216, 666.250000, 105.678209, 643.750000, 105.678209, 637.500000, 106.133216" fill="rgb(178, 34, 34)" style="fill-opacity:1.00" />
<!-- End 'A' -->
<!-- Begin 'T' -->
<rect height="0.284708" width="50.000000" x="630.000000" y="106.133216" fill="rgb(0, 100, 0)" style="fill-opacity:1.00" />
<rect height="1.779426" width="10.000000" x="650.000000" y="106.133216" fill="rgb(0, 100, 0)" style="fill-opacity:1.00" />
<!-- End 'T' -->
<!-- Begin 'G' -->
<ellipse cx="655.000000" cy="108.682055" rx="25.000000" ry="0.769414" fill="rgb(255, 165, 0)" style="fill-opacity:1.00" />
<ellipse cx="655.000000" cy="108.682055" rx="16.666667" ry="0.512943" fill="rgb(255, 255, 255)" style="fill-opacity:1.00" />
<rect height="0.769414" width="25.000000" x="655.000000" y="108.297349" fill="rgb(255, 255, 255)" style="fill-opacity:1.00" />
<rect height="0.192353" width="25.000000" x="655.000000" y="108.874409" fill="rgb(255, 165, 0)" style="fill-opacity:1.00" />
<rect height="0.577060" width="6.250000" x="673.750000" y="108.874409" fill="rgb(255, 165, 0)" style="fill-opacity:1.00" />
<!-- End 'G' -->
<!-- Begin 'C' -->
<ellipse cx="655.000000" cy="109.725735" rx="25.000000" ry="0.274265" fill="rgb(0, 0, 128)" style="fill-opacity:1.00" />
<ellipse cx="655.000000" cy="109.725735" rx="16.666667" ry="0.182844" fill="rgb(255, 255, 255)" style="fill-opacity:1.00" />
<rect height="0.274265" width="25.000000" x="655.000000" y="109.588602" fill="rgb(255, 255, 255)" style="fill-opacity:1.00" />
<!-- End 'C' -->
<!-- Begin 'A' -->
<polygon points=" 690.000000, 106.258223, 711.000000, 103.988778, 719.000000, 103.988778, 740.000000, 106.258223, 732.500000, 106.258223, 726.250000, 105.690862, 703.750000, 105.690862, 697.500000, 106.258223" fill="rgb(178, 34, 34)" style="fill-opacity:1.00" />
<!-- End 'A' -->
<!-- Begin 'T' -->
<rect height="0.302905" width="50.000000" x="690.000000" y="106.258223" fill="rgb(0, 100, 0)" style="fill-opacity:1.00" />
<rect height="1.893155" width="10.000000" x="710.000000" y="106.258223" fill="rgb(0, 100, 0)" style="fill-opacity:1.00" />
<!-- End 'T' -->
<!-- Begin 'G' -->
<ellipse cx="715.000000" cy="108.692067" rx="25.000000" ry="0.540689" fill="rgb(255, 165, 0)" style="fill-opacity:1.00" />
<ellipse cx="715.000000" cy="108.692067" rx="16.666667" ry="0.360459" fill="rgb(255, 255, 255)" style="fill-opacity:1.00" />
<rect height="0.540689" width="25.000000" x="715.000000" y="108.421722" fill="rgb(255, 255, 255)" style="fill-opacity:1.00" />
<rect height="0.135172" width="25.000000" x="715.000000" y="108.827239" fill="rgb(255, 165, 0)" style="fill-opacity:1.00" />
<rect height="0.405517" width="6.250000" x="733.750000" y="108.827239" fill="rgb(255, 165, 0)" style="fill-opacity:1.00" />
<!-- End 'G' -->
<!-- Begin 'C' -->
<ellipse cx="715.000000" cy="109.616378" rx="25.000000" ry="0.383622" fill="rgb(0, 0, 128)" style="fill-opacity:1.00" />
<ellipse cx="715.000000" cy="109.616378" rx="16.666667" ry="0.255748" fill="rgb(255, 255, 255)" style="fill-opacity:1.00" />
<rect height="0.383622" width="25.000000" x="715.000000" y="109.424567" fill="rgb(255, 255, 255)" style="fill-opacity:1.00" />
<!-- End 'C' -->
<text x="400.000000" y="165">
IC = 9.59
</text>

</svg>
