<?xml version="1.0" encoding="UTF-8" standalone="yes"?>
                 <!DOCTYPE svg PUBLIC "-//W3C//DTD SVG 1.0//EN" "http://www.w3.org/TR/2001/REC-SVG-20010904/DTD/svg10.dtd">
                 <svg height="170" width="720" xmlns="http://www.w3.org/2000/svg" xmlns:xlink="http://www.w3.org/1999/xlink">
                 <line x1="85" y1="120" x2="687" y2="120" style="stroke:rgb(99,99,99);stroke-width:2" />
<rect height="7.000000" width="2.000000" x="85.000000" y="120.000000" fill="rgb(0, 0, 0)" style="fill-opacity:1.00" />
<text x="107.000000" y="140">
1
</text>
<rect height="7.000000" width="2.000000" x="145.000000" y="120.000000" fill="rgb(0, 0, 0)" style="fill-opacity:1.00" />
<text x="167.000000" y="140">
2
</text>
<rect height="7.000000" width="2.000000" x="205.000000" y="120.000000" fill="rgb(0, 0, 0)" style="fill-opacity:1.00" />
<text x="227.000000" y="140">
3
</text>
<rect height="7.000000" width="2.000000" x="265.000000" y="120.000000" fill="rgb(0, 0, 0)" style="fill-opacity:1.00" />
<text x="287.000000" y="140">
4
</text>
<rect height="7.000000" width="2.000000" x="325.000000" y="120.000000" fill="rgb(0, 0, 0)" style="fill-opacity:1.00" />
<text x="347.000000" y="140">
5
</text>
<rect height="7.000000" width="2.000000" x="385.000000" y="120.000000" fill="rgb(0, 0, 0)" style="fill-opacity:1.00" />
<text x="407.000000" y="140">
6
</text>
<rect height="7.000000" width="2.000000" x="445.000000" y="120.000000" fill="rgb(0, 0, 0)" style="fill-opacity:1.00" />
<text x="467.000000" y="140">
7
</text>
<rect height="7.000000" width="2.000000" x="505.000000" y="120.000000" fill="rgb(0, 0, 0)" style="fill-opacity:1.00" />
<text x="527.000000" y="140">
8
</text>
<rect height="7.000000" width="2.000000" x="565.000000" y="120.000000" fill="rgb(0, 0, 0)" style="fill-opacity:1.00" />
<text x="587.000000" y="140">
9
</text>
<rect height="7.000000" width="2.000000" x="625.000000" y="120.000000" fill="rgb(0, 0, 0)" style="fill-opacity:1.00" />
<text x="647.000000" y="140">
10
</text>
<rect height="7.000000" width="2.000000" x="685.000000" y="120.000000" fill="rgb(0, 0, 0)" style="fill-opacity:1.00" />
<line x1="80" y1="112" x2="80" y2="10" style="stroke:rgb(99,99,99);stroke-width:2" />
<rect height="2.000000" width="7.000000" x="73.000000" y="110.000000" fill="rgb(0, 0, 0)" style="fill-opacity:1.00" />
<text x="63" y="115">
0
</text>
<rect height="2.000000" width="7.000000" x="73.000000" y="60.000000" fill="rgb(0, 0, 0)" style="fill-opacity:1.00" />
<text x="63" y="65">
1
</text>
<rect height="2.000000" width="7.000000" x="73.000000" y="10.000000" fill="rgb(0, 0, 0)" style="fill-opacity:1.00" />
<text x="63" y="15">
2
</text>
<text x="50" y="65"
transform="rotate(-90, 50, 70)">
bits
</text>
<!-- Begin 'A' -->
<polygon points=" 90.000000, 107.317423, 111.000000, 105.795913, 119.000000, 105.795913, 140.000000, 107.317423, 132.500000, 107.317423, 126.250000, 106.937046, 103.750000, 106.937046, 97.500000, 107.317423" fill="rgb(178, 34, 34)" style="fill-opacity:1.00" />
<!-- End 'A' -->
<!-- Begin 'C' -->
<ellipse cx="115.000000" cy="107.889606" rx="25.000000" ry="0.572182" fill="rgb(0, 0, 128)" style="fill-opacity:1.00" />
<ellipse cx="115.000000" cy="107.889606" rx="16.666667" ry="0.381455" fill="rgb(255, 255, 255)" style="fill-opacity:1.00" />
<rect height="0.572182" width="25.000000" x="115.000000" y="107.603514" fill="rgb(255, 255, 255)" style="fill-opacity:1.00" />
<!-- End 'C' -->
<!-- Begin 'T' -->
<rect height="0.158616" width="50.000000" x="90.000000" y="108.461788" fill="rgb(0, 100, 0)" style="fill-opacity:1.00" />
<rect height="0.991352" width="10.000000" x="110.000000" y="108.461788" fill="rgb(0, 100, 0)" style="fill-opacity:1.00" />
<!-- End 'T' -->
<!-- Begin 'G' -->
<ellipse cx="115.000000" cy="109.726570" rx="25.000000" ry="0.273430" fill="rgb(255, 165, 0)" style="fill-opacity:1.00" />
<ellipse cx="115.000000" cy="109.726570" rx="16.666667" ry="0.182287" fill="rgb(255, 255, 255)" style="fill-opacity:1.00" />
<rect height="0.273430" width="25.000000" x="115.000000" y="109.589855" fill="rgb(255, 255, 255)" style="fill-opacity:1.00" />
<rect height="0.068357" width="25.000000" x="115.000000" y="109.794928" fill="rgb(255, 165, 0)" style="fill-opacity:1.00" />
<rect height="0.205072" width="6.250000" x="133.750000" y="109.794928" fill="rgb(255, 165, 0)" style="fill-opacity:1.00" />
<!-- End 'G' -->
<!-- Begin 'A' -->
<polygon points=" 150.000000, 99.573014, 171.000000, 91.420010, 179.000000, 91.420010, 200.000000, 99.573014, 192.500000, 99.573014, 186.250000, 97.534763, 163.750000, 97.534763, 157.500000, 99.573014" fill="rgb(178, 34, 34)" style="fill-opacity:1.00" />
<polygon points=" 175.000000, 93.050611, 167.000000, 95.311812, 182.000000, 95.311812" fill="rgb(255, 255, 255)" style="fill-opacity:1.00" />
<!-- End 'A' -->
<!-- Begin 'G' -->
<ellipse cx="175.000000" cy="102.957796" rx="25.000000" ry="3.384782" fill="rgb(255, 165, 0)" style="fill-opacity:1.00" />
<ellipse cx="175.000000" cy="102.957796" rx="16.666667" ry="2.256521" fill="rgb(255, 255, 255)" style="fill-opacity:1.00" />
<rect height="3.384782" width="25.000000" x="175.000000" y="101.265405" fill="rgb(255, 255, 255)" style="fill-opacity:1.00" />
<rect height="0.846196" width="25.000000" x="175.000000" y="103.803991" fill="rgb(255, 165, 0)" style="fill-opacity:1.00" />
<rect height="2.538587" width="6.250000" x="193.750000" y="103.803991" fill="rgb(255, 165, 0)" style="fill-opacity:1.00" />
<!-- End 'G' -->
<!-- Begin 'C' -->
<ellipse cx="175.000000" cy="107.916508" rx="25.000000" ry="1.573930" fill="rgb(0, 0, 128)" style="fill-opacity:1.00" />
<ellipse cx="175.000000" cy="107.916508" rx="16.666667" ry="1.049286" fill="rgb(255, 255, 255)" style="fill-opacity:1.00" />
<rect height="1.573930" width="25.000000" x="175.000000" y="107.129543" fill="rgb(255, 255, 255)" style="fill-opacity:1.00" />
<!-- End 'C' -->
<!-- Begin 'T' -->
<rect height="0.081530" width="50.000000" x="150.000000" y="109.490437" fill="rgb(0, 100, 0)" style="fill-opacity:1.00" />
<rect height="0.509563" width="10.000000" x="170.000000" y="109.490437" fill="rgb(0, 100, 0)" style="fill-opacity:1.00" />
<!-- End 'T' -->
<!-- Begin 'C' -->
<ellipse cx="235.000000" cy="60.118971" rx="25.000000" ry="49.842688" fill="rgb(0, 0, 128)" style="fill-opacity:1.00" />
<ellipse cx="235.000000" cy="60.118971" rx="16.666667" ry="33.228459" fill="rgb(255, 255, 255)" style="fill-opacity:1.00" />
<rect height="49.842688" width="25.000000" x="235.000000" y="35.197627" fill="rgb(255, 255, 255)" style="fill-opacity:1.00" />
<!-- End 'C' -->
<!-- Begin 'T' -->
<rect height="0.002045" width="50.000000" x="210.000000" y="109.961659" fill="rgb(0, 100, 0)" style="fill-opacity:1.00" />
<rect height="0.012780" width="10.000000" x="230.000000" y="109.961659" fill="rgb(0, 100, 0)" style="fill-opacity:1.00" />
<!-- End 'T' -->
<!-- Begin 'G' -->
<ellipse cx="235.000000" cy="109.980830" rx="25.000000" ry="0.006390" fill="rgb(255, 165, 0)" style="fill-opacity:1.00" />
<ellipse cx="235.000000" cy="109.980830" rx="16.666667" ry="0.004260" fill="rgb(255, 255, 255)" style="fill-opacity:1.00" />
<rect height="0.006390" width="25.000000" x="235.000000" y="109.977635" fill="rgb(255, 255, 255)" style="fill-opacity:1.00" />
<rect height="0.001598" width="25.000000" x="235.000000" y="109.982427" fill="rgb(255, 165, 0)" style="fill-opacity:1.00" />
<rect height="0.004793" width="6.250000" x="253.750000" y="109.982427" fill="rgb(255, 165, 0)" style="fill-opacity:1.00" />
<!-- End 'G' -->
<!-- Begin 'A' -->
<polygon points=" 210.000000, 110.000000, 231.000000, 109.987220, 239.000000, 109.987220, 260.000000, 110.000000, 252.500000, 110.000000, 246.250000, 109.996805, 223.750000, 109.996805, 217.500000, 110.000000" fill="rgb(178, 34, 34)" style="fill-opacity:1.00" />
<!-- End 'A' -->
<!-- Begin 'A' -->
<polygon points=" 270.000000, 109.661346, 291.000000, 11.828042, 299.000000, 11.828042, 320.000000, 109.661346, 312.500000, 109.661346, 306.250000, 85.203020, 283.750000, 85.203020, 277.500000, 109.661346" fill="rgb(178, 34, 34)" style="fill-opacity:1.00" />
<polygon points=" 295.000000, 31.394703, 287.000000, 69.528025, 302.000000, 69.528025" fill="rgb(255, 255, 255)" style="fill-opacity:1.00" />
<!-- End 'A' -->
<!-- Begin 'T' -->
<rect height="0.040137" width="50.000000" x="270.000000" y="109.661346" fill="rgb(0, 100, 0)" style="fill-opacity:1.00" />
<rect height="0.250855" width="10.000000" x="290.000000" y="109.661346" fill="rgb(0, 100, 0)" style="fill-opacity:1.00" />
<!-- End 'T' -->
<!-- Begin 'C' -->
<ellipse cx="295.000000" cy="109.949829" rx="25.000000" ry="0.037628" fill="rgb(0, 0, 128)" style="fill-opacity:1.00" />
<ellipse cx="295.000000" cy="109.949829" rx="16.666667" ry="0.025085" fill="rgb(255, 255, 255)" style="fill-opacity:1.00" />
<rect height="0.037628" width="25.000000" x="295.000000" y="109.931015" fill="rgb(255, 255, 255)" style="fill-opacity:1.00" />
<!-- End 'C' -->
<!-- Begin 'G' -->
<ellipse cx="295.000000" cy="109.993729" rx="25.000000" ry="0.006271" fill="rgb(255, 165, 0)" style="fill-opacity:1.00" />
<ellipse cx="295.000000" cy="109.993729" rx="16.666667" ry="0.004181" fill="rgb(255, 255, 255)" style="fill-opacity:1.00" />
<rect height="0.006271" width="25.000000" x="295.000000" y="109.990593" fill="rgb(255, 255, 255)" style="fill-opacity:1.00" />
<rect height="0.001568" width="25.000000" x="295.000000" y="109.995296" fill="rgb(255, 165, 0)" style="fill-opacity:1.00" />
<rect height="0.004704" width="6.250000" x="313.750000" y="109.995296" fill="rgb(255, 165, 0)" style="fill-opacity:1.00" />
<!-- End 'G' -->
<!-- Begin 'C' -->
<ellipse cx="355.000000" cy="74.251822" rx="25.000000" ry="25.483073" fill="rgb(0, 0, 128)" style="fill-opacity:1.00" />
<ellipse cx="355.000000" cy="74.251822" rx="16.666667" ry="16.988715" fill="rgb(255, 255, 255)" style="fill-opacity:1.00" />
<rect height="25.483073" width="25.000000" x="355.000000" y="61.510286" fill="rgb(255, 255, 255)" style="fill-opacity:1.00" />
<!-- End 'C' -->
<!-- Begin 'G' -->
<ellipse cx="355.000000" cy="103.825255" rx="25.000000" ry="4.090360" fill="rgb(255, 165, 0)" style="fill-opacity:1.00" />
<ellipse cx="355.000000" cy="103.825255" rx="16.666667" ry="2.726907" fill="rgb(255, 255, 255)" style="fill-opacity:1.00" />
<rect height="4.090360" width="25.000000" x="355.000000" y="101.780075" fill="rgb(255, 255, 255)" style="fill-opacity:1.00" />
<rect height="1.022590" width="25.000000" x="355.000000" y="104.847845" fill="rgb(255, 165, 0)" style="fill-opacity:1.00" />
<rect height="3.067770" width="6.250000" x="373.750000" y="104.847845" fill="rgb(255, 165, 0)" style="fill-opacity:1.00" />
<!-- End 'G' -->
<!-- Begin 'T' -->
<rect height="0.332456" width="50.000000" x="330.000000" y="107.915615" fill="rgb(0, 100, 0)" style="fill-opacity:1.00" />
<rect height="2.077851" width="10.000000" x="350.000000" y="107.915615" fill="rgb(0, 100, 0)" style="fill-opacity:1.00" />
<!-- End 'T' -->
<!-- Begin 'A' -->
<polygon points=" 330.000000, 110.000000, 351.000000, 109.993466, 359.000000, 109.993466, 380.000000, 110.000000, 372.500000, 110.000000, 366.250000, 109.998366, 343.750000, 109.998366, 337.500000, 110.000000" fill="rgb(178, 34, 34)" style="fill-opacity:1.00" />
<!-- End 'A' -->
<!-- Begin 'C' -->
<ellipse cx="415.000000" cy="65.525088" rx="25.000000" ry="39.709743" fill="rgb(0, 0, 128)" style="fill-opacity:1.00" />
<ellipse cx="415.000000" cy="65.525088" rx="16.666667" ry="26.473162" fill="rgb(255, 255, 255)" style="fill-opacity:1.00" />
<rect height="39.709743" width="25.000000" x="415.000000" y="45.670217" fill="rgb(255, 255, 255)" style="fill-opacity:1.00" />
<!-- End 'C' -->
<!-- Begin 'G' -->
<ellipse cx="415.000000" cy="107.607233" rx="25.000000" ry="2.372403" fill="rgb(255, 165, 0)" style="fill-opacity:1.00" />
<ellipse cx="415.000000" cy="107.607233" rx="16.666667" ry="1.581602" fill="rgb(255, 255, 255)" style="fill-opacity:1.00" />
<rect height="2.372403" width="25.000000" x="415.000000" y="106.421032" fill="rgb(255, 255, 255)" style="fill-opacity:1.00" />
<rect height="0.593101" width="25.000000" x="415.000000" y="108.200334" fill="rgb(255, 165, 0)" style="fill-opacity:1.00" />
<rect height="1.779302" width="6.250000" x="433.750000" y="108.200334" fill="rgb(255, 165, 0)" style="fill-opacity:1.00" />
<!-- End 'G' -->
<!-- Begin 'T' -->
<rect height="0.001629" width="50.000000" x="390.000000" y="109.979636" fill="rgb(0, 100, 0)" style="fill-opacity:1.00" />
<rect height="0.010182" width="10.000000" x="410.000000" y="109.979636" fill="rgb(0, 100, 0)" style="fill-opacity:1.00" />
<!-- End 'T' -->
<!-- Begin 'A' -->
<polygon points=" 390.000000, 110.000000, 411.000000, 109.989818, 419.000000, 109.989818, 440.000000, 110.000000, 432.500000, 110.000000, 426.250000, 109.997455, 403.750000, 109.997455, 397.500000, 110.000000" fill="rgb(178, 34, 34)" style="fill-opacity:1.00" />
<!-- End 'A' -->
<!-- Begin 'T' -->
<rect height="15.004037" width="50.000000" x="450.000000" y="15.166792" fill="rgb(0, 100, 0)" style="fill-opacity:1.00" />
<rect height="93.775231" width="10.000000" x="470.000000" y="15.166792" fill="rgb(0, 100, 0)" style="fill-opacity:1.00" />
<!-- End 'T' -->
<!-- Begin 'A' -->
<polygon points=" 450.000000, 109.471012, 471.000000, 108.942023, 479.000000, 108.942023, 500.000000, 109.471012, 492.500000, 109.471012, 486.250000, 109.338764, 463.750000, 109.338764, 457.500000, 109.471012" fill="rgb(178, 34, 34)" style="fill-opacity:1.00" />
<!-- End 'A' -->
<!-- Begin 'C' -->
<ellipse cx="475.000000" cy="109.687416" rx="25.000000" ry="0.216404" fill="rgb(0, 0, 128)" style="fill-opacity:1.00" />
<ellipse cx="475.000000" cy="109.687416" rx="16.666667" ry="0.144270" fill="rgb(255, 255, 255)" style="fill-opacity:1.00" />
<rect height="0.216404" width="25.000000" x="475.000000" y="109.579214" fill="rgb(255, 255, 255)" style="fill-opacity:1.00" />
<!-- End 'C' -->
<!-- Begin 'G' -->
<ellipse cx="475.000000" cy="109.951910" rx="25.000000" ry="0.048090" fill="rgb(255, 165, 0)" style="fill-opacity:1.00" />
<ellipse cx="475.000000" cy="109.951910" rx="16.666667" ry="0.032060" fill="rgb(255, 255, 255)" style="fill-opacity:1.00" />
<rect height="0.048090" width="25.000000" x="475.000000" y="109.927865" fill="rgb(255, 255, 255)" style="fill-opacity:1.00" />
<rect height="0.012022" width="25.000000" x="475.000000" y="109.963933" fill="rgb(255, 165, 0)" style="fill-opacity:1.00" />
<rect height="0.036067" width="6.250000" x="493.750000" y="109.963933" fill="rgb(255, 165, 0)" style="fill-opacity:1.00" />
<!-- End 'G' -->
<!-- Begin 'G' -->
<ellipse cx="535.000000" cy="61.428415" rx="25.000000" ry="47.884019" fill="rgb(255, 165, 0)" style="fill-opacity:1.00" />
<ellipse cx="535.000000" cy="61.428415" rx="16.666667" ry="31.922680" fill="rgb(255, 255, 255)" style="fill-opacity:1.00" />
<rect height="47.884019" width="25.000000" x="535.000000" y="37.486406" fill="rgb(255, 255, 255)" style="fill-opacity:1.00" />
<rect height="11.971005" width="25.000000" x="535.000000" y="73.399420" fill="rgb(255, 165, 0)" style="fill-opacity:1.00" />
<rect height="35.913014" width="6.250000" x="553.750000" y="73.399420" fill="rgb(255, 165, 0)" style="fill-opacity:1.00" />
<!-- End 'G' -->
<!-- Begin 'A' -->
<polygon points=" 510.000000, 109.656217, 531.000000, 109.312435, 539.000000, 109.312435, 560.000000, 109.656217, 552.500000, 109.656217, 546.250000, 109.570272, 523.750000, 109.570272, 517.500000, 109.656217" fill="rgb(178, 34, 34)" style="fill-opacity:1.00" />
<!-- End 'A' -->
<!-- Begin 'C' -->
<ellipse cx="535.000000" cy="109.791275" rx="25.000000" ry="0.135057" fill="rgb(0, 0, 128)" style="fill-opacity:1.00" />
<ellipse cx="535.000000" cy="109.791275" rx="16.666667" ry="0.090038" fill="rgb(255, 255, 255)" style="fill-opacity:1.00" />
<rect height="0.135057" width="25.000000" x="535.000000" y="109.723746" fill="rgb(255, 255, 255)" style="fill-opacity:1.00" />
<!-- End 'C' -->
<!-- Begin 'T' -->
<rect height="0.011787" width="50.000000" x="510.000000" y="109.926332" fill="rgb(0, 100, 0)" style="fill-opacity:1.00" />
<rect height="0.073668" width="10.000000" x="530.000000" y="109.926332" fill="rgb(0, 100, 0)" style="fill-opacity:1.00" />
<!-- End 'T' -->
<!-- Begin 'C' -->
<ellipse cx="595.000000" cy="98.717035" rx="25.000000" ry="2.701782" fill="rgb(0, 0, 128)" style="fill-opacity:1.00" />
<ellipse cx="595.000000" cy="98.717035" rx="16.666667" ry="1.801188" fill="rgb(255, 255, 255)" style="fill-opacity:1.00" />
<rect height="2.701782" width="25.000000" x="595.000000" y="97.366144" fill="rgb(255, 255, 255)" style="fill-opacity:1.00" />
<!-- End 'C' -->
<!-- Begin 'T' -->
<rect height="0.732662" width="50.000000" x="570.000000" y="101.418817" fill="rgb(0, 100, 0)" style="fill-opacity:1.00" />
<rect height="4.579140" width="10.000000" x="590.000000" y="101.418817" fill="rgb(0, 100, 0)" style="fill-opacity:1.00" />
<!-- End 'T' -->
<!-- Begin 'G' -->
<ellipse cx="595.000000" cy="107.771366" rx="25.000000" ry="1.773409" fill="rgb(255, 165, 0)" style="fill-opacity:1.00" />
<ellipse cx="595.000000" cy="107.771366" rx="16.666667" ry="1.182272" fill="rgb(255, 255, 255)" style="fill-opacity:1.00" />
<rect height="1.773409" width="25.000000" x="595.000000" y="106.884662" fill="rgb(255, 255, 255)" style="fill-opacity:1.00" />
<rect height="0.443352" width="25.000000" x="595.000000" y="108.214718" fill="rgb(255, 165, 0)" style="fill-opacity:1.00" />
<rect height="1.330056" width="6.250000" x="613.750000" y="108.214718" fill="rgb(255, 165, 0)" style="fill-opacity:1.00" />
<!-- End 'G' -->
<!-- Begin 'A' -->
<polygon points=" 570.000000, 110.000000, 591.000000, 109.544774, 599.000000, 109.544774, 620.000000, 110.000000, 612.500000, 110.000000, 606.250000, 109.886194, 583.750000, 109.886194, 577.500000, 110.000000" fill="rgb(178, 34, 34)" style="fill-opacity:1.00" />
<!-- End 'A' -->
<!-- Begin 'T' -->
<rect height="0.050464" width="50.000000" x="630.000000" y="108.905226" fill="rgb(0, 100, 0)" style="fill-opacity:1.00" />
<rect height="0.315398" width="10.000000" x="650.000000" y="108.905226" fill="rgb(0, 100, 0)" style="fill-opacity:1.00" />
<!-- End 'T' -->
<!-- Begin 'G' -->
<ellipse cx="655.000000" cy="109.367520" rx="25.000000" ry="0.146896" fill="rgb(255, 165, 0)" style="fill-opacity:1.00" />
<ellipse cx="655.000000" cy="109.367520" rx="16.666667" ry="0.097931" fill="rgb(255, 255, 255)" style="fill-opacity:1.00" />
<rect height="0.146896" width="25.000000" x="655.000000" y="109.294072" fill="rgb(255, 255, 255)" style="fill-opacity:1.00" />
<rect height="0.036724" width="25.000000" x="655.000000" y="109.404244" fill="rgb(255, 165, 0)" style="fill-opacity:1.00" />
<rect height="0.110172" width="6.250000" x="673.750000" y="109.404244" fill="rgb(255, 165, 0)" style="fill-opacity:1.00" />
<!-- End 'G' -->
<!-- Begin 'A' -->
<polygon points=" 630.000000, 109.804419, 651.000000, 109.514416, 659.000000, 109.514416, 680.000000, 109.804419, 672.500000, 109.804419, 666.250000, 109.731918, 643.750000, 109.731918, 637.500000, 109.804419" fill="rgb(178, 34, 34)" style="fill-opacity:1.00" />
<!-- End 'A' -->
<!-- Begin 'C' -->
<ellipse cx="655.000000" cy="109.902210" rx="25.000000" ry="0.097790" fill="rgb(0, 0, 128)" style="fill-opacity:1.00" />
<ellipse cx="655.000000" cy="109.902210" rx="16.666667" ry="0.065194" fill="rgb(255, 255, 255)" style="fill-opacity:1.00" />
<rect height="0.097790" width="25.000000" x="655.000000" y="109.853315" fill="rgb(255, 255, 255)" style="fill-opacity:1.00" />
<!-- End 'C' -->
<text x="370.000000" y="165">
IC = 11.45
</text>

</svg>
