<?xml version="1.0" encoding="UTF-8" standalone="yes"?>
                 <!DOCTYPE svg PUBLIC "-//W3C//DTD SVG 1.0//EN" "http://www.w3.org/TR/2001/REC-SVG-20010904/DTD/svg10.dtd">
                 <svg height="500" width="480" xmlns="http://www.w3.org/2000/svg" xmlns:xlink="http://www.w3.org/1999/xlink">
                 <line x1="85" y1="450" x2="447" y2="450" style="stroke:rgb(99,99,99);stroke-width:2" />
<rect height="7.000000" width="2.000000" x="85.000000" y="450.000000" fill="rgb(0, 0, 0)" style="fill-opacity:1.00" />
<text x="107.000000" y="470">
1
</text>
<rect height="7.000000" width="2.000000" x="145.000000" y="450.000000" fill="rgb(0, 0, 0)" style="fill-opacity:1.00" />
<text x="167.000000" y="470">
2
</text>
<rect height="7.000000" width="2.000000" x="205.000000" y="450.000000" fill="rgb(0, 0, 0)" style="fill-opacity:1.00" />
<text x="227.000000" y="470">
3
</text>
<rect height="7.000000" width="2.000000" x="265.000000" y="450.000000" fill="rgb(0, 0, 0)" style="fill-opacity:1.00" />
<text x="287.000000" y="470">
4
</text>
<rect height="7.000000" width="2.000000" x="325.000000" y="450.000000" fill="rgb(0, 0, 0)" style="fill-opacity:1.00" />
<text x="347.000000" y="470">
5
</text>
<rect height="7.000000" width="2.000000" x="385.000000" y="450.000000" fill="rgb(0, 0, 0)" style="fill-opacity:1.00" />
<text x="407.000000" y="470">
6
</text>
<rect height="7.000000" width="2.000000" x="445.000000" y="450.000000" fill="rgb(0, 0, 0)" style="fill-opacity:1.00" />
<!-- Begin 'A' -->
<polygon points=" 10.000000, 110.000000, 35.200000, 10.000000, 44.800000, 10.000000, 70.000000, 110.000000, 61.000000, 110.000000, 53.500000, 85.000000, 26.500000, 85.000000, 19.000000, 110.000000" fill="rgb(178, 34, 34)" style="fill-opacity:1.00" />
<polygon points=" 40.000000, 30.000000, 30.400000, 69.000000, 48.400000, 69.000000" fill="rgb(255, 255, 255)" style="fill-opacity:1.00" />
<!-- End 'A' -->
<!-- Begin 'C' -->
<ellipse cx="40.000000" cy="170.000000" rx="30.000000" ry="50.000000" fill="rgb(0, 0, 128)" style="fill-opacity:1.00" />
<ellipse cx="40.000000" cy="170.000000" rx="20.000000" ry="33.333333" fill="rgb(255, 255, 255)" style="fill-opacity:1.00" />
<rect height="50.000000" width="30.000000" x="40.000000" y="145.000000" fill="rgb(255, 255, 255)" style="fill-opacity:1.00" />
<!-- End 'C' -->
<!-- Begin 'G' -->
<ellipse cx="40.000000" cy="280.000000" rx="30.000000" ry="50.000000" fill="rgb(255, 165, 0)" style="fill-opacity:1.00" />
<ellipse cx="40.000000" cy="280.000000" rx="20.000000" ry="33.333333" fill="rgb(255, 255, 255)" style="fill-opacity:1.00" />
<rect height="50.000000" width="30.000000" x="40.000000" y="255.000000" fill="rgb(255, 255, 255)" style="fill-opacity:1.00" />
<rect height="12.500000" width="30.000000" x="40.000000" y="292.500000" fill="rgb(255, 165, 0)" style="fill-opacity:1.00" />
<rect height="37.500000" width="7.500000" x="62.500000" y="292.500000" fill="rgb(255, 165, 0)" style="fill-opacity:1.00" />
<!-- End 'G' -->
<!-- Begin 'T' -->
<rect height="16.000000" width="60.000000" x="10.000000" y="340.000000" fill="rgb(0, 100, 0)" style="fill-opacity:1.00" />
<rect height="100.000000" width="12.000000" x="34.000000" y="340.000000" fill="rgb(0, 100, 0)" style="fill-opacity:1.00" />
<!-- End 'T' -->
<!-- Begin 'C' -->
<ellipse cx="115.000000" cy="41.731224" rx="25.000000" ry="31.731224" fill="rgb(0, 0, 128)" style="fill-opacity:0.25" />
<ellipse cx="115.000000" cy="41.731224" rx="16.666667" ry="21.154149" fill="rgb(255, 255, 255)" style="fill-opacity:1.00" />
<rect height="31.731224" width="25.000000" x="115.000000" y="25.865612" fill="rgb(255, 255, 255)" style="fill-opacity:1.00" />
<!-- End 'C' -->
<!-- Begin 'G' -->
<ellipse cx="115.000000" cy="84.399938" rx="25.000000" ry="10.937491" fill="rgb(255, 165, 0)" style="fill-opacity:0.25" />
<ellipse cx="115.000000" cy="84.399938" rx="16.666667" ry="7.291661" fill="rgb(255, 255, 255)" style="fill-opacity:1.00" />
<rect height="10.937491" width="25.000000" x="115.000000" y="78.931193" fill="rgb(255, 255, 255)" style="fill-opacity:1.00" />
<rect height="2.734373" width="25.000000" x="115.000000" y="87.134311" fill="rgb(255, 165, 0)" style="fill-opacity:0.25" />
<rect height="8.203118" width="6.250000" x="133.750000" y="87.134311" fill="rgb(255, 165, 0)" style="fill-opacity:0.25" />
<!-- End 'G' -->
<!-- Begin 'A' -->
<polygon points=" 90.000000, 103.082631, 111.000000, 95.337429, 119.000000, 95.337429, 140.000000, 103.082631, 132.500000, 103.082631, 126.250000, 101.146330, 103.750000, 101.146330, 97.500000, 103.082631" fill="rgb(178, 34, 34)" style="fill-opacity:0.25" />
<!-- End 'A' -->
<!-- Begin 'T' -->
<rect height="1.106779" width="50.000000" x="90.000000" y="103.082631" fill="rgb(0, 100, 0)" style="fill-opacity:0.25" />
<rect height="6.917369" width="10.000000" x="110.000000" y="103.082631" fill="rgb(0, 100, 0)" style="fill-opacity:0.25" />
<!-- End 'T' -->
<!-- Begin 'C' -->
<ellipse cx="115.000000" cy="143.910951" rx="25.000000" ry="23.910951" fill="rgb(0, 0, 128)" style="fill-opacity:0.25" />
<ellipse cx="115.000000" cy="143.910951" rx="16.666667" ry="15.940634" fill="rgb(255, 255, 255)" style="fill-opacity:1.00" />
<rect height="23.910951" width="25.000000" x="115.000000" y="131.955475" fill="rgb(255, 255, 255)" style="fill-opacity:1.00" />
<!-- End 'C' -->
<!-- Begin 'G' -->
<ellipse cx="115.000000" cy="182.615715" rx="25.000000" ry="14.793813" fill="rgb(255, 165, 0)" style="fill-opacity:0.25" />
<ellipse cx="115.000000" cy="182.615715" rx="16.666667" ry="9.862542" fill="rgb(255, 255, 255)" style="fill-opacity:1.00" />
<rect height="14.793813" width="25.000000" x="115.000000" y="175.218808" fill="rgb(255, 255, 255)" style="fill-opacity:1.00" />
<rect height="3.698453" width="25.000000" x="115.000000" y="186.314168" fill="rgb(255, 165, 0)" style="fill-opacity:0.25" />
<rect height="11.095360" width="6.250000" x="133.750000" y="186.314168" fill="rgb(255, 165, 0)" style="fill-opacity:0.25" />
<!-- End 'G' -->
<!-- Begin 'T' -->
<rect height="3.513658" width="50.000000" x="90.000000" y="197.409528" fill="rgb(0, 100, 0)" style="fill-opacity:0.25" />
<rect height="21.960365" width="10.000000" x="110.000000" y="197.409528" fill="rgb(0, 100, 0)" style="fill-opacity:0.25" />
<!-- End 'T' -->
<!-- Begin 'A' -->
<polygon points=" 90.000000, 220.000000, 111.000000, 219.369892, 119.000000, 219.369892, 140.000000, 220.000000, 132.500000, 220.000000, 126.250000, 219.842473, 103.750000, 219.842473, 97.500000, 220.000000" fill="rgb(178, 34, 34)" style="fill-opacity:0.25" />
<!-- End 'A' -->
<!-- Begin 'C' -->
<ellipse cx="115.000000" cy="252.328220" rx="25.000000" ry="22.328220" fill="rgb(0, 0, 128)" style="fill-opacity:0.25" />
<ellipse cx="115.000000" cy="252.328220" rx="16.666667" ry="14.885480" fill="rgb(255, 255, 255)" style="fill-opacity:1.00" />
<rect height="22.328220" width="25.000000" x="115.000000" y="241.164110" fill="rgb(255, 255, 255)" style="fill-opacity:1.00" />
<!-- End 'C' -->
<!-- Begin 'G' -->
<ellipse cx="115.000000" cy="290.737788" rx="25.000000" ry="16.081349" fill="rgb(255, 165, 0)" style="fill-opacity:0.25" />
<ellipse cx="115.000000" cy="290.737788" rx="16.666667" ry="10.720899" fill="rgb(255, 255, 255)" style="fill-opacity:1.00" />
<rect height="16.081349" width="25.000000" x="115.000000" y="282.697114" fill="rgb(255, 255, 255)" style="fill-opacity:1.00" />
<rect height="4.020337" width="25.000000" x="115.000000" y="294.758125" fill="rgb(255, 165, 0)" style="fill-opacity:0.25" />
<rect height="12.061012" width="6.250000" x="133.750000" y="294.758125" fill="rgb(255, 165, 0)" style="fill-opacity:0.25" />
<!-- End 'G' -->
<!-- Begin 'T' -->
<rect height="2.829904" width="50.000000" x="90.000000" y="306.819137" fill="rgb(0, 100, 0)" style="fill-opacity:0.25" />
<rect height="17.686897" width="10.000000" x="110.000000" y="306.819137" fill="rgb(0, 100, 0)" style="fill-opacity:0.25" />
<!-- End 'T' -->
<!-- Begin 'A' -->
<polygon points=" 90.000000, 330.000000, 111.000000, 324.506034, 119.000000, 324.506034, 140.000000, 330.000000, 132.500000, 330.000000, 126.250000, 328.626508, 103.750000, 328.626508, 97.500000, 330.000000" fill="rgb(178, 34, 34)" style="fill-opacity:0.25" />
<!-- End 'A' -->
<!-- Begin 'C' -->
<ellipse cx="115.000000" cy="384.640672" rx="25.000000" ry="44.640672" fill="rgb(0, 0, 128)" style="fill-opacity:0.25" />
<ellipse cx="115.000000" cy="384.640672" rx="16.666667" ry="29.760448" fill="rgb(255, 255, 255)" style="fill-opacity:1.00" />
<rect height="44.640672" width="25.000000" x="115.000000" y="362.320336" fill="rgb(255, 255, 255)" style="fill-opacity:1.00" />
<!-- End 'C' -->
<!-- Begin 'G' -->
<ellipse cx="115.000000" cy="433.496347" rx="25.000000" ry="4.215002" fill="rgb(255, 165, 0)" style="fill-opacity:0.25" />
<ellipse cx="115.000000" cy="433.496347" rx="16.666667" ry="2.810001" fill="rgb(255, 255, 255)" style="fill-opacity:1.00" />
<rect height="4.215002" width="25.000000" x="115.000000" y="431.388846" fill="rgb(255, 255, 255)" style="fill-opacity:1.00" />
<rect height="1.053750" width="25.000000" x="115.000000" y="434.550097" fill="rgb(255, 165, 0)" style="fill-opacity:0.25" />
<rect height="3.161251" width="6.250000" x="133.750000" y="434.550097" fill="rgb(255, 165, 0)" style="fill-opacity:0.25" />
<!-- End 'G' -->
<!-- Begin 'T' -->
<rect height="0.285577" width="50.000000" x="90.000000" y="437.711348" fill="rgb(0, 100, 0)" style="fill-opacity:0.25" />
<rect height="1.784854" width="10.000000" x="110.000000" y="437.711348" fill="rgb(0, 100, 0)" style="fill-opacity:0.25" />
<!-- End 'T' -->
<!-- Begin 'A' -->
<polygon points=" 90.000000, 440.000000, 111.000000, 439.496203, 119.000000, 439.496203, 140.000000, 440.000000, 132.500000, 440.000000, 126.250000, 439.874051, 103.750000, 439.874051, 97.500000, 440.000000" fill="rgb(178, 34, 34)" style="fill-opacity:0.25" />
<!-- End 'A' -->
<!-- Begin 'A' -->
<polygon points=" 150.000000, 82.698079, 171.000000, 10.000000, 179.000000, 10.000000, 200.000000, 82.698079, 192.500000, 82.698079, 186.250000, 64.523559, 163.750000, 64.523559, 157.500000, 82.698079" fill="rgb(178, 34, 34)" style="fill-opacity:0.04" />
<polygon points=" 175.000000, 24.539616, 167.000000, 52.618848, 182.000000, 52.618848" fill="rgb(255, 255, 255)" style="fill-opacity:1.00" />
<!-- End 'A' -->
<!-- Begin 'G' -->
<ellipse cx="175.000000" cy="95.025723" rx="25.000000" ry="12.327643" fill="rgb(255, 165, 0)" style="fill-opacity:0.04" />
<ellipse cx="175.000000" cy="95.025723" rx="16.666667" ry="8.218429" fill="rgb(255, 255, 255)" style="fill-opacity:1.00" />
<rect height="12.327643" width="25.000000" x="175.000000" y="88.861901" fill="rgb(255, 255, 255)" style="fill-opacity:1.00" />
<rect height="3.081911" width="25.000000" x="175.000000" y="98.107633" fill="rgb(255, 165, 0)" style="fill-opacity:0.04" />
<rect height="9.245733" width="6.250000" x="193.750000" y="98.107633" fill="rgb(255, 165, 0)" style="fill-opacity:0.04" />
<!-- End 'G' -->
<!-- Begin 'C' -->
<ellipse cx="175.000000" cy="108.606832" rx="25.000000" ry="1.253466" fill="rgb(0, 0, 128)" style="fill-opacity:0.04" />
<ellipse cx="175.000000" cy="108.606832" rx="16.666667" ry="0.835644" fill="rgb(255, 255, 255)" style="fill-opacity:1.00" />
<rect height="1.253466" width="25.000000" x="175.000000" y="107.980099" fill="rgb(255, 255, 255)" style="fill-opacity:1.00" />
<!-- End 'C' -->
<!-- Begin 'T' -->
<rect height="0.022352" width="50.000000" x="150.000000" y="109.860299" fill="rgb(0, 100, 0)" style="fill-opacity:0.04" />
<rect height="0.139701" width="10.000000" x="170.000000" y="109.860299" fill="rgb(0, 100, 0)" style="fill-opacity:0.04" />
<!-- End 'T' -->
<!-- Begin 'A' -->
<polygon points=" 150.000000, 166.326906, 171.000000, 120.000000, 179.000000, 120.000000, 200.000000, 166.326906, 192.500000, 166.326906, 186.250000, 154.745179, 163.750000, 154.745179, 157.500000, 166.326906" fill="rgb(178, 34, 34)" style="fill-opacity:0.51" />
<polygon points=" 175.000000, 129.265381, 167.000000, 146.796143, 182.000000, 146.796143" fill="rgb(255, 255, 255)" style="fill-opacity:1.00" />
<!-- End 'A' -->
<!-- Begin 'G' -->
<ellipse cx="175.000000" cy="180.197768" rx="25.000000" ry="13.870862" fill="rgb(255, 165, 0)" style="fill-opacity:0.51" />
<ellipse cx="175.000000" cy="180.197768" rx="16.666667" ry="9.247241" fill="rgb(255, 255, 255)" style="fill-opacity:1.00" />
<rect height="13.870862" width="25.000000" x="175.000000" y="173.262337" fill="rgb(255, 255, 255)" style="fill-opacity:1.00" />
<rect height="3.467716" width="25.000000" x="175.000000" y="183.665483" fill="rgb(255, 165, 0)" style="fill-opacity:0.51" />
<rect height="10.403147" width="6.250000" x="193.750000" y="183.665483" fill="rgb(255, 165, 0)" style="fill-opacity:0.51" />
<!-- End 'G' -->
<!-- Begin 'C' -->
<ellipse cx="175.000000" cy="203.202304" rx="25.000000" ry="9.133674" fill="rgb(0, 0, 128)" style="fill-opacity:0.51" />
<ellipse cx="175.000000" cy="203.202304" rx="16.666667" ry="6.089116" fill="rgb(255, 255, 255)" style="fill-opacity:1.00" />
<rect height="9.133674" width="25.000000" x="175.000000" y="198.635467" fill="rgb(255, 255, 255)" style="fill-opacity:1.00" />
<!-- End 'C' -->
<!-- Begin 'T' -->
<rect height="1.226244" width="50.000000" x="150.000000" y="212.335978" fill="rgb(0, 100, 0)" style="fill-opacity:0.51" />
<rect height="7.664022" width="10.000000" x="170.000000" y="212.335978" fill="rgb(0, 100, 0)" style="fill-opacity:0.51" />
<!-- End 'T' -->
<!-- Begin 'C' -->
<ellipse cx="175.000000" cy="257.895238" rx="25.000000" ry="27.895238" fill="rgb(0, 0, 128)" style="fill-opacity:0.28" />
<ellipse cx="175.000000" cy="257.895238" rx="16.666667" ry="18.596825" fill="rgb(255, 255, 255)" style="fill-opacity:1.00" />
<rect height="27.895238" width="25.000000" x="175.000000" y="243.947619" fill="rgb(255, 255, 255)" style="fill-opacity:1.00" />
<!-- End 'C' -->
<!-- Begin 'G' -->
<ellipse cx="175.000000" cy="297.073997" rx="25.000000" ry="11.283521" fill="rgb(255, 165, 0)" style="fill-opacity:0.28" />
<ellipse cx="175.000000" cy="297.073997" rx="16.666667" ry="7.522347" fill="rgb(255, 255, 255)" style="fill-opacity:1.00" />
<rect height="11.283521" width="25.000000" x="175.000000" y="291.432237" fill="rgb(255, 255, 255)" style="fill-opacity:1.00" />
<rect height="2.820880" width="25.000000" x="175.000000" y="299.894877" fill="rgb(255, 165, 0)" style="fill-opacity:0.28" />
<rect height="8.462641" width="6.250000" x="193.750000" y="299.894877" fill="rgb(255, 165, 0)" style="fill-opacity:0.28" />
<!-- End 'G' -->
<!-- Begin 'A' -->
<polygon points=" 150.000000, 329.096674, 171.000000, 308.357518, 179.000000, 308.357518, 200.000000, 329.096674, 192.500000, 329.096674, 186.250000, 323.911885, 163.750000, 323.911885, 157.500000, 329.096674" fill="rgb(178, 34, 34)" style="fill-opacity:0.28" />
<polygon points=" 175.000000, 312.505350, 167.000000, 319.801012, 182.000000, 319.801012" fill="rgb(255, 255, 255)" style="fill-opacity:1.00" />
<!-- End 'A' -->
<!-- Begin 'T' -->
<rect height="0.144532" width="50.000000" x="150.000000" y="329.096674" fill="rgb(0, 100, 0)" style="fill-opacity:0.28" />
<rect height="0.903326" width="10.000000" x="170.000000" y="329.096674" fill="rgb(0, 100, 0)" style="fill-opacity:0.28" />
<!-- End 'T' -->
<!-- Begin 'G' -->
<ellipse cx="175.000000" cy="375.893614" rx="25.000000" ry="35.893614" fill="rgb(255, 165, 0)" style="fill-opacity:0.16" />
<ellipse cx="175.000000" cy="375.893614" rx="16.666667" ry="23.929076" fill="rgb(255, 255, 255)" style="fill-opacity:1.00" />
<rect height="35.893614" width="25.000000" x="175.000000" y="357.946807" fill="rgb(255, 255, 255)" style="fill-opacity:1.00" />
<rect height="8.973404" width="25.000000" x="175.000000" y="384.867018" fill="rgb(255, 165, 0)" style="fill-opacity:0.16" />
<rect height="26.920211" width="6.250000" x="193.750000" y="384.867018" fill="rgb(255, 165, 0)" style="fill-opacity:0.16" />
<!-- End 'G' -->
<!-- Begin 'A' -->
<polygon points=" 150.000000, 427.449731, 171.000000, 411.787229, 179.000000, 411.787229, 200.000000, 427.449731, 192.500000, 427.449731, 186.250000, 423.534105, 163.750000, 423.534105, 157.500000, 427.449731" fill="rgb(178, 34, 34)" style="fill-opacity:0.16" />
<polygon points=" 175.000000, 414.919729, 167.000000, 420.184730, 182.000000, 420.184730" fill="rgb(255, 255, 255)" style="fill-opacity:1.00" />
<!-- End 'A' -->
<!-- Begin 'C' -->
<ellipse cx="175.000000" cy="433.690797" rx="25.000000" ry="6.241066" fill="rgb(0, 0, 128)" style="fill-opacity:0.16" />
<ellipse cx="175.000000" cy="433.690797" rx="16.666667" ry="4.160711" fill="rgb(255, 255, 255)" style="fill-opacity:1.00" />
<rect height="6.241066" width="25.000000" x="175.000000" y="430.570264" fill="rgb(255, 255, 255)" style="fill-opacity:1.00" />
<!-- End 'C' -->
<!-- Begin 'T' -->
<rect height="0.010902" width="50.000000" x="150.000000" y="439.931863" fill="rgb(0, 100, 0)" style="fill-opacity:0.16" />
<rect height="0.068137" width="10.000000" x="170.000000" y="439.931863" fill="rgb(0, 100, 0)" style="fill-opacity:0.16" />
<!-- End 'T' -->
<!-- Begin 'C' -->
<ellipse cx="235.000000" cy="42.741254" rx="25.000000" ry="32.741254" fill="rgb(0, 0, 128)" style="fill-opacity:0.35" />
<ellipse cx="235.000000" cy="42.741254" rx="16.666667" ry="21.827503" fill="rgb(255, 255, 255)" style="fill-opacity:1.00" />
<rect height="32.741254" width="25.000000" x="235.000000" y="26.370627" fill="rgb(255, 255, 255)" style="fill-opacity:1.00" />
<!-- End 'C' -->
<!-- Begin 'G' -->
<ellipse cx="235.000000" cy="88.694403" rx="25.000000" ry="13.211895" fill="rgb(255, 165, 0)" style="fill-opacity:0.35" />
<ellipse cx="235.000000" cy="88.694403" rx="16.666667" ry="8.807930" fill="rgb(255, 255, 255)" style="fill-opacity:1.00" />
<rect height="13.211895" width="25.000000" x="235.000000" y="82.088456" fill="rgb(255, 255, 255)" style="fill-opacity:1.00" />
<rect height="3.302974" width="25.000000" x="235.000000" y="91.997377" fill="rgb(255, 165, 0)" style="fill-opacity:0.35" />
<rect height="9.908921" width="6.250000" x="253.750000" y="91.997377" fill="rgb(255, 165, 0)" style="fill-opacity:0.35" />
<!-- End 'G' -->
<!-- Begin 'T' -->
<rect height="1.169779" width="50.000000" x="210.000000" y="101.906298" fill="rgb(0, 100, 0)" style="fill-opacity:0.35" />
<rect height="7.311121" width="10.000000" x="230.000000" y="101.906298" fill="rgb(0, 100, 0)" style="fill-opacity:0.35" />
<!-- End 'T' -->
<!-- Begin 'A' -->
<polygon points=" 210.000000, 110.000000, 231.000000, 109.217420, 239.000000, 109.217420, 260.000000, 110.000000, 252.500000, 110.000000, 246.250000, 109.804355, 223.750000, 109.804355, 217.500000, 110.000000" fill="rgb(178, 34, 34)" style="fill-opacity:0.35" />
<!-- End 'A' -->
<!-- Begin 'C' -->
<ellipse cx="235.000000" cy="142.674040" rx="25.000000" ry="22.674040" fill="rgb(0, 0, 128)" style="fill-opacity:0.27" />
<ellipse cx="235.000000" cy="142.674040" rx="16.666667" ry="15.116026" fill="rgb(255, 255, 255)" style="fill-opacity:1.00" />
<rect height="22.674040" width="25.000000" x="235.000000" y="131.337020" fill="rgb(255, 255, 255)" style="fill-opacity:1.00" />
<!-- End 'C' -->
<!-- Begin 'G' -->
<ellipse cx="235.000000" cy="184.210759" rx="25.000000" ry="18.862680" fill="rgb(255, 165, 0)" style="fill-opacity:0.27" />
<ellipse cx="235.000000" cy="184.210759" rx="16.666667" ry="12.575120" fill="rgb(255, 255, 255)" style="fill-opacity:1.00" />
<rect height="18.862680" width="25.000000" x="235.000000" y="174.779419" fill="rgb(255, 255, 255)" style="fill-opacity:1.00" />
<rect height="4.715670" width="25.000000" x="235.000000" y="188.926429" fill="rgb(255, 165, 0)" style="fill-opacity:0.27" />
<rect height="14.147010" width="6.250000" x="253.750000" y="188.926429" fill="rgb(255, 165, 0)" style="fill-opacity:0.27" />
<!-- End 'G' -->
<!-- Begin 'T' -->
<rect height="2.518635" width="50.000000" x="210.000000" y="203.073439" fill="rgb(0, 100, 0)" style="fill-opacity:0.27" />
<rect height="15.741467" width="10.000000" x="230.000000" y="203.073439" fill="rgb(0, 100, 0)" style="fill-opacity:0.27" />
<!-- End 'T' -->
<!-- Begin 'A' -->
<polygon points=" 210.000000, 220.000000, 231.000000, 218.814906, 239.000000, 218.814906, 260.000000, 220.000000, 252.500000, 220.000000, 246.250000, 219.703727, 223.750000, 219.703727, 217.500000, 220.000000" fill="rgb(178, 34, 34)" style="fill-opacity:0.27" />
<!-- End 'A' -->
<!-- Begin 'C' -->
<ellipse cx="235.000000" cy="254.647319" rx="25.000000" ry="24.647319" fill="rgb(0, 0, 128)" style="fill-opacity:0.33" />
<ellipse cx="235.000000" cy="254.647319" rx="16.666667" ry="16.431546" fill="rgb(255, 255, 255)" style="fill-opacity:1.00" />
<rect height="24.647319" width="25.000000" x="235.000000" y="242.323659" fill="rgb(255, 255, 255)" style="fill-opacity:1.00" />
<!-- End 'C' -->
<!-- Begin 'T' -->
<rect height="4.653447" width="50.000000" x="210.000000" y="279.294637" fill="rgb(0, 100, 0)" style="fill-opacity:0.33" />
<rect height="29.084043" width="10.000000" x="230.000000" y="279.294637" fill="rgb(0, 100, 0)" style="fill-opacity:0.33" />
<!-- End 'T' -->
<!-- Begin 'G' -->
<ellipse cx="235.000000" cy="318.893089" rx="25.000000" ry="10.514410" fill="rgb(255, 165, 0)" style="fill-opacity:0.33" />
<ellipse cx="235.000000" cy="318.893089" rx="16.666667" ry="7.009606" fill="rgb(255, 255, 255)" style="fill-opacity:1.00" />
<rect height="10.514410" width="25.000000" x="235.000000" y="313.635885" fill="rgb(255, 255, 255)" style="fill-opacity:1.00" />
<rect height="2.628602" width="25.000000" x="235.000000" y="321.521692" fill="rgb(255, 165, 0)" style="fill-opacity:0.33" />
<rect height="7.885807" width="6.250000" x="253.750000" y="321.521692" fill="rgb(255, 165, 0)" style="fill-opacity:0.33" />
<!-- End 'G' -->
<!-- Begin 'A' -->
<polygon points=" 210.000000, 330.000000, 231.000000, 329.407499, 239.000000, 329.407499, 260.000000, 330.000000, 252.500000, 330.000000, 246.250000, 329.851875, 223.750000, 329.851875, 217.500000, 330.000000" fill="rgb(178, 34, 34)" style="fill-opacity:0.33" />
<!-- End 'A' -->
<!-- Begin 'C' -->
<ellipse cx="235.000000" cy="376.920983" rx="25.000000" ry="36.920983" fill="rgb(0, 0, 128)" style="fill-opacity:0.04" />
<ellipse cx="235.000000" cy="376.920983" rx="16.666667" ry="24.613988" fill="rgb(255, 255, 255)" style="fill-opacity:1.00" />
<rect height="36.920983" width="25.000000" x="235.000000" y="358.460491" fill="rgb(255, 255, 255)" style="fill-opacity:1.00" />
<!-- End 'C' -->
<!-- Begin 'G' -->
<ellipse cx="235.000000" cy="426.904570" rx="25.000000" ry="13.062605" fill="rgb(255, 165, 0)" style="fill-opacity:0.04" />
<ellipse cx="235.000000" cy="426.904570" rx="16.666667" ry="8.708403" fill="rgb(255, 255, 255)" style="fill-opacity:1.00" />
<rect height="13.062605" width="25.000000" x="235.000000" y="420.373268" fill="rgb(255, 255, 255)" style="fill-opacity:1.00" />
<rect height="3.265651" width="25.000000" x="235.000000" y="430.170221" fill="rgb(255, 165, 0)" style="fill-opacity:0.04" />
<rect height="9.796954" width="6.250000" x="253.750000" y="430.170221" fill="rgb(255, 165, 0)" style="fill-opacity:0.04" />
<!-- End 'G' -->
<!-- Begin 'T' -->
<rect height="0.004124" width="50.000000" x="210.000000" y="439.967175" fill="rgb(0, 100, 0)" style="fill-opacity:0.04" />
<rect height="0.025774" width="10.000000" x="230.000000" y="439.967175" fill="rgb(0, 100, 0)" style="fill-opacity:0.04" />
<!-- End 'T' -->
<!-- Begin 'A' -->
<polygon points=" 210.000000, 440.000000, 231.000000, 439.992949, 239.000000, 439.992949, 260.000000, 440.000000, 252.500000, 440.000000, 246.250000, 439.998237, 223.750000, 439.998237, 217.500000, 440.000000" fill="rgb(178, 34, 34)" style="fill-opacity:0.04" />
<!-- End 'A' -->
<!-- Begin 'G' -->
<ellipse cx="295.000000" cy="43.342751" rx="25.000000" ry="33.342751" fill="rgb(255, 165, 0)" style="fill-opacity:0.01" />
<ellipse cx="295.000000" cy="43.342751" rx="16.666667" ry="22.228501" fill="rgb(255, 255, 255)" style="fill-opacity:1.00" />
<rect height="33.342751" width="25.000000" x="295.000000" y="26.671376" fill="rgb(255, 255, 255)" style="fill-opacity:1.00" />
<rect height="8.335688" width="25.000000" x="295.000000" y="51.678439" fill="rgb(255, 165, 0)" style="fill-opacity:0.01" />
<rect height="25.007064" width="6.250000" x="313.750000" y="51.678439" fill="rgb(255, 165, 0)" style="fill-opacity:0.01" />
<!-- End 'G' -->
<!-- Begin 'A' -->
<polygon points=" 270.000000, 108.161013, 291.000000, 76.685503, 299.000000, 76.685503, 320.000000, 108.161013, 312.500000, 108.161013, 306.250000, 100.292136, 283.750000, 100.292136, 277.500000, 108.161013" fill="rgb(178, 34, 34)" style="fill-opacity:0.01" />
<polygon points=" 295.000000, 82.980605, 287.000000, 94.570809, 302.000000, 94.570809" fill="rgb(255, 255, 255)" style="fill-opacity:1.00" />
<!-- End 'A' -->
<!-- Begin 'C' -->
<ellipse cx="295.000000" cy="109.053569" rx="25.000000" ry="0.892556" fill="rgb(0, 0, 128)" style="fill-opacity:0.01" />
<ellipse cx="295.000000" cy="109.053569" rx="16.666667" ry="0.595037" fill="rgb(255, 255, 255)" style="fill-opacity:1.00" />
<rect height="0.892556" width="25.000000" x="295.000000" y="108.607291" fill="rgb(255, 255, 255)" style="fill-opacity:1.00" />
<!-- End 'C' -->
<!-- Begin 'T' -->
<rect height="0.008620" width="50.000000" x="270.000000" y="109.946125" fill="rgb(0, 100, 0)" style="fill-opacity:0.01" />
<rect height="0.053875" width="10.000000" x="290.000000" y="109.946125" fill="rgb(0, 100, 0)" style="fill-opacity:0.01" />
<!-- End 'T' -->
<!-- Begin 'G' -->
<ellipse cx="295.000000" cy="142.707125" rx="25.000000" ry="22.707125" fill="rgb(255, 165, 0)" style="fill-opacity:0.55" />
<ellipse cx="295.000000" cy="142.707125" rx="16.666667" ry="15.138084" fill="rgb(255, 255, 255)" style="fill-opacity:1.00" />
<rect height="22.707125" width="25.000000" x="295.000000" y="131.353563" fill="rgb(255, 255, 255)" style="fill-opacity:1.00" />
<rect height="5.676781" width="25.000000" x="295.000000" y="148.383907" fill="rgb(255, 165, 0)" style="fill-opacity:0.55" />
<rect height="17.030344" width="6.250000" x="313.750000" y="148.383907" fill="rgb(255, 165, 0)" style="fill-opacity:0.55" />
<!-- End 'G' -->
<!-- Begin 'A' -->
<polygon points=" 270.000000, 193.914605, 291.000000, 165.414251, 299.000000, 165.414251, 320.000000, 193.914605, 312.500000, 193.914605, 306.250000, 186.789516, 283.750000, 186.789516, 277.500000, 193.914605" fill="rgb(178, 34, 34)" style="fill-opacity:0.55" />
<polygon points=" 295.000000, 171.114322, 287.000000, 181.514463, 302.000000, 181.514463" fill="rgb(255, 255, 255)" style="fill-opacity:1.00" />
<!-- End 'A' -->
<!-- Begin 'C' -->
<ellipse cx="295.000000" cy="206.656011" rx="25.000000" ry="12.741406" fill="rgb(0, 0, 128)" style="fill-opacity:0.55" />
<ellipse cx="295.000000" cy="206.656011" rx="16.666667" ry="8.494271" fill="rgb(255, 255, 255)" style="fill-opacity:1.00" />
<rect height="12.741406" width="25.000000" x="295.000000" y="200.285308" fill="rgb(255, 255, 255)" style="fill-opacity:1.00" />
<!-- End 'C' -->
<!-- Begin 'T' -->
<rect height="0.096413" width="50.000000" x="270.000000" y="219.397417" fill="rgb(0, 100, 0)" style="fill-opacity:0.55" />
<rect height="0.602583" width="10.000000" x="290.000000" y="219.397417" fill="rgb(0, 100, 0)" style="fill-opacity:0.55" />
<!-- End 'T' -->
<!-- Begin 'G' -->
<ellipse cx="295.000000" cy="255.150732" rx="25.000000" ry="25.150732" fill="rgb(255, 165, 0)" style="fill-opacity:0.28" />
<ellipse cx="295.000000" cy="255.150732" rx="16.666667" ry="16.767155" fill="rgb(255, 255, 255)" style="fill-opacity:1.00" />
<rect height="25.150732" width="25.000000" x="295.000000" y="242.575366" fill="rgb(255, 255, 255)" style="fill-opacity:1.00" />
<rect height="6.287683" width="25.000000" x="295.000000" y="261.438415" fill="rgb(255, 165, 0)" style="fill-opacity:0.28" />
<rect height="18.863049" width="6.250000" x="313.750000" y="261.438415" fill="rgb(255, 165, 0)" style="fill-opacity:0.28" />
<!-- End 'G' -->
<!-- Begin 'C' -->
<ellipse cx="295.000000" cy="303.502856" rx="25.000000" ry="23.201392" fill="rgb(0, 0, 128)" style="fill-opacity:0.28" />
<ellipse cx="295.000000" cy="303.502856" rx="16.666667" ry="15.467595" fill="rgb(255, 255, 255)" style="fill-opacity:1.00" />
<rect height="23.201392" width="25.000000" x="295.000000" y="291.902160" fill="rgb(255, 255, 255)" style="fill-opacity:1.00" />
<!-- End 'C' -->
<!-- Begin 'A' -->
<polygon points=" 270.000000, 329.967513, 291.000000, 326.704248, 299.000000, 326.704248, 320.000000, 329.967513, 312.500000, 329.967513, 306.250000, 329.151697, 283.750000, 329.151697, 277.500000, 329.967513" fill="rgb(178, 34, 34)" style="fill-opacity:0.28" />
<!-- End 'A' -->
<!-- Begin 'T' -->
<rect height="0.005198" width="50.000000" x="270.000000" y="329.967513" fill="rgb(0, 100, 0)" style="fill-opacity:0.28" />
<rect height="0.032487" width="10.000000" x="290.000000" y="329.967513" fill="rgb(0, 100, 0)" style="fill-opacity:0.28" />
<!-- End 'T' -->
<!-- Begin 'G' -->
<ellipse cx="295.000000" cy="386.425753" rx="25.000000" ry="46.425753" fill="rgb(255, 165, 0)" style="fill-opacity:0.17" />
<ellipse cx="295.000000" cy="386.425753" rx="16.666667" ry="30.950502" fill="rgb(255, 255, 255)" style="fill-opacity:1.00" />
<rect height="46.425753" width="25.000000" x="295.000000" y="363.212876" fill="rgb(255, 255, 255)" style="fill-opacity:1.00" />
<rect height="11.606438" width="25.000000" x="295.000000" y="398.032191" fill="rgb(255, 165, 0)" style="fill-opacity:0.17" />
<rect height="34.819314" width="6.250000" x="313.750000" y="398.032191" fill="rgb(255, 165, 0)" style="fill-opacity:0.17" />
<!-- End 'G' -->
<!-- Begin 'C' -->
<ellipse cx="295.000000" cy="435.493552" rx="25.000000" ry="2.642047" fill="rgb(0, 0, 128)" style="fill-opacity:0.17" />
<ellipse cx="295.000000" cy="435.493552" rx="16.666667" ry="1.761365" fill="rgb(255, 255, 255)" style="fill-opacity:1.00" />
<rect height="2.642047" width="25.000000" x="295.000000" y="434.172529" fill="rgb(255, 255, 255)" style="fill-opacity:1.00" />
<!-- End 'C' -->
<!-- Begin 'T' -->
<rect height="0.216466" width="50.000000" x="270.000000" y="438.135600" fill="rgb(0, 100, 0)" style="fill-opacity:0.17" />
<rect height="1.352913" width="10.000000" x="290.000000" y="438.135600" fill="rgb(0, 100, 0)" style="fill-opacity:0.17" />
<!-- End 'T' -->
<!-- Begin 'A' -->
<polygon points=" 270.000000, 440.000000, 291.000000, 439.488512, 299.000000, 439.488512, 320.000000, 440.000000, 312.500000, 440.000000, 306.250000, 439.872128, 283.750000, 439.872128, 277.500000, 440.000000" fill="rgb(178, 34, 34)" style="fill-opacity:0.17" />
<!-- End 'A' -->
<!-- Begin 'C' -->
<ellipse cx="355.000000" cy="38.222513" rx="25.000000" ry="28.222513" fill="rgb(0, 0, 128)" style="fill-opacity:0.17" />
<ellipse cx="355.000000" cy="38.222513" rx="16.666667" ry="18.815008" fill="rgb(255, 255, 255)" style="fill-opacity:1.00" />
<rect height="28.222513" width="25.000000" x="355.000000" y="24.111256" fill="rgb(255, 255, 255)" style="fill-opacity:1.00" />
<!-- End 'C' -->
<!-- Begin 'G' -->
<ellipse cx="355.000000" cy="79.635542" rx="25.000000" ry="13.190517" fill="rgb(255, 165, 0)" style="fill-opacity:0.17" />
<ellipse cx="355.000000" cy="79.635542" rx="16.666667" ry="8.793678" fill="rgb(255, 255, 255)" style="fill-opacity:1.00" />
<rect height="13.190517" width="25.000000" x="355.000000" y="73.040284" fill="rgb(255, 255, 255)" style="fill-opacity:1.00" />
<rect height="3.297629" width="25.000000" x="355.000000" y="82.933171" fill="rgb(255, 165, 0)" style="fill-opacity:0.17" />
<rect height="9.892887" width="6.250000" x="373.750000" y="82.933171" fill="rgb(255, 165, 0)" style="fill-opacity:0.17" />
<!-- End 'G' -->
<!-- Begin 'T' -->
<rect height="2.746948" width="50.000000" x="330.000000" y="92.826058" fill="rgb(0, 100, 0)" style="fill-opacity:0.17" />
<rect height="17.168423" width="10.000000" x="350.000000" y="92.826058" fill="rgb(0, 100, 0)" style="fill-opacity:0.17" />
<!-- End 'T' -->
<!-- Begin 'A' -->
<polygon points=" 330.000000, 110.000000, 351.000000, 109.994481, 359.000000, 109.994481, 380.000000, 110.000000, 372.500000, 110.000000, 366.250000, 109.998620, 343.750000, 109.998620, 337.500000, 110.000000" fill="rgb(178, 34, 34)" style="fill-opacity:0.17" />
<!-- End 'A' -->
<!-- Begin 'T' -->
<rect height="5.915388" width="50.000000" x="330.000000" y="120.000000" fill="rgb(0, 100, 0)" style="fill-opacity:0.28" />
<rect height="36.971174" width="10.000000" x="350.000000" y="120.000000" fill="rgb(0, 100, 0)" style="fill-opacity:0.28" />
<!-- End 'T' -->
<!-- Begin 'G' -->
<ellipse cx="355.000000" cy="174.467852" rx="25.000000" ry="17.496678" fill="rgb(255, 165, 0)" style="fill-opacity:0.28" />
<ellipse cx="355.000000" cy="174.467852" rx="16.666667" ry="11.664452" fill="rgb(255, 255, 255)" style="fill-opacity:1.00" />
<rect height="17.496678" width="25.000000" x="355.000000" y="165.719513" fill="rgb(255, 255, 255)" style="fill-opacity:1.00" />
<rect height="4.374169" width="25.000000" x="355.000000" y="178.842021" fill="rgb(255, 165, 0)" style="fill-opacity:0.28" />
<rect height="13.122508" width="6.250000" x="373.750000" y="178.842021" fill="rgb(255, 165, 0)" style="fill-opacity:0.28" />
<!-- End 'G' -->
<!-- Begin 'C' -->
<ellipse cx="355.000000" cy="203.869681" rx="25.000000" ry="11.905151" fill="rgb(0, 0, 128)" style="fill-opacity:0.28" />
<ellipse cx="355.000000" cy="203.869681" rx="16.666667" ry="7.936768" fill="rgb(255, 255, 255)" style="fill-opacity:1.00" />
<rect height="11.905151" width="25.000000" x="355.000000" y="197.917105" fill="rgb(255, 255, 255)" style="fill-opacity:1.00" />
<!-- End 'C' -->
<!-- Begin 'A' -->
<polygon points=" 330.000000, 220.000000, 351.000000, 215.774832, 359.000000, 215.774832, 380.000000, 220.000000, 372.500000, 220.000000, 366.250000, 218.943708, 343.750000, 218.943708, 337.500000, 220.000000" fill="rgb(178, 34, 34)" style="fill-opacity:0.28" />
<!-- End 'A' -->
<!-- Begin 'T' -->
<rect height="6.898775" width="50.000000" x="330.000000" y="230.000000" fill="rgb(0, 100, 0)" style="fill-opacity:0.55" />
<rect height="43.117346" width="10.000000" x="350.000000" y="230.000000" fill="rgb(0, 100, 0)" style="fill-opacity:0.55" />
<!-- End 'T' -->
<!-- Begin 'C' -->
<ellipse cx="355.000000" cy="287.886895" rx="25.000000" ry="14.769549" fill="rgb(0, 0, 128)" style="fill-opacity:0.55" />
<ellipse cx="355.000000" cy="287.886895" rx="16.666667" ry="9.846366" fill="rgb(255, 255, 255)" style="fill-opacity:1.00" />
<rect height="14.769549" width="25.000000" x="355.000000" y="280.502120" fill="rgb(255, 255, 255)" style="fill-opacity:1.00" />
<!-- End 'C' -->
<!-- Begin 'G' -->
<ellipse cx="355.000000" cy="313.365427" rx="25.000000" ry="10.708983" fill="rgb(255, 165, 0)" style="fill-opacity:0.55" />
<ellipse cx="355.000000" cy="313.365427" rx="16.666667" ry="7.139322" fill="rgb(255, 255, 255)" style="fill-opacity:1.00" />
<rect height="10.708983" width="25.000000" x="355.000000" y="308.010935" fill="rgb(255, 255, 255)" style="fill-opacity:1.00" />
<rect height="2.677246" width="25.000000" x="355.000000" y="316.042672" fill="rgb(255, 165, 0)" style="fill-opacity:0.55" />
<rect height="8.031737" width="6.250000" x="373.750000" y="316.042672" fill="rgb(255, 165, 0)" style="fill-opacity:0.55" />
<!-- End 'G' -->
<!-- Begin 'A' -->
<polygon points=" 330.000000, 330.000000, 351.000000, 324.074410, 359.000000, 324.074410, 380.000000, 330.000000, 372.500000, 330.000000, 366.250000, 328.518602, 343.750000, 328.518602, 337.500000, 330.000000" fill="rgb(178, 34, 34)" style="fill-opacity:0.55" />
<!-- End 'A' -->
<!-- Begin 'T' -->
<rect height="7.511847" width="50.000000" x="330.000000" y="340.000000" fill="rgb(0, 100, 0)" style="fill-opacity:0.01" />
<rect height="46.949041" width="10.000000" x="350.000000" y="340.000000" fill="rgb(0, 100, 0)" style="fill-opacity:0.01" />
<!-- End 'T' -->
<!-- Begin 'G' -->
<ellipse cx="355.000000" cy="409.669641" rx="25.000000" ry="22.720600" fill="rgb(255, 165, 0)" style="fill-opacity:0.01" />
<ellipse cx="355.000000" cy="409.669641" rx="16.666667" ry="15.147067" fill="rgb(255, 255, 255)" style="fill-opacity:1.00" />
<rect height="22.720600" width="25.000000" x="355.000000" y="398.309341" fill="rgb(255, 255, 255)" style="fill-opacity:1.00" />
<rect height="5.680150" width="25.000000" x="355.000000" y="415.349791" fill="rgb(255, 165, 0)" style="fill-opacity:0.01" />
<rect height="17.040450" width="6.250000" x="373.750000" y="415.349791" fill="rgb(255, 165, 0)" style="fill-opacity:0.01" />
<!-- End 'G' -->
<!-- Begin 'C' -->
<ellipse cx="355.000000" cy="436.175145" rx="25.000000" ry="3.784904" fill="rgb(0, 0, 128)" style="fill-opacity:0.01" />
<ellipse cx="355.000000" cy="436.175145" rx="16.666667" ry="2.523269" fill="rgb(255, 255, 255)" style="fill-opacity:1.00" />
<rect height="3.784904" width="25.000000" x="355.000000" y="434.282693" fill="rgb(255, 255, 255)" style="fill-opacity:1.00" />
<!-- End 'C' -->
<!-- Begin 'A' -->
<polygon points=" 330.000000, 440.000000, 351.000000, 439.960049, 359.000000, 439.960049, 380.000000, 440.000000, 372.500000, 440.000000, 366.250000, 439.990012, 343.750000, 439.990012, 337.500000, 440.000000" fill="rgb(178, 34, 34)" style="fill-opacity:0.01" />
<!-- End 'A' -->
<!-- Begin 'G' -->
<ellipse cx="415.000000" cy="58.113513" rx="25.000000" ry="48.113513" fill="rgb(255, 165, 0)" style="fill-opacity:0.04" />
<ellipse cx="415.000000" cy="58.113513" rx="16.666667" ry="32.075675" fill="rgb(255, 255, 255)" style="fill-opacity:1.00" />
<rect height="48.113513" width="25.000000" x="415.000000" y="34.056757" fill="rgb(255, 255, 255)" style="fill-opacity:1.00" />
<rect height="12.028378" width="25.000000" x="415.000000" y="70.141891" fill="rgb(255, 165, 0)" style="fill-opacity:0.04" />
<rect height="36.085135" width="6.250000" x="433.750000" y="70.141891" fill="rgb(255, 165, 0)" style="fill-opacity:0.04" />
<!-- End 'G' -->
<!-- Begin 'C' -->
<ellipse cx="415.000000" cy="108.059558" rx="25.000000" ry="1.832531" fill="rgb(0, 0, 128)" style="fill-opacity:0.04" />
<ellipse cx="415.000000" cy="108.059558" rx="16.666667" ry="1.221688" fill="rgb(255, 255, 255)" style="fill-opacity:1.00" />
<rect height="1.832531" width="25.000000" x="415.000000" y="107.143292" fill="rgb(255, 255, 255)" style="fill-opacity:1.00" />
<!-- End 'C' -->
<!-- Begin 'A' -->
<polygon points=" 390.000000, 109.979682, 411.000000, 109.892089, 419.000000, 109.892089, 440.000000, 109.979682, 432.500000, 109.979682, 426.250000, 109.957783, 403.750000, 109.957783, 397.500000, 109.979682" fill="rgb(178, 34, 34)" style="fill-opacity:0.04" />
<!-- End 'A' -->
<!-- Begin 'T' -->
<rect height="0.003251" width="50.000000" x="390.000000" y="109.979682" fill="rgb(0, 100, 0)" style="fill-opacity:0.04" />
<rect height="0.020318" width="10.000000" x="410.000000" y="109.979682" fill="rgb(0, 100, 0)" style="fill-opacity:0.04" />
<!-- End 'T' -->
<!-- Begin 'G' -->
<ellipse cx="415.000000" cy="143.437425" rx="25.000000" ry="23.437425" fill="rgb(255, 165, 0)" style="fill-opacity:0.32" />
<ellipse cx="415.000000" cy="143.437425" rx="16.666667" ry="15.624950" fill="rgb(255, 255, 255)" style="fill-opacity:1.00" />
<rect height="23.437425" width="25.000000" x="415.000000" y="131.718712" fill="rgb(255, 255, 255)" style="fill-opacity:1.00" />
<rect height="5.859356" width="25.000000" x="415.000000" y="149.296781" fill="rgb(255, 165, 0)" style="fill-opacity:0.32" />
<rect height="17.578068" width="6.250000" x="433.750000" y="149.296781" fill="rgb(255, 165, 0)" style="fill-opacity:0.32" />
<!-- End 'G' -->
<!-- Begin 'A' -->
<polygon points=" 390.000000, 199.225577, 411.000000, 166.874849, 419.000000, 166.874849, 440.000000, 199.225577, 432.500000, 199.225577, 426.250000, 191.137895, 403.750000, 191.137895, 397.500000, 199.225577" fill="rgb(178, 34, 34)" style="fill-opacity:0.32" />
<polygon points=" 415.000000, 173.344995, 407.000000, 185.285286, 422.000000, 185.285286" fill="rgb(255, 255, 255)" style="fill-opacity:1.00" />
<!-- End 'A' -->
<!-- Begin 'C' -->
<ellipse cx="415.000000" cy="209.338434" rx="25.000000" ry="10.112857" fill="rgb(0, 0, 128)" style="fill-opacity:0.32" />
<ellipse cx="415.000000" cy="209.338434" rx="16.666667" ry="6.741905" fill="rgb(255, 255, 255)" style="fill-opacity:1.00" />
<rect height="10.112857" width="25.000000" x="415.000000" y="204.282005" fill="rgb(255, 255, 255)" style="fill-opacity:1.00" />
<!-- End 'C' -->
<!-- Begin 'T' -->
<rect height="0.087793" width="50.000000" x="390.000000" y="219.451291" fill="rgb(0, 100, 0)" style="fill-opacity:0.32" />
<rect height="0.548709" width="10.000000" x="410.000000" y="219.451291" fill="rgb(0, 100, 0)" style="fill-opacity:0.32" />
<!-- End 'T' -->
<!-- Begin 'C' -->
<ellipse cx="415.000000" cy="258.100051" rx="25.000000" ry="28.100051" fill="rgb(0, 0, 128)" style="fill-opacity:0.26" />
<ellipse cx="415.000000" cy="258.100051" rx="16.666667" ry="18.733368" fill="rgb(255, 255, 255)" style="fill-opacity:1.00" />
<rect height="28.100051" width="25.000000" x="415.000000" y="244.050026" fill="rgb(255, 255, 255)" style="fill-opacity:1.00" />
<!-- End 'C' -->
<!-- Begin 'G' -->
<ellipse cx="415.000000" cy="305.847799" rx="25.000000" ry="19.647697" fill="rgb(255, 165, 0)" style="fill-opacity:0.26" />
<ellipse cx="415.000000" cy="305.847799" rx="16.666667" ry="13.098465" fill="rgb(255, 255, 255)" style="fill-opacity:1.00" />
<rect height="19.647697" width="25.000000" x="415.000000" y="296.023951" fill="rgb(255, 255, 255)" style="fill-opacity:1.00" />
<rect height="4.911924" width="25.000000" x="415.000000" y="310.759724" fill="rgb(255, 165, 0)" style="fill-opacity:0.26" />
<rect height="14.735773" width="6.250000" x="433.750000" y="310.759724" fill="rgb(255, 165, 0)" style="fill-opacity:0.26" />
<!-- End 'G' -->
<!-- Begin 'A' -->
<polygon points=" 390.000000, 329.953966, 411.000000, 325.495496, 419.000000, 325.495496, 440.000000, 329.953966, 432.500000, 329.953966, 426.250000, 328.839349, 403.750000, 328.839349, 397.500000, 329.953966" fill="rgb(178, 34, 34)" style="fill-opacity:0.26" />
<!-- End 'A' -->
<!-- Begin 'T' -->
<rect height="0.007365" width="50.000000" x="390.000000" y="329.953966" fill="rgb(0, 100, 0)" style="fill-opacity:0.26" />
<rect height="0.046034" width="10.000000" x="410.000000" y="329.953966" fill="rgb(0, 100, 0)" style="fill-opacity:0.26" />
<!-- End 'T' -->
<!-- Begin 'G' -->
<ellipse cx="415.000000" cy="373.883908" rx="25.000000" ry="33.883908" fill="rgb(255, 165, 0)" style="fill-opacity:0.37" />
<ellipse cx="415.000000" cy="373.883908" rx="16.666667" ry="22.589272" fill="rgb(255, 255, 255)" style="fill-opacity:1.00" />
<rect height="33.883908" width="25.000000" x="415.000000" y="356.941954" fill="rgb(255, 255, 255)" style="fill-opacity:1.00" />
<rect height="8.470977" width="25.000000" x="415.000000" y="382.354885" fill="rgb(255, 165, 0)" style="fill-opacity:0.37" />
<rect height="25.412931" width="6.250000" x="433.750000" y="382.354885" fill="rgb(255, 165, 0)" style="fill-opacity:0.37" />
<!-- End 'G' -->
<!-- Begin 'C' -->
<ellipse cx="415.000000" cy="416.037965" rx="25.000000" ry="8.270148" fill="rgb(0, 0, 128)" style="fill-opacity:0.37" />
<ellipse cx="415.000000" cy="416.037965" rx="16.666667" ry="5.513432" fill="rgb(255, 255, 255)" style="fill-opacity:1.00" />
<rect height="8.270148" width="25.000000" x="415.000000" y="411.902891" fill="rgb(255, 255, 255)" style="fill-opacity:1.00" />
<!-- End 'C' -->
<!-- Begin 'T' -->
<rect height="1.339544" width="50.000000" x="390.000000" y="424.308113" fill="rgb(0, 100, 0)" style="fill-opacity:0.37" />
<rect height="8.372148" width="10.000000" x="410.000000" y="424.308113" fill="rgb(0, 100, 0)" style="fill-opacity:0.37" />
<!-- End 'T' -->
<!-- Begin 'A' -->
<polygon points=" 390.000000, 440.000000, 411.000000, 432.680261, 419.000000, 432.680261, 440.000000, 440.000000, 432.500000, 440.000000, 426.250000, 438.170065, 403.750000, 438.170065, 397.500000, 440.000000" fill="rgb(178, 34, 34)" style="fill-opacity:0.37" />
<!-- End 'A' -->
<text x="250.000000" y="495">
IC = 2.36
</text>

</svg>
