<?xml version="1.0" encoding="UTF-8" standalone="yes"?>
                 <!DOCTYPE svg PUBLIC "-//W3C//DTD SVG 1.0//EN" "http://www.w3.org/TR/2001/REC-SVG-20010904/DTD/svg10.dtd">
                 <svg height="170" width="960" xmlns="http://www.w3.org/2000/svg" xmlns:xlink="http://www.w3.org/1999/xlink">
                 <line x1="85" y1="120" x2="927" y2="120" style="stroke:rgb(99,99,99);stroke-width:2" />
<rect height="7.000000" width="2.000000" x="85.000000" y="120.000000" fill="rgb(0, 0, 0)" style="fill-opacity:1.00" />
<text x="107.000000" y="140">
1
</text>
<rect height="7.000000" width="2.000000" x="145.000000" y="120.000000" fill="rgb(0, 0, 0)" style="fill-opacity:1.00" />
<text x="167.000000" y="140">
2
</text>
<rect height="7.000000" width="2.000000" x="205.000000" y="120.000000" fill="rgb(0, 0, 0)" style="fill-opacity:1.00" />
<text x="227.000000" y="140">
3
</text>
<rect height="7.000000" width="2.000000" x="265.000000" y="120.000000" fill="rgb(0, 0, 0)" style="fill-opacity:1.00" />
<text x="287.000000" y="140">
4
</text>
<rect height="7.000000" width="2.000000" x="325.000000" y="120.000000" fill="rgb(0, 0, 0)" style="fill-opacity:1.00" />
<text x="347.000000" y="140">
5
</text>
<rect height="7.000000" width="2.000000" x="385.000000" y="120.000000" fill="rgb(0, 0, 0)" style="fill-opacity:1.00" />
<text x="407.000000" y="140">
6
</text>
<rect height="7.000000" width="2.000000" x="445.000000" y="120.000000" fill="rgb(0, 0, 0)" style="fill-opacity:1.00" />
<text x="467.000000" y="140">
7
</text>
<rect height="7.000000" width="2.000000" x="505.000000" y="120.000000" fill="rgb(0, 0, 0)" style="fill-opacity:1.00" />
<text x="527.000000" y="140">
8
</text>
<rect height="7.000000" width="2.000000" x="565.000000" y="120.000000" fill="rgb(0, 0, 0)" style="fill-opacity:1.00" />
<text x="587.000000" y="140">
9
</text>
<rect height="7.000000" width="2.000000" x="625.000000" y="120.000000" fill="rgb(0, 0, 0)" style="fill-opacity:1.00" />
<text x="647.000000" y="140">
10
</text>
<rect height="7.000000" width="2.000000" x="685.000000" y="120.000000" fill="rgb(0, 0, 0)" style="fill-opacity:1.00" />
<text x="707.000000" y="140">
11
</text>
<rect height="7.000000" width="2.000000" x="745.000000" y="120.000000" fill="rgb(0, 0, 0)" style="fill-opacity:1.00" />
<text x="767.000000" y="140">
12
</text>
<rect height="7.000000" width="2.000000" x="805.000000" y="120.000000" fill="rgb(0, 0, 0)" style="fill-opacity:1.00" />
<text x="827.000000" y="140">
13
</text>
<rect height="7.000000" width="2.000000" x="865.000000" y="120.000000" fill="rgb(0, 0, 0)" style="fill-opacity:1.00" />
<text x="887.000000" y="140">
14
</text>
<rect height="7.000000" width="2.000000" x="925.000000" y="120.000000" fill="rgb(0, 0, 0)" style="fill-opacity:1.00" />
<line x1="80" y1="112" x2="80" y2="10" style="stroke:rgb(99,99,99);stroke-width:2" />
<rect height="2.000000" width="7.000000" x="73.000000" y="110.000000" fill="rgb(0, 0, 0)" style="fill-opacity:1.00" />
<text x="63" y="115">
0
</text>
<rect height="2.000000" width="7.000000" x="73.000000" y="60.000000" fill="rgb(0, 0, 0)" style="fill-opacity:1.00" />
<text x="63" y="65">
1
</text>
<rect height="2.000000" width="7.000000" x="73.000000" y="10.000000" fill="rgb(0, 0, 0)" style="fill-opacity:1.00" />
<text x="63" y="15">
2
</text>
<text x="50" y="65"
transform="rotate(-90, 50, 70)">
bits
</text>
<!-- Begin 'A' -->
<polygon points=" 90.000000, 107.374242, 111.000000, 105.886150, 119.000000, 105.886150, 140.000000, 107.374242, 132.500000, 107.374242, 126.250000, 107.002219, 103.750000, 107.002219, 97.500000, 107.374242" fill="rgb(178, 34, 34)" style="fill-opacity:1.00" />
<!-- End 'A' -->
<!-- Begin 'T' -->
<rect height="0.191733" width="50.000000" x="90.000000" y="107.374242" fill="rgb(0, 100, 0)" style="fill-opacity:1.00" />
<rect height="1.198332" width="10.000000" x="110.000000" y="107.374242" fill="rgb(0, 100, 0)" style="fill-opacity:1.00" />
<!-- End 'T' -->
<!-- Begin 'G' -->
<ellipse cx="115.000000" cy="108.993565" rx="25.000000" ry="0.420992" fill="rgb(255, 165, 0)" style="fill-opacity:1.00" />
<ellipse cx="115.000000" cy="108.993565" rx="16.666667" ry="0.280661" fill="rgb(255, 255, 255)" style="fill-opacity:1.00" />
<rect height="0.420992" width="25.000000" x="115.000000" y="108.783070" fill="rgb(255, 255, 255)" style="fill-opacity:1.00" />
<rect height="0.105248" width="25.000000" x="115.000000" y="109.098813" fill="rgb(255, 165, 0)" style="fill-opacity:1.00" />
<rect height="0.315744" width="6.250000" x="133.750000" y="109.098813" fill="rgb(255, 165, 0)" style="fill-opacity:1.00" />
<!-- End 'G' -->
<!-- Begin 'C' -->
<ellipse cx="115.000000" cy="109.707279" rx="25.000000" ry="0.292721" fill="rgb(0, 0, 128)" style="fill-opacity:1.00" />
<ellipse cx="115.000000" cy="109.707279" rx="16.666667" ry="0.195148" fill="rgb(255, 255, 255)" style="fill-opacity:1.00" />
<rect height="0.292721" width="25.000000" x="115.000000" y="109.560918" fill="rgb(255, 255, 255)" style="fill-opacity:1.00" />
<!-- End 'C' -->
<!-- Begin 'A' -->
<polygon points=" 150.000000, 108.692385, 171.000000, 108.050546, 179.000000, 108.050546, 200.000000, 108.692385, 192.500000, 108.692385, 186.250000, 108.531925, 163.750000, 108.531925, 157.500000, 108.692385" fill="rgb(178, 34, 34)" style="fill-opacity:1.00" />
<!-- End 'A' -->
<!-- Begin 'T' -->
<rect height="0.087220" width="50.000000" x="150.000000" y="108.692385" fill="rgb(0, 100, 0)" style="fill-opacity:1.00" />
<rect height="0.545122" width="10.000000" x="170.000000" y="108.692385" fill="rgb(0, 100, 0)" style="fill-opacity:1.00" />
<!-- End 'T' -->
<!-- Begin 'C' -->
<ellipse cx="175.000000" cy="109.442459" rx="25.000000" ry="0.204952" fill="rgb(0, 0, 128)" style="fill-opacity:1.00" />
<ellipse cx="175.000000" cy="109.442459" rx="16.666667" ry="0.136635" fill="rgb(255, 255, 255)" style="fill-opacity:1.00" />
<rect height="0.204952" width="25.000000" x="175.000000" y="109.339983" fill="rgb(255, 255, 255)" style="fill-opacity:1.00" />
<!-- End 'C' -->
<!-- Begin 'G' -->
<ellipse cx="175.000000" cy="109.823706" rx="25.000000" ry="0.176294" fill="rgb(255, 165, 0)" style="fill-opacity:1.00" />
<ellipse cx="175.000000" cy="109.823706" rx="16.666667" ry="0.117530" fill="rgb(255, 255, 255)" style="fill-opacity:1.00" />
<rect height="0.176294" width="25.000000" x="175.000000" y="109.735559" fill="rgb(255, 255, 255)" style="fill-opacity:1.00" />
<rect height="0.044074" width="25.000000" x="175.000000" y="109.867779" fill="rgb(255, 165, 0)" style="fill-opacity:1.00" />
<rect height="0.132221" width="6.250000" x="193.750000" y="109.867779" fill="rgb(255, 165, 0)" style="fill-opacity:1.00" />
<!-- End 'G' -->
<!-- Begin 'A' -->
<polygon points=" 210.000000, 106.760458, 231.000000, 104.687795, 239.000000, 104.687795, 260.000000, 106.760458, 252.500000, 106.760458, 246.250000, 106.242292, 223.750000, 106.242292, 217.500000, 106.760458" fill="rgb(178, 34, 34)" style="fill-opacity:1.00" />
<!-- End 'A' -->
<!-- Begin 'T' -->
<rect height="0.244447" width="50.000000" x="210.000000" y="106.760458" fill="rgb(0, 100, 0)" style="fill-opacity:1.00" />
<rect height="1.527793" width="10.000000" x="230.000000" y="106.760458" fill="rgb(0, 100, 0)" style="fill-opacity:1.00" />
<!-- End 'T' -->
<!-- Begin 'G' -->
<ellipse cx="235.000000" cy="108.753755" rx="25.000000" ry="0.465504" fill="rgb(255, 165, 0)" style="fill-opacity:1.00" />
<ellipse cx="235.000000" cy="108.753755" rx="16.666667" ry="0.310336" fill="rgb(255, 255, 255)" style="fill-opacity:1.00" />
<rect height="0.465504" width="25.000000" x="235.000000" y="108.521003" fill="rgb(255, 255, 255)" style="fill-opacity:1.00" />
<rect height="0.116376" width="25.000000" x="235.000000" y="108.870131" fill="rgb(255, 165, 0)" style="fill-opacity:1.00" />
<rect height="0.349128" width="6.250000" x="253.750000" y="108.870131" fill="rgb(255, 165, 0)" style="fill-opacity:1.00" />
<!-- End 'G' -->
<!-- Begin 'C' -->
<ellipse cx="235.000000" cy="109.609629" rx="25.000000" ry="0.390371" fill="rgb(0, 0, 128)" style="fill-opacity:1.00" />
<ellipse cx="235.000000" cy="109.609629" rx="16.666667" ry="0.260247" fill="rgb(255, 255, 255)" style="fill-opacity:1.00" />
<rect height="0.390371" width="25.000000" x="235.000000" y="109.414444" fill="rgb(255, 255, 255)" style="fill-opacity:1.00" />
<!-- End 'C' -->
<!-- Begin 'T' -->
<rect height="0.200690" width="50.000000" x="270.000000" y="106.027409" fill="rgb(0, 100, 0)" style="fill-opacity:1.00" />
<rect height="1.254311" width="10.000000" x="290.000000" y="106.027409" fill="rgb(0, 100, 0)" style="fill-opacity:1.00" />
<!-- End 'T' -->
<!-- Begin 'C' -->
<ellipse cx="295.000000" cy="107.870892" rx="25.000000" ry="0.589172" fill="rgb(0, 0, 128)" style="fill-opacity:1.00" />
<ellipse cx="295.000000" cy="107.870892" rx="16.666667" ry="0.392781" fill="rgb(255, 255, 255)" style="fill-opacity:1.00" />
<rect height="0.589172" width="25.000000" x="295.000000" y="107.576306" fill="rgb(255, 255, 255)" style="fill-opacity:1.00" />
<!-- End 'C' -->
<!-- Begin 'A' -->
<polygon points=" 270.000000, 109.525599, 291.000000, 108.460064, 299.000000, 108.460064, 320.000000, 109.525599, 312.500000, 109.525599, 306.250000, 109.259215, 283.750000, 109.259215, 277.500000, 109.525599" fill="rgb(178, 34, 34)" style="fill-opacity:1.00" />
<!-- End 'A' -->
<!-- Begin 'G' -->
<ellipse cx="295.000000" cy="109.762799" rx="25.000000" ry="0.237201" fill="rgb(255, 165, 0)" style="fill-opacity:1.00" />
<ellipse cx="295.000000" cy="109.762799" rx="16.666667" ry="0.158134" fill="rgb(255, 255, 255)" style="fill-opacity:1.00" />
<rect height="0.237201" width="25.000000" x="295.000000" y="109.644199" fill="rgb(255, 255, 255)" style="fill-opacity:1.00" />
<rect height="0.059300" width="25.000000" x="295.000000" y="109.822100" fill="rgb(255, 165, 0)" style="fill-opacity:1.00" />
<rect height="0.177900" width="6.250000" x="313.750000" y="109.822100" fill="rgb(255, 165, 0)" style="fill-opacity:1.00" />
<!-- End 'G' -->
<!-- Begin 'C' -->
<ellipse cx="355.000000" cy="99.796840" rx="25.000000" ry="3.028650" fill="rgb(0, 0, 128)" style="fill-opacity:1.00" />
<ellipse cx="355.000000" cy="99.796840" rx="16.666667" ry="2.019100" fill="rgb(255, 255, 255)" style="fill-opacity:1.00" />
<rect height="3.028650" width="25.000000" x="355.000000" y="98.282514" fill="rgb(255, 255, 255)" style="fill-opacity:1.00" />
<!-- End 'C' -->
<!-- Begin 'A' -->
<polygon points=" 330.000000, 106.133447, 351.000000, 102.825490, 359.000000, 102.825490, 380.000000, 106.133447, 372.500000, 106.133447, 366.250000, 105.306458, 343.750000, 105.306458, 337.500000, 106.133447" fill="rgb(178, 34, 34)" style="fill-opacity:1.00" />
<!-- End 'A' -->
<!-- Begin 'T' -->
<rect height="0.505402" width="50.000000" x="330.000000" y="106.133447" fill="rgb(0, 100, 0)" style="fill-opacity:1.00" />
<rect height="3.158763" width="10.000000" x="350.000000" y="106.133447" fill="rgb(0, 100, 0)" style="fill-opacity:1.00" />
<!-- End 'T' -->
<!-- Begin 'G' -->
<ellipse cx="355.000000" cy="109.646105" rx="25.000000" ry="0.353895" fill="rgb(255, 165, 0)" style="fill-opacity:1.00" />
<ellipse cx="355.000000" cy="109.646105" rx="16.666667" ry="0.235930" fill="rgb(255, 255, 255)" style="fill-opacity:1.00" />
<rect height="0.353895" width="25.000000" x="355.000000" y="109.469158" fill="rgb(255, 255, 255)" style="fill-opacity:1.00" />
<rect height="0.088474" width="25.000000" x="355.000000" y="109.734579" fill="rgb(255, 165, 0)" style="fill-opacity:1.00" />
<rect height="0.265421" width="6.250000" x="373.750000" y="109.734579" fill="rgb(255, 165, 0)" style="fill-opacity:1.00" />
<!-- End 'G' -->
<!-- Begin 'A' -->
<polygon points=" 390.000000, 99.368318, 411.000000, 72.074288, 419.000000, 72.074288, 440.000000, 99.368318, 432.500000, 99.368318, 426.250000, 92.544810, 403.750000, 92.544810, 397.500000, 99.368318" fill="rgb(178, 34, 34)" style="fill-opacity:1.00" />
<polygon points=" 415.000000, 77.533094, 407.000000, 87.450706, 422.000000, 87.450706" fill="rgb(255, 255, 255)" style="fill-opacity:1.00" />
<!-- End 'A' -->
<!-- Begin 'T' -->
<rect height="0.909692" width="50.000000" x="390.000000" y="99.368318" fill="rgb(0, 100, 0)" style="fill-opacity:1.00" />
<rect height="5.685573" width="10.000000" x="410.000000" y="99.368318" fill="rgb(0, 100, 0)" style="fill-opacity:1.00" />
<!-- End 'T' -->
<!-- Begin 'C' -->
<ellipse cx="415.000000" cy="106.903471" rx="25.000000" ry="1.849580" fill="rgb(0, 0, 128)" style="fill-opacity:1.00" />
<ellipse cx="415.000000" cy="106.903471" rx="16.666667" ry="1.233053" fill="rgb(255, 255, 255)" style="fill-opacity:1.00" />
<rect height="1.849580" width="25.000000" x="415.000000" y="105.978681" fill="rgb(255, 255, 255)" style="fill-opacity:1.00" />
<!-- End 'C' -->
<!-- Begin 'G' -->
<ellipse cx="415.000000" cy="109.376525" rx="25.000000" ry="0.623475" fill="rgb(255, 165, 0)" style="fill-opacity:1.00" />
<ellipse cx="415.000000" cy="109.376525" rx="16.666667" ry="0.415650" fill="rgb(255, 255, 255)" style="fill-opacity:1.00" />
<rect height="0.623475" width="25.000000" x="415.000000" y="109.064788" fill="rgb(255, 255, 255)" style="fill-opacity:1.00" />
<rect height="0.155869" width="25.000000" x="415.000000" y="109.532394" fill="rgb(255, 165, 0)" style="fill-opacity:1.00" />
<rect height="0.467606" width="6.250000" x="433.750000" y="109.532394" fill="rgb(255, 165, 0)" style="fill-opacity:1.00" />
<!-- End 'G' -->
<!-- Begin 'A' -->
<polygon points=" 450.000000, 108.574563, 471.000000, 16.294695, 479.000000, 16.294695, 500.000000, 108.574563, 492.500000, 108.574563, 486.250000, 85.504596, 463.750000, 85.504596, 457.500000, 108.574563" fill="rgb(178, 34, 34)" style="fill-opacity:1.00" />
<polygon points=" 475.000000, 34.750669, 467.000000, 70.662616, 482.000000, 70.662616" fill="rgb(255, 255, 255)" style="fill-opacity:1.00" />
<!-- End 'A' -->
<!-- Begin 'C' -->
<ellipse cx="475.000000" cy="109.156576" rx="25.000000" ry="0.582013" fill="rgb(0, 0, 128)" style="fill-opacity:1.00" />
<ellipse cx="475.000000" cy="109.156576" rx="16.666667" ry="0.388009" fill="rgb(255, 255, 255)" style="fill-opacity:1.00" />
<rect height="0.582013" width="25.000000" x="475.000000" y="108.865570" fill="rgb(255, 255, 255)" style="fill-opacity:1.00" />
<!-- End 'C' -->
<!-- Begin 'T' -->
<rect height="0.034948" width="50.000000" x="450.000000" y="109.738589" fill="rgb(0, 100, 0)" style="fill-opacity:1.00" />
<rect height="0.218427" width="10.000000" x="470.000000" y="109.738589" fill="rgb(0, 100, 0)" style="fill-opacity:1.00" />
<!-- End 'T' -->
<!-- Begin 'G' -->
<ellipse cx="475.000000" cy="109.978508" rx="25.000000" ry="0.021492" fill="rgb(255, 165, 0)" style="fill-opacity:1.00" />
<ellipse cx="475.000000" cy="109.978508" rx="16.666667" ry="0.014328" fill="rgb(255, 255, 255)" style="fill-opacity:1.00" />
<rect height="0.021492" width="25.000000" x="475.000000" y="109.967762" fill="rgb(255, 255, 255)" style="fill-opacity:1.00" />
<rect height="0.005373" width="25.000000" x="475.000000" y="109.983881" fill="rgb(255, 165, 0)" style="fill-opacity:1.00" />
<rect height="0.016119" width="6.250000" x="493.750000" y="109.983881" fill="rgb(255, 165, 0)" style="fill-opacity:1.00" />
<!-- End 'G' -->
<!-- Begin 'T' -->
<rect height="15.688481" width="50.000000" x="510.000000" y="11.660151" fill="rgb(0, 100, 0)" style="fill-opacity:1.00" />
<rect height="98.053007" width="10.000000" x="530.000000" y="11.660151" fill="rgb(0, 100, 0)" style="fill-opacity:1.00" />
<!-- End 'T' -->
<!-- Begin 'C' -->
<ellipse cx="535.000000" cy="109.780439" rx="25.000000" ry="0.067281" fill="rgb(0, 0, 128)" style="fill-opacity:1.00" />
<ellipse cx="535.000000" cy="109.780439" rx="16.666667" ry="0.044854" fill="rgb(255, 255, 255)" style="fill-opacity:1.00" />
<rect height="0.067281" width="25.000000" x="535.000000" y="109.746799" fill="rgb(255, 255, 255)" style="fill-opacity:1.00" />
<!-- End 'C' -->
<!-- Begin 'A' -->
<polygon points=" 510.000000, 109.934062, 531.000000, 109.847720, 539.000000, 109.847720, 560.000000, 109.934062, 552.500000, 109.934062, 546.250000, 109.912476, 523.750000, 109.912476, 517.500000, 109.934062" fill="rgb(178, 34, 34)" style="fill-opacity:1.00" />
<!-- End 'A' -->
<!-- Begin 'G' -->
<ellipse cx="535.000000" cy="109.967031" rx="25.000000" ry="0.032969" fill="rgb(255, 165, 0)" style="fill-opacity:1.00" />
<ellipse cx="535.000000" cy="109.967031" rx="16.666667" ry="0.021979" fill="rgb(255, 255, 255)" style="fill-opacity:1.00" />
<rect height="0.032969" width="25.000000" x="535.000000" y="109.950546" fill="rgb(255, 255, 255)" style="fill-opacity:1.00" />
<rect height="0.008242" width="25.000000" x="535.000000" y="109.975273" fill="rgb(255, 165, 0)" style="fill-opacity:1.00" />
<rect height="0.024727" width="6.250000" x="553.750000" y="109.975273" fill="rgb(255, 165, 0)" style="fill-opacity:1.00" />
<!-- End 'G' -->
<!-- Begin 'T' -->
<rect height="1.116459" width="50.000000" x="570.000000" y="93.409116" fill="rgb(0, 100, 0)" style="fill-opacity:1.00" />
<rect height="6.977869" width="10.000000" x="590.000000" y="93.409116" fill="rgb(0, 100, 0)" style="fill-opacity:1.00" />
<!-- End 'T' -->
<!-- Begin 'A' -->
<polygon points=" 570.000000, 107.100861, 591.000000, 100.386985, 599.000000, 100.386985, 620.000000, 107.100861, 612.500000, 107.100861, 606.250000, 105.422392, 583.750000, 105.422392, 577.500000, 107.100861" fill="rgb(178, 34, 34)" style="fill-opacity:1.00" />
<!-- End 'A' -->
<!-- Begin 'C' -->
<ellipse cx="595.000000" cy="107.838012" rx="25.000000" ry="0.737151" fill="rgb(0, 0, 128)" style="fill-opacity:1.00" />
<ellipse cx="595.000000" cy="107.838012" rx="16.666667" ry="0.491434" fill="rgb(255, 255, 255)" style="fill-opacity:1.00" />
<rect height="0.737151" width="25.000000" x="595.000000" y="107.469436" fill="rgb(255, 255, 255)" style="fill-opacity:1.00" />
<!-- End 'C' -->
<!-- Begin 'G' -->
<ellipse cx="595.000000" cy="109.287581" rx="25.000000" ry="0.712419" fill="rgb(255, 165, 0)" style="fill-opacity:1.00" />
<ellipse cx="595.000000" cy="109.287581" rx="16.666667" ry="0.474946" fill="rgb(255, 255, 255)" style="fill-opacity:1.00" />
<rect height="0.712419" width="25.000000" x="595.000000" y="108.931372" fill="rgb(255, 255, 255)" style="fill-opacity:1.00" />
<rect height="0.178105" width="25.000000" x="595.000000" y="109.465686" fill="rgb(255, 165, 0)" style="fill-opacity:1.00" />
<rect height="0.534314" width="6.250000" x="613.750000" y="109.465686" fill="rgb(255, 165, 0)" style="fill-opacity:1.00" />
<!-- End 'G' -->
<!-- Begin 'A' -->
<polygon points=" 630.000000, 109.842559, 651.000000, 10.948794, 659.000000, 10.948794, 680.000000, 109.842559, 672.500000, 109.842559, 666.250000, 85.119118, 643.750000, 85.119118, 637.500000, 109.842559" fill="rgb(178, 34, 34)" style="fill-opacity:1.00" />
<polygon points=" 655.000000, 30.727547, 647.000000, 69.285053, 662.000000, 69.285053" fill="rgb(255, 255, 255)" style="fill-opacity:1.00" />
<!-- End 'A' -->
<!-- Begin 'G' -->
<ellipse cx="655.000000" cy="109.888956" rx="25.000000" ry="0.046397" fill="rgb(255, 165, 0)" style="fill-opacity:1.00" />
<ellipse cx="655.000000" cy="109.888956" rx="16.666667" ry="0.030931" fill="rgb(255, 255, 255)" style="fill-opacity:1.00" />
<rect height="0.046397" width="25.000000" x="655.000000" y="109.865758" fill="rgb(255, 255, 255)" style="fill-opacity:1.00" />
<rect height="0.011599" width="25.000000" x="655.000000" y="109.900555" fill="rgb(255, 165, 0)" style="fill-opacity:1.00" />
<rect height="0.034798" width="6.250000" x="673.750000" y="109.900555" fill="rgb(255, 165, 0)" style="fill-opacity:1.00" />
<!-- End 'G' -->
<!-- Begin 'T' -->
<rect height="0.009054" width="50.000000" x="630.000000" y="109.935353" fill="rgb(0, 100, 0)" style="fill-opacity:1.00" />
<rect height="0.056590" width="10.000000" x="650.000000" y="109.935353" fill="rgb(0, 100, 0)" style="fill-opacity:1.00" />
<!-- End 'T' -->
<!-- Begin 'C' -->
<ellipse cx="655.000000" cy="109.995971" rx="25.000000" ry="0.004029" fill="rgb(0, 0, 128)" style="fill-opacity:1.00" />
<ellipse cx="655.000000" cy="109.995971" rx="16.666667" ry="0.002686" fill="rgb(255, 255, 255)" style="fill-opacity:1.00" />
<rect height="0.004029" width="25.000000" x="655.000000" y="109.993957" fill="rgb(255, 255, 255)" style="fill-opacity:1.00" />
<!-- End 'C' -->
<!-- Begin 'T' -->
<rect height="14.640215" width="50.000000" x="690.000000" y="16.979426" fill="rgb(0, 100, 0)" style="fill-opacity:1.00" />
<rect height="91.501346" width="10.000000" x="710.000000" y="16.979426" fill="rgb(0, 100, 0)" style="fill-opacity:1.00" />
<!-- End 'T' -->
<!-- Begin 'G' -->
<ellipse cx="715.000000" cy="109.012794" rx="25.000000" ry="0.532021" fill="rgb(255, 165, 0)" style="fill-opacity:1.00" />
<ellipse cx="715.000000" cy="109.012794" rx="16.666667" ry="0.354681" fill="rgb(255, 255, 255)" style="fill-opacity:1.00" />
<rect height="0.532021" width="25.000000" x="715.000000" y="108.746783" fill="rgb(255, 255, 255)" style="fill-opacity:1.00" />
<rect height="0.133005" width="25.000000" x="715.000000" y="109.145799" fill="rgb(255, 165, 0)" style="fill-opacity:1.00" />
<rect height="0.399016" width="6.250000" x="733.750000" y="109.145799" fill="rgb(255, 165, 0)" style="fill-opacity:1.00" />
<!-- End 'G' -->
<!-- Begin 'A' -->
<polygon points=" 690.000000, 109.784177, 711.000000, 109.544815, 719.000000, 109.544815, 740.000000, 109.784177, 732.500000, 109.784177, 726.250000, 109.724337, 703.750000, 109.724337, 697.500000, 109.784177" fill="rgb(178, 34, 34)" style="fill-opacity:1.00" />
<!-- End 'A' -->
<!-- Begin 'C' -->
<ellipse cx="715.000000" cy="109.892089" rx="25.000000" ry="0.107911" fill="rgb(0, 0, 128)" style="fill-opacity:1.00" />
<ellipse cx="715.000000" cy="109.892089" rx="16.666667" ry="0.071941" fill="rgb(255, 255, 255)" style="fill-opacity:1.00" />
<rect height="0.107911" width="25.000000" x="715.000000" y="109.838133" fill="rgb(255, 255, 255)" style="fill-opacity:1.00" />
<!-- End 'C' -->
<!-- Begin 'T' -->
<rect height="4.209758" width="50.000000" x="750.000000" y="73.050482" fill="rgb(0, 100, 0)" style="fill-opacity:1.00" />
<rect height="26.310990" width="10.000000" x="770.000000" y="73.050482" fill="rgb(0, 100, 0)" style="fill-opacity:1.00" />
<!-- End 'T' -->
<!-- Begin 'A' -->
<polygon points=" 750.000000, 105.133100, 771.000000, 99.361472, 779.000000, 99.361472, 800.000000, 105.133100, 792.500000, 105.133100, 786.250000, 103.690193, 763.750000, 103.690193, 757.500000, 105.133100" fill="rgb(178, 34, 34)" style="fill-opacity:1.00" />
<!-- End 'A' -->
<!-- Begin 'G' -->
<ellipse cx="775.000000" cy="106.937805" rx="25.000000" ry="1.804705" fill="rgb(255, 165, 0)" style="fill-opacity:1.00" />
<ellipse cx="775.000000" cy="106.937805" rx="16.666667" ry="1.203137" fill="rgb(255, 255, 255)" style="fill-opacity:1.00" />
<rect height="1.804705" width="25.000000" x="775.000000" y="106.035452" fill="rgb(255, 255, 255)" style="fill-opacity:1.00" />
<rect height="0.451176" width="25.000000" x="775.000000" y="107.388981" fill="rgb(255, 165, 0)" style="fill-opacity:1.00" />
<rect height="1.353529" width="6.250000" x="793.750000" y="107.388981" fill="rgb(255, 165, 0)" style="fill-opacity:1.00" />
<!-- End 'G' -->
<!-- Begin 'C' -->
<ellipse cx="775.000000" cy="109.371255" rx="25.000000" ry="0.628745" fill="rgb(0, 0, 128)" style="fill-opacity:1.00" />
<ellipse cx="775.000000" cy="109.371255" rx="16.666667" ry="0.419163" fill="rgb(255, 255, 255)" style="fill-opacity:1.00" />
<rect height="0.628745" width="25.000000" x="775.000000" y="109.056882" fill="rgb(255, 255, 255)" style="fill-opacity:1.00" />
<!-- End 'C' -->
<!-- Begin 'G' -->
<ellipse cx="835.000000" cy="100.533377" rx="25.000000" ry="2.846130" fill="rgb(255, 165, 0)" style="fill-opacity:1.00" />
<ellipse cx="835.000000" cy="100.533377" rx="16.666667" ry="1.897420" fill="rgb(255, 255, 255)" style="fill-opacity:1.00" />
<rect height="2.846130" width="25.000000" x="835.000000" y="99.110312" fill="rgb(255, 255, 255)" style="fill-opacity:1.00" />
<rect height="0.711533" width="25.000000" x="835.000000" y="101.244910" fill="rgb(255, 165, 0)" style="fill-opacity:1.00" />
<rect height="2.134598" width="6.250000" x="853.750000" y="101.244910" fill="rgb(255, 165, 0)" style="fill-opacity:1.00" />
<!-- End 'G' -->
<!-- Begin 'T' -->
<rect height="0.490849" width="50.000000" x="810.000000" y="103.379508" fill="rgb(0, 100, 0)" style="fill-opacity:1.00" />
<rect height="3.067806" width="10.000000" x="830.000000" y="103.379508" fill="rgb(0, 100, 0)" style="fill-opacity:1.00" />
<!-- End 'T' -->
<!-- Begin 'A' -->
<polygon points=" 810.000000, 109.198598, 831.000000, 106.447314, 839.000000, 106.447314, 860.000000, 109.198598, 852.500000, 109.198598, 846.250000, 108.510777, 823.750000, 108.510777, 817.500000, 109.198598" fill="rgb(178, 34, 34)" style="fill-opacity:1.00" />
<!-- End 'A' -->
<!-- Begin 'C' -->
<ellipse cx="835.000000" cy="109.599299" rx="25.000000" ry="0.400701" fill="rgb(0, 0, 128)" style="fill-opacity:1.00" />
<ellipse cx="835.000000" cy="109.599299" rx="16.666667" ry="0.267134" fill="rgb(255, 255, 255)" style="fill-opacity:1.00" />
<rect height="0.400701" width="25.000000" x="835.000000" y="109.398949" fill="rgb(255, 255, 255)" style="fill-opacity:1.00" />
<!-- End 'C' -->
<!-- Begin 'A' -->
<polygon points=" 870.000000, 107.409529, 891.000000, 106.234949, 899.000000, 106.234949, 920.000000, 107.409529, 912.500000, 107.409529, 906.250000, 107.115884, 883.750000, 107.115884, 877.500000, 107.409529" fill="rgb(178, 34, 34)" style="fill-opacity:1.00" />
<!-- End 'A' -->
<!-- Begin 'G' -->
<ellipse cx="895.000000" cy="107.965948" rx="25.000000" ry="0.556418" fill="rgb(255, 165, 0)" style="fill-opacity:1.00" />
<ellipse cx="895.000000" cy="107.965948" rx="16.666667" ry="0.370945" fill="rgb(255, 255, 255)" style="fill-opacity:1.00" />
<rect height="0.556418" width="25.000000" x="895.000000" y="107.687739" fill="rgb(255, 255, 255)" style="fill-opacity:1.00" />
<rect height="0.139105" width="25.000000" x="895.000000" y="108.105052" fill="rgb(255, 165, 0)" style="fill-opacity:1.00" />
<rect height="0.417314" width="6.250000" x="913.750000" y="108.105052" fill="rgb(255, 165, 0)" style="fill-opacity:1.00" />
<!-- End 'G' -->
<!-- Begin 'T' -->
<rect height="0.162830" width="50.000000" x="870.000000" y="108.522366" fill="rgb(0, 100, 0)" style="fill-opacity:1.00" />
<rect height="1.017687" width="10.000000" x="890.000000" y="108.522366" fill="rgb(0, 100, 0)" style="fill-opacity:1.00" />
<!-- End 'T' -->
<!-- Begin 'C' -->
<ellipse cx="895.000000" cy="109.770026" rx="25.000000" ry="0.229974" fill="rgb(0, 0, 128)" style="fill-opacity:1.00" />
<ellipse cx="895.000000" cy="109.770026" rx="16.666667" ry="0.153316" fill="rgb(255, 255, 255)" style="fill-opacity:1.00" />
<rect height="0.229974" width="25.000000" x="895.000000" y="109.655040" fill="rgb(255, 255, 255)" style="fill-opacity:1.00" />
<!-- End 'C' -->
<text x="490.000000" y="165">
IC = 10.40
</text>

</svg>
