<?xml version="1.0" encoding="UTF-8" standalone="yes"?>
                 <!DOCTYPE svg PUBLIC "-//W3C//DTD SVG 1.0//EN" "http://www.w3.org/TR/2001/REC-SVG-20010904/DTD/svg10.dtd">
                 <svg height="170" width="960" xmlns="http://www.w3.org/2000/svg" xmlns:xlink="http://www.w3.org/1999/xlink">
                 <line x1="85" y1="120" x2="927" y2="120" style="stroke:rgb(99,99,99);stroke-width:2" />
<rect height="7.000000" width="2.000000" x="85.000000" y="120.000000" fill="rgb(0, 0, 0)" style="fill-opacity:1.00" />
<text x="107.000000" y="140">
1
</text>
<rect height="7.000000" width="2.000000" x="145.000000" y="120.000000" fill="rgb(0, 0, 0)" style="fill-opacity:1.00" />
<text x="167.000000" y="140">
2
</text>
<rect height="7.000000" width="2.000000" x="205.000000" y="120.000000" fill="rgb(0, 0, 0)" style="fill-opacity:1.00" />
<text x="227.000000" y="140">
3
</text>
<rect height="7.000000" width="2.000000" x="265.000000" y="120.000000" fill="rgb(0, 0, 0)" style="fill-opacity:1.00" />
<text x="287.000000" y="140">
4
</text>
<rect height="7.000000" width="2.000000" x="325.000000" y="120.000000" fill="rgb(0, 0, 0)" style="fill-opacity:1.00" />
<text x="347.000000" y="140">
5
</text>
<rect height="7.000000" width="2.000000" x="385.000000" y="120.000000" fill="rgb(0, 0, 0)" style="fill-opacity:1.00" />
<text x="407.000000" y="140">
6
</text>
<rect height="7.000000" width="2.000000" x="445.000000" y="120.000000" fill="rgb(0, 0, 0)" style="fill-opacity:1.00" />
<text x="467.000000" y="140">
7
</text>
<rect height="7.000000" width="2.000000" x="505.000000" y="120.000000" fill="rgb(0, 0, 0)" style="fill-opacity:1.00" />
<text x="527.000000" y="140">
8
</text>
<rect height="7.000000" width="2.000000" x="565.000000" y="120.000000" fill="rgb(0, 0, 0)" style="fill-opacity:1.00" />
<text x="587.000000" y="140">
9
</text>
<rect height="7.000000" width="2.000000" x="625.000000" y="120.000000" fill="rgb(0, 0, 0)" style="fill-opacity:1.00" />
<text x="647.000000" y="140">
10
</text>
<rect height="7.000000" width="2.000000" x="685.000000" y="120.000000" fill="rgb(0, 0, 0)" style="fill-opacity:1.00" />
<text x="707.000000" y="140">
11
</text>
<rect height="7.000000" width="2.000000" x="745.000000" y="120.000000" fill="rgb(0, 0, 0)" style="fill-opacity:1.00" />
<text x="767.000000" y="140">
12
</text>
<rect height="7.000000" width="2.000000" x="805.000000" y="120.000000" fill="rgb(0, 0, 0)" style="fill-opacity:1.00" />
<text x="827.000000" y="140">
13
</text>
<rect height="7.000000" width="2.000000" x="865.000000" y="120.000000" fill="rgb(0, 0, 0)" style="fill-opacity:1.00" />
<text x="887.000000" y="140">
14
</text>
<rect height="7.000000" width="2.000000" x="925.000000" y="120.000000" fill="rgb(0, 0, 0)" style="fill-opacity:1.00" />
<line x1="80" y1="112" x2="80" y2="10" style="stroke:rgb(99,99,99);stroke-width:2" />
<rect height="2.000000" width="7.000000" x="73.000000" y="110.000000" fill="rgb(0, 0, 0)" style="fill-opacity:1.00" />
<text x="63" y="115">
0
</text>
<rect height="2.000000" width="7.000000" x="73.000000" y="60.000000" fill="rgb(0, 0, 0)" style="fill-opacity:1.00" />
<text x="63" y="65">
1
</text>
<rect height="2.000000" width="7.000000" x="73.000000" y="10.000000" fill="rgb(0, 0, 0)" style="fill-opacity:1.00" />
<text x="63" y="15">
2
</text>
<text x="50" y="65"
transform="rotate(-90, 50, 70)">
bits
</text>
<!-- Begin 'T' -->
<rect height="0.350728" width="50.000000" x="90.000000" y="104.540108" fill="rgb(0, 100, 0)" style="fill-opacity:1.00" />
<rect height="2.192048" width="10.000000" x="110.000000" y="104.540108" fill="rgb(0, 100, 0)" style="fill-opacity:1.00" />
<!-- End 'T' -->
<!-- Begin 'C' -->
<ellipse cx="115.000000" cy="107.409842" rx="25.000000" ry="0.677685" fill="rgb(0, 0, 128)" style="fill-opacity:1.00" />
<ellipse cx="115.000000" cy="107.409842" rx="16.666667" ry="0.451790" fill="rgb(255, 255, 255)" style="fill-opacity:1.00" />
<rect height="0.677685" width="25.000000" x="115.000000" y="107.070999" fill="rgb(255, 255, 255)" style="fill-opacity:1.00" />
<!-- End 'C' -->
<!-- Begin 'A' -->
<polygon points=" 90.000000, 109.291785, 111.000000, 108.087527, 119.000000, 108.087527, 140.000000, 109.291785, 132.500000, 109.291785, 126.250000, 108.990720, 103.750000, 108.990720, 97.500000, 109.291785" fill="rgb(178, 34, 34)" style="fill-opacity:1.00" />
<!-- End 'A' -->
<!-- Begin 'G' -->
<ellipse cx="115.000000" cy="109.645892" rx="25.000000" ry="0.354108" fill="rgb(255, 165, 0)" style="fill-opacity:1.00" />
<ellipse cx="115.000000" cy="109.645892" rx="16.666667" ry="0.236072" fill="rgb(255, 255, 255)" style="fill-opacity:1.00" />
<rect height="0.354108" width="25.000000" x="115.000000" y="109.468839" fill="rgb(255, 255, 255)" style="fill-opacity:1.00" />
<rect height="0.088527" width="25.000000" x="115.000000" y="109.734419" fill="rgb(255, 165, 0)" style="fill-opacity:1.00" />
<rect height="0.265581" width="6.250000" x="133.750000" y="109.734419" fill="rgb(255, 165, 0)" style="fill-opacity:1.00" />
<!-- End 'G' -->
<!-- Begin 'T' -->
<rect height="0.277309" width="50.000000" x="150.000000" y="105.316029" fill="rgb(0, 100, 0)" style="fill-opacity:1.00" />
<rect height="1.733180" width="10.000000" x="170.000000" y="105.316029" fill="rgb(0, 100, 0)" style="fill-opacity:1.00" />
<!-- End 'T' -->
<!-- Begin 'A' -->
<polygon points=" 150.000000, 108.418734, 171.000000, 107.049209, 179.000000, 107.049209, 200.000000, 108.418734, 192.500000, 108.418734, 186.250000, 108.076353, 163.750000, 108.076353, 157.500000, 108.418734" fill="rgb(178, 34, 34)" style="fill-opacity:1.00" />
<!-- End 'A' -->
<!-- Begin 'C' -->
<ellipse cx="175.000000" cy="108.892261" rx="25.000000" ry="0.473527" fill="rgb(0, 0, 128)" style="fill-opacity:1.00" />
<ellipse cx="175.000000" cy="108.892261" rx="16.666667" ry="0.315685" fill="rgb(255, 255, 255)" style="fill-opacity:1.00" />
<rect height="0.473527" width="25.000000" x="175.000000" y="108.655497" fill="rgb(255, 255, 255)" style="fill-opacity:1.00" />
<!-- End 'C' -->
<!-- Begin 'G' -->
<ellipse cx="175.000000" cy="109.682894" rx="25.000000" ry="0.317106" fill="rgb(255, 165, 0)" style="fill-opacity:1.00" />
<ellipse cx="175.000000" cy="109.682894" rx="16.666667" ry="0.211404" fill="rgb(255, 255, 255)" style="fill-opacity:1.00" />
<rect height="0.317106" width="25.000000" x="175.000000" y="109.524341" fill="rgb(255, 255, 255)" style="fill-opacity:1.00" />
<rect height="0.079276" width="25.000000" x="175.000000" y="109.762171" fill="rgb(255, 165, 0)" style="fill-opacity:1.00" />
<rect height="0.237829" width="6.250000" x="193.750000" y="109.762171" fill="rgb(255, 165, 0)" style="fill-opacity:1.00" />
<!-- End 'G' -->
<!-- Begin 'T' -->
<rect height="1.402213" width="50.000000" x="210.000000" y="94.344687" fill="rgb(0, 100, 0)" style="fill-opacity:1.00" />
<rect height="8.763832" width="10.000000" x="230.000000" y="94.344687" fill="rgb(0, 100, 0)" style="fill-opacity:1.00" />
<!-- End 'T' -->
<!-- Begin 'A' -->
<polygon points=" 210.000000, 105.530543, 231.000000, 103.108519, 239.000000, 103.108519, 260.000000, 105.530543, 252.500000, 105.530543, 246.250000, 104.925037, 223.750000, 104.925037, 217.500000, 105.530543" fill="rgb(178, 34, 34)" style="fill-opacity:1.00" />
<!-- End 'A' -->
<!-- Begin 'G' -->
<ellipse cx="235.000000" cy="106.649198" rx="25.000000" ry="1.118655" fill="rgb(255, 165, 0)" style="fill-opacity:1.00" />
<ellipse cx="235.000000" cy="106.649198" rx="16.666667" ry="0.745770" fill="rgb(255, 255, 255)" style="fill-opacity:1.00" />
<rect height="1.118655" width="25.000000" x="235.000000" y="106.089870" fill="rgb(255, 255, 255)" style="fill-opacity:1.00" />
<rect height="0.279664" width="25.000000" x="235.000000" y="106.928862" fill="rgb(255, 165, 0)" style="fill-opacity:1.00" />
<rect height="0.838991" width="6.250000" x="253.750000" y="106.928862" fill="rgb(255, 165, 0)" style="fill-opacity:1.00" />
<!-- End 'G' -->
<!-- Begin 'C' -->
<ellipse cx="235.000000" cy="108.883927" rx="25.000000" ry="1.116073" fill="rgb(0, 0, 128)" style="fill-opacity:1.00" />
<ellipse cx="235.000000" cy="108.883927" rx="16.666667" ry="0.744049" fill="rgb(255, 255, 255)" style="fill-opacity:1.00" />
<rect height="1.116073" width="25.000000" x="235.000000" y="108.325890" fill="rgb(255, 255, 255)" style="fill-opacity:1.00" />
<!-- End 'C' -->
<!-- Begin 'A' -->
<polygon points=" 270.000000, 96.764772, 291.000000, 53.188604, 299.000000, 53.188604, 320.000000, 96.764772, 312.500000, 96.764772, 306.250000, 85.870730, 283.750000, 85.870730, 277.500000, 96.764772" fill="rgb(178, 34, 34)" style="fill-opacity:1.00" />
<polygon points=" 295.000000, 61.903838, 287.000000, 78.334305, 302.000000, 78.334305" fill="rgb(255, 255, 255)" style="fill-opacity:1.00" />
<!-- End 'A' -->
<!-- Begin 'G' -->
<ellipse cx="295.000000" cy="103.038943" rx="25.000000" ry="6.274171" fill="rgb(255, 165, 0)" style="fill-opacity:1.00" />
<ellipse cx="295.000000" cy="103.038943" rx="16.666667" ry="4.182781" fill="rgb(255, 255, 255)" style="fill-opacity:1.00" />
<rect height="6.274171" width="25.000000" x="295.000000" y="99.901857" fill="rgb(255, 255, 255)" style="fill-opacity:1.00" />
<rect height="1.568543" width="25.000000" x="295.000000" y="104.607485" fill="rgb(255, 165, 0)" style="fill-opacity:1.00" />
<rect height="4.705628" width="6.250000" x="313.750000" y="104.607485" fill="rgb(255, 165, 0)" style="fill-opacity:1.00" />
<!-- End 'G' -->
<!-- Begin 'T' -->
<rect height="0.059315" width="50.000000" x="270.000000" y="109.313113" fill="rgb(0, 100, 0)" style="fill-opacity:1.00" />
<rect height="0.370718" width="10.000000" x="290.000000" y="109.313113" fill="rgb(0, 100, 0)" style="fill-opacity:1.00" />
<!-- End 'T' -->
<!-- Begin 'C' -->
<ellipse cx="295.000000" cy="109.841916" rx="25.000000" ry="0.158084" fill="rgb(0, 0, 128)" style="fill-opacity:1.00" />
<ellipse cx="295.000000" cy="109.841916" rx="16.666667" ry="0.105389" fill="rgb(255, 255, 255)" style="fill-opacity:1.00" />
<rect height="0.158084" width="25.000000" x="295.000000" y="109.762874" fill="rgb(255, 255, 255)" style="fill-opacity:1.00" />
<!-- End 'C' -->
<!-- Begin 'C' -->
<ellipse cx="355.000000" cy="65.226902" rx="25.000000" ry="41.768559" fill="rgb(0, 0, 128)" style="fill-opacity:1.00" />
<ellipse cx="355.000000" cy="65.226902" rx="16.666667" ry="27.845706" fill="rgb(255, 255, 255)" style="fill-opacity:1.00" />
<rect height="41.768559" width="25.000000" x="355.000000" y="44.342623" fill="rgb(255, 255, 255)" style="fill-opacity:1.00" />
<!-- End 'C' -->
<!-- Begin 'A' -->
<polygon points=" 330.000000, 108.474564, 351.000000, 106.995461, 359.000000, 106.995461, 380.000000, 108.474564, 372.500000, 108.474564, 366.250000, 108.104788, 343.750000, 108.104788, 337.500000, 108.474564" fill="rgb(178, 34, 34)" style="fill-opacity:1.00" />
<!-- End 'A' -->
<!-- Begin 'G' -->
<ellipse cx="355.000000" cy="108.944830" rx="25.000000" ry="0.470266" fill="rgb(255, 165, 0)" style="fill-opacity:1.00" />
<ellipse cx="355.000000" cy="108.944830" rx="16.666667" ry="0.313511" fill="rgb(255, 255, 255)" style="fill-opacity:1.00" />
<rect height="0.470266" width="25.000000" x="355.000000" y="108.709697" fill="rgb(255, 255, 255)" style="fill-opacity:1.00" />
<rect height="0.117567" width="25.000000" x="355.000000" y="109.062396" fill="rgb(255, 165, 0)" style="fill-opacity:1.00" />
<rect height="0.352700" width="6.250000" x="373.750000" y="109.062396" fill="rgb(255, 165, 0)" style="fill-opacity:1.00" />
<!-- End 'G' -->
<!-- Begin 'T' -->
<rect height="0.093585" width="50.000000" x="330.000000" y="109.415096" fill="rgb(0, 100, 0)" style="fill-opacity:1.00" />
<rect height="0.584904" width="10.000000" x="350.000000" y="109.415096" fill="rgb(0, 100, 0)" style="fill-opacity:1.00" />
<!-- End 'T' -->
<!-- Begin 'C' -->
<ellipse cx="415.000000" cy="61.904749" rx="25.000000" ry="47.098832" fill="rgb(0, 0, 128)" style="fill-opacity:1.00" />
<ellipse cx="415.000000" cy="61.904749" rx="16.666667" ry="31.399221" fill="rgb(255, 255, 255)" style="fill-opacity:1.00" />
<rect height="47.098832" width="25.000000" x="415.000000" y="38.355333" fill="rgb(255, 255, 255)" style="fill-opacity:1.00" />
<!-- End 'C' -->
<!-- Begin 'G' -->
<ellipse cx="415.000000" cy="109.342915" rx="25.000000" ry="0.339335" fill="rgb(255, 165, 0)" style="fill-opacity:1.00" />
<ellipse cx="415.000000" cy="109.342915" rx="16.666667" ry="0.226223" fill="rgb(255, 255, 255)" style="fill-opacity:1.00" />
<rect height="0.339335" width="25.000000" x="415.000000" y="109.173248" fill="rgb(255, 255, 255)" style="fill-opacity:1.00" />
<rect height="0.084834" width="25.000000" x="415.000000" y="109.427749" fill="rgb(255, 165, 0)" style="fill-opacity:1.00" />
<rect height="0.254501" width="6.250000" x="433.750000" y="109.427749" fill="rgb(255, 165, 0)" style="fill-opacity:1.00" />
<!-- End 'G' -->
<!-- Begin 'A' -->
<polygon points=" 390.000000, 109.915462, 411.000000, 109.682250, 419.000000, 109.682250, 440.000000, 109.915462, 432.500000, 109.915462, 426.250000, 109.857159, 403.750000, 109.857159, 397.500000, 109.915462" fill="rgb(178, 34, 34)" style="fill-opacity:1.00" />
<!-- End 'A' -->
<!-- Begin 'T' -->
<rect height="0.013526" width="50.000000" x="390.000000" y="109.915462" fill="rgb(0, 100, 0)" style="fill-opacity:1.00" />
<rect height="0.084538" width="10.000000" x="410.000000" y="109.915462" fill="rgb(0, 100, 0)" style="fill-opacity:1.00" />
<!-- End 'T' -->
<!-- Begin 'T' -->
<rect height="6.781869" width="50.000000" x="450.000000" y="55.708057" fill="rgb(0, 100, 0)" style="fill-opacity:1.00" />
<rect height="42.386680" width="10.000000" x="470.000000" y="55.708057" fill="rgb(0, 100, 0)" style="fill-opacity:1.00" />
<!-- End 'T' -->
<!-- Begin 'A' -->
<polygon points=" 450.000000, 108.041714, 471.000000, 98.094738, 479.000000, 98.094738, 500.000000, 108.041714, 492.500000, 108.041714, 486.250000, 105.554970, 463.750000, 105.554970, 457.500000, 108.041714" fill="rgb(178, 34, 34)" style="fill-opacity:1.00" />
<polygon points=" 475.000000, 100.084133, 467.000000, 103.062924, 482.000000, 103.062924" fill="rgb(255, 255, 255)" style="fill-opacity:1.00" />
<!-- End 'A' -->
<!-- Begin 'G' -->
<ellipse cx="475.000000" cy="108.947271" rx="25.000000" ry="0.905557" fill="rgb(255, 165, 0)" style="fill-opacity:1.00" />
<ellipse cx="475.000000" cy="108.947271" rx="16.666667" ry="0.603704" fill="rgb(255, 255, 255)" style="fill-opacity:1.00" />
<rect height="0.905557" width="25.000000" x="475.000000" y="108.494493" fill="rgb(255, 255, 255)" style="fill-opacity:1.00" />
<rect height="0.226389" width="25.000000" x="475.000000" y="109.173660" fill="rgb(255, 165, 0)" style="fill-opacity:1.00" />
<rect height="0.679167" width="6.250000" x="493.750000" y="109.173660" fill="rgb(255, 165, 0)" style="fill-opacity:1.00" />
<!-- End 'G' -->
<!-- Begin 'C' -->
<ellipse cx="475.000000" cy="109.926414" rx="25.000000" ry="0.073586" fill="rgb(0, 0, 128)" style="fill-opacity:1.00" />
<ellipse cx="475.000000" cy="109.926414" rx="16.666667" ry="0.049058" fill="rgb(255, 255, 255)" style="fill-opacity:1.00" />
<rect height="0.073586" width="25.000000" x="475.000000" y="109.889621" fill="rgb(255, 255, 255)" style="fill-opacity:1.00" />
<!-- End 'C' -->
<!-- Begin 'A' -->
<polygon points=" 510.000000, 109.804559, 531.000000, 11.166303, 539.000000, 11.166303, 560.000000, 109.804559, 552.500000, 109.804559, 546.250000, 85.144995, 523.750000, 85.144995, 517.500000, 109.804559" fill="rgb(178, 34, 34)" style="fill-opacity:1.00" />
<polygon points=" 535.000000, 30.893954, 527.000000, 69.349257, 542.000000, 69.349257" fill="rgb(255, 255, 255)" style="fill-opacity:1.00" />
<!-- End 'A' -->
<!-- Begin 'G' -->
<ellipse cx="535.000000" cy="109.854828" rx="25.000000" ry="0.050268" fill="rgb(255, 165, 0)" style="fill-opacity:1.00" />
<ellipse cx="535.000000" cy="109.854828" rx="16.666667" ry="0.033512" fill="rgb(255, 255, 255)" style="fill-opacity:1.00" />
<rect height="0.050268" width="25.000000" x="535.000000" y="109.829693" fill="rgb(255, 255, 255)" style="fill-opacity:1.00" />
<rect height="0.012567" width="25.000000" x="535.000000" y="109.867395" fill="rgb(255, 165, 0)" style="fill-opacity:1.00" />
<rect height="0.037701" width="6.250000" x="553.750000" y="109.867395" fill="rgb(255, 165, 0)" style="fill-opacity:1.00" />
<!-- End 'G' -->
<!-- Begin 'T' -->
<rect height="0.011775" width="50.000000" x="510.000000" y="109.905096" fill="rgb(0, 100, 0)" style="fill-opacity:1.00" />
<rect height="0.073595" width="10.000000" x="530.000000" y="109.905096" fill="rgb(0, 100, 0)" style="fill-opacity:1.00" />
<!-- End 'T' -->
<!-- Begin 'C' -->
<ellipse cx="535.000000" cy="109.989345" rx="25.000000" ry="0.010655" fill="rgb(0, 0, 128)" style="fill-opacity:1.00" />
<ellipse cx="535.000000" cy="109.989345" rx="16.666667" ry="0.007103" fill="rgb(255, 255, 255)" style="fill-opacity:1.00" />
<rect height="0.010655" width="25.000000" x="535.000000" y="109.984018" fill="rgb(255, 255, 255)" style="fill-opacity:1.00" />
<!-- End 'C' -->
<!-- Begin 'A' -->
<polygon points=" 570.000000, 106.097640, 591.000000, 24.250287, 599.000000, 24.250287, 620.000000, 106.097640, 612.500000, 106.097640, 606.250000, 85.635802, 583.750000, 85.635802, 577.500000, 106.097640" fill="rgb(178, 34, 34)" style="fill-opacity:1.00" />
<polygon points=" 595.000000, 40.619758, 587.000000, 72.358699, 602.000000, 72.358699" fill="rgb(255, 255, 255)" style="fill-opacity:1.00" />
<!-- End 'A' -->
<!-- Begin 'C' -->
<ellipse cx="595.000000" cy="107.908350" rx="25.000000" ry="1.810710" fill="rgb(0, 0, 128)" style="fill-opacity:1.00" />
<ellipse cx="595.000000" cy="107.908350" rx="16.666667" ry="1.207140" fill="rgb(255, 255, 255)" style="fill-opacity:1.00" />
<rect height="1.810710" width="25.000000" x="595.000000" y="107.002995" fill="rgb(255, 255, 255)" style="fill-opacity:1.00" />
<!-- End 'C' -->
<!-- Begin 'T' -->
<rect height="0.042454" width="50.000000" x="570.000000" y="109.719060" fill="rgb(0, 100, 0)" style="fill-opacity:1.00" />
<rect height="0.265340" width="10.000000" x="590.000000" y="109.719060" fill="rgb(0, 100, 0)" style="fill-opacity:1.00" />
<!-- End 'T' -->
<!-- Begin 'G' -->
<ellipse cx="595.000000" cy="109.992200" rx="25.000000" ry="0.007800" fill="rgb(255, 165, 0)" style="fill-opacity:1.00" />
<ellipse cx="595.000000" cy="109.992200" rx="16.666667" ry="0.005200" fill="rgb(255, 255, 255)" style="fill-opacity:1.00" />
<rect height="0.007800" width="25.000000" x="595.000000" y="109.988300" fill="rgb(255, 255, 255)" style="fill-opacity:1.00" />
<rect height="0.001950" width="25.000000" x="595.000000" y="109.994150" fill="rgb(255, 165, 0)" style="fill-opacity:1.00" />
<rect height="0.005850" width="6.250000" x="613.750000" y="109.994150" fill="rgb(255, 165, 0)" style="fill-opacity:1.00" />
<!-- End 'G' -->
<!-- Begin 'C' -->
<ellipse cx="655.000000" cy="85.363242" rx="25.000000" ry="9.928270" fill="rgb(0, 0, 128)" style="fill-opacity:1.00" />
<ellipse cx="655.000000" cy="85.363242" rx="16.666667" ry="6.618847" fill="rgb(255, 255, 255)" style="fill-opacity:1.00" />
<rect height="9.928270" width="25.000000" x="655.000000" y="80.399107" fill="rgb(255, 255, 255)" style="fill-opacity:1.00" />
<!-- End 'C' -->
<!-- Begin 'T' -->
<rect height="1.867255" width="50.000000" x="630.000000" y="95.291512" fill="rgb(0, 100, 0)" style="fill-opacity:1.00" />
<rect height="11.670344" width="10.000000" x="650.000000" y="95.291512" fill="rgb(0, 100, 0)" style="fill-opacity:1.00" />
<!-- End 'T' -->
<!-- Begin 'A' -->
<polygon points=" 630.000000, 109.941523, 651.000000, 106.961856, 659.000000, 106.961856, 680.000000, 109.941523, 672.500000, 109.941523, 666.250000, 109.196606, 643.750000, 109.196606, 637.500000, 109.941523" fill="rgb(178, 34, 34)" style="fill-opacity:1.00" />
<!-- End 'A' -->
<!-- Begin 'G' -->
<ellipse cx="655.000000" cy="109.970761" rx="25.000000" ry="0.029239" fill="rgb(255, 165, 0)" style="fill-opacity:1.00" />
<ellipse cx="655.000000" cy="109.970761" rx="16.666667" ry="0.019492" fill="rgb(255, 255, 255)" style="fill-opacity:1.00" />
<rect height="0.029239" width="25.000000" x="655.000000" y="109.956142" fill="rgb(255, 255, 255)" style="fill-opacity:1.00" />
<rect height="0.007310" width="25.000000" x="655.000000" y="109.978071" fill="rgb(255, 165, 0)" style="fill-opacity:1.00" />
<rect height="0.021929" width="6.250000" x="673.750000" y="109.978071" fill="rgb(255, 165, 0)" style="fill-opacity:1.00" />
<!-- End 'G' -->
<!-- Begin 'T' -->
<rect height="2.042399" width="50.000000" x="690.000000" y="86.917002" fill="rgb(0, 100, 0)" style="fill-opacity:1.00" />
<rect height="12.764994" width="10.000000" x="710.000000" y="86.917002" fill="rgb(0, 100, 0)" style="fill-opacity:1.00" />
<!-- End 'T' -->
<!-- Begin 'C' -->
<ellipse cx="715.000000" cy="102.144422" rx="25.000000" ry="2.462425" fill="rgb(0, 0, 128)" style="fill-opacity:1.00" />
<ellipse cx="715.000000" cy="102.144422" rx="16.666667" ry="1.641617" fill="rgb(255, 255, 255)" style="fill-opacity:1.00" />
<rect height="2.462425" width="25.000000" x="715.000000" y="100.913209" fill="rgb(255, 255, 255)" style="fill-opacity:1.00" />
<!-- End 'C' -->
<!-- Begin 'A' -->
<polygon points=" 690.000000, 109.527312, 711.000000, 104.606847, 719.000000, 104.606847, 740.000000, 109.527312, 732.500000, 109.527312, 726.250000, 108.297196, 703.750000, 108.297196, 697.500000, 109.527312" fill="rgb(178, 34, 34)" style="fill-opacity:1.00" />
<!-- End 'A' -->
<!-- Begin 'G' -->
<ellipse cx="715.000000" cy="109.763656" rx="25.000000" ry="0.236344" fill="rgb(255, 165, 0)" style="fill-opacity:1.00" />
<ellipse cx="715.000000" cy="109.763656" rx="16.666667" ry="0.157563" fill="rgb(255, 255, 255)" style="fill-opacity:1.00" />
<rect height="0.236344" width="25.000000" x="715.000000" y="109.645484" fill="rgb(255, 255, 255)" style="fill-opacity:1.00" />
<rect height="0.059086" width="25.000000" x="715.000000" y="109.822742" fill="rgb(255, 165, 0)" style="fill-opacity:1.00" />
<rect height="0.177258" width="6.250000" x="733.750000" y="109.822742" fill="rgb(255, 165, 0)" style="fill-opacity:1.00" />
<!-- End 'G' -->
<!-- Begin 'T' -->
<rect height="0.488372" width="50.000000" x="750.000000" y="102.501203" fill="rgb(0, 100, 0)" style="fill-opacity:1.00" />
<rect height="3.052323" width="10.000000" x="770.000000" y="102.501203" fill="rgb(0, 100, 0)" style="fill-opacity:1.00" />
<!-- End 'T' -->
<!-- Begin 'A' -->
<polygon points=" 750.000000, 107.651334, 771.000000, 105.553526, 779.000000, 105.553526, 800.000000, 107.651334, 792.500000, 107.651334, 786.250000, 107.126882, 763.750000, 107.126882, 757.500000, 107.651334" fill="rgb(178, 34, 34)" style="fill-opacity:1.00" />
<!-- End 'A' -->
<!-- Begin 'C' -->
<ellipse cx="775.000000" cy="108.449018" rx="25.000000" ry="0.797684" fill="rgb(0, 0, 128)" style="fill-opacity:1.00" />
<ellipse cx="775.000000" cy="108.449018" rx="16.666667" ry="0.531789" fill="rgb(255, 255, 255)" style="fill-opacity:1.00" />
<rect height="0.797684" width="25.000000" x="775.000000" y="108.050176" fill="rgb(255, 255, 255)" style="fill-opacity:1.00" />
<!-- End 'C' -->
<!-- Begin 'G' -->
<ellipse cx="775.000000" cy="109.623351" rx="25.000000" ry="0.376649" fill="rgb(255, 165, 0)" style="fill-opacity:1.00" />
<ellipse cx="775.000000" cy="109.623351" rx="16.666667" ry="0.251099" fill="rgb(255, 255, 255)" style="fill-opacity:1.00" />
<rect height="0.376649" width="25.000000" x="775.000000" y="109.435027" fill="rgb(255, 255, 255)" style="fill-opacity:1.00" />
<rect height="0.094162" width="25.000000" x="775.000000" y="109.717513" fill="rgb(255, 165, 0)" style="fill-opacity:1.00" />
<rect height="0.282487" width="6.250000" x="793.750000" y="109.717513" fill="rgb(255, 165, 0)" style="fill-opacity:1.00" />
<!-- End 'G' -->
<!-- Begin 'T' -->
<rect height="0.300842" width="50.000000" x="810.000000" y="104.971685" fill="rgb(0, 100, 0)" style="fill-opacity:1.00" />
<rect height="1.880261" width="10.000000" x="830.000000" y="104.971685" fill="rgb(0, 100, 0)" style="fill-opacity:1.00" />
<!-- End 'T' -->
<!-- Begin 'A' -->
<polygon points=" 810.000000, 108.383556, 831.000000, 106.851946, 839.000000, 106.851946, 860.000000, 108.383556, 852.500000, 108.383556, 846.250000, 108.000653, 823.750000, 108.000653, 817.500000, 108.383556" fill="rgb(178, 34, 34)" style="fill-opacity:1.00" />
<!-- End 'A' -->
<!-- Begin 'C' -->
<ellipse cx="835.000000" cy="108.819245" rx="25.000000" ry="0.435689" fill="rgb(0, 0, 128)" style="fill-opacity:1.00" />
<ellipse cx="835.000000" cy="108.819245" rx="16.666667" ry="0.290460" fill="rgb(255, 255, 255)" style="fill-opacity:1.00" />
<rect height="0.435689" width="25.000000" x="835.000000" y="108.601400" fill="rgb(255, 255, 255)" style="fill-opacity:1.00" />
<!-- End 'C' -->
<!-- Begin 'G' -->
<ellipse cx="835.000000" cy="109.627467" rx="25.000000" ry="0.372533" fill="rgb(255, 165, 0)" style="fill-opacity:1.00" />
<ellipse cx="835.000000" cy="109.627467" rx="16.666667" ry="0.248355" fill="rgb(255, 255, 255)" style="fill-opacity:1.00" />
<rect height="0.372533" width="25.000000" x="835.000000" y="109.441201" fill="rgb(255, 255, 255)" style="fill-opacity:1.00" />
<rect height="0.093133" width="25.000000" x="835.000000" y="109.720600" fill="rgb(255, 165, 0)" style="fill-opacity:1.00" />
<rect height="0.279400" width="6.250000" x="853.750000" y="109.720600" fill="rgb(255, 165, 0)" style="fill-opacity:1.00" />
<!-- End 'G' -->
<!-- Begin 'T' -->
<rect height="0.323468" width="50.000000" x="870.000000" y="104.318577" fill="rgb(0, 100, 0)" style="fill-opacity:1.00" />
<rect height="2.021674" width="10.000000" x="890.000000" y="104.318577" fill="rgb(0, 100, 0)" style="fill-opacity:1.00" />
<!-- End 'T' -->
<!-- Begin 'A' -->
<polygon points=" 870.000000, 108.266908, 891.000000, 106.340251, 899.000000, 106.340251, 920.000000, 108.266908, 912.500000, 108.266908, 906.250000, 107.785244, 883.750000, 107.785244, 877.500000, 108.266908" fill="rgb(178, 34, 34)" style="fill-opacity:1.00" />
<!-- End 'A' -->
<!-- Begin 'C' -->
<ellipse cx="895.000000" cy="108.724773" rx="25.000000" ry="0.457865" fill="rgb(0, 0, 128)" style="fill-opacity:1.00" />
<ellipse cx="895.000000" cy="108.724773" rx="16.666667" ry="0.305243" fill="rgb(255, 255, 255)" style="fill-opacity:1.00" />
<rect height="0.457865" width="25.000000" x="895.000000" y="108.495841" fill="rgb(255, 255, 255)" style="fill-opacity:1.00" />
<!-- End 'C' -->
<!-- Begin 'G' -->
<ellipse cx="895.000000" cy="109.591319" rx="25.000000" ry="0.408681" fill="rgb(255, 165, 0)" style="fill-opacity:1.00" />
<ellipse cx="895.000000" cy="109.591319" rx="16.666667" ry="0.272454" fill="rgb(255, 255, 255)" style="fill-opacity:1.00" />
<rect height="0.408681" width="25.000000" x="895.000000" y="109.386978" fill="rgb(255, 255, 255)" style="fill-opacity:1.00" />
<rect height="0.102170" width="25.000000" x="895.000000" y="109.693489" fill="rgb(255, 165, 0)" style="fill-opacity:1.00" />
<rect height="0.306511" width="6.250000" x="913.750000" y="109.693489" fill="rgb(255, 165, 0)" style="fill-opacity:1.00" />
<!-- End 'G' -->
<text x="490.000000" y="165">
IC = 11.58
</text>

</svg>
