<?xml version="1.0" encoding="UTF-8" standalone="yes"?>
                 <!DOCTYPE svg PUBLIC "-//W3C//DTD SVG 1.0//EN" "http://www.w3.org/TR/2001/REC-SVG-20010904/DTD/svg10.dtd">
                 <svg height="170" width="780" xmlns="http://www.w3.org/2000/svg" xmlns:xlink="http://www.w3.org/1999/xlink">
                 <line x1="85" y1="120" x2="747" y2="120" style="stroke:rgb(99,99,99);stroke-width:2" />
<rect height="7.000000" width="2.000000" x="85.000000" y="120.000000" fill="rgb(0, 0, 0)" style="fill-opacity:1.00" />
<text x="107.000000" y="140">
1
</text>
<rect height="7.000000" width="2.000000" x="145.000000" y="120.000000" fill="rgb(0, 0, 0)" style="fill-opacity:1.00" />
<text x="167.000000" y="140">
2
</text>
<rect height="7.000000" width="2.000000" x="205.000000" y="120.000000" fill="rgb(0, 0, 0)" style="fill-opacity:1.00" />
<text x="227.000000" y="140">
3
</text>
<rect height="7.000000" width="2.000000" x="265.000000" y="120.000000" fill="rgb(0, 0, 0)" style="fill-opacity:1.00" />
<text x="287.000000" y="140">
4
</text>
<rect height="7.000000" width="2.000000" x="325.000000" y="120.000000" fill="rgb(0, 0, 0)" style="fill-opacity:1.00" />
<text x="347.000000" y="140">
5
</text>
<rect height="7.000000" width="2.000000" x="385.000000" y="120.000000" fill="rgb(0, 0, 0)" style="fill-opacity:1.00" />
<text x="407.000000" y="140">
6
</text>
<rect height="7.000000" width="2.000000" x="445.000000" y="120.000000" fill="rgb(0, 0, 0)" style="fill-opacity:1.00" />
<text x="467.000000" y="140">
7
</text>
<rect height="7.000000" width="2.000000" x="505.000000" y="120.000000" fill="rgb(0, 0, 0)" style="fill-opacity:1.00" />
<text x="527.000000" y="140">
8
</text>
<rect height="7.000000" width="2.000000" x="565.000000" y="120.000000" fill="rgb(0, 0, 0)" style="fill-opacity:1.00" />
<text x="587.000000" y="140">
9
</text>
<rect height="7.000000" width="2.000000" x="625.000000" y="120.000000" fill="rgb(0, 0, 0)" style="fill-opacity:1.00" />
<text x="647.000000" y="140">
10
</text>
<rect height="7.000000" width="2.000000" x="685.000000" y="120.000000" fill="rgb(0, 0, 0)" style="fill-opacity:1.00" />
<text x="707.000000" y="140">
11
</text>
<rect height="7.000000" width="2.000000" x="745.000000" y="120.000000" fill="rgb(0, 0, 0)" style="fill-opacity:1.00" />
<line x1="80" y1="112" x2="80" y2="10" style="stroke:rgb(99,99,99);stroke-width:2" />
<rect height="2.000000" width="7.000000" x="73.000000" y="110.000000" fill="rgb(0, 0, 0)" style="fill-opacity:1.00" />
<text x="63" y="115">
0
</text>
<rect height="2.000000" width="7.000000" x="73.000000" y="60.000000" fill="rgb(0, 0, 0)" style="fill-opacity:1.00" />
<text x="63" y="65">
1
</text>
<rect height="2.000000" width="7.000000" x="73.000000" y="10.000000" fill="rgb(0, 0, 0)" style="fill-opacity:1.00" />
<text x="63" y="15">
2
</text>
<text x="50" y="65"
transform="rotate(-90, 50, 70)">
bits
</text>
<!-- Begin 'T' -->
<rect height="0.481260" width="50.000000" x="90.000000" y="102.286575" fill="rgb(0, 100, 0)" style="fill-opacity:1.00" />
<rect height="3.007875" width="10.000000" x="110.000000" y="102.286575" fill="rgb(0, 100, 0)" style="fill-opacity:1.00" />
<!-- End 'T' -->
<!-- Begin 'A' -->
<polygon points=" 90.000000, 107.695277, 111.000000, 105.294451, 119.000000, 105.294451, 140.000000, 107.695277, 132.500000, 107.695277, 126.250000, 107.095070, 103.750000, 107.095070, 97.500000, 107.695277" fill="rgb(178, 34, 34)" style="fill-opacity:1.00" />
<!-- End 'A' -->
<!-- Begin 'G' -->
<ellipse cx="115.000000" cy="108.475752" rx="25.000000" ry="0.780476" fill="rgb(255, 165, 0)" style="fill-opacity:1.00" />
<ellipse cx="115.000000" cy="108.475752" rx="16.666667" ry="0.520317" fill="rgb(255, 255, 255)" style="fill-opacity:1.00" />
<rect height="0.780476" width="25.000000" x="115.000000" y="108.085514" fill="rgb(255, 255, 255)" style="fill-opacity:1.00" />
<rect height="0.195119" width="25.000000" x="115.000000" y="108.670871" fill="rgb(255, 165, 0)" style="fill-opacity:1.00" />
<rect height="0.585357" width="6.250000" x="133.750000" y="108.670871" fill="rgb(255, 165, 0)" style="fill-opacity:1.00" />
<!-- End 'G' -->
<!-- Begin 'C' -->
<ellipse cx="115.000000" cy="109.628114" rx="25.000000" ry="0.371886" fill="rgb(0, 0, 128)" style="fill-opacity:1.00" />
<ellipse cx="115.000000" cy="109.628114" rx="16.666667" ry="0.247924" fill="rgb(255, 255, 255)" style="fill-opacity:1.00" />
<rect height="0.371886" width="25.000000" x="115.000000" y="109.442171" fill="rgb(255, 255, 255)" style="fill-opacity:1.00" />
<!-- End 'C' -->
<!-- Begin 'C' -->
<ellipse cx="175.000000" cy="96.724507" rx="25.000000" ry="2.808742" fill="rgb(0, 0, 128)" style="fill-opacity:1.00" />
<ellipse cx="175.000000" cy="96.724507" rx="16.666667" ry="1.872494" fill="rgb(255, 255, 255)" style="fill-opacity:1.00" />
<rect height="2.808742" width="25.000000" x="175.000000" y="95.320136" fill="rgb(255, 255, 255)" style="fill-opacity:1.00" />
<!-- End 'C' -->
<!-- Begin 'A' -->
<polygon points=" 150.000000, 105.082295, 171.000000, 99.533248, 179.000000, 99.533248, 200.000000, 105.082295, 192.500000, 105.082295, 186.250000, 103.695034, 163.750000, 103.695034, 157.500000, 105.082295" fill="rgb(178, 34, 34)" style="fill-opacity:1.00" />
<!-- End 'A' -->
<!-- Begin 'T' -->
<rect height="0.742339" width="50.000000" x="150.000000" y="105.082295" fill="rgb(0, 100, 0)" style="fill-opacity:1.00" />
<rect height="4.639618" width="10.000000" x="170.000000" y="105.082295" fill="rgb(0, 100, 0)" style="fill-opacity:1.00" />
<!-- End 'T' -->
<!-- Begin 'G' -->
<ellipse cx="175.000000" cy="109.860957" rx="25.000000" ry="0.139043" fill="rgb(255, 165, 0)" style="fill-opacity:1.00" />
<ellipse cx="175.000000" cy="109.860957" rx="16.666667" ry="0.092696" fill="rgb(255, 255, 255)" style="fill-opacity:1.00" />
<rect height="0.139043" width="25.000000" x="175.000000" y="109.791435" fill="rgb(255, 255, 255)" style="fill-opacity:1.00" />
<rect height="0.034761" width="25.000000" x="175.000000" y="109.895717" fill="rgb(255, 165, 0)" style="fill-opacity:1.00" />
<rect height="0.104283" width="6.250000" x="193.750000" y="109.895717" fill="rgb(255, 165, 0)" style="fill-opacity:1.00" />
<!-- End 'G' -->
<!-- Begin 'A' -->
<polygon points=" 210.000000, 106.589887, 231.000000, 24.426596, 239.000000, 24.426596, 260.000000, 106.589887, 252.500000, 106.589887, 246.250000, 86.049065, 223.750000, 86.049065, 217.500000, 106.589887" fill="rgb(178, 34, 34)" style="fill-opacity:1.00" />
<polygon points=" 235.000000, 40.859255, 227.000000, 72.724571, 242.000000, 72.724571" fill="rgb(255, 255, 255)" style="fill-opacity:1.00" />
<!-- End 'A' -->
<!-- Begin 'T' -->
<rect height="0.365711" width="50.000000" x="210.000000" y="106.589887" fill="rgb(0, 100, 0)" style="fill-opacity:1.00" />
<rect height="2.285697" width="10.000000" x="230.000000" y="106.589887" fill="rgb(0, 100, 0)" style="fill-opacity:1.00" />
<!-- End 'T' -->
<!-- Begin 'C' -->
<ellipse cx="235.000000" cy="109.302045" rx="25.000000" ry="0.426461" fill="rgb(0, 0, 128)" style="fill-opacity:1.00" />
<ellipse cx="235.000000" cy="109.302045" rx="16.666667" ry="0.284308" fill="rgb(255, 255, 255)" style="fill-opacity:1.00" />
<rect height="0.426461" width="25.000000" x="235.000000" y="109.088815" fill="rgb(255, 255, 255)" style="fill-opacity:1.00" />
<!-- End 'C' -->
<!-- Begin 'G' -->
<ellipse cx="235.000000" cy="109.864253" rx="25.000000" ry="0.135747" fill="rgb(255, 165, 0)" style="fill-opacity:1.00" />
<ellipse cx="235.000000" cy="109.864253" rx="16.666667" ry="0.090498" fill="rgb(255, 255, 255)" style="fill-opacity:1.00" />
<rect height="0.135747" width="25.000000" x="235.000000" y="109.796380" fill="rgb(255, 255, 255)" style="fill-opacity:1.00" />
<rect height="0.033937" width="25.000000" x="235.000000" y="109.898190" fill="rgb(255, 165, 0)" style="fill-opacity:1.00" />
<rect height="0.101810" width="6.250000" x="253.750000" y="109.898190" fill="rgb(255, 165, 0)" style="fill-opacity:1.00" />
<!-- End 'G' -->
<!-- Begin 'T' -->
<rect height="8.058748" width="50.000000" x="270.000000" y="48.458705" fill="rgb(0, 100, 0)" style="fill-opacity:1.00" />
<rect height="50.367175" width="10.000000" x="290.000000" y="48.458705" fill="rgb(0, 100, 0)" style="fill-opacity:1.00" />
<!-- End 'T' -->
<!-- Begin 'A' -->
<polygon points=" 270.000000, 109.129783, 291.000000, 98.825880, 299.000000, 98.825880, 320.000000, 109.129783, 312.500000, 109.129783, 306.250000, 106.553807, 283.750000, 106.553807, 277.500000, 109.129783" fill="rgb(178, 34, 34)" style="fill-opacity:1.00" />
<polygon points=" 295.000000, 100.886660, 287.000000, 104.008222, 302.000000, 104.008222" fill="rgb(255, 255, 255)" style="fill-opacity:1.00" />
<!-- End 'A' -->
<!-- Begin 'G' -->
<ellipse cx="295.000000" cy="109.371552" rx="25.000000" ry="0.241769" fill="rgb(255, 165, 0)" style="fill-opacity:1.00" />
<ellipse cx="295.000000" cy="109.371552" rx="16.666667" ry="0.161180" fill="rgb(255, 255, 255)" style="fill-opacity:1.00" />
<rect height="0.241769" width="25.000000" x="295.000000" y="109.250667" fill="rgb(255, 255, 255)" style="fill-opacity:1.00" />
<rect height="0.060442" width="25.000000" x="295.000000" y="109.431995" fill="rgb(255, 165, 0)" style="fill-opacity:1.00" />
<rect height="0.181327" width="6.250000" x="313.750000" y="109.431995" fill="rgb(255, 165, 0)" style="fill-opacity:1.00" />
<!-- End 'G' -->
<!-- Begin 'C' -->
<ellipse cx="295.000000" cy="109.806661" rx="25.000000" ry="0.193339" fill="rgb(0, 0, 128)" style="fill-opacity:1.00" />
<ellipse cx="295.000000" cy="109.806661" rx="16.666667" ry="0.128893" fill="rgb(255, 255, 255)" style="fill-opacity:1.00" />
<rect height="0.193339" width="25.000000" x="295.000000" y="109.709991" fill="rgb(255, 255, 255)" style="fill-opacity:1.00" />
<!-- End 'C' -->
<!-- Begin 'T' -->
<rect height="14.409397" width="50.000000" x="330.000000" y="18.085888" fill="rgb(0, 100, 0)" style="fill-opacity:1.00" />
<rect height="90.058734" width="10.000000" x="350.000000" y="18.085888" fill="rgb(0, 100, 0)" style="fill-opacity:1.00" />
<!-- End 'T' -->
<!-- Begin 'A' -->
<polygon points=" 330.000000, 109.568688, 351.000000, 108.144622, 359.000000, 108.144622, 380.000000, 109.568688, 372.500000, 109.568688, 366.250000, 109.212672, 343.750000, 109.212672, 337.500000, 109.568688" fill="rgb(178, 34, 34)" style="fill-opacity:1.00" />
<!-- End 'A' -->
<!-- Begin 'C' -->
<ellipse cx="355.000000" cy="109.739925" rx="25.000000" ry="0.171237" fill="rgb(0, 0, 128)" style="fill-opacity:1.00" />
<ellipse cx="355.000000" cy="109.739925" rx="16.666667" ry="0.114158" fill="rgb(255, 255, 255)" style="fill-opacity:1.00" />
<rect height="0.171237" width="25.000000" x="355.000000" y="109.654307" fill="rgb(255, 255, 255)" style="fill-opacity:1.00" />
<!-- End 'C' -->
<!-- Begin 'G' -->
<ellipse cx="355.000000" cy="109.955581" rx="25.000000" ry="0.044419" fill="rgb(255, 165, 0)" style="fill-opacity:1.00" />
<ellipse cx="355.000000" cy="109.955581" rx="16.666667" ry="0.029613" fill="rgb(255, 255, 255)" style="fill-opacity:1.00" />
<rect height="0.044419" width="25.000000" x="355.000000" y="109.933372" fill="rgb(255, 255, 255)" style="fill-opacity:1.00" />
<rect height="0.011105" width="25.000000" x="355.000000" y="109.966686" fill="rgb(255, 165, 0)" style="fill-opacity:1.00" />
<rect height="0.033314" width="6.250000" x="373.750000" y="109.966686" fill="rgb(255, 165, 0)" style="fill-opacity:1.00" />
<!-- End 'G' -->
<!-- Begin 'A' -->
<polygon points=" 390.000000, 93.975207, 411.000000, 58.614763, 419.000000, 58.614763, 440.000000, 93.975207, 432.500000, 93.975207, 426.250000, 85.135096, 403.750000, 85.135096, 397.500000, 93.975207" fill="rgb(178, 34, 34)" style="fill-opacity:1.00" />
<polygon points=" 415.000000, 65.686852, 407.000000, 78.831029, 422.000000, 78.831029" fill="rgb(255, 255, 255)" style="fill-opacity:1.00" />
<!-- End 'A' -->
<!-- Begin 'T' -->
<rect height="2.475094" width="50.000000" x="390.000000" y="93.975207" fill="rgb(0, 100, 0)" style="fill-opacity:1.00" />
<rect height="15.469336" width="10.000000" x="410.000000" y="93.975207" fill="rgb(0, 100, 0)" style="fill-opacity:1.00" />
<!-- End 'T' -->
<!-- Begin 'G' -->
<ellipse cx="415.000000" cy="109.644693" rx="25.000000" ry="0.200150" fill="rgb(255, 165, 0)" style="fill-opacity:1.00" />
<ellipse cx="415.000000" cy="109.644693" rx="16.666667" ry="0.133433" fill="rgb(255, 255, 255)" style="fill-opacity:1.00" />
<rect height="0.200150" width="25.000000" x="415.000000" y="109.544618" fill="rgb(255, 255, 255)" style="fill-opacity:1.00" />
<rect height="0.050037" width="25.000000" x="415.000000" y="109.694730" fill="rgb(255, 165, 0)" style="fill-opacity:1.00" />
<rect height="0.150112" width="6.250000" x="433.750000" y="109.694730" fill="rgb(255, 165, 0)" style="fill-opacity:1.00" />
<!-- End 'G' -->
<!-- Begin 'C' -->
<ellipse cx="415.000000" cy="109.922421" rx="25.000000" ry="0.077579" fill="rgb(0, 0, 128)" style="fill-opacity:1.00" />
<ellipse cx="415.000000" cy="109.922421" rx="16.666667" ry="0.051719" fill="rgb(255, 255, 255)" style="fill-opacity:1.00" />
<rect height="0.077579" width="25.000000" x="415.000000" y="109.883632" fill="rgb(255, 255, 255)" style="fill-opacity:1.00" />
<!-- End 'C' -->
<!-- Begin 'A' -->
<polygon points=" 450.000000, 108.722120, 471.000000, 16.068338, 479.000000, 16.068338, 500.000000, 108.722120, 492.500000, 108.722120, 486.250000, 85.558675, 463.750000, 85.558675, 457.500000, 108.722120" fill="rgb(178, 34, 34)" style="fill-opacity:1.00" />
<polygon points=" 475.000000, 34.599095, 467.000000, 70.660608, 482.000000, 70.660608" fill="rgb(255, 255, 255)" style="fill-opacity:1.00" />
<!-- End 'A' -->
<!-- Begin 'T' -->
<rect height="0.116301" width="50.000000" x="450.000000" y="108.722120" fill="rgb(0, 100, 0)" style="fill-opacity:1.00" />
<rect height="0.726880" width="10.000000" x="470.000000" y="108.722120" fill="rgb(0, 100, 0)" style="fill-opacity:1.00" />
<!-- End 'T' -->
<!-- Begin 'G' -->
<ellipse cx="475.000000" cy="109.672219" rx="25.000000" ry="0.223218" fill="rgb(255, 165, 0)" style="fill-opacity:1.00" />
<ellipse cx="475.000000" cy="109.672219" rx="16.666667" ry="0.148812" fill="rgb(255, 255, 255)" style="fill-opacity:1.00" />
<rect height="0.223218" width="25.000000" x="475.000000" y="109.560610" fill="rgb(255, 255, 255)" style="fill-opacity:1.00" />
<rect height="0.055805" width="25.000000" x="475.000000" y="109.728023" fill="rgb(255, 165, 0)" style="fill-opacity:1.00" />
<rect height="0.167414" width="6.250000" x="493.750000" y="109.728023" fill="rgb(255, 165, 0)" style="fill-opacity:1.00" />
<!-- End 'G' -->
<!-- Begin 'C' -->
<ellipse cx="475.000000" cy="109.947719" rx="25.000000" ry="0.052281" fill="rgb(0, 0, 128)" style="fill-opacity:1.00" />
<ellipse cx="475.000000" cy="109.947719" rx="16.666667" ry="0.034854" fill="rgb(255, 255, 255)" style="fill-opacity:1.00" />
<rect height="0.052281" width="25.000000" x="475.000000" y="109.921578" fill="rgb(255, 255, 255)" style="fill-opacity:1.00" />
<!-- End 'C' -->
<!-- Begin 'T' -->
<rect height="4.857577" width="50.000000" x="510.000000" y="62.179118" fill="rgb(0, 100, 0)" style="fill-opacity:1.00" />
<rect height="30.359858" width="10.000000" x="530.000000" y="62.179118" fill="rgb(0, 100, 0)" style="fill-opacity:1.00" />
<!-- End 'T' -->
<!-- Begin 'A' -->
<polygon points=" 510.000000, 109.307902, 531.000000, 92.538976, 539.000000, 92.538976, 560.000000, 109.307902, 552.500000, 109.307902, 546.250000, 105.115670, 523.750000, 105.115670, 517.500000, 109.307902" fill="rgb(178, 34, 34)" style="fill-opacity:1.00" />
<polygon points=" 535.000000, 95.892761, 527.000000, 101.600332, 542.000000, 101.600332" fill="rgb(255, 255, 255)" style="fill-opacity:1.00" />
<!-- End 'A' -->
<!-- Begin 'C' -->
<ellipse cx="535.000000" cy="109.601719" rx="25.000000" ry="0.293817" fill="rgb(0, 0, 128)" style="fill-opacity:1.00" />
<ellipse cx="535.000000" cy="109.601719" rx="16.666667" ry="0.195878" fill="rgb(255, 255, 255)" style="fill-opacity:1.00" />
<rect height="0.293817" width="25.000000" x="535.000000" y="109.454810" fill="rgb(255, 255, 255)" style="fill-opacity:1.00" />
<!-- End 'C' -->
<!-- Begin 'G' -->
<ellipse cx="535.000000" cy="109.947768" rx="25.000000" ry="0.052232" fill="rgb(255, 165, 0)" style="fill-opacity:1.00" />
<ellipse cx="535.000000" cy="109.947768" rx="16.666667" ry="0.034821" fill="rgb(255, 255, 255)" style="fill-opacity:1.00" />
<rect height="0.052232" width="25.000000" x="535.000000" y="109.921652" fill="rgb(255, 255, 255)" style="fill-opacity:1.00" />
<rect height="0.013058" width="25.000000" x="535.000000" y="109.960826" fill="rgb(255, 165, 0)" style="fill-opacity:1.00" />
<rect height="0.039174" width="6.250000" x="553.750000" y="109.960826" fill="rgb(255, 165, 0)" style="fill-opacity:1.00" />
<!-- End 'G' -->
<!-- Begin 'T' -->
<rect height="4.223955" width="50.000000" x="570.000000" y="71.998129" fill="rgb(0, 100, 0)" style="fill-opacity:1.00" />
<rect height="26.399716" width="10.000000" x="590.000000" y="71.998129" fill="rgb(0, 100, 0)" style="fill-opacity:1.00" />
<!-- End 'T' -->
<!-- Begin 'G' -->
<ellipse cx="595.000000" cy="101.796756" rx="25.000000" ry="3.398910" fill="rgb(255, 165, 0)" style="fill-opacity:1.00" />
<ellipse cx="595.000000" cy="101.796756" rx="16.666667" ry="2.265940" fill="rgb(255, 255, 255)" style="fill-opacity:1.00" />
<rect height="3.398910" width="25.000000" x="595.000000" y="100.097300" fill="rgb(255, 255, 255)" style="fill-opacity:1.00" />
<rect height="0.849728" width="25.000000" x="595.000000" y="102.646483" fill="rgb(255, 165, 0)" style="fill-opacity:1.00" />
<rect height="2.549183" width="6.250000" x="613.750000" y="102.646483" fill="rgb(255, 165, 0)" style="fill-opacity:1.00" />
<!-- End 'G' -->
<!-- Begin 'A' -->
<polygon points=" 570.000000, 109.586397, 591.000000, 105.195666, 599.000000, 105.195666, 620.000000, 109.586397, 612.500000, 109.586397, 606.250000, 108.488714, 583.750000, 108.488714, 577.500000, 109.586397" fill="rgb(178, 34, 34)" style="fill-opacity:1.00" />
<!-- End 'A' -->
<!-- Begin 'C' -->
<ellipse cx="595.000000" cy="109.793198" rx="25.000000" ry="0.206802" fill="rgb(0, 0, 128)" style="fill-opacity:1.00" />
<ellipse cx="595.000000" cy="109.793198" rx="16.666667" ry="0.137868" fill="rgb(255, 255, 255)" style="fill-opacity:1.00" />
<rect height="0.206802" width="25.000000" x="595.000000" y="109.689798" fill="rgb(255, 255, 255)" style="fill-opacity:1.00" />
<!-- End 'C' -->
<!-- Begin 'A' -->
<polygon points=" 630.000000, 103.762941, 651.000000, 98.451365, 659.000000, 98.451365, 680.000000, 103.762941, 672.500000, 103.762941, 666.250000, 102.435047, 643.750000, 102.435047, 637.500000, 103.762941" fill="rgb(178, 34, 34)" style="fill-opacity:1.00" />
<!-- End 'A' -->
<!-- Begin 'G' -->
<ellipse cx="655.000000" cy="105.176737" rx="25.000000" ry="1.413796" fill="rgb(255, 165, 0)" style="fill-opacity:1.00" />
<ellipse cx="655.000000" cy="105.176737" rx="16.666667" ry="0.942530" fill="rgb(255, 255, 255)" style="fill-opacity:1.00" />
<rect height="1.413796" width="25.000000" x="655.000000" y="104.469839" fill="rgb(255, 255, 255)" style="fill-opacity:1.00" />
<rect height="0.353449" width="25.000000" x="655.000000" y="105.530186" fill="rgb(255, 165, 0)" style="fill-opacity:1.00" />
<rect height="1.060347" width="6.250000" x="673.750000" y="105.530186" fill="rgb(255, 165, 0)" style="fill-opacity:1.00" />
<!-- End 'G' -->
<!-- Begin 'T' -->
<rect height="0.412036" width="50.000000" x="630.000000" y="106.590532" fill="rgb(0, 100, 0)" style="fill-opacity:1.00" />
<rect height="2.575224" width="10.000000" x="650.000000" y="106.590532" fill="rgb(0, 100, 0)" style="fill-opacity:1.00" />
<!-- End 'T' -->
<!-- Begin 'C' -->
<ellipse cx="655.000000" cy="109.582878" rx="25.000000" ry="0.417122" fill="rgb(0, 0, 128)" style="fill-opacity:1.00" />
<ellipse cx="655.000000" cy="109.582878" rx="16.666667" ry="0.278081" fill="rgb(255, 255, 255)" style="fill-opacity:1.00" />
<rect height="0.417122" width="25.000000" x="655.000000" y="109.374317" fill="rgb(255, 255, 255)" style="fill-opacity:1.00" />
<!-- End 'C' -->
<!-- Begin 'T' -->
<rect height="0.336854" width="50.000000" x="690.000000" y="104.279146" fill="rgb(0, 100, 0)" style="fill-opacity:1.00" />
<rect height="2.105339" width="10.000000" x="710.000000" y="104.279146" fill="rgb(0, 100, 0)" style="fill-opacity:1.00" />
<!-- End 'T' -->
<!-- Begin 'A' -->
<polygon points=" 690.000000, 108.033224, 711.000000, 106.384485, 719.000000, 106.384485, 740.000000, 108.033224, 732.500000, 108.033224, 726.250000, 107.621039, 703.750000, 107.621039, 697.500000, 108.033224" fill="rgb(178, 34, 34)" style="fill-opacity:1.00" />
<!-- End 'A' -->
<!-- Begin 'C' -->
<ellipse cx="715.000000" cy="108.709444" rx="25.000000" ry="0.676220" fill="rgb(0, 0, 128)" style="fill-opacity:1.00" />
<ellipse cx="715.000000" cy="108.709444" rx="16.666667" ry="0.450814" fill="rgb(255, 255, 255)" style="fill-opacity:1.00" />
<rect height="0.676220" width="25.000000" x="715.000000" y="108.371334" fill="rgb(255, 255, 255)" style="fill-opacity:1.00" />
<!-- End 'C' -->
<!-- Begin 'G' -->
<ellipse cx="715.000000" cy="109.692832" rx="25.000000" ry="0.307168" fill="rgb(255, 165, 0)" style="fill-opacity:1.00" />
<ellipse cx="715.000000" cy="109.692832" rx="16.666667" ry="0.204778" fill="rgb(255, 255, 255)" style="fill-opacity:1.00" />
<rect height="0.307168" width="25.000000" x="715.000000" y="109.539248" fill="rgb(255, 255, 255)" style="fill-opacity:1.00" />
<rect height="0.076792" width="25.000000" x="715.000000" y="109.769624" fill="rgb(255, 165, 0)" style="fill-opacity:1.00" />
<rect height="0.230376" width="6.250000" x="733.750000" y="109.769624" fill="rgb(255, 165, 0)" style="fill-opacity:1.00" />
<!-- End 'G' -->
<text x="400.000000" y="165">
IC = 10.22
</text>

</svg>
