<?xml version="1.0" encoding="UTF-8" standalone="yes"?>
                 <!DOCTYPE svg PUBLIC "-//W3C//DTD SVG 1.0//EN" "http://www.w3.org/TR/2001/REC-SVG-20010904/DTD/svg10.dtd">
                 <svg height="170" width="600" xmlns="http://www.w3.org/2000/svg" xmlns:xlink="http://www.w3.org/1999/xlink">
                 <line x1="85" y1="120" x2="567" y2="120" style="stroke:rgb(99,99,99);stroke-width:2" />
<rect height="7.000000" width="2.000000" x="85.000000" y="120.000000" fill="rgb(0, 0, 0)" style="fill-opacity:1.00" />
<text x="107.000000" y="140">
1
</text>
<rect height="7.000000" width="2.000000" x="145.000000" y="120.000000" fill="rgb(0, 0, 0)" style="fill-opacity:1.00" />
<text x="167.000000" y="140">
2
</text>
<rect height="7.000000" width="2.000000" x="205.000000" y="120.000000" fill="rgb(0, 0, 0)" style="fill-opacity:1.00" />
<text x="227.000000" y="140">
3
</text>
<rect height="7.000000" width="2.000000" x="265.000000" y="120.000000" fill="rgb(0, 0, 0)" style="fill-opacity:1.00" />
<text x="287.000000" y="140">
4
</text>
<rect height="7.000000" width="2.000000" x="325.000000" y="120.000000" fill="rgb(0, 0, 0)" style="fill-opacity:1.00" />
<text x="347.000000" y="140">
5
</text>
<rect height="7.000000" width="2.000000" x="385.000000" y="120.000000" fill="rgb(0, 0, 0)" style="fill-opacity:1.00" />
<text x="407.000000" y="140">
6
</text>
<rect height="7.000000" width="2.000000" x="445.000000" y="120.000000" fill="rgb(0, 0, 0)" style="fill-opacity:1.00" />
<text x="467.000000" y="140">
7
</text>
<rect height="7.000000" width="2.000000" x="505.000000" y="120.000000" fill="rgb(0, 0, 0)" style="fill-opacity:1.00" />
<text x="527.000000" y="140">
8
</text>
<rect height="7.000000" width="2.000000" x="565.000000" y="120.000000" fill="rgb(0, 0, 0)" style="fill-opacity:1.00" />
<line x1="80" y1="112" x2="80" y2="10" style="stroke:rgb(99,99,99);stroke-width:2" />
<rect height="2.000000" width="7.000000" x="73.000000" y="110.000000" fill="rgb(0, 0, 0)" style="fill-opacity:1.00" />
<text x="63" y="115">
0
</text>
<rect height="2.000000" width="7.000000" x="73.000000" y="60.000000" fill="rgb(0, 0, 0)" style="fill-opacity:1.00" />
<text x="63" y="65">
1
</text>
<rect height="2.000000" width="7.000000" x="73.000000" y="10.000000" fill="rgb(0, 0, 0)" style="fill-opacity:1.00" />
<text x="63" y="15">
2
</text>
<text x="50" y="65"
transform="rotate(-90, 50, 70)">
bits
</text>
<!-- Begin 'G' -->
<ellipse cx="115.000000" cy="105.974400" rx="25.000000" ry="1.073288" fill="rgb(255, 165, 0)" style="fill-opacity:1.00" />
<ellipse cx="115.000000" cy="105.974400" rx="16.666667" ry="0.715525" fill="rgb(255, 255, 255)" style="fill-opacity:1.00" />
<rect height="1.073288" width="25.000000" x="115.000000" y="105.437756" fill="rgb(255, 255, 255)" style="fill-opacity:1.00" />
<rect height="0.268322" width="25.000000" x="115.000000" y="106.242722" fill="rgb(255, 165, 0)" style="fill-opacity:1.00" />
<rect height="0.804966" width="6.250000" x="133.750000" y="106.242722" fill="rgb(255, 165, 0)" style="fill-opacity:1.00" />
<!-- End 'G' -->
<!-- Begin 'A' -->
<polygon points=" 90.000000, 108.116843, 111.000000, 107.047688, 119.000000, 107.047688, 140.000000, 108.116843, 132.500000, 108.116843, 126.250000, 107.849554, 103.750000, 107.849554, 97.500000, 108.116843" fill="rgb(178, 34, 34)" style="fill-opacity:1.00" />
<!-- End 'A' -->
<!-- Begin 'T' -->
<rect height="0.152937" width="50.000000" x="90.000000" y="108.116843" fill="rgb(0, 100, 0)" style="fill-opacity:1.00" />
<rect height="0.955855" width="10.000000" x="110.000000" y="108.116843" fill="rgb(0, 100, 0)" style="fill-opacity:1.00" />
<!-- End 'T' -->
<!-- Begin 'C' -->
<ellipse cx="115.000000" cy="109.536349" rx="25.000000" ry="0.463651" fill="rgb(0, 0, 128)" style="fill-opacity:1.00" />
<ellipse cx="115.000000" cy="109.536349" rx="16.666667" ry="0.309101" fill="rgb(255, 255, 255)" style="fill-opacity:1.00" />
<rect height="0.463651" width="25.000000" x="115.000000" y="109.304523" fill="rgb(255, 255, 255)" style="fill-opacity:1.00" />
<!-- End 'C' -->
<!-- Begin 'A' -->
<polygon points=" 150.000000, 98.417814, 171.000000, 90.031868, 179.000000, 90.031868, 200.000000, 98.417814, 192.500000, 98.417814, 186.250000, 96.321327, 163.750000, 96.321327, 157.500000, 98.417814" fill="rgb(178, 34, 34)" style="fill-opacity:1.00" />
<polygon points=" 175.000000, 91.709057, 167.000000, 94.063435, 182.000000, 94.063435" fill="rgb(255, 255, 255)" style="fill-opacity:1.00" />
<!-- End 'A' -->
<!-- Begin 'G' -->
<ellipse cx="175.000000" cy="102.112749" rx="25.000000" ry="3.694935" fill="rgb(255, 165, 0)" style="fill-opacity:1.00" />
<ellipse cx="175.000000" cy="102.112749" rx="16.666667" ry="2.463290" fill="rgb(255, 255, 255)" style="fill-opacity:1.00" />
<rect height="3.694935" width="25.000000" x="175.000000" y="100.265281" fill="rgb(255, 255, 255)" style="fill-opacity:1.00" />
<rect height="0.923734" width="25.000000" x="175.000000" y="103.036483" fill="rgb(255, 165, 0)" style="fill-opacity:1.00" />
<rect height="2.771201" width="6.250000" x="193.750000" y="103.036483" fill="rgb(255, 165, 0)" style="fill-opacity:1.00" />
<!-- End 'G' -->
<!-- Begin 'C' -->
<ellipse cx="175.000000" cy="107.771143" rx="25.000000" ry="1.963459" fill="rgb(0, 0, 128)" style="fill-opacity:1.00" />
<ellipse cx="175.000000" cy="107.771143" rx="16.666667" ry="1.308973" fill="rgb(255, 255, 255)" style="fill-opacity:1.00" />
<rect height="1.963459" width="25.000000" x="175.000000" y="106.789414" fill="rgb(255, 255, 255)" style="fill-opacity:1.00" />
<!-- End 'C' -->
<!-- Begin 'T' -->
<rect height="0.042464" width="50.000000" x="150.000000" y="109.734603" fill="rgb(0, 100, 0)" style="fill-opacity:1.00" />
<rect height="0.265397" width="10.000000" x="170.000000" y="109.734603" fill="rgb(0, 100, 0)" style="fill-opacity:1.00" />
<!-- End 'T' -->
<!-- Begin 'T' -->
<rect height="15.728559" width="50.000000" x="210.000000" y="11.450379" fill="rgb(0, 100, 0)" style="fill-opacity:1.00" />
<rect height="98.303493" width="10.000000" x="230.000000" y="11.450379" fill="rgb(0, 100, 0)" style="fill-opacity:1.00" />
<!-- End 'T' -->
<!-- Begin 'G' -->
<ellipse cx="235.000000" cy="109.808440" rx="25.000000" ry="0.054568" fill="rgb(255, 165, 0)" style="fill-opacity:1.00" />
<ellipse cx="235.000000" cy="109.808440" rx="16.666667" ry="0.036379" fill="rgb(255, 255, 255)" style="fill-opacity:1.00" />
<rect height="0.054568" width="25.000000" x="235.000000" y="109.781156" fill="rgb(255, 255, 255)" style="fill-opacity:1.00" />
<rect height="0.013642" width="25.000000" x="235.000000" y="109.822082" fill="rgb(255, 165, 0)" style="fill-opacity:1.00" />
<rect height="0.040926" width="6.250000" x="253.750000" y="109.822082" fill="rgb(255, 165, 0)" style="fill-opacity:1.00" />
<!-- End 'G' -->
<!-- Begin 'A' -->
<polygon points=" 210.000000, 109.946306, 231.000000, 109.863009, 239.000000, 109.863009, 260.000000, 109.946306, 252.500000, 109.946306, 246.250000, 109.925482, 223.750000, 109.925482, 217.500000, 109.946306" fill="rgb(178, 34, 34)" style="fill-opacity:1.00" />
<!-- End 'A' -->
<!-- Begin 'C' -->
<ellipse cx="235.000000" cy="109.973153" rx="25.000000" ry="0.026847" fill="rgb(0, 0, 128)" style="fill-opacity:1.00" />
<ellipse cx="235.000000" cy="109.973153" rx="16.666667" ry="0.017898" fill="rgb(255, 255, 255)" style="fill-opacity:1.00" />
<rect height="0.026847" width="25.000000" x="235.000000" y="109.959730" fill="rgb(255, 255, 255)" style="fill-opacity:1.00" />
<!-- End 'C' -->
<!-- Begin 'G' -->
<ellipse cx="295.000000" cy="69.902945" rx="25.000000" ry="33.666065" fill="rgb(255, 165, 0)" style="fill-opacity:1.00" />
<ellipse cx="295.000000" cy="69.902945" rx="16.666667" ry="22.444044" fill="rgb(255, 255, 255)" style="fill-opacity:1.00" />
<rect height="33.666065" width="25.000000" x="295.000000" y="53.069912" fill="rgb(255, 255, 255)" style="fill-opacity:1.00" />
<rect height="8.416516" width="25.000000" x="295.000000" y="78.319461" fill="rgb(255, 165, 0)" style="fill-opacity:1.00" />
<rect height="25.249549" width="6.250000" x="313.750000" y="78.319461" fill="rgb(255, 165, 0)" style="fill-opacity:1.00" />
<!-- End 'G' -->
<!-- Begin 'T' -->
<rect height="0.682163" width="50.000000" x="270.000000" y="103.569010" fill="rgb(0, 100, 0)" style="fill-opacity:1.00" />
<rect height="4.263519" width="10.000000" x="290.000000" y="103.569010" fill="rgb(0, 100, 0)" style="fill-opacity:1.00" />
<!-- End 'T' -->
<!-- Begin 'C' -->
<ellipse cx="295.000000" cy="108.761862" rx="25.000000" ry="0.929332" fill="rgb(0, 0, 128)" style="fill-opacity:1.00" />
<ellipse cx="295.000000" cy="108.761862" rx="16.666667" ry="0.619555" fill="rgb(255, 255, 255)" style="fill-opacity:1.00" />
<rect height="0.929332" width="25.000000" x="295.000000" y="108.297196" fill="rgb(255, 255, 255)" style="fill-opacity:1.00" />
<!-- End 'C' -->
<!-- Begin 'A' -->
<polygon points=" 270.000000, 110.000000, 291.000000, 109.691194, 299.000000, 109.691194, 320.000000, 110.000000, 312.500000, 110.000000, 306.250000, 109.922799, 283.750000, 109.922799, 277.500000, 110.000000" fill="rgb(178, 34, 34)" style="fill-opacity:1.00" />
<!-- End 'A' -->
<!-- Begin 'A' -->
<polygon points=" 330.000000, 109.194918, 351.000000, 13.943197, 359.000000, 13.943197, 380.000000, 109.194918, 372.500000, 109.194918, 366.250000, 85.381987, 343.750000, 85.381987, 337.500000, 109.194918" fill="rgb(178, 34, 34)" style="fill-opacity:1.00" />
<polygon points=" 355.000000, 32.993541, 347.000000, 70.094229, 362.000000, 70.094229" fill="rgb(255, 255, 255)" style="fill-opacity:1.00" />
<!-- End 'A' -->
<!-- Begin 'G' -->
<ellipse cx="355.000000" cy="109.429017" rx="25.000000" ry="0.234100" fill="rgb(255, 165, 0)" style="fill-opacity:1.00" />
<ellipse cx="355.000000" cy="109.429017" rx="16.666667" ry="0.156066" fill="rgb(255, 255, 255)" style="fill-opacity:1.00" />
<rect height="0.234100" width="25.000000" x="355.000000" y="109.311967" fill="rgb(255, 255, 255)" style="fill-opacity:1.00" />
<rect height="0.058525" width="25.000000" x="355.000000" y="109.487542" fill="rgb(255, 165, 0)" style="fill-opacity:1.00" />
<rect height="0.175575" width="6.250000" x="373.750000" y="109.487542" fill="rgb(255, 165, 0)" style="fill-opacity:1.00" />
<!-- End 'G' -->
<!-- Begin 'T' -->
<rect height="0.051962" width="50.000000" x="330.000000" y="109.663117" fill="rgb(0, 100, 0)" style="fill-opacity:1.00" />
<rect height="0.324764" width="10.000000" x="350.000000" y="109.663117" fill="rgb(0, 100, 0)" style="fill-opacity:1.00" />
<!-- End 'T' -->
<!-- Begin 'C' -->
<ellipse cx="355.000000" cy="109.993940" rx="25.000000" ry="0.006060" fill="rgb(0, 0, 128)" style="fill-opacity:1.00" />
<ellipse cx="355.000000" cy="109.993940" rx="16.666667" ry="0.004040" fill="rgb(255, 255, 255)" style="fill-opacity:1.00" />
<rect height="0.006060" width="25.000000" x="355.000000" y="109.990911" fill="rgb(255, 255, 255)" style="fill-opacity:1.00" />
<!-- End 'C' -->
<!-- Begin 'C' -->
<ellipse cx="415.000000" cy="91.592447" rx="25.000000" ry="6.865743" fill="rgb(0, 0, 128)" style="fill-opacity:1.00" />
<ellipse cx="415.000000" cy="91.592447" rx="16.666667" ry="4.577162" fill="rgb(255, 255, 255)" style="fill-opacity:1.00" />
<rect height="6.865743" width="25.000000" x="415.000000" y="88.159575" fill="rgb(255, 255, 255)" style="fill-opacity:1.00" />
<!-- End 'C' -->
<!-- Begin 'G' -->
<ellipse cx="415.000000" cy="102.408660" rx="25.000000" ry="3.950471" fill="rgb(255, 165, 0)" style="fill-opacity:1.00" />
<ellipse cx="415.000000" cy="102.408660" rx="16.666667" ry="2.633647" fill="rgb(255, 255, 255)" style="fill-opacity:1.00" />
<rect height="3.950471" width="25.000000" x="415.000000" y="100.433425" fill="rgb(255, 255, 255)" style="fill-opacity:1.00" />
<rect height="0.987618" width="25.000000" x="415.000000" y="103.396278" fill="rgb(255, 165, 0)" style="fill-opacity:1.00" />
<rect height="2.962853" width="6.250000" x="433.750000" y="103.396278" fill="rgb(255, 165, 0)" style="fill-opacity:1.00" />
<!-- End 'G' -->
<!-- Begin 'T' -->
<rect height="0.492909" width="50.000000" x="390.000000" y="106.359131" fill="rgb(0, 100, 0)" style="fill-opacity:1.00" />
<rect height="3.080680" width="10.000000" x="410.000000" y="106.359131" fill="rgb(0, 100, 0)" style="fill-opacity:1.00" />
<!-- End 'T' -->
<!-- Begin 'A' -->
<polygon points=" 390.000000, 110.000000, 411.000000, 109.439811, 419.000000, 109.439811, 440.000000, 110.000000, 432.500000, 110.000000, 426.250000, 109.859953, 403.750000, 109.859953, 397.500000, 110.000000" fill="rgb(178, 34, 34)" style="fill-opacity:1.00" />
<!-- End 'A' -->
<!-- Begin 'T' -->
<rect height="2.652741" width="50.000000" x="450.000000" y="82.966544" fill="rgb(0, 100, 0)" style="fill-opacity:1.00" />
<rect height="16.579629" width="10.000000" x="470.000000" y="82.966544" fill="rgb(0, 100, 0)" style="fill-opacity:1.00" />
<!-- End 'T' -->
<!-- Begin 'G' -->
<ellipse cx="475.000000" cy="102.698684" rx="25.000000" ry="3.152510" fill="rgb(255, 165, 0)" style="fill-opacity:1.00" />
<ellipse cx="475.000000" cy="102.698684" rx="16.666667" ry="2.101674" fill="rgb(255, 255, 255)" style="fill-opacity:1.00" />
<rect height="3.152510" width="25.000000" x="475.000000" y="101.122429" fill="rgb(255, 255, 255)" style="fill-opacity:1.00" />
<rect height="0.788128" width="25.000000" x="475.000000" y="103.486811" fill="rgb(255, 165, 0)" style="fill-opacity:1.00" />
<rect height="2.364383" width="6.250000" x="493.750000" y="103.486811" fill="rgb(255, 165, 0)" style="fill-opacity:1.00" />
<!-- End 'G' -->
<!-- Begin 'A' -->
<polygon points=" 450.000000, 109.005370, 471.000000, 105.851194, 479.000000, 105.851194, 500.000000, 109.005370, 492.500000, 109.005370, 486.250000, 108.216826, 463.750000, 108.216826, 457.500000, 109.005370" fill="rgb(178, 34, 34)" style="fill-opacity:1.00" />
<!-- End 'A' -->
<!-- Begin 'C' -->
<ellipse cx="475.000000" cy="109.502685" rx="25.000000" ry="0.497315" fill="rgb(0, 0, 128)" style="fill-opacity:1.00" />
<ellipse cx="475.000000" cy="109.502685" rx="16.666667" ry="0.331543" fill="rgb(255, 255, 255)" style="fill-opacity:1.00" />
<rect height="0.497315" width="25.000000" x="475.000000" y="109.254028" fill="rgb(255, 255, 255)" style="fill-opacity:1.00" />
<!-- End 'C' -->
<!-- Begin 'C' -->
<ellipse cx="535.000000" cy="90.356606" rx="25.000000" ry="9.131372" fill="rgb(0, 0, 128)" style="fill-opacity:1.00" />
<ellipse cx="535.000000" cy="90.356606" rx="16.666667" ry="6.087581" fill="rgb(255, 255, 255)" style="fill-opacity:1.00" />
<rect height="9.131372" width="25.000000" x="535.000000" y="85.790921" fill="rgb(255, 255, 255)" style="fill-opacity:1.00" />
<!-- End 'C' -->
<!-- Begin 'T' -->
<rect height="1.072369" width="50.000000" x="510.000000" y="99.487978" fill="rgb(0, 100, 0)" style="fill-opacity:1.00" />
<rect height="6.702305" width="10.000000" x="530.000000" y="99.487978" fill="rgb(0, 100, 0)" style="fill-opacity:1.00" />
<!-- End 'T' -->
<!-- Begin 'G' -->
<ellipse cx="535.000000" cy="107.153451" rx="25.000000" ry="0.963167" fill="rgb(255, 165, 0)" style="fill-opacity:1.00" />
<ellipse cx="535.000000" cy="107.153451" rx="16.666667" ry="0.642111" fill="rgb(255, 255, 255)" style="fill-opacity:1.00" />
<rect height="0.963167" width="25.000000" x="535.000000" y="106.671867" fill="rgb(255, 255, 255)" style="fill-opacity:1.00" />
<rect height="0.240792" width="25.000000" x="535.000000" y="107.394242" fill="rgb(255, 165, 0)" style="fill-opacity:1.00" />
<rect height="0.722375" width="6.250000" x="553.750000" y="107.394242" fill="rgb(255, 165, 0)" style="fill-opacity:1.00" />
<!-- End 'G' -->
<!-- Begin 'A' -->
<polygon points=" 510.000000, 110.000000, 531.000000, 108.116618, 539.000000, 108.116618, 560.000000, 110.000000, 552.500000, 110.000000, 546.250000, 109.529154, 523.750000, 109.529154, 517.500000, 110.000000" fill="rgb(178, 34, 34)" style="fill-opacity:1.00" />
<!-- End 'A' -->
<text x="310.000000" y="165">
IC = 7.49
</text>

</svg>
