<?xml version="1.0" encoding="UTF-8" standalone="yes"?>
                 <!DOCTYPE svg PUBLIC "-//W3C//DTD SVG 1.0//EN" "http://www.w3.org/TR/2001/REC-SVG-20010904/DTD/svg10.dtd">
                 <svg height="170" width="900" xmlns="http://www.w3.org/2000/svg" xmlns:xlink="http://www.w3.org/1999/xlink">
                 <line x1="85" y1="120" x2="867" y2="120" style="stroke:rgb(99,99,99);stroke-width:2" />
<rect height="7.000000" width="2.000000" x="85.000000" y="120.000000" fill="rgb(0, 0, 0)" style="fill-opacity:1.00" />
<text x="107.000000" y="140">
1
</text>
<rect height="7.000000" width="2.000000" x="145.000000" y="120.000000" fill="rgb(0, 0, 0)" style="fill-opacity:1.00" />
<text x="167.000000" y="140">
2
</text>
<rect height="7.000000" width="2.000000" x="205.000000" y="120.000000" fill="rgb(0, 0, 0)" style="fill-opacity:1.00" />
<text x="227.000000" y="140">
3
</text>
<rect height="7.000000" width="2.000000" x="265.000000" y="120.000000" fill="rgb(0, 0, 0)" style="fill-opacity:1.00" />
<text x="287.000000" y="140">
4
</text>
<rect height="7.000000" width="2.000000" x="325.000000" y="120.000000" fill="rgb(0, 0, 0)" style="fill-opacity:1.00" />
<text x="347.000000" y="140">
5
</text>
<rect height="7.000000" width="2.000000" x="385.000000" y="120.000000" fill="rgb(0, 0, 0)" style="fill-opacity:1.00" />
<text x="407.000000" y="140">
6
</text>
<rect height="7.000000" width="2.000000" x="445.000000" y="120.000000" fill="rgb(0, 0, 0)" style="fill-opacity:1.00" />
<text x="467.000000" y="140">
7
</text>
<rect height="7.000000" width="2.000000" x="505.000000" y="120.000000" fill="rgb(0, 0, 0)" style="fill-opacity:1.00" />
<text x="527.000000" y="140">
8
</text>
<rect height="7.000000" width="2.000000" x="565.000000" y="120.000000" fill="rgb(0, 0, 0)" style="fill-opacity:1.00" />
<text x="587.000000" y="140">
9
</text>
<rect height="7.000000" width="2.000000" x="625.000000" y="120.000000" fill="rgb(0, 0, 0)" style="fill-opacity:1.00" />
<text x="647.000000" y="140">
10
</text>
<rect height="7.000000" width="2.000000" x="685.000000" y="120.000000" fill="rgb(0, 0, 0)" style="fill-opacity:1.00" />
<text x="707.000000" y="140">
11
</text>
<rect height="7.000000" width="2.000000" x="745.000000" y="120.000000" fill="rgb(0, 0, 0)" style="fill-opacity:1.00" />
<text x="767.000000" y="140">
12
</text>
<rect height="7.000000" width="2.000000" x="805.000000" y="120.000000" fill="rgb(0, 0, 0)" style="fill-opacity:1.00" />
<text x="827.000000" y="140">
13
</text>
<rect height="7.000000" width="2.000000" x="865.000000" y="120.000000" fill="rgb(0, 0, 0)" style="fill-opacity:1.00" />
<line x1="80" y1="112" x2="80" y2="10" style="stroke:rgb(99,99,99);stroke-width:2" />
<rect height="2.000000" width="7.000000" x="73.000000" y="110.000000" fill="rgb(0, 0, 0)" style="fill-opacity:1.00" />
<text x="63" y="115">
0
</text>
<rect height="2.000000" width="7.000000" x="73.000000" y="60.000000" fill="rgb(0, 0, 0)" style="fill-opacity:1.00" />
<text x="63" y="65">
1
</text>
<rect height="2.000000" width="7.000000" x="73.000000" y="10.000000" fill="rgb(0, 0, 0)" style="fill-opacity:1.00" />
<text x="63" y="15">
2
</text>
<text x="50" y="65"
transform="rotate(-90, 50, 70)">
bits
</text>
<!-- Begin 'A' -->
<polygon points=" 90.000000, 108.479366, 111.000000, 107.641983, 119.000000, 107.641983, 140.000000, 108.479366, 132.500000, 108.479366, 126.250000, 108.270020, 103.750000, 108.270020, 97.500000, 108.479366" fill="rgb(178, 34, 34)" style="fill-opacity:1.00" />
<!-- End 'A' -->
<!-- Begin 'T' -->
<rect height="0.093982" width="50.000000" x="90.000000" y="108.479366" fill="rgb(0, 100, 0)" style="fill-opacity:1.00" />
<rect height="0.587389" width="10.000000" x="110.000000" y="108.479366" fill="rgb(0, 100, 0)" style="fill-opacity:1.00" />
<!-- End 'T' -->
<!-- Begin 'G' -->
<ellipse cx="115.000000" cy="109.320052" rx="25.000000" ry="0.253296" fill="rgb(255, 165, 0)" style="fill-opacity:1.00" />
<ellipse cx="115.000000" cy="109.320052" rx="16.666667" ry="0.168864" fill="rgb(255, 255, 255)" style="fill-opacity:1.00" />
<rect height="0.253296" width="25.000000" x="115.000000" y="109.193404" fill="rgb(255, 255, 255)" style="fill-opacity:1.00" />
<rect height="0.063324" width="25.000000" x="115.000000" y="109.383376" fill="rgb(255, 165, 0)" style="fill-opacity:1.00" />
<rect height="0.189972" width="6.250000" x="133.750000" y="109.383376" fill="rgb(255, 165, 0)" style="fill-opacity:1.00" />
<!-- End 'G' -->
<!-- Begin 'C' -->
<ellipse cx="115.000000" cy="109.786674" rx="25.000000" ry="0.213326" fill="rgb(0, 0, 128)" style="fill-opacity:1.00" />
<ellipse cx="115.000000" cy="109.786674" rx="16.666667" ry="0.142217" fill="rgb(255, 255, 255)" style="fill-opacity:1.00" />
<rect height="0.213326" width="25.000000" x="115.000000" y="109.680011" fill="rgb(255, 255, 255)" style="fill-opacity:1.00" />
<!-- End 'C' -->
<!-- Begin 'G' -->
<ellipse cx="175.000000" cy="83.858486" rx="25.000000" ry="15.759061" fill="rgb(255, 165, 0)" style="fill-opacity:1.00" />
<ellipse cx="175.000000" cy="83.858486" rx="16.666667" ry="10.506041" fill="rgb(255, 255, 255)" style="fill-opacity:1.00" />
<rect height="15.759061" width="25.000000" x="175.000000" y="75.978956" fill="rgb(255, 255, 255)" style="fill-opacity:1.00" />
<rect height="3.939765" width="25.000000" x="175.000000" y="87.798251" fill="rgb(255, 165, 0)" style="fill-opacity:1.00" />
<rect height="11.819296" width="6.250000" x="193.750000" y="87.798251" fill="rgb(255, 165, 0)" style="fill-opacity:1.00" />
<!-- End 'G' -->
<!-- Begin 'T' -->
<rect height="0.831718" width="50.000000" x="150.000000" y="99.617547" fill="rgb(0, 100, 0)" style="fill-opacity:1.00" />
<rect height="5.198237" width="10.000000" x="170.000000" y="99.617547" fill="rgb(0, 100, 0)" style="fill-opacity:1.00" />
<!-- End 'T' -->
<!-- Begin 'A' -->
<polygon points=" 150.000000, 108.529609, 171.000000, 104.815784, 179.000000, 104.815784, 200.000000, 108.529609, 192.500000, 108.529609, 186.250000, 107.601153, 163.750000, 107.601153, 157.500000, 108.529609" fill="rgb(178, 34, 34)" style="fill-opacity:1.00" />
<!-- End 'A' -->
<!-- Begin 'C' -->
<ellipse cx="175.000000" cy="109.264804" rx="25.000000" ry="0.735196" fill="rgb(0, 0, 128)" style="fill-opacity:1.00" />
<ellipse cx="175.000000" cy="109.264804" rx="16.666667" ry="0.490130" fill="rgb(255, 255, 255)" style="fill-opacity:1.00" />
<rect height="0.735196" width="25.000000" x="175.000000" y="108.897207" fill="rgb(255, 255, 255)" style="fill-opacity:1.00" />
<!-- End 'C' -->
<!-- Begin 'G' -->
<ellipse cx="235.000000" cy="63.737305" rx="25.000000" ry="44.084461" fill="rgb(255, 165, 0)" style="fill-opacity:1.00" />
<ellipse cx="235.000000" cy="63.737305" rx="16.666667" ry="29.389640" fill="rgb(255, 255, 255)" style="fill-opacity:1.00" />
<rect height="44.084461" width="25.000000" x="235.000000" y="41.695075" fill="rgb(255, 255, 255)" style="fill-opacity:1.00" />
<rect height="11.021115" width="25.000000" x="235.000000" y="74.758420" fill="rgb(255, 165, 0)" style="fill-opacity:1.00" />
<rect height="33.063345" width="6.250000" x="253.750000" y="74.758420" fill="rgb(255, 165, 0)" style="fill-opacity:1.00" />
<!-- End 'G' -->
<!-- Begin 'A' -->
<polygon points=" 210.000000, 109.107601, 231.000000, 107.821766, 239.000000, 107.821766, 260.000000, 109.107601, 252.500000, 109.107601, 246.250000, 108.786142, 223.750000, 108.786142, 217.500000, 109.107601" fill="rgb(178, 34, 34)" style="fill-opacity:1.00" />
<!-- End 'A' -->
<!-- Begin 'T' -->
<rect height="0.123794" width="50.000000" x="210.000000" y="109.107601" fill="rgb(0, 100, 0)" style="fill-opacity:1.00" />
<rect height="0.773713" width="10.000000" x="230.000000" y="109.107601" fill="rgb(0, 100, 0)" style="fill-opacity:1.00" />
<!-- End 'T' -->
<!-- Begin 'C' -->
<ellipse cx="235.000000" cy="109.940657" rx="25.000000" ry="0.059343" fill="rgb(0, 0, 128)" style="fill-opacity:1.00" />
<ellipse cx="235.000000" cy="109.940657" rx="16.666667" ry="0.039562" fill="rgb(255, 255, 255)" style="fill-opacity:1.00" />
<rect height="0.059343" width="25.000000" x="235.000000" y="109.910985" fill="rgb(255, 255, 255)" style="fill-opacity:1.00" />
<!-- End 'C' -->
<!-- Begin 'G' -->
<ellipse cx="295.000000" cy="73.327624" rx="25.000000" ry="27.112448" fill="rgb(255, 165, 0)" style="fill-opacity:1.00" />
<ellipse cx="295.000000" cy="73.327624" rx="16.666667" ry="18.074965" fill="rgb(255, 255, 255)" style="fill-opacity:1.00" />
<rect height="27.112448" width="25.000000" x="295.000000" y="59.771400" fill="rgb(255, 255, 255)" style="fill-opacity:1.00" />
<rect height="6.778112" width="25.000000" x="295.000000" y="80.105736" fill="rgb(255, 165, 0)" style="fill-opacity:1.00" />
<rect height="20.334336" width="6.250000" x="313.750000" y="80.105736" fill="rgb(255, 165, 0)" style="fill-opacity:1.00" />
<!-- End 'G' -->
<!-- Begin 'T' -->
<rect height="1.267548" width="50.000000" x="270.000000" y="100.440072" fill="rgb(0, 100, 0)" style="fill-opacity:1.00" />
<rect height="7.922174" width="10.000000" x="290.000000" y="100.440072" fill="rgb(0, 100, 0)" style="fill-opacity:1.00" />
<!-- End 'T' -->
<!-- Begin 'A' -->
<polygon points=" 270.000000, 109.752137, 291.000000, 108.362246, 299.000000, 108.362246, 320.000000, 109.752137, 312.500000, 109.752137, 306.250000, 109.404664, 283.750000, 109.404664, 277.500000, 109.752137" fill="rgb(178, 34, 34)" style="fill-opacity:1.00" />
<!-- End 'A' -->
<!-- Begin 'C' -->
<ellipse cx="295.000000" cy="109.876068" rx="25.000000" ry="0.123932" fill="rgb(0, 0, 128)" style="fill-opacity:1.00" />
<ellipse cx="295.000000" cy="109.876068" rx="16.666667" ry="0.082621" fill="rgb(255, 255, 255)" style="fill-opacity:1.00" />
<rect height="0.123932" width="25.000000" x="295.000000" y="109.814103" fill="rgb(255, 255, 255)" style="fill-opacity:1.00" />
<!-- End 'C' -->
<!-- Begin 'G' -->
<ellipse cx="355.000000" cy="90.561054" rx="25.000000" ry="5.540286" fill="rgb(255, 165, 0)" style="fill-opacity:1.00" />
<ellipse cx="355.000000" cy="90.561054" rx="16.666667" ry="3.693524" fill="rgb(255, 255, 255)" style="fill-opacity:1.00" />
<rect height="5.540286" width="25.000000" x="355.000000" y="87.790911" fill="rgb(255, 255, 255)" style="fill-opacity:1.00" />
<rect height="1.385072" width="25.000000" x="355.000000" y="91.946126" fill="rgb(255, 165, 0)" style="fill-opacity:1.00" />
<rect height="4.155215" width="6.250000" x="373.750000" y="91.946126" fill="rgb(255, 165, 0)" style="fill-opacity:1.00" />
<!-- End 'G' -->
<!-- Begin 'A' -->
<polygon points=" 330.000000, 107.114313, 351.000000, 96.101340, 359.000000, 96.101340, 380.000000, 107.114313, 372.500000, 107.114313, 366.250000, 104.361070, 343.750000, 104.361070, 337.500000, 107.114313" fill="rgb(178, 34, 34)" style="fill-opacity:1.00" />
<polygon points=" 355.000000, 98.303935, 347.000000, 101.709124, 362.000000, 101.709124" fill="rgb(255, 255, 255)" style="fill-opacity:1.00" />
<!-- End 'A' -->
<!-- Begin 'T' -->
<rect height="0.330157" width="50.000000" x="330.000000" y="107.114313" fill="rgb(0, 100, 0)" style="fill-opacity:1.00" />
<rect height="2.063480" width="10.000000" x="350.000000" y="107.114313" fill="rgb(0, 100, 0)" style="fill-opacity:1.00" />
<!-- End 'T' -->
<!-- Begin 'C' -->
<ellipse cx="355.000000" cy="109.588897" rx="25.000000" ry="0.411103" fill="rgb(0, 0, 128)" style="fill-opacity:1.00" />
<ellipse cx="355.000000" cy="109.588897" rx="16.666667" ry="0.274069" fill="rgb(255, 255, 255)" style="fill-opacity:1.00" />
<rect height="0.411103" width="25.000000" x="355.000000" y="109.383345" fill="rgb(255, 255, 255)" style="fill-opacity:1.00" />
<!-- End 'C' -->
<!-- Begin 'A' -->
<polygon points=" 390.000000, 102.546797, 411.000000, 93.277805, 419.000000, 93.277805, 440.000000, 102.546797, 432.500000, 102.546797, 426.250000, 100.229549, 403.750000, 100.229549, 397.500000, 102.546797" fill="rgb(178, 34, 34)" style="fill-opacity:1.00" />
<polygon points=" 415.000000, 95.131603, 407.000000, 97.839200, 422.000000, 97.839200" fill="rgb(255, 255, 255)" style="fill-opacity:1.00" />
<!-- End 'A' -->
<!-- Begin 'C' -->
<ellipse cx="415.000000" cy="104.358059" rx="25.000000" ry="1.811262" fill="rgb(0, 0, 128)" style="fill-opacity:1.00" />
<ellipse cx="415.000000" cy="104.358059" rx="16.666667" ry="1.207508" fill="rgb(255, 255, 255)" style="fill-opacity:1.00" />
<rect height="1.811262" width="25.000000" x="415.000000" y="103.452428" fill="rgb(255, 255, 255)" style="fill-opacity:1.00" />
<!-- End 'C' -->
<!-- Begin 'G' -->
<ellipse cx="415.000000" cy="107.177272" rx="25.000000" ry="1.007951" fill="rgb(255, 165, 0)" style="fill-opacity:1.00" />
<ellipse cx="415.000000" cy="107.177272" rx="16.666667" ry="0.671967" fill="rgb(255, 255, 255)" style="fill-opacity:1.00" />
<rect height="1.007951" width="25.000000" x="415.000000" y="106.673297" fill="rgb(255, 255, 255)" style="fill-opacity:1.00" />
<rect height="0.251988" width="25.000000" x="415.000000" y="107.429260" fill="rgb(255, 165, 0)" style="fill-opacity:1.00" />
<rect height="0.755963" width="6.250000" x="433.750000" y="107.429260" fill="rgb(255, 165, 0)" style="fill-opacity:1.00" />
<!-- End 'G' -->
<!-- Begin 'T' -->
<rect height="0.290364" width="50.000000" x="390.000000" y="108.185223" fill="rgb(0, 100, 0)" style="fill-opacity:1.00" />
<rect height="1.814777" width="10.000000" x="410.000000" y="108.185223" fill="rgb(0, 100, 0)" style="fill-opacity:1.00" />
<!-- End 'T' -->
<!-- Begin 'A' -->
<polygon points=" 450.000000, 95.603167, 471.000000, 83.413018, 479.000000, 83.413018, 500.000000, 95.603167, 492.500000, 95.603167, 486.250000, 92.555630, 463.750000, 92.555630, 457.500000, 95.603167" fill="rgb(178, 34, 34)" style="fill-opacity:1.00" />
<polygon points=" 475.000000, 85.851047, 467.000000, 89.727107, 482.000000, 89.727107" fill="rgb(255, 255, 255)" style="fill-opacity:1.00" />
<!-- End 'A' -->
<!-- Begin 'T' -->
<rect height="1.878753" width="50.000000" x="450.000000" y="95.603167" fill="rgb(0, 100, 0)" style="fill-opacity:1.00" />
<rect height="11.742205" width="10.000000" x="470.000000" y="95.603167" fill="rgb(0, 100, 0)" style="fill-opacity:1.00" />
<!-- End 'T' -->
<!-- Begin 'C' -->
<ellipse cx="475.000000" cy="108.020691" rx="25.000000" ry="0.675319" fill="rgb(0, 0, 128)" style="fill-opacity:1.00" />
<ellipse cx="475.000000" cy="108.020691" rx="16.666667" ry="0.450213" fill="rgb(255, 255, 255)" style="fill-opacity:1.00" />
<rect height="0.675319" width="25.000000" x="475.000000" y="107.683032" fill="rgb(255, 255, 255)" style="fill-opacity:1.00" />
<!-- End 'C' -->
<!-- Begin 'G' -->
<ellipse cx="475.000000" cy="109.348005" rx="25.000000" ry="0.651995" fill="rgb(255, 165, 0)" style="fill-opacity:1.00" />
<ellipse cx="475.000000" cy="109.348005" rx="16.666667" ry="0.434663" fill="rgb(255, 255, 255)" style="fill-opacity:1.00" />
<rect height="0.651995" width="25.000000" x="475.000000" y="109.022008" fill="rgb(255, 255, 255)" style="fill-opacity:1.00" />
<rect height="0.162999" width="25.000000" x="475.000000" y="109.511004" fill="rgb(255, 165, 0)" style="fill-opacity:1.00" />
<rect height="0.488996" width="6.250000" x="493.750000" y="109.511004" fill="rgb(255, 165, 0)" style="fill-opacity:1.00" />
<!-- End 'G' -->
<!-- Begin 'T' -->
<rect height="1.354964" width="50.000000" x="510.000000" y="94.431232" fill="rgb(0, 100, 0)" style="fill-opacity:1.00" />
<rect height="8.468526" width="10.000000" x="530.000000" y="94.431232" fill="rgb(0, 100, 0)" style="fill-opacity:1.00" />
<!-- End 'T' -->
<!-- Begin 'G' -->
<ellipse cx="535.000000" cy="104.587168" rx="25.000000" ry="1.687410" fill="rgb(255, 165, 0)" style="fill-opacity:1.00" />
<ellipse cx="535.000000" cy="104.587168" rx="16.666667" ry="1.124940" fill="rgb(255, 255, 255)" style="fill-opacity:1.00" />
<rect height="1.687410" width="25.000000" x="535.000000" y="103.743463" fill="rgb(255, 255, 255)" style="fill-opacity:1.00" />
<rect height="0.421853" width="25.000000" x="535.000000" y="105.009021" fill="rgb(255, 165, 0)" style="fill-opacity:1.00" />
<rect height="1.265558" width="6.250000" x="553.750000" y="105.009021" fill="rgb(255, 165, 0)" style="fill-opacity:1.00" />
<!-- End 'G' -->
<!-- Begin 'C' -->
<ellipse cx="535.000000" cy="107.247198" rx="25.000000" ry="0.972620" fill="rgb(0, 0, 128)" style="fill-opacity:1.00" />
<ellipse cx="535.000000" cy="107.247198" rx="16.666667" ry="0.648413" fill="rgb(255, 255, 255)" style="fill-opacity:1.00" />
<rect height="0.972620" width="25.000000" x="535.000000" y="106.760888" fill="rgb(255, 255, 255)" style="fill-opacity:1.00" />
<!-- End 'C' -->
<!-- Begin 'A' -->
<polygon points=" 510.000000, 110.000000, 531.000000, 108.219818, 539.000000, 108.219818, 560.000000, 110.000000, 552.500000, 110.000000, 546.250000, 109.554955, 523.750000, 109.554955, 517.500000, 110.000000" fill="rgb(178, 34, 34)" style="fill-opacity:1.00" />
<!-- End 'A' -->
<!-- Begin 'T' -->
<rect height="1.845841" width="50.000000" x="570.000000" y="84.691992" fill="rgb(0, 100, 0)" style="fill-opacity:1.00" />
<rect height="11.536505" width="10.000000" x="590.000000" y="84.691992" fill="rgb(0, 100, 0)" style="fill-opacity:1.00" />
<!-- End 'T' -->
<!-- Begin 'C' -->
<ellipse cx="595.000000" cy="101.684824" rx="25.000000" ry="5.456326" fill="rgb(0, 0, 128)" style="fill-opacity:1.00" />
<ellipse cx="595.000000" cy="101.684824" rx="16.666667" ry="3.637551" fill="rgb(255, 255, 255)" style="fill-opacity:1.00" />
<rect height="5.456326" width="25.000000" x="595.000000" y="98.956660" fill="rgb(255, 255, 255)" style="fill-opacity:1.00" />
<!-- End 'C' -->
<!-- Begin 'A' -->
<polygon points=" 570.000000, 109.163501, 591.000000, 107.141150, 599.000000, 107.141150, 620.000000, 109.163501, 612.500000, 109.163501, 606.250000, 108.657913, 583.750000, 108.657913, 577.500000, 109.163501" fill="rgb(178, 34, 34)" style="fill-opacity:1.00" />
<!-- End 'A' -->
<!-- Begin 'G' -->
<ellipse cx="595.000000" cy="109.581751" rx="25.000000" ry="0.418249" fill="rgb(255, 165, 0)" style="fill-opacity:1.00" />
<ellipse cx="595.000000" cy="109.581751" rx="16.666667" ry="0.278833" fill="rgb(255, 255, 255)" style="fill-opacity:1.00" />
<rect height="0.418249" width="25.000000" x="595.000000" y="109.372626" fill="rgb(255, 255, 255)" style="fill-opacity:1.00" />
<rect height="0.104562" width="25.000000" x="595.000000" y="109.686313" fill="rgb(255, 165, 0)" style="fill-opacity:1.00" />
<rect height="0.313687" width="6.250000" x="613.750000" y="109.686313" fill="rgb(255, 165, 0)" style="fill-opacity:1.00" />
<!-- End 'G' -->
<!-- Begin 'C' -->
<ellipse cx="655.000000" cy="75.075108" rx="25.000000" ry="24.841068" fill="rgb(0, 0, 128)" style="fill-opacity:1.00" />
<ellipse cx="655.000000" cy="75.075108" rx="16.666667" ry="16.560712" fill="rgb(255, 255, 255)" style="fill-opacity:1.00" />
<rect height="24.841068" width="25.000000" x="655.000000" y="62.654575" fill="rgb(255, 255, 255)" style="fill-opacity:1.00" />
<!-- End 'C' -->
<!-- Begin 'A' -->
<polygon points=" 630.000000, 107.602096, 651.000000, 99.916176, 659.000000, 99.916176, 680.000000, 107.602096, 672.500000, 107.602096, 666.250000, 105.680616, 643.750000, 105.680616, 637.500000, 107.602096" fill="rgb(178, 34, 34)" style="fill-opacity:1.00" />
<!-- End 'A' -->
<!-- Begin 'T' -->
<rect height="0.352282" width="50.000000" x="630.000000" y="107.602096" fill="rgb(0, 100, 0)" style="fill-opacity:1.00" />
<rect height="2.201762" width="10.000000" x="650.000000" y="107.602096" fill="rgb(0, 100, 0)" style="fill-opacity:1.00" />
<!-- End 'T' -->
<!-- Begin 'G' -->
<ellipse cx="655.000000" cy="109.901929" rx="25.000000" ry="0.098071" fill="rgb(255, 165, 0)" style="fill-opacity:1.00" />
<ellipse cx="655.000000" cy="109.901929" rx="16.666667" ry="0.065381" fill="rgb(255, 255, 255)" style="fill-opacity:1.00" />
<rect height="0.098071" width="25.000000" x="655.000000" y="109.852893" fill="rgb(255, 255, 255)" style="fill-opacity:1.00" />
<rect height="0.024518" width="25.000000" x="655.000000" y="109.926447" fill="rgb(255, 165, 0)" style="fill-opacity:1.00" />
<rect height="0.073553" width="6.250000" x="673.750000" y="109.926447" fill="rgb(255, 165, 0)" style="fill-opacity:1.00" />
<!-- End 'G' -->
<!-- Begin 'C' -->
<ellipse cx="715.000000" cy="64.060550" rx="25.000000" ry="43.538017" fill="rgb(0, 0, 128)" style="fill-opacity:1.00" />
<ellipse cx="715.000000" cy="64.060550" rx="16.666667" ry="29.025344" fill="rgb(255, 255, 255)" style="fill-opacity:1.00" />
<rect height="43.538017" width="25.000000" x="715.000000" y="42.291542" fill="rgb(255, 255, 255)" style="fill-opacity:1.00" />
<!-- End 'C' -->
<!-- Begin 'T' -->
<rect height="0.253350" width="50.000000" x="690.000000" y="107.598566" fill="rgb(0, 100, 0)" style="fill-opacity:1.00" />
<rect height="1.583437" width="10.000000" x="710.000000" y="107.598566" fill="rgb(0, 100, 0)" style="fill-opacity:1.00" />
<!-- End 'T' -->
<!-- Begin 'A' -->
<polygon points=" 690.000000, 109.800109, 711.000000, 109.182004, 719.000000, 109.182004, 740.000000, 109.800109, 732.500000, 109.800109, 726.250000, 109.645582, 703.750000, 109.645582, 697.500000, 109.800109" fill="rgb(178, 34, 34)" style="fill-opacity:1.00" />
<!-- End 'A' -->
<!-- Begin 'G' -->
<ellipse cx="715.000000" cy="109.900054" rx="25.000000" ry="0.099946" fill="rgb(255, 165, 0)" style="fill-opacity:1.00" />
<ellipse cx="715.000000" cy="109.900054" rx="16.666667" ry="0.066630" fill="rgb(255, 255, 255)" style="fill-opacity:1.00" />
<rect height="0.099946" width="25.000000" x="715.000000" y="109.850081" fill="rgb(255, 255, 255)" style="fill-opacity:1.00" />
<rect height="0.024986" width="25.000000" x="715.000000" y="109.925041" fill="rgb(255, 165, 0)" style="fill-opacity:1.00" />
<rect height="0.074959" width="6.250000" x="733.750000" y="109.925041" fill="rgb(255, 165, 0)" style="fill-opacity:1.00" />
<!-- End 'G' -->
<!-- Begin 'C' -->
<ellipse cx="775.000000" cy="82.563547" rx="25.000000" ry="17.032220" fill="rgb(0, 0, 128)" style="fill-opacity:1.00" />
<ellipse cx="775.000000" cy="82.563547" rx="16.666667" ry="11.354813" fill="rgb(255, 255, 255)" style="fill-opacity:1.00" />
<rect height="17.032220" width="25.000000" x="775.000000" y="74.047437" fill="rgb(255, 255, 255)" style="fill-opacity:1.00" />
<!-- End 'C' -->
<!-- Begin 'A' -->
<polygon points=" 750.000000, 105.068453, 771.000000, 99.595767, 779.000000, 99.595767, 800.000000, 105.068453, 792.500000, 105.068453, 786.250000, 103.700282, 763.750000, 103.700282, 757.500000, 105.068453" fill="rgb(178, 34, 34)" style="fill-opacity:1.00" />
<!-- End 'A' -->
<!-- Begin 'T' -->
<rect height="0.581204" width="50.000000" x="750.000000" y="105.068453" fill="rgb(0, 100, 0)" style="fill-opacity:1.00" />
<rect height="3.632525" width="10.000000" x="770.000000" y="105.068453" fill="rgb(0, 100, 0)" style="fill-opacity:1.00" />
<!-- End 'T' -->
<!-- Begin 'G' -->
<ellipse cx="775.000000" cy="109.350489" rx="25.000000" ry="0.649511" fill="rgb(255, 165, 0)" style="fill-opacity:1.00" />
<ellipse cx="775.000000" cy="109.350489" rx="16.666667" ry="0.433007" fill="rgb(255, 255, 255)" style="fill-opacity:1.00" />
<rect height="0.649511" width="25.000000" x="775.000000" y="109.025734" fill="rgb(255, 255, 255)" style="fill-opacity:1.00" />
<rect height="0.162378" width="25.000000" x="775.000000" y="109.512867" fill="rgb(255, 165, 0)" style="fill-opacity:1.00" />
<rect height="0.487133" width="6.250000" x="793.750000" y="109.512867" fill="rgb(255, 165, 0)" style="fill-opacity:1.00" />
<!-- End 'G' -->
<!-- Begin 'T' -->
<rect height="0.152000" width="50.000000" x="810.000000" y="107.370158" fill="rgb(0, 100, 0)" style="fill-opacity:1.00" />
<rect height="0.950002" width="10.000000" x="830.000000" y="107.370158" fill="rgb(0, 100, 0)" style="fill-opacity:1.00" />
<!-- End 'T' -->
<!-- Begin 'A' -->
<polygon points=" 810.000000, 108.961165, 831.000000, 108.320160, 839.000000, 108.320160, 860.000000, 108.961165, 852.500000, 108.961165, 846.250000, 108.800914, 823.750000, 108.800914, 817.500000, 108.961165" fill="rgb(178, 34, 34)" style="fill-opacity:1.00" />
<!-- End 'A' -->
<!-- Begin 'C' -->
<ellipse cx="835.000000" cy="109.251580" rx="25.000000" ry="0.290414" fill="rgb(0, 0, 128)" style="fill-opacity:1.00" />
<ellipse cx="835.000000" cy="109.251580" rx="16.666667" ry="0.193610" fill="rgb(255, 255, 255)" style="fill-opacity:1.00" />
<rect height="0.290414" width="25.000000" x="835.000000" y="109.106373" fill="rgb(255, 255, 255)" style="fill-opacity:1.00" />
<!-- End 'C' -->
<!-- Begin 'G' -->
<ellipse cx="835.000000" cy="109.770997" rx="25.000000" ry="0.229003" fill="rgb(255, 165, 0)" style="fill-opacity:1.00" />
<ellipse cx="835.000000" cy="109.770997" rx="16.666667" ry="0.152669" fill="rgb(255, 255, 255)" style="fill-opacity:1.00" />
<rect height="0.229003" width="25.000000" x="835.000000" y="109.656496" fill="rgb(255, 255, 255)" style="fill-opacity:1.00" />
<rect height="0.057251" width="25.000000" x="835.000000" y="109.828248" fill="rgb(255, 165, 0)" style="fill-opacity:1.00" />
<rect height="0.171752" width="6.250000" x="853.750000" y="109.828248" fill="rgb(255, 165, 0)" style="fill-opacity:1.00" />
<!-- End 'G' -->
<text x="460.000000" y="165">
IC = 10.08
</text>

</svg>
