<?xml version="1.0" encoding="UTF-8" standalone="yes"?>
                 <!DOCTYPE svg PUBLIC "-//W3C//DTD SVG 1.0//EN" "http://www.w3.org/TR/2001/REC-SVG-20010904/DTD/svg10.dtd">
                 <svg height="170" width="780" xmlns="http://www.w3.org/2000/svg" xmlns:xlink="http://www.w3.org/1999/xlink">
                 <line x1="85" y1="120" x2="747" y2="120" style="stroke:rgb(99,99,99);stroke-width:2" />
<rect height="7.000000" width="2.000000" x="85.000000" y="120.000000" fill="rgb(0, 0, 0)" style="fill-opacity:1.00" />
<text x="107.000000" y="140">
1
</text>
<rect height="7.000000" width="2.000000" x="145.000000" y="120.000000" fill="rgb(0, 0, 0)" style="fill-opacity:1.00" />
<text x="167.000000" y="140">
2
</text>
<rect height="7.000000" width="2.000000" x="205.000000" y="120.000000" fill="rgb(0, 0, 0)" style="fill-opacity:1.00" />
<text x="227.000000" y="140">
3
</text>
<rect height="7.000000" width="2.000000" x="265.000000" y="120.000000" fill="rgb(0, 0, 0)" style="fill-opacity:1.00" />
<text x="287.000000" y="140">
4
</text>
<rect height="7.000000" width="2.000000" x="325.000000" y="120.000000" fill="rgb(0, 0, 0)" style="fill-opacity:1.00" />
<text x="347.000000" y="140">
5
</text>
<rect height="7.000000" width="2.000000" x="385.000000" y="120.000000" fill="rgb(0, 0, 0)" style="fill-opacity:1.00" />
<text x="407.000000" y="140">
6
</text>
<rect height="7.000000" width="2.000000" x="445.000000" y="120.000000" fill="rgb(0, 0, 0)" style="fill-opacity:1.00" />
<text x="467.000000" y="140">
7
</text>
<rect height="7.000000" width="2.000000" x="505.000000" y="120.000000" fill="rgb(0, 0, 0)" style="fill-opacity:1.00" />
<text x="527.000000" y="140">
8
</text>
<rect height="7.000000" width="2.000000" x="565.000000" y="120.000000" fill="rgb(0, 0, 0)" style="fill-opacity:1.00" />
<text x="587.000000" y="140">
9
</text>
<rect height="7.000000" width="2.000000" x="625.000000" y="120.000000" fill="rgb(0, 0, 0)" style="fill-opacity:1.00" />
<text x="647.000000" y="140">
10
</text>
<rect height="7.000000" width="2.000000" x="685.000000" y="120.000000" fill="rgb(0, 0, 0)" style="fill-opacity:1.00" />
<text x="707.000000" y="140">
11
</text>
<rect height="7.000000" width="2.000000" x="745.000000" y="120.000000" fill="rgb(0, 0, 0)" style="fill-opacity:1.00" />
<line x1="80" y1="112" x2="80" y2="10" style="stroke:rgb(99,99,99);stroke-width:2" />
<rect height="2.000000" width="7.000000" x="73.000000" y="110.000000" fill="rgb(0, 0, 0)" style="fill-opacity:1.00" />
<text x="63" y="115">
0
</text>
<rect height="2.000000" width="7.000000" x="73.000000" y="60.000000" fill="rgb(0, 0, 0)" style="fill-opacity:1.00" />
<text x="63" y="65">
1
</text>
<rect height="2.000000" width="7.000000" x="73.000000" y="10.000000" fill="rgb(0, 0, 0)" style="fill-opacity:1.00" />
<text x="63" y="15">
2
</text>
<text x="50" y="65"
transform="rotate(-90, 50, 70)">
bits
</text>
<!-- Begin 'T' -->
<rect height="5.458134" width="50.000000" x="90.000000" y="64.971179" fill="rgb(0, 100, 0)" style="fill-opacity:1.00" />
<rect height="34.113335" width="10.000000" x="110.000000" y="64.971179" fill="rgb(0, 100, 0)" style="fill-opacity:1.00" />
<!-- End 'T' -->
<!-- Begin 'C' -->
<ellipse cx="115.000000" cy="102.736027" rx="25.000000" ry="3.651513" fill="rgb(0, 0, 128)" style="fill-opacity:1.00" />
<ellipse cx="115.000000" cy="102.736027" rx="16.666667" ry="2.434342" fill="rgb(255, 255, 255)" style="fill-opacity:1.00" />
<rect height="3.651513" width="25.000000" x="115.000000" y="100.910270" fill="rgb(255, 255, 255)" style="fill-opacity:1.00" />
<!-- End 'C' -->
<!-- Begin 'A' -->
<polygon points=" 90.000000, 108.515963, 111.000000, 106.387540, 119.000000, 106.387540, 140.000000, 108.515963, 132.500000, 108.515963, 126.250000, 107.983857, 103.750000, 107.983857, 97.500000, 108.515963" fill="rgb(178, 34, 34)" style="fill-opacity:1.00" />
<!-- End 'A' -->
<!-- Begin 'G' -->
<ellipse cx="115.000000" cy="109.257981" rx="25.000000" ry="0.742019" fill="rgb(255, 165, 0)" style="fill-opacity:1.00" />
<ellipse cx="115.000000" cy="109.257981" rx="16.666667" ry="0.494679" fill="rgb(255, 255, 255)" style="fill-opacity:1.00" />
<rect height="0.742019" width="25.000000" x="115.000000" y="108.886972" fill="rgb(255, 255, 255)" style="fill-opacity:1.00" />
<rect height="0.185505" width="25.000000" x="115.000000" y="109.443486" fill="rgb(255, 165, 0)" style="fill-opacity:1.00" />
<rect height="0.556514" width="6.250000" x="133.750000" y="109.443486" fill="rgb(255, 165, 0)" style="fill-opacity:1.00" />
<!-- End 'G' -->
<!-- Begin 'C' -->
<ellipse cx="175.000000" cy="70.176296" rx="25.000000" ry="24.283425" fill="rgb(0, 0, 128)" style="fill-opacity:1.00" />
<ellipse cx="175.000000" cy="70.176296" rx="16.666667" ry="16.188950" fill="rgb(255, 255, 255)" style="fill-opacity:1.00" />
<rect height="24.283425" width="25.000000" x="175.000000" y="58.034583" fill="rgb(255, 255, 255)" style="fill-opacity:1.00" />
<!-- End 'C' -->
<!-- Begin 'G' -->
<ellipse cx="175.000000" cy="98.018138" rx="25.000000" ry="3.558418" fill="rgb(255, 165, 0)" style="fill-opacity:1.00" />
<ellipse cx="175.000000" cy="98.018138" rx="16.666667" ry="2.372279" fill="rgb(255, 255, 255)" style="fill-opacity:1.00" />
<rect height="3.558418" width="25.000000" x="175.000000" y="96.238929" fill="rgb(255, 255, 255)" style="fill-opacity:1.00" />
<rect height="0.889605" width="25.000000" x="175.000000" y="98.907743" fill="rgb(255, 165, 0)" style="fill-opacity:1.00" />
<rect height="2.668814" width="6.250000" x="193.750000" y="98.907743" fill="rgb(255, 165, 0)" style="fill-opacity:1.00" />
<!-- End 'G' -->
<!-- Begin 'A' -->
<polygon points=" 150.000000, 101.854558, 171.000000, 101.576557, 179.000000, 101.576557, 200.000000, 101.854558, 192.500000, 101.854558, 186.250000, 101.785058, 163.750000, 101.785058, 157.500000, 101.854558" fill="rgb(178, 34, 34)" style="fill-opacity:1.00" />
<!-- End 'A' -->
<!-- Begin 'T' -->
<rect height="0.035584" width="50.000000" x="150.000000" y="101.854558" fill="rgb(0, 100, 0)" style="fill-opacity:1.00" />
<rect height="0.222401" width="10.000000" x="170.000000" y="101.854558" fill="rgb(0, 100, 0)" style="fill-opacity:1.00" />
<!-- End 'T' -->
<!-- Begin 'A' -->
<polygon points=" 210.000000, 83.480607, 231.000000, 31.083099, 239.000000, 31.083099, 260.000000, 83.480607, 252.500000, 83.480607, 246.250000, 70.381230, 223.750000, 70.381230, 217.500000, 83.480607" fill="rgb(178, 34, 34)" style="fill-opacity:1.00" />
<polygon points=" 235.000000, 41.562601, 227.000000, 61.521604, 242.000000, 61.521604" fill="rgb(255, 255, 255)" style="fill-opacity:1.00" />
<!-- End 'A' -->
<!-- Begin 'T' -->
<rect height="0.023994" width="50.000000" x="210.000000" y="83.480607" fill="rgb(0, 100, 0)" style="fill-opacity:1.00" />
<rect height="0.149964" width="10.000000" x="230.000000" y="83.480607" fill="rgb(0, 100, 0)" style="fill-opacity:1.00" />
<!-- End 'T' -->
<!-- Begin 'C' -->
<ellipse cx="235.000000" cy="83.660565" rx="25.000000" ry="0.029993" fill="rgb(0, 0, 128)" style="fill-opacity:1.00" />
<ellipse cx="235.000000" cy="83.660565" rx="16.666667" ry="0.019995" fill="rgb(255, 255, 255)" style="fill-opacity:1.00" />
<rect height="0.029993" width="25.000000" x="235.000000" y="83.645568" fill="rgb(255, 255, 255)" style="fill-opacity:1.00" />
<!-- End 'C' -->
<!-- Begin 'G' -->
<ellipse cx="235.000000" cy="83.705554" rx="25.000000" ry="0.014996" fill="rgb(255, 165, 0)" style="fill-opacity:1.00" />
<ellipse cx="235.000000" cy="83.705554" rx="16.666667" ry="0.009998" fill="rgb(255, 255, 255)" style="fill-opacity:1.00" />
<rect height="0.014996" width="25.000000" x="235.000000" y="83.698056" fill="rgb(255, 255, 255)" style="fill-opacity:1.00" />
<rect height="0.003749" width="25.000000" x="235.000000" y="83.709303" fill="rgb(255, 165, 0)" style="fill-opacity:1.00" />
<rect height="0.011247" width="6.250000" x="253.750000" y="83.709303" fill="rgb(255, 165, 0)" style="fill-opacity:1.00" />
<!-- End 'G' -->
<!-- Begin 'A' -->
<polygon points=" 270.000000, 73.356314, 291.000000, 35.925869, 299.000000, 35.925869, 320.000000, 73.356314, 312.500000, 73.356314, 306.250000, 63.998703, 283.750000, 63.998703, 277.500000, 73.356314" fill="rgb(178, 34, 34)" style="fill-opacity:1.00" />
<polygon points=" 295.000000, 43.411958, 287.000000, 57.384136, 302.000000, 57.384136" fill="rgb(255, 255, 255)" style="fill-opacity:1.00" />
<!-- End 'A' -->
<!-- Begin 'G' -->
<ellipse cx="295.000000" cy="73.399166" rx="25.000000" ry="0.042851" fill="rgb(255, 165, 0)" style="fill-opacity:1.00" />
<ellipse cx="295.000000" cy="73.399166" rx="16.666667" ry="0.028567" fill="rgb(255, 255, 255)" style="fill-opacity:1.00" />
<rect height="0.042851" width="25.000000" x="295.000000" y="73.377740" fill="rgb(255, 255, 255)" style="fill-opacity:1.00" />
<rect height="0.010713" width="25.000000" x="295.000000" y="73.409878" fill="rgb(255, 165, 0)" style="fill-opacity:1.00" />
<rect height="0.032138" width="6.250000" x="313.750000" y="73.409878" fill="rgb(255, 165, 0)" style="fill-opacity:1.00" />
<!-- End 'G' -->
<!-- Begin 'C' -->
<ellipse cx="295.000000" cy="73.463442" rx="25.000000" ry="0.021426" fill="rgb(0, 0, 128)" style="fill-opacity:1.00" />
<ellipse cx="295.000000" cy="73.463442" rx="16.666667" ry="0.014284" fill="rgb(255, 255, 255)" style="fill-opacity:1.00" />
<rect height="0.021426" width="25.000000" x="295.000000" y="73.452729" fill="rgb(255, 255, 255)" style="fill-opacity:1.00" />
<!-- End 'C' -->
<!-- Begin 'T' -->
<rect height="0.003428" width="50.000000" x="270.000000" y="73.484868" fill="rgb(0, 100, 0)" style="fill-opacity:1.00" />
<rect height="0.021426" width="10.000000" x="290.000000" y="73.484868" fill="rgb(0, 100, 0)" style="fill-opacity:1.00" />
<!-- End 'T' -->
<!-- Begin 'G' -->
<ellipse cx="355.000000" cy="51.474166" rx="25.000000" ry="13.922893" fill="rgb(255, 165, 0)" style="fill-opacity:1.00" />
<ellipse cx="355.000000" cy="51.474166" rx="16.666667" ry="9.281929" fill="rgb(255, 255, 255)" style="fill-opacity:1.00" />
<rect height="13.922893" width="25.000000" x="355.000000" y="44.512719" fill="rgb(255, 255, 255)" style="fill-opacity:1.00" />
<rect height="3.480723" width="25.000000" x="355.000000" y="54.954889" fill="rgb(255, 165, 0)" style="fill-opacity:1.00" />
<rect height="10.442170" width="6.250000" x="373.750000" y="54.954889" fill="rgb(255, 165, 0)" style="fill-opacity:1.00" />
<!-- End 'G' -->
<!-- Begin 'A' -->
<polygon points=" 330.000000, 65.460815, 351.000000, 65.397059, 359.000000, 65.397059, 380.000000, 65.460815, 372.500000, 65.460815, 366.250000, 65.444876, 343.750000, 65.444876, 337.500000, 65.460815" fill="rgb(178, 34, 34)" style="fill-opacity:1.00" />
<!-- End 'A' -->
<!-- Begin 'C' -->
<ellipse cx="355.000000" cy="65.484724" rx="25.000000" ry="0.023909" fill="rgb(0, 0, 128)" style="fill-opacity:1.00" />
<ellipse cx="355.000000" cy="65.484724" rx="16.666667" ry="0.015939" fill="rgb(255, 255, 255)" style="fill-opacity:1.00" />
<rect height="0.023909" width="25.000000" x="355.000000" y="65.472770" fill="rgb(255, 255, 255)" style="fill-opacity:1.00" />
<!-- End 'C' -->
<!-- Begin 'T' -->
<rect height="0.005101" width="50.000000" x="330.000000" y="65.508633" fill="rgb(0, 100, 0)" style="fill-opacity:1.00" />
<rect height="0.031878" width="10.000000" x="350.000000" y="65.508633" fill="rgb(0, 100, 0)" style="fill-opacity:1.00" />
<!-- End 'T' -->
<!-- Begin 'G' -->
<ellipse cx="415.000000" cy="47.610329" rx="25.000000" ry="10.695272" fill="rgb(255, 165, 0)" style="fill-opacity:1.00" />
<ellipse cx="415.000000" cy="47.610329" rx="16.666667" ry="7.130181" fill="rgb(255, 255, 255)" style="fill-opacity:1.00" />
<rect height="10.695272" width="25.000000" x="415.000000" y="42.262693" fill="rgb(255, 255, 255)" style="fill-opacity:1.00" />
<rect height="2.673818" width="25.000000" x="415.000000" y="50.284147" fill="rgb(255, 165, 0)" style="fill-opacity:1.00" />
<rect height="8.021454" width="6.250000" x="433.750000" y="50.284147" fill="rgb(255, 165, 0)" style="fill-opacity:1.00" />
<!-- End 'G' -->
<!-- Begin 'C' -->
<ellipse cx="415.000000" cy="58.336212" rx="25.000000" ry="0.030610" fill="rgb(0, 0, 128)" style="fill-opacity:1.00" />
<ellipse cx="415.000000" cy="58.336212" rx="16.666667" ry="0.020407" fill="rgb(255, 255, 255)" style="fill-opacity:1.00" />
<rect height="0.030610" width="25.000000" x="415.000000" y="58.320906" fill="rgb(255, 255, 255)" style="fill-opacity:1.00" />
<!-- End 'C' -->
<!-- Begin 'T' -->
<rect height="0.007836" width="50.000000" x="390.000000" y="58.366822" fill="rgb(0, 100, 0)" style="fill-opacity:1.00" />
<rect height="0.048977" width="10.000000" x="410.000000" y="58.366822" fill="rgb(0, 100, 0)" style="fill-opacity:1.00" />
<!-- End 'T' -->
<!-- Begin 'A' -->
<polygon points=" 390.000000, 58.440287, 411.000000, 58.415799, 419.000000, 58.415799, 440.000000, 58.440287, 432.500000, 58.440287, 426.250000, 58.434165, 403.750000, 58.434165, 397.500000, 58.440287" fill="rgb(178, 34, 34)" style="fill-opacity:1.00" />
<!-- End 'A' -->
<!-- Begin 'T' -->
<rect height="2.646348" width="50.000000" x="450.000000" y="35.873503" fill="rgb(0, 100, 0)" style="fill-opacity:1.00" />
<rect height="16.539675" width="10.000000" x="470.000000" y="35.873503" fill="rgb(0, 100, 0)" style="fill-opacity:1.00" />
<!-- End 'T' -->
<!-- Begin 'C' -->
<ellipse cx="475.000000" cy="52.469982" rx="25.000000" ry="0.056805" fill="rgb(0, 0, 128)" style="fill-opacity:1.00" />
<ellipse cx="475.000000" cy="52.469982" rx="16.666667" ry="0.037870" fill="rgb(255, 255, 255)" style="fill-opacity:1.00" />
<rect height="0.056805" width="25.000000" x="475.000000" y="52.441580" fill="rgb(255, 255, 255)" style="fill-opacity:1.00" />
<!-- End 'C' -->
<!-- Begin 'G' -->
<ellipse cx="475.000000" cy="52.569391" rx="25.000000" ry="0.042604" fill="rgb(255, 165, 0)" style="fill-opacity:1.00" />
<ellipse cx="475.000000" cy="52.569391" rx="16.666667" ry="0.028402" fill="rgb(255, 255, 255)" style="fill-opacity:1.00" />
<rect height="0.042604" width="25.000000" x="475.000000" y="52.548089" fill="rgb(255, 255, 255)" style="fill-opacity:1.00" />
<rect height="0.010651" width="25.000000" x="475.000000" y="52.580042" fill="rgb(255, 165, 0)" style="fill-opacity:1.00" />
<rect height="0.031953" width="6.250000" x="493.750000" y="52.580042" fill="rgb(255, 165, 0)" style="fill-opacity:1.00" />
<!-- End 'G' -->
<!-- Begin 'A' -->
<polygon points=" 450.000000, 52.678267, 471.000000, 52.611995, 479.000000, 52.611995, 500.000000, 52.678267, 492.500000, 52.678267, 486.250000, 52.661699, 463.750000, 52.661699, 457.500000, 52.678267" fill="rgb(178, 34, 34)" style="fill-opacity:1.00" />
<!-- End 'A' -->
<!-- Begin 'C' -->
<ellipse cx="535.000000" cy="39.477414" rx="25.000000" ry="6.624983" fill="rgb(0, 0, 128)" style="fill-opacity:1.00" />
<ellipse cx="535.000000" cy="39.477414" rx="16.666667" ry="4.416656" fill="rgb(255, 255, 255)" style="fill-opacity:1.00" />
<rect height="6.624983" width="25.000000" x="535.000000" y="36.164922" fill="rgb(255, 255, 255)" style="fill-opacity:1.00" />
<!-- End 'C' -->
<!-- Begin 'T' -->
<rect height="0.019416" width="50.000000" x="510.000000" y="46.102398" fill="rgb(0, 100, 0)" style="fill-opacity:1.00" />
<rect height="0.121351" width="10.000000" x="530.000000" y="46.102398" fill="rgb(0, 100, 0)" style="fill-opacity:1.00" />
<!-- End 'T' -->
<!-- Begin 'A' -->
<polygon points=" 510.000000, 46.246501, 531.000000, 46.223748, 539.000000, 46.223748, 560.000000, 46.246501, 552.500000, 46.246501, 546.250000, 46.240813, 523.750000, 46.240813, 517.500000, 46.246501" fill="rgb(178, 34, 34)" style="fill-opacity:1.00" />
<!-- End 'A' -->
<!-- Begin 'G' -->
<ellipse cx="535.000000" cy="46.254086" rx="25.000000" ry="0.007584" fill="rgb(255, 165, 0)" style="fill-opacity:1.00" />
<ellipse cx="535.000000" cy="46.254086" rx="16.666667" ry="0.005056" fill="rgb(255, 255, 255)" style="fill-opacity:1.00" />
<rect height="0.007584" width="25.000000" x="535.000000" y="46.250294" fill="rgb(255, 255, 255)" style="fill-opacity:1.00" />
<rect height="0.001896" width="25.000000" x="535.000000" y="46.255982" fill="rgb(255, 165, 0)" style="fill-opacity:1.00" />
<rect height="0.005688" width="6.250000" x="553.750000" y="46.255982" fill="rgb(255, 165, 0)" style="fill-opacity:1.00" />
<!-- End 'G' -->
<!-- Begin 'A' -->
<polygon points=" 570.000000, 41.554006, 591.000000, 31.174347, 599.000000, 31.174347, 620.000000, 41.554006, 612.500000, 41.554006, 606.250000, 38.959091, 583.750000, 38.959091, 577.500000, 41.554006" fill="rgb(178, 34, 34)" style="fill-opacity:1.00" />
<polygon points=" 595.000000, 33.250279, 587.000000, 36.402143, 602.000000, 36.402143" fill="rgb(255, 255, 255)" style="fill-opacity:1.00" />
<!-- End 'A' -->
<!-- Begin 'G' -->
<ellipse cx="595.000000" cy="41.723337" rx="25.000000" ry="0.169330" fill="rgb(255, 165, 0)" style="fill-opacity:1.00" />
<ellipse cx="595.000000" cy="41.723337" rx="16.666667" ry="0.112887" fill="rgb(255, 255, 255)" style="fill-opacity:1.00" />
<rect height="0.169330" width="25.000000" x="595.000000" y="41.638671" fill="rgb(255, 255, 255)" style="fill-opacity:1.00" />
<rect height="0.042333" width="25.000000" x="595.000000" y="41.765669" fill="rgb(255, 165, 0)" style="fill-opacity:1.00" />
<rect height="0.126998" width="6.250000" x="613.750000" y="41.765669" fill="rgb(255, 165, 0)" style="fill-opacity:1.00" />
<!-- End 'G' -->
<!-- Begin 'T' -->
<rect height="0.003803" width="50.000000" x="570.000000" y="41.892667" fill="rgb(0, 100, 0)" style="fill-opacity:1.00" />
<rect height="0.023766" width="10.000000" x="590.000000" y="41.892667" fill="rgb(0, 100, 0)" style="fill-opacity:1.00" />
<!-- End 'T' -->
<!-- Begin 'C' -->
<ellipse cx="595.000000" cy="41.919403" rx="25.000000" ry="0.002971" fill="rgb(0, 0, 128)" style="fill-opacity:1.00" />
<ellipse cx="595.000000" cy="41.919403" rx="16.666667" ry="0.001980" fill="rgb(255, 255, 255)" style="fill-opacity:1.00" />
<rect height="0.002971" width="25.000000" x="595.000000" y="41.917918" fill="rgb(255, 255, 255)" style="fill-opacity:1.00" />
<!-- End 'C' -->
<!-- Begin 'T' -->
<rect height="0.716083" width="50.000000" x="630.000000" y="37.638137" fill="rgb(0, 100, 0)" style="fill-opacity:1.00" />
<rect height="4.475518" width="10.000000" x="650.000000" y="37.638137" fill="rgb(0, 100, 0)" style="fill-opacity:1.00" />
<!-- End 'T' -->
<!-- Begin 'A' -->
<polygon points=" 630.000000, 45.121579, 651.000000, 42.113655, 659.000000, 42.113655, 680.000000, 45.121579, 672.500000, 45.121579, 666.250000, 44.369598, 643.750000, 44.369598, 637.500000, 45.121579" fill="rgb(178, 34, 34)" style="fill-opacity:1.00" />
<!-- End 'A' -->
<!-- Begin 'C' -->
<ellipse cx="655.000000" cy="45.671392" rx="25.000000" ry="0.549813" fill="rgb(0, 0, 128)" style="fill-opacity:1.00" />
<ellipse cx="655.000000" cy="45.671392" rx="16.666667" ry="0.366542" fill="rgb(255, 255, 255)" style="fill-opacity:1.00" />
<rect height="0.549813" width="25.000000" x="655.000000" y="45.396486" fill="rgb(255, 255, 255)" style="fill-opacity:1.00" />
<!-- End 'C' -->
<!-- Begin 'G' -->
<ellipse cx="655.000000" cy="46.313197" rx="25.000000" ry="0.091992" fill="rgb(255, 165, 0)" style="fill-opacity:1.00" />
<ellipse cx="655.000000" cy="46.313197" rx="16.666667" ry="0.061328" fill="rgb(255, 255, 255)" style="fill-opacity:1.00" />
<rect height="0.091992" width="25.000000" x="655.000000" y="46.267201" fill="rgb(255, 255, 255)" style="fill-opacity:1.00" />
<rect height="0.022998" width="25.000000" x="655.000000" y="46.336195" fill="rgb(255, 165, 0)" style="fill-opacity:1.00" />
<rect height="0.068994" width="6.250000" x="673.750000" y="46.336195" fill="rgb(255, 165, 0)" style="fill-opacity:1.00" />
<!-- End 'G' -->
<!-- Begin 'A' -->
<polygon points=" 690.000000, 37.103735, 711.000000, 34.349312, 719.000000, 34.349312, 740.000000, 37.103735, 732.500000, 37.103735, 726.250000, 36.415129, 703.750000, 36.415129, 697.500000, 37.103735" fill="rgb(178, 34, 34)" style="fill-opacity:1.00" />
<!-- End 'A' -->
<!-- Begin 'T' -->
<rect height="0.342137" width="50.000000" x="690.000000" y="37.103735" fill="rgb(0, 100, 0)" style="fill-opacity:1.00" />
<rect height="2.138354" width="10.000000" x="710.000000" y="37.103735" fill="rgb(0, 100, 0)" style="fill-opacity:1.00" />
<!-- End 'T' -->
<!-- Begin 'C' -->
<ellipse cx="715.000000" cy="39.895917" rx="25.000000" ry="0.653828" fill="rgb(0, 0, 128)" style="fill-opacity:1.00" />
<ellipse cx="715.000000" cy="39.895917" rx="16.666667" ry="0.435885" fill="rgb(255, 255, 255)" style="fill-opacity:1.00" />
<rect height="0.653828" width="25.000000" x="715.000000" y="39.569003" fill="rgb(255, 255, 255)" style="fill-opacity:1.00" />
<!-- End 'C' -->
<!-- Begin 'G' -->
<ellipse cx="715.000000" cy="40.927335" rx="25.000000" ry="0.377590" fill="rgb(255, 165, 0)" style="fill-opacity:1.00" />
<ellipse cx="715.000000" cy="40.927335" rx="16.666667" ry="0.251727" fill="rgb(255, 255, 255)" style="fill-opacity:1.00" />
<rect height="0.377590" width="25.000000" x="715.000000" y="40.738540" fill="rgb(255, 255, 255)" style="fill-opacity:1.00" />
<rect height="0.094398" width="25.000000" x="715.000000" y="41.021733" fill="rgb(255, 165, 0)" style="fill-opacity:1.00" />
<rect height="0.283193" width="6.250000" x="733.750000" y="41.021733" fill="rgb(255, 165, 0)" style="fill-opacity:1.00" />
<!-- End 'G' -->
<text x="400.000000" y="165">
IC = 15.72
</text>

</svg>
