<?xml version="1.0" encoding="UTF-8" standalone="yes"?>
                 <!DOCTYPE svg PUBLIC "-//W3C//DTD SVG 1.0//EN" "http://www.w3.org/TR/2001/REC-SVG-20010904/DTD/svg10.dtd">
                 <svg height="170" width="1080" xmlns="http://www.w3.org/2000/svg" xmlns:xlink="http://www.w3.org/1999/xlink">
                 <line x1="85" y1="120" x2="1047" y2="120" style="stroke:rgb(99,99,99);stroke-width:2" />
<rect height="7.000000" width="2.000000" x="85.000000" y="120.000000" fill="rgb(0, 0, 0)" style="fill-opacity:1.00" />
<text x="107.000000" y="140">
1
</text>
<rect height="7.000000" width="2.000000" x="145.000000" y="120.000000" fill="rgb(0, 0, 0)" style="fill-opacity:1.00" />
<text x="167.000000" y="140">
2
</text>
<rect height="7.000000" width="2.000000" x="205.000000" y="120.000000" fill="rgb(0, 0, 0)" style="fill-opacity:1.00" />
<text x="227.000000" y="140">
3
</text>
<rect height="7.000000" width="2.000000" x="265.000000" y="120.000000" fill="rgb(0, 0, 0)" style="fill-opacity:1.00" />
<text x="287.000000" y="140">
4
</text>
<rect height="7.000000" width="2.000000" x="325.000000" y="120.000000" fill="rgb(0, 0, 0)" style="fill-opacity:1.00" />
<text x="347.000000" y="140">
5
</text>
<rect height="7.000000" width="2.000000" x="385.000000" y="120.000000" fill="rgb(0, 0, 0)" style="fill-opacity:1.00" />
<text x="407.000000" y="140">
6
</text>
<rect height="7.000000" width="2.000000" x="445.000000" y="120.000000" fill="rgb(0, 0, 0)" style="fill-opacity:1.00" />
<text x="467.000000" y="140">
7
</text>
<rect height="7.000000" width="2.000000" x="505.000000" y="120.000000" fill="rgb(0, 0, 0)" style="fill-opacity:1.00" />
<text x="527.000000" y="140">
8
</text>
<rect height="7.000000" width="2.000000" x="565.000000" y="120.000000" fill="rgb(0, 0, 0)" style="fill-opacity:1.00" />
<text x="587.000000" y="140">
9
</text>
<rect height="7.000000" width="2.000000" x="625.000000" y="120.000000" fill="rgb(0, 0, 0)" style="fill-opacity:1.00" />
<text x="647.000000" y="140">
10
</text>
<rect height="7.000000" width="2.000000" x="685.000000" y="120.000000" fill="rgb(0, 0, 0)" style="fill-opacity:1.00" />
<text x="707.000000" y="140">
11
</text>
<rect height="7.000000" width="2.000000" x="745.000000" y="120.000000" fill="rgb(0, 0, 0)" style="fill-opacity:1.00" />
<text x="767.000000" y="140">
12
</text>
<rect height="7.000000" width="2.000000" x="805.000000" y="120.000000" fill="rgb(0, 0, 0)" style="fill-opacity:1.00" />
<text x="827.000000" y="140">
13
</text>
<rect height="7.000000" width="2.000000" x="865.000000" y="120.000000" fill="rgb(0, 0, 0)" style="fill-opacity:1.00" />
<text x="887.000000" y="140">
14
</text>
<rect height="7.000000" width="2.000000" x="925.000000" y="120.000000" fill="rgb(0, 0, 0)" style="fill-opacity:1.00" />
<text x="947.000000" y="140">
15
</text>
<rect height="7.000000" width="2.000000" x="985.000000" y="120.000000" fill="rgb(0, 0, 0)" style="fill-opacity:1.00" />
<text x="1007.000000" y="140">
16
</text>
<rect height="7.000000" width="2.000000" x="1045.000000" y="120.000000" fill="rgb(0, 0, 0)" style="fill-opacity:1.00" />
<line x1="80" y1="112" x2="80" y2="10" style="stroke:rgb(99,99,99);stroke-width:2" />
<rect height="2.000000" width="7.000000" x="73.000000" y="110.000000" fill="rgb(0, 0, 0)" style="fill-opacity:1.00" />
<text x="63" y="115">
0
</text>
<rect height="2.000000" width="7.000000" x="73.000000" y="60.000000" fill="rgb(0, 0, 0)" style="fill-opacity:1.00" />
<text x="63" y="65">
1
</text>
<rect height="2.000000" width="7.000000" x="73.000000" y="10.000000" fill="rgb(0, 0, 0)" style="fill-opacity:1.00" />
<text x="63" y="15">
2
</text>
<text x="50" y="65"
transform="rotate(-90, 50, 70)">
bits
</text>
<!-- Begin 'A' -->
<polygon points=" 90.000000, 102.709603, 111.000000, 94.777135, 119.000000, 94.777135, 140.000000, 102.709603, 132.500000, 102.709603, 126.250000, 100.726486, 103.750000, 100.726486, 97.500000, 102.709603" fill="rgb(178, 34, 34)" style="fill-opacity:1.00" />
<!-- End 'A' -->
<!-- Begin 'G' -->
<ellipse cx="115.000000" cy="104.471905" rx="25.000000" ry="1.762301" fill="rgb(255, 165, 0)" style="fill-opacity:1.00" />
<ellipse cx="115.000000" cy="104.471905" rx="16.666667" ry="1.174868" fill="rgb(255, 255, 255)" style="fill-opacity:1.00" />
<rect height="1.762301" width="25.000000" x="115.000000" y="103.590754" fill="rgb(255, 255, 255)" style="fill-opacity:1.00" />
<rect height="0.440575" width="25.000000" x="115.000000" y="104.912480" fill="rgb(255, 165, 0)" style="fill-opacity:1.00" />
<rect height="1.321726" width="6.250000" x="133.750000" y="104.912480" fill="rgb(255, 165, 0)" style="fill-opacity:1.00" />
<!-- End 'G' -->
<!-- Begin 'T' -->
<rect height="0.421205" width="50.000000" x="90.000000" y="106.234206" fill="rgb(0, 100, 0)" style="fill-opacity:1.00" />
<rect height="2.632534" width="10.000000" x="110.000000" y="106.234206" fill="rgb(0, 100, 0)" style="fill-opacity:1.00" />
<!-- End 'T' -->
<!-- Begin 'C' -->
<ellipse cx="115.000000" cy="109.433370" rx="25.000000" ry="0.566630" fill="rgb(0, 0, 128)" style="fill-opacity:1.00" />
<ellipse cx="115.000000" cy="109.433370" rx="16.666667" ry="0.377753" fill="rgb(255, 255, 255)" style="fill-opacity:1.00" />
<rect height="0.566630" width="25.000000" x="115.000000" y="109.150055" fill="rgb(255, 255, 255)" style="fill-opacity:1.00" />
<!-- End 'C' -->
<!-- Begin 'C' -->
<ellipse cx="175.000000" cy="102.475642" rx="25.000000" ry="2.210286" fill="rgb(0, 0, 128)" style="fill-opacity:1.00" />
<ellipse cx="175.000000" cy="102.475642" rx="16.666667" ry="1.473524" fill="rgb(255, 255, 255)" style="fill-opacity:1.00" />
<rect height="2.210286" width="25.000000" x="175.000000" y="101.370499" fill="rgb(255, 255, 255)" style="fill-opacity:1.00" />
<!-- End 'C' -->
<!-- Begin 'A' -->
<polygon points=" 150.000000, 106.926776, 171.000000, 104.685928, 179.000000, 104.685928, 200.000000, 106.926776, 192.500000, 106.926776, 186.250000, 106.366564, 163.750000, 106.366564, 157.500000, 106.926776" fill="rgb(178, 34, 34)" style="fill-opacity:1.00" />
<!-- End 'A' -->
<!-- Begin 'T' -->
<rect height="0.347970" width="50.000000" x="150.000000" y="106.926776" fill="rgb(0, 100, 0)" style="fill-opacity:1.00" />
<rect height="2.174813" width="10.000000" x="170.000000" y="106.926776" fill="rgb(0, 100, 0)" style="fill-opacity:1.00" />
<!-- End 'T' -->
<!-- Begin 'G' -->
<ellipse cx="175.000000" cy="109.550795" rx="25.000000" ry="0.449205" fill="rgb(255, 165, 0)" style="fill-opacity:1.00" />
<ellipse cx="175.000000" cy="109.550795" rx="16.666667" ry="0.299470" fill="rgb(255, 255, 255)" style="fill-opacity:1.00" />
<rect height="0.449205" width="25.000000" x="175.000000" y="109.326192" fill="rgb(255, 255, 255)" style="fill-opacity:1.00" />
<rect height="0.112301" width="25.000000" x="175.000000" y="109.663096" fill="rgb(255, 165, 0)" style="fill-opacity:1.00" />
<rect height="0.336904" width="6.250000" x="193.750000" y="109.663096" fill="rgb(255, 165, 0)" style="fill-opacity:1.00" />
<!-- End 'G' -->
<!-- Begin 'G' -->
<ellipse cx="235.000000" cy="98.453542" rx="25.000000" ry="3.841939" fill="rgb(255, 165, 0)" style="fill-opacity:1.00" />
<ellipse cx="235.000000" cy="98.453542" rx="16.666667" ry="2.561293" fill="rgb(255, 255, 255)" style="fill-opacity:1.00" />
<rect height="3.841939" width="25.000000" x="235.000000" y="96.532572" fill="rgb(255, 255, 255)" style="fill-opacity:1.00" />
<rect height="0.960485" width="25.000000" x="235.000000" y="99.414027" fill="rgb(255, 165, 0)" style="fill-opacity:1.00" />
<rect height="2.881454" width="6.250000" x="253.750000" y="99.414027" fill="rgb(255, 165, 0)" style="fill-opacity:1.00" />
<!-- End 'G' -->
<!-- Begin 'A' -->
<polygon points=" 210.000000, 106.860418, 231.000000, 102.295481, 239.000000, 102.295481, 260.000000, 106.860418, 252.500000, 106.860418, 246.250000, 105.719184, 223.750000, 105.719184, 217.500000, 106.860418" fill="rgb(178, 34, 34)" style="fill-opacity:1.00" />
<!-- End 'A' -->
<!-- Begin 'T' -->
<rect height="0.254601" width="50.000000" x="210.000000" y="106.860418" fill="rgb(0, 100, 0)" style="fill-opacity:1.00" />
<rect height="1.591256" width="10.000000" x="230.000000" y="106.860418" fill="rgb(0, 100, 0)" style="fill-opacity:1.00" />
<!-- End 'T' -->
<!-- Begin 'C' -->
<ellipse cx="235.000000" cy="109.225837" rx="25.000000" ry="0.774163" fill="rgb(0, 0, 128)" style="fill-opacity:1.00" />
<ellipse cx="235.000000" cy="109.225837" rx="16.666667" ry="0.516108" fill="rgb(255, 255, 255)" style="fill-opacity:1.00" />
<rect height="0.774163" width="25.000000" x="235.000000" y="108.838756" fill="rgb(255, 255, 255)" style="fill-opacity:1.00" />
<!-- End 'C' -->
<!-- Begin 'G' -->
<ellipse cx="295.000000" cy="64.435683" rx="25.000000" ry="42.857822" fill="rgb(255, 165, 0)" style="fill-opacity:1.00" />
<ellipse cx="295.000000" cy="64.435683" rx="16.666667" ry="28.571881" fill="rgb(255, 255, 255)" style="fill-opacity:1.00" />
<rect height="42.857822" width="25.000000" x="295.000000" y="43.006772" fill="rgb(255, 255, 255)" style="fill-opacity:1.00" />
<rect height="10.714455" width="25.000000" x="295.000000" y="75.150139" fill="rgb(255, 165, 0)" style="fill-opacity:1.00" />
<rect height="32.143366" width="6.250000" x="313.750000" y="75.150139" fill="rgb(255, 165, 0)" style="fill-opacity:1.00" />
<!-- End 'G' -->
<!-- Begin 'A' -->
<polygon points=" 270.000000, 108.961371, 291.000000, 107.293505, 299.000000, 107.293505, 320.000000, 108.961371, 312.500000, 108.961371, 306.250000, 108.544404, 283.750000, 108.544404, 277.500000, 108.961371" fill="rgb(178, 34, 34)" style="fill-opacity:1.00" />
<!-- End 'A' -->
<!-- Begin 'C' -->
<ellipse cx="295.000000" cy="109.439228" rx="25.000000" ry="0.477857" fill="rgb(0, 0, 128)" style="fill-opacity:1.00" />
<ellipse cx="295.000000" cy="109.439228" rx="16.666667" ry="0.318572" fill="rgb(255, 255, 255)" style="fill-opacity:1.00" />
<rect height="0.477857" width="25.000000" x="295.000000" y="109.200299" fill="rgb(255, 255, 255)" style="fill-opacity:1.00" />
<!-- End 'C' -->
<!-- Begin 'T' -->
<rect height="0.013266" width="50.000000" x="270.000000" y="109.917085" fill="rgb(0, 100, 0)" style="fill-opacity:1.00" />
<rect height="0.082915" width="10.000000" x="290.000000" y="109.917085" fill="rgb(0, 100, 0)" style="fill-opacity:1.00" />
<!-- End 'T' -->
<!-- Begin 'T' -->
<rect height="8.606257" width="50.000000" x="330.000000" y="48.116793" fill="rgb(0, 100, 0)" style="fill-opacity:1.00" />
<rect height="53.789103" width="10.000000" x="350.000000" y="48.116793" fill="rgb(0, 100, 0)" style="fill-opacity:1.00" />
<!-- End 'T' -->
<!-- Begin 'A' -->
<polygon points=" 330.000000, 105.151998, 351.000000, 101.905896, 359.000000, 101.905896, 380.000000, 105.151998, 372.500000, 105.151998, 366.250000, 104.340473, 343.750000, 104.340473, 337.500000, 105.151998" fill="rgb(178, 34, 34)" style="fill-opacity:1.00" />
<!-- End 'A' -->
<!-- Begin 'C' -->
<ellipse cx="355.000000" cy="106.627867" rx="25.000000" ry="1.475869" fill="rgb(0, 0, 128)" style="fill-opacity:1.00" />
<ellipse cx="355.000000" cy="106.627867" rx="16.666667" ry="0.983913" fill="rgb(255, 255, 255)" style="fill-opacity:1.00" />
<rect height="1.475869" width="25.000000" x="355.000000" y="105.889932" fill="rgb(255, 255, 255)" style="fill-opacity:1.00" />
<!-- End 'C' -->
<!-- Begin 'G' -->
<ellipse cx="355.000000" cy="109.051868" rx="25.000000" ry="0.948132" fill="rgb(255, 165, 0)" style="fill-opacity:1.00" />
<ellipse cx="355.000000" cy="109.051868" rx="16.666667" ry="0.632088" fill="rgb(255, 255, 255)" style="fill-opacity:1.00" />
<rect height="0.948132" width="25.000000" x="355.000000" y="108.577802" fill="rgb(255, 255, 255)" style="fill-opacity:1.00" />
<rect height="0.237033" width="25.000000" x="355.000000" y="109.288901" fill="rgb(255, 165, 0)" style="fill-opacity:1.00" />
<rect height="0.711099" width="6.250000" x="373.750000" y="109.288901" fill="rgb(255, 165, 0)" style="fill-opacity:1.00" />
<!-- End 'G' -->
<!-- Begin 'A' -->
<polygon points=" 390.000000, 98.941292, 411.000000, 77.944745, 419.000000, 77.944745, 440.000000, 98.941292, 432.500000, 98.941292, 426.250000, 93.692155, 403.750000, 93.692155, 397.500000, 98.941292" fill="rgb(178, 34, 34)" style="fill-opacity:1.00" />
<polygon points=" 415.000000, 82.144055, 407.000000, 89.542673, 422.000000, 89.542673" fill="rgb(255, 255, 255)" style="fill-opacity:1.00" />
<!-- End 'A' -->
<!-- Begin 'T' -->
<rect height="1.116333" width="50.000000" x="390.000000" y="98.941292" fill="rgb(0, 100, 0)" style="fill-opacity:1.00" />
<rect height="6.977082" width="10.000000" x="410.000000" y="98.941292" fill="rgb(0, 100, 0)" style="fill-opacity:1.00" />
<!-- End 'T' -->
<!-- Begin 'G' -->
<ellipse cx="415.000000" cy="107.465324" rx="25.000000" ry="1.546950" fill="rgb(255, 165, 0)" style="fill-opacity:1.00" />
<ellipse cx="415.000000" cy="107.465324" rx="16.666667" ry="1.031300" fill="rgb(255, 255, 255)" style="fill-opacity:1.00" />
<rect height="1.546950" width="25.000000" x="415.000000" y="106.691849" fill="rgb(255, 255, 255)" style="fill-opacity:1.00" />
<rect height="0.386738" width="25.000000" x="415.000000" y="107.852061" fill="rgb(255, 165, 0)" style="fill-opacity:1.00" />
<rect height="1.160213" width="6.250000" x="433.750000" y="107.852061" fill="rgb(255, 165, 0)" style="fill-opacity:1.00" />
<!-- End 'G' -->
<!-- Begin 'C' -->
<ellipse cx="415.000000" cy="109.506137" rx="25.000000" ry="0.493863" fill="rgb(0, 0, 128)" style="fill-opacity:1.00" />
<ellipse cx="415.000000" cy="109.506137" rx="16.666667" ry="0.329242" fill="rgb(255, 255, 255)" style="fill-opacity:1.00" />
<rect height="0.493863" width="25.000000" x="415.000000" y="109.259206" fill="rgb(255, 255, 255)" style="fill-opacity:1.00" />
<!-- End 'C' -->
<!-- Begin 'A' -->
<polygon points=" 450.000000, 106.681410, 471.000000, 23.882578, 479.000000, 23.882578, 500.000000, 106.681410, 492.500000, 106.681410, 486.250000, 85.981702, 463.750000, 85.981702, 457.500000, 106.681410" fill="rgb(178, 34, 34)" style="fill-opacity:1.00" />
<polygon points=" 475.000000, 40.442344, 467.000000, 72.561877, 482.000000, 72.561877" fill="rgb(255, 255, 255)" style="fill-opacity:1.00" />
<!-- End 'A' -->
<!-- Begin 'G' -->
<ellipse cx="475.000000" cy="107.772292" rx="25.000000" ry="1.090882" fill="rgb(255, 165, 0)" style="fill-opacity:1.00" />
<ellipse cx="475.000000" cy="107.772292" rx="16.666667" ry="0.727254" fill="rgb(255, 255, 255)" style="fill-opacity:1.00" />
<rect height="1.090882" width="25.000000" x="475.000000" y="107.226851" fill="rgb(255, 255, 255)" style="fill-opacity:1.00" />
<rect height="0.272720" width="25.000000" x="475.000000" y="108.045012" fill="rgb(255, 165, 0)" style="fill-opacity:1.00" />
<rect height="0.818161" width="6.250000" x="493.750000" y="108.045012" fill="rgb(255, 165, 0)" style="fill-opacity:1.00" />
<!-- End 'G' -->
<!-- Begin 'T' -->
<rect height="0.162864" width="50.000000" x="450.000000" y="108.863174" fill="rgb(0, 100, 0)" style="fill-opacity:1.00" />
<rect height="1.017899" width="10.000000" x="470.000000" y="108.863174" fill="rgb(0, 100, 0)" style="fill-opacity:1.00" />
<!-- End 'T' -->
<!-- Begin 'C' -->
<ellipse cx="475.000000" cy="109.940536" rx="25.000000" ry="0.059464" fill="rgb(0, 0, 128)" style="fill-opacity:1.00" />
<ellipse cx="475.000000" cy="109.940536" rx="16.666667" ry="0.039643" fill="rgb(255, 255, 255)" style="fill-opacity:1.00" />
<rect height="0.059464" width="25.000000" x="475.000000" y="109.910804" fill="rgb(255, 255, 255)" style="fill-opacity:1.00" />
<!-- End 'C' -->
<!-- Begin 'A' -->
<polygon points=" 510.000000, 99.882042, 531.000000, 75.728885, 539.000000, 75.728885, 560.000000, 99.882042, 552.500000, 99.882042, 546.250000, 93.843753, 523.750000, 93.843753, 517.500000, 99.882042" fill="rgb(178, 34, 34)" style="fill-opacity:1.00" />
<polygon points=" 535.000000, 80.559517, 527.000000, 89.220780, 542.000000, 89.220780" fill="rgb(255, 255, 255)" style="fill-opacity:1.00" />
<!-- End 'A' -->
<!-- Begin 'T' -->
<rect height="0.688702" width="50.000000" x="510.000000" y="99.882042" fill="rgb(0, 100, 0)" style="fill-opacity:1.00" />
<rect height="4.304390" width="10.000000" x="530.000000" y="99.882042" fill="rgb(0, 100, 0)" style="fill-opacity:1.00" />
<!-- End 'T' -->
<!-- Begin 'C' -->
<ellipse cx="535.000000" cy="106.232028" rx="25.000000" ry="2.045596" fill="rgb(0, 0, 128)" style="fill-opacity:1.00" />
<ellipse cx="535.000000" cy="106.232028" rx="16.666667" ry="1.363731" fill="rgb(255, 255, 255)" style="fill-opacity:1.00" />
<rect height="2.045596" width="25.000000" x="535.000000" y="105.209230" fill="rgb(255, 255, 255)" style="fill-opacity:1.00" />
<!-- End 'C' -->
<!-- Begin 'G' -->
<ellipse cx="535.000000" cy="109.138812" rx="25.000000" ry="0.861188" fill="rgb(255, 165, 0)" style="fill-opacity:1.00" />
<ellipse cx="535.000000" cy="109.138812" rx="16.666667" ry="0.574125" fill="rgb(255, 255, 255)" style="fill-opacity:1.00" />
<rect height="0.861188" width="25.000000" x="535.000000" y="108.708219" fill="rgb(255, 255, 255)" style="fill-opacity:1.00" />
<rect height="0.215297" width="25.000000" x="535.000000" y="109.354109" fill="rgb(255, 165, 0)" style="fill-opacity:1.00" />
<rect height="0.645891" width="6.250000" x="553.750000" y="109.354109" fill="rgb(255, 165, 0)" style="fill-opacity:1.00" />
<!-- End 'G' -->
<!-- Begin 'A' -->
<polygon points=" 570.000000, 96.753116, 591.000000, 79.456038, 599.000000, 79.456038, 620.000000, 96.753116, 612.500000, 96.753116, 606.250000, 92.428847, 583.750000, 92.428847, 577.500000, 96.753116" fill="rgb(178, 34, 34)" style="fill-opacity:1.00" />
<polygon points=" 595.000000, 82.915454, 587.000000, 88.834285, 602.000000, 88.834285" fill="rgb(255, 255, 255)" style="fill-opacity:1.00" />
<!-- End 'A' -->
<!-- Begin 'T' -->
<rect height="1.677688" width="50.000000" x="570.000000" y="96.753116" fill="rgb(0, 100, 0)" style="fill-opacity:1.00" />
<rect height="10.485549" width="10.000000" x="590.000000" y="96.753116" fill="rgb(0, 100, 0)" style="fill-opacity:1.00" />
<!-- End 'T' -->
<!-- Begin 'G' -->
<ellipse cx="595.000000" cy="108.180465" rx="25.000000" ry="0.941800" fill="rgb(255, 165, 0)" style="fill-opacity:1.00" />
<ellipse cx="595.000000" cy="108.180465" rx="16.666667" ry="0.627867" fill="rgb(255, 255, 255)" style="fill-opacity:1.00" />
<rect height="0.941800" width="25.000000" x="595.000000" y="107.709565" fill="rgb(255, 255, 255)" style="fill-opacity:1.00" />
<rect height="0.235450" width="25.000000" x="595.000000" y="108.415915" fill="rgb(255, 165, 0)" style="fill-opacity:1.00" />
<rect height="0.706350" width="6.250000" x="613.750000" y="108.415915" fill="rgb(255, 165, 0)" style="fill-opacity:1.00" />
<!-- End 'G' -->
<!-- Begin 'C' -->
<ellipse cx="595.000000" cy="109.561133" rx="25.000000" ry="0.438867" fill="rgb(0, 0, 128)" style="fill-opacity:1.00" />
<ellipse cx="595.000000" cy="109.561133" rx="16.666667" ry="0.292578" fill="rgb(255, 255, 255)" style="fill-opacity:1.00" />
<rect height="0.438867" width="25.000000" x="595.000000" y="109.341699" fill="rgb(255, 255, 255)" style="fill-opacity:1.00" />
<!-- End 'C' -->
<!-- Begin 'A' -->
<polygon points=" 630.000000, 102.430360, 651.000000, 95.065762, 659.000000, 95.065762, 680.000000, 102.430360, 672.500000, 102.430360, 666.250000, 100.589211, 643.750000, 100.589211, 637.500000, 102.430360" fill="rgb(178, 34, 34)" style="fill-opacity:1.00" />
<!-- End 'A' -->
<!-- Begin 'T' -->
<rect height="0.694049" width="50.000000" x="630.000000" y="102.430360" fill="rgb(0, 100, 0)" style="fill-opacity:1.00" />
<rect height="4.337809" width="10.000000" x="650.000000" y="102.430360" fill="rgb(0, 100, 0)" style="fill-opacity:1.00" />
<!-- End 'T' -->
<!-- Begin 'G' -->
<ellipse cx="655.000000" cy="107.816133" rx="25.000000" ry="1.047964" fill="rgb(255, 165, 0)" style="fill-opacity:1.00" />
<ellipse cx="655.000000" cy="107.816133" rx="16.666667" ry="0.698643" fill="rgb(255, 255, 255)" style="fill-opacity:1.00" />
<rect height="1.047964" width="25.000000" x="655.000000" y="107.292151" fill="rgb(255, 255, 255)" style="fill-opacity:1.00" />
<rect height="0.261991" width="25.000000" x="655.000000" y="108.078124" fill="rgb(255, 165, 0)" style="fill-opacity:1.00" />
<rect height="0.785973" width="6.250000" x="673.750000" y="108.078124" fill="rgb(255, 165, 0)" style="fill-opacity:1.00" />
<!-- End 'G' -->
<!-- Begin 'C' -->
<ellipse cx="655.000000" cy="109.432048" rx="25.000000" ry="0.567952" fill="rgb(0, 0, 128)" style="fill-opacity:1.00" />
<ellipse cx="655.000000" cy="109.432048" rx="16.666667" ry="0.378634" fill="rgb(255, 255, 255)" style="fill-opacity:1.00" />
<rect height="0.567952" width="25.000000" x="655.000000" y="109.148073" fill="rgb(255, 255, 255)" style="fill-opacity:1.00" />
<!-- End 'C' -->
<!-- Begin 'T' -->
<rect height="0.619936" width="50.000000" x="690.000000" y="100.664889" fill="rgb(0, 100, 0)" style="fill-opacity:1.00" />
<rect height="3.874602" width="10.000000" x="710.000000" y="100.664889" fill="rgb(0, 100, 0)" style="fill-opacity:1.00" />
<!-- End 'T' -->
<!-- Begin 'A' -->
<polygon points=" 690.000000, 107.577064, 711.000000, 104.539491, 719.000000, 104.539491, 740.000000, 107.577064, 732.500000, 107.577064, 726.250000, 106.817671, 703.750000, 106.817671, 697.500000, 107.577064" fill="rgb(178, 34, 34)" style="fill-opacity:1.00" />
<!-- End 'A' -->
<!-- Begin 'C' -->
<ellipse cx="715.000000" cy="108.280760" rx="25.000000" ry="0.703696" fill="rgb(0, 0, 128)" style="fill-opacity:1.00" />
<ellipse cx="715.000000" cy="108.280760" rx="16.666667" ry="0.469131" fill="rgb(255, 255, 255)" style="fill-opacity:1.00" />
<rect height="0.703696" width="25.000000" x="715.000000" y="107.928912" fill="rgb(255, 255, 255)" style="fill-opacity:1.00" />
<!-- End 'C' -->
<!-- Begin 'G' -->
<ellipse cx="715.000000" cy="109.492228" rx="25.000000" ry="0.507772" fill="rgb(255, 165, 0)" style="fill-opacity:1.00" />
<ellipse cx="715.000000" cy="109.492228" rx="16.666667" ry="0.338515" fill="rgb(255, 255, 255)" style="fill-opacity:1.00" />
<rect height="0.507772" width="25.000000" x="715.000000" y="109.238342" fill="rgb(255, 255, 255)" style="fill-opacity:1.00" />
<rect height="0.126943" width="25.000000" x="715.000000" y="109.619171" fill="rgb(255, 165, 0)" style="fill-opacity:1.00" />
<rect height="0.380829" width="6.250000" x="733.750000" y="109.619171" fill="rgb(255, 165, 0)" style="fill-opacity:1.00" />
<!-- End 'G' -->
<!-- Begin 'T' -->
<rect height="0.299438" width="50.000000" x="750.000000" y="104.782808" fill="rgb(0, 100, 0)" style="fill-opacity:1.00" />
<rect height="1.871489" width="10.000000" x="770.000000" y="104.782808" fill="rgb(0, 100, 0)" style="fill-opacity:1.00" />
<!-- End 'T' -->
<!-- Begin 'A' -->
<polygon points=" 750.000000, 108.292610, 771.000000, 106.654296, 779.000000, 106.654296, 800.000000, 108.292610, 792.500000, 108.292610, 786.250000, 107.883032, 763.750000, 107.883032, 757.500000, 108.292610" fill="rgb(178, 34, 34)" style="fill-opacity:1.00" />
<!-- End 'A' -->
<!-- Begin 'G' -->
<ellipse cx="775.000000" cy="108.823998" rx="25.000000" ry="0.531388" fill="rgb(255, 165, 0)" style="fill-opacity:1.00" />
<ellipse cx="775.000000" cy="108.823998" rx="16.666667" ry="0.354258" fill="rgb(255, 255, 255)" style="fill-opacity:1.00" />
<rect height="0.531388" width="25.000000" x="775.000000" y="108.558304" fill="rgb(255, 255, 255)" style="fill-opacity:1.00" />
<rect height="0.132847" width="25.000000" x="775.000000" y="108.956845" fill="rgb(255, 165, 0)" style="fill-opacity:1.00" />
<rect height="0.398541" width="6.250000" x="793.750000" y="108.956845" fill="rgb(255, 165, 0)" style="fill-opacity:1.00" />
<!-- End 'G' -->
<!-- Begin 'C' -->
<ellipse cx="775.000000" cy="109.677693" rx="25.000000" ry="0.322307" fill="rgb(0, 0, 128)" style="fill-opacity:1.00" />
<ellipse cx="775.000000" cy="109.677693" rx="16.666667" ry="0.214871" fill="rgb(255, 255, 255)" style="fill-opacity:1.00" />
<rect height="0.322307" width="25.000000" x="775.000000" y="109.516539" fill="rgb(255, 255, 255)" style="fill-opacity:1.00" />
<!-- End 'C' -->
<!-- Begin 'A' -->
<polygon points=" 810.000000, 107.160877, 831.000000, 105.725971, 839.000000, 105.725971, 860.000000, 107.160877, 852.500000, 107.160877, 846.250000, 106.802151, 823.750000, 106.802151, 817.500000, 107.160877" fill="rgb(178, 34, 34)" style="fill-opacity:1.00" />
<!-- End 'A' -->
<!-- Begin 'T' -->
<rect height="0.225850" width="50.000000" x="810.000000" y="107.160877" fill="rgb(0, 100, 0)" style="fill-opacity:1.00" />
<rect height="1.411564" width="10.000000" x="830.000000" y="107.160877" fill="rgb(0, 100, 0)" style="fill-opacity:1.00" />
<!-- End 'T' -->
<!-- Begin 'G' -->
<ellipse cx="835.000000" cy="108.977579" rx="25.000000" ry="0.405138" fill="rgb(255, 165, 0)" style="fill-opacity:1.00" />
<ellipse cx="835.000000" cy="108.977579" rx="16.666667" ry="0.270092" fill="rgb(255, 255, 255)" style="fill-opacity:1.00" />
<rect height="0.405138" width="25.000000" x="835.000000" y="108.775010" fill="rgb(255, 255, 255)" style="fill-opacity:1.00" />
<rect height="0.101284" width="25.000000" x="835.000000" y="109.078864" fill="rgb(255, 165, 0)" style="fill-opacity:1.00" />
<rect height="0.303853" width="6.250000" x="853.750000" y="109.078864" fill="rgb(255, 165, 0)" style="fill-opacity:1.00" />
<!-- End 'G' -->
<!-- Begin 'C' -->
<ellipse cx="835.000000" cy="109.691359" rx="25.000000" ry="0.308641" fill="rgb(0, 0, 128)" style="fill-opacity:1.00" />
<ellipse cx="835.000000" cy="109.691359" rx="16.666667" ry="0.205761" fill="rgb(255, 255, 255)" style="fill-opacity:1.00" />
<rect height="0.308641" width="25.000000" x="835.000000" y="109.537038" fill="rgb(255, 255, 255)" style="fill-opacity:1.00" />
<!-- End 'C' -->
<!-- Begin 'A' -->
<polygon points=" 870.000000, 107.538566, 891.000000, 106.289739, 899.000000, 106.289739, 920.000000, 107.538566, 912.500000, 107.538566, 906.250000, 107.226359, 883.750000, 107.226359, 877.500000, 107.538566" fill="rgb(178, 34, 34)" style="fill-opacity:1.00" />
<!-- End 'A' -->
<!-- Begin 'T' -->
<rect height="0.183857" width="50.000000" x="870.000000" y="107.538566" fill="rgb(0, 100, 0)" style="fill-opacity:1.00" />
<rect height="1.149107" width="10.000000" x="890.000000" y="107.538566" fill="rgb(0, 100, 0)" style="fill-opacity:1.00" />
<!-- End 'T' -->
<!-- Begin 'G' -->
<ellipse cx="895.000000" cy="109.082798" rx="25.000000" ry="0.395124" fill="rgb(255, 165, 0)" style="fill-opacity:1.00" />
<ellipse cx="895.000000" cy="109.082798" rx="16.666667" ry="0.263416" fill="rgb(255, 255, 255)" style="fill-opacity:1.00" />
<rect height="0.395124" width="25.000000" x="895.000000" y="108.885235" fill="rgb(255, 255, 255)" style="fill-opacity:1.00" />
<rect height="0.098781" width="25.000000" x="895.000000" y="109.181579" fill="rgb(255, 165, 0)" style="fill-opacity:1.00" />
<rect height="0.296343" width="6.250000" x="913.750000" y="109.181579" fill="rgb(255, 165, 0)" style="fill-opacity:1.00" />
<!-- End 'G' -->
<!-- Begin 'C' -->
<ellipse cx="895.000000" cy="109.738961" rx="25.000000" ry="0.261039" fill="rgb(0, 0, 128)" style="fill-opacity:1.00" />
<ellipse cx="895.000000" cy="109.738961" rx="16.666667" ry="0.174026" fill="rgb(255, 255, 255)" style="fill-opacity:1.00" />
<rect height="0.261039" width="25.000000" x="895.000000" y="109.608441" fill="rgb(255, 255, 255)" style="fill-opacity:1.00" />
<!-- End 'C' -->
<!-- Begin 'A' -->
<polygon points=" 930.000000, 103.629940, 951.000000, 99.159634, 959.000000, 99.159634, 980.000000, 103.629940, 972.500000, 103.629940, 966.250000, 102.512364, 943.750000, 102.512364, 937.500000, 103.629940" fill="rgb(178, 34, 34)" style="fill-opacity:1.00" />
<!-- End 'A' -->
<!-- Begin 'T' -->
<rect height="0.608609" width="50.000000" x="930.000000" y="103.629940" fill="rgb(0, 100, 0)" style="fill-opacity:1.00" />
<rect height="3.803807" width="10.000000" x="950.000000" y="103.629940" fill="rgb(0, 100, 0)" style="fill-opacity:1.00" />
<!-- End 'T' -->
<!-- Begin 'G' -->
<ellipse cx="955.000000" cy="108.157246" rx="25.000000" ry="0.723499" fill="rgb(255, 165, 0)" style="fill-opacity:1.00" />
<ellipse cx="955.000000" cy="108.157246" rx="16.666667" ry="0.482333" fill="rgb(255, 255, 255)" style="fill-opacity:1.00" />
<rect height="0.723499" width="25.000000" x="955.000000" y="107.795497" fill="rgb(255, 255, 255)" style="fill-opacity:1.00" />
<rect height="0.180875" width="25.000000" x="955.000000" y="108.338121" fill="rgb(255, 165, 0)" style="fill-opacity:1.00" />
<rect height="0.542624" width="6.250000" x="973.750000" y="108.338121" fill="rgb(255, 165, 0)" style="fill-opacity:1.00" />
<!-- End 'G' -->
<!-- Begin 'C' -->
<ellipse cx="955.000000" cy="109.440373" rx="25.000000" ry="0.559627" fill="rgb(0, 0, 128)" style="fill-opacity:1.00" />
<ellipse cx="955.000000" cy="109.440373" rx="16.666667" ry="0.373085" fill="rgb(255, 255, 255)" style="fill-opacity:1.00" />
<rect height="0.559627" width="25.000000" x="955.000000" y="109.160559" fill="rgb(255, 255, 255)" style="fill-opacity:1.00" />
<!-- End 'C' -->
<!-- Begin 'A' -->
<polygon points=" 990.000000, 102.471642, 1011.000000, 97.129809, 1019.000000, 97.129809, 1040.000000, 102.471642, 1032.500000, 102.471642, 1026.250000, 101.136184, 1003.750000, 101.136184, 997.500000, 102.471642" fill="rgb(178, 34, 34)" style="fill-opacity:1.00" />
<!-- End 'A' -->
<!-- Begin 'T' -->
<rect height="0.769055" width="50.000000" x="990.000000" y="102.471642" fill="rgb(0, 100, 0)" style="fill-opacity:1.00" />
<rect height="4.806591" width="10.000000" x="1010.000000" y="102.471642" fill="rgb(0, 100, 0)" style="fill-opacity:1.00" />
<!-- End 'T' -->
<!-- Begin 'G' -->
<ellipse cx="1015.000000" cy="107.977752" rx="25.000000" ry="0.699518" fill="rgb(255, 165, 0)" style="fill-opacity:1.00" />
<ellipse cx="1015.000000" cy="107.977752" rx="16.666667" ry="0.466346" fill="rgb(255, 255, 255)" style="fill-opacity:1.00" />
<rect height="0.699518" width="25.000000" x="1015.000000" y="107.627993" fill="rgb(255, 255, 255)" style="fill-opacity:1.00" />
<rect height="0.174880" width="25.000000" x="1015.000000" y="108.152631" fill="rgb(255, 165, 0)" style="fill-opacity:1.00" />
<rect height="0.524639" width="6.250000" x="1033.750000" y="108.152631" fill="rgb(255, 165, 0)" style="fill-opacity:1.00" />
<!-- End 'G' -->
<!-- Begin 'C' -->
<ellipse cx="1015.000000" cy="109.338635" rx="25.000000" ry="0.661365" fill="rgb(0, 0, 128)" style="fill-opacity:1.00" />
<ellipse cx="1015.000000" cy="109.338635" rx="16.666667" ry="0.440910" fill="rgb(255, 255, 255)" style="fill-opacity:1.00" />
<rect height="0.661365" width="25.000000" x="1015.000000" y="109.007953" fill="rgb(255, 255, 255)" style="fill-opacity:1.00" />
<!-- End 'C' -->
<text x="550.000000" y="165">
IC = 8.70
</text>

</svg>
