<?xml version="1.0" encoding="UTF-8" standalone="yes"?>
                 <!DOCTYPE svg PUBLIC "-//W3C//DTD SVG 1.0//EN" "http://www.w3.org/TR/2001/REC-SVG-20010904/DTD/svg10.dtd">
                 <svg height="170" width="1080" xmlns="http://www.w3.org/2000/svg" xmlns:xlink="http://www.w3.org/1999/xlink">
                 <line x1="85" y1="120" x2="1047" y2="120" style="stroke:rgb(99,99,99);stroke-width:2" />
<rect height="7.000000" width="2.000000" x="85.000000" y="120.000000" fill="rgb(0, 0, 0)" style="fill-opacity:1.00" />
<text x="107.000000" y="140">
1
</text>
<rect height="7.000000" width="2.000000" x="145.000000" y="120.000000" fill="rgb(0, 0, 0)" style="fill-opacity:1.00" />
<text x="167.000000" y="140">
2
</text>
<rect height="7.000000" width="2.000000" x="205.000000" y="120.000000" fill="rgb(0, 0, 0)" style="fill-opacity:1.00" />
<text x="227.000000" y="140">
3
</text>
<rect height="7.000000" width="2.000000" x="265.000000" y="120.000000" fill="rgb(0, 0, 0)" style="fill-opacity:1.00" />
<text x="287.000000" y="140">
4
</text>
<rect height="7.000000" width="2.000000" x="325.000000" y="120.000000" fill="rgb(0, 0, 0)" style="fill-opacity:1.00" />
<text x="347.000000" y="140">
5
</text>
<rect height="7.000000" width="2.000000" x="385.000000" y="120.000000" fill="rgb(0, 0, 0)" style="fill-opacity:1.00" />
<text x="407.000000" y="140">
6
</text>
<rect height="7.000000" width="2.000000" x="445.000000" y="120.000000" fill="rgb(0, 0, 0)" style="fill-opacity:1.00" />
<text x="467.000000" y="140">
7
</text>
<rect height="7.000000" width="2.000000" x="505.000000" y="120.000000" fill="rgb(0, 0, 0)" style="fill-opacity:1.00" />
<text x="527.000000" y="140">
8
</text>
<rect height="7.000000" width="2.000000" x="565.000000" y="120.000000" fill="rgb(0, 0, 0)" style="fill-opacity:1.00" />
<text x="587.000000" y="140">
9
</text>
<rect height="7.000000" width="2.000000" x="625.000000" y="120.000000" fill="rgb(0, 0, 0)" style="fill-opacity:1.00" />
<text x="647.000000" y="140">
10
</text>
<rect height="7.000000" width="2.000000" x="685.000000" y="120.000000" fill="rgb(0, 0, 0)" style="fill-opacity:1.00" />
<text x="707.000000" y="140">
11
</text>
<rect height="7.000000" width="2.000000" x="745.000000" y="120.000000" fill="rgb(0, 0, 0)" style="fill-opacity:1.00" />
<text x="767.000000" y="140">
12
</text>
<rect height="7.000000" width="2.000000" x="805.000000" y="120.000000" fill="rgb(0, 0, 0)" style="fill-opacity:1.00" />
<text x="827.000000" y="140">
13
</text>
<rect height="7.000000" width="2.000000" x="865.000000" y="120.000000" fill="rgb(0, 0, 0)" style="fill-opacity:1.00" />
<text x="887.000000" y="140">
14
</text>
<rect height="7.000000" width="2.000000" x="925.000000" y="120.000000" fill="rgb(0, 0, 0)" style="fill-opacity:1.00" />
<text x="947.000000" y="140">
15
</text>
<rect height="7.000000" width="2.000000" x="985.000000" y="120.000000" fill="rgb(0, 0, 0)" style="fill-opacity:1.00" />
<text x="1007.000000" y="140">
16
</text>
<rect height="7.000000" width="2.000000" x="1045.000000" y="120.000000" fill="rgb(0, 0, 0)" style="fill-opacity:1.00" />
<line x1="80" y1="112" x2="80" y2="10" style="stroke:rgb(99,99,99);stroke-width:2" />
<rect height="2.000000" width="7.000000" x="73.000000" y="110.000000" fill="rgb(0, 0, 0)" style="fill-opacity:1.00" />
<text x="63" y="115">
0
</text>
<rect height="2.000000" width="7.000000" x="73.000000" y="60.000000" fill="rgb(0, 0, 0)" style="fill-opacity:1.00" />
<text x="63" y="65">
1
</text>
<rect height="2.000000" width="7.000000" x="73.000000" y="10.000000" fill="rgb(0, 0, 0)" style="fill-opacity:1.00" />
<text x="63" y="15">
2
</text>
<text x="50" y="65"
transform="rotate(-90, 50, 70)">
bits
</text>
<!-- Begin 'A' -->
<polygon points=" 90.000000, 102.609671, 111.000000, 94.327169, 119.000000, 94.327169, 140.000000, 102.609671, 132.500000, 102.609671, 126.250000, 100.539046, 103.750000, 100.539046, 97.500000, 102.609671" fill="rgb(178, 34, 34)" style="fill-opacity:1.00" />
<polygon points=" 115.000000, 95.983669, 107.000000, 98.296670, 122.000000, 98.296670" fill="rgb(255, 255, 255)" style="fill-opacity:1.00" />
<!-- End 'A' -->
<!-- Begin 'G' -->
<ellipse cx="115.000000" cy="104.332880" rx="25.000000" ry="1.723208" fill="rgb(255, 165, 0)" style="fill-opacity:1.00" />
<ellipse cx="115.000000" cy="104.332880" rx="16.666667" ry="1.148806" fill="rgb(255, 255, 255)" style="fill-opacity:1.00" />
<rect height="1.723208" width="25.000000" x="115.000000" y="103.471275" fill="rgb(255, 255, 255)" style="fill-opacity:1.00" />
<rect height="0.430802" width="25.000000" x="115.000000" y="104.763682" fill="rgb(255, 165, 0)" style="fill-opacity:1.00" />
<rect height="1.292406" width="6.250000" x="133.750000" y="104.763682" fill="rgb(255, 165, 0)" style="fill-opacity:1.00" />
<!-- End 'G' -->
<!-- Begin 'T' -->
<rect height="0.447480" width="50.000000" x="90.000000" y="106.056088" fill="rgb(0, 100, 0)" style="fill-opacity:1.00" />
<rect height="2.796747" width="10.000000" x="110.000000" y="106.056088" fill="rgb(0, 100, 0)" style="fill-opacity:1.00" />
<!-- End 'T' -->
<!-- Begin 'C' -->
<ellipse cx="115.000000" cy="109.426418" rx="25.000000" ry="0.573582" fill="rgb(0, 0, 128)" style="fill-opacity:1.00" />
<ellipse cx="115.000000" cy="109.426418" rx="16.666667" ry="0.382388" fill="rgb(255, 255, 255)" style="fill-opacity:1.00" />
<rect height="0.573582" width="25.000000" x="115.000000" y="109.139627" fill="rgb(255, 255, 255)" style="fill-opacity:1.00" />
<!-- End 'C' -->
<!-- Begin 'C' -->
<ellipse cx="175.000000" cy="102.722485" rx="25.000000" ry="2.109629" fill="rgb(0, 0, 128)" style="fill-opacity:1.00" />
<ellipse cx="175.000000" cy="102.722485" rx="16.666667" ry="1.406419" fill="rgb(255, 255, 255)" style="fill-opacity:1.00" />
<rect height="2.109629" width="25.000000" x="175.000000" y="101.667671" fill="rgb(255, 255, 255)" style="fill-opacity:1.00" />
<!-- End 'C' -->
<!-- Begin 'A' -->
<polygon points=" 150.000000, 107.023060, 171.000000, 104.832113, 179.000000, 104.832113, 200.000000, 107.023060, 192.500000, 107.023060, 186.250000, 106.475323, 163.750000, 106.475323, 157.500000, 107.023060" fill="rgb(178, 34, 34)" style="fill-opacity:1.00" />
<!-- End 'A' -->
<!-- Begin 'T' -->
<rect height="0.334823" width="50.000000" x="150.000000" y="107.023060" fill="rgb(0, 100, 0)" style="fill-opacity:1.00" />
<rect height="2.092641" width="10.000000" x="170.000000" y="107.023060" fill="rgb(0, 100, 0)" style="fill-opacity:1.00" />
<!-- End 'T' -->
<!-- Begin 'G' -->
<ellipse cx="175.000000" cy="109.557850" rx="25.000000" ry="0.442150" fill="rgb(255, 165, 0)" style="fill-opacity:1.00" />
<ellipse cx="175.000000" cy="109.557850" rx="16.666667" ry="0.294767" fill="rgb(255, 255, 255)" style="fill-opacity:1.00" />
<rect height="0.442150" width="25.000000" x="175.000000" y="109.336775" fill="rgb(255, 255, 255)" style="fill-opacity:1.00" />
<rect height="0.110537" width="25.000000" x="175.000000" y="109.668388" fill="rgb(255, 165, 0)" style="fill-opacity:1.00" />
<rect height="0.331612" width="6.250000" x="193.750000" y="109.668388" fill="rgb(255, 165, 0)" style="fill-opacity:1.00" />
<!-- End 'G' -->
<!-- Begin 'G' -->
<ellipse cx="235.000000" cy="98.360125" rx="25.000000" ry="3.879139" fill="rgb(255, 165, 0)" style="fill-opacity:1.00" />
<ellipse cx="235.000000" cy="98.360125" rx="16.666667" ry="2.586093" fill="rgb(255, 255, 255)" style="fill-opacity:1.00" />
<rect height="3.879139" width="25.000000" x="235.000000" y="96.420555" fill="rgb(255, 255, 255)" style="fill-opacity:1.00" />
<rect height="0.969785" width="25.000000" x="235.000000" y="99.329910" fill="rgb(255, 165, 0)" style="fill-opacity:1.00" />
<rect height="2.909355" width="6.250000" x="253.750000" y="99.329910" fill="rgb(255, 165, 0)" style="fill-opacity:1.00" />
<!-- End 'G' -->
<!-- Begin 'A' -->
<polygon points=" 210.000000, 106.852439, 231.000000, 102.239265, 239.000000, 102.239265, 260.000000, 106.852439, 252.500000, 106.852439, 246.250000, 105.699145, 223.750000, 105.699145, 217.500000, 106.852439" fill="rgb(178, 34, 34)" style="fill-opacity:1.00" />
<!-- End 'A' -->
<!-- Begin 'T' -->
<rect height="0.263875" width="50.000000" x="210.000000" y="106.852439" fill="rgb(0, 100, 0)" style="fill-opacity:1.00" />
<rect height="1.649220" width="10.000000" x="230.000000" y="106.852439" fill="rgb(0, 100, 0)" style="fill-opacity:1.00" />
<!-- End 'T' -->
<!-- Begin 'C' -->
<ellipse cx="235.000000" cy="109.250829" rx="25.000000" ry="0.749171" fill="rgb(0, 0, 128)" style="fill-opacity:1.00" />
<ellipse cx="235.000000" cy="109.250829" rx="16.666667" ry="0.499447" fill="rgb(255, 255, 255)" style="fill-opacity:1.00" />
<rect height="0.749171" width="25.000000" x="235.000000" y="108.876244" fill="rgb(255, 255, 255)" style="fill-opacity:1.00" />
<!-- End 'C' -->
<!-- Begin 'G' -->
<ellipse cx="295.000000" cy="64.587155" rx="25.000000" ry="42.585334" fill="rgb(255, 165, 0)" style="fill-opacity:1.00" />
<ellipse cx="295.000000" cy="64.587155" rx="16.666667" ry="28.390223" fill="rgb(255, 255, 255)" style="fill-opacity:1.00" />
<rect height="42.585334" width="25.000000" x="295.000000" y="43.294487" fill="rgb(255, 255, 255)" style="fill-opacity:1.00" />
<rect height="10.646334" width="25.000000" x="295.000000" y="75.233488" fill="rgb(255, 165, 0)" style="fill-opacity:1.00" />
<rect height="31.939001" width="6.250000" x="313.750000" y="75.233488" fill="rgb(255, 165, 0)" style="fill-opacity:1.00" />
<!-- End 'G' -->
<!-- Begin 'A' -->
<polygon points=" 270.000000, 109.171995, 291.000000, 107.172489, 299.000000, 107.172489, 320.000000, 109.171995, 312.500000, 109.171995, 306.250000, 108.672119, 283.750000, 108.672119, 277.500000, 109.171995" fill="rgb(178, 34, 34)" style="fill-opacity:1.00" />
<!-- End 'A' -->
<!-- Begin 'C' -->
<ellipse cx="295.000000" cy="109.497704" rx="25.000000" ry="0.325708" fill="rgb(0, 0, 128)" style="fill-opacity:1.00" />
<ellipse cx="295.000000" cy="109.497704" rx="16.666667" ry="0.217139" fill="rgb(255, 255, 255)" style="fill-opacity:1.00" />
<rect height="0.325708" width="25.000000" x="295.000000" y="109.334849" fill="rgb(255, 255, 255)" style="fill-opacity:1.00" />
<!-- End 'C' -->
<!-- Begin 'T' -->
<rect height="0.028254" width="50.000000" x="270.000000" y="109.823412" fill="rgb(0, 100, 0)" style="fill-opacity:1.00" />
<rect height="0.176588" width="10.000000" x="290.000000" y="109.823412" fill="rgb(0, 100, 0)" style="fill-opacity:1.00" />
<!-- End 'T' -->
<!-- Begin 'T' -->
<rect height="9.234674" width="50.000000" x="330.000000" y="44.736872" fill="rgb(0, 100, 0)" style="fill-opacity:1.00" />
<rect height="57.716713" width="10.000000" x="350.000000" y="44.736872" fill="rgb(0, 100, 0)" style="fill-opacity:1.00" />
<!-- End 'T' -->
<!-- Begin 'A' -->
<polygon points=" 330.000000, 105.841244, 351.000000, 102.453585, 359.000000, 102.453585, 380.000000, 105.841244, 372.500000, 105.841244, 366.250000, 104.994329, 343.750000, 104.994329, 337.500000, 105.841244" fill="rgb(178, 34, 34)" style="fill-opacity:1.00" />
<!-- End 'A' -->
<!-- Begin 'C' -->
<ellipse cx="355.000000" cy="106.979417" rx="25.000000" ry="1.138173" fill="rgb(0, 0, 128)" style="fill-opacity:1.00" />
<ellipse cx="355.000000" cy="106.979417" rx="16.666667" ry="0.758782" fill="rgb(255, 255, 255)" style="fill-opacity:1.00" />
<rect height="1.138173" width="25.000000" x="355.000000" y="106.410331" fill="rgb(255, 255, 255)" style="fill-opacity:1.00" />
<!-- End 'C' -->
<!-- Begin 'G' -->
<ellipse cx="355.000000" cy="109.058795" rx="25.000000" ry="0.941205" fill="rgb(255, 165, 0)" style="fill-opacity:1.00" />
<ellipse cx="355.000000" cy="109.058795" rx="16.666667" ry="0.627470" fill="rgb(255, 255, 255)" style="fill-opacity:1.00" />
<rect height="0.941205" width="25.000000" x="355.000000" y="108.588193" fill="rgb(255, 255, 255)" style="fill-opacity:1.00" />
<rect height="0.235301" width="25.000000" x="355.000000" y="109.294096" fill="rgb(255, 165, 0)" style="fill-opacity:1.00" />
<rect height="0.705904" width="6.250000" x="373.750000" y="109.294096" fill="rgb(255, 165, 0)" style="fill-opacity:1.00" />
<!-- End 'G' -->
<!-- Begin 'A' -->
<polygon points=" 390.000000, 98.513600, 411.000000, 75.290559, 419.000000, 75.290559, 440.000000, 98.513600, 432.500000, 98.513600, 426.250000, 92.707840, 403.750000, 92.707840, 397.500000, 98.513600" fill="rgb(178, 34, 34)" style="fill-opacity:1.00" />
<polygon points=" 415.000000, 79.935167, 407.000000, 88.224384, 422.000000, 88.224384" fill="rgb(255, 255, 255)" style="fill-opacity:1.00" />
<!-- End 'A' -->
<!-- Begin 'T' -->
<rect height="1.193803" width="50.000000" x="390.000000" y="98.513600" fill="rgb(0, 100, 0)" style="fill-opacity:1.00" />
<rect height="7.461268" width="10.000000" x="410.000000" y="98.513600" fill="rgb(0, 100, 0)" style="fill-opacity:1.00" />
<!-- End 'T' -->
<!-- Begin 'G' -->
<ellipse cx="415.000000" cy="107.610381" rx="25.000000" ry="1.635512" fill="rgb(255, 165, 0)" style="fill-opacity:1.00" />
<ellipse cx="415.000000" cy="107.610381" rx="16.666667" ry="1.090342" fill="rgb(255, 255, 255)" style="fill-opacity:1.00" />
<rect height="1.635512" width="25.000000" x="415.000000" y="106.792624" fill="rgb(255, 255, 255)" style="fill-opacity:1.00" />
<rect height="0.408878" width="25.000000" x="415.000000" y="108.019259" fill="rgb(255, 165, 0)" style="fill-opacity:1.00" />
<rect height="1.226634" width="6.250000" x="433.750000" y="108.019259" fill="rgb(255, 165, 0)" style="fill-opacity:1.00" />
<!-- End 'G' -->
<!-- Begin 'C' -->
<ellipse cx="415.000000" cy="109.622946" rx="25.000000" ry="0.377054" fill="rgb(0, 0, 128)" style="fill-opacity:1.00" />
<ellipse cx="415.000000" cy="109.622946" rx="16.666667" ry="0.251369" fill="rgb(255, 255, 255)" style="fill-opacity:1.00" />
<rect height="0.377054" width="25.000000" x="415.000000" y="109.434420" fill="rgb(255, 255, 255)" style="fill-opacity:1.00" />
<!-- End 'C' -->
<!-- Begin 'A' -->
<polygon points=" 450.000000, 106.943656, 471.000000, 23.067617, 479.000000, 23.067617, 500.000000, 106.943656, 492.500000, 106.943656, 486.250000, 85.974647, 463.750000, 85.974647, 457.500000, 106.943656" fill="rgb(178, 34, 34)" style="fill-opacity:1.00" />
<polygon points=" 475.000000, 39.842825, 467.000000, 72.393241, 482.000000, 72.393241" fill="rgb(255, 255, 255)" style="fill-opacity:1.00" />
<!-- End 'A' -->
<!-- Begin 'G' -->
<ellipse cx="475.000000" cy="107.912121" rx="25.000000" ry="0.968464" fill="rgb(255, 165, 0)" style="fill-opacity:1.00" />
<ellipse cx="475.000000" cy="107.912121" rx="16.666667" ry="0.645643" fill="rgb(255, 255, 255)" style="fill-opacity:1.00" />
<rect height="0.968464" width="25.000000" x="475.000000" y="107.427889" fill="rgb(255, 255, 255)" style="fill-opacity:1.00" />
<rect height="0.242116" width="25.000000" x="475.000000" y="108.154237" fill="rgb(255, 165, 0)" style="fill-opacity:1.00" />
<rect height="0.726348" width="6.250000" x="493.750000" y="108.154237" fill="rgb(255, 165, 0)" style="fill-opacity:1.00" />
<!-- End 'G' -->
<!-- Begin 'T' -->
<rect height="0.149079" width="50.000000" x="450.000000" y="108.880585" fill="rgb(0, 100, 0)" style="fill-opacity:1.00" />
<rect height="0.931747" width="10.000000" x="470.000000" y="108.880585" fill="rgb(0, 100, 0)" style="fill-opacity:1.00" />
<!-- End 'T' -->
<!-- Begin 'C' -->
<ellipse cx="475.000000" cy="109.906166" rx="25.000000" ry="0.093834" fill="rgb(0, 0, 128)" style="fill-opacity:1.00" />
<ellipse cx="475.000000" cy="109.906166" rx="16.666667" ry="0.062556" fill="rgb(255, 255, 255)" style="fill-opacity:1.00" />
<rect height="0.093834" width="25.000000" x="475.000000" y="109.859249" fill="rgb(255, 255, 255)" style="fill-opacity:1.00" />
<!-- End 'C' -->
<!-- Begin 'A' -->
<polygon points=" 510.000000, 99.918984, 531.000000, 76.466333, 539.000000, 76.466333, 560.000000, 99.918984, 552.500000, 99.918984, 546.250000, 94.055821, 523.750000, 94.055821, 517.500000, 99.918984" fill="rgb(178, 34, 34)" style="fill-opacity:1.00" />
<polygon points=" 535.000000, 81.156863, 527.000000, 89.537923, 542.000000, 89.537923" fill="rgb(255, 255, 255)" style="fill-opacity:1.00" />
<!-- End 'A' -->
<!-- Begin 'T' -->
<rect height="0.691458" width="50.000000" x="510.000000" y="99.918984" fill="rgb(0, 100, 0)" style="fill-opacity:1.00" />
<rect height="4.321614" width="10.000000" x="530.000000" y="99.918984" fill="rgb(0, 100, 0)" style="fill-opacity:1.00" />
<!-- End 'T' -->
<!-- Begin 'C' -->
<ellipse cx="535.000000" cy="106.260276" rx="25.000000" ry="2.019678" fill="rgb(0, 0, 128)" style="fill-opacity:1.00" />
<ellipse cx="535.000000" cy="106.260276" rx="16.666667" ry="1.346452" fill="rgb(255, 255, 255)" style="fill-opacity:1.00" />
<rect height="2.019678" width="25.000000" x="535.000000" y="105.250437" fill="rgb(255, 255, 255)" style="fill-opacity:1.00" />
<!-- End 'C' -->
<!-- Begin 'G' -->
<ellipse cx="535.000000" cy="109.139977" rx="25.000000" ry="0.860023" fill="rgb(255, 165, 0)" style="fill-opacity:1.00" />
<ellipse cx="535.000000" cy="109.139977" rx="16.666667" ry="0.573349" fill="rgb(255, 255, 255)" style="fill-opacity:1.00" />
<rect height="0.860023" width="25.000000" x="535.000000" y="108.709965" fill="rgb(255, 255, 255)" style="fill-opacity:1.00" />
<rect height="0.215006" width="25.000000" x="535.000000" y="109.354983" fill="rgb(255, 165, 0)" style="fill-opacity:1.00" />
<rect height="0.645017" width="6.250000" x="553.750000" y="109.354983" fill="rgb(255, 165, 0)" style="fill-opacity:1.00" />
<!-- End 'G' -->
<!-- Begin 'A' -->
<polygon points=" 570.000000, 96.925733, 591.000000, 80.733878, 599.000000, 80.733878, 620.000000, 96.925733, 612.500000, 96.925733, 606.250000, 92.877770, 583.750000, 92.877770, 577.500000, 96.925733" fill="rgb(178, 34, 34)" style="fill-opacity:1.00" />
<polygon points=" 595.000000, 83.972249, 587.000000, 89.448991, 602.000000, 89.448991" fill="rgb(255, 255, 255)" style="fill-opacity:1.00" />
<!-- End 'A' -->
<!-- Begin 'T' -->
<rect height="1.645187" width="50.000000" x="570.000000" y="96.925733" fill="rgb(0, 100, 0)" style="fill-opacity:1.00" />
<rect height="10.282417" width="10.000000" x="590.000000" y="96.925733" fill="rgb(0, 100, 0)" style="fill-opacity:1.00" />
<!-- End 'T' -->
<!-- Begin 'G' -->
<ellipse cx="595.000000" cy="108.123083" rx="25.000000" ry="0.914932" fill="rgb(255, 165, 0)" style="fill-opacity:1.00" />
<ellipse cx="595.000000" cy="108.123083" rx="16.666667" ry="0.609955" fill="rgb(255, 255, 255)" style="fill-opacity:1.00" />
<rect height="0.914932" width="25.000000" x="595.000000" y="107.665617" fill="rgb(255, 255, 255)" style="fill-opacity:1.00" />
<rect height="0.228733" width="25.000000" x="595.000000" y="108.351816" fill="rgb(255, 165, 0)" style="fill-opacity:1.00" />
<rect height="0.686199" width="6.250000" x="613.750000" y="108.351816" fill="rgb(255, 165, 0)" style="fill-opacity:1.00" />
<!-- End 'G' -->
<!-- Begin 'C' -->
<ellipse cx="595.000000" cy="109.519008" rx="25.000000" ry="0.480992" fill="rgb(0, 0, 128)" style="fill-opacity:1.00" />
<ellipse cx="595.000000" cy="109.519008" rx="16.666667" ry="0.320662" fill="rgb(255, 255, 255)" style="fill-opacity:1.00" />
<rect height="0.480992" width="25.000000" x="595.000000" y="109.278511" fill="rgb(255, 255, 255)" style="fill-opacity:1.00" />
<!-- End 'C' -->
<!-- Begin 'A' -->
<polygon points=" 630.000000, 102.497326, 651.000000, 95.453330, 659.000000, 95.453330, 680.000000, 102.497326, 672.500000, 102.497326, 666.250000, 100.736327, 643.750000, 100.736327, 637.500000, 102.497326" fill="rgb(178, 34, 34)" style="fill-opacity:1.00" />
<!-- End 'A' -->
<!-- Begin 'T' -->
<rect height="0.698686" width="50.000000" x="630.000000" y="102.497326" fill="rgb(0, 100, 0)" style="fill-opacity:1.00" />
<rect height="4.366785" width="10.000000" x="650.000000" y="102.497326" fill="rgb(0, 100, 0)" style="fill-opacity:1.00" />
<!-- End 'T' -->
<!-- Begin 'G' -->
<ellipse cx="655.000000" cy="107.859925" rx="25.000000" ry="0.995814" fill="rgb(255, 165, 0)" style="fill-opacity:1.00" />
<ellipse cx="655.000000" cy="107.859925" rx="16.666667" ry="0.663876" fill="rgb(255, 255, 255)" style="fill-opacity:1.00" />
<rect height="0.995814" width="25.000000" x="655.000000" y="107.362018" fill="rgb(255, 255, 255)" style="fill-opacity:1.00" />
<rect height="0.248954" width="25.000000" x="655.000000" y="108.108879" fill="rgb(255, 165, 0)" style="fill-opacity:1.00" />
<rect height="0.746861" width="6.250000" x="673.750000" y="108.108879" fill="rgb(255, 165, 0)" style="fill-opacity:1.00" />
<!-- End 'G' -->
<!-- Begin 'C' -->
<ellipse cx="655.000000" cy="109.427870" rx="25.000000" ry="0.572130" fill="rgb(0, 0, 128)" style="fill-opacity:1.00" />
<ellipse cx="655.000000" cy="109.427870" rx="16.666667" ry="0.381420" fill="rgb(255, 255, 255)" style="fill-opacity:1.00" />
<rect height="0.572130" width="25.000000" x="655.000000" y="109.141804" fill="rgb(255, 255, 255)" style="fill-opacity:1.00" />
<!-- End 'C' -->
<!-- Begin 'T' -->
<rect height="0.616094" width="50.000000" x="690.000000" y="100.715282" fill="rgb(0, 100, 0)" style="fill-opacity:1.00" />
<rect height="3.850588" width="10.000000" x="710.000000" y="100.715282" fill="rgb(0, 100, 0)" style="fill-opacity:1.00" />
<!-- End 'T' -->
<!-- Begin 'A' -->
<polygon points=" 690.000000, 107.587494, 711.000000, 104.565870, 719.000000, 104.565870, 740.000000, 107.587494, 732.500000, 107.587494, 726.250000, 106.832088, 703.750000, 106.832088, 697.500000, 107.587494" fill="rgb(178, 34, 34)" style="fill-opacity:1.00" />
<!-- End 'A' -->
<!-- Begin 'C' -->
<ellipse cx="715.000000" cy="108.282908" rx="25.000000" ry="0.695414" fill="rgb(0, 0, 128)" style="fill-opacity:1.00" />
<ellipse cx="715.000000" cy="108.282908" rx="16.666667" ry="0.463609" fill="rgb(255, 255, 255)" style="fill-opacity:1.00" />
<rect height="0.695414" width="25.000000" x="715.000000" y="107.935201" fill="rgb(255, 255, 255)" style="fill-opacity:1.00" />
<!-- End 'C' -->
<!-- Begin 'G' -->
<ellipse cx="715.000000" cy="109.489161" rx="25.000000" ry="0.510839" fill="rgb(255, 165, 0)" style="fill-opacity:1.00" />
<ellipse cx="715.000000" cy="109.489161" rx="16.666667" ry="0.340559" fill="rgb(255, 255, 255)" style="fill-opacity:1.00" />
<rect height="0.510839" width="25.000000" x="715.000000" y="109.233741" fill="rgb(255, 255, 255)" style="fill-opacity:1.00" />
<rect height="0.127710" width="25.000000" x="715.000000" y="109.616871" fill="rgb(255, 165, 0)" style="fill-opacity:1.00" />
<rect height="0.383129" width="6.250000" x="733.750000" y="109.616871" fill="rgb(255, 165, 0)" style="fill-opacity:1.00" />
<!-- End 'G' -->
<!-- Begin 'T' -->
<rect height="0.320291" width="50.000000" x="750.000000" y="104.535643" fill="rgb(0, 100, 0)" style="fill-opacity:1.00" />
<rect height="2.001821" width="10.000000" x="770.000000" y="104.535643" fill="rgb(0, 100, 0)" style="fill-opacity:1.00" />
<!-- End 'T' -->
<!-- Begin 'A' -->
<polygon points=" 750.000000, 108.222052, 771.000000, 106.537465, 779.000000, 106.537465, 800.000000, 108.222052, 792.500000, 108.222052, 786.250000, 107.800905, 763.750000, 107.800905, 757.500000, 108.222052" fill="rgb(178, 34, 34)" style="fill-opacity:1.00" />
<!-- End 'A' -->
<!-- Begin 'G' -->
<ellipse cx="775.000000" cy="108.781237" rx="25.000000" ry="0.559185" fill="rgb(255, 165, 0)" style="fill-opacity:1.00" />
<ellipse cx="775.000000" cy="108.781237" rx="16.666667" ry="0.372790" fill="rgb(255, 255, 255)" style="fill-opacity:1.00" />
<rect height="0.559185" width="25.000000" x="775.000000" y="108.501644" fill="rgb(255, 255, 255)" style="fill-opacity:1.00" />
<rect height="0.139796" width="25.000000" x="775.000000" y="108.921033" fill="rgb(255, 165, 0)" style="fill-opacity:1.00" />
<rect height="0.419389" width="6.250000" x="793.750000" y="108.921033" fill="rgb(255, 165, 0)" style="fill-opacity:1.00" />
<!-- End 'G' -->
<!-- Begin 'C' -->
<ellipse cx="775.000000" cy="109.670211" rx="25.000000" ry="0.329789" fill="rgb(0, 0, 128)" style="fill-opacity:1.00" />
<ellipse cx="775.000000" cy="109.670211" rx="16.666667" ry="0.219859" fill="rgb(255, 255, 255)" style="fill-opacity:1.00" />
<rect height="0.329789" width="25.000000" x="775.000000" y="109.505316" fill="rgb(255, 255, 255)" style="fill-opacity:1.00" />
<!-- End 'C' -->
<!-- Begin 'A' -->
<polygon points=" 810.000000, 106.718986, 831.000000, 105.025443, 839.000000, 105.025443, 860.000000, 106.718986, 852.500000, 106.718986, 846.250000, 106.295601, 823.750000, 106.295601, 817.500000, 106.718986" fill="rgb(178, 34, 34)" style="fill-opacity:1.00" />
<!-- End 'A' -->
<!-- Begin 'T' -->
<rect height="0.269377" width="50.000000" x="810.000000" y="106.718986" fill="rgb(0, 100, 0)" style="fill-opacity:1.00" />
<rect height="1.683605" width="10.000000" x="830.000000" y="106.718986" fill="rgb(0, 100, 0)" style="fill-opacity:1.00" />
<!-- End 'T' -->
<!-- Begin 'G' -->
<ellipse cx="835.000000" cy="108.860962" rx="25.000000" ry="0.458370" fill="rgb(255, 165, 0)" style="fill-opacity:1.00" />
<ellipse cx="835.000000" cy="108.860962" rx="16.666667" ry="0.305580" fill="rgb(255, 255, 255)" style="fill-opacity:1.00" />
<rect height="0.458370" width="25.000000" x="835.000000" y="108.631777" fill="rgb(255, 255, 255)" style="fill-opacity:1.00" />
<rect height="0.114593" width="25.000000" x="835.000000" y="108.975554" fill="rgb(255, 165, 0)" style="fill-opacity:1.00" />
<rect height="0.343778" width="6.250000" x="853.750000" y="108.975554" fill="rgb(255, 165, 0)" style="fill-opacity:1.00" />
<!-- End 'G' -->
<!-- Begin 'C' -->
<ellipse cx="835.000000" cy="109.659666" rx="25.000000" ry="0.340334" fill="rgb(0, 0, 128)" style="fill-opacity:1.00" />
<ellipse cx="835.000000" cy="109.659666" rx="16.666667" ry="0.226889" fill="rgb(255, 255, 255)" style="fill-opacity:1.00" />
<rect height="0.340334" width="25.000000" x="835.000000" y="109.489499" fill="rgb(255, 255, 255)" style="fill-opacity:1.00" />
<!-- End 'C' -->
<!-- Begin 'A' -->
<polygon points=" 870.000000, 107.664117, 891.000000, 106.487722, 899.000000, 106.487722, 920.000000, 107.664117, 912.500000, 107.664117, 906.250000, 107.370018, 883.750000, 107.370018, 877.500000, 107.664117" fill="rgb(178, 34, 34)" style="fill-opacity:1.00" />
<!-- End 'A' -->
<!-- Begin 'T' -->
<rect height="0.171954" width="50.000000" x="870.000000" y="107.664117" fill="rgb(0, 100, 0)" style="fill-opacity:1.00" />
<rect height="1.074713" width="10.000000" x="890.000000" y="107.664117" fill="rgb(0, 100, 0)" style="fill-opacity:1.00" />
<!-- End 'T' -->
<!-- Begin 'G' -->
<ellipse cx="895.000000" cy="109.119490" rx="25.000000" ry="0.380659" fill="rgb(255, 165, 0)" style="fill-opacity:1.00" />
<ellipse cx="895.000000" cy="109.119490" rx="16.666667" ry="0.253773" fill="rgb(255, 255, 255)" style="fill-opacity:1.00" />
<rect height="0.380659" width="25.000000" x="895.000000" y="108.929160" fill="rgb(255, 255, 255)" style="fill-opacity:1.00" />
<rect height="0.095165" width="25.000000" x="895.000000" y="109.214654" fill="rgb(255, 165, 0)" style="fill-opacity:1.00" />
<rect height="0.285494" width="6.250000" x="913.750000" y="109.214654" fill="rgb(255, 165, 0)" style="fill-opacity:1.00" />
<!-- End 'G' -->
<!-- Begin 'C' -->
<ellipse cx="895.000000" cy="109.750074" rx="25.000000" ry="0.249926" fill="rgb(0, 0, 128)" style="fill-opacity:1.00" />
<ellipse cx="895.000000" cy="109.750074" rx="16.666667" ry="0.166617" fill="rgb(255, 255, 255)" style="fill-opacity:1.00" />
<rect height="0.249926" width="25.000000" x="895.000000" y="109.625112" fill="rgb(255, 255, 255)" style="fill-opacity:1.00" />
<!-- End 'C' -->
<!-- Begin 'A' -->
<polygon points=" 930.000000, 103.670931, 951.000000, 99.237514, 959.000000, 99.237514, 980.000000, 103.670931, 972.500000, 103.670931, 966.250000, 102.562577, 943.750000, 102.562577, 937.500000, 103.670931" fill="rgb(178, 34, 34)" style="fill-opacity:1.00" />
<!-- End 'A' -->
<!-- Begin 'T' -->
<rect height="0.603176" width="50.000000" x="930.000000" y="103.670931" fill="rgb(0, 100, 0)" style="fill-opacity:1.00" />
<rect height="3.769852" width="10.000000" x="950.000000" y="103.670931" fill="rgb(0, 100, 0)" style="fill-opacity:1.00" />
<!-- End 'T' -->
<!-- Begin 'G' -->
<ellipse cx="955.000000" cy="108.165003" rx="25.000000" ry="0.724220" fill="rgb(255, 165, 0)" style="fill-opacity:1.00" />
<ellipse cx="955.000000" cy="108.165003" rx="16.666667" ry="0.482813" fill="rgb(255, 255, 255)" style="fill-opacity:1.00" />
<rect height="0.724220" width="25.000000" x="955.000000" y="107.802893" fill="rgb(255, 255, 255)" style="fill-opacity:1.00" />
<rect height="0.181055" width="25.000000" x="955.000000" y="108.346058" fill="rgb(255, 165, 0)" style="fill-opacity:1.00" />
<rect height="0.543165" width="6.250000" x="973.750000" y="108.346058" fill="rgb(255, 165, 0)" style="fill-opacity:1.00" />
<!-- End 'G' -->
<!-- Begin 'C' -->
<ellipse cx="955.000000" cy="109.444612" rx="25.000000" ry="0.555388" fill="rgb(0, 0, 128)" style="fill-opacity:1.00" />
<ellipse cx="955.000000" cy="109.444612" rx="16.666667" ry="0.370259" fill="rgb(255, 255, 255)" style="fill-opacity:1.00" />
<rect height="0.555388" width="25.000000" x="955.000000" y="109.166917" fill="rgb(255, 255, 255)" style="fill-opacity:1.00" />
<!-- End 'C' -->
<!-- Begin 'A' -->
<polygon points=" 990.000000, 102.497822, 1011.000000, 97.438250, 1019.000000, 97.438250, 1040.000000, 102.497822, 1032.500000, 102.497822, 1026.250000, 101.232929, 1003.750000, 101.232929, 997.500000, 102.497822" fill="rgb(178, 34, 34)" style="fill-opacity:1.00" />
<!-- End 'A' -->
<!-- Begin 'T' -->
<rect height="0.770170" width="50.000000" x="990.000000" y="102.497822" fill="rgb(0, 100, 0)" style="fill-opacity:1.00" />
<rect height="4.813563" width="10.000000" x="1010.000000" y="102.497822" fill="rgb(0, 100, 0)" style="fill-opacity:1.00" />
<!-- End 'T' -->
<!-- Begin 'G' -->
<ellipse cx="1015.000000" cy="107.986039" rx="25.000000" ry="0.674654" fill="rgb(255, 165, 0)" style="fill-opacity:1.00" />
<ellipse cx="1015.000000" cy="107.986039" rx="16.666667" ry="0.449769" fill="rgb(255, 255, 255)" style="fill-opacity:1.00" />
<rect height="0.674654" width="25.000000" x="1015.000000" y="107.648712" fill="rgb(255, 255, 255)" style="fill-opacity:1.00" />
<rect height="0.168663" width="25.000000" x="1015.000000" y="108.154702" fill="rgb(255, 165, 0)" style="fill-opacity:1.00" />
<rect height="0.505990" width="6.250000" x="1033.750000" y="108.154702" fill="rgb(255, 165, 0)" style="fill-opacity:1.00" />
<!-- End 'G' -->
<!-- Begin 'C' -->
<ellipse cx="1015.000000" cy="109.330346" rx="25.000000" ry="0.669654" fill="rgb(0, 0, 128)" style="fill-opacity:1.00" />
<ellipse cx="1015.000000" cy="109.330346" rx="16.666667" ry="0.446436" fill="rgb(255, 255, 255)" style="fill-opacity:1.00" />
<rect height="0.669654" width="25.000000" x="1015.000000" y="108.995519" fill="rgb(255, 255, 255)" style="fill-opacity:1.00" />
<!-- End 'C' -->
<text x="550.000000" y="165">
IC = 8.79
</text>

</svg>
