<?xml version="1.0" encoding="UTF-8" standalone="yes"?>
                 <!DOCTYPE svg PUBLIC "-//W3C//DTD SVG 1.0//EN" "http://www.w3.org/TR/2001/REC-SVG-20010904/DTD/svg10.dtd">
                 <svg height="170" width="900" xmlns="http://www.w3.org/2000/svg" xmlns:xlink="http://www.w3.org/1999/xlink">
                 <line x1="85" y1="120" x2="867" y2="120" style="stroke:rgb(99,99,99);stroke-width:2" />
<rect height="7.000000" width="2.000000" x="85.000000" y="120.000000" fill="rgb(0, 0, 0)" style="fill-opacity:1.00" />
<text x="107.000000" y="140">
1
</text>
<rect height="7.000000" width="2.000000" x="145.000000" y="120.000000" fill="rgb(0, 0, 0)" style="fill-opacity:1.00" />
<text x="167.000000" y="140">
2
</text>
<rect height="7.000000" width="2.000000" x="205.000000" y="120.000000" fill="rgb(0, 0, 0)" style="fill-opacity:1.00" />
<text x="227.000000" y="140">
3
</text>
<rect height="7.000000" width="2.000000" x="265.000000" y="120.000000" fill="rgb(0, 0, 0)" style="fill-opacity:1.00" />
<text x="287.000000" y="140">
4
</text>
<rect height="7.000000" width="2.000000" x="325.000000" y="120.000000" fill="rgb(0, 0, 0)" style="fill-opacity:1.00" />
<text x="347.000000" y="140">
5
</text>
<rect height="7.000000" width="2.000000" x="385.000000" y="120.000000" fill="rgb(0, 0, 0)" style="fill-opacity:1.00" />
<text x="407.000000" y="140">
6
</text>
<rect height="7.000000" width="2.000000" x="445.000000" y="120.000000" fill="rgb(0, 0, 0)" style="fill-opacity:1.00" />
<text x="467.000000" y="140">
7
</text>
<rect height="7.000000" width="2.000000" x="505.000000" y="120.000000" fill="rgb(0, 0, 0)" style="fill-opacity:1.00" />
<text x="527.000000" y="140">
8
</text>
<rect height="7.000000" width="2.000000" x="565.000000" y="120.000000" fill="rgb(0, 0, 0)" style="fill-opacity:1.00" />
<text x="587.000000" y="140">
9
</text>
<rect height="7.000000" width="2.000000" x="625.000000" y="120.000000" fill="rgb(0, 0, 0)" style="fill-opacity:1.00" />
<text x="647.000000" y="140">
10
</text>
<rect height="7.000000" width="2.000000" x="685.000000" y="120.000000" fill="rgb(0, 0, 0)" style="fill-opacity:1.00" />
<text x="707.000000" y="140">
11
</text>
<rect height="7.000000" width="2.000000" x="745.000000" y="120.000000" fill="rgb(0, 0, 0)" style="fill-opacity:1.00" />
<text x="767.000000" y="140">
12
</text>
<rect height="7.000000" width="2.000000" x="805.000000" y="120.000000" fill="rgb(0, 0, 0)" style="fill-opacity:1.00" />
<text x="827.000000" y="140">
13
</text>
<rect height="7.000000" width="2.000000" x="865.000000" y="120.000000" fill="rgb(0, 0, 0)" style="fill-opacity:1.00" />
<line x1="80" y1="112" x2="80" y2="10" style="stroke:rgb(99,99,99);stroke-width:2" />
<rect height="2.000000" width="7.000000" x="73.000000" y="110.000000" fill="rgb(0, 0, 0)" style="fill-opacity:1.00" />
<text x="63" y="115">
0
</text>
<rect height="2.000000" width="7.000000" x="73.000000" y="60.000000" fill="rgb(0, 0, 0)" style="fill-opacity:1.00" />
<text x="63" y="65">
1
</text>
<rect height="2.000000" width="7.000000" x="73.000000" y="10.000000" fill="rgb(0, 0, 0)" style="fill-opacity:1.00" />
<text x="63" y="15">
2
</text>
<text x="50" y="65"
transform="rotate(-90, 50, 70)">
bits
</text>
<!-- Begin 'A' -->
<polygon points=" 90.000000, 108.725758, 111.000000, 108.152491, 119.000000, 108.152491, 140.000000, 108.725758, 132.500000, 108.725758, 126.250000, 108.582441, 103.750000, 108.582441, 97.500000, 108.725758" fill="rgb(178, 34, 34)" style="fill-opacity:1.00" />
<!-- End 'A' -->
<!-- Begin 'G' -->
<ellipse cx="115.000000" cy="109.004570" rx="25.000000" ry="0.278812" fill="rgb(255, 165, 0)" style="fill-opacity:1.00" />
<ellipse cx="115.000000" cy="109.004570" rx="16.666667" ry="0.185875" fill="rgb(255, 255, 255)" style="fill-opacity:1.00" />
<rect height="0.278812" width="25.000000" x="115.000000" y="108.865164" fill="rgb(255, 255, 255)" style="fill-opacity:1.00" />
<rect height="0.069703" width="25.000000" x="115.000000" y="109.074273" fill="rgb(255, 165, 0)" style="fill-opacity:1.00" />
<rect height="0.209109" width="6.250000" x="133.750000" y="109.074273" fill="rgb(255, 165, 0)" style="fill-opacity:1.00" />
<!-- End 'G' -->
<!-- Begin 'T' -->
<rect height="0.059161" width="50.000000" x="90.000000" y="109.283382" fill="rgb(0, 100, 0)" style="fill-opacity:1.00" />
<rect height="0.369755" width="10.000000" x="110.000000" y="109.283382" fill="rgb(0, 100, 0)" style="fill-opacity:1.00" />
<!-- End 'T' -->
<!-- Begin 'C' -->
<ellipse cx="115.000000" cy="109.826569" rx="25.000000" ry="0.173431" fill="rgb(0, 0, 128)" style="fill-opacity:1.00" />
<ellipse cx="115.000000" cy="109.826569" rx="16.666667" ry="0.115621" fill="rgb(255, 255, 255)" style="fill-opacity:1.00" />
<rect height="0.173431" width="25.000000" x="115.000000" y="109.739853" fill="rgb(255, 255, 255)" style="fill-opacity:1.00" />
<!-- End 'C' -->
<!-- Begin 'G' -->
<ellipse cx="175.000000" cy="107.610325" rx="25.000000" ry="0.546941" fill="rgb(255, 165, 0)" style="fill-opacity:1.00" />
<ellipse cx="175.000000" cy="107.610325" rx="16.666667" ry="0.364628" fill="rgb(255, 255, 255)" style="fill-opacity:1.00" />
<rect height="0.546941" width="25.000000" x="175.000000" y="107.336854" fill="rgb(255, 255, 255)" style="fill-opacity:1.00" />
<rect height="0.136735" width="25.000000" x="175.000000" y="107.747060" fill="rgb(255, 165, 0)" style="fill-opacity:1.00" />
<rect height="0.410206" width="6.250000" x="193.750000" y="107.747060" fill="rgb(255, 165, 0)" style="fill-opacity:1.00" />
<!-- End 'G' -->
<!-- Begin 'A' -->
<polygon points=" 150.000000, 108.869408, 171.000000, 108.157267, 179.000000, 108.157267, 200.000000, 108.869408, 192.500000, 108.869408, 186.250000, 108.691373, 163.750000, 108.691373, 157.500000, 108.869408" fill="rgb(178, 34, 34)" style="fill-opacity:1.00" />
<!-- End 'A' -->
<!-- Begin 'C' -->
<ellipse cx="175.000000" cy="109.160659" rx="25.000000" ry="0.291251" fill="rgb(0, 0, 128)" style="fill-opacity:1.00" />
<ellipse cx="175.000000" cy="109.160659" rx="16.666667" ry="0.194167" fill="rgb(255, 255, 255)" style="fill-opacity:1.00" />
<rect height="0.291251" width="25.000000" x="175.000000" y="109.015034" fill="rgb(255, 255, 255)" style="fill-opacity:1.00" />
<!-- End 'C' -->
<!-- Begin 'T' -->
<rect height="0.087694" width="50.000000" x="150.000000" y="109.451910" fill="rgb(0, 100, 0)" style="fill-opacity:1.00" />
<rect height="0.548090" width="10.000000" x="170.000000" y="109.451910" fill="rgb(0, 100, 0)" style="fill-opacity:1.00" />
<!-- End 'T' -->
<!-- Begin 'A' -->
<polygon points=" 210.000000, 105.568297, 231.000000, 102.692634, 239.000000, 102.692634, 260.000000, 105.568297, 252.500000, 105.568297, 246.250000, 104.849381, 223.750000, 104.849381, 217.500000, 105.568297" fill="rgb(178, 34, 34)" style="fill-opacity:1.00" />
<!-- End 'A' -->
<!-- Begin 'C' -->
<ellipse cx="235.000000" cy="106.641473" rx="25.000000" ry="1.073176" fill="rgb(0, 0, 128)" style="fill-opacity:1.00" />
<ellipse cx="235.000000" cy="106.641473" rx="16.666667" ry="0.715451" fill="rgb(255, 255, 255)" style="fill-opacity:1.00" />
<rect height="1.073176" width="25.000000" x="235.000000" y="106.104885" fill="rgb(255, 255, 255)" style="fill-opacity:1.00" />
<!-- End 'C' -->
<!-- Begin 'G' -->
<ellipse cx="235.000000" cy="108.498495" rx="25.000000" ry="0.783845" fill="rgb(255, 165, 0)" style="fill-opacity:1.00" />
<ellipse cx="235.000000" cy="108.498495" rx="16.666667" ry="0.522564" fill="rgb(255, 255, 255)" style="fill-opacity:1.00" />
<rect height="0.783845" width="25.000000" x="235.000000" y="108.106572" fill="rgb(255, 255, 255)" style="fill-opacity:1.00" />
<rect height="0.195961" width="25.000000" x="235.000000" y="108.694456" fill="rgb(255, 165, 0)" style="fill-opacity:1.00" />
<rect height="0.587884" width="6.250000" x="253.750000" y="108.694456" fill="rgb(255, 165, 0)" style="fill-opacity:1.00" />
<!-- End 'G' -->
<!-- Begin 'T' -->
<rect height="0.114826" width="50.000000" x="210.000000" y="109.282340" fill="rgb(0, 100, 0)" style="fill-opacity:1.00" />
<rect height="0.717660" width="10.000000" x="230.000000" y="109.282340" fill="rgb(0, 100, 0)" style="fill-opacity:1.00" />
<!-- End 'T' -->
<!-- Begin 'T' -->
<rect height="2.826814" width="50.000000" x="270.000000" y="81.942613" fill="rgb(0, 100, 0)" style="fill-opacity:1.00" />
<rect height="17.667589" width="10.000000" x="290.000000" y="81.942613" fill="rgb(0, 100, 0)" style="fill-opacity:1.00" />
<!-- End 'T' -->
<!-- Begin 'G' -->
<ellipse cx="295.000000" cy="102.740883" rx="25.000000" ry="3.130680" fill="rgb(255, 165, 0)" style="fill-opacity:1.00" />
<ellipse cx="295.000000" cy="102.740883" rx="16.666667" ry="2.087120" fill="rgb(255, 255, 255)" style="fill-opacity:1.00" />
<rect height="3.130680" width="25.000000" x="295.000000" y="101.175543" fill="rgb(255, 255, 255)" style="fill-opacity:1.00" />
<rect height="0.782670" width="25.000000" x="295.000000" y="103.523552" fill="rgb(255, 165, 0)" style="fill-opacity:1.00" />
<rect height="2.348010" width="6.250000" x="313.750000" y="103.523552" fill="rgb(255, 165, 0)" style="fill-opacity:1.00" />
<!-- End 'G' -->
<!-- Begin 'A' -->
<polygon points=" 270.000000, 108.777290, 291.000000, 105.871562, 299.000000, 105.871562, 320.000000, 108.777290, 312.500000, 108.777290, 306.250000, 108.050858, 283.750000, 108.050858, 277.500000, 108.777290" fill="rgb(178, 34, 34)" style="fill-opacity:1.00" />
<!-- End 'A' -->
<!-- Begin 'C' -->
<ellipse cx="295.000000" cy="109.388645" rx="25.000000" ry="0.611355" fill="rgb(0, 0, 128)" style="fill-opacity:1.00" />
<ellipse cx="295.000000" cy="109.388645" rx="16.666667" ry="0.407570" fill="rgb(255, 255, 255)" style="fill-opacity:1.00" />
<rect height="0.611355" width="25.000000" x="295.000000" y="109.082967" fill="rgb(255, 255, 255)" style="fill-opacity:1.00" />
<!-- End 'C' -->
<!-- Begin 'G' -->
<ellipse cx="355.000000" cy="91.045961" rx="25.000000" ry="8.464348" fill="rgb(255, 165, 0)" style="fill-opacity:1.00" />
<ellipse cx="355.000000" cy="91.045961" rx="16.666667" ry="5.642899" fill="rgb(255, 255, 255)" style="fill-opacity:1.00" />
<rect height="8.464348" width="25.000000" x="355.000000" y="86.813787" fill="rgb(255, 255, 255)" style="fill-opacity:1.00" />
<rect height="2.116087" width="25.000000" x="355.000000" y="93.162048" fill="rgb(255, 165, 0)" style="fill-opacity:1.00" />
<rect height="6.348261" width="6.250000" x="373.750000" y="93.162048" fill="rgb(255, 165, 0)" style="fill-opacity:1.00" />
<!-- End 'G' -->
<!-- Begin 'A' -->
<polygon points=" 330.000000, 106.261463, 351.000000, 99.510309, 359.000000, 99.510309, 380.000000, 106.261463, 372.500000, 106.261463, 366.250000, 104.573675, 343.750000, 104.573675, 337.500000, 106.261463" fill="rgb(178, 34, 34)" style="fill-opacity:1.00" />
<!-- End 'A' -->
<!-- Begin 'C' -->
<ellipse cx="355.000000" cy="107.385197" rx="25.000000" ry="1.123733" fill="rgb(0, 0, 128)" style="fill-opacity:1.00" />
<ellipse cx="355.000000" cy="107.385197" rx="16.666667" ry="0.749156" fill="rgb(255, 255, 255)" style="fill-opacity:1.00" />
<rect height="1.123733" width="25.000000" x="355.000000" y="106.823330" fill="rgb(255, 255, 255)" style="fill-opacity:1.00" />
<!-- End 'C' -->
<!-- Begin 'T' -->
<rect height="0.238571" width="50.000000" x="330.000000" y="108.508930" fill="rgb(0, 100, 0)" style="fill-opacity:1.00" />
<rect height="1.491070" width="10.000000" x="350.000000" y="108.508930" fill="rgb(0, 100, 0)" style="fill-opacity:1.00" />
<!-- End 'T' -->
<!-- Begin 'A' -->
<polygon points=" 390.000000, 90.163562, 411.000000, 71.080441, 419.000000, 71.080441, 440.000000, 90.163562, 432.500000, 90.163562, 426.250000, 85.392782, 403.750000, 85.392782, 397.500000, 90.163562" fill="rgb(178, 34, 34)" style="fill-opacity:1.00" />
<polygon points=" 415.000000, 74.897066, 407.000000, 81.530314, 422.000000, 81.530314" fill="rgb(255, 255, 255)" style="fill-opacity:1.00" />
<!-- End 'A' -->
<!-- Begin 'T' -->
<rect height="2.938370" width="50.000000" x="390.000000" y="90.163562" fill="rgb(0, 100, 0)" style="fill-opacity:1.00" />
<rect height="18.364812" width="10.000000" x="410.000000" y="90.163562" fill="rgb(0, 100, 0)" style="fill-opacity:1.00" />
<!-- End 'T' -->
<!-- Begin 'G' -->
<ellipse cx="415.000000" cy="109.114968" rx="25.000000" ry="0.586594" fill="rgb(255, 165, 0)" style="fill-opacity:1.00" />
<ellipse cx="415.000000" cy="109.114968" rx="16.666667" ry="0.391062" fill="rgb(255, 255, 255)" style="fill-opacity:1.00" />
<rect height="0.586594" width="25.000000" x="415.000000" y="108.821671" fill="rgb(255, 255, 255)" style="fill-opacity:1.00" />
<rect height="0.146648" width="25.000000" x="415.000000" y="109.261617" fill="rgb(255, 165, 0)" style="fill-opacity:1.00" />
<rect height="0.439945" width="6.250000" x="433.750000" y="109.261617" fill="rgb(255, 165, 0)" style="fill-opacity:1.00" />
<!-- End 'G' -->
<!-- Begin 'C' -->
<ellipse cx="415.000000" cy="109.850781" rx="25.000000" ry="0.149219" fill="rgb(0, 0, 128)" style="fill-opacity:1.00" />
<ellipse cx="415.000000" cy="109.850781" rx="16.666667" ry="0.099479" fill="rgb(255, 255, 255)" style="fill-opacity:1.00" />
<rect height="0.149219" width="25.000000" x="415.000000" y="109.776171" fill="rgb(255, 255, 255)" style="fill-opacity:1.00" />
<!-- End 'C' -->
<!-- Begin 'T' -->
<rect height="10.476481" width="50.000000" x="450.000000" y="38.206189" fill="rgb(0, 100, 0)" style="fill-opacity:1.00" />
<rect height="65.478005" width="10.000000" x="470.000000" y="38.206189" fill="rgb(0, 100, 0)" style="fill-opacity:1.00" />
<!-- End 'T' -->
<!-- Begin 'C' -->
<ellipse cx="475.000000" cy="105.117866" rx="25.000000" ry="1.433672" fill="rgb(0, 0, 128)" style="fill-opacity:1.00" />
<ellipse cx="475.000000" cy="105.117866" rx="16.666667" ry="0.955781" fill="rgb(255, 255, 255)" style="fill-opacity:1.00" />
<rect height="1.433672" width="25.000000" x="475.000000" y="104.401030" fill="rgb(255, 255, 255)" style="fill-opacity:1.00" />
<!-- End 'C' -->
<!-- Begin 'G' -->
<ellipse cx="475.000000" cy="107.560112" rx="25.000000" ry="1.008574" fill="rgb(255, 165, 0)" style="fill-opacity:1.00" />
<ellipse cx="475.000000" cy="107.560112" rx="16.666667" ry="0.672383" fill="rgb(255, 255, 255)" style="fill-opacity:1.00" />
<rect height="1.008574" width="25.000000" x="475.000000" y="107.055825" fill="rgb(255, 255, 255)" style="fill-opacity:1.00" />
<rect height="0.252144" width="25.000000" x="475.000000" y="107.812256" fill="rgb(255, 165, 0)" style="fill-opacity:1.00" />
<rect height="0.756431" width="6.250000" x="493.750000" y="107.812256" fill="rgb(255, 165, 0)" style="fill-opacity:1.00" />
<!-- End 'G' -->
<!-- Begin 'A' -->
<polygon points=" 450.000000, 110.000000, 471.000000, 108.568686, 479.000000, 108.568686, 500.000000, 110.000000, 492.500000, 110.000000, 486.250000, 109.642172, 463.750000, 109.642172, 457.500000, 110.000000" fill="rgb(178, 34, 34)" style="fill-opacity:1.00" />
<!-- End 'A' -->
<!-- Begin 'G' -->
<ellipse cx="535.000000" cy="76.722053" rx="25.000000" ry="22.596089" fill="rgb(255, 165, 0)" style="fill-opacity:1.00" />
<ellipse cx="535.000000" cy="76.722053" rx="16.666667" ry="15.064059" fill="rgb(255, 255, 255)" style="fill-opacity:1.00" />
<rect height="22.596089" width="25.000000" x="535.000000" y="65.424008" fill="rgb(255, 255, 255)" style="fill-opacity:1.00" />
<rect height="5.649022" width="25.000000" x="535.000000" y="82.371075" fill="rgb(255, 165, 0)" style="fill-opacity:1.00" />
<rect height="16.947067" width="6.250000" x="553.750000" y="82.371075" fill="rgb(255, 165, 0)" style="fill-opacity:1.00" />
<!-- End 'G' -->
<!-- Begin 'T' -->
<rect height="1.194173" width="50.000000" x="510.000000" y="99.318142" fill="rgb(0, 100, 0)" style="fill-opacity:1.00" />
<rect height="7.463580" width="10.000000" x="530.000000" y="99.318142" fill="rgb(0, 100, 0)" style="fill-opacity:1.00" />
<!-- End 'T' -->
<!-- Begin 'A' -->
<polygon points=" 510.000000, 109.918544, 531.000000, 106.781722, 539.000000, 106.781722, 560.000000, 109.918544, 552.500000, 109.918544, 546.250000, 109.134339, 523.750000, 109.134339, 517.500000, 109.918544" fill="rgb(178, 34, 34)" style="fill-opacity:1.00" />
<!-- End 'A' -->
<!-- Begin 'C' -->
<ellipse cx="535.000000" cy="109.959272" rx="25.000000" ry="0.040728" fill="rgb(0, 0, 128)" style="fill-opacity:1.00" />
<ellipse cx="535.000000" cy="109.959272" rx="16.666667" ry="0.027152" fill="rgb(255, 255, 255)" style="fill-opacity:1.00" />
<rect height="0.040728" width="25.000000" x="535.000000" y="109.938908" fill="rgb(255, 255, 255)" style="fill-opacity:1.00" />
<!-- End 'C' -->
<!-- Begin 'C' -->
<ellipse cx="595.000000" cy="78.823647" rx="25.000000" ry="20.436784" fill="rgb(0, 0, 128)" style="fill-opacity:1.00" />
<ellipse cx="595.000000" cy="78.823647" rx="16.666667" ry="13.624522" fill="rgb(255, 255, 255)" style="fill-opacity:1.00" />
<rect height="20.436784" width="25.000000" x="595.000000" y="68.605255" fill="rgb(255, 255, 255)" style="fill-opacity:1.00" />
<!-- End 'C' -->
<!-- Begin 'A' -->
<polygon points=" 570.000000, 106.856072, 591.000000, 99.260431, 599.000000, 99.260431, 620.000000, 106.856072, 612.500000, 106.856072, 606.250000, 104.957162, 583.750000, 104.957162, 577.500000, 106.856072" fill="rgb(178, 34, 34)" style="fill-opacity:1.00" />
<!-- End 'A' -->
<!-- Begin 'T' -->
<rect height="0.382193" width="50.000000" x="570.000000" y="106.856072" fill="rgb(0, 100, 0)" style="fill-opacity:1.00" />
<rect height="2.388707" width="10.000000" x="590.000000" y="106.856072" fill="rgb(0, 100, 0)" style="fill-opacity:1.00" />
<!-- End 'T' -->
<!-- Begin 'G' -->
<ellipse cx="595.000000" cy="109.622389" rx="25.000000" ry="0.377611" fill="rgb(255, 165, 0)" style="fill-opacity:1.00" />
<ellipse cx="595.000000" cy="109.622389" rx="16.666667" ry="0.251740" fill="rgb(255, 255, 255)" style="fill-opacity:1.00" />
<rect height="0.377611" width="25.000000" x="595.000000" y="109.433584" fill="rgb(255, 255, 255)" style="fill-opacity:1.00" />
<rect height="0.094403" width="25.000000" x="595.000000" y="109.716792" fill="rgb(255, 165, 0)" style="fill-opacity:1.00" />
<rect height="0.283208" width="6.250000" x="613.750000" y="109.716792" fill="rgb(255, 165, 0)" style="fill-opacity:1.00" />
<!-- End 'G' -->
<!-- Begin 'A' -->
<polygon points=" 630.000000, 106.698752, 651.000000, 23.626083, 659.000000, 23.626083, 680.000000, 106.698752, 672.500000, 106.698752, 666.250000, 85.930584, 643.750000, 85.930584, 637.500000, 106.698752" fill="rgb(178, 34, 34)" style="fill-opacity:1.00" />
<polygon points=" 655.000000, 40.240616, 647.000000, 72.469684, 662.000000, 72.469684" fill="rgb(255, 255, 255)" style="fill-opacity:1.00" />
<!-- End 'A' -->
<!-- Begin 'C' -->
<ellipse cx="655.000000" cy="107.945743" rx="25.000000" ry="1.246991" fill="rgb(0, 0, 128)" style="fill-opacity:1.00" />
<ellipse cx="655.000000" cy="107.945743" rx="16.666667" ry="0.831327" fill="rgb(255, 255, 255)" style="fill-opacity:1.00" />
<rect height="1.246991" width="25.000000" x="655.000000" y="107.322247" fill="rgb(255, 255, 255)" style="fill-opacity:1.00" />
<!-- End 'C' -->
<!-- Begin 'G' -->
<ellipse cx="655.000000" cy="109.489969" rx="25.000000" ry="0.297236" fill="rgb(255, 165, 0)" style="fill-opacity:1.00" />
<ellipse cx="655.000000" cy="109.489969" rx="16.666667" ry="0.198157" fill="rgb(255, 255, 255)" style="fill-opacity:1.00" />
<rect height="0.297236" width="25.000000" x="655.000000" y="109.341351" fill="rgb(255, 255, 255)" style="fill-opacity:1.00" />
<rect height="0.074309" width="25.000000" x="655.000000" y="109.564278" fill="rgb(255, 165, 0)" style="fill-opacity:1.00" />
<rect height="0.222927" width="6.250000" x="673.750000" y="109.564278" fill="rgb(255, 165, 0)" style="fill-opacity:1.00" />
<!-- End 'G' -->
<!-- Begin 'T' -->
<rect height="0.034047" width="50.000000" x="630.000000" y="109.787205" fill="rgb(0, 100, 0)" style="fill-opacity:1.00" />
<rect height="0.212795" width="10.000000" x="650.000000" y="109.787205" fill="rgb(0, 100, 0)" style="fill-opacity:1.00" />
<!-- End 'T' -->
<!-- Begin 'A' -->
<polygon points=" 690.000000, 89.129518, 711.000000, 62.768992, 719.000000, 62.768992, 740.000000, 89.129518, 732.500000, 89.129518, 726.250000, 82.539386, 703.750000, 82.539386, 697.500000, 89.129518" fill="rgb(178, 34, 34)" style="fill-opacity:1.00" />
<polygon points=" 715.000000, 68.041097, 707.000000, 77.585307, 722.000000, 77.585307" fill="rgb(255, 255, 255)" style="fill-opacity:1.00" />
<!-- End 'A' -->
<!-- Begin 'T' -->
<rect height="3.279446" width="50.000000" x="690.000000" y="89.129518" fill="rgb(0, 100, 0)" style="fill-opacity:1.00" />
<rect height="20.496539" width="10.000000" x="710.000000" y="89.129518" fill="rgb(0, 100, 0)" style="fill-opacity:1.00" />
<!-- End 'T' -->
<!-- Begin 'C' -->
<ellipse cx="715.000000" cy="109.726160" rx="25.000000" ry="0.100103" fill="rgb(0, 0, 128)" style="fill-opacity:1.00" />
<ellipse cx="715.000000" cy="109.726160" rx="16.666667" ry="0.066735" fill="rgb(255, 255, 255)" style="fill-opacity:1.00" />
<rect height="0.100103" width="25.000000" x="715.000000" y="109.676109" fill="rgb(255, 255, 255)" style="fill-opacity:1.00" />
<!-- End 'C' -->
<!-- Begin 'G' -->
<ellipse cx="715.000000" cy="109.913132" rx="25.000000" ry="0.086868" fill="rgb(255, 165, 0)" style="fill-opacity:1.00" />
<ellipse cx="715.000000" cy="109.913132" rx="16.666667" ry="0.057912" fill="rgb(255, 255, 255)" style="fill-opacity:1.00" />
<rect height="0.086868" width="25.000000" x="715.000000" y="109.869697" fill="rgb(255, 255, 255)" style="fill-opacity:1.00" />
<rect height="0.021717" width="25.000000" x="715.000000" y="109.934849" fill="rgb(255, 165, 0)" style="fill-opacity:1.00" />
<rect height="0.065151" width="6.250000" x="733.750000" y="109.934849" fill="rgb(255, 165, 0)" style="fill-opacity:1.00" />
<!-- End 'G' -->
<!-- Begin 'C' -->
<ellipse cx="775.000000" cy="92.569802" rx="25.000000" ry="6.961609" fill="rgb(0, 0, 128)" style="fill-opacity:1.00" />
<ellipse cx="775.000000" cy="92.569802" rx="16.666667" ry="4.641072" fill="rgb(255, 255, 255)" style="fill-opacity:1.00" />
<rect height="6.961609" width="25.000000" x="775.000000" y="89.088998" fill="rgb(255, 255, 255)" style="fill-opacity:1.00" />
<!-- End 'C' -->
<!-- Begin 'T' -->
<rect height="1.111976" width="50.000000" x="750.000000" y="99.531411" fill="rgb(0, 100, 0)" style="fill-opacity:1.00" />
<rect height="6.949849" width="10.000000" x="770.000000" y="99.531411" fill="rgb(0, 100, 0)" style="fill-opacity:1.00" />
<!-- End 'T' -->
<!-- Begin 'G' -->
<ellipse cx="775.000000" cy="107.667217" rx="25.000000" ry="1.185957" fill="rgb(255, 165, 0)" style="fill-opacity:1.00" />
<ellipse cx="775.000000" cy="107.667217" rx="16.666667" ry="0.790638" fill="rgb(255, 255, 255)" style="fill-opacity:1.00" />
<rect height="1.185957" width="25.000000" x="775.000000" y="107.074239" fill="rgb(255, 255, 255)" style="fill-opacity:1.00" />
<rect height="0.296489" width="25.000000" x="775.000000" y="107.963707" fill="rgb(255, 165, 0)" style="fill-opacity:1.00" />
<rect height="0.889468" width="6.250000" x="793.750000" y="107.963707" fill="rgb(255, 165, 0)" style="fill-opacity:1.00" />
<!-- End 'G' -->
<!-- Begin 'A' -->
<polygon points=" 750.000000, 110.000000, 771.000000, 108.853174, 779.000000, 108.853174, 800.000000, 110.000000, 792.500000, 110.000000, 786.250000, 109.713294, 763.750000, 109.713294, 757.500000, 110.000000" fill="rgb(178, 34, 34)" style="fill-opacity:1.00" />
<!-- End 'A' -->
<!-- Begin 'A' -->
<polygon points=" 810.000000, 100.724627, 831.000000, 86.020253, 839.000000, 86.020253, 860.000000, 100.724627, 852.500000, 100.724627, 846.250000, 97.048534, 823.750000, 97.048534, 817.500000, 100.724627" fill="rgb(178, 34, 34)" style="fill-opacity:1.00" />
<polygon points=" 835.000000, 88.961128, 827.000000, 93.842877, 842.000000, 93.842877" fill="rgb(255, 255, 255)" style="fill-opacity:1.00" />
<!-- End 'A' -->
<!-- Begin 'C' -->
<ellipse cx="835.000000" cy="103.198589" rx="25.000000" ry="2.473962" fill="rgb(0, 0, 128)" style="fill-opacity:1.00" />
<ellipse cx="835.000000" cy="103.198589" rx="16.666667" ry="1.649308" fill="rgb(255, 255, 255)" style="fill-opacity:1.00" />
<rect height="2.473962" width="25.000000" x="835.000000" y="101.961608" fill="rgb(255, 255, 255)" style="fill-opacity:1.00" />
<!-- End 'C' -->
<!-- Begin 'T' -->
<rect height="0.433207" width="50.000000" x="810.000000" y="105.672551" fill="rgb(0, 100, 0)" style="fill-opacity:1.00" />
<rect height="2.707542" width="10.000000" x="830.000000" y="105.672551" fill="rgb(0, 100, 0)" style="fill-opacity:1.00" />
<!-- End 'T' -->
<!-- Begin 'G' -->
<ellipse cx="835.000000" cy="109.190047" rx="25.000000" ry="0.809953" fill="rgb(255, 165, 0)" style="fill-opacity:1.00" />
<ellipse cx="835.000000" cy="109.190047" rx="16.666667" ry="0.539969" fill="rgb(255, 255, 255)" style="fill-opacity:1.00" />
<rect height="0.809953" width="25.000000" x="835.000000" y="108.785070" fill="rgb(255, 255, 255)" style="fill-opacity:1.00" />
<rect height="0.202488" width="25.000000" x="835.000000" y="109.392535" fill="rgb(255, 165, 0)" style="fill-opacity:1.00" />
<rect height="0.607465" width="6.250000" x="853.750000" y="109.392535" fill="rgb(255, 165, 0)" style="fill-opacity:1.00" />
<!-- End 'G' -->
<text x="460.000000" y="165">
IC = 9.35
</text>

</svg>
