<?xml version="1.0" encoding="UTF-8" standalone="yes"?>
                 <!DOCTYPE svg PUBLIC "-//W3C//DTD SVG 1.0//EN" "http://www.w3.org/TR/2001/REC-SVG-20010904/DTD/svg10.dtd">
                 <svg height="170" width="840" xmlns="http://www.w3.org/2000/svg" xmlns:xlink="http://www.w3.org/1999/xlink">
                 <line x1="85" y1="120" x2="807" y2="120" style="stroke:rgb(99,99,99);stroke-width:2" />
<rect height="7.000000" width="2.000000" x="85.000000" y="120.000000" fill="rgb(0, 0, 0)" style="fill-opacity:1.00" />
<text x="107.000000" y="140">
1
</text>
<rect height="7.000000" width="2.000000" x="145.000000" y="120.000000" fill="rgb(0, 0, 0)" style="fill-opacity:1.00" />
<text x="167.000000" y="140">
2
</text>
<rect height="7.000000" width="2.000000" x="205.000000" y="120.000000" fill="rgb(0, 0, 0)" style="fill-opacity:1.00" />
<text x="227.000000" y="140">
3
</text>
<rect height="7.000000" width="2.000000" x="265.000000" y="120.000000" fill="rgb(0, 0, 0)" style="fill-opacity:1.00" />
<text x="287.000000" y="140">
4
</text>
<rect height="7.000000" width="2.000000" x="325.000000" y="120.000000" fill="rgb(0, 0, 0)" style="fill-opacity:1.00" />
<text x="347.000000" y="140">
5
</text>
<rect height="7.000000" width="2.000000" x="385.000000" y="120.000000" fill="rgb(0, 0, 0)" style="fill-opacity:1.00" />
<text x="407.000000" y="140">
6
</text>
<rect height="7.000000" width="2.000000" x="445.000000" y="120.000000" fill="rgb(0, 0, 0)" style="fill-opacity:1.00" />
<text x="467.000000" y="140">
7
</text>
<rect height="7.000000" width="2.000000" x="505.000000" y="120.000000" fill="rgb(0, 0, 0)" style="fill-opacity:1.00" />
<text x="527.000000" y="140">
8
</text>
<rect height="7.000000" width="2.000000" x="565.000000" y="120.000000" fill="rgb(0, 0, 0)" style="fill-opacity:1.00" />
<text x="587.000000" y="140">
9
</text>
<rect height="7.000000" width="2.000000" x="625.000000" y="120.000000" fill="rgb(0, 0, 0)" style="fill-opacity:1.00" />
<text x="647.000000" y="140">
10
</text>
<rect height="7.000000" width="2.000000" x="685.000000" y="120.000000" fill="rgb(0, 0, 0)" style="fill-opacity:1.00" />
<text x="707.000000" y="140">
11
</text>
<rect height="7.000000" width="2.000000" x="745.000000" y="120.000000" fill="rgb(0, 0, 0)" style="fill-opacity:1.00" />
<text x="767.000000" y="140">
12
</text>
<rect height="7.000000" width="2.000000" x="805.000000" y="120.000000" fill="rgb(0, 0, 0)" style="fill-opacity:1.00" />
<line x1="80" y1="112" x2="80" y2="10" style="stroke:rgb(99,99,99);stroke-width:2" />
<rect height="2.000000" width="7.000000" x="73.000000" y="110.000000" fill="rgb(0, 0, 0)" style="fill-opacity:1.00" />
<text x="63" y="115">
0
</text>
<rect height="2.000000" width="7.000000" x="73.000000" y="60.000000" fill="rgb(0, 0, 0)" style="fill-opacity:1.00" />
<text x="63" y="65">
1
</text>
<rect height="2.000000" width="7.000000" x="73.000000" y="10.000000" fill="rgb(0, 0, 0)" style="fill-opacity:1.00" />
<text x="63" y="15">
2
</text>
<text x="50" y="65"
transform="rotate(-90, 50, 70)">
bits
</text>
<!-- Begin 'A' -->
<polygon points=" 90.000000, 107.087907, 111.000000, 105.331621, 119.000000, 105.331621, 140.000000, 107.087907, 132.500000, 107.087907, 126.250000, 106.648835, 103.750000, 106.648835, 97.500000, 107.087907" fill="rgb(178, 34, 34)" style="fill-opacity:1.00" />
<!-- End 'A' -->
<!-- Begin 'G' -->
<ellipse cx="115.000000" cy="107.762189" rx="25.000000" ry="0.674282" fill="rgb(255, 165, 0)" style="fill-opacity:1.00" />
<ellipse cx="115.000000" cy="107.762189" rx="16.666667" ry="0.449522" fill="rgb(255, 255, 255)" style="fill-opacity:1.00" />
<rect height="0.674282" width="25.000000" x="115.000000" y="107.425048" fill="rgb(255, 255, 255)" style="fill-opacity:1.00" />
<rect height="0.168571" width="25.000000" x="115.000000" y="107.930760" fill="rgb(255, 165, 0)" style="fill-opacity:1.00" />
<rect height="0.505712" width="6.250000" x="133.750000" y="107.930760" fill="rgb(255, 165, 0)" style="fill-opacity:1.00" />
<!-- End 'G' -->
<!-- Begin 'C' -->
<ellipse cx="115.000000" cy="108.883174" rx="25.000000" ry="0.446703" fill="rgb(0, 0, 128)" style="fill-opacity:1.00" />
<ellipse cx="115.000000" cy="108.883174" rx="16.666667" ry="0.297802" fill="rgb(255, 255, 255)" style="fill-opacity:1.00" />
<rect height="0.446703" width="25.000000" x="115.000000" y="108.659823" fill="rgb(255, 255, 255)" style="fill-opacity:1.00" />
<!-- End 'C' -->
<!-- Begin 'T' -->
<rect height="0.107220" width="50.000000" x="90.000000" y="109.329877" fill="rgb(0, 100, 0)" style="fill-opacity:1.00" />
<rect height="0.670123" width="10.000000" x="110.000000" y="109.329877" fill="rgb(0, 100, 0)" style="fill-opacity:1.00" />
<!-- End 'T' -->
<!-- Begin 'A' -->
<polygon points=" 150.000000, 106.240484, 171.000000, 103.386135, 179.000000, 103.386135, 200.000000, 106.240484, 192.500000, 106.240484, 186.250000, 105.526897, 163.750000, 105.526897, 157.500000, 106.240484" fill="rgb(178, 34, 34)" style="fill-opacity:1.00" />
<!-- End 'A' -->
<!-- Begin 'G' -->
<ellipse cx="175.000000" cy="107.056484" rx="25.000000" ry="0.816000" fill="rgb(255, 165, 0)" style="fill-opacity:1.00" />
<ellipse cx="175.000000" cy="107.056484" rx="16.666667" ry="0.544000" fill="rgb(255, 255, 255)" style="fill-opacity:1.00" />
<rect height="0.816000" width="25.000000" x="175.000000" y="106.648484" fill="rgb(255, 255, 255)" style="fill-opacity:1.00" />
<rect height="0.204000" width="25.000000" x="175.000000" y="107.260484" fill="rgb(255, 165, 0)" style="fill-opacity:1.00" />
<rect height="0.612000" width="6.250000" x="193.750000" y="107.260484" fill="rgb(255, 165, 0)" style="fill-opacity:1.00" />
<!-- End 'G' -->
<!-- Begin 'T' -->
<rect height="0.184694" width="50.000000" x="150.000000" y="107.872483" fill="rgb(0, 100, 0)" style="fill-opacity:1.00" />
<rect height="1.154338" width="10.000000" x="170.000000" y="107.872483" fill="rgb(0, 100, 0)" style="fill-opacity:1.00" />
<!-- End 'T' -->
<!-- Begin 'C' -->
<ellipse cx="175.000000" cy="109.513411" rx="25.000000" ry="0.486589" fill="rgb(0, 0, 128)" style="fill-opacity:1.00" />
<ellipse cx="175.000000" cy="109.513411" rx="16.666667" ry="0.324393" fill="rgb(255, 255, 255)" style="fill-opacity:1.00" />
<rect height="0.486589" width="25.000000" x="175.000000" y="109.270116" fill="rgb(255, 255, 255)" style="fill-opacity:1.00" />
<!-- End 'C' -->
<!-- Begin 'C' -->
<ellipse cx="235.000000" cy="107.928545" rx="25.000000" ry="0.378699" fill="rgb(0, 0, 128)" style="fill-opacity:1.00" />
<ellipse cx="235.000000" cy="107.928545" rx="16.666667" ry="0.252466" fill="rgb(255, 255, 255)" style="fill-opacity:1.00" />
<rect height="0.378699" width="25.000000" x="235.000000" y="107.739195" fill="rgb(255, 255, 255)" style="fill-opacity:1.00" />
<!-- End 'C' -->
<!-- Begin 'G' -->
<ellipse cx="235.000000" cy="108.651434" rx="25.000000" ry="0.344190" fill="rgb(255, 165, 0)" style="fill-opacity:1.00" />
<ellipse cx="235.000000" cy="108.651434" rx="16.666667" ry="0.229460" fill="rgb(255, 255, 255)" style="fill-opacity:1.00" />
<rect height="0.344190" width="25.000000" x="235.000000" y="108.479339" fill="rgb(255, 255, 255)" style="fill-opacity:1.00" />
<rect height="0.086048" width="25.000000" x="235.000000" y="108.737481" fill="rgb(255, 165, 0)" style="fill-opacity:1.00" />
<rect height="0.258143" width="6.250000" x="253.750000" y="108.737481" fill="rgb(255, 165, 0)" style="fill-opacity:1.00" />
<!-- End 'G' -->
<!-- Begin 'A' -->
<polygon points=" 210.000000, 109.641337, 231.000000, 108.995624, 239.000000, 108.995624, 260.000000, 109.641337, 252.500000, 109.641337, 246.250000, 109.479909, 223.750000, 109.479909, 217.500000, 109.641337" fill="rgb(178, 34, 34)" style="fill-opacity:1.00" />
<!-- End 'A' -->
<!-- Begin 'T' -->
<rect height="0.057386" width="50.000000" x="210.000000" y="109.641337" fill="rgb(0, 100, 0)" style="fill-opacity:1.00" />
<rect height="0.358663" width="10.000000" x="230.000000" y="109.641337" fill="rgb(0, 100, 0)" style="fill-opacity:1.00" />
<!-- End 'T' -->
<!-- Begin 'C' -->
<ellipse cx="295.000000" cy="88.556469" rx="25.000000" ry="9.811709" fill="rgb(0, 0, 128)" style="fill-opacity:1.00" />
<ellipse cx="295.000000" cy="88.556469" rx="16.666667" ry="6.541139" fill="rgb(255, 255, 255)" style="fill-opacity:1.00" />
<rect height="9.811709" width="25.000000" x="295.000000" y="83.650615" fill="rgb(255, 255, 255)" style="fill-opacity:1.00" />
<!-- End 'C' -->
<!-- Begin 'G' -->
<ellipse cx="295.000000" cy="102.246556" rx="25.000000" ry="3.878378" fill="rgb(255, 165, 0)" style="fill-opacity:1.00" />
<ellipse cx="295.000000" cy="102.246556" rx="16.666667" ry="2.585585" fill="rgb(255, 255, 255)" style="fill-opacity:1.00" />
<rect height="3.878378" width="25.000000" x="295.000000" y="100.307367" fill="rgb(255, 255, 255)" style="fill-opacity:1.00" />
<rect height="0.969594" width="25.000000" x="295.000000" y="103.216150" fill="rgb(255, 165, 0)" style="fill-opacity:1.00" />
<rect height="2.908783" width="6.250000" x="313.750000" y="103.216150" fill="rgb(255, 165, 0)" style="fill-opacity:1.00" />
<!-- End 'G' -->
<!-- Begin 'A' -->
<polygon points=" 270.000000, 109.349933, 291.000000, 106.124933, 299.000000, 106.124933, 320.000000, 109.349933, 312.500000, 109.349933, 306.250000, 108.543683, 283.750000, 108.543683, 277.500000, 109.349933" fill="rgb(178, 34, 34)" style="fill-opacity:1.00" />
<!-- End 'A' -->
<!-- Begin 'T' -->
<rect height="0.104011" width="50.000000" x="270.000000" y="109.349933" fill="rgb(0, 100, 0)" style="fill-opacity:1.00" />
<rect height="0.650067" width="10.000000" x="290.000000" y="109.349933" fill="rgb(0, 100, 0)" style="fill-opacity:1.00" />
<!-- End 'T' -->
<!-- Begin 'A' -->
<polygon points=" 330.000000, 93.894673, 351.000000, 74.778897, 359.000000, 74.778897, 380.000000, 93.894673, 372.500000, 93.894673, 366.250000, 89.115729, 343.750000, 89.115729, 337.500000, 93.894673" fill="rgb(178, 34, 34)" style="fill-opacity:1.00" />
<polygon points=" 355.000000, 78.602052, 347.000000, 85.248362, 362.000000, 85.248362" fill="rgb(255, 255, 255)" style="fill-opacity:1.00" />
<!-- End 'A' -->
<!-- Begin 'C' -->
<ellipse cx="355.000000" cy="100.860141" rx="25.000000" ry="6.965468" fill="rgb(0, 0, 128)" style="fill-opacity:1.00" />
<ellipse cx="355.000000" cy="100.860141" rx="16.666667" ry="4.643645" fill="rgb(255, 255, 255)" style="fill-opacity:1.00" />
<rect height="6.965468" width="25.000000" x="355.000000" y="97.377407" fill="rgb(255, 255, 255)" style="fill-opacity:1.00" />
<!-- End 'C' -->
<!-- Begin 'G' -->
<ellipse cx="355.000000" cy="108.734489" rx="25.000000" ry="0.908881" fill="rgb(255, 165, 0)" style="fill-opacity:1.00" />
<ellipse cx="355.000000" cy="108.734489" rx="16.666667" ry="0.605921" fill="rgb(255, 255, 255)" style="fill-opacity:1.00" />
<rect height="0.908881" width="25.000000" x="355.000000" y="108.280049" fill="rgb(255, 255, 255)" style="fill-opacity:1.00" />
<rect height="0.227220" width="25.000000" x="355.000000" y="108.961710" fill="rgb(255, 165, 0)" style="fill-opacity:1.00" />
<rect height="0.681661" width="6.250000" x="373.750000" y="108.961710" fill="rgb(255, 165, 0)" style="fill-opacity:1.00" />
<!-- End 'G' -->
<!-- Begin 'T' -->
<rect height="0.057061" width="50.000000" x="330.000000" y="109.643370" fill="rgb(0, 100, 0)" style="fill-opacity:1.00" />
<rect height="0.356630" width="10.000000" x="350.000000" y="109.643370" fill="rgb(0, 100, 0)" style="fill-opacity:1.00" />
<!-- End 'T' -->
<!-- Begin 'G' -->
<ellipse cx="415.000000" cy="60.108201" rx="25.000000" ry="49.851698" fill="rgb(255, 165, 0)" style="fill-opacity:1.00" />
<ellipse cx="415.000000" cy="60.108201" rx="16.666667" ry="33.234466" fill="rgb(255, 255, 255)" style="fill-opacity:1.00" />
<rect height="49.851698" width="25.000000" x="415.000000" y="35.182352" fill="rgb(255, 255, 255)" style="fill-opacity:1.00" />
<rect height="12.462925" width="25.000000" x="415.000000" y="72.571126" fill="rgb(255, 165, 0)" style="fill-opacity:1.00" />
<rect height="37.388774" width="6.250000" x="433.750000" y="72.571126" fill="rgb(255, 165, 0)" style="fill-opacity:1.00" />
<!-- End 'G' -->
<!-- Begin 'A' -->
<polygon points=" 390.000000, 109.999845, 411.000000, 109.959899, 419.000000, 109.959899, 440.000000, 109.999845, 432.500000, 109.999845, 426.250000, 109.989859, 403.750000, 109.989859, 397.500000, 109.999845" fill="rgb(178, 34, 34)" style="fill-opacity:1.00" />
<!-- End 'A' -->
<!-- Begin 'T' -->
<rect height="0.000024" width="50.000000" x="390.000000" y="109.999845" fill="rgb(0, 100, 0)" style="fill-opacity:1.00" />
<rect height="0.000150" width="10.000000" x="410.000000" y="109.999845" fill="rgb(0, 100, 0)" style="fill-opacity:1.00" />
<!-- End 'T' -->
<!-- Begin 'C' -->
<ellipse cx="415.000000" cy="109.999997" rx="25.000000" ry="0.000003" fill="rgb(0, 0, 128)" style="fill-opacity:1.00" />
<ellipse cx="415.000000" cy="109.999997" rx="16.666667" ry="0.000002" fill="rgb(255, 255, 255)" style="fill-opacity:1.00" />
<rect height="0.000003" width="25.000000" x="415.000000" y="109.999996" fill="rgb(255, 255, 255)" style="fill-opacity:1.00" />
<!-- End 'C' -->
<!-- Begin 'G' -->
<ellipse cx="475.000000" cy="60.041801" rx="25.000000" ry="49.945479" fill="rgb(255, 165, 0)" style="fill-opacity:1.00" />
<ellipse cx="475.000000" cy="60.041801" rx="16.666667" ry="33.296986" fill="rgb(255, 255, 255)" style="fill-opacity:1.00" />
<rect height="49.945479" width="25.000000" x="475.000000" y="35.069061" fill="rgb(255, 255, 255)" style="fill-opacity:1.00" />
<rect height="12.486370" width="25.000000" x="475.000000" y="72.528171" fill="rgb(255, 165, 0)" style="fill-opacity:1.00" />
<rect height="37.459110" width="6.250000" x="493.750000" y="72.528171" fill="rgb(255, 165, 0)" style="fill-opacity:1.00" />
<!-- End 'G' -->
<!-- Begin 'A' -->
<polygon points=" 450.000000, 109.998093, 471.000000, 109.987280, 479.000000, 109.987280, 500.000000, 109.998093, 492.500000, 109.998093, 486.250000, 109.995390, 463.750000, 109.995390, 457.500000, 109.998093" fill="rgb(178, 34, 34)" style="fill-opacity:1.00" />
<!-- End 'A' -->
<!-- Begin 'T' -->
<rect height="0.000200" width="50.000000" x="450.000000" y="109.998093" fill="rgb(0, 100, 0)" style="fill-opacity:1.00" />
<rect height="0.001249" width="10.000000" x="470.000000" y="109.998093" fill="rgb(0, 100, 0)" style="fill-opacity:1.00" />
<!-- End 'T' -->
<!-- Begin 'C' -->
<ellipse cx="475.000000" cy="109.999671" rx="25.000000" ry="0.000329" fill="rgb(0, 0, 128)" style="fill-opacity:1.00" />
<ellipse cx="475.000000" cy="109.999671" rx="16.666667" ry="0.000219" fill="rgb(255, 255, 255)" style="fill-opacity:1.00" />
<rect height="0.000329" width="25.000000" x="475.000000" y="109.999507" fill="rgb(255, 255, 255)" style="fill-opacity:1.00" />
<!-- End 'C' -->
<!-- Begin 'A' -->
<polygon points=" 510.000000, 109.917005, 531.000000, 10.542419, 539.000000, 10.542419, 560.000000, 109.917005, 552.500000, 109.917005, 546.250000, 85.073359, 523.750000, 85.073359, 517.500000, 109.917005" fill="rgb(178, 34, 34)" style="fill-opacity:1.00" />
<polygon points=" 535.000000, 30.417336, 527.000000, 69.167171, 542.000000, 69.167171" fill="rgb(255, 255, 255)" style="fill-opacity:1.00" />
<!-- End 'A' -->
<!-- Begin 'C' -->
<ellipse cx="535.000000" cy="109.942867" rx="25.000000" ry="0.025862" fill="rgb(0, 0, 128)" style="fill-opacity:1.00" />
<ellipse cx="535.000000" cy="109.942867" rx="16.666667" ry="0.017241" fill="rgb(255, 255, 255)" style="fill-opacity:1.00" />
<rect height="0.025862" width="25.000000" x="535.000000" y="109.929936" fill="rgb(255, 255, 255)" style="fill-opacity:1.00" />
<!-- End 'C' -->
<!-- Begin 'G' -->
<ellipse cx="535.000000" cy="109.977064" rx="25.000000" ry="0.008335" fill="rgb(255, 165, 0)" style="fill-opacity:1.00" />
<ellipse cx="535.000000" cy="109.977064" rx="16.666667" ry="0.005557" fill="rgb(255, 255, 255)" style="fill-opacity:1.00" />
<rect height="0.008335" width="25.000000" x="535.000000" y="109.972896" fill="rgb(255, 255, 255)" style="fill-opacity:1.00" />
<rect height="0.002084" width="25.000000" x="535.000000" y="109.979148" fill="rgb(255, 165, 0)" style="fill-opacity:1.00" />
<rect height="0.006252" width="6.250000" x="553.750000" y="109.979148" fill="rgb(255, 165, 0)" style="fill-opacity:1.00" />
<!-- End 'G' -->
<!-- Begin 'T' -->
<rect height="0.002336" width="50.000000" x="510.000000" y="109.985399" fill="rgb(0, 100, 0)" style="fill-opacity:1.00" />
<rect height="0.014601" width="10.000000" x="530.000000" y="109.985399" fill="rgb(0, 100, 0)" style="fill-opacity:1.00" />
<!-- End 'T' -->
<!-- Begin 'A' -->
<polygon points=" 570.000000, 107.738678, 591.000000, 19.005069, 599.000000, 19.005069, 620.000000, 107.738678, 612.500000, 107.738678, 606.250000, 85.555276, 583.750000, 85.555276, 577.500000, 107.738678" fill="rgb(178, 34, 34)" style="fill-opacity:1.00" />
<polygon points=" 595.000000, 36.751791, 587.000000, 71.245234, 602.000000, 71.245234" fill="rgb(255, 255, 255)" style="fill-opacity:1.00" />
<!-- End 'A' -->
<!-- Begin 'T' -->
<rect height="0.331252" width="50.000000" x="570.000000" y="107.738678" fill="rgb(0, 100, 0)" style="fill-opacity:1.00" />
<rect height="2.070325" width="10.000000" x="590.000000" y="107.738678" fill="rgb(0, 100, 0)" style="fill-opacity:1.00" />
<!-- End 'T' -->
<!-- Begin 'C' -->
<ellipse cx="595.000000" cy="109.875931" rx="25.000000" ry="0.066928" fill="rgb(0, 0, 128)" style="fill-opacity:1.00" />
<ellipse cx="595.000000" cy="109.875931" rx="16.666667" ry="0.044618" fill="rgb(255, 255, 255)" style="fill-opacity:1.00" />
<rect height="0.066928" width="25.000000" x="595.000000" y="109.842467" fill="rgb(255, 255, 255)" style="fill-opacity:1.00" />
<!-- End 'C' -->
<!-- Begin 'G' -->
<ellipse cx="595.000000" cy="109.971429" rx="25.000000" ry="0.028571" fill="rgb(255, 165, 0)" style="fill-opacity:1.00" />
<ellipse cx="595.000000" cy="109.971429" rx="16.666667" ry="0.019047" fill="rgb(255, 255, 255)" style="fill-opacity:1.00" />
<rect height="0.028571" width="25.000000" x="595.000000" y="109.957144" fill="rgb(255, 255, 255)" style="fill-opacity:1.00" />
<rect height="0.007143" width="25.000000" x="595.000000" y="109.978572" fill="rgb(255, 165, 0)" style="fill-opacity:1.00" />
<rect height="0.021428" width="6.250000" x="613.750000" y="109.978572" fill="rgb(255, 165, 0)" style="fill-opacity:1.00" />
<!-- End 'G' -->
<!-- Begin 'G' -->
<ellipse cx="655.000000" cy="76.355799" rx="25.000000" ry="22.771804" fill="rgb(255, 165, 0)" style="fill-opacity:1.00" />
<ellipse cx="655.000000" cy="76.355799" rx="16.666667" ry="15.181203" fill="rgb(255, 255, 255)" style="fill-opacity:1.00" />
<rect height="22.771804" width="25.000000" x="655.000000" y="64.969897" fill="rgb(255, 255, 255)" style="fill-opacity:1.00" />
<rect height="5.692951" width="25.000000" x="655.000000" y="82.048750" fill="rgb(255, 165, 0)" style="fill-opacity:1.00" />
<rect height="17.078853" width="6.250000" x="673.750000" y="82.048750" fill="rgb(255, 165, 0)" style="fill-opacity:1.00" />
<!-- End 'G' -->
<!-- Begin 'A' -->
<polygon points=" 630.000000, 107.075905, 651.000000, 99.127603, 659.000000, 99.127603, 680.000000, 107.075905, 672.500000, 107.075905, 666.250000, 105.088829, 643.750000, 105.088829, 637.500000, 107.075905" fill="rgb(178, 34, 34)" style="fill-opacity:1.00" />
<!-- End 'A' -->
<!-- Begin 'C' -->
<ellipse cx="655.000000" cy="108.529408" rx="25.000000" ry="1.453503" fill="rgb(0, 0, 128)" style="fill-opacity:1.00" />
<ellipse cx="655.000000" cy="108.529408" rx="16.666667" ry="0.969002" fill="rgb(255, 255, 255)" style="fill-opacity:1.00" />
<rect height="1.453503" width="25.000000" x="655.000000" y="107.802657" fill="rgb(255, 255, 255)" style="fill-opacity:1.00" />
<!-- End 'C' -->
<!-- Begin 'T' -->
<rect height="0.002734" width="50.000000" x="630.000000" y="109.982912" fill="rgb(0, 100, 0)" style="fill-opacity:1.00" />
<rect height="0.017088" width="10.000000" x="650.000000" y="109.982912" fill="rgb(0, 100, 0)" style="fill-opacity:1.00" />
<!-- End 'T' -->
<!-- Begin 'T' -->
<rect height="1.033638" width="50.000000" x="690.000000" y="97.068201" fill="rgb(0, 100, 0)" style="fill-opacity:1.00" />
<rect height="6.460237" width="10.000000" x="710.000000" y="97.068201" fill="rgb(0, 100, 0)" style="fill-opacity:1.00" />
<!-- End 'T' -->
<!-- Begin 'C' -->
<ellipse cx="715.000000" cy="105.197557" rx="25.000000" ry="1.669119" fill="rgb(0, 0, 128)" style="fill-opacity:1.00" />
<ellipse cx="715.000000" cy="105.197557" rx="16.666667" ry="1.112746" fill="rgb(255, 255, 255)" style="fill-opacity:1.00" />
<rect height="1.669119" width="25.000000" x="715.000000" y="104.362998" fill="rgb(255, 255, 255)" style="fill-opacity:1.00" />
<!-- End 'C' -->
<!-- Begin 'A' -->
<polygon points=" 690.000000, 108.552217, 711.000000, 106.866677, 719.000000, 106.866677, 740.000000, 108.552217, 732.500000, 108.552217, 726.250000, 108.130832, 703.750000, 108.130832, 697.500000, 108.552217" fill="rgb(178, 34, 34)" style="fill-opacity:1.00" />
<!-- End 'A' -->
<!-- Begin 'G' -->
<ellipse cx="715.000000" cy="109.276108" rx="25.000000" ry="0.723892" fill="rgb(255, 165, 0)" style="fill-opacity:1.00" />
<ellipse cx="715.000000" cy="109.276108" rx="16.666667" ry="0.482594" fill="rgb(255, 255, 255)" style="fill-opacity:1.00" />
<rect height="0.723892" width="25.000000" x="715.000000" y="108.914163" fill="rgb(255, 255, 255)" style="fill-opacity:1.00" />
<rect height="0.180973" width="25.000000" x="715.000000" y="109.457081" fill="rgb(255, 165, 0)" style="fill-opacity:1.00" />
<rect height="0.542919" width="6.250000" x="733.750000" y="109.457081" fill="rgb(255, 165, 0)" style="fill-opacity:1.00" />
<!-- End 'G' -->
<!-- Begin 'G' -->
<ellipse cx="775.000000" cy="101.694731" rx="25.000000" ry="2.712105" fill="rgb(255, 165, 0)" style="fill-opacity:1.00" />
<ellipse cx="775.000000" cy="101.694731" rx="16.666667" ry="1.808070" fill="rgb(255, 255, 255)" style="fill-opacity:1.00" />
<rect height="2.712105" width="25.000000" x="775.000000" y="100.338678" fill="rgb(255, 255, 255)" style="fill-opacity:1.00" />
<rect height="0.678026" width="25.000000" x="775.000000" y="102.372757" fill="rgb(255, 165, 0)" style="fill-opacity:1.00" />
<rect height="2.034079" width="6.250000" x="793.750000" y="102.372757" fill="rgb(255, 165, 0)" style="fill-opacity:1.00" />
<!-- End 'G' -->
<!-- Begin 'A' -->
<polygon points=" 750.000000, 106.690480, 771.000000, 104.406836, 779.000000, 104.406836, 800.000000, 106.690480, 792.500000, 106.690480, 786.250000, 106.119569, 763.750000, 106.119569, 757.500000, 106.690480" fill="rgb(178, 34, 34)" style="fill-opacity:1.00" />
<!-- End 'A' -->
<!-- Begin 'C' -->
<ellipse cx="775.000000" cy="107.740234" rx="25.000000" ry="1.049754" fill="rgb(0, 0, 128)" style="fill-opacity:1.00" />
<ellipse cx="775.000000" cy="107.740234" rx="16.666667" ry="0.699836" fill="rgb(255, 255, 255)" style="fill-opacity:1.00" />
<rect height="1.049754" width="25.000000" x="775.000000" y="107.215357" fill="rgb(255, 255, 255)" style="fill-opacity:1.00" />
<!-- End 'C' -->
<!-- Begin 'T' -->
<rect height="0.193602" width="50.000000" x="750.000000" y="108.789988" fill="rgb(0, 100, 0)" style="fill-opacity:1.00" />
<rect height="1.210012" width="10.000000" x="770.000000" y="108.789988" fill="rgb(0, 100, 0)" style="fill-opacity:1.00" />
<!-- End 'T' -->
<text x="430.000000" y="165">
IC = 11.01
</text>

</svg>
