<?xml version="1.0" encoding="UTF-8" standalone="yes"?>
                 <!DOCTYPE svg PUBLIC "-//W3C//DTD SVG 1.0//EN" "http://www.w3.org/TR/2001/REC-SVG-20010904/DTD/svg10.dtd">
                 <svg height="170" width="900" xmlns="http://www.w3.org/2000/svg" xmlns:xlink="http://www.w3.org/1999/xlink">
                 <line x1="85" y1="120" x2="867" y2="120" style="stroke:rgb(99,99,99);stroke-width:2" />
<rect height="7.000000" width="2.000000" x="85.000000" y="120.000000" fill="rgb(0, 0, 0)" style="fill-opacity:1.00" />
<text x="107.000000" y="140">
1
</text>
<rect height="7.000000" width="2.000000" x="145.000000" y="120.000000" fill="rgb(0, 0, 0)" style="fill-opacity:1.00" />
<text x="167.000000" y="140">
2
</text>
<rect height="7.000000" width="2.000000" x="205.000000" y="120.000000" fill="rgb(0, 0, 0)" style="fill-opacity:1.00" />
<text x="227.000000" y="140">
3
</text>
<rect height="7.000000" width="2.000000" x="265.000000" y="120.000000" fill="rgb(0, 0, 0)" style="fill-opacity:1.00" />
<text x="287.000000" y="140">
4
</text>
<rect height="7.000000" width="2.000000" x="325.000000" y="120.000000" fill="rgb(0, 0, 0)" style="fill-opacity:1.00" />
<text x="347.000000" y="140">
5
</text>
<rect height="7.000000" width="2.000000" x="385.000000" y="120.000000" fill="rgb(0, 0, 0)" style="fill-opacity:1.00" />
<text x="407.000000" y="140">
6
</text>
<rect height="7.000000" width="2.000000" x="445.000000" y="120.000000" fill="rgb(0, 0, 0)" style="fill-opacity:1.00" />
<text x="467.000000" y="140">
7
</text>
<rect height="7.000000" width="2.000000" x="505.000000" y="120.000000" fill="rgb(0, 0, 0)" style="fill-opacity:1.00" />
<text x="527.000000" y="140">
8
</text>
<rect height="7.000000" width="2.000000" x="565.000000" y="120.000000" fill="rgb(0, 0, 0)" style="fill-opacity:1.00" />
<text x="587.000000" y="140">
9
</text>
<rect height="7.000000" width="2.000000" x="625.000000" y="120.000000" fill="rgb(0, 0, 0)" style="fill-opacity:1.00" />
<text x="647.000000" y="140">
10
</text>
<rect height="7.000000" width="2.000000" x="685.000000" y="120.000000" fill="rgb(0, 0, 0)" style="fill-opacity:1.00" />
<text x="707.000000" y="140">
11
</text>
<rect height="7.000000" width="2.000000" x="745.000000" y="120.000000" fill="rgb(0, 0, 0)" style="fill-opacity:1.00" />
<text x="767.000000" y="140">
12
</text>
<rect height="7.000000" width="2.000000" x="805.000000" y="120.000000" fill="rgb(0, 0, 0)" style="fill-opacity:1.00" />
<text x="827.000000" y="140">
13
</text>
<rect height="7.000000" width="2.000000" x="865.000000" y="120.000000" fill="rgb(0, 0, 0)" style="fill-opacity:1.00" />
<line x1="80" y1="112" x2="80" y2="10" style="stroke:rgb(99,99,99);stroke-width:2" />
<rect height="2.000000" width="7.000000" x="73.000000" y="110.000000" fill="rgb(0, 0, 0)" style="fill-opacity:1.00" />
<text x="63" y="115">
0
</text>
<rect height="2.000000" width="7.000000" x="73.000000" y="60.000000" fill="rgb(0, 0, 0)" style="fill-opacity:1.00" />
<text x="63" y="65">
1
</text>
<rect height="2.000000" width="7.000000" x="73.000000" y="10.000000" fill="rgb(0, 0, 0)" style="fill-opacity:1.00" />
<text x="63" y="15">
2
</text>
<text x="50" y="65"
transform="rotate(-90, 50, 70)">
bits
</text>
<!-- Begin 'C' -->
<ellipse cx="115.000000" cy="107.931864" rx="25.000000" ry="0.467088" fill="rgb(0, 0, 128)" style="fill-opacity:1.00" />
<ellipse cx="115.000000" cy="107.931864" rx="16.666667" ry="0.311392" fill="rgb(255, 255, 255)" style="fill-opacity:1.00" />
<rect height="0.467088" width="25.000000" x="115.000000" y="107.698320" fill="rgb(255, 255, 255)" style="fill-opacity:1.00" />
<!-- End 'C' -->
<!-- Begin 'A' -->
<polygon points=" 90.000000, 108.961887, 111.000000, 108.398951, 119.000000, 108.398951, 140.000000, 108.961887, 132.500000, 108.961887, 126.250000, 108.821153, 103.750000, 108.821153, 97.500000, 108.961887" fill="rgb(178, 34, 34)" style="fill-opacity:1.00" />
<!-- End 'A' -->
<!-- Begin 'T' -->
<rect height="0.086329" width="50.000000" x="90.000000" y="108.961887" fill="rgb(0, 100, 0)" style="fill-opacity:1.00" />
<rect height="0.539554" width="10.000000" x="110.000000" y="108.961887" fill="rgb(0, 100, 0)" style="fill-opacity:1.00" />
<!-- End 'T' -->
<!-- Begin 'G' -->
<ellipse cx="115.000000" cy="109.750721" rx="25.000000" ry="0.249279" fill="rgb(255, 165, 0)" style="fill-opacity:1.00" />
<ellipse cx="115.000000" cy="109.750721" rx="16.666667" ry="0.166186" fill="rgb(255, 255, 255)" style="fill-opacity:1.00" />
<rect height="0.249279" width="25.000000" x="115.000000" y="109.626081" fill="rgb(255, 255, 255)" style="fill-opacity:1.00" />
<rect height="0.062320" width="25.000000" x="115.000000" y="109.813041" fill="rgb(255, 165, 0)" style="fill-opacity:1.00" />
<rect height="0.186959" width="6.250000" x="133.750000" y="109.813041" fill="rgb(255, 165, 0)" style="fill-opacity:1.00" />
<!-- End 'G' -->
<!-- Begin 'A' -->
<polygon points=" 150.000000, 106.953358, 171.000000, 104.716944, 179.000000, 104.716944, 200.000000, 106.953358, 192.500000, 106.953358, 186.250000, 106.394255, 163.750000, 106.394255, 157.500000, 106.953358" fill="rgb(178, 34, 34)" style="fill-opacity:1.00" />
<!-- End 'A' -->
<!-- Begin 'T' -->
<rect height="0.179830" width="50.000000" x="150.000000" y="106.953358" fill="rgb(0, 100, 0)" style="fill-opacity:1.00" />
<rect height="1.123940" width="10.000000" x="170.000000" y="106.953358" fill="rgb(0, 100, 0)" style="fill-opacity:1.00" />
<!-- End 'T' -->
<!-- Begin 'C' -->
<ellipse cx="175.000000" cy="108.574650" rx="25.000000" ry="0.497352" fill="rgb(0, 0, 128)" style="fill-opacity:1.00" />
<ellipse cx="175.000000" cy="108.574650" rx="16.666667" ry="0.331568" fill="rgb(255, 255, 255)" style="fill-opacity:1.00" />
<rect height="0.497352" width="25.000000" x="175.000000" y="108.325974" fill="rgb(255, 255, 255)" style="fill-opacity:1.00" />
<!-- End 'C' -->
<!-- Begin 'G' -->
<ellipse cx="175.000000" cy="109.536001" rx="25.000000" ry="0.463999" fill="rgb(255, 165, 0)" style="fill-opacity:1.00" />
<ellipse cx="175.000000" cy="109.536001" rx="16.666667" ry="0.309333" fill="rgb(255, 255, 255)" style="fill-opacity:1.00" />
<rect height="0.463999" width="25.000000" x="175.000000" y="109.304001" fill="rgb(255, 255, 255)" style="fill-opacity:1.00" />
<rect height="0.116000" width="25.000000" x="175.000000" y="109.652001" fill="rgb(255, 165, 0)" style="fill-opacity:1.00" />
<rect height="0.347999" width="6.250000" x="193.750000" y="109.652001" fill="rgb(255, 165, 0)" style="fill-opacity:1.00" />
<!-- End 'G' -->
<!-- Begin 'G' -->
<ellipse cx="235.000000" cy="92.134088" rx="25.000000" ry="5.262694" fill="rgb(255, 165, 0)" style="fill-opacity:1.00" />
<ellipse cx="235.000000" cy="92.134088" rx="16.666667" ry="3.508463" fill="rgb(255, 255, 255)" style="fill-opacity:1.00" />
<rect height="5.262694" width="25.000000" x="235.000000" y="89.502741" fill="rgb(255, 255, 255)" style="fill-opacity:1.00" />
<rect height="1.315674" width="25.000000" x="235.000000" y="93.449762" fill="rgb(255, 165, 0)" style="fill-opacity:1.00" />
<rect height="3.947021" width="6.250000" x="253.750000" y="93.449762" fill="rgb(255, 165, 0)" style="fill-opacity:1.00" />
<!-- End 'G' -->
<!-- Begin 'A' -->
<polygon points=" 210.000000, 107.130128, 231.000000, 97.396782, 239.000000, 97.396782, 260.000000, 107.130128, 252.500000, 107.130128, 246.250000, 104.696792, 223.750000, 104.696792, 217.500000, 107.130128" fill="rgb(178, 34, 34)" style="fill-opacity:1.00" />
<polygon points=" 235.000000, 99.343451, 227.000000, 102.236790, 242.000000, 102.236790" fill="rgb(255, 255, 255)" style="fill-opacity:1.00" />
<!-- End 'A' -->
<!-- Begin 'C' -->
<ellipse cx="235.000000" cy="107.969376" rx="25.000000" ry="0.839248" fill="rgb(0, 0, 128)" style="fill-opacity:1.00" />
<ellipse cx="235.000000" cy="107.969376" rx="16.666667" ry="0.559499" fill="rgb(255, 255, 255)" style="fill-opacity:1.00" />
<rect height="0.839248" width="25.000000" x="235.000000" y="107.549752" fill="rgb(255, 255, 255)" style="fill-opacity:1.00" />
<!-- End 'C' -->
<!-- Begin 'T' -->
<rect height="0.190620" width="50.000000" x="210.000000" y="108.808624" fill="rgb(0, 100, 0)" style="fill-opacity:1.00" />
<rect height="1.191376" width="10.000000" x="230.000000" y="108.808624" fill="rgb(0, 100, 0)" style="fill-opacity:1.00" />
<!-- End 'T' -->
<!-- Begin 'A' -->
<polygon points=" 270.000000, 94.989285, 291.000000, 50.902699, 299.000000, 50.902699, 320.000000, 94.989285, 312.500000, 94.989285, 306.250000, 83.967639, 283.750000, 83.967639, 277.500000, 94.989285" fill="rgb(178, 34, 34)" style="fill-opacity:1.00" />
<polygon points=" 295.000000, 59.720017, 287.000000, 76.354651, 302.000000, 76.354651" fill="rgb(255, 255, 255)" style="fill-opacity:1.00" />
<!-- End 'A' -->
<!-- Begin 'G' -->
<ellipse cx="295.000000" cy="102.493675" rx="25.000000" ry="7.504390" fill="rgb(255, 165, 0)" style="fill-opacity:1.00" />
<ellipse cx="295.000000" cy="102.493675" rx="16.666667" ry="5.002927" fill="rgb(255, 255, 255)" style="fill-opacity:1.00" />
<rect height="7.504390" width="25.000000" x="295.000000" y="98.741480" fill="rgb(255, 255, 255)" style="fill-opacity:1.00" />
<rect height="1.876097" width="25.000000" x="295.000000" y="104.369772" fill="rgb(255, 165, 0)" style="fill-opacity:1.00" />
<rect height="5.628292" width="6.250000" x="313.750000" y="104.369772" fill="rgb(255, 165, 0)" style="fill-opacity:1.00" />
<!-- End 'G' -->
<!-- Begin 'T' -->
<rect height="0.000230" width="50.000000" x="270.000000" y="109.998065" fill="rgb(0, 100, 0)" style="fill-opacity:1.00" />
<rect height="0.001436" width="10.000000" x="290.000000" y="109.998065" fill="rgb(0, 100, 0)" style="fill-opacity:1.00" />
<!-- End 'T' -->
<!-- Begin 'C' -->
<ellipse cx="295.000000" cy="109.999750" rx="25.000000" ry="0.000250" fill="rgb(0, 0, 128)" style="fill-opacity:1.00" />
<ellipse cx="295.000000" cy="109.999750" rx="16.666667" ry="0.000166" fill="rgb(255, 255, 255)" style="fill-opacity:1.00" />
<rect height="0.000250" width="25.000000" x="295.000000" y="109.999626" fill="rgb(255, 255, 255)" style="fill-opacity:1.00" />
<!-- End 'C' -->
<!-- Begin 'G' -->
<ellipse cx="355.000000" cy="60.084741" rx="25.000000" ry="49.888507" fill="rgb(255, 165, 0)" style="fill-opacity:1.00" />
<ellipse cx="355.000000" cy="60.084741" rx="16.666667" ry="33.259005" fill="rgb(255, 255, 255)" style="fill-opacity:1.00" />
<rect height="49.888507" width="25.000000" x="355.000000" y="35.140487" fill="rgb(255, 255, 255)" style="fill-opacity:1.00" />
<rect height="12.472127" width="25.000000" x="355.000000" y="72.556867" fill="rgb(255, 165, 0)" style="fill-opacity:1.00" />
<rect height="37.416380" width="6.250000" x="373.750000" y="72.556867" fill="rgb(255, 165, 0)" style="fill-opacity:1.00" />
<!-- End 'G' -->
<!-- Begin 'C' -->
<ellipse cx="355.000000" cy="109.981558" rx="25.000000" ry="0.008310" fill="rgb(0, 0, 128)" style="fill-opacity:1.00" />
<ellipse cx="355.000000" cy="109.981558" rx="16.666667" ry="0.005540" fill="rgb(255, 255, 255)" style="fill-opacity:1.00" />
<rect height="0.008310" width="25.000000" x="355.000000" y="109.977403" fill="rgb(255, 255, 255)" style="fill-opacity:1.00" />
<!-- End 'C' -->
<!-- Begin 'T' -->
<rect height="0.000880" width="50.000000" x="330.000000" y="109.989868" fill="rgb(0, 100, 0)" style="fill-opacity:1.00" />
<rect height="0.005499" width="10.000000" x="350.000000" y="109.989868" fill="rgb(0, 100, 0)" style="fill-opacity:1.00" />
<!-- End 'T' -->
<!-- Begin 'A' -->
<polygon points=" 330.000000, 110.000000, 351.000000, 109.995366, 359.000000, 109.995366, 380.000000, 110.000000, 372.500000, 110.000000, 366.250000, 109.998842, 343.750000, 109.998842, 337.500000, 110.000000" fill="rgb(178, 34, 34)" style="fill-opacity:1.00" />
<!-- End 'A' -->
<!-- Begin 'G' -->
<ellipse cx="415.000000" cy="60.022530" rx="25.000000" ry="49.971232" fill="rgb(255, 165, 0)" style="fill-opacity:1.00" />
<ellipse cx="415.000000" cy="60.022530" rx="16.666667" ry="33.314155" fill="rgb(255, 255, 255)" style="fill-opacity:1.00" />
<rect height="49.971232" width="25.000000" x="415.000000" y="35.036914" fill="rgb(255, 255, 255)" style="fill-opacity:1.00" />
<rect height="12.492808" width="25.000000" x="415.000000" y="72.515338" fill="rgb(255, 165, 0)" style="fill-opacity:1.00" />
<rect height="37.478424" width="6.250000" x="433.750000" y="72.515338" fill="rgb(255, 165, 0)" style="fill-opacity:1.00" />
<!-- End 'G' -->
<!-- Begin 'T' -->
<rect height="0.000708" width="50.000000" x="390.000000" y="109.993762" fill="rgb(0, 100, 0)" style="fill-opacity:1.00" />
<rect height="0.004426" width="10.000000" x="410.000000" y="109.993762" fill="rgb(0, 100, 0)" style="fill-opacity:1.00" />
<!-- End 'T' -->
<!-- Begin 'A' -->
<polygon points=" 390.000000, 109.999770, 411.000000, 109.998188, 419.000000, 109.998188, 440.000000, 109.999770, 432.500000, 109.999770, 426.250000, 109.999375, 403.750000, 109.999375, 397.500000, 109.999770" fill="rgb(178, 34, 34)" style="fill-opacity:1.00" />
<!-- End 'A' -->
<!-- Begin 'C' -->
<ellipse cx="415.000000" cy="109.999885" rx="25.000000" ry="0.000115" fill="rgb(0, 0, 128)" style="fill-opacity:1.00" />
<ellipse cx="415.000000" cy="109.999885" rx="16.666667" ry="0.000077" fill="rgb(255, 255, 255)" style="fill-opacity:1.00" />
<rect height="0.000115" width="25.000000" x="415.000000" y="109.999828" fill="rgb(255, 255, 255)" style="fill-opacity:1.00" />
<!-- End 'C' -->
<!-- Begin 'T' -->
<rect height="15.867371" width="50.000000" x="450.000000" y="10.713378" fill="rgb(0, 100, 0)" style="fill-opacity:1.00" />
<rect height="99.171069" width="10.000000" x="470.000000" y="10.713378" fill="rgb(0, 100, 0)" style="fill-opacity:1.00" />
<!-- End 'T' -->
<!-- Begin 'G' -->
<ellipse cx="475.000000" cy="109.916848" rx="25.000000" ry="0.032401" fill="rgb(255, 165, 0)" style="fill-opacity:1.00" />
<ellipse cx="475.000000" cy="109.916848" rx="16.666667" ry="0.021601" fill="rgb(255, 255, 255)" style="fill-opacity:1.00" />
<rect height="0.032401" width="25.000000" x="475.000000" y="109.900647" fill="rgb(255, 255, 255)" style="fill-opacity:1.00" />
<rect height="0.008100" width="25.000000" x="475.000000" y="109.924948" fill="rgb(255, 165, 0)" style="fill-opacity:1.00" />
<rect height="0.024301" width="6.250000" x="493.750000" y="109.924948" fill="rgb(255, 165, 0)" style="fill-opacity:1.00" />
<!-- End 'G' -->
<!-- Begin 'C' -->
<ellipse cx="475.000000" cy="109.973913" rx="25.000000" ry="0.024664" fill="rgb(0, 0, 128)" style="fill-opacity:1.00" />
<ellipse cx="475.000000" cy="109.973913" rx="16.666667" ry="0.016442" fill="rgb(255, 255, 255)" style="fill-opacity:1.00" />
<rect height="0.024664" width="25.000000" x="475.000000" y="109.961581" fill="rgb(255, 255, 255)" style="fill-opacity:1.00" />
<!-- End 'C' -->
<!-- Begin 'A' -->
<polygon points=" 450.000000, 110.000000, 471.000000, 109.998577, 479.000000, 109.998577, 500.000000, 110.000000, 492.500000, 110.000000, 486.250000, 109.999644, 463.750000, 109.999644, 457.500000, 110.000000" fill="rgb(178, 34, 34)" style="fill-opacity:1.00" />
<!-- End 'A' -->
<!-- Begin 'C' -->
<ellipse cx="535.000000" cy="60.466679" rx="25.000000" ry="49.321001" fill="rgb(0, 0, 128)" style="fill-opacity:1.00" />
<ellipse cx="535.000000" cy="60.466679" rx="16.666667" ry="32.880667" fill="rgb(255, 255, 255)" style="fill-opacity:1.00" />
<rect height="49.321001" width="25.000000" x="535.000000" y="35.806178" fill="rgb(255, 255, 255)" style="fill-opacity:1.00" />
<!-- End 'C' -->
<!-- Begin 'T' -->
<rect height="0.031645" width="50.000000" x="510.000000" y="109.787680" fill="rgb(0, 100, 0)" style="fill-opacity:1.00" />
<rect height="0.197782" width="10.000000" x="530.000000" y="109.787680" fill="rgb(0, 100, 0)" style="fill-opacity:1.00" />
<!-- End 'T' -->
<!-- Begin 'G' -->
<ellipse cx="535.000000" cy="109.992681" rx="25.000000" ry="0.007219" fill="rgb(255, 165, 0)" style="fill-opacity:1.00" />
<ellipse cx="535.000000" cy="109.992681" rx="16.666667" ry="0.004813" fill="rgb(255, 255, 255)" style="fill-opacity:1.00" />
<rect height="0.007219" width="25.000000" x="535.000000" y="109.989071" fill="rgb(255, 255, 255)" style="fill-opacity:1.00" />
<rect height="0.001805" width="25.000000" x="535.000000" y="109.994486" fill="rgb(255, 165, 0)" style="fill-opacity:1.00" />
<rect height="0.005414" width="6.250000" x="553.750000" y="109.994486" fill="rgb(255, 165, 0)" style="fill-opacity:1.00" />
<!-- End 'G' -->
<!-- Begin 'A' -->
<polygon points=" 510.000000, 110.000000, 531.000000, 109.999900, 539.000000, 109.999900, 560.000000, 110.000000, 552.500000, 110.000000, 546.250000, 109.999975, 523.750000, 109.999975, 517.500000, 110.000000" fill="rgb(178, 34, 34)" style="fill-opacity:1.00" />
<!-- End 'A' -->
<!-- Begin 'A' -->
<polygon points=" 570.000000, 108.544135, 591.000000, 15.755033, 599.000000, 15.755033, 620.000000, 108.544135, 612.500000, 108.544135, 606.250000, 85.346859, 583.750000, 85.346859, 577.500000, 108.544135" fill="rgb(178, 34, 34)" style="fill-opacity:1.00" />
<polygon points=" 595.000000, 34.312853, 587.000000, 70.428494, 602.000000, 70.428494" fill="rgb(255, 255, 255)" style="fill-opacity:1.00" />
<!-- End 'A' -->
<!-- Begin 'G' -->
<ellipse cx="595.000000" cy="109.271916" rx="25.000000" ry="0.727781" fill="rgb(255, 165, 0)" style="fill-opacity:1.00" />
<ellipse cx="595.000000" cy="109.271916" rx="16.666667" ry="0.485187" fill="rgb(255, 255, 255)" style="fill-opacity:1.00" />
<rect height="0.727781" width="25.000000" x="595.000000" y="108.908026" fill="rgb(255, 255, 255)" style="fill-opacity:1.00" />
<rect height="0.181945" width="25.000000" x="595.000000" y="109.453861" fill="rgb(255, 165, 0)" style="fill-opacity:1.00" />
<rect height="0.545836" width="6.250000" x="613.750000" y="109.453861" fill="rgb(255, 165, 0)" style="fill-opacity:1.00" />
<!-- End 'G' -->
<!-- Begin 'T' -->
<rect height="0.000031" width="50.000000" x="570.000000" y="109.999697" fill="rgb(0, 100, 0)" style="fill-opacity:1.00" />
<rect height="0.000191" width="10.000000" x="590.000000" y="109.999697" fill="rgb(0, 100, 0)" style="fill-opacity:1.00" />
<!-- End 'T' -->
<!-- Begin 'C' -->
<ellipse cx="595.000000" cy="109.999944" rx="25.000000" ry="0.000056" fill="rgb(0, 0, 128)" style="fill-opacity:1.00" />
<ellipse cx="595.000000" cy="109.999944" rx="16.666667" ry="0.000037" fill="rgb(255, 255, 255)" style="fill-opacity:1.00" />
<rect height="0.000056" width="25.000000" x="595.000000" y="109.999916" fill="rgb(255, 255, 255)" style="fill-opacity:1.00" />
<!-- End 'C' -->
<!-- Begin 'G' -->
<ellipse cx="655.000000" cy="108.225522" rx="25.000000" ry="0.347516" fill="rgb(255, 165, 0)" style="fill-opacity:1.00" />
<ellipse cx="655.000000" cy="108.225522" rx="16.666667" ry="0.231677" fill="rgb(255, 255, 255)" style="fill-opacity:1.00" />
<rect height="0.347516" width="25.000000" x="655.000000" y="108.051764" fill="rgb(255, 255, 255)" style="fill-opacity:1.00" />
<rect height="0.086879" width="25.000000" x="655.000000" y="108.312401" fill="rgb(255, 165, 0)" style="fill-opacity:1.00" />
<rect height="0.260637" width="6.250000" x="673.750000" y="108.312401" fill="rgb(255, 165, 0)" style="fill-opacity:1.00" />
<!-- End 'G' -->
<!-- Begin 'A' -->
<polygon points=" 630.000000, 109.152761, 651.000000, 108.573038, 659.000000, 108.573038, 680.000000, 109.152761, 672.500000, 109.152761, 666.250000, 109.007830, 643.750000, 109.007830, 637.500000, 109.152761" fill="rgb(178, 34, 34)" style="fill-opacity:1.00" />
<!-- End 'A' -->
<!-- Begin 'C' -->
<ellipse cx="655.000000" cy="109.402749" rx="25.000000" ry="0.249988" fill="rgb(0, 0, 128)" style="fill-opacity:1.00" />
<ellipse cx="655.000000" cy="109.402749" rx="16.666667" ry="0.166659" fill="rgb(255, 255, 255)" style="fill-opacity:1.00" />
<rect height="0.249988" width="25.000000" x="655.000000" y="109.277755" fill="rgb(255, 255, 255)" style="fill-opacity:1.00" />
<!-- End 'C' -->
<!-- Begin 'T' -->
<rect height="0.055562" width="50.000000" x="630.000000" y="109.652738" fill="rgb(0, 100, 0)" style="fill-opacity:1.00" />
<rect height="0.347262" width="10.000000" x="650.000000" y="109.652738" fill="rgb(0, 100, 0)" style="fill-opacity:1.00" />
<!-- End 'T' -->
<!-- Begin 'A' -->
<polygon points=" 690.000000, 106.045685, 711.000000, 103.883448, 719.000000, 103.883448, 740.000000, 106.045685, 732.500000, 106.045685, 726.250000, 105.505126, 703.750000, 105.505126, 697.500000, 106.045685" fill="rgb(178, 34, 34)" style="fill-opacity:1.00" />
<!-- End 'A' -->
<!-- Begin 'G' -->
<ellipse cx="715.000000" cy="107.105500" rx="25.000000" ry="1.059815" fill="rgb(255, 165, 0)" style="fill-opacity:1.00" />
<ellipse cx="715.000000" cy="107.105500" rx="16.666667" ry="0.706543" fill="rgb(255, 255, 255)" style="fill-opacity:1.00" />
<rect height="1.059815" width="25.000000" x="715.000000" y="106.575593" fill="rgb(255, 255, 255)" style="fill-opacity:1.00" />
<rect height="0.264954" width="25.000000" x="715.000000" y="107.370454" fill="rgb(255, 165, 0)" style="fill-opacity:1.00" />
<rect height="0.794861" width="6.250000" x="733.750000" y="107.370454" fill="rgb(255, 165, 0)" style="fill-opacity:1.00" />
<!-- End 'G' -->
<!-- Begin 'C' -->
<ellipse cx="715.000000" cy="108.682375" rx="25.000000" ry="0.517060" fill="rgb(0, 0, 128)" style="fill-opacity:1.00" />
<ellipse cx="715.000000" cy="108.682375" rx="16.666667" ry="0.344707" fill="rgb(255, 255, 255)" style="fill-opacity:1.00" />
<rect height="0.517060" width="25.000000" x="715.000000" y="108.423845" fill="rgb(255, 255, 255)" style="fill-opacity:1.00" />
<!-- End 'C' -->
<!-- Begin 'T' -->
<rect height="0.128090" width="50.000000" x="690.000000" y="109.199435" fill="rgb(0, 100, 0)" style="fill-opacity:1.00" />
<rect height="0.800565" width="10.000000" x="710.000000" y="109.199435" fill="rgb(0, 100, 0)" style="fill-opacity:1.00" />
<!-- End 'T' -->
<!-- Begin 'G' -->
<ellipse cx="775.000000" cy="106.225023" rx="25.000000" ry="0.947084" fill="rgb(255, 165, 0)" style="fill-opacity:1.00" />
<ellipse cx="775.000000" cy="106.225023" rx="16.666667" ry="0.631389" fill="rgb(255, 255, 255)" style="fill-opacity:1.00" />
<rect height="0.947084" width="25.000000" x="775.000000" y="105.751481" fill="rgb(255, 255, 255)" style="fill-opacity:1.00" />
<rect height="0.236771" width="25.000000" x="775.000000" y="106.461793" fill="rgb(255, 165, 0)" style="fill-opacity:1.00" />
<rect height="0.710313" width="6.250000" x="793.750000" y="106.461793" fill="rgb(255, 165, 0)" style="fill-opacity:1.00" />
<!-- End 'G' -->
<!-- Begin 'A' -->
<polygon points=" 750.000000, 108.362344, 771.000000, 107.172106, 779.000000, 107.172106, 800.000000, 108.362344, 792.500000, 108.362344, 786.250000, 108.064785, 763.750000, 108.064785, 757.500000, 108.362344" fill="rgb(178, 34, 34)" style="fill-opacity:1.00" />
<!-- End 'A' -->
<!-- Begin 'T' -->
<rect height="0.138730" width="50.000000" x="750.000000" y="108.362344" fill="rgb(0, 100, 0)" style="fill-opacity:1.00" />
<rect height="0.867062" width="10.000000" x="770.000000" y="108.362344" fill="rgb(0, 100, 0)" style="fill-opacity:1.00" />
<!-- End 'T' -->
<!-- Begin 'C' -->
<ellipse cx="775.000000" cy="109.614703" rx="25.000000" ry="0.385297" fill="rgb(0, 0, 128)" style="fill-opacity:1.00" />
<ellipse cx="775.000000" cy="109.614703" rx="16.666667" ry="0.256865" fill="rgb(255, 255, 255)" style="fill-opacity:1.00" />
<rect height="0.385297" width="25.000000" x="775.000000" y="109.422055" fill="rgb(255, 255, 255)" style="fill-opacity:1.00" />
<!-- End 'C' -->
<!-- Begin 'G' -->
<ellipse cx="835.000000" cy="107.888254" rx="25.000000" ry="0.476566" fill="rgb(255, 165, 0)" style="fill-opacity:1.00" />
<ellipse cx="835.000000" cy="107.888254" rx="16.666667" ry="0.317710" fill="rgb(255, 255, 255)" style="fill-opacity:1.00" />
<rect height="0.476566" width="25.000000" x="835.000000" y="107.649971" fill="rgb(255, 255, 255)" style="fill-opacity:1.00" />
<rect height="0.119141" width="25.000000" x="835.000000" y="108.007395" fill="rgb(255, 165, 0)" style="fill-opacity:1.00" />
<rect height="0.357424" width="6.250000" x="853.750000" y="108.007395" fill="rgb(255, 165, 0)" style="fill-opacity:1.00" />
<!-- End 'G' -->
<!-- Begin 'A' -->
<polygon points=" 810.000000, 108.966079, 831.000000, 108.364820, 839.000000, 108.364820, 860.000000, 108.966079, 852.500000, 108.966079, 846.250000, 108.815764, 823.750000, 108.815764, 817.500000, 108.966079" fill="rgb(178, 34, 34)" style="fill-opacity:1.00" />
<!-- End 'A' -->
<!-- Begin 'T' -->
<rect height="0.083089" width="50.000000" x="810.000000" y="108.966079" fill="rgb(0, 100, 0)" style="fill-opacity:1.00" />
<rect height="0.519304" width="10.000000" x="830.000000" y="108.966079" fill="rgb(0, 100, 0)" style="fill-opacity:1.00" />
<!-- End 'T' -->
<!-- Begin 'C' -->
<ellipse cx="835.000000" cy="109.742692" rx="25.000000" ry="0.257308" fill="rgb(0, 0, 128)" style="fill-opacity:1.00" />
<ellipse cx="835.000000" cy="109.742692" rx="16.666667" ry="0.171539" fill="rgb(255, 255, 255)" style="fill-opacity:1.00" />
<rect height="0.257308" width="25.000000" x="835.000000" y="109.614037" fill="rgb(255, 255, 255)" style="fill-opacity:1.00" />
<!-- End 'C' -->
<text x="460.000000" y="165">
IC = 11.95
</text>

</svg>
