<?xml version="1.0" encoding="UTF-8" standalone="yes"?>
                 <!DOCTYPE svg PUBLIC "-//W3C//DTD SVG 1.0//EN" "http://www.w3.org/TR/2001/REC-SVG-20010904/DTD/svg10.dtd">
                 <svg height="170" width="1020" xmlns="http://www.w3.org/2000/svg" xmlns:xlink="http://www.w3.org/1999/xlink">
                 <line x1="85" y1="120" x2="987" y2="120" style="stroke:rgb(99,99,99);stroke-width:2" />
<rect height="7.000000" width="2.000000" x="85.000000" y="120.000000" fill="rgb(0, 0, 0)" style="fill-opacity:1.00" />
<text x="107.000000" y="140">
1
</text>
<rect height="7.000000" width="2.000000" x="145.000000" y="120.000000" fill="rgb(0, 0, 0)" style="fill-opacity:1.00" />
<text x="167.000000" y="140">
2
</text>
<rect height="7.000000" width="2.000000" x="205.000000" y="120.000000" fill="rgb(0, 0, 0)" style="fill-opacity:1.00" />
<text x="227.000000" y="140">
3
</text>
<rect height="7.000000" width="2.000000" x="265.000000" y="120.000000" fill="rgb(0, 0, 0)" style="fill-opacity:1.00" />
<text x="287.000000" y="140">
4
</text>
<rect height="7.000000" width="2.000000" x="325.000000" y="120.000000" fill="rgb(0, 0, 0)" style="fill-opacity:1.00" />
<text x="347.000000" y="140">
5
</text>
<rect height="7.000000" width="2.000000" x="385.000000" y="120.000000" fill="rgb(0, 0, 0)" style="fill-opacity:1.00" />
<text x="407.000000" y="140">
6
</text>
<rect height="7.000000" width="2.000000" x="445.000000" y="120.000000" fill="rgb(0, 0, 0)" style="fill-opacity:1.00" />
<text x="467.000000" y="140">
7
</text>
<rect height="7.000000" width="2.000000" x="505.000000" y="120.000000" fill="rgb(0, 0, 0)" style="fill-opacity:1.00" />
<text x="527.000000" y="140">
8
</text>
<rect height="7.000000" width="2.000000" x="565.000000" y="120.000000" fill="rgb(0, 0, 0)" style="fill-opacity:1.00" />
<text x="587.000000" y="140">
9
</text>
<rect height="7.000000" width="2.000000" x="625.000000" y="120.000000" fill="rgb(0, 0, 0)" style="fill-opacity:1.00" />
<text x="647.000000" y="140">
10
</text>
<rect height="7.000000" width="2.000000" x="685.000000" y="120.000000" fill="rgb(0, 0, 0)" style="fill-opacity:1.00" />
<text x="707.000000" y="140">
11
</text>
<rect height="7.000000" width="2.000000" x="745.000000" y="120.000000" fill="rgb(0, 0, 0)" style="fill-opacity:1.00" />
<text x="767.000000" y="140">
12
</text>
<rect height="7.000000" width="2.000000" x="805.000000" y="120.000000" fill="rgb(0, 0, 0)" style="fill-opacity:1.00" />
<text x="827.000000" y="140">
13
</text>
<rect height="7.000000" width="2.000000" x="865.000000" y="120.000000" fill="rgb(0, 0, 0)" style="fill-opacity:1.00" />
<text x="887.000000" y="140">
14
</text>
<rect height="7.000000" width="2.000000" x="925.000000" y="120.000000" fill="rgb(0, 0, 0)" style="fill-opacity:1.00" />
<text x="947.000000" y="140">
15
</text>
<rect height="7.000000" width="2.000000" x="985.000000" y="120.000000" fill="rgb(0, 0, 0)" style="fill-opacity:1.00" />
<line x1="80" y1="112" x2="80" y2="10" style="stroke:rgb(99,99,99);stroke-width:2" />
<rect height="2.000000" width="7.000000" x="73.000000" y="110.000000" fill="rgb(0, 0, 0)" style="fill-opacity:1.00" />
<text x="63" y="115">
0
</text>
<rect height="2.000000" width="7.000000" x="73.000000" y="60.000000" fill="rgb(0, 0, 0)" style="fill-opacity:1.00" />
<text x="63" y="65">
1
</text>
<rect height="2.000000" width="7.000000" x="73.000000" y="10.000000" fill="rgb(0, 0, 0)" style="fill-opacity:1.00" />
<text x="63" y="15">
2
</text>
<text x="50" y="65"
transform="rotate(-90, 50, 70)">
bits
</text>
<!-- Begin 'A' -->
<polygon points=" 90.000000, 106.606066, 111.000000, 104.461450, 119.000000, 104.461450, 140.000000, 106.606066, 132.500000, 106.606066, 126.250000, 106.069912, 103.750000, 106.069912, 97.500000, 106.606066" fill="rgb(178, 34, 34)" style="fill-opacity:1.00" />
<!-- End 'A' -->
<!-- Begin 'T' -->
<rect height="0.262439" width="50.000000" x="90.000000" y="106.606066" fill="rgb(0, 100, 0)" style="fill-opacity:1.00" />
<rect height="1.640245" width="10.000000" x="110.000000" y="106.606066" fill="rgb(0, 100, 0)" style="fill-opacity:1.00" />
<!-- End 'T' -->
<!-- Begin 'G' -->
<ellipse cx="115.000000" cy="108.732121" rx="25.000000" ry="0.485810" fill="rgb(255, 165, 0)" style="fill-opacity:1.00" />
<ellipse cx="115.000000" cy="108.732121" rx="16.666667" ry="0.323873" fill="rgb(255, 255, 255)" style="fill-opacity:1.00" />
<rect height="0.485810" width="25.000000" x="115.000000" y="108.489216" fill="rgb(255, 255, 255)" style="fill-opacity:1.00" />
<rect height="0.121452" width="25.000000" x="115.000000" y="108.853573" fill="rgb(255, 165, 0)" style="fill-opacity:1.00" />
<rect height="0.364357" width="6.250000" x="133.750000" y="108.853573" fill="rgb(255, 165, 0)" style="fill-opacity:1.00" />
<!-- End 'G' -->
<!-- Begin 'C' -->
<ellipse cx="115.000000" cy="109.608965" rx="25.000000" ry="0.391035" fill="rgb(0, 0, 128)" style="fill-opacity:1.00" />
<ellipse cx="115.000000" cy="109.608965" rx="16.666667" ry="0.260690" fill="rgb(255, 255, 255)" style="fill-opacity:1.00" />
<rect height="0.391035" width="25.000000" x="115.000000" y="109.413448" fill="rgb(255, 255, 255)" style="fill-opacity:1.00" />
<!-- End 'C' -->
<!-- Begin 'A' -->
<polygon points=" 150.000000, 104.547401, 171.000000, 100.147937, 179.000000, 100.147937, 200.000000, 104.547401, 192.500000, 104.547401, 186.250000, 103.447535, 163.750000, 103.447535, 157.500000, 104.547401" fill="rgb(178, 34, 34)" style="fill-opacity:1.00" />
<!-- End 'A' -->
<!-- Begin 'T' -->
<rect height="0.463569" width="50.000000" x="150.000000" y="104.547401" fill="rgb(0, 100, 0)" style="fill-opacity:1.00" />
<rect height="2.897307" width="10.000000" x="170.000000" y="104.547401" fill="rgb(0, 100, 0)" style="fill-opacity:1.00" />
<!-- End 'T' -->
<!-- Begin 'G' -->
<ellipse cx="175.000000" cy="108.090901" rx="25.000000" ry="0.646194" fill="rgb(255, 165, 0)" style="fill-opacity:1.00" />
<ellipse cx="175.000000" cy="108.090901" rx="16.666667" ry="0.430796" fill="rgb(255, 255, 255)" style="fill-opacity:1.00" />
<rect height="0.646194" width="25.000000" x="175.000000" y="107.767804" fill="rgb(255, 255, 255)" style="fill-opacity:1.00" />
<rect height="0.161548" width="25.000000" x="175.000000" y="108.252450" fill="rgb(255, 165, 0)" style="fill-opacity:1.00" />
<rect height="0.484645" width="6.250000" x="193.750000" y="108.252450" fill="rgb(255, 165, 0)" style="fill-opacity:1.00" />
<!-- End 'G' -->
<!-- Begin 'C' -->
<ellipse cx="175.000000" cy="109.368547" rx="25.000000" ry="0.631453" fill="rgb(0, 0, 128)" style="fill-opacity:1.00" />
<ellipse cx="175.000000" cy="109.368547" rx="16.666667" ry="0.420968" fill="rgb(255, 255, 255)" style="fill-opacity:1.00" />
<rect height="0.631453" width="25.000000" x="175.000000" y="109.052821" fill="rgb(255, 255, 255)" style="fill-opacity:1.00" />
<!-- End 'C' -->
<!-- Begin 'A' -->
<polygon points=" 210.000000, 102.646670, 231.000000, 96.217611, 239.000000, 96.217611, 260.000000, 102.646670, 252.500000, 102.646670, 246.250000, 101.039406, 223.750000, 101.039406, 217.500000, 102.646670" fill="rgb(178, 34, 34)" style="fill-opacity:1.00" />
<!-- End 'A' -->
<!-- Begin 'T' -->
<rect height="0.704230" width="50.000000" x="210.000000" y="102.646670" fill="rgb(0, 100, 0)" style="fill-opacity:1.00" />
<rect height="4.401435" width="10.000000" x="230.000000" y="102.646670" fill="rgb(0, 100, 0)" style="fill-opacity:1.00" />
<!-- End 'T' -->
<!-- Begin 'G' -->
<ellipse cx="235.000000" cy="107.919229" rx="25.000000" ry="0.871124" fill="rgb(255, 165, 0)" style="fill-opacity:1.00" />
<ellipse cx="235.000000" cy="107.919229" rx="16.666667" ry="0.580749" fill="rgb(255, 255, 255)" style="fill-opacity:1.00" />
<rect height="0.871124" width="25.000000" x="235.000000" y="107.483667" fill="rgb(255, 255, 255)" style="fill-opacity:1.00" />
<rect height="0.217781" width="25.000000" x="235.000000" y="108.137010" fill="rgb(255, 165, 0)" style="fill-opacity:1.00" />
<rect height="0.653343" width="6.250000" x="253.750000" y="108.137010" fill="rgb(255, 165, 0)" style="fill-opacity:1.00" />
<!-- End 'G' -->
<!-- Begin 'C' -->
<ellipse cx="235.000000" cy="109.395177" rx="25.000000" ry="0.604823" fill="rgb(0, 0, 128)" style="fill-opacity:1.00" />
<ellipse cx="235.000000" cy="109.395177" rx="16.666667" ry="0.403216" fill="rgb(255, 255, 255)" style="fill-opacity:1.00" />
<rect height="0.604823" width="25.000000" x="235.000000" y="109.092765" fill="rgb(255, 255, 255)" style="fill-opacity:1.00" />
<!-- End 'C' -->
<!-- Begin 'A' -->
<polygon points=" 270.000000, 96.738276, 291.000000, 85.415070, 299.000000, 85.415070, 320.000000, 96.738276, 312.500000, 96.738276, 306.250000, 93.907474, 283.750000, 93.907474, 277.500000, 96.738276" fill="rgb(178, 34, 34)" style="fill-opacity:1.00" />
<polygon points=" 295.000000, 87.679711, 287.000000, 91.208993, 302.000000, 91.208993" fill="rgb(255, 255, 255)" style="fill-opacity:1.00" />
<!-- End 'A' -->
<!-- Begin 'T' -->
<rect height="1.670685" width="50.000000" x="270.000000" y="96.738276" fill="rgb(0, 100, 0)" style="fill-opacity:1.00" />
<rect height="10.441783" width="10.000000" x="290.000000" y="96.738276" fill="rgb(0, 100, 0)" style="fill-opacity:1.00" />
<!-- End 'T' -->
<!-- Begin 'C' -->
<ellipse cx="295.000000" cy="108.050295" rx="25.000000" ry="0.870236" fill="rgb(0, 0, 128)" style="fill-opacity:1.00" />
<ellipse cx="295.000000" cy="108.050295" rx="16.666667" ry="0.580157" fill="rgb(255, 255, 255)" style="fill-opacity:1.00" />
<rect height="0.870236" width="25.000000" x="295.000000" y="107.615177" fill="rgb(255, 255, 255)" style="fill-opacity:1.00" />
<!-- End 'C' -->
<!-- Begin 'G' -->
<ellipse cx="295.000000" cy="109.460266" rx="25.000000" ry="0.539734" fill="rgb(255, 165, 0)" style="fill-opacity:1.00" />
<ellipse cx="295.000000" cy="109.460266" rx="16.666667" ry="0.359823" fill="rgb(255, 255, 255)" style="fill-opacity:1.00" />
<rect height="0.539734" width="25.000000" x="295.000000" y="109.190399" fill="rgb(255, 255, 255)" style="fill-opacity:1.00" />
<rect height="0.134934" width="25.000000" x="295.000000" y="109.595199" fill="rgb(255, 165, 0)" style="fill-opacity:1.00" />
<rect height="0.404801" width="6.250000" x="313.750000" y="109.595199" fill="rgb(255, 165, 0)" style="fill-opacity:1.00" />
<!-- End 'G' -->
<!-- Begin 'T' -->
<rect height="0.628285" width="50.000000" x="330.000000" y="100.748795" fill="rgb(0, 100, 0)" style="fill-opacity:1.00" />
<rect height="3.926779" width="10.000000" x="350.000000" y="100.748795" fill="rgb(0, 100, 0)" style="fill-opacity:1.00" />
<!-- End 'T' -->
<!-- Begin 'A' -->
<polygon points=" 330.000000, 107.523678, 351.000000, 104.675575, 359.000000, 104.675575, 380.000000, 107.523678, 372.500000, 107.523678, 366.250000, 106.811652, 343.750000, 106.811652, 337.500000, 107.523678" fill="rgb(178, 34, 34)" style="fill-opacity:1.00" />
<!-- End 'A' -->
<!-- Begin 'C' -->
<ellipse cx="355.000000" cy="108.280826" rx="25.000000" ry="0.757148" fill="rgb(0, 0, 128)" style="fill-opacity:1.00" />
<ellipse cx="355.000000" cy="108.280826" rx="16.666667" ry="0.504765" fill="rgb(255, 255, 255)" style="fill-opacity:1.00" />
<rect height="0.757148" width="25.000000" x="355.000000" y="107.902252" fill="rgb(255, 255, 255)" style="fill-opacity:1.00" />
<!-- End 'C' -->
<!-- Begin 'G' -->
<ellipse cx="355.000000" cy="109.518987" rx="25.000000" ry="0.481013" fill="rgb(255, 165, 0)" style="fill-opacity:1.00" />
<ellipse cx="355.000000" cy="109.518987" rx="16.666667" ry="0.320675" fill="rgb(255, 255, 255)" style="fill-opacity:1.00" />
<rect height="0.481013" width="25.000000" x="355.000000" y="109.278481" fill="rgb(255, 255, 255)" style="fill-opacity:1.00" />
<rect height="0.120253" width="25.000000" x="355.000000" y="109.639240" fill="rgb(255, 165, 0)" style="fill-opacity:1.00" />
<rect height="0.360760" width="6.250000" x="373.750000" y="109.639240" fill="rgb(255, 165, 0)" style="fill-opacity:1.00" />
<!-- End 'G' -->
<!-- Begin 'T' -->
<rect height="0.175455" width="50.000000" x="390.000000" y="106.806897" fill="rgb(0, 100, 0)" style="fill-opacity:1.00" />
<rect height="1.096591" width="10.000000" x="410.000000" y="106.806897" fill="rgb(0, 100, 0)" style="fill-opacity:1.00" />
<!-- End 'T' -->
<!-- Begin 'A' -->
<polygon points=" 390.000000, 108.849432, 411.000000, 107.903488, 419.000000, 107.903488, 440.000000, 108.849432, 432.500000, 108.849432, 426.250000, 108.612946, 403.750000, 108.612946, 397.500000, 108.849432" fill="rgb(178, 34, 34)" style="fill-opacity:1.00" />
<!-- End 'A' -->
<!-- Begin 'G' -->
<ellipse cx="415.000000" cy="109.174045" rx="25.000000" ry="0.324613" fill="rgb(255, 165, 0)" style="fill-opacity:1.00" />
<ellipse cx="415.000000" cy="109.174045" rx="16.666667" ry="0.216408" fill="rgb(255, 255, 255)" style="fill-opacity:1.00" />
<rect height="0.324613" width="25.000000" x="415.000000" y="109.011738" fill="rgb(255, 255, 255)" style="fill-opacity:1.00" />
<rect height="0.081153" width="25.000000" x="415.000000" y="109.255198" fill="rgb(255, 165, 0)" style="fill-opacity:1.00" />
<rect height="0.243460" width="6.250000" x="433.750000" y="109.255198" fill="rgb(255, 165, 0)" style="fill-opacity:1.00" />
<!-- End 'G' -->
<!-- Begin 'C' -->
<ellipse cx="415.000000" cy="109.749329" rx="25.000000" ry="0.250671" fill="rgb(0, 0, 128)" style="fill-opacity:1.00" />
<ellipse cx="415.000000" cy="109.749329" rx="16.666667" ry="0.167114" fill="rgb(255, 255, 255)" style="fill-opacity:1.00" />
<rect height="0.250671" width="25.000000" x="415.000000" y="109.623993" fill="rgb(255, 255, 255)" style="fill-opacity:1.00" />
<!-- End 'C' -->
<!-- Begin 'T' -->
<rect height="2.441292" width="50.000000" x="450.000000" y="86.034870" fill="rgb(0, 100, 0)" style="fill-opacity:1.00" />
<rect height="15.258074" width="10.000000" x="470.000000" y="86.034870" fill="rgb(0, 100, 0)" style="fill-opacity:1.00" />
<!-- End 'T' -->
<!-- Begin 'C' -->
<ellipse cx="475.000000" cy="102.837933" rx="25.000000" ry="1.544989" fill="rgb(0, 0, 128)" style="fill-opacity:1.00" />
<ellipse cx="475.000000" cy="102.837933" rx="16.666667" ry="1.029993" fill="rgb(255, 255, 255)" style="fill-opacity:1.00" />
<rect height="1.544989" width="25.000000" x="475.000000" y="102.065438" fill="rgb(255, 255, 255)" style="fill-opacity:1.00" />
<!-- End 'C' -->
<!-- Begin 'G' -->
<ellipse cx="475.000000" cy="105.801786" rx="25.000000" ry="1.418864" fill="rgb(255, 165, 0)" style="fill-opacity:1.00" />
<ellipse cx="475.000000" cy="105.801786" rx="16.666667" ry="0.945909" fill="rgb(255, 255, 255)" style="fill-opacity:1.00" />
<rect height="1.418864" width="25.000000" x="475.000000" y="105.092354" fill="rgb(255, 255, 255)" style="fill-opacity:1.00" />
<rect height="0.354716" width="25.000000" x="475.000000" y="106.156501" fill="rgb(255, 165, 0)" style="fill-opacity:1.00" />
<rect height="1.064148" width="6.250000" x="493.750000" y="106.156501" fill="rgb(255, 165, 0)" style="fill-opacity:1.00" />
<!-- End 'G' -->
<!-- Begin 'A' -->
<polygon points=" 450.000000, 110.000000, 471.000000, 107.220649, 479.000000, 107.220649, 500.000000, 110.000000, 492.500000, 110.000000, 486.250000, 109.305162, 463.750000, 109.305162, 457.500000, 110.000000" fill="rgb(178, 34, 34)" style="fill-opacity:1.00" />
<!-- End 'A' -->
<!-- Begin 'A' -->
<polygon points=" 510.000000, 100.609036, 531.000000, 95.170953, 539.000000, 95.170953, 560.000000, 100.609036, 552.500000, 100.609036, 546.250000, 99.249516, 523.750000, 99.249516, 517.500000, 100.609036" fill="rgb(178, 34, 34)" style="fill-opacity:1.00" />
<!-- End 'A' -->
<!-- Begin 'G' -->
<ellipse cx="535.000000" cy="102.925522" rx="25.000000" ry="2.316485" fill="rgb(255, 165, 0)" style="fill-opacity:1.00" />
<ellipse cx="535.000000" cy="102.925522" rx="16.666667" ry="1.544324" fill="rgb(255, 255, 255)" style="fill-opacity:1.00" />
<rect height="2.316485" width="25.000000" x="535.000000" y="101.767279" fill="rgb(255, 255, 255)" style="fill-opacity:1.00" />
<rect height="0.579121" width="25.000000" x="535.000000" y="103.504643" fill="rgb(255, 165, 0)" style="fill-opacity:1.00" />
<rect height="1.737364" width="6.250000" x="553.750000" y="103.504643" fill="rgb(255, 165, 0)" style="fill-opacity:1.00" />
<!-- End 'G' -->
<!-- Begin 'T' -->
<rect height="0.704972" width="50.000000" x="510.000000" y="105.242007" fill="rgb(0, 100, 0)" style="fill-opacity:1.00" />
<rect height="4.406077" width="10.000000" x="530.000000" y="105.242007" fill="rgb(0, 100, 0)" style="fill-opacity:1.00" />
<!-- End 'T' -->
<!-- Begin 'C' -->
<ellipse cx="535.000000" cy="109.824042" rx="25.000000" ry="0.175958" fill="rgb(0, 0, 128)" style="fill-opacity:1.00" />
<ellipse cx="535.000000" cy="109.824042" rx="16.666667" ry="0.117305" fill="rgb(255, 255, 255)" style="fill-opacity:1.00" />
<rect height="0.175958" width="25.000000" x="535.000000" y="109.736063" fill="rgb(255, 255, 255)" style="fill-opacity:1.00" />
<!-- End 'C' -->
<!-- Begin 'A' -->
<polygon points=" 570.000000, 98.682354, 591.000000, 77.760910, 599.000000, 77.760910, 620.000000, 98.682354, 612.500000, 98.682354, 606.250000, 93.451993, 583.750000, 93.451993, 577.500000, 98.682354" fill="rgb(178, 34, 34)" style="fill-opacity:1.00" />
<polygon points=" 595.000000, 81.945198, 587.000000, 89.313776, 602.000000, 89.313776" fill="rgb(255, 255, 255)" style="fill-opacity:1.00" />
<!-- End 'A' -->
<!-- Begin 'G' -->
<ellipse cx="595.000000" cy="102.489866" rx="25.000000" ry="3.807512" fill="rgb(255, 165, 0)" style="fill-opacity:1.00" />
<ellipse cx="595.000000" cy="102.489866" rx="16.666667" ry="2.538341" fill="rgb(255, 255, 255)" style="fill-opacity:1.00" />
<rect height="3.807512" width="25.000000" x="595.000000" y="100.586110" fill="rgb(255, 255, 255)" style="fill-opacity:1.00" />
<rect height="0.951878" width="25.000000" x="595.000000" y="103.441744" fill="rgb(255, 165, 0)" style="fill-opacity:1.00" />
<rect height="2.855634" width="6.250000" x="613.750000" y="103.441744" fill="rgb(255, 165, 0)" style="fill-opacity:1.00" />
<!-- End 'G' -->
<!-- Begin 'T' -->
<rect height="0.419483" width="50.000000" x="570.000000" y="106.297378" fill="rgb(0, 100, 0)" style="fill-opacity:1.00" />
<rect height="2.621767" width="10.000000" x="590.000000" y="106.297378" fill="rgb(0, 100, 0)" style="fill-opacity:1.00" />
<!-- End 'T' -->
<!-- Begin 'C' -->
<ellipse cx="595.000000" cy="109.459572" rx="25.000000" ry="0.540428" fill="rgb(0, 0, 128)" style="fill-opacity:1.00" />
<ellipse cx="595.000000" cy="109.459572" rx="16.666667" ry="0.360285" fill="rgb(255, 255, 255)" style="fill-opacity:1.00" />
<rect height="0.540428" width="25.000000" x="595.000000" y="109.189358" fill="rgb(255, 255, 255)" style="fill-opacity:1.00" />
<!-- End 'C' -->
<!-- Begin 'C' -->
<ellipse cx="655.000000" cy="67.492795" rx="25.000000" ry="36.756320" fill="rgb(0, 0, 128)" style="fill-opacity:1.00" />
<ellipse cx="655.000000" cy="67.492795" rx="16.666667" ry="24.504213" fill="rgb(255, 255, 255)" style="fill-opacity:1.00" />
<rect height="36.756320" width="25.000000" x="655.000000" y="49.114635" fill="rgb(255, 255, 255)" style="fill-opacity:1.00" />
<!-- End 'C' -->
<!-- Begin 'A' -->
<polygon points=" 630.000000, 109.436527, 651.000000, 104.249115, 659.000000, 104.249115, 680.000000, 109.436527, 672.500000, 109.436527, 666.250000, 108.139674, 643.750000, 108.139674, 637.500000, 109.436527" fill="rgb(178, 34, 34)" style="fill-opacity:1.00" />
<!-- End 'A' -->
<!-- Begin 'T' -->
<rect height="0.067469" width="50.000000" x="630.000000" y="109.436527" fill="rgb(0, 100, 0)" style="fill-opacity:1.00" />
<rect height="0.421679" width="10.000000" x="650.000000" y="109.436527" fill="rgb(0, 100, 0)" style="fill-opacity:1.00" />
<!-- End 'T' -->
<!-- Begin 'G' -->
<ellipse cx="655.000000" cy="109.929103" rx="25.000000" ry="0.070897" fill="rgb(255, 165, 0)" style="fill-opacity:1.00" />
<ellipse cx="655.000000" cy="109.929103" rx="16.666667" ry="0.047265" fill="rgb(255, 255, 255)" style="fill-opacity:1.00" />
<rect height="0.070897" width="25.000000" x="655.000000" y="109.893654" fill="rgb(255, 255, 255)" style="fill-opacity:1.00" />
<rect height="0.017724" width="25.000000" x="655.000000" y="109.946827" fill="rgb(255, 165, 0)" style="fill-opacity:1.00" />
<rect height="0.053173" width="6.250000" x="673.750000" y="109.946827" fill="rgb(255, 165, 0)" style="fill-opacity:1.00" />
<!-- End 'G' -->
<!-- Begin 'C' -->
<ellipse cx="715.000000" cy="67.057466" rx="25.000000" ry="37.453358" fill="rgb(0, 0, 128)" style="fill-opacity:1.00" />
<ellipse cx="715.000000" cy="67.057466" rx="16.666667" ry="24.968905" fill="rgb(255, 255, 255)" style="fill-opacity:1.00" />
<rect height="37.453358" width="25.000000" x="715.000000" y="48.330788" fill="rgb(255, 255, 255)" style="fill-opacity:1.00" />
<!-- End 'C' -->
<!-- Begin 'G' -->
<ellipse cx="715.000000" cy="107.029556" rx="25.000000" ry="2.518731" fill="rgb(255, 165, 0)" style="fill-opacity:1.00" />
<ellipse cx="715.000000" cy="107.029556" rx="16.666667" ry="1.679154" fill="rgb(255, 255, 255)" style="fill-opacity:1.00" />
<rect height="2.518731" width="25.000000" x="715.000000" y="105.770190" fill="rgb(255, 255, 255)" style="fill-opacity:1.00" />
<rect height="0.629683" width="25.000000" x="715.000000" y="107.659238" fill="rgb(255, 165, 0)" style="fill-opacity:1.00" />
<rect height="1.889049" width="6.250000" x="733.750000" y="107.659238" fill="rgb(255, 165, 0)" style="fill-opacity:1.00" />
<!-- End 'G' -->
<!-- Begin 'A' -->
<polygon points=" 690.000000, 109.884152, 711.000000, 109.548287, 719.000000, 109.548287, 740.000000, 109.884152, 732.500000, 109.884152, 726.250000, 109.800186, 703.750000, 109.800186, 697.500000, 109.884152" fill="rgb(178, 34, 34)" style="fill-opacity:1.00" />
<!-- End 'A' -->
<!-- Begin 'T' -->
<rect height="0.018536" width="50.000000" x="690.000000" y="109.884152" fill="rgb(0, 100, 0)" style="fill-opacity:1.00" />
<rect height="0.115848" width="10.000000" x="710.000000" y="109.884152" fill="rgb(0, 100, 0)" style="fill-opacity:1.00" />
<!-- End 'T' -->
<!-- Begin 'G' -->
<ellipse cx="775.000000" cy="61.104967" rx="25.000000" ry="48.397133" fill="rgb(255, 165, 0)" style="fill-opacity:1.00" />
<ellipse cx="775.000000" cy="61.104967" rx="16.666667" ry="32.264755" fill="rgb(255, 255, 255)" style="fill-opacity:1.00" />
<rect height="48.397133" width="25.000000" x="775.000000" y="36.906400" fill="rgb(255, 255, 255)" style="fill-opacity:1.00" />
<rect height="12.099283" width="25.000000" x="775.000000" y="73.204250" fill="rgb(255, 165, 0)" style="fill-opacity:1.00" />
<rect height="36.297849" width="6.250000" x="793.750000" y="73.204250" fill="rgb(255, 165, 0)" style="fill-opacity:1.00" />
<!-- End 'G' -->
<!-- Begin 'A' -->
<polygon points=" 750.000000, 109.714958, 771.000000, 109.502099, 779.000000, 109.502099, 800.000000, 109.714958, 792.500000, 109.714958, 786.250000, 109.661744, 763.750000, 109.661744, 757.500000, 109.714958" fill="rgb(178, 34, 34)" style="fill-opacity:1.00" />
<!-- End 'A' -->
<!-- Begin 'C' -->
<ellipse cx="775.000000" cy="109.803355" rx="25.000000" ry="0.088397" fill="rgb(0, 0, 128)" style="fill-opacity:1.00" />
<ellipse cx="775.000000" cy="109.803355" rx="16.666667" ry="0.058931" fill="rgb(255, 255, 255)" style="fill-opacity:1.00" />
<rect height="0.088397" width="25.000000" x="775.000000" y="109.759157" fill="rgb(255, 255, 255)" style="fill-opacity:1.00" />
<!-- End 'C' -->
<!-- Begin 'T' -->
<rect height="0.017320" width="50.000000" x="750.000000" y="109.891752" fill="rgb(0, 100, 0)" style="fill-opacity:1.00" />
<rect height="0.108248" width="10.000000" x="770.000000" y="109.891752" fill="rgb(0, 100, 0)" style="fill-opacity:1.00" />
<!-- End 'T' -->
<!-- Begin 'T' -->
<rect height="14.572108" width="50.000000" x="810.000000" y="17.386744" fill="rgb(0, 100, 0)" style="fill-opacity:1.00" />
<rect height="91.075677" width="10.000000" x="830.000000" y="17.386744" fill="rgb(0, 100, 0)" style="fill-opacity:1.00" />
<!-- End 'T' -->
<!-- Begin 'C' -->
<ellipse cx="835.000000" cy="108.786539" rx="25.000000" ry="0.324118" fill="rgb(0, 0, 128)" style="fill-opacity:1.00" />
<ellipse cx="835.000000" cy="108.786539" rx="16.666667" ry="0.216079" fill="rgb(255, 255, 255)" style="fill-opacity:1.00" />
<rect height="0.324118" width="25.000000" x="835.000000" y="108.624480" fill="rgb(255, 255, 255)" style="fill-opacity:1.00" />
<!-- End 'C' -->
<!-- Begin 'G' -->
<ellipse cx="835.000000" cy="109.357773" rx="25.000000" ry="0.247117" fill="rgb(255, 165, 0)" style="fill-opacity:1.00" />
<ellipse cx="835.000000" cy="109.357773" rx="16.666667" ry="0.164744" fill="rgb(255, 255, 255)" style="fill-opacity:1.00" />
<rect height="0.247117" width="25.000000" x="835.000000" y="109.234215" fill="rgb(255, 255, 255)" style="fill-opacity:1.00" />
<rect height="0.061779" width="25.000000" x="835.000000" y="109.419552" fill="rgb(255, 165, 0)" style="fill-opacity:1.00" />
<rect height="0.185337" width="6.250000" x="853.750000" y="109.419552" fill="rgb(255, 165, 0)" style="fill-opacity:1.00" />
<!-- End 'G' -->
<!-- Begin 'A' -->
<polygon points=" 810.000000, 110.000000, 831.000000, 109.604890, 839.000000, 109.604890, 860.000000, 110.000000, 852.500000, 110.000000, 846.250000, 109.901222, 823.750000, 109.901222, 817.500000, 110.000000" fill="rgb(178, 34, 34)" style="fill-opacity:1.00" />
<!-- End 'A' -->
<!-- Begin 'T' -->
<rect height="13.046224" width="50.000000" x="870.000000" y="24.945222" fill="rgb(0, 100, 0)" style="fill-opacity:1.00" />
<rect height="81.538901" width="10.000000" x="890.000000" y="24.945222" fill="rgb(0, 100, 0)" style="fill-opacity:1.00" />
<!-- End 'T' -->
<!-- Begin 'A' -->
<polygon points=" 870.000000, 108.861184, 891.000000, 106.484123, 899.000000, 106.484123, 920.000000, 108.861184, 912.500000, 108.861184, 906.250000, 108.266919, 883.750000, 108.266919, 877.500000, 108.861184" fill="rgb(178, 34, 34)" style="fill-opacity:1.00" />
<!-- End 'A' -->
<!-- Begin 'C' -->
<ellipse cx="895.000000" cy="109.205713" rx="25.000000" ry="0.344529" fill="rgb(0, 0, 128)" style="fill-opacity:1.00" />
<ellipse cx="895.000000" cy="109.205713" rx="16.666667" ry="0.229686" fill="rgb(255, 255, 255)" style="fill-opacity:1.00" />
<rect height="0.344529" width="25.000000" x="895.000000" y="109.033449" fill="rgb(255, 255, 255)" style="fill-opacity:1.00" />
<!-- End 'C' -->
<!-- Begin 'G' -->
<ellipse cx="895.000000" cy="109.775121" rx="25.000000" ry="0.224879" fill="rgb(255, 165, 0)" style="fill-opacity:1.00" />
<ellipse cx="895.000000" cy="109.775121" rx="16.666667" ry="0.149919" fill="rgb(255, 255, 255)" style="fill-opacity:1.00" />
<rect height="0.224879" width="25.000000" x="895.000000" y="109.662682" fill="rgb(255, 255, 255)" style="fill-opacity:1.00" />
<rect height="0.056220" width="25.000000" x="895.000000" y="109.831341" fill="rgb(255, 165, 0)" style="fill-opacity:1.00" />
<rect height="0.168659" width="6.250000" x="913.750000" y="109.831341" fill="rgb(255, 165, 0)" style="fill-opacity:1.00" />
<!-- End 'G' -->
<!-- Begin 'A' -->
<polygon points=" 930.000000, 96.471983, 951.000000, 85.479572, 959.000000, 85.479572, 980.000000, 96.471983, 972.500000, 96.471983, 966.250000, 93.723881, 943.750000, 93.723881, 937.500000, 96.471983" fill="rgb(178, 34, 34)" style="fill-opacity:1.00" />
<polygon points=" 955.000000, 87.678055, 947.000000, 91.075019, 962.000000, 91.075019" fill="rgb(255, 255, 255)" style="fill-opacity:1.00" />
<!-- End 'A' -->
<!-- Begin 'G' -->
<ellipse cx="955.000000" cy="101.634043" rx="25.000000" ry="5.162060" fill="rgb(255, 165, 0)" style="fill-opacity:1.00" />
<ellipse cx="955.000000" cy="101.634043" rx="16.666667" ry="3.441373" fill="rgb(255, 255, 255)" style="fill-opacity:1.00" />
<rect height="5.162060" width="25.000000" x="955.000000" y="99.053013" fill="rgb(255, 255, 255)" style="fill-opacity:1.00" />
<rect height="1.290515" width="25.000000" x="955.000000" y="102.924558" fill="rgb(255, 165, 0)" style="fill-opacity:1.00" />
<rect height="3.871545" width="6.250000" x="973.750000" y="102.924558" fill="rgb(255, 165, 0)" style="fill-opacity:1.00" />
<!-- End 'G' -->
<!-- Begin 'T' -->
<rect height="0.432655" width="50.000000" x="930.000000" y="106.796103" fill="rgb(0, 100, 0)" style="fill-opacity:1.00" />
<rect height="2.704092" width="10.000000" x="950.000000" y="106.796103" fill="rgb(0, 100, 0)" style="fill-opacity:1.00" />
<!-- End 'T' -->
<!-- Begin 'C' -->
<ellipse cx="955.000000" cy="109.750098" rx="25.000000" ry="0.249902" fill="rgb(0, 0, 128)" style="fill-opacity:1.00" />
<ellipse cx="955.000000" cy="109.750098" rx="16.666667" ry="0.166601" fill="rgb(255, 255, 255)" style="fill-opacity:1.00" />
<rect height="0.249902" width="25.000000" x="955.000000" y="109.625147" fill="rgb(255, 255, 255)" style="fill-opacity:1.00" />
<!-- End 'C' -->
<text x="520.000000" y="165">
IC = 11.93
</text>

</svg>
