<?xml version="1.0" encoding="UTF-8" standalone="yes"?>
                 <!DOCTYPE svg PUBLIC "-//W3C//DTD SVG 1.0//EN" "http://www.w3.org/TR/2001/REC-SVG-20010904/DTD/svg10.dtd">
                 <svg height="170" width="900" xmlns="http://www.w3.org/2000/svg" xmlns:xlink="http://www.w3.org/1999/xlink">
                 <line x1="85" y1="120" x2="867" y2="120" style="stroke:rgb(99,99,99);stroke-width:2" />
<rect height="7.000000" width="2.000000" x="85.000000" y="120.000000" fill="rgb(0, 0, 0)" style="fill-opacity:1.00" />
<text x="107.000000" y="140">
1
</text>
<rect height="7.000000" width="2.000000" x="145.000000" y="120.000000" fill="rgb(0, 0, 0)" style="fill-opacity:1.00" />
<text x="167.000000" y="140">
2
</text>
<rect height="7.000000" width="2.000000" x="205.000000" y="120.000000" fill="rgb(0, 0, 0)" style="fill-opacity:1.00" />
<text x="227.000000" y="140">
3
</text>
<rect height="7.000000" width="2.000000" x="265.000000" y="120.000000" fill="rgb(0, 0, 0)" style="fill-opacity:1.00" />
<text x="287.000000" y="140">
4
</text>
<rect height="7.000000" width="2.000000" x="325.000000" y="120.000000" fill="rgb(0, 0, 0)" style="fill-opacity:1.00" />
<text x="347.000000" y="140">
5
</text>
<rect height="7.000000" width="2.000000" x="385.000000" y="120.000000" fill="rgb(0, 0, 0)" style="fill-opacity:1.00" />
<text x="407.000000" y="140">
6
</text>
<rect height="7.000000" width="2.000000" x="445.000000" y="120.000000" fill="rgb(0, 0, 0)" style="fill-opacity:1.00" />
<text x="467.000000" y="140">
7
</text>
<rect height="7.000000" width="2.000000" x="505.000000" y="120.000000" fill="rgb(0, 0, 0)" style="fill-opacity:1.00" />
<text x="527.000000" y="140">
8
</text>
<rect height="7.000000" width="2.000000" x="565.000000" y="120.000000" fill="rgb(0, 0, 0)" style="fill-opacity:1.00" />
<text x="587.000000" y="140">
9
</text>
<rect height="7.000000" width="2.000000" x="625.000000" y="120.000000" fill="rgb(0, 0, 0)" style="fill-opacity:1.00" />
<text x="647.000000" y="140">
10
</text>
<rect height="7.000000" width="2.000000" x="685.000000" y="120.000000" fill="rgb(0, 0, 0)" style="fill-opacity:1.00" />
<text x="707.000000" y="140">
11
</text>
<rect height="7.000000" width="2.000000" x="745.000000" y="120.000000" fill="rgb(0, 0, 0)" style="fill-opacity:1.00" />
<text x="767.000000" y="140">
12
</text>
<rect height="7.000000" width="2.000000" x="805.000000" y="120.000000" fill="rgb(0, 0, 0)" style="fill-opacity:1.00" />
<text x="827.000000" y="140">
13
</text>
<rect height="7.000000" width="2.000000" x="865.000000" y="120.000000" fill="rgb(0, 0, 0)" style="fill-opacity:1.00" />
<line x1="80" y1="112" x2="80" y2="10" style="stroke:rgb(99,99,99);stroke-width:2" />
<rect height="2.000000" width="7.000000" x="73.000000" y="110.000000" fill="rgb(0, 0, 0)" style="fill-opacity:1.00" />
<text x="63" y="115">
0
</text>
<rect height="2.000000" width="7.000000" x="73.000000" y="60.000000" fill="rgb(0, 0, 0)" style="fill-opacity:1.00" />
<text x="63" y="65">
1
</text>
<rect height="2.000000" width="7.000000" x="73.000000" y="10.000000" fill="rgb(0, 0, 0)" style="fill-opacity:1.00" />
<text x="63" y="15">
2
</text>
<text x="50" y="65"
transform="rotate(-90, 50, 70)">
bits
</text>
<!-- Begin 'T' -->
<rect height="0.080459" width="50.000000" x="90.000000" y="108.515498" fill="rgb(0, 100, 0)" style="fill-opacity:1.00" />
<rect height="0.502869" width="10.000000" x="110.000000" y="108.515498" fill="rgb(0, 100, 0)" style="fill-opacity:1.00" />
<!-- End 'T' -->
<!-- Begin 'A' -->
<polygon points=" 90.000000, 109.368878, 111.000000, 109.018367, 119.000000, 109.018367, 140.000000, 109.368878, 132.500000, 109.368878, 126.250000, 109.281251, 103.750000, 109.281251, 97.500000, 109.368878" fill="rgb(178, 34, 34)" style="fill-opacity:1.00" />
<!-- End 'A' -->
<!-- Begin 'C' -->
<ellipse cx="115.000000" cy="109.530383" rx="25.000000" ry="0.161505" fill="rgb(0, 0, 128)" style="fill-opacity:1.00" />
<ellipse cx="115.000000" cy="109.530383" rx="16.666667" ry="0.107670" fill="rgb(255, 255, 255)" style="fill-opacity:1.00" />
<rect height="0.161505" width="25.000000" x="115.000000" y="109.449631" fill="rgb(255, 255, 255)" style="fill-opacity:1.00" />
<!-- End 'C' -->
<!-- Begin 'G' -->
<ellipse cx="115.000000" cy="109.845944" rx="25.000000" ry="0.154056" fill="rgb(255, 165, 0)" style="fill-opacity:1.00" />
<ellipse cx="115.000000" cy="109.845944" rx="16.666667" ry="0.102704" fill="rgb(255, 255, 255)" style="fill-opacity:1.00" />
<rect height="0.154056" width="25.000000" x="115.000000" y="109.768916" fill="rgb(255, 255, 255)" style="fill-opacity:1.00" />
<rect height="0.038514" width="25.000000" x="115.000000" y="109.884458" fill="rgb(255, 165, 0)" style="fill-opacity:1.00" />
<rect height="0.115542" width="6.250000" x="133.750000" y="109.884458" fill="rgb(255, 165, 0)" style="fill-opacity:1.00" />
<!-- End 'G' -->
<!-- Begin 'T' -->
<rect height="0.076402" width="50.000000" x="150.000000" y="108.403657" fill="rgb(0, 100, 0)" style="fill-opacity:1.00" />
<rect height="0.477512" width="10.000000" x="170.000000" y="108.403657" fill="rgb(0, 100, 0)" style="fill-opacity:1.00" />
<!-- End 'T' -->
<!-- Begin 'A' -->
<polygon points=" 150.000000, 109.354982, 171.000000, 108.881170, 179.000000, 108.881170, 200.000000, 109.354982, 192.500000, 109.354982, 186.250000, 109.236529, 163.750000, 109.236529, 157.500000, 109.354982" fill="rgb(178, 34, 34)" style="fill-opacity:1.00" />
<!-- End 'A' -->
<!-- Begin 'G' -->
<ellipse cx="175.000000" cy="109.537735" rx="25.000000" ry="0.182753" fill="rgb(255, 165, 0)" style="fill-opacity:1.00" />
<ellipse cx="175.000000" cy="109.537735" rx="16.666667" ry="0.121836" fill="rgb(255, 255, 255)" style="fill-opacity:1.00" />
<rect height="0.182753" width="25.000000" x="175.000000" y="109.446359" fill="rgb(255, 255, 255)" style="fill-opacity:1.00" />
<rect height="0.045688" width="25.000000" x="175.000000" y="109.583424" fill="rgb(255, 165, 0)" style="fill-opacity:1.00" />
<rect height="0.137065" width="6.250000" x="193.750000" y="109.583424" fill="rgb(255, 165, 0)" style="fill-opacity:1.00" />
<!-- End 'G' -->
<!-- Begin 'C' -->
<ellipse cx="175.000000" cy="109.860244" rx="25.000000" ry="0.139756" fill="rgb(0, 0, 128)" style="fill-opacity:1.00" />
<ellipse cx="175.000000" cy="109.860244" rx="16.666667" ry="0.093170" fill="rgb(255, 255, 255)" style="fill-opacity:1.00" />
<rect height="0.139756" width="25.000000" x="175.000000" y="109.790367" fill="rgb(255, 255, 255)" style="fill-opacity:1.00" />
<!-- End 'C' -->
<!-- Begin 'A' -->
<polygon points=" 210.000000, 109.695470, 231.000000, 109.567493, 239.000000, 109.567493, 260.000000, 109.695470, 252.500000, 109.695470, 246.250000, 109.663476, 223.750000, 109.663476, 217.500000, 109.695470" fill="rgb(178, 34, 34)" style="fill-opacity:1.00" />
<!-- End 'A' -->
<!-- Begin 'T' -->
<rect height="0.017054" width="50.000000" x="210.000000" y="109.695470" fill="rgb(0, 100, 0)" style="fill-opacity:1.00" />
<rect height="0.106586" width="10.000000" x="230.000000" y="109.695470" fill="rgb(0, 100, 0)" style="fill-opacity:1.00" />
<!-- End 'T' -->
<!-- Begin 'G' -->
<ellipse cx="235.000000" cy="109.852804" rx="25.000000" ry="0.050748" fill="rgb(255, 165, 0)" style="fill-opacity:1.00" />
<ellipse cx="235.000000" cy="109.852804" rx="16.666667" ry="0.033832" fill="rgb(255, 255, 255)" style="fill-opacity:1.00" />
<rect height="0.050748" width="25.000000" x="235.000000" y="109.827430" fill="rgb(255, 255, 255)" style="fill-opacity:1.00" />
<rect height="0.012687" width="25.000000" x="235.000000" y="109.865491" fill="rgb(255, 165, 0)" style="fill-opacity:1.00" />
<rect height="0.038061" width="6.250000" x="253.750000" y="109.865491" fill="rgb(255, 165, 0)" style="fill-opacity:1.00" />
<!-- End 'G' -->
<!-- Begin 'C' -->
<ellipse cx="235.000000" cy="109.951776" rx="25.000000" ry="0.048224" fill="rgb(0, 0, 128)" style="fill-opacity:1.00" />
<ellipse cx="235.000000" cy="109.951776" rx="16.666667" ry="0.032149" fill="rgb(255, 255, 255)" style="fill-opacity:1.00" />
<rect height="0.048224" width="25.000000" x="235.000000" y="109.927665" fill="rgb(255, 255, 255)" style="fill-opacity:1.00" />
<!-- End 'C' -->
<!-- Begin 'A' -->
<polygon points=" 270.000000, 104.667171, 291.000000, 100.061073, 299.000000, 100.061073, 320.000000, 104.667171, 312.500000, 104.667171, 306.250000, 103.515646, 283.750000, 103.515646, 277.500000, 104.667171" fill="rgb(178, 34, 34)" style="fill-opacity:1.00" />
<!-- End 'A' -->
<!-- Begin 'T' -->
<rect height="0.421419" width="50.000000" x="270.000000" y="104.667171" fill="rgb(0, 100, 0)" style="fill-opacity:1.00" />
<rect height="2.633869" width="10.000000" x="290.000000" y="104.667171" fill="rgb(0, 100, 0)" style="fill-opacity:1.00" />
<!-- End 'T' -->
<!-- Begin 'G' -->
<ellipse cx="295.000000" cy="108.058829" rx="25.000000" ry="0.757790" fill="rgb(255, 165, 0)" style="fill-opacity:1.00" />
<ellipse cx="295.000000" cy="108.058829" rx="16.666667" ry="0.505193" fill="rgb(255, 255, 255)" style="fill-opacity:1.00" />
<rect height="0.757790" width="25.000000" x="295.000000" y="107.679934" fill="rgb(255, 255, 255)" style="fill-opacity:1.00" />
<rect height="0.189447" width="25.000000" x="295.000000" y="108.248277" fill="rgb(255, 165, 0)" style="fill-opacity:1.00" />
<rect height="0.568342" width="6.250000" x="313.750000" y="108.248277" fill="rgb(255, 165, 0)" style="fill-opacity:1.00" />
<!-- End 'G' -->
<!-- Begin 'C' -->
<ellipse cx="295.000000" cy="109.408310" rx="25.000000" ry="0.591690" fill="rgb(0, 0, 128)" style="fill-opacity:1.00" />
<ellipse cx="295.000000" cy="109.408310" rx="16.666667" ry="0.394460" fill="rgb(255, 255, 255)" style="fill-opacity:1.00" />
<rect height="0.591690" width="25.000000" x="295.000000" y="109.112464" fill="rgb(255, 255, 255)" style="fill-opacity:1.00" />
<!-- End 'C' -->
<!-- Begin 'T' -->
<rect height="1.868906" width="50.000000" x="330.000000" y="90.012986" fill="rgb(0, 100, 0)" style="fill-opacity:1.00" />
<rect height="11.680664" width="10.000000" x="350.000000" y="90.012986" fill="rgb(0, 100, 0)" style="fill-opacity:1.00" />
<!-- End 'T' -->
<!-- Begin 'A' -->
<polygon points=" 330.000000, 105.333842, 351.000000, 101.693649, 359.000000, 101.693649, 380.000000, 105.333842, 372.500000, 105.333842, 366.250000, 104.423794, 343.750000, 104.423794, 337.500000, 105.333842" fill="rgb(178, 34, 34)" style="fill-opacity:1.00" />
<!-- End 'A' -->
<!-- Begin 'C' -->
<ellipse cx="355.000000" cy="106.931389" rx="25.000000" ry="1.597547" fill="rgb(0, 0, 128)" style="fill-opacity:1.00" />
<ellipse cx="355.000000" cy="106.931389" rx="16.666667" ry="1.065031" fill="rgb(255, 255, 255)" style="fill-opacity:1.00" />
<rect height="1.597547" width="25.000000" x="355.000000" y="106.132616" fill="rgb(255, 255, 255)" style="fill-opacity:1.00" />
<!-- End 'C' -->
<!-- Begin 'G' -->
<ellipse cx="355.000000" cy="109.264468" rx="25.000000" ry="0.735532" fill="rgb(255, 165, 0)" style="fill-opacity:1.00" />
<ellipse cx="355.000000" cy="109.264468" rx="16.666667" ry="0.490355" fill="rgb(255, 255, 255)" style="fill-opacity:1.00" />
<rect height="0.735532" width="25.000000" x="355.000000" y="108.896702" fill="rgb(255, 255, 255)" style="fill-opacity:1.00" />
<rect height="0.183883" width="25.000000" x="355.000000" y="109.448351" fill="rgb(255, 165, 0)" style="fill-opacity:1.00" />
<rect height="0.551649" width="6.250000" x="373.750000" y="109.448351" fill="rgb(255, 165, 0)" style="fill-opacity:1.00" />
<!-- End 'G' -->
<!-- Begin 'A' -->
<polygon points=" 390.000000, 96.513597, 411.000000, 76.458718, 419.000000, 76.458718, 440.000000, 96.513597, 432.500000, 96.513597, 426.250000, 91.499877, 403.750000, 91.499877, 397.500000, 96.513597" fill="rgb(178, 34, 34)" style="fill-opacity:1.00" />
<polygon points=" 415.000000, 80.469693, 407.000000, 87.491645, 422.000000, 87.491645" fill="rgb(255, 255, 255)" style="fill-opacity:1.00" />
<!-- End 'A' -->
<!-- Begin 'T' -->
<rect height="1.750260" width="50.000000" x="390.000000" y="96.513597" fill="rgb(0, 100, 0)" style="fill-opacity:1.00" />
<rect height="10.939128" width="10.000000" x="410.000000" y="96.513597" fill="rgb(0, 100, 0)" style="fill-opacity:1.00" />
<!-- End 'T' -->
<!-- Begin 'C' -->
<ellipse cx="415.000000" cy="108.104473" rx="25.000000" ry="0.651749" fill="rgb(0, 0, 128)" style="fill-opacity:1.00" />
<ellipse cx="415.000000" cy="108.104473" rx="16.666667" ry="0.434499" fill="rgb(255, 255, 255)" style="fill-opacity:1.00" />
<rect height="0.651749" width="25.000000" x="415.000000" y="107.778599" fill="rgb(255, 255, 255)" style="fill-opacity:1.00" />
<!-- End 'C' -->
<!-- Begin 'G' -->
<ellipse cx="415.000000" cy="109.378111" rx="25.000000" ry="0.621889" fill="rgb(255, 165, 0)" style="fill-opacity:1.00" />
<ellipse cx="415.000000" cy="109.378111" rx="16.666667" ry="0.414593" fill="rgb(255, 255, 255)" style="fill-opacity:1.00" />
<rect height="0.621889" width="25.000000" x="415.000000" y="109.067167" fill="rgb(255, 255, 255)" style="fill-opacity:1.00" />
<rect height="0.155472" width="25.000000" x="415.000000" y="109.533583" fill="rgb(255, 165, 0)" style="fill-opacity:1.00" />
<rect height="0.466417" width="6.250000" x="433.750000" y="109.533583" fill="rgb(255, 165, 0)" style="fill-opacity:1.00" />
<!-- End 'G' -->
<!-- Begin 'T' -->
<rect height="2.651701" width="50.000000" x="450.000000" y="84.360799" fill="rgb(0, 100, 0)" style="fill-opacity:1.00" />
<rect height="16.573131" width="10.000000" x="470.000000" y="84.360799" fill="rgb(0, 100, 0)" style="fill-opacity:1.00" />
<!-- End 'T' -->
<!-- Begin 'C' -->
<ellipse cx="475.000000" cy="102.691497" rx="25.000000" ry="1.757567" fill="rgb(0, 0, 128)" style="fill-opacity:1.00" />
<ellipse cx="475.000000" cy="102.691497" rx="16.666667" ry="1.171711" fill="rgb(255, 255, 255)" style="fill-opacity:1.00" />
<rect height="1.757567" width="25.000000" x="475.000000" y="101.812714" fill="rgb(255, 255, 255)" style="fill-opacity:1.00" />
<!-- End 'C' -->
<!-- Begin 'A' -->
<polygon points=" 450.000000, 107.816517, 471.000000, 104.449064, 479.000000, 104.449064, 500.000000, 107.816517, 492.500000, 107.816517, 486.250000, 106.974654, 463.750000, 106.974654, 457.500000, 107.816517" fill="rgb(178, 34, 34)" style="fill-opacity:1.00" />
<!-- End 'A' -->
<!-- Begin 'G' -->
<ellipse cx="475.000000" cy="108.908258" rx="25.000000" ry="1.091742" fill="rgb(255, 165, 0)" style="fill-opacity:1.00" />
<ellipse cx="475.000000" cy="108.908258" rx="16.666667" ry="0.727828" fill="rgb(255, 255, 255)" style="fill-opacity:1.00" />
<rect height="1.091742" width="25.000000" x="475.000000" y="108.362388" fill="rgb(255, 255, 255)" style="fill-opacity:1.00" />
<rect height="0.272935" width="25.000000" x="475.000000" y="109.181194" fill="rgb(255, 165, 0)" style="fill-opacity:1.00" />
<rect height="0.818806" width="6.250000" x="493.750000" y="109.181194" fill="rgb(255, 165, 0)" style="fill-opacity:1.00" />
<!-- End 'G' -->
<!-- Begin 'G' -->
<ellipse cx="535.000000" cy="98.601153" rx="25.000000" ry="3.583854" fill="rgb(255, 165, 0)" style="fill-opacity:1.00" />
<ellipse cx="535.000000" cy="98.601153" rx="16.666667" ry="2.389236" fill="rgb(255, 255, 255)" style="fill-opacity:1.00" />
<rect height="3.583854" width="25.000000" x="535.000000" y="96.809226" fill="rgb(255, 255, 255)" style="fill-opacity:1.00" />
<rect height="0.895964" width="25.000000" x="535.000000" y="99.497117" fill="rgb(255, 165, 0)" style="fill-opacity:1.00" />
<rect height="2.687891" width="6.250000" x="553.750000" y="99.497117" fill="rgb(255, 165, 0)" style="fill-opacity:1.00" />
<!-- End 'G' -->
<!-- Begin 'T' -->
<rect height="0.675548" width="50.000000" x="510.000000" y="102.185007" fill="rgb(0, 100, 0)" style="fill-opacity:1.00" />
<rect height="4.222176" width="10.000000" x="530.000000" y="102.185007" fill="rgb(0, 100, 0)" style="fill-opacity:1.00" />
<!-- End 'T' -->
<!-- Begin 'A' -->
<polygon points=" 510.000000, 109.207542, 531.000000, 106.407183, 539.000000, 106.407183, 560.000000, 109.207542, 552.500000, 109.207542, 546.250000, 108.507452, 523.750000, 108.507452, 517.500000, 109.207542" fill="rgb(178, 34, 34)" style="fill-opacity:1.00" />
<!-- End 'A' -->
<!-- Begin 'C' -->
<ellipse cx="535.000000" cy="109.603771" rx="25.000000" ry="0.396229" fill="rgb(0, 0, 128)" style="fill-opacity:1.00" />
<ellipse cx="535.000000" cy="109.603771" rx="16.666667" ry="0.264153" fill="rgb(255, 255, 255)" style="fill-opacity:1.00" />
<rect height="0.396229" width="25.000000" x="535.000000" y="109.405656" fill="rgb(255, 255, 255)" style="fill-opacity:1.00" />
<!-- End 'C' -->
<!-- Begin 'C' -->
<ellipse cx="595.000000" cy="101.299526" rx="25.000000" ry="2.959020" fill="rgb(0, 0, 128)" style="fill-opacity:1.00" />
<ellipse cx="595.000000" cy="101.299526" rx="16.666667" ry="1.972680" fill="rgb(255, 255, 255)" style="fill-opacity:1.00" />
<rect height="2.959020" width="25.000000" x="595.000000" y="99.820016" fill="rgb(255, 255, 255)" style="fill-opacity:1.00" />
<!-- End 'C' -->
<!-- Begin 'A' -->
<polygon points=" 570.000000, 106.451304, 591.000000, 104.258546, 599.000000, 104.258546, 620.000000, 106.451304, 612.500000, 106.451304, 606.250000, 105.903115, 583.750000, 105.903115, 577.500000, 106.451304" fill="rgb(178, 34, 34)" style="fill-opacity:1.00" />
<!-- End 'A' -->
<!-- Begin 'T' -->
<rect height="0.343690" width="50.000000" x="570.000000" y="106.451304" fill="rgb(0, 100, 0)" style="fill-opacity:1.00" />
<rect height="2.148060" width="10.000000" x="590.000000" y="106.451304" fill="rgb(0, 100, 0)" style="fill-opacity:1.00" />
<!-- End 'T' -->
<!-- Begin 'G' -->
<ellipse cx="595.000000" cy="109.299682" rx="25.000000" ry="0.700318" fill="rgb(255, 165, 0)" style="fill-opacity:1.00" />
<ellipse cx="595.000000" cy="109.299682" rx="16.666667" ry="0.466879" fill="rgb(255, 255, 255)" style="fill-opacity:1.00" />
<rect height="0.700318" width="25.000000" x="595.000000" y="108.949523" fill="rgb(255, 255, 255)" style="fill-opacity:1.00" />
<rect height="0.175079" width="25.000000" x="595.000000" y="109.474762" fill="rgb(255, 165, 0)" style="fill-opacity:1.00" />
<rect height="0.525238" width="6.250000" x="613.750000" y="109.474762" fill="rgb(255, 165, 0)" style="fill-opacity:1.00" />
<!-- End 'G' -->
<!-- Begin 'A' -->
<polygon points=" 630.000000, 100.101675, 651.000000, 73.681485, 659.000000, 73.681485, 680.000000, 100.101675, 672.500000, 100.101675, 666.250000, 93.496627, 643.750000, 93.496627, 637.500000, 100.101675" fill="rgb(178, 34, 34)" style="fill-opacity:1.00" />
<polygon points=" 655.000000, 78.965523, 647.000000, 88.533599, 662.000000, 88.533599" fill="rgb(255, 255, 255)" style="fill-opacity:1.00" />
<!-- End 'A' -->
<!-- Begin 'T' -->
<rect height="0.622043" width="50.000000" x="630.000000" y="100.101675" fill="rgb(0, 100, 0)" style="fill-opacity:1.00" />
<rect height="3.887767" width="10.000000" x="650.000000" y="100.101675" fill="rgb(0, 100, 0)" style="fill-opacity:1.00" />
<!-- End 'T' -->
<!-- Begin 'G' -->
<ellipse cx="655.000000" cy="105.577306" rx="25.000000" ry="1.587865" fill="rgb(255, 165, 0)" style="fill-opacity:1.00" />
<ellipse cx="655.000000" cy="105.577306" rx="16.666667" ry="1.058576" fill="rgb(255, 255, 255)" style="fill-opacity:1.00" />
<rect height="1.587865" width="25.000000" x="655.000000" y="104.783374" fill="rgb(255, 255, 255)" style="fill-opacity:1.00" />
<rect height="0.396966" width="25.000000" x="655.000000" y="105.974272" fill="rgb(255, 165, 0)" style="fill-opacity:1.00" />
<rect height="1.190898" width="6.250000" x="673.750000" y="105.974272" fill="rgb(255, 165, 0)" style="fill-opacity:1.00" />
<!-- End 'G' -->
<!-- Begin 'C' -->
<ellipse cx="655.000000" cy="108.582585" rx="25.000000" ry="1.417415" fill="rgb(0, 0, 128)" style="fill-opacity:1.00" />
<ellipse cx="655.000000" cy="108.582585" rx="16.666667" ry="0.944943" fill="rgb(255, 255, 255)" style="fill-opacity:1.00" />
<rect height="1.417415" width="25.000000" x="655.000000" y="107.873878" fill="rgb(255, 255, 255)" style="fill-opacity:1.00" />
<!-- End 'C' -->
<!-- Begin 'T' -->
<rect height="2.707102" width="50.000000" x="690.000000" y="81.930297" fill="rgb(0, 100, 0)" style="fill-opacity:1.00" />
<rect height="16.919388" width="10.000000" x="710.000000" y="81.930297" fill="rgb(0, 100, 0)" style="fill-opacity:1.00" />
<!-- End 'T' -->
<!-- Begin 'A' -->
<polygon points=" 690.000000, 106.651403, 711.000000, 98.849685, 719.000000, 98.849685, 740.000000, 106.651403, 732.500000, 106.651403, 726.250000, 104.700973, 703.750000, 104.700973, 697.500000, 106.651403" fill="rgb(178, 34, 34)" style="fill-opacity:1.00" />
<!-- End 'A' -->
<!-- Begin 'C' -->
<ellipse cx="715.000000" cy="107.532239" rx="25.000000" ry="0.880836" fill="rgb(0, 0, 128)" style="fill-opacity:1.00" />
<ellipse cx="715.000000" cy="107.532239" rx="16.666667" ry="0.587224" fill="rgb(255, 255, 255)" style="fill-opacity:1.00" />
<rect height="0.880836" width="25.000000" x="715.000000" y="107.091821" fill="rgb(255, 255, 255)" style="fill-opacity:1.00" />
<!-- End 'C' -->
<!-- Begin 'G' -->
<ellipse cx="715.000000" cy="109.206538" rx="25.000000" ry="0.793462" fill="rgb(255, 165, 0)" style="fill-opacity:1.00" />
<ellipse cx="715.000000" cy="109.206538" rx="16.666667" ry="0.528975" fill="rgb(255, 255, 255)" style="fill-opacity:1.00" />
<rect height="0.793462" width="25.000000" x="715.000000" y="108.809806" fill="rgb(255, 255, 255)" style="fill-opacity:1.00" />
<rect height="0.198366" width="25.000000" x="715.000000" y="109.404903" fill="rgb(255, 165, 0)" style="fill-opacity:1.00" />
<rect height="0.595097" width="6.250000" x="733.750000" y="109.404903" fill="rgb(255, 165, 0)" style="fill-opacity:1.00" />
<!-- End 'G' -->
<!-- Begin 'A' -->
<polygon points=" 750.000000, 102.607509, 771.000000, 93.351756, 779.000000, 93.351756, 800.000000, 102.607509, 792.500000, 102.607509, 786.250000, 100.293571, 763.750000, 100.293571, 757.500000, 102.607509" fill="rgb(178, 34, 34)" style="fill-opacity:1.00" />
<polygon points=" 775.000000, 95.202906, 767.000000, 97.905208, 782.000000, 97.905208" fill="rgb(255, 255, 255)" style="fill-opacity:1.00" />
<!-- End 'A' -->
<!-- Begin 'T' -->
<rect height="0.493626" width="50.000000" x="750.000000" y="102.607509" fill="rgb(0, 100, 0)" style="fill-opacity:1.00" />
<rect height="3.085165" width="10.000000" x="770.000000" y="102.607509" fill="rgb(0, 100, 0)" style="fill-opacity:1.00" />
<!-- End 'T' -->
<!-- Begin 'G' -->
<ellipse cx="775.000000" cy="107.100129" rx="25.000000" ry="1.407455" fill="rgb(255, 165, 0)" style="fill-opacity:1.00" />
<ellipse cx="775.000000" cy="107.100129" rx="16.666667" ry="0.938304" fill="rgb(255, 255, 255)" style="fill-opacity:1.00" />
<rect height="1.407455" width="25.000000" x="775.000000" y="106.396402" fill="rgb(255, 255, 255)" style="fill-opacity:1.00" />
<rect height="0.351864" width="25.000000" x="775.000000" y="107.451993" fill="rgb(255, 165, 0)" style="fill-opacity:1.00" />
<rect height="1.055591" width="6.250000" x="793.750000" y="107.451993" fill="rgb(255, 165, 0)" style="fill-opacity:1.00" />
<!-- End 'G' -->
<!-- Begin 'C' -->
<ellipse cx="775.000000" cy="109.253792" rx="25.000000" ry="0.746208" fill="rgb(0, 0, 128)" style="fill-opacity:1.00" />
<ellipse cx="775.000000" cy="109.253792" rx="16.666667" ry="0.497472" fill="rgb(255, 255, 255)" style="fill-opacity:1.00" />
<rect height="0.746208" width="25.000000" x="775.000000" y="108.880688" fill="rgb(255, 255, 255)" style="fill-opacity:1.00" />
<!-- End 'C' -->
<!-- Begin 'T' -->
<rect height="0.639902" width="50.000000" x="810.000000" y="101.160420" fill="rgb(0, 100, 0)" style="fill-opacity:1.00" />
<rect height="3.999389" width="10.000000" x="830.000000" y="101.160420" fill="rgb(0, 100, 0)" style="fill-opacity:1.00" />
<!-- End 'T' -->
<!-- Begin 'A' -->
<polygon points=" 810.000000, 107.411889, 831.000000, 105.159809, 839.000000, 105.159809, 860.000000, 107.411889, 852.500000, 107.411889, 846.250000, 106.848869, 823.750000, 106.848869, 817.500000, 107.411889" fill="rgb(178, 34, 34)" style="fill-opacity:1.00" />
<!-- End 'A' -->
<!-- Begin 'C' -->
<ellipse cx="835.000000" cy="108.189753" rx="25.000000" ry="0.777864" fill="rgb(0, 0, 128)" style="fill-opacity:1.00" />
<ellipse cx="835.000000" cy="108.189753" rx="16.666667" ry="0.518576" fill="rgb(255, 255, 255)" style="fill-opacity:1.00" />
<rect height="0.777864" width="25.000000" x="835.000000" y="107.800821" fill="rgb(255, 255, 255)" style="fill-opacity:1.00" />
<!-- End 'C' -->
<!-- Begin 'G' -->
<ellipse cx="835.000000" cy="109.483808" rx="25.000000" ry="0.516192" fill="rgb(255, 165, 0)" style="fill-opacity:1.00" />
<ellipse cx="835.000000" cy="109.483808" rx="16.666667" ry="0.344128" fill="rgb(255, 255, 255)" style="fill-opacity:1.00" />
<rect height="0.516192" width="25.000000" x="835.000000" y="109.225712" fill="rgb(255, 255, 255)" style="fill-opacity:1.00" />
<rect height="0.129048" width="25.000000" x="835.000000" y="109.612856" fill="rgb(255, 165, 0)" style="fill-opacity:1.00" />
<rect height="0.387144" width="6.250000" x="853.750000" y="109.612856" fill="rgb(255, 165, 0)" style="fill-opacity:1.00" />
<!-- End 'G' -->
<text x="460.000000" y="165">
IC = 4.18
</text>

</svg>
