<?xml version="1.0" encoding="UTF-8" standalone="yes"?>
                 <!DOCTYPE svg PUBLIC "-//W3C//DTD SVG 1.0//EN" "http://www.w3.org/TR/2001/REC-SVG-20010904/DTD/svg10.dtd">
                 <svg height="170" width="660" xmlns="http://www.w3.org/2000/svg" xmlns:xlink="http://www.w3.org/1999/xlink">
                 <line x1="85" y1="120" x2="627" y2="120" style="stroke:rgb(99,99,99);stroke-width:2" />
<rect height="7.000000" width="2.000000" x="85.000000" y="120.000000" fill="rgb(0, 0, 0)" style="fill-opacity:1.00" />
<text x="107.000000" y="140">
1
</text>
<rect height="7.000000" width="2.000000" x="145.000000" y="120.000000" fill="rgb(0, 0, 0)" style="fill-opacity:1.00" />
<text x="167.000000" y="140">
2
</text>
<rect height="7.000000" width="2.000000" x="205.000000" y="120.000000" fill="rgb(0, 0, 0)" style="fill-opacity:1.00" />
<text x="227.000000" y="140">
3
</text>
<rect height="7.000000" width="2.000000" x="265.000000" y="120.000000" fill="rgb(0, 0, 0)" style="fill-opacity:1.00" />
<text x="287.000000" y="140">
4
</text>
<rect height="7.000000" width="2.000000" x="325.000000" y="120.000000" fill="rgb(0, 0, 0)" style="fill-opacity:1.00" />
<text x="347.000000" y="140">
5
</text>
<rect height="7.000000" width="2.000000" x="385.000000" y="120.000000" fill="rgb(0, 0, 0)" style="fill-opacity:1.00" />
<text x="407.000000" y="140">
6
</text>
<rect height="7.000000" width="2.000000" x="445.000000" y="120.000000" fill="rgb(0, 0, 0)" style="fill-opacity:1.00" />
<text x="467.000000" y="140">
7
</text>
<rect height="7.000000" width="2.000000" x="505.000000" y="120.000000" fill="rgb(0, 0, 0)" style="fill-opacity:1.00" />
<text x="527.000000" y="140">
8
</text>
<rect height="7.000000" width="2.000000" x="565.000000" y="120.000000" fill="rgb(0, 0, 0)" style="fill-opacity:1.00" />
<text x="587.000000" y="140">
9
</text>
<rect height="7.000000" width="2.000000" x="625.000000" y="120.000000" fill="rgb(0, 0, 0)" style="fill-opacity:1.00" />
<line x1="80" y1="112" x2="80" y2="10" style="stroke:rgb(99,99,99);stroke-width:2" />
<rect height="2.000000" width="7.000000" x="73.000000" y="110.000000" fill="rgb(0, 0, 0)" style="fill-opacity:1.00" />
<text x="63" y="115">
0
</text>
<rect height="2.000000" width="7.000000" x="73.000000" y="60.000000" fill="rgb(0, 0, 0)" style="fill-opacity:1.00" />
<text x="63" y="65">
1
</text>
<rect height="2.000000" width="7.000000" x="73.000000" y="10.000000" fill="rgb(0, 0, 0)" style="fill-opacity:1.00" />
<text x="63" y="15">
2
</text>
<text x="50" y="65"
transform="rotate(-90, 50, 70)">
bits
</text>
<!-- Begin 'A' -->
<polygon points=" 90.000000, 102.648151, 111.000000, 96.173563, 119.000000, 96.173563, 140.000000, 102.648151, 132.500000, 102.648151, 126.250000, 101.029504, 103.750000, 101.029504, 97.500000, 102.648151" fill="rgb(178, 34, 34)" style="fill-opacity:1.00" />
<!-- End 'A' -->
<!-- Begin 'T' -->
<rect height="0.619151" width="50.000000" x="90.000000" y="102.648151" fill="rgb(0, 100, 0)" style="fill-opacity:1.00" />
<rect height="3.869693" width="10.000000" x="110.000000" y="102.648151" fill="rgb(0, 100, 0)" style="fill-opacity:1.00" />
<!-- End 'T' -->
<!-- Begin 'C' -->
<ellipse cx="115.000000" cy="107.859349" rx="25.000000" ry="1.341506" fill="rgb(0, 0, 128)" style="fill-opacity:1.00" />
<ellipse cx="115.000000" cy="107.859349" rx="16.666667" ry="0.894337" fill="rgb(255, 255, 255)" style="fill-opacity:1.00" />
<rect height="1.341506" width="25.000000" x="115.000000" y="107.188597" fill="rgb(255, 255, 255)" style="fill-opacity:1.00" />
<!-- End 'C' -->
<!-- Begin 'G' -->
<ellipse cx="115.000000" cy="109.600428" rx="25.000000" ry="0.399572" fill="rgb(255, 165, 0)" style="fill-opacity:1.00" />
<ellipse cx="115.000000" cy="109.600428" rx="16.666667" ry="0.266382" fill="rgb(255, 255, 255)" style="fill-opacity:1.00" />
<rect height="0.399572" width="25.000000" x="115.000000" y="109.400641" fill="rgb(255, 255, 255)" style="fill-opacity:1.00" />
<rect height="0.099893" width="25.000000" x="115.000000" y="109.700321" fill="rgb(255, 165, 0)" style="fill-opacity:1.00" />
<rect height="0.299679" width="6.250000" x="133.750000" y="109.700321" fill="rgb(255, 165, 0)" style="fill-opacity:1.00" />
<!-- End 'G' -->
<!-- Begin 'A' -->
<polygon points=" 150.000000, 103.067349, 171.000000, 95.452930, 179.000000, 95.452930, 200.000000, 103.067349, 192.500000, 103.067349, 186.250000, 101.163744, 163.750000, 101.163744, 157.500000, 103.067349" fill="rgb(178, 34, 34)" style="fill-opacity:1.00" />
<!-- End 'A' -->
<!-- Begin 'G' -->
<ellipse cx="175.000000" cy="104.660994" rx="25.000000" ry="1.593645" fill="rgb(255, 165, 0)" style="fill-opacity:1.00" />
<ellipse cx="175.000000" cy="104.660994" rx="16.666667" ry="1.062430" fill="rgb(255, 255, 255)" style="fill-opacity:1.00" />
<rect height="1.593645" width="25.000000" x="175.000000" y="103.864171" fill="rgb(255, 255, 255)" style="fill-opacity:1.00" />
<rect height="0.398411" width="25.000000" x="175.000000" y="105.059405" fill="rgb(255, 165, 0)" style="fill-opacity:1.00" />
<rect height="1.195234" width="6.250000" x="193.750000" y="105.059405" fill="rgb(255, 165, 0)" style="fill-opacity:1.00" />
<!-- End 'G' -->
<!-- Begin 'C' -->
<ellipse cx="175.000000" cy="107.503980" rx="25.000000" ry="1.249341" fill="rgb(0, 0, 128)" style="fill-opacity:1.00" />
<ellipse cx="175.000000" cy="107.503980" rx="16.666667" ry="0.832894" fill="rgb(255, 255, 255)" style="fill-opacity:1.00" />
<rect height="1.249341" width="25.000000" x="175.000000" y="106.879309" fill="rgb(255, 255, 255)" style="fill-opacity:1.00" />
<!-- End 'C' -->
<!-- Begin 'T' -->
<rect height="0.199469" width="50.000000" x="150.000000" y="108.753321" fill="rgb(0, 100, 0)" style="fill-opacity:1.00" />
<rect height="1.246679" width="10.000000" x="170.000000" y="108.753321" fill="rgb(0, 100, 0)" style="fill-opacity:1.00" />
<!-- End 'T' -->
<!-- Begin 'A' -->
<polygon points=" 210.000000, 98.745573, 231.000000, 81.256532, 239.000000, 81.256532, 260.000000, 98.745573, 252.500000, 98.745573, 246.250000, 94.373313, 223.750000, 94.373313, 217.500000, 98.745573" fill="rgb(178, 34, 34)" style="fill-opacity:1.00" />
<polygon points=" 235.000000, 84.754340, 227.000000, 90.749957, 242.000000, 90.749957" fill="rgb(255, 255, 255)" style="fill-opacity:1.00" />
<!-- End 'A' -->
<!-- Begin 'C' -->
<ellipse cx="235.000000" cy="101.495755" rx="25.000000" ry="2.750183" fill="rgb(0, 0, 128)" style="fill-opacity:1.00" />
<ellipse cx="235.000000" cy="101.495755" rx="16.666667" ry="1.833455" fill="rgb(255, 255, 255)" style="fill-opacity:1.00" />
<rect height="2.750183" width="25.000000" x="235.000000" y="100.120664" fill="rgb(255, 255, 255)" style="fill-opacity:1.00" />
<!-- End 'C' -->
<!-- Begin 'G' -->
<ellipse cx="235.000000" cy="106.941625" rx="25.000000" ry="2.695687" fill="rgb(255, 165, 0)" style="fill-opacity:1.00" />
<ellipse cx="235.000000" cy="106.941625" rx="16.666667" ry="1.797125" fill="rgb(255, 255, 255)" style="fill-opacity:1.00" />
<rect height="2.695687" width="25.000000" x="235.000000" y="105.593782" fill="rgb(255, 255, 255)" style="fill-opacity:1.00" />
<rect height="0.673922" width="25.000000" x="235.000000" y="107.615547" fill="rgb(255, 165, 0)" style="fill-opacity:1.00" />
<rect height="2.021765" width="6.250000" x="253.750000" y="107.615547" fill="rgb(255, 165, 0)" style="fill-opacity:1.00" />
<!-- End 'G' -->
<!-- Begin 'T' -->
<rect height="0.058030" width="50.000000" x="210.000000" y="109.637312" fill="rgb(0, 100, 0)" style="fill-opacity:1.00" />
<rect height="0.362688" width="10.000000" x="230.000000" y="109.637312" fill="rgb(0, 100, 0)" style="fill-opacity:1.00" />
<!-- End 'T' -->
<!-- Begin 'C' -->
<ellipse cx="295.000000" cy="66.414231" rx="25.000000" ry="37.947054" fill="rgb(0, 0, 128)" style="fill-opacity:1.00" />
<ellipse cx="295.000000" cy="66.414231" rx="16.666667" ry="25.298036" fill="rgb(255, 255, 255)" style="fill-opacity:1.00" />
<rect height="37.947054" width="25.000000" x="295.000000" y="47.440704" fill="rgb(255, 255, 255)" style="fill-opacity:1.00" />
<!-- End 'C' -->
<!-- Begin 'A' -->
<polygon points=" 270.000000, 109.940519, 291.000000, 104.361285, 299.000000, 104.361285, 320.000000, 109.940519, 312.500000, 109.940519, 306.250000, 108.545711, 283.750000, 108.545711, 277.500000, 109.940519" fill="rgb(178, 34, 34)" style="fill-opacity:1.00" />
<!-- End 'A' -->
<!-- Begin 'G' -->
<ellipse cx="295.000000" cy="109.955749" rx="25.000000" ry="0.015229" fill="rgb(255, 165, 0)" style="fill-opacity:1.00" />
<ellipse cx="295.000000" cy="109.955749" rx="16.666667" ry="0.010153" fill="rgb(255, 255, 255)" style="fill-opacity:1.00" />
<rect height="0.015229" width="25.000000" x="295.000000" y="109.948134" fill="rgb(255, 255, 255)" style="fill-opacity:1.00" />
<rect height="0.003807" width="25.000000" x="295.000000" y="109.959556" fill="rgb(255, 165, 0)" style="fill-opacity:1.00" />
<rect height="0.011422" width="6.250000" x="313.750000" y="109.959556" fill="rgb(255, 165, 0)" style="fill-opacity:1.00" />
<!-- End 'G' -->
<!-- Begin 'T' -->
<rect height="0.004643" width="50.000000" x="270.000000" y="109.970978" fill="rgb(0, 100, 0)" style="fill-opacity:1.00" />
<rect height="0.029022" width="10.000000" x="290.000000" y="109.970978" fill="rgb(0, 100, 0)" style="fill-opacity:1.00" />
<!-- End 'T' -->
<!-- Begin 'C' -->
<ellipse cx="355.000000" cy="61.679463" rx="25.000000" ry="47.257849" fill="rgb(0, 0, 128)" style="fill-opacity:1.00" />
<ellipse cx="355.000000" cy="61.679463" rx="16.666667" ry="31.505232" fill="rgb(255, 255, 255)" style="fill-opacity:1.00" />
<rect height="47.257849" width="25.000000" x="355.000000" y="38.050538" fill="rgb(255, 255, 255)" style="fill-opacity:1.00" />
<!-- End 'C' -->
<!-- Begin 'A' -->
<polygon points=" 330.000000, 109.997169, 351.000000, 108.937311, 359.000000, 108.937311, 380.000000, 109.997169, 372.500000, 109.997169, 366.250000, 109.732205, 343.750000, 109.732205, 337.500000, 109.997169" fill="rgb(178, 34, 34)" style="fill-opacity:1.00" />
<!-- End 'A' -->
<!-- Begin 'T' -->
<rect height="0.000396" width="50.000000" x="330.000000" y="109.997169" fill="rgb(0, 100, 0)" style="fill-opacity:1.00" />
<rect height="0.002475" width="10.000000" x="350.000000" y="109.997169" fill="rgb(0, 100, 0)" style="fill-opacity:1.00" />
<!-- End 'T' -->
<!-- Begin 'G' -->
<ellipse cx="355.000000" cy="109.999822" rx="25.000000" ry="0.000178" fill="rgb(255, 165, 0)" style="fill-opacity:1.00" />
<ellipse cx="355.000000" cy="109.999822" rx="16.666667" ry="0.000119" fill="rgb(255, 255, 255)" style="fill-opacity:1.00" />
<rect height="0.000178" width="25.000000" x="355.000000" y="109.999733" fill="rgb(255, 255, 255)" style="fill-opacity:1.00" />
<rect height="0.000044" width="25.000000" x="355.000000" y="109.999867" fill="rgb(255, 165, 0)" style="fill-opacity:1.00" />
<rect height="0.000133" width="6.250000" x="373.750000" y="109.999867" fill="rgb(255, 165, 0)" style="fill-opacity:1.00" />
<!-- End 'G' -->
<!-- Begin 'A' -->
<polygon points=" 390.000000, 99.860199, 411.000000, 57.570901, 419.000000, 57.570901, 440.000000, 99.860199, 432.500000, 99.860199, 426.250000, 89.287874, 403.750000, 89.287874, 397.500000, 99.860199" fill="rgb(178, 34, 34)" style="fill-opacity:1.00" />
<polygon points=" 415.000000, 66.028761, 407.000000, 81.944480, 422.000000, 81.944480" fill="rgb(255, 255, 255)" style="fill-opacity:1.00" />
<!-- End 'A' -->
<!-- Begin 'G' -->
<ellipse cx="415.000000" cy="102.321892" rx="25.000000" ry="2.461693" fill="rgb(255, 165, 0)" style="fill-opacity:1.00" />
<ellipse cx="415.000000" cy="102.321892" rx="16.666667" ry="1.641129" fill="rgb(255, 255, 255)" style="fill-opacity:1.00" />
<rect height="2.461693" width="25.000000" x="415.000000" y="101.091045" fill="rgb(255, 255, 255)" style="fill-opacity:1.00" />
<rect height="0.615423" width="25.000000" x="415.000000" y="102.937315" fill="rgb(255, 165, 0)" style="fill-opacity:1.00" />
<rect height="1.846270" width="6.250000" x="433.750000" y="102.937315" fill="rgb(255, 165, 0)" style="fill-opacity:1.00" />
<!-- End 'G' -->
<!-- Begin 'T' -->
<rect height="0.743193" width="50.000000" x="390.000000" y="104.783585" fill="rgb(0, 100, 0)" style="fill-opacity:1.00" />
<rect height="4.644958" width="10.000000" x="410.000000" y="104.783585" fill="rgb(0, 100, 0)" style="fill-opacity:1.00" />
<!-- End 'T' -->
<!-- Begin 'C' -->
<ellipse cx="415.000000" cy="109.714272" rx="25.000000" ry="0.285728" fill="rgb(0, 0, 128)" style="fill-opacity:1.00" />
<ellipse cx="415.000000" cy="109.714272" rx="16.666667" ry="0.190486" fill="rgb(255, 255, 255)" style="fill-opacity:1.00" />
<rect height="0.285728" width="25.000000" x="415.000000" y="109.571407" fill="rgb(255, 255, 255)" style="fill-opacity:1.00" />
<!-- End 'C' -->
<!-- Begin 'C' -->
<ellipse cx="475.000000" cy="75.728621" rx="25.000000" ry="25.803289" fill="rgb(0, 0, 128)" style="fill-opacity:1.00" />
<ellipse cx="475.000000" cy="75.728621" rx="16.666667" ry="17.202193" fill="rgb(255, 255, 255)" style="fill-opacity:1.00" />
<rect height="25.803289" width="25.000000" x="475.000000" y="62.826977" fill="rgb(255, 255, 255)" style="fill-opacity:1.00" />
<!-- End 'C' -->
<!-- Begin 'A' -->
<polygon points=" 450.000000, 105.095461, 471.000000, 101.531910, 479.000000, 101.531910, 500.000000, 105.095461, 492.500000, 105.095461, 486.250000, 104.204573, 463.750000, 104.204573, 457.500000, 105.095461" fill="rgb(178, 34, 34)" style="fill-opacity:1.00" />
<!-- End 'A' -->
<!-- Begin 'G' -->
<ellipse cx="475.000000" cy="106.775847" rx="25.000000" ry="1.680386" fill="rgb(255, 165, 0)" style="fill-opacity:1.00" />
<ellipse cx="475.000000" cy="106.775847" rx="16.666667" ry="1.120258" fill="rgb(255, 255, 255)" style="fill-opacity:1.00" />
<rect height="1.680386" width="25.000000" x="475.000000" y="105.935654" fill="rgb(255, 255, 255)" style="fill-opacity:1.00" />
<rect height="0.420097" width="25.000000" x="475.000000" y="107.195944" fill="rgb(255, 165, 0)" style="fill-opacity:1.00" />
<rect height="1.260290" width="6.250000" x="493.750000" y="107.195944" fill="rgb(255, 165, 0)" style="fill-opacity:1.00" />
<!-- End 'G' -->
<!-- Begin 'T' -->
<rect height="0.247003" width="50.000000" x="450.000000" y="108.456234" fill="rgb(0, 100, 0)" style="fill-opacity:1.00" />
<rect height="1.543766" width="10.000000" x="470.000000" y="108.456234" fill="rgb(0, 100, 0)" style="fill-opacity:1.00" />
<!-- End 'T' -->
<!-- Begin 'A' -->
<polygon points=" 510.000000, 99.954774, 531.000000, 70.670156, 539.000000, 70.670156, 560.000000, 99.954774, 552.500000, 99.954774, 546.250000, 92.633620, 523.750000, 92.633620, 517.500000, 99.954774" fill="rgb(178, 34, 34)" style="fill-opacity:1.00" />
<polygon points=" 535.000000, 76.527080, 527.000000, 87.240927, 542.000000, 87.240927" fill="rgb(255, 255, 255)" style="fill-opacity:1.00" />
<!-- End 'A' -->
<!-- Begin 'T' -->
<rect height="0.650101" width="50.000000" x="510.000000" y="99.954774" fill="rgb(0, 100, 0)" style="fill-opacity:1.00" />
<rect height="4.063129" width="10.000000" x="530.000000" y="99.954774" fill="rgb(0, 100, 0)" style="fill-opacity:1.00" />
<!-- End 'T' -->
<!-- Begin 'G' -->
<ellipse cx="535.000000" cy="105.891342" rx="25.000000" ry="1.873439" fill="rgb(255, 165, 0)" style="fill-opacity:1.00" />
<ellipse cx="535.000000" cy="105.891342" rx="16.666667" ry="1.248959" fill="rgb(255, 255, 255)" style="fill-opacity:1.00" />
<rect height="1.873439" width="25.000000" x="535.000000" y="104.954622" fill="rgb(255, 255, 255)" style="fill-opacity:1.00" />
<rect height="0.468360" width="25.000000" x="535.000000" y="106.359701" fill="rgb(255, 165, 0)" style="fill-opacity:1.00" />
<rect height="1.405079" width="6.250000" x="553.750000" y="106.359701" fill="rgb(255, 165, 0)" style="fill-opacity:1.00" />
<!-- End 'G' -->
<!-- Begin 'C' -->
<ellipse cx="535.000000" cy="108.882390" rx="25.000000" ry="1.117610" fill="rgb(0, 0, 128)" style="fill-opacity:1.00" />
<ellipse cx="535.000000" cy="108.882390" rx="16.666667" ry="0.745073" fill="rgb(255, 255, 255)" style="fill-opacity:1.00" />
<rect height="1.117610" width="25.000000" x="535.000000" y="108.323585" fill="rgb(255, 255, 255)" style="fill-opacity:1.00" />
<!-- End 'C' -->
<!-- Begin 'G' -->
<ellipse cx="595.000000" cy="106.549670" rx="25.000000" ry="0.766538" fill="rgb(255, 165, 0)" style="fill-opacity:1.00" />
<ellipse cx="595.000000" cy="106.549670" rx="16.666667" ry="0.511025" fill="rgb(255, 255, 255)" style="fill-opacity:1.00" />
<rect height="0.766538" width="25.000000" x="595.000000" y="106.166401" fill="rgb(255, 255, 255)" style="fill-opacity:1.00" />
<rect height="0.191635" width="25.000000" x="595.000000" y="106.741304" fill="rgb(255, 165, 0)" style="fill-opacity:1.00" />
<rect height="0.574904" width="6.250000" x="613.750000" y="106.741304" fill="rgb(255, 165, 0)" style="fill-opacity:1.00" />
<!-- End 'G' -->
<!-- Begin 'A' -->
<polygon points=" 570.000000, 108.544163, 591.000000, 107.316208, 599.000000, 107.316208, 620.000000, 108.544163, 612.500000, 108.544163, 606.250000, 108.237174, 583.750000, 108.237174, 577.500000, 108.544163" fill="rgb(178, 34, 34)" style="fill-opacity:1.00" />
<!-- End 'A' -->
<!-- Begin 'C' -->
<ellipse cx="595.000000" cy="108.974396" rx="25.000000" ry="0.430233" fill="rgb(0, 0, 128)" style="fill-opacity:1.00" />
<ellipse cx="595.000000" cy="108.974396" rx="16.666667" ry="0.286822" fill="rgb(255, 255, 255)" style="fill-opacity:1.00" />
<rect height="0.430233" width="25.000000" x="595.000000" y="108.759279" fill="rgb(255, 255, 255)" style="fill-opacity:1.00" />
<!-- End 'C' -->
<!-- Begin 'T' -->
<rect height="0.095259" width="50.000000" x="570.000000" y="109.404630" fill="rgb(0, 100, 0)" style="fill-opacity:1.00" />
<rect height="0.595370" width="10.000000" x="590.000000" y="109.404630" fill="rgb(0, 100, 0)" style="fill-opacity:1.00" />
<!-- End 'T' -->
<text x="340.000000" y="165">
IC = 7.81
</text>

</svg>
