<?xml version="1.0" encoding="UTF-8" standalone="yes"?>
                 <!DOCTYPE svg PUBLIC "-//W3C//DTD SVG 1.0//EN" "http://www.w3.org/TR/2001/REC-SVG-20010904/DTD/svg10.dtd">
                 <svg height="170" width="1020" xmlns="http://www.w3.org/2000/svg" xmlns:xlink="http://www.w3.org/1999/xlink">
                 <line x1="85" y1="120" x2="987" y2="120" style="stroke:rgb(99,99,99);stroke-width:2" />
<rect height="7.000000" width="2.000000" x="85.000000" y="120.000000" fill="rgb(0, 0, 0)" style="fill-opacity:1.00" />
<text x="107.000000" y="140">
1
</text>
<rect height="7.000000" width="2.000000" x="145.000000" y="120.000000" fill="rgb(0, 0, 0)" style="fill-opacity:1.00" />
<text x="167.000000" y="140">
2
</text>
<rect height="7.000000" width="2.000000" x="205.000000" y="120.000000" fill="rgb(0, 0, 0)" style="fill-opacity:1.00" />
<text x="227.000000" y="140">
3
</text>
<rect height="7.000000" width="2.000000" x="265.000000" y="120.000000" fill="rgb(0, 0, 0)" style="fill-opacity:1.00" />
<text x="287.000000" y="140">
4
</text>
<rect height="7.000000" width="2.000000" x="325.000000" y="120.000000" fill="rgb(0, 0, 0)" style="fill-opacity:1.00" />
<text x="347.000000" y="140">
5
</text>
<rect height="7.000000" width="2.000000" x="385.000000" y="120.000000" fill="rgb(0, 0, 0)" style="fill-opacity:1.00" />
<text x="407.000000" y="140">
6
</text>
<rect height="7.000000" width="2.000000" x="445.000000" y="120.000000" fill="rgb(0, 0, 0)" style="fill-opacity:1.00" />
<text x="467.000000" y="140">
7
</text>
<rect height="7.000000" width="2.000000" x="505.000000" y="120.000000" fill="rgb(0, 0, 0)" style="fill-opacity:1.00" />
<text x="527.000000" y="140">
8
</text>
<rect height="7.000000" width="2.000000" x="565.000000" y="120.000000" fill="rgb(0, 0, 0)" style="fill-opacity:1.00" />
<text x="587.000000" y="140">
9
</text>
<rect height="7.000000" width="2.000000" x="625.000000" y="120.000000" fill="rgb(0, 0, 0)" style="fill-opacity:1.00" />
<text x="647.000000" y="140">
10
</text>
<rect height="7.000000" width="2.000000" x="685.000000" y="120.000000" fill="rgb(0, 0, 0)" style="fill-opacity:1.00" />
<text x="707.000000" y="140">
11
</text>
<rect height="7.000000" width="2.000000" x="745.000000" y="120.000000" fill="rgb(0, 0, 0)" style="fill-opacity:1.00" />
<text x="767.000000" y="140">
12
</text>
<rect height="7.000000" width="2.000000" x="805.000000" y="120.000000" fill="rgb(0, 0, 0)" style="fill-opacity:1.00" />
<text x="827.000000" y="140">
13
</text>
<rect height="7.000000" width="2.000000" x="865.000000" y="120.000000" fill="rgb(0, 0, 0)" style="fill-opacity:1.00" />
<text x="887.000000" y="140">
14
</text>
<rect height="7.000000" width="2.000000" x="925.000000" y="120.000000" fill="rgb(0, 0, 0)" style="fill-opacity:1.00" />
<text x="947.000000" y="140">
15
</text>
<rect height="7.000000" width="2.000000" x="985.000000" y="120.000000" fill="rgb(0, 0, 0)" style="fill-opacity:1.00" />
<line x1="80" y1="112" x2="80" y2="10" style="stroke:rgb(99,99,99);stroke-width:2" />
<rect height="2.000000" width="7.000000" x="73.000000" y="110.000000" fill="rgb(0, 0, 0)" style="fill-opacity:1.00" />
<text x="63" y="115">
0
</text>
<rect height="2.000000" width="7.000000" x="73.000000" y="60.000000" fill="rgb(0, 0, 0)" style="fill-opacity:1.00" />
<text x="63" y="65">
1
</text>
<rect height="2.000000" width="7.000000" x="73.000000" y="10.000000" fill="rgb(0, 0, 0)" style="fill-opacity:1.00" />
<text x="63" y="15">
2
</text>
<text x="50" y="65"
transform="rotate(-90, 50, 70)">
bits
</text>
<!-- Begin 'C' -->
<ellipse cx="115.000000" cy="102.720909" rx="25.000000" ry="1.884077" fill="rgb(0, 0, 128)" style="fill-opacity:1.00" />
<ellipse cx="115.000000" cy="102.720909" rx="16.666667" ry="1.256051" fill="rgb(255, 255, 255)" style="fill-opacity:1.00" />
<rect height="1.884077" width="25.000000" x="115.000000" y="101.778870" fill="rgb(255, 255, 255)" style="fill-opacity:1.00" />
<!-- End 'C' -->
<!-- Begin 'T' -->
<rect height="0.399073" width="50.000000" x="90.000000" y="104.604986" fill="rgb(0, 100, 0)" style="fill-opacity:1.00" />
<rect height="2.494209" width="10.000000" x="110.000000" y="104.604986" fill="rgb(0, 100, 0)" style="fill-opacity:1.00" />
<!-- End 'T' -->
<!-- Begin 'A' -->
<polygon points=" 90.000000, 109.295201, 111.000000, 107.099194, 119.000000, 107.099194, 140.000000, 109.295201, 132.500000, 109.295201, 126.250000, 108.746199, 103.750000, 108.746199, 97.500000, 109.295201" fill="rgb(178, 34, 34)" style="fill-opacity:1.00" />
<!-- End 'A' -->
<!-- Begin 'G' -->
<ellipse cx="115.000000" cy="109.647600" rx="25.000000" ry="0.352400" fill="rgb(255, 165, 0)" style="fill-opacity:1.00" />
<ellipse cx="115.000000" cy="109.647600" rx="16.666667" ry="0.234933" fill="rgb(255, 255, 255)" style="fill-opacity:1.00" />
<rect height="0.352400" width="25.000000" x="115.000000" y="109.471401" fill="rgb(255, 255, 255)" style="fill-opacity:1.00" />
<rect height="0.088100" width="25.000000" x="115.000000" y="109.735700" fill="rgb(255, 165, 0)" style="fill-opacity:1.00" />
<rect height="0.264300" width="6.250000" x="133.750000" y="109.735700" fill="rgb(255, 165, 0)" style="fill-opacity:1.00" />
<!-- End 'G' -->
<!-- Begin 'G' -->
<ellipse cx="175.000000" cy="106.531920" rx="25.000000" ry="0.753905" fill="rgb(255, 165, 0)" style="fill-opacity:1.00" />
<ellipse cx="175.000000" cy="106.531920" rx="16.666667" ry="0.502603" fill="rgb(255, 255, 255)" style="fill-opacity:1.00" />
<rect height="0.753905" width="25.000000" x="175.000000" y="106.154968" fill="rgb(255, 255, 255)" style="fill-opacity:1.00" />
<rect height="0.188476" width="25.000000" x="175.000000" y="106.720396" fill="rgb(255, 165, 0)" style="fill-opacity:1.00" />
<rect height="0.565429" width="6.250000" x="193.750000" y="106.720396" fill="rgb(255, 165, 0)" style="fill-opacity:1.00" />
<!-- End 'G' -->
<!-- Begin 'A' -->
<polygon points=" 150.000000, 108.420610, 171.000000, 107.285825, 179.000000, 107.285825, 200.000000, 108.420610, 192.500000, 108.420610, 186.250000, 108.136914, 163.750000, 108.136914, 157.500000, 108.420610" fill="rgb(178, 34, 34)" style="fill-opacity:1.00" />
<!-- End 'A' -->
<!-- Begin 'T' -->
<rect height="0.167516" width="50.000000" x="150.000000" y="108.420610" fill="rgb(0, 100, 0)" style="fill-opacity:1.00" />
<rect height="1.046973" width="10.000000" x="170.000000" y="108.420610" fill="rgb(0, 100, 0)" style="fill-opacity:1.00" />
<!-- End 'T' -->
<!-- Begin 'C' -->
<ellipse cx="175.000000" cy="109.733792" rx="25.000000" ry="0.266208" fill="rgb(0, 0, 128)" style="fill-opacity:1.00" />
<ellipse cx="175.000000" cy="109.733792" rx="16.666667" ry="0.177472" fill="rgb(255, 255, 255)" style="fill-opacity:1.00" />
<rect height="0.266208" width="25.000000" x="175.000000" y="109.600688" fill="rgb(255, 255, 255)" style="fill-opacity:1.00" />
<!-- End 'C' -->
<!-- Begin 'G' -->
<ellipse cx="235.000000" cy="107.457718" rx="25.000000" ry="0.528090" fill="rgb(255, 165, 0)" style="fill-opacity:1.00" />
<ellipse cx="235.000000" cy="107.457718" rx="16.666667" ry="0.352060" fill="rgb(255, 255, 255)" style="fill-opacity:1.00" />
<rect height="0.528090" width="25.000000" x="235.000000" y="107.193673" fill="rgb(255, 255, 255)" style="fill-opacity:1.00" />
<rect height="0.132022" width="25.000000" x="235.000000" y="107.589740" fill="rgb(255, 165, 0)" style="fill-opacity:1.00" />
<rect height="0.396067" width="6.250000" x="253.750000" y="107.589740" fill="rgb(255, 165, 0)" style="fill-opacity:1.00" />
<!-- End 'G' -->
<!-- Begin 'C' -->
<ellipse cx="235.000000" cy="108.441496" rx="25.000000" ry="0.455689" fill="rgb(0, 0, 128)" style="fill-opacity:1.00" />
<ellipse cx="235.000000" cy="108.441496" rx="16.666667" ry="0.303793" fill="rgb(255, 255, 255)" style="fill-opacity:1.00" />
<rect height="0.455689" width="25.000000" x="235.000000" y="108.213652" fill="rgb(255, 255, 255)" style="fill-opacity:1.00" />
<!-- End 'C' -->
<!-- Begin 'A' -->
<polygon points=" 210.000000, 109.481109, 231.000000, 108.897186, 239.000000, 108.897186, 260.000000, 109.481109, 252.500000, 109.481109, 246.250000, 109.335128, 223.750000, 109.335128, 217.500000, 109.481109" fill="rgb(178, 34, 34)" style="fill-opacity:1.00" />
<!-- End 'A' -->
<!-- Begin 'T' -->
<rect height="0.083022" width="50.000000" x="210.000000" y="109.481109" fill="rgb(0, 100, 0)" style="fill-opacity:1.00" />
<rect height="0.518891" width="10.000000" x="230.000000" y="109.481109" fill="rgb(0, 100, 0)" style="fill-opacity:1.00" />
<!-- End 'T' -->
<!-- Begin 'C' -->
<ellipse cx="295.000000" cy="89.222583" rx="25.000000" ry="10.032114" fill="rgb(0, 0, 128)" style="fill-opacity:1.00" />
<ellipse cx="295.000000" cy="89.222583" rx="16.666667" ry="6.688076" fill="rgb(255, 255, 255)" style="fill-opacity:1.00" />
<rect height="10.032114" width="25.000000" x="295.000000" y="84.206526" fill="rgb(255, 255, 255)" style="fill-opacity:1.00" />
<!-- End 'C' -->
<!-- Begin 'A' -->
<polygon points=" 270.000000, 104.652647, 291.000000, 99.254697, 299.000000, 99.254697, 320.000000, 104.652647, 312.500000, 104.652647, 306.250000, 103.303159, 283.750000, 103.303159, 277.500000, 104.652647" fill="rgb(178, 34, 34)" style="fill-opacity:1.00" />
<!-- End 'A' -->
<!-- Begin 'T' -->
<rect height="0.734498" width="50.000000" x="270.000000" y="104.652647" fill="rgb(0, 100, 0)" style="fill-opacity:1.00" />
<rect height="4.590611" width="10.000000" x="290.000000" y="104.652647" fill="rgb(0, 100, 0)" style="fill-opacity:1.00" />
<!-- End 'T' -->
<!-- Begin 'G' -->
<ellipse cx="295.000000" cy="109.621629" rx="25.000000" ry="0.378371" fill="rgb(255, 165, 0)" style="fill-opacity:1.00" />
<ellipse cx="295.000000" cy="109.621629" rx="16.666667" ry="0.252247" fill="rgb(255, 255, 255)" style="fill-opacity:1.00" />
<rect height="0.378371" width="25.000000" x="295.000000" y="109.432444" fill="rgb(255, 255, 255)" style="fill-opacity:1.00" />
<rect height="0.094593" width="25.000000" x="295.000000" y="109.716222" fill="rgb(255, 165, 0)" style="fill-opacity:1.00" />
<rect height="0.283778" width="6.250000" x="313.750000" y="109.716222" fill="rgb(255, 165, 0)" style="fill-opacity:1.00" />
<!-- End 'G' -->
<!-- Begin 'G' -->
<ellipse cx="355.000000" cy="83.484285" rx="25.000000" ry="15.419643" fill="rgb(255, 165, 0)" style="fill-opacity:1.00" />
<ellipse cx="355.000000" cy="83.484285" rx="16.666667" ry="10.279762" fill="rgb(255, 255, 255)" style="fill-opacity:1.00" />
<rect height="15.419643" width="25.000000" x="355.000000" y="75.774464" fill="rgb(255, 255, 255)" style="fill-opacity:1.00" />
<rect height="3.854911" width="25.000000" x="355.000000" y="87.339196" fill="rgb(255, 165, 0)" style="fill-opacity:1.00" />
<rect height="11.564732" width="6.250000" x="373.750000" y="87.339196" fill="rgb(255, 165, 0)" style="fill-opacity:1.00" />
<!-- End 'G' -->
<!-- Begin 'A' -->
<polygon points=" 330.000000, 104.687284, 351.000000, 98.903928, 359.000000, 98.903928, 380.000000, 104.687284, 372.500000, 104.687284, 366.250000, 103.241445, 343.750000, 103.241445, 337.500000, 104.687284" fill="rgb(178, 34, 34)" style="fill-opacity:1.00" />
<!-- End 'A' -->
<!-- Begin 'T' -->
<rect height="0.756318" width="50.000000" x="330.000000" y="104.687284" fill="rgb(0, 100, 0)" style="fill-opacity:1.00" />
<rect height="4.726989" width="10.000000" x="350.000000" y="104.687284" fill="rgb(0, 100, 0)" style="fill-opacity:1.00" />
<!-- End 'T' -->
<!-- Begin 'C' -->
<ellipse cx="355.000000" cy="109.707137" rx="25.000000" ry="0.292863" fill="rgb(0, 0, 128)" style="fill-opacity:1.00" />
<ellipse cx="355.000000" cy="109.707137" rx="16.666667" ry="0.195242" fill="rgb(255, 255, 255)" style="fill-opacity:1.00" />
<rect height="0.292863" width="25.000000" x="355.000000" y="109.560705" fill="rgb(255, 255, 255)" style="fill-opacity:1.00" />
<!-- End 'C' -->
<!-- Begin 'C' -->
<ellipse cx="415.000000" cy="96.414793" rx="25.000000" ry="3.522607" fill="rgb(0, 0, 128)" style="fill-opacity:1.00" />
<ellipse cx="415.000000" cy="96.414793" rx="16.666667" ry="2.348405" fill="rgb(255, 255, 255)" style="fill-opacity:1.00" />
<rect height="3.522607" width="25.000000" x="415.000000" y="94.653490" fill="rgb(255, 255, 255)" style="fill-opacity:1.00" />
<!-- End 'C' -->
<!-- Begin 'G' -->
<ellipse cx="415.000000" cy="103.419013" rx="25.000000" ry="3.481613" fill="rgb(255, 165, 0)" style="fill-opacity:1.00" />
<ellipse cx="415.000000" cy="103.419013" rx="16.666667" ry="2.321075" fill="rgb(255, 255, 255)" style="fill-opacity:1.00" />
<rect height="3.481613" width="25.000000" x="415.000000" y="101.678207" fill="rgb(255, 255, 255)" style="fill-opacity:1.00" />
<rect height="0.870403" width="25.000000" x="415.000000" y="104.289416" fill="rgb(255, 165, 0)" style="fill-opacity:1.00" />
<rect height="2.611210" width="6.250000" x="433.750000" y="104.289416" fill="rgb(255, 165, 0)" style="fill-opacity:1.00" />
<!-- End 'G' -->
<!-- Begin 'A' -->
<polygon points=" 390.000000, 109.113969, 411.000000, 106.900626, 419.000000, 106.900626, 440.000000, 109.113969, 432.500000, 109.113969, 426.250000, 108.560633, 403.750000, 108.560633, 397.500000, 109.113969" fill="rgb(178, 34, 34)" style="fill-opacity:1.00" />
<!-- End 'A' -->
<!-- Begin 'T' -->
<rect height="0.141765" width="50.000000" x="390.000000" y="109.113969" fill="rgb(0, 100, 0)" style="fill-opacity:1.00" />
<rect height="0.886031" width="10.000000" x="410.000000" y="109.113969" fill="rgb(0, 100, 0)" style="fill-opacity:1.00" />
<!-- End 'T' -->
<!-- Begin 'C' -->
<ellipse cx="475.000000" cy="75.201903" rx="25.000000" ry="25.266394" fill="rgb(0, 0, 128)" style="fill-opacity:1.00" />
<ellipse cx="475.000000" cy="75.201903" rx="16.666667" ry="16.844262" fill="rgb(255, 255, 255)" style="fill-opacity:1.00" />
<rect height="25.266394" width="25.000000" x="475.000000" y="62.568706" fill="rgb(255, 255, 255)" style="fill-opacity:1.00" />
<!-- End 'C' -->
<!-- Begin 'T' -->
<rect height="0.950624" width="50.000000" x="450.000000" y="100.468297" fill="rgb(0, 100, 0)" style="fill-opacity:1.00" />
<rect height="5.941399" width="10.000000" x="470.000000" y="100.468297" fill="rgb(0, 100, 0)" style="fill-opacity:1.00" />
<!-- End 'T' -->
<!-- Begin 'A' -->
<polygon points=" 450.000000, 109.837607, 471.000000, 106.409696, 479.000000, 106.409696, 500.000000, 109.837607, 492.500000, 109.837607, 486.250000, 108.980630, 463.750000, 108.980630, 457.500000, 109.837607" fill="rgb(178, 34, 34)" style="fill-opacity:1.00" />
<!-- End 'A' -->
<!-- Begin 'G' -->
<ellipse cx="475.000000" cy="109.918804" rx="25.000000" ry="0.081196" fill="rgb(255, 165, 0)" style="fill-opacity:1.00" />
<ellipse cx="475.000000" cy="109.918804" rx="16.666667" ry="0.054131" fill="rgb(255, 255, 255)" style="fill-opacity:1.00" />
<rect height="0.081196" width="25.000000" x="475.000000" y="109.878206" fill="rgb(255, 255, 255)" style="fill-opacity:1.00" />
<rect height="0.020299" width="25.000000" x="475.000000" y="109.939103" fill="rgb(255, 165, 0)" style="fill-opacity:1.00" />
<rect height="0.060897" width="6.250000" x="493.750000" y="109.939103" fill="rgb(255, 165, 0)" style="fill-opacity:1.00" />
<!-- End 'G' -->
<!-- Begin 'G' -->
<ellipse cx="535.000000" cy="77.588353" rx="25.000000" ry="22.627743" fill="rgb(255, 165, 0)" style="fill-opacity:1.00" />
<ellipse cx="535.000000" cy="77.588353" rx="16.666667" ry="15.085162" fill="rgb(255, 255, 255)" style="fill-opacity:1.00" />
<rect height="22.627743" width="25.000000" x="535.000000" y="66.274481" fill="rgb(255, 255, 255)" style="fill-opacity:1.00" />
<rect height="5.656936" width="25.000000" x="535.000000" y="83.245288" fill="rgb(255, 165, 0)" style="fill-opacity:1.00" />
<rect height="16.970807" width="6.250000" x="553.750000" y="83.245288" fill="rgb(255, 165, 0)" style="fill-opacity:1.00" />
<!-- End 'G' -->
<!-- Begin 'A' -->
<polygon points=" 510.000000, 105.521564, 531.000000, 100.216096, 539.000000, 100.216096, 560.000000, 105.521564, 552.500000, 105.521564, 546.250000, 104.195197, 523.750000, 104.195197, 517.500000, 105.521564" fill="rgb(178, 34, 34)" style="fill-opacity:1.00" />
<!-- End 'A' -->
<!-- Begin 'T' -->
<rect height="0.617328" width="50.000000" x="510.000000" y="105.521564" fill="rgb(0, 100, 0)" style="fill-opacity:1.00" />
<rect height="3.858300" width="10.000000" x="530.000000" y="105.521564" fill="rgb(0, 100, 0)" style="fill-opacity:1.00" />
<!-- End 'T' -->
<!-- Begin 'C' -->
<ellipse cx="535.000000" cy="109.689932" rx="25.000000" ry="0.310068" fill="rgb(0, 0, 128)" style="fill-opacity:1.00" />
<ellipse cx="535.000000" cy="109.689932" rx="16.666667" ry="0.206712" fill="rgb(255, 255, 255)" style="fill-opacity:1.00" />
<rect height="0.310068" width="25.000000" x="535.000000" y="109.534898" fill="rgb(255, 255, 255)" style="fill-opacity:1.00" />
<!-- End 'C' -->
<!-- Begin 'G' -->
<ellipse cx="595.000000" cy="96.456904" rx="25.000000" ry="4.287583" fill="rgb(255, 165, 0)" style="fill-opacity:1.00" />
<ellipse cx="595.000000" cy="96.456904" rx="16.666667" ry="2.858388" fill="rgb(255, 255, 255)" style="fill-opacity:1.00" />
<rect height="4.287583" width="25.000000" x="595.000000" y="94.313113" fill="rgb(255, 255, 255)" style="fill-opacity:1.00" />
<rect height="1.071896" width="25.000000" x="595.000000" y="97.528800" fill="rgb(255, 165, 0)" style="fill-opacity:1.00" />
<rect height="3.215687" width="6.250000" x="613.750000" y="97.528800" fill="rgb(255, 165, 0)" style="fill-opacity:1.00" />
<!-- End 'G' -->
<!-- Begin 'C' -->
<ellipse cx="595.000000" cy="103.842701" rx="25.000000" ry="3.098214" fill="rgb(0, 0, 128)" style="fill-opacity:1.00" />
<ellipse cx="595.000000" cy="103.842701" rx="16.666667" ry="2.065476" fill="rgb(255, 255, 255)" style="fill-opacity:1.00" />
<rect height="3.098214" width="25.000000" x="595.000000" y="102.293594" fill="rgb(255, 255, 255)" style="fill-opacity:1.00" />
<!-- End 'C' -->
<!-- Begin 'T' -->
<rect height="0.278160" width="50.000000" x="570.000000" y="106.940914" fill="rgb(0, 100, 0)" style="fill-opacity:1.00" />
<rect height="1.738502" width="10.000000" x="590.000000" y="106.940914" fill="rgb(0, 100, 0)" style="fill-opacity:1.00" />
<!-- End 'T' -->
<!-- Begin 'A' -->
<polygon points=" 570.000000, 110.000000, 591.000000, 108.679416, 599.000000, 108.679416, 620.000000, 110.000000, 612.500000, 110.000000, 606.250000, 109.669854, 583.750000, 109.669854, 577.500000, 110.000000" fill="rgb(178, 34, 34)" style="fill-opacity:1.00" />
<!-- End 'A' -->
<!-- Begin 'C' -->
<ellipse cx="655.000000" cy="83.285357" rx="25.000000" ry="15.675992" fill="rgb(0, 0, 128)" style="fill-opacity:1.00" />
<ellipse cx="655.000000" cy="83.285357" rx="16.666667" ry="10.450661" fill="rgb(255, 255, 255)" style="fill-opacity:1.00" />
<rect height="15.675992" width="25.000000" x="655.000000" y="75.447361" fill="rgb(255, 255, 255)" style="fill-opacity:1.00" />
<!-- End 'C' -->
<!-- Begin 'T' -->
<rect height="0.874157" width="50.000000" x="630.000000" y="98.961349" fill="rgb(0, 100, 0)" style="fill-opacity:1.00" />
<rect height="5.463478" width="10.000000" x="650.000000" y="98.961349" fill="rgb(0, 100, 0)" style="fill-opacity:1.00" />
<!-- End 'T' -->
<!-- Begin 'A' -->
<polygon points=" 630.000000, 109.404841, 651.000000, 104.424827, 659.000000, 104.424827, 680.000000, 109.404841, 672.500000, 109.404841, 666.250000, 108.159838, 643.750000, 108.159838, 637.500000, 109.404841" fill="rgb(178, 34, 34)" style="fill-opacity:1.00" />
<!-- End 'A' -->
<!-- Begin 'G' -->
<ellipse cx="655.000000" cy="109.702421" rx="25.000000" ry="0.297579" fill="rgb(255, 165, 0)" style="fill-opacity:1.00" />
<ellipse cx="655.000000" cy="109.702421" rx="16.666667" ry="0.198386" fill="rgb(255, 255, 255)" style="fill-opacity:1.00" />
<rect height="0.297579" width="25.000000" x="655.000000" y="109.553631" fill="rgb(255, 255, 255)" style="fill-opacity:1.00" />
<rect height="0.074395" width="25.000000" x="655.000000" y="109.776815" fill="rgb(255, 165, 0)" style="fill-opacity:1.00" />
<rect height="0.223185" width="6.250000" x="673.750000" y="109.776815" fill="rgb(255, 165, 0)" style="fill-opacity:1.00" />
<!-- End 'G' -->
<!-- Begin 'G' -->
<ellipse cx="715.000000" cy="89.792889" rx="25.000000" ry="9.466657" fill="rgb(255, 165, 0)" style="fill-opacity:1.00" />
<ellipse cx="715.000000" cy="89.792889" rx="16.666667" ry="6.311104" fill="rgb(255, 255, 255)" style="fill-opacity:1.00" />
<rect height="9.466657" width="25.000000" x="715.000000" y="85.059561" fill="rgb(255, 255, 255)" style="fill-opacity:1.00" />
<rect height="2.366664" width="25.000000" x="715.000000" y="92.159554" fill="rgb(255, 165, 0)" style="fill-opacity:1.00" />
<rect height="7.099992" width="6.250000" x="733.750000" y="92.159554" fill="rgb(255, 165, 0)" style="fill-opacity:1.00" />
<!-- End 'G' -->
<!-- Begin 'T' -->
<rect height="0.856104" width="50.000000" x="690.000000" y="99.259546" fill="rgb(0, 100, 0)" style="fill-opacity:1.00" />
<rect height="5.350653" width="10.000000" x="710.000000" y="99.259546" fill="rgb(0, 100, 0)" style="fill-opacity:1.00" />
<!-- End 'T' -->
<!-- Begin 'A' -->
<polygon points=" 690.000000, 109.309713, 711.000000, 104.610199, 719.000000, 104.610199, 740.000000, 109.309713, 732.500000, 109.309713, 726.250000, 108.134834, 703.750000, 108.134834, 697.500000, 109.309713" fill="rgb(178, 34, 34)" style="fill-opacity:1.00" />
<!-- End 'A' -->
<!-- Begin 'C' -->
<ellipse cx="715.000000" cy="109.654856" rx="25.000000" ry="0.345144" fill="rgb(0, 0, 128)" style="fill-opacity:1.00" />
<ellipse cx="715.000000" cy="109.654856" rx="16.666667" ry="0.230096" fill="rgb(255, 255, 255)" style="fill-opacity:1.00" />
<rect height="0.345144" width="25.000000" x="715.000000" y="109.482285" fill="rgb(255, 255, 255)" style="fill-opacity:1.00" />
<!-- End 'C' -->
<!-- Begin 'G' -->
<ellipse cx="775.000000" cy="108.430308" rx="25.000000" ry="0.298841" fill="rgb(255, 165, 0)" style="fill-opacity:1.00" />
<ellipse cx="775.000000" cy="108.430308" rx="16.666667" ry="0.199228" fill="rgb(255, 255, 255)" style="fill-opacity:1.00" />
<rect height="0.298841" width="25.000000" x="775.000000" y="108.280887" fill="rgb(255, 255, 255)" style="fill-opacity:1.00" />
<rect height="0.074710" width="25.000000" x="775.000000" y="108.505018" fill="rgb(255, 165, 0)" style="fill-opacity:1.00" />
<rect height="0.224131" width="6.250000" x="793.750000" y="108.505018" fill="rgb(255, 165, 0)" style="fill-opacity:1.00" />
<!-- End 'G' -->
<!-- Begin 'C' -->
<ellipse cx="775.000000" cy="109.001699" rx="25.000000" ry="0.272549" fill="rgb(0, 0, 128)" style="fill-opacity:1.00" />
<ellipse cx="775.000000" cy="109.001699" rx="16.666667" ry="0.181699" fill="rgb(255, 255, 255)" style="fill-opacity:1.00" />
<rect height="0.272549" width="25.000000" x="775.000000" y="108.865424" fill="rgb(255, 255, 255)" style="fill-opacity:1.00" />
<!-- End 'C' -->
<!-- Begin 'A' -->
<polygon points=" 750.000000, 109.646826, 771.000000, 109.274248, 779.000000, 109.274248, 800.000000, 109.646826, 792.500000, 109.646826, 786.250000, 109.553682, 763.750000, 109.553682, 757.500000, 109.646826" fill="rgb(178, 34, 34)" style="fill-opacity:1.00" />
<!-- End 'A' -->
<!-- Begin 'T' -->
<rect height="0.056508" width="50.000000" x="750.000000" y="109.646826" fill="rgb(0, 100, 0)" style="fill-opacity:1.00" />
<rect height="0.353174" width="10.000000" x="770.000000" y="109.646826" fill="rgb(0, 100, 0)" style="fill-opacity:1.00" />
<!-- End 'T' -->
<!-- Begin 'C' -->
<ellipse cx="835.000000" cy="107.047684" rx="25.000000" ry="0.620242" fill="rgb(0, 0, 128)" style="fill-opacity:1.00" />
<ellipse cx="835.000000" cy="107.047684" rx="16.666667" ry="0.413495" fill="rgb(255, 255, 255)" style="fill-opacity:1.00" />
<rect height="0.620242" width="25.000000" x="835.000000" y="106.737563" fill="rgb(255, 255, 255)" style="fill-opacity:1.00" />
<!-- End 'C' -->
<!-- Begin 'T' -->
<rect height="0.159297" width="50.000000" x="810.000000" y="107.667926" fill="rgb(0, 100, 0)" style="fill-opacity:1.00" />
<rect height="0.995606" width="10.000000" x="830.000000" y="107.667926" fill="rgb(0, 100, 0)" style="fill-opacity:1.00" />
<!-- End 'T' -->
<!-- Begin 'A' -->
<polygon points=" 810.000000, 109.511607, 831.000000, 108.663532, 839.000000, 108.663532, 860.000000, 109.511607, 852.500000, 109.511607, 846.250000, 109.299588, 823.750000, 109.299588, 817.500000, 109.511607" fill="rgb(178, 34, 34)" style="fill-opacity:1.00" />
<!-- End 'A' -->
<!-- Begin 'G' -->
<ellipse cx="835.000000" cy="109.755803" rx="25.000000" ry="0.244197" fill="rgb(255, 165, 0)" style="fill-opacity:1.00" />
<ellipse cx="835.000000" cy="109.755803" rx="16.666667" ry="0.162798" fill="rgb(255, 255, 255)" style="fill-opacity:1.00" />
<rect height="0.244197" width="25.000000" x="835.000000" y="109.633705" fill="rgb(255, 255, 255)" style="fill-opacity:1.00" />
<rect height="0.061049" width="25.000000" x="835.000000" y="109.816853" fill="rgb(255, 165, 0)" style="fill-opacity:1.00" />
<rect height="0.183147" width="6.250000" x="853.750000" y="109.816853" fill="rgb(255, 165, 0)" style="fill-opacity:1.00" />
<!-- End 'G' -->
<!-- Begin 'G' -->
<ellipse cx="895.000000" cy="102.356630" rx="25.000000" ry="2.043478" fill="rgb(255, 165, 0)" style="fill-opacity:1.00" />
<ellipse cx="895.000000" cy="102.356630" rx="16.666667" ry="1.362318" fill="rgb(255, 255, 255)" style="fill-opacity:1.00" />
<rect height="2.043478" width="25.000000" x="895.000000" y="101.334891" fill="rgb(255, 255, 255)" style="fill-opacity:1.00" />
<rect height="0.510869" width="25.000000" x="895.000000" y="102.867499" fill="rgb(255, 165, 0)" style="fill-opacity:1.00" />
<rect height="1.532608" width="6.250000" x="913.750000" y="102.867499" fill="rgb(255, 165, 0)" style="fill-opacity:1.00" />
<!-- End 'G' -->
<!-- Begin 'A' -->
<polygon points=" 870.000000, 107.088630, 891.000000, 104.400107, 899.000000, 104.400107, 920.000000, 107.088630, 912.500000, 107.088630, 906.250000, 106.416500, 883.750000, 106.416500, 877.500000, 107.088630" fill="rgb(178, 34, 34)" style="fill-opacity:1.00" />
<!-- End 'A' -->
<!-- Begin 'T' -->
<rect height="0.346716" width="50.000000" x="870.000000" y="107.088630" fill="rgb(0, 100, 0)" style="fill-opacity:1.00" />
<rect height="2.166974" width="10.000000" x="890.000000" y="107.088630" fill="rgb(0, 100, 0)" style="fill-opacity:1.00" />
<!-- End 'T' -->
<!-- Begin 'C' -->
<ellipse cx="895.000000" cy="109.627802" rx="25.000000" ry="0.372198" fill="rgb(0, 0, 128)" style="fill-opacity:1.00" />
<ellipse cx="895.000000" cy="109.627802" rx="16.666667" ry="0.248132" fill="rgb(255, 255, 255)" style="fill-opacity:1.00" />
<rect height="0.372198" width="25.000000" x="895.000000" y="109.441703" fill="rgb(255, 255, 255)" style="fill-opacity:1.00" />
<!-- End 'C' -->
<!-- Begin 'G' -->
<ellipse cx="955.000000" cy="108.846839" rx="25.000000" ry="0.228069" fill="rgb(255, 165, 0)" style="fill-opacity:1.00" />
<ellipse cx="955.000000" cy="108.846839" rx="16.666667" ry="0.152046" fill="rgb(255, 255, 255)" style="fill-opacity:1.00" />
<rect height="0.228069" width="25.000000" x="955.000000" y="108.732804" fill="rgb(255, 255, 255)" style="fill-opacity:1.00" />
<rect height="0.057017" width="25.000000" x="955.000000" y="108.903856" fill="rgb(255, 165, 0)" style="fill-opacity:1.00" />
<rect height="0.171052" width="6.250000" x="973.750000" y="108.903856" fill="rgb(255, 165, 0)" style="fill-opacity:1.00" />
<!-- End 'G' -->
<!-- Begin 'C' -->
<ellipse cx="955.000000" cy="109.241822" rx="25.000000" ry="0.166914" fill="rgb(0, 0, 128)" style="fill-opacity:1.00" />
<ellipse cx="955.000000" cy="109.241822" rx="16.666667" ry="0.111276" fill="rgb(255, 255, 255)" style="fill-opacity:1.00" />
<rect height="0.166914" width="25.000000" x="955.000000" y="109.158365" fill="rgb(255, 255, 255)" style="fill-opacity:1.00" />
<!-- End 'C' -->
<!-- Begin 'A' -->
<polygon points=" 930.000000, 109.732064, 951.000000, 109.408737, 959.000000, 109.408737, 980.000000, 109.732064, 972.500000, 109.732064, 966.250000, 109.651232, 943.750000, 109.651232, 937.500000, 109.732064" fill="rgb(178, 34, 34)" style="fill-opacity:1.00" />
<!-- End 'A' -->
<!-- Begin 'T' -->
<rect height="0.042870" width="50.000000" x="930.000000" y="109.732064" fill="rgb(0, 100, 0)" style="fill-opacity:1.00" />
<rect height="0.267936" width="10.000000" x="950.000000" y="109.732064" fill="rgb(0, 100, 0)" style="fill-opacity:1.00" />
<!-- End 'T' -->
<text x="520.000000" y="165">
IC = 6.56
</text>

</svg>
