<?xml version="1.0" encoding="UTF-8" standalone="yes"?>
                 <!DOCTYPE svg PUBLIC "-//W3C//DTD SVG 1.0//EN" "http://www.w3.org/TR/2001/REC-SVG-20010904/DTD/svg10.dtd">
                 <svg height="170" width="780" xmlns="http://www.w3.org/2000/svg" xmlns:xlink="http://www.w3.org/1999/xlink">
                 <line x1="85" y1="120" x2="747" y2="120" style="stroke:rgb(99,99,99);stroke-width:2" />
<rect height="7.000000" width="2.000000" x="85.000000" y="120.000000" fill="rgb(0, 0, 0)" style="fill-opacity:1.00" />
<text x="107.000000" y="140">
1
</text>
<rect height="7.000000" width="2.000000" x="145.000000" y="120.000000" fill="rgb(0, 0, 0)" style="fill-opacity:1.00" />
<text x="167.000000" y="140">
2
</text>
<rect height="7.000000" width="2.000000" x="205.000000" y="120.000000" fill="rgb(0, 0, 0)" style="fill-opacity:1.00" />
<text x="227.000000" y="140">
3
</text>
<rect height="7.000000" width="2.000000" x="265.000000" y="120.000000" fill="rgb(0, 0, 0)" style="fill-opacity:1.00" />
<text x="287.000000" y="140">
4
</text>
<rect height="7.000000" width="2.000000" x="325.000000" y="120.000000" fill="rgb(0, 0, 0)" style="fill-opacity:1.00" />
<text x="347.000000" y="140">
5
</text>
<rect height="7.000000" width="2.000000" x="385.000000" y="120.000000" fill="rgb(0, 0, 0)" style="fill-opacity:1.00" />
<text x="407.000000" y="140">
6
</text>
<rect height="7.000000" width="2.000000" x="445.000000" y="120.000000" fill="rgb(0, 0, 0)" style="fill-opacity:1.00" />
<text x="467.000000" y="140">
7
</text>
<rect height="7.000000" width="2.000000" x="505.000000" y="120.000000" fill="rgb(0, 0, 0)" style="fill-opacity:1.00" />
<text x="527.000000" y="140">
8
</text>
<rect height="7.000000" width="2.000000" x="565.000000" y="120.000000" fill="rgb(0, 0, 0)" style="fill-opacity:1.00" />
<text x="587.000000" y="140">
9
</text>
<rect height="7.000000" width="2.000000" x="625.000000" y="120.000000" fill="rgb(0, 0, 0)" style="fill-opacity:1.00" />
<text x="647.000000" y="140">
10
</text>
<rect height="7.000000" width="2.000000" x="685.000000" y="120.000000" fill="rgb(0, 0, 0)" style="fill-opacity:1.00" />
<text x="707.000000" y="140">
11
</text>
<rect height="7.000000" width="2.000000" x="745.000000" y="120.000000" fill="rgb(0, 0, 0)" style="fill-opacity:1.00" />
<line x1="80" y1="112" x2="80" y2="10" style="stroke:rgb(99,99,99);stroke-width:2" />
<rect height="2.000000" width="7.000000" x="73.000000" y="110.000000" fill="rgb(0, 0, 0)" style="fill-opacity:1.00" />
<text x="63" y="115">
0
</text>
<rect height="2.000000" width="7.000000" x="73.000000" y="60.000000" fill="rgb(0, 0, 0)" style="fill-opacity:1.00" />
<text x="63" y="65">
1
</text>
<rect height="2.000000" width="7.000000" x="73.000000" y="10.000000" fill="rgb(0, 0, 0)" style="fill-opacity:1.00" />
<text x="63" y="15">
2
</text>
<text x="50" y="65"
transform="rotate(-90, 50, 70)">
bits
</text>
<!-- Begin 'A' -->
<polygon points=" 90.000000, 106.268665, 111.000000, 103.549638, 119.000000, 103.549638, 140.000000, 106.268665, 132.500000, 106.268665, 126.250000, 105.588908, 103.750000, 105.588908, 97.500000, 106.268665" fill="rgb(178, 34, 34)" style="fill-opacity:1.00" />
<!-- End 'A' -->
<!-- Begin 'T' -->
<rect height="0.262855" width="50.000000" x="90.000000" y="106.268665" fill="rgb(0, 100, 0)" style="fill-opacity:1.00" />
<rect height="1.642842" width="10.000000" x="110.000000" y="106.268665" fill="rgb(0, 100, 0)" style="fill-opacity:1.00" />
<!-- End 'T' -->
<!-- Begin 'C' -->
<ellipse cx="115.000000" cy="108.526625" rx="25.000000" ry="0.615118" fill="rgb(0, 0, 128)" style="fill-opacity:1.00" />
<ellipse cx="115.000000" cy="108.526625" rx="16.666667" ry="0.410079" fill="rgb(255, 255, 255)" style="fill-opacity:1.00" />
<rect height="0.615118" width="25.000000" x="115.000000" y="108.219066" fill="rgb(255, 255, 255)" style="fill-opacity:1.00" />
<!-- End 'C' -->
<!-- Begin 'G' -->
<ellipse cx="115.000000" cy="109.570872" rx="25.000000" ry="0.429128" fill="rgb(255, 165, 0)" style="fill-opacity:1.00" />
<ellipse cx="115.000000" cy="109.570872" rx="16.666667" ry="0.286085" fill="rgb(255, 255, 255)" style="fill-opacity:1.00" />
<rect height="0.429128" width="25.000000" x="115.000000" y="109.356308" fill="rgb(255, 255, 255)" style="fill-opacity:1.00" />
<rect height="0.107282" width="25.000000" x="115.000000" y="109.678154" fill="rgb(255, 165, 0)" style="fill-opacity:1.00" />
<rect height="0.321846" width="6.250000" x="133.750000" y="109.678154" fill="rgb(255, 165, 0)" style="fill-opacity:1.00" />
<!-- End 'G' -->
<!-- Begin 'A' -->
<polygon points=" 150.000000, 102.330527, 171.000000, 93.428210, 179.000000, 93.428210, 200.000000, 102.330527, 192.500000, 102.330527, 186.250000, 100.104948, 163.750000, 100.104948, 157.500000, 102.330527" fill="rgb(178, 34, 34)" style="fill-opacity:1.00" />
<polygon points=" 175.000000, 95.208673, 167.000000, 97.769600, 182.000000, 97.769600" fill="rgb(255, 255, 255)" style="fill-opacity:1.00" />
<!-- End 'A' -->
<!-- Begin 'T' -->
<rect height="0.664319" width="50.000000" x="150.000000" y="102.330527" fill="rgb(0, 100, 0)" style="fill-opacity:1.00" />
<rect height="4.151993" width="10.000000" x="170.000000" y="102.330527" fill="rgb(0, 100, 0)" style="fill-opacity:1.00" />
<!-- End 'T' -->
<!-- Begin 'C' -->
<ellipse cx="175.000000" cy="107.394622" rx="25.000000" ry="0.912102" fill="rgb(0, 0, 128)" style="fill-opacity:1.00" />
<ellipse cx="175.000000" cy="107.394622" rx="16.666667" ry="0.608068" fill="rgb(255, 255, 255)" style="fill-opacity:1.00" />
<rect height="0.912102" width="25.000000" x="175.000000" y="106.938571" fill="rgb(255, 255, 255)" style="fill-opacity:1.00" />
<!-- End 'C' -->
<!-- Begin 'G' -->
<ellipse cx="175.000000" cy="109.153362" rx="25.000000" ry="0.846638" fill="rgb(255, 165, 0)" style="fill-opacity:1.00" />
<ellipse cx="175.000000" cy="109.153362" rx="16.666667" ry="0.564425" fill="rgb(255, 255, 255)" style="fill-opacity:1.00" />
<rect height="0.846638" width="25.000000" x="175.000000" y="108.730043" fill="rgb(255, 255, 255)" style="fill-opacity:1.00" />
<rect height="0.211660" width="25.000000" x="175.000000" y="109.365021" fill="rgb(255, 165, 0)" style="fill-opacity:1.00" />
<rect height="0.634979" width="6.250000" x="193.750000" y="109.365021" fill="rgb(255, 165, 0)" style="fill-opacity:1.00" />
<!-- End 'G' -->
<!-- Begin 'A' -->
<polygon points=" 210.000000, 99.967187, 231.000000, 86.066459, 239.000000, 86.066459, 260.000000, 99.967187, 252.500000, 99.967187, 246.250000, 96.492005, 223.750000, 96.492005, 217.500000, 99.967187" fill="rgb(178, 34, 34)" style="fill-opacity:1.00" />
<polygon points=" 235.000000, 88.846604, 227.000000, 93.406896, 242.000000, 93.406896" fill="rgb(255, 255, 255)" style="fill-opacity:1.00" />
<!-- End 'A' -->
<!-- Begin 'T' -->
<rect height="1.032469" width="50.000000" x="210.000000" y="99.967187" fill="rgb(0, 100, 0)" style="fill-opacity:1.00" />
<rect height="6.452931" width="10.000000" x="230.000000" y="99.967187" fill="rgb(0, 100, 0)" style="fill-opacity:1.00" />
<!-- End 'T' -->
<!-- Begin 'G' -->
<ellipse cx="235.000000" cy="107.472863" rx="25.000000" ry="1.052745" fill="rgb(255, 165, 0)" style="fill-opacity:1.00" />
<ellipse cx="235.000000" cy="107.472863" rx="16.666667" ry="0.701830" fill="rgb(255, 255, 255)" style="fill-opacity:1.00" />
<rect height="1.052745" width="25.000000" x="235.000000" y="106.946490" fill="rgb(255, 255, 255)" style="fill-opacity:1.00" />
<rect height="0.263186" width="25.000000" x="235.000000" y="107.736049" fill="rgb(255, 165, 0)" style="fill-opacity:1.00" />
<rect height="0.789559" width="6.250000" x="253.750000" y="107.736049" fill="rgb(255, 165, 0)" style="fill-opacity:1.00" />
<!-- End 'G' -->
<!-- Begin 'C' -->
<ellipse cx="235.000000" cy="109.262804" rx="25.000000" ry="0.737196" fill="rgb(0, 0, 128)" style="fill-opacity:1.00" />
<ellipse cx="235.000000" cy="109.262804" rx="16.666667" ry="0.491464" fill="rgb(255, 255, 255)" style="fill-opacity:1.00" />
<rect height="0.737196" width="25.000000" x="235.000000" y="108.894206" fill="rgb(255, 255, 255)" style="fill-opacity:1.00" />
<!-- End 'C' -->
<!-- Begin 'A' -->
<polygon points=" 270.000000, 98.190724, 291.000000, 72.447083, 299.000000, 72.447083, 320.000000, 98.190724, 312.500000, 98.190724, 306.250000, 91.754814, 283.750000, 91.754814, 277.500000, 98.190724" fill="rgb(178, 34, 34)" style="fill-opacity:1.00" />
<polygon points=" 295.000000, 77.595811, 287.000000, 86.893268, 302.000000, 86.893268" fill="rgb(255, 255, 255)" style="fill-opacity:1.00" />
<!-- End 'A' -->
<!-- Begin 'G' -->
<ellipse cx="295.000000" cy="102.340166" rx="25.000000" ry="4.149442" fill="rgb(255, 165, 0)" style="fill-opacity:1.00" />
<ellipse cx="295.000000" cy="102.340166" rx="16.666667" ry="2.766295" fill="rgb(255, 255, 255)" style="fill-opacity:1.00" />
<rect height="4.149442" width="25.000000" x="295.000000" y="100.265445" fill="rgb(255, 255, 255)" style="fill-opacity:1.00" />
<rect height="1.037360" width="25.000000" x="295.000000" y="103.377526" fill="rgb(255, 165, 0)" style="fill-opacity:1.00" />
<rect height="3.112081" width="6.250000" x="313.750000" y="103.377526" fill="rgb(255, 165, 0)" style="fill-opacity:1.00" />
<!-- End 'G' -->
<!-- Begin 'T' -->
<rect height="0.425852" width="50.000000" x="270.000000" y="106.489608" fill="rgb(0, 100, 0)" style="fill-opacity:1.00" />
<rect height="2.661576" width="10.000000" x="290.000000" y="106.489608" fill="rgb(0, 100, 0)" style="fill-opacity:1.00" />
<!-- End 'T' -->
<!-- Begin 'C' -->
<ellipse cx="295.000000" cy="109.575592" rx="25.000000" ry="0.424408" fill="rgb(0, 0, 128)" style="fill-opacity:1.00" />
<ellipse cx="295.000000" cy="109.575592" rx="16.666667" ry="0.282939" fill="rgb(255, 255, 255)" style="fill-opacity:1.00" />
<rect height="0.424408" width="25.000000" x="295.000000" y="109.363388" fill="rgb(255, 255, 255)" style="fill-opacity:1.00" />
<!-- End 'C' -->
<!-- Begin 'G' -->
<ellipse cx="355.000000" cy="64.543912" rx="25.000000" ry="42.730279" fill="rgb(255, 165, 0)" style="fill-opacity:1.00" />
<ellipse cx="355.000000" cy="64.543912" rx="16.666667" ry="28.486853" fill="rgb(255, 255, 255)" style="fill-opacity:1.00" />
<rect height="42.730279" width="25.000000" x="355.000000" y="43.178773" fill="rgb(255, 255, 255)" style="fill-opacity:1.00" />
<rect height="10.682570" width="25.000000" x="355.000000" y="75.226482" fill="rgb(255, 165, 0)" style="fill-opacity:1.00" />
<rect height="32.047709" width="6.250000" x="373.750000" y="75.226482" fill="rgb(255, 165, 0)" style="fill-opacity:1.00" />
<!-- End 'G' -->
<!-- Begin 'T' -->
<rect height="0.246434" width="50.000000" x="330.000000" y="107.274191" fill="rgb(0, 100, 0)" style="fill-opacity:1.00" />
<rect height="1.540213" width="10.000000" x="350.000000" y="107.274191" fill="rgb(0, 100, 0)" style="fill-opacity:1.00" />
<!-- End 'T' -->
<!-- Begin 'A' -->
<polygon points=" 330.000000, 109.867023, 351.000000, 108.814404, 359.000000, 108.814404, 380.000000, 109.867023, 372.500000, 109.867023, 366.250000, 109.603868, 343.750000, 109.603868, 337.500000, 109.867023" fill="rgb(178, 34, 34)" style="fill-opacity:1.00" />
<!-- End 'A' -->
<!-- Begin 'C' -->
<ellipse cx="355.000000" cy="109.933511" rx="25.000000" ry="0.066489" fill="rgb(0, 0, 128)" style="fill-opacity:1.00" />
<ellipse cx="355.000000" cy="109.933511" rx="16.666667" ry="0.044326" fill="rgb(255, 255, 255)" style="fill-opacity:1.00" />
<rect height="0.066489" width="25.000000" x="355.000000" y="109.900267" fill="rgb(255, 255, 255)" style="fill-opacity:1.00" />
<!-- End 'C' -->
<!-- Begin 'T' -->
<rect height="15.028894" width="50.000000" x="390.000000" y="15.036497" fill="rgb(0, 100, 0)" style="fill-opacity:1.00" />
<rect height="93.930588" width="10.000000" x="410.000000" y="15.036497" fill="rgb(0, 100, 0)" style="fill-opacity:1.00" />
<!-- End 'T' -->
<!-- Begin 'C' -->
<ellipse cx="415.000000" cy="109.269333" rx="25.000000" ry="0.302248" fill="rgb(0, 0, 128)" style="fill-opacity:1.00" />
<ellipse cx="415.000000" cy="109.269333" rx="16.666667" ry="0.201499" fill="rgb(255, 255, 255)" style="fill-opacity:1.00" />
<rect height="0.302248" width="25.000000" x="415.000000" y="109.118209" fill="rgb(255, 255, 255)" style="fill-opacity:1.00" />
<!-- End 'C' -->
<!-- Begin 'A' -->
<polygon points=" 390.000000, 109.900382, 411.000000, 109.571581, 419.000000, 109.571581, 440.000000, 109.900382, 432.500000, 109.900382, 426.250000, 109.818181, 403.750000, 109.818181, 397.500000, 109.900382" fill="rgb(178, 34, 34)" style="fill-opacity:1.00" />
<!-- End 'A' -->
<!-- Begin 'G' -->
<ellipse cx="415.000000" cy="109.950191" rx="25.000000" ry="0.049809" fill="rgb(255, 165, 0)" style="fill-opacity:1.00" />
<ellipse cx="415.000000" cy="109.950191" rx="16.666667" ry="0.033206" fill="rgb(255, 255, 255)" style="fill-opacity:1.00" />
<rect height="0.049809" width="25.000000" x="415.000000" y="109.925286" fill="rgb(255, 255, 255)" style="fill-opacity:1.00" />
<rect height="0.012452" width="25.000000" x="415.000000" y="109.962643" fill="rgb(255, 165, 0)" style="fill-opacity:1.00" />
<rect height="0.037357" width="6.250000" x="433.750000" y="109.962643" fill="rgb(255, 165, 0)" style="fill-opacity:1.00" />
<!-- End 'G' -->
<!-- Begin 'C' -->
<ellipse cx="475.000000" cy="63.077233" rx="25.000000" ry="45.133180" fill="rgb(0, 0, 128)" style="fill-opacity:1.00" />
<ellipse cx="475.000000" cy="63.077233" rx="16.666667" ry="30.088786" fill="rgb(255, 255, 255)" style="fill-opacity:1.00" />
<rect height="45.133180" width="25.000000" x="475.000000" y="40.510643" fill="rgb(255, 255, 255)" style="fill-opacity:1.00" />
<!-- End 'C' -->
<!-- Begin 'A' -->
<polygon points=" 450.000000, 109.339123, 471.000000, 108.210413, 479.000000, 108.210413, 500.000000, 109.339123, 492.500000, 109.339123, 486.250000, 109.056946, 463.750000, 109.056946, 457.500000, 109.339123" fill="rgb(178, 34, 34)" style="fill-opacity:1.00" />
<!-- End 'A' -->
<!-- Begin 'T' -->
<rect height="0.100214" width="50.000000" x="450.000000" y="109.339123" fill="rgb(0, 100, 0)" style="fill-opacity:1.00" />
<rect height="0.626336" width="10.000000" x="470.000000" y="109.339123" fill="rgb(0, 100, 0)" style="fill-opacity:1.00" />
<!-- End 'T' -->
<!-- Begin 'G' -->
<ellipse cx="475.000000" cy="109.982730" rx="25.000000" ry="0.017270" fill="rgb(255, 165, 0)" style="fill-opacity:1.00" />
<ellipse cx="475.000000" cy="109.982730" rx="16.666667" ry="0.011514" fill="rgb(255, 255, 255)" style="fill-opacity:1.00" />
<rect height="0.017270" width="25.000000" x="475.000000" y="109.974095" fill="rgb(255, 255, 255)" style="fill-opacity:1.00" />
<rect height="0.004318" width="25.000000" x="475.000000" y="109.987047" fill="rgb(255, 165, 0)" style="fill-opacity:1.00" />
<rect height="0.012953" width="6.250000" x="493.750000" y="109.987047" fill="rgb(255, 165, 0)" style="fill-opacity:1.00" />
<!-- End 'G' -->
<!-- Begin 'A' -->
<polygon points=" 510.000000, 105.858584, 531.000000, 28.519815, 539.000000, 28.519815, 560.000000, 105.858584, 552.500000, 105.858584, 546.250000, 86.523892, 523.750000, 86.523892, 517.500000, 105.858584" fill="rgb(178, 34, 34)" style="fill-opacity:1.00" />
<polygon points=" 535.000000, 43.987569, 527.000000, 73.923076, 542.000000, 73.923076" fill="rgb(255, 255, 255)" style="fill-opacity:1.00" />
<!-- End 'A' -->
<!-- Begin 'C' -->
<ellipse cx="535.000000" cy="106.582426" rx="25.000000" ry="0.723842" fill="rgb(0, 0, 128)" style="fill-opacity:1.00" />
<ellipse cx="535.000000" cy="106.582426" rx="16.666667" ry="0.482562" fill="rgb(255, 255, 255)" style="fill-opacity:1.00" />
<rect height="0.723842" width="25.000000" x="535.000000" y="106.220505" fill="rgb(255, 255, 255)" style="fill-opacity:1.00" />
<!-- End 'C' -->
<!-- Begin 'T' -->
<rect height="0.221855" width="50.000000" x="510.000000" y="107.306269" fill="rgb(0, 100, 0)" style="fill-opacity:1.00" />
<rect height="1.386593" width="10.000000" x="530.000000" y="107.306269" fill="rgb(0, 100, 0)" style="fill-opacity:1.00" />
<!-- End 'T' -->
<!-- Begin 'G' -->
<ellipse cx="535.000000" cy="109.346431" rx="25.000000" ry="0.653569" fill="rgb(255, 165, 0)" style="fill-opacity:1.00" />
<ellipse cx="535.000000" cy="109.346431" rx="16.666667" ry="0.435713" fill="rgb(255, 255, 255)" style="fill-opacity:1.00" />
<rect height="0.653569" width="25.000000" x="535.000000" y="109.019646" fill="rgb(255, 255, 255)" style="fill-opacity:1.00" />
<rect height="0.163392" width="25.000000" x="535.000000" y="109.509823" fill="rgb(255, 165, 0)" style="fill-opacity:1.00" />
<rect height="0.490177" width="6.250000" x="553.750000" y="109.509823" fill="rgb(255, 165, 0)" style="fill-opacity:1.00" />
<!-- End 'G' -->
<!-- Begin 'A' -->
<polygon points=" 570.000000, 104.586198, 591.000000, 33.164427, 599.000000, 33.164427, 620.000000, 104.586198, 612.500000, 104.586198, 606.250000, 86.730755, 583.750000, 86.730755, 577.500000, 104.586198" fill="rgb(178, 34, 34)" style="fill-opacity:1.00" />
<polygon points=" 595.000000, 47.448781, 587.000000, 75.017490, 602.000000, 75.017490" fill="rgb(255, 255, 255)" style="fill-opacity:1.00" />
<!-- End 'A' -->
<!-- Begin 'T' -->
<rect height="0.420956" width="50.000000" x="570.000000" y="104.586198" fill="rgb(0, 100, 0)" style="fill-opacity:1.00" />
<rect height="2.630973" width="10.000000" x="590.000000" y="104.586198" fill="rgb(0, 100, 0)" style="fill-opacity:1.00" />
<!-- End 'T' -->
<!-- Begin 'G' -->
<ellipse cx="595.000000" cy="108.347383" rx="25.000000" ry="1.130211" fill="rgb(255, 165, 0)" style="fill-opacity:1.00" />
<ellipse cx="595.000000" cy="108.347383" rx="16.666667" ry="0.753474" fill="rgb(255, 255, 255)" style="fill-opacity:1.00" />
<rect height="1.130211" width="25.000000" x="595.000000" y="107.782277" fill="rgb(255, 255, 255)" style="fill-opacity:1.00" />
<rect height="0.282553" width="25.000000" x="595.000000" y="108.629936" fill="rgb(255, 165, 0)" style="fill-opacity:1.00" />
<rect height="0.847658" width="6.250000" x="613.750000" y="108.629936" fill="rgb(255, 165, 0)" style="fill-opacity:1.00" />
<!-- End 'G' -->
<!-- Begin 'C' -->
<ellipse cx="595.000000" cy="109.738797" rx="25.000000" ry="0.261203" fill="rgb(0, 0, 128)" style="fill-opacity:1.00" />
<ellipse cx="595.000000" cy="109.738797" rx="16.666667" ry="0.174135" fill="rgb(255, 255, 255)" style="fill-opacity:1.00" />
<rect height="0.261203" width="25.000000" x="595.000000" y="109.608196" fill="rgb(255, 255, 255)" style="fill-opacity:1.00" />
<!-- End 'C' -->
<!-- Begin 'C' -->
<ellipse cx="655.000000" cy="95.997272" rx="25.000000" ry="4.023322" fill="rgb(0, 0, 128)" style="fill-opacity:1.00" />
<ellipse cx="655.000000" cy="95.997272" rx="16.666667" ry="2.682215" fill="rgb(255, 255, 255)" style="fill-opacity:1.00" />
<rect height="4.023322" width="25.000000" x="655.000000" y="93.985610" fill="rgb(255, 255, 255)" style="fill-opacity:1.00" />
<!-- End 'C' -->
<!-- Begin 'A' -->
<polygon points=" 630.000000, 106.791392, 651.000000, 100.020594, 659.000000, 100.020594, 680.000000, 106.791392, 672.500000, 106.791392, 666.250000, 105.098692, 643.750000, 105.098692, 637.500000, 106.791392" fill="rgb(178, 34, 34)" style="fill-opacity:1.00" />
<!-- End 'A' -->
<!-- Begin 'T' -->
<rect height="0.381717" width="50.000000" x="630.000000" y="106.791392" fill="rgb(0, 100, 0)" style="fill-opacity:1.00" />
<rect height="2.385729" width="10.000000" x="650.000000" y="106.791392" fill="rgb(0, 100, 0)" style="fill-opacity:1.00" />
<!-- End 'T' -->
<!-- Begin 'G' -->
<ellipse cx="655.000000" cy="109.588560" rx="25.000000" ry="0.411440" fill="rgb(255, 165, 0)" style="fill-opacity:1.00" />
<ellipse cx="655.000000" cy="109.588560" rx="16.666667" ry="0.274293" fill="rgb(255, 255, 255)" style="fill-opacity:1.00" />
<rect height="0.411440" width="25.000000" x="655.000000" y="109.382840" fill="rgb(255, 255, 255)" style="fill-opacity:1.00" />
<rect height="0.102860" width="25.000000" x="655.000000" y="109.691420" fill="rgb(255, 165, 0)" style="fill-opacity:1.00" />
<rect height="0.308580" width="6.250000" x="673.750000" y="109.691420" fill="rgb(255, 165, 0)" style="fill-opacity:1.00" />
<!-- End 'G' -->
<!-- Begin 'G' -->
<ellipse cx="715.000000" cy="108.145926" rx="25.000000" ry="0.372379" fill="rgb(255, 165, 0)" style="fill-opacity:1.00" />
<ellipse cx="715.000000" cy="108.145926" rx="16.666667" ry="0.248253" fill="rgb(255, 255, 255)" style="fill-opacity:1.00" />
<rect height="0.372379" width="25.000000" x="715.000000" y="107.959737" fill="rgb(255, 255, 255)" style="fill-opacity:1.00" />
<rect height="0.093095" width="25.000000" x="715.000000" y="108.239021" fill="rgb(255, 165, 0)" style="fill-opacity:1.00" />
<rect height="0.279284" width="6.250000" x="733.750000" y="108.239021" fill="rgb(255, 165, 0)" style="fill-opacity:1.00" />
<!-- End 'G' -->
<!-- Begin 'A' -->
<polygon points=" 690.000000, 109.143101, 711.000000, 108.518305, 719.000000, 108.518305, 740.000000, 109.143101, 732.500000, 109.143101, 726.250000, 108.986902, 703.750000, 108.986902, 697.500000, 109.143101" fill="rgb(178, 34, 34)" style="fill-opacity:1.00" />
<!-- End 'A' -->
<!-- Begin 'T' -->
<rect height="0.075092" width="50.000000" x="690.000000" y="109.143101" fill="rgb(0, 100, 0)" style="fill-opacity:1.00" />
<rect height="0.469324" width="10.000000" x="710.000000" y="109.143101" fill="rgb(0, 100, 0)" style="fill-opacity:1.00" />
<!-- End 'T' -->
<!-- Begin 'C' -->
<ellipse cx="715.000000" cy="109.806213" rx="25.000000" ry="0.193787" fill="rgb(0, 0, 128)" style="fill-opacity:1.00" />
<ellipse cx="715.000000" cy="109.806213" rx="16.666667" ry="0.129192" fill="rgb(255, 255, 255)" style="fill-opacity:1.00" />
<rect height="0.193787" width="25.000000" x="715.000000" y="109.709319" fill="rgb(255, 255, 255)" style="fill-opacity:1.00" />
<!-- End 'C' -->
<text x="400.000000" y="165">
IC = 10.77
</text>

</svg>
