<?xml version="1.0" encoding="UTF-8" standalone="yes"?>
                 <!DOCTYPE svg PUBLIC "-//W3C//DTD SVG 1.0//EN" "http://www.w3.org/TR/2001/REC-SVG-20010904/DTD/svg10.dtd">
                 <svg height="170" width="720" xmlns="http://www.w3.org/2000/svg" xmlns:xlink="http://www.w3.org/1999/xlink">
                 <line x1="85" y1="120" x2="687" y2="120" style="stroke:rgb(99,99,99);stroke-width:2" />
<rect height="7.000000" width="2.000000" x="85.000000" y="120.000000" fill="rgb(0, 0, 0)" style="fill-opacity:1.00" />
<text x="107.000000" y="140">
1
</text>
<rect height="7.000000" width="2.000000" x="145.000000" y="120.000000" fill="rgb(0, 0, 0)" style="fill-opacity:1.00" />
<text x="167.000000" y="140">
2
</text>
<rect height="7.000000" width="2.000000" x="205.000000" y="120.000000" fill="rgb(0, 0, 0)" style="fill-opacity:1.00" />
<text x="227.000000" y="140">
3
</text>
<rect height="7.000000" width="2.000000" x="265.000000" y="120.000000" fill="rgb(0, 0, 0)" style="fill-opacity:1.00" />
<text x="287.000000" y="140">
4
</text>
<rect height="7.000000" width="2.000000" x="325.000000" y="120.000000" fill="rgb(0, 0, 0)" style="fill-opacity:1.00" />
<text x="347.000000" y="140">
5
</text>
<rect height="7.000000" width="2.000000" x="385.000000" y="120.000000" fill="rgb(0, 0, 0)" style="fill-opacity:1.00" />
<text x="407.000000" y="140">
6
</text>
<rect height="7.000000" width="2.000000" x="445.000000" y="120.000000" fill="rgb(0, 0, 0)" style="fill-opacity:1.00" />
<text x="467.000000" y="140">
7
</text>
<rect height="7.000000" width="2.000000" x="505.000000" y="120.000000" fill="rgb(0, 0, 0)" style="fill-opacity:1.00" />
<text x="527.000000" y="140">
8
</text>
<rect height="7.000000" width="2.000000" x="565.000000" y="120.000000" fill="rgb(0, 0, 0)" style="fill-opacity:1.00" />
<text x="587.000000" y="140">
9
</text>
<rect height="7.000000" width="2.000000" x="625.000000" y="120.000000" fill="rgb(0, 0, 0)" style="fill-opacity:1.00" />
<text x="647.000000" y="140">
10
</text>
<rect height="7.000000" width="2.000000" x="685.000000" y="120.000000" fill="rgb(0, 0, 0)" style="fill-opacity:1.00" />
<line x1="80" y1="112" x2="80" y2="10" style="stroke:rgb(99,99,99);stroke-width:2" />
<rect height="2.000000" width="7.000000" x="73.000000" y="110.000000" fill="rgb(0, 0, 0)" style="fill-opacity:1.00" />
<text x="63" y="115">
0
</text>
<rect height="2.000000" width="7.000000" x="73.000000" y="60.000000" fill="rgb(0, 0, 0)" style="fill-opacity:1.00" />
<text x="63" y="65">
1
</text>
<rect height="2.000000" width="7.000000" x="73.000000" y="10.000000" fill="rgb(0, 0, 0)" style="fill-opacity:1.00" />
<text x="63" y="15">
2
</text>
<text x="50" y="65"
transform="rotate(-90, 50, 70)">
bits
</text>
<!-- Begin 'A' -->
<polygon points=" 90.000000, 102.499978, 111.000000, 96.926110, 119.000000, 96.926110, 140.000000, 102.499978, 132.500000, 102.499978, 126.250000, 101.106511, 103.750000, 101.106511, 97.500000, 102.499978" fill="rgb(178, 34, 34)" style="fill-opacity:1.00" />
<!-- End 'A' -->
<!-- Begin 'G' -->
<ellipse cx="115.000000" cy="104.852996" rx="25.000000" ry="2.353018" fill="rgb(255, 165, 0)" style="fill-opacity:1.00" />
<ellipse cx="115.000000" cy="104.852996" rx="16.666667" ry="1.568679" fill="rgb(255, 255, 255)" style="fill-opacity:1.00" />
<rect height="2.353018" width="25.000000" x="115.000000" y="103.676487" fill="rgb(255, 255, 255)" style="fill-opacity:1.00" />
<rect height="0.588255" width="25.000000" x="115.000000" y="105.441251" fill="rgb(255, 165, 0)" style="fill-opacity:1.00" />
<rect height="1.764764" width="6.250000" x="133.750000" y="105.441251" fill="rgb(255, 165, 0)" style="fill-opacity:1.00" />
<!-- End 'G' -->
<!-- Begin 'T' -->
<rect height="0.267254" width="50.000000" x="90.000000" y="107.206014" fill="rgb(0, 100, 0)" style="fill-opacity:1.00" />
<rect height="1.670340" width="10.000000" x="110.000000" y="107.206014" fill="rgb(0, 100, 0)" style="fill-opacity:1.00" />
<!-- End 'T' -->
<!-- Begin 'C' -->
<ellipse cx="115.000000" cy="109.438177" rx="25.000000" ry="0.561823" fill="rgb(0, 0, 128)" style="fill-opacity:1.00" />
<ellipse cx="115.000000" cy="109.438177" rx="16.666667" ry="0.374549" fill="rgb(255, 255, 255)" style="fill-opacity:1.00" />
<rect height="0.561823" width="25.000000" x="115.000000" y="109.157266" fill="rgb(255, 255, 255)" style="fill-opacity:1.00" />
<!-- End 'C' -->
<!-- Begin 'C' -->
<ellipse cx="175.000000" cy="96.021294" rx="25.000000" ry="4.501786" fill="rgb(0, 0, 128)" style="fill-opacity:1.00" />
<ellipse cx="175.000000" cy="96.021294" rx="16.666667" ry="3.001190" fill="rgb(255, 255, 255)" style="fill-opacity:1.00" />
<rect height="4.501786" width="25.000000" x="175.000000" y="93.770402" fill="rgb(255, 255, 255)" style="fill-opacity:1.00" />
<!-- End 'C' -->
<!-- Begin 'G' -->
<ellipse cx="175.000000" cy="103.310027" rx="25.000000" ry="2.786948" fill="rgb(255, 165, 0)" style="fill-opacity:1.00" />
<ellipse cx="175.000000" cy="103.310027" rx="16.666667" ry="1.857965" fill="rgb(255, 255, 255)" style="fill-opacity:1.00" />
<rect height="2.786948" width="25.000000" x="175.000000" y="101.916554" fill="rgb(255, 255, 255)" style="fill-opacity:1.00" />
<rect height="0.696737" width="25.000000" x="175.000000" y="104.006764" fill="rgb(255, 165, 0)" style="fill-opacity:1.00" />
<rect height="2.090211" width="6.250000" x="193.750000" y="104.006764" fill="rgb(255, 165, 0)" style="fill-opacity:1.00" />
<!-- End 'G' -->
<!-- Begin 'A' -->
<polygon points=" 150.000000, 109.408474, 171.000000, 106.096975, 179.000000, 106.096975, 200.000000, 109.408474, 192.500000, 109.408474, 186.250000, 108.580600, 163.750000, 108.580600, 157.500000, 109.408474" fill="rgb(178, 34, 34)" style="fill-opacity:1.00" />
<!-- End 'A' -->
<!-- Begin 'T' -->
<rect height="0.094644" width="50.000000" x="150.000000" y="109.408474" fill="rgb(0, 100, 0)" style="fill-opacity:1.00" />
<rect height="0.591526" width="10.000000" x="170.000000" y="109.408474" fill="rgb(0, 100, 0)" style="fill-opacity:1.00" />
<!-- End 'T' -->
<!-- Begin 'A' -->
<polygon points=" 210.000000, 98.169623, 231.000000, 68.636751, 239.000000, 68.636751, 260.000000, 98.169623, 252.500000, 98.169623, 246.250000, 90.786405, 223.750000, 90.786405, 217.500000, 98.169623" fill="rgb(178, 34, 34)" style="fill-opacity:1.00" />
<polygon points=" 235.000000, 74.543326, 227.000000, 85.356475, 242.000000, 85.356475" fill="rgb(255, 255, 255)" style="fill-opacity:1.00" />
<!-- End 'A' -->
<!-- Begin 'C' -->
<ellipse cx="235.000000" cy="101.539001" rx="25.000000" ry="3.369377" fill="rgb(0, 0, 128)" style="fill-opacity:1.00" />
<ellipse cx="235.000000" cy="101.539001" rx="16.666667" ry="2.246252" fill="rgb(255, 255, 255)" style="fill-opacity:1.00" />
<rect height="3.369377" width="25.000000" x="235.000000" y="99.854312" fill="rgb(255, 255, 255)" style="fill-opacity:1.00" />
<!-- End 'C' -->
<!-- Begin 'G' -->
<ellipse cx="235.000000" cy="107.363876" rx="25.000000" ry="2.455498" fill="rgb(255, 165, 0)" style="fill-opacity:1.00" />
<ellipse cx="235.000000" cy="107.363876" rx="16.666667" ry="1.636999" fill="rgb(255, 255, 255)" style="fill-opacity:1.00" />
<rect height="2.455498" width="25.000000" x="235.000000" y="106.136127" fill="rgb(255, 255, 255)" style="fill-opacity:1.00" />
<rect height="0.613875" width="25.000000" x="235.000000" y="107.977751" fill="rgb(255, 165, 0)" style="fill-opacity:1.00" />
<rect height="1.841624" width="6.250000" x="253.750000" y="107.977751" fill="rgb(255, 165, 0)" style="fill-opacity:1.00" />
<!-- End 'G' -->
<!-- Begin 'T' -->
<rect height="0.028900" width="50.000000" x="210.000000" y="109.819374" fill="rgb(0, 100, 0)" style="fill-opacity:1.00" />
<rect height="0.180626" width="10.000000" x="230.000000" y="109.819374" fill="rgb(0, 100, 0)" style="fill-opacity:1.00" />
<!-- End 'T' -->
<!-- Begin 'G' -->
<ellipse cx="295.000000" cy="60.636493" rx="25.000000" ry="49.047564" fill="rgb(255, 165, 0)" style="fill-opacity:1.00" />
<ellipse cx="295.000000" cy="60.636493" rx="16.666667" ry="32.698376" fill="rgb(255, 255, 255)" style="fill-opacity:1.00" />
<rect height="49.047564" width="25.000000" x="295.000000" y="36.112711" fill="rgb(255, 255, 255)" style="fill-opacity:1.00" />
<rect height="12.261891" width="25.000000" x="295.000000" y="72.898384" fill="rgb(255, 165, 0)" style="fill-opacity:1.00" />
<rect height="36.785673" width="6.250000" x="313.750000" y="72.898384" fill="rgb(255, 165, 0)" style="fill-opacity:1.00" />
<!-- End 'G' -->
<!-- Begin 'A' -->
<polygon points=" 270.000000, 109.991862, 291.000000, 109.684057, 299.000000, 109.684057, 320.000000, 109.991862, 312.500000, 109.991862, 306.250000, 109.914911, 283.750000, 109.914911, 277.500000, 109.991862" fill="rgb(178, 34, 34)" style="fill-opacity:1.00" />
<!-- End 'A' -->
<!-- Begin 'T' -->
<rect height="0.001286" width="50.000000" x="270.000000" y="109.991862" fill="rgb(0, 100, 0)" style="fill-opacity:1.00" />
<rect height="0.008037" width="10.000000" x="290.000000" y="109.991862" fill="rgb(0, 100, 0)" style="fill-opacity:1.00" />
<!-- End 'T' -->
<!-- Begin 'C' -->
<ellipse cx="295.000000" cy="109.999950" rx="25.000000" ry="0.000050" fill="rgb(0, 0, 128)" style="fill-opacity:1.00" />
<ellipse cx="295.000000" cy="109.999950" rx="16.666667" ry="0.000034" fill="rgb(255, 255, 255)" style="fill-opacity:1.00" />
<rect height="0.000050" width="25.000000" x="295.000000" y="109.999924" fill="rgb(255, 255, 255)" style="fill-opacity:1.00" />
<!-- End 'C' -->
<!-- Begin 'G' -->
<ellipse cx="355.000000" cy="60.558532" rx="25.000000" ry="49.194413" fill="rgb(255, 165, 0)" style="fill-opacity:1.00" />
<ellipse cx="355.000000" cy="60.558532" rx="16.666667" ry="32.796275" fill="rgb(255, 255, 255)" style="fill-opacity:1.00" />
<rect height="49.194413" width="25.000000" x="355.000000" y="35.961326" fill="rgb(255, 255, 255)" style="fill-opacity:1.00" />
<rect height="12.298603" width="25.000000" x="355.000000" y="72.857135" fill="rgb(255, 165, 0)" style="fill-opacity:1.00" />
<rect height="36.895809" width="6.250000" x="373.750000" y="72.857135" fill="rgb(255, 165, 0)" style="fill-opacity:1.00" />
<!-- End 'G' -->
<!-- Begin 'T' -->
<rect height="0.032214" width="50.000000" x="330.000000" y="109.752944" fill="rgb(0, 100, 0)" style="fill-opacity:1.00" />
<rect height="0.201336" width="10.000000" x="350.000000" y="109.752944" fill="rgb(0, 100, 0)" style="fill-opacity:1.00" />
<!-- End 'T' -->
<!-- Begin 'A' -->
<polygon points=" 330.000000, 109.992481, 351.000000, 109.954281, 359.000000, 109.954281, 380.000000, 109.992481, 372.500000, 109.992481, 366.250000, 109.982931, 343.750000, 109.982931, 337.500000, 109.992481" fill="rgb(178, 34, 34)" style="fill-opacity:1.00" />
<!-- End 'A' -->
<!-- Begin 'C' -->
<ellipse cx="355.000000" cy="109.996240" rx="25.000000" ry="0.003760" fill="rgb(0, 0, 128)" style="fill-opacity:1.00" />
<ellipse cx="355.000000" cy="109.996240" rx="16.666667" ry="0.002506" fill="rgb(255, 255, 255)" style="fill-opacity:1.00" />
<rect height="0.003760" width="25.000000" x="355.000000" y="109.994361" fill="rgb(255, 255, 255)" style="fill-opacity:1.00" />
<!-- End 'C' -->
<!-- Begin 'A' -->
<polygon points=" 390.000000, 109.409193, 411.000000, 12.814491, 419.000000, 12.814491, 440.000000, 109.409193, 432.500000, 109.409193, 426.250000, 85.260517, 403.750000, 85.260517, 397.500000, 109.409193" fill="rgb(178, 34, 34)" style="fill-opacity:1.00" />
<polygon points=" 415.000000, 32.133431, 407.000000, 69.771312, 422.000000, 69.771312" fill="rgb(255, 255, 255)" style="fill-opacity:1.00" />
<!-- End 'A' -->
<!-- Begin 'C' -->
<ellipse cx="415.000000" cy="109.678687" rx="25.000000" ry="0.269494" fill="rgb(0, 0, 128)" style="fill-opacity:1.00" />
<ellipse cx="415.000000" cy="109.678687" rx="16.666667" ry="0.179663" fill="rgb(255, 255, 255)" style="fill-opacity:1.00" />
<rect height="0.269494" width="25.000000" x="415.000000" y="109.543940" fill="rgb(255, 255, 255)" style="fill-opacity:1.00" />
<!-- End 'C' -->
<!-- Begin 'G' -->
<ellipse cx="415.000000" cy="109.972403" rx="25.000000" ry="0.024223" fill="rgb(255, 165, 0)" style="fill-opacity:1.00" />
<ellipse cx="415.000000" cy="109.972403" rx="16.666667" ry="0.016148" fill="rgb(255, 255, 255)" style="fill-opacity:1.00" />
<rect height="0.024223" width="25.000000" x="415.000000" y="109.960292" fill="rgb(255, 255, 255)" style="fill-opacity:1.00" />
<rect height="0.006056" width="25.000000" x="415.000000" y="109.978459" fill="rgb(255, 165, 0)" style="fill-opacity:1.00" />
<rect height="0.018167" width="6.250000" x="433.750000" y="109.978459" fill="rgb(255, 165, 0)" style="fill-opacity:1.00" />
<!-- End 'G' -->
<!-- Begin 'T' -->
<rect height="0.000540" width="50.000000" x="390.000000" y="109.996626" fill="rgb(0, 100, 0)" style="fill-opacity:1.00" />
<rect height="0.003374" width="10.000000" x="410.000000" y="109.996626" fill="rgb(0, 100, 0)" style="fill-opacity:1.00" />
<!-- End 'T' -->
<!-- Begin 'A' -->
<polygon points=" 450.000000, 102.031503, 471.000000, 42.496362, 479.000000, 42.496362, 500.000000, 102.031503, 492.500000, 102.031503, 486.250000, 87.147717, 463.750000, 87.147717, 457.500000, 102.031503" fill="rgb(178, 34, 34)" style="fill-opacity:1.00" />
<polygon points=" 475.000000, 54.403390, 467.000000, 77.217446, 482.000000, 77.217446" fill="rgb(255, 255, 255)" style="fill-opacity:1.00" />
<!-- End 'A' -->
<!-- Begin 'T' -->
<rect height="0.930105" width="50.000000" x="450.000000" y="102.031503" fill="rgb(0, 100, 0)" style="fill-opacity:1.00" />
<rect height="5.813154" width="10.000000" x="470.000000" y="102.031503" fill="rgb(0, 100, 0)" style="fill-opacity:1.00" />
<!-- End 'T' -->
<!-- Begin 'G' -->
<ellipse cx="475.000000" cy="108.632980" rx="25.000000" ry="0.788324" fill="rgb(255, 165, 0)" style="fill-opacity:1.00" />
<ellipse cx="475.000000" cy="108.632980" rx="16.666667" ry="0.525549" fill="rgb(255, 255, 255)" style="fill-opacity:1.00" />
<rect height="0.788324" width="25.000000" x="475.000000" y="108.238818" fill="rgb(255, 255, 255)" style="fill-opacity:1.00" />
<rect height="0.197081" width="25.000000" x="475.000000" y="108.830061" fill="rgb(255, 165, 0)" style="fill-opacity:1.00" />
<rect height="0.591243" width="6.250000" x="493.750000" y="108.830061" fill="rgb(255, 165, 0)" style="fill-opacity:1.00" />
<!-- End 'G' -->
<!-- Begin 'C' -->
<ellipse cx="475.000000" cy="109.710652" rx="25.000000" ry="0.289348" fill="rgb(0, 0, 128)" style="fill-opacity:1.00" />
<ellipse cx="475.000000" cy="109.710652" rx="16.666667" ry="0.192899" fill="rgb(255, 255, 255)" style="fill-opacity:1.00" />
<rect height="0.289348" width="25.000000" x="475.000000" y="109.565978" fill="rgb(255, 255, 255)" style="fill-opacity:1.00" />
<!-- End 'C' -->
<!-- Begin 'G' -->
<ellipse cx="535.000000" cy="80.027407" rx="25.000000" ry="16.289517" fill="rgb(255, 165, 0)" style="fill-opacity:1.00" />
<ellipse cx="535.000000" cy="80.027407" rx="16.666667" ry="10.859678" fill="rgb(255, 255, 255)" style="fill-opacity:1.00" />
<rect height="16.289517" width="25.000000" x="535.000000" y="71.882649" fill="rgb(255, 255, 255)" style="fill-opacity:1.00" />
<rect height="4.072379" width="25.000000" x="535.000000" y="84.099786" fill="rgb(255, 165, 0)" style="fill-opacity:1.00" />
<rect height="12.217138" width="6.250000" x="553.750000" y="84.099786" fill="rgb(255, 165, 0)" style="fill-opacity:1.00" />
<!-- End 'G' -->
<!-- Begin 'A' -->
<polygon points=" 510.000000, 107.709928, 531.000000, 96.316924, 539.000000, 96.316924, 560.000000, 107.709928, 552.500000, 107.709928, 546.250000, 104.861677, 523.750000, 104.861677, 517.500000, 107.709928" fill="rgb(178, 34, 34)" style="fill-opacity:1.00" />
<polygon points=" 535.000000, 98.595525, 527.000000, 102.152726, 542.000000, 102.152726" fill="rgb(255, 255, 255)" style="fill-opacity:1.00" />
<!-- End 'A' -->
<!-- Begin 'C' -->
<ellipse cx="535.000000" cy="108.836257" rx="25.000000" ry="1.126329" fill="rgb(0, 0, 128)" style="fill-opacity:1.00" />
<ellipse cx="535.000000" cy="108.836257" rx="16.666667" ry="0.750886" fill="rgb(255, 255, 255)" style="fill-opacity:1.00" />
<rect height="1.126329" width="25.000000" x="535.000000" y="108.273092" fill="rgb(255, 255, 255)" style="fill-opacity:1.00" />
<!-- End 'C' -->
<!-- Begin 'T' -->
<rect height="0.005986" width="50.000000" x="510.000000" y="109.962585" fill="rgb(0, 100, 0)" style="fill-opacity:1.00" />
<rect height="0.037415" width="10.000000" x="530.000000" y="109.962585" fill="rgb(0, 100, 0)" style="fill-opacity:1.00" />
<!-- End 'T' -->
<!-- Begin 'T' -->
<rect height="0.497898" width="50.000000" x="570.000000" y="102.464907" fill="rgb(0, 100, 0)" style="fill-opacity:1.00" />
<rect height="3.111865" width="10.000000" x="590.000000" y="102.464907" fill="rgb(0, 100, 0)" style="fill-opacity:1.00" />
<!-- End 'T' -->
<!-- Begin 'C' -->
<ellipse cx="595.000000" cy="106.673399" rx="25.000000" ry="1.096628" fill="rgb(0, 0, 128)" style="fill-opacity:1.00" />
<ellipse cx="595.000000" cy="106.673399" rx="16.666667" ry="0.731085" fill="rgb(255, 255, 255)" style="fill-opacity:1.00" />
<rect height="1.096628" width="25.000000" x="595.000000" y="106.125086" fill="rgb(255, 255, 255)" style="fill-opacity:1.00" />
<!-- End 'C' -->
<!-- Begin 'G' -->
<ellipse cx="595.000000" cy="108.457296" rx="25.000000" ry="0.687269" fill="rgb(255, 165, 0)" style="fill-opacity:1.00" />
<ellipse cx="595.000000" cy="108.457296" rx="16.666667" ry="0.458179" fill="rgb(255, 255, 255)" style="fill-opacity:1.00" />
<rect height="0.687269" width="25.000000" x="595.000000" y="108.113662" fill="rgb(255, 255, 255)" style="fill-opacity:1.00" />
<rect height="0.171817" width="25.000000" x="595.000000" y="108.629113" fill="rgb(255, 165, 0)" style="fill-opacity:1.00" />
<rect height="0.515452" width="6.250000" x="613.750000" y="108.629113" fill="rgb(255, 165, 0)" style="fill-opacity:1.00" />
<!-- End 'G' -->
<!-- Begin 'A' -->
<polygon points=" 570.000000, 110.000000, 591.000000, 109.144565, 599.000000, 109.144565, 620.000000, 110.000000, 612.500000, 110.000000, 606.250000, 109.786141, 583.750000, 109.786141, 577.500000, 110.000000" fill="rgb(178, 34, 34)" style="fill-opacity:1.00" />
<!-- End 'A' -->
<!-- Begin 'G' -->
<ellipse cx="655.000000" cy="104.673827" rx="25.000000" ry="1.378149" fill="rgb(255, 165, 0)" style="fill-opacity:1.00" />
<ellipse cx="655.000000" cy="104.673827" rx="16.666667" ry="0.918766" fill="rgb(255, 255, 255)" style="fill-opacity:1.00" />
<rect height="1.378149" width="25.000000" x="655.000000" y="103.984753" fill="rgb(255, 255, 255)" style="fill-opacity:1.00" />
<rect height="0.344537" width="25.000000" x="655.000000" y="105.018364" fill="rgb(255, 165, 0)" style="fill-opacity:1.00" />
<rect height="1.033611" width="6.250000" x="673.750000" y="105.018364" fill="rgb(255, 165, 0)" style="fill-opacity:1.00" />
<!-- End 'G' -->
<!-- Begin 'A' -->
<polygon points=" 630.000000, 107.956230, 651.000000, 106.051976, 659.000000, 106.051976, 680.000000, 107.956230, 672.500000, 107.956230, 666.250000, 107.480166, 643.750000, 107.480166, 637.500000, 107.956230" fill="rgb(178, 34, 34)" style="fill-opacity:1.00" />
<!-- End 'A' -->
<!-- Begin 'C' -->
<ellipse cx="655.000000" cy="108.539025" rx="25.000000" ry="0.582795" fill="rgb(0, 0, 128)" style="fill-opacity:1.00" />
<ellipse cx="655.000000" cy="108.539025" rx="16.666667" ry="0.388530" fill="rgb(255, 255, 255)" style="fill-opacity:1.00" />
<rect height="0.582795" width="25.000000" x="655.000000" y="108.247627" fill="rgb(255, 255, 255)" style="fill-opacity:1.00" />
<!-- End 'C' -->
<!-- Begin 'T' -->
<rect height="0.140509" width="50.000000" x="630.000000" y="109.121820" fill="rgb(0, 100, 0)" style="fill-opacity:1.00" />
<rect height="0.878180" width="10.000000" x="650.000000" y="109.121820" fill="rgb(0, 100, 0)" style="fill-opacity:1.00" />
<!-- End 'T' -->
<text x="370.000000" y="165">
IC = 9.90
</text>

</svg>
