<?xml version="1.0" encoding="UTF-8" standalone="yes"?>
                 <!DOCTYPE svg PUBLIC "-//W3C//DTD SVG 1.0//EN" "http://www.w3.org/TR/2001/REC-SVG-20010904/DTD/svg10.dtd">
                 <svg height="170" width="960" xmlns="http://www.w3.org/2000/svg" xmlns:xlink="http://www.w3.org/1999/xlink">
                 <line x1="85" y1="120" x2="927" y2="120" style="stroke:rgb(99,99,99);stroke-width:2" />
<rect height="7.000000" width="2.000000" x="85.000000" y="120.000000" fill="rgb(0, 0, 0)" style="fill-opacity:1.00" />
<text x="107.000000" y="140">
1
</text>
<rect height="7.000000" width="2.000000" x="145.000000" y="120.000000" fill="rgb(0, 0, 0)" style="fill-opacity:1.00" />
<text x="167.000000" y="140">
2
</text>
<rect height="7.000000" width="2.000000" x="205.000000" y="120.000000" fill="rgb(0, 0, 0)" style="fill-opacity:1.00" />
<text x="227.000000" y="140">
3
</text>
<rect height="7.000000" width="2.000000" x="265.000000" y="120.000000" fill="rgb(0, 0, 0)" style="fill-opacity:1.00" />
<text x="287.000000" y="140">
4
</text>
<rect height="7.000000" width="2.000000" x="325.000000" y="120.000000" fill="rgb(0, 0, 0)" style="fill-opacity:1.00" />
<text x="347.000000" y="140">
5
</text>
<rect height="7.000000" width="2.000000" x="385.000000" y="120.000000" fill="rgb(0, 0, 0)" style="fill-opacity:1.00" />
<text x="407.000000" y="140">
6
</text>
<rect height="7.000000" width="2.000000" x="445.000000" y="120.000000" fill="rgb(0, 0, 0)" style="fill-opacity:1.00" />
<text x="467.000000" y="140">
7
</text>
<rect height="7.000000" width="2.000000" x="505.000000" y="120.000000" fill="rgb(0, 0, 0)" style="fill-opacity:1.00" />
<text x="527.000000" y="140">
8
</text>
<rect height="7.000000" width="2.000000" x="565.000000" y="120.000000" fill="rgb(0, 0, 0)" style="fill-opacity:1.00" />
<text x="587.000000" y="140">
9
</text>
<rect height="7.000000" width="2.000000" x="625.000000" y="120.000000" fill="rgb(0, 0, 0)" style="fill-opacity:1.00" />
<text x="647.000000" y="140">
10
</text>
<rect height="7.000000" width="2.000000" x="685.000000" y="120.000000" fill="rgb(0, 0, 0)" style="fill-opacity:1.00" />
<text x="707.000000" y="140">
11
</text>
<rect height="7.000000" width="2.000000" x="745.000000" y="120.000000" fill="rgb(0, 0, 0)" style="fill-opacity:1.00" />
<text x="767.000000" y="140">
12
</text>
<rect height="7.000000" width="2.000000" x="805.000000" y="120.000000" fill="rgb(0, 0, 0)" style="fill-opacity:1.00" />
<text x="827.000000" y="140">
13
</text>
<rect height="7.000000" width="2.000000" x="865.000000" y="120.000000" fill="rgb(0, 0, 0)" style="fill-opacity:1.00" />
<text x="887.000000" y="140">
14
</text>
<rect height="7.000000" width="2.000000" x="925.000000" y="120.000000" fill="rgb(0, 0, 0)" style="fill-opacity:1.00" />
<line x1="80" y1="112" x2="80" y2="10" style="stroke:rgb(99,99,99);stroke-width:2" />
<rect height="2.000000" width="7.000000" x="73.000000" y="110.000000" fill="rgb(0, 0, 0)" style="fill-opacity:1.00" />
<text x="63" y="115">
0
</text>
<rect height="2.000000" width="7.000000" x="73.000000" y="60.000000" fill="rgb(0, 0, 0)" style="fill-opacity:1.00" />
<text x="63" y="65">
1
</text>
<rect height="2.000000" width="7.000000" x="73.000000" y="10.000000" fill="rgb(0, 0, 0)" style="fill-opacity:1.00" />
<text x="63" y="15">
2
</text>
<text x="50" y="65"
transform="rotate(-90, 50, 70)">
bits
</text>
<!-- Begin 'T' -->
<rect height="0.134244" width="50.000000" x="90.000000" y="107.251181" fill="rgb(0, 100, 0)" style="fill-opacity:1.00" />
<rect height="0.839024" width="10.000000" x="110.000000" y="107.251181" fill="rgb(0, 100, 0)" style="fill-opacity:1.00" />
<!-- End 'T' -->
<!-- Begin 'A' -->
<polygon points=" 90.000000, 108.912531, 111.000000, 108.090205, 119.000000, 108.090205, 140.000000, 108.912531, 132.500000, 108.912531, 126.250000, 108.706949, 103.750000, 108.706949, 97.500000, 108.912531" fill="rgb(178, 34, 34)" style="fill-opacity:1.00" />
<!-- End 'A' -->
<!-- Begin 'G' -->
<ellipse cx="115.000000" cy="109.261481" rx="25.000000" ry="0.348950" fill="rgb(255, 165, 0)" style="fill-opacity:1.00" />
<ellipse cx="115.000000" cy="109.261481" rx="16.666667" ry="0.232633" fill="rgb(255, 255, 255)" style="fill-opacity:1.00" />
<rect height="0.348950" width="25.000000" x="115.000000" y="109.087006" fill="rgb(255, 255, 255)" style="fill-opacity:1.00" />
<rect height="0.087238" width="25.000000" x="115.000000" y="109.348719" fill="rgb(255, 165, 0)" style="fill-opacity:1.00" />
<rect height="0.261713" width="6.250000" x="133.750000" y="109.348719" fill="rgb(255, 165, 0)" style="fill-opacity:1.00" />
<!-- End 'G' -->
<!-- Begin 'C' -->
<ellipse cx="115.000000" cy="109.805216" rx="25.000000" ry="0.194784" fill="rgb(0, 0, 128)" style="fill-opacity:1.00" />
<ellipse cx="115.000000" cy="109.805216" rx="16.666667" ry="0.129856" fill="rgb(255, 255, 255)" style="fill-opacity:1.00" />
<rect height="0.194784" width="25.000000" x="115.000000" y="109.707823" fill="rgb(255, 255, 255)" style="fill-opacity:1.00" />
<!-- End 'C' -->
<!-- Begin 'T' -->
<rect height="0.180749" width="50.000000" x="150.000000" y="106.974634" fill="rgb(0, 100, 0)" style="fill-opacity:1.00" />
<rect height="1.129684" width="10.000000" x="170.000000" y="106.974634" fill="rgb(0, 100, 0)" style="fill-opacity:1.00" />
<!-- End 'T' -->
<!-- Begin 'C' -->
<ellipse cx="175.000000" cy="108.476010" rx="25.000000" ry="0.371692" fill="rgb(0, 0, 128)" style="fill-opacity:1.00" />
<ellipse cx="175.000000" cy="108.476010" rx="16.666667" ry="0.247795" fill="rgb(255, 255, 255)" style="fill-opacity:1.00" />
<rect height="0.371692" width="25.000000" x="175.000000" y="108.290164" fill="rgb(255, 255, 255)" style="fill-opacity:1.00" />
<!-- End 'C' -->
<!-- Begin 'G' -->
<ellipse cx="175.000000" cy="109.139014" rx="25.000000" ry="0.291312" fill="rgb(255, 165, 0)" style="fill-opacity:1.00" />
<ellipse cx="175.000000" cy="109.139014" rx="16.666667" ry="0.194208" fill="rgb(255, 255, 255)" style="fill-opacity:1.00" />
<rect height="0.291312" width="25.000000" x="175.000000" y="108.993358" fill="rgb(255, 255, 255)" style="fill-opacity:1.00" />
<rect height="0.072828" width="25.000000" x="175.000000" y="109.211841" fill="rgb(255, 165, 0)" style="fill-opacity:1.00" />
<rect height="0.218484" width="6.250000" x="193.750000" y="109.211841" fill="rgb(255, 165, 0)" style="fill-opacity:1.00" />
<!-- End 'G' -->
<!-- Begin 'A' -->
<polygon points=" 150.000000, 110.000000, 171.000000, 109.430325, 179.000000, 109.430325, 200.000000, 110.000000, 192.500000, 110.000000, 186.250000, 109.857581, 163.750000, 109.857581, 157.500000, 110.000000" fill="rgb(178, 34, 34)" style="fill-opacity:1.00" />
<!-- End 'A' -->
<!-- Begin 'C' -->
<ellipse cx="235.000000" cy="104.205640" rx="25.000000" ry="1.703990" fill="rgb(0, 0, 128)" style="fill-opacity:1.00" />
<ellipse cx="235.000000" cy="104.205640" rx="16.666667" ry="1.135993" fill="rgb(255, 255, 255)" style="fill-opacity:1.00" />
<rect height="1.703990" width="25.000000" x="235.000000" y="103.353645" fill="rgb(255, 255, 255)" style="fill-opacity:1.00" />
<!-- End 'C' -->
<!-- Begin 'T' -->
<rect height="0.247054" width="50.000000" x="210.000000" y="105.909630" fill="rgb(0, 100, 0)" style="fill-opacity:1.00" />
<rect height="1.544089" width="10.000000" x="230.000000" y="105.909630" fill="rgb(0, 100, 0)" style="fill-opacity:1.00" />
<!-- End 'T' -->
<!-- Begin 'G' -->
<ellipse cx="235.000000" cy="108.182889" rx="25.000000" ry="0.729170" fill="rgb(255, 165, 0)" style="fill-opacity:1.00" />
<ellipse cx="235.000000" cy="108.182889" rx="16.666667" ry="0.486114" fill="rgb(255, 255, 255)" style="fill-opacity:1.00" />
<rect height="0.729170" width="25.000000" x="235.000000" y="107.818304" fill="rgb(255, 255, 255)" style="fill-opacity:1.00" />
<rect height="0.182293" width="25.000000" x="235.000000" y="108.365181" fill="rgb(255, 165, 0)" style="fill-opacity:1.00" />
<rect height="0.546878" width="6.250000" x="253.750000" y="108.365181" fill="rgb(255, 165, 0)" style="fill-opacity:1.00" />
<!-- End 'G' -->
<!-- Begin 'A' -->
<polygon points=" 210.000000, 110.000000, 231.000000, 108.912059, 239.000000, 108.912059, 260.000000, 110.000000, 252.500000, 110.000000, 246.250000, 109.728015, 223.750000, 109.728015, 217.500000, 110.000000" fill="rgb(178, 34, 34)" style="fill-opacity:1.00" />
<!-- End 'A' -->
<!-- Begin 'G' -->
<ellipse cx="295.000000" cy="89.137394" rx="25.000000" ry="9.128075" fill="rgb(255, 165, 0)" style="fill-opacity:1.00" />
<ellipse cx="295.000000" cy="89.137394" rx="16.666667" ry="6.085383" fill="rgb(255, 255, 255)" style="fill-opacity:1.00" />
<rect height="9.128075" width="25.000000" x="295.000000" y="84.573356" fill="rgb(255, 255, 255)" style="fill-opacity:1.00" />
<rect height="2.282019" width="25.000000" x="295.000000" y="91.419412" fill="rgb(255, 165, 0)" style="fill-opacity:1.00" />
<rect height="6.846056" width="6.250000" x="313.750000" y="91.419412" fill="rgb(255, 165, 0)" style="fill-opacity:1.00" />
<!-- End 'G' -->
<!-- Begin 'A' -->
<polygon points=" 270.000000, 106.117518, 291.000000, 98.265468, 299.000000, 98.265468, 320.000000, 106.117518, 312.500000, 106.117518, 306.250000, 104.154506, 283.750000, 104.154506, 277.500000, 106.117518" fill="rgb(178, 34, 34)" style="fill-opacity:1.00" />
<!-- End 'A' -->
<!-- Begin 'T' -->
<rect height="0.533109" width="50.000000" x="270.000000" y="106.117518" fill="rgb(0, 100, 0)" style="fill-opacity:1.00" />
<rect height="3.331933" width="10.000000" x="290.000000" y="106.117518" fill="rgb(0, 100, 0)" style="fill-opacity:1.00" />
<!-- End 'T' -->
<!-- Begin 'C' -->
<ellipse cx="295.000000" cy="109.724726" rx="25.000000" ry="0.275274" fill="rgb(0, 0, 128)" style="fill-opacity:1.00" />
<ellipse cx="295.000000" cy="109.724726" rx="16.666667" ry="0.183516" fill="rgb(255, 255, 255)" style="fill-opacity:1.00" />
<rect height="0.275274" width="25.000000" x="295.000000" y="109.587089" fill="rgb(255, 255, 255)" style="fill-opacity:1.00" />
<!-- End 'C' -->
<!-- Begin 'C' -->
<ellipse cx="355.000000" cy="102.148707" rx="25.000000" ry="2.600698" fill="rgb(0, 0, 128)" style="fill-opacity:1.00" />
<ellipse cx="355.000000" cy="102.148707" rx="16.666667" ry="1.733799" fill="rgb(255, 255, 255)" style="fill-opacity:1.00" />
<rect height="2.600698" width="25.000000" x="355.000000" y="100.848358" fill="rgb(255, 255, 255)" style="fill-opacity:1.00" />
<!-- End 'C' -->
<!-- Begin 'A' -->
<polygon points=" 330.000000, 106.790863, 351.000000, 104.749405, 359.000000, 104.749405, 380.000000, 106.790863, 372.500000, 106.790863, 366.250000, 106.280498, 343.750000, 106.280498, 337.500000, 106.790863" fill="rgb(178, 34, 34)" style="fill-opacity:1.00" />
<!-- End 'A' -->
<!-- Begin 'T' -->
<rect height="0.266800" width="50.000000" x="330.000000" y="106.790863" fill="rgb(0, 100, 0)" style="fill-opacity:1.00" />
<rect height="1.667500" width="10.000000" x="350.000000" y="106.790863" fill="rgb(0, 100, 0)" style="fill-opacity:1.00" />
<!-- End 'T' -->
<!-- Begin 'G' -->
<ellipse cx="355.000000" cy="109.229181" rx="25.000000" ry="0.770819" fill="rgb(255, 165, 0)" style="fill-opacity:1.00" />
<ellipse cx="355.000000" cy="109.229181" rx="16.666667" ry="0.513879" fill="rgb(255, 255, 255)" style="fill-opacity:1.00" />
<rect height="0.770819" width="25.000000" x="355.000000" y="108.843772" fill="rgb(255, 255, 255)" style="fill-opacity:1.00" />
<rect height="0.192705" width="25.000000" x="355.000000" y="109.421886" fill="rgb(255, 165, 0)" style="fill-opacity:1.00" />
<rect height="0.578114" width="6.250000" x="373.750000" y="109.421886" fill="rgb(255, 165, 0)" style="fill-opacity:1.00" />
<!-- End 'G' -->
<!-- Begin 'C' -->
<ellipse cx="415.000000" cy="70.259847" rx="25.000000" ry="33.089611" fill="rgb(0, 0, 128)" style="fill-opacity:1.00" />
<ellipse cx="415.000000" cy="70.259847" rx="16.666667" ry="22.059741" fill="rgb(255, 255, 255)" style="fill-opacity:1.00" />
<rect height="33.089611" width="25.000000" x="415.000000" y="53.715042" fill="rgb(255, 255, 255)" style="fill-opacity:1.00" />
<!-- End 'C' -->
<!-- Begin 'T' -->
<rect height="0.684685" width="50.000000" x="390.000000" y="103.349459" fill="rgb(0, 100, 0)" style="fill-opacity:1.00" />
<rect height="4.279281" width="10.000000" x="410.000000" y="103.349459" fill="rgb(0, 100, 0)" style="fill-opacity:1.00" />
<!-- End 'T' -->
<!-- Begin 'A' -->
<polygon points=" 390.000000, 109.727868, 411.000000, 107.628739, 419.000000, 107.628739, 440.000000, 109.727868, 432.500000, 109.727868, 426.250000, 109.203086, 403.750000, 109.203086, 397.500000, 109.727868" fill="rgb(178, 34, 34)" style="fill-opacity:1.00" />
<!-- End 'A' -->
<!-- Begin 'G' -->
<ellipse cx="415.000000" cy="109.863934" rx="25.000000" ry="0.136066" fill="rgb(255, 165, 0)" style="fill-opacity:1.00" />
<ellipse cx="415.000000" cy="109.863934" rx="16.666667" ry="0.090711" fill="rgb(255, 255, 255)" style="fill-opacity:1.00" />
<rect height="0.136066" width="25.000000" x="415.000000" y="109.795901" fill="rgb(255, 255, 255)" style="fill-opacity:1.00" />
<rect height="0.034017" width="25.000000" x="415.000000" y="109.897950" fill="rgb(255, 165, 0)" style="fill-opacity:1.00" />
<rect height="0.102050" width="6.250000" x="433.750000" y="109.897950" fill="rgb(255, 165, 0)" style="fill-opacity:1.00" />
<!-- End 'G' -->
<!-- Begin 'G' -->
<ellipse cx="475.000000" cy="66.020467" rx="25.000000" ry="39.697107" fill="rgb(255, 165, 0)" style="fill-opacity:1.00" />
<ellipse cx="475.000000" cy="66.020467" rx="16.666667" ry="26.464738" fill="rgb(255, 255, 255)" style="fill-opacity:1.00" />
<rect height="39.697107" width="25.000000" x="475.000000" y="46.171913" fill="rgb(255, 255, 255)" style="fill-opacity:1.00" />
<rect height="9.924277" width="25.000000" x="475.000000" y="75.944743" fill="rgb(255, 165, 0)" style="fill-opacity:1.00" />
<rect height="29.772831" width="6.250000" x="493.750000" y="75.944743" fill="rgb(255, 165, 0)" style="fill-opacity:1.00" />
<!-- End 'G' -->
<!-- Begin 'A' -->
<polygon points=" 450.000000, 109.283956, 471.000000, 105.717574, 479.000000, 105.717574, 500.000000, 109.283956, 492.500000, 109.283956, 486.250000, 108.392360, 463.750000, 108.392360, 457.500000, 109.283956" fill="rgb(178, 34, 34)" style="fill-opacity:1.00" />
<!-- End 'A' -->
<!-- Begin 'T' -->
<rect height="0.110883" width="50.000000" x="450.000000" y="109.283956" fill="rgb(0, 100, 0)" style="fill-opacity:1.00" />
<rect height="0.693020" width="10.000000" x="470.000000" y="109.283956" fill="rgb(0, 100, 0)" style="fill-opacity:1.00" />
<!-- End 'T' -->
<!-- Begin 'C' -->
<ellipse cx="475.000000" cy="109.988488" rx="25.000000" ry="0.011512" fill="rgb(0, 0, 128)" style="fill-opacity:1.00" />
<ellipse cx="475.000000" cy="109.988488" rx="16.666667" ry="0.007675" fill="rgb(255, 255, 255)" style="fill-opacity:1.00" />
<rect height="0.011512" width="25.000000" x="475.000000" y="109.982732" fill="rgb(255, 255, 255)" style="fill-opacity:1.00" />
<!-- End 'C' -->
<!-- Begin 'G' -->
<ellipse cx="535.000000" cy="99.857330" rx="25.000000" ry="3.753417" fill="rgb(255, 165, 0)" style="fill-opacity:1.00" />
<ellipse cx="535.000000" cy="99.857330" rx="16.666667" ry="2.502278" fill="rgb(255, 255, 255)" style="fill-opacity:1.00" />
<rect height="3.753417" width="25.000000" x="535.000000" y="97.980621" fill="rgb(255, 255, 255)" style="fill-opacity:1.00" />
<rect height="0.938354" width="25.000000" x="535.000000" y="100.795684" fill="rgb(255, 165, 0)" style="fill-opacity:1.00" />
<rect height="2.815063" width="6.250000" x="553.750000" y="100.795684" fill="rgb(255, 165, 0)" style="fill-opacity:1.00" />
<!-- End 'G' -->
<!-- Begin 'T' -->
<rect height="0.365921" width="50.000000" x="510.000000" y="103.610747" fill="rgb(0, 100, 0)" style="fill-opacity:1.00" />
<rect height="2.287004" width="10.000000" x="530.000000" y="103.610747" fill="rgb(0, 100, 0)" style="fill-opacity:1.00" />
<!-- End 'T' -->
<!-- Begin 'A' -->
<polygon points=" 510.000000, 108.096499, 531.000000, 105.897751, 539.000000, 105.897751, 560.000000, 108.096499, 552.500000, 108.096499, 546.250000, 107.546812, 523.750000, 107.546812, 517.500000, 108.096499" fill="rgb(178, 34, 34)" style="fill-opacity:1.00" />
<!-- End 'A' -->
<!-- Begin 'C' -->
<ellipse cx="535.000000" cy="109.048250" rx="25.000000" ry="0.951750" fill="rgb(0, 0, 128)" style="fill-opacity:1.00" />
<ellipse cx="535.000000" cy="109.048250" rx="16.666667" ry="0.634500" fill="rgb(255, 255, 255)" style="fill-opacity:1.00" />
<rect height="0.951750" width="25.000000" x="535.000000" y="108.572374" fill="rgb(255, 255, 255)" style="fill-opacity:1.00" />
<!-- End 'C' -->
<!-- Begin 'C' -->
<ellipse cx="595.000000" cy="87.543628" rx="25.000000" ry="9.918906" fill="rgb(0, 0, 128)" style="fill-opacity:1.00" />
<ellipse cx="595.000000" cy="87.543628" rx="16.666667" ry="6.612604" fill="rgb(255, 255, 255)" style="fill-opacity:1.00" />
<rect height="9.918906" width="25.000000" x="595.000000" y="82.584175" fill="rgb(255, 255, 255)" style="fill-opacity:1.00" />
<!-- End 'C' -->
<!-- Begin 'T' -->
<rect height="1.388541" width="50.000000" x="570.000000" y="97.462534" fill="rgb(0, 100, 0)" style="fill-opacity:1.00" />
<rect height="8.678379" width="10.000000" x="590.000000" y="97.462534" fill="rgb(0, 100, 0)" style="fill-opacity:1.00" />
<!-- End 'T' -->
<!-- Begin 'A' -->
<polygon points=" 570.000000, 109.721353, 591.000000, 106.140914, 599.000000, 106.140914, 620.000000, 109.721353, 612.500000, 109.721353, 606.250000, 108.826243, 583.750000, 108.826243, 577.500000, 109.721353" fill="rgb(178, 34, 34)" style="fill-opacity:1.00" />
<!-- End 'A' -->
<!-- Begin 'G' -->
<ellipse cx="595.000000" cy="109.860677" rx="25.000000" ry="0.139323" fill="rgb(255, 165, 0)" style="fill-opacity:1.00" />
<ellipse cx="595.000000" cy="109.860677" rx="16.666667" ry="0.092882" fill="rgb(255, 255, 255)" style="fill-opacity:1.00" />
<rect height="0.139323" width="25.000000" x="595.000000" y="109.791015" fill="rgb(255, 255, 255)" style="fill-opacity:1.00" />
<rect height="0.034831" width="25.000000" x="595.000000" y="109.895507" fill="rgb(255, 165, 0)" style="fill-opacity:1.00" />
<rect height="0.104493" width="6.250000" x="613.750000" y="109.895507" fill="rgb(255, 165, 0)" style="fill-opacity:1.00" />
<!-- End 'G' -->
<!-- Begin 'G' -->
<ellipse cx="655.000000" cy="103.413715" rx="25.000000" ry="2.027115" fill="rgb(255, 165, 0)" style="fill-opacity:1.00" />
<ellipse cx="655.000000" cy="103.413715" rx="16.666667" ry="1.351410" fill="rgb(255, 255, 255)" style="fill-opacity:1.00" />
<rect height="2.027115" width="25.000000" x="655.000000" y="102.400157" fill="rgb(255, 255, 255)" style="fill-opacity:1.00" />
<rect height="0.506779" width="25.000000" x="655.000000" y="103.920493" fill="rgb(255, 165, 0)" style="fill-opacity:1.00" />
<rect height="1.520336" width="6.250000" x="673.750000" y="103.920493" fill="rgb(255, 165, 0)" style="fill-opacity:1.00" />
<!-- End 'G' -->
<!-- Begin 'A' -->
<polygon points=" 630.000000, 107.188880, 651.000000, 105.440829, 659.000000, 105.440829, 680.000000, 107.188880, 672.500000, 107.188880, 666.250000, 106.751867, 643.750000, 106.751867, 637.500000, 107.188880" fill="rgb(178, 34, 34)" style="fill-opacity:1.00" />
<!-- End 'A' -->
<!-- Begin 'C' -->
<ellipse cx="655.000000" cy="107.988813" rx="25.000000" ry="0.799933" fill="rgb(0, 0, 128)" style="fill-opacity:1.00" />
<ellipse cx="655.000000" cy="107.988813" rx="16.666667" ry="0.533289" fill="rgb(255, 255, 255)" style="fill-opacity:1.00" />
<rect height="0.799933" width="25.000000" x="655.000000" y="107.588846" fill="rgb(255, 255, 255)" style="fill-opacity:1.00" />
<!-- End 'C' -->
<!-- Begin 'T' -->
<rect height="0.193801" width="50.000000" x="630.000000" y="108.788745" fill="rgb(0, 100, 0)" style="fill-opacity:1.00" />
<rect height="1.211255" width="10.000000" x="650.000000" y="108.788745" fill="rgb(0, 100, 0)" style="fill-opacity:1.00" />
<!-- End 'T' -->
<!-- Begin 'A' -->
<polygon points=" 690.000000, 108.010996, 711.000000, 106.827720, 719.000000, 106.827720, 740.000000, 108.010996, 732.500000, 108.010996, 726.250000, 107.715177, 703.750000, 107.715177, 697.500000, 108.010996" fill="rgb(178, 34, 34)" style="fill-opacity:1.00" />
<!-- End 'A' -->
<!-- Begin 'G' -->
<ellipse cx="715.000000" cy="108.412472" rx="25.000000" ry="0.401476" fill="rgb(255, 165, 0)" style="fill-opacity:1.00" />
<ellipse cx="715.000000" cy="108.412472" rx="16.666667" ry="0.267651" fill="rgb(255, 255, 255)" style="fill-opacity:1.00" />
<rect height="0.401476" width="25.000000" x="715.000000" y="108.211734" fill="rgb(255, 255, 255)" style="fill-opacity:1.00" />
<rect height="0.100369" width="25.000000" x="715.000000" y="108.512841" fill="rgb(255, 165, 0)" style="fill-opacity:1.00" />
<rect height="0.301107" width="6.250000" x="733.750000" y="108.512841" fill="rgb(255, 165, 0)" style="fill-opacity:1.00" />
<!-- End 'G' -->
<!-- Begin 'T' -->
<rect height="0.098483" width="50.000000" x="690.000000" y="108.813948" fill="rgb(0, 100, 0)" style="fill-opacity:1.00" />
<rect height="0.615519" width="10.000000" x="710.000000" y="108.813948" fill="rgb(0, 100, 0)" style="fill-opacity:1.00" />
<!-- End 'T' -->
<!-- Begin 'C' -->
<ellipse cx="715.000000" cy="109.714733" rx="25.000000" ry="0.285267" fill="rgb(0, 0, 128)" style="fill-opacity:1.00" />
<ellipse cx="715.000000" cy="109.714733" rx="16.666667" ry="0.190178" fill="rgb(255, 255, 255)" style="fill-opacity:1.00" />
<rect height="0.285267" width="25.000000" x="715.000000" y="109.572100" fill="rgb(255, 255, 255)" style="fill-opacity:1.00" />
<!-- End 'C' -->
<!-- Begin 'A' -->
<polygon points=" 750.000000, 108.240744, 771.000000, 107.473236, 779.000000, 107.473236, 800.000000, 108.240744, 792.500000, 108.240744, 786.250000, 108.048867, 763.750000, 108.048867, 757.500000, 108.240744" fill="rgb(178, 34, 34)" style="fill-opacity:1.00" />
<!-- End 'A' -->
<!-- Begin 'T' -->
<rect height="0.116661" width="50.000000" x="750.000000" y="108.240744" fill="rgb(0, 100, 0)" style="fill-opacity:1.00" />
<rect height="0.729134" width="10.000000" x="770.000000" y="108.240744" fill="rgb(0, 100, 0)" style="fill-opacity:1.00" />
<!-- End 'T' -->
<!-- Begin 'C' -->
<ellipse cx="775.000000" cy="109.302723" rx="25.000000" ry="0.332844" fill="rgb(0, 0, 128)" style="fill-opacity:1.00" />
<ellipse cx="775.000000" cy="109.302723" rx="16.666667" ry="0.221896" fill="rgb(255, 255, 255)" style="fill-opacity:1.00" />
<rect height="0.332844" width="25.000000" x="775.000000" y="109.136301" fill="rgb(255, 255, 255)" style="fill-opacity:1.00" />
<!-- End 'C' -->
<!-- Begin 'G' -->
<ellipse cx="775.000000" cy="109.817784" rx="25.000000" ry="0.182216" fill="rgb(255, 165, 0)" style="fill-opacity:1.00" />
<ellipse cx="775.000000" cy="109.817784" rx="16.666667" ry="0.121478" fill="rgb(255, 255, 255)" style="fill-opacity:1.00" />
<rect height="0.182216" width="25.000000" x="775.000000" y="109.726675" fill="rgb(255, 255, 255)" style="fill-opacity:1.00" />
<rect height="0.045554" width="25.000000" x="775.000000" y="109.863338" fill="rgb(255, 165, 0)" style="fill-opacity:1.00" />
<rect height="0.136662" width="6.250000" x="793.750000" y="109.863338" fill="rgb(255, 165, 0)" style="fill-opacity:1.00" />
<!-- End 'G' -->
<!-- Begin 'G' -->
<ellipse cx="835.000000" cy="107.548275" rx="25.000000" ry="0.489558" fill="rgb(255, 165, 0)" style="fill-opacity:1.00" />
<ellipse cx="835.000000" cy="107.548275" rx="16.666667" ry="0.326372" fill="rgb(255, 255, 255)" style="fill-opacity:1.00" />
<rect height="0.489558" width="25.000000" x="835.000000" y="107.303496" fill="rgb(255, 255, 255)" style="fill-opacity:1.00" />
<rect height="0.122390" width="25.000000" x="835.000000" y="107.670664" fill="rgb(255, 165, 0)" style="fill-opacity:1.00" />
<rect height="0.367169" width="6.250000" x="853.750000" y="107.670664" fill="rgb(255, 165, 0)" style="fill-opacity:1.00" />
<!-- End 'G' -->
<!-- Begin 'A' -->
<polygon points=" 810.000000, 108.825294, 831.000000, 108.037833, 839.000000, 108.037833, 860.000000, 108.825294, 852.500000, 108.825294, 846.250000, 108.628429, 823.750000, 108.628429, 817.500000, 108.825294" fill="rgb(178, 34, 34)" style="fill-opacity:1.00" />
<!-- End 'A' -->
<!-- Begin 'T' -->
<rect height="0.121079" width="50.000000" x="810.000000" y="108.825294" fill="rgb(0, 100, 0)" style="fill-opacity:1.00" />
<rect height="0.756747" width="10.000000" x="830.000000" y="108.825294" fill="rgb(0, 100, 0)" style="fill-opacity:1.00" />
<!-- End 'T' -->
<!-- Begin 'C' -->
<ellipse cx="835.000000" cy="109.791020" rx="25.000000" ry="0.208980" fill="rgb(0, 0, 128)" style="fill-opacity:1.00" />
<ellipse cx="835.000000" cy="109.791020" rx="16.666667" ry="0.139320" fill="rgb(255, 255, 255)" style="fill-opacity:1.00" />
<rect height="0.208980" width="25.000000" x="835.000000" y="109.686530" fill="rgb(255, 255, 255)" style="fill-opacity:1.00" />
<!-- End 'C' -->
<!-- Begin 'A' -->
<polygon points=" 870.000000, 109.787534, 891.000000, 109.706728, 899.000000, 109.706728, 920.000000, 109.787534, 912.500000, 109.787534, 906.250000, 109.767332, 883.750000, 109.767332, 877.500000, 109.787534" fill="rgb(178, 34, 34)" style="fill-opacity:1.00" />
<!-- End 'A' -->
<!-- Begin 'T' -->
<rect height="0.012081" width="50.000000" x="870.000000" y="109.787534" fill="rgb(0, 100, 0)" style="fill-opacity:1.00" />
<rect height="0.075505" width="10.000000" x="890.000000" y="109.787534" fill="rgb(0, 100, 0)" style="fill-opacity:1.00" />
<!-- End 'T' -->
<!-- Begin 'G' -->
<ellipse cx="895.000000" cy="109.900095" rx="25.000000" ry="0.037056" fill="rgb(255, 165, 0)" style="fill-opacity:1.00" />
<ellipse cx="895.000000" cy="109.900095" rx="16.666667" ry="0.024704" fill="rgb(255, 255, 255)" style="fill-opacity:1.00" />
<rect height="0.037056" width="25.000000" x="895.000000" y="109.881567" fill="rgb(255, 255, 255)" style="fill-opacity:1.00" />
<rect height="0.009264" width="25.000000" x="895.000000" y="109.909359" fill="rgb(255, 165, 0)" style="fill-opacity:1.00" />
<rect height="0.027792" width="6.250000" x="913.750000" y="109.909359" fill="rgb(255, 165, 0)" style="fill-opacity:1.00" />
<!-- End 'G' -->
<!-- Begin 'C' -->
<ellipse cx="895.000000" cy="109.968576" rx="25.000000" ry="0.031424" fill="rgb(0, 0, 128)" style="fill-opacity:1.00" />
<ellipse cx="895.000000" cy="109.968576" rx="16.666667" ry="0.020950" fill="rgb(255, 255, 255)" style="fill-opacity:1.00" />
<rect height="0.031424" width="25.000000" x="895.000000" y="109.952863" fill="rgb(255, 255, 255)" style="fill-opacity:1.00" />
<!-- End 'C' -->
<text x="490.000000" y="165">
IC = 5.48
</text>

</svg>
