<?xml version="1.0" encoding="UTF-8" standalone="yes"?>
                 <!DOCTYPE svg PUBLIC "-//W3C//DTD SVG 1.0//EN" "http://www.w3.org/TR/2001/REC-SVG-20010904/DTD/svg10.dtd">
                 <svg height="170" width="1020" xmlns="http://www.w3.org/2000/svg" xmlns:xlink="http://www.w3.org/1999/xlink">
                 <line x1="85" y1="120" x2="987" y2="120" style="stroke:rgb(99,99,99);stroke-width:2" />
<rect height="7.000000" width="2.000000" x="85.000000" y="120.000000" fill="rgb(0, 0, 0)" style="fill-opacity:1.00" />
<text x="107.000000" y="140">
1
</text>
<rect height="7.000000" width="2.000000" x="145.000000" y="120.000000" fill="rgb(0, 0, 0)" style="fill-opacity:1.00" />
<text x="167.000000" y="140">
2
</text>
<rect height="7.000000" width="2.000000" x="205.000000" y="120.000000" fill="rgb(0, 0, 0)" style="fill-opacity:1.00" />
<text x="227.000000" y="140">
3
</text>
<rect height="7.000000" width="2.000000" x="265.000000" y="120.000000" fill="rgb(0, 0, 0)" style="fill-opacity:1.00" />
<text x="287.000000" y="140">
4
</text>
<rect height="7.000000" width="2.000000" x="325.000000" y="120.000000" fill="rgb(0, 0, 0)" style="fill-opacity:1.00" />
<text x="347.000000" y="140">
5
</text>
<rect height="7.000000" width="2.000000" x="385.000000" y="120.000000" fill="rgb(0, 0, 0)" style="fill-opacity:1.00" />
<text x="407.000000" y="140">
6
</text>
<rect height="7.000000" width="2.000000" x="445.000000" y="120.000000" fill="rgb(0, 0, 0)" style="fill-opacity:1.00" />
<text x="467.000000" y="140">
7
</text>
<rect height="7.000000" width="2.000000" x="505.000000" y="120.000000" fill="rgb(0, 0, 0)" style="fill-opacity:1.00" />
<text x="527.000000" y="140">
8
</text>
<rect height="7.000000" width="2.000000" x="565.000000" y="120.000000" fill="rgb(0, 0, 0)" style="fill-opacity:1.00" />
<text x="587.000000" y="140">
9
</text>
<rect height="7.000000" width="2.000000" x="625.000000" y="120.000000" fill="rgb(0, 0, 0)" style="fill-opacity:1.00" />
<text x="647.000000" y="140">
10
</text>
<rect height="7.000000" width="2.000000" x="685.000000" y="120.000000" fill="rgb(0, 0, 0)" style="fill-opacity:1.00" />
<text x="707.000000" y="140">
11
</text>
<rect height="7.000000" width="2.000000" x="745.000000" y="120.000000" fill="rgb(0, 0, 0)" style="fill-opacity:1.00" />
<text x="767.000000" y="140">
12
</text>
<rect height="7.000000" width="2.000000" x="805.000000" y="120.000000" fill="rgb(0, 0, 0)" style="fill-opacity:1.00" />
<text x="827.000000" y="140">
13
</text>
<rect height="7.000000" width="2.000000" x="865.000000" y="120.000000" fill="rgb(0, 0, 0)" style="fill-opacity:1.00" />
<text x="887.000000" y="140">
14
</text>
<rect height="7.000000" width="2.000000" x="925.000000" y="120.000000" fill="rgb(0, 0, 0)" style="fill-opacity:1.00" />
<text x="947.000000" y="140">
15
</text>
<rect height="7.000000" width="2.000000" x="985.000000" y="120.000000" fill="rgb(0, 0, 0)" style="fill-opacity:1.00" />
<line x1="80" y1="112" x2="80" y2="10" style="stroke:rgb(99,99,99);stroke-width:2" />
<rect height="2.000000" width="7.000000" x="73.000000" y="110.000000" fill="rgb(0, 0, 0)" style="fill-opacity:1.00" />
<text x="63" y="115">
0
</text>
<rect height="2.000000" width="7.000000" x="73.000000" y="60.000000" fill="rgb(0, 0, 0)" style="fill-opacity:1.00" />
<text x="63" y="65">
1
</text>
<rect height="2.000000" width="7.000000" x="73.000000" y="10.000000" fill="rgb(0, 0, 0)" style="fill-opacity:1.00" />
<text x="63" y="15">
2
</text>
<text x="50" y="65"
transform="rotate(-90, 50, 70)">
bits
</text>
<!-- Begin 'A' -->
<polygon points=" 90.000000, 105.917120, 111.000000, 103.661682, 119.000000, 103.661682, 140.000000, 105.917120, 132.500000, 105.917120, 126.250000, 105.353261, 103.750000, 105.353261, 97.500000, 105.917120" fill="rgb(178, 34, 34)" style="fill-opacity:1.00" />
<!-- End 'A' -->
<!-- Begin 'T' -->
<rect height="0.352255" width="50.000000" x="90.000000" y="105.917120" fill="rgb(0, 100, 0)" style="fill-opacity:1.00" />
<rect height="2.201597" width="10.000000" x="110.000000" y="105.917120" fill="rgb(0, 100, 0)" style="fill-opacity:1.00" />
<!-- End 'T' -->
<!-- Begin 'C' -->
<ellipse cx="115.000000" cy="108.653623" rx="25.000000" ry="0.534906" fill="rgb(0, 0, 128)" style="fill-opacity:1.00" />
<ellipse cx="115.000000" cy="108.653623" rx="16.666667" ry="0.356604" fill="rgb(255, 255, 255)" style="fill-opacity:1.00" />
<rect height="0.534906" width="25.000000" x="115.000000" y="108.386170" fill="rgb(255, 255, 255)" style="fill-opacity:1.00" />
<!-- End 'C' -->
<!-- Begin 'G' -->
<ellipse cx="115.000000" cy="109.594264" rx="25.000000" ry="0.405736" fill="rgb(255, 165, 0)" style="fill-opacity:1.00" />
<ellipse cx="115.000000" cy="109.594264" rx="16.666667" ry="0.270491" fill="rgb(255, 255, 255)" style="fill-opacity:1.00" />
<rect height="0.405736" width="25.000000" x="115.000000" y="109.391396" fill="rgb(255, 255, 255)" style="fill-opacity:1.00" />
<rect height="0.101434" width="25.000000" x="115.000000" y="109.695698" fill="rgb(255, 165, 0)" style="fill-opacity:1.00" />
<rect height="0.304302" width="6.250000" x="133.750000" y="109.695698" fill="rgb(255, 165, 0)" style="fill-opacity:1.00" />
<!-- End 'G' -->
<!-- Begin 'T' -->
<rect height="0.344276" width="50.000000" x="150.000000" y="104.222581" fill="rgb(0, 100, 0)" style="fill-opacity:1.00" />
<rect height="2.151728" width="10.000000" x="170.000000" y="104.222581" fill="rgb(0, 100, 0)" style="fill-opacity:1.00" />
<!-- End 'T' -->
<!-- Begin 'A' -->
<polygon points=" 150.000000, 108.178475, 171.000000, 106.374309, 179.000000, 106.374309, 200.000000, 108.178475, 192.500000, 108.178475, 186.250000, 107.727433, 163.750000, 107.727433, 157.500000, 108.178475" fill="rgb(178, 34, 34)" style="fill-opacity:1.00" />
<!-- End 'A' -->
<!-- Begin 'C' -->
<ellipse cx="175.000000" cy="108.733191" rx="25.000000" ry="0.554716" fill="rgb(0, 0, 128)" style="fill-opacity:1.00" />
<ellipse cx="175.000000" cy="108.733191" rx="16.666667" ry="0.369811" fill="rgb(255, 255, 255)" style="fill-opacity:1.00" />
<rect height="0.554716" width="25.000000" x="175.000000" y="108.455833" fill="rgb(255, 255, 255)" style="fill-opacity:1.00" />
<!-- End 'C' -->
<!-- Begin 'G' -->
<ellipse cx="175.000000" cy="109.643954" rx="25.000000" ry="0.356046" fill="rgb(255, 165, 0)" style="fill-opacity:1.00" />
<ellipse cx="175.000000" cy="109.643954" rx="16.666667" ry="0.237364" fill="rgb(255, 255, 255)" style="fill-opacity:1.00" />
<rect height="0.356046" width="25.000000" x="175.000000" y="109.465931" fill="rgb(255, 255, 255)" style="fill-opacity:1.00" />
<rect height="0.089012" width="25.000000" x="175.000000" y="109.732965" fill="rgb(255, 165, 0)" style="fill-opacity:1.00" />
<rect height="0.267035" width="6.250000" x="193.750000" y="109.732965" fill="rgb(255, 165, 0)" style="fill-opacity:1.00" />
<!-- End 'G' -->
<!-- Begin 'A' -->
<polygon points=" 210.000000, 105.123311, 231.000000, 101.850036, 239.000000, 101.850036, 260.000000, 105.123311, 252.500000, 105.123311, 246.250000, 104.304992, 223.750000, 104.304992, 217.500000, 105.123311" fill="rgb(178, 34, 34)" style="fill-opacity:1.00" />
<!-- End 'A' -->
<!-- Begin 'T' -->
<rect height="0.426658" width="50.000000" x="210.000000" y="105.123311" fill="rgb(0, 100, 0)" style="fill-opacity:1.00" />
<rect height="2.666610" width="10.000000" x="230.000000" y="105.123311" fill="rgb(0, 100, 0)" style="fill-opacity:1.00" />
<!-- End 'T' -->
<!-- Begin 'C' -->
<ellipse cx="235.000000" cy="108.374365" rx="25.000000" ry="0.584444" fill="rgb(0, 0, 128)" style="fill-opacity:1.00" />
<ellipse cx="235.000000" cy="108.374365" rx="16.666667" ry="0.389629" fill="rgb(255, 255, 255)" style="fill-opacity:1.00" />
<rect height="0.584444" width="25.000000" x="235.000000" y="108.082143" fill="rgb(255, 255, 255)" style="fill-opacity:1.00" />
<!-- End 'C' -->
<!-- Begin 'G' -->
<ellipse cx="235.000000" cy="109.479405" rx="25.000000" ry="0.520595" fill="rgb(255, 165, 0)" style="fill-opacity:1.00" />
<ellipse cx="235.000000" cy="109.479405" rx="16.666667" ry="0.347064" fill="rgb(255, 255, 255)" style="fill-opacity:1.00" />
<rect height="0.520595" width="25.000000" x="235.000000" y="109.219107" fill="rgb(255, 255, 255)" style="fill-opacity:1.00" />
<rect height="0.130149" width="25.000000" x="235.000000" y="109.609553" fill="rgb(255, 165, 0)" style="fill-opacity:1.00" />
<rect height="0.390447" width="6.250000" x="253.750000" y="109.609553" fill="rgb(255, 165, 0)" style="fill-opacity:1.00" />
<!-- End 'G' -->
<!-- Begin 'A' -->
<polygon points=" 270.000000, 104.985676, 291.000000, 101.405513, 299.000000, 101.405513, 320.000000, 104.985676, 312.500000, 104.985676, 306.250000, 104.090635, 283.750000, 104.090635, 277.500000, 104.985676" fill="rgb(178, 34, 34)" style="fill-opacity:1.00" />
<!-- End 'A' -->
<!-- Begin 'T' -->
<rect height="0.431955" width="50.000000" x="270.000000" y="104.985676" fill="rgb(0, 100, 0)" style="fill-opacity:1.00" />
<rect height="2.699720" width="10.000000" x="290.000000" y="104.985676" fill="rgb(0, 100, 0)" style="fill-opacity:1.00" />
<!-- End 'T' -->
<!-- Begin 'G' -->
<ellipse cx="295.000000" cy="108.322294" rx="25.000000" ry="0.636898" fill="rgb(255, 165, 0)" style="fill-opacity:1.00" />
<ellipse cx="295.000000" cy="108.322294" rx="16.666667" ry="0.424598" fill="rgb(255, 255, 255)" style="fill-opacity:1.00" />
<rect height="0.636898" width="25.000000" x="295.000000" y="108.003845" fill="rgb(255, 255, 255)" style="fill-opacity:1.00" />
<rect height="0.159224" width="25.000000" x="295.000000" y="108.481518" fill="rgb(255, 165, 0)" style="fill-opacity:1.00" />
<rect height="0.477673" width="6.250000" x="313.750000" y="108.481518" fill="rgb(255, 165, 0)" style="fill-opacity:1.00" />
<!-- End 'G' -->
<!-- Begin 'C' -->
<ellipse cx="295.000000" cy="109.479596" rx="25.000000" ry="0.520404" fill="rgb(0, 0, 128)" style="fill-opacity:1.00" />
<ellipse cx="295.000000" cy="109.479596" rx="16.666667" ry="0.346936" fill="rgb(255, 255, 255)" style="fill-opacity:1.00" />
<rect height="0.520404" width="25.000000" x="295.000000" y="109.219393" fill="rgb(255, 255, 255)" style="fill-opacity:1.00" />
<!-- End 'C' -->
<!-- Begin 'C' -->
<ellipse cx="355.000000" cy="106.255761" rx="25.000000" ry="0.753884" fill="rgb(0, 0, 128)" style="fill-opacity:1.00" />
<ellipse cx="355.000000" cy="106.255761" rx="16.666667" ry="0.502589" fill="rgb(255, 255, 255)" style="fill-opacity:1.00" />
<rect height="0.753884" width="25.000000" x="355.000000" y="105.878819" fill="rgb(255, 255, 255)" style="fill-opacity:1.00" />
<!-- End 'C' -->
<!-- Begin 'T' -->
<rect height="0.232449" width="50.000000" x="330.000000" y="107.009645" fill="rgb(0, 100, 0)" style="fill-opacity:1.00" />
<rect height="1.452803" width="10.000000" x="350.000000" y="107.009645" fill="rgb(0, 100, 0)" style="fill-opacity:1.00" />
<!-- End 'T' -->
<!-- Begin 'A' -->
<polygon points=" 330.000000, 109.428082, 351.000000, 108.462448, 359.000000, 108.462448, 380.000000, 109.428082, 372.500000, 109.428082, 366.250000, 109.186673, 343.750000, 109.186673, 337.500000, 109.428082" fill="rgb(178, 34, 34)" style="fill-opacity:1.00" />
<!-- End 'A' -->
<!-- Begin 'G' -->
<ellipse cx="355.000000" cy="109.714041" rx="25.000000" ry="0.285959" fill="rgb(255, 165, 0)" style="fill-opacity:1.00" />
<ellipse cx="355.000000" cy="109.714041" rx="16.666667" ry="0.190639" fill="rgb(255, 255, 255)" style="fill-opacity:1.00" />
<rect height="0.285959" width="25.000000" x="355.000000" y="109.571061" fill="rgb(255, 255, 255)" style="fill-opacity:1.00" />
<rect height="0.071490" width="25.000000" x="355.000000" y="109.785531" fill="rgb(255, 165, 0)" style="fill-opacity:1.00" />
<rect height="0.214469" width="6.250000" x="373.750000" y="109.785531" fill="rgb(255, 165, 0)" style="fill-opacity:1.00" />
<!-- End 'G' -->
<!-- Begin 'C' -->
<ellipse cx="415.000000" cy="106.553811" rx="25.000000" ry="0.696077" fill="rgb(0, 0, 128)" style="fill-opacity:1.00" />
<ellipse cx="415.000000" cy="106.553811" rx="16.666667" ry="0.464052" fill="rgb(255, 255, 255)" style="fill-opacity:1.00" />
<rect height="0.696077" width="25.000000" x="415.000000" y="106.205773" fill="rgb(255, 255, 255)" style="fill-opacity:1.00" />
<!-- End 'C' -->
<!-- Begin 'T' -->
<rect height="0.186098" width="50.000000" x="390.000000" y="107.249889" fill="rgb(0, 100, 0)" style="fill-opacity:1.00" />
<rect height="1.163112" width="10.000000" x="410.000000" y="107.249889" fill="rgb(0, 100, 0)" style="fill-opacity:1.00" />
<!-- End 'T' -->
<!-- Begin 'A' -->
<polygon points=" 390.000000, 109.502797, 411.000000, 108.413001, 419.000000, 108.413001, 440.000000, 109.502797, 432.500000, 109.502797, 426.250000, 109.230348, 403.750000, 109.230348, 397.500000, 109.502797" fill="rgb(178, 34, 34)" style="fill-opacity:1.00" />
<!-- End 'A' -->
<!-- Begin 'G' -->
<ellipse cx="415.000000" cy="109.751399" rx="25.000000" ry="0.248601" fill="rgb(255, 165, 0)" style="fill-opacity:1.00" />
<ellipse cx="415.000000" cy="109.751399" rx="16.666667" ry="0.165734" fill="rgb(255, 255, 255)" style="fill-opacity:1.00" />
<rect height="0.248601" width="25.000000" x="415.000000" y="109.627098" fill="rgb(255, 255, 255)" style="fill-opacity:1.00" />
<rect height="0.062150" width="25.000000" x="415.000000" y="109.813549" fill="rgb(255, 165, 0)" style="fill-opacity:1.00" />
<rect height="0.186451" width="6.250000" x="433.750000" y="109.813549" fill="rgb(255, 165, 0)" style="fill-opacity:1.00" />
<!-- End 'G' -->
<!-- Begin 'T' -->
<rect height="4.072160" width="50.000000" x="450.000000" y="72.675196" fill="rgb(0, 100, 0)" style="fill-opacity:1.00" />
<rect height="25.450997" width="10.000000" x="470.000000" y="72.675196" fill="rgb(0, 100, 0)" style="fill-opacity:1.00" />
<!-- End 'T' -->
<!-- Begin 'A' -->
<polygon points=" 450.000000, 105.464970, 471.000000, 98.126193, 479.000000, 98.126193, 500.000000, 105.464970, 492.500000, 105.464970, 486.250000, 103.630276, 463.750000, 103.630276, 457.500000, 105.464970" fill="rgb(178, 34, 34)" style="fill-opacity:1.00" />
<!-- End 'A' -->
<!-- Begin 'C' -->
<ellipse cx="475.000000" cy="107.566120" rx="25.000000" ry="2.101150" fill="rgb(0, 0, 128)" style="fill-opacity:1.00" />
<ellipse cx="475.000000" cy="107.566120" rx="16.666667" ry="1.400767" fill="rgb(255, 255, 255)" style="fill-opacity:1.00" />
<rect height="2.101150" width="25.000000" x="475.000000" y="106.515545" fill="rgb(255, 255, 255)" style="fill-opacity:1.00" />
<!-- End 'C' -->
<!-- Begin 'G' -->
<ellipse cx="475.000000" cy="109.833635" rx="25.000000" ry="0.166365" fill="rgb(255, 165, 0)" style="fill-opacity:1.00" />
<ellipse cx="475.000000" cy="109.833635" rx="16.666667" ry="0.110910" fill="rgb(255, 255, 255)" style="fill-opacity:1.00" />
<rect height="0.166365" width="25.000000" x="475.000000" y="109.750453" fill="rgb(255, 255, 255)" style="fill-opacity:1.00" />
<rect height="0.041591" width="25.000000" x="475.000000" y="109.875226" fill="rgb(255, 165, 0)" style="fill-opacity:1.00" />
<rect height="0.124774" width="6.250000" x="493.750000" y="109.875226" fill="rgb(255, 165, 0)" style="fill-opacity:1.00" />
<!-- End 'G' -->
<!-- Begin 'T' -->
<rect height="5.413069" width="50.000000" x="510.000000" y="65.945662" fill="rgb(0, 100, 0)" style="fill-opacity:1.00" />
<rect height="33.831683" width="10.000000" x="530.000000" y="65.945662" fill="rgb(0, 100, 0)" style="fill-opacity:1.00" />
<!-- End 'T' -->
<!-- Begin 'A' -->
<polygon points=" 510.000000, 105.308900, 531.000000, 99.777345, 539.000000, 99.777345, 560.000000, 105.308900, 552.500000, 105.308900, 546.250000, 103.926011, 523.750000, 103.926011, 517.500000, 105.308900" fill="rgb(178, 34, 34)" style="fill-opacity:1.00" />
<!-- End 'A' -->
<!-- Begin 'C' -->
<ellipse cx="535.000000" cy="106.510617" rx="25.000000" ry="1.201717" fill="rgb(0, 0, 128)" style="fill-opacity:1.00" />
<ellipse cx="535.000000" cy="106.510617" rx="16.666667" ry="0.801145" fill="rgb(255, 255, 255)" style="fill-opacity:1.00" />
<rect height="1.201717" width="25.000000" x="535.000000" y="105.909759" fill="rgb(255, 255, 255)" style="fill-opacity:1.00" />
<!-- End 'C' -->
<!-- Begin 'G' -->
<ellipse cx="535.000000" cy="108.856167" rx="25.000000" ry="1.143833" fill="rgb(255, 165, 0)" style="fill-opacity:1.00" />
<ellipse cx="535.000000" cy="108.856167" rx="16.666667" ry="0.762555" fill="rgb(255, 255, 255)" style="fill-opacity:1.00" />
<rect height="1.143833" width="25.000000" x="535.000000" y="108.284251" fill="rgb(255, 255, 255)" style="fill-opacity:1.00" />
<rect height="0.285958" width="25.000000" x="535.000000" y="109.142125" fill="rgb(255, 165, 0)" style="fill-opacity:1.00" />
<rect height="0.857875" width="6.250000" x="553.750000" y="109.142125" fill="rgb(255, 165, 0)" style="fill-opacity:1.00" />
<!-- End 'G' -->
<!-- Begin 'A' -->
<polygon points=" 570.000000, 108.041736, 591.000000, 19.039588, 599.000000, 19.039588, 620.000000, 108.041736, 612.500000, 108.041736, 606.250000, 85.791199, 583.750000, 85.791199, 577.500000, 108.041736" fill="rgb(178, 34, 34)" style="fill-opacity:1.00" />
<polygon points=" 595.000000, 36.840018, 587.000000, 71.440877, 602.000000, 71.440877" fill="rgb(255, 255, 255)" style="fill-opacity:1.00" />
<!-- End 'A' -->
<!-- Begin 'C' -->
<ellipse cx="595.000000" cy="108.496681" rx="25.000000" ry="0.454946" fill="rgb(0, 0, 128)" style="fill-opacity:1.00" />
<ellipse cx="595.000000" cy="108.496681" rx="16.666667" ry="0.303297" fill="rgb(255, 255, 255)" style="fill-opacity:1.00" />
<rect height="0.454946" width="25.000000" x="595.000000" y="108.269208" fill="rgb(255, 255, 255)" style="fill-opacity:1.00" />
<!-- End 'C' -->
<!-- Begin 'T' -->
<rect height="0.125341" width="50.000000" x="570.000000" y="108.951627" fill="rgb(0, 100, 0)" style="fill-opacity:1.00" />
<rect height="0.783382" width="10.000000" x="590.000000" y="108.951627" fill="rgb(0, 100, 0)" style="fill-opacity:1.00" />
<!-- End 'T' -->
<!-- Begin 'G' -->
<ellipse cx="595.000000" cy="109.867505" rx="25.000000" ry="0.132495" fill="rgb(255, 165, 0)" style="fill-opacity:1.00" />
<ellipse cx="595.000000" cy="109.867505" rx="16.666667" ry="0.088330" fill="rgb(255, 255, 255)" style="fill-opacity:1.00" />
<rect height="0.132495" width="25.000000" x="595.000000" y="109.801257" fill="rgb(255, 255, 255)" style="fill-opacity:1.00" />
<rect height="0.033124" width="25.000000" x="595.000000" y="109.900628" fill="rgb(255, 165, 0)" style="fill-opacity:1.00" />
<rect height="0.099372" width="6.250000" x="613.750000" y="109.900628" fill="rgb(255, 165, 0)" style="fill-opacity:1.00" />
<!-- End 'G' -->
<!-- Begin 'T' -->
<rect height="14.360759" width="50.000000" x="630.000000" y="18.460594" fill="rgb(0, 100, 0)" style="fill-opacity:1.00" />
<rect height="89.754745" width="10.000000" x="650.000000" y="18.460594" fill="rgb(0, 100, 0)" style="fill-opacity:1.00" />
<!-- End 'T' -->
<!-- Begin 'A' -->
<polygon points=" 630.000000, 108.927527, 651.000000, 108.215339, 659.000000, 108.215339, 680.000000, 108.927527, 672.500000, 108.927527, 666.250000, 108.749480, 643.750000, 108.749480, 637.500000, 108.927527" fill="rgb(178, 34, 34)" style="fill-opacity:1.00" />
<!-- End 'A' -->
<!-- Begin 'G' -->
<ellipse cx="655.000000" cy="109.210200" rx="25.000000" ry="0.282673" fill="rgb(255, 165, 0)" style="fill-opacity:1.00" />
<ellipse cx="655.000000" cy="109.210200" rx="16.666667" ry="0.188449" fill="rgb(255, 255, 255)" style="fill-opacity:1.00" />
<rect height="0.282673" width="25.000000" x="655.000000" y="109.068864" fill="rgb(255, 255, 255)" style="fill-opacity:1.00" />
<rect height="0.070668" width="25.000000" x="655.000000" y="109.280868" fill="rgb(255, 165, 0)" style="fill-opacity:1.00" />
<rect height="0.212005" width="6.250000" x="673.750000" y="109.280868" fill="rgb(255, 165, 0)" style="fill-opacity:1.00" />
<!-- End 'G' -->
<!-- Begin 'C' -->
<ellipse cx="655.000000" cy="109.746437" rx="25.000000" ry="0.253563" fill="rgb(0, 0, 128)" style="fill-opacity:1.00" />
<ellipse cx="655.000000" cy="109.746437" rx="16.666667" ry="0.169042" fill="rgb(255, 255, 255)" style="fill-opacity:1.00" />
<rect height="0.253563" width="25.000000" x="655.000000" y="109.619655" fill="rgb(255, 255, 255)" style="fill-opacity:1.00" />
<!-- End 'C' -->
<!-- Begin 'C' -->
<ellipse cx="715.000000" cy="62.589733" rx="25.000000" ry="46.051716" fill="rgb(0, 0, 128)" style="fill-opacity:1.00" />
<ellipse cx="715.000000" cy="62.589733" rx="16.666667" ry="30.701144" fill="rgb(255, 255, 255)" style="fill-opacity:1.00" />
<rect height="46.051716" width="25.000000" x="715.000000" y="39.563875" fill="rgb(255, 255, 255)" style="fill-opacity:1.00" />
<!-- End 'C' -->
<!-- Begin 'A' -->
<polygon points=" 690.000000, 109.348468, 711.000000, 108.641449, 719.000000, 108.641449, 740.000000, 109.348468, 732.500000, 109.348468, 726.250000, 109.171713, 703.750000, 109.171713, 697.500000, 109.348468" fill="rgb(178, 34, 34)" style="fill-opacity:1.00" />
<!-- End 'A' -->
<!-- Begin 'T' -->
<rect height="0.064304" width="50.000000" x="690.000000" y="109.348468" fill="rgb(0, 100, 0)" style="fill-opacity:1.00" />
<rect height="0.401897" width="10.000000" x="710.000000" y="109.348468" fill="rgb(0, 100, 0)" style="fill-opacity:1.00" />
<!-- End 'T' -->
<!-- Begin 'G' -->
<ellipse cx="715.000000" cy="109.875182" rx="25.000000" ry="0.124818" fill="rgb(255, 165, 0)" style="fill-opacity:1.00" />
<ellipse cx="715.000000" cy="109.875182" rx="16.666667" ry="0.083212" fill="rgb(255, 255, 255)" style="fill-opacity:1.00" />
<rect height="0.124818" width="25.000000" x="715.000000" y="109.812774" fill="rgb(255, 255, 255)" style="fill-opacity:1.00" />
<rect height="0.031204" width="25.000000" x="715.000000" y="109.906387" fill="rgb(255, 165, 0)" style="fill-opacity:1.00" />
<rect height="0.093613" width="6.250000" x="733.750000" y="109.906387" fill="rgb(255, 165, 0)" style="fill-opacity:1.00" />
<!-- End 'G' -->
<!-- Begin 'C' -->
<ellipse cx="775.000000" cy="80.979044" rx="25.000000" ry="13.386417" fill="rgb(0, 0, 128)" style="fill-opacity:1.00" />
<ellipse cx="775.000000" cy="80.979044" rx="16.666667" ry="8.924278" fill="rgb(255, 255, 255)" style="fill-opacity:1.00" />
<rect height="13.386417" width="25.000000" x="775.000000" y="74.285836" fill="rgb(255, 255, 255)" style="fill-opacity:1.00" />
<!-- End 'C' -->
<!-- Begin 'T' -->
<rect height="2.261332" width="50.000000" x="750.000000" y="94.365462" fill="rgb(0, 100, 0)" style="fill-opacity:1.00" />
<rect height="14.133322" width="10.000000" x="770.000000" y="94.365462" fill="rgb(0, 100, 0)" style="fill-opacity:1.00" />
<!-- End 'T' -->
<!-- Begin 'A' -->
<polygon points=" 750.000000, 109.424585, 771.000000, 108.498784, 779.000000, 108.498784, 800.000000, 109.424585, 792.500000, 109.424585, 786.250000, 109.193135, 763.750000, 109.193135, 757.500000, 109.424585" fill="rgb(178, 34, 34)" style="fill-opacity:1.00" />
<!-- End 'A' -->
<!-- Begin 'G' -->
<ellipse cx="775.000000" cy="109.712292" rx="25.000000" ry="0.287708" fill="rgb(255, 165, 0)" style="fill-opacity:1.00" />
<ellipse cx="775.000000" cy="109.712292" rx="16.666667" ry="0.191805" fill="rgb(255, 255, 255)" style="fill-opacity:1.00" />
<rect height="0.287708" width="25.000000" x="775.000000" y="109.568439" fill="rgb(255, 255, 255)" style="fill-opacity:1.00" />
<rect height="0.071927" width="25.000000" x="775.000000" y="109.784219" fill="rgb(255, 165, 0)" style="fill-opacity:1.00" />
<rect height="0.215781" width="6.250000" x="793.750000" y="109.784219" fill="rgb(255, 165, 0)" style="fill-opacity:1.00" />
<!-- End 'G' -->
<!-- Begin 'A' -->
<polygon points=" 810.000000, 100.761645, 831.000000, 88.114179, 839.000000, 88.114179, 860.000000, 100.761645, 852.500000, 100.761645, 846.250000, 97.599778, 823.750000, 97.599778, 817.500000, 100.761645" fill="rgb(178, 34, 34)" style="fill-opacity:1.00" />
<polygon points=" 835.000000, 90.643672, 827.000000, 94.702658, 842.000000, 94.702658" fill="rgb(255, 255, 255)" style="fill-opacity:1.00" />
<!-- End 'A' -->
<!-- Begin 'T' -->
<rect height="0.807131" width="50.000000" x="810.000000" y="100.761645" fill="rgb(0, 100, 0)" style="fill-opacity:1.00" />
<rect height="5.044570" width="10.000000" x="830.000000" y="100.761645" fill="rgb(0, 100, 0)" style="fill-opacity:1.00" />
<!-- End 'T' -->
<!-- Begin 'G' -->
<ellipse cx="835.000000" cy="107.343864" rx="25.000000" ry="1.537649" fill="rgb(255, 165, 0)" style="fill-opacity:1.00" />
<ellipse cx="835.000000" cy="107.343864" rx="16.666667" ry="1.025099" fill="rgb(255, 255, 255)" style="fill-opacity:1.00" />
<rect height="1.537649" width="25.000000" x="835.000000" y="106.575039" fill="rgb(255, 255, 255)" style="fill-opacity:1.00" />
<rect height="0.384412" width="25.000000" x="835.000000" y="107.728276" fill="rgb(255, 165, 0)" style="fill-opacity:1.00" />
<rect height="1.153237" width="6.250000" x="853.750000" y="107.728276" fill="rgb(255, 165, 0)" style="fill-opacity:1.00" />
<!-- End 'G' -->
<!-- Begin 'C' -->
<ellipse cx="835.000000" cy="109.440756" rx="25.000000" ry="0.559244" fill="rgb(0, 0, 128)" style="fill-opacity:1.00" />
<ellipse cx="835.000000" cy="109.440756" rx="16.666667" ry="0.372829" fill="rgb(255, 255, 255)" style="fill-opacity:1.00" />
<rect height="0.559244" width="25.000000" x="835.000000" y="109.161135" fill="rgb(255, 255, 255)" style="fill-opacity:1.00" />
<!-- End 'C' -->
<!-- Begin 'A' -->
<polygon points=" 870.000000, 105.073015, 891.000000, 102.398669, 899.000000, 102.398669, 920.000000, 105.073015, 912.500000, 105.073015, 906.250000, 104.404429, 883.750000, 104.404429, 877.500000, 105.073015" fill="rgb(178, 34, 34)" style="fill-opacity:1.00" />
<!-- End 'A' -->
<!-- Begin 'T' -->
<rect height="0.420079" width="50.000000" x="870.000000" y="105.073015" fill="rgb(0, 100, 0)" style="fill-opacity:1.00" />
<rect height="2.625494" width="10.000000" x="890.000000" y="105.073015" fill="rgb(0, 100, 0)" style="fill-opacity:1.00" />
<!-- End 'T' -->
<!-- Begin 'C' -->
<ellipse cx="895.000000" cy="108.506190" rx="25.000000" ry="0.807680" fill="rgb(0, 0, 128)" style="fill-opacity:1.00" />
<ellipse cx="895.000000" cy="108.506190" rx="16.666667" ry="0.538454" fill="rgb(255, 255, 255)" style="fill-opacity:1.00" />
<rect height="0.807680" width="25.000000" x="895.000000" y="108.102350" fill="rgb(255, 255, 255)" style="fill-opacity:1.00" />
<!-- End 'C' -->
<!-- Begin 'G' -->
<ellipse cx="895.000000" cy="109.656935" rx="25.000000" ry="0.343065" fill="rgb(255, 165, 0)" style="fill-opacity:1.00" />
<ellipse cx="895.000000" cy="109.656935" rx="16.666667" ry="0.228710" fill="rgb(255, 255, 255)" style="fill-opacity:1.00" />
<rect height="0.343065" width="25.000000" x="895.000000" y="109.485403" fill="rgb(255, 255, 255)" style="fill-opacity:1.00" />
<rect height="0.085766" width="25.000000" x="895.000000" y="109.742701" fill="rgb(255, 165, 0)" style="fill-opacity:1.00" />
<rect height="0.257299" width="6.250000" x="913.750000" y="109.742701" fill="rgb(255, 165, 0)" style="fill-opacity:1.00" />
<!-- End 'G' -->
<!-- Begin 'A' -->
<polygon points=" 930.000000, 98.177175, 951.000000, 87.113088, 959.000000, 87.113088, 980.000000, 98.177175, 972.500000, 98.177175, 966.250000, 95.411153, 943.750000, 95.411153, 937.500000, 98.177175" fill="rgb(178, 34, 34)" style="fill-opacity:1.00" />
<polygon points=" 955.000000, 89.325905, 947.000000, 92.751540, 962.000000, 92.751540" fill="rgb(255, 255, 255)" style="fill-opacity:1.00" />
<!-- End 'A' -->
<!-- Begin 'T' -->
<rect height="1.421477" width="50.000000" x="930.000000" y="98.177175" fill="rgb(0, 100, 0)" style="fill-opacity:1.00" />
<rect height="8.884234" width="10.000000" x="950.000000" y="98.177175" fill="rgb(0, 100, 0)" style="fill-opacity:1.00" />
<!-- End 'T' -->
<!-- Begin 'C' -->
<ellipse cx="955.000000" cy="107.933033" rx="25.000000" ry="0.871625" fill="rgb(0, 0, 128)" style="fill-opacity:1.00" />
<ellipse cx="955.000000" cy="107.933033" rx="16.666667" ry="0.581083" fill="rgb(255, 255, 255)" style="fill-opacity:1.00" />
<rect height="0.871625" width="25.000000" x="955.000000" y="107.497221" fill="rgb(255, 255, 255)" style="fill-opacity:1.00" />
<!-- End 'C' -->
<!-- Begin 'G' -->
<ellipse cx="955.000000" cy="109.402329" rx="25.000000" ry="0.597671" fill="rgb(255, 165, 0)" style="fill-opacity:1.00" />
<ellipse cx="955.000000" cy="109.402329" rx="16.666667" ry="0.398448" fill="rgb(255, 255, 255)" style="fill-opacity:1.00" />
<rect height="0.597671" width="25.000000" x="955.000000" y="109.103493" fill="rgb(255, 255, 255)" style="fill-opacity:1.00" />
<rect height="0.149418" width="25.000000" x="955.000000" y="109.551747" fill="rgb(255, 165, 0)" style="fill-opacity:1.00" />
<rect height="0.448253" width="6.250000" x="973.750000" y="109.551747" fill="rgb(255, 165, 0)" style="fill-opacity:1.00" />
<!-- End 'G' -->
<text x="520.000000" y="165">
IC = 9.79
</text>

</svg>
