<?xml version="1.0" encoding="UTF-8" standalone="yes"?>
                 <!DOCTYPE svg PUBLIC "-//W3C//DTD SVG 1.0//EN" "http://www.w3.org/TR/2001/REC-SVG-20010904/DTD/svg10.dtd">
                 <svg height="170" width="1260" xmlns="http://www.w3.org/2000/svg" xmlns:xlink="http://www.w3.org/1999/xlink">
                 <line x1="85" y1="120" x2="1227" y2="120" style="stroke:rgb(99,99,99);stroke-width:2" />
<rect height="7.000000" width="2.000000" x="85.000000" y="120.000000" fill="rgb(0, 0, 0)" style="fill-opacity:1.00" />
<text x="107.000000" y="140">
1
</text>
<rect height="7.000000" width="2.000000" x="145.000000" y="120.000000" fill="rgb(0, 0, 0)" style="fill-opacity:1.00" />
<text x="167.000000" y="140">
2
</text>
<rect height="7.000000" width="2.000000" x="205.000000" y="120.000000" fill="rgb(0, 0, 0)" style="fill-opacity:1.00" />
<text x="227.000000" y="140">
3
</text>
<rect height="7.000000" width="2.000000" x="265.000000" y="120.000000" fill="rgb(0, 0, 0)" style="fill-opacity:1.00" />
<text x="287.000000" y="140">
4
</text>
<rect height="7.000000" width="2.000000" x="325.000000" y="120.000000" fill="rgb(0, 0, 0)" style="fill-opacity:1.00" />
<text x="347.000000" y="140">
5
</text>
<rect height="7.000000" width="2.000000" x="385.000000" y="120.000000" fill="rgb(0, 0, 0)" style="fill-opacity:1.00" />
<text x="407.000000" y="140">
6
</text>
<rect height="7.000000" width="2.000000" x="445.000000" y="120.000000" fill="rgb(0, 0, 0)" style="fill-opacity:1.00" />
<text x="467.000000" y="140">
7
</text>
<rect height="7.000000" width="2.000000" x="505.000000" y="120.000000" fill="rgb(0, 0, 0)" style="fill-opacity:1.00" />
<text x="527.000000" y="140">
8
</text>
<rect height="7.000000" width="2.000000" x="565.000000" y="120.000000" fill="rgb(0, 0, 0)" style="fill-opacity:1.00" />
<text x="587.000000" y="140">
9
</text>
<rect height="7.000000" width="2.000000" x="625.000000" y="120.000000" fill="rgb(0, 0, 0)" style="fill-opacity:1.00" />
<text x="647.000000" y="140">
10
</text>
<rect height="7.000000" width="2.000000" x="685.000000" y="120.000000" fill="rgb(0, 0, 0)" style="fill-opacity:1.00" />
<text x="707.000000" y="140">
11
</text>
<rect height="7.000000" width="2.000000" x="745.000000" y="120.000000" fill="rgb(0, 0, 0)" style="fill-opacity:1.00" />
<text x="767.000000" y="140">
12
</text>
<rect height="7.000000" width="2.000000" x="805.000000" y="120.000000" fill="rgb(0, 0, 0)" style="fill-opacity:1.00" />
<text x="827.000000" y="140">
13
</text>
<rect height="7.000000" width="2.000000" x="865.000000" y="120.000000" fill="rgb(0, 0, 0)" style="fill-opacity:1.00" />
<text x="887.000000" y="140">
14
</text>
<rect height="7.000000" width="2.000000" x="925.000000" y="120.000000" fill="rgb(0, 0, 0)" style="fill-opacity:1.00" />
<text x="947.000000" y="140">
15
</text>
<rect height="7.000000" width="2.000000" x="985.000000" y="120.000000" fill="rgb(0, 0, 0)" style="fill-opacity:1.00" />
<text x="1007.000000" y="140">
16
</text>
<rect height="7.000000" width="2.000000" x="1045.000000" y="120.000000" fill="rgb(0, 0, 0)" style="fill-opacity:1.00" />
<text x="1067.000000" y="140">
17
</text>
<rect height="7.000000" width="2.000000" x="1105.000000" y="120.000000" fill="rgb(0, 0, 0)" style="fill-opacity:1.00" />
<text x="1127.000000" y="140">
18
</text>
<rect height="7.000000" width="2.000000" x="1165.000000" y="120.000000" fill="rgb(0, 0, 0)" style="fill-opacity:1.00" />
<text x="1187.000000" y="140">
19
</text>
<rect height="7.000000" width="2.000000" x="1225.000000" y="120.000000" fill="rgb(0, 0, 0)" style="fill-opacity:1.00" />
<line x1="80" y1="112" x2="80" y2="10" style="stroke:rgb(99,99,99);stroke-width:2" />
<rect height="2.000000" width="7.000000" x="73.000000" y="110.000000" fill="rgb(0, 0, 0)" style="fill-opacity:1.00" />
<text x="63" y="115">
0
</text>
<rect height="2.000000" width="7.000000" x="73.000000" y="60.000000" fill="rgb(0, 0, 0)" style="fill-opacity:1.00" />
<text x="63" y="65">
1
</text>
<rect height="2.000000" width="7.000000" x="73.000000" y="10.000000" fill="rgb(0, 0, 0)" style="fill-opacity:1.00" />
<text x="63" y="15">
2
</text>
<text x="50" y="65"
transform="rotate(-90, 50, 70)">
bits
</text>
<!-- Begin 'A' -->
<polygon points=" 90.000000, 104.313601, 111.000000, 99.328257, 119.000000, 99.328257, 140.000000, 104.313601, 132.500000, 104.313601, 126.250000, 103.067265, 103.750000, 103.067265, 97.500000, 104.313601" fill="rgb(178, 34, 34)" style="fill-opacity:1.00" />
<!-- End 'A' -->
<!-- Begin 'T' -->
<rect height="0.445242" width="50.000000" x="90.000000" y="104.313601" fill="rgb(0, 100, 0)" style="fill-opacity:1.00" />
<rect height="2.782765" width="10.000000" x="110.000000" y="104.313601" fill="rgb(0, 100, 0)" style="fill-opacity:1.00" />
<!-- End 'T' -->
<!-- Begin 'G' -->
<ellipse cx="115.000000" cy="108.022178" rx="25.000000" ry="0.925812" fill="rgb(255, 165, 0)" style="fill-opacity:1.00" />
<ellipse cx="115.000000" cy="108.022178" rx="16.666667" ry="0.617208" fill="rgb(255, 255, 255)" style="fill-opacity:1.00" />
<rect height="0.925812" width="25.000000" x="115.000000" y="107.559272" fill="rgb(255, 255, 255)" style="fill-opacity:1.00" />
<rect height="0.231453" width="25.000000" x="115.000000" y="108.253631" fill="rgb(255, 165, 0)" style="fill-opacity:1.00" />
<rect height="0.694359" width="6.250000" x="133.750000" y="108.253631" fill="rgb(255, 165, 0)" style="fill-opacity:1.00" />
<!-- End 'G' -->
<!-- Begin 'C' -->
<ellipse cx="115.000000" cy="109.473995" rx="25.000000" ry="0.526005" fill="rgb(0, 0, 128)" style="fill-opacity:1.00" />
<ellipse cx="115.000000" cy="109.473995" rx="16.666667" ry="0.350670" fill="rgb(255, 255, 255)" style="fill-opacity:1.00" />
<rect height="0.526005" width="25.000000" x="115.000000" y="109.210993" fill="rgb(255, 255, 255)" style="fill-opacity:1.00" />
<!-- End 'C' -->
<!-- Begin 'A' -->
<polygon points=" 150.000000, 104.731678, 171.000000, 100.038855, 179.000000, 100.038855, 200.000000, 104.731678, 192.500000, 104.731678, 186.250000, 103.558472, 163.750000, 103.558472, 157.500000, 104.731678" fill="rgb(178, 34, 34)" style="fill-opacity:1.00" />
<!-- End 'A' -->
<!-- Begin 'T' -->
<rect height="0.395265" width="50.000000" x="150.000000" y="104.731678" fill="rgb(0, 100, 0)" style="fill-opacity:1.00" />
<rect height="2.470409" width="10.000000" x="170.000000" y="104.731678" fill="rgb(0, 100, 0)" style="fill-opacity:1.00" />
<!-- End 'T' -->
<!-- Begin 'G' -->
<ellipse cx="175.000000" cy="108.012397" rx="25.000000" ry="0.810310" fill="rgb(255, 165, 0)" style="fill-opacity:1.00" />
<ellipse cx="175.000000" cy="108.012397" rx="16.666667" ry="0.540207" fill="rgb(255, 255, 255)" style="fill-opacity:1.00" />
<rect height="0.810310" width="25.000000" x="175.000000" y="107.607242" fill="rgb(255, 255, 255)" style="fill-opacity:1.00" />
<rect height="0.202578" width="25.000000" x="175.000000" y="108.214975" fill="rgb(255, 165, 0)" style="fill-opacity:1.00" />
<rect height="0.607733" width="6.250000" x="193.750000" y="108.214975" fill="rgb(255, 165, 0)" style="fill-opacity:1.00" />
<!-- End 'G' -->
<!-- Begin 'C' -->
<ellipse cx="175.000000" cy="109.411354" rx="25.000000" ry="0.588646" fill="rgb(0, 0, 128)" style="fill-opacity:1.00" />
<ellipse cx="175.000000" cy="109.411354" rx="16.666667" ry="0.392431" fill="rgb(255, 255, 255)" style="fill-opacity:1.00" />
<rect height="0.588646" width="25.000000" x="175.000000" y="109.117031" fill="rgb(255, 255, 255)" style="fill-opacity:1.00" />
<!-- End 'C' -->
<!-- Begin 'A' -->
<polygon points=" 210.000000, 105.241050, 231.000000, 101.162738, 239.000000, 101.162738, 260.000000, 105.241050, 252.500000, 105.241050, 246.250000, 104.221472, 223.750000, 104.221472, 217.500000, 105.241050" fill="rgb(178, 34, 34)" style="fill-opacity:1.00" />
<!-- End 'A' -->
<!-- Begin 'T' -->
<rect height="0.320059" width="50.000000" x="210.000000" y="105.241050" fill="rgb(0, 100, 0)" style="fill-opacity:1.00" />
<rect height="2.000367" width="10.000000" x="230.000000" y="105.241050" fill="rgb(0, 100, 0)" style="fill-opacity:1.00" />
<!-- End 'T' -->
<!-- Begin 'G' -->
<ellipse cx="235.000000" cy="108.097358" rx="25.000000" ry="0.855942" fill="rgb(255, 165, 0)" style="fill-opacity:1.00" />
<ellipse cx="235.000000" cy="108.097358" rx="16.666667" ry="0.570628" fill="rgb(255, 255, 255)" style="fill-opacity:1.00" />
<rect height="0.855942" width="25.000000" x="235.000000" y="107.669387" fill="rgb(255, 255, 255)" style="fill-opacity:1.00" />
<rect height="0.213985" width="25.000000" x="235.000000" y="108.311344" fill="rgb(255, 165, 0)" style="fill-opacity:1.00" />
<rect height="0.641956" width="6.250000" x="253.750000" y="108.311344" fill="rgb(255, 165, 0)" style="fill-opacity:1.00" />
<!-- End 'G' -->
<!-- Begin 'C' -->
<ellipse cx="235.000000" cy="109.476650" rx="25.000000" ry="0.523350" fill="rgb(0, 0, 128)" style="fill-opacity:1.00" />
<ellipse cx="235.000000" cy="109.476650" rx="16.666667" ry="0.348900" fill="rgb(255, 255, 255)" style="fill-opacity:1.00" />
<rect height="0.523350" width="25.000000" x="235.000000" y="109.214975" fill="rgb(255, 255, 255)" style="fill-opacity:1.00" />
<!-- End 'C' -->
<!-- Begin 'A' -->
<polygon points=" 270.000000, 105.931586, 291.000000, 102.625483, 299.000000, 102.625483, 320.000000, 105.931586, 312.500000, 105.931586, 306.250000, 105.105060, 283.750000, 105.105060, 277.500000, 105.931586" fill="rgb(178, 34, 34)" style="fill-opacity:1.00" />
<!-- End 'A' -->
<!-- Begin 'T' -->
<rect height="0.256753" width="50.000000" x="270.000000" y="105.931586" fill="rgb(0, 100, 0)" style="fill-opacity:1.00" />
<rect height="1.604707" width="10.000000" x="290.000000" y="105.931586" fill="rgb(0, 100, 0)" style="fill-opacity:1.00" />
<!-- End 'T' -->
<!-- Begin 'G' -->
<ellipse cx="295.000000" cy="108.261759" rx="25.000000" ry="0.725466" fill="rgb(255, 165, 0)" style="fill-opacity:1.00" />
<ellipse cx="295.000000" cy="108.261759" rx="16.666667" ry="0.483644" fill="rgb(255, 255, 255)" style="fill-opacity:1.00" />
<rect height="0.725466" width="25.000000" x="295.000000" y="107.899026" fill="rgb(255, 255, 255)" style="fill-opacity:1.00" />
<rect height="0.181366" width="25.000000" x="295.000000" y="108.443125" fill="rgb(255, 165, 0)" style="fill-opacity:1.00" />
<rect height="0.544099" width="6.250000" x="313.750000" y="108.443125" fill="rgb(255, 165, 0)" style="fill-opacity:1.00" />
<!-- End 'G' -->
<!-- Begin 'C' -->
<ellipse cx="295.000000" cy="109.493612" rx="25.000000" ry="0.506388" fill="rgb(0, 0, 128)" style="fill-opacity:1.00" />
<ellipse cx="295.000000" cy="109.493612" rx="16.666667" ry="0.337592" fill="rgb(255, 255, 255)" style="fill-opacity:1.00" />
<rect height="0.506388" width="25.000000" x="295.000000" y="109.240418" fill="rgb(255, 255, 255)" style="fill-opacity:1.00" />
<!-- End 'C' -->
<!-- Begin 'A' -->
<polygon points=" 330.000000, 108.527511, 351.000000, 107.729736, 359.000000, 107.729736, 380.000000, 108.527511, 372.500000, 108.527511, 366.250000, 108.328067, 343.750000, 108.328067, 337.500000, 108.527511" fill="rgb(178, 34, 34)" style="fill-opacity:1.00" />
<!-- End 'A' -->
<!-- Begin 'G' -->
<ellipse cx="355.000000" cy="108.820666" rx="25.000000" ry="0.293155" fill="rgb(255, 165, 0)" style="fill-opacity:1.00" />
<ellipse cx="355.000000" cy="108.820666" rx="16.666667" ry="0.195437" fill="rgb(255, 255, 255)" style="fill-opacity:1.00" />
<rect height="0.293155" width="25.000000" x="355.000000" y="108.674089" fill="rgb(255, 255, 255)" style="fill-opacity:1.00" />
<rect height="0.073289" width="25.000000" x="355.000000" y="108.893955" fill="rgb(255, 165, 0)" style="fill-opacity:1.00" />
<rect height="0.219866" width="6.250000" x="373.750000" y="108.893955" fill="rgb(255, 165, 0)" style="fill-opacity:1.00" />
<!-- End 'G' -->
<!-- Begin 'C' -->
<ellipse cx="355.000000" cy="109.339922" rx="25.000000" ry="0.226101" fill="rgb(0, 0, 128)" style="fill-opacity:1.00" />
<ellipse cx="355.000000" cy="109.339922" rx="16.666667" ry="0.150734" fill="rgb(255, 255, 255)" style="fill-opacity:1.00" />
<rect height="0.226101" width="25.000000" x="355.000000" y="109.226872" fill="rgb(255, 255, 255)" style="fill-opacity:1.00" />
<!-- End 'C' -->
<!-- Begin 'T' -->
<rect height="0.069436" width="50.000000" x="330.000000" y="109.566023" fill="rgb(0, 100, 0)" style="fill-opacity:1.00" />
<rect height="0.433977" width="10.000000" x="350.000000" y="109.566023" fill="rgb(0, 100, 0)" style="fill-opacity:1.00" />
<!-- End 'T' -->
<!-- Begin 'A' -->
<polygon points=" 390.000000, 100.054704, 411.000000, 71.793821, 419.000000, 71.793821, 440.000000, 100.054704, 432.500000, 100.054704, 426.250000, 92.989483, 403.750000, 92.989483, 397.500000, 100.054704" fill="rgb(178, 34, 34)" style="fill-opacity:1.00" />
<polygon points=" 415.000000, 77.445998, 407.000000, 87.750351, 422.000000, 87.750351" fill="rgb(255, 255, 255)" style="fill-opacity:1.00" />
<!-- End 'A' -->
<!-- Begin 'G' -->
<ellipse cx="415.000000" cy="101.885564" rx="25.000000" ry="1.830861" fill="rgb(255, 165, 0)" style="fill-opacity:1.00" />
<ellipse cx="415.000000" cy="101.885564" rx="16.666667" ry="1.220574" fill="rgb(255, 255, 255)" style="fill-opacity:1.00" />
<rect height="1.830861" width="25.000000" x="415.000000" y="100.970134" fill="rgb(255, 255, 255)" style="fill-opacity:1.00" />
<rect height="0.457715" width="25.000000" x="415.000000" y="102.343280" fill="rgb(255, 165, 0)" style="fill-opacity:1.00" />
<rect height="1.373146" width="6.250000" x="433.750000" y="102.343280" fill="rgb(255, 165, 0)" style="fill-opacity:1.00" />
<!-- End 'G' -->
<!-- Begin 'T' -->
<rect height="0.581074" width="50.000000" x="390.000000" y="103.716425" fill="rgb(0, 100, 0)" style="fill-opacity:1.00" />
<rect height="3.631712" width="10.000000" x="410.000000" y="103.716425" fill="rgb(0, 100, 0)" style="fill-opacity:1.00" />
<!-- End 'T' -->
<!-- Begin 'C' -->
<ellipse cx="415.000000" cy="108.674069" rx="25.000000" ry="1.325931" fill="rgb(0, 0, 128)" style="fill-opacity:1.00" />
<ellipse cx="415.000000" cy="108.674069" rx="16.666667" ry="0.883954" fill="rgb(255, 255, 255)" style="fill-opacity:1.00" />
<rect height="1.325931" width="25.000000" x="415.000000" y="108.011103" fill="rgb(255, 255, 255)" style="fill-opacity:1.00" />
<!-- End 'C' -->
<!-- Begin 'A' -->
<polygon points=" 450.000000, 101.123775, 471.000000, 49.131750, 479.000000, 49.131750, 500.000000, 101.123775, 492.500000, 101.123775, 486.250000, 88.125768, 463.750000, 88.125768, 457.500000, 101.123775" fill="rgb(178, 34, 34)" style="fill-opacity:1.00" />
<polygon points=" 475.000000, 59.530155, 467.000000, 79.326965, 482.000000, 79.326965" fill="rgb(255, 255, 255)" style="fill-opacity:1.00" />
<!-- End 'A' -->
<!-- Begin 'T' -->
<rect height="0.887082" width="50.000000" x="450.000000" y="101.123775" fill="rgb(0, 100, 0)" style="fill-opacity:1.00" />
<rect height="5.544265" width="10.000000" x="470.000000" y="101.123775" fill="rgb(0, 100, 0)" style="fill-opacity:1.00" />
<!-- End 'T' -->
<!-- Begin 'G' -->
<ellipse cx="475.000000" cy="107.923151" rx="25.000000" ry="1.255112" fill="rgb(255, 165, 0)" style="fill-opacity:1.00" />
<ellipse cx="475.000000" cy="107.923151" rx="16.666667" ry="0.836741" fill="rgb(255, 255, 255)" style="fill-opacity:1.00" />
<rect height="1.255112" width="25.000000" x="475.000000" y="107.295596" fill="rgb(255, 255, 255)" style="fill-opacity:1.00" />
<rect height="0.313778" width="25.000000" x="475.000000" y="108.236929" fill="rgb(255, 165, 0)" style="fill-opacity:1.00" />
<rect height="0.941334" width="6.250000" x="493.750000" y="108.236929" fill="rgb(255, 165, 0)" style="fill-opacity:1.00" />
<!-- End 'G' -->
<!-- Begin 'C' -->
<ellipse cx="475.000000" cy="109.589131" rx="25.000000" ry="0.410869" fill="rgb(0, 0, 128)" style="fill-opacity:1.00" />
<ellipse cx="475.000000" cy="109.589131" rx="16.666667" ry="0.273912" fill="rgb(255, 255, 255)" style="fill-opacity:1.00" />
<rect height="0.410869" width="25.000000" x="475.000000" y="109.383697" fill="rgb(255, 255, 255)" style="fill-opacity:1.00" />
<!-- End 'C' -->
<!-- Begin 'A' -->
<polygon points=" 510.000000, 108.553656, 531.000000, 16.884991, 539.000000, 16.884991, 560.000000, 108.553656, 552.500000, 108.553656, 546.250000, 85.636490, 523.750000, 85.636490, 517.500000, 108.553656" fill="rgb(178, 34, 34)" style="fill-opacity:1.00" />
<polygon points=" 535.000000, 35.218724, 527.000000, 70.886190, 542.000000, 70.886190" fill="rgb(255, 255, 255)" style="fill-opacity:1.00" />
<!-- End 'A' -->
<!-- Begin 'G' -->
<ellipse cx="535.000000" cy="108.909427" rx="25.000000" ry="0.355771" fill="rgb(255, 165, 0)" style="fill-opacity:1.00" />
<ellipse cx="535.000000" cy="108.909427" rx="16.666667" ry="0.237181" fill="rgb(255, 255, 255)" style="fill-opacity:1.00" />
<rect height="0.355771" width="25.000000" x="535.000000" y="108.731541" fill="rgb(255, 255, 255)" style="fill-opacity:1.00" />
<rect height="0.088943" width="25.000000" x="535.000000" y="108.998370" fill="rgb(255, 165, 0)" style="fill-opacity:1.00" />
<rect height="0.266828" width="6.250000" x="553.750000" y="108.998370" fill="rgb(255, 165, 0)" style="fill-opacity:1.00" />
<!-- End 'G' -->
<!-- Begin 'C' -->
<ellipse cx="535.000000" cy="109.534511" rx="25.000000" ry="0.269313" fill="rgb(0, 0, 128)" style="fill-opacity:1.00" />
<ellipse cx="535.000000" cy="109.534511" rx="16.666667" ry="0.179542" fill="rgb(255, 255, 255)" style="fill-opacity:1.00" />
<rect height="0.269313" width="25.000000" x="535.000000" y="109.399854" fill="rgb(255, 255, 255)" style="fill-opacity:1.00" />
<!-- End 'C' -->
<!-- Begin 'T' -->
<rect height="0.031388" width="50.000000" x="510.000000" y="109.803824" fill="rgb(0, 100, 0)" style="fill-opacity:1.00" />
<rect height="0.196176" width="10.000000" x="530.000000" y="109.803824" fill="rgb(0, 100, 0)" style="fill-opacity:1.00" />
<!-- End 'T' -->
<!-- Begin 'A' -->
<polygon points=" 570.000000, 107.716080, 591.000000, 20.148019, 599.000000, 20.148019, 620.000000, 107.716080, 612.500000, 107.716080, 606.250000, 85.824065, 583.750000, 85.824065, 577.500000, 107.716080" fill="rgb(178, 34, 34)" style="fill-opacity:1.00" />
<polygon points=" 595.000000, 37.661631, 587.000000, 71.688856, 602.000000, 71.688856" fill="rgb(255, 255, 255)" style="fill-opacity:1.00" />
<!-- End 'A' -->
<!-- Begin 'G' -->
<ellipse cx="595.000000" cy="108.463646" rx="25.000000" ry="0.747566" fill="rgb(255, 165, 0)" style="fill-opacity:1.00" />
<ellipse cx="595.000000" cy="108.463646" rx="16.666667" ry="0.498378" fill="rgb(255, 255, 255)" style="fill-opacity:1.00" />
<rect height="0.747566" width="25.000000" x="595.000000" y="108.089863" fill="rgb(255, 255, 255)" style="fill-opacity:1.00" />
<rect height="0.186892" width="25.000000" x="595.000000" y="108.650538" fill="rgb(255, 165, 0)" style="fill-opacity:1.00" />
<rect height="0.560675" width="6.250000" x="613.750000" y="108.650538" fill="rgb(255, 165, 0)" style="fill-opacity:1.00" />
<!-- End 'G' -->
<!-- Begin 'T' -->
<rect height="0.077292" width="50.000000" x="570.000000" y="109.211213" fill="rgb(0, 100, 0)" style="fill-opacity:1.00" />
<rect height="0.483077" width="10.000000" x="590.000000" y="109.211213" fill="rgb(0, 100, 0)" style="fill-opacity:1.00" />
<!-- End 'T' -->
<!-- Begin 'C' -->
<ellipse cx="595.000000" cy="109.847145" rx="25.000000" ry="0.152855" fill="rgb(0, 0, 128)" style="fill-opacity:1.00" />
<ellipse cx="595.000000" cy="109.847145" rx="16.666667" ry="0.101903" fill="rgb(255, 255, 255)" style="fill-opacity:1.00" />
<rect height="0.152855" width="25.000000" x="595.000000" y="109.770718" fill="rgb(255, 255, 255)" style="fill-opacity:1.00" />
<!-- End 'C' -->
<!-- Begin 'A' -->
<polygon points=" 630.000000, 107.943543, 651.000000, 19.301886, 659.000000, 19.301886, 680.000000, 107.943543, 672.500000, 107.943543, 666.250000, 85.783129, 643.750000, 85.783129, 637.500000, 107.943543" fill="rgb(178, 34, 34)" style="fill-opacity:1.00" />
<polygon points=" 655.000000, 37.030217, 647.000000, 71.486880, 662.000000, 71.486880" fill="rgb(255, 255, 255)" style="fill-opacity:1.00" />
<!-- End 'A' -->
<!-- Begin 'G' -->
<ellipse cx="655.000000" cy="108.470026" rx="25.000000" ry="0.526483" fill="rgb(255, 165, 0)" style="fill-opacity:1.00" />
<ellipse cx="655.000000" cy="108.470026" rx="16.666667" ry="0.350989" fill="rgb(255, 255, 255)" style="fill-opacity:1.00" />
<rect height="0.526483" width="25.000000" x="655.000000" y="108.206785" fill="rgb(255, 255, 255)" style="fill-opacity:1.00" />
<rect height="0.131621" width="25.000000" x="655.000000" y="108.601647" fill="rgb(255, 165, 0)" style="fill-opacity:1.00" />
<rect height="0.394862" width="6.250000" x="673.750000" y="108.601647" fill="rgb(255, 165, 0)" style="fill-opacity:1.00" />
<!-- End 'G' -->
<!-- Begin 'T' -->
<rect height="0.133913" width="50.000000" x="630.000000" y="108.996510" fill="rgb(0, 100, 0)" style="fill-opacity:1.00" />
<rect height="0.836957" width="10.000000" x="650.000000" y="108.996510" fill="rgb(0, 100, 0)" style="fill-opacity:1.00" />
<!-- End 'T' -->
<!-- Begin 'C' -->
<ellipse cx="655.000000" cy="109.916733" rx="25.000000" ry="0.083267" fill="rgb(0, 0, 128)" style="fill-opacity:1.00" />
<ellipse cx="655.000000" cy="109.916733" rx="16.666667" ry="0.055511" fill="rgb(255, 255, 255)" style="fill-opacity:1.00" />
<rect height="0.083267" width="25.000000" x="655.000000" y="109.875100" fill="rgb(255, 255, 255)" style="fill-opacity:1.00" />
<!-- End 'C' -->
<!-- Begin 'G' -->
<ellipse cx="715.000000" cy="72.343625" rx="25.000000" ry="30.682723" fill="rgb(255, 165, 0)" style="fill-opacity:1.00" />
<ellipse cx="715.000000" cy="72.343625" rx="16.666667" ry="20.455149" fill="rgb(255, 255, 255)" style="fill-opacity:1.00" />
<rect height="30.682723" width="25.000000" x="715.000000" y="57.002264" fill="rgb(255, 255, 255)" style="fill-opacity:1.00" />
<rect height="7.670681" width="25.000000" x="715.000000" y="80.014306" fill="rgb(255, 165, 0)" style="fill-opacity:1.00" />
<rect height="23.012042" width="6.250000" x="733.750000" y="80.014306" fill="rgb(255, 165, 0)" style="fill-opacity:1.00" />
<!-- End 'G' -->
<!-- Begin 'T' -->
<rect height="0.436467" width="50.000000" x="690.000000" y="103.026349" fill="rgb(0, 100, 0)" style="fill-opacity:1.00" />
<rect height="2.727918" width="10.000000" x="710.000000" y="103.026349" fill="rgb(0, 100, 0)" style="fill-opacity:1.00" />
<!-- End 'T' -->
<!-- Begin 'A' -->
<polygon points=" 690.000000, 108.412693, 711.000000, 105.754266, 719.000000, 105.754266, 740.000000, 108.412693, 732.500000, 108.412693, 726.250000, 107.748086, 703.750000, 107.748086, 697.500000, 108.412693" fill="rgb(178, 34, 34)" style="fill-opacity:1.00" />
<!-- End 'A' -->
<!-- Begin 'C' -->
<ellipse cx="715.000000" cy="109.206346" rx="25.000000" ry="0.793654" fill="rgb(0, 0, 128)" style="fill-opacity:1.00" />
<ellipse cx="715.000000" cy="109.206346" rx="16.666667" ry="0.529102" fill="rgb(255, 255, 255)" style="fill-opacity:1.00" />
<rect height="0.793654" width="25.000000" x="715.000000" y="108.809520" fill="rgb(255, 255, 255)" style="fill-opacity:1.00" />
<!-- End 'C' -->
<!-- Begin 'G' -->
<ellipse cx="775.000000" cy="93.315274" rx="25.000000" ry="5.806896" fill="rgb(255, 165, 0)" style="fill-opacity:1.00" />
<ellipse cx="775.000000" cy="93.315274" rx="16.666667" ry="3.871264" fill="rgb(255, 255, 255)" style="fill-opacity:1.00" />
<rect height="5.806896" width="25.000000" x="775.000000" y="90.411826" fill="rgb(255, 255, 255)" style="fill-opacity:1.00" />
<rect height="1.451724" width="25.000000" x="775.000000" y="94.766998" fill="rgb(255, 165, 0)" style="fill-opacity:1.00" />
<rect height="4.355172" width="6.250000" x="793.750000" y="94.766998" fill="rgb(255, 165, 0)" style="fill-opacity:1.00" />
<!-- End 'G' -->
<!-- Begin 'A' -->
<polygon points=" 750.000000, 106.635775, 771.000000, 99.122170, 779.000000, 99.122170, 800.000000, 106.635775, 792.500000, 106.635775, 786.250000, 104.757374, 763.750000, 104.757374, 757.500000, 106.635775" fill="rgb(178, 34, 34)" style="fill-opacity:1.00" />
<!-- End 'A' -->
<!-- Begin 'T' -->
<rect height="0.408105" width="50.000000" x="750.000000" y="106.635775" fill="rgb(0, 100, 0)" style="fill-opacity:1.00" />
<rect height="2.550655" width="10.000000" x="770.000000" y="106.635775" fill="rgb(0, 100, 0)" style="fill-opacity:1.00" />
<!-- End 'T' -->
<!-- Begin 'C' -->
<ellipse cx="775.000000" cy="109.593215" rx="25.000000" ry="0.406785" fill="rgb(0, 0, 128)" style="fill-opacity:1.00" />
<ellipse cx="775.000000" cy="109.593215" rx="16.666667" ry="0.271190" fill="rgb(255, 255, 255)" style="fill-opacity:1.00" />
<rect height="0.406785" width="25.000000" x="775.000000" y="109.389823" fill="rgb(255, 255, 255)" style="fill-opacity:1.00" />
<!-- End 'C' -->
<!-- Begin 'T' -->
<rect height="0.591436" width="50.000000" x="810.000000" y="99.959649" fill="rgb(0, 100, 0)" style="fill-opacity:1.00" />
<rect height="3.696475" width="10.000000" x="830.000000" y="99.959649" fill="rgb(0, 100, 0)" style="fill-opacity:1.00" />
<!-- End 'T' -->
<!-- Begin 'C' -->
<ellipse cx="835.000000" cy="105.144876" rx="25.000000" ry="1.488752" fill="rgb(0, 0, 128)" style="fill-opacity:1.00" />
<ellipse cx="835.000000" cy="105.144876" rx="16.666667" ry="0.992501" fill="rgb(255, 255, 255)" style="fill-opacity:1.00" />
<rect height="1.488752" width="25.000000" x="835.000000" y="104.400500" fill="rgb(255, 255, 255)" style="fill-opacity:1.00" />
<!-- End 'C' -->
<!-- Begin 'A' -->
<polygon points=" 810.000000, 109.430782, 831.000000, 106.633627, 839.000000, 106.633627, 860.000000, 109.430782, 852.500000, 109.430782, 846.250000, 108.731494, 823.750000, 108.731494, 817.500000, 109.430782" fill="rgb(178, 34, 34)" style="fill-opacity:1.00" />
<!-- End 'A' -->
<!-- Begin 'G' -->
<ellipse cx="835.000000" cy="109.715391" rx="25.000000" ry="0.284609" fill="rgb(255, 165, 0)" style="fill-opacity:1.00" />
<ellipse cx="835.000000" cy="109.715391" rx="16.666667" ry="0.189739" fill="rgb(255, 255, 255)" style="fill-opacity:1.00" />
<rect height="0.284609" width="25.000000" x="835.000000" y="109.573087" fill="rgb(255, 255, 255)" style="fill-opacity:1.00" />
<rect height="0.071152" width="25.000000" x="835.000000" y="109.786543" fill="rgb(255, 165, 0)" style="fill-opacity:1.00" />
<rect height="0.213457" width="6.250000" x="853.750000" y="109.786543" fill="rgb(255, 165, 0)" style="fill-opacity:1.00" />
<!-- End 'G' -->
<!-- Begin 'A' -->
<polygon points=" 870.000000, 104.778008, 891.000000, 99.794484, 899.000000, 99.794484, 920.000000, 104.778008, 912.500000, 104.778008, 906.250000, 103.532127, 883.750000, 103.532127, 877.500000, 104.778008" fill="rgb(178, 34, 34)" style="fill-opacity:1.00" />
<!-- End 'A' -->
<!-- Begin 'T' -->
<rect height="0.358577" width="50.000000" x="870.000000" y="104.778008" fill="rgb(0, 100, 0)" style="fill-opacity:1.00" />
<rect height="2.241106" width="10.000000" x="890.000000" y="104.778008" fill="rgb(0, 100, 0)" style="fill-opacity:1.00" />
<!-- End 'T' -->
<!-- Begin 'C' -->
<ellipse cx="895.000000" cy="107.776145" rx="25.000000" ry="0.757032" fill="rgb(0, 0, 128)" style="fill-opacity:1.00" />
<ellipse cx="895.000000" cy="107.776145" rx="16.666667" ry="0.504688" fill="rgb(255, 255, 255)" style="fill-opacity:1.00" />
<rect height="0.757032" width="25.000000" x="895.000000" y="107.397630" fill="rgb(255, 255, 255)" style="fill-opacity:1.00" />
<!-- End 'C' -->
<!-- Begin 'G' -->
<ellipse cx="895.000000" cy="109.266588" rx="25.000000" ry="0.733412" fill="rgb(255, 165, 0)" style="fill-opacity:1.00" />
<ellipse cx="895.000000" cy="109.266588" rx="16.666667" ry="0.488941" fill="rgb(255, 255, 255)" style="fill-opacity:1.00" />
<rect height="0.733412" width="25.000000" x="895.000000" y="108.899883" fill="rgb(255, 255, 255)" style="fill-opacity:1.00" />
<rect height="0.183353" width="25.000000" x="895.000000" y="109.449941" fill="rgb(255, 165, 0)" style="fill-opacity:1.00" />
<rect height="0.550059" width="6.250000" x="913.750000" y="109.449941" fill="rgb(255, 165, 0)" style="fill-opacity:1.00" />
<!-- End 'G' -->
<!-- Begin 'A' -->
<polygon points=" 930.000000, 103.105399, 951.000000, 95.617483, 959.000000, 95.617483, 980.000000, 103.105399, 972.500000, 103.105399, 966.250000, 101.233420, 943.750000, 101.233420, 937.500000, 103.105399" fill="rgb(178, 34, 34)" style="fill-opacity:1.00" />
<!-- End 'A' -->
<!-- Begin 'T' -->
<rect height="0.535140" width="50.000000" x="930.000000" y="103.105399" fill="rgb(0, 100, 0)" style="fill-opacity:1.00" />
<rect height="3.344626" width="10.000000" x="950.000000" y="103.105399" fill="rgb(0, 100, 0)" style="fill-opacity:1.00" />
<!-- End 'T' -->
<!-- Begin 'G' -->
<ellipse cx="955.000000" cy="107.569571" rx="25.000000" ry="1.119547" fill="rgb(255, 165, 0)" style="fill-opacity:1.00" />
<ellipse cx="955.000000" cy="107.569571" rx="16.666667" ry="0.746364" fill="rgb(255, 255, 255)" style="fill-opacity:1.00" />
<rect height="1.119547" width="25.000000" x="955.000000" y="107.009798" fill="rgb(255, 255, 255)" style="fill-opacity:1.00" />
<rect height="0.279887" width="25.000000" x="955.000000" y="107.849458" fill="rgb(255, 165, 0)" style="fill-opacity:1.00" />
<rect height="0.839660" width="6.250000" x="973.750000" y="107.849458" fill="rgb(255, 165, 0)" style="fill-opacity:1.00" />
<!-- End 'G' -->
<!-- Begin 'C' -->
<ellipse cx="955.000000" cy="109.344559" rx="25.000000" ry="0.655441" fill="rgb(0, 0, 128)" style="fill-opacity:1.00" />
<ellipse cx="955.000000" cy="109.344559" rx="16.666667" ry="0.436961" fill="rgb(255, 255, 255)" style="fill-opacity:1.00" />
<rect height="0.655441" width="25.000000" x="955.000000" y="109.016839" fill="rgb(255, 255, 255)" style="fill-opacity:1.00" />
<!-- End 'C' -->
<!-- Begin 'A' -->
<polygon points=" 990.000000, 103.797441, 1011.000000, 98.212878, 1019.000000, 98.212878, 1040.000000, 103.797441, 1032.500000, 103.797441, 1026.250000, 102.401301, 1003.750000, 102.401301, 997.500000, 103.797441" fill="rgb(178, 34, 34)" style="fill-opacity:1.00" />
<!-- End 'A' -->
<!-- Begin 'T' -->
<rect height="0.530414" width="50.000000" x="990.000000" y="103.797441" fill="rgb(0, 100, 0)" style="fill-opacity:1.00" />
<rect height="3.315088" width="10.000000" x="1010.000000" y="103.797441" fill="rgb(0, 100, 0)" style="fill-opacity:1.00" />
<!-- End 'T' -->
<!-- Begin 'G' -->
<ellipse cx="1015.000000" cy="107.930421" rx="25.000000" ry="0.817892" fill="rgb(255, 165, 0)" style="fill-opacity:1.00" />
<ellipse cx="1015.000000" cy="107.930421" rx="16.666667" ry="0.545261" fill="rgb(255, 255, 255)" style="fill-opacity:1.00" />
<rect height="0.817892" width="25.000000" x="1015.000000" y="107.521476" fill="rgb(255, 255, 255)" style="fill-opacity:1.00" />
<rect height="0.204473" width="25.000000" x="1015.000000" y="108.134894" fill="rgb(255, 165, 0)" style="fill-opacity:1.00" />
<rect height="0.613419" width="6.250000" x="1033.750000" y="108.134894" fill="rgb(255, 165, 0)" style="fill-opacity:1.00" />
<!-- End 'G' -->
<!-- Begin 'C' -->
<ellipse cx="1015.000000" cy="109.374156" rx="25.000000" ry="0.625844" fill="rgb(0, 0, 128)" style="fill-opacity:1.00" />
<ellipse cx="1015.000000" cy="109.374156" rx="16.666667" ry="0.417229" fill="rgb(255, 255, 255)" style="fill-opacity:1.00" />
<rect height="0.625844" width="25.000000" x="1015.000000" y="109.061235" fill="rgb(255, 255, 255)" style="fill-opacity:1.00" />
<!-- End 'C' -->
<!-- Begin 'A' -->
<polygon points=" 1050.000000, 103.761577, 1071.000000, 98.643836, 1079.000000, 98.643836, 1100.000000, 103.761577, 1092.500000, 103.761577, 1086.250000, 102.482142, 1063.750000, 102.482142, 1057.500000, 103.761577" fill="rgb(178, 34, 34)" style="fill-opacity:1.00" />
<!-- End 'A' -->
<!-- Begin 'T' -->
<rect height="0.545193" width="50.000000" x="1050.000000" y="103.761577" fill="rgb(0, 100, 0)" style="fill-opacity:1.00" />
<rect height="3.407455" width="10.000000" x="1070.000000" y="103.761577" fill="rgb(0, 100, 0)" style="fill-opacity:1.00" />
<!-- End 'T' -->
<!-- Begin 'G' -->
<ellipse cx="1075.000000" cy="108.081933" rx="25.000000" ry="0.912901" fill="rgb(255, 165, 0)" style="fill-opacity:1.00" />
<ellipse cx="1075.000000" cy="108.081933" rx="16.666667" ry="0.608601" fill="rgb(255, 255, 255)" style="fill-opacity:1.00" />
<rect height="0.912901" width="25.000000" x="1075.000000" y="107.625483" fill="rgb(255, 255, 255)" style="fill-opacity:1.00" />
<rect height="0.228225" width="25.000000" x="1075.000000" y="108.310159" fill="rgb(255, 165, 0)" style="fill-opacity:1.00" />
<rect height="0.684676" width="6.250000" x="1093.750000" y="108.310159" fill="rgb(255, 165, 0)" style="fill-opacity:1.00" />
<!-- End 'G' -->
<!-- Begin 'C' -->
<ellipse cx="1075.000000" cy="109.497417" rx="25.000000" ry="0.502583" fill="rgb(0, 0, 128)" style="fill-opacity:1.00" />
<ellipse cx="1075.000000" cy="109.497417" rx="16.666667" ry="0.335055" fill="rgb(255, 255, 255)" style="fill-opacity:1.00" />
<rect height="0.502583" width="25.000000" x="1075.000000" y="109.246126" fill="rgb(255, 255, 255)" style="fill-opacity:1.00" />
<!-- End 'C' -->
<!-- Begin 'A' -->
<polygon points=" 1110.000000, 105.540064, 1131.000000, 102.283525, 1139.000000, 102.283525, 1160.000000, 105.540064, 1152.500000, 105.540064, 1146.250000, 104.725929, 1123.750000, 104.725929, 1117.500000, 105.540064" fill="rgb(178, 34, 34)" style="fill-opacity:1.00" />
<!-- End 'A' -->
<!-- Begin 'T' -->
<rect height="0.356119" width="50.000000" x="1110.000000" y="105.540064" fill="rgb(0, 100, 0)" style="fill-opacity:1.00" />
<rect height="2.225747" width="10.000000" x="1130.000000" y="105.540064" fill="rgb(0, 100, 0)" style="fill-opacity:1.00" />
<!-- End 'T' -->
<!-- Begin 'G' -->
<ellipse cx="1135.000000" cy="108.403649" rx="25.000000" ry="0.637838" fill="rgb(255, 165, 0)" style="fill-opacity:1.00" />
<ellipse cx="1135.000000" cy="108.403649" rx="16.666667" ry="0.425226" fill="rgb(255, 255, 255)" style="fill-opacity:1.00" />
<rect height="0.637838" width="25.000000" x="1135.000000" y="108.084730" fill="rgb(255, 255, 255)" style="fill-opacity:1.00" />
<rect height="0.159460" width="25.000000" x="1135.000000" y="108.563108" fill="rgb(255, 165, 0)" style="fill-opacity:1.00" />
<rect height="0.478379" width="6.250000" x="1153.750000" y="108.563108" fill="rgb(255, 165, 0)" style="fill-opacity:1.00" />
<!-- End 'G' -->
<!-- Begin 'C' -->
<ellipse cx="1135.000000" cy="109.520744" rx="25.000000" ry="0.479256" fill="rgb(0, 0, 128)" style="fill-opacity:1.00" />
<ellipse cx="1135.000000" cy="109.520744" rx="16.666667" ry="0.319504" fill="rgb(255, 255, 255)" style="fill-opacity:1.00" />
<rect height="0.479256" width="25.000000" x="1135.000000" y="109.281115" fill="rgb(255, 255, 255)" style="fill-opacity:1.00" />
<!-- End 'C' -->
<!-- Begin 'A' -->
<polygon points=" 1170.000000, 107.067950, 1191.000000, 105.194923, 1199.000000, 105.194923, 1220.000000, 107.067950, 1212.500000, 107.067950, 1206.250000, 106.599693, 1183.750000, 106.599693, 1177.500000, 107.067950" fill="rgb(178, 34, 34)" style="fill-opacity:1.00" />
<!-- End 'A' -->
<!-- Begin 'T' -->
<rect height="0.213311" width="50.000000" x="1170.000000" y="107.067950" fill="rgb(0, 100, 0)" style="fill-opacity:1.00" />
<rect height="1.333194" width="10.000000" x="1190.000000" y="107.067950" fill="rgb(0, 100, 0)" style="fill-opacity:1.00" />
<!-- End 'T' -->
<!-- Begin 'C' -->
<ellipse cx="1195.000000" cy="108.808846" rx="25.000000" ry="0.407702" fill="rgb(0, 0, 128)" style="fill-opacity:1.00" />
<ellipse cx="1195.000000" cy="108.808846" rx="16.666667" ry="0.271801" fill="rgb(255, 255, 255)" style="fill-opacity:1.00" />
<rect height="0.407702" width="25.000000" x="1195.000000" y="108.604995" fill="rgb(255, 255, 255)" style="fill-opacity:1.00" />
<!-- End 'C' -->
<!-- Begin 'G' -->
<ellipse cx="1195.000000" cy="109.608274" rx="25.000000" ry="0.391726" fill="rgb(255, 165, 0)" style="fill-opacity:1.00" />
<ellipse cx="1195.000000" cy="109.608274" rx="16.666667" ry="0.261151" fill="rgb(255, 255, 255)" style="fill-opacity:1.00" />
<rect height="0.391726" width="25.000000" x="1195.000000" y="109.412411" fill="rgb(255, 255, 255)" style="fill-opacity:1.00" />
<rect height="0.097932" width="25.000000" x="1195.000000" y="109.706205" fill="rgb(255, 165, 0)" style="fill-opacity:1.00" />
<rect height="0.293795" width="6.250000" x="1213.750000" y="109.706205" fill="rgb(255, 165, 0)" style="fill-opacity:1.00" />
<!-- End 'G' -->
<text x="640.000000" y="165">
IC = 11.46
</text>

</svg>
