<?xml version="1.0" encoding="UTF-8" standalone="yes"?>
                 <!DOCTYPE svg PUBLIC "-//W3C//DTD SVG 1.0//EN" "http://www.w3.org/TR/2001/REC-SVG-20010904/DTD/svg10.dtd">
                 <svg height="170" width="1200" xmlns="http://www.w3.org/2000/svg" xmlns:xlink="http://www.w3.org/1999/xlink">
                 <line x1="85" y1="120" x2="1167" y2="120" style="stroke:rgb(99,99,99);stroke-width:2" />
<rect height="7.000000" width="2.000000" x="85.000000" y="120.000000" fill="rgb(0, 0, 0)" style="fill-opacity:1.00" />
<text x="107.000000" y="140">
1
</text>
<rect height="7.000000" width="2.000000" x="145.000000" y="120.000000" fill="rgb(0, 0, 0)" style="fill-opacity:1.00" />
<text x="167.000000" y="140">
2
</text>
<rect height="7.000000" width="2.000000" x="205.000000" y="120.000000" fill="rgb(0, 0, 0)" style="fill-opacity:1.00" />
<text x="227.000000" y="140">
3
</text>
<rect height="7.000000" width="2.000000" x="265.000000" y="120.000000" fill="rgb(0, 0, 0)" style="fill-opacity:1.00" />
<text x="287.000000" y="140">
4
</text>
<rect height="7.000000" width="2.000000" x="325.000000" y="120.000000" fill="rgb(0, 0, 0)" style="fill-opacity:1.00" />
<text x="347.000000" y="140">
5
</text>
<rect height="7.000000" width="2.000000" x="385.000000" y="120.000000" fill="rgb(0, 0, 0)" style="fill-opacity:1.00" />
<text x="407.000000" y="140">
6
</text>
<rect height="7.000000" width="2.000000" x="445.000000" y="120.000000" fill="rgb(0, 0, 0)" style="fill-opacity:1.00" />
<text x="467.000000" y="140">
7
</text>
<rect height="7.000000" width="2.000000" x="505.000000" y="120.000000" fill="rgb(0, 0, 0)" style="fill-opacity:1.00" />
<text x="527.000000" y="140">
8
</text>
<rect height="7.000000" width="2.000000" x="565.000000" y="120.000000" fill="rgb(0, 0, 0)" style="fill-opacity:1.00" />
<text x="587.000000" y="140">
9
</text>
<rect height="7.000000" width="2.000000" x="625.000000" y="120.000000" fill="rgb(0, 0, 0)" style="fill-opacity:1.00" />
<text x="647.000000" y="140">
10
</text>
<rect height="7.000000" width="2.000000" x="685.000000" y="120.000000" fill="rgb(0, 0, 0)" style="fill-opacity:1.00" />
<text x="707.000000" y="140">
11
</text>
<rect height="7.000000" width="2.000000" x="745.000000" y="120.000000" fill="rgb(0, 0, 0)" style="fill-opacity:1.00" />
<text x="767.000000" y="140">
12
</text>
<rect height="7.000000" width="2.000000" x="805.000000" y="120.000000" fill="rgb(0, 0, 0)" style="fill-opacity:1.00" />
<text x="827.000000" y="140">
13
</text>
<rect height="7.000000" width="2.000000" x="865.000000" y="120.000000" fill="rgb(0, 0, 0)" style="fill-opacity:1.00" />
<text x="887.000000" y="140">
14
</text>
<rect height="7.000000" width="2.000000" x="925.000000" y="120.000000" fill="rgb(0, 0, 0)" style="fill-opacity:1.00" />
<text x="947.000000" y="140">
15
</text>
<rect height="7.000000" width="2.000000" x="985.000000" y="120.000000" fill="rgb(0, 0, 0)" style="fill-opacity:1.00" />
<text x="1007.000000" y="140">
16
</text>
<rect height="7.000000" width="2.000000" x="1045.000000" y="120.000000" fill="rgb(0, 0, 0)" style="fill-opacity:1.00" />
<text x="1067.000000" y="140">
17
</text>
<rect height="7.000000" width="2.000000" x="1105.000000" y="120.000000" fill="rgb(0, 0, 0)" style="fill-opacity:1.00" />
<text x="1127.000000" y="140">
18
</text>
<rect height="7.000000" width="2.000000" x="1165.000000" y="120.000000" fill="rgb(0, 0, 0)" style="fill-opacity:1.00" />
<line x1="80" y1="112" x2="80" y2="10" style="stroke:rgb(99,99,99);stroke-width:2" />
<rect height="2.000000" width="7.000000" x="73.000000" y="110.000000" fill="rgb(0, 0, 0)" style="fill-opacity:1.00" />
<text x="63" y="115">
0
</text>
<rect height="2.000000" width="7.000000" x="73.000000" y="60.000000" fill="rgb(0, 0, 0)" style="fill-opacity:1.00" />
<text x="63" y="65">
1
</text>
<rect height="2.000000" width="7.000000" x="73.000000" y="10.000000" fill="rgb(0, 0, 0)" style="fill-opacity:1.00" />
<text x="63" y="15">
2
</text>
<text x="50" y="65"
transform="rotate(-90, 50, 70)">
bits
</text>
<!-- Begin 'A' -->
<polygon points=" 90.000000, 100.901948, 111.000000, 93.947759, 119.000000, 93.947759, 140.000000, 100.901948, 132.500000, 100.901948, 126.250000, 99.163401, 103.750000, 99.163401, 97.500000, 100.901948" fill="rgb(178, 34, 34)" style="fill-opacity:1.00" />
<!-- End 'A' -->
<!-- Begin 'G' -->
<ellipse cx="115.000000" cy="103.926951" rx="25.000000" ry="3.025003" fill="rgb(255, 165, 0)" style="fill-opacity:1.00" />
<ellipse cx="115.000000" cy="103.926951" rx="16.666667" ry="2.016669" fill="rgb(255, 255, 255)" style="fill-opacity:1.00" />
<rect height="3.025003" width="25.000000" x="115.000000" y="102.414450" fill="rgb(255, 255, 255)" style="fill-opacity:1.00" />
<rect height="0.756251" width="25.000000" x="115.000000" y="104.683202" fill="rgb(255, 165, 0)" style="fill-opacity:1.00" />
<rect height="2.268752" width="6.250000" x="133.750000" y="104.683202" fill="rgb(255, 165, 0)" style="fill-opacity:1.00" />
<!-- End 'G' -->
<!-- Begin 'T' -->
<rect height="0.334612" width="50.000000" x="90.000000" y="106.951954" fill="rgb(0, 100, 0)" style="fill-opacity:1.00" />
<rect height="2.091326" width="10.000000" x="110.000000" y="106.951954" fill="rgb(0, 100, 0)" style="fill-opacity:1.00" />
<!-- End 'T' -->
<!-- Begin 'C' -->
<ellipse cx="115.000000" cy="109.521640" rx="25.000000" ry="0.478360" fill="rgb(0, 0, 128)" style="fill-opacity:1.00" />
<ellipse cx="115.000000" cy="109.521640" rx="16.666667" ry="0.318906" fill="rgb(255, 255, 255)" style="fill-opacity:1.00" />
<rect height="0.478360" width="25.000000" x="115.000000" y="109.282460" fill="rgb(255, 255, 255)" style="fill-opacity:1.00" />
<!-- End 'C' -->
<!-- Begin 'A' -->
<polygon points=" 150.000000, 91.726573, 171.000000, 63.883495, 179.000000, 63.883495, 200.000000, 91.726573, 192.500000, 91.726573, 186.250000, 84.765804, 163.750000, 84.765804, 157.500000, 91.726573" fill="rgb(178, 34, 34)" style="fill-opacity:1.00" />
<polygon points=" 175.000000, 69.452111, 167.000000, 79.589342, 182.000000, 79.589342" fill="rgb(255, 255, 255)" style="fill-opacity:1.00" />
<!-- End 'A' -->
<!-- Begin 'G' -->
<ellipse cx="175.000000" cy="94.949115" rx="25.000000" ry="3.222542" fill="rgb(255, 165, 0)" style="fill-opacity:1.00" />
<ellipse cx="175.000000" cy="94.949115" rx="16.666667" ry="2.148361" fill="rgb(255, 255, 255)" style="fill-opacity:1.00" />
<rect height="3.222542" width="25.000000" x="175.000000" y="93.337844" fill="rgb(255, 255, 255)" style="fill-opacity:1.00" />
<rect height="0.805635" width="25.000000" x="175.000000" y="95.754750" fill="rgb(255, 165, 0)" style="fill-opacity:1.00" />
<rect height="2.416906" width="6.250000" x="193.750000" y="95.754750" fill="rgb(255, 165, 0)" style="fill-opacity:1.00" />
<!-- End 'G' -->
<!-- Begin 'T' -->
<rect height="0.311821" width="50.000000" x="150.000000" y="98.171657" fill="rgb(0, 100, 0)" style="fill-opacity:1.00" />
<rect height="1.948883" width="10.000000" x="170.000000" y="98.171657" fill="rgb(0, 100, 0)" style="fill-opacity:1.00" />
<!-- End 'T' -->
<!-- Begin 'C' -->
<ellipse cx="175.000000" cy="100.275444" rx="25.000000" ry="0.154904" fill="rgb(0, 0, 128)" style="fill-opacity:1.00" />
<ellipse cx="175.000000" cy="100.275444" rx="16.666667" ry="0.103270" fill="rgb(255, 255, 255)" style="fill-opacity:1.00" />
<rect height="0.154904" width="25.000000" x="175.000000" y="100.197992" fill="rgb(255, 255, 255)" style="fill-opacity:1.00" />
<!-- End 'C' -->
<!-- Begin 'C' -->
<ellipse cx="235.000000" cy="64.378528" rx="25.000000" ry="37.023481" fill="rgb(0, 0, 128)" style="fill-opacity:1.00" />
<ellipse cx="235.000000" cy="64.378528" rx="16.666667" ry="24.682321" fill="rgb(255, 255, 255)" style="fill-opacity:1.00" />
<rect height="37.023481" width="25.000000" x="235.000000" y="45.866787" fill="rgb(255, 255, 255)" style="fill-opacity:1.00" />
<!-- End 'C' -->
<!-- Begin 'T' -->
<rect height="0.504226" width="50.000000" x="210.000000" y="101.402009" fill="rgb(0, 100, 0)" style="fill-opacity:1.00" />
<rect height="3.151415" width="10.000000" x="230.000000" y="101.402009" fill="rgb(0, 100, 0)" style="fill-opacity:1.00" />
<!-- End 'T' -->
<!-- Begin 'A' -->
<polygon points=" 210.000000, 104.726413, 231.000000, 104.553423, 239.000000, 104.553423, 260.000000, 104.726413, 252.500000, 104.726413, 246.250000, 104.683165, 223.750000, 104.683165, 217.500000, 104.726413" fill="rgb(178, 34, 34)" style="fill-opacity:1.00" />
<!-- End 'A' -->
<!-- Begin 'G' -->
<ellipse cx="235.000000" cy="104.752737" rx="25.000000" ry="0.026324" fill="rgb(255, 165, 0)" style="fill-opacity:1.00" />
<ellipse cx="235.000000" cy="104.752737" rx="16.666667" ry="0.017550" fill="rgb(255, 255, 255)" style="fill-opacity:1.00" />
<rect height="0.026324" width="25.000000" x="235.000000" y="104.739575" fill="rgb(255, 255, 255)" style="fill-opacity:1.00" />
<rect height="0.006581" width="25.000000" x="235.000000" y="104.759318" fill="rgb(255, 165, 0)" style="fill-opacity:1.00" />
<rect height="0.019743" width="6.250000" x="253.750000" y="104.759318" fill="rgb(255, 165, 0)" style="fill-opacity:1.00" />
<!-- End 'G' -->
<!-- Begin 'A' -->
<polygon points=" 270.000000, 89.178530, 291.000000, 51.866074, 299.000000, 51.866074, 320.000000, 89.178530, 312.500000, 89.178530, 306.250000, 79.850416, 283.750000, 79.850416, 277.500000, 89.178530" fill="rgb(178, 34, 34)" style="fill-opacity:1.00" />
<polygon points=" 295.000000, 59.328565, 287.000000, 73.253548, 302.000000, 73.253548" fill="rgb(255, 255, 255)" style="fill-opacity:1.00" />
<!-- End 'A' -->
<!-- Begin 'T' -->
<rect height="0.370248" width="50.000000" x="270.000000" y="89.178530" fill="rgb(0, 100, 0)" style="fill-opacity:1.00" />
<rect height="2.314048" width="10.000000" x="290.000000" y="89.178530" fill="rgb(0, 100, 0)" style="fill-opacity:1.00" />
<!-- End 'T' -->
<!-- Begin 'G' -->
<ellipse cx="295.000000" cy="92.515136" rx="25.000000" ry="1.022559" fill="rgb(255, 165, 0)" style="fill-opacity:1.00" />
<ellipse cx="295.000000" cy="92.515136" rx="16.666667" ry="0.681706" fill="rgb(255, 255, 255)" style="fill-opacity:1.00" />
<rect height="1.022559" width="25.000000" x="295.000000" y="92.003857" fill="rgb(255, 255, 255)" style="fill-opacity:1.00" />
<rect height="0.255640" width="25.000000" x="295.000000" y="92.770776" fill="rgb(255, 165, 0)" style="fill-opacity:1.00" />
<rect height="0.766919" width="6.250000" x="313.750000" y="92.770776" fill="rgb(255, 165, 0)" style="fill-opacity:1.00" />
<!-- End 'G' -->
<!-- Begin 'C' -->
<ellipse cx="295.000000" cy="93.858222" rx="25.000000" ry="0.320527" fill="rgb(0, 0, 128)" style="fill-opacity:1.00" />
<ellipse cx="295.000000" cy="93.858222" rx="16.666667" ry="0.213685" fill="rgb(255, 255, 255)" style="fill-opacity:1.00" />
<rect height="0.320527" width="25.000000" x="295.000000" y="93.697959" fill="rgb(255, 255, 255)" style="fill-opacity:1.00" />
<!-- End 'C' -->
<!-- Begin 'T' -->
<rect height="8.350484" width="50.000000" x="330.000000" y="43.903973" fill="rgb(0, 100, 0)" style="fill-opacity:1.00" />
<rect height="52.190527" width="10.000000" x="350.000000" y="43.903973" fill="rgb(0, 100, 0)" style="fill-opacity:1.00" />
<!-- End 'T' -->
<!-- Begin 'A' -->
<polygon points=" 330.000000, 100.820761, 351.000000, 96.094499, 359.000000, 96.094499, 380.000000, 100.820761, 372.500000, 100.820761, 366.250000, 99.639196, 343.750000, 99.639196, 337.500000, 100.820761" fill="rgb(178, 34, 34)" style="fill-opacity:1.00" />
<!-- End 'A' -->
<!-- Begin 'C' -->
<ellipse cx="355.000000" cy="101.338689" rx="25.000000" ry="0.517928" fill="rgb(0, 0, 128)" style="fill-opacity:1.00" />
<ellipse cx="355.000000" cy="101.338689" rx="16.666667" ry="0.345285" fill="rgb(255, 255, 255)" style="fill-opacity:1.00" />
<rect height="0.517928" width="25.000000" x="355.000000" y="101.079725" fill="rgb(255, 255, 255)" style="fill-opacity:1.00" />
<!-- End 'C' -->
<!-- Begin 'G' -->
<ellipse cx="355.000000" cy="102.047214" rx="25.000000" ry="0.190597" fill="rgb(255, 165, 0)" style="fill-opacity:1.00" />
<ellipse cx="355.000000" cy="102.047214" rx="16.666667" ry="0.127065" fill="rgb(255, 255, 255)" style="fill-opacity:1.00" />
<rect height="0.190597" width="25.000000" x="355.000000" y="101.951915" fill="rgb(255, 255, 255)" style="fill-opacity:1.00" />
<rect height="0.047649" width="25.000000" x="355.000000" y="102.094863" fill="rgb(255, 165, 0)" style="fill-opacity:1.00" />
<rect height="0.142948" width="6.250000" x="373.750000" y="102.094863" fill="rgb(255, 165, 0)" style="fill-opacity:1.00" />
<!-- End 'G' -->
<!-- Begin 'G' -->
<ellipse cx="415.000000" cy="60.673836" rx="25.000000" ry="52.742731" fill="rgb(255, 165, 0)" style="fill-opacity:1.00" />
<ellipse cx="415.000000" cy="60.673836" rx="16.666667" ry="35.161821" fill="rgb(255, 255, 255)" style="fill-opacity:1.00" />
<rect height="52.742731" width="25.000000" x="415.000000" y="34.302471" fill="rgb(255, 255, 255)" style="fill-opacity:1.00" />
<rect height="13.185683" width="25.000000" x="415.000000" y="73.859519" fill="rgb(255, 165, 0)" style="fill-opacity:1.00" />
<rect height="39.557048" width="6.250000" x="433.750000" y="73.859519" fill="rgb(255, 165, 0)" style="fill-opacity:1.00" />
<!-- End 'G' -->
<!-- Begin 'A' -->
<polygon points=" 390.000000, 113.463119, 411.000000, 113.416567, 419.000000, 113.416567, 440.000000, 113.463119, 432.500000, 113.463119, 426.250000, 113.451481, 403.750000, 113.451481, 397.500000, 113.463119" fill="rgb(178, 34, 34)" style="fill-opacity:1.00" />
<!-- End 'A' -->
<!-- Begin 'C' -->
<ellipse cx="415.000000" cy="113.470877" rx="25.000000" ry="0.007759" fill="rgb(0, 0, 128)" style="fill-opacity:1.00" />
<ellipse cx="415.000000" cy="113.470877" rx="16.666667" ry="0.005172" fill="rgb(255, 255, 255)" style="fill-opacity:1.00" />
<rect height="0.007759" width="25.000000" x="415.000000" y="113.466998" fill="rgb(255, 255, 255)" style="fill-opacity:1.00" />
<!-- End 'C' -->
<!-- Begin 'T' -->
<rect height="0.000828" width="50.000000" x="390.000000" y="113.478636" fill="rgb(0, 100, 0)" style="fill-opacity:1.00" />
<rect height="0.005172" width="10.000000" x="410.000000" y="113.478636" fill="rgb(0, 100, 0)" style="fill-opacity:1.00" />
<!-- End 'T' -->
<!-- Begin 'C' -->
<ellipse cx="475.000000" cy="78.125320" rx="25.000000" ry="17.675174" fill="rgb(0, 0, 128)" style="fill-opacity:1.00" />
<ellipse cx="475.000000" cy="78.125320" rx="16.666667" ry="11.783449" fill="rgb(255, 255, 255)" style="fill-opacity:1.00" />
<rect height="17.675174" width="25.000000" x="475.000000" y="69.287733" fill="rgb(255, 255, 255)" style="fill-opacity:1.00" />
<!-- End 'C' -->
<!-- Begin 'T' -->
<rect height="3.345617" width="50.000000" x="450.000000" y="95.800493" fill="rgb(0, 100, 0)" style="fill-opacity:1.00" />
<rect height="20.910105" width="10.000000" x="470.000000" y="95.800493" fill="rgb(0, 100, 0)" style="fill-opacity:1.00" />
<!-- End 'T' -->
<!-- Begin 'A' -->
<polygon points=" 450.000000, 117.431434, 471.000000, 116.710599, 479.000000, 116.710599, 500.000000, 117.431434, 492.500000, 117.431434, 486.250000, 117.251225, 463.750000, 117.251225, 457.500000, 117.431434" fill="rgb(178, 34, 34)" style="fill-opacity:1.00" />
<!-- End 'A' -->
<!-- Begin 'G' -->
<ellipse cx="475.000000" cy="117.593254" rx="25.000000" ry="0.161820" fill="rgb(255, 165, 0)" style="fill-opacity:1.00" />
<ellipse cx="475.000000" cy="117.593254" rx="16.666667" ry="0.107880" fill="rgb(255, 255, 255)" style="fill-opacity:1.00" />
<rect height="0.161820" width="25.000000" x="475.000000" y="117.512344" fill="rgb(255, 255, 255)" style="fill-opacity:1.00" />
<rect height="0.040455" width="25.000000" x="475.000000" y="117.633709" fill="rgb(255, 165, 0)" style="fill-opacity:1.00" />
<rect height="0.121365" width="6.250000" x="493.750000" y="117.633709" fill="rgb(255, 165, 0)" style="fill-opacity:1.00" />
<!-- End 'G' -->
<!-- Begin 'C' -->
<ellipse cx="535.000000" cy="81.257155" rx="25.000000" ry="38.724210" fill="rgb(0, 0, 128)" style="fill-opacity:1.00" />
<ellipse cx="535.000000" cy="81.257155" rx="16.666667" ry="25.816140" fill="rgb(255, 255, 255)" style="fill-opacity:1.00" />
<rect height="38.724210" width="25.000000" x="535.000000" y="61.895050" fill="rgb(255, 255, 255)" style="fill-opacity:1.00" />
<!-- End 'C' -->
<!-- Begin 'T' -->
<rect height="1.894567" width="50.000000" x="510.000000" y="119.981365" fill="rgb(0, 100, 0)" style="fill-opacity:1.00" />
<rect height="11.841047" width="10.000000" x="530.000000" y="119.981365" fill="rgb(0, 100, 0)" style="fill-opacity:1.00" />
<!-- End 'T' -->
<!-- Begin 'A' -->
<polygon points=" 510.000000, 137.328521, 531.000000, 131.822412, 539.000000, 131.822412, 560.000000, 137.328521, 552.500000, 137.328521, 546.250000, 135.951994, 523.750000, 135.951994, 517.500000, 137.328521" fill="rgb(178, 34, 34)" style="fill-opacity:1.00" />
<!-- End 'A' -->
<!-- Begin 'G' -->
<ellipse cx="535.000000" cy="138.264873" rx="25.000000" ry="0.936352" fill="rgb(255, 165, 0)" style="fill-opacity:1.00" />
<ellipse cx="535.000000" cy="138.264873" rx="16.666667" ry="0.624235" fill="rgb(255, 255, 255)" style="fill-opacity:1.00" />
<rect height="0.936352" width="25.000000" x="535.000000" y="137.796697" fill="rgb(255, 255, 255)" style="fill-opacity:1.00" />
<rect height="0.234088" width="25.000000" x="535.000000" y="138.498961" fill="rgb(255, 165, 0)" style="fill-opacity:1.00" />
<rect height="0.702264" width="6.250000" x="553.750000" y="138.498961" fill="rgb(255, 165, 0)" style="fill-opacity:1.00" />
<!-- End 'G' -->
<!-- Begin 'C' -->
<ellipse cx="595.000000" cy="92.612390" rx="25.000000" ry="16.607216" fill="rgb(0, 0, 128)" style="fill-opacity:1.00" />
<ellipse cx="595.000000" cy="92.612390" rx="16.666667" ry="11.071478" fill="rgb(255, 255, 255)" style="fill-opacity:1.00" />
<rect height="16.607216" width="25.000000" x="595.000000" y="84.308782" fill="rgb(255, 255, 255)" style="fill-opacity:1.00" />
<!-- End 'C' -->
<!-- Begin 'T' -->
<rect height="1.689249" width="50.000000" x="570.000000" y="109.219606" fill="rgb(0, 100, 0)" style="fill-opacity:1.00" />
<rect height="10.557804" width="10.000000" x="590.000000" y="109.219606" fill="rgb(0, 100, 0)" style="fill-opacity:1.00" />
<!-- End 'T' -->
<!-- Begin 'G' -->
<ellipse cx="595.000000" cy="122.786735" rx="25.000000" ry="3.009324" fill="rgb(255, 165, 0)" style="fill-opacity:1.00" />
<ellipse cx="595.000000" cy="122.786735" rx="16.666667" ry="2.006216" fill="rgb(255, 255, 255)" style="fill-opacity:1.00" />
<rect height="3.009324" width="25.000000" x="595.000000" y="121.282073" fill="rgb(255, 255, 255)" style="fill-opacity:1.00" />
<rect height="0.752331" width="25.000000" x="595.000000" y="123.539065" fill="rgb(255, 165, 0)" style="fill-opacity:1.00" />
<rect height="2.256993" width="6.250000" x="613.750000" y="123.539065" fill="rgb(255, 165, 0)" style="fill-opacity:1.00" />
<!-- End 'G' -->
<!-- Begin 'A' -->
<polygon points=" 570.000000, 129.001156, 591.000000, 125.796058, 599.000000, 125.796058, 620.000000, 129.001156, 612.500000, 129.001156, 606.250000, 128.199882, 583.750000, 128.199882, 577.500000, 129.001156" fill="rgb(178, 34, 34)" style="fill-opacity:1.00" />
<!-- End 'A' -->
<!-- Begin 'G' -->
<ellipse cx="655.000000" cy="96.651306" rx="25.000000" ry="10.726711" fill="rgb(255, 165, 0)" style="fill-opacity:1.00" />
<ellipse cx="655.000000" cy="96.651306" rx="16.666667" ry="7.151140" fill="rgb(255, 255, 255)" style="fill-opacity:1.00" />
<rect height="10.726711" width="25.000000" x="655.000000" y="91.287951" fill="rgb(255, 255, 255)" style="fill-opacity:1.00" />
<rect height="2.681678" width="25.000000" x="655.000000" y="99.332984" fill="rgb(255, 165, 0)" style="fill-opacity:1.00" />
<rect height="8.045033" width="6.250000" x="673.750000" y="99.332984" fill="rgb(255, 165, 0)" style="fill-opacity:1.00" />
<!-- End 'G' -->
<!-- Begin 'A' -->
<polygon points=" 630.000000, 115.679230, 651.000000, 107.378017, 659.000000, 107.378017, 680.000000, 115.679230, 672.500000, 115.679230, 666.250000, 113.603927, 643.750000, 113.603927, 637.500000, 115.679230" fill="rgb(178, 34, 34)" style="fill-opacity:1.00" />
<polygon points=" 655.000000, 109.038259, 647.000000, 111.358745, 662.000000, 111.358745" fill="rgb(255, 255, 255)" style="fill-opacity:1.00" />
<!-- End 'A' -->
<!-- Begin 'T' -->
<rect height="0.730645" width="50.000000" x="630.000000" y="115.679230" fill="rgb(0, 100, 0)" style="fill-opacity:1.00" />
<rect height="4.566529" width="10.000000" x="650.000000" y="115.679230" fill="rgb(0, 100, 0)" style="fill-opacity:1.00" />
<!-- End 'T' -->
<!-- Begin 'C' -->
<ellipse cx="655.000000" cy="121.835101" rx="25.000000" ry="1.589342" fill="rgb(0, 0, 128)" style="fill-opacity:1.00" />
<ellipse cx="655.000000" cy="121.835101" rx="16.666667" ry="1.059561" fill="rgb(255, 255, 255)" style="fill-opacity:1.00" />
<rect height="1.589342" width="25.000000" x="655.000000" y="121.040430" fill="rgb(255, 255, 255)" style="fill-opacity:1.00" />
<!-- End 'C' -->
<!-- Begin 'G' -->
<ellipse cx="715.000000" cy="90.889789" rx="25.000000" ry="75.529084" fill="rgb(255, 165, 0)" style="fill-opacity:1.00" />
<ellipse cx="715.000000" cy="90.889789" rx="16.666667" ry="50.352723" fill="rgb(255, 255, 255)" style="fill-opacity:1.00" />
<rect height="75.529084" width="25.000000" x="715.000000" y="53.125247" fill="rgb(255, 255, 255)" style="fill-opacity:1.00" />
<rect height="18.882271" width="25.000000" x="715.000000" y="109.772060" fill="rgb(255, 165, 0)" style="fill-opacity:1.00" />
<rect height="56.646813" width="6.250000" x="733.750000" y="109.772060" fill="rgb(255, 165, 0)" style="fill-opacity:1.00" />
<!-- End 'G' -->
<!-- Begin 'A' -->
<polygon points=" 690.000000, 196.762547, 711.000000, 166.418874, 719.000000, 166.418874, 740.000000, 196.762547, 732.500000, 196.762547, 726.250000, 189.176629, 703.750000, 189.176629, 697.500000, 196.762547" fill="rgb(178, 34, 34)" style="fill-opacity:1.00" />
<polygon points=" 715.000000, 172.487608, 707.000000, 183.625078, 722.000000, 183.625078" fill="rgb(255, 255, 255)" style="fill-opacity:1.00" />
<!-- End 'A' -->
<!-- Begin 'T' -->
<rect height="2.095025" width="50.000000" x="690.000000" y="196.762547" fill="rgb(0, 100, 0)" style="fill-opacity:1.00" />
<rect height="13.093909" width="10.000000" x="710.000000" y="196.762547" fill="rgb(0, 100, 0)" style="fill-opacity:1.00" />
<!-- End 'T' -->
<!-- Begin 'C' -->
<ellipse cx="715.000000" cy="213.060104" rx="25.000000" ry="3.203649" fill="rgb(0, 0, 128)" style="fill-opacity:1.00" />
<ellipse cx="715.000000" cy="213.060104" rx="16.666667" ry="2.135766" fill="rgb(255, 255, 255)" style="fill-opacity:1.00" />
<rect height="3.203649" width="25.000000" x="715.000000" y="211.458280" fill="rgb(255, 255, 255)" style="fill-opacity:1.00" />
<!-- End 'C' -->
<!-- Begin 'G' -->
<ellipse cx="775.000000" cy="68.863057" rx="25.000000" ry="47.837613" fill="rgb(255, 165, 0)" style="fill-opacity:1.00" />
<ellipse cx="775.000000" cy="68.863057" rx="16.666667" ry="31.891742" fill="rgb(255, 255, 255)" style="fill-opacity:1.00" />
<rect height="47.837613" width="25.000000" x="775.000000" y="44.944251" fill="rgb(255, 255, 255)" style="fill-opacity:1.00" />
<rect height="11.959403" width="25.000000" x="775.000000" y="80.822460" fill="rgb(255, 165, 0)" style="fill-opacity:1.00" />
<rect height="35.878209" width="6.250000" x="793.750000" y="80.822460" fill="rgb(255, 165, 0)" style="fill-opacity:1.00" />
<!-- End 'G' -->
<!-- Begin 'A' -->
<polygon points=" 750.000000, 193.754906, 771.000000, 116.700670, 779.000000, 116.700670, 800.000000, 193.754906, 792.500000, 193.754906, 786.250000, 174.491347, 763.750000, 174.491347, 757.500000, 193.754906" fill="rgb(178, 34, 34)" style="fill-opacity:1.00" />
<polygon points=" 775.000000, 132.111517, 767.000000, 161.933212, 782.000000, 161.933212" fill="rgb(255, 255, 255)" style="fill-opacity:1.00" />
<!-- End 'A' -->
<!-- Begin 'T' -->
<rect height="0.331425" width="50.000000" x="750.000000" y="193.754906" fill="rgb(0, 100, 0)" style="fill-opacity:1.00" />
<rect height="2.071409" width="10.000000" x="770.000000" y="193.754906" fill="rgb(0, 100, 0)" style="fill-opacity:1.00" />
<!-- End 'T' -->
<!-- Begin 'C' -->
<ellipse cx="775.000000" cy="195.972723" rx="25.000000" ry="0.146408" fill="rgb(0, 0, 128)" style="fill-opacity:1.00" />
<ellipse cx="775.000000" cy="195.972723" rx="16.666667" ry="0.097606" fill="rgb(255, 255, 255)" style="fill-opacity:1.00" />
<rect height="0.146408" width="25.000000" x="775.000000" y="195.899519" fill="rgb(255, 255, 255)" style="fill-opacity:1.00" />
<!-- End 'C' -->
<!-- Begin 'C' -->
<ellipse cx="835.000000" cy="130.789048" rx="25.000000" ry="243.666665" fill="rgb(0, 0, 128)" style="fill-opacity:1.00" />
<ellipse cx="835.000000" cy="130.789048" rx="16.666667" ry="162.444444" fill="rgb(255, 255, 255)" style="fill-opacity:1.00" />
<rect height="243.666665" width="25.000000" x="835.000000" y="8.955715" fill="rgb(255, 255, 255)" style="fill-opacity:1.00" />
<!-- End 'C' -->
<!-- Begin 'G' -->
<ellipse cx="835.000000" cy="374.518673" rx="25.000000" ry="0.062960" fill="rgb(255, 165, 0)" style="fill-opacity:1.00" />
<ellipse cx="835.000000" cy="374.518673" rx="16.666667" ry="0.041973" fill="rgb(255, 255, 255)" style="fill-opacity:1.00" />
<rect height="0.062960" width="25.000000" x="835.000000" y="374.487193" fill="rgb(255, 255, 255)" style="fill-opacity:1.00" />
<rect height="0.015740" width="25.000000" x="835.000000" y="374.534413" fill="rgb(255, 165, 0)" style="fill-opacity:1.00" />
<rect height="0.047220" width="6.250000" x="853.750000" y="374.534413" fill="rgb(255, 165, 0)" style="fill-opacity:1.00" />
<!-- End 'G' -->
<!-- Begin 'T' -->
<rect height="0.008059" width="50.000000" x="810.000000" y="374.581632" fill="rgb(0, 100, 0)" style="fill-opacity:1.00" />
<rect height="0.050368" width="10.000000" x="830.000000" y="374.581632" fill="rgb(0, 100, 0)" style="fill-opacity:1.00" />
<!-- End 'T' -->
<!-- Begin 'A' -->
<polygon points=" 810.000000, 374.657184, 831.000000, 374.632000, 839.000000, 374.632000, 860.000000, 374.657184, 852.500000, 374.657184, 846.250000, 374.650888, 823.750000, 374.650888, 817.500000, 374.657184" fill="rgb(178, 34, 34)" style="fill-opacity:1.00" />
<!-- End 'A' -->
<!-- Begin 'A' -->
<polygon points=" 870.000000, 186.733976, 891.000000, -13.067804, 899.000000, -13.067804, 920.000000, 186.733976, 912.500000, 186.733976, 906.250000, 136.783531, 883.750000, 136.783531, 877.500000, 186.733976" fill="rgb(178, 34, 34)" style="fill-opacity:1.00" />
<polygon points=" 895.000000, 26.892552, 887.000000, 105.813264, 902.000000, 105.813264" fill="rgb(255, 255, 255)" style="fill-opacity:1.00" />
<!-- End 'A' -->
<!-- Begin 'T' -->
<rect height="2.858993" width="50.000000" x="870.000000" y="186.733976" fill="rgb(0, 100, 0)" style="fill-opacity:1.00" />
<rect height="17.868703" width="10.000000" x="890.000000" y="186.733976" fill="rgb(0, 100, 0)" style="fill-opacity:1.00" />
<!-- End 'T' -->
<!-- Begin 'C' -->
<ellipse cx="895.000000" cy="206.542577" rx="25.000000" ry="1.939898" fill="rgb(0, 0, 128)" style="fill-opacity:1.00" />
<ellipse cx="895.000000" cy="206.542577" rx="16.666667" ry="1.293265" fill="rgb(255, 255, 255)" style="fill-opacity:1.00" />
<rect height="1.939898" width="25.000000" x="895.000000" y="205.572628" fill="rgb(255, 255, 255)" style="fill-opacity:1.00" />
<!-- End 'C' -->
<!-- Begin 'G' -->
<ellipse cx="895.000000" cy="209.703607" rx="25.000000" ry="1.221131" fill="rgb(255, 165, 0)" style="fill-opacity:1.00" />
<ellipse cx="895.000000" cy="209.703607" rx="16.666667" ry="0.814087" fill="rgb(255, 255, 255)" style="fill-opacity:1.00" />
<rect height="1.221131" width="25.000000" x="895.000000" y="209.093041" fill="rgb(255, 255, 255)" style="fill-opacity:1.00" />
<rect height="0.305283" width="25.000000" x="895.000000" y="210.008889" fill="rgb(255, 165, 0)" style="fill-opacity:1.00" />
<rect height="0.915848" width="6.250000" x="913.750000" y="210.008889" fill="rgb(255, 165, 0)" style="fill-opacity:1.00" />
<!-- End 'G' -->
<!-- Begin 'T' -->
<rect height="46.056521" width="50.000000" x="930.000000" y="-44.179784" fill="rgb(0, 100, 0)" style="fill-opacity:1.00" />
<rect height="287.853254" width="10.000000" x="950.000000" y="-44.179784" fill="rgb(0, 100, 0)" style="fill-opacity:1.00" />
<!-- End 'T' -->
<!-- Begin 'A' -->
<polygon points=" 930.000000, 273.095247, 951.000000, 243.673470, 959.000000, 243.673470, 980.000000, 273.095247, 972.500000, 273.095247, 966.250000, 265.739803, 943.750000, 265.739803, 937.500000, 273.095247" fill="rgb(178, 34, 34)" style="fill-opacity:1.00" />
<polygon points=" 955.000000, 249.557826, 947.000000, 260.326536, 962.000000, 260.326536" fill="rgb(255, 255, 255)" style="fill-opacity:1.00" />
<!-- End 'A' -->
<!-- Begin 'C' -->
<ellipse cx="955.000000" cy="274.053952" rx="25.000000" ry="0.958705" fill="rgb(0, 0, 128)" style="fill-opacity:1.00" />
<ellipse cx="955.000000" cy="274.053952" rx="16.666667" ry="0.639137" fill="rgb(255, 255, 255)" style="fill-opacity:1.00" />
<rect height="0.958705" width="25.000000" x="955.000000" y="273.574600" fill="rgb(255, 255, 255)" style="fill-opacity:1.00" />
<!-- End 'C' -->
<!-- Begin 'G' -->
<ellipse cx="955.000000" cy="275.737729" rx="25.000000" ry="0.725071" fill="rgb(255, 165, 0)" style="fill-opacity:1.00" />
<ellipse cx="955.000000" cy="275.737729" rx="16.666667" ry="0.483381" fill="rgb(255, 255, 255)" style="fill-opacity:1.00" />
<rect height="0.725071" width="25.000000" x="955.000000" y="275.375193" fill="rgb(255, 255, 255)" style="fill-opacity:1.00" />
<rect height="0.181268" width="25.000000" x="955.000000" y="275.918996" fill="rgb(255, 165, 0)" style="fill-opacity:1.00" />
<rect height="0.543803" width="6.250000" x="973.750000" y="275.918996" fill="rgb(255, 165, 0)" style="fill-opacity:1.00" />
<!-- End 'G' -->
<!-- Begin 'G' -->
<ellipse cx="1015.000000" cy="165.666756" rx="25.000000" ry="300.947816" fill="rgb(255, 165, 0)" style="fill-opacity:1.00" />
<ellipse cx="1015.000000" cy="165.666756" rx="16.666667" ry="200.631878" fill="rgb(255, 255, 255)" style="fill-opacity:1.00" />
<rect height="300.947816" width="25.000000" x="1015.000000" y="15.192847" fill="rgb(255, 255, 255)" style="fill-opacity:1.00" />
<rect height="75.236954" width="25.000000" x="1015.000000" y="240.903710" fill="rgb(255, 165, 0)" style="fill-opacity:1.00" />
<rect height="225.710862" width="6.250000" x="1033.750000" y="240.903710" fill="rgb(255, 165, 0)" style="fill-opacity:1.00" />
<!-- End 'G' -->
<!-- Begin 'A' -->
<polygon points=" 990.000000, 476.221471, 1011.000000, 466.614572, 1019.000000, 466.614572, 1040.000000, 476.221471, 1032.500000, 476.221471, 1026.250000, 473.819746, 1003.750000, 473.819746, 997.500000, 476.221471" fill="rgb(178, 34, 34)" style="fill-opacity:1.00" />
<polygon points=" 1015.000000, 468.535952, 1007.000000, 471.378711, 1022.000000, 471.378711" fill="rgb(255, 255, 255)" style="fill-opacity:1.00" />
<!-- End 'A' -->
<!-- Begin 'T' -->
<rect height="0.323354" width="50.000000" x="990.000000" y="476.221471" fill="rgb(0, 100, 0)" style="fill-opacity:1.00" />
<rect height="2.020963" width="10.000000" x="1010.000000" y="476.221471" fill="rgb(0, 100, 0)" style="fill-opacity:1.00" />
<!-- End 'T' -->
<!-- Begin 'C' -->
<ellipse cx="1015.000000" cy="478.740353" rx="25.000000" ry="0.497919" fill="rgb(0, 0, 128)" style="fill-opacity:1.00" />
<ellipse cx="1015.000000" cy="478.740353" rx="16.666667" ry="0.331946" fill="rgb(255, 255, 255)" style="fill-opacity:1.00" />
<rect height="0.497919" width="25.000000" x="1015.000000" y="478.491393" fill="rgb(255, 255, 255)" style="fill-opacity:1.00" />
<!-- End 'C' -->
<!-- Begin 'T' -->
<rect height="92.756214" width="50.000000" x="1050.000000" y="-115.641230" fill="rgb(0, 100, 0)" style="fill-opacity:1.00" />
<rect height="579.726338" width="10.000000" x="1070.000000" y="-115.641230" fill="rgb(0, 100, 0)" style="fill-opacity:1.00" />
<!-- End 'T' -->
<!-- Begin 'C' -->
<ellipse cx="1075.000000" cy="518.276212" rx="25.000000" ry="54.191104" fill="rgb(0, 0, 128)" style="fill-opacity:1.00" />
<ellipse cx="1075.000000" cy="518.276212" rx="16.666667" ry="36.127403" fill="rgb(255, 255, 255)" style="fill-opacity:1.00" />
<rect height="54.191104" width="25.000000" x="1075.000000" y="491.180660" fill="rgb(255, 255, 255)" style="fill-opacity:1.00" />
<!-- End 'C' -->
<!-- Begin 'A' -->
<polygon points=" 1050.000000, 601.031660, 1071.000000, 572.467316, 1079.000000, 572.467316, 1100.000000, 601.031660, 1092.500000, 601.031660, 1086.250000, 593.890574, 1063.750000, 593.890574, 1057.500000, 601.031660" fill="rgb(178, 34, 34)" style="fill-opacity:1.00" />
<polygon points=" 1075.000000, 578.180185, 1067.000000, 588.605923, 1082.000000, 588.605923" fill="rgb(255, 255, 255)" style="fill-opacity:1.00" />
<!-- End 'A' -->
<!-- Begin 'G' -->
<ellipse cx="1075.000000" cy="602.930540" rx="25.000000" ry="1.898880" fill="rgb(255, 165, 0)" style="fill-opacity:1.00" />
<ellipse cx="1075.000000" cy="602.930540" rx="16.666667" ry="1.265920" fill="rgb(255, 255, 255)" style="fill-opacity:1.00" />
<rect height="1.898880" width="25.000000" x="1075.000000" y="601.981100" fill="rgb(255, 255, 255)" style="fill-opacity:1.00" />
<rect height="0.474720" width="25.000000" x="1075.000000" y="603.405260" fill="rgb(255, 165, 0)" style="fill-opacity:1.00" />
<rect height="1.424160" width="6.250000" x="1093.750000" y="603.405260" fill="rgb(255, 165, 0)" style="fill-opacity:1.00" />
<!-- End 'G' -->
<!-- Begin 'C' -->
<ellipse cx="1135.000000" cy="81.668362" rx="25.000000" ry="150.848867" fill="rgb(0, 0, 128)" style="fill-opacity:1.00" />
<ellipse cx="1135.000000" cy="81.668362" rx="16.666667" ry="100.565912" fill="rgb(255, 255, 255)" style="fill-opacity:1.00" />
<rect height="150.848867" width="25.000000" x="1135.000000" y="6.243929" fill="rgb(255, 255, 255)" style="fill-opacity:1.00" />
<!-- End 'C' -->
<!-- Begin 'T' -->
<rect height="47.940506" width="50.000000" x="1110.000000" y="232.517230" fill="rgb(0, 100, 0)" style="fill-opacity:1.00" />
<rect height="299.628162" width="10.000000" x="1130.000000" y="232.517230" fill="rgb(0, 100, 0)" style="fill-opacity:1.00" />
<!-- End 'T' -->
<!-- Begin 'A' -->
<polygon points=" 1110.000000, 580.533976, 1131.000000, 532.145391, 1139.000000, 532.145391, 1160.000000, 580.533976, 1152.500000, 580.533976, 1146.250000, 568.436830, 1123.750000, 568.436830, 1117.500000, 580.533976" fill="rgb(178, 34, 34)" style="fill-opacity:1.00" />
<polygon points=" 1135.000000, 541.823108, 1127.000000, 560.178542, 1142.000000, 560.178542" fill="rgb(255, 255, 255)" style="fill-opacity:1.00" />
<!-- End 'A' -->
<!-- Begin 'G' -->
<ellipse cx="1135.000000" cy="594.101176" rx="25.000000" ry="13.567200" fill="rgb(255, 165, 0)" style="fill-opacity:1.00" />
<ellipse cx="1135.000000" cy="594.101176" rx="16.666667" ry="9.044800" fill="rgb(255, 255, 255)" style="fill-opacity:1.00" />
<rect height="13.567200" width="25.000000" x="1135.000000" y="587.317576" fill="rgb(255, 255, 255)" style="fill-opacity:1.00" />
<rect height="3.391800" width="25.000000" x="1135.000000" y="597.492976" fill="rgb(255, 165, 0)" style="fill-opacity:1.00" />
<rect height="10.175400" width="6.250000" x="1153.750000" y="597.492976" fill="rgb(255, 165, 0)" style="fill-opacity:1.00" />
<!-- End 'G' -->
<text x="610.000000" y="165">
IC = 37.60
</text>

</svg>
