<?xml version="1.0" encoding="UTF-8" standalone="yes"?>
                 <!DOCTYPE svg PUBLIC "-//W3C//DTD SVG 1.0//EN" "http://www.w3.org/TR/2001/REC-SVG-20010904/DTD/svg10.dtd">
                 <svg height="170" width="720" xmlns="http://www.w3.org/2000/svg" xmlns:xlink="http://www.w3.org/1999/xlink">
                 <line x1="85" y1="120" x2="687" y2="120" style="stroke:rgb(99,99,99);stroke-width:2" />
<rect height="7.000000" width="2.000000" x="85.000000" y="120.000000" fill="rgb(0, 0, 0)" style="fill-opacity:1.00" />
<text x="107.000000" y="140">
1
</text>
<rect height="7.000000" width="2.000000" x="145.000000" y="120.000000" fill="rgb(0, 0, 0)" style="fill-opacity:1.00" />
<text x="167.000000" y="140">
2
</text>
<rect height="7.000000" width="2.000000" x="205.000000" y="120.000000" fill="rgb(0, 0, 0)" style="fill-opacity:1.00" />
<text x="227.000000" y="140">
3
</text>
<rect height="7.000000" width="2.000000" x="265.000000" y="120.000000" fill="rgb(0, 0, 0)" style="fill-opacity:1.00" />
<text x="287.000000" y="140">
4
</text>
<rect height="7.000000" width="2.000000" x="325.000000" y="120.000000" fill="rgb(0, 0, 0)" style="fill-opacity:1.00" />
<text x="347.000000" y="140">
5
</text>
<rect height="7.000000" width="2.000000" x="385.000000" y="120.000000" fill="rgb(0, 0, 0)" style="fill-opacity:1.00" />
<text x="407.000000" y="140">
6
</text>
<rect height="7.000000" width="2.000000" x="445.000000" y="120.000000" fill="rgb(0, 0, 0)" style="fill-opacity:1.00" />
<text x="467.000000" y="140">
7
</text>
<rect height="7.000000" width="2.000000" x="505.000000" y="120.000000" fill="rgb(0, 0, 0)" style="fill-opacity:1.00" />
<text x="527.000000" y="140">
8
</text>
<rect height="7.000000" width="2.000000" x="565.000000" y="120.000000" fill="rgb(0, 0, 0)" style="fill-opacity:1.00" />
<text x="587.000000" y="140">
9
</text>
<rect height="7.000000" width="2.000000" x="625.000000" y="120.000000" fill="rgb(0, 0, 0)" style="fill-opacity:1.00" />
<text x="647.000000" y="140">
10
</text>
<rect height="7.000000" width="2.000000" x="685.000000" y="120.000000" fill="rgb(0, 0, 0)" style="fill-opacity:1.00" />
<line x1="80" y1="112" x2="80" y2="10" style="stroke:rgb(99,99,99);stroke-width:2" />
<rect height="2.000000" width="7.000000" x="73.000000" y="110.000000" fill="rgb(0, 0, 0)" style="fill-opacity:1.00" />
<text x="63" y="115">
0
</text>
<rect height="2.000000" width="7.000000" x="73.000000" y="60.000000" fill="rgb(0, 0, 0)" style="fill-opacity:1.00" />
<text x="63" y="65">
1
</text>
<rect height="2.000000" width="7.000000" x="73.000000" y="10.000000" fill="rgb(0, 0, 0)" style="fill-opacity:1.00" />
<text x="63" y="15">
2
</text>
<text x="50" y="65"
transform="rotate(-90, 50, 70)">
bits
</text>
<!-- Begin 'A' -->
<polygon points=" 90.000000, 105.936805, 111.000000, 103.500717, 119.000000, 103.500717, 140.000000, 105.936805, 132.500000, 105.936805, 126.250000, 105.327783, 103.750000, 105.327783, 97.500000, 105.936805" fill="rgb(178, 34, 34)" style="fill-opacity:1.00" />
<!-- End 'A' -->
<!-- Begin 'G' -->
<ellipse cx="115.000000" cy="107.005966" rx="25.000000" ry="1.069160" fill="rgb(255, 165, 0)" style="fill-opacity:1.00" />
<ellipse cx="115.000000" cy="107.005966" rx="16.666667" ry="0.712774" fill="rgb(255, 255, 255)" style="fill-opacity:1.00" />
<rect height="1.069160" width="25.000000" x="115.000000" y="106.471385" fill="rgb(255, 255, 255)" style="fill-opacity:1.00" />
<rect height="0.267290" width="25.000000" x="115.000000" y="107.273256" fill="rgb(255, 165, 0)" style="fill-opacity:1.00" />
<rect height="0.801870" width="6.250000" x="133.750000" y="107.273256" fill="rgb(255, 165, 0)" style="fill-opacity:1.00" />
<!-- End 'G' -->
<!-- Begin 'C' -->
<ellipse cx="115.000000" cy="108.625191" rx="25.000000" ry="0.550065" fill="rgb(0, 0, 128)" style="fill-opacity:1.00" />
<ellipse cx="115.000000" cy="108.625191" rx="16.666667" ry="0.366710" fill="rgb(255, 255, 255)" style="fill-opacity:1.00" />
<rect height="0.550065" width="25.000000" x="115.000000" y="108.350159" fill="rgb(255, 255, 255)" style="fill-opacity:1.00" />
<!-- End 'C' -->
<!-- Begin 'T' -->
<rect height="0.131959" width="50.000000" x="90.000000" y="109.175257" fill="rgb(0, 100, 0)" style="fill-opacity:1.00" />
<rect height="0.824743" width="10.000000" x="110.000000" y="109.175257" fill="rgb(0, 100, 0)" style="fill-opacity:1.00" />
<!-- End 'T' -->
<!-- Begin 'C' -->
<ellipse cx="175.000000" cy="83.264416" rx="25.000000" ry="14.737666" fill="rgb(0, 0, 128)" style="fill-opacity:1.00" />
<ellipse cx="175.000000" cy="83.264416" rx="16.666667" ry="9.825111" fill="rgb(255, 255, 255)" style="fill-opacity:1.00" />
<rect height="14.737666" width="25.000000" x="175.000000" y="75.895583" fill="rgb(255, 255, 255)" style="fill-opacity:1.00" />
<!-- End 'C' -->
<!-- Begin 'G' -->
<ellipse cx="175.000000" cy="102.163525" rx="25.000000" ry="4.161443" fill="rgb(255, 165, 0)" style="fill-opacity:1.00" />
<ellipse cx="175.000000" cy="102.163525" rx="16.666667" ry="2.774295" fill="rgb(255, 255, 255)" style="fill-opacity:1.00" />
<rect height="4.161443" width="25.000000" x="175.000000" y="100.082804" fill="rgb(255, 255, 255)" style="fill-opacity:1.00" />
<rect height="1.040361" width="25.000000" x="175.000000" y="103.203886" fill="rgb(255, 165, 0)" style="fill-opacity:1.00" />
<rect height="3.121082" width="6.250000" x="193.750000" y="103.203886" fill="rgb(255, 165, 0)" style="fill-opacity:1.00" />
<!-- End 'G' -->
<!-- Begin 'A' -->
<polygon points=" 150.000000, 109.577819, 171.000000, 106.324968, 179.000000, 106.324968, 200.000000, 109.577819, 192.500000, 109.577819, 186.250000, 108.764606, 163.750000, 108.764606, 157.500000, 109.577819" fill="rgb(178, 34, 34)" style="fill-opacity:1.00" />
<!-- End 'A' -->
<!-- Begin 'T' -->
<rect height="0.067549" width="50.000000" x="150.000000" y="109.577819" fill="rgb(0, 100, 0)" style="fill-opacity:1.00" />
<rect height="0.422181" width="10.000000" x="170.000000" y="109.577819" fill="rgb(0, 100, 0)" style="fill-opacity:1.00" />
<!-- End 'T' -->
<!-- Begin 'A' -->
<polygon points=" 210.000000, 88.964966, 231.000000, 64.417694, 239.000000, 64.417694, 260.000000, 88.964966, 252.500000, 88.964966, 246.250000, 82.828148, 223.750000, 82.828148, 217.500000, 88.964966" fill="rgb(178, 34, 34)" style="fill-opacity:1.00" />
<polygon points=" 235.000000, 69.327149, 227.000000, 78.146057, 242.000000, 78.146057" fill="rgb(255, 255, 255)" style="fill-opacity:1.00" />
<!-- End 'A' -->
<!-- Begin 'C' -->
<ellipse cx="235.000000" cy="99.179129" rx="25.000000" ry="10.214163" fill="rgb(0, 0, 128)" style="fill-opacity:1.00" />
<ellipse cx="235.000000" cy="99.179129" rx="16.666667" ry="6.809442" fill="rgb(255, 255, 255)" style="fill-opacity:1.00" />
<rect height="10.214163" width="25.000000" x="235.000000" y="94.072047" fill="rgb(255, 255, 255)" style="fill-opacity:1.00" />
<!-- End 'C' -->
<!-- Begin 'G' -->
<ellipse cx="235.000000" cy="109.670571" rx="25.000000" ry="0.277280" fill="rgb(255, 165, 0)" style="fill-opacity:1.00" />
<ellipse cx="235.000000" cy="109.670571" rx="16.666667" ry="0.184853" fill="rgb(255, 255, 255)" style="fill-opacity:1.00" />
<rect height="0.277280" width="25.000000" x="235.000000" y="109.531931" fill="rgb(255, 255, 255)" style="fill-opacity:1.00" />
<rect height="0.069320" width="25.000000" x="235.000000" y="109.739891" fill="rgb(255, 165, 0)" style="fill-opacity:1.00" />
<rect height="0.207960" width="6.250000" x="253.750000" y="109.739891" fill="rgb(255, 165, 0)" style="fill-opacity:1.00" />
<!-- End 'G' -->
<!-- Begin 'T' -->
<rect height="0.008344" width="50.000000" x="210.000000" y="109.947851" fill="rgb(0, 100, 0)" style="fill-opacity:1.00" />
<rect height="0.052149" width="10.000000" x="230.000000" y="109.947851" fill="rgb(0, 100, 0)" style="fill-opacity:1.00" />
<!-- End 'T' -->
<!-- Begin 'G' -->
<ellipse cx="295.000000" cy="60.055082" rx="25.000000" ry="49.928669" fill="rgb(255, 165, 0)" style="fill-opacity:1.00" />
<ellipse cx="295.000000" cy="60.055082" rx="16.666667" ry="33.285779" fill="rgb(255, 255, 255)" style="fill-opacity:1.00" />
<rect height="49.928669" width="25.000000" x="295.000000" y="35.090748" fill="rgb(255, 255, 255)" style="fill-opacity:1.00" />
<rect height="12.482167" width="25.000000" x="295.000000" y="72.537250" fill="rgb(255, 165, 0)" style="fill-opacity:1.00" />
<rect height="37.446502" width="6.250000" x="313.750000" y="72.537250" fill="rgb(255, 165, 0)" style="fill-opacity:1.00" />
<!-- End 'G' -->
<!-- Begin 'A' -->
<polygon points=" 270.000000, 109.991557, 291.000000, 109.983751, 299.000000, 109.983751, 320.000000, 109.991557, 312.500000, 109.991557, 306.250000, 109.989605, 283.750000, 109.989605, 277.500000, 109.991557" fill="rgb(178, 34, 34)" style="fill-opacity:1.00" />
<!-- End 'A' -->
<!-- Begin 'C' -->
<ellipse cx="295.000000" cy="109.993946" rx="25.000000" ry="0.002389" fill="rgb(0, 0, 128)" style="fill-opacity:1.00" />
<ellipse cx="295.000000" cy="109.993946" rx="16.666667" ry="0.001593" fill="rgb(255, 255, 255)" style="fill-opacity:1.00" />
<rect height="0.002389" width="25.000000" x="295.000000" y="109.992751" fill="rgb(255, 255, 255)" style="fill-opacity:1.00" />
<!-- End 'C' -->
<!-- Begin 'T' -->
<rect height="0.000586" width="50.000000" x="270.000000" y="109.996335" fill="rgb(0, 100, 0)" style="fill-opacity:1.00" />
<rect height="0.003665" width="10.000000" x="290.000000" y="109.996335" fill="rgb(0, 100, 0)" style="fill-opacity:1.00" />
<!-- End 'T' -->
<!-- Begin 'G' -->
<ellipse cx="355.000000" cy="60.271394" rx="25.000000" ry="49.614568" fill="rgb(255, 165, 0)" style="fill-opacity:1.00" />
<ellipse cx="355.000000" cy="60.271394" rx="16.666667" ry="33.076379" fill="rgb(255, 255, 255)" style="fill-opacity:1.00" />
<rect height="49.614568" width="25.000000" x="355.000000" y="35.464110" fill="rgb(255, 255, 255)" style="fill-opacity:1.00" />
<rect height="12.403642" width="25.000000" x="355.000000" y="72.675036" fill="rgb(255, 165, 0)" style="fill-opacity:1.00" />
<rect height="37.210926" width="6.250000" x="373.750000" y="72.675036" fill="rgb(255, 165, 0)" style="fill-opacity:1.00" />
<!-- End 'G' -->
<!-- Begin 'T' -->
<rect height="0.017656" width="50.000000" x="330.000000" y="109.885962" fill="rgb(0, 100, 0)" style="fill-opacity:1.00" />
<rect height="0.110351" width="10.000000" x="350.000000" y="109.885962" fill="rgb(0, 100, 0)" style="fill-opacity:1.00" />
<!-- End 'T' -->
<!-- Begin 'A' -->
<polygon points=" 330.000000, 109.998824, 351.000000, 109.996313, 359.000000, 109.996313, 380.000000, 109.998824, 372.500000, 109.998824, 366.250000, 109.998196, 343.750000, 109.998196, 337.500000, 109.998824" fill="rgb(178, 34, 34)" style="fill-opacity:1.00" />
<!-- End 'A' -->
<!-- Begin 'C' -->
<ellipse cx="355.000000" cy="109.999412" rx="25.000000" ry="0.000588" fill="rgb(0, 0, 128)" style="fill-opacity:1.00" />
<ellipse cx="355.000000" cy="109.999412" rx="16.666667" ry="0.000392" fill="rgb(255, 255, 255)" style="fill-opacity:1.00" />
<rect height="0.000588" width="25.000000" x="355.000000" y="109.999118" fill="rgb(255, 255, 255)" style="fill-opacity:1.00" />
<!-- End 'C' -->
<!-- Begin 'A' -->
<polygon points=" 390.000000, 109.577681, 411.000000, 12.174029, 419.000000, 12.174029, 440.000000, 109.577681, 432.500000, 109.577681, 426.250000, 85.226768, 403.750000, 85.226768, 397.500000, 109.577681" fill="rgb(178, 34, 34)" style="fill-opacity:1.00" />
<polygon points=" 415.000000, 31.654760, 407.000000, 69.616221, 422.000000, 69.616221" fill="rgb(255, 255, 255)" style="fill-opacity:1.00" />
<!-- End 'A' -->
<!-- Begin 'G' -->
<ellipse cx="415.000000" cy="109.755912" rx="25.000000" ry="0.178231" fill="rgb(255, 165, 0)" style="fill-opacity:1.00" />
<ellipse cx="415.000000" cy="109.755912" rx="16.666667" ry="0.118820" fill="rgb(255, 255, 255)" style="fill-opacity:1.00" />
<rect height="0.178231" width="25.000000" x="415.000000" y="109.666797" fill="rgb(255, 255, 255)" style="fill-opacity:1.00" />
<rect height="0.044558" width="25.000000" x="415.000000" y="109.800470" fill="rgb(255, 165, 0)" style="fill-opacity:1.00" />
<rect height="0.133673" width="6.250000" x="433.750000" y="109.800470" fill="rgb(255, 165, 0)" style="fill-opacity:1.00" />
<!-- End 'G' -->
<!-- Begin 'C' -->
<ellipse cx="415.000000" cy="109.953671" rx="25.000000" ry="0.019529" fill="rgb(0, 0, 128)" style="fill-opacity:1.00" />
<ellipse cx="415.000000" cy="109.953671" rx="16.666667" ry="0.013019" fill="rgb(255, 255, 255)" style="fill-opacity:1.00" />
<rect height="0.019529" width="25.000000" x="415.000000" y="109.943907" fill="rgb(255, 255, 255)" style="fill-opacity:1.00" />
<!-- End 'C' -->
<!-- Begin 'T' -->
<rect height="0.004288" width="50.000000" x="390.000000" y="109.973200" fill="rgb(0, 100, 0)" style="fill-opacity:1.00" />
<rect height="0.026800" width="10.000000" x="410.000000" y="109.973200" fill="rgb(0, 100, 0)" style="fill-opacity:1.00" />
<!-- End 'T' -->
<!-- Begin 'A' -->
<polygon points=" 450.000000, 100.912705, 471.000000, 46.737283, 479.000000, 46.737283, 500.000000, 100.912705, 492.500000, 100.912705, 486.250000, 87.368849, 463.750000, 87.368849, 457.500000, 100.912705" fill="rgb(178, 34, 34)" style="fill-opacity:1.00" />
<polygon points=" 475.000000, 57.572367, 467.000000, 78.242536, 482.000000, 78.242536" fill="rgb(255, 255, 255)" style="fill-opacity:1.00" />
<!-- End 'A' -->
<!-- Begin 'T' -->
<rect height="1.132953" width="50.000000" x="450.000000" y="100.912705" fill="rgb(0, 100, 0)" style="fill-opacity:1.00" />
<rect height="7.080958" width="10.000000" x="470.000000" y="100.912705" fill="rgb(0, 100, 0)" style="fill-opacity:1.00" />
<!-- End 'T' -->
<!-- Begin 'C' -->
<ellipse cx="475.000000" cy="108.523003" rx="25.000000" ry="0.529340" fill="rgb(0, 0, 128)" style="fill-opacity:1.00" />
<ellipse cx="475.000000" cy="108.523003" rx="16.666667" ry="0.352893" fill="rgb(255, 255, 255)" style="fill-opacity:1.00" />
<rect height="0.529340" width="25.000000" x="475.000000" y="108.258333" fill="rgb(255, 255, 255)" style="fill-opacity:1.00" />
<!-- End 'C' -->
<!-- Begin 'G' -->
<ellipse cx="475.000000" cy="109.526171" rx="25.000000" ry="0.473829" fill="rgb(255, 165, 0)" style="fill-opacity:1.00" />
<ellipse cx="475.000000" cy="109.526171" rx="16.666667" ry="0.315886" fill="rgb(255, 255, 255)" style="fill-opacity:1.00" />
<rect height="0.473829" width="25.000000" x="475.000000" y="109.289257" fill="rgb(255, 255, 255)" style="fill-opacity:1.00" />
<rect height="0.118457" width="25.000000" x="475.000000" y="109.644628" fill="rgb(255, 165, 0)" style="fill-opacity:1.00" />
<rect height="0.355372" width="6.250000" x="493.750000" y="109.644628" fill="rgb(255, 165, 0)" style="fill-opacity:1.00" />
<!-- End 'G' -->
<!-- Begin 'G' -->
<ellipse cx="535.000000" cy="81.654813" rx="25.000000" ry="15.863354" fill="rgb(255, 165, 0)" style="fill-opacity:1.00" />
<ellipse cx="535.000000" cy="81.654813" rx="16.666667" ry="10.575569" fill="rgb(255, 255, 255)" style="fill-opacity:1.00" />
<rect height="15.863354" width="25.000000" x="535.000000" y="73.723136" fill="rgb(255, 255, 255)" style="fill-opacity:1.00" />
<rect height="3.965839" width="25.000000" x="535.000000" y="85.620652" fill="rgb(255, 165, 0)" style="fill-opacity:1.00" />
<rect height="11.897516" width="6.250000" x="553.750000" y="85.620652" fill="rgb(255, 165, 0)" style="fill-opacity:1.00" />
<!-- End 'G' -->
<!-- Begin 'A' -->
<polygon points=" 510.000000, 106.673835, 531.000000, 97.518167, 539.000000, 97.518167, 560.000000, 106.673835, 552.500000, 106.673835, 546.250000, 104.384918, 523.750000, 104.384918, 517.500000, 106.673835" fill="rgb(178, 34, 34)" style="fill-opacity:1.00" />
<polygon points=" 535.000000, 99.349301, 527.000000, 102.011568, 542.000000, 102.011568" fill="rgb(255, 255, 255)" style="fill-opacity:1.00" />
<!-- End 'A' -->
<!-- Begin 'C' -->
<ellipse cx="535.000000" cy="108.256240" rx="25.000000" ry="1.582405" fill="rgb(0, 0, 128)" style="fill-opacity:1.00" />
<ellipse cx="535.000000" cy="108.256240" rx="16.666667" ry="1.054937" fill="rgb(255, 255, 255)" style="fill-opacity:1.00" />
<rect height="1.582405" width="25.000000" x="535.000000" y="107.465037" fill="rgb(255, 255, 255)" style="fill-opacity:1.00" />
<!-- End 'C' -->
<!-- Begin 'T' -->
<rect height="0.025817" width="50.000000" x="510.000000" y="109.838645" fill="rgb(0, 100, 0)" style="fill-opacity:1.00" />
<rect height="0.161355" width="10.000000" x="530.000000" y="109.838645" fill="rgb(0, 100, 0)" style="fill-opacity:1.00" />
<!-- End 'T' -->
<!-- Begin 'T' -->
<rect height="0.685202" width="50.000000" x="570.000000" y="100.226149" fill="rgb(0, 100, 0)" style="fill-opacity:1.00" />
<rect height="4.282514" width="10.000000" x="590.000000" y="100.226149" fill="rgb(0, 100, 0)" style="fill-opacity:1.00" />
<!-- End 'T' -->
<!-- Begin 'C' -->
<ellipse cx="595.000000" cy="105.984014" rx="25.000000" ry="1.475351" fill="rgb(0, 0, 128)" style="fill-opacity:1.00" />
<ellipse cx="595.000000" cy="105.984014" rx="16.666667" ry="0.983567" fill="rgb(255, 255, 255)" style="fill-opacity:1.00" />
<rect height="1.475351" width="25.000000" x="595.000000" y="105.246339" fill="rgb(255, 255, 255)" style="fill-opacity:1.00" />
<!-- End 'C' -->
<!-- Begin 'G' -->
<ellipse cx="595.000000" cy="108.186364" rx="25.000000" ry="0.726999" fill="rgb(255, 165, 0)" style="fill-opacity:1.00" />
<ellipse cx="595.000000" cy="108.186364" rx="16.666667" ry="0.484666" fill="rgb(255, 255, 255)" style="fill-opacity:1.00" />
<rect height="0.726999" width="25.000000" x="595.000000" y="107.822865" fill="rgb(255, 255, 255)" style="fill-opacity:1.00" />
<rect height="0.181750" width="25.000000" x="595.000000" y="108.368114" fill="rgb(255, 165, 0)" style="fill-opacity:1.00" />
<rect height="0.545249" width="6.250000" x="613.750000" y="108.368114" fill="rgb(255, 165, 0)" style="fill-opacity:1.00" />
<!-- End 'G' -->
<!-- Begin 'A' -->
<polygon points=" 570.000000, 110.000000, 591.000000, 108.913364, 599.000000, 108.913364, 620.000000, 110.000000, 612.500000, 110.000000, 606.250000, 109.728341, 583.750000, 109.728341, 577.500000, 110.000000" fill="rgb(178, 34, 34)" style="fill-opacity:1.00" />
<!-- End 'A' -->
<!-- Begin 'G' -->
<ellipse cx="655.000000" cy="104.925147" rx="25.000000" ry="1.387753" fill="rgb(255, 165, 0)" style="fill-opacity:1.00" />
<ellipse cx="655.000000" cy="104.925147" rx="16.666667" ry="0.925169" fill="rgb(255, 255, 255)" style="fill-opacity:1.00" />
<rect height="1.387753" width="25.000000" x="655.000000" y="104.231270" fill="rgb(255, 255, 255)" style="fill-opacity:1.00" />
<rect height="0.346938" width="25.000000" x="655.000000" y="105.272085" fill="rgb(255, 165, 0)" style="fill-opacity:1.00" />
<rect height="1.040815" width="6.250000" x="673.750000" y="105.272085" fill="rgb(255, 165, 0)" style="fill-opacity:1.00" />
<!-- End 'G' -->
<!-- Begin 'A' -->
<polygon points=" 630.000000, 107.909611, 651.000000, 106.312900, 659.000000, 106.312900, 680.000000, 107.909611, 672.500000, 107.909611, 666.250000, 107.510433, 643.750000, 107.510433, 637.500000, 107.909611" fill="rgb(178, 34, 34)" style="fill-opacity:1.00" />
<!-- End 'A' -->
<!-- Begin 'C' -->
<ellipse cx="655.000000" cy="108.473225" rx="25.000000" ry="0.563614" fill="rgb(0, 0, 128)" style="fill-opacity:1.00" />
<ellipse cx="655.000000" cy="108.473225" rx="16.666667" ry="0.375743" fill="rgb(255, 255, 255)" style="fill-opacity:1.00" />
<rect height="0.563614" width="25.000000" x="655.000000" y="108.191418" fill="rgb(255, 255, 255)" style="fill-opacity:1.00" />
<!-- End 'C' -->
<!-- Begin 'T' -->
<rect height="0.154106" width="50.000000" x="630.000000" y="109.036838" fill="rgb(0, 100, 0)" style="fill-opacity:1.00" />
<rect height="0.963162" width="10.000000" x="650.000000" y="109.036838" fill="rgb(0, 100, 0)" style="fill-opacity:1.00" />
<!-- End 'T' -->
<text x="370.000000" y="165">
IC = 10.29
</text>

</svg>
