<?xml version="1.0" encoding="UTF-8" standalone="yes"?>
                 <!DOCTYPE svg PUBLIC "-//W3C//DTD SVG 1.0//EN" "http://www.w3.org/TR/2001/REC-SVG-20010904/DTD/svg10.dtd">
                 <svg height="170" width="960" xmlns="http://www.w3.org/2000/svg" xmlns:xlink="http://www.w3.org/1999/xlink">
                 <line x1="85" y1="120" x2="927" y2="120" style="stroke:rgb(99,99,99);stroke-width:2" />
<rect height="7.000000" width="2.000000" x="85.000000" y="120.000000" fill="rgb(0, 0, 0)" style="fill-opacity:1.00" />
<text x="107.000000" y="140">
1
</text>
<rect height="7.000000" width="2.000000" x="145.000000" y="120.000000" fill="rgb(0, 0, 0)" style="fill-opacity:1.00" />
<text x="167.000000" y="140">
2
</text>
<rect height="7.000000" width="2.000000" x="205.000000" y="120.000000" fill="rgb(0, 0, 0)" style="fill-opacity:1.00" />
<text x="227.000000" y="140">
3
</text>
<rect height="7.000000" width="2.000000" x="265.000000" y="120.000000" fill="rgb(0, 0, 0)" style="fill-opacity:1.00" />
<text x="287.000000" y="140">
4
</text>
<rect height="7.000000" width="2.000000" x="325.000000" y="120.000000" fill="rgb(0, 0, 0)" style="fill-opacity:1.00" />
<text x="347.000000" y="140">
5
</text>
<rect height="7.000000" width="2.000000" x="385.000000" y="120.000000" fill="rgb(0, 0, 0)" style="fill-opacity:1.00" />
<text x="407.000000" y="140">
6
</text>
<rect height="7.000000" width="2.000000" x="445.000000" y="120.000000" fill="rgb(0, 0, 0)" style="fill-opacity:1.00" />
<text x="467.000000" y="140">
7
</text>
<rect height="7.000000" width="2.000000" x="505.000000" y="120.000000" fill="rgb(0, 0, 0)" style="fill-opacity:1.00" />
<text x="527.000000" y="140">
8
</text>
<rect height="7.000000" width="2.000000" x="565.000000" y="120.000000" fill="rgb(0, 0, 0)" style="fill-opacity:1.00" />
<text x="587.000000" y="140">
9
</text>
<rect height="7.000000" width="2.000000" x="625.000000" y="120.000000" fill="rgb(0, 0, 0)" style="fill-opacity:1.00" />
<text x="647.000000" y="140">
10
</text>
<rect height="7.000000" width="2.000000" x="685.000000" y="120.000000" fill="rgb(0, 0, 0)" style="fill-opacity:1.00" />
<text x="707.000000" y="140">
11
</text>
<rect height="7.000000" width="2.000000" x="745.000000" y="120.000000" fill="rgb(0, 0, 0)" style="fill-opacity:1.00" />
<text x="767.000000" y="140">
12
</text>
<rect height="7.000000" width="2.000000" x="805.000000" y="120.000000" fill="rgb(0, 0, 0)" style="fill-opacity:1.00" />
<text x="827.000000" y="140">
13
</text>
<rect height="7.000000" width="2.000000" x="865.000000" y="120.000000" fill="rgb(0, 0, 0)" style="fill-opacity:1.00" />
<text x="887.000000" y="140">
14
</text>
<rect height="7.000000" width="2.000000" x="925.000000" y="120.000000" fill="rgb(0, 0, 0)" style="fill-opacity:1.00" />
<line x1="80" y1="112" x2="80" y2="10" style="stroke:rgb(99,99,99);stroke-width:2" />
<rect height="2.000000" width="7.000000" x="73.000000" y="110.000000" fill="rgb(0, 0, 0)" style="fill-opacity:1.00" />
<text x="63" y="115">
0
</text>
<rect height="2.000000" width="7.000000" x="73.000000" y="60.000000" fill="rgb(0, 0, 0)" style="fill-opacity:1.00" />
<text x="63" y="65">
1
</text>
<rect height="2.000000" width="7.000000" x="73.000000" y="10.000000" fill="rgb(0, 0, 0)" style="fill-opacity:1.00" />
<text x="63" y="15">
2
</text>
<text x="50" y="65"
transform="rotate(-90, 50, 70)">
bits
</text>
<!-- Begin 'A' -->
<polygon points=" 90.000000, 104.222853, 111.000000, 99.097672, 119.000000, 99.097672, 140.000000, 104.222853, 132.500000, 104.222853, 126.250000, 102.941558, 103.750000, 102.941558, 97.500000, 104.222853" fill="rgb(178, 34, 34)" style="fill-opacity:1.00" />
<!-- End 'A' -->
<!-- Begin 'T' -->
<rect height="0.478723" width="50.000000" x="90.000000" y="104.222853" fill="rgb(0, 100, 0)" style="fill-opacity:1.00" />
<rect height="2.992018" width="10.000000" x="110.000000" y="104.222853" fill="rgb(0, 100, 0)" style="fill-opacity:1.00" />
<!-- End 'T' -->
<!-- Begin 'C' -->
<ellipse cx="115.000000" cy="107.940934" rx="25.000000" ry="0.726063" fill="rgb(0, 0, 128)" style="fill-opacity:1.00" />
<ellipse cx="115.000000" cy="107.940934" rx="16.666667" ry="0.484042" fill="rgb(255, 255, 255)" style="fill-opacity:1.00" />
<rect height="0.726063" width="25.000000" x="115.000000" y="107.577903" fill="rgb(255, 255, 255)" style="fill-opacity:1.00" />
<!-- End 'C' -->
<!-- Begin 'G' -->
<ellipse cx="115.000000" cy="109.333498" rx="25.000000" ry="0.666502" fill="rgb(255, 165, 0)" style="fill-opacity:1.00" />
<ellipse cx="115.000000" cy="109.333498" rx="16.666667" ry="0.444334" fill="rgb(255, 255, 255)" style="fill-opacity:1.00" />
<rect height="0.666502" width="25.000000" x="115.000000" y="109.000247" fill="rgb(255, 255, 255)" style="fill-opacity:1.00" />
<rect height="0.166625" width="25.000000" x="115.000000" y="109.500124" fill="rgb(255, 165, 0)" style="fill-opacity:1.00" />
<rect height="0.499876" width="6.250000" x="133.750000" y="109.500124" fill="rgb(255, 165, 0)" style="fill-opacity:1.00" />
<!-- End 'G' -->
<!-- Begin 'T' -->
<rect height="1.156636" width="50.000000" x="150.000000" y="93.401101" fill="rgb(0, 100, 0)" style="fill-opacity:1.00" />
<rect height="7.228977" width="10.000000" x="170.000000" y="93.401101" fill="rgb(0, 100, 0)" style="fill-opacity:1.00" />
<!-- End 'T' -->
<!-- Begin 'A' -->
<polygon points=" 150.000000, 107.088318, 171.000000, 100.630078, 179.000000, 100.630078, 200.000000, 107.088318, 192.500000, 107.088318, 186.250000, 105.473758, 163.750000, 105.473758, 157.500000, 107.088318" fill="rgb(178, 34, 34)" style="fill-opacity:1.00" />
<!-- End 'A' -->
<!-- Begin 'G' -->
<ellipse cx="175.000000" cy="107.827883" rx="25.000000" ry="0.739566" fill="rgb(255, 165, 0)" style="fill-opacity:1.00" />
<ellipse cx="175.000000" cy="107.827883" rx="16.666667" ry="0.493044" fill="rgb(255, 255, 255)" style="fill-opacity:1.00" />
<rect height="0.739566" width="25.000000" x="175.000000" y="107.458101" fill="rgb(255, 255, 255)" style="fill-opacity:1.00" />
<rect height="0.184891" width="25.000000" x="175.000000" y="108.012775" fill="rgb(255, 165, 0)" style="fill-opacity:1.00" />
<rect height="0.554674" width="6.250000" x="193.750000" y="108.012775" fill="rgb(255, 165, 0)" style="fill-opacity:1.00" />
<!-- End 'G' -->
<!-- Begin 'C' -->
<ellipse cx="175.000000" cy="109.283725" rx="25.000000" ry="0.716275" fill="rgb(0, 0, 128)" style="fill-opacity:1.00" />
<ellipse cx="175.000000" cy="109.283725" rx="16.666667" ry="0.477517" fill="rgb(255, 255, 255)" style="fill-opacity:1.00" />
<rect height="0.716275" width="25.000000" x="175.000000" y="108.925587" fill="rgb(255, 255, 255)" style="fill-opacity:1.00" />
<!-- End 'C' -->
<!-- Begin 'C' -->
<ellipse cx="235.000000" cy="99.294024" rx="25.000000" ry="3.182134" fill="rgb(0, 0, 128)" style="fill-opacity:1.00" />
<ellipse cx="235.000000" cy="99.294024" rx="16.666667" ry="2.121423" fill="rgb(255, 255, 255)" style="fill-opacity:1.00" />
<rect height="3.182134" width="25.000000" x="235.000000" y="97.702957" fill="rgb(255, 255, 255)" style="fill-opacity:1.00" />
<!-- End 'C' -->
<!-- Begin 'T' -->
<rect height="0.742868" width="50.000000" x="210.000000" y="102.476158" fill="rgb(0, 100, 0)" style="fill-opacity:1.00" />
<rect height="4.642927" width="10.000000" x="230.000000" y="102.476158" fill="rgb(0, 100, 0)" style="fill-opacity:1.00" />
<!-- End 'T' -->
<!-- Begin 'G' -->
<ellipse cx="235.000000" cy="107.870405" rx="25.000000" ry="0.751319" fill="rgb(255, 165, 0)" style="fill-opacity:1.00" />
<ellipse cx="235.000000" cy="107.870405" rx="16.666667" ry="0.500880" fill="rgb(255, 255, 255)" style="fill-opacity:1.00" />
<rect height="0.751319" width="25.000000" x="235.000000" y="107.494745" fill="rgb(255, 255, 255)" style="fill-opacity:1.00" />
<rect height="0.187830" width="25.000000" x="235.000000" y="108.058235" fill="rgb(255, 165, 0)" style="fill-opacity:1.00" />
<rect height="0.563490" width="6.250000" x="253.750000" y="108.058235" fill="rgb(255, 165, 0)" style="fill-opacity:1.00" />
<!-- End 'G' -->
<!-- Begin 'A' -->
<polygon points=" 210.000000, 110.000000, 231.000000, 108.621724, 239.000000, 108.621724, 260.000000, 110.000000, 252.500000, 110.000000, 246.250000, 109.655431, 223.750000, 109.655431, 217.500000, 110.000000" fill="rgb(178, 34, 34)" style="fill-opacity:1.00" />
<!-- End 'A' -->
<!-- Begin 'C' -->
<ellipse cx="295.000000" cy="103.583419" rx="25.000000" ry="1.824837" fill="rgb(0, 0, 128)" style="fill-opacity:1.00" />
<ellipse cx="295.000000" cy="103.583419" rx="16.666667" ry="1.216558" fill="rgb(255, 255, 255)" style="fill-opacity:1.00" />
<rect height="1.824837" width="25.000000" x="295.000000" y="102.671001" fill="rgb(255, 255, 255)" style="fill-opacity:1.00" />
<!-- End 'C' -->
<!-- Begin 'A' -->
<polygon points=" 270.000000, 107.580287, 291.000000, 105.408257, 299.000000, 105.408257, 320.000000, 107.580287, 312.500000, 107.580287, 306.250000, 107.037279, 283.750000, 107.037279, 277.500000, 107.580287" fill="rgb(178, 34, 34)" style="fill-opacity:1.00" />
<!-- End 'A' -->
<!-- Begin 'T' -->
<rect height="0.223175" width="50.000000" x="270.000000" y="107.580287" fill="rgb(0, 100, 0)" style="fill-opacity:1.00" />
<rect height="1.394843" width="10.000000" x="290.000000" y="107.580287" fill="rgb(0, 100, 0)" style="fill-opacity:1.00" />
<!-- End 'T' -->
<!-- Begin 'G' -->
<ellipse cx="295.000000" cy="109.487565" rx="25.000000" ry="0.512435" fill="rgb(255, 165, 0)" style="fill-opacity:1.00" />
<ellipse cx="295.000000" cy="109.487565" rx="16.666667" ry="0.341623" fill="rgb(255, 255, 255)" style="fill-opacity:1.00" />
<rect height="0.512435" width="25.000000" x="295.000000" y="109.231347" fill="rgb(255, 255, 255)" style="fill-opacity:1.00" />
<rect height="0.128109" width="25.000000" x="295.000000" y="109.615674" fill="rgb(255, 165, 0)" style="fill-opacity:1.00" />
<rect height="0.384326" width="6.250000" x="313.750000" y="109.615674" fill="rgb(255, 165, 0)" style="fill-opacity:1.00" />
<!-- End 'G' -->
<!-- Begin 'T' -->
<rect height="7.930276" width="50.000000" x="330.000000" y="50.844217" fill="rgb(0, 100, 0)" style="fill-opacity:1.00" />
<rect height="49.564228" width="10.000000" x="350.000000" y="50.844217" fill="rgb(0, 100, 0)" style="fill-opacity:1.00" />
<!-- End 'T' -->
<!-- Begin 'C' -->
<ellipse cx="355.000000" cy="103.477235" rx="25.000000" ry="3.068790" fill="rgb(0, 0, 128)" style="fill-opacity:1.00" />
<ellipse cx="355.000000" cy="103.477235" rx="16.666667" ry="2.045860" fill="rgb(255, 255, 255)" style="fill-opacity:1.00" />
<rect height="3.068790" width="25.000000" x="355.000000" y="101.942840" fill="rgb(255, 255, 255)" style="fill-opacity:1.00" />
<!-- End 'C' -->
<!-- Begin 'A' -->
<polygon points=" 330.000000, 109.704341, 351.000000, 106.546025, 359.000000, 106.546025, 380.000000, 109.704341, 372.500000, 109.704341, 366.250000, 108.914762, 343.750000, 108.914762, 337.500000, 109.704341" fill="rgb(178, 34, 34)" style="fill-opacity:1.00" />
<!-- End 'A' -->
<!-- Begin 'G' -->
<ellipse cx="355.000000" cy="109.852170" rx="25.000000" ry="0.147830" fill="rgb(255, 165, 0)" style="fill-opacity:1.00" />
<ellipse cx="355.000000" cy="109.852170" rx="16.666667" ry="0.098553" fill="rgb(255, 255, 255)" style="fill-opacity:1.00" />
<rect height="0.147830" width="25.000000" x="355.000000" y="109.778256" fill="rgb(255, 255, 255)" style="fill-opacity:1.00" />
<rect height="0.036957" width="25.000000" x="355.000000" y="109.889128" fill="rgb(255, 165, 0)" style="fill-opacity:1.00" />
<rect height="0.110872" width="6.250000" x="373.750000" y="109.889128" fill="rgb(255, 165, 0)" style="fill-opacity:1.00" />
<!-- End 'G' -->
<!-- Begin 'T' -->
<rect height="3.654493" width="50.000000" x="390.000000" y="75.420131" fill="rgb(0, 100, 0)" style="fill-opacity:1.00" />
<rect height="22.840578" width="10.000000" x="410.000000" y="75.420131" fill="rgb(0, 100, 0)" style="fill-opacity:1.00" />
<!-- End 'T' -->
<!-- Begin 'C' -->
<ellipse cx="415.000000" cy="102.457359" rx="25.000000" ry="4.196650" fill="rgb(0, 0, 128)" style="fill-opacity:1.00" />
<ellipse cx="415.000000" cy="102.457359" rx="16.666667" ry="2.797767" fill="rgb(255, 255, 255)" style="fill-opacity:1.00" />
<rect height="4.196650" width="25.000000" x="415.000000" y="100.359034" fill="rgb(255, 255, 255)" style="fill-opacity:1.00" />
<!-- End 'C' -->
<!-- Begin 'A' -->
<polygon points=" 390.000000, 108.788779, 411.000000, 106.654009, 419.000000, 106.654009, 440.000000, 108.788779, 432.500000, 108.788779, 426.250000, 108.255086, 403.750000, 108.255086, 397.500000, 108.788779" fill="rgb(178, 34, 34)" style="fill-opacity:1.00" />
<!-- End 'A' -->
<!-- Begin 'G' -->
<ellipse cx="415.000000" cy="109.394389" rx="25.000000" ry="0.605611" fill="rgb(255, 165, 0)" style="fill-opacity:1.00" />
<ellipse cx="415.000000" cy="109.394389" rx="16.666667" ry="0.403740" fill="rgb(255, 255, 255)" style="fill-opacity:1.00" />
<rect height="0.605611" width="25.000000" x="415.000000" y="109.091584" fill="rgb(255, 255, 255)" style="fill-opacity:1.00" />
<rect height="0.151403" width="25.000000" x="415.000000" y="109.545792" fill="rgb(255, 165, 0)" style="fill-opacity:1.00" />
<rect height="0.454208" width="6.250000" x="433.750000" y="109.545792" fill="rgb(255, 165, 0)" style="fill-opacity:1.00" />
<!-- End 'G' -->
<!-- Begin 'A' -->
<polygon points=" 450.000000, 103.410564, 471.000000, 37.067403, 479.000000, 37.067403, 500.000000, 103.410564, 492.500000, 103.410564, 486.250000, 86.824774, 463.750000, 86.824774, 457.500000, 103.410564" fill="rgb(178, 34, 34)" style="fill-opacity:1.00" />
<polygon points=" 475.000000, 50.336035, 467.000000, 75.873299, 482.000000, 75.873299" fill="rgb(255, 255, 255)" style="fill-opacity:1.00" />
<!-- End 'A' -->
<!-- Begin 'T' -->
<rect height="0.727405" width="50.000000" x="450.000000" y="103.410564" fill="rgb(0, 100, 0)" style="fill-opacity:1.00" />
<rect height="4.546283" width="10.000000" x="470.000000" y="103.410564" fill="rgb(0, 100, 0)" style="fill-opacity:1.00" />
<!-- End 'T' -->
<!-- Begin 'C' -->
<ellipse cx="475.000000" cy="108.716484" rx="25.000000" ry="0.759636" fill="rgb(0, 0, 128)" style="fill-opacity:1.00" />
<ellipse cx="475.000000" cy="108.716484" rx="16.666667" ry="0.506424" fill="rgb(255, 255, 255)" style="fill-opacity:1.00" />
<rect height="0.759636" width="25.000000" x="475.000000" y="108.336665" fill="rgb(255, 255, 255)" style="fill-opacity:1.00" />
<!-- End 'C' -->
<!-- Begin 'G' -->
<ellipse cx="475.000000" cy="109.738060" rx="25.000000" ry="0.261940" fill="rgb(255, 165, 0)" style="fill-opacity:1.00" />
<ellipse cx="475.000000" cy="109.738060" rx="16.666667" ry="0.174627" fill="rgb(255, 255, 255)" style="fill-opacity:1.00" />
<rect height="0.261940" width="25.000000" x="475.000000" y="109.607090" fill="rgb(255, 255, 255)" style="fill-opacity:1.00" />
<rect height="0.065485" width="25.000000" x="475.000000" y="109.803545" fill="rgb(255, 165, 0)" style="fill-opacity:1.00" />
<rect height="0.196455" width="6.250000" x="493.750000" y="109.803545" fill="rgb(255, 165, 0)" style="fill-opacity:1.00" />
<!-- End 'G' -->
<!-- Begin 'T' -->
<rect height="12.365916" width="50.000000" x="510.000000" y="28.474084" fill="rgb(0, 100, 0)" style="fill-opacity:1.00" />
<rect height="77.286972" width="10.000000" x="530.000000" y="28.474084" fill="rgb(0, 100, 0)" style="fill-opacity:1.00" />
<!-- End 'T' -->
<!-- Begin 'C' -->
<ellipse cx="535.000000" cy="106.841844" rx="25.000000" ry="1.080788" fill="rgb(0, 0, 128)" style="fill-opacity:1.00" />
<ellipse cx="535.000000" cy="106.841844" rx="16.666667" ry="0.720525" fill="rgb(255, 255, 255)" style="fill-opacity:1.00" />
<rect height="1.080788" width="25.000000" x="535.000000" y="106.301450" fill="rgb(255, 255, 255)" style="fill-opacity:1.00" />
<!-- End 'C' -->
<!-- Begin 'G' -->
<ellipse cx="535.000000" cy="108.641767" rx="25.000000" ry="0.719136" fill="rgb(255, 165, 0)" style="fill-opacity:1.00" />
<ellipse cx="535.000000" cy="108.641767" rx="16.666667" ry="0.479424" fill="rgb(255, 255, 255)" style="fill-opacity:1.00" />
<rect height="0.719136" width="25.000000" x="535.000000" y="108.282199" fill="rgb(255, 255, 255)" style="fill-opacity:1.00" />
<rect height="0.179784" width="25.000000" x="535.000000" y="108.821551" fill="rgb(255, 165, 0)" style="fill-opacity:1.00" />
<rect height="0.539352" width="6.250000" x="553.750000" y="108.821551" fill="rgb(255, 165, 0)" style="fill-opacity:1.00" />
<!-- End 'G' -->
<!-- Begin 'A' -->
<polygon points=" 510.000000, 110.000000, 531.000000, 109.360903, 539.000000, 109.360903, 560.000000, 110.000000, 552.500000, 110.000000, 546.250000, 109.840226, 523.750000, 109.840226, 517.500000, 110.000000" fill="rgb(178, 34, 34)" style="fill-opacity:1.00" />
<!-- End 'A' -->
<!-- Begin 'C' -->
<ellipse cx="595.000000" cy="61.686944" rx="25.000000" ry="47.478424" fill="rgb(0, 0, 128)" style="fill-opacity:1.00" />
<ellipse cx="595.000000" cy="61.686944" rx="16.666667" ry="31.652283" fill="rgb(255, 255, 255)" style="fill-opacity:1.00" />
<rect height="47.478424" width="25.000000" x="595.000000" y="37.947732" fill="rgb(255, 255, 255)" style="fill-opacity:1.00" />
<!-- End 'C' -->
<!-- Begin 'G' -->
<ellipse cx="595.000000" cy="109.400956" rx="25.000000" ry="0.235588" fill="rgb(255, 165, 0)" style="fill-opacity:1.00" />
<ellipse cx="595.000000" cy="109.400956" rx="16.666667" ry="0.157058" fill="rgb(255, 255, 255)" style="fill-opacity:1.00" />
<rect height="0.235588" width="25.000000" x="595.000000" y="109.283162" fill="rgb(255, 255, 255)" style="fill-opacity:1.00" />
<rect height="0.058897" width="25.000000" x="595.000000" y="109.459853" fill="rgb(255, 165, 0)" style="fill-opacity:1.00" />
<rect height="0.176691" width="6.250000" x="613.750000" y="109.459853" fill="rgb(255, 165, 0)" style="fill-opacity:1.00" />
<!-- End 'G' -->
<!-- Begin 'A' -->
<polygon points=" 570.000000, 109.884053, 591.000000, 109.636543, 599.000000, 109.636543, 620.000000, 109.884053, 612.500000, 109.884053, 606.250000, 109.822176, 583.750000, 109.822176, 577.500000, 109.884053" fill="rgb(178, 34, 34)" style="fill-opacity:1.00" />
<!-- End 'A' -->
<!-- Begin 'T' -->
<rect height="0.018551" width="50.000000" x="570.000000" y="109.884053" fill="rgb(0, 100, 0)" style="fill-opacity:1.00" />
<rect height="0.115947" width="10.000000" x="590.000000" y="109.884053" fill="rgb(0, 100, 0)" style="fill-opacity:1.00" />
<!-- End 'T' -->
<!-- Begin 'T' -->
<rect height="0.805546" width="50.000000" x="630.000000" y="97.994933" fill="rgb(0, 100, 0)" style="fill-opacity:1.00" />
<rect height="5.034664" width="10.000000" x="650.000000" y="97.994933" fill="rgb(0, 100, 0)" style="fill-opacity:1.00" />
<!-- End 'T' -->
<!-- Begin 'C' -->
<ellipse cx="655.000000" cy="104.649667" rx="25.000000" ry="1.620071" fill="rgb(0, 0, 128)" style="fill-opacity:1.00" />
<ellipse cx="655.000000" cy="104.649667" rx="16.666667" ry="1.080047" fill="rgb(255, 255, 255)" style="fill-opacity:1.00" />
<rect height="1.620071" width="25.000000" x="655.000000" y="103.839632" fill="rgb(255, 255, 255)" style="fill-opacity:1.00" />
<!-- End 'C' -->
<!-- Begin 'A' -->
<polygon points=" 630.000000, 109.387501, 651.000000, 106.269738, 659.000000, 106.269738, 680.000000, 109.387501, 672.500000, 109.387501, 666.250000, 108.608060, 643.750000, 108.608060, 637.500000, 109.387501" fill="rgb(178, 34, 34)" style="fill-opacity:1.00" />
<!-- End 'A' -->
<!-- Begin 'G' -->
<ellipse cx="655.000000" cy="109.693750" rx="25.000000" ry="0.306250" fill="rgb(255, 165, 0)" style="fill-opacity:1.00" />
<ellipse cx="655.000000" cy="109.693750" rx="16.666667" ry="0.204166" fill="rgb(255, 255, 255)" style="fill-opacity:1.00" />
<rect height="0.306250" width="25.000000" x="655.000000" y="109.540626" fill="rgb(255, 255, 255)" style="fill-opacity:1.00" />
<rect height="0.076562" width="25.000000" x="655.000000" y="109.770313" fill="rgb(255, 165, 0)" style="fill-opacity:1.00" />
<rect height="0.229687" width="6.250000" x="673.750000" y="109.770313" fill="rgb(255, 165, 0)" style="fill-opacity:1.00" />
<!-- End 'G' -->
<!-- Begin 'T' -->
<rect height="0.802673" width="50.000000" x="690.000000" y="99.342324" fill="rgb(0, 100, 0)" style="fill-opacity:1.00" />
<rect height="5.016709" width="10.000000" x="710.000000" y="99.342324" fill="rgb(0, 100, 0)" style="fill-opacity:1.00" />
<!-- End 'T' -->
<!-- Begin 'A' -->
<polygon points=" 690.000000, 107.168397, 711.000000, 104.359033, 719.000000, 104.359033, 740.000000, 107.168397, 732.500000, 107.168397, 726.250000, 106.466056, 703.750000, 106.466056, 697.500000, 107.168397" fill="rgb(178, 34, 34)" style="fill-opacity:1.00" />
<!-- End 'A' -->
<!-- Begin 'C' -->
<ellipse cx="715.000000" cy="107.997489" rx="25.000000" ry="0.829092" fill="rgb(0, 0, 128)" style="fill-opacity:1.00" />
<ellipse cx="715.000000" cy="107.997489" rx="16.666667" ry="0.552728" fill="rgb(255, 255, 255)" style="fill-opacity:1.00" />
<rect height="0.829092" width="25.000000" x="715.000000" y="107.582943" fill="rgb(255, 255, 255)" style="fill-opacity:1.00" />
<!-- End 'C' -->
<!-- Begin 'G' -->
<ellipse cx="715.000000" cy="109.413291" rx="25.000000" ry="0.586709" fill="rgb(255, 165, 0)" style="fill-opacity:1.00" />
<ellipse cx="715.000000" cy="109.413291" rx="16.666667" ry="0.391140" fill="rgb(255, 255, 255)" style="fill-opacity:1.00" />
<rect height="0.586709" width="25.000000" x="715.000000" y="109.119936" fill="rgb(255, 255, 255)" style="fill-opacity:1.00" />
<rect height="0.146677" width="25.000000" x="715.000000" y="109.559968" fill="rgb(255, 165, 0)" style="fill-opacity:1.00" />
<rect height="0.440032" width="6.250000" x="733.750000" y="109.559968" fill="rgb(255, 165, 0)" style="fill-opacity:1.00" />
<!-- End 'G' -->
<!-- Begin 'C' -->
<ellipse cx="775.000000" cy="106.188170" rx="25.000000" ry="0.828452" fill="rgb(0, 0, 128)" style="fill-opacity:1.00" />
<ellipse cx="775.000000" cy="106.188170" rx="16.666667" ry="0.552302" fill="rgb(255, 255, 255)" style="fill-opacity:1.00" />
<rect height="0.828452" width="25.000000" x="775.000000" y="105.773944" fill="rgb(255, 255, 255)" style="fill-opacity:1.00" />
<!-- End 'C' -->
<!-- Begin 'T' -->
<rect height="0.212292" width="50.000000" x="750.000000" y="107.016623" fill="rgb(0, 100, 0)" style="fill-opacity:1.00" />
<rect height="1.326825" width="10.000000" x="770.000000" y="107.016623" fill="rgb(0, 100, 0)" style="fill-opacity:1.00" />
<!-- End 'T' -->
<!-- Begin 'A' -->
<polygon points=" 750.000000, 109.438886, 771.000000, 108.343447, 779.000000, 108.343447, 800.000000, 109.438886, 792.500000, 109.438886, 786.250000, 109.165027, 763.750000, 109.165027, 757.500000, 109.438886" fill="rgb(178, 34, 34)" style="fill-opacity:1.00" />
<!-- End 'A' -->
<!-- Begin 'G' -->
<ellipse cx="775.000000" cy="109.719443" rx="25.000000" ry="0.280557" fill="rgb(255, 165, 0)" style="fill-opacity:1.00" />
<ellipse cx="775.000000" cy="109.719443" rx="16.666667" ry="0.187038" fill="rgb(255, 255, 255)" style="fill-opacity:1.00" />
<rect height="0.280557" width="25.000000" x="775.000000" y="109.579165" fill="rgb(255, 255, 255)" style="fill-opacity:1.00" />
<rect height="0.070139" width="25.000000" x="775.000000" y="109.789582" fill="rgb(255, 165, 0)" style="fill-opacity:1.00" />
<rect height="0.210418" width="6.250000" x="793.750000" y="109.789582" fill="rgb(255, 165, 0)" style="fill-opacity:1.00" />
<!-- End 'G' -->
<!-- Begin 'A' -->
<polygon points=" 810.000000, 100.191101, 831.000000, 90.892624, 839.000000, 90.892624, 860.000000, 100.191101, 852.500000, 100.191101, 846.250000, 97.866481, 823.750000, 97.866481, 817.500000, 100.191101" fill="rgb(178, 34, 34)" style="fill-opacity:1.00" />
<polygon points=" 835.000000, 92.752319, 827.000000, 95.471710, 842.000000, 95.471710" fill="rgb(255, 255, 255)" style="fill-opacity:1.00" />
<!-- End 'A' -->
<!-- Begin 'T' -->
<rect height="1.081387" width="50.000000" x="810.000000" y="100.191101" fill="rgb(0, 100, 0)" style="fill-opacity:1.00" />
<rect height="6.758667" width="10.000000" x="830.000000" y="100.191101" fill="rgb(0, 100, 0)" style="fill-opacity:1.00" />
<!-- End 'T' -->
<!-- Begin 'C' -->
<ellipse cx="835.000000" cy="107.754735" rx="25.000000" ry="0.804967" fill="rgb(0, 0, 128)" style="fill-opacity:1.00" />
<ellipse cx="835.000000" cy="107.754735" rx="16.666667" ry="0.536645" fill="rgb(255, 255, 255)" style="fill-opacity:1.00" />
<rect height="0.804967" width="25.000000" x="835.000000" y="107.352252" fill="rgb(255, 255, 255)" style="fill-opacity:1.00" />
<!-- End 'C' -->
<!-- Begin 'G' -->
<ellipse cx="835.000000" cy="109.279851" rx="25.000000" ry="0.720149" fill="rgb(255, 165, 0)" style="fill-opacity:1.00" />
<ellipse cx="835.000000" cy="109.279851" rx="16.666667" ry="0.480099" fill="rgb(255, 255, 255)" style="fill-opacity:1.00" />
<rect height="0.720149" width="25.000000" x="835.000000" y="108.919777" fill="rgb(255, 255, 255)" style="fill-opacity:1.00" />
<rect height="0.180037" width="25.000000" x="835.000000" y="109.459889" fill="rgb(255, 165, 0)" style="fill-opacity:1.00" />
<rect height="0.540111" width="6.250000" x="853.750000" y="109.459889" fill="rgb(255, 165, 0)" style="fill-opacity:1.00" />
<!-- End 'G' -->
<!-- Begin 'T' -->
<rect height="0.746574" width="50.000000" x="870.000000" y="99.826216" fill="rgb(0, 100, 0)" style="fill-opacity:1.00" />
<rect height="4.666086" width="10.000000" x="890.000000" y="99.826216" fill="rgb(0, 100, 0)" style="fill-opacity:1.00" />
<!-- End 'T' -->
<!-- Begin 'A' -->
<polygon points=" 870.000000, 107.263787, 891.000000, 104.492303, 899.000000, 104.492303, 920.000000, 107.263787, 912.500000, 107.263787, 906.250000, 106.570916, 883.750000, 106.570916, 877.500000, 107.263787" fill="rgb(178, 34, 34)" style="fill-opacity:1.00" />
<!-- End 'A' -->
<!-- Begin 'C' -->
<ellipse cx="895.000000" cy="108.093195" rx="25.000000" ry="0.829409" fill="rgb(0, 0, 128)" style="fill-opacity:1.00" />
<ellipse cx="895.000000" cy="108.093195" rx="16.666667" ry="0.552939" fill="rgb(255, 255, 255)" style="fill-opacity:1.00" />
<rect height="0.829409" width="25.000000" x="895.000000" y="107.678491" fill="rgb(255, 255, 255)" style="fill-opacity:1.00" />
<!-- End 'C' -->
<!-- Begin 'G' -->
<ellipse cx="895.000000" cy="109.461302" rx="25.000000" ry="0.538698" fill="rgb(255, 165, 0)" style="fill-opacity:1.00" />
<ellipse cx="895.000000" cy="109.461302" rx="16.666667" ry="0.359132" fill="rgb(255, 255, 255)" style="fill-opacity:1.00" />
<rect height="0.538698" width="25.000000" x="895.000000" y="109.191953" fill="rgb(255, 255, 255)" style="fill-opacity:1.00" />
<rect height="0.134675" width="25.000000" x="895.000000" y="109.595976" fill="rgb(255, 165, 0)" style="fill-opacity:1.00" />
<rect height="0.404024" width="6.250000" x="913.750000" y="109.595976" fill="rgb(255, 165, 0)" style="fill-opacity:1.00" />
<!-- End 'G' -->
<text x="490.000000" y="165">
IC = 9.00
</text>

</svg>
