<?xml version="1.0" encoding="UTF-8" standalone="yes"?>
                 <!DOCTYPE svg PUBLIC "-//W3C//DTD SVG 1.0//EN" "http://www.w3.org/TR/2001/REC-SVG-20010904/DTD/svg10.dtd">
                 <svg height="170" width="1020" xmlns="http://www.w3.org/2000/svg" xmlns:xlink="http://www.w3.org/1999/xlink">
                 <line x1="85" y1="120" x2="987" y2="120" style="stroke:rgb(99,99,99);stroke-width:2" />
<rect height="7.000000" width="2.000000" x="85.000000" y="120.000000" fill="rgb(0, 0, 0)" style="fill-opacity:1.00" />
<text x="107.000000" y="140">
1
</text>
<rect height="7.000000" width="2.000000" x="145.000000" y="120.000000" fill="rgb(0, 0, 0)" style="fill-opacity:1.00" />
<text x="167.000000" y="140">
2
</text>
<rect height="7.000000" width="2.000000" x="205.000000" y="120.000000" fill="rgb(0, 0, 0)" style="fill-opacity:1.00" />
<text x="227.000000" y="140">
3
</text>
<rect height="7.000000" width="2.000000" x="265.000000" y="120.000000" fill="rgb(0, 0, 0)" style="fill-opacity:1.00" />
<text x="287.000000" y="140">
4
</text>
<rect height="7.000000" width="2.000000" x="325.000000" y="120.000000" fill="rgb(0, 0, 0)" style="fill-opacity:1.00" />
<text x="347.000000" y="140">
5
</text>
<rect height="7.000000" width="2.000000" x="385.000000" y="120.000000" fill="rgb(0, 0, 0)" style="fill-opacity:1.00" />
<text x="407.000000" y="140">
6
</text>
<rect height="7.000000" width="2.000000" x="445.000000" y="120.000000" fill="rgb(0, 0, 0)" style="fill-opacity:1.00" />
<text x="467.000000" y="140">
7
</text>
<rect height="7.000000" width="2.000000" x="505.000000" y="120.000000" fill="rgb(0, 0, 0)" style="fill-opacity:1.00" />
<text x="527.000000" y="140">
8
</text>
<rect height="7.000000" width="2.000000" x="565.000000" y="120.000000" fill="rgb(0, 0, 0)" style="fill-opacity:1.00" />
<text x="587.000000" y="140">
9
</text>
<rect height="7.000000" width="2.000000" x="625.000000" y="120.000000" fill="rgb(0, 0, 0)" style="fill-opacity:1.00" />
<text x="647.000000" y="140">
10
</text>
<rect height="7.000000" width="2.000000" x="685.000000" y="120.000000" fill="rgb(0, 0, 0)" style="fill-opacity:1.00" />
<text x="707.000000" y="140">
11
</text>
<rect height="7.000000" width="2.000000" x="745.000000" y="120.000000" fill="rgb(0, 0, 0)" style="fill-opacity:1.00" />
<text x="767.000000" y="140">
12
</text>
<rect height="7.000000" width="2.000000" x="805.000000" y="120.000000" fill="rgb(0, 0, 0)" style="fill-opacity:1.00" />
<text x="827.000000" y="140">
13
</text>
<rect height="7.000000" width="2.000000" x="865.000000" y="120.000000" fill="rgb(0, 0, 0)" style="fill-opacity:1.00" />
<text x="887.000000" y="140">
14
</text>
<rect height="7.000000" width="2.000000" x="925.000000" y="120.000000" fill="rgb(0, 0, 0)" style="fill-opacity:1.00" />
<text x="947.000000" y="140">
15
</text>
<rect height="7.000000" width="2.000000" x="985.000000" y="120.000000" fill="rgb(0, 0, 0)" style="fill-opacity:1.00" />
<line x1="80" y1="112" x2="80" y2="10" style="stroke:rgb(99,99,99);stroke-width:2" />
<rect height="2.000000" width="7.000000" x="73.000000" y="110.000000" fill="rgb(0, 0, 0)" style="fill-opacity:1.00" />
<text x="63" y="115">
0
</text>
<rect height="2.000000" width="7.000000" x="73.000000" y="60.000000" fill="rgb(0, 0, 0)" style="fill-opacity:1.00" />
<text x="63" y="65">
1
</text>
<rect height="2.000000" width="7.000000" x="73.000000" y="10.000000" fill="rgb(0, 0, 0)" style="fill-opacity:1.00" />
<text x="63" y="15">
2
</text>
<text x="50" y="65"
transform="rotate(-90, 50, 70)">
bits
</text>
<!-- Begin 'T' -->
<rect height="0.941677" width="50.000000" x="90.000000" y="96.084427" fill="rgb(0, 100, 0)" style="fill-opacity:1.00" />
<rect height="5.885479" width="10.000000" x="110.000000" y="96.084427" fill="rgb(0, 100, 0)" style="fill-opacity:1.00" />
<!-- End 'T' -->
<!-- Begin 'A' -->
<polygon points=" 90.000000, 107.202967, 111.000000, 101.969906, 119.000000, 101.969906, 140.000000, 107.202967, 132.500000, 107.202967, 126.250000, 105.894702, 103.750000, 105.894702, 97.500000, 107.202967" fill="rgb(178, 34, 34)" style="fill-opacity:1.00" />
<!-- End 'A' -->
<!-- Begin 'C' -->
<ellipse cx="115.000000" cy="107.931250" rx="25.000000" ry="0.728283" fill="rgb(0, 0, 128)" style="fill-opacity:1.00" />
<ellipse cx="115.000000" cy="107.931250" rx="16.666667" ry="0.485522" fill="rgb(255, 255, 255)" style="fill-opacity:1.00" />
<rect height="0.728283" width="25.000000" x="115.000000" y="107.567108" fill="rgb(255, 255, 255)" style="fill-opacity:1.00" />
<!-- End 'C' -->
<!-- Begin 'G' -->
<ellipse cx="115.000000" cy="109.329766" rx="25.000000" ry="0.670234" fill="rgb(255, 165, 0)" style="fill-opacity:1.00" />
<ellipse cx="115.000000" cy="109.329766" rx="16.666667" ry="0.446823" fill="rgb(255, 255, 255)" style="fill-opacity:1.00" />
<rect height="0.670234" width="25.000000" x="115.000000" y="108.994649" fill="rgb(255, 255, 255)" style="fill-opacity:1.00" />
<rect height="0.167558" width="25.000000" x="115.000000" y="109.497325" fill="rgb(255, 165, 0)" style="fill-opacity:1.00" />
<rect height="0.502675" width="6.250000" x="133.750000" y="109.497325" fill="rgb(255, 165, 0)" style="fill-opacity:1.00" />
<!-- End 'G' -->
<!-- Begin 'T' -->
<rect height="1.452097" width="50.000000" x="150.000000" y="90.543141" fill="rgb(0, 100, 0)" style="fill-opacity:1.00" />
<rect height="9.075607" width="10.000000" x="170.000000" y="90.543141" fill="rgb(0, 100, 0)" style="fill-opacity:1.00" />
<!-- End 'T' -->
<!-- Begin 'A' -->
<polygon points=" 150.000000, 107.024230, 171.000000, 99.618748, 179.000000, 99.618748, 200.000000, 107.024230, 192.500000, 107.024230, 186.250000, 105.172859, 163.750000, 105.172859, 157.500000, 107.024230" fill="rgb(178, 34, 34)" style="fill-opacity:1.00" />
<!-- End 'A' -->
<!-- Begin 'C' -->
<ellipse cx="175.000000" cy="107.773526" rx="25.000000" ry="0.749296" fill="rgb(0, 0, 128)" style="fill-opacity:1.00" />
<ellipse cx="175.000000" cy="107.773526" rx="16.666667" ry="0.499531" fill="rgb(255, 255, 255)" style="fill-opacity:1.00" />
<rect height="0.749296" width="25.000000" x="175.000000" y="107.398878" fill="rgb(255, 255, 255)" style="fill-opacity:1.00" />
<!-- End 'C' -->
<!-- Begin 'G' -->
<ellipse cx="175.000000" cy="109.261411" rx="25.000000" ry="0.738589" fill="rgb(255, 165, 0)" style="fill-opacity:1.00" />
<ellipse cx="175.000000" cy="109.261411" rx="16.666667" ry="0.492393" fill="rgb(255, 255, 255)" style="fill-opacity:1.00" />
<rect height="0.738589" width="25.000000" x="175.000000" y="108.892116" fill="rgb(255, 255, 255)" style="fill-opacity:1.00" />
<rect height="0.184647" width="25.000000" x="175.000000" y="109.446058" fill="rgb(255, 165, 0)" style="fill-opacity:1.00" />
<rect height="0.553942" width="6.250000" x="193.750000" y="109.446058" fill="rgb(255, 165, 0)" style="fill-opacity:1.00" />
<!-- End 'G' -->
<!-- Begin 'T' -->
<rect height="1.416321" width="50.000000" x="210.000000" y="90.562909" fill="rgb(0, 100, 0)" style="fill-opacity:1.00" />
<rect height="8.852004" width="10.000000" x="230.000000" y="90.562909" fill="rgb(0, 100, 0)" style="fill-opacity:1.00" />
<!-- End 'T' -->
<!-- Begin 'A' -->
<polygon points=" 210.000000, 106.995790, 231.000000, 99.414913, 239.000000, 99.414913, 260.000000, 106.995790, 252.500000, 106.995790, 246.250000, 105.100571, 223.750000, 105.100571, 217.500000, 106.995790" fill="rgb(178, 34, 34)" style="fill-opacity:1.00" />
<!-- End 'A' -->
<!-- Begin 'C' -->
<ellipse cx="235.000000" cy="107.923491" rx="25.000000" ry="0.927700" fill="rgb(0, 0, 128)" style="fill-opacity:1.00" />
<ellipse cx="235.000000" cy="107.923491" rx="16.666667" ry="0.618467" fill="rgb(255, 255, 255)" style="fill-opacity:1.00" />
<rect height="0.927700" width="25.000000" x="235.000000" y="107.459640" fill="rgb(255, 255, 255)" style="fill-opacity:1.00" />
<!-- End 'C' -->
<!-- Begin 'G' -->
<ellipse cx="235.000000" cy="109.425595" rx="25.000000" ry="0.574405" fill="rgb(255, 165, 0)" style="fill-opacity:1.00" />
<ellipse cx="235.000000" cy="109.425595" rx="16.666667" ry="0.382936" fill="rgb(255, 255, 255)" style="fill-opacity:1.00" />
<rect height="0.574405" width="25.000000" x="235.000000" y="109.138393" fill="rgb(255, 255, 255)" style="fill-opacity:1.00" />
<rect height="0.143601" width="25.000000" x="235.000000" y="109.569197" fill="rgb(255, 165, 0)" style="fill-opacity:1.00" />
<rect height="0.430803" width="6.250000" x="253.750000" y="109.569197" fill="rgb(255, 165, 0)" style="fill-opacity:1.00" />
<!-- End 'G' -->
<!-- Begin 'A' -->
<polygon points=" 270.000000, 102.559491, 291.000000, 97.268411, 299.000000, 97.268411, 320.000000, 102.559491, 312.500000, 102.559491, 306.250000, 101.236721, 283.750000, 101.236721, 277.500000, 102.559491" fill="rgb(178, 34, 34)" style="fill-opacity:1.00" />
<!-- End 'A' -->
<!-- Begin 'T' -->
<rect height="0.756587" width="50.000000" x="270.000000" y="102.559491" fill="rgb(0, 100, 0)" style="fill-opacity:1.00" />
<rect height="4.728671" width="10.000000" x="290.000000" y="102.559491" fill="rgb(0, 100, 0)" style="fill-opacity:1.00" />
<!-- End 'T' -->
<!-- Begin 'G' -->
<ellipse cx="295.000000" cy="107.974205" rx="25.000000" ry="0.686044" fill="rgb(255, 165, 0)" style="fill-opacity:1.00" />
<ellipse cx="295.000000" cy="107.974205" rx="16.666667" ry="0.457362" fill="rgb(255, 255, 255)" style="fill-opacity:1.00" />
<rect height="0.686044" width="25.000000" x="295.000000" y="107.631184" fill="rgb(255, 255, 255)" style="fill-opacity:1.00" />
<rect height="0.171511" width="25.000000" x="295.000000" y="108.145716" fill="rgb(255, 165, 0)" style="fill-opacity:1.00" />
<rect height="0.514533" width="6.250000" x="313.750000" y="108.145716" fill="rgb(255, 165, 0)" style="fill-opacity:1.00" />
<!-- End 'G' -->
<!-- Begin 'C' -->
<ellipse cx="295.000000" cy="109.330125" rx="25.000000" ry="0.669875" fill="rgb(0, 0, 128)" style="fill-opacity:1.00" />
<ellipse cx="295.000000" cy="109.330125" rx="16.666667" ry="0.446584" fill="rgb(255, 255, 255)" style="fill-opacity:1.00" />
<rect height="0.669875" width="25.000000" x="295.000000" y="108.995187" fill="rgb(255, 255, 255)" style="fill-opacity:1.00" />
<!-- End 'C' -->
<!-- Begin 'A' -->
<polygon points=" 330.000000, 103.619532, 351.000000, 97.723961, 359.000000, 97.723961, 380.000000, 103.619532, 372.500000, 103.619532, 366.250000, 102.145640, 343.750000, 102.145640, 337.500000, 103.619532" fill="rgb(178, 34, 34)" style="fill-opacity:1.00" />
<!-- End 'A' -->
<!-- Begin 'T' -->
<rect height="0.551538" width="50.000000" x="330.000000" y="103.619532" fill="rgb(0, 100, 0)" style="fill-opacity:1.00" />
<rect height="3.447113" width="10.000000" x="350.000000" y="103.619532" fill="rgb(0, 100, 0)" style="fill-opacity:1.00" />
<!-- End 'T' -->
<!-- Begin 'G' -->
<ellipse cx="355.000000" cy="107.845378" rx="25.000000" ry="0.778733" fill="rgb(255, 165, 0)" style="fill-opacity:1.00" />
<ellipse cx="355.000000" cy="107.845378" rx="16.666667" ry="0.519155" fill="rgb(255, 255, 255)" style="fill-opacity:1.00" />
<rect height="0.778733" width="25.000000" x="355.000000" y="107.456012" fill="rgb(255, 255, 255)" style="fill-opacity:1.00" />
<rect height="0.194683" width="25.000000" x="355.000000" y="108.040062" fill="rgb(255, 165, 0)" style="fill-opacity:1.00" />
<rect height="0.584049" width="6.250000" x="373.750000" y="108.040062" fill="rgb(255, 165, 0)" style="fill-opacity:1.00" />
<!-- End 'G' -->
<!-- Begin 'C' -->
<ellipse cx="355.000000" cy="109.312056" rx="25.000000" ry="0.687944" fill="rgb(0, 0, 128)" style="fill-opacity:1.00" />
<ellipse cx="355.000000" cy="109.312056" rx="16.666667" ry="0.458630" fill="rgb(255, 255, 255)" style="fill-opacity:1.00" />
<rect height="0.687944" width="25.000000" x="355.000000" y="108.968083" fill="rgb(255, 255, 255)" style="fill-opacity:1.00" />
<!-- End 'C' -->
<!-- Begin 'A' -->
<polygon points=" 390.000000, 101.847596, 411.000000, 91.806751, 419.000000, 91.806751, 440.000000, 101.847596, 432.500000, 101.847596, 426.250000, 99.337385, 403.750000, 99.337385, 397.500000, 101.847596" fill="rgb(178, 34, 34)" style="fill-opacity:1.00" />
<polygon points=" 415.000000, 93.814920, 407.000000, 96.831258, 422.000000, 96.831258" fill="rgb(255, 255, 255)" style="fill-opacity:1.00" />
<!-- End 'A' -->
<!-- Begin 'T' -->
<rect height="0.694296" width="50.000000" x="390.000000" y="101.847596" fill="rgb(0, 100, 0)" style="fill-opacity:1.00" />
<rect height="4.339350" width="10.000000" x="410.000000" y="101.847596" fill="rgb(0, 100, 0)" style="fill-opacity:1.00" />
<!-- End 'T' -->
<!-- Begin 'G' -->
<ellipse cx="415.000000" cy="107.411521" rx="25.000000" ry="1.224574" fill="rgb(255, 165, 0)" style="fill-opacity:1.00" />
<ellipse cx="415.000000" cy="107.411521" rx="16.666667" ry="0.816383" fill="rgb(255, 255, 255)" style="fill-opacity:1.00" />
<rect height="1.224574" width="25.000000" x="415.000000" y="106.799234" fill="rgb(255, 255, 255)" style="fill-opacity:1.00" />
<rect height="0.306144" width="25.000000" x="415.000000" y="107.717665" fill="rgb(255, 165, 0)" style="fill-opacity:1.00" />
<rect height="0.918431" width="6.250000" x="433.750000" y="107.717665" fill="rgb(255, 165, 0)" style="fill-opacity:1.00" />
<!-- End 'G' -->
<!-- Begin 'C' -->
<ellipse cx="415.000000" cy="109.318048" rx="25.000000" ry="0.681952" fill="rgb(0, 0, 128)" style="fill-opacity:1.00" />
<ellipse cx="415.000000" cy="109.318048" rx="16.666667" ry="0.454635" fill="rgb(255, 255, 255)" style="fill-opacity:1.00" />
<rect height="0.681952" width="25.000000" x="415.000000" y="108.977071" fill="rgb(255, 255, 255)" style="fill-opacity:1.00" />
<!-- End 'C' -->
<!-- Begin 'A' -->
<polygon points=" 450.000000, 102.346667, 471.000000, 93.863537, 479.000000, 93.863537, 500.000000, 102.346667, 492.500000, 102.346667, 486.250000, 100.225884, 463.750000, 100.225884, 457.500000, 102.346667" fill="rgb(178, 34, 34)" style="fill-opacity:1.00" />
<polygon points=" 475.000000, 95.560163, 467.000000, 97.953415, 482.000000, 97.953415" fill="rgb(255, 255, 255)" style="fill-opacity:1.00" />
<!-- End 'A' -->
<!-- Begin 'T' -->
<rect height="0.678318" width="50.000000" x="450.000000" y="102.346667" fill="rgb(0, 100, 0)" style="fill-opacity:1.00" />
<rect height="4.239487" width="10.000000" x="470.000000" y="102.346667" fill="rgb(0, 100, 0)" style="fill-opacity:1.00" />
<!-- End 'T' -->
<!-- Begin 'G' -->
<ellipse cx="475.000000" cy="107.552562" rx="25.000000" ry="0.966408" fill="rgb(255, 165, 0)" style="fill-opacity:1.00" />
<ellipse cx="475.000000" cy="107.552562" rx="16.666667" ry="0.644272" fill="rgb(255, 255, 255)" style="fill-opacity:1.00" />
<rect height="0.966408" width="25.000000" x="475.000000" y="107.069358" fill="rgb(255, 255, 255)" style="fill-opacity:1.00" />
<rect height="0.241602" width="25.000000" x="475.000000" y="107.794164" fill="rgb(255, 165, 0)" style="fill-opacity:1.00" />
<rect height="0.724806" width="6.250000" x="493.750000" y="107.794164" fill="rgb(255, 165, 0)" style="fill-opacity:1.00" />
<!-- End 'G' -->
<!-- Begin 'C' -->
<ellipse cx="475.000000" cy="109.259485" rx="25.000000" ry="0.740515" fill="rgb(0, 0, 128)" style="fill-opacity:1.00" />
<ellipse cx="475.000000" cy="109.259485" rx="16.666667" ry="0.493677" fill="rgb(255, 255, 255)" style="fill-opacity:1.00" />
<rect height="0.740515" width="25.000000" x="475.000000" y="108.889228" fill="rgb(255, 255, 255)" style="fill-opacity:1.00" />
<!-- End 'C' -->
<!-- Begin 'A' -->
<polygon points=" 510.000000, 94.364961, 531.000000, 80.113843, 539.000000, 80.113843, 560.000000, 94.364961, 552.500000, 94.364961, 546.250000, 90.802182, 523.750000, 90.802182, 517.500000, 94.364961" fill="rgb(178, 34, 34)" style="fill-opacity:1.00" />
<polygon points=" 535.000000, 82.964066, 527.000000, 87.664514, 542.000000, 87.664514" fill="rgb(255, 255, 255)" style="fill-opacity:1.00" />
<!-- End 'A' -->
<!-- Begin 'T' -->
<rect height="2.087169" width="50.000000" x="510.000000" y="94.364961" fill="rgb(0, 100, 0)" style="fill-opacity:1.00" />
<rect height="13.044804" width="10.000000" x="530.000000" y="94.364961" fill="rgb(0, 100, 0)" style="fill-opacity:1.00" />
<!-- End 'T' -->
<!-- Begin 'G' -->
<ellipse cx="535.000000" cy="108.427274" rx="25.000000" ry="1.017508" fill="rgb(255, 165, 0)" style="fill-opacity:1.00" />
<ellipse cx="535.000000" cy="108.427274" rx="16.666667" ry="0.678339" fill="rgb(255, 255, 255)" style="fill-opacity:1.00" />
<rect height="1.017508" width="25.000000" x="535.000000" y="107.918520" fill="rgb(255, 255, 255)" style="fill-opacity:1.00" />
<rect height="0.254377" width="25.000000" x="535.000000" y="108.681651" fill="rgb(255, 165, 0)" style="fill-opacity:1.00" />
<rect height="0.763131" width="6.250000" x="553.750000" y="108.681651" fill="rgb(255, 165, 0)" style="fill-opacity:1.00" />
<!-- End 'G' -->
<!-- Begin 'C' -->
<ellipse cx="535.000000" cy="109.722391" rx="25.000000" ry="0.277609" fill="rgb(0, 0, 128)" style="fill-opacity:1.00" />
<ellipse cx="535.000000" cy="109.722391" rx="16.666667" ry="0.185073" fill="rgb(255, 255, 255)" style="fill-opacity:1.00" />
<rect height="0.277609" width="25.000000" x="535.000000" y="109.583586" fill="rgb(255, 255, 255)" style="fill-opacity:1.00" />
<!-- End 'C' -->
<!-- Begin 'T' -->
<rect height="11.597338" width="50.000000" x="570.000000" y="32.075308" fill="rgb(0, 100, 0)" style="fill-opacity:1.00" />
<rect height="72.483362" width="10.000000" x="590.000000" y="32.075308" fill="rgb(0, 100, 0)" style="fill-opacity:1.00" />
<!-- End 'T' -->
<!-- Begin 'A' -->
<polygon points=" 570.000000, 108.477872, 591.000000, 104.558670, 599.000000, 104.558670, 620.000000, 108.477872, 612.500000, 108.477872, 606.250000, 107.498072, 583.750000, 107.498072, 577.500000, 108.477872" fill="rgb(178, 34, 34)" style="fill-opacity:1.00" />
<!-- End 'A' -->
<!-- Begin 'C' -->
<ellipse cx="595.000000" cy="109.031297" rx="25.000000" ry="0.553425" fill="rgb(0, 0, 128)" style="fill-opacity:1.00" />
<ellipse cx="595.000000" cy="109.031297" rx="16.666667" ry="0.368950" fill="rgb(255, 255, 255)" style="fill-opacity:1.00" />
<rect height="0.553425" width="25.000000" x="595.000000" y="108.754585" fill="rgb(255, 255, 255)" style="fill-opacity:1.00" />
<!-- End 'C' -->
<!-- Begin 'G' -->
<ellipse cx="595.000000" cy="109.792361" rx="25.000000" ry="0.207639" fill="rgb(255, 165, 0)" style="fill-opacity:1.00" />
<ellipse cx="595.000000" cy="109.792361" rx="16.666667" ry="0.138426" fill="rgb(255, 255, 255)" style="fill-opacity:1.00" />
<rect height="0.207639" width="25.000000" x="595.000000" y="109.688542" fill="rgb(255, 255, 255)" style="fill-opacity:1.00" />
<rect height="0.051910" width="25.000000" x="595.000000" y="109.844271" fill="rgb(255, 165, 0)" style="fill-opacity:1.00" />
<rect height="0.155729" width="6.250000" x="613.750000" y="109.844271" fill="rgb(255, 165, 0)" style="fill-opacity:1.00" />
<!-- End 'G' -->
<!-- Begin 'T' -->
<rect height="12.520962" width="50.000000" x="630.000000" y="27.642270" fill="rgb(0, 100, 0)" style="fill-opacity:1.00" />
<rect height="78.256013" width="10.000000" x="650.000000" y="27.642270" fill="rgb(0, 100, 0)" style="fill-opacity:1.00" />
<!-- End 'T' -->
<!-- Begin 'A' -->
<polygon points=" 630.000000, 108.216974, 651.000000, 105.898283, 659.000000, 105.898283, 680.000000, 108.216974, 672.500000, 108.216974, 666.250000, 107.637301, 643.750000, 107.637301, 637.500000, 108.216974" fill="rgb(178, 34, 34)" style="fill-opacity:1.00" />
<!-- End 'A' -->
<!-- Begin 'C' -->
<ellipse cx="655.000000" cy="108.871293" rx="25.000000" ry="0.654318" fill="rgb(0, 0, 128)" style="fill-opacity:1.00" />
<ellipse cx="655.000000" cy="108.871293" rx="16.666667" ry="0.436212" fill="rgb(255, 255, 255)" style="fill-opacity:1.00" />
<rect height="0.654318" width="25.000000" x="655.000000" y="108.544134" fill="rgb(255, 255, 255)" style="fill-opacity:1.00" />
<!-- End 'C' -->
<!-- Begin 'G' -->
<ellipse cx="655.000000" cy="109.762806" rx="25.000000" ry="0.237194" fill="rgb(255, 165, 0)" style="fill-opacity:1.00" />
<ellipse cx="655.000000" cy="109.762806" rx="16.666667" ry="0.158130" fill="rgb(255, 255, 255)" style="fill-opacity:1.00" />
<rect height="0.237194" width="25.000000" x="655.000000" y="109.644208" fill="rgb(255, 255, 255)" style="fill-opacity:1.00" />
<rect height="0.059299" width="25.000000" x="655.000000" y="109.822104" fill="rgb(255, 165, 0)" style="fill-opacity:1.00" />
<rect height="0.177896" width="6.250000" x="673.750000" y="109.822104" fill="rgb(255, 165, 0)" style="fill-opacity:1.00" />
<!-- End 'G' -->
<!-- Begin 'T' -->
<rect height="6.021820" width="50.000000" x="690.000000" y="58.846957" fill="rgb(0, 100, 0)" style="fill-opacity:1.00" />
<rect height="37.636375" width="10.000000" x="710.000000" y="58.846957" fill="rgb(0, 100, 0)" style="fill-opacity:1.00" />
<!-- End 'T' -->
<!-- Begin 'C' -->
<ellipse cx="715.000000" cy="102.591579" rx="25.000000" ry="6.108247" fill="rgb(0, 0, 128)" style="fill-opacity:1.00" />
<ellipse cx="715.000000" cy="102.591579" rx="16.666667" ry="4.072165" fill="rgb(255, 255, 255)" style="fill-opacity:1.00" />
<rect height="6.108247" width="25.000000" x="715.000000" y="99.537455" fill="rgb(255, 255, 255)" style="fill-opacity:1.00" />
<!-- End 'C' -->
<!-- Begin 'A' -->
<polygon points=" 690.000000, 109.575799, 711.000000, 108.699826, 719.000000, 108.699826, 740.000000, 109.575799, 732.500000, 109.575799, 726.250000, 109.356806, 703.750000, 109.356806, 697.500000, 109.575799" fill="rgb(178, 34, 34)" style="fill-opacity:1.00" />
<!-- End 'A' -->
<!-- Begin 'G' -->
<ellipse cx="715.000000" cy="109.787900" rx="25.000000" ry="0.212100" fill="rgb(255, 165, 0)" style="fill-opacity:1.00" />
<ellipse cx="715.000000" cy="109.787900" rx="16.666667" ry="0.141400" fill="rgb(255, 255, 255)" style="fill-opacity:1.00" />
<rect height="0.212100" width="25.000000" x="715.000000" y="109.681849" fill="rgb(255, 255, 255)" style="fill-opacity:1.00" />
<rect height="0.053025" width="25.000000" x="715.000000" y="109.840925" fill="rgb(255, 165, 0)" style="fill-opacity:1.00" />
<rect height="0.159075" width="6.250000" x="733.750000" y="109.840925" fill="rgb(255, 165, 0)" style="fill-opacity:1.00" />
<!-- End 'G' -->
<!-- Begin 'A' -->
<polygon points=" 750.000000, 96.494003, 771.000000, 59.226914, 779.000000, 59.226914, 800.000000, 96.494003, 792.500000, 96.494003, 786.250000, 87.177231, 763.750000, 87.177231, 757.500000, 96.494003" fill="rgb(178, 34, 34)" style="fill-opacity:1.00" />
<polygon points=" 775.000000, 66.680332, 767.000000, 80.587168, 782.000000, 80.587168" fill="rgb(255, 255, 255)" style="fill-opacity:1.00" />
<!-- End 'A' -->
<!-- Begin 'G' -->
<ellipse cx="775.000000" cy="102.557277" rx="25.000000" ry="6.063274" fill="rgb(255, 165, 0)" style="fill-opacity:1.00" />
<ellipse cx="775.000000" cy="102.557277" rx="16.666667" ry="4.042183" fill="rgb(255, 255, 255)" style="fill-opacity:1.00" />
<rect height="6.063274" width="25.000000" x="775.000000" y="99.525640" fill="rgb(255, 255, 255)" style="fill-opacity:1.00" />
<rect height="1.515819" width="25.000000" x="775.000000" y="104.073096" fill="rgb(255, 165, 0)" style="fill-opacity:1.00" />
<rect height="4.547456" width="6.250000" x="793.750000" y="104.073096" fill="rgb(255, 165, 0)" style="fill-opacity:1.00" />
<!-- End 'G' -->
<!-- Begin 'T' -->
<rect height="0.164114" width="50.000000" x="750.000000" y="108.620552" fill="rgb(0, 100, 0)" style="fill-opacity:1.00" />
<rect height="1.025710" width="10.000000" x="770.000000" y="108.620552" fill="rgb(0, 100, 0)" style="fill-opacity:1.00" />
<!-- End 'T' -->
<!-- Begin 'C' -->
<ellipse cx="775.000000" cy="109.823131" rx="25.000000" ry="0.176869" fill="rgb(0, 0, 128)" style="fill-opacity:1.00" />
<ellipse cx="775.000000" cy="109.823131" rx="16.666667" ry="0.117913" fill="rgb(255, 255, 255)" style="fill-opacity:1.00" />
<rect height="0.176869" width="25.000000" x="775.000000" y="109.734696" fill="rgb(255, 255, 255)" style="fill-opacity:1.00" />
<!-- End 'C' -->
<!-- Begin 'A' -->
<polygon points=" 810.000000, 105.816190, 831.000000, 28.651590, 839.000000, 28.651590, 860.000000, 105.816190, 852.500000, 105.816190, 846.250000, 86.525040, 823.750000, 86.525040, 817.500000, 105.816190" fill="rgb(178, 34, 34)" style="fill-opacity:1.00" />
<polygon points=" 835.000000, 44.084510, 827.000000, 73.950350, 842.000000, 73.950350" fill="rgb(255, 255, 255)" style="fill-opacity:1.00" />
<!-- End 'A' -->
<!-- Begin 'T' -->
<rect height="0.260635" width="50.000000" x="810.000000" y="105.816190" fill="rgb(0, 100, 0)" style="fill-opacity:1.00" />
<rect height="1.628971" width="10.000000" x="830.000000" y="105.816190" fill="rgb(0, 100, 0)" style="fill-opacity:1.00" />
<!-- End 'T' -->
<!-- Begin 'C' -->
<ellipse cx="835.000000" cy="108.170391" rx="25.000000" ry="0.725230" fill="rgb(0, 0, 128)" style="fill-opacity:1.00" />
<ellipse cx="835.000000" cy="108.170391" rx="16.666667" ry="0.483487" fill="rgb(255, 255, 255)" style="fill-opacity:1.00" />
<rect height="0.725230" width="25.000000" x="835.000000" y="107.807776" fill="rgb(255, 255, 255)" style="fill-opacity:1.00" />
<!-- End 'C' -->
<!-- Begin 'G' -->
<ellipse cx="835.000000" cy="109.447811" rx="25.000000" ry="0.552189" fill="rgb(255, 165, 0)" style="fill-opacity:1.00" />
<ellipse cx="835.000000" cy="109.447811" rx="16.666667" ry="0.368126" fill="rgb(255, 255, 255)" style="fill-opacity:1.00" />
<rect height="0.552189" width="25.000000" x="835.000000" y="109.171716" fill="rgb(255, 255, 255)" style="fill-opacity:1.00" />
<rect height="0.138047" width="25.000000" x="835.000000" y="109.585858" fill="rgb(255, 165, 0)" style="fill-opacity:1.00" />
<rect height="0.414142" width="6.250000" x="853.750000" y="109.585858" fill="rgb(255, 165, 0)" style="fill-opacity:1.00" />
<!-- End 'G' -->
<!-- Begin 'A' -->
<polygon points=" 870.000000, 105.186879, 891.000000, 29.835723, 899.000000, 29.835723, 920.000000, 105.186879, 912.500000, 105.186879, 906.250000, 86.349090, 883.750000, 86.349090, 877.500000, 105.186879" fill="rgb(178, 34, 34)" style="fill-opacity:1.00" />
<polygon points=" 895.000000, 44.905954, 887.000000, 74.046416, 902.000000, 74.046416" fill="rgb(255, 255, 255)" style="fill-opacity:1.00" />
<!-- End 'A' -->
<!-- Begin 'T' -->
<rect height="0.547497" width="50.000000" x="870.000000" y="105.186879" fill="rgb(0, 100, 0)" style="fill-opacity:1.00" />
<rect height="3.421856" width="10.000000" x="890.000000" y="105.186879" fill="rgb(0, 100, 0)" style="fill-opacity:1.00" />
<!-- End 'T' -->
<!-- Begin 'G' -->
<ellipse cx="895.000000" cy="109.013118" rx="25.000000" ry="0.404383" fill="rgb(255, 165, 0)" style="fill-opacity:1.00" />
<ellipse cx="895.000000" cy="109.013118" rx="16.666667" ry="0.269589" fill="rgb(255, 255, 255)" style="fill-opacity:1.00" />
<rect height="0.404383" width="25.000000" x="895.000000" y="108.810926" fill="rgb(255, 255, 255)" style="fill-opacity:1.00" />
<rect height="0.101096" width="25.000000" x="895.000000" y="109.114214" fill="rgb(255, 165, 0)" style="fill-opacity:1.00" />
<rect height="0.303287" width="6.250000" x="913.750000" y="109.114214" fill="rgb(255, 165, 0)" style="fill-opacity:1.00" />
<!-- End 'G' -->
<!-- Begin 'C' -->
<ellipse cx="895.000000" cy="109.708751" rx="25.000000" ry="0.291249" fill="rgb(0, 0, 128)" style="fill-opacity:1.00" />
<ellipse cx="895.000000" cy="109.708751" rx="16.666667" ry="0.194166" fill="rgb(255, 255, 255)" style="fill-opacity:1.00" />
<rect height="0.291249" width="25.000000" x="895.000000" y="109.563126" fill="rgb(255, 255, 255)" style="fill-opacity:1.00" />
<!-- End 'C' -->
<!-- Begin 'A' -->
<polygon points=" 930.000000, 94.858132, 951.000000, 82.469620, 959.000000, 82.469620, 980.000000, 94.858132, 972.500000, 94.858132, 966.250000, 91.761004, 943.750000, 91.761004, 937.500000, 94.858132" fill="rgb(178, 34, 34)" style="fill-opacity:1.00" />
<polygon points=" 955.000000, 84.947322, 947.000000, 88.902727, 962.000000, 88.902727" fill="rgb(255, 255, 255)" style="fill-opacity:1.00" />
<!-- End 'A' -->
<!-- Begin 'T' -->
<rect height="1.966542" width="50.000000" x="930.000000" y="94.858132" fill="rgb(0, 100, 0)" style="fill-opacity:1.00" />
<rect height="12.290888" width="10.000000" x="950.000000" y="94.858132" fill="rgb(0, 100, 0)" style="fill-opacity:1.00" />
<!-- End 'T' -->
<!-- Begin 'C' -->
<ellipse cx="955.000000" cy="108.302712" rx="25.000000" ry="1.153692" fill="rgb(0, 0, 128)" style="fill-opacity:1.00" />
<ellipse cx="955.000000" cy="108.302712" rx="16.666667" ry="0.769128" fill="rgb(255, 255, 255)" style="fill-opacity:1.00" />
<rect height="1.153692" width="25.000000" x="955.000000" y="107.725866" fill="rgb(255, 255, 255)" style="fill-opacity:1.00" />
<!-- End 'C' -->
<!-- Begin 'G' -->
<ellipse cx="955.000000" cy="109.728202" rx="25.000000" ry="0.271798" fill="rgb(255, 165, 0)" style="fill-opacity:1.00" />
<ellipse cx="955.000000" cy="109.728202" rx="16.666667" ry="0.181199" fill="rgb(255, 255, 255)" style="fill-opacity:1.00" />
<rect height="0.271798" width="25.000000" x="955.000000" y="109.592303" fill="rgb(255, 255, 255)" style="fill-opacity:1.00" />
<rect height="0.067949" width="25.000000" x="955.000000" y="109.796152" fill="rgb(255, 165, 0)" style="fill-opacity:1.00" />
<rect height="0.203848" width="6.250000" x="973.750000" y="109.796152" fill="rgb(255, 165, 0)" style="fill-opacity:1.00" />
<!-- End 'G' -->
<text x="520.000000" y="165">
IC = 11.87
</text>

</svg>
