<?xml version="1.0" encoding="UTF-8" standalone="yes"?>
                 <!DOCTYPE svg PUBLIC "-//W3C//DTD SVG 1.0//EN" "http://www.w3.org/TR/2001/REC-SVG-20010904/DTD/svg10.dtd">
                 <svg height="170" width="1020" xmlns="http://www.w3.org/2000/svg" xmlns:xlink="http://www.w3.org/1999/xlink">
                 <line x1="85" y1="120" x2="987" y2="120" style="stroke:rgb(99,99,99);stroke-width:2" />
<rect height="7.000000" width="2.000000" x="85.000000" y="120.000000" fill="rgb(0, 0, 0)" style="fill-opacity:1.00" />
<text x="107.000000" y="140">
1
</text>
<rect height="7.000000" width="2.000000" x="145.000000" y="120.000000" fill="rgb(0, 0, 0)" style="fill-opacity:1.00" />
<text x="167.000000" y="140">
2
</text>
<rect height="7.000000" width="2.000000" x="205.000000" y="120.000000" fill="rgb(0, 0, 0)" style="fill-opacity:1.00" />
<text x="227.000000" y="140">
3
</text>
<rect height="7.000000" width="2.000000" x="265.000000" y="120.000000" fill="rgb(0, 0, 0)" style="fill-opacity:1.00" />
<text x="287.000000" y="140">
4
</text>
<rect height="7.000000" width="2.000000" x="325.000000" y="120.000000" fill="rgb(0, 0, 0)" style="fill-opacity:1.00" />
<text x="347.000000" y="140">
5
</text>
<rect height="7.000000" width="2.000000" x="385.000000" y="120.000000" fill="rgb(0, 0, 0)" style="fill-opacity:1.00" />
<text x="407.000000" y="140">
6
</text>
<rect height="7.000000" width="2.000000" x="445.000000" y="120.000000" fill="rgb(0, 0, 0)" style="fill-opacity:1.00" />
<text x="467.000000" y="140">
7
</text>
<rect height="7.000000" width="2.000000" x="505.000000" y="120.000000" fill="rgb(0, 0, 0)" style="fill-opacity:1.00" />
<text x="527.000000" y="140">
8
</text>
<rect height="7.000000" width="2.000000" x="565.000000" y="120.000000" fill="rgb(0, 0, 0)" style="fill-opacity:1.00" />
<text x="587.000000" y="140">
9
</text>
<rect height="7.000000" width="2.000000" x="625.000000" y="120.000000" fill="rgb(0, 0, 0)" style="fill-opacity:1.00" />
<text x="647.000000" y="140">
10
</text>
<rect height="7.000000" width="2.000000" x="685.000000" y="120.000000" fill="rgb(0, 0, 0)" style="fill-opacity:1.00" />
<text x="707.000000" y="140">
11
</text>
<rect height="7.000000" width="2.000000" x="745.000000" y="120.000000" fill="rgb(0, 0, 0)" style="fill-opacity:1.00" />
<text x="767.000000" y="140">
12
</text>
<rect height="7.000000" width="2.000000" x="805.000000" y="120.000000" fill="rgb(0, 0, 0)" style="fill-opacity:1.00" />
<text x="827.000000" y="140">
13
</text>
<rect height="7.000000" width="2.000000" x="865.000000" y="120.000000" fill="rgb(0, 0, 0)" style="fill-opacity:1.00" />
<text x="887.000000" y="140">
14
</text>
<rect height="7.000000" width="2.000000" x="925.000000" y="120.000000" fill="rgb(0, 0, 0)" style="fill-opacity:1.00" />
<text x="947.000000" y="140">
15
</text>
<rect height="7.000000" width="2.000000" x="985.000000" y="120.000000" fill="rgb(0, 0, 0)" style="fill-opacity:1.00" />
<line x1="80" y1="112" x2="80" y2="10" style="stroke:rgb(99,99,99);stroke-width:2" />
<rect height="2.000000" width="7.000000" x="73.000000" y="110.000000" fill="rgb(0, 0, 0)" style="fill-opacity:1.00" />
<text x="63" y="115">
0
</text>
<rect height="2.000000" width="7.000000" x="73.000000" y="60.000000" fill="rgb(0, 0, 0)" style="fill-opacity:1.00" />
<text x="63" y="65">
1
</text>
<rect height="2.000000" width="7.000000" x="73.000000" y="10.000000" fill="rgb(0, 0, 0)" style="fill-opacity:1.00" />
<text x="63" y="15">
2
</text>
<text x="50" y="65"
transform="rotate(-90, 50, 70)">
bits
</text>
<!-- Begin 'A' -->
<polygon points=" 90.000000, 106.777873, 111.000000, 105.067564, 119.000000, 105.067564, 140.000000, 106.777873, 132.500000, 106.777873, 126.250000, 106.350296, 103.750000, 106.350296, 97.500000, 106.777873" fill="rgb(178, 34, 34)" style="fill-opacity:1.00" />
<!-- End 'A' -->
<!-- Begin 'T' -->
<rect height="0.264887" width="50.000000" x="90.000000" y="106.777873" fill="rgb(0, 100, 0)" style="fill-opacity:1.00" />
<rect height="1.655545" width="10.000000" x="110.000000" y="106.777873" fill="rgb(0, 100, 0)" style="fill-opacity:1.00" />
<!-- End 'T' -->
<!-- Begin 'C' -->
<ellipse cx="115.000000" cy="108.838749" rx="25.000000" ry="0.405331" fill="rgb(0, 0, 128)" style="fill-opacity:1.00" />
<ellipse cx="115.000000" cy="108.838749" rx="16.666667" ry="0.270221" fill="rgb(255, 255, 255)" style="fill-opacity:1.00" />
<rect height="0.405331" width="25.000000" x="115.000000" y="108.636084" fill="rgb(255, 255, 255)" style="fill-opacity:1.00" />
<!-- End 'C' -->
<!-- Begin 'G' -->
<ellipse cx="115.000000" cy="109.622040" rx="25.000000" ry="0.377960" fill="rgb(255, 165, 0)" style="fill-opacity:1.00" />
<ellipse cx="115.000000" cy="109.622040" rx="16.666667" ry="0.251973" fill="rgb(255, 255, 255)" style="fill-opacity:1.00" />
<rect height="0.377960" width="25.000000" x="115.000000" y="109.433061" fill="rgb(255, 255, 255)" style="fill-opacity:1.00" />
<rect height="0.094490" width="25.000000" x="115.000000" y="109.716530" fill="rgb(255, 165, 0)" style="fill-opacity:1.00" />
<rect height="0.283470" width="6.250000" x="133.750000" y="109.716530" fill="rgb(255, 165, 0)" style="fill-opacity:1.00" />
<!-- End 'G' -->
<!-- Begin 'A' -->
<polygon points=" 150.000000, 106.389544, 171.000000, 104.247562, 179.000000, 104.247562, 200.000000, 106.389544, 192.500000, 106.389544, 186.250000, 105.854048, 163.750000, 105.854048, 157.500000, 106.389544" fill="rgb(178, 34, 34)" style="fill-opacity:1.00" />
<!-- End 'A' -->
<!-- Begin 'T' -->
<rect height="0.296143" width="50.000000" x="150.000000" y="106.389544" fill="rgb(0, 100, 0)" style="fill-opacity:1.00" />
<rect height="1.850891" width="10.000000" x="170.000000" y="106.389544" fill="rgb(0, 100, 0)" style="fill-opacity:1.00" />
<!-- End 'T' -->
<!-- Begin 'C' -->
<ellipse cx="175.000000" cy="108.705923" rx="25.000000" ry="0.465489" fill="rgb(0, 0, 128)" style="fill-opacity:1.00" />
<ellipse cx="175.000000" cy="108.705923" rx="16.666667" ry="0.310326" fill="rgb(255, 255, 255)" style="fill-opacity:1.00" />
<rect height="0.465489" width="25.000000" x="175.000000" y="108.473179" fill="rgb(255, 255, 255)" style="fill-opacity:1.00" />
<!-- End 'C' -->
<!-- Begin 'G' -->
<ellipse cx="175.000000" cy="109.585706" rx="25.000000" ry="0.414294" fill="rgb(255, 165, 0)" style="fill-opacity:1.00" />
<ellipse cx="175.000000" cy="109.585706" rx="16.666667" ry="0.276196" fill="rgb(255, 255, 255)" style="fill-opacity:1.00" />
<rect height="0.414294" width="25.000000" x="175.000000" y="109.378559" fill="rgb(255, 255, 255)" style="fill-opacity:1.00" />
<rect height="0.103574" width="25.000000" x="175.000000" y="109.689279" fill="rgb(255, 165, 0)" style="fill-opacity:1.00" />
<rect height="0.310721" width="6.250000" x="193.750000" y="109.689279" fill="rgb(255, 165, 0)" style="fill-opacity:1.00" />
<!-- End 'G' -->
<!-- Begin 'A' -->
<polygon points=" 210.000000, 106.867326, 231.000000, 105.157823, 239.000000, 105.157823, 260.000000, 106.867326, 252.500000, 106.867326, 246.250000, 106.439950, 223.750000, 106.439950, 217.500000, 106.867326" fill="rgb(178, 34, 34)" style="fill-opacity:1.00" />
<!-- End 'A' -->
<!-- Begin 'T' -->
<rect height="0.253124" width="50.000000" x="210.000000" y="106.867326" fill="rgb(0, 100, 0)" style="fill-opacity:1.00" />
<rect height="1.582022" width="10.000000" x="230.000000" y="106.867326" fill="rgb(0, 100, 0)" style="fill-opacity:1.00" />
<!-- End 'T' -->
<!-- Begin 'C' -->
<ellipse cx="235.000000" cy="108.859072" rx="25.000000" ry="0.409723" fill="rgb(0, 0, 128)" style="fill-opacity:1.00" />
<ellipse cx="235.000000" cy="108.859072" rx="16.666667" ry="0.273149" fill="rgb(255, 255, 255)" style="fill-opacity:1.00" />
<rect height="0.409723" width="25.000000" x="235.000000" y="108.654210" fill="rgb(255, 255, 255)" style="fill-opacity:1.00" />
<!-- End 'C' -->
<!-- Begin 'G' -->
<ellipse cx="235.000000" cy="109.634398" rx="25.000000" ry="0.365602" fill="rgb(255, 165, 0)" style="fill-opacity:1.00" />
<ellipse cx="235.000000" cy="109.634398" rx="16.666667" ry="0.243735" fill="rgb(255, 255, 255)" style="fill-opacity:1.00" />
<rect height="0.365602" width="25.000000" x="235.000000" y="109.451596" fill="rgb(255, 255, 255)" style="fill-opacity:1.00" />
<rect height="0.091401" width="25.000000" x="235.000000" y="109.725798" fill="rgb(255, 165, 0)" style="fill-opacity:1.00" />
<rect height="0.274202" width="6.250000" x="253.750000" y="109.725798" fill="rgb(255, 165, 0)" style="fill-opacity:1.00" />
<!-- End 'G' -->
<!-- Begin 'A' -->
<polygon points=" 270.000000, 106.947780, 291.000000, 105.117293, 299.000000, 105.117293, 320.000000, 106.947780, 312.500000, 106.947780, 306.250000, 106.490158, 283.750000, 106.490158, 277.500000, 106.947780" fill="rgb(178, 34, 34)" style="fill-opacity:1.00" />
<!-- End 'A' -->
<!-- Begin 'T' -->
<rect height="0.235294" width="50.000000" x="270.000000" y="106.947780" fill="rgb(0, 100, 0)" style="fill-opacity:1.00" />
<rect height="1.470588" width="10.000000" x="290.000000" y="106.947780" fill="rgb(0, 100, 0)" style="fill-opacity:1.00" />
<!-- End 'T' -->
<!-- Begin 'G' -->
<ellipse cx="295.000000" cy="108.831024" rx="25.000000" ry="0.412656" fill="rgb(255, 165, 0)" style="fill-opacity:1.00" />
<ellipse cx="295.000000" cy="108.831024" rx="16.666667" ry="0.275104" fill="rgb(255, 255, 255)" style="fill-opacity:1.00" />
<rect height="0.412656" width="25.000000" x="295.000000" y="108.624696" fill="rgb(255, 255, 255)" style="fill-opacity:1.00" />
<rect height="0.103164" width="25.000000" x="295.000000" y="108.934188" fill="rgb(255, 165, 0)" style="fill-opacity:1.00" />
<rect height="0.309492" width="6.250000" x="313.750000" y="108.934188" fill="rgb(255, 165, 0)" style="fill-opacity:1.00" />
<!-- End 'G' -->
<!-- Begin 'C' -->
<ellipse cx="295.000000" cy="109.621840" rx="25.000000" ry="0.378160" fill="rgb(0, 0, 128)" style="fill-opacity:1.00" />
<ellipse cx="295.000000" cy="109.621840" rx="16.666667" ry="0.252107" fill="rgb(255, 255, 255)" style="fill-opacity:1.00" />
<rect height="0.378160" width="25.000000" x="295.000000" y="109.432760" fill="rgb(255, 255, 255)" style="fill-opacity:1.00" />
<!-- End 'C' -->
<!-- Begin 'A' -->
<polygon points=" 330.000000, 104.296952, 351.000000, 99.659427, 359.000000, 99.659427, 380.000000, 104.296952, 372.500000, 104.296952, 366.250000, 103.137571, 343.750000, 103.137571, 337.500000, 104.296952" fill="rgb(178, 34, 34)" style="fill-opacity:1.00" />
<!-- End 'A' -->
<!-- Begin 'T' -->
<rect height="0.495147" width="50.000000" x="330.000000" y="104.296952" fill="rgb(0, 100, 0)" style="fill-opacity:1.00" />
<rect height="3.094671" width="10.000000" x="350.000000" y="104.296952" fill="rgb(0, 100, 0)" style="fill-opacity:1.00" />
<!-- End 'T' -->
<!-- Begin 'C' -->
<ellipse cx="355.000000" cy="108.048790" rx="25.000000" ry="0.657167" fill="rgb(0, 0, 128)" style="fill-opacity:1.00" />
<ellipse cx="355.000000" cy="108.048790" rx="16.666667" ry="0.438112" fill="rgb(255, 255, 255)" style="fill-opacity:1.00" />
<rect height="0.657167" width="25.000000" x="355.000000" y="107.720206" fill="rgb(255, 255, 255)" style="fill-opacity:1.00" />
<!-- End 'C' -->
<!-- Begin 'G' -->
<ellipse cx="355.000000" cy="109.352978" rx="25.000000" ry="0.647022" fill="rgb(255, 165, 0)" style="fill-opacity:1.00" />
<ellipse cx="355.000000" cy="109.352978" rx="16.666667" ry="0.431348" fill="rgb(255, 255, 255)" style="fill-opacity:1.00" />
<rect height="0.647022" width="25.000000" x="355.000000" y="109.029468" fill="rgb(255, 255, 255)" style="fill-opacity:1.00" />
<rect height="0.161755" width="25.000000" x="355.000000" y="109.514734" fill="rgb(255, 165, 0)" style="fill-opacity:1.00" />
<rect height="0.485266" width="6.250000" x="373.750000" y="109.514734" fill="rgb(255, 165, 0)" style="fill-opacity:1.00" />
<!-- End 'G' -->
<!-- Begin 'A' -->
<polygon points=" 390.000000, 99.152305, 411.000000, 77.838715, 419.000000, 77.838715, 440.000000, 99.152305, 432.500000, 99.152305, 426.250000, 93.823907, 403.750000, 93.823907, 397.500000, 99.152305" fill="rgb(178, 34, 34)" style="fill-opacity:1.00" />
<polygon points=" 415.000000, 82.101433, 407.000000, 89.626869, 422.000000, 89.626869" fill="rgb(255, 255, 255)" style="fill-opacity:1.00" />
<!-- End 'A' -->
<!-- Begin 'T' -->
<rect height="1.093547" width="50.000000" x="390.000000" y="99.152305" fill="rgb(0, 100, 0)" style="fill-opacity:1.00" />
<rect height="6.834669" width="10.000000" x="410.000000" y="99.152305" fill="rgb(0, 100, 0)" style="fill-opacity:1.00" />
<!-- End 'T' -->
<!-- Begin 'G' -->
<ellipse cx="415.000000" cy="107.334915" rx="25.000000" ry="1.347942" fill="rgb(255, 165, 0)" style="fill-opacity:1.00" />
<ellipse cx="415.000000" cy="107.334915" rx="16.666667" ry="0.898628" fill="rgb(255, 255, 255)" style="fill-opacity:1.00" />
<rect height="1.347942" width="25.000000" x="415.000000" y="106.660944" fill="rgb(255, 255, 255)" style="fill-opacity:1.00" />
<rect height="0.336986" width="25.000000" x="415.000000" y="107.671901" fill="rgb(255, 165, 0)" style="fill-opacity:1.00" />
<rect height="1.010957" width="6.250000" x="433.750000" y="107.671901" fill="rgb(255, 165, 0)" style="fill-opacity:1.00" />
<!-- End 'G' -->
<!-- Begin 'C' -->
<ellipse cx="415.000000" cy="109.341429" rx="25.000000" ry="0.658571" fill="rgb(0, 0, 128)" style="fill-opacity:1.00" />
<ellipse cx="415.000000" cy="109.341429" rx="16.666667" ry="0.439047" fill="rgb(255, 255, 255)" style="fill-opacity:1.00" />
<rect height="0.658571" width="25.000000" x="415.000000" y="109.012143" fill="rgb(255, 255, 255)" style="fill-opacity:1.00" />
<!-- End 'C' -->
<!-- Begin 'A' -->
<polygon points=" 450.000000, 95.190725, 471.000000, 76.460005, 479.000000, 76.460005, 500.000000, 95.190725, 492.500000, 95.190725, 486.250000, 90.508045, 463.750000, 90.508045, 457.500000, 95.190725" fill="rgb(178, 34, 34)" style="fill-opacity:1.00" />
<polygon points=" 475.000000, 80.206149, 467.000000, 86.698437, 482.000000, 86.698437" fill="rgb(255, 255, 255)" style="fill-opacity:1.00" />
<!-- End 'A' -->
<!-- Begin 'G' -->
<ellipse cx="475.000000" cy="101.416884" rx="25.000000" ry="6.226159" fill="rgb(255, 165, 0)" style="fill-opacity:1.00" />
<ellipse cx="475.000000" cy="101.416884" rx="16.666667" ry="4.150773" fill="rgb(255, 255, 255)" style="fill-opacity:1.00" />
<rect height="6.226159" width="25.000000" x="475.000000" y="98.303805" fill="rgb(255, 255, 255)" style="fill-opacity:1.00" />
<rect height="1.556540" width="25.000000" x="475.000000" y="102.973424" fill="rgb(255, 165, 0)" style="fill-opacity:1.00" />
<rect height="4.669619" width="6.250000" x="493.750000" y="102.973424" fill="rgb(255, 165, 0)" style="fill-opacity:1.00" />
<!-- End 'G' -->
<!-- Begin 'T' -->
<rect height="0.272344" width="50.000000" x="450.000000" y="107.643043" fill="rgb(0, 100, 0)" style="fill-opacity:1.00" />
<rect height="1.702148" width="10.000000" x="470.000000" y="107.643043" fill="rgb(0, 100, 0)" style="fill-opacity:1.00" />
<!-- End 'T' -->
<!-- Begin 'C' -->
<ellipse cx="475.000000" cy="109.672595" rx="25.000000" ry="0.327405" fill="rgb(0, 0, 128)" style="fill-opacity:1.00" />
<ellipse cx="475.000000" cy="109.672595" rx="16.666667" ry="0.218270" fill="rgb(255, 255, 255)" style="fill-opacity:1.00" />
<rect height="0.327405" width="25.000000" x="475.000000" y="109.508893" fill="rgb(255, 255, 255)" style="fill-opacity:1.00" />
<!-- End 'C' -->
<!-- Begin 'A' -->
<polygon points=" 510.000000, 106.434717, 531.000000, 25.974414, 539.000000, 25.974414, 560.000000, 106.434717, 552.500000, 106.434717, 546.250000, 86.319641, 523.750000, 86.319641, 517.500000, 106.434717" fill="rgb(178, 34, 34)" style="fill-opacity:1.00" />
<polygon points=" 535.000000, 42.066475, 527.000000, 73.250596, 542.000000, 73.250596" fill="rgb(255, 255, 255)" style="fill-opacity:1.00" />
<!-- End 'A' -->
<!-- Begin 'G' -->
<ellipse cx="535.000000" cy="107.189171" rx="25.000000" ry="0.754454" fill="rgb(255, 165, 0)" style="fill-opacity:1.00" />
<ellipse cx="535.000000" cy="107.189171" rx="16.666667" ry="0.502969" fill="rgb(255, 255, 255)" style="fill-opacity:1.00" />
<rect height="0.754454" width="25.000000" x="535.000000" y="106.811944" fill="rgb(255, 255, 255)" style="fill-opacity:1.00" />
<rect height="0.188614" width="25.000000" x="535.000000" y="107.377785" fill="rgb(255, 165, 0)" style="fill-opacity:1.00" />
<rect height="0.565841" width="6.250000" x="553.750000" y="107.377785" fill="rgb(255, 165, 0)" style="fill-opacity:1.00" />
<!-- End 'G' -->
<!-- Begin 'C' -->
<ellipse cx="535.000000" cy="108.475118" rx="25.000000" ry="0.531493" fill="rgb(0, 0, 128)" style="fill-opacity:1.00" />
<ellipse cx="535.000000" cy="108.475118" rx="16.666667" ry="0.354329" fill="rgb(255, 255, 255)" style="fill-opacity:1.00" />
<rect height="0.531493" width="25.000000" x="535.000000" y="108.209372" fill="rgb(255, 255, 255)" style="fill-opacity:1.00" />
<!-- End 'C' -->
<!-- Begin 'T' -->
<rect height="0.158942" width="50.000000" x="510.000000" y="109.006611" fill="rgb(0, 100, 0)" style="fill-opacity:1.00" />
<rect height="0.993389" width="10.000000" x="530.000000" y="109.006611" fill="rgb(0, 100, 0)" style="fill-opacity:1.00" />
<!-- End 'T' -->
<!-- Begin 'T' -->
<rect height="9.001610" width="50.000000" x="570.000000" y="45.286804" fill="rgb(0, 100, 0)" style="fill-opacity:1.00" />
<rect height="56.260062" width="10.000000" x="590.000000" y="45.286804" fill="rgb(0, 100, 0)" style="fill-opacity:1.00" />
<!-- End 'T' -->
<!-- Begin 'A' -->
<polygon points=" 570.000000, 106.238645, 591.000000, 101.546866, 599.000000, 101.546866, 620.000000, 106.238645, 612.500000, 106.238645, 606.250000, 105.065700, 583.750000, 105.065700, 577.500000, 106.238645" fill="rgb(178, 34, 34)" style="fill-opacity:1.00" />
<!-- End 'A' -->
<!-- Begin 'G' -->
<ellipse cx="595.000000" cy="108.021758" rx="25.000000" ry="1.783114" fill="rgb(255, 165, 0)" style="fill-opacity:1.00" />
<ellipse cx="595.000000" cy="108.021758" rx="16.666667" ry="1.188742" fill="rgb(255, 255, 255)" style="fill-opacity:1.00" />
<rect height="1.783114" width="25.000000" x="595.000000" y="107.130202" fill="rgb(255, 255, 255)" style="fill-opacity:1.00" />
<rect height="0.445778" width="25.000000" x="595.000000" y="108.467537" fill="rgb(255, 165, 0)" style="fill-opacity:1.00" />
<rect height="1.337335" width="6.250000" x="613.750000" y="108.467537" fill="rgb(255, 165, 0)" style="fill-opacity:1.00" />
<!-- End 'G' -->
<!-- Begin 'C' -->
<ellipse cx="595.000000" cy="109.902436" rx="25.000000" ry="0.097564" fill="rgb(0, 0, 128)" style="fill-opacity:1.00" />
<ellipse cx="595.000000" cy="109.902436" rx="16.666667" ry="0.065043" fill="rgb(255, 255, 255)" style="fill-opacity:1.00" />
<rect height="0.097564" width="25.000000" x="595.000000" y="109.853654" fill="rgb(255, 255, 255)" style="fill-opacity:1.00" />
<!-- End 'C' -->
<!-- Begin 'A' -->
<polygon points=" 630.000000, 108.423310, 651.000000, 16.364086, 659.000000, 16.364086, 680.000000, 108.423310, 672.500000, 108.423310, 666.250000, 85.408504, 643.750000, 85.408504, 637.500000, 108.423310" fill="rgb(178, 34, 34)" style="fill-opacity:1.00" />
<polygon points=" 655.000000, 34.775931, 647.000000, 70.599620, 662.000000, 70.599620" fill="rgb(255, 255, 255)" style="fill-opacity:1.00" />
<!-- End 'A' -->
<!-- Begin 'C' -->
<ellipse cx="655.000000" cy="109.186079" rx="25.000000" ry="0.762769" fill="rgb(0, 0, 128)" style="fill-opacity:1.00" />
<ellipse cx="655.000000" cy="109.186079" rx="16.666667" ry="0.508512" fill="rgb(255, 255, 255)" style="fill-opacity:1.00" />
<rect height="0.762769" width="25.000000" x="655.000000" y="108.804695" fill="rgb(255, 255, 255)" style="fill-opacity:1.00" />
<!-- End 'C' -->
<!-- Begin 'G' -->
<ellipse cx="655.000000" cy="109.965818" rx="25.000000" ry="0.016971" fill="rgb(255, 165, 0)" style="fill-opacity:1.00" />
<ellipse cx="655.000000" cy="109.965818" rx="16.666667" ry="0.011314" fill="rgb(255, 255, 255)" style="fill-opacity:1.00" />
<rect height="0.016971" width="25.000000" x="655.000000" y="109.957333" fill="rgb(255, 255, 255)" style="fill-opacity:1.00" />
<rect height="0.004243" width="25.000000" x="655.000000" y="109.970061" fill="rgb(255, 165, 0)" style="fill-opacity:1.00" />
<rect height="0.012728" width="6.250000" x="673.750000" y="109.970061" fill="rgb(255, 165, 0)" style="fill-opacity:1.00" />
<!-- End 'G' -->
<!-- Begin 'T' -->
<rect height="0.002754" width="50.000000" x="630.000000" y="109.982789" fill="rgb(0, 100, 0)" style="fill-opacity:1.00" />
<rect height="0.017211" width="10.000000" x="650.000000" y="109.982789" fill="rgb(0, 100, 0)" style="fill-opacity:1.00" />
<!-- End 'T' -->
<!-- Begin 'T' -->
<rect height="15.247629" width="50.000000" x="690.000000" y="13.936949" fill="rgb(0, 100, 0)" style="fill-opacity:1.00" />
<rect height="95.297684" width="10.000000" x="710.000000" y="13.936949" fill="rgb(0, 100, 0)" style="fill-opacity:1.00" />
<!-- End 'T' -->
<!-- Begin 'A' -->
<polygon points=" 690.000000, 109.624494, 711.000000, 109.234633, 719.000000, 109.234633, 740.000000, 109.624494, 732.500000, 109.624494, 726.250000, 109.527029, 703.750000, 109.527029, 697.500000, 109.624494" fill="rgb(178, 34, 34)" style="fill-opacity:1.00" />
<!-- End 'A' -->
<!-- Begin 'G' -->
<ellipse cx="715.000000" cy="109.738421" rx="25.000000" ry="0.113927" fill="rgb(255, 165, 0)" style="fill-opacity:1.00" />
<ellipse cx="715.000000" cy="109.738421" rx="16.666667" ry="0.075951" fill="rgb(255, 255, 255)" style="fill-opacity:1.00" />
<rect height="0.113927" width="25.000000" x="715.000000" y="109.681458" fill="rgb(255, 255, 255)" style="fill-opacity:1.00" />
<rect height="0.028482" width="25.000000" x="715.000000" y="109.766903" fill="rgb(255, 165, 0)" style="fill-opacity:1.00" />
<rect height="0.085445" width="6.250000" x="733.750000" y="109.766903" fill="rgb(255, 165, 0)" style="fill-opacity:1.00" />
<!-- End 'G' -->
<!-- Begin 'C' -->
<ellipse cx="715.000000" cy="109.926174" rx="25.000000" ry="0.073826" fill="rgb(0, 0, 128)" style="fill-opacity:1.00" />
<ellipse cx="715.000000" cy="109.926174" rx="16.666667" ry="0.049217" fill="rgb(255, 255, 255)" style="fill-opacity:1.00" />
<rect height="0.073826" width="25.000000" x="715.000000" y="109.889261" fill="rgb(255, 255, 255)" style="fill-opacity:1.00" />
<!-- End 'C' -->
<!-- Begin 'C' -->
<ellipse cx="775.000000" cy="86.867723" rx="25.000000" ry="7.036952" fill="rgb(0, 0, 128)" style="fill-opacity:1.00" />
<ellipse cx="775.000000" cy="86.867723" rx="16.666667" ry="4.691302" fill="rgb(255, 255, 255)" style="fill-opacity:1.00" />
<rect height="7.036952" width="25.000000" x="775.000000" y="83.349247" fill="rgb(255, 255, 255)" style="fill-opacity:1.00" />
<!-- End 'C' -->
<!-- Begin 'T' -->
<rect height="2.144913" width="50.000000" x="750.000000" y="93.904675" fill="rgb(0, 100, 0)" style="fill-opacity:1.00" />
<rect height="13.405708" width="10.000000" x="770.000000" y="93.904675" fill="rgb(0, 100, 0)" style="fill-opacity:1.00" />
<!-- End 'T' -->
<!-- Begin 'A' -->
<polygon points=" 750.000000, 109.618365, 771.000000, 107.310383, 779.000000, 107.310383, 800.000000, 109.618365, 792.500000, 109.618365, 786.250000, 109.041369, 763.750000, 109.041369, 757.500000, 109.618365" fill="rgb(178, 34, 34)" style="fill-opacity:1.00" />
<!-- End 'A' -->
<!-- Begin 'G' -->
<ellipse cx="775.000000" cy="109.809182" rx="25.000000" ry="0.190818" fill="rgb(255, 165, 0)" style="fill-opacity:1.00" />
<ellipse cx="775.000000" cy="109.809182" rx="16.666667" ry="0.127212" fill="rgb(255, 255, 255)" style="fill-opacity:1.00" />
<rect height="0.190818" width="25.000000" x="775.000000" y="109.713774" fill="rgb(255, 255, 255)" style="fill-opacity:1.00" />
<rect height="0.047704" width="25.000000" x="775.000000" y="109.856887" fill="rgb(255, 165, 0)" style="fill-opacity:1.00" />
<rect height="0.143113" width="6.250000" x="793.750000" y="109.856887" fill="rgb(255, 165, 0)" style="fill-opacity:1.00" />
<!-- End 'G' -->
<!-- Begin 'T' -->
<rect height="3.086094" width="50.000000" x="810.000000" y="80.020136" fill="rgb(0, 100, 0)" style="fill-opacity:1.00" />
<rect height="19.288090" width="10.000000" x="830.000000" y="80.020136" fill="rgb(0, 100, 0)" style="fill-opacity:1.00" />
<!-- End 'T' -->
<!-- Begin 'A' -->
<polygon points=" 810.000000, 105.960080, 831.000000, 99.308226, 839.000000, 99.308226, 860.000000, 105.960080, 852.500000, 105.960080, 846.250000, 104.297117, 823.750000, 104.297117, 817.500000, 105.960080" fill="rgb(178, 34, 34)" style="fill-opacity:1.00" />
<!-- End 'A' -->
<!-- Begin 'C' -->
<ellipse cx="835.000000" cy="107.365733" rx="25.000000" ry="1.405653" fill="rgb(0, 0, 128)" style="fill-opacity:1.00" />
<ellipse cx="835.000000" cy="107.365733" rx="16.666667" ry="0.937102" fill="rgb(255, 255, 255)" style="fill-opacity:1.00" />
<rect height="1.405653" width="25.000000" x="835.000000" y="106.662907" fill="rgb(255, 255, 255)" style="fill-opacity:1.00" />
<!-- End 'C' -->
<!-- Begin 'G' -->
<ellipse cx="835.000000" cy="109.385693" rx="25.000000" ry="0.614307" fill="rgb(255, 165, 0)" style="fill-opacity:1.00" />
<ellipse cx="835.000000" cy="109.385693" rx="16.666667" ry="0.409538" fill="rgb(255, 255, 255)" style="fill-opacity:1.00" />
<rect height="0.614307" width="25.000000" x="835.000000" y="109.078539" fill="rgb(255, 255, 255)" style="fill-opacity:1.00" />
<rect height="0.153577" width="25.000000" x="835.000000" y="109.539270" fill="rgb(255, 165, 0)" style="fill-opacity:1.00" />
<rect height="0.460730" width="6.250000" x="853.750000" y="109.539270" fill="rgb(255, 165, 0)" style="fill-opacity:1.00" />
<!-- End 'G' -->
<!-- Begin 'T' -->
<rect height="0.628730" width="50.000000" x="870.000000" y="100.842814" fill="rgb(0, 100, 0)" style="fill-opacity:1.00" />
<rect height="3.929562" width="10.000000" x="890.000000" y="100.842814" fill="rgb(0, 100, 0)" style="fill-opacity:1.00" />
<!-- End 'T' -->
<!-- Begin 'A' -->
<polygon points=" 870.000000, 107.590623, 891.000000, 104.772376, 899.000000, 104.772376, 920.000000, 107.590623, 912.500000, 107.590623, 906.250000, 106.886061, 883.750000, 106.886061, 877.500000, 107.590623" fill="rgb(178, 34, 34)" style="fill-opacity:1.00" />
<!-- End 'A' -->
<!-- Begin 'C' -->
<ellipse cx="895.000000" cy="108.204395" rx="25.000000" ry="0.613773" fill="rgb(0, 0, 128)" style="fill-opacity:1.00" />
<ellipse cx="895.000000" cy="108.204395" rx="16.666667" ry="0.409182" fill="rgb(255, 255, 255)" style="fill-opacity:1.00" />
<rect height="0.613773" width="25.000000" x="895.000000" y="107.897509" fill="rgb(255, 255, 255)" style="fill-opacity:1.00" />
<!-- End 'C' -->
<!-- Begin 'G' -->
<ellipse cx="895.000000" cy="109.409084" rx="25.000000" ry="0.590916" fill="rgb(255, 165, 0)" style="fill-opacity:1.00" />
<ellipse cx="895.000000" cy="109.409084" rx="16.666667" ry="0.393944" fill="rgb(255, 255, 255)" style="fill-opacity:1.00" />
<rect height="0.590916" width="25.000000" x="895.000000" y="109.113626" fill="rgb(255, 255, 255)" style="fill-opacity:1.00" />
<rect height="0.147729" width="25.000000" x="895.000000" y="109.556813" fill="rgb(255, 165, 0)" style="fill-opacity:1.00" />
<rect height="0.443187" width="6.250000" x="913.750000" y="109.556813" fill="rgb(255, 165, 0)" style="fill-opacity:1.00" />
<!-- End 'G' -->
<!-- Begin 'T' -->
<rect height="0.270944" width="50.000000" x="930.000000" y="105.158732" fill="rgb(0, 100, 0)" style="fill-opacity:1.00" />
<rect height="1.693398" width="10.000000" x="950.000000" y="105.158732" fill="rgb(0, 100, 0)" style="fill-opacity:1.00" />
<!-- End 'T' -->
<!-- Begin 'A' -->
<polygon points=" 930.000000, 108.450608, 951.000000, 106.852130, 959.000000, 106.852130, 980.000000, 108.450608, 972.500000, 108.450608, 966.250000, 108.050988, 943.750000, 108.050988, 937.500000, 108.450608" fill="rgb(178, 34, 34)" style="fill-opacity:1.00" />
<!-- End 'A' -->
<!-- Begin 'C' -->
<ellipse cx="955.000000" cy="108.861325" rx="25.000000" ry="0.410717" fill="rgb(0, 0, 128)" style="fill-opacity:1.00" />
<ellipse cx="955.000000" cy="108.861325" rx="16.666667" ry="0.273811" fill="rgb(255, 255, 255)" style="fill-opacity:1.00" />
<rect height="0.410717" width="25.000000" x="955.000000" y="108.655966" fill="rgb(255, 255, 255)" style="fill-opacity:1.00" />
<!-- End 'C' -->
<!-- Begin 'G' -->
<ellipse cx="955.000000" cy="109.636021" rx="25.000000" ry="0.363979" fill="rgb(255, 165, 0)" style="fill-opacity:1.00" />
<ellipse cx="955.000000" cy="109.636021" rx="16.666667" ry="0.242653" fill="rgb(255, 255, 255)" style="fill-opacity:1.00" />
<rect height="0.363979" width="25.000000" x="955.000000" y="109.454031" fill="rgb(255, 255, 255)" style="fill-opacity:1.00" />
<rect height="0.090995" width="25.000000" x="955.000000" y="109.727016" fill="rgb(255, 165, 0)" style="fill-opacity:1.00" />
<rect height="0.272984" width="6.250000" x="973.750000" y="109.727016" fill="rgb(255, 165, 0)" style="fill-opacity:1.00" />
<!-- End 'G' -->
<text x="520.000000" y="165">
IC = 10.18
</text>

</svg>
