<?xml version="1.0" encoding="UTF-8" standalone="yes"?>
                 <!DOCTYPE svg PUBLIC "-//W3C//DTD SVG 1.0//EN" "http://www.w3.org/TR/2001/REC-SVG-20010904/DTD/svg10.dtd">
                 <svg height="170" width="840" xmlns="http://www.w3.org/2000/svg" xmlns:xlink="http://www.w3.org/1999/xlink">
                 <line x1="85" y1="120" x2="807" y2="120" style="stroke:rgb(99,99,99);stroke-width:2" />
<rect height="7.000000" width="2.000000" x="85.000000" y="120.000000" fill="rgb(0, 0, 0)" style="fill-opacity:1.00" />
<text x="107.000000" y="140">
1
</text>
<rect height="7.000000" width="2.000000" x="145.000000" y="120.000000" fill="rgb(0, 0, 0)" style="fill-opacity:1.00" />
<text x="167.000000" y="140">
2
</text>
<rect height="7.000000" width="2.000000" x="205.000000" y="120.000000" fill="rgb(0, 0, 0)" style="fill-opacity:1.00" />
<text x="227.000000" y="140">
3
</text>
<rect height="7.000000" width="2.000000" x="265.000000" y="120.000000" fill="rgb(0, 0, 0)" style="fill-opacity:1.00" />
<text x="287.000000" y="140">
4
</text>
<rect height="7.000000" width="2.000000" x="325.000000" y="120.000000" fill="rgb(0, 0, 0)" style="fill-opacity:1.00" />
<text x="347.000000" y="140">
5
</text>
<rect height="7.000000" width="2.000000" x="385.000000" y="120.000000" fill="rgb(0, 0, 0)" style="fill-opacity:1.00" />
<text x="407.000000" y="140">
6
</text>
<rect height="7.000000" width="2.000000" x="445.000000" y="120.000000" fill="rgb(0, 0, 0)" style="fill-opacity:1.00" />
<text x="467.000000" y="140">
7
</text>
<rect height="7.000000" width="2.000000" x="505.000000" y="120.000000" fill="rgb(0, 0, 0)" style="fill-opacity:1.00" />
<text x="527.000000" y="140">
8
</text>
<rect height="7.000000" width="2.000000" x="565.000000" y="120.000000" fill="rgb(0, 0, 0)" style="fill-opacity:1.00" />
<text x="587.000000" y="140">
9
</text>
<rect height="7.000000" width="2.000000" x="625.000000" y="120.000000" fill="rgb(0, 0, 0)" style="fill-opacity:1.00" />
<text x="647.000000" y="140">
10
</text>
<rect height="7.000000" width="2.000000" x="685.000000" y="120.000000" fill="rgb(0, 0, 0)" style="fill-opacity:1.00" />
<text x="707.000000" y="140">
11
</text>
<rect height="7.000000" width="2.000000" x="745.000000" y="120.000000" fill="rgb(0, 0, 0)" style="fill-opacity:1.00" />
<text x="767.000000" y="140">
12
</text>
<rect height="7.000000" width="2.000000" x="805.000000" y="120.000000" fill="rgb(0, 0, 0)" style="fill-opacity:1.00" />
<line x1="80" y1="112" x2="80" y2="10" style="stroke:rgb(99,99,99);stroke-width:2" />
<rect height="2.000000" width="7.000000" x="73.000000" y="110.000000" fill="rgb(0, 0, 0)" style="fill-opacity:1.00" />
<text x="63" y="115">
0
</text>
<rect height="2.000000" width="7.000000" x="73.000000" y="60.000000" fill="rgb(0, 0, 0)" style="fill-opacity:1.00" />
<text x="63" y="65">
1
</text>
<rect height="2.000000" width="7.000000" x="73.000000" y="10.000000" fill="rgb(0, 0, 0)" style="fill-opacity:1.00" />
<text x="63" y="15">
2
</text>
<text x="50" y="65"
transform="rotate(-90, 50, 70)">
bits
</text>
<!-- Begin 'T' -->
<rect height="0.186735" width="50.000000" x="90.000000" y="106.554065" fill="rgb(0, 100, 0)" style="fill-opacity:1.00" />
<rect height="1.167092" width="10.000000" x="110.000000" y="106.554065" fill="rgb(0, 100, 0)" style="fill-opacity:1.00" />
<!-- End 'T' -->
<!-- Begin 'A' -->
<polygon points=" 90.000000, 108.771313, 111.000000, 107.721157, 119.000000, 107.721157, 140.000000, 108.771313, 132.500000, 108.771313, 126.250000, 108.508774, 103.750000, 108.508774, 97.500000, 108.771313" fill="rgb(178, 34, 34)" style="fill-opacity:1.00" />
<!-- End 'A' -->
<!-- Begin 'G' -->
<ellipse cx="115.000000" cy="109.130528" rx="25.000000" ry="0.359215" fill="rgb(255, 165, 0)" style="fill-opacity:1.00" />
<ellipse cx="115.000000" cy="109.130528" rx="16.666667" ry="0.239476" fill="rgb(255, 255, 255)" style="fill-opacity:1.00" />
<rect height="0.359215" width="25.000000" x="115.000000" y="108.950920" fill="rgb(255, 255, 255)" style="fill-opacity:1.00" />
<rect height="0.089804" width="25.000000" x="115.000000" y="109.220331" fill="rgb(255, 165, 0)" style="fill-opacity:1.00" />
<rect height="0.269411" width="6.250000" x="133.750000" y="109.220331" fill="rgb(255, 165, 0)" style="fill-opacity:1.00" />
<!-- End 'G' -->
<!-- Begin 'C' -->
<ellipse cx="115.000000" cy="109.744871" rx="25.000000" ry="0.255129" fill="rgb(0, 0, 128)" style="fill-opacity:1.00" />
<ellipse cx="115.000000" cy="109.744871" rx="16.666667" ry="0.170086" fill="rgb(255, 255, 255)" style="fill-opacity:1.00" />
<rect height="0.255129" width="25.000000" x="115.000000" y="109.617307" fill="rgb(255, 255, 255)" style="fill-opacity:1.00" />
<!-- End 'C' -->
<!-- Begin 'T' -->
<rect height="0.210847" width="50.000000" x="150.000000" y="106.418875" fill="rgb(0, 100, 0)" style="fill-opacity:1.00" />
<rect height="1.317795" width="10.000000" x="170.000000" y="106.418875" fill="rgb(0, 100, 0)" style="fill-opacity:1.00" />
<!-- End 'T' -->
<!-- Begin 'A' -->
<polygon points=" 150.000000, 108.624692, 171.000000, 107.736670, 179.000000, 107.736670, 200.000000, 108.624692, 192.500000, 108.624692, 186.250000, 108.402687, 163.750000, 108.402687, 157.500000, 108.624692" fill="rgb(178, 34, 34)" style="fill-opacity:1.00" />
<!-- End 'A' -->
<!-- Begin 'G' -->
<ellipse cx="175.000000" cy="109.049454" rx="25.000000" ry="0.424762" fill="rgb(255, 165, 0)" style="fill-opacity:1.00" />
<ellipse cx="175.000000" cy="109.049454" rx="16.666667" ry="0.283174" fill="rgb(255, 255, 255)" style="fill-opacity:1.00" />
<rect height="0.424762" width="25.000000" x="175.000000" y="108.837073" fill="rgb(255, 255, 255)" style="fill-opacity:1.00" />
<rect height="0.106190" width="25.000000" x="175.000000" y="109.155644" fill="rgb(255, 165, 0)" style="fill-opacity:1.00" />
<rect height="0.318571" width="6.250000" x="193.750000" y="109.155644" fill="rgb(255, 165, 0)" style="fill-opacity:1.00" />
<!-- End 'G' -->
<!-- Begin 'C' -->
<ellipse cx="175.000000" cy="109.737108" rx="25.000000" ry="0.262892" fill="rgb(0, 0, 128)" style="fill-opacity:1.00" />
<ellipse cx="175.000000" cy="109.737108" rx="16.666667" ry="0.175262" fill="rgb(255, 255, 255)" style="fill-opacity:1.00" />
<rect height="0.262892" width="25.000000" x="175.000000" y="109.605661" fill="rgb(255, 255, 255)" style="fill-opacity:1.00" />
<!-- End 'C' -->
<!-- Begin 'G' -->
<ellipse cx="235.000000" cy="100.551855" rx="25.000000" ry="3.341360" fill="rgb(255, 165, 0)" style="fill-opacity:1.00" />
<ellipse cx="235.000000" cy="100.551855" rx="16.666667" ry="2.227573" fill="rgb(255, 255, 255)" style="fill-opacity:1.00" />
<rect height="3.341360" width="25.000000" x="235.000000" y="98.881175" fill="rgb(255, 255, 255)" style="fill-opacity:1.00" />
<rect height="0.835340" width="25.000000" x="235.000000" y="101.387195" fill="rgb(255, 165, 0)" style="fill-opacity:1.00" />
<rect height="2.506020" width="6.250000" x="253.750000" y="101.387195" fill="rgb(255, 165, 0)" style="fill-opacity:1.00" />
<!-- End 'G' -->
<!-- Begin 'T' -->
<rect height="0.404110" width="50.000000" x="210.000000" y="103.893215" fill="rgb(0, 100, 0)" style="fill-opacity:1.00" />
<rect height="2.525686" width="10.000000" x="230.000000" y="103.893215" fill="rgb(0, 100, 0)" style="fill-opacity:1.00" />
<!-- End 'T' -->
<!-- Begin 'A' -->
<polygon points=" 210.000000, 108.362325, 231.000000, 106.418902, 239.000000, 106.418902, 260.000000, 108.362325, 252.500000, 108.362325, 246.250000, 107.876469, 223.750000, 107.876469, 217.500000, 108.362325" fill="rgb(178, 34, 34)" style="fill-opacity:1.00" />
<!-- End 'A' -->
<!-- Begin 'C' -->
<ellipse cx="235.000000" cy="109.181162" rx="25.000000" ry="0.818838" fill="rgb(0, 0, 128)" style="fill-opacity:1.00" />
<ellipse cx="235.000000" cy="109.181162" rx="16.666667" ry="0.545892" fill="rgb(255, 255, 255)" style="fill-opacity:1.00" />
<rect height="0.818838" width="25.000000" x="235.000000" y="108.771744" fill="rgb(255, 255, 255)" style="fill-opacity:1.00" />
<!-- End 'C' -->
<!-- Begin 'T' -->
<rect height="2.352253" width="50.000000" x="270.000000" y="85.411143" fill="rgb(0, 100, 0)" style="fill-opacity:1.00" />
<rect height="14.701580" width="10.000000" x="290.000000" y="85.411143" fill="rgb(0, 100, 0)" style="fill-opacity:1.00" />
<!-- End 'T' -->
<!-- Begin 'G' -->
<ellipse cx="295.000000" cy="102.856033" rx="25.000000" ry="2.743311" fill="rgb(255, 165, 0)" style="fill-opacity:1.00" />
<ellipse cx="295.000000" cy="102.856033" rx="16.666667" ry="1.828874" fill="rgb(255, 255, 255)" style="fill-opacity:1.00" />
<rect height="2.743311" width="25.000000" x="295.000000" y="101.484378" fill="rgb(255, 255, 255)" style="fill-opacity:1.00" />
<rect height="0.685828" width="25.000000" x="295.000000" y="103.541861" fill="rgb(255, 165, 0)" style="fill-opacity:1.00" />
<rect height="2.057483" width="6.250000" x="313.750000" y="103.541861" fill="rgb(255, 165, 0)" style="fill-opacity:1.00" />
<!-- End 'G' -->
<!-- Begin 'A' -->
<polygon points=" 270.000000, 109.012674, 291.000000, 105.599344, 299.000000, 105.599344, 320.000000, 109.012674, 312.500000, 109.012674, 306.250000, 108.159341, 283.750000, 108.159341, 277.500000, 109.012674" fill="rgb(178, 34, 34)" style="fill-opacity:1.00" />
<!-- End 'A' -->
<!-- Begin 'C' -->
<ellipse cx="295.000000" cy="109.506337" rx="25.000000" ry="0.493663" fill="rgb(0, 0, 128)" style="fill-opacity:1.00" />
<ellipse cx="295.000000" cy="109.506337" rx="16.666667" ry="0.329109" fill="rgb(255, 255, 255)" style="fill-opacity:1.00" />
<rect height="0.493663" width="25.000000" x="295.000000" y="109.259505" fill="rgb(255, 255, 255)" style="fill-opacity:1.00" />
<!-- End 'C' -->
<!-- Begin 'G' -->
<ellipse cx="355.000000" cy="66.856657" rx="25.000000" ry="38.733152" fill="rgb(255, 165, 0)" style="fill-opacity:1.00" />
<ellipse cx="355.000000" cy="66.856657" rx="16.666667" ry="25.822101" fill="rgb(255, 255, 255)" style="fill-opacity:1.00" />
<rect height="38.733152" width="25.000000" x="355.000000" y="47.490081" fill="rgb(255, 255, 255)" style="fill-opacity:1.00" />
<rect height="9.683288" width="25.000000" x="355.000000" y="76.539945" fill="rgb(255, 165, 0)" style="fill-opacity:1.00" />
<rect height="29.049864" width="6.250000" x="373.750000" y="76.539945" fill="rgb(255, 165, 0)" style="fill-opacity:1.00" />
<!-- End 'G' -->
<!-- Begin 'C' -->
<ellipse cx="355.000000" cy="107.070591" rx="25.000000" ry="1.480782" fill="rgb(0, 0, 128)" style="fill-opacity:1.00" />
<ellipse cx="355.000000" cy="107.070591" rx="16.666667" ry="0.987188" fill="rgb(255, 255, 255)" style="fill-opacity:1.00" />
<rect height="1.480782" width="25.000000" x="355.000000" y="106.330200" fill="rgb(255, 255, 255)" style="fill-opacity:1.00" />
<!-- End 'C' -->
<!-- Begin 'T' -->
<rect height="0.197566" width="50.000000" x="330.000000" y="108.551373" fill="rgb(0, 100, 0)" style="fill-opacity:1.00" />
<rect height="1.234786" width="10.000000" x="350.000000" y="108.551373" fill="rgb(0, 100, 0)" style="fill-opacity:1.00" />
<!-- End 'T' -->
<!-- Begin 'A' -->
<polygon points=" 330.000000, 110.000000, 351.000000, 109.786159, 359.000000, 109.786159, 380.000000, 110.000000, 372.500000, 110.000000, 366.250000, 109.946540, 343.750000, 109.946540, 337.500000, 110.000000" fill="rgb(178, 34, 34)" style="fill-opacity:1.00" />
<!-- End 'A' -->
<!-- Begin 'G' -->
<ellipse cx="415.000000" cy="66.264546" rx="25.000000" ry="39.217993" fill="rgb(255, 165, 0)" style="fill-opacity:1.00" />
<ellipse cx="415.000000" cy="66.264546" rx="16.666667" ry="26.145329" fill="rgb(255, 255, 255)" style="fill-opacity:1.00" />
<rect height="39.217993" width="25.000000" x="415.000000" y="46.655549" fill="rgb(255, 255, 255)" style="fill-opacity:1.00" />
<rect height="9.804498" width="25.000000" x="415.000000" y="76.069044" fill="rgb(255, 165, 0)" style="fill-opacity:1.00" />
<rect height="29.413495" width="6.250000" x="433.750000" y="76.069044" fill="rgb(255, 165, 0)" style="fill-opacity:1.00" />
<!-- End 'G' -->
<!-- Begin 'C' -->
<ellipse cx="415.000000" cy="107.463907" rx="25.000000" ry="1.981368" fill="rgb(0, 0, 128)" style="fill-opacity:1.00" />
<ellipse cx="415.000000" cy="107.463907" rx="16.666667" ry="1.320912" fill="rgb(255, 255, 255)" style="fill-opacity:1.00" />
<rect height="1.981368" width="25.000000" x="415.000000" y="106.473223" fill="rgb(255, 255, 255)" style="fill-opacity:1.00" />
<!-- End 'C' -->
<!-- Begin 'A' -->
<polygon points=" 390.000000, 109.753119, 411.000000, 109.445275, 419.000000, 109.445275, 440.000000, 109.753119, 432.500000, 109.753119, 426.250000, 109.676158, 403.750000, 109.676158, 397.500000, 109.753119" fill="rgb(178, 34, 34)" style="fill-opacity:1.00" />
<!-- End 'A' -->
<!-- Begin 'T' -->
<rect height="0.039501" width="50.000000" x="390.000000" y="109.753119" fill="rgb(0, 100, 0)" style="fill-opacity:1.00" />
<rect height="0.246881" width="10.000000" x="410.000000" y="109.753119" fill="rgb(0, 100, 0)" style="fill-opacity:1.00" />
<!-- End 'T' -->
<!-- Begin 'A' -->
<polygon points=" 450.000000, 95.845859, 471.000000, 83.184272, 479.000000, 83.184272, 500.000000, 95.845859, 492.500000, 95.845859, 486.250000, 92.680463, 463.750000, 92.680463, 457.500000, 95.845859" fill="rgb(178, 34, 34)" style="fill-opacity:1.00" />
<polygon points=" 475.000000, 85.716589, 467.000000, 89.781224, 482.000000, 89.781224" fill="rgb(255, 255, 255)" style="fill-opacity:1.00" />
<!-- End 'A' -->
<!-- Begin 'T' -->
<rect height="1.837641" width="50.000000" x="450.000000" y="95.845859" fill="rgb(0, 100, 0)" style="fill-opacity:1.00" />
<rect height="11.485255" width="10.000000" x="470.000000" y="95.845859" fill="rgb(0, 100, 0)" style="fill-opacity:1.00" />
<!-- End 'T' -->
<!-- Begin 'C' -->
<ellipse cx="475.000000" cy="108.116572" rx="25.000000" ry="0.785457" fill="rgb(0, 0, 128)" style="fill-opacity:1.00" />
<ellipse cx="475.000000" cy="108.116572" rx="16.666667" ry="0.523638" fill="rgb(255, 255, 255)" style="fill-opacity:1.00" />
<rect height="0.785457" width="25.000000" x="475.000000" y="107.723843" fill="rgb(255, 255, 255)" style="fill-opacity:1.00" />
<!-- End 'C' -->
<!-- Begin 'G' -->
<ellipse cx="475.000000" cy="109.451015" rx="25.000000" ry="0.548985" fill="rgb(255, 165, 0)" style="fill-opacity:1.00" />
<ellipse cx="475.000000" cy="109.451015" rx="16.666667" ry="0.365990" fill="rgb(255, 255, 255)" style="fill-opacity:1.00" />
<rect height="0.548985" width="25.000000" x="475.000000" y="109.176522" fill="rgb(255, 255, 255)" style="fill-opacity:1.00" />
<rect height="0.137246" width="25.000000" x="475.000000" y="109.588261" fill="rgb(255, 165, 0)" style="fill-opacity:1.00" />
<rect height="0.411739" width="6.250000" x="493.750000" y="109.588261" fill="rgb(255, 165, 0)" style="fill-opacity:1.00" />
<!-- End 'G' -->
<!-- Begin 'C' -->
<ellipse cx="535.000000" cy="60.256298" rx="25.000000" ry="49.649571" fill="rgb(0, 0, 128)" style="fill-opacity:1.00" />
<ellipse cx="535.000000" cy="60.256298" rx="16.666667" ry="33.099714" fill="rgb(255, 255, 255)" style="fill-opacity:1.00" />
<rect height="49.649571" width="25.000000" x="535.000000" y="35.431513" fill="rgb(255, 255, 255)" style="fill-opacity:1.00" />
<!-- End 'C' -->
<!-- Begin 'T' -->
<rect height="0.009422" width="50.000000" x="510.000000" y="109.905870" fill="rgb(0, 100, 0)" style="fill-opacity:1.00" />
<rect height="0.058885" width="10.000000" x="530.000000" y="109.905870" fill="rgb(0, 100, 0)" style="fill-opacity:1.00" />
<!-- End 'T' -->
<!-- Begin 'A' -->
<polygon points=" 510.000000, 109.983780, 531.000000, 109.964755, 539.000000, 109.964755, 560.000000, 109.983780, 552.500000, 109.983780, 546.250000, 109.979024, 523.750000, 109.979024, 517.500000, 109.983780" fill="rgb(178, 34, 34)" style="fill-opacity:1.00" />
<!-- End 'A' -->
<!-- Begin 'G' -->
<ellipse cx="535.000000" cy="109.991890" rx="25.000000" ry="0.008110" fill="rgb(255, 165, 0)" style="fill-opacity:1.00" />
<ellipse cx="535.000000" cy="109.991890" rx="16.666667" ry="0.005407" fill="rgb(255, 255, 255)" style="fill-opacity:1.00" />
<rect height="0.008110" width="25.000000" x="535.000000" y="109.987835" fill="rgb(255, 255, 255)" style="fill-opacity:1.00" />
<rect height="0.002028" width="25.000000" x="535.000000" y="109.993917" fill="rgb(255, 165, 0)" style="fill-opacity:1.00" />
<rect height="0.006083" width="6.250000" x="553.750000" y="109.993917" fill="rgb(255, 165, 0)" style="fill-opacity:1.00" />
<!-- End 'G' -->
<!-- Begin 'C' -->
<ellipse cx="595.000000" cy="60.321396" rx="25.000000" ry="49.545107" fill="rgb(0, 0, 128)" style="fill-opacity:1.00" />
<ellipse cx="595.000000" cy="60.321396" rx="16.666667" ry="33.030071" fill="rgb(255, 255, 255)" style="fill-opacity:1.00" />
<rect height="49.545107" width="25.000000" x="595.000000" y="35.548842" fill="rgb(255, 255, 255)" style="fill-opacity:1.00" />
<!-- End 'C' -->
<!-- Begin 'G' -->
<ellipse cx="595.000000" cy="109.925884" rx="25.000000" ry="0.059381" fill="rgb(255, 165, 0)" style="fill-opacity:1.00" />
<ellipse cx="595.000000" cy="109.925884" rx="16.666667" ry="0.039587" fill="rgb(255, 255, 255)" style="fill-opacity:1.00" />
<rect height="0.059381" width="25.000000" x="595.000000" y="109.896193" fill="rgb(255, 255, 255)" style="fill-opacity:1.00" />
<rect height="0.014845" width="25.000000" x="595.000000" y="109.940729" fill="rgb(255, 165, 0)" style="fill-opacity:1.00" />
<rect height="0.044536" width="6.250000" x="613.750000" y="109.940729" fill="rgb(255, 165, 0)" style="fill-opacity:1.00" />
<!-- End 'G' -->
<!-- Begin 'A' -->
<polygon points=" 570.000000, 109.998194, 591.000000, 109.985265, 599.000000, 109.985265, 620.000000, 109.998194, 612.500000, 109.998194, 606.250000, 109.994961, 583.750000, 109.994961, 577.500000, 109.998194" fill="rgb(178, 34, 34)" style="fill-opacity:1.00" />
<!-- End 'A' -->
<!-- Begin 'T' -->
<rect height="0.000289" width="50.000000" x="570.000000" y="109.998194" fill="rgb(0, 100, 0)" style="fill-opacity:1.00" />
<rect height="0.001806" width="10.000000" x="590.000000" y="109.998194" fill="rgb(0, 100, 0)" style="fill-opacity:1.00" />
<!-- End 'T' -->
<!-- Begin 'A' -->
<polygon points=" 630.000000, 99.708310, 651.000000, 80.290928, 659.000000, 80.290928, 680.000000, 99.708310, 672.500000, 99.708310, 666.250000, 94.853964, 643.750000, 94.853964, 637.500000, 99.708310" fill="rgb(178, 34, 34)" style="fill-opacity:1.00" />
<polygon points=" 655.000000, 84.174404, 647.000000, 90.941357, 662.000000, 90.941357" fill="rgb(255, 255, 255)" style="fill-opacity:1.00" />
<!-- End 'A' -->
<!-- Begin 'C' -->
<ellipse cx="655.000000" cy="102.494883" rx="25.000000" ry="2.786573" fill="rgb(0, 0, 128)" style="fill-opacity:1.00" />
<ellipse cx="655.000000" cy="102.494883" rx="16.666667" ry="1.857716" fill="rgb(255, 255, 255)" style="fill-opacity:1.00" />
<rect height="2.786573" width="25.000000" x="655.000000" y="101.101596" fill="rgb(255, 255, 255)" style="fill-opacity:1.00" />
<!-- End 'C' -->
<!-- Begin 'T' -->
<rect height="0.561813" width="50.000000" x="630.000000" y="105.281456" fill="rgb(0, 100, 0)" style="fill-opacity:1.00" />
<rect height="3.511332" width="10.000000" x="650.000000" y="105.281456" fill="rgb(0, 100, 0)" style="fill-opacity:1.00" />
<!-- End 'T' -->
<!-- Begin 'G' -->
<ellipse cx="655.000000" cy="109.396394" rx="25.000000" ry="0.603606" fill="rgb(255, 165, 0)" style="fill-opacity:1.00" />
<ellipse cx="655.000000" cy="109.396394" rx="16.666667" ry="0.402404" fill="rgb(255, 255, 255)" style="fill-opacity:1.00" />
<rect height="0.603606" width="25.000000" x="655.000000" y="109.094591" fill="rgb(255, 255, 255)" style="fill-opacity:1.00" />
<rect height="0.150901" width="25.000000" x="655.000000" y="109.547296" fill="rgb(255, 165, 0)" style="fill-opacity:1.00" />
<rect height="0.452704" width="6.250000" x="673.750000" y="109.547296" fill="rgb(255, 165, 0)" style="fill-opacity:1.00" />
<!-- End 'G' -->
<!-- Begin 'C' -->
<ellipse cx="715.000000" cy="99.744416" rx="25.000000" ry="3.724585" fill="rgb(0, 0, 128)" style="fill-opacity:1.00" />
<ellipse cx="715.000000" cy="99.744416" rx="16.666667" ry="2.483056" fill="rgb(255, 255, 255)" style="fill-opacity:1.00" />
<rect height="3.724585" width="25.000000" x="715.000000" y="97.882124" fill="rgb(255, 255, 255)" style="fill-opacity:1.00" />
<!-- End 'C' -->
<!-- Begin 'A' -->
<polygon points=" 690.000000, 106.303568, 711.000000, 103.469001, 719.000000, 103.469001, 740.000000, 106.303568, 732.500000, 106.303568, 726.250000, 105.594926, 703.750000, 105.594926, 697.500000, 106.303568" fill="rgb(178, 34, 34)" style="fill-opacity:1.00" />
<!-- End 'A' -->
<!-- Begin 'T' -->
<rect height="0.327235" width="50.000000" x="690.000000" y="106.303568" fill="rgb(0, 100, 0)" style="fill-opacity:1.00" />
<rect height="2.045216" width="10.000000" x="710.000000" y="106.303568" fill="rgb(0, 100, 0)" style="fill-opacity:1.00" />
<!-- End 'T' -->
<!-- Begin 'G' -->
<ellipse cx="715.000000" cy="109.174392" rx="25.000000" ry="0.825608" fill="rgb(255, 165, 0)" style="fill-opacity:1.00" />
<ellipse cx="715.000000" cy="109.174392" rx="16.666667" ry="0.550405" fill="rgb(255, 255, 255)" style="fill-opacity:1.00" />
<rect height="0.825608" width="25.000000" x="715.000000" y="108.761588" fill="rgb(255, 255, 255)" style="fill-opacity:1.00" />
<rect height="0.206402" width="25.000000" x="715.000000" y="109.380794" fill="rgb(255, 165, 0)" style="fill-opacity:1.00" />
<rect height="0.619206" width="6.250000" x="733.750000" y="109.380794" fill="rgb(255, 165, 0)" style="fill-opacity:1.00" />
<!-- End 'G' -->
<!-- Begin 'A' -->
<polygon points=" 750.000000, 107.489577, 771.000000, 106.040755, 779.000000, 106.040755, 800.000000, 107.489577, 792.500000, 107.489577, 786.250000, 107.127372, 763.750000, 107.127372, 757.500000, 107.489577" fill="rgb(178, 34, 34)" style="fill-opacity:1.00" />
<!-- End 'A' -->
<!-- Begin 'T' -->
<rect height="0.164006" width="50.000000" x="750.000000" y="107.489577" fill="rgb(0, 100, 0)" style="fill-opacity:1.00" />
<rect height="1.025040" width="10.000000" x="770.000000" y="107.489577" fill="rgb(0, 100, 0)" style="fill-opacity:1.00" />
<!-- End 'T' -->
<!-- Begin 'C' -->
<ellipse cx="775.000000" cy="108.987397" rx="25.000000" ry="0.472779" fill="rgb(0, 0, 128)" style="fill-opacity:1.00" />
<ellipse cx="775.000000" cy="108.987397" rx="16.666667" ry="0.315186" fill="rgb(255, 255, 255)" style="fill-opacity:1.00" />
<rect height="0.472779" width="25.000000" x="775.000000" y="108.751007" fill="rgb(255, 255, 255)" style="fill-opacity:1.00" />
<!-- End 'C' -->
<!-- Begin 'G' -->
<ellipse cx="775.000000" cy="109.730088" rx="25.000000" ry="0.269912" fill="rgb(255, 165, 0)" style="fill-opacity:1.00" />
<ellipse cx="775.000000" cy="109.730088" rx="16.666667" ry="0.179941" fill="rgb(255, 255, 255)" style="fill-opacity:1.00" />
<rect height="0.269912" width="25.000000" x="775.000000" y="109.595132" fill="rgb(255, 255, 255)" style="fill-opacity:1.00" />
<rect height="0.067478" width="25.000000" x="775.000000" y="109.797566" fill="rgb(255, 165, 0)" style="fill-opacity:1.00" />
<rect height="0.202434" width="6.250000" x="793.750000" y="109.797566" fill="rgb(255, 165, 0)" style="fill-opacity:1.00" />
<!-- End 'G' -->
<text x="430.000000" y="165">
IC = 9.65
</text>

</svg>
