<?xml version="1.0" encoding="UTF-8" standalone="yes"?>
                 <!DOCTYPE svg PUBLIC "-//W3C//DTD SVG 1.0//EN" "http://www.w3.org/TR/2001/REC-SVG-20010904/DTD/svg10.dtd">
                 <svg height="170" width="1020" xmlns="http://www.w3.org/2000/svg" xmlns:xlink="http://www.w3.org/1999/xlink">
                 <line x1="85" y1="120" x2="987" y2="120" style="stroke:rgb(99,99,99);stroke-width:2" />
<rect height="7.000000" width="2.000000" x="85.000000" y="120.000000" fill="rgb(0, 0, 0)" style="fill-opacity:1.00" />
<text x="107.000000" y="140">
1
</text>
<rect height="7.000000" width="2.000000" x="145.000000" y="120.000000" fill="rgb(0, 0, 0)" style="fill-opacity:1.00" />
<text x="167.000000" y="140">
2
</text>
<rect height="7.000000" width="2.000000" x="205.000000" y="120.000000" fill="rgb(0, 0, 0)" style="fill-opacity:1.00" />
<text x="227.000000" y="140">
3
</text>
<rect height="7.000000" width="2.000000" x="265.000000" y="120.000000" fill="rgb(0, 0, 0)" style="fill-opacity:1.00" />
<text x="287.000000" y="140">
4
</text>
<rect height="7.000000" width="2.000000" x="325.000000" y="120.000000" fill="rgb(0, 0, 0)" style="fill-opacity:1.00" />
<text x="347.000000" y="140">
5
</text>
<rect height="7.000000" width="2.000000" x="385.000000" y="120.000000" fill="rgb(0, 0, 0)" style="fill-opacity:1.00" />
<text x="407.000000" y="140">
6
</text>
<rect height="7.000000" width="2.000000" x="445.000000" y="120.000000" fill="rgb(0, 0, 0)" style="fill-opacity:1.00" />
<text x="467.000000" y="140">
7
</text>
<rect height="7.000000" width="2.000000" x="505.000000" y="120.000000" fill="rgb(0, 0, 0)" style="fill-opacity:1.00" />
<text x="527.000000" y="140">
8
</text>
<rect height="7.000000" width="2.000000" x="565.000000" y="120.000000" fill="rgb(0, 0, 0)" style="fill-opacity:1.00" />
<text x="587.000000" y="140">
9
</text>
<rect height="7.000000" width="2.000000" x="625.000000" y="120.000000" fill="rgb(0, 0, 0)" style="fill-opacity:1.00" />
<text x="647.000000" y="140">
10
</text>
<rect height="7.000000" width="2.000000" x="685.000000" y="120.000000" fill="rgb(0, 0, 0)" style="fill-opacity:1.00" />
<text x="707.000000" y="140">
11
</text>
<rect height="7.000000" width="2.000000" x="745.000000" y="120.000000" fill="rgb(0, 0, 0)" style="fill-opacity:1.00" />
<text x="767.000000" y="140">
12
</text>
<rect height="7.000000" width="2.000000" x="805.000000" y="120.000000" fill="rgb(0, 0, 0)" style="fill-opacity:1.00" />
<text x="827.000000" y="140">
13
</text>
<rect height="7.000000" width="2.000000" x="865.000000" y="120.000000" fill="rgb(0, 0, 0)" style="fill-opacity:1.00" />
<text x="887.000000" y="140">
14
</text>
<rect height="7.000000" width="2.000000" x="925.000000" y="120.000000" fill="rgb(0, 0, 0)" style="fill-opacity:1.00" />
<text x="947.000000" y="140">
15
</text>
<rect height="7.000000" width="2.000000" x="985.000000" y="120.000000" fill="rgb(0, 0, 0)" style="fill-opacity:1.00" />
<line x1="80" y1="112" x2="80" y2="10" style="stroke:rgb(99,99,99);stroke-width:2" />
<rect height="2.000000" width="7.000000" x="73.000000" y="110.000000" fill="rgb(0, 0, 0)" style="fill-opacity:1.00" />
<text x="63" y="115">
0
</text>
<rect height="2.000000" width="7.000000" x="73.000000" y="60.000000" fill="rgb(0, 0, 0)" style="fill-opacity:1.00" />
<text x="63" y="65">
1
</text>
<rect height="2.000000" width="7.000000" x="73.000000" y="10.000000" fill="rgb(0, 0, 0)" style="fill-opacity:1.00" />
<text x="63" y="15">
2
</text>
<text x="50" y="65"
transform="rotate(-90, 50, 70)">
bits
</text>
<!-- Begin 'C' -->
<ellipse cx="115.000000" cy="99.310237" rx="25.000000" ry="3.449755" fill="rgb(0, 0, 128)" style="fill-opacity:1.00" />
<ellipse cx="115.000000" cy="99.310237" rx="16.666667" ry="2.299837" fill="rgb(255, 255, 255)" style="fill-opacity:1.00" />
<rect height="3.449755" width="25.000000" x="115.000000" y="97.585360" fill="rgb(255, 255, 255)" style="fill-opacity:1.00" />
<!-- End 'C' -->
<!-- Begin 'A' -->
<polygon points=" 90.000000, 106.743869, 111.000000, 102.759992, 119.000000, 102.759992, 140.000000, 106.743869, 132.500000, 106.743869, 126.250000, 105.747900, 103.750000, 105.747900, 97.500000, 106.743869" fill="rgb(178, 34, 34)" style="fill-opacity:1.00" />
<!-- End 'A' -->
<!-- Begin 'T' -->
<rect height="0.352034" width="50.000000" x="90.000000" y="106.743869" fill="rgb(0, 100, 0)" style="fill-opacity:1.00" />
<rect height="2.200214" width="10.000000" x="110.000000" y="106.743869" fill="rgb(0, 100, 0)" style="fill-opacity:1.00" />
<!-- End 'T' -->
<!-- Begin 'G' -->
<ellipse cx="115.000000" cy="109.472042" rx="25.000000" ry="0.527958" fill="rgb(255, 165, 0)" style="fill-opacity:1.00" />
<ellipse cx="115.000000" cy="109.472042" rx="16.666667" ry="0.351972" fill="rgb(255, 255, 255)" style="fill-opacity:1.00" />
<rect height="0.527958" width="25.000000" x="115.000000" y="109.208062" fill="rgb(255, 255, 255)" style="fill-opacity:1.00" />
<rect height="0.131990" width="25.000000" x="115.000000" y="109.604031" fill="rgb(255, 165, 0)" style="fill-opacity:1.00" />
<rect height="0.395969" width="6.250000" x="133.750000" y="109.604031" fill="rgb(255, 165, 0)" style="fill-opacity:1.00" />
<!-- End 'G' -->
<!-- Begin 'T' -->
<rect height="0.947182" width="50.000000" x="150.000000" y="97.322335" fill="rgb(0, 100, 0)" style="fill-opacity:1.00" />
<rect height="5.919886" width="10.000000" x="170.000000" y="97.322335" fill="rgb(0, 100, 0)" style="fill-opacity:1.00" />
<!-- End 'T' -->
<!-- Begin 'A' -->
<polygon points=" 150.000000, 106.420291, 171.000000, 103.242221, 179.000000, 103.242221, 200.000000, 106.420291, 192.500000, 106.420291, 186.250000, 105.625774, 163.750000, 105.625774, 157.500000, 106.420291" fill="rgb(178, 34, 34)" style="fill-opacity:1.00" />
<!-- End 'A' -->
<!-- Begin 'C' -->
<ellipse cx="175.000000" cy="107.804858" rx="25.000000" ry="1.384567" fill="rgb(0, 0, 128)" style="fill-opacity:1.00" />
<ellipse cx="175.000000" cy="107.804858" rx="16.666667" ry="0.923045" fill="rgb(255, 255, 255)" style="fill-opacity:1.00" />
<rect height="1.384567" width="25.000000" x="175.000000" y="107.112575" fill="rgb(255, 255, 255)" style="fill-opacity:1.00" />
<!-- End 'C' -->
<!-- Begin 'G' -->
<ellipse cx="175.000000" cy="109.594713" rx="25.000000" ry="0.405287" fill="rgb(255, 165, 0)" style="fill-opacity:1.00" />
<ellipse cx="175.000000" cy="109.594713" rx="16.666667" ry="0.270192" fill="rgb(255, 255, 255)" style="fill-opacity:1.00" />
<rect height="0.405287" width="25.000000" x="175.000000" y="109.392069" fill="rgb(255, 255, 255)" style="fill-opacity:1.00" />
<rect height="0.101322" width="25.000000" x="175.000000" y="109.696034" fill="rgb(255, 165, 0)" style="fill-opacity:1.00" />
<rect height="0.303966" width="6.250000" x="193.750000" y="109.696034" fill="rgb(255, 165, 0)" style="fill-opacity:1.00" />
<!-- End 'G' -->
<!-- Begin 'G' -->
<ellipse cx="235.000000" cy="107.269162" rx="25.000000" ry="0.581352" fill="rgb(255, 165, 0)" style="fill-opacity:1.00" />
<ellipse cx="235.000000" cy="107.269162" rx="16.666667" ry="0.387568" fill="rgb(255, 255, 255)" style="fill-opacity:1.00" />
<rect height="0.581352" width="25.000000" x="235.000000" y="106.978486" fill="rgb(255, 255, 255)" style="fill-opacity:1.00" />
<rect height="0.145338" width="25.000000" x="235.000000" y="107.414500" fill="rgb(255, 165, 0)" style="fill-opacity:1.00" />
<rect height="0.436014" width="6.250000" x="253.750000" y="107.414500" fill="rgb(255, 165, 0)" style="fill-opacity:1.00" />
<!-- End 'G' -->
<!-- Begin 'A' -->
<polygon points=" 210.000000, 108.796761, 231.000000, 107.850515, 239.000000, 107.850515, 260.000000, 108.796761, 252.500000, 108.796761, 246.250000, 108.560199, 223.750000, 108.560199, 217.500000, 108.796761" fill="rgb(178, 34, 34)" style="fill-opacity:1.00" />
<!-- End 'A' -->
<!-- Begin 'T' -->
<rect height="0.111693" width="50.000000" x="210.000000" y="108.796761" fill="rgb(0, 100, 0)" style="fill-opacity:1.00" />
<rect height="0.698080" width="10.000000" x="230.000000" y="108.796761" fill="rgb(0, 100, 0)" style="fill-opacity:1.00" />
<!-- End 'T' -->
<!-- Begin 'C' -->
<ellipse cx="235.000000" cy="109.747421" rx="25.000000" ry="0.252579" fill="rgb(0, 0, 128)" style="fill-opacity:1.00" />
<ellipse cx="235.000000" cy="109.747421" rx="16.666667" ry="0.168386" fill="rgb(255, 255, 255)" style="fill-opacity:1.00" />
<rect height="0.252579" width="25.000000" x="235.000000" y="109.621131" fill="rgb(255, 255, 255)" style="fill-opacity:1.00" />
<!-- End 'C' -->
<!-- Begin 'A' -->
<polygon points=" 270.000000, 101.778287, 291.000000, 90.796418, 299.000000, 90.796418, 320.000000, 101.778287, 312.500000, 101.778287, 306.250000, 99.032820, 283.750000, 99.032820, 277.500000, 101.778287" fill="rgb(178, 34, 34)" style="fill-opacity:1.00" />
<polygon points=" 295.000000, 92.992792, 287.000000, 96.385540, 302.000000, 96.385540" fill="rgb(255, 255, 255)" style="fill-opacity:1.00" />
<!-- End 'A' -->
<!-- Begin 'T' -->
<rect height="0.663751" width="50.000000" x="270.000000" y="101.778287" fill="rgb(0, 100, 0)" style="fill-opacity:1.00" />
<rect height="4.148446" width="10.000000" x="290.000000" y="101.778287" fill="rgb(0, 100, 0)" style="fill-opacity:1.00" />
<!-- End 'T' -->
<!-- Begin 'G' -->
<ellipse cx="295.000000" cy="107.195305" rx="25.000000" ry="1.268572" fill="rgb(255, 165, 0)" style="fill-opacity:1.00" />
<ellipse cx="295.000000" cy="107.195305" rx="16.666667" ry="0.845715" fill="rgb(255, 255, 255)" style="fill-opacity:1.00" />
<rect height="1.268572" width="25.000000" x="295.000000" y="106.561019" fill="rgb(255, 255, 255)" style="fill-opacity:1.00" />
<rect height="0.317143" width="25.000000" x="295.000000" y="107.512449" fill="rgb(255, 165, 0)" style="fill-opacity:1.00" />
<rect height="0.951429" width="6.250000" x="313.750000" y="107.512449" fill="rgb(255, 165, 0)" style="fill-opacity:1.00" />
<!-- End 'G' -->
<!-- Begin 'C' -->
<ellipse cx="295.000000" cy="109.231939" rx="25.000000" ry="0.768061" fill="rgb(0, 0, 128)" style="fill-opacity:1.00" />
<ellipse cx="295.000000" cy="109.231939" rx="16.666667" ry="0.512041" fill="rgb(255, 255, 255)" style="fill-opacity:1.00" />
<rect height="0.768061" width="25.000000" x="295.000000" y="108.847908" fill="rgb(255, 255, 255)" style="fill-opacity:1.00" />
<!-- End 'C' -->
<!-- Begin 'G' -->
<ellipse cx="355.000000" cy="98.882318" rx="25.000000" ry="3.525248" fill="rgb(255, 165, 0)" style="fill-opacity:1.00" />
<ellipse cx="355.000000" cy="98.882318" rx="16.666667" ry="2.350165" fill="rgb(255, 255, 255)" style="fill-opacity:1.00" />
<rect height="3.525248" width="25.000000" x="355.000000" y="97.119693" fill="rgb(255, 255, 255)" style="fill-opacity:1.00" />
<rect height="0.881312" width="25.000000" x="355.000000" y="99.763630" fill="rgb(255, 165, 0)" style="fill-opacity:1.00" />
<rect height="2.643936" width="6.250000" x="373.750000" y="99.763630" fill="rgb(255, 165, 0)" style="fill-opacity:1.00" />
<!-- End 'G' -->
<!-- Begin 'C' -->
<ellipse cx="355.000000" cy="104.507034" rx="25.000000" ry="2.099469" fill="rgb(0, 0, 128)" style="fill-opacity:1.00" />
<ellipse cx="355.000000" cy="104.507034" rx="16.666667" ry="1.399646" fill="rgb(255, 255, 255)" style="fill-opacity:1.00" />
<rect height="2.099469" width="25.000000" x="355.000000" y="103.457300" fill="rgb(255, 255, 255)" style="fill-opacity:1.00" />
<!-- End 'C' -->
<!-- Begin 'A' -->
<polygon points=" 330.000000, 109.095565, 351.000000, 106.606503, 359.000000, 106.606503, 380.000000, 109.095565, 372.500000, 109.095565, 366.250000, 108.473300, 343.750000, 108.473300, 337.500000, 109.095565" fill="rgb(178, 34, 34)" style="fill-opacity:1.00" />
<!-- End 'A' -->
<!-- Begin 'T' -->
<rect height="0.144710" width="50.000000" x="330.000000" y="109.095565" fill="rgb(0, 100, 0)" style="fill-opacity:1.00" />
<rect height="0.904435" width="10.000000" x="350.000000" y="109.095565" fill="rgb(0, 100, 0)" style="fill-opacity:1.00" />
<!-- End 'T' -->
<!-- Begin 'T' -->
<rect height="15.606810" width="50.000000" x="390.000000" y="12.032010" fill="rgb(0, 100, 0)" style="fill-opacity:1.00" />
<rect height="97.542561" width="10.000000" x="410.000000" y="12.032010" fill="rgb(0, 100, 0)" style="fill-opacity:1.00" />
<!-- End 'T' -->
<!-- Begin 'C' -->
<ellipse cx="415.000000" cy="109.785674" rx="25.000000" ry="0.211103" fill="rgb(0, 0, 128)" style="fill-opacity:1.00" />
<ellipse cx="415.000000" cy="109.785674" rx="16.666667" ry="0.140735" fill="rgb(255, 255, 255)" style="fill-opacity:1.00" />
<rect height="0.211103" width="25.000000" x="415.000000" y="109.680122" fill="rgb(255, 255, 255)" style="fill-opacity:1.00" />
<!-- End 'C' -->
<!-- Begin 'G' -->
<ellipse cx="415.000000" cy="109.997583" rx="25.000000" ry="0.000806" fill="rgb(255, 165, 0)" style="fill-opacity:1.00" />
<ellipse cx="415.000000" cy="109.997583" rx="16.666667" ry="0.000537" fill="rgb(255, 255, 255)" style="fill-opacity:1.00" />
<rect height="0.000806" width="25.000000" x="415.000000" y="109.997180" fill="rgb(255, 255, 255)" style="fill-opacity:1.00" />
<rect height="0.000201" width="25.000000" x="415.000000" y="109.997784" fill="rgb(255, 165, 0)" style="fill-opacity:1.00" />
<rect height="0.000604" width="6.250000" x="433.750000" y="109.997784" fill="rgb(255, 165, 0)" style="fill-opacity:1.00" />
<!-- End 'G' -->
<!-- Begin 'A' -->
<polygon points=" 390.000000, 110.000000, 411.000000, 109.998389, 419.000000, 109.998389, 440.000000, 110.000000, 432.500000, 110.000000, 426.250000, 109.999597, 403.750000, 109.999597, 397.500000, 110.000000" fill="rgb(178, 34, 34)" style="fill-opacity:1.00" />
<!-- End 'A' -->
<!-- Begin 'C' -->
<ellipse cx="475.000000" cy="64.602404" rx="25.000000" ry="41.575002" fill="rgb(0, 0, 128)" style="fill-opacity:1.00" />
<ellipse cx="475.000000" cy="64.602404" rx="16.666667" ry="27.716668" fill="rgb(255, 255, 255)" style="fill-opacity:1.00" />
<rect height="41.575002" width="25.000000" x="475.000000" y="43.814903" fill="rgb(255, 255, 255)" style="fill-opacity:1.00" />
<!-- End 'C' -->
<!-- Begin 'A' -->
<polygon points=" 450.000000, 109.997139, 471.000000, 106.177406, 479.000000, 106.177406, 500.000000, 109.997139, 492.500000, 109.997139, 486.250000, 109.042206, 463.750000, 109.042206, 457.500000, 109.997139" fill="rgb(178, 34, 34)" style="fill-opacity:1.00" />
<!-- End 'A' -->
<!-- Begin 'T' -->
<rect height="0.000229" width="50.000000" x="450.000000" y="109.997139" fill="rgb(0, 100, 0)" style="fill-opacity:1.00" />
<rect height="0.001431" width="10.000000" x="470.000000" y="109.997139" fill="rgb(0, 100, 0)" style="fill-opacity:1.00" />
<!-- End 'T' -->
<!-- Begin 'G' -->
<ellipse cx="475.000000" cy="109.999285" rx="25.000000" ry="0.000715" fill="rgb(255, 165, 0)" style="fill-opacity:1.00" />
<ellipse cx="475.000000" cy="109.999285" rx="16.666667" ry="0.000477" fill="rgb(255, 255, 255)" style="fill-opacity:1.00" />
<rect height="0.000715" width="25.000000" x="475.000000" y="109.998927" fill="rgb(255, 255, 255)" style="fill-opacity:1.00" />
<rect height="0.000179" width="25.000000" x="475.000000" y="109.999464" fill="rgb(255, 165, 0)" style="fill-opacity:1.00" />
<rect height="0.000536" width="6.250000" x="493.750000" y="109.999464" fill="rgb(255, 165, 0)" style="fill-opacity:1.00" />
<!-- End 'G' -->
<!-- Begin 'A' -->
<polygon points=" 510.000000, 109.995067, 531.000000, 10.042770, 539.000000, 10.042770, 560.000000, 109.995067, 552.500000, 109.995067, 546.250000, 85.006993, 523.750000, 85.006993, 517.500000, 109.995067" fill="rgb(178, 34, 34)" style="fill-opacity:1.00" />
<polygon points=" 535.000000, 30.033229, 527.000000, 69.014148, 542.000000, 69.014148" fill="rgb(255, 255, 255)" style="fill-opacity:1.00" />
<!-- End 'A' -->
<!-- Begin 'T' -->
<rect height="0.000263" width="50.000000" x="510.000000" y="109.995067" fill="rgb(0, 100, 0)" style="fill-opacity:1.00" />
<rect height="0.001644" width="10.000000" x="530.000000" y="109.995067" fill="rgb(0, 100, 0)" style="fill-opacity:1.00" />
<!-- End 'T' -->
<!-- Begin 'G' -->
<ellipse cx="535.000000" cy="109.997534" rx="25.000000" ry="0.000822" fill="rgb(255, 165, 0)" style="fill-opacity:1.00" />
<ellipse cx="535.000000" cy="109.997534" rx="16.666667" ry="0.000548" fill="rgb(255, 255, 255)" style="fill-opacity:1.00" />
<rect height="0.000822" width="25.000000" x="535.000000" y="109.997123" fill="rgb(255, 255, 255)" style="fill-opacity:1.00" />
<rect height="0.000206" width="25.000000" x="535.000000" y="109.997739" fill="rgb(255, 165, 0)" style="fill-opacity:1.00" />
<rect height="0.000617" width="6.250000" x="553.750000" y="109.997739" fill="rgb(255, 165, 0)" style="fill-opacity:1.00" />
<!-- End 'G' -->
<!-- Begin 'C' -->
<ellipse cx="535.000000" cy="109.999178" rx="25.000000" ry="0.000822" fill="rgb(0, 0, 128)" style="fill-opacity:1.00" />
<ellipse cx="535.000000" cy="109.999178" rx="16.666667" ry="0.000548" fill="rgb(255, 255, 255)" style="fill-opacity:1.00" />
<rect height="0.000822" width="25.000000" x="535.000000" y="109.998767" fill="rgb(255, 255, 255)" style="fill-opacity:1.00" />
<!-- End 'C' -->
<!-- Begin 'G' -->
<ellipse cx="595.000000" cy="67.218570" rx="25.000000" ry="35.975058" fill="rgb(255, 165, 0)" style="fill-opacity:1.00" />
<ellipse cx="595.000000" cy="67.218570" rx="16.666667" ry="23.983372" fill="rgb(255, 255, 255)" style="fill-opacity:1.00" />
<rect height="35.975058" width="25.000000" x="595.000000" y="49.231041" fill="rgb(255, 255, 255)" style="fill-opacity:1.00" />
<rect height="8.993764" width="25.000000" x="595.000000" y="76.212335" fill="rgb(255, 165, 0)" style="fill-opacity:1.00" />
<rect height="26.981293" width="6.250000" x="613.750000" y="76.212335" fill="rgb(255, 165, 0)" style="fill-opacity:1.00" />
<!-- End 'G' -->
<!-- Begin 'T' -->
<rect height="1.088605" width="50.000000" x="570.000000" y="103.193628" fill="rgb(0, 100, 0)" style="fill-opacity:1.00" />
<rect height="6.803781" width="10.000000" x="590.000000" y="103.193628" fill="rgb(0, 100, 0)" style="fill-opacity:1.00" />
<!-- End 'T' -->
<!-- Begin 'C' -->
<ellipse cx="595.000000" cy="109.998057" rx="25.000000" ry="0.000648" fill="rgb(0, 0, 128)" style="fill-opacity:1.00" />
<ellipse cx="595.000000" cy="109.998057" rx="16.666667" ry="0.000432" fill="rgb(255, 255, 255)" style="fill-opacity:1.00" />
<rect height="0.000648" width="25.000000" x="595.000000" y="109.997733" fill="rgb(255, 255, 255)" style="fill-opacity:1.00" />
<!-- End 'C' -->
<!-- Begin 'A' -->
<polygon points=" 570.000000, 110.000000, 591.000000, 109.998705, 599.000000, 109.998705, 620.000000, 110.000000, 612.500000, 110.000000, 606.250000, 109.999676, 583.750000, 109.999676, 577.500000, 110.000000" fill="rgb(178, 34, 34)" style="fill-opacity:1.00" />
<!-- End 'A' -->
<!-- Begin 'C' -->
<ellipse cx="655.000000" cy="60.208660" rx="25.000000" ry="49.707871" fill="rgb(0, 0, 128)" style="fill-opacity:1.00" />
<ellipse cx="655.000000" cy="60.208660" rx="16.666667" ry="33.138580" fill="rgb(255, 255, 255)" style="fill-opacity:1.00" />
<rect height="49.707871" width="25.000000" x="655.000000" y="35.354724" fill="rgb(255, 255, 255)" style="fill-opacity:1.00" />
<!-- End 'C' -->
<!-- Begin 'G' -->
<ellipse cx="655.000000" cy="109.956628" rx="25.000000" ry="0.040098" fill="rgb(255, 165, 0)" style="fill-opacity:1.00" />
<ellipse cx="655.000000" cy="109.956628" rx="16.666667" ry="0.026732" fill="rgb(255, 255, 255)" style="fill-opacity:1.00" />
<rect height="0.040098" width="25.000000" x="655.000000" y="109.936579" fill="rgb(255, 255, 255)" style="fill-opacity:1.00" />
<rect height="0.010025" width="25.000000" x="655.000000" y="109.966653" fill="rgb(255, 165, 0)" style="fill-opacity:1.00" />
<rect height="0.030074" width="6.250000" x="673.750000" y="109.966653" fill="rgb(255, 165, 0)" style="fill-opacity:1.00" />
<!-- End 'G' -->
<!-- Begin 'T' -->
<rect height="0.000262" width="50.000000" x="630.000000" y="109.996727" fill="rgb(0, 100, 0)" style="fill-opacity:1.00" />
<rect height="0.001637" width="10.000000" x="650.000000" y="109.996727" fill="rgb(0, 100, 0)" style="fill-opacity:1.00" />
<!-- End 'T' -->
<!-- Begin 'A' -->
<polygon points=" 630.000000, 110.000000, 651.000000, 109.998363, 659.000000, 109.998363, 680.000000, 110.000000, 672.500000, 110.000000, 666.250000, 109.999591, 643.750000, 109.999591, 637.500000, 110.000000" fill="rgb(178, 34, 34)" style="fill-opacity:1.00" />
<!-- End 'A' -->
<!-- Begin 'A' -->
<polygon points=" 690.000000, 105.960107, 711.000000, 25.280693, 719.000000, 25.280693, 740.000000, 105.960107, 732.500000, 105.960107, 726.250000, 85.790253, 703.750000, 85.790253, 697.500000, 105.960107" fill="rgb(178, 34, 34)" style="fill-opacity:1.00" />
<polygon points=" 715.000000, 41.416576, 707.000000, 72.688341, 722.000000, 72.688341" fill="rgb(255, 255, 255)" style="fill-opacity:1.00" />
<!-- End 'A' -->
<!-- Begin 'T' -->
<rect height="0.550061" width="50.000000" x="690.000000" y="105.960107" fill="rgb(0, 100, 0)" style="fill-opacity:1.00" />
<rect height="3.437881" width="10.000000" x="710.000000" y="105.960107" fill="rgb(0, 100, 0)" style="fill-opacity:1.00" />
<!-- End 'T' -->
<!-- Begin 'C' -->
<ellipse cx="715.000000" cy="109.698297" rx="25.000000" ry="0.300309" fill="rgb(0, 0, 128)" style="fill-opacity:1.00" />
<ellipse cx="715.000000" cy="109.698297" rx="16.666667" ry="0.200206" fill="rgb(255, 255, 255)" style="fill-opacity:1.00" />
<rect height="0.300309" width="25.000000" x="715.000000" y="109.548142" fill="rgb(255, 255, 255)" style="fill-opacity:1.00" />
<!-- End 'C' -->
<!-- Begin 'G' -->
<ellipse cx="715.000000" cy="109.999303" rx="25.000000" ry="0.000697" fill="rgb(255, 165, 0)" style="fill-opacity:1.00" />
<ellipse cx="715.000000" cy="109.999303" rx="16.666667" ry="0.000465" fill="rgb(255, 255, 255)" style="fill-opacity:1.00" />
<rect height="0.000697" width="25.000000" x="715.000000" y="109.998955" fill="rgb(255, 255, 255)" style="fill-opacity:1.00" />
<rect height="0.000174" width="25.000000" x="715.000000" y="109.999477" fill="rgb(255, 165, 0)" style="fill-opacity:1.00" />
<rect height="0.000523" width="6.250000" x="733.750000" y="109.999477" fill="rgb(255, 165, 0)" style="fill-opacity:1.00" />
<!-- End 'G' -->
<!-- Begin 'A' -->
<polygon points=" 750.000000, 106.864000, 771.000000, 104.891753, 779.000000, 104.891753, 800.000000, 106.864000, 792.500000, 106.864000, 786.250000, 106.370938, 763.750000, 106.370938, 757.500000, 106.864000" fill="rgb(178, 34, 34)" style="fill-opacity:1.00" />
<!-- End 'A' -->
<!-- Begin 'T' -->
<rect height="0.237853" width="50.000000" x="750.000000" y="106.864000" fill="rgb(0, 100, 0)" style="fill-opacity:1.00" />
<rect height="1.486579" width="10.000000" x="770.000000" y="106.864000" fill="rgb(0, 100, 0)" style="fill-opacity:1.00" />
<!-- End 'T' -->
<!-- Begin 'G' -->
<ellipse cx="775.000000" cy="108.764573" rx="25.000000" ry="0.413994" fill="rgb(255, 165, 0)" style="fill-opacity:1.00" />
<ellipse cx="775.000000" cy="108.764573" rx="16.666667" ry="0.275996" fill="rgb(255, 255, 255)" style="fill-opacity:1.00" />
<rect height="0.413994" width="25.000000" x="775.000000" y="108.557576" fill="rgb(255, 255, 255)" style="fill-opacity:1.00" />
<rect height="0.103498" width="25.000000" x="775.000000" y="108.868071" fill="rgb(255, 165, 0)" style="fill-opacity:1.00" />
<rect height="0.310495" width="6.250000" x="793.750000" y="108.868071" fill="rgb(255, 165, 0)" style="fill-opacity:1.00" />
<!-- End 'G' -->
<!-- Begin 'C' -->
<ellipse cx="775.000000" cy="109.589283" rx="25.000000" ry="0.410717" fill="rgb(0, 0, 128)" style="fill-opacity:1.00" />
<ellipse cx="775.000000" cy="109.589283" rx="16.666667" ry="0.273811" fill="rgb(255, 255, 255)" style="fill-opacity:1.00" />
<rect height="0.410717" width="25.000000" x="775.000000" y="109.383925" fill="rgb(255, 255, 255)" style="fill-opacity:1.00" />
<!-- End 'C' -->
<!-- Begin 'T' -->
<rect height="2.221228" width="50.000000" x="810.000000" y="80.279140" fill="rgb(0, 100, 0)" style="fill-opacity:1.00" />
<rect height="13.882673" width="10.000000" x="830.000000" y="80.279140" fill="rgb(0, 100, 0)" style="fill-opacity:1.00" />
<!-- End 'T' -->
<!-- Begin 'A' -->
<polygon points=" 810.000000, 107.442189, 831.000000, 94.161814, 839.000000, 94.161814, 860.000000, 107.442189, 852.500000, 107.442189, 846.250000, 104.122096, 823.750000, 104.122096, 817.500000, 107.442189" fill="rgb(178, 34, 34)" style="fill-opacity:1.00" />
<polygon points=" 835.000000, 96.817889, 827.000000, 101.130039, 842.000000, 101.130039" fill="rgb(255, 255, 255)" style="fill-opacity:1.00" />
<!-- End 'A' -->
<!-- Begin 'C' -->
<ellipse cx="835.000000" cy="108.410901" rx="25.000000" ry="0.968712" fill="rgb(0, 0, 128)" style="fill-opacity:1.00" />
<ellipse cx="835.000000" cy="108.410901" rx="16.666667" ry="0.645808" fill="rgb(255, 255, 255)" style="fill-opacity:1.00" />
<rect height="0.968712" width="25.000000" x="835.000000" y="107.926545" fill="rgb(255, 255, 255)" style="fill-opacity:1.00" />
<!-- End 'C' -->
<!-- Begin 'G' -->
<ellipse cx="835.000000" cy="109.689807" rx="25.000000" ry="0.310193" fill="rgb(255, 165, 0)" style="fill-opacity:1.00" />
<ellipse cx="835.000000" cy="109.689807" rx="16.666667" ry="0.206795" fill="rgb(255, 255, 255)" style="fill-opacity:1.00" />
<rect height="0.310193" width="25.000000" x="835.000000" y="109.534710" fill="rgb(255, 255, 255)" style="fill-opacity:1.00" />
<rect height="0.077548" width="25.000000" x="835.000000" y="109.767355" fill="rgb(255, 165, 0)" style="fill-opacity:1.00" />
<rect height="0.232645" width="6.250000" x="853.750000" y="109.767355" fill="rgb(255, 165, 0)" style="fill-opacity:1.00" />
<!-- End 'G' -->
<!-- Begin 'T' -->
<rect height="2.406271" width="50.000000" x="870.000000" y="82.396212" fill="rgb(0, 100, 0)" style="fill-opacity:1.00" />
<rect height="15.039193" width="10.000000" x="890.000000" y="82.396212" fill="rgb(0, 100, 0)" style="fill-opacity:1.00" />
<!-- End 'T' -->
<!-- Begin 'A' -->
<polygon points=" 870.000000, 106.909705, 891.000000, 97.435404, 899.000000, 97.435404, 920.000000, 106.909705, 912.500000, 106.909705, 906.250000, 104.541130, 883.750000, 104.541130, 877.500000, 106.909705" fill="rgb(178, 34, 34)" style="fill-opacity:1.00" />
<polygon points=" 895.000000, 99.330265, 887.000000, 102.119985, 902.000000, 102.119985" fill="rgb(255, 255, 255)" style="fill-opacity:1.00" />
<!-- End 'A' -->
<!-- Begin 'C' -->
<ellipse cx="895.000000" cy="108.097058" rx="25.000000" ry="1.187352" fill="rgb(0, 0, 128)" style="fill-opacity:1.00" />
<ellipse cx="895.000000" cy="108.097058" rx="16.666667" ry="0.791568" fill="rgb(255, 255, 255)" style="fill-opacity:1.00" />
<rect height="1.187352" width="25.000000" x="895.000000" y="107.503381" fill="rgb(255, 255, 255)" style="fill-opacity:1.00" />
<!-- End 'C' -->
<!-- Begin 'G' -->
<ellipse cx="895.000000" cy="109.642205" rx="25.000000" ry="0.357795" fill="rgb(255, 165, 0)" style="fill-opacity:1.00" />
<ellipse cx="895.000000" cy="109.642205" rx="16.666667" ry="0.238530" fill="rgb(255, 255, 255)" style="fill-opacity:1.00" />
<rect height="0.357795" width="25.000000" x="895.000000" y="109.463308" fill="rgb(255, 255, 255)" style="fill-opacity:1.00" />
<rect height="0.089449" width="25.000000" x="895.000000" y="109.731654" fill="rgb(255, 165, 0)" style="fill-opacity:1.00" />
<rect height="0.268346" width="6.250000" x="913.750000" y="109.731654" fill="rgb(255, 165, 0)" style="fill-opacity:1.00" />
<!-- End 'G' -->
<!-- Begin 'T' -->
<rect height="1.572576" width="50.000000" x="930.000000" y="91.043753" fill="rgb(0, 100, 0)" style="fill-opacity:1.00" />
<rect height="9.828599" width="10.000000" x="950.000000" y="91.043753" fill="rgb(0, 100, 0)" style="fill-opacity:1.00" />
<!-- End 'T' -->
<!-- Begin 'A' -->
<polygon points=" 930.000000, 106.261384, 951.000000, 100.872352, 959.000000, 100.872352, 980.000000, 106.261384, 972.500000, 106.261384, 966.250000, 104.914126, 943.750000, 104.914126, 937.500000, 106.261384" fill="rgb(178, 34, 34)" style="fill-opacity:1.00" />
<!-- End 'A' -->
<!-- Begin 'C' -->
<ellipse cx="955.000000" cy="107.709747" rx="25.000000" ry="1.448363" fill="rgb(0, 0, 128)" style="fill-opacity:1.00" />
<ellipse cx="955.000000" cy="107.709747" rx="16.666667" ry="0.965575" fill="rgb(255, 255, 255)" style="fill-opacity:1.00" />
<rect height="1.448363" width="25.000000" x="955.000000" y="106.985566" fill="rgb(255, 255, 255)" style="fill-opacity:1.00" />
<!-- End 'C' -->
<!-- Begin 'G' -->
<ellipse cx="955.000000" cy="109.579055" rx="25.000000" ry="0.420945" fill="rgb(255, 165, 0)" style="fill-opacity:1.00" />
<ellipse cx="955.000000" cy="109.579055" rx="16.666667" ry="0.280630" fill="rgb(255, 255, 255)" style="fill-opacity:1.00" />
<rect height="0.420945" width="25.000000" x="955.000000" y="109.368582" fill="rgb(255, 255, 255)" style="fill-opacity:1.00" />
<rect height="0.105236" width="25.000000" x="955.000000" y="109.684291" fill="rgb(255, 165, 0)" style="fill-opacity:1.00" />
<rect height="0.315709" width="6.250000" x="973.750000" y="109.684291" fill="rgb(255, 165, 0)" style="fill-opacity:1.00" />
<!-- End 'G' -->
<text x="520.000000" y="165">
IC = 13.86
</text>

</svg>
