<?xml version="1.0" encoding="UTF-8" standalone="yes"?>
                 <!DOCTYPE svg PUBLIC "-//W3C//DTD SVG 1.0//EN" "http://www.w3.org/TR/2001/REC-SVG-20010904/DTD/svg10.dtd">
                 <svg height="170" width="1020" xmlns="http://www.w3.org/2000/svg" xmlns:xlink="http://www.w3.org/1999/xlink">
                 <line x1="85" y1="120" x2="987" y2="120" style="stroke:rgb(99,99,99);stroke-width:2" />
<rect height="7.000000" width="2.000000" x="85.000000" y="120.000000" fill="rgb(0, 0, 0)" style="fill-opacity:1.00" />
<text x="107.000000" y="140">
1
</text>
<rect height="7.000000" width="2.000000" x="145.000000" y="120.000000" fill="rgb(0, 0, 0)" style="fill-opacity:1.00" />
<text x="167.000000" y="140">
2
</text>
<rect height="7.000000" width="2.000000" x="205.000000" y="120.000000" fill="rgb(0, 0, 0)" style="fill-opacity:1.00" />
<text x="227.000000" y="140">
3
</text>
<rect height="7.000000" width="2.000000" x="265.000000" y="120.000000" fill="rgb(0, 0, 0)" style="fill-opacity:1.00" />
<text x="287.000000" y="140">
4
</text>
<rect height="7.000000" width="2.000000" x="325.000000" y="120.000000" fill="rgb(0, 0, 0)" style="fill-opacity:1.00" />
<text x="347.000000" y="140">
5
</text>
<rect height="7.000000" width="2.000000" x="385.000000" y="120.000000" fill="rgb(0, 0, 0)" style="fill-opacity:1.00" />
<text x="407.000000" y="140">
6
</text>
<rect height="7.000000" width="2.000000" x="445.000000" y="120.000000" fill="rgb(0, 0, 0)" style="fill-opacity:1.00" />
<text x="467.000000" y="140">
7
</text>
<rect height="7.000000" width="2.000000" x="505.000000" y="120.000000" fill="rgb(0, 0, 0)" style="fill-opacity:1.00" />
<text x="527.000000" y="140">
8
</text>
<rect height="7.000000" width="2.000000" x="565.000000" y="120.000000" fill="rgb(0, 0, 0)" style="fill-opacity:1.00" />
<text x="587.000000" y="140">
9
</text>
<rect height="7.000000" width="2.000000" x="625.000000" y="120.000000" fill="rgb(0, 0, 0)" style="fill-opacity:1.00" />
<text x="647.000000" y="140">
10
</text>
<rect height="7.000000" width="2.000000" x="685.000000" y="120.000000" fill="rgb(0, 0, 0)" style="fill-opacity:1.00" />
<text x="707.000000" y="140">
11
</text>
<rect height="7.000000" width="2.000000" x="745.000000" y="120.000000" fill="rgb(0, 0, 0)" style="fill-opacity:1.00" />
<text x="767.000000" y="140">
12
</text>
<rect height="7.000000" width="2.000000" x="805.000000" y="120.000000" fill="rgb(0, 0, 0)" style="fill-opacity:1.00" />
<text x="827.000000" y="140">
13
</text>
<rect height="7.000000" width="2.000000" x="865.000000" y="120.000000" fill="rgb(0, 0, 0)" style="fill-opacity:1.00" />
<text x="887.000000" y="140">
14
</text>
<rect height="7.000000" width="2.000000" x="925.000000" y="120.000000" fill="rgb(0, 0, 0)" style="fill-opacity:1.00" />
<text x="947.000000" y="140">
15
</text>
<rect height="7.000000" width="2.000000" x="985.000000" y="120.000000" fill="rgb(0, 0, 0)" style="fill-opacity:1.00" />
<line x1="80" y1="112" x2="80" y2="10" style="stroke:rgb(99,99,99);stroke-width:2" />
<rect height="2.000000" width="7.000000" x="73.000000" y="110.000000" fill="rgb(0, 0, 0)" style="fill-opacity:1.00" />
<text x="63" y="115">
0
</text>
<rect height="2.000000" width="7.000000" x="73.000000" y="60.000000" fill="rgb(0, 0, 0)" style="fill-opacity:1.00" />
<text x="63" y="65">
1
</text>
<rect height="2.000000" width="7.000000" x="73.000000" y="10.000000" fill="rgb(0, 0, 0)" style="fill-opacity:1.00" />
<text x="63" y="15">
2
</text>
<text x="50" y="65"
transform="rotate(-90, 50, 70)">
bits
</text>
<!-- Begin 'G' -->
<ellipse cx="115.000000" cy="106.194383" rx="25.000000" ry="0.898740" fill="rgb(255, 165, 0)" style="fill-opacity:1.00" />
<ellipse cx="115.000000" cy="106.194383" rx="16.666667" ry="0.599160" fill="rgb(255, 255, 255)" style="fill-opacity:1.00" />
<rect height="0.898740" width="25.000000" x="115.000000" y="105.745013" fill="rgb(255, 255, 255)" style="fill-opacity:1.00" />
<rect height="0.224685" width="25.000000" x="115.000000" y="106.419068" fill="rgb(255, 165, 0)" style="fill-opacity:1.00" />
<rect height="0.674055" width="6.250000" x="133.750000" y="106.419068" fill="rgb(255, 165, 0)" style="fill-opacity:1.00" />
<!-- End 'G' -->
<!-- Begin 'A' -->
<polygon points=" 90.000000, 108.243055, 111.000000, 107.093123, 119.000000, 107.093123, 140.000000, 108.243055, 132.500000, 108.243055, 126.250000, 107.955572, 103.750000, 107.955572, 97.500000, 108.243055" fill="rgb(178, 34, 34)" style="fill-opacity:1.00" />
<!-- End 'A' -->
<!-- Begin 'T' -->
<rect height="0.183366" width="50.000000" x="90.000000" y="108.243055" fill="rgb(0, 100, 0)" style="fill-opacity:1.00" />
<rect height="1.146040" width="10.000000" x="110.000000" y="108.243055" fill="rgb(0, 100, 0)" style="fill-opacity:1.00" />
<!-- End 'T' -->
<!-- Begin 'C' -->
<ellipse cx="115.000000" cy="109.694548" rx="25.000000" ry="0.305452" fill="rgb(0, 0, 128)" style="fill-opacity:1.00" />
<ellipse cx="115.000000" cy="109.694548" rx="16.666667" ry="0.203635" fill="rgb(255, 255, 255)" style="fill-opacity:1.00" />
<rect height="0.305452" width="25.000000" x="115.000000" y="109.541821" fill="rgb(255, 255, 255)" style="fill-opacity:1.00" />
<!-- End 'C' -->
<!-- Begin 'G' -->
<ellipse cx="175.000000" cy="108.733993" rx="25.000000" ry="0.246241" fill="rgb(255, 165, 0)" style="fill-opacity:1.00" />
<ellipse cx="175.000000" cy="108.733993" rx="16.666667" ry="0.164160" fill="rgb(255, 255, 255)" style="fill-opacity:1.00" />
<rect height="0.246241" width="25.000000" x="175.000000" y="108.610873" fill="rgb(255, 255, 255)" style="fill-opacity:1.00" />
<rect height="0.061560" width="25.000000" x="175.000000" y="108.795553" fill="rgb(255, 165, 0)" style="fill-opacity:1.00" />
<rect height="0.184680" width="6.250000" x="193.750000" y="108.795553" fill="rgb(255, 165, 0)" style="fill-opacity:1.00" />
<!-- End 'G' -->
<!-- Begin 'C' -->
<ellipse cx="175.000000" cy="109.181301" rx="25.000000" ry="0.201067" fill="rgb(0, 0, 128)" style="fill-opacity:1.00" />
<ellipse cx="175.000000" cy="109.181301" rx="16.666667" ry="0.134045" fill="rgb(255, 255, 255)" style="fill-opacity:1.00" />
<rect height="0.201067" width="25.000000" x="175.000000" y="109.080767" fill="rgb(255, 255, 255)" style="fill-opacity:1.00" />
<!-- End 'C' -->
<!-- Begin 'T' -->
<rect height="0.052991" width="50.000000" x="150.000000" y="109.382368" fill="rgb(0, 100, 0)" style="fill-opacity:1.00" />
<rect height="0.331195" width="10.000000" x="170.000000" y="109.382368" fill="rgb(0, 100, 0)" style="fill-opacity:1.00" />
<!-- End 'T' -->
<!-- Begin 'A' -->
<polygon points=" 150.000000, 110.000000, 171.000000, 109.713564, 179.000000, 109.713564, 200.000000, 110.000000, 192.500000, 110.000000, 186.250000, 109.928391, 163.750000, 109.928391, 157.500000, 110.000000" fill="rgb(178, 34, 34)" style="fill-opacity:1.00" />
<!-- End 'A' -->
<!-- Begin 'C' -->
<ellipse cx="235.000000" cy="105.141691" rx="25.000000" ry="1.127229" fill="rgb(0, 0, 128)" style="fill-opacity:1.00" />
<ellipse cx="235.000000" cy="105.141691" rx="16.666667" ry="0.751486" fill="rgb(255, 255, 255)" style="fill-opacity:1.00" />
<rect height="1.127229" width="25.000000" x="235.000000" y="104.578077" fill="rgb(255, 255, 255)" style="fill-opacity:1.00" />
<!-- End 'C' -->
<!-- Begin 'T' -->
<rect height="0.284770" width="50.000000" x="210.000000" y="106.268920" fill="rgb(0, 100, 0)" style="fill-opacity:1.00" />
<rect height="1.779811" width="10.000000" x="230.000000" y="106.268920" fill="rgb(0, 100, 0)" style="fill-opacity:1.00" />
<!-- End 'T' -->
<!-- Begin 'A' -->
<polygon points=" 210.000000, 109.331779, 231.000000, 108.048732, 239.000000, 108.048732, 260.000000, 109.331779, 252.500000, 109.331779, 246.250000, 109.011017, 223.750000, 109.011017, 217.500000, 109.331779" fill="rgb(178, 34, 34)" style="fill-opacity:1.00" />
<!-- End 'A' -->
<!-- Begin 'G' -->
<ellipse cx="235.000000" cy="109.665889" rx="25.000000" ry="0.334111" fill="rgb(255, 165, 0)" style="fill-opacity:1.00" />
<ellipse cx="235.000000" cy="109.665889" rx="16.666667" ry="0.222740" fill="rgb(255, 255, 255)" style="fill-opacity:1.00" />
<rect height="0.334111" width="25.000000" x="235.000000" y="109.498834" fill="rgb(255, 255, 255)" style="fill-opacity:1.00" />
<rect height="0.083528" width="25.000000" x="235.000000" y="109.749417" fill="rgb(255, 165, 0)" style="fill-opacity:1.00" />
<rect height="0.250583" width="6.250000" x="253.750000" y="109.749417" fill="rgb(255, 165, 0)" style="fill-opacity:1.00" />
<!-- End 'G' -->
<!-- Begin 'G' -->
<ellipse cx="295.000000" cy="107.259917" rx="25.000000" ry="0.566676" fill="rgb(255, 165, 0)" style="fill-opacity:1.00" />
<ellipse cx="295.000000" cy="107.259917" rx="16.666667" ry="0.377784" fill="rgb(255, 255, 255)" style="fill-opacity:1.00" />
<rect height="0.566676" width="25.000000" x="295.000000" y="106.976579" fill="rgb(255, 255, 255)" style="fill-opacity:1.00" />
<rect height="0.141669" width="25.000000" x="295.000000" y="107.401586" fill="rgb(255, 165, 0)" style="fill-opacity:1.00" />
<rect height="0.425007" width="6.250000" x="313.750000" y="107.401586" fill="rgb(255, 165, 0)" style="fill-opacity:1.00" />
<!-- End 'G' -->
<!-- Begin 'A' -->
<polygon points=" 270.000000, 108.696033, 291.000000, 107.826593, 299.000000, 107.826593, 320.000000, 108.696033, 312.500000, 108.696033, 306.250000, 108.478673, 283.750000, 108.478673, 277.500000, 108.696033" fill="rgb(178, 34, 34)" style="fill-opacity:1.00" />
<!-- End 'A' -->
<!-- Begin 'T' -->
<rect height="0.135652" width="50.000000" x="270.000000" y="108.696033" fill="rgb(0, 100, 0)" style="fill-opacity:1.00" />
<rect height="0.847827" width="10.000000" x="290.000000" y="108.696033" fill="rgb(0, 100, 0)" style="fill-opacity:1.00" />
<!-- End 'T' -->
<!-- Begin 'C' -->
<ellipse cx="295.000000" cy="109.771930" rx="25.000000" ry="0.228070" fill="rgb(0, 0, 128)" style="fill-opacity:1.00" />
<ellipse cx="295.000000" cy="109.771930" rx="16.666667" ry="0.152047" fill="rgb(255, 255, 255)" style="fill-opacity:1.00" />
<rect height="0.228070" width="25.000000" x="295.000000" y="109.657895" fill="rgb(255, 255, 255)" style="fill-opacity:1.00" />
<!-- End 'C' -->
<!-- Begin 'G' -->
<ellipse cx="355.000000" cy="108.857128" rx="25.000000" ry="0.214500" fill="rgb(255, 165, 0)" style="fill-opacity:1.00" />
<ellipse cx="355.000000" cy="108.857128" rx="16.666667" ry="0.143000" fill="rgb(255, 255, 255)" style="fill-opacity:1.00" />
<rect height="0.214500" width="25.000000" x="355.000000" y="108.749878" fill="rgb(255, 255, 255)" style="fill-opacity:1.00" />
<rect height="0.053625" width="25.000000" x="355.000000" y="108.910753" fill="rgb(255, 165, 0)" style="fill-opacity:1.00" />
<rect height="0.160875" width="6.250000" x="373.750000" y="108.910753" fill="rgb(255, 165, 0)" style="fill-opacity:1.00" />
<!-- End 'G' -->
<!-- Begin 'C' -->
<ellipse cx="355.000000" cy="109.259595" rx="25.000000" ry="0.187968" fill="rgb(0, 0, 128)" style="fill-opacity:1.00" />
<ellipse cx="355.000000" cy="109.259595" rx="16.666667" ry="0.125312" fill="rgb(255, 255, 255)" style="fill-opacity:1.00" />
<rect height="0.187968" width="25.000000" x="355.000000" y="109.165611" fill="rgb(255, 255, 255)" style="fill-opacity:1.00" />
<!-- End 'C' -->
<!-- Begin 'A' -->
<polygon points=" 330.000000, 109.730621, 351.000000, 109.447563, 359.000000, 109.447563, 380.000000, 109.730621, 372.500000, 109.730621, 366.250000, 109.659856, 343.750000, 109.659856, 337.500000, 109.730621" fill="rgb(178, 34, 34)" style="fill-opacity:1.00" />
<!-- End 'A' -->
<!-- Begin 'T' -->
<rect height="0.043101" width="50.000000" x="330.000000" y="109.730621" fill="rgb(0, 100, 0)" style="fill-opacity:1.00" />
<rect height="0.269379" width="10.000000" x="350.000000" y="109.730621" fill="rgb(0, 100, 0)" style="fill-opacity:1.00" />
<!-- End 'T' -->
<!-- Begin 'C' -->
<ellipse cx="415.000000" cy="103.081618" rx="25.000000" ry="1.642347" fill="rgb(0, 0, 128)" style="fill-opacity:1.00" />
<ellipse cx="415.000000" cy="103.081618" rx="16.666667" ry="1.094898" fill="rgb(255, 255, 255)" style="fill-opacity:1.00" />
<rect height="1.642347" width="25.000000" x="415.000000" y="102.260444" fill="rgb(255, 255, 255)" style="fill-opacity:1.00" />
<!-- End 'C' -->
<!-- Begin 'A' -->
<polygon points=" 390.000000, 107.295613, 411.000000, 104.723965, 419.000000, 104.723965, 440.000000, 107.295613, 432.500000, 107.295613, 426.250000, 106.652701, 403.750000, 106.652701, 397.500000, 107.295613" fill="rgb(178, 34, 34)" style="fill-opacity:1.00" />
<!-- End 'A' -->
<!-- Begin 'T' -->
<rect height="0.328032" width="50.000000" x="390.000000" y="107.295613" fill="rgb(0, 100, 0)" style="fill-opacity:1.00" />
<rect height="2.050198" width="10.000000" x="410.000000" y="107.295613" fill="rgb(0, 100, 0)" style="fill-opacity:1.00" />
<!-- End 'T' -->
<!-- Begin 'G' -->
<ellipse cx="415.000000" cy="109.672905" rx="25.000000" ry="0.327095" fill="rgb(255, 165, 0)" style="fill-opacity:1.00" />
<ellipse cx="415.000000" cy="109.672905" rx="16.666667" ry="0.218063" fill="rgb(255, 255, 255)" style="fill-opacity:1.00" />
<rect height="0.327095" width="25.000000" x="415.000000" y="109.509358" fill="rgb(255, 255, 255)" style="fill-opacity:1.00" />
<rect height="0.081774" width="25.000000" x="415.000000" y="109.754679" fill="rgb(255, 165, 0)" style="fill-opacity:1.00" />
<rect height="0.245321" width="6.250000" x="433.750000" y="109.754679" fill="rgb(255, 165, 0)" style="fill-opacity:1.00" />
<!-- End 'G' -->
<!-- Begin 'G' -->
<ellipse cx="475.000000" cy="101.355786" rx="25.000000" ry="2.316169" fill="rgb(255, 165, 0)" style="fill-opacity:1.00" />
<ellipse cx="475.000000" cy="101.355786" rx="16.666667" ry="1.544113" fill="rgb(255, 255, 255)" style="fill-opacity:1.00" />
<rect height="2.316169" width="25.000000" x="475.000000" y="100.197701" fill="rgb(255, 255, 255)" style="fill-opacity:1.00" />
<rect height="0.579042" width="25.000000" x="475.000000" y="101.934828" fill="rgb(255, 165, 0)" style="fill-opacity:1.00" />
<rect height="1.737127" width="6.250000" x="493.750000" y="101.934828" fill="rgb(255, 165, 0)" style="fill-opacity:1.00" />
<!-- End 'G' -->
<!-- Begin 'A' -->
<polygon points=" 450.000000, 107.022597, 471.000000, 103.671955, 479.000000, 103.671955, 500.000000, 107.022597, 492.500000, 107.022597, 486.250000, 106.184937, 463.750000, 106.184937, 457.500000, 107.022597" fill="rgb(178, 34, 34)" style="fill-opacity:1.00" />
<!-- End 'A' -->
<!-- Begin 'T' -->
<rect height="0.355235" width="50.000000" x="450.000000" y="107.022597" fill="rgb(0, 100, 0)" style="fill-opacity:1.00" />
<rect height="2.220217" width="10.000000" x="470.000000" y="107.022597" fill="rgb(0, 100, 0)" style="fill-opacity:1.00" />
<!-- End 'T' -->
<!-- Begin 'C' -->
<ellipse cx="475.000000" cy="109.621407" rx="25.000000" ry="0.378593" fill="rgb(0, 0, 128)" style="fill-opacity:1.00" />
<ellipse cx="475.000000" cy="109.621407" rx="16.666667" ry="0.252395" fill="rgb(255, 255, 255)" style="fill-opacity:1.00" />
<rect height="0.378593" width="25.000000" x="475.000000" y="109.432110" fill="rgb(255, 255, 255)" style="fill-opacity:1.00" />
<!-- End 'C' -->
<!-- Begin 'G' -->
<ellipse cx="535.000000" cy="105.485384" rx="25.000000" ry="1.110928" fill="rgb(255, 165, 0)" style="fill-opacity:1.00" />
<ellipse cx="535.000000" cy="105.485384" rx="16.666667" ry="0.740619" fill="rgb(255, 255, 255)" style="fill-opacity:1.00" />
<rect height="1.110928" width="25.000000" x="535.000000" y="104.929920" fill="rgb(255, 255, 255)" style="fill-opacity:1.00" />
<rect height="0.277732" width="25.000000" x="535.000000" y="105.763116" fill="rgb(255, 165, 0)" style="fill-opacity:1.00" />
<rect height="0.833196" width="6.250000" x="553.750000" y="105.763116" fill="rgb(255, 165, 0)" style="fill-opacity:1.00" />
<!-- End 'G' -->
<!-- Begin 'C' -->
<ellipse cx="535.000000" cy="107.398698" rx="25.000000" ry="0.802386" fill="rgb(0, 0, 128)" style="fill-opacity:1.00" />
<ellipse cx="535.000000" cy="107.398698" rx="16.666667" ry="0.534924" fill="rgb(255, 255, 255)" style="fill-opacity:1.00" />
<rect height="0.802386" width="25.000000" x="535.000000" y="106.997505" fill="rgb(255, 255, 255)" style="fill-opacity:1.00" />
<!-- End 'C' -->
<!-- Begin 'T' -->
<rect height="0.162439" width="50.000000" x="510.000000" y="108.201085" fill="rgb(0, 100, 0)" style="fill-opacity:1.00" />
<rect height="1.015242" width="10.000000" x="530.000000" y="108.201085" fill="rgb(0, 100, 0)" style="fill-opacity:1.00" />
<!-- End 'T' -->
<!-- Begin 'A' -->
<polygon points=" 510.000000, 110.000000, 531.000000, 109.216327, 539.000000, 109.216327, 560.000000, 110.000000, 552.500000, 110.000000, 546.250000, 109.804082, 523.750000, 109.804082, 517.500000, 110.000000" fill="rgb(178, 34, 34)" style="fill-opacity:1.00" />
<!-- End 'A' -->
<!-- Begin 'C' -->
<ellipse cx="595.000000" cy="82.259159" rx="25.000000" ry="16.426766" fill="rgb(0, 0, 128)" style="fill-opacity:1.00" />
<ellipse cx="595.000000" cy="82.259159" rx="16.666667" ry="10.951177" fill="rgb(255, 255, 255)" style="fill-opacity:1.00" />
<rect height="16.426766" width="25.000000" x="595.000000" y="74.045776" fill="rgb(255, 255, 255)" style="fill-opacity:1.00" />
<!-- End 'C' -->
<!-- Begin 'T' -->
<rect height="1.031874" width="50.000000" x="570.000000" y="98.685925" fill="rgb(0, 100, 0)" style="fill-opacity:1.00" />
<rect height="6.449210" width="10.000000" x="590.000000" y="98.685925" fill="rgb(0, 100, 0)" style="fill-opacity:1.00" />
<!-- End 'T' -->
<!-- Begin 'A' -->
<polygon points=" 570.000000, 109.624209, 591.000000, 105.135134, 599.000000, 105.135134, 620.000000, 109.624209, 612.500000, 109.624209, 606.250000, 108.501940, 583.750000, 108.501940, 577.500000, 109.624209" fill="rgb(178, 34, 34)" style="fill-opacity:1.00" />
<!-- End 'A' -->
<!-- Begin 'G' -->
<ellipse cx="595.000000" cy="109.812104" rx="25.000000" ry="0.187896" fill="rgb(255, 165, 0)" style="fill-opacity:1.00" />
<ellipse cx="595.000000" cy="109.812104" rx="16.666667" ry="0.125264" fill="rgb(255, 255, 255)" style="fill-opacity:1.00" />
<rect height="0.187896" width="25.000000" x="595.000000" y="109.718157" fill="rgb(255, 255, 255)" style="fill-opacity:1.00" />
<rect height="0.046974" width="25.000000" x="595.000000" y="109.859078" fill="rgb(255, 165, 0)" style="fill-opacity:1.00" />
<rect height="0.140922" width="6.250000" x="613.750000" y="109.859078" fill="rgb(255, 165, 0)" style="fill-opacity:1.00" />
<!-- End 'G' -->
<!-- Begin 'G' -->
<ellipse cx="655.000000" cy="89.912346" rx="25.000000" ry="9.179707" fill="rgb(255, 165, 0)" style="fill-opacity:1.00" />
<ellipse cx="655.000000" cy="89.912346" rx="16.666667" ry="6.119804" fill="rgb(255, 255, 255)" style="fill-opacity:1.00" />
<rect height="9.179707" width="25.000000" x="655.000000" y="85.322493" fill="rgb(255, 255, 255)" style="fill-opacity:1.00" />
<rect height="2.294927" width="25.000000" x="655.000000" y="92.207273" fill="rgb(255, 165, 0)" style="fill-opacity:1.00" />
<rect height="6.884780" width="6.250000" x="673.750000" y="92.207273" fill="rgb(255, 165, 0)" style="fill-opacity:1.00" />
<!-- End 'G' -->
<!-- Begin 'A' -->
<polygon points=" 630.000000, 105.626843, 651.000000, 99.092053, 659.000000, 99.092053, 680.000000, 105.626843, 672.500000, 105.626843, 666.250000, 103.993145, 643.750000, 103.993145, 637.500000, 105.626843" fill="rgb(178, 34, 34)" style="fill-opacity:1.00" />
<!-- End 'A' -->
<!-- Begin 'T' -->
<rect height="0.577480" width="50.000000" x="630.000000" y="105.626843" fill="rgb(0, 100, 0)" style="fill-opacity:1.00" />
<rect height="3.609251" width="10.000000" x="650.000000" y="105.626843" fill="rgb(0, 100, 0)" style="fill-opacity:1.00" />
<!-- End 'T' -->
<!-- Begin 'C' -->
<ellipse cx="655.000000" cy="109.618047" rx="25.000000" ry="0.381953" fill="rgb(0, 0, 128)" style="fill-opacity:1.00" />
<ellipse cx="655.000000" cy="109.618047" rx="16.666667" ry="0.254635" fill="rgb(255, 255, 255)" style="fill-opacity:1.00" />
<rect height="0.381953" width="25.000000" x="655.000000" y="109.427070" fill="rgb(255, 255, 255)" style="fill-opacity:1.00" />
<!-- End 'C' -->
<!-- Begin 'G' -->
<ellipse cx="715.000000" cy="96.892641" rx="25.000000" ry="3.770803" fill="rgb(255, 165, 0)" style="fill-opacity:1.00" />
<ellipse cx="715.000000" cy="96.892641" rx="16.666667" ry="2.513869" fill="rgb(255, 255, 255)" style="fill-opacity:1.00" />
<rect height="3.770803" width="25.000000" x="715.000000" y="95.007240" fill="rgb(255, 255, 255)" style="fill-opacity:1.00" />
<rect height="0.942701" width="25.000000" x="715.000000" y="97.835342" fill="rgb(255, 165, 0)" style="fill-opacity:1.00" />
<rect height="2.828102" width="6.250000" x="733.750000" y="97.835342" fill="rgb(255, 165, 0)" style="fill-opacity:1.00" />
<!-- End 'G' -->
<!-- Begin 'C' -->
<ellipse cx="715.000000" cy="103.862403" rx="25.000000" ry="3.198959" fill="rgb(0, 0, 128)" style="fill-opacity:1.00" />
<ellipse cx="715.000000" cy="103.862403" rx="16.666667" ry="2.132639" fill="rgb(255, 255, 255)" style="fill-opacity:1.00" />
<rect height="3.198959" width="25.000000" x="715.000000" y="102.262924" fill="rgb(255, 255, 255)" style="fill-opacity:1.00" />
<!-- End 'C' -->
<!-- Begin 'A' -->
<polygon points=" 690.000000, 108.629352, 711.000000, 107.061361, 719.000000, 107.061361, 740.000000, 108.629352, 732.500000, 108.629352, 726.250000, 108.237354, 703.750000, 108.237354, 697.500000, 108.629352" fill="rgb(178, 34, 34)" style="fill-opacity:1.00" />
<!-- End 'A' -->
<!-- Begin 'T' -->
<rect height="0.219304" width="50.000000" x="690.000000" y="108.629352" fill="rgb(0, 100, 0)" style="fill-opacity:1.00" />
<rect height="1.370648" width="10.000000" x="710.000000" y="108.629352" fill="rgb(0, 100, 0)" style="fill-opacity:1.00" />
<!-- End 'T' -->
<!-- Begin 'C' -->
<ellipse cx="775.000000" cy="90.394776" rx="25.000000" ry="7.755420" fill="rgb(0, 0, 128)" style="fill-opacity:1.00" />
<ellipse cx="775.000000" cy="90.394776" rx="16.666667" ry="5.170280" fill="rgb(255, 255, 255)" style="fill-opacity:1.00" />
<rect height="7.755420" width="25.000000" x="775.000000" y="86.517066" fill="rgb(255, 255, 255)" style="fill-opacity:1.00" />
<!-- End 'C' -->
<!-- Begin 'T' -->
<rect height="1.368807" width="50.000000" x="750.000000" y="98.150196" fill="rgb(0, 100, 0)" style="fill-opacity:1.00" />
<rect height="8.555043" width="10.000000" x="770.000000" y="98.150196" fill="rgb(0, 100, 0)" style="fill-opacity:1.00" />
<!-- End 'T' -->
<!-- Begin 'A' -->
<polygon points=" 750.000000, 109.198143, 771.000000, 106.705238, 779.000000, 106.705238, 800.000000, 109.198143, 792.500000, 109.198143, 786.250000, 108.574917, 763.750000, 108.574917, 757.500000, 109.198143" fill="rgb(178, 34, 34)" style="fill-opacity:1.00" />
<!-- End 'A' -->
<!-- Begin 'G' -->
<ellipse cx="775.000000" cy="109.599071" rx="25.000000" ry="0.400929" fill="rgb(255, 165, 0)" style="fill-opacity:1.00" />
<ellipse cx="775.000000" cy="109.599071" rx="16.666667" ry="0.267286" fill="rgb(255, 255, 255)" style="fill-opacity:1.00" />
<rect height="0.400929" width="25.000000" x="775.000000" y="109.398607" fill="rgb(255, 255, 255)" style="fill-opacity:1.00" />
<rect height="0.100232" width="25.000000" x="775.000000" y="109.699304" fill="rgb(255, 165, 0)" style="fill-opacity:1.00" />
<rect height="0.300696" width="6.250000" x="793.750000" y="109.699304" fill="rgb(255, 165, 0)" style="fill-opacity:1.00" />
<!-- End 'G' -->
<!-- Begin 'G' -->
<ellipse cx="835.000000" cy="82.809363" rx="25.000000" ry="15.980219" fill="rgb(255, 165, 0)" style="fill-opacity:1.00" />
<ellipse cx="835.000000" cy="82.809363" rx="16.666667" ry="10.653480" fill="rgb(255, 255, 255)" style="fill-opacity:1.00" />
<rect height="15.980219" width="25.000000" x="835.000000" y="74.819253" fill="rgb(255, 255, 255)" style="fill-opacity:1.00" />
<rect height="3.995055" width="25.000000" x="835.000000" y="86.804418" fill="rgb(255, 165, 0)" style="fill-opacity:1.00" />
<rect height="11.985165" width="6.250000" x="853.750000" y="86.804418" fill="rgb(255, 165, 0)" style="fill-opacity:1.00" />
<!-- End 'G' -->
<!-- Begin 'A' -->
<polygon points=" 810.000000, 104.685369, 831.000000, 98.789582, 839.000000, 98.789582, 860.000000, 104.685369, 852.500000, 104.685369, 846.250000, 103.211422, 823.750000, 103.211422, 817.500000, 104.685369" fill="rgb(178, 34, 34)" style="fill-opacity:1.00" />
<!-- End 'A' -->
<!-- Begin 'T' -->
<rect height="0.779058" width="50.000000" x="810.000000" y="104.685369" fill="rgb(0, 100, 0)" style="fill-opacity:1.00" />
<rect height="4.869111" width="10.000000" x="830.000000" y="104.685369" fill="rgb(0, 100, 0)" style="fill-opacity:1.00" />
<!-- End 'T' -->
<!-- Begin 'C' -->
<ellipse cx="835.000000" cy="109.777240" rx="25.000000" ry="0.222760" fill="rgb(0, 0, 128)" style="fill-opacity:1.00" />
<ellipse cx="835.000000" cy="109.777240" rx="16.666667" ry="0.148507" fill="rgb(255, 255, 255)" style="fill-opacity:1.00" />
<rect height="0.222760" width="25.000000" x="835.000000" y="109.665860" fill="rgb(255, 255, 255)" style="fill-opacity:1.00" />
<!-- End 'C' -->
<!-- Begin 'G' -->
<ellipse cx="895.000000" cy="104.618516" rx="25.000000" ry="1.221074" fill="rgb(255, 165, 0)" style="fill-opacity:1.00" />
<ellipse cx="895.000000" cy="104.618516" rx="16.666667" ry="0.814049" fill="rgb(255, 255, 255)" style="fill-opacity:1.00" />
<rect height="1.221074" width="25.000000" x="895.000000" y="104.007979" fill="rgb(255, 255, 255)" style="fill-opacity:1.00" />
<rect height="0.305268" width="25.000000" x="895.000000" y="104.923785" fill="rgb(255, 165, 0)" style="fill-opacity:1.00" />
<rect height="0.915805" width="6.250000" x="913.750000" y="104.923785" fill="rgb(255, 165, 0)" style="fill-opacity:1.00" />
<!-- End 'G' -->
<!-- Begin 'C' -->
<ellipse cx="895.000000" cy="106.945325" rx="25.000000" ry="1.105735" fill="rgb(0, 0, 128)" style="fill-opacity:1.00" />
<ellipse cx="895.000000" cy="106.945325" rx="16.666667" ry="0.737157" fill="rgb(255, 255, 255)" style="fill-opacity:1.00" />
<rect height="1.105735" width="25.000000" x="895.000000" y="106.392457" fill="rgb(255, 255, 255)" style="fill-opacity:1.00" />
<!-- End 'C' -->
<!-- Begin 'A' -->
<polygon points=" 870.000000, 109.190337, 891.000000, 108.051060, 899.000000, 108.051060, 920.000000, 109.190337, 912.500000, 109.190337, 906.250000, 108.905518, 883.750000, 108.905518, 877.500000, 109.190337" fill="rgb(178, 34, 34)" style="fill-opacity:1.00" />
<!-- End 'A' -->
<!-- Begin 'T' -->
<rect height="0.129546" width="50.000000" x="870.000000" y="109.190337" fill="rgb(0, 100, 0)" style="fill-opacity:1.00" />
<rect height="0.809663" width="10.000000" x="890.000000" y="109.190337" fill="rgb(0, 100, 0)" style="fill-opacity:1.00" />
<!-- End 'T' -->
<!-- Begin 'C' -->
<ellipse cx="955.000000" cy="105.234825" rx="25.000000" ry="1.107461" fill="rgb(0, 0, 128)" style="fill-opacity:1.00" />
<ellipse cx="955.000000" cy="105.234825" rx="16.666667" ry="0.738308" fill="rgb(255, 255, 255)" style="fill-opacity:1.00" />
<rect height="1.107461" width="25.000000" x="955.000000" y="104.681094" fill="rgb(255, 255, 255)" style="fill-opacity:1.00" />
<!-- End 'C' -->
<!-- Begin 'T' -->
<rect height="0.250972" width="50.000000" x="930.000000" y="106.342286" fill="rgb(0, 100, 0)" style="fill-opacity:1.00" />
<rect height="1.568573" width="10.000000" x="950.000000" y="106.342286" fill="rgb(0, 100, 0)" style="fill-opacity:1.00" />
<!-- End 'T' -->
<!-- Begin 'A' -->
<polygon points=" 930.000000, 109.376533, 951.000000, 107.910859, 959.000000, 107.910859, 980.000000, 109.376533, 972.500000, 109.376533, 966.250000, 109.010115, 943.750000, 109.010115, 937.500000, 109.376533" fill="rgb(178, 34, 34)" style="fill-opacity:1.00" />
<!-- End 'A' -->
<!-- Begin 'G' -->
<ellipse cx="955.000000" cy="109.688267" rx="25.000000" ry="0.311733" fill="rgb(255, 165, 0)" style="fill-opacity:1.00" />
<ellipse cx="955.000000" cy="109.688267" rx="16.666667" ry="0.207822" fill="rgb(255, 255, 255)" style="fill-opacity:1.00" />
<rect height="0.311733" width="25.000000" x="955.000000" y="109.532400" fill="rgb(255, 255, 255)" style="fill-opacity:1.00" />
<rect height="0.077933" width="25.000000" x="955.000000" y="109.766200" fill="rgb(255, 165, 0)" style="fill-opacity:1.00" />
<rect height="0.233800" width="6.250000" x="973.750000" y="109.766200" fill="rgb(255, 165, 0)" style="fill-opacity:1.00" />
<!-- End 'G' -->
<text x="520.000000" y="165">
IC = 4.31
</text>

</svg>
