<?xml version="1.0" encoding="UTF-8" standalone="yes"?>
                 <!DOCTYPE svg PUBLIC "-//W3C//DTD SVG 1.0//EN" "http://www.w3.org/TR/2001/REC-SVG-20010904/DTD/svg10.dtd">
                 <svg height="170" width="900" xmlns="http://www.w3.org/2000/svg" xmlns:xlink="http://www.w3.org/1999/xlink">
                 <line x1="85" y1="120" x2="867" y2="120" style="stroke:rgb(99,99,99);stroke-width:2" />
<rect height="7.000000" width="2.000000" x="85.000000" y="120.000000" fill="rgb(0, 0, 0)" style="fill-opacity:1.00" />
<text x="107.000000" y="140">
1
</text>
<rect height="7.000000" width="2.000000" x="145.000000" y="120.000000" fill="rgb(0, 0, 0)" style="fill-opacity:1.00" />
<text x="167.000000" y="140">
2
</text>
<rect height="7.000000" width="2.000000" x="205.000000" y="120.000000" fill="rgb(0, 0, 0)" style="fill-opacity:1.00" />
<text x="227.000000" y="140">
3
</text>
<rect height="7.000000" width="2.000000" x="265.000000" y="120.000000" fill="rgb(0, 0, 0)" style="fill-opacity:1.00" />
<text x="287.000000" y="140">
4
</text>
<rect height="7.000000" width="2.000000" x="325.000000" y="120.000000" fill="rgb(0, 0, 0)" style="fill-opacity:1.00" />
<text x="347.000000" y="140">
5
</text>
<rect height="7.000000" width="2.000000" x="385.000000" y="120.000000" fill="rgb(0, 0, 0)" style="fill-opacity:1.00" />
<text x="407.000000" y="140">
6
</text>
<rect height="7.000000" width="2.000000" x="445.000000" y="120.000000" fill="rgb(0, 0, 0)" style="fill-opacity:1.00" />
<text x="467.000000" y="140">
7
</text>
<rect height="7.000000" width="2.000000" x="505.000000" y="120.000000" fill="rgb(0, 0, 0)" style="fill-opacity:1.00" />
<text x="527.000000" y="140">
8
</text>
<rect height="7.000000" width="2.000000" x="565.000000" y="120.000000" fill="rgb(0, 0, 0)" style="fill-opacity:1.00" />
<text x="587.000000" y="140">
9
</text>
<rect height="7.000000" width="2.000000" x="625.000000" y="120.000000" fill="rgb(0, 0, 0)" style="fill-opacity:1.00" />
<text x="647.000000" y="140">
10
</text>
<rect height="7.000000" width="2.000000" x="685.000000" y="120.000000" fill="rgb(0, 0, 0)" style="fill-opacity:1.00" />
<text x="707.000000" y="140">
11
</text>
<rect height="7.000000" width="2.000000" x="745.000000" y="120.000000" fill="rgb(0, 0, 0)" style="fill-opacity:1.00" />
<text x="767.000000" y="140">
12
</text>
<rect height="7.000000" width="2.000000" x="805.000000" y="120.000000" fill="rgb(0, 0, 0)" style="fill-opacity:1.00" />
<text x="827.000000" y="140">
13
</text>
<rect height="7.000000" width="2.000000" x="865.000000" y="120.000000" fill="rgb(0, 0, 0)" style="fill-opacity:1.00" />
<line x1="80" y1="112" x2="80" y2="10" style="stroke:rgb(99,99,99);stroke-width:2" />
<rect height="2.000000" width="7.000000" x="73.000000" y="110.000000" fill="rgb(0, 0, 0)" style="fill-opacity:1.00" />
<text x="63" y="115">
0
</text>
<rect height="2.000000" width="7.000000" x="73.000000" y="60.000000" fill="rgb(0, 0, 0)" style="fill-opacity:1.00" />
<text x="63" y="65">
1
</text>
<rect height="2.000000" width="7.000000" x="73.000000" y="10.000000" fill="rgb(0, 0, 0)" style="fill-opacity:1.00" />
<text x="63" y="15">
2
</text>
<text x="50" y="65"
transform="rotate(-90, 50, 70)">
bits
</text>
<!-- Begin 'G' -->
<ellipse cx="115.000000" cy="108.821275" rx="25.000000" ry="0.220375" fill="rgb(255, 165, 0)" style="fill-opacity:1.00" />
<ellipse cx="115.000000" cy="108.821275" rx="16.666667" ry="0.146917" fill="rgb(255, 255, 255)" style="fill-opacity:1.00" />
<rect height="0.220375" width="25.000000" x="115.000000" y="108.711088" fill="rgb(255, 255, 255)" style="fill-opacity:1.00" />
<rect height="0.055094" width="25.000000" x="115.000000" y="108.876369" fill="rgb(255, 165, 0)" style="fill-opacity:1.00" />
<rect height="0.165281" width="6.250000" x="133.750000" y="108.876369" fill="rgb(255, 165, 0)" style="fill-opacity:1.00" />
<!-- End 'G' -->
<!-- Begin 'C' -->
<ellipse cx="115.000000" cy="109.236208" rx="25.000000" ry="0.194557" fill="rgb(0, 0, 128)" style="fill-opacity:1.00" />
<ellipse cx="115.000000" cy="109.236208" rx="16.666667" ry="0.129705" fill="rgb(255, 255, 255)" style="fill-opacity:1.00" />
<rect height="0.194557" width="25.000000" x="115.000000" y="109.138929" fill="rgb(255, 255, 255)" style="fill-opacity:1.00" />
<!-- End 'C' -->
<!-- Begin 'A' -->
<polygon points=" 90.000000, 109.733159, 111.000000, 109.430765, 119.000000, 109.430765, 140.000000, 109.733159, 132.500000, 109.733159, 126.250000, 109.657560, 103.750000, 109.657560, 97.500000, 109.733159" fill="rgb(178, 34, 34)" style="fill-opacity:1.00" />
<!-- End 'A' -->
<!-- Begin 'T' -->
<rect height="0.042695" width="50.000000" x="90.000000" y="109.733159" fill="rgb(0, 100, 0)" style="fill-opacity:1.00" />
<rect height="0.266841" width="10.000000" x="110.000000" y="109.733159" fill="rgb(0, 100, 0)" style="fill-opacity:1.00" />
<!-- End 'T' -->
<!-- Begin 'C' -->
<ellipse cx="175.000000" cy="109.213174" rx="25.000000" ry="0.142724" fill="rgb(0, 0, 128)" style="fill-opacity:1.00" />
<ellipse cx="175.000000" cy="109.213174" rx="16.666667" ry="0.095150" fill="rgb(255, 255, 255)" style="fill-opacity:1.00" />
<rect height="0.142724" width="25.000000" x="175.000000" y="109.141812" fill="rgb(255, 255, 255)" style="fill-opacity:1.00" />
<!-- End 'C' -->
<!-- Begin 'G' -->
<ellipse cx="175.000000" cy="109.480689" rx="25.000000" ry="0.124791" fill="rgb(255, 165, 0)" style="fill-opacity:1.00" />
<ellipse cx="175.000000" cy="109.480689" rx="16.666667" ry="0.083194" fill="rgb(255, 255, 255)" style="fill-opacity:1.00" />
<rect height="0.124791" width="25.000000" x="175.000000" y="109.418294" fill="rgb(255, 255, 255)" style="fill-opacity:1.00" />
<rect height="0.031198" width="25.000000" x="175.000000" y="109.511887" fill="rgb(255, 165, 0)" style="fill-opacity:1.00" />
<rect height="0.093593" width="6.250000" x="193.750000" y="109.511887" fill="rgb(255, 165, 0)" style="fill-opacity:1.00" />
<!-- End 'G' -->
<!-- Begin 'A' -->
<polygon points=" 150.000000, 109.807496, 171.000000, 109.605480, 179.000000, 109.605480, 200.000000, 109.807496, 192.500000, 109.807496, 186.250000, 109.756992, 163.750000, 109.756992, 157.500000, 109.807496" fill="rgb(178, 34, 34)" style="fill-opacity:1.00" />
<!-- End 'A' -->
<!-- Begin 'T' -->
<rect height="0.030801" width="50.000000" x="150.000000" y="109.807496" fill="rgb(0, 100, 0)" style="fill-opacity:1.00" />
<rect height="0.192504" width="10.000000" x="170.000000" y="109.807496" fill="rgb(0, 100, 0)" style="fill-opacity:1.00" />
<!-- End 'T' -->
<!-- Begin 'G' -->
<ellipse cx="235.000000" cy="107.892757" rx="25.000000" ry="0.411358" fill="rgb(255, 165, 0)" style="fill-opacity:1.00" />
<ellipse cx="235.000000" cy="107.892757" rx="16.666667" ry="0.274238" fill="rgb(255, 255, 255)" style="fill-opacity:1.00" />
<rect height="0.411358" width="25.000000" x="235.000000" y="107.687078" fill="rgb(255, 255, 255)" style="fill-opacity:1.00" />
<rect height="0.102839" width="25.000000" x="235.000000" y="107.995596" fill="rgb(255, 165, 0)" style="fill-opacity:1.00" />
<rect height="0.308518" width="6.250000" x="253.750000" y="107.995596" fill="rgb(255, 165, 0)" style="fill-opacity:1.00" />
<!-- End 'G' -->
<!-- Begin 'A' -->
<polygon points=" 210.000000, 109.067295, 231.000000, 108.304114, 239.000000, 108.304114, 260.000000, 109.067295, 252.500000, 109.067295, 246.250000, 108.876500, 223.750000, 108.876500, 217.500000, 109.067295" fill="rgb(178, 34, 34)" style="fill-opacity:1.00" />
<!-- End 'A' -->
<!-- Begin 'T' -->
<rect height="0.078309" width="50.000000" x="210.000000" y="109.067295" fill="rgb(0, 100, 0)" style="fill-opacity:1.00" />
<rect height="0.489429" width="10.000000" x="230.000000" y="109.067295" fill="rgb(0, 100, 0)" style="fill-opacity:1.00" />
<!-- End 'T' -->
<!-- Begin 'C' -->
<ellipse cx="235.000000" cy="109.778362" rx="25.000000" ry="0.221638" fill="rgb(0, 0, 128)" style="fill-opacity:1.00" />
<ellipse cx="235.000000" cy="109.778362" rx="16.666667" ry="0.147759" fill="rgb(255, 255, 255)" style="fill-opacity:1.00" />
<rect height="0.221638" width="25.000000" x="235.000000" y="109.667543" fill="rgb(255, 255, 255)" style="fill-opacity:1.00" />
<!-- End 'C' -->
<!-- Begin 'G' -->
<ellipse cx="295.000000" cy="98.449847" rx="25.000000" ry="3.779934" fill="rgb(255, 165, 0)" style="fill-opacity:1.00" />
<ellipse cx="295.000000" cy="98.449847" rx="16.666667" ry="2.519956" fill="rgb(255, 255, 255)" style="fill-opacity:1.00" />
<rect height="3.779934" width="25.000000" x="295.000000" y="96.559879" fill="rgb(255, 255, 255)" style="fill-opacity:1.00" />
<rect height="0.944984" width="25.000000" x="295.000000" y="99.394830" fill="rgb(255, 165, 0)" style="fill-opacity:1.00" />
<rect height="2.834951" width="6.250000" x="313.750000" y="99.394830" fill="rgb(255, 165, 0)" style="fill-opacity:1.00" />
<!-- End 'G' -->
<!-- Begin 'C' -->
<ellipse cx="295.000000" cy="104.117570" rx="25.000000" ry="1.887789" fill="rgb(0, 0, 128)" style="fill-opacity:1.00" />
<ellipse cx="295.000000" cy="104.117570" rx="16.666667" ry="1.258526" fill="rgb(255, 255, 255)" style="fill-opacity:1.00" />
<rect height="1.887789" width="25.000000" x="295.000000" y="103.173675" fill="rgb(255, 255, 255)" style="fill-opacity:1.00" />
<!-- End 'C' -->
<!-- Begin 'A' -->
<polygon points=" 270.000000, 109.209863, 291.000000, 106.005358, 299.000000, 106.005358, 320.000000, 109.209863, 312.500000, 109.209863, 306.250000, 108.408737, 283.750000, 108.408737, 277.500000, 109.209863" fill="rgb(178, 34, 34)" style="fill-opacity:1.00" />
<!-- End 'A' -->
<!-- Begin 'T' -->
<rect height="0.126422" width="50.000000" x="270.000000" y="109.209863" fill="rgb(0, 100, 0)" style="fill-opacity:1.00" />
<rect height="0.790137" width="10.000000" x="290.000000" y="109.209863" fill="rgb(0, 100, 0)" style="fill-opacity:1.00" />
<!-- End 'T' -->
<!-- Begin 'C' -->
<ellipse cx="355.000000" cy="63.410955" rx="25.000000" ry="44.555671" fill="rgb(0, 0, 128)" style="fill-opacity:1.00" />
<ellipse cx="355.000000" cy="63.410955" rx="16.666667" ry="29.703781" fill="rgb(255, 255, 255)" style="fill-opacity:1.00" />
<rect height="44.555671" width="25.000000" x="355.000000" y="41.133120" fill="rgb(255, 255, 255)" style="fill-opacity:1.00" />
<!-- End 'C' -->
<!-- Begin 'G' -->
<ellipse cx="355.000000" cy="108.734324" rx="25.000000" ry="0.767698" fill="rgb(255, 165, 0)" style="fill-opacity:1.00" />
<ellipse cx="355.000000" cy="108.734324" rx="16.666667" ry="0.511799" fill="rgb(255, 255, 255)" style="fill-opacity:1.00" />
<rect height="0.767698" width="25.000000" x="355.000000" y="108.350475" fill="rgb(255, 255, 255)" style="fill-opacity:1.00" />
<rect height="0.191925" width="25.000000" x="355.000000" y="108.926249" fill="rgb(255, 165, 0)" style="fill-opacity:1.00" />
<rect height="0.575774" width="6.250000" x="373.750000" y="108.926249" fill="rgb(255, 165, 0)" style="fill-opacity:1.00" />
<!-- End 'G' -->
<!-- Begin 'A' -->
<polygon points=" 330.000000, 109.838030, 351.000000, 109.502023, 359.000000, 109.502023, 380.000000, 109.838030, 372.500000, 109.838030, 366.250000, 109.754028, 343.750000, 109.754028, 337.500000, 109.838030" fill="rgb(178, 34, 34)" style="fill-opacity:1.00" />
<!-- End 'A' -->
<!-- Begin 'T' -->
<rect height="0.025915" width="50.000000" x="330.000000" y="109.838030" fill="rgb(0, 100, 0)" style="fill-opacity:1.00" />
<rect height="0.161970" width="10.000000" x="350.000000" y="109.838030" fill="rgb(0, 100, 0)" style="fill-opacity:1.00" />
<!-- End 'T' -->
<!-- Begin 'A' -->
<polygon points=" 390.000000, 105.410077, 411.000000, 29.901311, 419.000000, 29.901311, 440.000000, 105.410077, 432.500000, 105.410077, 426.250000, 86.532886, 403.750000, 86.532886, 397.500000, 105.410077" fill="rgb(178, 34, 34)" style="fill-opacity:1.00" />
<polygon points=" 415.000000, 45.003065, 407.000000, 74.206571, 422.000000, 74.206571" fill="rgb(255, 255, 255)" style="fill-opacity:1.00" />
<!-- End 'A' -->
<!-- Begin 'T' -->
<rect height="0.407558" width="50.000000" x="390.000000" y="105.410077" fill="rgb(0, 100, 0)" style="fill-opacity:1.00" />
<rect height="2.547236" width="10.000000" x="410.000000" y="105.410077" fill="rgb(0, 100, 0)" style="fill-opacity:1.00" />
<!-- End 'T' -->
<!-- Begin 'G' -->
<ellipse cx="415.000000" cy="108.581992" rx="25.000000" ry="0.624679" fill="rgb(255, 165, 0)" style="fill-opacity:1.00" />
<ellipse cx="415.000000" cy="108.581992" rx="16.666667" ry="0.416453" fill="rgb(255, 255, 255)" style="fill-opacity:1.00" />
<rect height="0.624679" width="25.000000" x="415.000000" y="108.269652" fill="rgb(255, 255, 255)" style="fill-opacity:1.00" />
<rect height="0.156170" width="25.000000" x="415.000000" y="108.738162" fill="rgb(255, 165, 0)" style="fill-opacity:1.00" />
<rect height="0.468509" width="6.250000" x="433.750000" y="108.738162" fill="rgb(255, 165, 0)" style="fill-opacity:1.00" />
<!-- End 'G' -->
<!-- Begin 'C' -->
<ellipse cx="415.000000" cy="109.603336" rx="25.000000" ry="0.396664" fill="rgb(0, 0, 128)" style="fill-opacity:1.00" />
<ellipse cx="415.000000" cy="109.603336" rx="16.666667" ry="0.264443" fill="rgb(255, 255, 255)" style="fill-opacity:1.00" />
<rect height="0.396664" width="25.000000" x="415.000000" y="109.405004" fill="rgb(255, 255, 255)" style="fill-opacity:1.00" />
<!-- End 'C' -->
<!-- Begin 'G' -->
<ellipse cx="475.000000" cy="78.292605" rx="25.000000" ry="17.357286" fill="rgb(255, 165, 0)" style="fill-opacity:1.00" />
<ellipse cx="475.000000" cy="78.292605" rx="16.666667" ry="11.571524" fill="rgb(255, 255, 255)" style="fill-opacity:1.00" />
<rect height="17.357286" width="25.000000" x="475.000000" y="69.613962" fill="rgb(255, 255, 255)" style="fill-opacity:1.00" />
<rect height="4.339321" width="25.000000" x="475.000000" y="82.631926" fill="rgb(255, 165, 0)" style="fill-opacity:1.00" />
<rect height="13.017964" width="6.250000" x="493.750000" y="82.631926" fill="rgb(255, 165, 0)" style="fill-opacity:1.00" />
<!-- End 'G' -->
<!-- Begin 'C' -->
<ellipse cx="475.000000" cy="102.052078" rx="25.000000" ry="6.402187" fill="rgb(0, 0, 128)" style="fill-opacity:1.00" />
<ellipse cx="475.000000" cy="102.052078" rx="16.666667" ry="4.268125" fill="rgb(255, 255, 255)" style="fill-opacity:1.00" />
<rect height="6.402187" width="25.000000" x="475.000000" y="98.850984" fill="rgb(255, 255, 255)" style="fill-opacity:1.00" />
<!-- End 'C' -->
<!-- Begin 'T' -->
<rect height="0.244749" width="50.000000" x="450.000000" y="108.454265" fill="rgb(0, 100, 0)" style="fill-opacity:1.00" />
<rect height="1.529679" width="10.000000" x="470.000000" y="108.454265" fill="rgb(0, 100, 0)" style="fill-opacity:1.00" />
<!-- End 'T' -->
<!-- Begin 'A' -->
<polygon points=" 450.000000, 110.000000, 471.000000, 109.983944, 479.000000, 109.983944, 500.000000, 110.000000, 492.500000, 110.000000, 486.250000, 109.995986, 463.750000, 109.995986, 457.500000, 110.000000" fill="rgb(178, 34, 34)" style="fill-opacity:1.00" />
<!-- End 'A' -->
<!-- Begin 'C' -->
<ellipse cx="535.000000" cy="79.211094" rx="25.000000" ry="16.262298" fill="rgb(0, 0, 128)" style="fill-opacity:1.00" />
<ellipse cx="535.000000" cy="79.211094" rx="16.666667" ry="10.841532" fill="rgb(255, 255, 255)" style="fill-opacity:1.00" />
<rect height="16.262298" width="25.000000" x="535.000000" y="71.079945" fill="rgb(255, 255, 255)" style="fill-opacity:1.00" />
<!-- End 'C' -->
<!-- Begin 'G' -->
<ellipse cx="535.000000" cy="101.858941" rx="25.000000" ry="6.385549" fill="rgb(255, 165, 0)" style="fill-opacity:1.00" />
<ellipse cx="535.000000" cy="101.858941" rx="16.666667" ry="4.257033" fill="rgb(255, 255, 255)" style="fill-opacity:1.00" />
<rect height="6.385549" width="25.000000" x="535.000000" y="98.666166" fill="rgb(255, 255, 255)" style="fill-opacity:1.00" />
<rect height="1.596387" width="25.000000" x="535.000000" y="103.455328" fill="rgb(255, 165, 0)" style="fill-opacity:1.00" />
<rect height="4.789162" width="6.250000" x="553.750000" y="103.455328" fill="rgb(255, 165, 0)" style="fill-opacity:1.00" />
<!-- End 'G' -->
<!-- Begin 'A' -->
<polygon points=" 510.000000, 109.982009, 531.000000, 108.244490, 539.000000, 108.244490, 560.000000, 109.982009, 552.500000, 109.982009, 546.250000, 109.547629, 523.750000, 109.547629, 517.500000, 109.982009" fill="rgb(178, 34, 34)" style="fill-opacity:1.00" />
<!-- End 'A' -->
<!-- Begin 'T' -->
<rect height="0.002879" width="50.000000" x="510.000000" y="109.982009" fill="rgb(0, 100, 0)" style="fill-opacity:1.00" />
<rect height="0.017991" width="10.000000" x="530.000000" y="109.982009" fill="rgb(0, 100, 0)" style="fill-opacity:1.00" />
<!-- End 'T' -->
<!-- Begin 'T' -->
<rect height="12.466821" width="50.000000" x="570.000000" y="28.009099" fill="rgb(0, 100, 0)" style="fill-opacity:1.00" />
<rect height="77.917632" width="10.000000" x="590.000000" y="28.009099" fill="rgb(0, 100, 0)" style="fill-opacity:1.00" />
<!-- End 'T' -->
<!-- Begin 'A' -->
<polygon points=" 570.000000, 107.800581, 591.000000, 105.926731, 599.000000, 105.926731, 620.000000, 107.800581, 612.500000, 107.800581, 606.250000, 107.332118, 583.750000, 107.332118, 577.500000, 107.800581" fill="rgb(178, 34, 34)" style="fill-opacity:1.00" />
<!-- End 'A' -->
<!-- Begin 'C' -->
<ellipse cx="595.000000" cy="108.482518" rx="25.000000" ry="0.681938" fill="rgb(0, 0, 128)" style="fill-opacity:1.00" />
<ellipse cx="595.000000" cy="108.482518" rx="16.666667" ry="0.454625" fill="rgb(255, 255, 255)" style="fill-opacity:1.00" />
<rect height="0.681938" width="25.000000" x="595.000000" y="108.141550" fill="rgb(255, 255, 255)" style="fill-opacity:1.00" />
<!-- End 'C' -->
<!-- Begin 'G' -->
<ellipse cx="595.000000" cy="109.582228" rx="25.000000" ry="0.417772" fill="rgb(255, 165, 0)" style="fill-opacity:1.00" />
<ellipse cx="595.000000" cy="109.582228" rx="16.666667" ry="0.278515" fill="rgb(255, 255, 255)" style="fill-opacity:1.00" />
<rect height="0.417772" width="25.000000" x="595.000000" y="109.373342" fill="rgb(255, 255, 255)" style="fill-opacity:1.00" />
<rect height="0.104443" width="25.000000" x="595.000000" y="109.686671" fill="rgb(255, 165, 0)" style="fill-opacity:1.00" />
<rect height="0.313329" width="6.250000" x="613.750000" y="109.686671" fill="rgb(255, 165, 0)" style="fill-opacity:1.00" />
<!-- End 'G' -->
<!-- Begin 'G' -->
<ellipse cx="655.000000" cy="61.935938" rx="25.000000" ry="47.087011" fill="rgb(255, 165, 0)" style="fill-opacity:1.00" />
<ellipse cx="655.000000" cy="61.935938" rx="16.666667" ry="31.391341" fill="rgb(255, 255, 255)" style="fill-opacity:1.00" />
<rect height="47.087011" width="25.000000" x="655.000000" y="38.392433" fill="rgb(255, 255, 255)" style="fill-opacity:1.00" />
<rect height="11.771753" width="25.000000" x="655.000000" y="73.707691" fill="rgb(255, 165, 0)" style="fill-opacity:1.00" />
<rect height="35.315259" width="6.250000" x="673.750000" y="73.707691" fill="rgb(255, 165, 0)" style="fill-opacity:1.00" />
<!-- End 'G' -->
<!-- Begin 'C' -->
<ellipse cx="655.000000" cy="109.302343" rx="25.000000" ry="0.279393" fill="rgb(0, 0, 128)" style="fill-opacity:1.00" />
<ellipse cx="655.000000" cy="109.302343" rx="16.666667" ry="0.186262" fill="rgb(255, 255, 255)" style="fill-opacity:1.00" />
<rect height="0.279393" width="25.000000" x="655.000000" y="109.162646" fill="rgb(255, 255, 255)" style="fill-opacity:1.00" />
<!-- End 'C' -->
<!-- Begin 'T' -->
<rect height="0.039365" width="50.000000" x="630.000000" y="109.581736" fill="rgb(0, 100, 0)" style="fill-opacity:1.00" />
<rect height="0.246029" width="10.000000" x="650.000000" y="109.581736" fill="rgb(0, 100, 0)" style="fill-opacity:1.00" />
<!-- End 'T' -->
<!-- Begin 'A' -->
<polygon points=" 630.000000, 110.000000, 651.000000, 109.827766, 659.000000, 109.827766, 680.000000, 110.000000, 672.500000, 110.000000, 666.250000, 109.956941, 643.750000, 109.956941, 637.500000, 110.000000" fill="rgb(178, 34, 34)" style="fill-opacity:1.00" />
<!-- End 'A' -->
<!-- Begin 'C' -->
<ellipse cx="715.000000" cy="99.231822" rx="25.000000" ry="3.392543" fill="rgb(0, 0, 128)" style="fill-opacity:1.00" />
<ellipse cx="715.000000" cy="99.231822" rx="16.666667" ry="2.261695" fill="rgb(255, 255, 255)" style="fill-opacity:1.00" />
<rect height="3.392543" width="25.000000" x="715.000000" y="97.535550" fill="rgb(255, 255, 255)" style="fill-opacity:1.00" />
<!-- End 'C' -->
<!-- Begin 'G' -->
<ellipse cx="715.000000" cy="104.394147" rx="25.000000" ry="1.769782" fill="rgb(255, 165, 0)" style="fill-opacity:1.00" />
<ellipse cx="715.000000" cy="104.394147" rx="16.666667" ry="1.179855" fill="rgb(255, 255, 255)" style="fill-opacity:1.00" />
<rect height="1.769782" width="25.000000" x="715.000000" y="103.509256" fill="rgb(255, 255, 255)" style="fill-opacity:1.00" />
<rect height="0.442446" width="25.000000" x="715.000000" y="104.836593" fill="rgb(255, 165, 0)" style="fill-opacity:1.00" />
<rect height="1.327337" width="6.250000" x="733.750000" y="104.836593" fill="rgb(255, 165, 0)" style="fill-opacity:1.00" />
<!-- End 'G' -->
<!-- Begin 'T' -->
<rect height="0.488468" width="50.000000" x="690.000000" y="106.163930" fill="rgb(0, 100, 0)" style="fill-opacity:1.00" />
<rect height="3.052923" width="10.000000" x="710.000000" y="106.163930" fill="rgb(0, 100, 0)" style="fill-opacity:1.00" />
<!-- End 'T' -->
<!-- Begin 'A' -->
<polygon points=" 690.000000, 110.000000, 711.000000, 109.216853, 719.000000, 109.216853, 740.000000, 110.000000, 732.500000, 110.000000, 726.250000, 109.804213, 703.750000, 109.804213, 697.500000, 110.000000" fill="rgb(178, 34, 34)" style="fill-opacity:1.00" />
<!-- End 'A' -->
<!-- Begin 'C' -->
<ellipse cx="775.000000" cy="108.018659" rx="25.000000" ry="0.391636" fill="rgb(0, 0, 128)" style="fill-opacity:1.00" />
<ellipse cx="775.000000" cy="108.018659" rx="16.666667" ry="0.261090" fill="rgb(255, 255, 255)" style="fill-opacity:1.00" />
<rect height="0.391636" width="25.000000" x="775.000000" y="107.822842" fill="rgb(255, 255, 255)" style="fill-opacity:1.00" />
<!-- End 'C' -->
<!-- Begin 'T' -->
<rect height="0.112188" width="50.000000" x="750.000000" y="108.410295" fill="rgb(0, 100, 0)" style="fill-opacity:1.00" />
<rect height="0.701176" width="10.000000" x="770.000000" y="108.410295" fill="rgb(0, 100, 0)" style="fill-opacity:1.00" />
<!-- End 'T' -->
<!-- Begin 'A' -->
<polygon points=" 750.000000, 109.564133, 771.000000, 109.111471, 779.000000, 109.111471, 800.000000, 109.564133, 792.500000, 109.564133, 786.250000, 109.450967, 763.750000, 109.450967, 757.500000, 109.564133" fill="rgb(178, 34, 34)" style="fill-opacity:1.00" />
<!-- End 'A' -->
<!-- Begin 'G' -->
<ellipse cx="775.000000" cy="109.782066" rx="25.000000" ry="0.217934" fill="rgb(255, 165, 0)" style="fill-opacity:1.00" />
<ellipse cx="775.000000" cy="109.782066" rx="16.666667" ry="0.145289" fill="rgb(255, 255, 255)" style="fill-opacity:1.00" />
<rect height="0.217934" width="25.000000" x="775.000000" y="109.673100" fill="rgb(255, 255, 255)" style="fill-opacity:1.00" />
<rect height="0.054483" width="25.000000" x="775.000000" y="109.836550" fill="rgb(255, 165, 0)" style="fill-opacity:1.00" />
<rect height="0.163450" width="6.250000" x="793.750000" y="109.836550" fill="rgb(255, 165, 0)" style="fill-opacity:1.00" />
<!-- End 'G' -->
<!-- Begin 'G' -->
<ellipse cx="835.000000" cy="109.295303" rx="25.000000" ry="0.124945" fill="rgb(255, 165, 0)" style="fill-opacity:1.00" />
<ellipse cx="835.000000" cy="109.295303" rx="16.666667" ry="0.083297" fill="rgb(255, 255, 255)" style="fill-opacity:1.00" />
<rect height="0.124945" width="25.000000" x="835.000000" y="109.232831" fill="rgb(255, 255, 255)" style="fill-opacity:1.00" />
<rect height="0.031236" width="25.000000" x="835.000000" y="109.326540" fill="rgb(255, 165, 0)" style="fill-opacity:1.00" />
<rect height="0.093709" width="6.250000" x="853.750000" y="109.326540" fill="rgb(255, 165, 0)" style="fill-opacity:1.00" />
<!-- End 'G' -->
<!-- Begin 'C' -->
<ellipse cx="835.000000" cy="109.532858" rx="25.000000" ry="0.112610" fill="rgb(0, 0, 128)" style="fill-opacity:1.00" />
<ellipse cx="835.000000" cy="109.532858" rx="16.666667" ry="0.075073" fill="rgb(255, 255, 255)" style="fill-opacity:1.00" />
<rect height="0.112610" width="25.000000" x="835.000000" y="109.476553" fill="rgb(255, 255, 255)" style="fill-opacity:1.00" />
<!-- End 'C' -->
<!-- Begin 'T' -->
<rect height="0.029062" width="50.000000" x="810.000000" y="109.645468" fill="rgb(0, 100, 0)" style="fill-opacity:1.00" />
<rect height="0.181638" width="10.000000" x="830.000000" y="109.645468" fill="rgb(0, 100, 0)" style="fill-opacity:1.00" />
<!-- End 'T' -->
<!-- Begin 'A' -->
<polygon points=" 810.000000, 110.000000, 831.000000, 109.827106, 839.000000, 109.827106, 860.000000, 110.000000, 852.500000, 110.000000, 846.250000, 109.956776, 823.750000, 109.956776, 817.500000, 110.000000" fill="rgb(178, 34, 34)" style="fill-opacity:1.00" />
<!-- End 'A' -->
<text x="460.000000" y="165">
IC = 9.64
</text>

</svg>
