<?xml version="1.0" encoding="UTF-8" standalone="yes"?>
                 <!DOCTYPE svg PUBLIC "-//W3C//DTD SVG 1.0//EN" "http://www.w3.org/TR/2001/REC-SVG-20010904/DTD/svg10.dtd">
                 <svg height="170" width="720" xmlns="http://www.w3.org/2000/svg" xmlns:xlink="http://www.w3.org/1999/xlink">
                 <line x1="85" y1="120" x2="687" y2="120" style="stroke:rgb(99,99,99);stroke-width:2" />
<rect height="7.000000" width="2.000000" x="85.000000" y="120.000000" fill="rgb(0, 0, 0)" style="fill-opacity:1.00" />
<text x="107.000000" y="140">
1
</text>
<rect height="7.000000" width="2.000000" x="145.000000" y="120.000000" fill="rgb(0, 0, 0)" style="fill-opacity:1.00" />
<text x="167.000000" y="140">
2
</text>
<rect height="7.000000" width="2.000000" x="205.000000" y="120.000000" fill="rgb(0, 0, 0)" style="fill-opacity:1.00" />
<text x="227.000000" y="140">
3
</text>
<rect height="7.000000" width="2.000000" x="265.000000" y="120.000000" fill="rgb(0, 0, 0)" style="fill-opacity:1.00" />
<text x="287.000000" y="140">
4
</text>
<rect height="7.000000" width="2.000000" x="325.000000" y="120.000000" fill="rgb(0, 0, 0)" style="fill-opacity:1.00" />
<text x="347.000000" y="140">
5
</text>
<rect height="7.000000" width="2.000000" x="385.000000" y="120.000000" fill="rgb(0, 0, 0)" style="fill-opacity:1.00" />
<text x="407.000000" y="140">
6
</text>
<rect height="7.000000" width="2.000000" x="445.000000" y="120.000000" fill="rgb(0, 0, 0)" style="fill-opacity:1.00" />
<text x="467.000000" y="140">
7
</text>
<rect height="7.000000" width="2.000000" x="505.000000" y="120.000000" fill="rgb(0, 0, 0)" style="fill-opacity:1.00" />
<text x="527.000000" y="140">
8
</text>
<rect height="7.000000" width="2.000000" x="565.000000" y="120.000000" fill="rgb(0, 0, 0)" style="fill-opacity:1.00" />
<text x="587.000000" y="140">
9
</text>
<rect height="7.000000" width="2.000000" x="625.000000" y="120.000000" fill="rgb(0, 0, 0)" style="fill-opacity:1.00" />
<text x="647.000000" y="140">
10
</text>
<rect height="7.000000" width="2.000000" x="685.000000" y="120.000000" fill="rgb(0, 0, 0)" style="fill-opacity:1.00" />
<line x1="80" y1="112" x2="80" y2="10" style="stroke:rgb(99,99,99);stroke-width:2" />
<rect height="2.000000" width="7.000000" x="73.000000" y="110.000000" fill="rgb(0, 0, 0)" style="fill-opacity:1.00" />
<text x="63" y="115">
0
</text>
<rect height="2.000000" width="7.000000" x="73.000000" y="60.000000" fill="rgb(0, 0, 0)" style="fill-opacity:1.00" />
<text x="63" y="65">
1
</text>
<rect height="2.000000" width="7.000000" x="73.000000" y="10.000000" fill="rgb(0, 0, 0)" style="fill-opacity:1.00" />
<text x="63" y="15">
2
</text>
<text x="50" y="65"
transform="rotate(-90, 50, 70)">
bits
</text>
<!-- Begin 'A' -->
<polygon points=" 90.000000, 99.215740, 111.000000, 61.085812, 119.000000, 61.085812, 140.000000, 99.215740, 132.500000, 99.215740, 126.250000, 89.683258, 103.750000, 89.683258, 97.500000, 99.215740" fill="rgb(178, 34, 34)" style="fill-opacity:1.00" />
<polygon points=" 115.000000, 68.711798, 107.000000, 82.963769, 122.000000, 82.963769" fill="rgb(255, 255, 255)" style="fill-opacity:1.00" />
<!-- End 'A' -->
<!-- Begin 'T' -->
<rect height="1.120656" width="50.000000" x="90.000000" y="99.215740" fill="rgb(0, 100, 0)" style="fill-opacity:1.00" />
<rect height="7.004099" width="10.000000" x="110.000000" y="99.215740" fill="rgb(0, 100, 0)" style="fill-opacity:1.00" />
<!-- End 'T' -->
<!-- Begin 'G' -->
<ellipse cx="115.000000" cy="107.745688" rx="25.000000" ry="1.525849" fill="rgb(255, 165, 0)" style="fill-opacity:1.00" />
<ellipse cx="115.000000" cy="107.745688" rx="16.666667" ry="1.017232" fill="rgb(255, 255, 255)" style="fill-opacity:1.00" />
<rect height="1.525849" width="25.000000" x="115.000000" y="106.982763" fill="rgb(255, 255, 255)" style="fill-opacity:1.00" />
<rect height="0.381462" width="25.000000" x="115.000000" y="108.127150" fill="rgb(255, 165, 0)" style="fill-opacity:1.00" />
<rect height="1.144386" width="6.250000" x="133.750000" y="108.127150" fill="rgb(255, 165, 0)" style="fill-opacity:1.00" />
<!-- End 'G' -->
<!-- Begin 'C' -->
<ellipse cx="115.000000" cy="109.635768" rx="25.000000" ry="0.364232" fill="rgb(0, 0, 128)" style="fill-opacity:1.00" />
<ellipse cx="115.000000" cy="109.635768" rx="16.666667" ry="0.242821" fill="rgb(255, 255, 255)" style="fill-opacity:1.00" />
<rect height="0.364232" width="25.000000" x="115.000000" y="109.453652" fill="rgb(255, 255, 255)" style="fill-opacity:1.00" />
<!-- End 'C' -->
<!-- Begin 'G' -->
<ellipse cx="175.000000" cy="85.915728" rx="25.000000" ry="7.412596" fill="rgb(255, 165, 0)" style="fill-opacity:1.00" />
<ellipse cx="175.000000" cy="85.915728" rx="16.666667" ry="4.941730" fill="rgb(255, 255, 255)" style="fill-opacity:1.00" />
<rect height="7.412596" width="25.000000" x="175.000000" y="82.209431" fill="rgb(255, 255, 255)" style="fill-opacity:1.00" />
<rect height="1.853149" width="25.000000" x="175.000000" y="87.768877" fill="rgb(255, 165, 0)" style="fill-opacity:1.00" />
<rect height="5.559447" width="6.250000" x="193.750000" y="87.768877" fill="rgb(255, 165, 0)" style="fill-opacity:1.00" />
<!-- End 'G' -->
<!-- Begin 'A' -->
<polygon points=" 150.000000, 107.622760, 171.000000, 93.328324, 179.000000, 93.328324, 200.000000, 107.622760, 192.500000, 107.622760, 186.250000, 104.049151, 163.750000, 104.049151, 157.500000, 107.622760" fill="rgb(178, 34, 34)" style="fill-opacity:1.00" />
<polygon points=" 175.000000, 96.187211, 167.000000, 100.904985, 182.000000, 100.904985" fill="rgb(255, 255, 255)" style="fill-opacity:1.00" />
<!-- End 'A' -->
<!-- Begin 'T' -->
<rect height="0.289913" width="50.000000" x="150.000000" y="107.622760" fill="rgb(0, 100, 0)" style="fill-opacity:1.00" />
<rect height="1.811956" width="10.000000" x="170.000000" y="107.622760" fill="rgb(0, 100, 0)" style="fill-opacity:1.00" />
<!-- End 'T' -->
<!-- Begin 'C' -->
<ellipse cx="175.000000" cy="109.717358" rx="25.000000" ry="0.282642" fill="rgb(0, 0, 128)" style="fill-opacity:1.00" />
<ellipse cx="175.000000" cy="109.717358" rx="16.666667" ry="0.188428" fill="rgb(255, 255, 255)" style="fill-opacity:1.00" />
<rect height="0.282642" width="25.000000" x="175.000000" y="109.576037" fill="rgb(255, 255, 255)" style="fill-opacity:1.00" />
<!-- End 'C' -->
<!-- Begin 'A' -->
<polygon points=" 210.000000, 108.461068, 231.000000, 17.080362, 239.000000, 17.080362, 260.000000, 108.461068, 252.500000, 108.461068, 246.250000, 85.615892, 223.750000, 85.615892, 217.500000, 108.461068" fill="rgb(178, 34, 34)" style="fill-opacity:1.00" />
<polygon points=" 235.000000, 35.356503, 227.000000, 70.908786, 242.000000, 70.908786" fill="rgb(255, 255, 255)" style="fill-opacity:1.00" />
<!-- End 'A' -->
<!-- Begin 'T' -->
<rect height="0.147832" width="50.000000" x="210.000000" y="108.461068" fill="rgb(0, 100, 0)" style="fill-opacity:1.00" />
<rect height="0.923949" width="10.000000" x="230.000000" y="108.461068" fill="rgb(0, 100, 0)" style="fill-opacity:1.00" />
<!-- End 'T' -->
<!-- Begin 'C' -->
<ellipse cx="235.000000" cy="109.649669" rx="25.000000" ry="0.264652" fill="rgb(0, 0, 128)" style="fill-opacity:1.00" />
<ellipse cx="235.000000" cy="109.649669" rx="16.666667" ry="0.176434" fill="rgb(255, 255, 255)" style="fill-opacity:1.00" />
<rect height="0.264652" width="25.000000" x="235.000000" y="109.517344" fill="rgb(255, 255, 255)" style="fill-opacity:1.00" />
<!-- End 'C' -->
<!-- Begin 'G' -->
<ellipse cx="235.000000" cy="109.957160" rx="25.000000" ry="0.042840" fill="rgb(255, 165, 0)" style="fill-opacity:1.00" />
<ellipse cx="235.000000" cy="109.957160" rx="16.666667" ry="0.028560" fill="rgb(255, 255, 255)" style="fill-opacity:1.00" />
<rect height="0.042840" width="25.000000" x="235.000000" y="109.935741" fill="rgb(255, 255, 255)" style="fill-opacity:1.00" />
<rect height="0.010710" width="25.000000" x="235.000000" y="109.967870" fill="rgb(255, 165, 0)" style="fill-opacity:1.00" />
<rect height="0.032130" width="6.250000" x="253.750000" y="109.967870" fill="rgb(255, 165, 0)" style="fill-opacity:1.00" />
<!-- End 'G' -->
<!-- Begin 'T' -->
<rect height="15.055839" width="50.000000" x="270.000000" y="14.845040" fill="rgb(0, 100, 0)" style="fill-opacity:1.00" />
<rect height="94.098992" width="10.000000" x="290.000000" y="14.845040" fill="rgb(0, 100, 0)" style="fill-opacity:1.00" />
<!-- End 'T' -->
<!-- Begin 'G' -->
<ellipse cx="295.000000" cy="109.371999" rx="25.000000" ry="0.427967" fill="rgb(255, 165, 0)" style="fill-opacity:1.00" />
<ellipse cx="295.000000" cy="109.371999" rx="16.666667" ry="0.285312" fill="rgb(255, 255, 255)" style="fill-opacity:1.00" />
<rect height="0.427967" width="25.000000" x="295.000000" y="109.158015" fill="rgb(255, 255, 255)" style="fill-opacity:1.00" />
<rect height="0.106992" width="25.000000" x="295.000000" y="109.478991" fill="rgb(255, 165, 0)" style="fill-opacity:1.00" />
<rect height="0.320976" width="6.250000" x="313.750000" y="109.478991" fill="rgb(255, 165, 0)" style="fill-opacity:1.00" />
<!-- End 'G' -->
<!-- Begin 'A' -->
<polygon points=" 270.000000, 109.974871, 291.000000, 109.799966, 299.000000, 109.799966, 320.000000, 109.974871, 312.500000, 109.974871, 306.250000, 109.931145, 283.750000, 109.931145, 277.500000, 109.974871" fill="rgb(178, 34, 34)" style="fill-opacity:1.00" />
<!-- End 'A' -->
<!-- Begin 'C' -->
<ellipse cx="295.000000" cy="109.987436" rx="25.000000" ry="0.012564" fill="rgb(0, 0, 128)" style="fill-opacity:1.00" />
<ellipse cx="295.000000" cy="109.987436" rx="16.666667" ry="0.008376" fill="rgb(255, 255, 255)" style="fill-opacity:1.00" />
<rect height="0.012564" width="25.000000" x="295.000000" y="109.981154" fill="rgb(255, 255, 255)" style="fill-opacity:1.00" />
<!-- End 'C' -->
<!-- Begin 'A' -->
<polygon points=" 330.000000, 105.005432, 351.000000, 29.948491, 359.000000, 29.948491, 380.000000, 105.005432, 372.500000, 105.005432, 366.250000, 86.241196, 343.750000, 86.241196, 337.500000, 105.005432" fill="rgb(178, 34, 34)" style="fill-opacity:1.00" />
<polygon points=" 355.000000, 44.959879, 347.000000, 73.982655, 362.000000, 73.982655" fill="rgb(255, 255, 255)" style="fill-opacity:1.00" />
<!-- End 'A' -->
<!-- Begin 'T' -->
<rect height="0.524526" width="50.000000" x="330.000000" y="105.005432" fill="rgb(0, 100, 0)" style="fill-opacity:1.00" />
<rect height="3.278287" width="10.000000" x="350.000000" y="105.005432" fill="rgb(0, 100, 0)" style="fill-opacity:1.00" />
<!-- End 'T' -->
<!-- Begin 'C' -->
<ellipse cx="355.000000" cy="109.115962" rx="25.000000" ry="0.832244" fill="rgb(0, 0, 128)" style="fill-opacity:1.00" />
<ellipse cx="355.000000" cy="109.115962" rx="16.666667" ry="0.554829" fill="rgb(255, 255, 255)" style="fill-opacity:1.00" />
<rect height="0.832244" width="25.000000" x="355.000000" y="108.699841" fill="rgb(255, 255, 255)" style="fill-opacity:1.00" />
<!-- End 'C' -->
<!-- Begin 'G' -->
<ellipse cx="355.000000" cy="109.974103" rx="25.000000" ry="0.025897" fill="rgb(255, 165, 0)" style="fill-opacity:1.00" />
<ellipse cx="355.000000" cy="109.974103" rx="16.666667" ry="0.017265" fill="rgb(255, 255, 255)" style="fill-opacity:1.00" />
<rect height="0.025897" width="25.000000" x="355.000000" y="109.961155" fill="rgb(255, 255, 255)" style="fill-opacity:1.00" />
<rect height="0.006474" width="25.000000" x="355.000000" y="109.980577" fill="rgb(255, 165, 0)" style="fill-opacity:1.00" />
<rect height="0.019423" width="6.250000" x="373.750000" y="109.980577" fill="rgb(255, 165, 0)" style="fill-opacity:1.00" />
<!-- End 'G' -->
<!-- Begin 'T' -->
<rect height="14.693782" width="50.000000" x="390.000000" y="16.770415" fill="rgb(0, 100, 0)" style="fill-opacity:1.00" />
<rect height="91.836138" width="10.000000" x="410.000000" y="16.770415" fill="rgb(0, 100, 0)" style="fill-opacity:1.00" />
<!-- End 'T' -->
<!-- Begin 'C' -->
<ellipse cx="415.000000" cy="108.871192" rx="25.000000" ry="0.264640" fill="rgb(0, 0, 128)" style="fill-opacity:1.00" />
<ellipse cx="415.000000" cy="108.871192" rx="16.666667" ry="0.176426" fill="rgb(255, 255, 255)" style="fill-opacity:1.00" />
<rect height="0.264640" width="25.000000" x="415.000000" y="108.738873" fill="rgb(255, 255, 255)" style="fill-opacity:1.00" />
<!-- End 'C' -->
<!-- Begin 'A' -->
<polygon points=" 390.000000, 109.645279, 411.000000, 109.135832, 419.000000, 109.135832, 440.000000, 109.645279, 432.500000, 109.645279, 426.250000, 109.517917, 403.750000, 109.517917, 397.500000, 109.645279" fill="rgb(178, 34, 34)" style="fill-opacity:1.00" />
<!-- End 'A' -->
<!-- Begin 'G' -->
<ellipse cx="415.000000" cy="109.822640" rx="25.000000" ry="0.177360" fill="rgb(255, 165, 0)" style="fill-opacity:1.00" />
<ellipse cx="415.000000" cy="109.822640" rx="16.666667" ry="0.118240" fill="rgb(255, 255, 255)" style="fill-opacity:1.00" />
<rect height="0.177360" width="25.000000" x="415.000000" y="109.733959" fill="rgb(255, 255, 255)" style="fill-opacity:1.00" />
<rect height="0.044340" width="25.000000" x="415.000000" y="109.866980" fill="rgb(255, 165, 0)" style="fill-opacity:1.00" />
<rect height="0.133020" width="6.250000" x="433.750000" y="109.866980" fill="rgb(255, 165, 0)" style="fill-opacity:1.00" />
<!-- End 'G' -->
<!-- Begin 'T' -->
<rect height="3.387330" width="50.000000" x="450.000000" y="71.003809" fill="rgb(0, 100, 0)" style="fill-opacity:1.00" />
<rect height="21.170810" width="10.000000" x="470.000000" y="71.003809" fill="rgb(0, 100, 0)" style="fill-opacity:1.00" />
<!-- End 'T' -->
<!-- Begin 'C' -->
<ellipse cx="475.000000" cy="100.336372" rx="25.000000" ry="8.161753" fill="rgb(0, 0, 128)" style="fill-opacity:1.00" />
<ellipse cx="475.000000" cy="100.336372" rx="16.666667" ry="5.441169" fill="rgb(255, 255, 255)" style="fill-opacity:1.00" />
<rect height="8.161753" width="25.000000" x="475.000000" y="96.255496" fill="rgb(255, 255, 255)" style="fill-opacity:1.00" />
<!-- End 'C' -->
<!-- Begin 'A' -->
<polygon points=" 450.000000, 109.521212, 471.000000, 108.498126, 479.000000, 108.498126, 500.000000, 109.521212, 492.500000, 109.521212, 486.250000, 109.265441, 463.750000, 109.265441, 457.500000, 109.521212" fill="rgb(178, 34, 34)" style="fill-opacity:1.00" />
<!-- End 'A' -->
<!-- Begin 'G' -->
<ellipse cx="475.000000" cy="109.760606" rx="25.000000" ry="0.239394" fill="rgb(255, 165, 0)" style="fill-opacity:1.00" />
<ellipse cx="475.000000" cy="109.760606" rx="16.666667" ry="0.159596" fill="rgb(255, 255, 255)" style="fill-opacity:1.00" />
<rect height="0.239394" width="25.000000" x="475.000000" y="109.640909" fill="rgb(255, 255, 255)" style="fill-opacity:1.00" />
<rect height="0.059848" width="25.000000" x="475.000000" y="109.820455" fill="rgb(255, 165, 0)" style="fill-opacity:1.00" />
<rect height="0.179545" width="6.250000" x="493.750000" y="109.820455" fill="rgb(255, 165, 0)" style="fill-opacity:1.00" />
<!-- End 'G' -->
<!-- Begin 'T' -->
<rect height="6.698182" width="50.000000" x="510.000000" y="57.800309" fill="rgb(0, 100, 0)" style="fill-opacity:1.00" />
<rect height="41.863640" width="10.000000" x="530.000000" y="57.800309" fill="rgb(0, 100, 0)" style="fill-opacity:1.00" />
<!-- End 'T' -->
<!-- Begin 'A' -->
<polygon points=" 510.000000, 106.386873, 531.000000, 99.663949, 539.000000, 99.663949, 560.000000, 106.386873, 552.500000, 106.386873, 546.250000, 104.706142, 523.750000, 104.706142, 517.500000, 106.386873" fill="rgb(178, 34, 34)" style="fill-opacity:1.00" />
<!-- End 'A' -->
<!-- Begin 'C' -->
<ellipse cx="535.000000" cy="107.787586" rx="25.000000" ry="1.400713" fill="rgb(0, 0, 128)" style="fill-opacity:1.00" />
<ellipse cx="535.000000" cy="107.787586" rx="16.666667" ry="0.933808" fill="rgb(255, 255, 255)" style="fill-opacity:1.00" />
<rect height="1.400713" width="25.000000" x="535.000000" y="107.087230" fill="rgb(255, 255, 255)" style="fill-opacity:1.00" />
<!-- End 'C' -->
<!-- Begin 'G' -->
<ellipse cx="535.000000" cy="109.594149" rx="25.000000" ry="0.405851" fill="rgb(255, 165, 0)" style="fill-opacity:1.00" />
<ellipse cx="535.000000" cy="109.594149" rx="16.666667" ry="0.270567" fill="rgb(255, 255, 255)" style="fill-opacity:1.00" />
<rect height="0.405851" width="25.000000" x="535.000000" y="109.391224" fill="rgb(255, 255, 255)" style="fill-opacity:1.00" />
<rect height="0.101463" width="25.000000" x="535.000000" y="109.695612" fill="rgb(255, 165, 0)" style="fill-opacity:1.00" />
<rect height="0.304388" width="6.250000" x="553.750000" y="109.695612" fill="rgb(255, 165, 0)" style="fill-opacity:1.00" />
<!-- End 'G' -->
<!-- Begin 'T' -->
<rect height="1.418940" width="50.000000" x="570.000000" y="92.766760" fill="rgb(0, 100, 0)" style="fill-opacity:1.00" />
<rect height="8.868376" width="10.000000" x="590.000000" y="92.766760" fill="rgb(0, 100, 0)" style="fill-opacity:1.00" />
<!-- End 'T' -->
<!-- Begin 'A' -->
<polygon points=" 570.000000, 106.753276, 591.000000, 101.635136, 599.000000, 101.635136, 620.000000, 106.753276, 612.500000, 106.753276, 606.250000, 105.473741, 583.750000, 105.473741, 577.500000, 106.753276" fill="rgb(178, 34, 34)" style="fill-opacity:1.00" />
<!-- End 'A' -->
<!-- Begin 'C' -->
<ellipse cx="595.000000" cy="107.593228" rx="25.000000" ry="0.839952" fill="rgb(0, 0, 128)" style="fill-opacity:1.00" />
<ellipse cx="595.000000" cy="107.593228" rx="16.666667" ry="0.559968" fill="rgb(255, 255, 255)" style="fill-opacity:1.00" />
<rect height="0.839952" width="25.000000" x="595.000000" y="107.173252" fill="rgb(255, 255, 255)" style="fill-opacity:1.00" />
<!-- End 'C' -->
<!-- Begin 'G' -->
<ellipse cx="595.000000" cy="109.216590" rx="25.000000" ry="0.783410" fill="rgb(255, 165, 0)" style="fill-opacity:1.00" />
<ellipse cx="595.000000" cy="109.216590" rx="16.666667" ry="0.522273" fill="rgb(255, 255, 255)" style="fill-opacity:1.00" />
<rect height="0.783410" width="25.000000" x="595.000000" y="108.824885" fill="rgb(255, 255, 255)" style="fill-opacity:1.00" />
<rect height="0.195852" width="25.000000" x="595.000000" y="109.412443" fill="rgb(255, 165, 0)" style="fill-opacity:1.00" />
<rect height="0.587557" width="6.250000" x="613.750000" y="109.412443" fill="rgb(255, 165, 0)" style="fill-opacity:1.00" />
<!-- End 'G' -->
<!-- Begin 'T' -->
<rect height="0.475348" width="50.000000" x="630.000000" y="102.684916" fill="rgb(0, 100, 0)" style="fill-opacity:1.00" />
<rect height="2.970925" width="10.000000" x="650.000000" y="102.684916" fill="rgb(0, 100, 0)" style="fill-opacity:1.00" />
<!-- End 'T' -->
<!-- Begin 'A' -->
<polygon points=" 630.000000, 107.893388, 651.000000, 105.655840, 659.000000, 105.655840, 680.000000, 107.893388, 672.500000, 107.893388, 666.250000, 107.334001, 643.750000, 107.334001, 637.500000, 107.893388" fill="rgb(178, 34, 34)" style="fill-opacity:1.00" />
<!-- End 'A' -->
<!-- Begin 'C' -->
<ellipse cx="655.000000" cy="108.474006" rx="25.000000" ry="0.580618" fill="rgb(0, 0, 128)" style="fill-opacity:1.00" />
<ellipse cx="655.000000" cy="108.474006" rx="16.666667" ry="0.387079" fill="rgb(255, 255, 255)" style="fill-opacity:1.00" />
<rect height="0.580618" width="25.000000" x="655.000000" y="108.183697" fill="rgb(255, 255, 255)" style="fill-opacity:1.00" />
<!-- End 'C' -->
<!-- Begin 'G' -->
<ellipse cx="655.000000" cy="109.527312" rx="25.000000" ry="0.472688" fill="rgb(255, 165, 0)" style="fill-opacity:1.00" />
<ellipse cx="655.000000" cy="109.527312" rx="16.666667" ry="0.315125" fill="rgb(255, 255, 255)" style="fill-opacity:1.00" />
<rect height="0.472688" width="25.000000" x="655.000000" y="109.290968" fill="rgb(255, 255, 255)" style="fill-opacity:1.00" />
<rect height="0.118172" width="25.000000" x="655.000000" y="109.645484" fill="rgb(255, 165, 0)" style="fill-opacity:1.00" />
<rect height="0.354516" width="6.250000" x="673.750000" y="109.645484" fill="rgb(255, 165, 0)" style="fill-opacity:1.00" />
<!-- End 'G' -->
<text x="370.000000" y="165">
IC = 11.15
</text>

</svg>
