<?xml version="1.0" encoding="UTF-8" standalone="yes"?>
                 <!DOCTYPE svg PUBLIC "-//W3C//DTD SVG 1.0//EN" "http://www.w3.org/TR/2001/REC-SVG-20010904/DTD/svg10.dtd">
                 <svg height="170" width="1020" xmlns="http://www.w3.org/2000/svg" xmlns:xlink="http://www.w3.org/1999/xlink">
                 <line x1="85" y1="120" x2="987" y2="120" style="stroke:rgb(99,99,99);stroke-width:2" />
<rect height="7.000000" width="2.000000" x="85.000000" y="120.000000" fill="rgb(0, 0, 0)" style="fill-opacity:1.00" />
<text x="107.000000" y="140">
1
</text>
<rect height="7.000000" width="2.000000" x="145.000000" y="120.000000" fill="rgb(0, 0, 0)" style="fill-opacity:1.00" />
<text x="167.000000" y="140">
2
</text>
<rect height="7.000000" width="2.000000" x="205.000000" y="120.000000" fill="rgb(0, 0, 0)" style="fill-opacity:1.00" />
<text x="227.000000" y="140">
3
</text>
<rect height="7.000000" width="2.000000" x="265.000000" y="120.000000" fill="rgb(0, 0, 0)" style="fill-opacity:1.00" />
<text x="287.000000" y="140">
4
</text>
<rect height="7.000000" width="2.000000" x="325.000000" y="120.000000" fill="rgb(0, 0, 0)" style="fill-opacity:1.00" />
<text x="347.000000" y="140">
5
</text>
<rect height="7.000000" width="2.000000" x="385.000000" y="120.000000" fill="rgb(0, 0, 0)" style="fill-opacity:1.00" />
<text x="407.000000" y="140">
6
</text>
<rect height="7.000000" width="2.000000" x="445.000000" y="120.000000" fill="rgb(0, 0, 0)" style="fill-opacity:1.00" />
<text x="467.000000" y="140">
7
</text>
<rect height="7.000000" width="2.000000" x="505.000000" y="120.000000" fill="rgb(0, 0, 0)" style="fill-opacity:1.00" />
<text x="527.000000" y="140">
8
</text>
<rect height="7.000000" width="2.000000" x="565.000000" y="120.000000" fill="rgb(0, 0, 0)" style="fill-opacity:1.00" />
<text x="587.000000" y="140">
9
</text>
<rect height="7.000000" width="2.000000" x="625.000000" y="120.000000" fill="rgb(0, 0, 0)" style="fill-opacity:1.00" />
<text x="647.000000" y="140">
10
</text>
<rect height="7.000000" width="2.000000" x="685.000000" y="120.000000" fill="rgb(0, 0, 0)" style="fill-opacity:1.00" />
<text x="707.000000" y="140">
11
</text>
<rect height="7.000000" width="2.000000" x="745.000000" y="120.000000" fill="rgb(0, 0, 0)" style="fill-opacity:1.00" />
<text x="767.000000" y="140">
12
</text>
<rect height="7.000000" width="2.000000" x="805.000000" y="120.000000" fill="rgb(0, 0, 0)" style="fill-opacity:1.00" />
<text x="827.000000" y="140">
13
</text>
<rect height="7.000000" width="2.000000" x="865.000000" y="120.000000" fill="rgb(0, 0, 0)" style="fill-opacity:1.00" />
<text x="887.000000" y="140">
14
</text>
<rect height="7.000000" width="2.000000" x="925.000000" y="120.000000" fill="rgb(0, 0, 0)" style="fill-opacity:1.00" />
<text x="947.000000" y="140">
15
</text>
<rect height="7.000000" width="2.000000" x="985.000000" y="120.000000" fill="rgb(0, 0, 0)" style="fill-opacity:1.00" />
<line x1="80" y1="112" x2="80" y2="10" style="stroke:rgb(99,99,99);stroke-width:2" />
<rect height="2.000000" width="7.000000" x="73.000000" y="110.000000" fill="rgb(0, 0, 0)" style="fill-opacity:1.00" />
<text x="63" y="115">
0
</text>
<rect height="2.000000" width="7.000000" x="73.000000" y="60.000000" fill="rgb(0, 0, 0)" style="fill-opacity:1.00" />
<text x="63" y="65">
1
</text>
<rect height="2.000000" width="7.000000" x="73.000000" y="10.000000" fill="rgb(0, 0, 0)" style="fill-opacity:1.00" />
<text x="63" y="15">
2
</text>
<text x="50" y="65"
transform="rotate(-90, 50, 70)">
bits
</text>
<!-- Begin 'A' -->
<polygon points=" 90.000000, 107.418122, 111.000000, 106.064512, 119.000000, 106.064512, 140.000000, 107.418122, 132.500000, 107.418122, 126.250000, 107.079719, 103.750000, 107.079719, 97.500000, 107.418122" fill="rgb(178, 34, 34)" style="fill-opacity:1.00" />
<!-- End 'A' -->
<!-- Begin 'T' -->
<rect height="0.192158" width="50.000000" x="90.000000" y="107.418122" fill="rgb(0, 100, 0)" style="fill-opacity:1.00" />
<rect height="1.200987" width="10.000000" x="110.000000" y="107.418122" fill="rgb(0, 100, 0)" style="fill-opacity:1.00" />
<!-- End 'T' -->
<!-- Begin 'G' -->
<ellipse cx="115.000000" cy="109.038862" rx="25.000000" ry="0.419754" fill="rgb(255, 165, 0)" style="fill-opacity:1.00" />
<ellipse cx="115.000000" cy="109.038862" rx="16.666667" ry="0.279836" fill="rgb(255, 255, 255)" style="fill-opacity:1.00" />
<rect height="0.419754" width="25.000000" x="115.000000" y="108.828985" fill="rgb(255, 255, 255)" style="fill-opacity:1.00" />
<rect height="0.104938" width="25.000000" x="115.000000" y="109.143801" fill="rgb(255, 165, 0)" style="fill-opacity:1.00" />
<rect height="0.314815" width="6.250000" x="133.750000" y="109.143801" fill="rgb(255, 165, 0)" style="fill-opacity:1.00" />
<!-- End 'G' -->
<!-- Begin 'C' -->
<ellipse cx="115.000000" cy="109.729308" rx="25.000000" ry="0.270692" fill="rgb(0, 0, 128)" style="fill-opacity:1.00" />
<ellipse cx="115.000000" cy="109.729308" rx="16.666667" ry="0.180461" fill="rgb(255, 255, 255)" style="fill-opacity:1.00" />
<rect height="0.270692" width="25.000000" x="115.000000" y="109.593962" fill="rgb(255, 255, 255)" style="fill-opacity:1.00" />
<!-- End 'C' -->
<!-- Begin 'A' -->
<polygon points=" 150.000000, 108.030518, 171.000000, 107.063973, 179.000000, 107.063973, 200.000000, 108.030518, 192.500000, 108.030518, 186.250000, 107.788881, 163.750000, 107.788881, 157.500000, 108.030518" fill="rgb(178, 34, 34)" style="fill-opacity:1.00" />
<!-- End 'A' -->
<!-- Begin 'T' -->
<rect height="0.144918" width="50.000000" x="150.000000" y="108.030518" fill="rgb(0, 100, 0)" style="fill-opacity:1.00" />
<rect height="0.905737" width="10.000000" x="170.000000" y="108.030518" fill="rgb(0, 100, 0)" style="fill-opacity:1.00" />
<!-- End 'T' -->
<!-- Begin 'G' -->
<ellipse cx="175.000000" cy="109.229778" rx="25.000000" ry="0.293524" fill="rgb(255, 165, 0)" style="fill-opacity:1.00" />
<ellipse cx="175.000000" cy="109.229778" rx="16.666667" ry="0.195682" fill="rgb(255, 255, 255)" style="fill-opacity:1.00" />
<rect height="0.293524" width="25.000000" x="175.000000" y="109.083016" fill="rgb(255, 255, 255)" style="fill-opacity:1.00" />
<rect height="0.073381" width="25.000000" x="175.000000" y="109.303159" fill="rgb(255, 165, 0)" style="fill-opacity:1.00" />
<rect height="0.220143" width="6.250000" x="193.750000" y="109.303159" fill="rgb(255, 165, 0)" style="fill-opacity:1.00" />
<!-- End 'G' -->
<!-- Begin 'C' -->
<ellipse cx="175.000000" cy="109.761651" rx="25.000000" ry="0.238349" fill="rgb(0, 0, 128)" style="fill-opacity:1.00" />
<ellipse cx="175.000000" cy="109.761651" rx="16.666667" ry="0.158900" fill="rgb(255, 255, 255)" style="fill-opacity:1.00" />
<rect height="0.238349" width="25.000000" x="175.000000" y="109.642476" fill="rgb(255, 255, 255)" style="fill-opacity:1.00" />
<!-- End 'C' -->
<!-- Begin 'T' -->
<rect height="0.168476" width="50.000000" x="210.000000" y="106.998406" fill="rgb(0, 100, 0)" style="fill-opacity:1.00" />
<rect height="1.052977" width="10.000000" x="230.000000" y="106.998406" fill="rgb(0, 100, 0)" style="fill-opacity:1.00" />
<!-- End 'T' -->
<!-- Begin 'A' -->
<polygon points=" 210.000000, 108.910381, 231.000000, 108.051383, 239.000000, 108.051383, 260.000000, 108.910381, 252.500000, 108.910381, 246.250000, 108.695631, 223.750000, 108.695631, 217.500000, 108.910381" fill="rgb(178, 34, 34)" style="fill-opacity:1.00" />
<!-- End 'A' -->
<!-- Begin 'C' -->
<ellipse cx="235.000000" cy="109.194082" rx="25.000000" ry="0.283702" fill="rgb(0, 0, 128)" style="fill-opacity:1.00" />
<ellipse cx="235.000000" cy="109.194082" rx="16.666667" ry="0.189134" fill="rgb(255, 255, 255)" style="fill-opacity:1.00" />
<rect height="0.283702" width="25.000000" x="235.000000" y="109.052231" fill="rgb(255, 255, 255)" style="fill-opacity:1.00" />
<!-- End 'C' -->
<!-- Begin 'G' -->
<ellipse cx="235.000000" cy="109.738892" rx="25.000000" ry="0.261108" fill="rgb(255, 165, 0)" style="fill-opacity:1.00" />
<ellipse cx="235.000000" cy="109.738892" rx="16.666667" ry="0.174072" fill="rgb(255, 255, 255)" style="fill-opacity:1.00" />
<rect height="0.261108" width="25.000000" x="235.000000" y="109.608338" fill="rgb(255, 255, 255)" style="fill-opacity:1.00" />
<rect height="0.065277" width="25.000000" x="235.000000" y="109.804169" fill="rgb(255, 165, 0)" style="fill-opacity:1.00" />
<rect height="0.195831" width="6.250000" x="253.750000" y="109.804169" fill="rgb(255, 165, 0)" style="fill-opacity:1.00" />
<!-- End 'G' -->
<!-- Begin 'T' -->
<rect height="0.295024" width="50.000000" x="270.000000" y="105.038647" fill="rgb(0, 100, 0)" style="fill-opacity:1.00" />
<rect height="1.843902" width="10.000000" x="290.000000" y="105.038647" fill="rgb(0, 100, 0)" style="fill-opacity:1.00" />
<!-- End 'T' -->
<!-- Begin 'G' -->
<ellipse cx="295.000000" cy="107.634627" rx="25.000000" ry="0.752078" fill="rgb(255, 165, 0)" style="fill-opacity:1.00" />
<ellipse cx="295.000000" cy="107.634627" rx="16.666667" ry="0.501385" fill="rgb(255, 255, 255)" style="fill-opacity:1.00" />
<rect height="0.752078" width="25.000000" x="295.000000" y="107.258588" fill="rgb(255, 255, 255)" style="fill-opacity:1.00" />
<rect height="0.188019" width="25.000000" x="295.000000" y="107.822646" fill="rgb(255, 165, 0)" style="fill-opacity:1.00" />
<rect height="0.564058" width="6.250000" x="313.750000" y="107.822646" fill="rgb(255, 165, 0)" style="fill-opacity:1.00" />
<!-- End 'G' -->
<!-- Begin 'A' -->
<polygon points=" 270.000000, 109.300150, 291.000000, 108.386704, 299.000000, 108.386704, 320.000000, 109.300150, 312.500000, 109.300150, 306.250000, 109.071789, 283.750000, 109.071789, 277.500000, 109.300150" fill="rgb(178, 34, 34)" style="fill-opacity:1.00" />
<!-- End 'A' -->
<!-- Begin 'C' -->
<ellipse cx="295.000000" cy="109.650075" rx="25.000000" ry="0.349925" fill="rgb(0, 0, 128)" style="fill-opacity:1.00" />
<ellipse cx="295.000000" cy="109.650075" rx="16.666667" ry="0.233283" fill="rgb(255, 255, 255)" style="fill-opacity:1.00" />
<rect height="0.349925" width="25.000000" x="295.000000" y="109.475113" fill="rgb(255, 255, 255)" style="fill-opacity:1.00" />
<!-- End 'C' -->
<!-- Begin 'G' -->
<ellipse cx="355.000000" cy="100.025595" rx="25.000000" ry="3.596510" fill="rgb(255, 165, 0)" style="fill-opacity:1.00" />
<ellipse cx="355.000000" cy="100.025595" rx="16.666667" ry="2.397673" fill="rgb(255, 255, 255)" style="fill-opacity:1.00" />
<rect height="3.596510" width="25.000000" x="355.000000" y="98.227340" fill="rgb(255, 255, 255)" style="fill-opacity:1.00" />
<rect height="0.899128" width="25.000000" x="355.000000" y="100.924723" fill="rgb(255, 165, 0)" style="fill-opacity:1.00" />
<rect height="2.697383" width="6.250000" x="373.750000" y="100.924723" fill="rgb(255, 165, 0)" style="fill-opacity:1.00" />
<!-- End 'G' -->
<!-- Begin 'T' -->
<rect height="0.401253" width="50.000000" x="330.000000" y="103.622105" fill="rgb(0, 100, 0)" style="fill-opacity:1.00" />
<rect height="2.507831" width="10.000000" x="350.000000" y="103.622105" fill="rgb(0, 100, 0)" style="fill-opacity:1.00" />
<!-- End 'T' -->
<!-- Begin 'A' -->
<polygon points=" 330.000000, 108.453972, 351.000000, 106.129937, 359.000000, 106.129937, 380.000000, 108.453972, 372.500000, 108.453972, 366.250000, 107.872963, 343.750000, 107.872963, 337.500000, 108.453972" fill="rgb(178, 34, 34)" style="fill-opacity:1.00" />
<!-- End 'A' -->
<!-- Begin 'C' -->
<ellipse cx="355.000000" cy="109.226986" rx="25.000000" ry="0.773014" fill="rgb(0, 0, 128)" style="fill-opacity:1.00" />
<ellipse cx="355.000000" cy="109.226986" rx="16.666667" ry="0.515343" fill="rgb(255, 255, 255)" style="fill-opacity:1.00" />
<rect height="0.773014" width="25.000000" x="355.000000" y="108.840479" fill="rgb(255, 255, 255)" style="fill-opacity:1.00" />
<!-- End 'C' -->
<!-- Begin 'C' -->
<ellipse cx="415.000000" cy="94.742591" rx="25.000000" ry="3.740242" fill="rgb(0, 0, 128)" style="fill-opacity:1.00" />
<ellipse cx="415.000000" cy="94.742591" rx="16.666667" ry="2.493494" fill="rgb(255, 255, 255)" style="fill-opacity:1.00" />
<rect height="3.740242" width="25.000000" x="415.000000" y="92.872470" fill="rgb(255, 255, 255)" style="fill-opacity:1.00" />
<!-- End 'C' -->
<!-- Begin 'A' -->
<polygon points=" 390.000000, 105.673466, 411.000000, 98.482832, 419.000000, 98.482832, 440.000000, 105.673466, 432.500000, 105.673466, 426.250000, 103.875808, 403.750000, 103.875808, 397.500000, 105.673466" fill="rgb(178, 34, 34)" style="fill-opacity:1.00" />
<!-- End 'A' -->
<!-- Begin 'T' -->
<rect height="0.651184" width="50.000000" x="390.000000" y="105.673466" fill="rgb(0, 100, 0)" style="fill-opacity:1.00" />
<rect height="4.069898" width="10.000000" x="410.000000" y="105.673466" fill="rgb(0, 100, 0)" style="fill-opacity:1.00" />
<!-- End 'T' -->
<!-- Begin 'G' -->
<ellipse cx="415.000000" cy="109.871682" rx="25.000000" ry="0.128318" fill="rgb(255, 165, 0)" style="fill-opacity:1.00" />
<ellipse cx="415.000000" cy="109.871682" rx="16.666667" ry="0.085545" fill="rgb(255, 255, 255)" style="fill-opacity:1.00" />
<rect height="0.128318" width="25.000000" x="415.000000" y="109.807523" fill="rgb(255, 255, 255)" style="fill-opacity:1.00" />
<rect height="0.032079" width="25.000000" x="415.000000" y="109.903762" fill="rgb(255, 165, 0)" style="fill-opacity:1.00" />
<rect height="0.096238" width="6.250000" x="433.750000" y="109.903762" fill="rgb(255, 165, 0)" style="fill-opacity:1.00" />
<!-- End 'G' -->
<!-- Begin 'C' -->
<ellipse cx="475.000000" cy="81.740927" rx="25.000000" ry="16.535008" fill="rgb(0, 0, 128)" style="fill-opacity:1.00" />
<ellipse cx="475.000000" cy="81.740927" rx="16.666667" ry="11.023338" fill="rgb(255, 255, 255)" style="fill-opacity:1.00" />
<rect height="16.535008" width="25.000000" x="475.000000" y="73.473423" fill="rgb(255, 255, 255)" style="fill-opacity:1.00" />
<!-- End 'C' -->
<!-- Begin 'G' -->
<ellipse cx="475.000000" cy="102.367661" rx="25.000000" ry="4.091726" fill="rgb(255, 165, 0)" style="fill-opacity:1.00" />
<ellipse cx="475.000000" cy="102.367661" rx="16.666667" ry="2.727818" fill="rgb(255, 255, 255)" style="fill-opacity:1.00" />
<rect height="4.091726" width="25.000000" x="475.000000" y="100.321798" fill="rgb(255, 255, 255)" style="fill-opacity:1.00" />
<rect height="1.022932" width="25.000000" x="475.000000" y="103.390592" fill="rgb(255, 165, 0)" style="fill-opacity:1.00" />
<rect height="3.068795" width="6.250000" x="493.750000" y="103.390592" fill="rgb(255, 165, 0)" style="fill-opacity:1.00" />
<!-- End 'G' -->
<!-- Begin 'T' -->
<rect height="0.494384" width="50.000000" x="450.000000" y="106.459387" fill="rgb(0, 100, 0)" style="fill-opacity:1.00" />
<rect height="3.089898" width="10.000000" x="470.000000" y="106.459387" fill="rgb(0, 100, 0)" style="fill-opacity:1.00" />
<!-- End 'T' -->
<!-- Begin 'A' -->
<polygon points=" 450.000000, 110.000000, 471.000000, 109.549286, 479.000000, 109.549286, 500.000000, 110.000000, 492.500000, 110.000000, 486.250000, 109.887321, 463.750000, 109.887321, 457.500000, 110.000000" fill="rgb(178, 34, 34)" style="fill-opacity:1.00" />
<!-- End 'A' -->
<!-- Begin 'A' -->
<polygon points=" 510.000000, 109.323992, 531.000000, 13.143428, 539.000000, 13.143428, 560.000000, 109.323992, 552.500000, 109.323992, 546.250000, 85.278851, 523.750000, 85.278851, 517.500000, 109.323992" fill="rgb(178, 34, 34)" style="fill-opacity:1.00" />
<polygon points=" 535.000000, 32.379541, 527.000000, 69.851766, 542.000000, 69.851766" fill="rgb(255, 255, 255)" style="fill-opacity:1.00" />
<!-- End 'A' -->
<!-- Begin 'G' -->
<ellipse cx="535.000000" cy="109.640260" rx="25.000000" ry="0.316268" fill="rgb(255, 165, 0)" style="fill-opacity:1.00" />
<ellipse cx="535.000000" cy="109.640260" rx="16.666667" ry="0.210845" fill="rgb(255, 255, 255)" style="fill-opacity:1.00" />
<rect height="0.316268" width="25.000000" x="535.000000" y="109.482126" fill="rgb(255, 255, 255)" style="fill-opacity:1.00" />
<rect height="0.079067" width="25.000000" x="535.000000" y="109.719327" fill="rgb(255, 165, 0)" style="fill-opacity:1.00" />
<rect height="0.237201" width="6.250000" x="553.750000" y="109.719327" fill="rgb(255, 165, 0)" style="fill-opacity:1.00" />
<!-- End 'G' -->
<!-- Begin 'C' -->
<ellipse cx="535.000000" cy="109.969207" rx="25.000000" ry="0.012678" fill="rgb(0, 0, 128)" style="fill-opacity:1.00" />
<ellipse cx="535.000000" cy="109.969207" rx="16.666667" ry="0.008452" fill="rgb(255, 255, 255)" style="fill-opacity:1.00" />
<rect height="0.012678" width="25.000000" x="535.000000" y="109.962867" fill="rgb(255, 255, 255)" style="fill-opacity:1.00" />
<!-- End 'C' -->
<!-- Begin 'T' -->
<rect height="0.002898" width="50.000000" x="510.000000" y="109.981885" fill="rgb(0, 100, 0)" style="fill-opacity:1.00" />
<rect height="0.018115" width="10.000000" x="530.000000" y="109.981885" fill="rgb(0, 100, 0)" style="fill-opacity:1.00" />
<!-- End 'T' -->
<!-- Begin 'C' -->
<ellipse cx="595.000000" cy="66.195382" rx="25.000000" ry="39.765882" fill="rgb(0, 0, 128)" style="fill-opacity:1.00" />
<ellipse cx="595.000000" cy="66.195382" rx="16.666667" ry="26.510588" fill="rgb(255, 255, 255)" style="fill-opacity:1.00" />
<rect height="39.765882" width="25.000000" x="595.000000" y="46.312441" fill="rgb(255, 255, 255)" style="fill-opacity:1.00" />
<!-- End 'C' -->
<!-- Begin 'G' -->
<ellipse cx="595.000000" cy="107.424690" rx="25.000000" ry="1.463426" fill="rgb(255, 165, 0)" style="fill-opacity:1.00" />
<ellipse cx="595.000000" cy="107.424690" rx="16.666667" ry="0.975617" fill="rgb(255, 255, 255)" style="fill-opacity:1.00" />
<rect height="1.463426" width="25.000000" x="595.000000" y="106.692977" fill="rgb(255, 255, 255)" style="fill-opacity:1.00" />
<rect height="0.365856" width="25.000000" x="595.000000" y="107.790546" fill="rgb(255, 165, 0)" style="fill-opacity:1.00" />
<rect height="1.097569" width="6.250000" x="613.750000" y="107.790546" fill="rgb(255, 165, 0)" style="fill-opacity:1.00" />
<!-- End 'G' -->
<!-- Begin 'T' -->
<rect height="0.150138" width="50.000000" x="570.000000" y="108.888116" fill="rgb(0, 100, 0)" style="fill-opacity:1.00" />
<rect height="0.938360" width="10.000000" x="590.000000" y="108.888116" fill="rgb(0, 100, 0)" style="fill-opacity:1.00" />
<!-- End 'T' -->
<!-- Begin 'A' -->
<polygon points=" 570.000000, 110.000000, 591.000000, 109.826476, 599.000000, 109.826476, 620.000000, 110.000000, 612.500000, 110.000000, 606.250000, 109.956619, 583.750000, 109.956619, 577.500000, 110.000000" fill="rgb(178, 34, 34)" style="fill-opacity:1.00" />
<!-- End 'A' -->
<!-- Begin 'G' -->
<ellipse cx="655.000000" cy="66.834422" rx="25.000000" ry="38.787597" fill="rgb(255, 165, 0)" style="fill-opacity:1.00" />
<ellipse cx="655.000000" cy="66.834422" rx="16.666667" ry="25.858398" fill="rgb(255, 255, 255)" style="fill-opacity:1.00" />
<rect height="38.787597" width="25.000000" x="655.000000" y="47.440623" fill="rgb(255, 255, 255)" style="fill-opacity:1.00" />
<rect height="9.696899" width="25.000000" x="655.000000" y="76.531321" fill="rgb(255, 165, 0)" style="fill-opacity:1.00" />
<rect height="29.090697" width="6.250000" x="673.750000" y="76.531321" fill="rgb(255, 165, 0)" style="fill-opacity:1.00" />
<!-- End 'G' -->
<!-- Begin 'C' -->
<ellipse cx="655.000000" cy="107.161069" rx="25.000000" ry="1.539051" fill="rgb(0, 0, 128)" style="fill-opacity:1.00" />
<ellipse cx="655.000000" cy="107.161069" rx="16.666667" ry="1.026034" fill="rgb(255, 255, 255)" style="fill-opacity:1.00" />
<rect height="1.539051" width="25.000000" x="655.000000" y="106.391544" fill="rgb(255, 255, 255)" style="fill-opacity:1.00" />
<!-- End 'C' -->
<!-- Begin 'A' -->
<polygon points=" 630.000000, 109.651251, 651.000000, 108.700120, 659.000000, 108.700120, 680.000000, 109.651251, 672.500000, 109.651251, 666.250000, 109.413468, 643.750000, 109.413468, 637.500000, 109.651251" fill="rgb(178, 34, 34)" style="fill-opacity:1.00" />
<!-- End 'A' -->
<!-- Begin 'T' -->
<rect height="0.055800" width="50.000000" x="630.000000" y="109.651251" fill="rgb(0, 100, 0)" style="fill-opacity:1.00" />
<rect height="0.348749" width="10.000000" x="650.000000" y="109.651251" fill="rgb(0, 100, 0)" style="fill-opacity:1.00" />
<!-- End 'T' -->
<!-- Begin 'T' -->
<rect height="15.394465" width="50.000000" x="690.000000" y="13.134273" fill="rgb(0, 100, 0)" style="fill-opacity:1.00" />
<rect height="96.215408" width="10.000000" x="710.000000" y="13.134273" fill="rgb(0, 100, 0)" style="fill-opacity:1.00" />
<!-- End 'T' -->
<!-- Begin 'C' -->
<ellipse cx="715.000000" cy="109.619468" rx="25.000000" ry="0.269787" fill="rgb(0, 0, 128)" style="fill-opacity:1.00" />
<ellipse cx="715.000000" cy="109.619468" rx="16.666667" ry="0.179858" fill="rgb(255, 255, 255)" style="fill-opacity:1.00" />
<rect height="0.269787" width="25.000000" x="715.000000" y="109.484575" fill="rgb(255, 255, 255)" style="fill-opacity:1.00" />
<!-- End 'C' -->
<!-- Begin 'A' -->
<polygon points=" 690.000000, 109.998005, 711.000000, 109.889256, 719.000000, 109.889256, 740.000000, 109.998005, 732.500000, 109.998005, 726.250000, 109.970818, 703.750000, 109.970818, 697.500000, 109.998005" fill="rgb(178, 34, 34)" style="fill-opacity:1.00" />
<!-- End 'A' -->
<!-- Begin 'G' -->
<ellipse cx="715.000000" cy="109.999003" rx="25.000000" ry="0.000997" fill="rgb(255, 165, 0)" style="fill-opacity:1.00" />
<ellipse cx="715.000000" cy="109.999003" rx="16.666667" ry="0.000665" fill="rgb(255, 255, 255)" style="fill-opacity:1.00" />
<rect height="0.000997" width="25.000000" x="715.000000" y="109.998504" fill="rgb(255, 255, 255)" style="fill-opacity:1.00" />
<rect height="0.000249" width="25.000000" x="715.000000" y="109.999252" fill="rgb(255, 165, 0)" style="fill-opacity:1.00" />
<rect height="0.000748" width="6.250000" x="733.750000" y="109.999252" fill="rgb(255, 165, 0)" style="fill-opacity:1.00" />
<!-- End 'G' -->
<!-- Begin 'G' -->
<ellipse cx="775.000000" cy="80.048766" rx="25.000000" ry="18.403200" fill="rgb(255, 165, 0)" style="fill-opacity:1.00" />
<ellipse cx="775.000000" cy="80.048766" rx="16.666667" ry="12.268800" fill="rgb(255, 255, 255)" style="fill-opacity:1.00" />
<rect height="18.403200" width="25.000000" x="775.000000" y="70.847166" fill="rgb(255, 255, 255)" style="fill-opacity:1.00" />
<rect height="4.600800" width="25.000000" x="775.000000" y="84.649566" fill="rgb(255, 165, 0)" style="fill-opacity:1.00" />
<rect height="13.802400" width="6.250000" x="793.750000" y="84.649566" fill="rgb(255, 165, 0)" style="fill-opacity:1.00" />
<!-- End 'G' -->
<!-- Begin 'C' -->
<ellipse cx="775.000000" cy="102.595183" rx="25.000000" ry="4.143217" fill="rgb(0, 0, 128)" style="fill-opacity:1.00" />
<ellipse cx="775.000000" cy="102.595183" rx="16.666667" ry="2.762145" fill="rgb(255, 255, 255)" style="fill-opacity:1.00" />
<rect height="4.143217" width="25.000000" x="775.000000" y="100.523575" fill="rgb(255, 255, 255)" style="fill-opacity:1.00" />
<!-- End 'C' -->
<!-- Begin 'A' -->
<polygon points=" 750.000000, 109.624503, 771.000000, 106.738400, 779.000000, 106.738400, 800.000000, 109.624503, 792.500000, 109.624503, 786.250000, 108.902977, 763.750000, 108.902977, 757.500000, 109.624503" fill="rgb(178, 34, 34)" style="fill-opacity:1.00" />
<!-- End 'A' -->
<!-- Begin 'T' -->
<rect height="0.060080" width="50.000000" x="750.000000" y="109.624503" fill="rgb(0, 100, 0)" style="fill-opacity:1.00" />
<rect height="0.375497" width="10.000000" x="770.000000" y="109.624503" fill="rgb(0, 100, 0)" style="fill-opacity:1.00" />
<!-- End 'T' -->
<!-- Begin 'G' -->
<ellipse cx="835.000000" cy="93.661832" rx="25.000000" ry="4.166691" fill="rgb(255, 165, 0)" style="fill-opacity:1.00" />
<ellipse cx="835.000000" cy="93.661832" rx="16.666667" ry="2.777794" fill="rgb(255, 255, 255)" style="fill-opacity:1.00" />
<rect height="4.166691" width="25.000000" x="835.000000" y="91.578487" fill="rgb(255, 255, 255)" style="fill-opacity:1.00" />
<rect height="1.041673" width="25.000000" x="835.000000" y="94.703505" fill="rgb(255, 165, 0)" style="fill-opacity:1.00" />
<rect height="3.125018" width="6.250000" x="853.750000" y="94.703505" fill="rgb(255, 165, 0)" style="fill-opacity:1.00" />
<!-- End 'G' -->
<!-- Begin 'T' -->
<rect height="1.274428" width="50.000000" x="810.000000" y="97.828523" fill="rgb(0, 100, 0)" style="fill-opacity:1.00" />
<rect height="7.965178" width="10.000000" x="830.000000" y="97.828523" fill="rgb(0, 100, 0)" style="fill-opacity:1.00" />
<!-- End 'T' -->
<!-- Begin 'A' -->
<polygon points=" 810.000000, 109.767569, 831.000000, 105.793701, 839.000000, 105.793701, 860.000000, 109.767569, 852.500000, 109.767569, 846.250000, 108.774102, 823.750000, 108.774102, 817.500000, 109.767569" fill="rgb(178, 34, 34)" style="fill-opacity:1.00" />
<!-- End 'A' -->
<!-- Begin 'C' -->
<ellipse cx="835.000000" cy="109.883784" rx="25.000000" ry="0.116216" fill="rgb(0, 0, 128)" style="fill-opacity:1.00" />
<ellipse cx="835.000000" cy="109.883784" rx="16.666667" ry="0.077477" fill="rgb(255, 255, 255)" style="fill-opacity:1.00" />
<rect height="0.116216" width="25.000000" x="835.000000" y="109.825677" fill="rgb(255, 255, 255)" style="fill-opacity:1.00" />
<!-- End 'C' -->
<!-- Begin 'C' -->
<ellipse cx="895.000000" cy="98.855294" rx="25.000000" ry="4.209585" fill="rgb(0, 0, 128)" style="fill-opacity:1.00" />
<ellipse cx="895.000000" cy="98.855294" rx="16.666667" ry="2.806390" fill="rgb(255, 255, 255)" style="fill-opacity:1.00" />
<rect height="4.209585" width="25.000000" x="895.000000" y="96.750502" fill="rgb(255, 255, 255)" style="fill-opacity:1.00" />
<!-- End 'C' -->
<!-- Begin 'A' -->
<polygon points=" 870.000000, 105.875954, 891.000000, 103.064879, 899.000000, 103.064879, 920.000000, 105.875954, 912.500000, 105.875954, 906.250000, 105.173185, 883.750000, 105.173185, 877.500000, 105.875954" fill="rgb(178, 34, 34)" style="fill-opacity:1.00" />
<!-- End 'A' -->
<!-- Begin 'T' -->
<rect height="0.400179" width="50.000000" x="870.000000" y="105.875954" fill="rgb(0, 100, 0)" style="fill-opacity:1.00" />
<rect height="2.501120" width="10.000000" x="890.000000" y="105.875954" fill="rgb(0, 100, 0)" style="fill-opacity:1.00" />
<!-- End 'T' -->
<!-- Begin 'G' -->
<ellipse cx="895.000000" cy="109.188537" rx="25.000000" ry="0.811463" fill="rgb(255, 165, 0)" style="fill-opacity:1.00" />
<ellipse cx="895.000000" cy="109.188537" rx="16.666667" ry="0.540975" fill="rgb(255, 255, 255)" style="fill-opacity:1.00" />
<rect height="0.811463" width="25.000000" x="895.000000" y="108.782806" fill="rgb(255, 255, 255)" style="fill-opacity:1.00" />
<rect height="0.202866" width="25.000000" x="895.000000" y="109.391403" fill="rgb(255, 165, 0)" style="fill-opacity:1.00" />
<rect height="0.608597" width="6.250000" x="913.750000" y="109.391403" fill="rgb(255, 165, 0)" style="fill-opacity:1.00" />
<!-- End 'G' -->
<!-- Begin 'A' -->
<polygon points=" 930.000000, 107.026378, 951.000000, 105.272903, 959.000000, 105.272903, 980.000000, 107.026378, 972.500000, 107.026378, 966.250000, 106.588009, 943.750000, 106.588009, 937.500000, 107.026378" fill="rgb(178, 34, 34)" style="fill-opacity:1.00" />
<!-- End 'A' -->
<!-- Begin 'C' -->
<ellipse cx="955.000000" cy="107.733035" rx="25.000000" ry="0.706657" fill="rgb(0, 0, 128)" style="fill-opacity:1.00" />
<ellipse cx="955.000000" cy="107.733035" rx="16.666667" ry="0.471105" fill="rgb(255, 255, 255)" style="fill-opacity:1.00" />
<rect height="0.706657" width="25.000000" x="955.000000" y="107.379706" fill="rgb(255, 255, 255)" style="fill-opacity:1.00" />
<!-- End 'C' -->
<!-- Begin 'T' -->
<rect height="0.140902" width="50.000000" x="930.000000" y="108.439692" fill="rgb(0, 100, 0)" style="fill-opacity:1.00" />
<rect height="0.880636" width="10.000000" x="950.000000" y="108.439692" fill="rgb(0, 100, 0)" style="fill-opacity:1.00" />
<!-- End 'T' -->
<!-- Begin 'G' -->
<ellipse cx="955.000000" cy="109.660164" rx="25.000000" ry="0.339836" fill="rgb(255, 165, 0)" style="fill-opacity:1.00" />
<ellipse cx="955.000000" cy="109.660164" rx="16.666667" ry="0.226557" fill="rgb(255, 255, 255)" style="fill-opacity:1.00" />
<rect height="0.339836" width="25.000000" x="955.000000" y="109.490247" fill="rgb(255, 255, 255)" style="fill-opacity:1.00" />
<rect height="0.084959" width="25.000000" x="955.000000" y="109.745123" fill="rgb(255, 165, 0)" style="fill-opacity:1.00" />
<rect height="0.254877" width="6.250000" x="973.750000" y="109.745123" fill="rgb(255, 165, 0)" style="fill-opacity:1.00" />
<!-- End 'G' -->
<text x="520.000000" y="165">
IC = 10.81
</text>

</svg>
