<?xml version="1.0" encoding="UTF-8" standalone="yes"?>
                 <!DOCTYPE svg PUBLIC "-//W3C//DTD SVG 1.0//EN" "http://www.w3.org/TR/2001/REC-SVG-20010904/DTD/svg10.dtd">
                 <svg height="170" width="960" xmlns="http://www.w3.org/2000/svg" xmlns:xlink="http://www.w3.org/1999/xlink">
                 <line x1="85" y1="120" x2="927" y2="120" style="stroke:rgb(99,99,99);stroke-width:2" />
<rect height="7.000000" width="2.000000" x="85.000000" y="120.000000" fill="rgb(0, 0, 0)" style="fill-opacity:1.00" />
<text x="107.000000" y="140">
1
</text>
<rect height="7.000000" width="2.000000" x="145.000000" y="120.000000" fill="rgb(0, 0, 0)" style="fill-opacity:1.00" />
<text x="167.000000" y="140">
2
</text>
<rect height="7.000000" width="2.000000" x="205.000000" y="120.000000" fill="rgb(0, 0, 0)" style="fill-opacity:1.00" />
<text x="227.000000" y="140">
3
</text>
<rect height="7.000000" width="2.000000" x="265.000000" y="120.000000" fill="rgb(0, 0, 0)" style="fill-opacity:1.00" />
<text x="287.000000" y="140">
4
</text>
<rect height="7.000000" width="2.000000" x="325.000000" y="120.000000" fill="rgb(0, 0, 0)" style="fill-opacity:1.00" />
<text x="347.000000" y="140">
5
</text>
<rect height="7.000000" width="2.000000" x="385.000000" y="120.000000" fill="rgb(0, 0, 0)" style="fill-opacity:1.00" />
<text x="407.000000" y="140">
6
</text>
<rect height="7.000000" width="2.000000" x="445.000000" y="120.000000" fill="rgb(0, 0, 0)" style="fill-opacity:1.00" />
<text x="467.000000" y="140">
7
</text>
<rect height="7.000000" width="2.000000" x="505.000000" y="120.000000" fill="rgb(0, 0, 0)" style="fill-opacity:1.00" />
<text x="527.000000" y="140">
8
</text>
<rect height="7.000000" width="2.000000" x="565.000000" y="120.000000" fill="rgb(0, 0, 0)" style="fill-opacity:1.00" />
<text x="587.000000" y="140">
9
</text>
<rect height="7.000000" width="2.000000" x="625.000000" y="120.000000" fill="rgb(0, 0, 0)" style="fill-opacity:1.00" />
<text x="647.000000" y="140">
10
</text>
<rect height="7.000000" width="2.000000" x="685.000000" y="120.000000" fill="rgb(0, 0, 0)" style="fill-opacity:1.00" />
<text x="707.000000" y="140">
11
</text>
<rect height="7.000000" width="2.000000" x="745.000000" y="120.000000" fill="rgb(0, 0, 0)" style="fill-opacity:1.00" />
<text x="767.000000" y="140">
12
</text>
<rect height="7.000000" width="2.000000" x="805.000000" y="120.000000" fill="rgb(0, 0, 0)" style="fill-opacity:1.00" />
<text x="827.000000" y="140">
13
</text>
<rect height="7.000000" width="2.000000" x="865.000000" y="120.000000" fill="rgb(0, 0, 0)" style="fill-opacity:1.00" />
<text x="887.000000" y="140">
14
</text>
<rect height="7.000000" width="2.000000" x="925.000000" y="120.000000" fill="rgb(0, 0, 0)" style="fill-opacity:1.00" />
<line x1="80" y1="112" x2="80" y2="10" style="stroke:rgb(99,99,99);stroke-width:2" />
<rect height="2.000000" width="7.000000" x="73.000000" y="110.000000" fill="rgb(0, 0, 0)" style="fill-opacity:1.00" />
<text x="63" y="115">
0
</text>
<rect height="2.000000" width="7.000000" x="73.000000" y="60.000000" fill="rgb(0, 0, 0)" style="fill-opacity:1.00" />
<text x="63" y="65">
1
</text>
<rect height="2.000000" width="7.000000" x="73.000000" y="10.000000" fill="rgb(0, 0, 0)" style="fill-opacity:1.00" />
<text x="63" y="15">
2
</text>
<text x="50" y="65"
transform="rotate(-90, 50, 70)">
bits
</text>
<!-- Begin 'A' -->
<polygon points=" 90.000000, 106.449180, 111.000000, 104.254987, 119.000000, 104.254987, 140.000000, 106.449180, 132.500000, 106.449180, 126.250000, 105.900632, 103.750000, 105.900632, 97.500000, 106.449180" fill="rgb(178, 34, 34)" style="fill-opacity:1.00" />
<!-- End 'A' -->
<!-- Begin 'T' -->
<rect height="0.284617" width="50.000000" x="90.000000" y="106.449180" fill="rgb(0, 100, 0)" style="fill-opacity:1.00" />
<rect height="1.778857" width="10.000000" x="110.000000" y="106.449180" fill="rgb(0, 100, 0)" style="fill-opacity:1.00" />
<!-- End 'T' -->
<!-- Begin 'C' -->
<ellipse cx="115.000000" cy="108.697538" rx="25.000000" ry="0.469500" fill="rgb(0, 0, 128)" style="fill-opacity:1.00" />
<ellipse cx="115.000000" cy="108.697538" rx="16.666667" ry="0.313000" fill="rgb(255, 255, 255)" style="fill-opacity:1.00" />
<rect height="0.469500" width="25.000000" x="115.000000" y="108.462787" fill="rgb(255, 255, 255)" style="fill-opacity:1.00" />
<!-- End 'C' -->
<!-- Begin 'G' -->
<ellipse cx="115.000000" cy="109.583519" rx="25.000000" ry="0.416481" fill="rgb(255, 165, 0)" style="fill-opacity:1.00" />
<ellipse cx="115.000000" cy="109.583519" rx="16.666667" ry="0.277654" fill="rgb(255, 255, 255)" style="fill-opacity:1.00" />
<rect height="0.416481" width="25.000000" x="115.000000" y="109.375278" fill="rgb(255, 255, 255)" style="fill-opacity:1.00" />
<rect height="0.104120" width="25.000000" x="115.000000" y="109.687639" fill="rgb(255, 165, 0)" style="fill-opacity:1.00" />
<rect height="0.312361" width="6.250000" x="133.750000" y="109.687639" fill="rgb(255, 165, 0)" style="fill-opacity:1.00" />
<!-- End 'G' -->
<!-- Begin 'A' -->
<polygon points=" 150.000000, 107.021918, 171.000000, 105.349620, 179.000000, 105.349620, 200.000000, 107.021918, 192.500000, 107.021918, 186.250000, 106.603844, 163.750000, 106.603844, 157.500000, 107.021918" fill="rgb(178, 34, 34)" style="fill-opacity:1.00" />
<!-- End 'A' -->
<!-- Begin 'T' -->
<rect height="0.234784" width="50.000000" x="150.000000" y="107.021918" fill="rgb(0, 100, 0)" style="fill-opacity:1.00" />
<rect height="1.467397" width="10.000000" x="170.000000" y="107.021918" fill="rgb(0, 100, 0)" style="fill-opacity:1.00" />
<!-- End 'T' -->
<!-- Begin 'C' -->
<ellipse cx="175.000000" cy="108.884632" rx="25.000000" ry="0.395317" fill="rgb(0, 0, 128)" style="fill-opacity:1.00" />
<ellipse cx="175.000000" cy="108.884632" rx="16.666667" ry="0.263544" fill="rgb(255, 255, 255)" style="fill-opacity:1.00" />
<rect height="0.395317" width="25.000000" x="175.000000" y="108.686974" fill="rgb(255, 255, 255)" style="fill-opacity:1.00" />
<!-- End 'C' -->
<!-- Begin 'G' -->
<ellipse cx="175.000000" cy="109.639974" rx="25.000000" ry="0.360026" fill="rgb(255, 165, 0)" style="fill-opacity:1.00" />
<ellipse cx="175.000000" cy="109.639974" rx="16.666667" ry="0.240017" fill="rgb(255, 255, 255)" style="fill-opacity:1.00" />
<rect height="0.360026" width="25.000000" x="175.000000" y="109.459962" fill="rgb(255, 255, 255)" style="fill-opacity:1.00" />
<rect height="0.090006" width="25.000000" x="175.000000" y="109.729981" fill="rgb(255, 165, 0)" style="fill-opacity:1.00" />
<rect height="0.270019" width="6.250000" x="193.750000" y="109.729981" fill="rgb(255, 165, 0)" style="fill-opacity:1.00" />
<!-- End 'G' -->
<!-- Begin 'A' -->
<polygon points=" 210.000000, 106.926949, 231.000000, 104.934345, 239.000000, 104.934345, 260.000000, 106.926949, 252.500000, 106.926949, 246.250000, 106.428798, 223.750000, 106.428798, 217.500000, 106.926949" fill="rgb(178, 34, 34)" style="fill-opacity:1.00" />
<!-- End 'A' -->
<!-- Begin 'T' -->
<rect height="0.224766" width="50.000000" x="210.000000" y="106.926949" fill="rgb(0, 100, 0)" style="fill-opacity:1.00" />
<rect height="1.404787" width="10.000000" x="230.000000" y="106.926949" fill="rgb(0, 100, 0)" style="fill-opacity:1.00" />
<!-- End 'T' -->
<!-- Begin 'G' -->
<ellipse cx="235.000000" cy="108.775799" rx="25.000000" ry="0.444063" fill="rgb(255, 165, 0)" style="fill-opacity:1.00" />
<ellipse cx="235.000000" cy="108.775799" rx="16.666667" ry="0.296042" fill="rgb(255, 255, 255)" style="fill-opacity:1.00" />
<rect height="0.444063" width="25.000000" x="235.000000" y="108.553767" fill="rgb(255, 255, 255)" style="fill-opacity:1.00" />
<rect height="0.111016" width="25.000000" x="235.000000" y="108.886814" fill="rgb(255, 165, 0)" style="fill-opacity:1.00" />
<rect height="0.333047" width="6.250000" x="253.750000" y="108.886814" fill="rgb(255, 165, 0)" style="fill-opacity:1.00" />
<!-- End 'G' -->
<!-- Begin 'C' -->
<ellipse cx="235.000000" cy="109.609931" rx="25.000000" ry="0.390069" fill="rgb(0, 0, 128)" style="fill-opacity:1.00" />
<ellipse cx="235.000000" cy="109.609931" rx="16.666667" ry="0.260046" fill="rgb(255, 255, 255)" style="fill-opacity:1.00" />
<rect height="0.390069" width="25.000000" x="235.000000" y="109.414896" fill="rgb(255, 255, 255)" style="fill-opacity:1.00" />
<!-- End 'C' -->
<!-- Begin 'A' -->
<polygon points=" 270.000000, 104.226927, 291.000000, 99.418371, 299.000000, 99.418371, 320.000000, 104.226927, 312.500000, 104.226927, 306.250000, 103.024788, 283.750000, 103.024788, 277.500000, 104.226927" fill="rgb(178, 34, 34)" style="fill-opacity:1.00" />
<!-- End 'A' -->
<!-- Begin 'T' -->
<rect height="0.498185" width="50.000000" x="270.000000" y="104.226927" fill="rgb(0, 100, 0)" style="fill-opacity:1.00" />
<rect height="3.113656" width="10.000000" x="290.000000" y="104.226927" fill="rgb(0, 100, 0)" style="fill-opacity:1.00" />
<!-- End 'T' -->
<!-- Begin 'C' -->
<ellipse cx="295.000000" cy="108.020344" rx="25.000000" ry="0.679761" fill="rgb(0, 0, 128)" style="fill-opacity:1.00" />
<ellipse cx="295.000000" cy="108.020344" rx="16.666667" ry="0.453174" fill="rgb(255, 255, 255)" style="fill-opacity:1.00" />
<rect height="0.679761" width="25.000000" x="295.000000" y="107.680463" fill="rgb(255, 255, 255)" style="fill-opacity:1.00" />
<!-- End 'C' -->
<!-- Begin 'G' -->
<ellipse cx="295.000000" cy="109.350052" rx="25.000000" ry="0.649948" fill="rgb(255, 165, 0)" style="fill-opacity:1.00" />
<ellipse cx="295.000000" cy="109.350052" rx="16.666667" ry="0.433299" fill="rgb(255, 255, 255)" style="fill-opacity:1.00" />
<rect height="0.649948" width="25.000000" x="295.000000" y="109.025078" fill="rgb(255, 255, 255)" style="fill-opacity:1.00" />
<rect height="0.162487" width="25.000000" x="295.000000" y="109.512539" fill="rgb(255, 165, 0)" style="fill-opacity:1.00" />
<rect height="0.487461" width="6.250000" x="313.750000" y="109.512539" fill="rgb(255, 165, 0)" style="fill-opacity:1.00" />
<!-- End 'G' -->
<!-- Begin 'A' -->
<polygon points=" 330.000000, 99.193272, 351.000000, 77.442151, 359.000000, 77.442151, 380.000000, 99.193272, 372.500000, 99.193272, 366.250000, 93.755492, 343.750000, 93.755492, 337.500000, 99.193272" fill="rgb(178, 34, 34)" style="fill-opacity:1.00" />
<polygon points=" 355.000000, 81.792376, 347.000000, 89.492824, 362.000000, 89.492824" fill="rgb(255, 255, 255)" style="fill-opacity:1.00" />
<!-- End 'A' -->
<!-- Begin 'T' -->
<rect height="1.097810" width="50.000000" x="330.000000" y="99.193272" fill="rgb(0, 100, 0)" style="fill-opacity:1.00" />
<rect height="6.861314" width="10.000000" x="350.000000" y="99.193272" fill="rgb(0, 100, 0)" style="fill-opacity:1.00" />
<!-- End 'T' -->
<!-- Begin 'G' -->
<ellipse cx="355.000000" cy="107.237445" rx="25.000000" ry="1.182858" fill="rgb(255, 165, 0)" style="fill-opacity:1.00" />
<ellipse cx="355.000000" cy="107.237445" rx="16.666667" ry="0.788572" fill="rgb(255, 255, 255)" style="fill-opacity:1.00" />
<rect height="1.182858" width="25.000000" x="355.000000" y="106.646016" fill="rgb(255, 255, 255)" style="fill-opacity:1.00" />
<rect height="0.295715" width="25.000000" x="355.000000" y="107.533159" fill="rgb(255, 165, 0)" style="fill-opacity:1.00" />
<rect height="0.887144" width="6.250000" x="373.750000" y="107.533159" fill="rgb(255, 165, 0)" style="fill-opacity:1.00" />
<!-- End 'G' -->
<!-- Begin 'C' -->
<ellipse cx="355.000000" cy="109.210151" rx="25.000000" ry="0.789849" fill="rgb(0, 0, 128)" style="fill-opacity:1.00" />
<ellipse cx="355.000000" cy="109.210151" rx="16.666667" ry="0.526566" fill="rgb(255, 255, 255)" style="fill-opacity:1.00" />
<rect height="0.789849" width="25.000000" x="355.000000" y="108.815227" fill="rgb(255, 255, 255)" style="fill-opacity:1.00" />
<!-- End 'C' -->
<!-- Begin 'A' -->
<polygon points=" 390.000000, 97.874992, 411.000000, 82.032374, 419.000000, 82.032374, 440.000000, 97.874992, 432.500000, 97.874992, 426.250000, 93.914338, 403.750000, 93.914338, 397.500000, 97.874992" fill="rgb(178, 34, 34)" style="fill-opacity:1.00" />
<polygon points=" 415.000000, 85.200898, 407.000000, 90.537945, 422.000000, 90.537945" fill="rgb(255, 255, 255)" style="fill-opacity:1.00" />
<!-- End 'A' -->
<!-- Begin 'G' -->
<ellipse cx="415.000000" cy="102.397638" rx="25.000000" ry="4.522646" fill="rgb(255, 165, 0)" style="fill-opacity:1.00" />
<ellipse cx="415.000000" cy="102.397638" rx="16.666667" ry="3.015097" fill="rgb(255, 255, 255)" style="fill-opacity:1.00" />
<rect height="4.522646" width="25.000000" x="415.000000" y="100.136315" fill="rgb(255, 255, 255)" style="fill-opacity:1.00" />
<rect height="1.130661" width="25.000000" x="415.000000" y="103.528300" fill="rgb(255, 165, 0)" style="fill-opacity:1.00" />
<rect height="3.391984" width="6.250000" x="433.750000" y="103.528300" fill="rgb(255, 165, 0)" style="fill-opacity:1.00" />
<!-- End 'G' -->
<!-- Begin 'T' -->
<rect height="0.337490" width="50.000000" x="390.000000" y="106.920284" fill="rgb(0, 100, 0)" style="fill-opacity:1.00" />
<rect height="2.109316" width="10.000000" x="410.000000" y="106.920284" fill="rgb(0, 100, 0)" style="fill-opacity:1.00" />
<!-- End 'T' -->
<!-- Begin 'C' -->
<ellipse cx="415.000000" cy="109.514800" rx="25.000000" ry="0.485200" fill="rgb(0, 0, 128)" style="fill-opacity:1.00" />
<ellipse cx="415.000000" cy="109.514800" rx="16.666667" ry="0.323467" fill="rgb(255, 255, 255)" style="fill-opacity:1.00" />
<rect height="0.485200" width="25.000000" x="415.000000" y="109.272200" fill="rgb(255, 255, 255)" style="fill-opacity:1.00" />
<!-- End 'C' -->
<!-- Begin 'A' -->
<polygon points=" 450.000000, 103.988730, 471.000000, 36.982966, 479.000000, 36.982966, 500.000000, 103.988730, 492.500000, 103.988730, 486.250000, 87.237289, 463.750000, 87.237289, 457.500000, 103.988730" fill="rgb(178, 34, 34)" style="fill-opacity:1.00" />
<polygon points=" 475.000000, 50.384119, 467.000000, 76.186424, 482.000000, 76.186424" fill="rgb(255, 255, 255)" style="fill-opacity:1.00" />
<!-- End 'A' -->
<!-- Begin 'G' -->
<ellipse cx="475.000000" cy="105.160125" rx="25.000000" ry="1.171396" fill="rgb(255, 165, 0)" style="fill-opacity:1.00" />
<ellipse cx="475.000000" cy="105.160125" rx="16.666667" ry="0.780930" fill="rgb(255, 255, 255)" style="fill-opacity:1.00" />
<rect height="1.171396" width="25.000000" x="475.000000" y="104.574427" fill="rgb(255, 255, 255)" style="fill-opacity:1.00" />
<rect height="0.292849" width="25.000000" x="475.000000" y="105.452974" fill="rgb(255, 165, 0)" style="fill-opacity:1.00" />
<rect height="0.878547" width="6.250000" x="493.750000" y="105.452974" fill="rgb(255, 165, 0)" style="fill-opacity:1.00" />
<!-- End 'G' -->
<!-- Begin 'T' -->
<rect height="0.321150" width="50.000000" x="450.000000" y="106.331521" fill="rgb(0, 100, 0)" style="fill-opacity:1.00" />
<rect height="2.007190" width="10.000000" x="470.000000" y="106.331521" fill="rgb(0, 100, 0)" style="fill-opacity:1.00" />
<!-- End 'T' -->
<!-- Begin 'C' -->
<ellipse cx="475.000000" cy="109.169355" rx="25.000000" ry="0.830645" fill="rgb(0, 0, 128)" style="fill-opacity:1.00" />
<ellipse cx="475.000000" cy="109.169355" rx="16.666667" ry="0.553763" fill="rgb(255, 255, 255)" style="fill-opacity:1.00" />
<rect height="0.830645" width="25.000000" x="475.000000" y="108.754033" fill="rgb(255, 255, 255)" style="fill-opacity:1.00" />
<!-- End 'C' -->
<!-- Begin 'T' -->
<rect height="6.326075" width="50.000000" x="510.000000" y="59.524622" fill="rgb(0, 100, 0)" style="fill-opacity:1.00" />
<rect height="39.537968" width="10.000000" x="530.000000" y="59.524622" fill="rgb(0, 100, 0)" style="fill-opacity:1.00" />
<!-- End 'T' -->
<!-- Begin 'A' -->
<polygon points=" 510.000000, 105.115332, 531.000000, 99.062590, 539.000000, 99.062590, 560.000000, 105.115332, 552.500000, 105.115332, 546.250000, 103.602147, 523.750000, 103.602147, 517.500000, 105.115332" fill="rgb(178, 34, 34)" style="fill-opacity:1.00" />
<!-- End 'A' -->
<!-- Begin 'G' -->
<ellipse cx="535.000000" cy="107.470410" rx="25.000000" ry="2.355078" fill="rgb(255, 165, 0)" style="fill-opacity:1.00" />
<ellipse cx="535.000000" cy="107.470410" rx="16.666667" ry="1.570052" fill="rgb(255, 255, 255)" style="fill-opacity:1.00" />
<rect height="2.355078" width="25.000000" x="535.000000" y="106.292871" fill="rgb(255, 255, 255)" style="fill-opacity:1.00" />
<rect height="0.588769" width="25.000000" x="535.000000" y="108.059179" fill="rgb(255, 165, 0)" style="fill-opacity:1.00" />
<rect height="1.766308" width="6.250000" x="553.750000" y="108.059179" fill="rgb(255, 165, 0)" style="fill-opacity:1.00" />
<!-- End 'G' -->
<!-- Begin 'C' -->
<ellipse cx="535.000000" cy="109.912744" rx="25.000000" ry="0.087256" fill="rgb(0, 0, 128)" style="fill-opacity:1.00" />
<ellipse cx="535.000000" cy="109.912744" rx="16.666667" ry="0.058171" fill="rgb(255, 255, 255)" style="fill-opacity:1.00" />
<rect height="0.087256" width="25.000000" x="535.000000" y="109.869116" fill="rgb(255, 255, 255)" style="fill-opacity:1.00" />
<!-- End 'C' -->
<!-- Begin 'A' -->
<polygon points=" 570.000000, 107.994242, 591.000000, 17.752761, 599.000000, 17.752761, 620.000000, 107.994242, 612.500000, 107.994242, 606.250000, 85.433871, 583.750000, 85.433871, 577.500000, 107.994242" fill="rgb(178, 34, 34)" style="fill-opacity:1.00" />
<polygon points=" 595.000000, 35.801057, 587.000000, 70.897649, 602.000000, 70.897649" fill="rgb(255, 255, 255)" style="fill-opacity:1.00" />
<!-- End 'A' -->
<!-- Begin 'C' -->
<ellipse cx="595.000000" cy="108.974015" rx="25.000000" ry="0.979774" fill="rgb(0, 0, 128)" style="fill-opacity:1.00" />
<ellipse cx="595.000000" cy="108.974015" rx="16.666667" ry="0.653183" fill="rgb(255, 255, 255)" style="fill-opacity:1.00" />
<rect height="0.979774" width="25.000000" x="595.000000" y="108.484128" fill="rgb(255, 255, 255)" style="fill-opacity:1.00" />
<!-- End 'C' -->
<!-- Begin 'T' -->
<rect height="0.004126" width="50.000000" x="570.000000" y="109.953789" fill="rgb(0, 100, 0)" style="fill-opacity:1.00" />
<rect height="0.025785" width="10.000000" x="590.000000" y="109.953789" fill="rgb(0, 100, 0)" style="fill-opacity:1.00" />
<!-- End 'T' -->
<!-- Begin 'G' -->
<ellipse cx="595.000000" cy="109.989787" rx="25.000000" ry="0.010213" fill="rgb(255, 165, 0)" style="fill-opacity:1.00" />
<ellipse cx="595.000000" cy="109.989787" rx="16.666667" ry="0.006809" fill="rgb(255, 255, 255)" style="fill-opacity:1.00" />
<rect height="0.010213" width="25.000000" x="595.000000" y="109.984681" fill="rgb(255, 255, 255)" style="fill-opacity:1.00" />
<rect height="0.002553" width="25.000000" x="595.000000" y="109.992340" fill="rgb(255, 165, 0)" style="fill-opacity:1.00" />
<rect height="0.007660" width="6.250000" x="613.750000" y="109.992340" fill="rgb(255, 165, 0)" style="fill-opacity:1.00" />
<!-- End 'G' -->
<!-- Begin 'T' -->
<rect height="14.602354" width="50.000000" x="630.000000" y="17.185915" fill="rgb(0, 100, 0)" style="fill-opacity:1.00" />
<rect height="91.264714" width="10.000000" x="650.000000" y="17.185915" fill="rgb(0, 100, 0)" style="fill-opacity:1.00" />
<!-- End 'T' -->
<!-- Begin 'G' -->
<ellipse cx="655.000000" cy="108.888367" rx="25.000000" ry="0.437739" fill="rgb(255, 165, 0)" style="fill-opacity:1.00" />
<ellipse cx="655.000000" cy="108.888367" rx="16.666667" ry="0.291826" fill="rgb(255, 255, 255)" style="fill-opacity:1.00" />
<rect height="0.437739" width="25.000000" x="655.000000" y="108.669498" fill="rgb(255, 255, 255)" style="fill-opacity:1.00" />
<rect height="0.109435" width="25.000000" x="655.000000" y="108.997802" fill="rgb(255, 165, 0)" style="fill-opacity:1.00" />
<rect height="0.328304" width="6.250000" x="673.750000" y="108.997802" fill="rgb(255, 165, 0)" style="fill-opacity:1.00" />
<!-- End 'G' -->
<!-- Begin 'A' -->
<polygon points=" 630.000000, 109.885199, 651.000000, 109.326106, 659.000000, 109.326106, 680.000000, 109.885199, 672.500000, 109.885199, 666.250000, 109.745425, 643.750000, 109.745425, 637.500000, 109.885199" fill="rgb(178, 34, 34)" style="fill-opacity:1.00" />
<!-- End 'A' -->
<!-- Begin 'C' -->
<ellipse cx="655.000000" cy="109.942599" rx="25.000000" ry="0.057401" fill="rgb(0, 0, 128)" style="fill-opacity:1.00" />
<ellipse cx="655.000000" cy="109.942599" rx="16.666667" ry="0.038267" fill="rgb(255, 255, 255)" style="fill-opacity:1.00" />
<rect height="0.057401" width="25.000000" x="655.000000" y="109.913899" fill="rgb(255, 255, 255)" style="fill-opacity:1.00" />
<!-- End 'C' -->
<!-- Begin 'C' -->
<ellipse cx="715.000000" cy="90.751936" rx="25.000000" ry="6.236851" fill="rgb(0, 0, 128)" style="fill-opacity:1.00" />
<ellipse cx="715.000000" cy="90.751936" rx="16.666667" ry="4.157901" fill="rgb(255, 255, 255)" style="fill-opacity:1.00" />
<rect height="6.236851" width="25.000000" x="715.000000" y="87.633510" fill="rgb(255, 255, 255)" style="fill-opacity:1.00" />
<!-- End 'C' -->
<!-- Begin 'T' -->
<rect height="1.550661" width="50.000000" x="690.000000" y="96.988787" fill="rgb(0, 100, 0)" style="fill-opacity:1.00" />
<rect height="9.691634" width="10.000000" x="710.000000" y="96.988787" fill="rgb(0, 100, 0)" style="fill-opacity:1.00" />
<!-- End 'T' -->
<!-- Begin 'A' -->
<polygon points=" 690.000000, 109.571084, 711.000000, 106.680420, 719.000000, 106.680420, 740.000000, 109.571084, 732.500000, 109.571084, 726.250000, 108.848418, 703.750000, 108.848418, 697.500000, 109.571084" fill="rgb(178, 34, 34)" style="fill-opacity:1.00" />
<!-- End 'A' -->
<!-- Begin 'G' -->
<ellipse cx="715.000000" cy="109.785542" rx="25.000000" ry="0.214458" fill="rgb(255, 165, 0)" style="fill-opacity:1.00" />
<ellipse cx="715.000000" cy="109.785542" rx="16.666667" ry="0.142972" fill="rgb(255, 255, 255)" style="fill-opacity:1.00" />
<rect height="0.214458" width="25.000000" x="715.000000" y="109.678313" fill="rgb(255, 255, 255)" style="fill-opacity:1.00" />
<rect height="0.053615" width="25.000000" x="715.000000" y="109.839156" fill="rgb(255, 165, 0)" style="fill-opacity:1.00" />
<rect height="0.160844" width="6.250000" x="733.750000" y="109.839156" fill="rgb(255, 165, 0)" style="fill-opacity:1.00" />
<!-- End 'G' -->
<!-- Begin 'T' -->
<rect height="3.662101" width="50.000000" x="750.000000" y="76.172932" fill="rgb(0, 100, 0)" style="fill-opacity:1.00" />
<rect height="22.888132" width="10.000000" x="770.000000" y="76.172932" fill="rgb(0, 100, 0)" style="fill-opacity:1.00" />
<!-- End 'T' -->
<!-- Begin 'A' -->
<polygon points=" 750.000000, 105.922092, 771.000000, 99.061064, 779.000000, 99.061064, 800.000000, 105.922092, 792.500000, 105.922092, 786.250000, 104.206835, 763.750000, 104.206835, 757.500000, 105.922092" fill="rgb(178, 34, 34)" style="fill-opacity:1.00" />
<!-- End 'A' -->
<!-- Begin 'C' -->
<ellipse cx="775.000000" cy="107.333966" rx="25.000000" ry="1.411874" fill="rgb(0, 0, 128)" style="fill-opacity:1.00" />
<ellipse cx="775.000000" cy="107.333966" rx="16.666667" ry="0.941249" fill="rgb(255, 255, 255)" style="fill-opacity:1.00" />
<rect height="1.411874" width="25.000000" x="775.000000" y="106.628029" fill="rgb(255, 255, 255)" style="fill-opacity:1.00" />
<!-- End 'C' -->
<!-- Begin 'G' -->
<ellipse cx="775.000000" cy="109.372920" rx="25.000000" ry="0.627080" fill="rgb(255, 165, 0)" style="fill-opacity:1.00" />
<ellipse cx="775.000000" cy="109.372920" rx="16.666667" ry="0.418053" fill="rgb(255, 255, 255)" style="fill-opacity:1.00" />
<rect height="0.627080" width="25.000000" x="775.000000" y="109.059380" fill="rgb(255, 255, 255)" style="fill-opacity:1.00" />
<rect height="0.156770" width="25.000000" x="775.000000" y="109.529690" fill="rgb(255, 165, 0)" style="fill-opacity:1.00" />
<rect height="0.470310" width="6.250000" x="793.750000" y="109.529690" fill="rgb(255, 165, 0)" style="fill-opacity:1.00" />
<!-- End 'G' -->
<!-- Begin 'T' -->
<rect height="0.707186" width="50.000000" x="810.000000" y="99.857324" fill="rgb(0, 100, 0)" style="fill-opacity:1.00" />
<rect height="4.419911" width="10.000000" x="830.000000" y="99.857324" fill="rgb(0, 100, 0)" style="fill-opacity:1.00" />
<!-- End 'T' -->
<!-- Begin 'A' -->
<polygon points=" 810.000000, 107.462720, 831.000000, 104.277235, 839.000000, 104.277235, 860.000000, 107.462720, 852.500000, 107.462720, 846.250000, 106.666348, 823.750000, 106.666348, 817.500000, 107.462720" fill="rgb(178, 34, 34)" style="fill-opacity:1.00" />
<!-- End 'A' -->
<!-- Begin 'C' -->
<ellipse cx="835.000000" cy="108.109584" rx="25.000000" ry="0.646864" fill="rgb(0, 0, 128)" style="fill-opacity:1.00" />
<ellipse cx="835.000000" cy="108.109584" rx="16.666667" ry="0.431243" fill="rgb(255, 255, 255)" style="fill-opacity:1.00" />
<rect height="0.646864" width="25.000000" x="835.000000" y="107.786152" fill="rgb(255, 255, 255)" style="fill-opacity:1.00" />
<!-- End 'C' -->
<!-- Begin 'G' -->
<ellipse cx="835.000000" cy="109.378224" rx="25.000000" ry="0.621776" fill="rgb(255, 165, 0)" style="fill-opacity:1.00" />
<ellipse cx="835.000000" cy="109.378224" rx="16.666667" ry="0.414517" fill="rgb(255, 255, 255)" style="fill-opacity:1.00" />
<rect height="0.621776" width="25.000000" x="835.000000" y="109.067336" fill="rgb(255, 255, 255)" style="fill-opacity:1.00" />
<rect height="0.155444" width="25.000000" x="835.000000" y="109.533668" fill="rgb(255, 165, 0)" style="fill-opacity:1.00" />
<rect height="0.466332" width="6.250000" x="853.750000" y="109.533668" fill="rgb(255, 165, 0)" style="fill-opacity:1.00" />
<!-- End 'G' -->
<!-- Begin 'T' -->
<rect height="0.271055" width="50.000000" x="870.000000" y="105.258697" fill="rgb(0, 100, 0)" style="fill-opacity:1.00" />
<rect height="1.694094" width="10.000000" x="890.000000" y="105.258697" fill="rgb(0, 100, 0)" style="fill-opacity:1.00" />
<!-- End 'T' -->
<!-- Begin 'A' -->
<polygon points=" 870.000000, 108.465247, 891.000000, 106.952790, 899.000000, 106.952790, 920.000000, 108.465247, 912.500000, 108.465247, 906.250000, 108.087133, 883.750000, 108.087133, 877.500000, 108.465247" fill="rgb(178, 34, 34)" style="fill-opacity:1.00" />
<!-- End 'A' -->
<!-- Begin 'C' -->
<ellipse cx="895.000000" cy="108.880857" rx="25.000000" ry="0.415609" fill="rgb(0, 0, 128)" style="fill-opacity:1.00" />
<ellipse cx="895.000000" cy="108.880857" rx="16.666667" ry="0.277073" fill="rgb(255, 255, 255)" style="fill-opacity:1.00" />
<rect height="0.415609" width="25.000000" x="895.000000" y="108.673052" fill="rgb(255, 255, 255)" style="fill-opacity:1.00" />
<!-- End 'C' -->
<!-- Begin 'G' -->
<ellipse cx="895.000000" cy="109.648233" rx="25.000000" ry="0.351767" fill="rgb(255, 165, 0)" style="fill-opacity:1.00" />
<ellipse cx="895.000000" cy="109.648233" rx="16.666667" ry="0.234511" fill="rgb(255, 255, 255)" style="fill-opacity:1.00" />
<rect height="0.351767" width="25.000000" x="895.000000" y="109.472350" fill="rgb(255, 255, 255)" style="fill-opacity:1.00" />
<rect height="0.087942" width="25.000000" x="895.000000" y="109.736175" fill="rgb(255, 165, 0)" style="fill-opacity:1.00" />
<rect height="0.263825" width="6.250000" x="913.750000" y="109.736175" fill="rgb(255, 165, 0)" style="fill-opacity:1.00" />
<!-- End 'G' -->
<text x="490.000000" y="165">
IC = 9.39
</text>

</svg>
