<?xml version="1.0" encoding="UTF-8" standalone="yes"?>
                 <!DOCTYPE svg PUBLIC "-//W3C//DTD SVG 1.0//EN" "http://www.w3.org/TR/2001/REC-SVG-20010904/DTD/svg10.dtd">
                 <svg height="170" width="900" xmlns="http://www.w3.org/2000/svg" xmlns:xlink="http://www.w3.org/1999/xlink">
                 <line x1="85" y1="120" x2="867" y2="120" style="stroke:rgb(99,99,99);stroke-width:2" />
<rect height="7.000000" width="2.000000" x="85.000000" y="120.000000" fill="rgb(0, 0, 0)" style="fill-opacity:1.00" />
<text x="107.000000" y="140">
1
</text>
<rect height="7.000000" width="2.000000" x="145.000000" y="120.000000" fill="rgb(0, 0, 0)" style="fill-opacity:1.00" />
<text x="167.000000" y="140">
2
</text>
<rect height="7.000000" width="2.000000" x="205.000000" y="120.000000" fill="rgb(0, 0, 0)" style="fill-opacity:1.00" />
<text x="227.000000" y="140">
3
</text>
<rect height="7.000000" width="2.000000" x="265.000000" y="120.000000" fill="rgb(0, 0, 0)" style="fill-opacity:1.00" />
<text x="287.000000" y="140">
4
</text>
<rect height="7.000000" width="2.000000" x="325.000000" y="120.000000" fill="rgb(0, 0, 0)" style="fill-opacity:1.00" />
<text x="347.000000" y="140">
5
</text>
<rect height="7.000000" width="2.000000" x="385.000000" y="120.000000" fill="rgb(0, 0, 0)" style="fill-opacity:1.00" />
<text x="407.000000" y="140">
6
</text>
<rect height="7.000000" width="2.000000" x="445.000000" y="120.000000" fill="rgb(0, 0, 0)" style="fill-opacity:1.00" />
<text x="467.000000" y="140">
7
</text>
<rect height="7.000000" width="2.000000" x="505.000000" y="120.000000" fill="rgb(0, 0, 0)" style="fill-opacity:1.00" />
<text x="527.000000" y="140">
8
</text>
<rect height="7.000000" width="2.000000" x="565.000000" y="120.000000" fill="rgb(0, 0, 0)" style="fill-opacity:1.00" />
<text x="587.000000" y="140">
9
</text>
<rect height="7.000000" width="2.000000" x="625.000000" y="120.000000" fill="rgb(0, 0, 0)" style="fill-opacity:1.00" />
<text x="647.000000" y="140">
10
</text>
<rect height="7.000000" width="2.000000" x="685.000000" y="120.000000" fill="rgb(0, 0, 0)" style="fill-opacity:1.00" />
<text x="707.000000" y="140">
11
</text>
<rect height="7.000000" width="2.000000" x="745.000000" y="120.000000" fill="rgb(0, 0, 0)" style="fill-opacity:1.00" />
<text x="767.000000" y="140">
12
</text>
<rect height="7.000000" width="2.000000" x="805.000000" y="120.000000" fill="rgb(0, 0, 0)" style="fill-opacity:1.00" />
<text x="827.000000" y="140">
13
</text>
<rect height="7.000000" width="2.000000" x="865.000000" y="120.000000" fill="rgb(0, 0, 0)" style="fill-opacity:1.00" />
<line x1="80" y1="112" x2="80" y2="10" style="stroke:rgb(99,99,99);stroke-width:2" />
<rect height="2.000000" width="7.000000" x="73.000000" y="110.000000" fill="rgb(0, 0, 0)" style="fill-opacity:1.00" />
<text x="63" y="115">
0
</text>
<rect height="2.000000" width="7.000000" x="73.000000" y="60.000000" fill="rgb(0, 0, 0)" style="fill-opacity:1.00" />
<text x="63" y="65">
1
</text>
<rect height="2.000000" width="7.000000" x="73.000000" y="10.000000" fill="rgb(0, 0, 0)" style="fill-opacity:1.00" />
<text x="63" y="15">
2
</text>
<text x="50" y="65"
transform="rotate(-90, 50, 70)">
bits
</text>
<!-- Begin 'T' -->
<rect height="11.427693" width="50.000000" x="90.000000" y="33.180942" fill="rgb(0, 100, 0)" style="fill-opacity:1.00" />
<rect height="71.423083" width="10.000000" x="110.000000" y="33.180942" fill="rgb(0, 100, 0)" style="fill-opacity:1.00" />
<!-- End 'T' -->
<!-- Begin 'A' -->
<polygon points=" 90.000000, 107.792556, 111.000000, 104.604025, 119.000000, 104.604025, 140.000000, 107.792556, 132.500000, 107.792556, 126.250000, 106.995423, 103.750000, 106.995423, 97.500000, 107.792556" fill="rgb(178, 34, 34)" style="fill-opacity:1.00" />
<!-- End 'A' -->
<!-- Begin 'G' -->
<ellipse cx="115.000000" cy="108.430262" rx="25.000000" ry="0.637706" fill="rgb(255, 165, 0)" style="fill-opacity:1.00" />
<ellipse cx="115.000000" cy="108.430262" rx="16.666667" ry="0.425137" fill="rgb(255, 255, 255)" style="fill-opacity:1.00" />
<rect height="0.637706" width="25.000000" x="115.000000" y="108.111409" fill="rgb(255, 255, 255)" style="fill-opacity:1.00" />
<rect height="0.159427" width="25.000000" x="115.000000" y="108.589688" fill="rgb(255, 165, 0)" style="fill-opacity:1.00" />
<rect height="0.478280" width="6.250000" x="133.750000" y="108.589688" fill="rgb(255, 165, 0)" style="fill-opacity:1.00" />
<!-- End 'G' -->
<!-- Begin 'C' -->
<ellipse cx="115.000000" cy="109.533984" rx="25.000000" ry="0.466016" fill="rgb(0, 0, 128)" style="fill-opacity:1.00" />
<ellipse cx="115.000000" cy="109.533984" rx="16.666667" ry="0.310677" fill="rgb(255, 255, 255)" style="fill-opacity:1.00" />
<rect height="0.466016" width="25.000000" x="115.000000" y="109.300976" fill="rgb(255, 255, 255)" style="fill-opacity:1.00" />
<!-- End 'C' -->
<!-- Begin 'T' -->
<rect height="13.001166" width="50.000000" x="150.000000" y="22.603771" fill="rgb(0, 100, 0)" style="fill-opacity:1.00" />
<rect height="81.257286" width="10.000000" x="170.000000" y="22.603771" fill="rgb(0, 100, 0)" style="fill-opacity:1.00" />
<!-- End 'T' -->
<!-- Begin 'G' -->
<ellipse cx="175.000000" cy="104.363334" rx="25.000000" ry="0.502277" fill="rgb(255, 165, 0)" style="fill-opacity:1.00" />
<ellipse cx="175.000000" cy="104.363334" rx="16.666667" ry="0.334851" fill="rgb(255, 255, 255)" style="fill-opacity:1.00" />
<rect height="0.502277" width="25.000000" x="175.000000" y="104.112195" fill="rgb(255, 255, 255)" style="fill-opacity:1.00" />
<rect height="0.125569" width="25.000000" x="175.000000" y="104.488903" fill="rgb(255, 165, 0)" style="fill-opacity:1.00" />
<rect height="0.376708" width="6.250000" x="193.750000" y="104.488903" fill="rgb(255, 165, 0)" style="fill-opacity:1.00" />
<!-- End 'G' -->
<!-- Begin 'A' -->
<polygon points=" 150.000000, 105.535314, 171.000000, 104.865611, 179.000000, 104.865611, 200.000000, 105.535314, 192.500000, 105.535314, 186.250000, 105.367888, 163.750000, 105.367888, 157.500000, 105.535314" fill="rgb(178, 34, 34)" style="fill-opacity:1.00" />
<!-- End 'A' -->
<!-- Begin 'C' -->
<ellipse cx="175.000000" cy="105.674835" rx="25.000000" ry="0.139521" fill="rgb(0, 0, 128)" style="fill-opacity:1.00" />
<ellipse cx="175.000000" cy="105.674835" rx="16.666667" ry="0.093014" fill="rgb(255, 255, 255)" style="fill-opacity:1.00" />
<rect height="0.139521" width="25.000000" x="175.000000" y="105.605075" fill="rgb(255, 255, 255)" style="fill-opacity:1.00" />
<!-- End 'C' -->
<!-- Begin 'C' -->
<ellipse cx="235.000000" cy="61.918589" rx="25.000000" ry="38.180969" fill="rgb(0, 0, 128)" style="fill-opacity:1.00" />
<ellipse cx="235.000000" cy="61.918589" rx="16.666667" ry="25.453979" fill="rgb(255, 255, 255)" style="fill-opacity:1.00" />
<rect height="38.180969" width="25.000000" x="235.000000" y="42.828105" fill="rgb(255, 255, 255)" style="fill-opacity:1.00" />
<!-- End 'C' -->
<!-- Begin 'G' -->
<ellipse cx="235.000000" cy="100.361790" rx="25.000000" ry="0.262232" fill="rgb(255, 165, 0)" style="fill-opacity:1.00" />
<ellipse cx="235.000000" cy="100.361790" rx="16.666667" ry="0.174821" fill="rgb(255, 255, 255)" style="fill-opacity:1.00" />
<rect height="0.262232" width="25.000000" x="235.000000" y="100.230674" fill="rgb(255, 255, 255)" style="fill-opacity:1.00" />
<rect height="0.065558" width="25.000000" x="235.000000" y="100.427347" fill="rgb(255, 165, 0)" style="fill-opacity:1.00" />
<rect height="0.196674" width="6.250000" x="253.750000" y="100.427347" fill="rgb(255, 165, 0)" style="fill-opacity:1.00" />
<!-- End 'G' -->
<!-- Begin 'A' -->
<polygon points=" 210.000000, 101.148485, 231.000000, 100.624021, 239.000000, 100.624021, 260.000000, 101.148485, 252.500000, 101.148485, 246.250000, 101.017369, 223.750000, 101.017369, 217.500000, 101.148485" fill="rgb(178, 34, 34)" style="fill-opacity:1.00" />
<!-- End 'A' -->
<!-- Begin 'T' -->
<rect height="0.050349" width="50.000000" x="210.000000" y="101.148485" fill="rgb(0, 100, 0)" style="fill-opacity:1.00" />
<rect height="0.314678" width="10.000000" x="230.000000" y="101.148485" fill="rgb(0, 100, 0)" style="fill-opacity:1.00" />
<!-- End 'T' -->
<!-- Begin 'T' -->
<rect height="6.009658" width="50.000000" x="270.000000" y="65.164932" fill="rgb(0, 100, 0)" style="fill-opacity:1.00" />
<rect height="37.560363" width="10.000000" x="290.000000" y="65.164932" fill="rgb(0, 100, 0)" style="fill-opacity:1.00" />
<!-- End 'T' -->
<!-- Begin 'C' -->
<ellipse cx="295.000000" cy="107.394544" rx="25.000000" ry="4.669248" fill="rgb(0, 0, 128)" style="fill-opacity:1.00" />
<ellipse cx="295.000000" cy="107.394544" rx="16.666667" ry="3.112832" fill="rgb(255, 255, 255)" style="fill-opacity:1.00" />
<rect height="4.669248" width="25.000000" x="295.000000" y="105.059919" fill="rgb(255, 255, 255)" style="fill-opacity:1.00" />
<!-- End 'C' -->
<!-- Begin 'G' -->
<ellipse cx="295.000000" cy="115.146528" rx="25.000000" ry="3.082736" fill="rgb(255, 165, 0)" style="fill-opacity:1.00" />
<ellipse cx="295.000000" cy="115.146528" rx="16.666667" ry="2.055157" fill="rgb(255, 255, 255)" style="fill-opacity:1.00" />
<rect height="3.082736" width="25.000000" x="295.000000" y="113.605160" fill="rgb(255, 255, 255)" style="fill-opacity:1.00" />
<rect height="0.770684" width="25.000000" x="295.000000" y="115.917212" fill="rgb(255, 165, 0)" style="fill-opacity:1.00" />
<rect height="2.312052" width="6.250000" x="313.750000" y="115.917212" fill="rgb(255, 165, 0)" style="fill-opacity:1.00" />
<!-- End 'G' -->
<!-- Begin 'A' -->
<polygon points=" 270.000000, 118.358248, 291.000000, 118.229264, 299.000000, 118.229264, 320.000000, 118.358248, 312.500000, 118.358248, 306.250000, 118.326002, 283.750000, 118.326002, 277.500000, 118.358248" fill="rgb(178, 34, 34)" style="fill-opacity:1.00" />
<!-- End 'A' -->
<!-- Begin 'A' -->
<polygon points=" 330.000000, 115.596894, 351.000000, 55.705862, 359.000000, 55.705862, 380.000000, 115.596894, 372.500000, 115.596894, 366.250000, 100.624136, 343.750000, 100.624136, 337.500000, 115.596894" fill="rgb(178, 34, 34)" style="fill-opacity:1.00" />
<polygon points=" 355.000000, 67.684068, 347.000000, 90.640481, 362.000000, 90.640481" fill="rgb(255, 255, 255)" style="fill-opacity:1.00" />
<!-- End 'A' -->
<!-- Begin 'C' -->
<ellipse cx="355.000000" cy="124.337858" rx="25.000000" ry="8.740964" fill="rgb(0, 0, 128)" style="fill-opacity:1.00" />
<ellipse cx="355.000000" cy="124.337858" rx="16.666667" ry="5.827310" fill="rgb(255, 255, 255)" style="fill-opacity:1.00" />
<rect height="8.740964" width="25.000000" x="355.000000" y="119.967376" fill="rgb(255, 255, 255)" style="fill-opacity:1.00" />
<!-- End 'C' -->
<!-- Begin 'G' -->
<ellipse cx="355.000000" cy="140.997108" rx="25.000000" ry="7.918285" fill="rgb(255, 165, 0)" style="fill-opacity:1.00" />
<ellipse cx="355.000000" cy="140.997108" rx="16.666667" ry="5.278857" fill="rgb(255, 255, 255)" style="fill-opacity:1.00" />
<rect height="7.918285" width="25.000000" x="355.000000" y="137.037965" fill="rgb(255, 255, 255)" style="fill-opacity:1.00" />
<rect height="1.979571" width="25.000000" x="355.000000" y="142.976680" fill="rgb(255, 165, 0)" style="fill-opacity:1.00" />
<rect height="5.938714" width="6.250000" x="373.750000" y="142.976680" fill="rgb(255, 165, 0)" style="fill-opacity:1.00" />
<!-- End 'G' -->
<!-- Begin 'T' -->
<rect height="0.026326" width="50.000000" x="330.000000" y="148.915394" fill="rgb(0, 100, 0)" style="fill-opacity:1.00" />
<rect height="0.164536" width="10.000000" x="350.000000" y="148.915394" fill="rgb(0, 100, 0)" style="fill-opacity:1.00" />
<!-- End 'T' -->
<!-- Begin 'G' -->
<ellipse cx="415.000000" cy="79.418557" rx="25.000000" ry="121.936740" fill="rgb(255, 165, 0)" style="fill-opacity:1.00" />
<ellipse cx="415.000000" cy="79.418557" rx="16.666667" ry="81.291160" fill="rgb(255, 255, 255)" style="fill-opacity:1.00" />
<rect height="121.936740" width="25.000000" x="415.000000" y="18.450187" fill="rgb(255, 255, 255)" style="fill-opacity:1.00" />
<rect height="30.484185" width="25.000000" x="415.000000" y="109.902742" fill="rgb(255, 165, 0)" style="fill-opacity:1.00" />
<rect height="91.452555" width="6.250000" x="433.750000" y="109.902742" fill="rgb(255, 165, 0)" style="fill-opacity:1.00" />
<!-- End 'G' -->
<!-- Begin 'T' -->
<rect height="0.026799" width="50.000000" x="390.000000" y="201.355296" fill="rgb(0, 100, 0)" style="fill-opacity:1.00" />
<rect height="0.167496" width="10.000000" x="410.000000" y="201.355296" fill="rgb(0, 100, 0)" style="fill-opacity:1.00" />
<!-- End 'T' -->
<!-- Begin 'C' -->
<ellipse cx="415.000000" cy="201.606540" rx="25.000000" ry="0.083748" fill="rgb(0, 0, 128)" style="fill-opacity:1.00" />
<ellipse cx="415.000000" cy="201.606540" rx="16.666667" ry="0.055832" fill="rgb(255, 255, 255)" style="fill-opacity:1.00" />
<rect height="0.083748" width="25.000000" x="415.000000" y="201.564666" fill="rgb(255, 255, 255)" style="fill-opacity:1.00" />
<!-- End 'C' -->
<!-- Begin 'A' -->
<polygon points=" 390.000000, 201.857783, 411.000000, 201.690287, 419.000000, 201.690287, 440.000000, 201.857783, 432.500000, 201.857783, 426.250000, 201.815909, 403.750000, 201.815909, 397.500000, 201.857783" fill="rgb(178, 34, 34)" style="fill-opacity:1.00" />
<!-- End 'A' -->
<!-- Begin 'A' -->
<polygon points=" 450.000000, 176.407320, 471.000000, -25.600884, 479.000000, -25.600884, 500.000000, 176.407320, 492.500000, 176.407320, 486.250000, 125.905269, 463.750000, 125.905269, 457.500000, 176.407320" fill="rgb(178, 34, 34)" style="fill-opacity:1.00" />
<polygon points=" 475.000000, 14.800756, 467.000000, 94.604038, 482.000000, 94.604038" fill="rgb(255, 255, 255)" style="fill-opacity:1.00" />
<!-- End 'A' -->
<!-- Begin 'C' -->
<ellipse cx="475.000000" cy="177.031658" rx="25.000000" ry="0.624339" fill="rgb(0, 0, 128)" style="fill-opacity:1.00" />
<ellipse cx="475.000000" cy="177.031658" rx="16.666667" ry="0.416226" fill="rgb(255, 255, 255)" style="fill-opacity:1.00" />
<rect height="0.624339" width="25.000000" x="475.000000" y="176.719489" fill="rgb(255, 255, 255)" style="fill-opacity:1.00" />
<!-- End 'C' -->
<!-- Begin 'T' -->
<rect height="0.177590" width="50.000000" x="450.000000" y="177.655997" fill="rgb(0, 100, 0)" style="fill-opacity:1.00" />
<rect height="1.109935" width="10.000000" x="470.000000" y="177.655997" fill="rgb(0, 100, 0)" style="fill-opacity:1.00" />
<!-- End 'T' -->
<!-- Begin 'G' -->
<ellipse cx="475.000000" cy="178.974045" rx="25.000000" ry="0.208113" fill="rgb(255, 165, 0)" style="fill-opacity:1.00" />
<ellipse cx="475.000000" cy="178.974045" rx="16.666667" ry="0.138742" fill="rgb(255, 255, 255)" style="fill-opacity:1.00" />
<rect height="0.208113" width="25.000000" x="475.000000" y="178.869988" fill="rgb(255, 255, 255)" style="fill-opacity:1.00" />
<rect height="0.052028" width="25.000000" x="475.000000" y="179.026073" fill="rgb(255, 165, 0)" style="fill-opacity:1.00" />
<rect height="0.156085" width="6.250000" x="493.750000" y="179.026073" fill="rgb(255, 165, 0)" style="fill-opacity:1.00" />
<!-- End 'G' -->
<!-- Begin 'A' -->
<polygon points=" 510.000000, 159.960284, 531.000000, -13.630455, 539.000000, -13.630455, 560.000000, 159.960284, 552.500000, 159.960284, 546.250000, 116.562600, 523.750000, 116.562600, 517.500000, 159.960284" fill="rgb(178, 34, 34)" style="fill-opacity:1.00" />
<polygon points=" 535.000000, 21.087693, 527.000000, 89.523989, 542.000000, 89.523989" fill="rgb(255, 255, 255)" style="fill-opacity:1.00" />
<!-- End 'A' -->
<!-- Begin 'T' -->
<rect height="0.534125" width="50.000000" x="510.000000" y="159.960284" fill="rgb(0, 100, 0)" style="fill-opacity:1.00" />
<rect height="3.338283" width="10.000000" x="530.000000" y="159.960284" fill="rgb(0, 100, 0)" style="fill-opacity:1.00" />
<!-- End 'T' -->
<!-- Begin 'G' -->
<ellipse cx="535.000000" cy="163.596629" rx="25.000000" ry="0.298061" fill="rgb(255, 165, 0)" style="fill-opacity:1.00" />
<ellipse cx="535.000000" cy="163.596629" rx="16.666667" ry="0.198707" fill="rgb(255, 255, 255)" style="fill-opacity:1.00" />
<rect height="0.298061" width="25.000000" x="535.000000" y="163.447598" fill="rgb(255, 255, 255)" style="fill-opacity:1.00" />
<rect height="0.074515" width="25.000000" x="535.000000" y="163.671144" fill="rgb(255, 165, 0)" style="fill-opacity:1.00" />
<rect height="0.223546" width="6.250000" x="553.750000" y="163.671144" fill="rgb(255, 165, 0)" style="fill-opacity:1.00" />
<!-- End 'G' -->
<!-- Begin 'C' -->
<ellipse cx="535.000000" cy="164.192751" rx="25.000000" ry="0.298061" fill="rgb(0, 0, 128)" style="fill-opacity:1.00" />
<ellipse cx="535.000000" cy="164.192751" rx="16.666667" ry="0.198707" fill="rgb(255, 255, 255)" style="fill-opacity:1.00" />
<rect height="0.298061" width="25.000000" x="535.000000" y="164.043720" fill="rgb(255, 255, 255)" style="fill-opacity:1.00" />
<!-- End 'C' -->
<!-- Begin 'C' -->
<ellipse cx="595.000000" cy="95.646037" rx="25.000000" ry="7.020354" fill="rgb(0, 0, 128)" style="fill-opacity:1.00" />
<ellipse cx="595.000000" cy="95.646037" rx="16.666667" ry="4.680236" fill="rgb(255, 255, 255)" style="fill-opacity:1.00" />
<rect height="7.020354" width="25.000000" x="595.000000" y="92.135859" fill="rgb(255, 255, 255)" style="fill-opacity:1.00" />
<!-- End 'C' -->
<!-- Begin 'T' -->
<rect height="1.623531" width="50.000000" x="570.000000" y="102.666391" fill="rgb(0, 100, 0)" style="fill-opacity:1.00" />
<rect height="10.147067" width="10.000000" x="590.000000" y="102.666391" fill="rgb(0, 100, 0)" style="fill-opacity:1.00" />
<!-- End 'T' -->
<!-- Begin 'G' -->
<ellipse cx="595.000000" cy="114.386646" rx="25.000000" ry="1.573189" fill="rgb(255, 165, 0)" style="fill-opacity:1.00" />
<ellipse cx="595.000000" cy="114.386646" rx="16.666667" ry="1.048792" fill="rgb(255, 255, 255)" style="fill-opacity:1.00" />
<rect height="1.573189" width="25.000000" x="595.000000" y="113.600052" fill="rgb(255, 255, 255)" style="fill-opacity:1.00" />
<rect height="0.393297" width="25.000000" x="595.000000" y="114.779943" fill="rgb(255, 165, 0)" style="fill-opacity:1.00" />
<rect height="1.179891" width="6.250000" x="613.750000" y="114.779943" fill="rgb(255, 165, 0)" style="fill-opacity:1.00" />
<!-- End 'G' -->
<!-- Begin 'A' -->
<polygon points=" 570.000000, 117.356040, 591.000000, 115.959835, 599.000000, 115.959835, 620.000000, 117.356040, 612.500000, 117.356040, 606.250000, 117.006988, 583.750000, 117.006988, 577.500000, 117.356040" fill="rgb(178, 34, 34)" style="fill-opacity:1.00" />
<!-- End 'A' -->
<!-- Begin 'G' -->
<ellipse cx="655.000000" cy="105.134400" rx="25.000000" ry="1.660995" fill="rgb(255, 165, 0)" style="fill-opacity:1.00" />
<ellipse cx="655.000000" cy="105.134400" rx="16.666667" ry="1.107330" fill="rgb(255, 255, 255)" style="fill-opacity:1.00" />
<rect height="1.660995" width="25.000000" x="655.000000" y="104.303903" fill="rgb(255, 255, 255)" style="fill-opacity:1.00" />
<rect height="0.415249" width="25.000000" x="655.000000" y="105.549649" fill="rgb(255, 165, 0)" style="fill-opacity:1.00" />
<rect height="1.245746" width="6.250000" x="673.750000" y="105.549649" fill="rgb(255, 165, 0)" style="fill-opacity:1.00" />
<!-- End 'G' -->
<!-- Begin 'A' -->
<polygon points=" 630.000000, 109.545981, 651.000000, 106.795396, 659.000000, 106.795396, 680.000000, 109.545981, 672.500000, 109.545981, 666.250000, 108.858335, 643.750000, 108.858335, 637.500000, 109.545981" fill="rgb(178, 34, 34)" style="fill-opacity:1.00" />
<!-- End 'A' -->
<!-- Begin 'C' -->
<ellipse cx="655.000000" cy="110.080973" rx="25.000000" ry="0.534992" fill="rgb(0, 0, 128)" style="fill-opacity:1.00" />
<ellipse cx="655.000000" cy="110.080973" rx="16.666667" ry="0.356661" fill="rgb(255, 255, 255)" style="fill-opacity:1.00" />
<rect height="0.534992" width="25.000000" x="655.000000" y="109.813477" fill="rgb(255, 255, 255)" style="fill-opacity:1.00" />
<!-- End 'C' -->
<!-- Begin 'T' -->
<rect height="0.164923" width="50.000000" x="630.000000" y="110.615964" fill="rgb(0, 100, 0)" style="fill-opacity:1.00" />
<rect height="1.030769" width="10.000000" x="650.000000" y="110.615964" fill="rgb(0, 100, 0)" style="fill-opacity:1.00" />
<!-- End 'T' -->
<!-- Begin 'T' -->
<rect height="19.507222" width="50.000000" x="690.000000" y="5.288705" fill="rgb(0, 100, 0)" style="fill-opacity:1.00" />
<rect height="121.920139" width="10.000000" x="710.000000" y="5.288705" fill="rgb(0, 100, 0)" style="fill-opacity:1.00" />
<!-- End 'T' -->
<!-- Begin 'A' -->
<polygon points=" 690.000000, 129.385989, 711.000000, 127.208844, 719.000000, 127.208844, 740.000000, 129.385989, 732.500000, 129.385989, 726.250000, 128.841703, 703.750000, 128.841703, 697.500000, 129.385989" fill="rgb(178, 34, 34)" style="fill-opacity:1.00" />
<!-- End 'A' -->
<!-- Begin 'C' -->
<ellipse cx="715.000000" cy="129.637198" rx="25.000000" ry="0.251209" fill="rgb(0, 0, 128)" style="fill-opacity:1.00" />
<ellipse cx="715.000000" cy="129.637198" rx="16.666667" ry="0.167473" fill="rgb(255, 255, 255)" style="fill-opacity:1.00" />
<rect height="0.251209" width="25.000000" x="715.000000" y="129.511594" fill="rgb(255, 255, 255)" style="fill-opacity:1.00" />
<!-- End 'C' -->
<!-- Begin 'G' -->
<ellipse cx="715.000000" cy="129.930275" rx="25.000000" ry="0.041868" fill="rgb(255, 165, 0)" style="fill-opacity:1.00" />
<ellipse cx="715.000000" cy="129.930275" rx="16.666667" ry="0.027912" fill="rgb(255, 255, 255)" style="fill-opacity:1.00" />
<rect height="0.041868" width="25.000000" x="715.000000" y="129.909341" fill="rgb(255, 255, 255)" style="fill-opacity:1.00" />
<rect height="0.010467" width="25.000000" x="715.000000" y="129.940743" fill="rgb(255, 165, 0)" style="fill-opacity:1.00" />
<rect height="0.031401" width="6.250000" x="733.750000" y="129.940743" fill="rgb(255, 165, 0)" style="fill-opacity:1.00" />
<!-- End 'G' -->
<!-- Begin 'T' -->
<rect height="18.348645" width="50.000000" x="750.000000" y="6.414454" fill="rgb(0, 100, 0)" style="fill-opacity:1.00" />
<rect height="114.679032" width="10.000000" x="770.000000" y="6.414454" fill="rgb(0, 100, 0)" style="fill-opacity:1.00" />
<!-- End 'T' -->
<!-- Begin 'A' -->
<polygon points=" 750.000000, 121.644827, 771.000000, 121.093486, 779.000000, 121.093486, 800.000000, 121.644827, 792.500000, 121.644827, 786.250000, 121.506992, 763.750000, 121.506992, 757.500000, 121.644827" fill="rgb(178, 34, 34)" style="fill-opacity:1.00" />
<!-- End 'A' -->
<!-- Begin 'G' -->
<ellipse cx="775.000000" cy="121.841735" rx="25.000000" ry="0.196908" fill="rgb(255, 165, 0)" style="fill-opacity:1.00" />
<ellipse cx="775.000000" cy="121.841735" rx="16.666667" ry="0.131272" fill="rgb(255, 255, 255)" style="fill-opacity:1.00" />
<rect height="0.196908" width="25.000000" x="775.000000" y="121.743281" fill="rgb(255, 255, 255)" style="fill-opacity:1.00" />
<rect height="0.049227" width="25.000000" x="775.000000" y="121.890962" fill="rgb(255, 165, 0)" style="fill-opacity:1.00" />
<rect height="0.147681" width="6.250000" x="793.750000" y="121.890962" fill="rgb(255, 165, 0)" style="fill-opacity:1.00" />
<!-- End 'G' -->
<!-- Begin 'C' -->
<ellipse cx="775.000000" cy="122.156787" rx="25.000000" ry="0.118145" fill="rgb(0, 0, 128)" style="fill-opacity:1.00" />
<ellipse cx="775.000000" cy="122.156787" rx="16.666667" ry="0.078763" fill="rgb(255, 255, 255)" style="fill-opacity:1.00" />
<rect height="0.118145" width="25.000000" x="775.000000" y="122.097715" fill="rgb(255, 255, 255)" style="fill-opacity:1.00" />
<!-- End 'C' -->
<!-- Begin 'C' -->
<ellipse cx="835.000000" cy="62.442502" rx="25.000000" ry="51.513811" fill="rgb(0, 0, 128)" style="fill-opacity:1.00" />
<ellipse cx="835.000000" cy="62.442502" rx="16.666667" ry="34.342540" fill="rgb(255, 255, 255)" style="fill-opacity:1.00" />
<rect height="51.513811" width="25.000000" x="835.000000" y="36.685597" fill="rgb(255, 255, 255)" style="fill-opacity:1.00" />
<!-- End 'C' -->
<!-- Begin 'T' -->
<rect height="0.056609" width="50.000000" x="810.000000" y="113.956313" fill="rgb(0, 100, 0)" style="fill-opacity:1.00" />
<rect height="0.353804" width="10.000000" x="830.000000" y="113.956313" fill="rgb(0, 100, 0)" style="fill-opacity:1.00" />
<!-- End 'T' -->
<!-- Begin 'G' -->
<ellipse cx="835.000000" cy="114.451638" rx="25.000000" ry="0.141521" fill="rgb(255, 165, 0)" style="fill-opacity:1.00" />
<ellipse cx="835.000000" cy="114.451638" rx="16.666667" ry="0.094348" fill="rgb(255, 255, 255)" style="fill-opacity:1.00" />
<rect height="0.141521" width="25.000000" x="835.000000" y="114.380877" fill="rgb(255, 255, 255)" style="fill-opacity:1.00" />
<rect height="0.035380" width="25.000000" x="835.000000" y="114.487018" fill="rgb(255, 165, 0)" style="fill-opacity:1.00" />
<rect height="0.106141" width="6.250000" x="853.750000" y="114.487018" fill="rgb(255, 165, 0)" style="fill-opacity:1.00" />
<!-- End 'G' -->
<!-- Begin 'A' -->
<polygon points=" 810.000000, 114.876202, 831.000000, 114.593159, 839.000000, 114.593159, 860.000000, 114.876202, 852.500000, 114.876202, 846.250000, 114.805441, 823.750000, 114.805441, 817.500000, 114.876202" fill="rgb(178, 34, 34)" style="fill-opacity:1.00" />
<!-- End 'A' -->
<text x="460.000000" y="165">
IC = 21.93
</text>

</svg>
