<?xml version="1.0" encoding="UTF-8" standalone="yes"?>
                 <!DOCTYPE svg PUBLIC "-//W3C//DTD SVG 1.0//EN" "http://www.w3.org/TR/2001/REC-SVG-20010904/DTD/svg10.dtd">
                 <svg height="170" width="1020" xmlns="http://www.w3.org/2000/svg" xmlns:xlink="http://www.w3.org/1999/xlink">
                 <line x1="85" y1="120" x2="987" y2="120" style="stroke:rgb(99,99,99);stroke-width:2" />
<rect height="7.000000" width="2.000000" x="85.000000" y="120.000000" fill="rgb(0, 0, 0)" style="fill-opacity:1.00" />
<text x="107.000000" y="140">
1
</text>
<rect height="7.000000" width="2.000000" x="145.000000" y="120.000000" fill="rgb(0, 0, 0)" style="fill-opacity:1.00" />
<text x="167.000000" y="140">
2
</text>
<rect height="7.000000" width="2.000000" x="205.000000" y="120.000000" fill="rgb(0, 0, 0)" style="fill-opacity:1.00" />
<text x="227.000000" y="140">
3
</text>
<rect height="7.000000" width="2.000000" x="265.000000" y="120.000000" fill="rgb(0, 0, 0)" style="fill-opacity:1.00" />
<text x="287.000000" y="140">
4
</text>
<rect height="7.000000" width="2.000000" x="325.000000" y="120.000000" fill="rgb(0, 0, 0)" style="fill-opacity:1.00" />
<text x="347.000000" y="140">
5
</text>
<rect height="7.000000" width="2.000000" x="385.000000" y="120.000000" fill="rgb(0, 0, 0)" style="fill-opacity:1.00" />
<text x="407.000000" y="140">
6
</text>
<rect height="7.000000" width="2.000000" x="445.000000" y="120.000000" fill="rgb(0, 0, 0)" style="fill-opacity:1.00" />
<text x="467.000000" y="140">
7
</text>
<rect height="7.000000" width="2.000000" x="505.000000" y="120.000000" fill="rgb(0, 0, 0)" style="fill-opacity:1.00" />
<text x="527.000000" y="140">
8
</text>
<rect height="7.000000" width="2.000000" x="565.000000" y="120.000000" fill="rgb(0, 0, 0)" style="fill-opacity:1.00" />
<text x="587.000000" y="140">
9
</text>
<rect height="7.000000" width="2.000000" x="625.000000" y="120.000000" fill="rgb(0, 0, 0)" style="fill-opacity:1.00" />
<text x="647.000000" y="140">
10
</text>
<rect height="7.000000" width="2.000000" x="685.000000" y="120.000000" fill="rgb(0, 0, 0)" style="fill-opacity:1.00" />
<text x="707.000000" y="140">
11
</text>
<rect height="7.000000" width="2.000000" x="745.000000" y="120.000000" fill="rgb(0, 0, 0)" style="fill-opacity:1.00" />
<text x="767.000000" y="140">
12
</text>
<rect height="7.000000" width="2.000000" x="805.000000" y="120.000000" fill="rgb(0, 0, 0)" style="fill-opacity:1.00" />
<text x="827.000000" y="140">
13
</text>
<rect height="7.000000" width="2.000000" x="865.000000" y="120.000000" fill="rgb(0, 0, 0)" style="fill-opacity:1.00" />
<text x="887.000000" y="140">
14
</text>
<rect height="7.000000" width="2.000000" x="925.000000" y="120.000000" fill="rgb(0, 0, 0)" style="fill-opacity:1.00" />
<text x="947.000000" y="140">
15
</text>
<rect height="7.000000" width="2.000000" x="985.000000" y="120.000000" fill="rgb(0, 0, 0)" style="fill-opacity:1.00" />
<line x1="80" y1="112" x2="80" y2="10" style="stroke:rgb(99,99,99);stroke-width:2" />
<rect height="2.000000" width="7.000000" x="73.000000" y="110.000000" fill="rgb(0, 0, 0)" style="fill-opacity:1.00" />
<text x="63" y="115">
0
</text>
<rect height="2.000000" width="7.000000" x="73.000000" y="60.000000" fill="rgb(0, 0, 0)" style="fill-opacity:1.00" />
<text x="63" y="65">
1
</text>
<rect height="2.000000" width="7.000000" x="73.000000" y="10.000000" fill="rgb(0, 0, 0)" style="fill-opacity:1.00" />
<text x="63" y="15">
2
</text>
<text x="50" y="65"
transform="rotate(-90, 50, 70)">
bits
</text>
<!-- Begin 'T' -->
<rect height="0.016721" width="50.000000" x="90.000000" y="109.644197" fill="rgb(0, 100, 0)" style="fill-opacity:1.00" />
<rect height="0.104505" width="10.000000" x="110.000000" y="109.644197" fill="rgb(0, 100, 0)" style="fill-opacity:1.00" />
<!-- End 'T' -->
<!-- Begin 'A' -->
<polygon points=" 90.000000, 109.833246, 111.000000, 109.748702, 119.000000, 109.748702, 140.000000, 109.833246, 132.500000, 109.833246, 126.250000, 109.812110, 103.750000, 109.812110, 97.500000, 109.833246" fill="rgb(178, 34, 34)" style="fill-opacity:1.00" />
<!-- End 'A' -->
<!-- Begin 'G' -->
<ellipse cx="115.000000" cy="109.875011" rx="25.000000" ry="0.041765" fill="rgb(255, 165, 0)" style="fill-opacity:1.00" />
<ellipse cx="115.000000" cy="109.875011" rx="16.666667" ry="0.027843" fill="rgb(255, 255, 255)" style="fill-opacity:1.00" />
<rect height="0.041765" width="25.000000" x="115.000000" y="109.854128" fill="rgb(255, 255, 255)" style="fill-opacity:1.00" />
<rect height="0.010441" width="25.000000" x="115.000000" y="109.885452" fill="rgb(255, 165, 0)" style="fill-opacity:1.00" />
<rect height="0.031324" width="6.250000" x="133.750000" y="109.885452" fill="rgb(255, 165, 0)" style="fill-opacity:1.00" />
<!-- End 'G' -->
<!-- Begin 'C' -->
<ellipse cx="115.000000" cy="109.958388" rx="25.000000" ry="0.041612" fill="rgb(0, 0, 128)" style="fill-opacity:1.00" />
<ellipse cx="115.000000" cy="109.958388" rx="16.666667" ry="0.027742" fill="rgb(255, 255, 255)" style="fill-opacity:1.00" />
<rect height="0.041612" width="25.000000" x="115.000000" y="109.937582" fill="rgb(255, 255, 255)" style="fill-opacity:1.00" />
<!-- End 'C' -->
<!-- Begin 'C' -->
<ellipse cx="175.000000" cy="109.290837" rx="25.000000" ry="0.125726" fill="rgb(0, 0, 128)" style="fill-opacity:1.00" />
<ellipse cx="175.000000" cy="109.290837" rx="16.666667" ry="0.083817" fill="rgb(255, 255, 255)" style="fill-opacity:1.00" />
<rect height="0.125726" width="25.000000" x="175.000000" y="109.227974" fill="rgb(255, 255, 255)" style="fill-opacity:1.00" />
<!-- End 'C' -->
<!-- Begin 'T' -->
<rect height="0.034632" width="50.000000" x="150.000000" y="109.416563" fill="rgb(0, 100, 0)" style="fill-opacity:1.00" />
<rect height="0.216448" width="10.000000" x="170.000000" y="109.416563" fill="rgb(0, 100, 0)" style="fill-opacity:1.00" />
<!-- End 'T' -->
<!-- Begin 'A' -->
<polygon points=" 150.000000, 109.836754, 171.000000, 109.633012, 179.000000, 109.633012, 200.000000, 109.836754, 192.500000, 109.836754, 186.250000, 109.785819, 163.750000, 109.785819, 157.500000, 109.836754" fill="rgb(178, 34, 34)" style="fill-opacity:1.00" />
<!-- End 'A' -->
<!-- Begin 'G' -->
<ellipse cx="175.000000" cy="109.918377" rx="25.000000" ry="0.081623" fill="rgb(255, 165, 0)" style="fill-opacity:1.00" />
<ellipse cx="175.000000" cy="109.918377" rx="16.666667" ry="0.054415" fill="rgb(255, 255, 255)" style="fill-opacity:1.00" />
<rect height="0.081623" width="25.000000" x="175.000000" y="109.877566" fill="rgb(255, 255, 255)" style="fill-opacity:1.00" />
<rect height="0.020406" width="25.000000" x="175.000000" y="109.938783" fill="rgb(255, 165, 0)" style="fill-opacity:1.00" />
<rect height="0.061217" width="6.250000" x="193.750000" y="109.938783" fill="rgb(255, 165, 0)" style="fill-opacity:1.00" />
<!-- End 'G' -->
<!-- Begin 'T' -->
<rect height="0.242047" width="50.000000" x="210.000000" y="105.682658" fill="rgb(0, 100, 0)" style="fill-opacity:1.00" />
<rect height="1.512794" width="10.000000" x="230.000000" y="105.682658" fill="rgb(0, 100, 0)" style="fill-opacity:1.00" />
<!-- End 'T' -->
<!-- Begin 'A' -->
<polygon points=" 210.000000, 108.568923, 231.000000, 107.195452, 239.000000, 107.195452, 260.000000, 108.568923, 252.500000, 108.568923, 246.250000, 108.225555, 223.750000, 108.225555, 217.500000, 108.568923" fill="rgb(178, 34, 34)" style="fill-opacity:1.00" />
<!-- End 'A' -->
<!-- Begin 'C' -->
<ellipse cx="235.000000" cy="108.956357" rx="25.000000" ry="0.387434" fill="rgb(0, 0, 128)" style="fill-opacity:1.00" />
<ellipse cx="235.000000" cy="108.956357" rx="16.666667" ry="0.258289" fill="rgb(255, 255, 255)" style="fill-opacity:1.00" />
<rect height="0.387434" width="25.000000" x="235.000000" y="108.762640" fill="rgb(255, 255, 255)" style="fill-opacity:1.00" />
<!-- End 'C' -->
<!-- Begin 'G' -->
<ellipse cx="235.000000" cy="109.671895" rx="25.000000" ry="0.328105" fill="rgb(255, 165, 0)" style="fill-opacity:1.00" />
<ellipse cx="235.000000" cy="109.671895" rx="16.666667" ry="0.218737" fill="rgb(255, 255, 255)" style="fill-opacity:1.00" />
<rect height="0.328105" width="25.000000" x="235.000000" y="109.507843" fill="rgb(255, 255, 255)" style="fill-opacity:1.00" />
<rect height="0.082026" width="25.000000" x="235.000000" y="109.753921" fill="rgb(255, 165, 0)" style="fill-opacity:1.00" />
<rect height="0.246079" width="6.250000" x="253.750000" y="109.753921" fill="rgb(255, 165, 0)" style="fill-opacity:1.00" />
<!-- End 'G' -->
<!-- Begin 'A' -->
<polygon points=" 270.000000, 108.434462, 291.000000, 107.545460, 299.000000, 107.545460, 320.000000, 108.434462, 312.500000, 108.434462, 306.250000, 108.212211, 283.750000, 108.212211, 277.500000, 108.434462" fill="rgb(178, 34, 34)" style="fill-opacity:1.00" />
<!-- End 'A' -->
<!-- Begin 'T' -->
<rect height="0.094588" width="50.000000" x="270.000000" y="108.434462" fill="rgb(0, 100, 0)" style="fill-opacity:1.00" />
<rect height="0.591172" width="10.000000" x="290.000000" y="108.434462" fill="rgb(0, 100, 0)" style="fill-opacity:1.00" />
<!-- End 'T' -->
<!-- Begin 'G' -->
<ellipse cx="295.000000" cy="109.279462" rx="25.000000" ry="0.253828" fill="rgb(255, 165, 0)" style="fill-opacity:1.00" />
<ellipse cx="295.000000" cy="109.279462" rx="16.666667" ry="0.169219" fill="rgb(255, 255, 255)" style="fill-opacity:1.00" />
<rect height="0.253828" width="25.000000" x="295.000000" y="109.152548" fill="rgb(255, 255, 255)" style="fill-opacity:1.00" />
<rect height="0.063457" width="25.000000" x="295.000000" y="109.342919" fill="rgb(255, 165, 0)" style="fill-opacity:1.00" />
<rect height="0.190371" width="6.250000" x="313.750000" y="109.342919" fill="rgb(255, 165, 0)" style="fill-opacity:1.00" />
<!-- End 'G' -->
<!-- Begin 'C' -->
<ellipse cx="295.000000" cy="109.766645" rx="25.000000" ry="0.233355" fill="rgb(0, 0, 128)" style="fill-opacity:1.00" />
<ellipse cx="295.000000" cy="109.766645" rx="16.666667" ry="0.155570" fill="rgb(255, 255, 255)" style="fill-opacity:1.00" />
<rect height="0.233355" width="25.000000" x="295.000000" y="109.649968" fill="rgb(255, 255, 255)" style="fill-opacity:1.00" />
<!-- End 'C' -->
<!-- Begin 'T' -->
<rect height="4.790280" width="50.000000" x="330.000000" y="69.013633" fill="rgb(0, 100, 0)" style="fill-opacity:1.00" />
<rect height="29.939248" width="10.000000" x="350.000000" y="69.013633" fill="rgb(0, 100, 0)" style="fill-opacity:1.00" />
<!-- End 'T' -->
<!-- Begin 'A' -->
<polygon points=" 330.000000, 106.148489, 351.000000, 98.952881, 359.000000, 98.952881, 380.000000, 106.148489, 372.500000, 106.148489, 366.250000, 104.349587, 343.750000, 104.349587, 337.500000, 106.148489" fill="rgb(178, 34, 34)" style="fill-opacity:1.00" />
<!-- End 'A' -->
<!-- Begin 'G' -->
<ellipse cx="355.000000" cy="107.393884" rx="25.000000" ry="1.245395" fill="rgb(255, 165, 0)" style="fill-opacity:1.00" />
<ellipse cx="355.000000" cy="107.393884" rx="16.666667" ry="0.830263" fill="rgb(255, 255, 255)" style="fill-opacity:1.00" />
<rect height="1.245395" width="25.000000" x="355.000000" y="106.771186" fill="rgb(255, 255, 255)" style="fill-opacity:1.00" />
<rect height="0.311349" width="25.000000" x="355.000000" y="107.705233" fill="rgb(255, 165, 0)" style="fill-opacity:1.00" />
<rect height="0.934046" width="6.250000" x="373.750000" y="107.705233" fill="rgb(255, 165, 0)" style="fill-opacity:1.00" />
<!-- End 'G' -->
<!-- Begin 'C' -->
<ellipse cx="355.000000" cy="109.319639" rx="25.000000" ry="0.680361" fill="rgb(0, 0, 128)" style="fill-opacity:1.00" />
<ellipse cx="355.000000" cy="109.319639" rx="16.666667" ry="0.453574" fill="rgb(255, 255, 255)" style="fill-opacity:1.00" />
<rect height="0.680361" width="25.000000" x="355.000000" y="108.979459" fill="rgb(255, 255, 255)" style="fill-opacity:1.00" />
<!-- End 'C' -->
<!-- Begin 'G' -->
<ellipse cx="415.000000" cy="78.638277" rx="25.000000" ry="15.908462" fill="rgb(255, 165, 0)" style="fill-opacity:1.00" />
<ellipse cx="415.000000" cy="78.638277" rx="16.666667" ry="10.605641" fill="rgb(255, 255, 255)" style="fill-opacity:1.00" />
<rect height="15.908462" width="25.000000" x="415.000000" y="70.684046" fill="rgb(255, 255, 255)" style="fill-opacity:1.00" />
<rect height="3.977116" width="25.000000" x="415.000000" y="82.615392" fill="rgb(255, 165, 0)" style="fill-opacity:1.00" />
<rect height="11.931347" width="6.250000" x="433.750000" y="82.615392" fill="rgb(255, 165, 0)" style="fill-opacity:1.00" />
<!-- End 'G' -->
<!-- Begin 'A' -->
<polygon points=" 390.000000, 108.905355, 411.000000, 94.546739, 419.000000, 94.546739, 440.000000, 108.905355, 432.500000, 108.905355, 426.250000, 105.315701, 403.750000, 105.315701, 397.500000, 108.905355" fill="rgb(178, 34, 34)" style="fill-opacity:1.00" />
<polygon points=" 415.000000, 97.418462, 407.000000, 102.161908, 422.000000, 102.161908" fill="rgb(255, 255, 255)" style="fill-opacity:1.00" />
<!-- End 'A' -->
<!-- Begin 'C' -->
<ellipse cx="415.000000" cy="109.243807" rx="25.000000" ry="0.338452" fill="rgb(0, 0, 128)" style="fill-opacity:1.00" />
<ellipse cx="415.000000" cy="109.243807" rx="16.666667" ry="0.225635" fill="rgb(255, 255, 255)" style="fill-opacity:1.00" />
<rect height="0.338452" width="25.000000" x="415.000000" y="109.074581" fill="rgb(255, 255, 255)" style="fill-opacity:1.00" />
<!-- End 'C' -->
<!-- Begin 'T' -->
<rect height="0.066839" width="50.000000" x="390.000000" y="109.582259" fill="rgb(0, 100, 0)" style="fill-opacity:1.00" />
<rect height="0.417741" width="10.000000" x="410.000000" y="109.582259" fill="rgb(0, 100, 0)" style="fill-opacity:1.00" />
<!-- End 'T' -->
<!-- Begin 'T' -->
<rect height="13.611974" width="50.000000" x="450.000000" y="22.023119" fill="rgb(0, 100, 0)" style="fill-opacity:1.00" />
<rect height="85.074835" width="10.000000" x="470.000000" y="22.023119" fill="rgb(0, 100, 0)" style="fill-opacity:1.00" />
<!-- End 'T' -->
<!-- Begin 'A' -->
<polygon points=" 450.000000, 109.386896, 471.000000, 107.097954, 479.000000, 107.097954, 500.000000, 109.386896, 492.500000, 109.386896, 486.250000, 108.814661, 463.750000, 108.814661, 457.500000, 109.386896" fill="rgb(178, 34, 34)" style="fill-opacity:1.00" />
<!-- End 'A' -->
<!-- Begin 'C' -->
<ellipse cx="475.000000" cy="109.570609" rx="25.000000" ry="0.183712" fill="rgb(0, 0, 128)" style="fill-opacity:1.00" />
<ellipse cx="475.000000" cy="109.570609" rx="16.666667" ry="0.122475" fill="rgb(255, 255, 255)" style="fill-opacity:1.00" />
<rect height="0.183712" width="25.000000" x="475.000000" y="109.478753" fill="rgb(255, 255, 255)" style="fill-opacity:1.00" />
<!-- End 'C' -->
<!-- Begin 'G' -->
<ellipse cx="475.000000" cy="109.877161" rx="25.000000" ry="0.122839" fill="rgb(255, 165, 0)" style="fill-opacity:1.00" />
<ellipse cx="475.000000" cy="109.877161" rx="16.666667" ry="0.081893" fill="rgb(255, 255, 255)" style="fill-opacity:1.00" />
<rect height="0.122839" width="25.000000" x="475.000000" y="109.815741" fill="rgb(255, 255, 255)" style="fill-opacity:1.00" />
<rect height="0.030710" width="25.000000" x="475.000000" y="109.907870" fill="rgb(255, 165, 0)" style="fill-opacity:1.00" />
<rect height="0.092130" width="6.250000" x="493.750000" y="109.907870" fill="rgb(255, 165, 0)" style="fill-opacity:1.00" />
<!-- End 'G' -->
<!-- Begin 'T' -->
<rect height="1.962372" width="50.000000" x="510.000000" y="88.478700" fill="rgb(0, 100, 0)" style="fill-opacity:1.00" />
<rect height="12.264822" width="10.000000" x="530.000000" y="88.478700" fill="rgb(0, 100, 0)" style="fill-opacity:1.00" />
<!-- End 'T' -->
<!-- Begin 'A' -->
<polygon points=" 510.000000, 106.287598, 531.000000, 100.743522, 539.000000, 100.743522, 560.000000, 106.287598, 552.500000, 106.287598, 546.250000, 104.901579, 523.750000, 104.901579, 517.500000, 106.287598" fill="rgb(178, 34, 34)" style="fill-opacity:1.00" />
<!-- End 'A' -->
<!-- Begin 'G' -->
<ellipse cx="535.000000" cy="107.429490" rx="25.000000" ry="1.141893" fill="rgb(255, 165, 0)" style="fill-opacity:1.00" />
<ellipse cx="535.000000" cy="107.429490" rx="16.666667" ry="0.761262" fill="rgb(255, 255, 255)" style="fill-opacity:1.00" />
<rect height="1.141893" width="25.000000" x="535.000000" y="106.858544" fill="rgb(255, 255, 255)" style="fill-opacity:1.00" />
<rect height="0.285473" width="25.000000" x="535.000000" y="107.714963" fill="rgb(255, 165, 0)" style="fill-opacity:1.00" />
<rect height="0.856419" width="6.250000" x="553.750000" y="107.714963" fill="rgb(255, 165, 0)" style="fill-opacity:1.00" />
<!-- End 'G' -->
<!-- Begin 'C' -->
<ellipse cx="535.000000" cy="109.285691" rx="25.000000" ry="0.714309" fill="rgb(0, 0, 128)" style="fill-opacity:1.00" />
<ellipse cx="535.000000" cy="109.285691" rx="16.666667" ry="0.476206" fill="rgb(255, 255, 255)" style="fill-opacity:1.00" />
<rect height="0.714309" width="25.000000" x="535.000000" y="108.928537" fill="rgb(255, 255, 255)" style="fill-opacity:1.00" />
<!-- End 'C' -->
<!-- Begin 'T' -->
<rect height="2.277445" width="50.000000" x="570.000000" y="84.999985" fill="rgb(0, 100, 0)" style="fill-opacity:1.00" />
<rect height="14.234030" width="10.000000" x="590.000000" y="84.999985" fill="rgb(0, 100, 0)" style="fill-opacity:1.00" />
<!-- End 'T' -->
<!-- Begin 'A' -->
<polygon points=" 570.000000, 106.256173, 591.000000, 99.234015, 599.000000, 99.234015, 620.000000, 106.256173, 612.500000, 106.256173, 606.250000, 104.500633, 583.750000, 104.500633, 577.500000, 106.256173" fill="rgb(178, 34, 34)" style="fill-opacity:1.00" />
<!-- End 'A' -->
<!-- Begin 'G' -->
<ellipse cx="595.000000" cy="107.724960" rx="25.000000" ry="1.468788" fill="rgb(255, 165, 0)" style="fill-opacity:1.00" />
<ellipse cx="595.000000" cy="107.724960" rx="16.666667" ry="0.979192" fill="rgb(255, 255, 255)" style="fill-opacity:1.00" />
<rect height="1.468788" width="25.000000" x="595.000000" y="106.990566" fill="rgb(255, 255, 255)" style="fill-opacity:1.00" />
<rect height="0.367197" width="25.000000" x="595.000000" y="108.092157" fill="rgb(255, 165, 0)" style="fill-opacity:1.00" />
<rect height="1.101591" width="6.250000" x="613.750000" y="108.092157" fill="rgb(255, 165, 0)" style="fill-opacity:1.00" />
<!-- End 'G' -->
<!-- Begin 'C' -->
<ellipse cx="595.000000" cy="109.596874" rx="25.000000" ry="0.403126" fill="rgb(0, 0, 128)" style="fill-opacity:1.00" />
<ellipse cx="595.000000" cy="109.596874" rx="16.666667" ry="0.268751" fill="rgb(255, 255, 255)" style="fill-opacity:1.00" />
<rect height="0.403126" width="25.000000" x="595.000000" y="109.395311" fill="rgb(255, 255, 255)" style="fill-opacity:1.00" />
<!-- End 'C' -->
<!-- Begin 'A' -->
<polygon points=" 630.000000, 98.191163, 651.000000, 61.825265, 659.000000, 61.825265, 680.000000, 98.191163, 672.500000, 98.191163, 666.250000, 89.099689, 643.750000, 89.099689, 637.500000, 98.191163" fill="rgb(178, 34, 34)" style="fill-opacity:1.00" />
<polygon points=" 655.000000, 69.098444, 647.000000, 82.644804, 662.000000, 82.644804" fill="rgb(255, 255, 255)" style="fill-opacity:1.00" />
<!-- End 'A' -->
<!-- Begin 'G' -->
<ellipse cx="655.000000" cy="102.806152" rx="25.000000" ry="4.614988" fill="rgb(255, 165, 0)" style="fill-opacity:1.00" />
<ellipse cx="655.000000" cy="102.806152" rx="16.666667" ry="3.076659" fill="rgb(255, 255, 255)" style="fill-opacity:1.00" />
<rect height="4.614988" width="25.000000" x="655.000000" y="100.498657" fill="rgb(255, 255, 255)" style="fill-opacity:1.00" />
<rect height="1.153747" width="25.000000" x="655.000000" y="103.959899" fill="rgb(255, 165, 0)" style="fill-opacity:1.00" />
<rect height="3.461241" width="6.250000" x="673.750000" y="103.959899" fill="rgb(255, 165, 0)" style="fill-opacity:1.00" />
<!-- End 'G' -->
<!-- Begin 'T' -->
<rect height="0.287182" width="50.000000" x="630.000000" y="107.421140" fill="rgb(0, 100, 0)" style="fill-opacity:1.00" />
<rect height="1.794890" width="10.000000" x="650.000000" y="107.421140" fill="rgb(0, 100, 0)" style="fill-opacity:1.00" />
<!-- End 'T' -->
<!-- Begin 'C' -->
<ellipse cx="655.000000" cy="109.608015" rx="25.000000" ry="0.391985" fill="rgb(0, 0, 128)" style="fill-opacity:1.00" />
<ellipse cx="655.000000" cy="109.608015" rx="16.666667" ry="0.261323" fill="rgb(255, 255, 255)" style="fill-opacity:1.00" />
<rect height="0.391985" width="25.000000" x="655.000000" y="109.412022" fill="rgb(255, 255, 255)" style="fill-opacity:1.00" />
<!-- End 'C' -->
<!-- Begin 'C' -->
<ellipse cx="715.000000" cy="84.959152" rx="25.000000" ry="12.019024" fill="rgb(0, 0, 128)" style="fill-opacity:1.00" />
<ellipse cx="715.000000" cy="84.959152" rx="16.666667" ry="8.012683" fill="rgb(255, 255, 255)" style="fill-opacity:1.00" />
<rect height="12.019024" width="25.000000" x="715.000000" y="78.949640" fill="rgb(255, 255, 255)" style="fill-opacity:1.00" />
<!-- End 'C' -->
<!-- Begin 'T' -->
<rect height="1.642654" width="50.000000" x="690.000000" y="96.978177" fill="rgb(0, 100, 0)" style="fill-opacity:1.00" />
<rect height="10.266589" width="10.000000" x="710.000000" y="96.978177" fill="rgb(0, 100, 0)" style="fill-opacity:1.00" />
<!-- End 'T' -->
<!-- Begin 'A' -->
<polygon points=" 690.000000, 109.272432, 711.000000, 107.244766, 719.000000, 107.244766, 740.000000, 109.272432, 732.500000, 109.272432, 726.250000, 108.765515, 703.750000, 108.765515, 697.500000, 109.272432" fill="rgb(178, 34, 34)" style="fill-opacity:1.00" />
<!-- End 'A' -->
<!-- Begin 'G' -->
<ellipse cx="715.000000" cy="109.636216" rx="25.000000" ry="0.363784" fill="rgb(255, 165, 0)" style="fill-opacity:1.00" />
<ellipse cx="715.000000" cy="109.636216" rx="16.666667" ry="0.242523" fill="rgb(255, 255, 255)" style="fill-opacity:1.00" />
<rect height="0.363784" width="25.000000" x="715.000000" y="109.454324" fill="rgb(255, 255, 255)" style="fill-opacity:1.00" />
<rect height="0.090946" width="25.000000" x="715.000000" y="109.727162" fill="rgb(255, 165, 0)" style="fill-opacity:1.00" />
<rect height="0.272838" width="6.250000" x="733.750000" y="109.727162" fill="rgb(255, 165, 0)" style="fill-opacity:1.00" />
<!-- End 'G' -->
<!-- Begin 'A' -->
<polygon points=" 750.000000, 99.021433, 771.000000, 86.281094, 779.000000, 86.281094, 800.000000, 99.021433, 792.500000, 99.021433, 786.250000, 95.836348, 763.750000, 95.836348, 757.500000, 99.021433" fill="rgb(178, 34, 34)" style="fill-opacity:1.00" />
<polygon points=" 775.000000, 88.829162, 767.000000, 92.925297, 782.000000, 92.925297" fill="rgb(255, 255, 255)" style="fill-opacity:1.00" />
<!-- End 'A' -->
<!-- Begin 'T' -->
<rect height="1.183321" width="50.000000" x="750.000000" y="99.021433" fill="rgb(0, 100, 0)" style="fill-opacity:1.00" />
<rect height="7.395757" width="10.000000" x="770.000000" y="99.021433" fill="rgb(0, 100, 0)" style="fill-opacity:1.00" />
<!-- End 'T' -->
<!-- Begin 'C' -->
<ellipse cx="775.000000" cy="107.857250" rx="25.000000" ry="1.440060" fill="rgb(0, 0, 128)" style="fill-opacity:1.00" />
<ellipse cx="775.000000" cy="107.857250" rx="16.666667" ry="0.960040" fill="rgb(255, 255, 255)" style="fill-opacity:1.00" />
<rect height="1.440060" width="25.000000" x="775.000000" y="107.137220" fill="rgb(255, 255, 255)" style="fill-opacity:1.00" />
<!-- End 'C' -->
<!-- Begin 'G' -->
<ellipse cx="775.000000" cy="109.648655" rx="25.000000" ry="0.351345" fill="rgb(255, 165, 0)" style="fill-opacity:1.00" />
<ellipse cx="775.000000" cy="109.648655" rx="16.666667" ry="0.234230" fill="rgb(255, 255, 255)" style="fill-opacity:1.00" />
<rect height="0.351345" width="25.000000" x="775.000000" y="109.472982" fill="rgb(255, 255, 255)" style="fill-opacity:1.00" />
<rect height="0.087836" width="25.000000" x="775.000000" y="109.736491" fill="rgb(255, 165, 0)" style="fill-opacity:1.00" />
<rect height="0.263509" width="6.250000" x="793.750000" y="109.736491" fill="rgb(255, 165, 0)" style="fill-opacity:1.00" />
<!-- End 'G' -->
<!-- Begin 'T' -->
<rect height="0.305124" width="50.000000" x="810.000000" y="105.274870" fill="rgb(0, 100, 0)" style="fill-opacity:1.00" />
<rect height="1.907023" width="10.000000" x="830.000000" y="105.274870" fill="rgb(0, 100, 0)" style="fill-opacity:1.00" />
<!-- End 'T' -->
<!-- Begin 'C' -->
<ellipse cx="835.000000" cy="107.762861" rx="25.000000" ry="0.580968" fill="rgb(0, 0, 128)" style="fill-opacity:1.00" />
<ellipse cx="835.000000" cy="107.762861" rx="16.666667" ry="0.387312" fill="rgb(255, 255, 255)" style="fill-opacity:1.00" />
<rect height="0.580968" width="25.000000" x="835.000000" y="107.472376" fill="rgb(255, 255, 255)" style="fill-opacity:1.00" />
<!-- End 'C' -->
<!-- Begin 'A' -->
<polygon points=" 810.000000, 109.227143, 831.000000, 108.343829, 839.000000, 108.343829, 860.000000, 109.227143, 852.500000, 109.227143, 846.250000, 109.006314, 823.750000, 109.006314, 817.500000, 109.227143" fill="rgb(178, 34, 34)" style="fill-opacity:1.00" />
<!-- End 'A' -->
<!-- Begin 'G' -->
<ellipse cx="835.000000" cy="109.613571" rx="25.000000" ry="0.386429" fill="rgb(255, 165, 0)" style="fill-opacity:1.00" />
<ellipse cx="835.000000" cy="109.613571" rx="16.666667" ry="0.257619" fill="rgb(255, 255, 255)" style="fill-opacity:1.00" />
<rect height="0.386429" width="25.000000" x="835.000000" y="109.420357" fill="rgb(255, 255, 255)" style="fill-opacity:1.00" />
<rect height="0.096607" width="25.000000" x="835.000000" y="109.710179" fill="rgb(255, 165, 0)" style="fill-opacity:1.00" />
<rect height="0.289821" width="6.250000" x="853.750000" y="109.710179" fill="rgb(255, 165, 0)" style="fill-opacity:1.00" />
<!-- End 'G' -->
<!-- Begin 'A' -->
<polygon points=" 870.000000, 103.958498, 891.000000, 99.806032, 899.000000, 99.806032, 920.000000, 103.958498, 912.500000, 103.958498, 906.250000, 102.920381, 883.750000, 102.920381, 877.500000, 103.958498" fill="rgb(178, 34, 34)" style="fill-opacity:1.00" />
<!-- End 'A' -->
<!-- Begin 'T' -->
<rect height="0.566244" width="50.000000" x="870.000000" y="103.958498" fill="rgb(0, 100, 0)" style="fill-opacity:1.00" />
<rect height="3.539026" width="10.000000" x="890.000000" y="103.958498" fill="rgb(0, 100, 0)" style="fill-opacity:1.00" />
<!-- End 'T' -->
<!-- Begin 'G' -->
<ellipse cx="895.000000" cy="108.222204" rx="25.000000" ry="0.724680" fill="rgb(255, 165, 0)" style="fill-opacity:1.00" />
<ellipse cx="895.000000" cy="108.222204" rx="16.666667" ry="0.483120" fill="rgb(255, 255, 255)" style="fill-opacity:1.00" />
<rect height="0.724680" width="25.000000" x="895.000000" y="107.859864" fill="rgb(255, 255, 255)" style="fill-opacity:1.00" />
<rect height="0.181170" width="25.000000" x="895.000000" y="108.403374" fill="rgb(255, 165, 0)" style="fill-opacity:1.00" />
<rect height="0.543510" width="6.250000" x="913.750000" y="108.403374" fill="rgb(255, 165, 0)" style="fill-opacity:1.00" />
<!-- End 'G' -->
<!-- Begin 'C' -->
<ellipse cx="895.000000" cy="109.473442" rx="25.000000" ry="0.526558" fill="rgb(0, 0, 128)" style="fill-opacity:1.00" />
<ellipse cx="895.000000" cy="109.473442" rx="16.666667" ry="0.351039" fill="rgb(255, 255, 255)" style="fill-opacity:1.00" />
<rect height="0.526558" width="25.000000" x="895.000000" y="109.210162" fill="rgb(255, 255, 255)" style="fill-opacity:1.00" />
<!-- End 'C' -->
<!-- Begin 'G' -->
<ellipse cx="955.000000" cy="108.778036" rx="25.000000" ry="0.236553" fill="rgb(255, 165, 0)" style="fill-opacity:1.00" />
<ellipse cx="955.000000" cy="108.778036" rx="16.666667" ry="0.157702" fill="rgb(255, 255, 255)" style="fill-opacity:1.00" />
<rect height="0.236553" width="25.000000" x="955.000000" y="108.659759" fill="rgb(255, 255, 255)" style="fill-opacity:1.00" />
<rect height="0.059138" width="25.000000" x="955.000000" y="108.837174" fill="rgb(255, 165, 0)" style="fill-opacity:1.00" />
<rect height="0.177415" width="6.250000" x="973.750000" y="108.837174" fill="rgb(255, 165, 0)" style="fill-opacity:1.00" />
<!-- End 'G' -->
<!-- Begin 'A' -->
<polygon points=" 930.000000, 109.377496, 951.000000, 109.014589, 959.000000, 109.014589, 980.000000, 109.377496, 972.500000, 109.377496, 966.250000, 109.286769, 943.750000, 109.286769, 937.500000, 109.377496" fill="rgb(178, 34, 34)" style="fill-opacity:1.00" />
<!-- End 'A' -->
<!-- Begin 'T' -->
<rect height="0.056997" width="50.000000" x="930.000000" y="109.377496" fill="rgb(0, 100, 0)" style="fill-opacity:1.00" />
<rect height="0.356229" width="10.000000" x="950.000000" y="109.377496" fill="rgb(0, 100, 0)" style="fill-opacity:1.00" />
<!-- End 'T' -->
<!-- Begin 'C' -->
<ellipse cx="955.000000" cy="109.866863" rx="25.000000" ry="0.133137" fill="rgb(0, 0, 128)" style="fill-opacity:1.00" />
<ellipse cx="955.000000" cy="109.866863" rx="16.666667" ry="0.088758" fill="rgb(255, 255, 255)" style="fill-opacity:1.00" />
<rect height="0.133137" width="25.000000" x="955.000000" y="109.800294" fill="rgb(255, 255, 255)" style="fill-opacity:1.00" />
<!-- End 'C' -->
<text x="520.000000" y="165">
IC = 7.12
</text>

</svg>
