<?xml version="1.0" encoding="UTF-8" standalone="yes"?>
                 <!DOCTYPE svg PUBLIC "-//W3C//DTD SVG 1.0//EN" "http://www.w3.org/TR/2001/REC-SVG-20010904/DTD/svg10.dtd">
                 <svg height="170" width="720" xmlns="http://www.w3.org/2000/svg" xmlns:xlink="http://www.w3.org/1999/xlink">
                 <line x1="85" y1="120" x2="687" y2="120" style="stroke:rgb(99,99,99);stroke-width:2" />
<rect height="7.000000" width="2.000000" x="85.000000" y="120.000000" fill="rgb(0, 0, 0)" style="fill-opacity:1.00" />
<text x="107.000000" y="140">
1
</text>
<rect height="7.000000" width="2.000000" x="145.000000" y="120.000000" fill="rgb(0, 0, 0)" style="fill-opacity:1.00" />
<text x="167.000000" y="140">
2
</text>
<rect height="7.000000" width="2.000000" x="205.000000" y="120.000000" fill="rgb(0, 0, 0)" style="fill-opacity:1.00" />
<text x="227.000000" y="140">
3
</text>
<rect height="7.000000" width="2.000000" x="265.000000" y="120.000000" fill="rgb(0, 0, 0)" style="fill-opacity:1.00" />
<text x="287.000000" y="140">
4
</text>
<rect height="7.000000" width="2.000000" x="325.000000" y="120.000000" fill="rgb(0, 0, 0)" style="fill-opacity:1.00" />
<text x="347.000000" y="140">
5
</text>
<rect height="7.000000" width="2.000000" x="385.000000" y="120.000000" fill="rgb(0, 0, 0)" style="fill-opacity:1.00" />
<text x="407.000000" y="140">
6
</text>
<rect height="7.000000" width="2.000000" x="445.000000" y="120.000000" fill="rgb(0, 0, 0)" style="fill-opacity:1.00" />
<text x="467.000000" y="140">
7
</text>
<rect height="7.000000" width="2.000000" x="505.000000" y="120.000000" fill="rgb(0, 0, 0)" style="fill-opacity:1.00" />
<text x="527.000000" y="140">
8
</text>
<rect height="7.000000" width="2.000000" x="565.000000" y="120.000000" fill="rgb(0, 0, 0)" style="fill-opacity:1.00" />
<text x="587.000000" y="140">
9
</text>
<rect height="7.000000" width="2.000000" x="625.000000" y="120.000000" fill="rgb(0, 0, 0)" style="fill-opacity:1.00" />
<text x="647.000000" y="140">
10
</text>
<rect height="7.000000" width="2.000000" x="685.000000" y="120.000000" fill="rgb(0, 0, 0)" style="fill-opacity:1.00" />
<line x1="80" y1="112" x2="80" y2="10" style="stroke:rgb(99,99,99);stroke-width:2" />
<rect height="2.000000" width="7.000000" x="73.000000" y="110.000000" fill="rgb(0, 0, 0)" style="fill-opacity:1.00" />
<text x="63" y="115">
0
</text>
<rect height="2.000000" width="7.000000" x="73.000000" y="60.000000" fill="rgb(0, 0, 0)" style="fill-opacity:1.00" />
<text x="63" y="65">
1
</text>
<rect height="2.000000" width="7.000000" x="73.000000" y="10.000000" fill="rgb(0, 0, 0)" style="fill-opacity:1.00" />
<text x="63" y="15">
2
</text>
<text x="50" y="65"
transform="rotate(-90, 50, 70)">
bits
</text>
<!-- Begin 'G' -->
<ellipse cx="115.000000" cy="103.652572" rx="25.000000" ry="1.477823" fill="rgb(255, 165, 0)" style="fill-opacity:1.00" />
<ellipse cx="115.000000" cy="103.652572" rx="16.666667" ry="0.985215" fill="rgb(255, 255, 255)" style="fill-opacity:1.00" />
<rect height="1.477823" width="25.000000" x="115.000000" y="102.913661" fill="rgb(255, 255, 255)" style="fill-opacity:1.00" />
<rect height="0.369456" width="25.000000" x="115.000000" y="104.022028" fill="rgb(255, 165, 0)" style="fill-opacity:1.00" />
<rect height="1.108367" width="6.250000" x="133.750000" y="104.022028" fill="rgb(255, 165, 0)" style="fill-opacity:1.00" />
<!-- End 'G' -->
<!-- Begin 'A' -->
<polygon points=" 90.000000, 107.858269, 111.000000, 105.130395, 119.000000, 105.130395, 140.000000, 107.858269, 132.500000, 107.858269, 126.250000, 107.176300, 103.750000, 107.176300, 97.500000, 107.858269" fill="rgb(178, 34, 34)" style="fill-opacity:1.00" />
<!-- End 'A' -->
<!-- Begin 'C' -->
<ellipse cx="115.000000" cy="108.452432" rx="25.000000" ry="0.594163" fill="rgb(0, 0, 128)" style="fill-opacity:1.00" />
<ellipse cx="115.000000" cy="108.452432" rx="16.666667" ry="0.396109" fill="rgb(255, 255, 255)" style="fill-opacity:1.00" />
<rect height="0.594163" width="25.000000" x="115.000000" y="108.155350" fill="rgb(255, 255, 255)" style="fill-opacity:1.00" />
<!-- End 'C' -->
<!-- Begin 'T' -->
<rect height="0.152545" width="50.000000" x="90.000000" y="109.046595" fill="rgb(0, 100, 0)" style="fill-opacity:1.00" />
<rect height="0.953405" width="10.000000" x="110.000000" y="109.046595" fill="rgb(0, 100, 0)" style="fill-opacity:1.00" />
<!-- End 'T' -->
<!-- Begin 'C' -->
<ellipse cx="175.000000" cy="96.260002" rx="25.000000" ry="3.769550" fill="rgb(0, 0, 128)" style="fill-opacity:1.00" />
<ellipse cx="175.000000" cy="96.260002" rx="16.666667" ry="2.513034" fill="rgb(255, 255, 255)" style="fill-opacity:1.00" />
<rect height="3.769550" width="25.000000" x="175.000000" y="94.375227" fill="rgb(255, 255, 255)" style="fill-opacity:1.00" />
<!-- End 'C' -->
<!-- Begin 'G' -->
<ellipse cx="175.000000" cy="102.507872" rx="25.000000" ry="2.478320" fill="rgb(255, 165, 0)" style="fill-opacity:1.00" />
<ellipse cx="175.000000" cy="102.507872" rx="16.666667" ry="1.652213" fill="rgb(255, 255, 255)" style="fill-opacity:1.00" />
<rect height="2.478320" width="25.000000" x="175.000000" y="101.268712" fill="rgb(255, 255, 255)" style="fill-opacity:1.00" />
<rect height="0.619580" width="25.000000" x="175.000000" y="103.127452" fill="rgb(255, 165, 0)" style="fill-opacity:1.00" />
<rect height="1.858740" width="6.250000" x="193.750000" y="103.127452" fill="rgb(255, 165, 0)" style="fill-opacity:1.00" />
<!-- End 'G' -->
<!-- Begin 'A' -->
<polygon points=" 150.000000, 109.696590, 171.000000, 104.986192, 179.000000, 104.986192, 200.000000, 109.696590, 192.500000, 109.696590, 186.250000, 108.518990, 163.750000, 108.518990, 157.500000, 109.696590" fill="rgb(178, 34, 34)" style="fill-opacity:1.00" />
<!-- End 'A' -->
<!-- Begin 'T' -->
<rect height="0.048546" width="50.000000" x="150.000000" y="109.696590" fill="rgb(0, 100, 0)" style="fill-opacity:1.00" />
<rect height="0.303410" width="10.000000" x="170.000000" y="109.696590" fill="rgb(0, 100, 0)" style="fill-opacity:1.00" />
<!-- End 'T' -->
<!-- Begin 'C' -->
<ellipse cx="235.000000" cy="63.623467" rx="25.000000" ry="44.012946" fill="rgb(0, 0, 128)" style="fill-opacity:1.00" />
<ellipse cx="235.000000" cy="63.623467" rx="16.666667" ry="29.341964" fill="rgb(255, 255, 255)" style="fill-opacity:1.00" />
<rect height="44.012946" width="25.000000" x="235.000000" y="41.616994" fill="rgb(255, 255, 255)" style="fill-opacity:1.00" />
<!-- End 'C' -->
<!-- Begin 'A' -->
<polygon points=" 210.000000, 109.647741, 231.000000, 107.636413, 239.000000, 107.636413, 260.000000, 109.647741, 252.500000, 109.647741, 246.250000, 109.144909, 223.750000, 109.144909, 217.500000, 109.647741" fill="rgb(178, 34, 34)" style="fill-opacity:1.00" />
<!-- End 'A' -->
<!-- Begin 'G' -->
<ellipse cx="235.000000" cy="109.808939" rx="25.000000" ry="0.161198" fill="rgb(255, 165, 0)" style="fill-opacity:1.00" />
<ellipse cx="235.000000" cy="109.808939" rx="16.666667" ry="0.107465" fill="rgb(255, 255, 255)" style="fill-opacity:1.00" />
<rect height="0.161198" width="25.000000" x="235.000000" y="109.728340" fill="rgb(255, 255, 255)" style="fill-opacity:1.00" />
<rect height="0.040300" width="25.000000" x="235.000000" y="109.849238" fill="rgb(255, 165, 0)" style="fill-opacity:1.00" />
<rect height="0.120899" width="6.250000" x="253.750000" y="109.849238" fill="rgb(255, 165, 0)" style="fill-opacity:1.00" />
<!-- End 'G' -->
<!-- Begin 'T' -->
<rect height="0.004778" width="50.000000" x="210.000000" y="109.970137" fill="rgb(0, 100, 0)" style="fill-opacity:1.00" />
<rect height="0.029863" width="10.000000" x="230.000000" y="109.970137" fill="rgb(0, 100, 0)" style="fill-opacity:1.00" />
<!-- End 'T' -->
<!-- Begin 'A' -->
<polygon points=" 270.000000, 107.716869, 291.000000, 20.074379, 299.000000, 20.074379, 320.000000, 107.716869, 312.500000, 107.716869, 306.250000, 85.806247, 283.750000, 85.806247, 277.500000, 107.716869" fill="rgb(178, 34, 34)" style="fill-opacity:1.00" />
<polygon points=" 295.000000, 37.602877, 287.000000, 71.659873, 302.000000, 71.659873" fill="rgb(255, 255, 255)" style="fill-opacity:1.00" />
<!-- End 'A' -->
<!-- Begin 'G' -->
<ellipse cx="295.000000" cy="108.498329" rx="25.000000" ry="0.781460" fill="rgb(255, 165, 0)" style="fill-opacity:1.00" />
<ellipse cx="295.000000" cy="108.498329" rx="16.666667" ry="0.520973" fill="rgb(255, 255, 255)" style="fill-opacity:1.00" />
<rect height="0.781460" width="25.000000" x="295.000000" y="108.107599" fill="rgb(255, 255, 255)" style="fill-opacity:1.00" />
<rect height="0.195365" width="25.000000" x="295.000000" y="108.693694" fill="rgb(255, 165, 0)" style="fill-opacity:1.00" />
<rect height="0.586095" width="6.250000" x="313.750000" y="108.693694" fill="rgb(255, 165, 0)" style="fill-opacity:1.00" />
<!-- End 'G' -->
<!-- Begin 'T' -->
<rect height="0.063883" width="50.000000" x="270.000000" y="109.279789" fill="rgb(0, 100, 0)" style="fill-opacity:1.00" />
<rect height="0.399267" width="10.000000" x="290.000000" y="109.279789" fill="rgb(0, 100, 0)" style="fill-opacity:1.00" />
<!-- End 'T' -->
<!-- Begin 'C' -->
<ellipse cx="295.000000" cy="109.839528" rx="25.000000" ry="0.160472" fill="rgb(0, 0, 128)" style="fill-opacity:1.00" />
<ellipse cx="295.000000" cy="109.839528" rx="16.666667" ry="0.106981" fill="rgb(255, 255, 255)" style="fill-opacity:1.00" />
<rect height="0.160472" width="25.000000" x="295.000000" y="109.759292" fill="rgb(255, 255, 255)" style="fill-opacity:1.00" />
<!-- End 'C' -->
<!-- Begin 'G' -->
<ellipse cx="355.000000" cy="82.573633" rx="25.000000" ry="12.491366" fill="rgb(255, 165, 0)" style="fill-opacity:1.00" />
<ellipse cx="355.000000" cy="82.573633" rx="16.666667" ry="8.327577" fill="rgb(255, 255, 255)" style="fill-opacity:1.00" />
<rect height="12.491366" width="25.000000" x="355.000000" y="76.327950" fill="rgb(255, 255, 255)" style="fill-opacity:1.00" />
<rect height="3.122841" width="25.000000" x="355.000000" y="85.696475" fill="rgb(255, 165, 0)" style="fill-opacity:1.00" />
<rect height="9.368524" width="6.250000" x="373.750000" y="85.696475" fill="rgb(255, 165, 0)" style="fill-opacity:1.00" />
<!-- End 'G' -->
<!-- Begin 'T' -->
<rect height="2.074873" width="50.000000" x="330.000000" y="95.064999" fill="rgb(0, 100, 0)" style="fill-opacity:1.00" />
<rect height="12.967957" width="10.000000" x="350.000000" y="95.064999" fill="rgb(0, 100, 0)" style="fill-opacity:1.00" />
<!-- End 'T' -->
<!-- Begin 'C' -->
<ellipse cx="355.000000" cy="108.799250" rx="25.000000" ry="0.766294" fill="rgb(0, 0, 128)" style="fill-opacity:1.00" />
<ellipse cx="355.000000" cy="108.799250" rx="16.666667" ry="0.510862" fill="rgb(255, 255, 255)" style="fill-opacity:1.00" />
<rect height="0.766294" width="25.000000" x="355.000000" y="108.416103" fill="rgb(255, 255, 255)" style="fill-opacity:1.00" />
<!-- End 'C' -->
<!-- Begin 'A' -->
<polygon points=" 330.000000, 110.000000, 351.000000, 109.565544, 359.000000, 109.565544, 380.000000, 110.000000, 372.500000, 110.000000, 366.250000, 109.891386, 343.750000, 109.891386, 337.500000, 110.000000" fill="rgb(178, 34, 34)" style="fill-opacity:1.00" />
<!-- End 'A' -->
<!-- Begin 'C' -->
<ellipse cx="415.000000" cy="79.768726" rx="25.000000" ry="13.904212" fill="rgb(0, 0, 128)" style="fill-opacity:1.00" />
<ellipse cx="415.000000" cy="79.768726" rx="16.666667" ry="9.269474" fill="rgb(255, 255, 255)" style="fill-opacity:1.00" />
<rect height="13.904212" width="25.000000" x="415.000000" y="72.816620" fill="rgb(255, 255, 255)" style="fill-opacity:1.00" />
<!-- End 'C' -->
<!-- Begin 'A' -->
<polygon points=" 390.000000, 108.695643, 411.000000, 93.672938, 419.000000, 93.672938, 440.000000, 108.695643, 432.500000, 108.695643, 426.250000, 104.939967, 403.750000, 104.939967, 397.500000, 108.695643" fill="rgb(178, 34, 34)" style="fill-opacity:1.00" />
<polygon points=" 415.000000, 96.677479, 407.000000, 101.686561, 422.000000, 101.686561" fill="rgb(255, 255, 255)" style="fill-opacity:1.00" />
<!-- End 'A' -->
<!-- Begin 'G' -->
<ellipse cx="415.000000" cy="109.249865" rx="25.000000" ry="0.554222" fill="rgb(255, 165, 0)" style="fill-opacity:1.00" />
<ellipse cx="415.000000" cy="109.249865" rx="16.666667" ry="0.369481" fill="rgb(255, 255, 255)" style="fill-opacity:1.00" />
<rect height="0.554222" width="25.000000" x="415.000000" y="108.972754" fill="rgb(255, 255, 255)" style="fill-opacity:1.00" />
<rect height="0.138555" width="25.000000" x="415.000000" y="109.388420" fill="rgb(255, 165, 0)" style="fill-opacity:1.00" />
<rect height="0.415666" width="6.250000" x="433.750000" y="109.388420" fill="rgb(255, 165, 0)" style="fill-opacity:1.00" />
<!-- End 'G' -->
<!-- Begin 'T' -->
<rect height="0.031346" width="50.000000" x="390.000000" y="109.804086" fill="rgb(0, 100, 0)" style="fill-opacity:1.00" />
<rect height="0.195914" width="10.000000" x="410.000000" y="109.804086" fill="rgb(0, 100, 0)" style="fill-opacity:1.00" />
<!-- End 'T' -->
<!-- Begin 'T' -->
<rect height="12.927148" width="50.000000" x="450.000000" y="25.476488" fill="rgb(0, 100, 0)" style="fill-opacity:1.00" />
<rect height="80.794675" width="10.000000" x="470.000000" y="25.476488" fill="rgb(0, 100, 0)" style="fill-opacity:1.00" />
<!-- End 'T' -->
<!-- Begin 'A' -->
<polygon points=" 450.000000, 108.826166, 471.000000, 106.271163, 479.000000, 106.271163, 500.000000, 108.826166, 492.500000, 108.826166, 486.250000, 108.187416, 463.750000, 108.187416, 457.500000, 108.826166" fill="rgb(178, 34, 34)" style="fill-opacity:1.00" />
<!-- End 'A' -->
<!-- Begin 'C' -->
<ellipse cx="475.000000" cy="109.315213" rx="25.000000" ry="0.489046" fill="rgb(0, 0, 128)" style="fill-opacity:1.00" />
<ellipse cx="475.000000" cy="109.315213" rx="16.666667" ry="0.326031" fill="rgb(255, 255, 255)" style="fill-opacity:1.00" />
<rect height="0.489046" width="25.000000" x="475.000000" y="109.070690" fill="rgb(255, 255, 255)" style="fill-opacity:1.00" />
<!-- End 'C' -->
<!-- Begin 'G' -->
<ellipse cx="475.000000" cy="109.902129" rx="25.000000" ry="0.097871" fill="rgb(255, 165, 0)" style="fill-opacity:1.00" />
<ellipse cx="475.000000" cy="109.902129" rx="16.666667" ry="0.065247" fill="rgb(255, 255, 255)" style="fill-opacity:1.00" />
<rect height="0.097871" width="25.000000" x="475.000000" y="109.853194" fill="rgb(255, 255, 255)" style="fill-opacity:1.00" />
<rect height="0.024468" width="25.000000" x="475.000000" y="109.926597" fill="rgb(255, 165, 0)" style="fill-opacity:1.00" />
<rect height="0.073403" width="6.250000" x="493.750000" y="109.926597" fill="rgb(255, 165, 0)" style="fill-opacity:1.00" />
<!-- End 'G' -->
<!-- Begin 'G' -->
<ellipse cx="535.000000" cy="63.069236" rx="25.000000" ry="44.884493" fill="rgb(255, 165, 0)" style="fill-opacity:1.00" />
<ellipse cx="535.000000" cy="63.069236" rx="16.666667" ry="29.922996" fill="rgb(255, 255, 255)" style="fill-opacity:1.00" />
<rect height="44.884493" width="25.000000" x="535.000000" y="40.626989" fill="rgb(255, 255, 255)" style="fill-opacity:1.00" />
<rect height="11.221123" width="25.000000" x="535.000000" y="74.290359" fill="rgb(255, 165, 0)" style="fill-opacity:1.00" />
<rect height="33.663370" width="6.250000" x="553.750000" y="74.290359" fill="rgb(255, 165, 0)" style="fill-opacity:1.00" />
<!-- End 'G' -->
<!-- Begin 'T' -->
<rect height="0.304825" width="50.000000" x="510.000000" y="107.953729" fill="rgb(0, 100, 0)" style="fill-opacity:1.00" />
<rect height="1.905158" width="10.000000" x="530.000000" y="107.953729" fill="rgb(0, 100, 0)" style="fill-opacity:1.00" />
<!-- End 'T' -->
<!-- Begin 'A' -->
<polygon points=" 510.000000, 109.934386, 531.000000, 109.858887, 539.000000, 109.858887, 560.000000, 109.934386, 552.500000, 109.934386, 546.250000, 109.915511, 523.750000, 109.915511, 517.500000, 109.934386" fill="rgb(178, 34, 34)" style="fill-opacity:1.00" />
<!-- End 'A' -->
<!-- Begin 'C' -->
<ellipse cx="535.000000" cy="109.967193" rx="25.000000" ry="0.032807" fill="rgb(0, 0, 128)" style="fill-opacity:1.00" />
<ellipse cx="535.000000" cy="109.967193" rx="16.666667" ry="0.021871" fill="rgb(255, 255, 255)" style="fill-opacity:1.00" />
<rect height="0.032807" width="25.000000" x="535.000000" y="109.950790" fill="rgb(255, 255, 255)" style="fill-opacity:1.00" />
<!-- End 'C' -->
<!-- Begin 'G' -->
<ellipse cx="595.000000" cy="97.554197" rx="25.000000" ry="3.415557" fill="rgb(255, 165, 0)" style="fill-opacity:1.00" />
<ellipse cx="595.000000" cy="97.554197" rx="16.666667" ry="2.277038" fill="rgb(255, 255, 255)" style="fill-opacity:1.00" />
<rect height="3.415557" width="25.000000" x="595.000000" y="95.846418" fill="rgb(255, 255, 255)" style="fill-opacity:1.00" />
<rect height="0.853889" width="25.000000" x="595.000000" y="98.408086" fill="rgb(255, 165, 0)" style="fill-opacity:1.00" />
<rect height="2.561668" width="6.250000" x="613.750000" y="98.408086" fill="rgb(255, 165, 0)" style="fill-opacity:1.00" />
<!-- End 'G' -->
<!-- Begin 'C' -->
<ellipse cx="595.000000" cy="103.183980" rx="25.000000" ry="2.214226" fill="rgb(0, 0, 128)" style="fill-opacity:1.00" />
<ellipse cx="595.000000" cy="103.183980" rx="16.666667" ry="1.476151" fill="rgb(255, 255, 255)" style="fill-opacity:1.00" />
<rect height="2.214226" width="25.000000" x="595.000000" y="102.076867" fill="rgb(255, 255, 255)" style="fill-opacity:1.00" />
<!-- End 'C' -->
<!-- Begin 'T' -->
<rect height="0.669350" width="50.000000" x="570.000000" y="105.398206" fill="rgb(0, 100, 0)" style="fill-opacity:1.00" />
<rect height="4.183438" width="10.000000" x="590.000000" y="105.398206" fill="rgb(0, 100, 0)" style="fill-opacity:1.00" />
<!-- End 'T' -->
<!-- Begin 'A' -->
<polygon points=" 570.000000, 110.000000, 591.000000, 109.581644, 599.000000, 109.581644, 620.000000, 110.000000, 612.500000, 110.000000, 606.250000, 109.895411, 583.750000, 109.895411, 577.500000, 110.000000" fill="rgb(178, 34, 34)" style="fill-opacity:1.00" />
<!-- End 'A' -->
<!-- Begin 'C' -->
<ellipse cx="655.000000" cy="103.628092" rx="25.000000" ry="1.502154" fill="rgb(0, 0, 128)" style="fill-opacity:1.00" />
<ellipse cx="655.000000" cy="103.628092" rx="16.666667" ry="1.001436" fill="rgb(255, 255, 255)" style="fill-opacity:1.00" />
<rect height="1.502154" width="25.000000" x="655.000000" y="102.877015" fill="rgb(255, 255, 255)" style="fill-opacity:1.00" />
<!-- End 'C' -->
<!-- Begin 'T' -->
<rect height="0.435617" width="50.000000" x="630.000000" y="105.130246" fill="rgb(0, 100, 0)" style="fill-opacity:1.00" />
<rect height="2.722609" width="10.000000" x="650.000000" y="105.130246" fill="rgb(0, 100, 0)" style="fill-opacity:1.00" />
<!-- End 'T' -->
<!-- Begin 'G' -->
<ellipse cx="655.000000" cy="108.436542" rx="25.000000" ry="0.583687" fill="rgb(255, 165, 0)" style="fill-opacity:1.00" />
<ellipse cx="655.000000" cy="108.436542" rx="16.666667" ry="0.389124" fill="rgb(255, 255, 255)" style="fill-opacity:1.00" />
<rect height="0.583687" width="25.000000" x="655.000000" y="108.144699" fill="rgb(255, 255, 255)" style="fill-opacity:1.00" />
<rect height="0.145922" width="25.000000" x="655.000000" y="108.582464" fill="rgb(255, 165, 0)" style="fill-opacity:1.00" />
<rect height="0.437765" width="6.250000" x="673.750000" y="108.582464" fill="rgb(255, 165, 0)" style="fill-opacity:1.00" />
<!-- End 'G' -->
<!-- Begin 'A' -->
<polygon points=" 630.000000, 110.000000, 651.000000, 109.020229, 659.000000, 109.020229, 680.000000, 110.000000, 672.500000, 110.000000, 666.250000, 109.755057, 643.750000, 109.755057, 637.500000, 110.000000" fill="rgb(178, 34, 34)" style="fill-opacity:1.00" />
<!-- End 'A' -->
<text x="370.000000" y="165">
IC = 9.80
</text>

</svg>
