<?xml version="1.0" encoding="UTF-8" standalone="yes"?>
                 <!DOCTYPE svg PUBLIC "-//W3C//DTD SVG 1.0//EN" "http://www.w3.org/TR/2001/REC-SVG-20010904/DTD/svg10.dtd">
                 <svg height="170" width="720" xmlns="http://www.w3.org/2000/svg" xmlns:xlink="http://www.w3.org/1999/xlink">
                 <line x1="85" y1="120" x2="687" y2="120" style="stroke:rgb(99,99,99);stroke-width:2" />
<rect height="7.000000" width="2.000000" x="85.000000" y="120.000000" fill="rgb(0, 0, 0)" style="fill-opacity:1.00" />
<text x="107.000000" y="140">
1
</text>
<rect height="7.000000" width="2.000000" x="145.000000" y="120.000000" fill="rgb(0, 0, 0)" style="fill-opacity:1.00" />
<text x="167.000000" y="140">
2
</text>
<rect height="7.000000" width="2.000000" x="205.000000" y="120.000000" fill="rgb(0, 0, 0)" style="fill-opacity:1.00" />
<text x="227.000000" y="140">
3
</text>
<rect height="7.000000" width="2.000000" x="265.000000" y="120.000000" fill="rgb(0, 0, 0)" style="fill-opacity:1.00" />
<text x="287.000000" y="140">
4
</text>
<rect height="7.000000" width="2.000000" x="325.000000" y="120.000000" fill="rgb(0, 0, 0)" style="fill-opacity:1.00" />
<text x="347.000000" y="140">
5
</text>
<rect height="7.000000" width="2.000000" x="385.000000" y="120.000000" fill="rgb(0, 0, 0)" style="fill-opacity:1.00" />
<text x="407.000000" y="140">
6
</text>
<rect height="7.000000" width="2.000000" x="445.000000" y="120.000000" fill="rgb(0, 0, 0)" style="fill-opacity:1.00" />
<text x="467.000000" y="140">
7
</text>
<rect height="7.000000" width="2.000000" x="505.000000" y="120.000000" fill="rgb(0, 0, 0)" style="fill-opacity:1.00" />
<text x="527.000000" y="140">
8
</text>
<rect height="7.000000" width="2.000000" x="565.000000" y="120.000000" fill="rgb(0, 0, 0)" style="fill-opacity:1.00" />
<text x="587.000000" y="140">
9
</text>
<rect height="7.000000" width="2.000000" x="625.000000" y="120.000000" fill="rgb(0, 0, 0)" style="fill-opacity:1.00" />
<text x="647.000000" y="140">
10
</text>
<rect height="7.000000" width="2.000000" x="685.000000" y="120.000000" fill="rgb(0, 0, 0)" style="fill-opacity:1.00" />
<line x1="80" y1="112" x2="80" y2="10" style="stroke:rgb(99,99,99);stroke-width:2" />
<rect height="2.000000" width="7.000000" x="73.000000" y="110.000000" fill="rgb(0, 0, 0)" style="fill-opacity:1.00" />
<text x="63" y="115">
0
</text>
<rect height="2.000000" width="7.000000" x="73.000000" y="60.000000" fill="rgb(0, 0, 0)" style="fill-opacity:1.00" />
<text x="63" y="65">
1
</text>
<rect height="2.000000" width="7.000000" x="73.000000" y="10.000000" fill="rgb(0, 0, 0)" style="fill-opacity:1.00" />
<text x="63" y="15">
2
</text>
<text x="50" y="65"
transform="rotate(-90, 50, 70)">
bits
</text>
<!-- Begin 'T' -->
<rect height="0.543345" width="50.000000" x="90.000000" y="102.357833" fill="rgb(0, 100, 0)" style="fill-opacity:1.00" />
<rect height="3.395904" width="10.000000" x="110.000000" y="102.357833" fill="rgb(0, 100, 0)" style="fill-opacity:1.00" />
<!-- End 'T' -->
<!-- Begin 'G' -->
<ellipse cx="115.000000" cy="106.693912" rx="25.000000" ry="0.940175" fill="rgb(255, 165, 0)" style="fill-opacity:1.00" />
<ellipse cx="115.000000" cy="106.693912" rx="16.666667" ry="0.626783" fill="rgb(255, 255, 255)" style="fill-opacity:1.00" />
<rect height="0.940175" width="25.000000" x="115.000000" y="106.223824" fill="rgb(255, 255, 255)" style="fill-opacity:1.00" />
<rect height="0.235044" width="25.000000" x="115.000000" y="106.928956" fill="rgb(255, 165, 0)" style="fill-opacity:1.00" />
<rect height="0.705131" width="6.250000" x="133.750000" y="106.928956" fill="rgb(255, 165, 0)" style="fill-opacity:1.00" />
<!-- End 'G' -->
<!-- Begin 'A' -->
<polygon points=" 90.000000, 108.972418, 111.000000, 107.634087, 119.000000, 107.634087, 140.000000, 108.972418, 132.500000, 108.972418, 126.250000, 108.637835, 103.750000, 108.637835, 97.500000, 108.972418" fill="rgb(178, 34, 34)" style="fill-opacity:1.00" />
<!-- End 'A' -->
<!-- Begin 'C' -->
<ellipse cx="115.000000" cy="109.486209" rx="25.000000" ry="0.513791" fill="rgb(0, 0, 128)" style="fill-opacity:1.00" />
<ellipse cx="115.000000" cy="109.486209" rx="16.666667" ry="0.342527" fill="rgb(255, 255, 255)" style="fill-opacity:1.00" />
<rect height="0.513791" width="25.000000" x="115.000000" y="109.229314" fill="rgb(255, 255, 255)" style="fill-opacity:1.00" />
<!-- End 'C' -->
<!-- Begin 'C' -->
<ellipse cx="175.000000" cy="65.778030" rx="25.000000" ry="40.899238" fill="rgb(0, 0, 128)" style="fill-opacity:1.00" />
<ellipse cx="175.000000" cy="65.778030" rx="16.666667" ry="27.266159" fill="rgb(255, 255, 255)" style="fill-opacity:1.00" />
<rect height="40.899238" width="25.000000" x="175.000000" y="45.328411" fill="rgb(255, 255, 255)" style="fill-opacity:1.00" />
<!-- End 'C' -->
<!-- Begin 'T' -->
<rect height="0.224747" width="50.000000" x="150.000000" y="106.677268" fill="rgb(0, 100, 0)" style="fill-opacity:1.00" />
<rect height="1.404670" width="10.000000" x="170.000000" y="106.677268" fill="rgb(0, 100, 0)" style="fill-opacity:1.00" />
<!-- End 'T' -->
<!-- Begin 'G' -->
<ellipse cx="175.000000" cy="108.689288" rx="25.000000" ry="0.607350" fill="rgb(255, 165, 0)" style="fill-opacity:1.00" />
<ellipse cx="175.000000" cy="108.689288" rx="16.666667" ry="0.404900" fill="rgb(255, 255, 255)" style="fill-opacity:1.00" />
<rect height="0.607350" width="25.000000" x="175.000000" y="108.385613" fill="rgb(255, 255, 255)" style="fill-opacity:1.00" />
<rect height="0.151838" width="25.000000" x="175.000000" y="108.841126" fill="rgb(255, 165, 0)" style="fill-opacity:1.00" />
<rect height="0.455513" width="6.250000" x="193.750000" y="108.841126" fill="rgb(255, 165, 0)" style="fill-opacity:1.00" />
<!-- End 'G' -->
<!-- Begin 'A' -->
<polygon points=" 150.000000, 110.000000, 171.000000, 109.296638, 179.000000, 109.296638, 200.000000, 110.000000, 192.500000, 110.000000, 186.250000, 109.824160, 163.750000, 109.824160, 157.500000, 110.000000" fill="rgb(178, 34, 34)" style="fill-opacity:1.00" />
<!-- End 'A' -->
<!-- Begin 'A' -->
<polygon points=" 210.000000, 105.762271, 231.000000, 28.499569, 239.000000, 28.499569, 260.000000, 105.762271, 252.500000, 105.762271, 246.250000, 86.446596, 223.750000, 86.446596, 217.500000, 105.762271" fill="rgb(178, 34, 34)" style="fill-opacity:1.00" />
<polygon points=" 235.000000, 43.952110, 227.000000, 73.857190, 242.000000, 73.857190" fill="rgb(255, 255, 255)" style="fill-opacity:1.00" />
<!-- End 'A' -->
<!-- Begin 'G' -->
<ellipse cx="235.000000" cy="106.908495" rx="25.000000" ry="1.146224" fill="rgb(255, 165, 0)" style="fill-opacity:1.00" />
<ellipse cx="235.000000" cy="106.908495" rx="16.666667" ry="0.764149" fill="rgb(255, 255, 255)" style="fill-opacity:1.00" />
<rect height="1.146224" width="25.000000" x="235.000000" y="106.335383" fill="rgb(255, 255, 255)" style="fill-opacity:1.00" />
<rect height="0.286556" width="25.000000" x="235.000000" y="107.195051" fill="rgb(255, 165, 0)" style="fill-opacity:1.00" />
<rect height="0.859668" width="6.250000" x="253.750000" y="107.195051" fill="rgb(255, 165, 0)" style="fill-opacity:1.00" />
<!-- End 'G' -->
<!-- Begin 'T' -->
<rect height="0.180422" width="50.000000" x="210.000000" y="108.054719" fill="rgb(0, 100, 0)" style="fill-opacity:1.00" />
<rect height="1.127636" width="10.000000" x="230.000000" y="108.054719" fill="rgb(0, 100, 0)" style="fill-opacity:1.00" />
<!-- End 'T' -->
<!-- Begin 'C' -->
<ellipse cx="235.000000" cy="109.591177" rx="25.000000" ry="0.408823" fill="rgb(0, 0, 128)" style="fill-opacity:1.00" />
<ellipse cx="235.000000" cy="109.591177" rx="16.666667" ry="0.272548" fill="rgb(255, 255, 255)" style="fill-opacity:1.00" />
<rect height="0.408823" width="25.000000" x="235.000000" y="109.386766" fill="rgb(255, 255, 255)" style="fill-opacity:1.00" />
<!-- End 'C' -->
<!-- Begin 'C' -->
<ellipse cx="295.000000" cy="67.111479" rx="25.000000" ry="38.468607" fill="rgb(0, 0, 128)" style="fill-opacity:1.00" />
<ellipse cx="295.000000" cy="67.111479" rx="16.666667" ry="25.645738" fill="rgb(255, 255, 255)" style="fill-opacity:1.00" />
<rect height="38.468607" width="25.000000" x="295.000000" y="47.877176" fill="rgb(255, 255, 255)" style="fill-opacity:1.00" />
<!-- End 'C' -->
<!-- Begin 'T' -->
<rect height="0.457199" width="50.000000" x="270.000000" y="105.580086" fill="rgb(0, 100, 0)" style="fill-opacity:1.00" />
<rect height="2.857494" width="10.000000" x="290.000000" y="105.580086" fill="rgb(0, 100, 0)" style="fill-opacity:1.00" />
<!-- End 'T' -->
<!-- Begin 'A' -->
<polygon points=" 270.000000, 109.494408, 291.000000, 108.437580, 299.000000, 108.437580, 320.000000, 109.494408, 312.500000, 109.494408, 306.250000, 109.230201, 283.750000, 109.230201, 277.500000, 109.494408" fill="rgb(178, 34, 34)" style="fill-opacity:1.00" />
<!-- End 'A' -->
<!-- Begin 'G' -->
<ellipse cx="295.000000" cy="109.747204" rx="25.000000" ry="0.252796" fill="rgb(255, 165, 0)" style="fill-opacity:1.00" />
<ellipse cx="295.000000" cy="109.747204" rx="16.666667" ry="0.168531" fill="rgb(255, 255, 255)" style="fill-opacity:1.00" />
<rect height="0.252796" width="25.000000" x="295.000000" y="109.620806" fill="rgb(255, 255, 255)" style="fill-opacity:1.00" />
<rect height="0.063199" width="25.000000" x="295.000000" y="109.810403" fill="rgb(255, 165, 0)" style="fill-opacity:1.00" />
<rect height="0.189597" width="6.250000" x="313.750000" y="109.810403" fill="rgb(255, 165, 0)" style="fill-opacity:1.00" />
<!-- End 'G' -->
<!-- Begin 'G' -->
<ellipse cx="355.000000" cy="65.358111" rx="25.000000" ry="40.574158" fill="rgb(255, 165, 0)" style="fill-opacity:1.00" />
<ellipse cx="355.000000" cy="65.358111" rx="16.666667" ry="27.049438" fill="rgb(255, 255, 255)" style="fill-opacity:1.00" />
<rect height="40.574158" width="25.000000" x="355.000000" y="45.071033" fill="rgb(255, 255, 255)" style="fill-opacity:1.00" />
<rect height="10.143539" width="25.000000" x="355.000000" y="75.501651" fill="rgb(255, 165, 0)" style="fill-opacity:1.00" />
<rect height="30.430618" width="6.250000" x="373.750000" y="75.501651" fill="rgb(255, 165, 0)" style="fill-opacity:1.00" />
<!-- End 'G' -->
<!-- Begin 'A' -->
<polygon points=" 330.000000, 109.724703, 351.000000, 105.932269, 359.000000, 105.932269, 380.000000, 109.724703, 372.500000, 109.724703, 366.250000, 108.776594, 343.750000, 108.776594, 337.500000, 109.724703" fill="rgb(178, 34, 34)" style="fill-opacity:1.00" />
<!-- End 'A' -->
<!-- Begin 'C' -->
<ellipse cx="355.000000" cy="109.842298" rx="25.000000" ry="0.117595" fill="rgb(0, 0, 128)" style="fill-opacity:1.00" />
<ellipse cx="355.000000" cy="109.842298" rx="16.666667" ry="0.078397" fill="rgb(255, 255, 255)" style="fill-opacity:1.00" />
<rect height="0.117595" width="25.000000" x="355.000000" y="109.783500" fill="rgb(255, 255, 255)" style="fill-opacity:1.00" />
<!-- End 'C' -->
<!-- Begin 'T' -->
<rect height="0.006417" width="50.000000" x="330.000000" y="109.959892" fill="rgb(0, 100, 0)" style="fill-opacity:1.00" />
<rect height="0.040108" width="10.000000" x="350.000000" y="109.959892" fill="rgb(0, 100, 0)" style="fill-opacity:1.00" />
<!-- End 'T' -->
<!-- Begin 'T' -->
<rect height="14.612996" width="50.000000" x="390.000000" y="17.092950" fill="rgb(0, 100, 0)" style="fill-opacity:1.00" />
<rect height="91.331225" width="10.000000" x="410.000000" y="17.092950" fill="rgb(0, 100, 0)" style="fill-opacity:1.00" />
<!-- End 'T' -->
<!-- Begin 'C' -->
<ellipse cx="415.000000" cy="108.933043" rx="25.000000" ry="0.508868" fill="rgb(0, 0, 128)" style="fill-opacity:1.00" />
<ellipse cx="415.000000" cy="108.933043" rx="16.666667" ry="0.339245" fill="rgb(255, 255, 255)" style="fill-opacity:1.00" />
<rect height="0.508868" width="25.000000" x="415.000000" y="108.678609" fill="rgb(255, 255, 255)" style="fill-opacity:1.00" />
<!-- End 'C' -->
<!-- Begin 'A' -->
<polygon points=" 390.000000, 109.967309, 411.000000, 109.441911, 419.000000, 109.441911, 440.000000, 109.967309, 432.500000, 109.967309, 426.250000, 109.835959, 403.750000, 109.835959, 397.500000, 109.967309" fill="rgb(178, 34, 34)" style="fill-opacity:1.00" />
<!-- End 'A' -->
<!-- Begin 'G' -->
<ellipse cx="415.000000" cy="109.983654" rx="25.000000" ry="0.016346" fill="rgb(255, 165, 0)" style="fill-opacity:1.00" />
<ellipse cx="415.000000" cy="109.983654" rx="16.666667" ry="0.010897" fill="rgb(255, 255, 255)" style="fill-opacity:1.00" />
<rect height="0.016346" width="25.000000" x="415.000000" y="109.975482" fill="rgb(255, 255, 255)" style="fill-opacity:1.00" />
<rect height="0.004086" width="25.000000" x="415.000000" y="109.987741" fill="rgb(255, 165, 0)" style="fill-opacity:1.00" />
<rect height="0.012259" width="6.250000" x="433.750000" y="109.987741" fill="rgb(255, 165, 0)" style="fill-opacity:1.00" />
<!-- End 'G' -->
<!-- Begin 'G' -->
<ellipse cx="475.000000" cy="62.292921" rx="25.000000" ry="46.497727" fill="rgb(255, 165, 0)" style="fill-opacity:1.00" />
<ellipse cx="475.000000" cy="62.292921" rx="16.666667" ry="30.998485" fill="rgb(255, 255, 255)" style="fill-opacity:1.00" />
<rect height="46.497727" width="25.000000" x="475.000000" y="39.044057" fill="rgb(255, 255, 255)" style="fill-opacity:1.00" />
<rect height="11.624432" width="25.000000" x="475.000000" y="73.917353" fill="rgb(255, 165, 0)" style="fill-opacity:1.00" />
<rect height="34.873295" width="6.250000" x="493.750000" y="73.917353" fill="rgb(255, 165, 0)" style="fill-opacity:1.00" />
<!-- End 'G' -->
<!-- Begin 'C' -->
<ellipse cx="475.000000" cy="109.127394" rx="25.000000" ry="0.336746" fill="rgb(0, 0, 128)" style="fill-opacity:1.00" />
<ellipse cx="475.000000" cy="109.127394" rx="16.666667" ry="0.224497" fill="rgb(255, 255, 255)" style="fill-opacity:1.00" />
<rect height="0.336746" width="25.000000" x="475.000000" y="108.959021" fill="rgb(255, 255, 255)" style="fill-opacity:1.00" />
<!-- End 'C' -->
<!-- Begin 'T' -->
<rect height="0.068479" width="50.000000" x="450.000000" y="109.464139" fill="rgb(0, 100, 0)" style="fill-opacity:1.00" />
<rect height="0.427993" width="10.000000" x="470.000000" y="109.464139" fill="rgb(0, 100, 0)" style="fill-opacity:1.00" />
<!-- End 'T' -->
<!-- Begin 'A' -->
<polygon points=" 450.000000, 110.000000, 471.000000, 109.892133, 479.000000, 109.892133, 500.000000, 110.000000, 492.500000, 110.000000, 486.250000, 109.973033, 463.750000, 109.973033, 457.500000, 110.000000" fill="rgb(178, 34, 34)" style="fill-opacity:1.00" />
<!-- End 'A' -->
<!-- Begin 'A' -->
<polygon points=" 510.000000, 105.685409, 531.000000, 102.040183, 539.000000, 102.040183, 560.000000, 105.685409, 552.500000, 105.685409, 546.250000, 104.774103, 523.750000, 104.774103, 517.500000, 105.685409" fill="rgb(178, 34, 34)" style="fill-opacity:1.00" />
<!-- End 'A' -->
<!-- Begin 'C' -->
<ellipse cx="535.000000" cy="106.554653" rx="25.000000" ry="0.869244" fill="rgb(0, 0, 128)" style="fill-opacity:1.00" />
<ellipse cx="535.000000" cy="106.554653" rx="16.666667" ry="0.579496" fill="rgb(255, 255, 255)" style="fill-opacity:1.00" />
<rect height="0.869244" width="25.000000" x="535.000000" y="106.120031" fill="rgb(255, 255, 255)" style="fill-opacity:1.00" />
<!-- End 'C' -->
<!-- Begin 'T' -->
<rect height="0.236026" width="50.000000" x="510.000000" y="107.423897" fill="rgb(0, 100, 0)" style="fill-opacity:1.00" />
<rect height="1.475160" width="10.000000" x="530.000000" y="107.423897" fill="rgb(0, 100, 0)" style="fill-opacity:1.00" />
<!-- End 'T' -->
<!-- Begin 'G' -->
<ellipse cx="535.000000" cy="109.449528" rx="25.000000" ry="0.550472" fill="rgb(255, 165, 0)" style="fill-opacity:1.00" />
<ellipse cx="535.000000" cy="109.449528" rx="16.666667" ry="0.366981" fill="rgb(255, 255, 255)" style="fill-opacity:1.00" />
<rect height="0.550472" width="25.000000" x="535.000000" y="109.174292" fill="rgb(255, 255, 255)" style="fill-opacity:1.00" />
<rect height="0.137618" width="25.000000" x="535.000000" y="109.587146" fill="rgb(255, 165, 0)" style="fill-opacity:1.00" />
<rect height="0.412854" width="6.250000" x="553.750000" y="109.587146" fill="rgb(255, 165, 0)" style="fill-opacity:1.00" />
<!-- End 'G' -->
<!-- Begin 'C' -->
<ellipse cx="595.000000" cy="105.968415" rx="25.000000" ry="0.972359" fill="rgb(0, 0, 128)" style="fill-opacity:1.00" />
<ellipse cx="595.000000" cy="105.968415" rx="16.666667" ry="0.648240" fill="rgb(255, 255, 255)" style="fill-opacity:1.00" />
<rect height="0.972359" width="25.000000" x="595.000000" y="105.482235" fill="rgb(255, 255, 255)" style="fill-opacity:1.00" />
<!-- End 'C' -->
<!-- Begin 'T' -->
<rect height="0.203857" width="50.000000" x="570.000000" y="106.940774" fill="rgb(0, 100, 0)" style="fill-opacity:1.00" />
<rect height="1.274103" width="10.000000" x="590.000000" y="106.940774" fill="rgb(0, 100, 0)" style="fill-opacity:1.00" />
<!-- End 'T' -->
<!-- Begin 'G' -->
<ellipse cx="595.000000" cy="108.783953" rx="25.000000" ry="0.569075" fill="rgb(255, 165, 0)" style="fill-opacity:1.00" />
<ellipse cx="595.000000" cy="108.783953" rx="16.666667" ry="0.379383" fill="rgb(255, 255, 255)" style="fill-opacity:1.00" />
<rect height="0.569075" width="25.000000" x="595.000000" y="108.499415" fill="rgb(255, 255, 255)" style="fill-opacity:1.00" />
<rect height="0.142269" width="25.000000" x="595.000000" y="108.926221" fill="rgb(255, 165, 0)" style="fill-opacity:1.00" />
<rect height="0.426806" width="6.250000" x="613.750000" y="108.926221" fill="rgb(255, 165, 0)" style="fill-opacity:1.00" />
<!-- End 'G' -->
<!-- Begin 'A' -->
<polygon points=" 570.000000, 110.000000, 591.000000, 109.353028, 599.000000, 109.353028, 620.000000, 110.000000, 612.500000, 110.000000, 606.250000, 109.838257, 583.750000, 109.838257, 577.500000, 110.000000" fill="rgb(178, 34, 34)" style="fill-opacity:1.00" />
<!-- End 'A' -->
<!-- Begin 'A' -->
<polygon points=" 630.000000, 108.724500, 651.000000, 108.119431, 659.000000, 108.119431, 680.000000, 108.724500, 672.500000, 108.724500, 666.250000, 108.573233, 643.750000, 108.573233, 637.500000, 108.724500" fill="rgb(178, 34, 34)" style="fill-opacity:1.00" />
<!-- End 'A' -->
<!-- Begin 'T' -->
<rect height="0.087284" width="50.000000" x="630.000000" y="108.724500" fill="rgb(0, 100, 0)" style="fill-opacity:1.00" />
<rect height="0.545527" width="10.000000" x="650.000000" y="108.724500" fill="rgb(0, 100, 0)" style="fill-opacity:1.00" />
<!-- End 'T' -->
<!-- Begin 'C' -->
<ellipse cx="655.000000" cy="109.454557" rx="25.000000" ry="0.184531" fill="rgb(0, 0, 128)" style="fill-opacity:1.00" />
<ellipse cx="655.000000" cy="109.454557" rx="16.666667" ry="0.123020" fill="rgb(255, 255, 255)" style="fill-opacity:1.00" />
<rect height="0.184531" width="25.000000" x="655.000000" y="109.362292" fill="rgb(255, 255, 255)" style="fill-opacity:1.00" />
<!-- End 'C' -->
<!-- Begin 'G' -->
<ellipse cx="655.000000" cy="109.819544" rx="25.000000" ry="0.180456" fill="rgb(255, 165, 0)" style="fill-opacity:1.00" />
<ellipse cx="655.000000" cy="109.819544" rx="16.666667" ry="0.120304" fill="rgb(255, 255, 255)" style="fill-opacity:1.00" />
<rect height="0.180456" width="25.000000" x="655.000000" y="109.729316" fill="rgb(255, 255, 255)" style="fill-opacity:1.00" />
<rect height="0.045114" width="25.000000" x="655.000000" y="109.864658" fill="rgb(255, 165, 0)" style="fill-opacity:1.00" />
<rect height="0.135342" width="6.250000" x="673.750000" y="109.864658" fill="rgb(255, 165, 0)" style="fill-opacity:1.00" />
<!-- End 'G' -->
<text x="370.000000" y="165">
IC = 10.86
</text>

</svg>
