<?xml version="1.0" encoding="UTF-8" standalone="yes"?>
                 <!DOCTYPE svg PUBLIC "-//W3C//DTD SVG 1.0//EN" "http://www.w3.org/TR/2001/REC-SVG-20010904/DTD/svg10.dtd">
                 <svg height="170" width="720" xmlns="http://www.w3.org/2000/svg" xmlns:xlink="http://www.w3.org/1999/xlink">
                 <line x1="85" y1="120" x2="687" y2="120" style="stroke:rgb(99,99,99);stroke-width:2" />
<rect height="7.000000" width="2.000000" x="85.000000" y="120.000000" fill="rgb(0, 0, 0)" style="fill-opacity:1.00" />
<text x="107.000000" y="140">
1
</text>
<rect height="7.000000" width="2.000000" x="145.000000" y="120.000000" fill="rgb(0, 0, 0)" style="fill-opacity:1.00" />
<text x="167.000000" y="140">
2
</text>
<rect height="7.000000" width="2.000000" x="205.000000" y="120.000000" fill="rgb(0, 0, 0)" style="fill-opacity:1.00" />
<text x="227.000000" y="140">
3
</text>
<rect height="7.000000" width="2.000000" x="265.000000" y="120.000000" fill="rgb(0, 0, 0)" style="fill-opacity:1.00" />
<text x="287.000000" y="140">
4
</text>
<rect height="7.000000" width="2.000000" x="325.000000" y="120.000000" fill="rgb(0, 0, 0)" style="fill-opacity:1.00" />
<text x="347.000000" y="140">
5
</text>
<rect height="7.000000" width="2.000000" x="385.000000" y="120.000000" fill="rgb(0, 0, 0)" style="fill-opacity:1.00" />
<text x="407.000000" y="140">
6
</text>
<rect height="7.000000" width="2.000000" x="445.000000" y="120.000000" fill="rgb(0, 0, 0)" style="fill-opacity:1.00" />
<text x="467.000000" y="140">
7
</text>
<rect height="7.000000" width="2.000000" x="505.000000" y="120.000000" fill="rgb(0, 0, 0)" style="fill-opacity:1.00" />
<text x="527.000000" y="140">
8
</text>
<rect height="7.000000" width="2.000000" x="565.000000" y="120.000000" fill="rgb(0, 0, 0)" style="fill-opacity:1.00" />
<text x="587.000000" y="140">
9
</text>
<rect height="7.000000" width="2.000000" x="625.000000" y="120.000000" fill="rgb(0, 0, 0)" style="fill-opacity:1.00" />
<text x="647.000000" y="140">
10
</text>
<rect height="7.000000" width="2.000000" x="685.000000" y="120.000000" fill="rgb(0, 0, 0)" style="fill-opacity:1.00" />
<line x1="80" y1="112" x2="80" y2="10" style="stroke:rgb(99,99,99);stroke-width:2" />
<rect height="2.000000" width="7.000000" x="73.000000" y="110.000000" fill="rgb(0, 0, 0)" style="fill-opacity:1.00" />
<text x="63" y="115">
0
</text>
<rect height="2.000000" width="7.000000" x="73.000000" y="60.000000" fill="rgb(0, 0, 0)" style="fill-opacity:1.00" />
<text x="63" y="65">
1
</text>
<rect height="2.000000" width="7.000000" x="73.000000" y="10.000000" fill="rgb(0, 0, 0)" style="fill-opacity:1.00" />
<text x="63" y="15">
2
</text>
<text x="50" y="65"
transform="rotate(-90, 50, 70)">
bits
</text>
<!-- Begin 'A' -->
<polygon points=" 90.000000, 100.035144, 111.000000, 60.827873, 119.000000, 60.827873, 140.000000, 100.035144, 132.500000, 100.035144, 126.250000, 90.233326, 103.750000, 90.233326, 97.500000, 100.035144" fill="rgb(178, 34, 34)" style="fill-opacity:1.00" />
<polygon points=" 115.000000, 68.669327, 107.000000, 83.352236, 122.000000, 83.352236" fill="rgb(255, 255, 255)" style="fill-opacity:1.00" />
<!-- End 'A' -->
<!-- Begin 'G' -->
<ellipse cx="115.000000" cy="102.343756" rx="25.000000" ry="2.308612" fill="rgb(255, 165, 0)" style="fill-opacity:1.00" />
<ellipse cx="115.000000" cy="102.343756" rx="16.666667" ry="1.539075" fill="rgb(255, 255, 255)" style="fill-opacity:1.00" />
<rect height="2.308612" width="25.000000" x="115.000000" y="101.189450" fill="rgb(255, 255, 255)" style="fill-opacity:1.00" />
<rect height="0.577153" width="25.000000" x="115.000000" y="102.920909" fill="rgb(255, 165, 0)" style="fill-opacity:1.00" />
<rect height="1.731459" width="6.250000" x="133.750000" y="102.920909" fill="rgb(255, 165, 0)" style="fill-opacity:1.00" />
<!-- End 'G' -->
<!-- Begin 'T' -->
<rect height="0.645350" width="50.000000" x="90.000000" y="104.652368" fill="rgb(0, 100, 0)" style="fill-opacity:1.00" />
<rect height="4.033437" width="10.000000" x="110.000000" y="104.652368" fill="rgb(0, 100, 0)" style="fill-opacity:1.00" />
<!-- End 'T' -->
<!-- Begin 'C' -->
<ellipse cx="115.000000" cy="109.342902" rx="25.000000" ry="0.657098" fill="rgb(0, 0, 128)" style="fill-opacity:1.00" />
<ellipse cx="115.000000" cy="109.342902" rx="16.666667" ry="0.438065" fill="rgb(255, 255, 255)" style="fill-opacity:1.00" />
<rect height="0.657098" width="25.000000" x="115.000000" y="109.014354" fill="rgb(255, 255, 255)" style="fill-opacity:1.00" />
<!-- End 'C' -->
<!-- Begin 'C' -->
<ellipse cx="175.000000" cy="70.701933" rx="25.000000" ry="26.054254" fill="rgb(0, 0, 128)" style="fill-opacity:1.00" />
<ellipse cx="175.000000" cy="70.701933" rx="16.666667" ry="17.369503" fill="rgb(255, 255, 255)" style="fill-opacity:1.00" />
<rect height="26.054254" width="25.000000" x="175.000000" y="57.674806" fill="rgb(255, 255, 255)" style="fill-opacity:1.00" />
<!-- End 'C' -->
<!-- Begin 'A' -->
<polygon points=" 150.000000, 100.255433, 171.000000, 96.756187, 179.000000, 96.756187, 200.000000, 100.255433, 192.500000, 100.255433, 186.250000, 99.380621, 163.750000, 99.380621, 157.500000, 100.255433" fill="rgb(178, 34, 34)" style="fill-opacity:1.00" />
<!-- End 'A' -->
<!-- Begin 'G' -->
<ellipse cx="175.000000" cy="101.366655" rx="25.000000" ry="1.111223" fill="rgb(255, 165, 0)" style="fill-opacity:1.00" />
<ellipse cx="175.000000" cy="101.366655" rx="16.666667" ry="0.740815" fill="rgb(255, 255, 255)" style="fill-opacity:1.00" />
<rect height="1.111223" width="25.000000" x="175.000000" y="100.811044" fill="rgb(255, 255, 255)" style="fill-opacity:1.00" />
<rect height="0.277806" width="25.000000" x="175.000000" y="101.644461" fill="rgb(255, 165, 0)" style="fill-opacity:1.00" />
<rect height="0.833417" width="6.250000" x="193.750000" y="101.644461" fill="rgb(255, 165, 0)" style="fill-opacity:1.00" />
<!-- End 'G' -->
<!-- Begin 'T' -->
<rect height="0.056045" width="50.000000" x="150.000000" y="102.477878" fill="rgb(0, 100, 0)" style="fill-opacity:1.00" />
<rect height="0.350283" width="10.000000" x="170.000000" y="102.477878" fill="rgb(0, 100, 0)" style="fill-opacity:1.00" />
<!-- End 'T' -->
<!-- Begin 'C' -->
<ellipse cx="235.000000" cy="63.832929" rx="25.000000" ry="25.401220" fill="rgb(0, 0, 128)" style="fill-opacity:1.00" />
<ellipse cx="235.000000" cy="63.832929" rx="16.666667" ry="16.934147" fill="rgb(255, 255, 255)" style="fill-opacity:1.00" />
<rect height="25.401220" width="25.000000" x="235.000000" y="51.132319" fill="rgb(255, 255, 255)" style="fill-opacity:1.00" />
<!-- End 'C' -->
<!-- Begin 'A' -->
<polygon points=" 210.000000, 92.505823, 231.000000, 89.234149, 239.000000, 89.234149, 260.000000, 92.505823, 252.500000, 92.505823, 246.250000, 91.687905, 223.750000, 91.687905, 217.500000, 92.505823" fill="rgb(178, 34, 34)" style="fill-opacity:1.00" />
<!-- End 'A' -->
<!-- Begin 'G' -->
<ellipse cx="235.000000" cy="92.558855" rx="25.000000" ry="0.053032" fill="rgb(255, 165, 0)" style="fill-opacity:1.00" />
<ellipse cx="235.000000" cy="92.558855" rx="16.666667" ry="0.035355" fill="rgb(255, 255, 255)" style="fill-opacity:1.00" />
<rect height="0.053032" width="25.000000" x="235.000000" y="92.532339" fill="rgb(255, 255, 255)" style="fill-opacity:1.00" />
<rect height="0.013258" width="25.000000" x="235.000000" y="92.572113" fill="rgb(255, 165, 0)" style="fill-opacity:1.00" />
<rect height="0.039774" width="6.250000" x="253.750000" y="92.572113" fill="rgb(255, 165, 0)" style="fill-opacity:1.00" />
<!-- End 'G' -->
<!-- Begin 'T' -->
<rect height="0.000186" width="50.000000" x="210.000000" y="92.611887" fill="rgb(0, 100, 0)" style="fill-opacity:1.00" />
<rect height="0.001166" width="10.000000" x="230.000000" y="92.611887" fill="rgb(0, 100, 0)" style="fill-opacity:1.00" />
<!-- End 'T' -->
<!-- Begin 'G' -->
<ellipse cx="295.000000" cy="55.596016" rx="25.000000" ry="23.518494" fill="rgb(255, 165, 0)" style="fill-opacity:1.00" />
<ellipse cx="295.000000" cy="55.596016" rx="16.666667" ry="15.678996" fill="rgb(255, 255, 255)" style="fill-opacity:1.00" />
<rect height="23.518494" width="25.000000" x="295.000000" y="43.836768" fill="rgb(255, 255, 255)" style="fill-opacity:1.00" />
<rect height="5.879624" width="25.000000" x="295.000000" y="61.475639" fill="rgb(255, 165, 0)" style="fill-opacity:1.00" />
<rect height="17.638871" width="6.250000" x="313.750000" y="61.475639" fill="rgb(255, 165, 0)" style="fill-opacity:1.00" />
<!-- End 'G' -->
<!-- Begin 'A' -->
<polygon points=" 270.000000, 79.120985, 291.000000, 79.114510, 299.000000, 79.114510, 320.000000, 79.120985, 312.500000, 79.120985, 306.250000, 79.119366, 283.750000, 79.119366, 277.500000, 79.120985" fill="rgb(178, 34, 34)" style="fill-opacity:1.00" />
<!-- End 'A' -->
<!-- Begin 'T' -->
<rect height="0.000518" width="50.000000" x="270.000000" y="79.120985" fill="rgb(0, 100, 0)" style="fill-opacity:1.00" />
<rect height="0.003237" width="10.000000" x="290.000000" y="79.120985" fill="rgb(0, 100, 0)" style="fill-opacity:1.00" />
<!-- End 'T' -->
<!-- Begin 'C' -->
<ellipse cx="295.000000" cy="79.124762" rx="25.000000" ry="0.000540" fill="rgb(0, 0, 128)" style="fill-opacity:1.00" />
<ellipse cx="295.000000" cy="79.124762" rx="16.666667" ry="0.000360" fill="rgb(255, 255, 255)" style="fill-opacity:1.00" />
<rect height="0.000540" width="25.000000" x="295.000000" y="79.124492" fill="rgb(255, 255, 255)" style="fill-opacity:1.00" />
<!-- End 'C' -->
<!-- Begin 'G' -->
<ellipse cx="355.000000" cy="53.629660" rx="25.000000" ry="17.870510" fill="rgb(255, 165, 0)" style="fill-opacity:1.00" />
<ellipse cx="355.000000" cy="53.629660" rx="16.666667" ry="11.913673" fill="rgb(255, 255, 255)" style="fill-opacity:1.00" />
<rect height="17.870510" width="25.000000" x="355.000000" y="44.694405" fill="rgb(255, 255, 255)" style="fill-opacity:1.00" />
<rect height="4.467627" width="25.000000" x="355.000000" y="58.097288" fill="rgb(255, 165, 0)" style="fill-opacity:1.00" />
<rect height="13.402882" width="6.250000" x="373.750000" y="58.097288" fill="rgb(255, 165, 0)" style="fill-opacity:1.00" />
<!-- End 'G' -->
<!-- Begin 'T' -->
<rect height="0.008003" width="50.000000" x="330.000000" y="71.500170" fill="rgb(0, 100, 0)" style="fill-opacity:1.00" />
<rect height="0.050020" width="10.000000" x="350.000000" y="71.500170" fill="rgb(0, 100, 0)" style="fill-opacity:1.00" />
<!-- End 'T' -->
<!-- Begin 'C' -->
<ellipse cx="355.000000" cy="71.550599" rx="25.000000" ry="0.000410" fill="rgb(0, 0, 128)" style="fill-opacity:1.00" />
<ellipse cx="355.000000" cy="71.550599" rx="16.666667" ry="0.000273" fill="rgb(255, 255, 255)" style="fill-opacity:1.00" />
<rect height="0.000410" width="25.000000" x="355.000000" y="71.550394" fill="rgb(255, 255, 255)" style="fill-opacity:1.00" />
<!-- End 'C' -->
<!-- Begin 'A' -->
<polygon points=" 330.000000, 71.551829, 351.000000, 71.551009, 359.000000, 71.551009, 380.000000, 71.551829, 372.500000, 71.551829, 366.250000, 71.551624, 343.750000, 71.551624, 337.500000, 71.551829" fill="rgb(178, 34, 34)" style="fill-opacity:1.00" />
<!-- End 'A' -->
<!-- Begin 'A' -->
<polygon points=" 390.000000, 64.945220, 411.000000, 36.809965, 419.000000, 36.809965, 440.000000, 64.945220, 432.500000, 64.945220, 426.250000, 57.911406, 403.750000, 57.911406, 397.500000, 64.945220" fill="rgb(178, 34, 34)" style="fill-opacity:1.00" />
<polygon points=" 415.000000, 42.437016, 407.000000, 52.691118, 422.000000, 52.691118" fill="rgb(255, 255, 255)" style="fill-opacity:1.00" />
<!-- End 'A' -->
<!-- Begin 'C' -->
<ellipse cx="415.000000" cy="64.952321" rx="25.000000" ry="0.007100" fill="rgb(0, 0, 128)" style="fill-opacity:1.00" />
<ellipse cx="415.000000" cy="64.952321" rx="16.666667" ry="0.004734" fill="rgb(255, 255, 255)" style="fill-opacity:1.00" />
<rect height="0.007100" width="25.000000" x="415.000000" y="64.948770" fill="rgb(255, 255, 255)" style="fill-opacity:1.00" />
<!-- End 'C' -->
<!-- Begin 'G' -->
<ellipse cx="415.000000" cy="64.965876" rx="25.000000" ry="0.006455" fill="rgb(255, 165, 0)" style="fill-opacity:1.00" />
<ellipse cx="415.000000" cy="64.965876" rx="16.666667" ry="0.004303" fill="rgb(255, 255, 255)" style="fill-opacity:1.00" />
<rect height="0.006455" width="25.000000" x="415.000000" y="64.962649" fill="rgb(255, 255, 255)" style="fill-opacity:1.00" />
<rect height="0.001614" width="25.000000" x="415.000000" y="64.967490" fill="rgb(255, 165, 0)" style="fill-opacity:1.00" />
<rect height="0.004841" width="6.250000" x="433.750000" y="64.967490" fill="rgb(255, 165, 0)" style="fill-opacity:1.00" />
<!-- End 'G' -->
<!-- Begin 'T' -->
<rect height="0.001239" width="50.000000" x="390.000000" y="64.972331" fill="rgb(0, 100, 0)" style="fill-opacity:1.00" />
<rect height="0.007746" width="10.000000" x="410.000000" y="64.972331" fill="rgb(0, 100, 0)" style="fill-opacity:1.00" />
<!-- End 'T' -->
<!-- Begin 'A' -->
<polygon points=" 450.000000, 66.145850, 471.000000, 46.728345, 479.000000, 46.728345, 500.000000, 66.145850, 492.500000, 66.145850, 486.250000, 61.291474, 463.750000, 61.291474, 457.500000, 66.145850" fill="rgb(178, 34, 34)" style="fill-opacity:1.00" />
<polygon points=" 475.000000, 50.611846, 467.000000, 57.378848, 482.000000, 57.378848" fill="rgb(255, 255, 255)" style="fill-opacity:1.00" />
<!-- End 'A' -->
<!-- Begin 'T' -->
<rect height="0.432373" width="50.000000" x="450.000000" y="66.145850" fill="rgb(0, 100, 0)" style="fill-opacity:1.00" />
<rect height="2.702333" width="10.000000" x="470.000000" y="66.145850" fill="rgb(0, 100, 0)" style="fill-opacity:1.00" />
<!-- End 'T' -->
<!-- Begin 'C' -->
<ellipse cx="475.000000" cy="68.899637" rx="25.000000" ry="0.051454" fill="rgb(0, 0, 128)" style="fill-opacity:1.00" />
<ellipse cx="475.000000" cy="68.899637" rx="16.666667" ry="0.034303" fill="rgb(255, 255, 255)" style="fill-opacity:1.00" />
<rect height="0.051454" width="25.000000" x="475.000000" y="68.873910" fill="rgb(255, 255, 255)" style="fill-opacity:1.00" />
<!-- End 'C' -->
<!-- Begin 'G' -->
<ellipse cx="475.000000" cy="68.956660" rx="25.000000" ry="0.005569" fill="rgb(255, 165, 0)" style="fill-opacity:1.00" />
<ellipse cx="475.000000" cy="68.956660" rx="16.666667" ry="0.003712" fill="rgb(255, 255, 255)" style="fill-opacity:1.00" />
<rect height="0.005569" width="25.000000" x="475.000000" y="68.953875" fill="rgb(255, 255, 255)" style="fill-opacity:1.00" />
<rect height="0.001392" width="25.000000" x="475.000000" y="68.958052" fill="rgb(255, 165, 0)" style="fill-opacity:1.00" />
<rect height="0.004176" width="6.250000" x="493.750000" y="68.958052" fill="rgb(255, 165, 0)" style="fill-opacity:1.00" />
<!-- End 'G' -->
<!-- Begin 'G' -->
<ellipse cx="535.000000" cy="55.950083" rx="25.000000" ry="4.617003" fill="rgb(255, 165, 0)" style="fill-opacity:1.00" />
<ellipse cx="535.000000" cy="55.950083" rx="16.666667" ry="3.078002" fill="rgb(255, 255, 255)" style="fill-opacity:1.00" />
<rect height="4.617003" width="25.000000" x="535.000000" y="53.641581" fill="rgb(255, 255, 255)" style="fill-opacity:1.00" />
<rect height="1.154251" width="25.000000" x="535.000000" y="57.104334" fill="rgb(255, 165, 0)" style="fill-opacity:1.00" />
<rect height="3.462752" width="6.250000" x="553.750000" y="57.104334" fill="rgb(255, 165, 0)" style="fill-opacity:1.00" />
<!-- End 'G' -->
<!-- Begin 'A' -->
<polygon points=" 510.000000, 67.771384, 531.000000, 60.567086, 539.000000, 60.567086, 560.000000, 67.771384, 552.500000, 67.771384, 546.250000, 65.970310, 523.750000, 65.970310, 517.500000, 67.771384" fill="rgb(178, 34, 34)" style="fill-opacity:1.00" />
<!-- End 'A' -->
<!-- Begin 'C' -->
<ellipse cx="535.000000" cy="67.877734" rx="25.000000" ry="0.106350" fill="rgb(0, 0, 128)" style="fill-opacity:1.00" />
<ellipse cx="535.000000" cy="67.877734" rx="16.666667" ry="0.070900" fill="rgb(255, 255, 255)" style="fill-opacity:1.00" />
<rect height="0.106350" width="25.000000" x="535.000000" y="67.824559" fill="rgb(255, 255, 255)" style="fill-opacity:1.00" />
<!-- End 'C' -->
<!-- Begin 'T' -->
<rect height="0.005069" width="50.000000" x="510.000000" y="67.984085" fill="rgb(0, 100, 0)" style="fill-opacity:1.00" />
<rect height="0.031679" width="10.000000" x="530.000000" y="67.984085" fill="rgb(0, 100, 0)" style="fill-opacity:1.00" />
<!-- End 'T' -->
<!-- Begin 'T' -->
<rect height="1.651119" width="50.000000" x="570.000000" y="48.798457" fill="rgb(0, 100, 0)" style="fill-opacity:1.00" />
<rect height="10.319491" width="10.000000" x="590.000000" y="48.798457" fill="rgb(0, 100, 0)" style="fill-opacity:1.00" />
<!-- End 'T' -->
<!-- Begin 'C' -->
<ellipse cx="595.000000" cy="60.896654" rx="25.000000" ry="1.778707" fill="rgb(0, 0, 128)" style="fill-opacity:1.00" />
<ellipse cx="595.000000" cy="60.896654" rx="16.666667" ry="1.185804" fill="rgb(255, 255, 255)" style="fill-opacity:1.00" />
<rect height="1.778707" width="25.000000" x="595.000000" y="60.007301" fill="rgb(255, 255, 255)" style="fill-opacity:1.00" />
<!-- End 'C' -->
<!-- Begin 'G' -->
<ellipse cx="595.000000" cy="62.991657" rx="25.000000" ry="0.316296" fill="rgb(255, 165, 0)" style="fill-opacity:1.00" />
<ellipse cx="595.000000" cy="62.991657" rx="16.666667" ry="0.210864" fill="rgb(255, 255, 255)" style="fill-opacity:1.00" />
<rect height="0.316296" width="25.000000" x="595.000000" y="62.833509" fill="rgb(255, 255, 255)" style="fill-opacity:1.00" />
<rect height="0.079074" width="25.000000" x="595.000000" y="63.070731" fill="rgb(255, 165, 0)" style="fill-opacity:1.00" />
<rect height="0.237222" width="6.250000" x="613.750000" y="63.070731" fill="rgb(255, 165, 0)" style="fill-opacity:1.00" />
<!-- End 'G' -->
<!-- Begin 'A' -->
<polygon points=" 570.000000, 63.593845, 591.000000, 63.307953, 599.000000, 63.307953, 620.000000, 63.593845, 612.500000, 63.593845, 606.250000, 63.522372, 583.750000, 63.522372, 577.500000, 63.593845" fill="rgb(178, 34, 34)" style="fill-opacity:1.00" />
<!-- End 'A' -->
<!-- Begin 'G' -->
<ellipse cx="655.000000" cy="53.412264" rx="25.000000" ry="2.421858" fill="rgb(255, 165, 0)" style="fill-opacity:1.00" />
<ellipse cx="655.000000" cy="53.412264" rx="16.666667" ry="1.614572" fill="rgb(255, 255, 255)" style="fill-opacity:1.00" />
<rect height="2.421858" width="25.000000" x="655.000000" y="52.201335" fill="rgb(255, 255, 255)" style="fill-opacity:1.00" />
<rect height="0.605464" width="25.000000" x="655.000000" y="54.017728" fill="rgb(255, 165, 0)" style="fill-opacity:1.00" />
<rect height="1.816393" width="6.250000" x="673.750000" y="54.017728" fill="rgb(255, 165, 0)" style="fill-opacity:1.00" />
<!-- End 'G' -->
<!-- Begin 'A' -->
<polygon points=" 630.000000, 58.611540, 651.000000, 55.834122, 659.000000, 55.834122, 680.000000, 58.611540, 672.500000, 58.611540, 666.250000, 57.917186, 643.750000, 57.917186, 637.500000, 58.611540" fill="rgb(178, 34, 34)" style="fill-opacity:1.00" />
<!-- End 'A' -->
<!-- Begin 'C' -->
<ellipse cx="655.000000" cy="59.618462" rx="25.000000" ry="1.006922" fill="rgb(0, 0, 128)" style="fill-opacity:1.00" />
<ellipse cx="655.000000" cy="59.618462" rx="16.666667" ry="0.671281" fill="rgb(255, 255, 255)" style="fill-opacity:1.00" />
<rect height="1.006922" width="25.000000" x="655.000000" y="59.115001" fill="rgb(255, 255, 255)" style="fill-opacity:1.00" />
<!-- End 'C' -->
<!-- Begin 'T' -->
<rect height="0.278457" width="50.000000" x="630.000000" y="60.625384" fill="rgb(0, 100, 0)" style="fill-opacity:1.00" />
<rect height="1.740356" width="10.000000" x="650.000000" y="60.625384" fill="rgb(0, 100, 0)" style="fill-opacity:1.00" />
<!-- End 'T' -->
<text x="370.000000" y="165">
IC = 13.07
</text>

</svg>
