<?xml version="1.0" encoding="UTF-8" standalone="yes"?>
                 <!DOCTYPE svg PUBLIC "-//W3C//DTD SVG 1.0//EN" "http://www.w3.org/TR/2001/REC-SVG-20010904/DTD/svg10.dtd">
                 <svg height="170" width="840" xmlns="http://www.w3.org/2000/svg" xmlns:xlink="http://www.w3.org/1999/xlink">
                 <line x1="85" y1="120" x2="807" y2="120" style="stroke:rgb(99,99,99);stroke-width:2" />
<rect height="7.000000" width="2.000000" x="85.000000" y="120.000000" fill="rgb(0, 0, 0)" style="fill-opacity:1.00" />
<text x="107.000000" y="140">
1
</text>
<rect height="7.000000" width="2.000000" x="145.000000" y="120.000000" fill="rgb(0, 0, 0)" style="fill-opacity:1.00" />
<text x="167.000000" y="140">
2
</text>
<rect height="7.000000" width="2.000000" x="205.000000" y="120.000000" fill="rgb(0, 0, 0)" style="fill-opacity:1.00" />
<text x="227.000000" y="140">
3
</text>
<rect height="7.000000" width="2.000000" x="265.000000" y="120.000000" fill="rgb(0, 0, 0)" style="fill-opacity:1.00" />
<text x="287.000000" y="140">
4
</text>
<rect height="7.000000" width="2.000000" x="325.000000" y="120.000000" fill="rgb(0, 0, 0)" style="fill-opacity:1.00" />
<text x="347.000000" y="140">
5
</text>
<rect height="7.000000" width="2.000000" x="385.000000" y="120.000000" fill="rgb(0, 0, 0)" style="fill-opacity:1.00" />
<text x="407.000000" y="140">
6
</text>
<rect height="7.000000" width="2.000000" x="445.000000" y="120.000000" fill="rgb(0, 0, 0)" style="fill-opacity:1.00" />
<text x="467.000000" y="140">
7
</text>
<rect height="7.000000" width="2.000000" x="505.000000" y="120.000000" fill="rgb(0, 0, 0)" style="fill-opacity:1.00" />
<text x="527.000000" y="140">
8
</text>
<rect height="7.000000" width="2.000000" x="565.000000" y="120.000000" fill="rgb(0, 0, 0)" style="fill-opacity:1.00" />
<text x="587.000000" y="140">
9
</text>
<rect height="7.000000" width="2.000000" x="625.000000" y="120.000000" fill="rgb(0, 0, 0)" style="fill-opacity:1.00" />
<text x="647.000000" y="140">
10
</text>
<rect height="7.000000" width="2.000000" x="685.000000" y="120.000000" fill="rgb(0, 0, 0)" style="fill-opacity:1.00" />
<text x="707.000000" y="140">
11
</text>
<rect height="7.000000" width="2.000000" x="745.000000" y="120.000000" fill="rgb(0, 0, 0)" style="fill-opacity:1.00" />
<text x="767.000000" y="140">
12
</text>
<rect height="7.000000" width="2.000000" x="805.000000" y="120.000000" fill="rgb(0, 0, 0)" style="fill-opacity:1.00" />
<line x1="80" y1="112" x2="80" y2="10" style="stroke:rgb(99,99,99);stroke-width:2" />
<rect height="2.000000" width="7.000000" x="73.000000" y="110.000000" fill="rgb(0, 0, 0)" style="fill-opacity:1.00" />
<text x="63" y="115">
0
</text>
<rect height="2.000000" width="7.000000" x="73.000000" y="60.000000" fill="rgb(0, 0, 0)" style="fill-opacity:1.00" />
<text x="63" y="65">
1
</text>
<rect height="2.000000" width="7.000000" x="73.000000" y="10.000000" fill="rgb(0, 0, 0)" style="fill-opacity:1.00" />
<text x="63" y="15">
2
</text>
<text x="50" y="65"
transform="rotate(-90, 50, 70)">
bits
</text>
<!-- Begin 'A' -->
<polygon points=" 90.000000, 108.297706, 111.000000, 107.493454, 119.000000, 107.493454, 140.000000, 108.297706, 132.500000, 108.297706, 126.250000, 108.096643, 103.750000, 108.096643, 97.500000, 108.297706" fill="rgb(178, 34, 34)" style="fill-opacity:1.00" />
<!-- End 'A' -->
<!-- Begin 'T' -->
<rect height="0.116489" width="50.000000" x="90.000000" y="108.297706" fill="rgb(0, 100, 0)" style="fill-opacity:1.00" />
<rect height="0.728058" width="10.000000" x="110.000000" y="108.297706" fill="rgb(0, 100, 0)" style="fill-opacity:1.00" />
<!-- End 'T' -->
<!-- Begin 'G' -->
<ellipse cx="115.000000" cy="109.321526" rx="25.000000" ry="0.295762" fill="rgb(255, 165, 0)" style="fill-opacity:1.00" />
<ellipse cx="115.000000" cy="109.321526" rx="16.666667" ry="0.197174" fill="rgb(255, 255, 255)" style="fill-opacity:1.00" />
<rect height="0.295762" width="25.000000" x="115.000000" y="109.173645" fill="rgb(255, 255, 255)" style="fill-opacity:1.00" />
<rect height="0.073940" width="25.000000" x="115.000000" y="109.395466" fill="rgb(255, 165, 0)" style="fill-opacity:1.00" />
<rect height="0.221821" width="6.250000" x="133.750000" y="109.395466" fill="rgb(255, 165, 0)" style="fill-opacity:1.00" />
<!-- End 'G' -->
<!-- Begin 'C' -->
<ellipse cx="115.000000" cy="109.808644" rx="25.000000" ry="0.191356" fill="rgb(0, 0, 128)" style="fill-opacity:1.00" />
<ellipse cx="115.000000" cy="109.808644" rx="16.666667" ry="0.127571" fill="rgb(255, 255, 255)" style="fill-opacity:1.00" />
<rect height="0.191356" width="25.000000" x="115.000000" y="109.712966" fill="rgb(255, 255, 255)" style="fill-opacity:1.00" />
<!-- End 'C' -->
<!-- Begin 'T' -->
<rect height="0.568789" width="50.000000" x="150.000000" y="101.535525" fill="rgb(0, 100, 0)" style="fill-opacity:1.00" />
<rect height="3.554928" width="10.000000" x="170.000000" y="101.535525" fill="rgb(0, 100, 0)" style="fill-opacity:1.00" />
<!-- End 'T' -->
<!-- Begin 'A' -->
<polygon points=" 150.000000, 107.666279, 171.000000, 105.090454, 179.000000, 105.090454, 200.000000, 107.666279, 192.500000, 107.666279, 186.250000, 107.022322, 163.750000, 107.022322, 157.500000, 107.666279" fill="rgb(178, 34, 34)" style="fill-opacity:1.00" />
<!-- End 'A' -->
<!-- Begin 'G' -->
<ellipse cx="175.000000" cy="108.346005" rx="25.000000" ry="0.679727" fill="rgb(255, 165, 0)" style="fill-opacity:1.00" />
<ellipse cx="175.000000" cy="108.346005" rx="16.666667" ry="0.453151" fill="rgb(255, 255, 255)" style="fill-opacity:1.00" />
<rect height="0.679727" width="25.000000" x="175.000000" y="108.006142" fill="rgb(255, 255, 255)" style="fill-opacity:1.00" />
<rect height="0.169932" width="25.000000" x="175.000000" y="108.515937" fill="rgb(255, 165, 0)" style="fill-opacity:1.00" />
<rect height="0.509795" width="6.250000" x="193.750000" y="108.515937" fill="rgb(255, 165, 0)" style="fill-opacity:1.00" />
<!-- End 'G' -->
<!-- Begin 'C' -->
<ellipse cx="175.000000" cy="109.512866" rx="25.000000" ry="0.487134" fill="rgb(0, 0, 128)" style="fill-opacity:1.00" />
<ellipse cx="175.000000" cy="109.512866" rx="16.666667" ry="0.324756" fill="rgb(255, 255, 255)" style="fill-opacity:1.00" />
<rect height="0.487134" width="25.000000" x="175.000000" y="109.269299" fill="rgb(255, 255, 255)" style="fill-opacity:1.00" />
<!-- End 'C' -->
<!-- Begin 'C' -->
<ellipse cx="235.000000" cy="99.706667" rx="25.000000" ry="3.578952" fill="rgb(0, 0, 128)" style="fill-opacity:1.00" />
<ellipse cx="235.000000" cy="99.706667" rx="16.666667" ry="2.385968" fill="rgb(255, 255, 255)" style="fill-opacity:1.00" />
<rect height="3.578952" width="25.000000" x="235.000000" y="97.917191" fill="rgb(255, 255, 255)" style="fill-opacity:1.00" />
<!-- End 'C' -->
<!-- Begin 'T' -->
<rect height="0.506641" width="50.000000" x="210.000000" y="103.285619" fill="rgb(0, 100, 0)" style="fill-opacity:1.00" />
<rect height="3.166504" width="10.000000" x="230.000000" y="103.285619" fill="rgb(0, 100, 0)" style="fill-opacity:1.00" />
<!-- End 'T' -->
<!-- Begin 'A' -->
<polygon points=" 210.000000, 108.734145, 231.000000, 106.452123, 239.000000, 106.452123, 260.000000, 108.734145, 252.500000, 108.734145, 246.250000, 108.163639, 223.750000, 108.163639, 217.500000, 108.734145" fill="rgb(178, 34, 34)" style="fill-opacity:1.00" />
<!-- End 'A' -->
<!-- Begin 'G' -->
<ellipse cx="235.000000" cy="109.367073" rx="25.000000" ry="0.632927" fill="rgb(255, 165, 0)" style="fill-opacity:1.00" />
<ellipse cx="235.000000" cy="109.367073" rx="16.666667" ry="0.421952" fill="rgb(255, 255, 255)" style="fill-opacity:1.00" />
<rect height="0.632927" width="25.000000" x="235.000000" y="109.050609" fill="rgb(255, 255, 255)" style="fill-opacity:1.00" />
<rect height="0.158232" width="25.000000" x="235.000000" y="109.525304" fill="rgb(255, 165, 0)" style="fill-opacity:1.00" />
<rect height="0.474696" width="6.250000" x="253.750000" y="109.525304" fill="rgb(255, 165, 0)" style="fill-opacity:1.00" />
<!-- End 'G' -->
<!-- Begin 'C' -->
<ellipse cx="295.000000" cy="95.374105" rx="25.000000" ry="5.563666" fill="rgb(0, 0, 128)" style="fill-opacity:1.00" />
<ellipse cx="295.000000" cy="95.374105" rx="16.666667" ry="3.709110" fill="rgb(255, 255, 255)" style="fill-opacity:1.00" />
<rect height="5.563666" width="25.000000" x="295.000000" y="92.592272" fill="rgb(255, 255, 255)" style="fill-opacity:1.00" />
<!-- End 'C' -->
<!-- Begin 'T' -->
<rect height="0.892544" width="50.000000" x="270.000000" y="100.937771" fill="rgb(0, 100, 0)" style="fill-opacity:1.00" />
<rect height="5.578402" width="10.000000" x="290.000000" y="100.937771" fill="rgb(0, 100, 0)" style="fill-opacity:1.00" />
<!-- End 'T' -->
<!-- Begin 'A' -->
<polygon points=" 270.000000, 108.326044, 291.000000, 106.516173, 299.000000, 106.516173, 320.000000, 108.326044, 312.500000, 108.326044, 306.250000, 107.873576, 283.750000, 107.873576, 277.500000, 108.326044" fill="rgb(178, 34, 34)" style="fill-opacity:1.00" />
<!-- End 'A' -->
<!-- Begin 'G' -->
<ellipse cx="295.000000" cy="109.163022" rx="25.000000" ry="0.836978" fill="rgb(255, 165, 0)" style="fill-opacity:1.00" />
<ellipse cx="295.000000" cy="109.163022" rx="16.666667" ry="0.557985" fill="rgb(255, 255, 255)" style="fill-opacity:1.00" />
<rect height="0.836978" width="25.000000" x="295.000000" y="108.744533" fill="rgb(255, 255, 255)" style="fill-opacity:1.00" />
<rect height="0.209245" width="25.000000" x="295.000000" y="109.372266" fill="rgb(255, 165, 0)" style="fill-opacity:1.00" />
<rect height="0.627734" width="6.250000" x="313.750000" y="109.372266" fill="rgb(255, 165, 0)" style="fill-opacity:1.00" />
<!-- End 'G' -->
<!-- Begin 'G' -->
<ellipse cx="355.000000" cy="61.679758" rx="25.000000" ry="47.438003" fill="rgb(255, 165, 0)" style="fill-opacity:1.00" />
<ellipse cx="355.000000" cy="61.679758" rx="16.666667" ry="31.625336" fill="rgb(255, 255, 255)" style="fill-opacity:1.00" />
<rect height="47.438003" width="25.000000" x="355.000000" y="37.960756" fill="rgb(255, 255, 255)" style="fill-opacity:1.00" />
<rect height="11.859501" width="25.000000" x="355.000000" y="73.539259" fill="rgb(255, 165, 0)" style="fill-opacity:1.00" />
<rect height="35.578503" width="6.250000" x="373.750000" y="73.539259" fill="rgb(255, 165, 0)" style="fill-opacity:1.00" />
<!-- End 'G' -->
<!-- Begin 'A' -->
<polygon points=" 330.000000, 109.700035, 351.000000, 109.117762, 359.000000, 109.117762, 380.000000, 109.700035, 372.500000, 109.700035, 366.250000, 109.554467, 343.750000, 109.554467, 337.500000, 109.700035" fill="rgb(178, 34, 34)" style="fill-opacity:1.00" />
<!-- End 'A' -->
<!-- Begin 'C' -->
<ellipse cx="355.000000" cy="109.843757" rx="25.000000" ry="0.143722" fill="rgb(0, 0, 128)" style="fill-opacity:1.00" />
<ellipse cx="355.000000" cy="109.843757" rx="16.666667" ry="0.095815" fill="rgb(255, 255, 255)" style="fill-opacity:1.00" />
<rect height="0.143722" width="25.000000" x="355.000000" y="109.771896" fill="rgb(255, 255, 255)" style="fill-opacity:1.00" />
<!-- End 'C' -->
<!-- Begin 'T' -->
<rect height="0.002003" width="50.000000" x="330.000000" y="109.987480" fill="rgb(0, 100, 0)" style="fill-opacity:1.00" />
<rect height="0.012520" width="10.000000" x="350.000000" y="109.987480" fill="rgb(0, 100, 0)" style="fill-opacity:1.00" />
<!-- End 'T' -->
<!-- Begin 'T' -->
<rect height="15.727497" width="50.000000" x="390.000000" y="11.441067" fill="rgb(0, 100, 0)" style="fill-opacity:1.00" />
<rect height="98.296857" width="10.000000" x="410.000000" y="11.441067" fill="rgb(0, 100, 0)" style="fill-opacity:1.00" />
<!-- End 'T' -->
<!-- Begin 'G' -->
<ellipse cx="415.000000" cy="109.844258" rx="25.000000" ry="0.106335" fill="rgb(255, 165, 0)" style="fill-opacity:1.00" />
<ellipse cx="415.000000" cy="109.844258" rx="16.666667" ry="0.070890" fill="rgb(255, 255, 255)" style="fill-opacity:1.00" />
<rect height="0.106335" width="25.000000" x="415.000000" y="109.791091" fill="rgb(255, 255, 255)" style="fill-opacity:1.00" />
<rect height="0.026584" width="25.000000" x="415.000000" y="109.870842" fill="rgb(255, 165, 0)" style="fill-opacity:1.00" />
<rect height="0.079751" width="6.250000" x="433.750000" y="109.870842" fill="rgb(255, 165, 0)" style="fill-opacity:1.00" />
<!-- End 'G' -->
<!-- Begin 'C' -->
<ellipse cx="415.000000" cy="109.969752" rx="25.000000" ry="0.019159" fill="rgb(0, 0, 128)" style="fill-opacity:1.00" />
<ellipse cx="415.000000" cy="109.969752" rx="16.666667" ry="0.012772" fill="rgb(255, 255, 255)" style="fill-opacity:1.00" />
<rect height="0.019159" width="25.000000" x="415.000000" y="109.960172" fill="rgb(255, 255, 255)" style="fill-opacity:1.00" />
<!-- End 'C' -->
<!-- Begin 'A' -->
<polygon points=" 390.000000, 110.000000, 411.000000, 109.988910, 419.000000, 109.988910, 440.000000, 110.000000, 432.500000, 110.000000, 426.250000, 109.997228, 403.750000, 109.997228, 397.500000, 110.000000" fill="rgb(178, 34, 34)" style="fill-opacity:1.00" />
<!-- End 'A' -->
<!-- Begin 'A' -->
<polygon points=" 450.000000, 109.938430, 471.000000, 10.405139, 479.000000, 10.405139, 500.000000, 109.938430, 492.500000, 109.938430, 486.250000, 85.055107, 463.750000, 85.055107, 457.500000, 109.938430" fill="rgb(178, 34, 34)" style="fill-opacity:1.00" />
<polygon points=" 475.000000, 30.311797, 467.000000, 69.125113, 482.000000, 69.125113" fill="rgb(255, 255, 255)" style="fill-opacity:1.00" />
<!-- End 'A' -->
<!-- Begin 'C' -->
<ellipse cx="475.000000" cy="109.959963" rx="25.000000" ry="0.021533" fill="rgb(0, 0, 128)" style="fill-opacity:1.00" />
<ellipse cx="475.000000" cy="109.959963" rx="16.666667" ry="0.014356" fill="rgb(255, 255, 255)" style="fill-opacity:1.00" />
<rect height="0.021533" width="25.000000" x="475.000000" y="109.949196" fill="rgb(255, 255, 255)" style="fill-opacity:1.00" />
<!-- End 'C' -->
<!-- Begin 'T' -->
<rect height="0.002717" width="50.000000" x="450.000000" y="109.981497" fill="rgb(0, 100, 0)" style="fill-opacity:1.00" />
<rect height="0.016984" width="10.000000" x="470.000000" y="109.981497" fill="rgb(0, 100, 0)" style="fill-opacity:1.00" />
<!-- End 'T' -->
<!-- Begin 'G' -->
<ellipse cx="475.000000" cy="109.999240" rx="25.000000" ry="0.000760" fill="rgb(255, 165, 0)" style="fill-opacity:1.00" />
<ellipse cx="475.000000" cy="109.999240" rx="16.666667" ry="0.000507" fill="rgb(255, 255, 255)" style="fill-opacity:1.00" />
<rect height="0.000760" width="25.000000" x="475.000000" y="109.998860" fill="rgb(255, 255, 255)" style="fill-opacity:1.00" />
<rect height="0.000190" width="25.000000" x="475.000000" y="109.999430" fill="rgb(255, 165, 0)" style="fill-opacity:1.00" />
<rect height="0.000570" width="6.250000" x="493.750000" y="109.999430" fill="rgb(255, 165, 0)" style="fill-opacity:1.00" />
<!-- End 'G' -->
<!-- Begin 'C' -->
<ellipse cx="535.000000" cy="60.395808" rx="25.000000" ry="49.434268" fill="rgb(0, 0, 128)" style="fill-opacity:1.00" />
<ellipse cx="535.000000" cy="60.395808" rx="16.666667" ry="32.956179" fill="rgb(255, 255, 255)" style="fill-opacity:1.00" />
<rect height="49.434268" width="25.000000" x="535.000000" y="35.678673" fill="rgb(255, 255, 255)" style="fill-opacity:1.00" />
<!-- End 'C' -->
<!-- Begin 'T' -->
<rect height="0.024277" width="50.000000" x="510.000000" y="109.830076" fill="rgb(0, 100, 0)" style="fill-opacity:1.00" />
<rect height="0.151734" width="10.000000" x="530.000000" y="109.830076" fill="rgb(0, 100, 0)" style="fill-opacity:1.00" />
<!-- End 'T' -->
<!-- Begin 'G' -->
<ellipse cx="535.000000" cy="109.988507" rx="25.000000" ry="0.006697" fill="rgb(255, 165, 0)" style="fill-opacity:1.00" />
<ellipse cx="535.000000" cy="109.988507" rx="16.666667" ry="0.004465" fill="rgb(255, 255, 255)" style="fill-opacity:1.00" />
<rect height="0.006697" width="25.000000" x="535.000000" y="109.985158" fill="rgb(255, 255, 255)" style="fill-opacity:1.00" />
<rect height="0.001674" width="25.000000" x="535.000000" y="109.990181" fill="rgb(255, 165, 0)" style="fill-opacity:1.00" />
<rect height="0.005023" width="6.250000" x="553.750000" y="109.990181" fill="rgb(255, 165, 0)" style="fill-opacity:1.00" />
<!-- End 'G' -->
<!-- Begin 'A' -->
<polygon points=" 510.000000, 110.000000, 531.000000, 109.995204, 539.000000, 109.995204, 560.000000, 110.000000, 552.500000, 110.000000, 546.250000, 109.998801, 523.750000, 109.998801, 517.500000, 110.000000" fill="rgb(178, 34, 34)" style="fill-opacity:1.00" />
<!-- End 'A' -->
<!-- Begin 'G' -->
<ellipse cx="595.000000" cy="93.996078" rx="25.000000" ry="6.398126" fill="rgb(255, 165, 0)" style="fill-opacity:1.00" />
<ellipse cx="595.000000" cy="93.996078" rx="16.666667" ry="4.265418" fill="rgb(255, 255, 255)" style="fill-opacity:1.00" />
<rect height="6.398126" width="25.000000" x="595.000000" y="90.797014" fill="rgb(255, 255, 255)" style="fill-opacity:1.00" />
<rect height="1.599532" width="25.000000" x="595.000000" y="95.595609" fill="rgb(255, 165, 0)" style="fill-opacity:1.00" />
<rect height="4.798595" width="6.250000" x="613.750000" y="95.595609" fill="rgb(255, 165, 0)" style="fill-opacity:1.00" />
<!-- End 'G' -->
<!-- Begin 'A' -->
<polygon points=" 570.000000, 106.441313, 591.000000, 100.394204, 599.000000, 100.394204, 620.000000, 106.441313, 612.500000, 106.441313, 606.250000, 104.929536, 583.750000, 104.929536, 577.500000, 106.441313" fill="rgb(178, 34, 34)" style="fill-opacity:1.00" />
<!-- End 'A' -->
<!-- Begin 'T' -->
<rect height="0.287416" width="50.000000" x="570.000000" y="106.441313" fill="rgb(0, 100, 0)" style="fill-opacity:1.00" />
<rect height="1.796348" width="10.000000" x="590.000000" y="106.441313" fill="rgb(0, 100, 0)" style="fill-opacity:1.00" />
<!-- End 'T' -->
<!-- Begin 'C' -->
<ellipse cx="595.000000" cy="109.118831" rx="25.000000" ry="0.881169" fill="rgb(0, 0, 128)" style="fill-opacity:1.00" />
<ellipse cx="595.000000" cy="109.118831" rx="16.666667" ry="0.587446" fill="rgb(255, 255, 255)" style="fill-opacity:1.00" />
<rect height="0.881169" width="25.000000" x="595.000000" y="108.678246" fill="rgb(255, 255, 255)" style="fill-opacity:1.00" />
<!-- End 'C' -->
<!-- Begin 'G' -->
<ellipse cx="655.000000" cy="99.009821" rx="25.000000" ry="3.895812" fill="rgb(255, 165, 0)" style="fill-opacity:1.00" />
<ellipse cx="655.000000" cy="99.009821" rx="16.666667" ry="2.597208" fill="rgb(255, 255, 255)" style="fill-opacity:1.00" />
<rect height="3.895812" width="25.000000" x="655.000000" y="97.061915" fill="rgb(255, 255, 255)" style="fill-opacity:1.00" />
<rect height="0.973953" width="25.000000" x="655.000000" y="99.983774" fill="rgb(255, 165, 0)" style="fill-opacity:1.00" />
<rect height="2.921859" width="6.250000" x="673.750000" y="99.983774" fill="rgb(255, 165, 0)" style="fill-opacity:1.00" />
<!-- End 'G' -->
<!-- Begin 'A' -->
<polygon points=" 630.000000, 106.334646, 651.000000, 102.905633, 659.000000, 102.905633, 680.000000, 106.334646, 672.500000, 106.334646, 666.250000, 105.477392, 643.750000, 105.477392, 637.500000, 106.334646" fill="rgb(178, 34, 34)" style="fill-opacity:1.00" />
<!-- End 'A' -->
<!-- Begin 'T' -->
<rect height="0.387190" width="50.000000" x="630.000000" y="106.334646" fill="rgb(0, 100, 0)" style="fill-opacity:1.00" />
<rect height="2.419938" width="10.000000" x="650.000000" y="106.334646" fill="rgb(0, 100, 0)" style="fill-opacity:1.00" />
<!-- End 'T' -->
<!-- Begin 'C' -->
<ellipse cx="655.000000" cy="109.377292" rx="25.000000" ry="0.622708" fill="rgb(0, 0, 128)" style="fill-opacity:1.00" />
<ellipse cx="655.000000" cy="109.377292" rx="16.666667" ry="0.415139" fill="rgb(255, 255, 255)" style="fill-opacity:1.00" />
<rect height="0.622708" width="25.000000" x="655.000000" y="109.065938" fill="rgb(255, 255, 255)" style="fill-opacity:1.00" />
<!-- End 'C' -->
<!-- Begin 'A' -->
<polygon points=" 690.000000, 104.534452, 711.000000, 100.062727, 719.000000, 100.062727, 740.000000, 104.534452, 732.500000, 104.534452, 726.250000, 103.416521, 703.750000, 103.416521, 697.500000, 104.534452" fill="rgb(178, 34, 34)" style="fill-opacity:1.00" />
<!-- End 'A' -->
<!-- Begin 'T' -->
<rect height="0.457579" width="50.000000" x="690.000000" y="104.534452" fill="rgb(0, 100, 0)" style="fill-opacity:1.00" />
<rect height="2.859869" width="10.000000" x="710.000000" y="104.534452" fill="rgb(0, 100, 0)" style="fill-opacity:1.00" />
<!-- End 'T' -->
<!-- Begin 'C' -->
<ellipse cx="715.000000" cy="108.125987" rx="25.000000" ry="0.731666" fill="rgb(0, 0, 128)" style="fill-opacity:1.00" />
<ellipse cx="715.000000" cy="108.125987" rx="16.666667" ry="0.487777" fill="rgb(255, 255, 255)" style="fill-opacity:1.00" />
<rect height="0.731666" width="25.000000" x="715.000000" y="107.760154" fill="rgb(255, 255, 255)" style="fill-opacity:1.00" />
<!-- End 'C' -->
<!-- Begin 'G' -->
<ellipse cx="715.000000" cy="109.428827" rx="25.000000" ry="0.571173" fill="rgb(255, 165, 0)" style="fill-opacity:1.00" />
<ellipse cx="715.000000" cy="109.428827" rx="16.666667" ry="0.380782" fill="rgb(255, 255, 255)" style="fill-opacity:1.00" />
<rect height="0.571173" width="25.000000" x="715.000000" y="109.143240" fill="rgb(255, 255, 255)" style="fill-opacity:1.00" />
<rect height="0.142793" width="25.000000" x="715.000000" y="109.571620" fill="rgb(255, 165, 0)" style="fill-opacity:1.00" />
<rect height="0.428380" width="6.250000" x="733.750000" y="109.571620" fill="rgb(255, 165, 0)" style="fill-opacity:1.00" />
<!-- End 'G' -->
<!-- Begin 'T' -->
<rect height="0.134813" width="50.000000" x="750.000000" y="107.351433" fill="rgb(0, 100, 0)" style="fill-opacity:1.00" />
<rect height="0.842584" width="10.000000" x="770.000000" y="107.351433" fill="rgb(0, 100, 0)" style="fill-opacity:1.00" />
<!-- End 'T' -->
<!-- Begin 'A' -->
<polygon points=" 750.000000, 108.956516, 771.000000, 108.194018, 779.000000, 108.194018, 800.000000, 108.956516, 792.500000, 108.956516, 786.250000, 108.765891, 763.750000, 108.765891, 757.500000, 108.956516" fill="rgb(178, 34, 34)" style="fill-opacity:1.00" />
<!-- End 'A' -->
<!-- Begin 'C' -->
<ellipse cx="775.000000" cy="109.284813" rx="25.000000" ry="0.328298" fill="rgb(0, 0, 128)" style="fill-opacity:1.00" />
<ellipse cx="775.000000" cy="109.284813" rx="16.666667" ry="0.218865" fill="rgb(255, 255, 255)" style="fill-opacity:1.00" />
<rect height="0.328298" width="25.000000" x="775.000000" y="109.120664" fill="rgb(255, 255, 255)" style="fill-opacity:1.00" />
<!-- End 'C' -->
<!-- Begin 'G' -->
<ellipse cx="775.000000" cy="109.806555" rx="25.000000" ry="0.193445" fill="rgb(255, 165, 0)" style="fill-opacity:1.00" />
<ellipse cx="775.000000" cy="109.806555" rx="16.666667" ry="0.128963" fill="rgb(255, 255, 255)" style="fill-opacity:1.00" />
<rect height="0.193445" width="25.000000" x="775.000000" y="109.709833" fill="rgb(255, 255, 255)" style="fill-opacity:1.00" />
<rect height="0.048361" width="25.000000" x="775.000000" y="109.854917" fill="rgb(255, 165, 0)" style="fill-opacity:1.00" />
<rect height="0.145083" width="6.250000" x="793.750000" y="109.854917" fill="rgb(255, 165, 0)" style="fill-opacity:1.00" />
<!-- End 'G' -->
<text x="430.000000" y="165">
IC = 9.76
</text>

</svg>
