<?xml version="1.0" encoding="UTF-8" standalone="yes"?>
                 <!DOCTYPE svg PUBLIC "-//W3C//DTD SVG 1.0//EN" "http://www.w3.org/TR/2001/REC-SVG-20010904/DTD/svg10.dtd">
                 <svg height="170" width="960" xmlns="http://www.w3.org/2000/svg" xmlns:xlink="http://www.w3.org/1999/xlink">
                 <line x1="85" y1="120" x2="927" y2="120" style="stroke:rgb(99,99,99);stroke-width:2" />
<rect height="7.000000" width="2.000000" x="85.000000" y="120.000000" fill="rgb(0, 0, 0)" style="fill-opacity:1.00" />
<text x="107.000000" y="140">
1
</text>
<rect height="7.000000" width="2.000000" x="145.000000" y="120.000000" fill="rgb(0, 0, 0)" style="fill-opacity:1.00" />
<text x="167.000000" y="140">
2
</text>
<rect height="7.000000" width="2.000000" x="205.000000" y="120.000000" fill="rgb(0, 0, 0)" style="fill-opacity:1.00" />
<text x="227.000000" y="140">
3
</text>
<rect height="7.000000" width="2.000000" x="265.000000" y="120.000000" fill="rgb(0, 0, 0)" style="fill-opacity:1.00" />
<text x="287.000000" y="140">
4
</text>
<rect height="7.000000" width="2.000000" x="325.000000" y="120.000000" fill="rgb(0, 0, 0)" style="fill-opacity:1.00" />
<text x="347.000000" y="140">
5
</text>
<rect height="7.000000" width="2.000000" x="385.000000" y="120.000000" fill="rgb(0, 0, 0)" style="fill-opacity:1.00" />
<text x="407.000000" y="140">
6
</text>
<rect height="7.000000" width="2.000000" x="445.000000" y="120.000000" fill="rgb(0, 0, 0)" style="fill-opacity:1.00" />
<text x="467.000000" y="140">
7
</text>
<rect height="7.000000" width="2.000000" x="505.000000" y="120.000000" fill="rgb(0, 0, 0)" style="fill-opacity:1.00" />
<text x="527.000000" y="140">
8
</text>
<rect height="7.000000" width="2.000000" x="565.000000" y="120.000000" fill="rgb(0, 0, 0)" style="fill-opacity:1.00" />
<text x="587.000000" y="140">
9
</text>
<rect height="7.000000" width="2.000000" x="625.000000" y="120.000000" fill="rgb(0, 0, 0)" style="fill-opacity:1.00" />
<text x="647.000000" y="140">
10
</text>
<rect height="7.000000" width="2.000000" x="685.000000" y="120.000000" fill="rgb(0, 0, 0)" style="fill-opacity:1.00" />
<text x="707.000000" y="140">
11
</text>
<rect height="7.000000" width="2.000000" x="745.000000" y="120.000000" fill="rgb(0, 0, 0)" style="fill-opacity:1.00" />
<text x="767.000000" y="140">
12
</text>
<rect height="7.000000" width="2.000000" x="805.000000" y="120.000000" fill="rgb(0, 0, 0)" style="fill-opacity:1.00" />
<text x="827.000000" y="140">
13
</text>
<rect height="7.000000" width="2.000000" x="865.000000" y="120.000000" fill="rgb(0, 0, 0)" style="fill-opacity:1.00" />
<text x="887.000000" y="140">
14
</text>
<rect height="7.000000" width="2.000000" x="925.000000" y="120.000000" fill="rgb(0, 0, 0)" style="fill-opacity:1.00" />
<line x1="80" y1="112" x2="80" y2="10" style="stroke:rgb(99,99,99);stroke-width:2" />
<rect height="2.000000" width="7.000000" x="73.000000" y="110.000000" fill="rgb(0, 0, 0)" style="fill-opacity:1.00" />
<text x="63" y="115">
0
</text>
<rect height="2.000000" width="7.000000" x="73.000000" y="60.000000" fill="rgb(0, 0, 0)" style="fill-opacity:1.00" />
<text x="63" y="65">
1
</text>
<rect height="2.000000" width="7.000000" x="73.000000" y="10.000000" fill="rgb(0, 0, 0)" style="fill-opacity:1.00" />
<text x="63" y="15">
2
</text>
<text x="50" y="65"
transform="rotate(-90, 50, 70)">
bits
</text>
<!-- Begin 'C' -->
<ellipse cx="115.000000" cy="109.283003" rx="25.000000" ry="0.125149" fill="rgb(0, 0, 128)" style="fill-opacity:1.00" />
<ellipse cx="115.000000" cy="109.283003" rx="16.666667" ry="0.083432" fill="rgb(255, 255, 255)" style="fill-opacity:1.00" />
<rect height="0.125149" width="25.000000" x="115.000000" y="109.220429" fill="rgb(255, 255, 255)" style="fill-opacity:1.00" />
<!-- End 'C' -->
<!-- Begin 'T' -->
<rect height="0.037265" width="50.000000" x="90.000000" y="109.408152" fill="rgb(0, 100, 0)" style="fill-opacity:1.00" />
<rect height="0.232904" width="10.000000" x="110.000000" y="109.408152" fill="rgb(0, 100, 0)" style="fill-opacity:1.00" />
<!-- End 'T' -->
<!-- Begin 'G' -->
<ellipse cx="115.000000" cy="109.734569" rx="25.000000" ry="0.093512" fill="rgb(255, 165, 0)" style="fill-opacity:1.00" />
<ellipse cx="115.000000" cy="109.734569" rx="16.666667" ry="0.062342" fill="rgb(255, 255, 255)" style="fill-opacity:1.00" />
<rect height="0.093512" width="25.000000" x="115.000000" y="109.687813" fill="rgb(255, 255, 255)" style="fill-opacity:1.00" />
<rect height="0.023378" width="25.000000" x="115.000000" y="109.757947" fill="rgb(255, 165, 0)" style="fill-opacity:1.00" />
<rect height="0.070134" width="6.250000" x="133.750000" y="109.757947" fill="rgb(255, 165, 0)" style="fill-opacity:1.00" />
<!-- End 'G' -->
<!-- Begin 'A' -->
<polygon points=" 90.000000, 110.000000, 111.000000, 109.828081, 119.000000, 109.828081, 140.000000, 110.000000, 132.500000, 110.000000, 126.250000, 109.957020, 103.750000, 109.957020, 97.500000, 110.000000" fill="rgb(178, 34, 34)" style="fill-opacity:1.00" />
<!-- End 'A' -->
<!-- Begin 'T' -->
<rect height="1.312733" width="50.000000" x="150.000000" y="94.232886" fill="rgb(0, 100, 0)" style="fill-opacity:1.00" />
<rect height="8.204578" width="10.000000" x="170.000000" y="94.232886" fill="rgb(0, 100, 0)" style="fill-opacity:1.00" />
<!-- End 'T' -->
<!-- Begin 'A' -->
<polygon points=" 150.000000, 106.321436, 171.000000, 102.437464, 179.000000, 102.437464, 200.000000, 106.321436, 192.500000, 106.321436, 186.250000, 105.350443, 163.750000, 105.350443, 157.500000, 106.321436" fill="rgb(178, 34, 34)" style="fill-opacity:1.00" />
<!-- End 'A' -->
<!-- Begin 'G' -->
<ellipse cx="175.000000" cy="107.603345" rx="25.000000" ry="1.281910" fill="rgb(255, 165, 0)" style="fill-opacity:1.00" />
<ellipse cx="175.000000" cy="107.603345" rx="16.666667" ry="0.854606" fill="rgb(255, 255, 255)" style="fill-opacity:1.00" />
<rect height="1.281910" width="25.000000" x="175.000000" y="106.962391" fill="rgb(255, 255, 255)" style="fill-opacity:1.00" />
<rect height="0.320477" width="25.000000" x="175.000000" y="107.923823" fill="rgb(255, 165, 0)" style="fill-opacity:1.00" />
<rect height="0.961432" width="6.250000" x="193.750000" y="107.923823" fill="rgb(255, 165, 0)" style="fill-opacity:1.00" />
<!-- End 'G' -->
<!-- Begin 'C' -->
<ellipse cx="175.000000" cy="109.442627" rx="25.000000" ry="0.557373" fill="rgb(0, 0, 128)" style="fill-opacity:1.00" />
<ellipse cx="175.000000" cy="109.442627" rx="16.666667" ry="0.371582" fill="rgb(255, 255, 255)" style="fill-opacity:1.00" />
<rect height="0.557373" width="25.000000" x="175.000000" y="109.163941" fill="rgb(255, 255, 255)" style="fill-opacity:1.00" />
<!-- End 'C' -->
<!-- Begin 'T' -->
<rect height="1.463716" width="50.000000" x="210.000000" y="93.104555" fill="rgb(0, 100, 0)" style="fill-opacity:1.00" />
<rect height="9.148224" width="10.000000" x="230.000000" y="93.104555" fill="rgb(0, 100, 0)" style="fill-opacity:1.00" />
<!-- End 'T' -->
<!-- Begin 'A' -->
<polygon points=" 210.000000, 106.214649, 231.000000, 102.252779, 239.000000, 102.252779, 260.000000, 106.214649, 252.500000, 106.214649, 246.250000, 105.224181, 223.750000, 105.224181, 217.500000, 106.214649" fill="rgb(178, 34, 34)" style="fill-opacity:1.00" />
<!-- End 'A' -->
<!-- Begin 'G' -->
<ellipse cx="235.000000" cy="107.450359" rx="25.000000" ry="1.235711" fill="rgb(255, 165, 0)" style="fill-opacity:1.00" />
<ellipse cx="235.000000" cy="107.450359" rx="16.666667" ry="0.823807" fill="rgb(255, 255, 255)" style="fill-opacity:1.00" />
<rect height="1.235711" width="25.000000" x="235.000000" y="106.832504" fill="rgb(255, 255, 255)" style="fill-opacity:1.00" />
<rect height="0.308928" width="25.000000" x="235.000000" y="107.759287" fill="rgb(255, 165, 0)" style="fill-opacity:1.00" />
<rect height="0.926783" width="6.250000" x="253.750000" y="107.759287" fill="rgb(255, 165, 0)" style="fill-opacity:1.00" />
<!-- End 'G' -->
<!-- Begin 'C' -->
<ellipse cx="235.000000" cy="109.343035" rx="25.000000" ry="0.656965" fill="rgb(0, 0, 128)" style="fill-opacity:1.00" />
<ellipse cx="235.000000" cy="109.343035" rx="16.666667" ry="0.437977" fill="rgb(255, 255, 255)" style="fill-opacity:1.00" />
<rect height="0.656965" width="25.000000" x="235.000000" y="109.014552" fill="rgb(255, 255, 255)" style="fill-opacity:1.00" />
<!-- End 'C' -->
<!-- Begin 'C' -->
<ellipse cx="295.000000" cy="98.585088" rx="25.000000" ry="4.021841" fill="rgb(0, 0, 128)" style="fill-opacity:1.00" />
<ellipse cx="295.000000" cy="98.585088" rx="16.666667" ry="2.681227" fill="rgb(255, 255, 255)" style="fill-opacity:1.00" />
<rect height="4.021841" width="25.000000" x="295.000000" y="96.574168" fill="rgb(255, 255, 255)" style="fill-opacity:1.00" />
<!-- End 'C' -->
<!-- Begin 'A' -->
<polygon points=" 270.000000, 106.519051, 291.000000, 102.606930, 299.000000, 102.606930, 320.000000, 106.519051, 312.500000, 106.519051, 306.250000, 105.541020, 283.750000, 105.541020, 277.500000, 106.519051" fill="rgb(178, 34, 34)" style="fill-opacity:1.00" />
<!-- End 'A' -->
<!-- Begin 'T' -->
<rect height="0.349510" width="50.000000" x="270.000000" y="106.519051" fill="rgb(0, 100, 0)" style="fill-opacity:1.00" />
<rect height="2.184435" width="10.000000" x="290.000000" y="106.519051" fill="rgb(0, 100, 0)" style="fill-opacity:1.00" />
<!-- End 'T' -->
<!-- Begin 'G' -->
<ellipse cx="295.000000" cy="109.351743" rx="25.000000" ry="0.648257" fill="rgb(255, 165, 0)" style="fill-opacity:1.00" />
<ellipse cx="295.000000" cy="109.351743" rx="16.666667" ry="0.432172" fill="rgb(255, 255, 255)" style="fill-opacity:1.00" />
<rect height="0.648257" width="25.000000" x="295.000000" y="109.027614" fill="rgb(255, 255, 255)" style="fill-opacity:1.00" />
<rect height="0.162064" width="25.000000" x="295.000000" y="109.513807" fill="rgb(255, 165, 0)" style="fill-opacity:1.00" />
<rect height="0.486193" width="6.250000" x="313.750000" y="109.513807" fill="rgb(255, 165, 0)" style="fill-opacity:1.00" />
<!-- End 'G' -->
<!-- Begin 'C' -->
<ellipse cx="355.000000" cy="102.426380" rx="25.000000" ry="2.387638" fill="rgb(0, 0, 128)" style="fill-opacity:1.00" />
<ellipse cx="355.000000" cy="102.426380" rx="16.666667" ry="1.591759" fill="rgb(255, 255, 255)" style="fill-opacity:1.00" />
<rect height="2.387638" width="25.000000" x="355.000000" y="101.232561" fill="rgb(255, 255, 255)" style="fill-opacity:1.00" />
<!-- End 'C' -->
<!-- Begin 'G' -->
<ellipse cx="355.000000" cy="105.834571" rx="25.000000" ry="1.020552" fill="rgb(255, 165, 0)" style="fill-opacity:1.00" />
<ellipse cx="355.000000" cy="105.834571" rx="16.666667" ry="0.680368" fill="rgb(255, 255, 255)" style="fill-opacity:1.00" />
<rect height="1.020552" width="25.000000" x="355.000000" y="105.324295" fill="rgb(255, 255, 255)" style="fill-opacity:1.00" />
<rect height="0.255138" width="25.000000" x="355.000000" y="106.089709" fill="rgb(255, 165, 0)" style="fill-opacity:1.00" />
<rect height="0.765414" width="6.250000" x="373.750000" y="106.089709" fill="rgb(255, 165, 0)" style="fill-opacity:1.00" />
<!-- End 'G' -->
<!-- Begin 'T' -->
<rect height="0.320257" width="50.000000" x="330.000000" y="106.855124" fill="rgb(0, 100, 0)" style="fill-opacity:1.00" />
<rect height="2.001604" width="10.000000" x="350.000000" y="106.855124" fill="rgb(0, 100, 0)" style="fill-opacity:1.00" />
<!-- End 'T' -->
<!-- Begin 'A' -->
<polygon points=" 330.000000, 110.000000, 351.000000, 108.856728, 359.000000, 108.856728, 380.000000, 110.000000, 372.500000, 110.000000, 366.250000, 109.714182, 343.750000, 109.714182, 337.500000, 110.000000" fill="rgb(178, 34, 34)" style="fill-opacity:1.00" />
<!-- End 'A' -->
<!-- Begin 'A' -->
<polygon points=" 390.000000, 105.578630, 411.000000, 102.810898, 419.000000, 102.810898, 440.000000, 105.578630, 432.500000, 105.578630, 426.250000, 104.886697, 403.750000, 104.886697, 397.500000, 105.578630" fill="rgb(178, 34, 34)" style="fill-opacity:1.00" />
<!-- End 'A' -->
<!-- Begin 'T' -->
<rect height="0.379231" width="50.000000" x="390.000000" y="105.578630" fill="rgb(0, 100, 0)" style="fill-opacity:1.00" />
<rect height="2.370191" width="10.000000" x="410.000000" y="105.578630" fill="rgb(0, 100, 0)" style="fill-opacity:1.00" />
<!-- End 'T' -->
<!-- Begin 'G' -->
<ellipse cx="415.000000" cy="108.526349" rx="25.000000" ry="0.577528" fill="rgb(255, 165, 0)" style="fill-opacity:1.00" />
<ellipse cx="415.000000" cy="108.526349" rx="16.666667" ry="0.385019" fill="rgb(255, 255, 255)" style="fill-opacity:1.00" />
<rect height="0.577528" width="25.000000" x="415.000000" y="108.237585" fill="rgb(255, 255, 255)" style="fill-opacity:1.00" />
<rect height="0.144382" width="25.000000" x="415.000000" y="108.670731" fill="rgb(255, 165, 0)" style="fill-opacity:1.00" />
<rect height="0.433146" width="6.250000" x="433.750000" y="108.670731" fill="rgb(255, 165, 0)" style="fill-opacity:1.00" />
<!-- End 'G' -->
<!-- Begin 'C' -->
<ellipse cx="415.000000" cy="109.551939" rx="25.000000" ry="0.448061" fill="rgb(0, 0, 128)" style="fill-opacity:1.00" />
<ellipse cx="415.000000" cy="109.551939" rx="16.666667" ry="0.298707" fill="rgb(255, 255, 255)" style="fill-opacity:1.00" />
<rect height="0.448061" width="25.000000" x="415.000000" y="109.327908" fill="rgb(255, 255, 255)" style="fill-opacity:1.00" />
<!-- End 'C' -->
<!-- Begin 'G' -->
<ellipse cx="475.000000" cy="102.406958" rx="25.000000" ry="2.315003" fill="rgb(255, 165, 0)" style="fill-opacity:1.00" />
<ellipse cx="475.000000" cy="102.406958" rx="16.666667" ry="1.543335" fill="rgb(255, 255, 255)" style="fill-opacity:1.00" />
<rect height="2.315003" width="25.000000" x="475.000000" y="101.249457" fill="rgb(255, 255, 255)" style="fill-opacity:1.00" />
<rect height="0.578751" width="25.000000" x="475.000000" y="102.985709" fill="rgb(255, 165, 0)" style="fill-opacity:1.00" />
<rect height="1.736252" width="6.250000" x="493.750000" y="102.985709" fill="rgb(255, 165, 0)" style="fill-opacity:1.00" />
<!-- End 'G' -->
<!-- Begin 'C' -->
<ellipse cx="475.000000" cy="106.011324" rx="25.000000" ry="1.289363" fill="rgb(0, 0, 128)" style="fill-opacity:1.00" />
<ellipse cx="475.000000" cy="106.011324" rx="16.666667" ry="0.859575" fill="rgb(255, 255, 255)" style="fill-opacity:1.00" />
<rect height="1.289363" width="25.000000" x="475.000000" y="105.366643" fill="rgb(255, 255, 255)" style="fill-opacity:1.00" />
<!-- End 'C' -->
<!-- Begin 'T' -->
<rect height="0.217570" width="50.000000" x="450.000000" y="107.300687" fill="rgb(0, 100, 0)" style="fill-opacity:1.00" />
<rect height="1.359813" width="10.000000" x="470.000000" y="107.300687" fill="rgb(0, 100, 0)" style="fill-opacity:1.00" />
<!-- End 'T' -->
<!-- Begin 'A' -->
<polygon points=" 450.000000, 110.000000, 471.000000, 108.660501, 479.000000, 108.660501, 500.000000, 110.000000, 492.500000, 110.000000, 486.250000, 109.665125, 463.750000, 109.665125, 457.500000, 110.000000" fill="rgb(178, 34, 34)" style="fill-opacity:1.00" />
<!-- End 'A' -->
<!-- Begin 'G' -->
<ellipse cx="535.000000" cy="102.101458" rx="25.000000" ry="2.339439" fill="rgb(255, 165, 0)" style="fill-opacity:1.00" />
<ellipse cx="535.000000" cy="102.101458" rx="16.666667" ry="1.559626" fill="rgb(255, 255, 255)" style="fill-opacity:1.00" />
<rect height="2.339439" width="25.000000" x="535.000000" y="100.931739" fill="rgb(255, 255, 255)" style="fill-opacity:1.00" />
<rect height="0.584860" width="25.000000" x="535.000000" y="102.686318" fill="rgb(255, 165, 0)" style="fill-opacity:1.00" />
<rect height="1.754579" width="6.250000" x="553.750000" y="102.686318" fill="rgb(255, 165, 0)" style="fill-opacity:1.00" />
<!-- End 'G' -->
<!-- Begin 'T' -->
<rect height="0.455791" width="50.000000" x="510.000000" y="104.440897" fill="rgb(0, 100, 0)" style="fill-opacity:1.00" />
<rect height="2.848693" width="10.000000" x="530.000000" y="104.440897" fill="rgb(0, 100, 0)" style="fill-opacity:1.00" />
<!-- End 'T' -->
<!-- Begin 'A' -->
<polygon points=" 510.000000, 108.901755, 531.000000, 107.289589, 539.000000, 107.289589, 560.000000, 108.901755, 552.500000, 108.901755, 546.250000, 108.498714, 523.750000, 108.498714, 517.500000, 108.901755" fill="rgb(178, 34, 34)" style="fill-opacity:1.00" />
<!-- End 'A' -->
<!-- Begin 'C' -->
<ellipse cx="535.000000" cy="109.450878" rx="25.000000" ry="0.549122" fill="rgb(0, 0, 128)" style="fill-opacity:1.00" />
<ellipse cx="535.000000" cy="109.450878" rx="16.666667" ry="0.366082" fill="rgb(255, 255, 255)" style="fill-opacity:1.00" />
<rect height="0.549122" width="25.000000" x="535.000000" y="109.176316" fill="rgb(255, 255, 255)" style="fill-opacity:1.00" />
<!-- End 'C' -->
<!-- Begin 'A' -->
<polygon points=" 570.000000, 102.376373, 591.000000, 95.162565, 599.000000, 95.162565, 620.000000, 102.376373, 612.500000, 102.376373, 606.250000, 100.572921, 583.750000, 100.572921, 577.500000, 102.376373" fill="rgb(178, 34, 34)" style="fill-opacity:1.00" />
<!-- End 'A' -->
<!-- Begin 'T' -->
<rect height="0.730237" width="50.000000" x="570.000000" y="102.376373" fill="rgb(0, 100, 0)" style="fill-opacity:1.00" />
<rect height="4.563980" width="10.000000" x="590.000000" y="102.376373" fill="rgb(0, 100, 0)" style="fill-opacity:1.00" />
<!-- End 'T' -->
<!-- Begin 'C' -->
<ellipse cx="595.000000" cy="107.786799" rx="25.000000" ry="0.846447" fill="rgb(0, 0, 128)" style="fill-opacity:1.00" />
<ellipse cx="595.000000" cy="107.786799" rx="16.666667" ry="0.564298" fill="rgb(255, 255, 255)" style="fill-opacity:1.00" />
<rect height="0.846447" width="25.000000" x="595.000000" y="107.363576" fill="rgb(255, 255, 255)" style="fill-opacity:1.00" />
<!-- End 'C' -->
<!-- Begin 'G' -->
<ellipse cx="595.000000" cy="109.316623" rx="25.000000" ry="0.683377" fill="rgb(255, 165, 0)" style="fill-opacity:1.00" />
<ellipse cx="595.000000" cy="109.316623" rx="16.666667" ry="0.455585" fill="rgb(255, 255, 255)" style="fill-opacity:1.00" />
<rect height="0.683377" width="25.000000" x="595.000000" y="108.974935" fill="rgb(255, 255, 255)" style="fill-opacity:1.00" />
<rect height="0.170844" width="25.000000" x="595.000000" y="109.487467" fill="rgb(255, 165, 0)" style="fill-opacity:1.00" />
<rect height="0.512533" width="6.250000" x="613.750000" y="109.487467" fill="rgb(255, 165, 0)" style="fill-opacity:1.00" />
<!-- End 'G' -->
<!-- Begin 'A' -->
<polygon points=" 630.000000, 102.635628, 651.000000, 94.850250, 659.000000, 94.850250, 680.000000, 102.635628, 672.500000, 102.635628, 666.250000, 100.689283, 643.750000, 100.689283, 637.500000, 102.635628" fill="rgb(178, 34, 34)" style="fill-opacity:1.00" />
<!-- End 'A' -->
<!-- Begin 'T' -->
<rect height="0.555916" width="50.000000" x="630.000000" y="102.635628" fill="rgb(0, 100, 0)" style="fill-opacity:1.00" />
<rect height="3.474477" width="10.000000" x="650.000000" y="102.635628" fill="rgb(0, 100, 0)" style="fill-opacity:1.00" />
<!-- End 'T' -->
<!-- Begin 'C' -->
<ellipse cx="655.000000" cy="107.547880" rx="25.000000" ry="1.437776" fill="rgb(0, 0, 128)" style="fill-opacity:1.00" />
<ellipse cx="655.000000" cy="107.547880" rx="16.666667" ry="0.958517" fill="rgb(255, 255, 255)" style="fill-opacity:1.00" />
<rect height="1.437776" width="25.000000" x="655.000000" y="106.828992" fill="rgb(255, 255, 255)" style="fill-opacity:1.00" />
<!-- End 'C' -->
<!-- Begin 'G' -->
<ellipse cx="655.000000" cy="109.492828" rx="25.000000" ry="0.507172" fill="rgb(255, 165, 0)" style="fill-opacity:1.00" />
<ellipse cx="655.000000" cy="109.492828" rx="16.666667" ry="0.338115" fill="rgb(255, 255, 255)" style="fill-opacity:1.00" />
<rect height="0.507172" width="25.000000" x="655.000000" y="109.239242" fill="rgb(255, 255, 255)" style="fill-opacity:1.00" />
<rect height="0.126793" width="25.000000" x="655.000000" y="109.619621" fill="rgb(255, 165, 0)" style="fill-opacity:1.00" />
<rect height="0.380379" width="6.250000" x="673.750000" y="109.619621" fill="rgb(255, 165, 0)" style="fill-opacity:1.00" />
<!-- End 'G' -->
<!-- Begin 'G' -->
<ellipse cx="715.000000" cy="109.742072" rx="25.000000" ry="0.039946" fill="rgb(255, 165, 0)" style="fill-opacity:1.00" />
<ellipse cx="715.000000" cy="109.742072" rx="16.666667" ry="0.026631" fill="rgb(255, 255, 255)" style="fill-opacity:1.00" />
<rect height="0.039946" width="25.000000" x="715.000000" y="109.722099" fill="rgb(255, 255, 255)" style="fill-opacity:1.00" />
<rect height="0.009986" width="25.000000" x="715.000000" y="109.752058" fill="rgb(255, 165, 0)" style="fill-opacity:1.00" />
<rect height="0.029959" width="6.250000" x="733.750000" y="109.752058" fill="rgb(255, 165, 0)" style="fill-opacity:1.00" />
<!-- End 'G' -->
<!-- Begin 'C' -->
<ellipse cx="715.000000" cy="109.821422" rx="25.000000" ry="0.039404" fill="rgb(0, 0, 128)" style="fill-opacity:1.00" />
<ellipse cx="715.000000" cy="109.821422" rx="16.666667" ry="0.026269" fill="rgb(255, 255, 255)" style="fill-opacity:1.00" />
<rect height="0.039404" width="25.000000" x="715.000000" y="109.801720" fill="rgb(255, 255, 255)" style="fill-opacity:1.00" />
<!-- End 'C' -->
<!-- Begin 'A' -->
<polygon points=" 690.000000, 109.936794, 711.000000, 109.860826, 719.000000, 109.860826, 740.000000, 109.936794, 732.500000, 109.936794, 726.250000, 109.917802, 703.750000, 109.917802, 697.500000, 109.936794" fill="rgb(178, 34, 34)" style="fill-opacity:1.00" />
<!-- End 'A' -->
<!-- Begin 'T' -->
<rect height="0.010113" width="50.000000" x="690.000000" y="109.936794" fill="rgb(0, 100, 0)" style="fill-opacity:1.00" />
<rect height="0.063206" width="10.000000" x="710.000000" y="109.936794" fill="rgb(0, 100, 0)" style="fill-opacity:1.00" />
<!-- End 'T' -->
<!-- Begin 'T' -->
<rect height="0.153340" width="50.000000" x="750.000000" y="107.326284" fill="rgb(0, 100, 0)" style="fill-opacity:1.00" />
<rect height="0.958377" width="10.000000" x="770.000000" y="107.326284" fill="rgb(0, 100, 0)" style="fill-opacity:1.00" />
<!-- End 'T' -->
<!-- Begin 'C' -->
<ellipse cx="775.000000" cy="108.602204" rx="25.000000" ry="0.317543" fill="rgb(0, 0, 128)" style="fill-opacity:1.00" />
<ellipse cx="775.000000" cy="108.602204" rx="16.666667" ry="0.211695" fill="rgb(255, 255, 255)" style="fill-opacity:1.00" />
<rect height="0.317543" width="25.000000" x="775.000000" y="108.443433" fill="rgb(255, 255, 255)" style="fill-opacity:1.00" />
<!-- End 'C' -->
<!-- Begin 'G' -->
<ellipse cx="775.000000" cy="109.236916" rx="25.000000" ry="0.317169" fill="rgb(255, 165, 0)" style="fill-opacity:1.00" />
<ellipse cx="775.000000" cy="109.236916" rx="16.666667" ry="0.211446" fill="rgb(255, 255, 255)" style="fill-opacity:1.00" />
<rect height="0.317169" width="25.000000" x="775.000000" y="109.078331" fill="rgb(255, 255, 255)" style="fill-opacity:1.00" />
<rect height="0.079292" width="25.000000" x="775.000000" y="109.316208" fill="rgb(255, 165, 0)" style="fill-opacity:1.00" />
<rect height="0.237877" width="6.250000" x="793.750000" y="109.316208" fill="rgb(255, 165, 0)" style="fill-opacity:1.00" />
<!-- End 'G' -->
<!-- Begin 'A' -->
<polygon points=" 750.000000, 110.000000, 771.000000, 109.554084, 779.000000, 109.554084, 800.000000, 110.000000, 792.500000, 110.000000, 786.250000, 109.888521, 763.750000, 109.888521, 757.500000, 110.000000" fill="rgb(178, 34, 34)" style="fill-opacity:1.00" />
<!-- End 'A' -->
<!-- Begin 'G' -->
<ellipse cx="835.000000" cy="109.771140" rx="25.000000" ry="0.035981" fill="rgb(255, 165, 0)" style="fill-opacity:1.00" />
<ellipse cx="835.000000" cy="109.771140" rx="16.666667" ry="0.023987" fill="rgb(255, 255, 255)" style="fill-opacity:1.00" />
<rect height="0.035981" width="25.000000" x="835.000000" y="109.753149" fill="rgb(255, 255, 255)" style="fill-opacity:1.00" />
<rect height="0.008995" width="25.000000" x="835.000000" y="109.780135" fill="rgb(255, 165, 0)" style="fill-opacity:1.00" />
<rect height="0.026986" width="6.250000" x="853.750000" y="109.780135" fill="rgb(255, 165, 0)" style="fill-opacity:1.00" />
<!-- End 'G' -->
<!-- Begin 'C' -->
<ellipse cx="835.000000" cy="109.843020" rx="25.000000" ry="0.035899" fill="rgb(0, 0, 128)" style="fill-opacity:1.00" />
<ellipse cx="835.000000" cy="109.843020" rx="16.666667" ry="0.023933" fill="rgb(255, 255, 255)" style="fill-opacity:1.00" />
<rect height="0.035899" width="25.000000" x="835.000000" y="109.825070" fill="rgb(255, 255, 255)" style="fill-opacity:1.00" />
<!-- End 'C' -->
<!-- Begin 'A' -->
<polygon points=" 810.000000, 109.939489, 831.000000, 109.878919, 839.000000, 109.878919, 860.000000, 109.939489, 852.500000, 109.939489, 846.250000, 109.924346, 823.750000, 109.924346, 817.500000, 109.939489" fill="rgb(178, 34, 34)" style="fill-opacity:1.00" />
<!-- End 'A' -->
<!-- Begin 'T' -->
<rect height="0.009682" width="50.000000" x="810.000000" y="109.939489" fill="rgb(0, 100, 0)" style="fill-opacity:1.00" />
<rect height="0.060511" width="10.000000" x="830.000000" y="109.939489" fill="rgb(0, 100, 0)" style="fill-opacity:1.00" />
<!-- End 'T' -->
<!-- Begin 'A' -->
<polygon points=" 870.000000, 109.472223, 891.000000, 109.237102, 899.000000, 109.237102, 920.000000, 109.472223, 912.500000, 109.472223, 906.250000, 109.413443, 883.750000, 109.413443, 877.500000, 109.472223" fill="rgb(178, 34, 34)" style="fill-opacity:1.00" />
<!-- End 'A' -->
<!-- Begin 'G' -->
<ellipse cx="895.000000" cy="109.569511" rx="25.000000" ry="0.097288" fill="rgb(255, 165, 0)" style="fill-opacity:1.00" />
<ellipse cx="895.000000" cy="109.569511" rx="16.666667" ry="0.064859" fill="rgb(255, 255, 255)" style="fill-opacity:1.00" />
<rect height="0.097288" width="25.000000" x="895.000000" y="109.520867" fill="rgb(255, 255, 255)" style="fill-opacity:1.00" />
<rect height="0.024322" width="25.000000" x="895.000000" y="109.593833" fill="rgb(255, 165, 0)" style="fill-opacity:1.00" />
<rect height="0.072966" width="6.250000" x="913.750000" y="109.593833" fill="rgb(255, 165, 0)" style="fill-opacity:1.00" />
<!-- End 'G' -->
<!-- Begin 'C' -->
<ellipse cx="895.000000" cy="109.751282" rx="25.000000" ry="0.084482" fill="rgb(0, 0, 128)" style="fill-opacity:1.00" />
<ellipse cx="895.000000" cy="109.751282" rx="16.666667" ry="0.056322" fill="rgb(255, 255, 255)" style="fill-opacity:1.00" />
<rect height="0.084482" width="25.000000" x="895.000000" y="109.709040" fill="rgb(255, 255, 255)" style="fill-opacity:1.00" />
<!-- End 'C' -->
<!-- Begin 'T' -->
<rect height="0.026278" width="50.000000" x="870.000000" y="109.835764" fill="rgb(0, 100, 0)" style="fill-opacity:1.00" />
<rect height="0.164236" width="10.000000" x="890.000000" y="109.835764" fill="rgb(0, 100, 0)" style="fill-opacity:1.00" />
<!-- End 'T' -->
<text x="490.000000" y="165">
IC = 2.40
</text>

</svg>
