<?xml version="1.0" encoding="UTF-8" standalone="yes"?>
                 <!DOCTYPE svg PUBLIC "-//W3C//DTD SVG 1.0//EN" "http://www.w3.org/TR/2001/REC-SVG-20010904/DTD/svg10.dtd">
                 <svg height="170" width="780" xmlns="http://www.w3.org/2000/svg" xmlns:xlink="http://www.w3.org/1999/xlink">
                 <line x1="85" y1="120" x2="747" y2="120" style="stroke:rgb(99,99,99);stroke-width:2" />
<rect height="7.000000" width="2.000000" x="85.000000" y="120.000000" fill="rgb(0, 0, 0)" style="fill-opacity:1.00" />
<text x="107.000000" y="140">
1
</text>
<rect height="7.000000" width="2.000000" x="145.000000" y="120.000000" fill="rgb(0, 0, 0)" style="fill-opacity:1.00" />
<text x="167.000000" y="140">
2
</text>
<rect height="7.000000" width="2.000000" x="205.000000" y="120.000000" fill="rgb(0, 0, 0)" style="fill-opacity:1.00" />
<text x="227.000000" y="140">
3
</text>
<rect height="7.000000" width="2.000000" x="265.000000" y="120.000000" fill="rgb(0, 0, 0)" style="fill-opacity:1.00" />
<text x="287.000000" y="140">
4
</text>
<rect height="7.000000" width="2.000000" x="325.000000" y="120.000000" fill="rgb(0, 0, 0)" style="fill-opacity:1.00" />
<text x="347.000000" y="140">
5
</text>
<rect height="7.000000" width="2.000000" x="385.000000" y="120.000000" fill="rgb(0, 0, 0)" style="fill-opacity:1.00" />
<text x="407.000000" y="140">
6
</text>
<rect height="7.000000" width="2.000000" x="445.000000" y="120.000000" fill="rgb(0, 0, 0)" style="fill-opacity:1.00" />
<text x="467.000000" y="140">
7
</text>
<rect height="7.000000" width="2.000000" x="505.000000" y="120.000000" fill="rgb(0, 0, 0)" style="fill-opacity:1.00" />
<text x="527.000000" y="140">
8
</text>
<rect height="7.000000" width="2.000000" x="565.000000" y="120.000000" fill="rgb(0, 0, 0)" style="fill-opacity:1.00" />
<text x="587.000000" y="140">
9
</text>
<rect height="7.000000" width="2.000000" x="625.000000" y="120.000000" fill="rgb(0, 0, 0)" style="fill-opacity:1.00" />
<text x="647.000000" y="140">
10
</text>
<rect height="7.000000" width="2.000000" x="685.000000" y="120.000000" fill="rgb(0, 0, 0)" style="fill-opacity:1.00" />
<text x="707.000000" y="140">
11
</text>
<rect height="7.000000" width="2.000000" x="745.000000" y="120.000000" fill="rgb(0, 0, 0)" style="fill-opacity:1.00" />
<line x1="80" y1="112" x2="80" y2="10" style="stroke:rgb(99,99,99);stroke-width:2" />
<rect height="2.000000" width="7.000000" x="73.000000" y="110.000000" fill="rgb(0, 0, 0)" style="fill-opacity:1.00" />
<text x="63" y="115">
0
</text>
<rect height="2.000000" width="7.000000" x="73.000000" y="60.000000" fill="rgb(0, 0, 0)" style="fill-opacity:1.00" />
<text x="63" y="65">
1
</text>
<rect height="2.000000" width="7.000000" x="73.000000" y="10.000000" fill="rgb(0, 0, 0)" style="fill-opacity:1.00" />
<text x="63" y="15">
2
</text>
<text x="50" y="65"
transform="rotate(-90, 50, 70)">
bits
</text>
<!-- Begin 'G' -->
<ellipse cx="115.000000" cy="106.672620" rx="25.000000" ry="0.832264" fill="rgb(255, 165, 0)" style="fill-opacity:1.00" />
<ellipse cx="115.000000" cy="106.672620" rx="16.666667" ry="0.554843" fill="rgb(255, 255, 255)" style="fill-opacity:1.00" />
<rect height="0.832264" width="25.000000" x="115.000000" y="106.256488" fill="rgb(255, 255, 255)" style="fill-opacity:1.00" />
<rect height="0.208066" width="25.000000" x="115.000000" y="106.880686" fill="rgb(255, 165, 0)" style="fill-opacity:1.00" />
<rect height="0.624198" width="6.250000" x="133.750000" y="106.880686" fill="rgb(255, 165, 0)" style="fill-opacity:1.00" />
<!-- End 'G' -->
<!-- Begin 'C' -->
<ellipse cx="115.000000" cy="107.972591" rx="25.000000" ry="0.467707" fill="rgb(0, 0, 128)" style="fill-opacity:1.00" />
<ellipse cx="115.000000" cy="107.972591" rx="16.666667" ry="0.311805" fill="rgb(255, 255, 255)" style="fill-opacity:1.00" />
<rect height="0.467707" width="25.000000" x="115.000000" y="107.738737" fill="rgb(255, 255, 255)" style="fill-opacity:1.00" />
<!-- End 'C' -->
<!-- Begin 'T' -->
<rect height="0.134545" width="50.000000" x="90.000000" y="108.440298" fill="rgb(0, 100, 0)" style="fill-opacity:1.00" />
<rect height="0.840908" width="10.000000" x="110.000000" y="108.440298" fill="rgb(0, 100, 0)" style="fill-opacity:1.00" />
<!-- End 'T' -->
<!-- Begin 'A' -->
<polygon points=" 90.000000, 110.000000, 111.000000, 109.281205, 119.000000, 109.281205, 140.000000, 110.000000, 132.500000, 110.000000, 126.250000, 109.820301, 103.750000, 109.820301, 97.500000, 110.000000" fill="rgb(178, 34, 34)" style="fill-opacity:1.00" />
<!-- End 'A' -->
<!-- Begin 'G' -->
<ellipse cx="175.000000" cy="89.701645" rx="25.000000" ry="7.148833" fill="rgb(255, 165, 0)" style="fill-opacity:1.00" />
<ellipse cx="175.000000" cy="89.701645" rx="16.666667" ry="4.765889" fill="rgb(255, 255, 255)" style="fill-opacity:1.00" />
<rect height="7.148833" width="25.000000" x="175.000000" y="86.127228" fill="rgb(255, 255, 255)" style="fill-opacity:1.00" />
<rect height="1.787208" width="25.000000" x="175.000000" y="91.488853" fill="rgb(255, 165, 0)" style="fill-opacity:1.00" />
<rect height="5.361625" width="6.250000" x="193.750000" y="91.488853" fill="rgb(255, 165, 0)" style="fill-opacity:1.00" />
<!-- End 'G' -->
<!-- Begin 'C' -->
<ellipse cx="175.000000" cy="102.060680" rx="25.000000" ry="5.210202" fill="rgb(0, 0, 128)" style="fill-opacity:1.00" />
<ellipse cx="175.000000" cy="102.060680" rx="16.666667" ry="3.473468" fill="rgb(255, 255, 255)" style="fill-opacity:1.00" />
<rect height="5.210202" width="25.000000" x="175.000000" y="99.455579" fill="rgb(255, 255, 255)" style="fill-opacity:1.00" />
<!-- End 'C' -->
<!-- Begin 'T' -->
<rect height="0.225842" width="50.000000" x="150.000000" y="107.270882" fill="rgb(0, 100, 0)" style="fill-opacity:1.00" />
<rect height="1.411512" width="10.000000" x="170.000000" y="107.270882" fill="rgb(0, 100, 0)" style="fill-opacity:1.00" />
<!-- End 'T' -->
<!-- Begin 'A' -->
<polygon points=" 150.000000, 110.000000, 171.000000, 108.682394, 179.000000, 108.682394, 200.000000, 110.000000, 192.500000, 110.000000, 186.250000, 109.670599, 163.750000, 109.670599, 157.500000, 110.000000" fill="rgb(178, 34, 34)" style="fill-opacity:1.00" />
<!-- End 'A' -->
<!-- Begin 'C' -->
<ellipse cx="235.000000" cy="71.994616" rx="25.000000" ry="26.695041" fill="rgb(0, 0, 128)" style="fill-opacity:1.00" />
<ellipse cx="235.000000" cy="71.994616" rx="16.666667" ry="17.796694" fill="rgb(255, 255, 255)" style="fill-opacity:1.00" />
<rect height="26.695041" width="25.000000" x="235.000000" y="58.647095" fill="rgb(255, 255, 255)" style="fill-opacity:1.00" />
<!-- End 'C' -->
<!-- Begin 'G' -->
<ellipse cx="235.000000" cy="104.178243" rx="25.000000" ry="5.488586" fill="rgb(255, 165, 0)" style="fill-opacity:1.00" />
<ellipse cx="235.000000" cy="104.178243" rx="16.666667" ry="3.659058" fill="rgb(255, 255, 255)" style="fill-opacity:1.00" />
<rect height="5.488586" width="25.000000" x="235.000000" y="101.433950" fill="rgb(255, 255, 255)" style="fill-opacity:1.00" />
<rect height="1.372147" width="25.000000" x="235.000000" y="105.550390" fill="rgb(255, 165, 0)" style="fill-opacity:1.00" />
<rect height="4.116440" width="6.250000" x="253.750000" y="105.550390" fill="rgb(255, 165, 0)" style="fill-opacity:1.00" />
<!-- End 'G' -->
<!-- Begin 'A' -->
<polygon points=" 210.000000, 109.927420, 231.000000, 109.666829, 239.000000, 109.666829, 260.000000, 109.927420, 252.500000, 109.927420, 246.250000, 109.862273, 223.750000, 109.862273, 217.500000, 109.927420" fill="rgb(178, 34, 34)" style="fill-opacity:1.00" />
<!-- End 'A' -->
<!-- Begin 'T' -->
<rect height="0.011613" width="50.000000" x="210.000000" y="109.927420" fill="rgb(0, 100, 0)" style="fill-opacity:1.00" />
<rect height="0.072580" width="10.000000" x="230.000000" y="109.927420" fill="rgb(0, 100, 0)" style="fill-opacity:1.00" />
<!-- End 'T' -->
<!-- Begin 'C' -->
<ellipse cx="295.000000" cy="82.526283" rx="25.000000" ry="15.727753" fill="rgb(0, 0, 128)" style="fill-opacity:1.00" />
<ellipse cx="295.000000" cy="82.526283" rx="16.666667" ry="10.485169" fill="rgb(255, 255, 255)" style="fill-opacity:1.00" />
<rect height="15.727753" width="25.000000" x="295.000000" y="74.662407" fill="rgb(255, 255, 255)" style="fill-opacity:1.00" />
<!-- End 'C' -->
<!-- Begin 'G' -->
<ellipse cx="295.000000" cy="101.414603" rx="25.000000" ry="3.160566" fill="rgb(255, 165, 0)" style="fill-opacity:1.00" />
<ellipse cx="295.000000" cy="101.414603" rx="16.666667" ry="2.107044" fill="rgb(255, 255, 255)" style="fill-opacity:1.00" />
<rect height="3.160566" width="25.000000" x="295.000000" y="99.834320" fill="rgb(255, 255, 255)" style="fill-opacity:1.00" />
<rect height="0.790141" width="25.000000" x="295.000000" y="102.204744" fill="rgb(255, 165, 0)" style="fill-opacity:1.00" />
<rect height="2.370424" width="6.250000" x="313.750000" y="102.204744" fill="rgb(255, 165, 0)" style="fill-opacity:1.00" />
<!-- End 'G' -->
<!-- Begin 'T' -->
<rect height="0.846423" width="50.000000" x="270.000000" y="104.575168" fill="rgb(0, 100, 0)" style="fill-opacity:1.00" />
<rect height="5.290142" width="10.000000" x="290.000000" y="104.575168" fill="rgb(0, 100, 0)" style="fill-opacity:1.00" />
<!-- End 'T' -->
<!-- Begin 'A' -->
<polygon points=" 270.000000, 110.000000, 291.000000, 109.865310, 299.000000, 109.865310, 320.000000, 110.000000, 312.500000, 110.000000, 306.250000, 109.966328, 283.750000, 109.966328, 277.500000, 110.000000" fill="rgb(178, 34, 34)" style="fill-opacity:1.00" />
<!-- End 'A' -->
<!-- Begin 'C' -->
<ellipse cx="355.000000" cy="99.015558" rx="25.000000" ry="2.661891" fill="rgb(0, 0, 128)" style="fill-opacity:1.00" />
<ellipse cx="355.000000" cy="99.015558" rx="16.666667" ry="1.774594" fill="rgb(255, 255, 255)" style="fill-opacity:1.00" />
<rect height="2.661891" width="25.000000" x="355.000000" y="97.684612" fill="rgb(255, 255, 255)" style="fill-opacity:1.00" />
<!-- End 'C' -->
<!-- Begin 'T' -->
<rect height="0.779472" width="50.000000" x="330.000000" y="101.677449" fill="rgb(0, 100, 0)" style="fill-opacity:1.00" />
<rect height="4.871702" width="10.000000" x="350.000000" y="101.677449" fill="rgb(0, 100, 0)" style="fill-opacity:1.00" />
<!-- End 'T' -->
<!-- Begin 'G' -->
<ellipse cx="355.000000" cy="107.984564" rx="25.000000" ry="1.435413" fill="rgb(255, 165, 0)" style="fill-opacity:1.00" />
<ellipse cx="355.000000" cy="107.984564" rx="16.666667" ry="0.956942" fill="rgb(255, 255, 255)" style="fill-opacity:1.00" />
<rect height="1.435413" width="25.000000" x="355.000000" y="107.266858" fill="rgb(255, 255, 255)" style="fill-opacity:1.00" />
<rect height="0.358853" width="25.000000" x="355.000000" y="108.343418" fill="rgb(255, 165, 0)" style="fill-opacity:1.00" />
<rect height="1.076560" width="6.250000" x="373.750000" y="108.343418" fill="rgb(255, 165, 0)" style="fill-opacity:1.00" />
<!-- End 'G' -->
<!-- Begin 'A' -->
<polygon points=" 330.000000, 110.000000, 351.000000, 109.419978, 359.000000, 109.419978, 380.000000, 110.000000, 372.500000, 110.000000, 366.250000, 109.854994, 343.750000, 109.854994, 337.500000, 110.000000" fill="rgb(178, 34, 34)" style="fill-opacity:1.00" />
<!-- End 'A' -->
<!-- Begin 'C' -->
<ellipse cx="415.000000" cy="95.653309" rx="25.000000" ry="3.834979" fill="rgb(0, 0, 128)" style="fill-opacity:1.00" />
<ellipse cx="415.000000" cy="95.653309" rx="16.666667" ry="2.556653" fill="rgb(255, 255, 255)" style="fill-opacity:1.00" />
<rect height="3.834979" width="25.000000" x="415.000000" y="93.735820" fill="rgb(255, 255, 255)" style="fill-opacity:1.00" />
<!-- End 'C' -->
<!-- Begin 'G' -->
<ellipse cx="415.000000" cy="103.278439" rx="25.000000" ry="3.790151" fill="rgb(255, 165, 0)" style="fill-opacity:1.00" />
<ellipse cx="415.000000" cy="103.278439" rx="16.666667" ry="2.526767" fill="rgb(255, 255, 255)" style="fill-opacity:1.00" />
<rect height="3.790151" width="25.000000" x="415.000000" y="101.383364" fill="rgb(255, 255, 255)" style="fill-opacity:1.00" />
<rect height="0.947538" width="25.000000" x="415.000000" y="104.225977" fill="rgb(255, 165, 0)" style="fill-opacity:1.00" />
<rect height="2.842613" width="6.250000" x="433.750000" y="104.225977" fill="rgb(255, 165, 0)" style="fill-opacity:1.00" />
<!-- End 'G' -->
<!-- Begin 'T' -->
<rect height="0.254594" width="50.000000" x="390.000000" y="107.068590" fill="rgb(0, 100, 0)" style="fill-opacity:1.00" />
<rect height="1.591210" width="10.000000" x="410.000000" y="107.068590" fill="rgb(0, 100, 0)" style="fill-opacity:1.00" />
<!-- End 'T' -->
<!-- Begin 'A' -->
<polygon points=" 390.000000, 110.000000, 411.000000, 108.659800, 419.000000, 108.659800, 440.000000, 110.000000, 432.500000, 110.000000, 426.250000, 109.664950, 403.750000, 109.664950, 397.500000, 110.000000" fill="rgb(178, 34, 34)" style="fill-opacity:1.00" />
<!-- End 'A' -->
<!-- Begin 'G' -->
<ellipse cx="475.000000" cy="99.677691" rx="25.000000" ry="2.435765" fill="rgb(255, 165, 0)" style="fill-opacity:1.00" />
<ellipse cx="475.000000" cy="99.677691" rx="16.666667" ry="1.623843" fill="rgb(255, 255, 255)" style="fill-opacity:1.00" />
<rect height="2.435765" width="25.000000" x="475.000000" y="98.459808" fill="rgb(255, 255, 255)" style="fill-opacity:1.00" />
<rect height="0.608941" width="25.000000" x="475.000000" y="100.286632" fill="rgb(255, 165, 0)" style="fill-opacity:1.00" />
<rect height="1.826824" width="6.250000" x="493.750000" y="100.286632" fill="rgb(255, 165, 0)" style="fill-opacity:1.00" />
<!-- End 'G' -->
<!-- Begin 'A' -->
<polygon points=" 450.000000, 106.778262, 471.000000, 102.113456, 479.000000, 102.113456, 500.000000, 106.778262, 492.500000, 106.778262, 486.250000, 105.612061, 463.750000, 105.612061, 457.500000, 106.778262" fill="rgb(178, 34, 34)" style="fill-opacity:1.00" />
<!-- End 'A' -->
<!-- Begin 'C' -->
<ellipse cx="475.000000" cy="108.066779" rx="25.000000" ry="1.288517" fill="rgb(0, 0, 128)" style="fill-opacity:1.00" />
<ellipse cx="475.000000" cy="108.066779" rx="16.666667" ry="0.859011" fill="rgb(255, 255, 255)" style="fill-opacity:1.00" />
<rect height="1.288517" width="25.000000" x="475.000000" y="107.422521" fill="rgb(255, 255, 255)" style="fill-opacity:1.00" />
<!-- End 'C' -->
<!-- Begin 'T' -->
<rect height="0.103153" width="50.000000" x="450.000000" y="109.355296" fill="rgb(0, 100, 0)" style="fill-opacity:1.00" />
<rect height="0.644704" width="10.000000" x="470.000000" y="109.355296" fill="rgb(0, 100, 0)" style="fill-opacity:1.00" />
<!-- End 'T' -->
<!-- Begin 'G' -->
<ellipse cx="535.000000" cy="84.660357" rx="25.000000" ry="13.354419" fill="rgb(255, 165, 0)" style="fill-opacity:1.00" />
<ellipse cx="535.000000" cy="84.660357" rx="16.666667" ry="8.902946" fill="rgb(255, 255, 255)" style="fill-opacity:1.00" />
<rect height="13.354419" width="25.000000" x="535.000000" y="77.983148" fill="rgb(255, 255, 255)" style="fill-opacity:1.00" />
<rect height="3.338605" width="25.000000" x="535.000000" y="87.998962" fill="rgb(255, 165, 0)" style="fill-opacity:1.00" />
<rect height="10.015814" width="6.250000" x="553.750000" y="87.998962" fill="rgb(255, 165, 0)" style="fill-opacity:1.00" />
<!-- End 'G' -->
<!-- Begin 'C' -->
<ellipse cx="535.000000" cy="101.533513" rx="25.000000" ry="3.518737" fill="rgb(0, 0, 128)" style="fill-opacity:1.00" />
<ellipse cx="535.000000" cy="101.533513" rx="16.666667" ry="2.345825" fill="rgb(255, 255, 255)" style="fill-opacity:1.00" />
<rect height="3.518737" width="25.000000" x="535.000000" y="99.774144" fill="rgb(255, 255, 255)" style="fill-opacity:1.00" />
<!-- End 'C' -->
<!-- Begin 'A' -->
<polygon points=" 510.000000, 109.807597, 531.000000, 105.052250, 539.000000, 105.052250, 560.000000, 109.807597, 552.500000, 109.807597, 546.250000, 108.618760, 523.750000, 108.618760, 517.500000, 109.807597" fill="rgb(178, 34, 34)" style="fill-opacity:1.00" />
<!-- End 'A' -->
<!-- Begin 'T' -->
<rect height="0.030785" width="50.000000" x="510.000000" y="109.807597" fill="rgb(0, 100, 0)" style="fill-opacity:1.00" />
<rect height="0.192403" width="10.000000" x="530.000000" y="109.807597" fill="rgb(0, 100, 0)" style="fill-opacity:1.00" />
<!-- End 'T' -->
<!-- Begin 'G' -->
<ellipse cx="595.000000" cy="71.943874" rx="25.000000" ry="27.448929" fill="rgb(255, 165, 0)" style="fill-opacity:1.00" />
<ellipse cx="595.000000" cy="71.943874" rx="16.666667" ry="18.299286" fill="rgb(255, 255, 255)" style="fill-opacity:1.00" />
<rect height="27.448929" width="25.000000" x="595.000000" y="58.219410" fill="rgb(255, 255, 255)" style="fill-opacity:1.00" />
<rect height="6.862232" width="25.000000" x="595.000000" y="78.806106" fill="rgb(255, 165, 0)" style="fill-opacity:1.00" />
<rect height="20.586697" width="6.250000" x="613.750000" y="78.806106" fill="rgb(255, 165, 0)" style="fill-opacity:1.00" />
<!-- End 'G' -->
<!-- Begin 'C' -->
<ellipse cx="595.000000" cy="104.439066" rx="25.000000" ry="5.046263" fill="rgb(0, 0, 128)" style="fill-opacity:1.00" />
<ellipse cx="595.000000" cy="104.439066" rx="16.666667" ry="3.364175" fill="rgb(255, 255, 255)" style="fill-opacity:1.00" />
<rect height="5.046263" width="25.000000" x="595.000000" y="101.915934" fill="rgb(255, 255, 255)" style="fill-opacity:1.00" />
<!-- End 'C' -->
<!-- Begin 'T' -->
<rect height="0.066045" width="50.000000" x="570.000000" y="109.485329" fill="rgb(0, 100, 0)" style="fill-opacity:1.00" />
<rect height="0.412780" width="10.000000" x="590.000000" y="109.485329" fill="rgb(0, 100, 0)" style="fill-opacity:1.00" />
<!-- End 'T' -->
<!-- Begin 'A' -->
<polygon points=" 570.000000, 110.000000, 591.000000, 109.898109, 599.000000, 109.898109, 620.000000, 110.000000, 612.500000, 110.000000, 606.250000, 109.974527, 583.750000, 109.974527, 577.500000, 110.000000" fill="rgb(178, 34, 34)" style="fill-opacity:1.00" />
<!-- End 'A' -->
<!-- Begin 'C' -->
<ellipse cx="655.000000" cy="88.354962" rx="25.000000" ry="8.190386" fill="rgb(0, 0, 128)" style="fill-opacity:1.00" />
<ellipse cx="655.000000" cy="88.354962" rx="16.666667" ry="5.460257" fill="rgb(255, 255, 255)" style="fill-opacity:1.00" />
<rect height="8.190386" width="25.000000" x="655.000000" y="84.259770" fill="rgb(255, 255, 255)" style="fill-opacity:1.00" />
<!-- End 'C' -->
<!-- Begin 'G' -->
<ellipse cx="655.000000" cy="101.947941" rx="25.000000" ry="5.402593" fill="rgb(255, 165, 0)" style="fill-opacity:1.00" />
<ellipse cx="655.000000" cy="101.947941" rx="16.666667" ry="3.601728" fill="rgb(255, 255, 255)" style="fill-opacity:1.00" />
<rect height="5.402593" width="25.000000" x="655.000000" y="99.246645" fill="rgb(255, 255, 255)" style="fill-opacity:1.00" />
<rect height="1.350648" width="25.000000" x="655.000000" y="103.298589" fill="rgb(255, 165, 0)" style="fill-opacity:1.00" />
<rect height="4.051944" width="6.250000" x="673.750000" y="103.298589" fill="rgb(255, 165, 0)" style="fill-opacity:1.00" />
<!-- End 'G' -->
<!-- Begin 'A' -->
<polygon points=" 630.000000, 108.865462, 651.000000, 107.350534, 659.000000, 107.350534, 680.000000, 108.865462, 672.500000, 108.865462, 666.250000, 108.486730, 643.750000, 108.486730, 637.500000, 108.865462" fill="rgb(178, 34, 34)" style="fill-opacity:1.00" />
<!-- End 'A' -->
<!-- Begin 'T' -->
<rect height="0.181526" width="50.000000" x="630.000000" y="108.865462" fill="rgb(0, 100, 0)" style="fill-opacity:1.00" />
<rect height="1.134538" width="10.000000" x="650.000000" y="108.865462" fill="rgb(0, 100, 0)" style="fill-opacity:1.00" />
<!-- End 'T' -->
<!-- Begin 'C' -->
<ellipse cx="715.000000" cy="107.558615" rx="25.000000" ry="0.563997" fill="rgb(0, 0, 128)" style="fill-opacity:1.00" />
<ellipse cx="715.000000" cy="107.558615" rx="16.666667" ry="0.375998" fill="rgb(255, 255, 255)" style="fill-opacity:1.00" />
<rect height="0.563997" width="25.000000" x="715.000000" y="107.276616" fill="rgb(255, 255, 255)" style="fill-opacity:1.00" />
<!-- End 'C' -->
<!-- Begin 'G' -->
<ellipse cx="715.000000" cy="108.475664" rx="25.000000" ry="0.353051" fill="rgb(255, 165, 0)" style="fill-opacity:1.00" />
<ellipse cx="715.000000" cy="108.475664" rx="16.666667" ry="0.235367" fill="rgb(255, 255, 255)" style="fill-opacity:1.00" />
<rect height="0.353051" width="25.000000" x="715.000000" y="108.299138" fill="rgb(255, 255, 255)" style="fill-opacity:1.00" />
<rect height="0.088263" width="25.000000" x="715.000000" y="108.563926" fill="rgb(255, 165, 0)" style="fill-opacity:1.00" />
<rect height="0.264788" width="6.250000" x="733.750000" y="108.563926" fill="rgb(255, 165, 0)" style="fill-opacity:1.00" />
<!-- End 'G' -->
<!-- Begin 'A' -->
<polygon points=" 690.000000, 109.453069, 711.000000, 108.828715, 719.000000, 108.828715, 740.000000, 109.453069, 732.500000, 109.453069, 726.250000, 109.296981, 703.750000, 109.296981, 697.500000, 109.453069" fill="rgb(178, 34, 34)" style="fill-opacity:1.00" />
<!-- End 'A' -->
<!-- Begin 'T' -->
<rect height="0.087509" width="50.000000" x="690.000000" y="109.453069" fill="rgb(0, 100, 0)" style="fill-opacity:1.00" />
<rect height="0.546931" width="10.000000" x="710.000000" y="109.453069" fill="rgb(0, 100, 0)" style="fill-opacity:1.00" />
<!-- End 'T' -->
<text x="400.000000" y="165">
IC = 6.42
</text>

</svg>
