<?xml version="1.0" encoding="UTF-8" standalone="yes"?>
                 <!DOCTYPE svg PUBLIC "-//W3C//DTD SVG 1.0//EN" "http://www.w3.org/TR/2001/REC-SVG-20010904/DTD/svg10.dtd">
                 <svg height="170" width="780" xmlns="http://www.w3.org/2000/svg" xmlns:xlink="http://www.w3.org/1999/xlink">
                 <line x1="85" y1="120" x2="747" y2="120" style="stroke:rgb(99,99,99);stroke-width:2" />
<rect height="7.000000" width="2.000000" x="85.000000" y="120.000000" fill="rgb(0, 0, 0)" style="fill-opacity:1.00" />
<text x="107.000000" y="140">
1
</text>
<rect height="7.000000" width="2.000000" x="145.000000" y="120.000000" fill="rgb(0, 0, 0)" style="fill-opacity:1.00" />
<text x="167.000000" y="140">
2
</text>
<rect height="7.000000" width="2.000000" x="205.000000" y="120.000000" fill="rgb(0, 0, 0)" style="fill-opacity:1.00" />
<text x="227.000000" y="140">
3
</text>
<rect height="7.000000" width="2.000000" x="265.000000" y="120.000000" fill="rgb(0, 0, 0)" style="fill-opacity:1.00" />
<text x="287.000000" y="140">
4
</text>
<rect height="7.000000" width="2.000000" x="325.000000" y="120.000000" fill="rgb(0, 0, 0)" style="fill-opacity:1.00" />
<text x="347.000000" y="140">
5
</text>
<rect height="7.000000" width="2.000000" x="385.000000" y="120.000000" fill="rgb(0, 0, 0)" style="fill-opacity:1.00" />
<text x="407.000000" y="140">
6
</text>
<rect height="7.000000" width="2.000000" x="445.000000" y="120.000000" fill="rgb(0, 0, 0)" style="fill-opacity:1.00" />
<text x="467.000000" y="140">
7
</text>
<rect height="7.000000" width="2.000000" x="505.000000" y="120.000000" fill="rgb(0, 0, 0)" style="fill-opacity:1.00" />
<text x="527.000000" y="140">
8
</text>
<rect height="7.000000" width="2.000000" x="565.000000" y="120.000000" fill="rgb(0, 0, 0)" style="fill-opacity:1.00" />
<text x="587.000000" y="140">
9
</text>
<rect height="7.000000" width="2.000000" x="625.000000" y="120.000000" fill="rgb(0, 0, 0)" style="fill-opacity:1.00" />
<text x="647.000000" y="140">
10
</text>
<rect height="7.000000" width="2.000000" x="685.000000" y="120.000000" fill="rgb(0, 0, 0)" style="fill-opacity:1.00" />
<text x="707.000000" y="140">
11
</text>
<rect height="7.000000" width="2.000000" x="745.000000" y="120.000000" fill="rgb(0, 0, 0)" style="fill-opacity:1.00" />
<line x1="80" y1="112" x2="80" y2="10" style="stroke:rgb(99,99,99);stroke-width:2" />
<rect height="2.000000" width="7.000000" x="73.000000" y="110.000000" fill="rgb(0, 0, 0)" style="fill-opacity:1.00" />
<text x="63" y="115">
0
</text>
<rect height="2.000000" width="7.000000" x="73.000000" y="60.000000" fill="rgb(0, 0, 0)" style="fill-opacity:1.00" />
<text x="63" y="65">
1
</text>
<rect height="2.000000" width="7.000000" x="73.000000" y="10.000000" fill="rgb(0, 0, 0)" style="fill-opacity:1.00" />
<text x="63" y="15">
2
</text>
<text x="50" y="65"
transform="rotate(-90, 50, 70)">
bits
</text>
<!-- Begin 'G' -->
<ellipse cx="115.000000" cy="109.506853" rx="25.000000" ry="0.087989" fill="rgb(255, 165, 0)" style="fill-opacity:1.00" />
<ellipse cx="115.000000" cy="109.506853" rx="16.666667" ry="0.058660" fill="rgb(255, 255, 255)" style="fill-opacity:1.00" />
<rect height="0.087989" width="25.000000" x="115.000000" y="109.462858" fill="rgb(255, 255, 255)" style="fill-opacity:1.00" />
<rect height="0.021997" width="25.000000" x="115.000000" y="109.528850" fill="rgb(255, 165, 0)" style="fill-opacity:1.00" />
<rect height="0.065992" width="6.250000" x="133.750000" y="109.528850" fill="rgb(255, 165, 0)" style="fill-opacity:1.00" />
<!-- End 'G' -->
<!-- Begin 'T' -->
<rect height="0.023184" width="50.000000" x="90.000000" y="109.594842" fill="rgb(0, 100, 0)" style="fill-opacity:1.00" />
<rect height="0.144900" width="10.000000" x="110.000000" y="109.594842" fill="rgb(0, 100, 0)" style="fill-opacity:1.00" />
<!-- End 'T' -->
<!-- Begin 'C' -->
<ellipse cx="115.000000" cy="109.805275" rx="25.000000" ry="0.065533" fill="rgb(0, 0, 128)" style="fill-opacity:1.00" />
<ellipse cx="115.000000" cy="109.805275" rx="16.666667" ry="0.043688" fill="rgb(255, 255, 255)" style="fill-opacity:1.00" />
<rect height="0.065533" width="25.000000" x="115.000000" y="109.772509" fill="rgb(255, 255, 255)" style="fill-opacity:1.00" />
<!-- End 'C' -->
<!-- Begin 'A' -->
<polygon points=" 90.000000, 110.000000, 111.000000, 109.870807, 119.000000, 109.870807, 140.000000, 110.000000, 132.500000, 110.000000, 126.250000, 109.967702, 103.750000, 109.967702, 97.500000, 110.000000" fill="rgb(178, 34, 34)" style="fill-opacity:1.00" />
<!-- End 'A' -->
<!-- Begin 'G' -->
<ellipse cx="175.000000" cy="108.099394" rx="25.000000" ry="0.405739" fill="rgb(255, 165, 0)" style="fill-opacity:1.00" />
<ellipse cx="175.000000" cy="108.099394" rx="16.666667" ry="0.270492" fill="rgb(255, 255, 255)" style="fill-opacity:1.00" />
<rect height="0.405739" width="25.000000" x="175.000000" y="107.896525" fill="rgb(255, 255, 255)" style="fill-opacity:1.00" />
<rect height="0.101435" width="25.000000" x="175.000000" y="108.200829" fill="rgb(255, 165, 0)" style="fill-opacity:1.00" />
<rect height="0.304304" width="6.250000" x="193.750000" y="108.200829" fill="rgb(255, 165, 0)" style="fill-opacity:1.00" />
<!-- End 'G' -->
<!-- Begin 'T' -->
<rect height="0.087971" width="50.000000" x="150.000000" y="108.505133" fill="rgb(0, 100, 0)" style="fill-opacity:1.00" />
<rect height="0.549818" width="10.000000" x="170.000000" y="108.505133" fill="rgb(0, 100, 0)" style="fill-opacity:1.00" />
<!-- End 'T' -->
<!-- Begin 'A' -->
<polygon points=" 150.000000, 109.598338, 171.000000, 109.054951, 179.000000, 109.054951, 200.000000, 109.598338, 192.500000, 109.598338, 186.250000, 109.462492, 163.750000, 109.462492, 157.500000, 109.598338" fill="rgb(178, 34, 34)" style="fill-opacity:1.00" />
<!-- End 'A' -->
<!-- Begin 'C' -->
<ellipse cx="175.000000" cy="109.799169" rx="25.000000" ry="0.200831" fill="rgb(0, 0, 128)" style="fill-opacity:1.00" />
<ellipse cx="175.000000" cy="109.799169" rx="16.666667" ry="0.133887" fill="rgb(255, 255, 255)" style="fill-opacity:1.00" />
<rect height="0.200831" width="25.000000" x="175.000000" y="109.698754" fill="rgb(255, 255, 255)" style="fill-opacity:1.00" />
<!-- End 'C' -->
<!-- Begin 'A' -->
<polygon points=" 210.000000, 101.310829, 231.000000, 93.847665, 239.000000, 93.847665, 260.000000, 101.310829, 252.500000, 101.310829, 246.250000, 99.445038, 223.750000, 99.445038, 217.500000, 101.310829" fill="rgb(178, 34, 34)" style="fill-opacity:1.00" />
<!-- End 'A' -->
<!-- Begin 'G' -->
<ellipse cx="235.000000" cy="103.709283" rx="25.000000" ry="2.398455" fill="rgb(255, 165, 0)" style="fill-opacity:1.00" />
<ellipse cx="235.000000" cy="103.709283" rx="16.666667" ry="1.598970" fill="rgb(255, 255, 255)" style="fill-opacity:1.00" />
<rect height="2.398455" width="25.000000" x="235.000000" y="102.510056" fill="rgb(255, 255, 255)" style="fill-opacity:1.00" />
<rect height="0.599614" width="25.000000" x="235.000000" y="104.308897" fill="rgb(255, 165, 0)" style="fill-opacity:1.00" />
<rect height="1.798841" width="6.250000" x="253.750000" y="104.308897" fill="rgb(255, 165, 0)" style="fill-opacity:1.00" />
<!-- End 'G' -->
<!-- Begin 'C' -->
<ellipse cx="235.000000" cy="107.760588" rx="25.000000" ry="1.652850" fill="rgb(0, 0, 128)" style="fill-opacity:1.00" />
<ellipse cx="235.000000" cy="107.760588" rx="16.666667" ry="1.101900" fill="rgb(255, 255, 255)" style="fill-opacity:1.00" />
<rect height="1.652850" width="25.000000" x="235.000000" y="106.934163" fill="rgb(255, 255, 255)" style="fill-opacity:1.00" />
<!-- End 'C' -->
<!-- Begin 'T' -->
<rect height="0.093850" width="50.000000" x="210.000000" y="109.413438" fill="rgb(0, 100, 0)" style="fill-opacity:1.00" />
<rect height="0.586562" width="10.000000" x="230.000000" y="109.413438" fill="rgb(0, 100, 0)" style="fill-opacity:1.00" />
<!-- End 'T' -->
<!-- Begin 'T' -->
<rect height="15.909479" width="50.000000" x="270.000000" y="10.492499" fill="rgb(0, 100, 0)" style="fill-opacity:1.00" />
<rect height="99.434242" width="10.000000" x="290.000000" y="10.492499" fill="rgb(0, 100, 0)" style="fill-opacity:1.00" />
<!-- End 'T' -->
<!-- Begin 'A' -->
<polygon points=" 270.000000, 109.960571, 291.000000, 109.926741, 299.000000, 109.926741, 320.000000, 109.960571, 312.500000, 109.960571, 306.250000, 109.952114, 283.750000, 109.952114, 277.500000, 109.960571" fill="rgb(178, 34, 34)" style="fill-opacity:1.00" />
<!-- End 'A' -->
<!-- Begin 'C' -->
<ellipse cx="295.000000" cy="109.971500" rx="25.000000" ry="0.010928" fill="rgb(0, 0, 128)" style="fill-opacity:1.00" />
<ellipse cx="295.000000" cy="109.971500" rx="16.666667" ry="0.007285" fill="rgb(255, 255, 255)" style="fill-opacity:1.00" />
<rect height="0.010928" width="25.000000" x="295.000000" y="109.966035" fill="rgb(255, 255, 255)" style="fill-opacity:1.00" />
<!-- End 'C' -->
<!-- Begin 'G' -->
<ellipse cx="295.000000" cy="109.991214" rx="25.000000" ry="0.008786" fill="rgb(255, 165, 0)" style="fill-opacity:1.00" />
<ellipse cx="295.000000" cy="109.991214" rx="16.666667" ry="0.005857" fill="rgb(255, 255, 255)" style="fill-opacity:1.00" />
<rect height="0.008786" width="25.000000" x="295.000000" y="109.986821" fill="rgb(255, 255, 255)" style="fill-opacity:1.00" />
<rect height="0.002197" width="25.000000" x="295.000000" y="109.993410" fill="rgb(255, 165, 0)" style="fill-opacity:1.00" />
<rect height="0.006590" width="6.250000" x="313.750000" y="109.993410" fill="rgb(255, 165, 0)" style="fill-opacity:1.00" />
<!-- End 'G' -->
<!-- Begin 'G' -->
<ellipse cx="355.000000" cy="66.674077" rx="25.000000" ry="37.757359" fill="rgb(255, 165, 0)" style="fill-opacity:1.00" />
<ellipse cx="355.000000" cy="66.674077" rx="16.666667" ry="25.171573" fill="rgb(255, 255, 255)" style="fill-opacity:1.00" />
<rect height="37.757359" width="25.000000" x="355.000000" y="47.795398" fill="rgb(255, 255, 255)" style="fill-opacity:1.00" />
<rect height="9.439340" width="25.000000" x="355.000000" y="76.113417" fill="rgb(255, 165, 0)" style="fill-opacity:1.00" />
<rect height="28.318019" width="6.250000" x="373.750000" y="76.113417" fill="rgb(255, 165, 0)" style="fill-opacity:1.00" />
<!-- End 'G' -->
<!-- Begin 'T' -->
<rect height="0.859884" width="50.000000" x="330.000000" y="104.431437" fill="rgb(0, 100, 0)" style="fill-opacity:1.00" />
<rect height="5.374274" width="10.000000" x="350.000000" y="104.431437" fill="rgb(0, 100, 0)" style="fill-opacity:1.00" />
<!-- End 'T' -->
<!-- Begin 'A' -->
<polygon points=" 330.000000, 109.914504, 351.000000, 109.805711, 359.000000, 109.805711, 380.000000, 109.914504, 372.500000, 109.914504, 366.250000, 109.887306, 343.750000, 109.887306, 337.500000, 109.914504" fill="rgb(178, 34, 34)" style="fill-opacity:1.00" />
<!-- End 'A' -->
<!-- Begin 'C' -->
<ellipse cx="355.000000" cy="109.957252" rx="25.000000" ry="0.042748" fill="rgb(0, 0, 128)" style="fill-opacity:1.00" />
<ellipse cx="355.000000" cy="109.957252" rx="16.666667" ry="0.028499" fill="rgb(255, 255, 255)" style="fill-opacity:1.00" />
<rect height="0.042748" width="25.000000" x="355.000000" y="109.935878" fill="rgb(255, 255, 255)" style="fill-opacity:1.00" />
<!-- End 'C' -->
<!-- Begin 'A' -->
<polygon points=" 390.000000, 108.453402, 411.000000, 16.914012, 419.000000, 16.914012, 440.000000, 108.453402, 432.500000, 108.453402, 426.250000, 85.568555, 403.750000, 85.568555, 397.500000, 108.453402" fill="rgb(178, 34, 34)" style="fill-opacity:1.00" />
<polygon points=" 415.000000, 35.221890, 407.000000, 70.837646, 422.000000, 70.837646" fill="rgb(255, 255, 255)" style="fill-opacity:1.00" />
<!-- End 'A' -->
<!-- Begin 'T' -->
<rect height="0.187861" width="50.000000" x="390.000000" y="108.453402" fill="rgb(0, 100, 0)" style="fill-opacity:1.00" />
<rect height="1.174129" width="10.000000" x="410.000000" y="108.453402" fill="rgb(0, 100, 0)" style="fill-opacity:1.00" />
<!-- End 'T' -->
<!-- Begin 'C' -->
<ellipse cx="415.000000" cy="109.772271" rx="25.000000" ry="0.144739" fill="rgb(0, 0, 128)" style="fill-opacity:1.00" />
<ellipse cx="415.000000" cy="109.772271" rx="16.666667" ry="0.096493" fill="rgb(255, 255, 255)" style="fill-opacity:1.00" />
<rect height="0.144739" width="25.000000" x="415.000000" y="109.699901" fill="rgb(255, 255, 255)" style="fill-opacity:1.00" />
<!-- End 'C' -->
<!-- Begin 'G' -->
<ellipse cx="415.000000" cy="109.958505" rx="25.000000" ry="0.041495" fill="rgb(255, 165, 0)" style="fill-opacity:1.00" />
<ellipse cx="415.000000" cy="109.958505" rx="16.666667" ry="0.027663" fill="rgb(255, 255, 255)" style="fill-opacity:1.00" />
<rect height="0.041495" width="25.000000" x="415.000000" y="109.937758" fill="rgb(255, 255, 255)" style="fill-opacity:1.00" />
<rect height="0.010374" width="25.000000" x="415.000000" y="109.968879" fill="rgb(255, 165, 0)" style="fill-opacity:1.00" />
<rect height="0.031121" width="6.250000" x="433.750000" y="109.968879" fill="rgb(255, 165, 0)" style="fill-opacity:1.00" />
<!-- End 'G' -->
<!-- Begin 'G' -->
<ellipse cx="475.000000" cy="86.007058" rx="25.000000" ry="7.324745" fill="rgb(255, 165, 0)" style="fill-opacity:1.00" />
<ellipse cx="475.000000" cy="86.007058" rx="16.666667" ry="4.883163" fill="rgb(255, 255, 255)" style="fill-opacity:1.00" />
<rect height="7.324745" width="25.000000" x="475.000000" y="82.344686" fill="rgb(255, 255, 255)" style="fill-opacity:1.00" />
<rect height="1.831186" width="25.000000" x="475.000000" y="87.838245" fill="rgb(255, 165, 0)" style="fill-opacity:1.00" />
<rect height="5.493559" width="6.250000" x="493.750000" y="87.838245" fill="rgb(255, 165, 0)" style="fill-opacity:1.00" />
<!-- End 'G' -->
<!-- Begin 'C' -->
<ellipse cx="475.000000" cy="100.536726" rx="25.000000" ry="7.204923" fill="rgb(0, 0, 128)" style="fill-opacity:1.00" />
<ellipse cx="475.000000" cy="100.536726" rx="16.666667" ry="4.803282" fill="rgb(255, 255, 255)" style="fill-opacity:1.00" />
<rect height="7.204923" width="25.000000" x="475.000000" y="96.934264" fill="rgb(255, 255, 255)" style="fill-opacity:1.00" />
<!-- End 'C' -->
<!-- Begin 'T' -->
<rect height="0.186855" width="50.000000" x="450.000000" y="107.741648" fill="rgb(0, 100, 0)" style="fill-opacity:1.00" />
<rect height="1.167843" width="10.000000" x="470.000000" y="107.741648" fill="rgb(0, 100, 0)" style="fill-opacity:1.00" />
<!-- End 'T' -->
<!-- Begin 'A' -->
<polygon points=" 450.000000, 110.000000, 471.000000, 108.909491, 479.000000, 108.909491, 500.000000, 110.000000, 492.500000, 110.000000, 486.250000, 109.727373, 463.750000, 109.727373, 457.500000, 110.000000" fill="rgb(178, 34, 34)" style="fill-opacity:1.00" />
<!-- End 'A' -->
<!-- Begin 'T' -->
<rect height="14.625220" width="50.000000" x="510.000000" y="16.958365" fill="rgb(0, 100, 0)" style="fill-opacity:1.00" />
<rect height="91.407627" width="10.000000" x="530.000000" y="16.958365" fill="rgb(0, 100, 0)" style="fill-opacity:1.00" />
<!-- End 'T' -->
<!-- Begin 'A' -->
<polygon points=" 510.000000, 109.758839, 531.000000, 108.365992, 539.000000, 108.365992, 560.000000, 109.758839, 552.500000, 109.758839, 546.250000, 109.410627, 523.750000, 109.410627, 517.500000, 109.758839" fill="rgb(178, 34, 34)" style="fill-opacity:1.00" />
<!-- End 'A' -->
<!-- Begin 'G' -->
<ellipse cx="535.000000" cy="109.869815" rx="25.000000" ry="0.110976" fill="rgb(255, 165, 0)" style="fill-opacity:1.00" />
<ellipse cx="535.000000" cy="109.869815" rx="16.666667" ry="0.073984" fill="rgb(255, 255, 255)" style="fill-opacity:1.00" />
<rect height="0.110976" width="25.000000" x="535.000000" y="109.814327" fill="rgb(255, 255, 255)" style="fill-opacity:1.00" />
<rect height="0.027744" width="25.000000" x="535.000000" y="109.897559" fill="rgb(255, 165, 0)" style="fill-opacity:1.00" />
<rect height="0.083232" width="6.250000" x="553.750000" y="109.897559" fill="rgb(255, 165, 0)" style="fill-opacity:1.00" />
<!-- End 'G' -->
<!-- Begin 'C' -->
<ellipse cx="535.000000" cy="109.990395" rx="25.000000" ry="0.009605" fill="rgb(0, 0, 128)" style="fill-opacity:1.00" />
<ellipse cx="535.000000" cy="109.990395" rx="16.666667" ry="0.006403" fill="rgb(255, 255, 255)" style="fill-opacity:1.00" />
<rect height="0.009605" width="25.000000" x="535.000000" y="109.985593" fill="rgb(255, 255, 255)" style="fill-opacity:1.00" />
<!-- End 'C' -->
<!-- Begin 'C' -->
<ellipse cx="595.000000" cy="66.895737" rx="25.000000" ry="37.393774" fill="rgb(0, 0, 128)" style="fill-opacity:1.00" />
<ellipse cx="595.000000" cy="66.895737" rx="16.666667" ry="24.929182" fill="rgb(255, 255, 255)" style="fill-opacity:1.00" />
<rect height="37.393774" width="25.000000" x="595.000000" y="48.198850" fill="rgb(255, 255, 255)" style="fill-opacity:1.00" />
<!-- End 'C' -->
<!-- Begin 'A' -->
<polygon points=" 570.000000, 109.762584, 591.000000, 104.289511, 599.000000, 104.289511, 620.000000, 109.762584, 612.500000, 109.762584, 606.250000, 108.394315, 583.750000, 108.394315, 577.500000, 109.762584" fill="rgb(178, 34, 34)" style="fill-opacity:1.00" />
<!-- End 'A' -->
<!-- Begin 'T' -->
<rect height="0.021139" width="50.000000" x="570.000000" y="109.762584" fill="rgb(0, 100, 0)" style="fill-opacity:1.00" />
<rect height="0.132119" width="10.000000" x="590.000000" y="109.762584" fill="rgb(0, 100, 0)" style="fill-opacity:1.00" />
<!-- End 'T' -->
<!-- Begin 'G' -->
<ellipse cx="595.000000" cy="109.947351" rx="25.000000" ry="0.052649" fill="rgb(255, 165, 0)" style="fill-opacity:1.00" />
<ellipse cx="595.000000" cy="109.947351" rx="16.666667" ry="0.035099" fill="rgb(255, 255, 255)" style="fill-opacity:1.00" />
<rect height="0.052649" width="25.000000" x="595.000000" y="109.921027" fill="rgb(255, 255, 255)" style="fill-opacity:1.00" />
<rect height="0.013162" width="25.000000" x="595.000000" y="109.960513" fill="rgb(255, 165, 0)" style="fill-opacity:1.00" />
<rect height="0.039487" width="6.250000" x="613.750000" y="109.960513" fill="rgb(255, 165, 0)" style="fill-opacity:1.00" />
<!-- End 'G' -->
<!-- Begin 'A' -->
<polygon points=" 630.000000, 109.877463, 651.000000, 10.763116, 659.000000, 10.763116, 680.000000, 109.877463, 672.500000, 109.877463, 666.250000, 85.098877, 643.750000, 85.098877, 637.500000, 109.877463" fill="rgb(178, 34, 34)" style="fill-opacity:1.00" />
<polygon points=" 655.000000, 30.585985, 647.000000, 69.231724, 662.000000, 69.231724" fill="rgb(255, 255, 255)" style="fill-opacity:1.00" />
<!-- End 'A' -->
<!-- Begin 'T' -->
<rect height="0.012233" width="50.000000" x="630.000000" y="109.877463" fill="rgb(0, 100, 0)" style="fill-opacity:1.00" />
<rect height="0.076454" width="10.000000" x="650.000000" y="109.877463" fill="rgb(0, 100, 0)" style="fill-opacity:1.00" />
<!-- End 'T' -->
<!-- Begin 'G' -->
<ellipse cx="655.000000" cy="109.971327" rx="25.000000" ry="0.017410" fill="rgb(255, 165, 0)" style="fill-opacity:1.00" />
<ellipse cx="655.000000" cy="109.971327" rx="16.666667" ry="0.011607" fill="rgb(255, 255, 255)" style="fill-opacity:1.00" />
<rect height="0.017410" width="25.000000" x="655.000000" y="109.962622" fill="rgb(255, 255, 255)" style="fill-opacity:1.00" />
<rect height="0.004352" width="25.000000" x="655.000000" y="109.975680" fill="rgb(255, 165, 0)" style="fill-opacity:1.00" />
<rect height="0.013057" width="6.250000" x="673.750000" y="109.975680" fill="rgb(255, 165, 0)" style="fill-opacity:1.00" />
<!-- End 'G' -->
<!-- Begin 'C' -->
<ellipse cx="655.000000" cy="109.994369" rx="25.000000" ry="0.005631" fill="rgb(0, 0, 128)" style="fill-opacity:1.00" />
<ellipse cx="655.000000" cy="109.994369" rx="16.666667" ry="0.003754" fill="rgb(255, 255, 255)" style="fill-opacity:1.00" />
<rect height="0.005631" width="25.000000" x="655.000000" y="109.991553" fill="rgb(255, 255, 255)" style="fill-opacity:1.00" />
<!-- End 'C' -->
<!-- Begin 'T' -->
<rect height="1.193977" width="50.000000" x="690.000000" y="93.861446" fill="rgb(0, 100, 0)" style="fill-opacity:1.00" />
<rect height="7.462359" width="10.000000" x="710.000000" y="93.861446" fill="rgb(0, 100, 0)" style="fill-opacity:1.00" />
<!-- End 'T' -->
<!-- Begin 'C' -->
<ellipse cx="715.000000" cy="103.701071" rx="25.000000" ry="2.377266" fill="rgb(0, 0, 128)" style="fill-opacity:1.00" />
<ellipse cx="715.000000" cy="103.701071" rx="16.666667" ry="1.584844" fill="rgb(255, 255, 255)" style="fill-opacity:1.00" />
<rect height="2.377266" width="25.000000" x="715.000000" y="102.512438" fill="rgb(255, 255, 255)" style="fill-opacity:1.00" />
<!-- End 'C' -->
<!-- Begin 'G' -->
<ellipse cx="715.000000" cy="107.747952" rx="25.000000" ry="1.669616" fill="rgb(255, 165, 0)" style="fill-opacity:1.00" />
<ellipse cx="715.000000" cy="107.747952" rx="16.666667" ry="1.113077" fill="rgb(255, 255, 255)" style="fill-opacity:1.00" />
<rect height="1.669616" width="25.000000" x="715.000000" y="106.913145" fill="rgb(255, 255, 255)" style="fill-opacity:1.00" />
<rect height="0.417404" width="25.000000" x="715.000000" y="108.165356" fill="rgb(255, 165, 0)" style="fill-opacity:1.00" />
<rect height="1.252212" width="6.250000" x="733.750000" y="108.165356" fill="rgb(255, 165, 0)" style="fill-opacity:1.00" />
<!-- End 'G' -->
<!-- Begin 'A' -->
<polygon points=" 690.000000, 110.000000, 711.000000, 109.417568, 719.000000, 109.417568, 740.000000, 110.000000, 732.500000, 110.000000, 726.250000, 109.854392, 703.750000, 109.854392, 697.500000, 110.000000" fill="rgb(178, 34, 34)" style="fill-opacity:1.00" />
<!-- End 'A' -->
<text x="400.000000" y="165">
IC = 12.26
</text>

</svg>
