<?xml version="1.0" encoding="UTF-8" standalone="yes"?>
                 <!DOCTYPE svg PUBLIC "-//W3C//DTD SVG 1.0//EN" "http://www.w3.org/TR/2001/REC-SVG-20010904/DTD/svg10.dtd">
                 <svg height="170" width="900" xmlns="http://www.w3.org/2000/svg" xmlns:xlink="http://www.w3.org/1999/xlink">
                 <line x1="85" y1="120" x2="867" y2="120" style="stroke:rgb(99,99,99);stroke-width:2" />
<rect height="7.000000" width="2.000000" x="85.000000" y="120.000000" fill="rgb(0, 0, 0)" style="fill-opacity:1.00" />
<text x="107.000000" y="140">
1
</text>
<rect height="7.000000" width="2.000000" x="145.000000" y="120.000000" fill="rgb(0, 0, 0)" style="fill-opacity:1.00" />
<text x="167.000000" y="140">
2
</text>
<rect height="7.000000" width="2.000000" x="205.000000" y="120.000000" fill="rgb(0, 0, 0)" style="fill-opacity:1.00" />
<text x="227.000000" y="140">
3
</text>
<rect height="7.000000" width="2.000000" x="265.000000" y="120.000000" fill="rgb(0, 0, 0)" style="fill-opacity:1.00" />
<text x="287.000000" y="140">
4
</text>
<rect height="7.000000" width="2.000000" x="325.000000" y="120.000000" fill="rgb(0, 0, 0)" style="fill-opacity:1.00" />
<text x="347.000000" y="140">
5
</text>
<rect height="7.000000" width="2.000000" x="385.000000" y="120.000000" fill="rgb(0, 0, 0)" style="fill-opacity:1.00" />
<text x="407.000000" y="140">
6
</text>
<rect height="7.000000" width="2.000000" x="445.000000" y="120.000000" fill="rgb(0, 0, 0)" style="fill-opacity:1.00" />
<text x="467.000000" y="140">
7
</text>
<rect height="7.000000" width="2.000000" x="505.000000" y="120.000000" fill="rgb(0, 0, 0)" style="fill-opacity:1.00" />
<text x="527.000000" y="140">
8
</text>
<rect height="7.000000" width="2.000000" x="565.000000" y="120.000000" fill="rgb(0, 0, 0)" style="fill-opacity:1.00" />
<text x="587.000000" y="140">
9
</text>
<rect height="7.000000" width="2.000000" x="625.000000" y="120.000000" fill="rgb(0, 0, 0)" style="fill-opacity:1.00" />
<text x="647.000000" y="140">
10
</text>
<rect height="7.000000" width="2.000000" x="685.000000" y="120.000000" fill="rgb(0, 0, 0)" style="fill-opacity:1.00" />
<text x="707.000000" y="140">
11
</text>
<rect height="7.000000" width="2.000000" x="745.000000" y="120.000000" fill="rgb(0, 0, 0)" style="fill-opacity:1.00" />
<text x="767.000000" y="140">
12
</text>
<rect height="7.000000" width="2.000000" x="805.000000" y="120.000000" fill="rgb(0, 0, 0)" style="fill-opacity:1.00" />
<text x="827.000000" y="140">
13
</text>
<rect height="7.000000" width="2.000000" x="865.000000" y="120.000000" fill="rgb(0, 0, 0)" style="fill-opacity:1.00" />
<line x1="80" y1="112" x2="80" y2="10" style="stroke:rgb(99,99,99);stroke-width:2" />
<rect height="2.000000" width="7.000000" x="73.000000" y="110.000000" fill="rgb(0, 0, 0)" style="fill-opacity:1.00" />
<text x="63" y="115">
0
</text>
<rect height="2.000000" width="7.000000" x="73.000000" y="60.000000" fill="rgb(0, 0, 0)" style="fill-opacity:1.00" />
<text x="63" y="65">
1
</text>
<rect height="2.000000" width="7.000000" x="73.000000" y="10.000000" fill="rgb(0, 0, 0)" style="fill-opacity:1.00" />
<text x="63" y="15">
2
</text>
<text x="50" y="65"
transform="rotate(-90, 50, 70)">
bits
</text>
<!-- Begin 'C' -->
<ellipse cx="115.000000" cy="107.844595" rx="25.000000" ry="0.397394" fill="rgb(0, 0, 128)" style="fill-opacity:1.00" />
<ellipse cx="115.000000" cy="107.844595" rx="16.666667" ry="0.264929" fill="rgb(255, 255, 255)" style="fill-opacity:1.00" />
<rect height="0.397394" width="25.000000" x="115.000000" y="107.645898" fill="rgb(255, 255, 255)" style="fill-opacity:1.00" />
<!-- End 'C' -->
<!-- Begin 'G' -->
<ellipse cx="115.000000" cy="108.592255" rx="25.000000" ry="0.350266" fill="rgb(255, 165, 0)" style="fill-opacity:1.00" />
<ellipse cx="115.000000" cy="108.592255" rx="16.666667" ry="0.233511" fill="rgb(255, 255, 255)" style="fill-opacity:1.00" />
<rect height="0.350266" width="25.000000" x="115.000000" y="108.417122" fill="rgb(255, 255, 255)" style="fill-opacity:1.00" />
<rect height="0.087567" width="25.000000" x="115.000000" y="108.679822" fill="rgb(255, 165, 0)" style="fill-opacity:1.00" />
<rect height="0.262700" width="6.250000" x="133.750000" y="108.679822" fill="rgb(255, 165, 0)" style="fill-opacity:1.00" />
<!-- End 'G' -->
<!-- Begin 'T' -->
<rect height="0.110313" width="50.000000" x="90.000000" y="108.942521" fill="rgb(0, 100, 0)" style="fill-opacity:1.00" />
<rect height="0.689458" width="10.000000" x="110.000000" y="108.942521" fill="rgb(0, 100, 0)" style="fill-opacity:1.00" />
<!-- End 'T' -->
<!-- Begin 'A' -->
<polygon points=" 90.000000, 110.000000, 111.000000, 109.631980, 119.000000, 109.631980, 140.000000, 110.000000, 132.500000, 110.000000, 126.250000, 109.907995, 103.750000, 109.907995, 97.500000, 110.000000" fill="rgb(178, 34, 34)" style="fill-opacity:1.00" />
<!-- End 'A' -->
<!-- Begin 'G' -->
<ellipse cx="175.000000" cy="105.841927" rx="25.000000" ry="1.114035" fill="rgb(255, 165, 0)" style="fill-opacity:1.00" />
<ellipse cx="175.000000" cy="105.841927" rx="16.666667" ry="0.742690" fill="rgb(255, 255, 255)" style="fill-opacity:1.00" />
<rect height="1.114035" width="25.000000" x="175.000000" y="105.284910" fill="rgb(255, 255, 255)" style="fill-opacity:1.00" />
<rect height="0.278509" width="25.000000" x="175.000000" y="106.120436" fill="rgb(255, 165, 0)" style="fill-opacity:1.00" />
<rect height="0.835527" width="6.250000" x="193.750000" y="106.120436" fill="rgb(255, 165, 0)" style="fill-opacity:1.00" />
<!-- End 'G' -->
<!-- Begin 'C' -->
<ellipse cx="175.000000" cy="107.522668" rx="25.000000" ry="0.566705" fill="rgb(0, 0, 128)" style="fill-opacity:1.00" />
<ellipse cx="175.000000" cy="107.522668" rx="16.666667" ry="0.377803" fill="rgb(255, 255, 255)" style="fill-opacity:1.00" />
<rect height="0.566705" width="25.000000" x="175.000000" y="107.239315" fill="rgb(255, 255, 255)" style="fill-opacity:1.00" />
<!-- End 'C' -->
<!-- Begin 'T' -->
<rect height="0.159027" width="50.000000" x="150.000000" y="108.089372" fill="rgb(0, 100, 0)" style="fill-opacity:1.00" />
<rect height="0.993917" width="10.000000" x="170.000000" y="108.089372" fill="rgb(0, 100, 0)" style="fill-opacity:1.00" />
<!-- End 'T' -->
<!-- Begin 'A' -->
<polygon points=" 150.000000, 110.000000, 171.000000, 109.083290, 179.000000, 109.083290, 200.000000, 110.000000, 192.500000, 110.000000, 186.250000, 109.770822, 163.750000, 109.770822, 157.500000, 110.000000" fill="rgb(178, 34, 34)" style="fill-opacity:1.00" />
<!-- End 'A' -->
<!-- Begin 'G' -->
<ellipse cx="235.000000" cy="89.089562" rx="25.000000" ry="6.349773" fill="rgb(255, 165, 0)" style="fill-opacity:1.00" />
<ellipse cx="235.000000" cy="89.089562" rx="16.666667" ry="4.233182" fill="rgb(255, 255, 255)" style="fill-opacity:1.00" />
<rect height="6.349773" width="25.000000" x="235.000000" y="85.914675" fill="rgb(255, 255, 255)" style="fill-opacity:1.00" />
<rect height="1.587443" width="25.000000" x="235.000000" y="90.677005" fill="rgb(255, 165, 0)" style="fill-opacity:1.00" />
<rect height="4.762330" width="6.250000" x="253.750000" y="90.677005" fill="rgb(255, 165, 0)" style="fill-opacity:1.00" />
<!-- End 'G' -->
<!-- Begin 'C' -->
<ellipse cx="235.000000" cy="101.414450" rx="25.000000" ry="5.975116" fill="rgb(0, 0, 128)" style="fill-opacity:1.00" />
<ellipse cx="235.000000" cy="101.414450" rx="16.666667" ry="3.983410" fill="rgb(255, 255, 255)" style="fill-opacity:1.00" />
<rect height="5.975116" width="25.000000" x="235.000000" y="98.426893" fill="rgb(255, 255, 255)" style="fill-opacity:1.00" />
<!-- End 'C' -->
<!-- Begin 'T' -->
<rect height="0.211362" width="50.000000" x="210.000000" y="107.389566" fill="rgb(0, 100, 0)" style="fill-opacity:1.00" />
<rect height="1.321013" width="10.000000" x="230.000000" y="107.389566" fill="rgb(0, 100, 0)" style="fill-opacity:1.00" />
<!-- End 'T' -->
<!-- Begin 'A' -->
<polygon points=" 210.000000, 110.000000, 231.000000, 108.710579, 239.000000, 108.710579, 260.000000, 110.000000, 252.500000, 110.000000, 246.250000, 109.677645, 223.750000, 109.677645, 217.500000, 110.000000" fill="rgb(178, 34, 34)" style="fill-opacity:1.00" />
<!-- End 'A' -->
<!-- Begin 'C' -->
<ellipse cx="295.000000" cy="74.486246" rx="25.000000" ry="25.060129" fill="rgb(0, 0, 128)" style="fill-opacity:1.00" />
<ellipse cx="295.000000" cy="74.486246" rx="16.666667" ry="16.706753" fill="rgb(255, 255, 255)" style="fill-opacity:1.00" />
<rect height="25.060129" width="25.000000" x="295.000000" y="61.956181" fill="rgb(255, 255, 255)" style="fill-opacity:1.00" />
<!-- End 'C' -->
<!-- Begin 'G' -->
<ellipse cx="295.000000" cy="104.007382" rx="25.000000" ry="4.461007" fill="rgb(255, 165, 0)" style="fill-opacity:1.00" />
<ellipse cx="295.000000" cy="104.007382" rx="16.666667" ry="2.974005" fill="rgb(255, 255, 255)" style="fill-opacity:1.00" />
<rect height="4.461007" width="25.000000" x="295.000000" y="101.776879" fill="rgb(255, 255, 255)" style="fill-opacity:1.00" />
<rect height="1.115252" width="25.000000" x="295.000000" y="105.122634" fill="rgb(255, 165, 0)" style="fill-opacity:1.00" />
<rect height="3.345755" width="6.250000" x="313.750000" y="105.122634" fill="rgb(255, 165, 0)" style="fill-opacity:1.00" />
<!-- End 'G' -->
<!-- Begin 'A' -->
<polygon points=" 270.000000, 109.588394, 291.000000, 108.468389, 299.000000, 108.468389, 320.000000, 109.588394, 312.500000, 109.588394, 306.250000, 109.308393, 283.750000, 109.308393, 277.500000, 109.588394" fill="rgb(178, 34, 34)" style="fill-opacity:1.00" />
<!-- End 'A' -->
<!-- Begin 'T' -->
<rect height="0.065857" width="50.000000" x="270.000000" y="109.588394" fill="rgb(0, 100, 0)" style="fill-opacity:1.00" />
<rect height="0.411606" width="10.000000" x="290.000000" y="109.588394" fill="rgb(0, 100, 0)" style="fill-opacity:1.00" />
<!-- End 'T' -->
<!-- Begin 'C' -->
<ellipse cx="355.000000" cy="89.109981" rx="25.000000" ry="9.789705" fill="rgb(0, 0, 128)" style="fill-opacity:1.00" />
<ellipse cx="355.000000" cy="89.109981" rx="16.666667" ry="6.526470" fill="rgb(255, 255, 255)" style="fill-opacity:1.00" />
<rect height="9.789705" width="25.000000" x="355.000000" y="84.215128" fill="rgb(255, 255, 255)" style="fill-opacity:1.00" />
<!-- End 'C' -->
<!-- Begin 'G' -->
<ellipse cx="355.000000" cy="102.132397" rx="25.000000" ry="3.232711" fill="rgb(255, 165, 0)" style="fill-opacity:1.00" />
<ellipse cx="355.000000" cy="102.132397" rx="16.666667" ry="2.155141" fill="rgb(255, 255, 255)" style="fill-opacity:1.00" />
<rect height="3.232711" width="25.000000" x="355.000000" y="100.516041" fill="rgb(255, 255, 255)" style="fill-opacity:1.00" />
<rect height="0.808178" width="25.000000" x="355.000000" y="102.940575" fill="rgb(255, 165, 0)" style="fill-opacity:1.00" />
<rect height="2.424533" width="6.250000" x="373.750000" y="102.940575" fill="rgb(255, 165, 0)" style="fill-opacity:1.00" />
<!-- End 'G' -->
<!-- Begin 'T' -->
<rect height="0.639101" width="50.000000" x="330.000000" y="105.365108" fill="rgb(0, 100, 0)" style="fill-opacity:1.00" />
<rect height="3.994379" width="10.000000" x="350.000000" y="105.365108" fill="rgb(0, 100, 0)" style="fill-opacity:1.00" />
<!-- End 'T' -->
<!-- Begin 'A' -->
<polygon points=" 330.000000, 110.000000, 351.000000, 109.359487, 359.000000, 109.359487, 380.000000, 110.000000, 372.500000, 110.000000, 366.250000, 109.839872, 343.750000, 109.839872, 337.500000, 110.000000" fill="rgb(178, 34, 34)" style="fill-opacity:1.00" />
<!-- End 'A' -->
<!-- Begin 'C' -->
<ellipse cx="415.000000" cy="99.937612" rx="25.000000" ry="2.518217" fill="rgb(0, 0, 128)" style="fill-opacity:1.00" />
<ellipse cx="415.000000" cy="99.937612" rx="16.666667" ry="1.678811" fill="rgb(255, 255, 255)" style="fill-opacity:1.00" />
<rect height="2.518217" width="25.000000" x="415.000000" y="98.678504" fill="rgb(255, 255, 255)" style="fill-opacity:1.00" />
<!-- End 'C' -->
<!-- Begin 'T' -->
<rect height="0.690405" width="50.000000" x="390.000000" y="102.455829" fill="rgb(0, 100, 0)" style="fill-opacity:1.00" />
<rect height="4.315030" width="10.000000" x="410.000000" y="102.455829" fill="rgb(0, 100, 0)" style="fill-opacity:1.00" />
<!-- End 'T' -->
<!-- Begin 'G' -->
<ellipse cx="415.000000" cy="108.058507" rx="25.000000" ry="1.287648" fill="rgb(255, 165, 0)" style="fill-opacity:1.00" />
<ellipse cx="415.000000" cy="108.058507" rx="16.666667" ry="0.858432" fill="rgb(255, 255, 255)" style="fill-opacity:1.00" />
<rect height="1.287648" width="25.000000" x="415.000000" y="107.414683" fill="rgb(255, 255, 255)" style="fill-opacity:1.00" />
<rect height="0.321912" width="25.000000" x="415.000000" y="108.380419" fill="rgb(255, 165, 0)" style="fill-opacity:1.00" />
<rect height="0.965736" width="6.250000" x="433.750000" y="108.380419" fill="rgb(255, 165, 0)" style="fill-opacity:1.00" />
<!-- End 'G' -->
<!-- Begin 'A' -->
<polygon points=" 390.000000, 110.000000, 411.000000, 109.346155, 419.000000, 109.346155, 440.000000, 110.000000, 432.500000, 110.000000, 426.250000, 109.836539, 403.750000, 109.836539, 397.500000, 110.000000" fill="rgb(178, 34, 34)" style="fill-opacity:1.00" />
<!-- End 'A' -->
<!-- Begin 'G' -->
<ellipse cx="475.000000" cy="96.323516" rx="25.000000" ry="3.632609" fill="rgb(255, 165, 0)" style="fill-opacity:1.00" />
<ellipse cx="475.000000" cy="96.323516" rx="16.666667" ry="2.421739" fill="rgb(255, 255, 255)" style="fill-opacity:1.00" />
<rect height="3.632609" width="25.000000" x="475.000000" y="94.507211" fill="rgb(255, 255, 255)" style="fill-opacity:1.00" />
<rect height="0.908152" width="25.000000" x="475.000000" y="97.231668" fill="rgb(255, 165, 0)" style="fill-opacity:1.00" />
<rect height="2.724456" width="6.250000" x="493.750000" y="97.231668" fill="rgb(255, 165, 0)" style="fill-opacity:1.00" />
<!-- End 'G' -->
<!-- Begin 'C' -->
<ellipse cx="475.000000" cy="103.521182" rx="25.000000" ry="3.565057" fill="rgb(0, 0, 128)" style="fill-opacity:1.00" />
<ellipse cx="475.000000" cy="103.521182" rx="16.666667" ry="2.376705" fill="rgb(255, 255, 255)" style="fill-opacity:1.00" />
<rect height="3.565057" width="25.000000" x="475.000000" y="101.738653" fill="rgb(255, 255, 255)" style="fill-opacity:1.00" />
<!-- End 'C' -->
<!-- Begin 'A' -->
<polygon points=" 450.000000, 108.559536, 471.000000, 107.086239, 479.000000, 107.086239, 500.000000, 108.559536, 492.500000, 108.559536, 486.250000, 108.191212, 463.750000, 108.191212, 457.500000, 108.559536" fill="rgb(178, 34, 34)" style="fill-opacity:1.00" />
<!-- End 'A' -->
<!-- Begin 'T' -->
<rect height="0.230474" width="50.000000" x="450.000000" y="108.559536" fill="rgb(0, 100, 0)" style="fill-opacity:1.00" />
<rect height="1.440464" width="10.000000" x="470.000000" y="108.559536" fill="rgb(0, 100, 0)" style="fill-opacity:1.00" />
<!-- End 'T' -->
<!-- Begin 'G' -->
<ellipse cx="535.000000" cy="99.749064" rx="25.000000" ry="2.558797" fill="rgb(255, 165, 0)" style="fill-opacity:1.00" />
<ellipse cx="535.000000" cy="99.749064" rx="16.666667" ry="1.705865" fill="rgb(255, 255, 255)" style="fill-opacity:1.00" />
<rect height="2.558797" width="25.000000" x="535.000000" y="98.469666" fill="rgb(255, 255, 255)" style="fill-opacity:1.00" />
<rect height="0.639699" width="25.000000" x="535.000000" y="100.388764" fill="rgb(255, 165, 0)" style="fill-opacity:1.00" />
<rect height="1.919098" width="6.250000" x="553.750000" y="100.388764" fill="rgb(255, 165, 0)" style="fill-opacity:1.00" />
<!-- End 'G' -->
<!-- Begin 'A' -->
<polygon points=" 510.000000, 106.799088, 531.000000, 102.307862, 539.000000, 102.307862, 560.000000, 106.799088, 552.500000, 106.799088, 546.250000, 105.676281, 523.750000, 105.676281, 517.500000, 106.799088" fill="rgb(178, 34, 34)" style="fill-opacity:1.00" />
<!-- End 'A' -->
<!-- Begin 'C' -->
<ellipse cx="535.000000" cy="108.064736" rx="25.000000" ry="1.265648" fill="rgb(0, 0, 128)" style="fill-opacity:1.00" />
<ellipse cx="535.000000" cy="108.064736" rx="16.666667" ry="0.843765" fill="rgb(255, 255, 255)" style="fill-opacity:1.00" />
<rect height="1.265648" width="25.000000" x="535.000000" y="107.431912" fill="rgb(255, 255, 255)" style="fill-opacity:1.00" />
<!-- End 'C' -->
<!-- Begin 'T' -->
<rect height="0.107139" width="50.000000" x="510.000000" y="109.330384" fill="rgb(0, 100, 0)" style="fill-opacity:1.00" />
<rect height="0.669616" width="10.000000" x="530.000000" y="109.330384" fill="rgb(0, 100, 0)" style="fill-opacity:1.00" />
<!-- End 'T' -->
<!-- Begin 'G' -->
<ellipse cx="595.000000" cy="89.555266" rx="25.000000" ry="9.600795" fill="rgb(255, 165, 0)" style="fill-opacity:1.00" />
<ellipse cx="595.000000" cy="89.555266" rx="16.666667" ry="6.400530" fill="rgb(255, 255, 255)" style="fill-opacity:1.00" />
<rect height="9.600795" width="25.000000" x="595.000000" y="84.754869" fill="rgb(255, 255, 255)" style="fill-opacity:1.00" />
<rect height="2.400199" width="25.000000" x="595.000000" y="91.955465" fill="rgb(255, 165, 0)" style="fill-opacity:1.00" />
<rect height="7.200596" width="6.250000" x="613.750000" y="91.955465" fill="rgb(255, 165, 0)" style="fill-opacity:1.00" />
<!-- End 'G' -->
<!-- Begin 'C' -->
<ellipse cx="595.000000" cy="102.276265" rx="25.000000" ry="3.120204" fill="rgb(0, 0, 128)" style="fill-opacity:1.00" />
<ellipse cx="595.000000" cy="102.276265" rx="16.666667" ry="2.080136" fill="rgb(255, 255, 255)" style="fill-opacity:1.00" />
<rect height="3.120204" width="25.000000" x="595.000000" y="100.716163" fill="rgb(255, 255, 255)" style="fill-opacity:1.00" />
<!-- End 'C' -->
<!-- Begin 'A' -->
<polygon points=" 570.000000, 109.218539, 591.000000, 105.396470, 599.000000, 105.396470, 620.000000, 109.218539, 612.500000, 109.218539, 606.250000, 108.263022, 583.750000, 108.263022, 577.500000, 109.218539" fill="rgb(178, 34, 34)" style="fill-opacity:1.00" />
<!-- End 'A' -->
<!-- Begin 'T' -->
<rect height="0.125034" width="50.000000" x="570.000000" y="109.218539" fill="rgb(0, 100, 0)" style="fill-opacity:1.00" />
<rect height="0.781461" width="10.000000" x="590.000000" y="109.218539" fill="rgb(0, 100, 0)" style="fill-opacity:1.00" />
<!-- End 'T' -->
<!-- Begin 'G' -->
<ellipse cx="655.000000" cy="73.887402" rx="25.000000" ry="25.009102" fill="rgb(255, 165, 0)" style="fill-opacity:1.00" />
<ellipse cx="655.000000" cy="73.887402" rx="16.666667" ry="16.672735" fill="rgb(255, 255, 255)" style="fill-opacity:1.00" />
<rect height="25.009102" width="25.000000" x="655.000000" y="61.382851" fill="rgb(255, 255, 255)" style="fill-opacity:1.00" />
<rect height="6.252276" width="25.000000" x="655.000000" y="80.139678" fill="rgb(255, 165, 0)" style="fill-opacity:1.00" />
<rect height="18.756827" width="6.250000" x="673.750000" y="80.139678" fill="rgb(255, 165, 0)" style="fill-opacity:1.00" />
<!-- End 'G' -->
<!-- Begin 'C' -->
<ellipse cx="655.000000" cy="103.933966" rx="25.000000" ry="5.037461" fill="rgb(0, 0, 128)" style="fill-opacity:1.00" />
<ellipse cx="655.000000" cy="103.933966" rx="16.666667" ry="3.358307" fill="rgb(255, 255, 255)" style="fill-opacity:1.00" />
<rect height="5.037461" width="25.000000" x="655.000000" y="101.415235" fill="rgb(255, 255, 255)" style="fill-opacity:1.00" />
<!-- End 'C' -->
<!-- Begin 'T' -->
<rect height="0.127293" width="50.000000" x="630.000000" y="108.971427" fill="rgb(0, 100, 0)" style="fill-opacity:1.00" />
<rect height="0.795583" width="10.000000" x="650.000000" y="108.971427" fill="rgb(0, 100, 0)" style="fill-opacity:1.00" />
<!-- End 'T' -->
<!-- Begin 'A' -->
<polygon points=" 630.000000, 110.000000, 651.000000, 109.767010, 659.000000, 109.767010, 680.000000, 110.000000, 672.500000, 110.000000, 666.250000, 109.941752, 643.750000, 109.941752, 637.500000, 110.000000" fill="rgb(178, 34, 34)" style="fill-opacity:1.00" />
<!-- End 'A' -->
<!-- Begin 'C' -->
<ellipse cx="715.000000" cy="90.687151" rx="25.000000" ry="5.927066" fill="rgb(0, 0, 128)" style="fill-opacity:1.00" />
<ellipse cx="715.000000" cy="90.687151" rx="16.666667" ry="3.951377" fill="rgb(255, 255, 255)" style="fill-opacity:1.00" />
<rect height="5.927066" width="25.000000" x="715.000000" y="87.723618" fill="rgb(255, 255, 255)" style="fill-opacity:1.00" />
<!-- End 'C' -->
<!-- Begin 'G' -->
<ellipse cx="715.000000" cy="101.930630" rx="25.000000" ry="5.316413" fill="rgb(255, 165, 0)" style="fill-opacity:1.00" />
<ellipse cx="715.000000" cy="101.930630" rx="16.666667" ry="3.544275" fill="rgb(255, 255, 255)" style="fill-opacity:1.00" />
<rect height="5.316413" width="25.000000" x="715.000000" y="99.272424" fill="rgb(255, 255, 255)" style="fill-opacity:1.00" />
<rect height="1.329103" width="25.000000" x="715.000000" y="103.259734" fill="rgb(255, 165, 0)" style="fill-opacity:1.00" />
<rect height="3.987310" width="6.250000" x="733.750000" y="103.259734" fill="rgb(255, 165, 0)" style="fill-opacity:1.00" />
<!-- End 'G' -->
<!-- Begin 'T' -->
<rect height="0.222811" width="50.000000" x="690.000000" y="107.247043" fill="rgb(0, 100, 0)" style="fill-opacity:1.00" />
<rect height="1.392568" width="10.000000" x="710.000000" y="107.247043" fill="rgb(0, 100, 0)" style="fill-opacity:1.00" />
<!-- End 'T' -->
<!-- Begin 'A' -->
<polygon points=" 690.000000, 110.000000, 711.000000, 108.639611, 719.000000, 108.639611, 740.000000, 110.000000, 732.500000, 110.000000, 726.250000, 109.659903, 703.750000, 109.659903, 697.500000, 110.000000" fill="rgb(178, 34, 34)" style="fill-opacity:1.00" />
<!-- End 'A' -->
<!-- Begin 'C' -->
<ellipse cx="775.000000" cy="105.733924" rx="25.000000" ry="1.156623" fill="rgb(0, 0, 128)" style="fill-opacity:1.00" />
<ellipse cx="775.000000" cy="105.733924" rx="16.666667" ry="0.771082" fill="rgb(255, 255, 255)" style="fill-opacity:1.00" />
<rect height="1.156623" width="25.000000" x="775.000000" y="105.155613" fill="rgb(255, 255, 255)" style="fill-opacity:1.00" />
<!-- End 'C' -->
<!-- Begin 'G' -->
<ellipse cx="775.000000" cy="107.453606" rx="25.000000" ry="0.563059" fill="rgb(255, 165, 0)" style="fill-opacity:1.00" />
<ellipse cx="775.000000" cy="107.453606" rx="16.666667" ry="0.375373" fill="rgb(255, 255, 255)" style="fill-opacity:1.00" />
<rect height="0.563059" width="25.000000" x="775.000000" y="107.172076" fill="rgb(255, 255, 255)" style="fill-opacity:1.00" />
<rect height="0.140765" width="25.000000" x="775.000000" y="107.594371" fill="rgb(255, 165, 0)" style="fill-opacity:1.00" />
<rect height="0.422294" width="6.250000" x="793.750000" y="107.594371" fill="rgb(255, 165, 0)" style="fill-opacity:1.00" />
<!-- End 'G' -->
<!-- Begin 'A' -->
<polygon points=" 750.000000, 109.032812, 771.000000, 108.016665, 779.000000, 108.016665, 800.000000, 109.032812, 792.500000, 109.032812, 786.250000, 108.778776, 763.750000, 108.778776, 757.500000, 109.032812" fill="rgb(178, 34, 34)" style="fill-opacity:1.00" />
<!-- End 'A' -->
<!-- Begin 'T' -->
<rect height="0.154750" width="50.000000" x="750.000000" y="109.032812" fill="rgb(0, 100, 0)" style="fill-opacity:1.00" />
<rect height="0.967188" width="10.000000" x="770.000000" y="109.032812" fill="rgb(0, 100, 0)" style="fill-opacity:1.00" />
<!-- End 'T' -->
<!-- Begin 'G' -->
<ellipse cx="835.000000" cy="108.003346" rx="25.000000" ry="0.383866" fill="rgb(255, 165, 0)" style="fill-opacity:1.00" />
<ellipse cx="835.000000" cy="108.003346" rx="16.666667" ry="0.255910" fill="rgb(255, 255, 255)" style="fill-opacity:1.00" />
<rect height="0.383866" width="25.000000" x="835.000000" y="107.811413" fill="rgb(255, 255, 255)" style="fill-opacity:1.00" />
<rect height="0.095966" width="25.000000" x="835.000000" y="108.099312" fill="rgb(255, 165, 0)" style="fill-opacity:1.00" />
<rect height="0.287899" width="6.250000" x="853.750000" y="108.099312" fill="rgb(255, 165, 0)" style="fill-opacity:1.00" />
<!-- End 'G' -->
<!-- Begin 'A' -->
<polygon points=" 810.000000, 109.045785, 831.000000, 108.387211, 839.000000, 108.387211, 860.000000, 109.045785, 852.500000, 109.045785, 846.250000, 108.881141, 823.750000, 108.881141, 817.500000, 109.045785" fill="rgb(178, 34, 34)" style="fill-opacity:1.00" />
<!-- End 'A' -->
<!-- Begin 'C' -->
<ellipse cx="835.000000" cy="109.341083" rx="25.000000" ry="0.295298" fill="rgb(0, 0, 128)" style="fill-opacity:1.00" />
<ellipse cx="835.000000" cy="109.341083" rx="16.666667" ry="0.196865" fill="rgb(255, 255, 255)" style="fill-opacity:1.00" />
<rect height="0.295298" width="25.000000" x="835.000000" y="109.193434" fill="rgb(255, 255, 255)" style="fill-opacity:1.00" />
<!-- End 'C' -->
<!-- Begin 'T' -->
<rect height="0.058179" width="50.000000" x="810.000000" y="109.636381" fill="rgb(0, 100, 0)" style="fill-opacity:1.00" />
<rect height="0.363619" width="10.000000" x="830.000000" y="109.636381" fill="rgb(0, 100, 0)" style="fill-opacity:1.00" />
<!-- End 'T' -->
<text x="460.000000" y="165">
IC = 5.86
</text>

</svg>
