<?xml version="1.0" encoding="UTF-8" standalone="yes"?>
                 <!DOCTYPE svg PUBLIC "-//W3C//DTD SVG 1.0//EN" "http://www.w3.org/TR/2001/REC-SVG-20010904/DTD/svg10.dtd">
                 <svg height="170" width="720" xmlns="http://www.w3.org/2000/svg" xmlns:xlink="http://www.w3.org/1999/xlink">
                 <line x1="85" y1="120" x2="687" y2="120" style="stroke:rgb(99,99,99);stroke-width:2" />
<rect height="7.000000" width="2.000000" x="85.000000" y="120.000000" fill="rgb(0, 0, 0)" style="fill-opacity:1.00" />
<text x="107.000000" y="140">
1
</text>
<rect height="7.000000" width="2.000000" x="145.000000" y="120.000000" fill="rgb(0, 0, 0)" style="fill-opacity:1.00" />
<text x="167.000000" y="140">
2
</text>
<rect height="7.000000" width="2.000000" x="205.000000" y="120.000000" fill="rgb(0, 0, 0)" style="fill-opacity:1.00" />
<text x="227.000000" y="140">
3
</text>
<rect height="7.000000" width="2.000000" x="265.000000" y="120.000000" fill="rgb(0, 0, 0)" style="fill-opacity:1.00" />
<text x="287.000000" y="140">
4
</text>
<rect height="7.000000" width="2.000000" x="325.000000" y="120.000000" fill="rgb(0, 0, 0)" style="fill-opacity:1.00" />
<text x="347.000000" y="140">
5
</text>
<rect height="7.000000" width="2.000000" x="385.000000" y="120.000000" fill="rgb(0, 0, 0)" style="fill-opacity:1.00" />
<text x="407.000000" y="140">
6
</text>
<rect height="7.000000" width="2.000000" x="445.000000" y="120.000000" fill="rgb(0, 0, 0)" style="fill-opacity:1.00" />
<text x="467.000000" y="140">
7
</text>
<rect height="7.000000" width="2.000000" x="505.000000" y="120.000000" fill="rgb(0, 0, 0)" style="fill-opacity:1.00" />
<text x="527.000000" y="140">
8
</text>
<rect height="7.000000" width="2.000000" x="565.000000" y="120.000000" fill="rgb(0, 0, 0)" style="fill-opacity:1.00" />
<text x="587.000000" y="140">
9
</text>
<rect height="7.000000" width="2.000000" x="625.000000" y="120.000000" fill="rgb(0, 0, 0)" style="fill-opacity:1.00" />
<text x="647.000000" y="140">
10
</text>
<rect height="7.000000" width="2.000000" x="685.000000" y="120.000000" fill="rgb(0, 0, 0)" style="fill-opacity:1.00" />
<line x1="80" y1="112" x2="80" y2="10" style="stroke:rgb(99,99,99);stroke-width:2" />
<rect height="2.000000" width="7.000000" x="73.000000" y="110.000000" fill="rgb(0, 0, 0)" style="fill-opacity:1.00" />
<text x="63" y="115">
0
</text>
<rect height="2.000000" width="7.000000" x="73.000000" y="60.000000" fill="rgb(0, 0, 0)" style="fill-opacity:1.00" />
<text x="63" y="65">
1
</text>
<rect height="2.000000" width="7.000000" x="73.000000" y="10.000000" fill="rgb(0, 0, 0)" style="fill-opacity:1.00" />
<text x="63" y="15">
2
</text>
<text x="50" y="65"
transform="rotate(-90, 50, 70)">
bits
</text>
<!-- Begin 'A' -->
<polygon points=" 90.000000, 95.883410, 111.000000, 74.669941, 119.000000, 74.669941, 140.000000, 95.883410, 132.500000, 95.883410, 126.250000, 90.580043, 103.750000, 90.580043, 97.500000, 95.883410" fill="rgb(178, 34, 34)" style="fill-opacity:1.00" />
<polygon points=" 115.000000, 78.912635, 107.000000, 86.398022, 122.000000, 86.398022" fill="rgb(255, 255, 255)" style="fill-opacity:1.00" />
<!-- End 'A' -->
<!-- Begin 'G' -->
<ellipse cx="115.000000" cy="101.458892" rx="25.000000" ry="5.575482" fill="rgb(255, 165, 0)" style="fill-opacity:1.00" />
<ellipse cx="115.000000" cy="101.458892" rx="16.666667" ry="3.716988" fill="rgb(255, 255, 255)" style="fill-opacity:1.00" />
<rect height="5.575482" width="25.000000" x="115.000000" y="98.671151" fill="rgb(255, 255, 255)" style="fill-opacity:1.00" />
<rect height="1.393871" width="25.000000" x="115.000000" y="102.852763" fill="rgb(255, 165, 0)" style="fill-opacity:1.00" />
<rect height="4.181612" width="6.250000" x="133.750000" y="102.852763" fill="rgb(255, 165, 0)" style="fill-opacity:1.00" />
<!-- End 'G' -->
<!-- Begin 'C' -->
<ellipse cx="115.000000" cy="108.433116" rx="25.000000" ry="1.398742" fill="rgb(0, 0, 128)" style="fill-opacity:1.00" />
<ellipse cx="115.000000" cy="108.433116" rx="16.666667" ry="0.932495" fill="rgb(255, 255, 255)" style="fill-opacity:1.00" />
<rect height="1.398742" width="25.000000" x="115.000000" y="107.733745" fill="rgb(255, 255, 255)" style="fill-opacity:1.00" />
<!-- End 'C' -->
<!-- Begin 'T' -->
<rect height="0.026903" width="50.000000" x="90.000000" y="109.831858" fill="rgb(0, 100, 0)" style="fill-opacity:1.00" />
<rect height="0.168142" width="10.000000" x="110.000000" y="109.831858" fill="rgb(0, 100, 0)" style="fill-opacity:1.00" />
<!-- End 'T' -->
<!-- Begin 'T' -->
<rect height="11.555732" width="50.000000" x="150.000000" y="32.589603" fill="rgb(0, 100, 0)" style="fill-opacity:1.00" />
<rect height="72.223326" width="10.000000" x="170.000000" y="32.589603" fill="rgb(0, 100, 0)" style="fill-opacity:1.00" />
<!-- End 'T' -->
<!-- Begin 'A' -->
<polygon points=" 150.000000, 107.324678, 171.000000, 104.812929, 179.000000, 104.812929, 200.000000, 107.324678, 192.500000, 107.324678, 186.250000, 106.696741, 163.750000, 106.696741, 157.500000, 107.324678" fill="rgb(178, 34, 34)" style="fill-opacity:1.00" />
<!-- End 'A' -->
<!-- Begin 'C' -->
<ellipse cx="175.000000" cy="108.269754" rx="25.000000" ry="0.945076" fill="rgb(0, 0, 128)" style="fill-opacity:1.00" />
<ellipse cx="175.000000" cy="108.269754" rx="16.666667" ry="0.630051" fill="rgb(255, 255, 255)" style="fill-opacity:1.00" />
<rect height="0.945076" width="25.000000" x="175.000000" y="107.797216" fill="rgb(255, 255, 255)" style="fill-opacity:1.00" />
<!-- End 'C' -->
<!-- Begin 'G' -->
<ellipse cx="175.000000" cy="109.607415" rx="25.000000" ry="0.392585" fill="rgb(255, 165, 0)" style="fill-opacity:1.00" />
<ellipse cx="175.000000" cy="109.607415" rx="16.666667" ry="0.261723" fill="rgb(255, 255, 255)" style="fill-opacity:1.00" />
<rect height="0.392585" width="25.000000" x="175.000000" y="109.411123" fill="rgb(255, 255, 255)" style="fill-opacity:1.00" />
<rect height="0.098146" width="25.000000" x="175.000000" y="109.705561" fill="rgb(255, 165, 0)" style="fill-opacity:1.00" />
<rect height="0.294439" width="6.250000" x="193.750000" y="109.705561" fill="rgb(255, 165, 0)" style="fill-opacity:1.00" />
<!-- End 'G' -->
<!-- Begin 'C' -->
<ellipse cx="235.000000" cy="67.356560" rx="25.000000" ry="36.708861" fill="rgb(0, 0, 128)" style="fill-opacity:1.00" />
<ellipse cx="235.000000" cy="67.356560" rx="16.666667" ry="24.472574" fill="rgb(255, 255, 255)" style="fill-opacity:1.00" />
<rect height="36.708861" width="25.000000" x="235.000000" y="49.002129" fill="rgb(255, 255, 255)" style="fill-opacity:1.00" />
<!-- End 'C' -->
<!-- Begin 'G' -->
<ellipse cx="235.000000" cy="106.849407" rx="25.000000" ry="2.783986" fill="rgb(255, 165, 0)" style="fill-opacity:1.00" />
<ellipse cx="235.000000" cy="106.849407" rx="16.666667" ry="1.855991" fill="rgb(255, 255, 255)" style="fill-opacity:1.00" />
<rect height="2.783986" width="25.000000" x="235.000000" y="105.457414" fill="rgb(255, 255, 255)" style="fill-opacity:1.00" />
<rect height="0.695996" width="25.000000" x="235.000000" y="107.545403" fill="rgb(255, 165, 0)" style="fill-opacity:1.00" />
<rect height="2.087989" width="6.250000" x="253.750000" y="107.545403" fill="rgb(255, 165, 0)" style="fill-opacity:1.00" />
<!-- End 'G' -->
<!-- Begin 'A' -->
<polygon points=" 210.000000, 109.863591, 231.000000, 109.633392, 239.000000, 109.633392, 260.000000, 109.863591, 252.500000, 109.863591, 246.250000, 109.806041, 223.750000, 109.806041, 217.500000, 109.863591" fill="rgb(178, 34, 34)" style="fill-opacity:1.00" />
<!-- End 'A' -->
<!-- Begin 'T' -->
<rect height="0.021825" width="50.000000" x="210.000000" y="109.863591" fill="rgb(0, 100, 0)" style="fill-opacity:1.00" />
<rect height="0.136409" width="10.000000" x="230.000000" y="109.863591" fill="rgb(0, 100, 0)" style="fill-opacity:1.00" />
<!-- End 'T' -->
<!-- Begin 'A' -->
<polygon points=" 270.000000, 103.490226, 291.000000, 34.558050, 299.000000, 34.558050, 320.000000, 103.490226, 312.500000, 103.490226, 306.250000, 86.257182, 283.750000, 86.257182, 277.500000, 103.490226" fill="rgb(178, 34, 34)" style="fill-opacity:1.00" />
<polygon points=" 295.000000, 48.344485, 287.000000, 74.917356, 302.000000, 74.917356" fill="rgb(255, 255, 255)" style="fill-opacity:1.00" />
<!-- End 'A' -->
<!-- Begin 'G' -->
<ellipse cx="295.000000" cy="106.054126" rx="25.000000" ry="2.563900" fill="rgb(255, 165, 0)" style="fill-opacity:1.00" />
<ellipse cx="295.000000" cy="106.054126" rx="16.666667" ry="1.709267" fill="rgb(255, 255, 255)" style="fill-opacity:1.00" />
<rect height="2.563900" width="25.000000" x="295.000000" y="104.772176" fill="rgb(255, 255, 255)" style="fill-opacity:1.00" />
<rect height="0.640975" width="25.000000" x="295.000000" y="106.695101" fill="rgb(255, 165, 0)" style="fill-opacity:1.00" />
<rect height="1.922925" width="6.250000" x="313.750000" y="106.695101" fill="rgb(255, 165, 0)" style="fill-opacity:1.00" />
<!-- End 'G' -->
<!-- Begin 'T' -->
<rect height="0.216139" width="50.000000" x="270.000000" y="108.618025" fill="rgb(0, 100, 0)" style="fill-opacity:1.00" />
<rect height="1.350868" width="10.000000" x="290.000000" y="108.618025" fill="rgb(0, 100, 0)" style="fill-opacity:1.00" />
<!-- End 'T' -->
<!-- Begin 'C' -->
<ellipse cx="295.000000" cy="109.984447" rx="25.000000" ry="0.015553" fill="rgb(0, 0, 128)" style="fill-opacity:1.00" />
<ellipse cx="295.000000" cy="109.984447" rx="16.666667" ry="0.010369" fill="rgb(255, 255, 255)" style="fill-opacity:1.00" />
<rect height="0.015553" width="25.000000" x="295.000000" y="109.976670" fill="rgb(255, 255, 255)" style="fill-opacity:1.00" />
<!-- End 'C' -->
<!-- Begin 'C' -->
<ellipse cx="355.000000" cy="80.028592" rx="25.000000" ry="12.440819" fill="rgb(0, 0, 128)" style="fill-opacity:1.00" />
<ellipse cx="355.000000" cy="80.028592" rx="16.666667" ry="8.293879" fill="rgb(255, 255, 255)" style="fill-opacity:1.00" />
<rect height="12.440819" width="25.000000" x="355.000000" y="73.808183" fill="rgb(255, 255, 255)" style="fill-opacity:1.00" />
<!-- End 'C' -->
<!-- Begin 'G' -->
<ellipse cx="355.000000" cy="100.521202" rx="25.000000" ry="8.051791" fill="rgb(255, 165, 0)" style="fill-opacity:1.00" />
<ellipse cx="355.000000" cy="100.521202" rx="16.666667" ry="5.367861" fill="rgb(255, 255, 255)" style="fill-opacity:1.00" />
<rect height="8.051791" width="25.000000" x="355.000000" y="96.495307" fill="rgb(255, 255, 255)" style="fill-opacity:1.00" />
<rect height="2.012948" width="25.000000" x="355.000000" y="102.534150" fill="rgb(255, 165, 0)" style="fill-opacity:1.00" />
<rect height="6.038843" width="6.250000" x="373.750000" y="102.534150" fill="rgb(255, 165, 0)" style="fill-opacity:1.00" />
<!-- End 'G' -->
<!-- Begin 'T' -->
<rect height="0.223130" width="50.000000" x="330.000000" y="108.572993" fill="rgb(0, 100, 0)" style="fill-opacity:1.00" />
<rect height="1.394562" width="10.000000" x="350.000000" y="108.572993" fill="rgb(0, 100, 0)" style="fill-opacity:1.00" />
<!-- End 'T' -->
<!-- Begin 'A' -->
<polygon points=" 330.000000, 110.000000, 351.000000, 109.967555, 359.000000, 109.967555, 380.000000, 110.000000, 372.500000, 110.000000, 366.250000, 109.991889, 343.750000, 109.991889, 337.500000, 110.000000" fill="rgb(178, 34, 34)" style="fill-opacity:1.00" />
<!-- End 'A' -->
<!-- Begin 'G' -->
<ellipse cx="415.000000" cy="80.445293" rx="25.000000" ry="12.081822" fill="rgb(255, 165, 0)" style="fill-opacity:1.00" />
<ellipse cx="415.000000" cy="80.445293" rx="16.666667" ry="8.054548" fill="rgb(255, 255, 255)" style="fill-opacity:1.00" />
<rect height="12.081822" width="25.000000" x="415.000000" y="74.404382" fill="rgb(255, 255, 255)" style="fill-opacity:1.00" />
<rect height="3.020455" width="25.000000" x="415.000000" y="83.465749" fill="rgb(255, 165, 0)" style="fill-opacity:1.00" />
<rect height="9.061366" width="6.250000" x="433.750000" y="83.465749" fill="rgb(255, 165, 0)" style="fill-opacity:1.00" />
<!-- End 'G' -->
<!-- Begin 'C' -->
<ellipse cx="415.000000" cy="100.502056" rx="25.000000" ry="7.974941" fill="rgb(0, 0, 128)" style="fill-opacity:1.00" />
<ellipse cx="415.000000" cy="100.502056" rx="16.666667" ry="5.316627" fill="rgb(255, 255, 255)" style="fill-opacity:1.00" />
<rect height="7.974941" width="25.000000" x="415.000000" y="96.514586" fill="rgb(255, 255, 255)" style="fill-opacity:1.00" />
<!-- End 'C' -->
<!-- Begin 'A' -->
<polygon points=" 390.000000, 109.956748, 411.000000, 108.476997, 419.000000, 108.476997, 440.000000, 109.956748, 432.500000, 109.956748, 426.250000, 109.586810, 403.750000, 109.586810, 397.500000, 109.956748" fill="rgb(178, 34, 34)" style="fill-opacity:1.00" />
<!-- End 'A' -->
<!-- Begin 'T' -->
<rect height="0.006920" width="50.000000" x="390.000000" y="109.956748" fill="rgb(0, 100, 0)" style="fill-opacity:1.00" />
<rect height="0.043252" width="10.000000" x="410.000000" y="109.956748" fill="rgb(0, 100, 0)" style="fill-opacity:1.00" />
<!-- End 'T' -->
<!-- Begin 'T' -->
<rect height="10.803702" width="50.000000" x="450.000000" y="35.653090" fill="rgb(0, 100, 0)" style="fill-opacity:1.00" />
<rect height="67.523136" width="10.000000" x="470.000000" y="35.653090" fill="rgb(0, 100, 0)" style="fill-opacity:1.00" />
<!-- End 'T' -->
<!-- Begin 'C' -->
<ellipse cx="475.000000" cy="105.940191" rx="25.000000" ry="2.763965" fill="rgb(0, 0, 128)" style="fill-opacity:1.00" />
<ellipse cx="475.000000" cy="105.940191" rx="16.666667" ry="1.842643" fill="rgb(255, 255, 255)" style="fill-opacity:1.00" />
<rect height="2.763965" width="25.000000" x="475.000000" y="104.558208" fill="rgb(255, 255, 255)" style="fill-opacity:1.00" />
<!-- End 'C' -->
<!-- Begin 'A' -->
<polygon points=" 450.000000, 109.910747, 471.000000, 108.704155, 479.000000, 108.704155, 500.000000, 109.910747, 492.500000, 109.910747, 486.250000, 109.609099, 463.750000, 109.609099, 457.500000, 109.910747" fill="rgb(178, 34, 34)" style="fill-opacity:1.00" />
<!-- End 'A' -->
<!-- Begin 'G' -->
<ellipse cx="475.000000" cy="109.955373" rx="25.000000" ry="0.044627" fill="rgb(255, 165, 0)" style="fill-opacity:1.00" />
<ellipse cx="475.000000" cy="109.955373" rx="16.666667" ry="0.029751" fill="rgb(255, 255, 255)" style="fill-opacity:1.00" />
<rect height="0.044627" width="25.000000" x="475.000000" y="109.933060" fill="rgb(255, 255, 255)" style="fill-opacity:1.00" />
<rect height="0.011157" width="25.000000" x="475.000000" y="109.966530" fill="rgb(255, 165, 0)" style="fill-opacity:1.00" />
<rect height="0.033470" width="6.250000" x="493.750000" y="109.966530" fill="rgb(255, 165, 0)" style="fill-opacity:1.00" />
<!-- End 'G' -->
<!-- Begin 'G' -->
<ellipse cx="535.000000" cy="68.270363" rx="25.000000" ry="34.801253" fill="rgb(255, 165, 0)" style="fill-opacity:1.00" />
<ellipse cx="535.000000" cy="68.270363" rx="16.666667" ry="23.200835" fill="rgb(255, 255, 255)" style="fill-opacity:1.00" />
<rect height="34.801253" width="25.000000" x="535.000000" y="50.869737" fill="rgb(255, 255, 255)" style="fill-opacity:1.00" />
<rect height="8.700313" width="25.000000" x="535.000000" y="76.970676" fill="rgb(255, 165, 0)" style="fill-opacity:1.00" />
<rect height="26.100940" width="6.250000" x="553.750000" y="76.970676" fill="rgb(255, 165, 0)" style="fill-opacity:1.00" />
<!-- End 'G' -->
<!-- Begin 'C' -->
<ellipse cx="535.000000" cy="106.342851" rx="25.000000" ry="3.271236" fill="rgb(0, 0, 128)" style="fill-opacity:1.00" />
<ellipse cx="535.000000" cy="106.342851" rx="16.666667" ry="2.180824" fill="rgb(255, 255, 255)" style="fill-opacity:1.00" />
<rect height="3.271236" width="25.000000" x="535.000000" y="104.707234" fill="rgb(255, 255, 255)" style="fill-opacity:1.00" />
<!-- End 'C' -->
<!-- Begin 'T' -->
<rect height="0.052523" width="50.000000" x="510.000000" y="109.614087" fill="rgb(0, 100, 0)" style="fill-opacity:1.00" />
<rect height="0.328268" width="10.000000" x="530.000000" y="109.614087" fill="rgb(0, 100, 0)" style="fill-opacity:1.00" />
<!-- End 'T' -->
<!-- Begin 'A' -->
<polygon points=" 510.000000, 110.000000, 531.000000, 109.942355, 539.000000, 109.942355, 560.000000, 110.000000, 552.500000, 110.000000, 546.250000, 109.985589, 523.750000, 109.985589, 517.500000, 110.000000" fill="rgb(178, 34, 34)" style="fill-opacity:1.00" />
<!-- End 'A' -->
<!-- Begin 'A' -->
<polygon points=" 570.000000, 106.202296, 591.000000, 26.432655, 599.000000, 26.432655, 620.000000, 106.202296, 612.500000, 106.202296, 606.250000, 86.259885, 583.750000, 86.259885, 577.500000, 106.202296" fill="rgb(178, 34, 34)" style="fill-opacity:1.00" />
<polygon points=" 595.000000, 42.386583, 587.000000, 73.294439, 602.000000, 73.294439" fill="rgb(255, 255, 255)" style="fill-opacity:1.00" />
<!-- End 'A' -->
<!-- Begin 'T' -->
<rect height="0.328442" width="50.000000" x="570.000000" y="106.202296" fill="rgb(0, 100, 0)" style="fill-opacity:1.00" />
<rect height="2.052760" width="10.000000" x="590.000000" y="106.202296" fill="rgb(0, 100, 0)" style="fill-opacity:1.00" />
<!-- End 'T' -->
<!-- Begin 'G' -->
<ellipse cx="595.000000" cy="108.915591" rx="25.000000" ry="0.660536" fill="rgb(255, 165, 0)" style="fill-opacity:1.00" />
<ellipse cx="595.000000" cy="108.915591" rx="16.666667" ry="0.440357" fill="rgb(255, 255, 255)" style="fill-opacity:1.00" />
<rect height="0.660536" width="25.000000" x="595.000000" y="108.585324" fill="rgb(255, 255, 255)" style="fill-opacity:1.00" />
<rect height="0.165134" width="25.000000" x="595.000000" y="109.080725" fill="rgb(255, 165, 0)" style="fill-opacity:1.00" />
<rect height="0.495402" width="6.250000" x="613.750000" y="109.080725" fill="rgb(255, 165, 0)" style="fill-opacity:1.00" />
<!-- End 'G' -->
<!-- Begin 'C' -->
<ellipse cx="595.000000" cy="109.788063" rx="25.000000" ry="0.211937" fill="rgb(0, 0, 128)" style="fill-opacity:1.00" />
<ellipse cx="595.000000" cy="109.788063" rx="16.666667" ry="0.141291" fill="rgb(255, 255, 255)" style="fill-opacity:1.00" />
<rect height="0.211937" width="25.000000" x="595.000000" y="109.682095" fill="rgb(255, 255, 255)" style="fill-opacity:1.00" />
<!-- End 'C' -->
<!-- Begin 'T' -->
<rect height="3.525260" width="50.000000" x="630.000000" y="73.794181" fill="rgb(0, 100, 0)" style="fill-opacity:1.00" />
<rect height="22.032876" width="10.000000" x="650.000000" y="73.794181" fill="rgb(0, 100, 0)" style="fill-opacity:1.00" />
<!-- End 'T' -->
<!-- Begin 'C' -->
<ellipse cx="655.000000" cy="101.452213" rx="25.000000" ry="5.625156" fill="rgb(0, 0, 128)" style="fill-opacity:1.00" />
<ellipse cx="655.000000" cy="101.452213" rx="16.666667" ry="3.750104" fill="rgb(255, 255, 255)" style="fill-opacity:1.00" />
<rect height="5.625156" width="25.000000" x="655.000000" y="98.639635" fill="rgb(255, 255, 255)" style="fill-opacity:1.00" />
<!-- End 'C' -->
<!-- Begin 'G' -->
<ellipse cx="655.000000" cy="108.467169" rx="25.000000" ry="1.389800" fill="rgb(255, 165, 0)" style="fill-opacity:1.00" />
<ellipse cx="655.000000" cy="108.467169" rx="16.666667" ry="0.926533" fill="rgb(255, 255, 255)" style="fill-opacity:1.00" />
<rect height="1.389800" width="25.000000" x="655.000000" y="107.772269" fill="rgb(255, 255, 255)" style="fill-opacity:1.00" />
<rect height="0.347450" width="25.000000" x="655.000000" y="108.814619" fill="rgb(255, 165, 0)" style="fill-opacity:1.00" />
<rect height="1.042350" width="6.250000" x="673.750000" y="108.814619" fill="rgb(255, 165, 0)" style="fill-opacity:1.00" />
<!-- End 'G' -->
<!-- Begin 'A' -->
<polygon points=" 630.000000, 110.000000, 651.000000, 109.856969, 659.000000, 109.856969, 680.000000, 110.000000, 672.500000, 110.000000, 666.250000, 109.964242, 643.750000, 109.964242, 637.500000, 110.000000" fill="rgb(178, 34, 34)" style="fill-opacity:1.00" />
<!-- End 'A' -->
<text x="370.000000" y="165">
IC = 12.44
</text>

</svg>
