<?xml version="1.0" encoding="UTF-8" standalone="yes"?>
                 <!DOCTYPE svg PUBLIC "-//W3C//DTD SVG 1.0//EN" "http://www.w3.org/TR/2001/REC-SVG-20010904/DTD/svg10.dtd">
                 <svg height="170" width="720" xmlns="http://www.w3.org/2000/svg" xmlns:xlink="http://www.w3.org/1999/xlink">
                 <line x1="85" y1="120" x2="687" y2="120" style="stroke:rgb(99,99,99);stroke-width:2" />
<rect height="7.000000" width="2.000000" x="85.000000" y="120.000000" fill="rgb(0, 0, 0)" style="fill-opacity:1.00" />
<text x="107.000000" y="140">
1
</text>
<rect height="7.000000" width="2.000000" x="145.000000" y="120.000000" fill="rgb(0, 0, 0)" style="fill-opacity:1.00" />
<text x="167.000000" y="140">
2
</text>
<rect height="7.000000" width="2.000000" x="205.000000" y="120.000000" fill="rgb(0, 0, 0)" style="fill-opacity:1.00" />
<text x="227.000000" y="140">
3
</text>
<rect height="7.000000" width="2.000000" x="265.000000" y="120.000000" fill="rgb(0, 0, 0)" style="fill-opacity:1.00" />
<text x="287.000000" y="140">
4
</text>
<rect height="7.000000" width="2.000000" x="325.000000" y="120.000000" fill="rgb(0, 0, 0)" style="fill-opacity:1.00" />
<text x="347.000000" y="140">
5
</text>
<rect height="7.000000" width="2.000000" x="385.000000" y="120.000000" fill="rgb(0, 0, 0)" style="fill-opacity:1.00" />
<text x="407.000000" y="140">
6
</text>
<rect height="7.000000" width="2.000000" x="445.000000" y="120.000000" fill="rgb(0, 0, 0)" style="fill-opacity:1.00" />
<text x="467.000000" y="140">
7
</text>
<rect height="7.000000" width="2.000000" x="505.000000" y="120.000000" fill="rgb(0, 0, 0)" style="fill-opacity:1.00" />
<text x="527.000000" y="140">
8
</text>
<rect height="7.000000" width="2.000000" x="565.000000" y="120.000000" fill="rgb(0, 0, 0)" style="fill-opacity:1.00" />
<text x="587.000000" y="140">
9
</text>
<rect height="7.000000" width="2.000000" x="625.000000" y="120.000000" fill="rgb(0, 0, 0)" style="fill-opacity:1.00" />
<text x="647.000000" y="140">
10
</text>
<rect height="7.000000" width="2.000000" x="685.000000" y="120.000000" fill="rgb(0, 0, 0)" style="fill-opacity:1.00" />
<line x1="80" y1="112" x2="80" y2="10" style="stroke:rgb(99,99,99);stroke-width:2" />
<rect height="2.000000" width="7.000000" x="73.000000" y="110.000000" fill="rgb(0, 0, 0)" style="fill-opacity:1.00" />
<text x="63" y="115">
0
</text>
<rect height="2.000000" width="7.000000" x="73.000000" y="60.000000" fill="rgb(0, 0, 0)" style="fill-opacity:1.00" />
<text x="63" y="65">
1
</text>
<rect height="2.000000" width="7.000000" x="73.000000" y="10.000000" fill="rgb(0, 0, 0)" style="fill-opacity:1.00" />
<text x="63" y="15">
2
</text>
<text x="50" y="65"
transform="rotate(-90, 50, 70)">
bits
</text>
<!-- Begin 'A' -->
<polygon points=" 90.000000, 95.981857, 111.000000, 76.560036, 119.000000, 76.560036, 140.000000, 95.981857, 132.500000, 95.981857, 126.250000, 91.126402, 103.750000, 91.126402, 97.500000, 95.981857" fill="rgb(178, 34, 34)" style="fill-opacity:1.00" />
<polygon points=" 115.000000, 80.444400, 107.000000, 87.213129, 122.000000, 87.213129" fill="rgb(255, 255, 255)" style="fill-opacity:1.00" />
<!-- End 'A' -->
<!-- Begin 'G' -->
<ellipse cx="115.000000" cy="101.440907" rx="25.000000" ry="5.459050" fill="rgb(255, 165, 0)" style="fill-opacity:1.00" />
<ellipse cx="115.000000" cy="101.440907" rx="16.666667" ry="3.639367" fill="rgb(255, 255, 255)" style="fill-opacity:1.00" />
<rect height="5.459050" width="25.000000" x="115.000000" y="98.711382" fill="rgb(255, 255, 255)" style="fill-opacity:1.00" />
<rect height="1.364763" width="25.000000" x="115.000000" y="102.805670" fill="rgb(255, 165, 0)" style="fill-opacity:1.00" />
<rect height="4.094288" width="6.250000" x="133.750000" y="102.805670" fill="rgb(255, 165, 0)" style="fill-opacity:1.00" />
<!-- End 'G' -->
<!-- Begin 'C' -->
<ellipse cx="115.000000" cy="108.356027" rx="25.000000" ry="1.456070" fill="rgb(0, 0, 128)" style="fill-opacity:1.00" />
<ellipse cx="115.000000" cy="108.356027" rx="16.666667" ry="0.970713" fill="rgb(255, 255, 255)" style="fill-opacity:1.00" />
<rect height="1.456070" width="25.000000" x="115.000000" y="107.627992" fill="rgb(255, 255, 255)" style="fill-opacity:1.00" />
<!-- End 'C' -->
<!-- Begin 'T' -->
<rect height="0.030064" width="50.000000" x="90.000000" y="109.812097" fill="rgb(0, 100, 0)" style="fill-opacity:1.00" />
<rect height="0.187903" width="10.000000" x="110.000000" y="109.812097" fill="rgb(0, 100, 0)" style="fill-opacity:1.00" />
<!-- End 'T' -->
<!-- Begin 'T' -->
<rect height="11.551357" width="50.000000" x="150.000000" y="32.616027" fill="rgb(0, 100, 0)" style="fill-opacity:1.00" />
<rect height="72.195984" width="10.000000" x="170.000000" y="32.616027" fill="rgb(0, 100, 0)" style="fill-opacity:1.00" />
<!-- End 'T' -->
<!-- Begin 'A' -->
<polygon points=" 150.000000, 107.266865, 171.000000, 104.812011, 179.000000, 104.812011, 200.000000, 107.266865, 192.500000, 107.266865, 186.250000, 106.653152, 163.750000, 106.653152, 157.500000, 107.266865" fill="rgb(178, 34, 34)" style="fill-opacity:1.00" />
<!-- End 'A' -->
<!-- Begin 'C' -->
<ellipse cx="175.000000" cy="108.238687" rx="25.000000" ry="0.971822" fill="rgb(0, 0, 128)" style="fill-opacity:1.00" />
<ellipse cx="175.000000" cy="108.238687" rx="16.666667" ry="0.647882" fill="rgb(255, 255, 255)" style="fill-opacity:1.00" />
<rect height="0.971822" width="25.000000" x="175.000000" y="107.752776" fill="rgb(255, 255, 255)" style="fill-opacity:1.00" />
<!-- End 'C' -->
<!-- Begin 'G' -->
<ellipse cx="175.000000" cy="109.605255" rx="25.000000" ry="0.394745" fill="rgb(255, 165, 0)" style="fill-opacity:1.00" />
<ellipse cx="175.000000" cy="109.605255" rx="16.666667" ry="0.263163" fill="rgb(255, 255, 255)" style="fill-opacity:1.00" />
<rect height="0.394745" width="25.000000" x="175.000000" y="109.407882" fill="rgb(255, 255, 255)" style="fill-opacity:1.00" />
<rect height="0.098686" width="25.000000" x="175.000000" y="109.703941" fill="rgb(255, 165, 0)" style="fill-opacity:1.00" />
<rect height="0.296059" width="6.250000" x="193.750000" y="109.703941" fill="rgb(255, 165, 0)" style="fill-opacity:1.00" />
<!-- End 'G' -->
<!-- Begin 'C' -->
<ellipse cx="235.000000" cy="67.280177" rx="25.000000" ry="36.886835" fill="rgb(0, 0, 128)" style="fill-opacity:1.00" />
<ellipse cx="235.000000" cy="67.280177" rx="16.666667" ry="24.591223" fill="rgb(255, 255, 255)" style="fill-opacity:1.00" />
<rect height="36.886835" width="25.000000" x="235.000000" y="48.836759" fill="rgb(255, 255, 255)" style="fill-opacity:1.00" />
<!-- End 'C' -->
<!-- Begin 'G' -->
<ellipse cx="235.000000" cy="106.895549" rx="25.000000" ry="2.728537" fill="rgb(255, 165, 0)" style="fill-opacity:1.00" />
<ellipse cx="235.000000" cy="106.895549" rx="16.666667" ry="1.819025" fill="rgb(255, 255, 255)" style="fill-opacity:1.00" />
<rect height="2.728537" width="25.000000" x="235.000000" y="105.531281" fill="rgb(255, 255, 255)" style="fill-opacity:1.00" />
<rect height="0.682134" width="25.000000" x="235.000000" y="107.577683" fill="rgb(255, 165, 0)" style="fill-opacity:1.00" />
<rect height="2.046403" width="6.250000" x="253.750000" y="107.577683" fill="rgb(255, 165, 0)" style="fill-opacity:1.00" />
<!-- End 'G' -->
<!-- Begin 'A' -->
<polygon points=" 210.000000, 109.850363, 231.000000, 109.624086, 239.000000, 109.624086, 260.000000, 109.850363, 252.500000, 109.850363, 246.250000, 109.793794, 223.750000, 109.793794, 217.500000, 109.850363" fill="rgb(178, 34, 34)" style="fill-opacity:1.00" />
<!-- End 'A' -->
<!-- Begin 'T' -->
<rect height="0.023942" width="50.000000" x="210.000000" y="109.850363" fill="rgb(0, 100, 0)" style="fill-opacity:1.00" />
<rect height="0.149637" width="10.000000" x="230.000000" y="109.850363" fill="rgb(0, 100, 0)" style="fill-opacity:1.00" />
<!-- End 'T' -->
<!-- Begin 'A' -->
<polygon points=" 270.000000, 103.527902, 291.000000, 34.617934, 299.000000, 34.617934, 320.000000, 103.527902, 312.500000, 103.527902, 306.250000, 86.300410, 283.750000, 86.300410, 277.500000, 103.527902" fill="rgb(178, 34, 34)" style="fill-opacity:1.00" />
<polygon points=" 295.000000, 48.399927, 287.000000, 74.963915, 302.000000, 74.963915" fill="rgb(255, 255, 255)" style="fill-opacity:1.00" />
<!-- End 'A' -->
<!-- Begin 'G' -->
<ellipse cx="295.000000" cy="106.020396" rx="25.000000" ry="2.492494" fill="rgb(255, 165, 0)" style="fill-opacity:1.00" />
<ellipse cx="295.000000" cy="106.020396" rx="16.666667" ry="1.661663" fill="rgb(255, 255, 255)" style="fill-opacity:1.00" />
<rect height="2.492494" width="25.000000" x="295.000000" y="104.774149" fill="rgb(255, 255, 255)" style="fill-opacity:1.00" />
<rect height="0.623124" width="25.000000" x="295.000000" y="106.643520" fill="rgb(255, 165, 0)" style="fill-opacity:1.00" />
<rect height="1.869371" width="6.250000" x="313.750000" y="106.643520" fill="rgb(255, 165, 0)" style="fill-opacity:1.00" />
<!-- End 'G' -->
<!-- Begin 'T' -->
<rect height="0.232488" width="50.000000" x="270.000000" y="108.512890" fill="rgb(0, 100, 0)" style="fill-opacity:1.00" />
<rect height="1.453047" width="10.000000" x="290.000000" y="108.512890" fill="rgb(0, 100, 0)" style="fill-opacity:1.00" />
<!-- End 'T' -->
<!-- Begin 'C' -->
<ellipse cx="295.000000" cy="109.982969" rx="25.000000" ry="0.017031" fill="rgb(0, 0, 128)" style="fill-opacity:1.00" />
<ellipse cx="295.000000" cy="109.982969" rx="16.666667" ry="0.011354" fill="rgb(255, 255, 255)" style="fill-opacity:1.00" />
<rect height="0.017031" width="25.000000" x="295.000000" y="109.974453" fill="rgb(255, 255, 255)" style="fill-opacity:1.00" />
<!-- End 'C' -->
<!-- Begin 'C' -->
<ellipse cx="355.000000" cy="79.979004" rx="25.000000" ry="12.445153" fill="rgb(0, 0, 128)" style="fill-opacity:1.00" />
<ellipse cx="355.000000" cy="79.979004" rx="16.666667" ry="8.296769" fill="rgb(255, 255, 255)" style="fill-opacity:1.00" />
<rect height="12.445153" width="25.000000" x="355.000000" y="73.756428" fill="rgb(255, 255, 255)" style="fill-opacity:1.00" />
<!-- End 'C' -->
<!-- Begin 'G' -->
<ellipse cx="355.000000" cy="100.509944" rx="25.000000" ry="8.085787" fill="rgb(255, 165, 0)" style="fill-opacity:1.00" />
<ellipse cx="355.000000" cy="100.509944" rx="16.666667" ry="5.390524" fill="rgb(255, 255, 255)" style="fill-opacity:1.00" />
<rect height="8.085787" width="25.000000" x="355.000000" y="96.467050" fill="rgb(255, 255, 255)" style="fill-opacity:1.00" />
<rect height="2.021447" width="25.000000" x="355.000000" y="102.531390" fill="rgb(255, 165, 0)" style="fill-opacity:1.00" />
<rect height="6.064340" width="6.250000" x="373.750000" y="102.531390" fill="rgb(255, 165, 0)" style="fill-opacity:1.00" />
<!-- End 'G' -->
<!-- Begin 'T' -->
<rect height="0.218673" width="50.000000" x="330.000000" y="108.595730" fill="rgb(0, 100, 0)" style="fill-opacity:1.00" />
<rect height="1.366705" width="10.000000" x="350.000000" y="108.595730" fill="rgb(0, 100, 0)" style="fill-opacity:1.00" />
<!-- End 'T' -->
<!-- Begin 'A' -->
<polygon points=" 330.000000, 110.000000, 351.000000, 109.962435, 359.000000, 109.962435, 380.000000, 110.000000, 372.500000, 110.000000, 366.250000, 109.990609, 343.750000, 109.990609, 337.500000, 110.000000" fill="rgb(178, 34, 34)" style="fill-opacity:1.00" />
<!-- End 'A' -->
<!-- Begin 'G' -->
<ellipse cx="415.000000" cy="80.290923" rx="25.000000" ry="12.176041" fill="rgb(255, 165, 0)" style="fill-opacity:1.00" />
<ellipse cx="415.000000" cy="80.290923" rx="16.666667" ry="8.117361" fill="rgb(255, 255, 255)" style="fill-opacity:1.00" />
<rect height="12.176041" width="25.000000" x="415.000000" y="74.202903" fill="rgb(255, 255, 255)" style="fill-opacity:1.00" />
<rect height="3.044010" width="25.000000" x="415.000000" y="83.334933" fill="rgb(255, 165, 0)" style="fill-opacity:1.00" />
<rect height="9.132031" width="6.250000" x="433.750000" y="83.334933" fill="rgb(255, 165, 0)" style="fill-opacity:1.00" />
<!-- End 'G' -->
<!-- Begin 'C' -->
<ellipse cx="415.000000" cy="100.491358" rx="25.000000" ry="8.024394" fill="rgb(0, 0, 128)" style="fill-opacity:1.00" />
<ellipse cx="415.000000" cy="100.491358" rx="16.666667" ry="5.349596" fill="rgb(255, 255, 255)" style="fill-opacity:1.00" />
<rect height="8.024394" width="25.000000" x="415.000000" y="96.479161" fill="rgb(255, 255, 255)" style="fill-opacity:1.00" />
<!-- End 'C' -->
<!-- Begin 'A' -->
<polygon points=" 390.000000, 109.959714, 411.000000, 108.515753, 419.000000, 108.515753, 440.000000, 109.959714, 432.500000, 109.959714, 426.250000, 109.598724, 403.750000, 109.598724, 397.500000, 109.959714" fill="rgb(178, 34, 34)" style="fill-opacity:1.00" />
<!-- End 'A' -->
<!-- Begin 'T' -->
<rect height="0.006446" width="50.000000" x="390.000000" y="109.959714" fill="rgb(0, 100, 0)" style="fill-opacity:1.00" />
<rect height="0.040286" width="10.000000" x="410.000000" y="109.959714" fill="rgb(0, 100, 0)" style="fill-opacity:1.00" />
<!-- End 'T' -->
<!-- Begin 'T' -->
<rect height="10.888423" width="50.000000" x="450.000000" y="35.233086" fill="rgb(0, 100, 0)" style="fill-opacity:1.00" />
<rect height="68.052647" width="10.000000" x="470.000000" y="35.233086" fill="rgb(0, 100, 0)" style="fill-opacity:1.00" />
<!-- End 'T' -->
<!-- Begin 'C' -->
<ellipse cx="475.000000" cy="106.018694" rx="25.000000" ry="2.732961" fill="rgb(0, 0, 128)" style="fill-opacity:1.00" />
<ellipse cx="475.000000" cy="106.018694" rx="16.666667" ry="1.821974" fill="rgb(255, 255, 255)" style="fill-opacity:1.00" />
<rect height="2.732961" width="25.000000" x="475.000000" y="104.652213" fill="rgb(255, 255, 255)" style="fill-opacity:1.00" />
<!-- End 'C' -->
<!-- Begin 'A' -->
<polygon points=" 450.000000, 109.901935, 471.000000, 108.751655, 479.000000, 108.751655, 500.000000, 109.901935, 492.500000, 109.901935, 486.250000, 109.614365, 463.750000, 109.614365, 457.500000, 109.901935" fill="rgb(178, 34, 34)" style="fill-opacity:1.00" />
<!-- End 'A' -->
<!-- Begin 'G' -->
<ellipse cx="475.000000" cy="109.950968" rx="25.000000" ry="0.049032" fill="rgb(255, 165, 0)" style="fill-opacity:1.00" />
<ellipse cx="475.000000" cy="109.950968" rx="16.666667" ry="0.032688" fill="rgb(255, 255, 255)" style="fill-opacity:1.00" />
<rect height="0.049032" width="25.000000" x="475.000000" y="109.926451" fill="rgb(255, 255, 255)" style="fill-opacity:1.00" />
<rect height="0.012258" width="25.000000" x="475.000000" y="109.963226" fill="rgb(255, 165, 0)" style="fill-opacity:1.00" />
<rect height="0.036774" width="6.250000" x="493.750000" y="109.963226" fill="rgb(255, 165, 0)" style="fill-opacity:1.00" />
<!-- End 'G' -->
<!-- Begin 'G' -->
<ellipse cx="535.000000" cy="68.289919" rx="25.000000" ry="34.842580" fill="rgb(255, 165, 0)" style="fill-opacity:1.00" />
<ellipse cx="535.000000" cy="68.289919" rx="16.666667" ry="23.228386" fill="rgb(255, 255, 255)" style="fill-opacity:1.00" />
<rect height="34.842580" width="25.000000" x="535.000000" y="50.868629" fill="rgb(255, 255, 255)" style="fill-opacity:1.00" />
<rect height="8.710645" width="25.000000" x="535.000000" y="77.000564" fill="rgb(255, 165, 0)" style="fill-opacity:1.00" />
<rect height="26.131935" width="6.250000" x="553.750000" y="77.000564" fill="rgb(255, 165, 0)" style="fill-opacity:1.00" />
<!-- End 'G' -->
<!-- Begin 'C' -->
<ellipse cx="535.000000" cy="106.356096" rx="25.000000" ry="3.223597" fill="rgb(0, 0, 128)" style="fill-opacity:1.00" />
<ellipse cx="535.000000" cy="106.356096" rx="16.666667" ry="2.149065" fill="rgb(255, 255, 255)" style="fill-opacity:1.00" />
<rect height="3.223597" width="25.000000" x="535.000000" y="104.744297" fill="rgb(255, 255, 255)" style="fill-opacity:1.00" />
<!-- End 'C' -->
<!-- Begin 'T' -->
<rect height="0.055629" width="50.000000" x="510.000000" y="109.579693" fill="rgb(0, 100, 0)" style="fill-opacity:1.00" />
<rect height="0.347682" width="10.000000" x="530.000000" y="109.579693" fill="rgb(0, 100, 0)" style="fill-opacity:1.00" />
<!-- End 'T' -->
<!-- Begin 'A' -->
<polygon points=" 510.000000, 110.000000, 531.000000, 109.927375, 539.000000, 109.927375, 560.000000, 110.000000, 552.500000, 110.000000, 546.250000, 109.981844, 523.750000, 109.981844, 517.500000, 110.000000" fill="rgb(178, 34, 34)" style="fill-opacity:1.00" />
<!-- End 'A' -->
<!-- Begin 'A' -->
<polygon points=" 570.000000, 106.180726, 591.000000, 26.509058, 599.000000, 26.509058, 620.000000, 106.180726, 612.500000, 106.180726, 606.250000, 86.262809, 583.750000, 86.262809, 577.500000, 106.180726" fill="rgb(178, 34, 34)" style="fill-opacity:1.00" />
<polygon points=" 595.000000, 42.443392, 587.000000, 73.312059, 602.000000, 73.312059" fill="rgb(255, 255, 255)" style="fill-opacity:1.00" />
<!-- End 'A' -->
<!-- Begin 'T' -->
<rect height="0.332895" width="50.000000" x="570.000000" y="106.180726" fill="rgb(0, 100, 0)" style="fill-opacity:1.00" />
<rect height="2.080592" width="10.000000" x="590.000000" y="106.180726" fill="rgb(0, 100, 0)" style="fill-opacity:1.00" />
<!-- End 'T' -->
<!-- Begin 'G' -->
<ellipse cx="595.000000" cy="108.919329" rx="25.000000" ry="0.658010" fill="rgb(255, 165, 0)" style="fill-opacity:1.00" />
<ellipse cx="595.000000" cy="108.919329" rx="16.666667" ry="0.438674" fill="rgb(255, 255, 255)" style="fill-opacity:1.00" />
<rect height="0.658010" width="25.000000" x="595.000000" y="108.590324" fill="rgb(255, 255, 255)" style="fill-opacity:1.00" />
<rect height="0.164503" width="25.000000" x="595.000000" y="109.083831" fill="rgb(255, 165, 0)" style="fill-opacity:1.00" />
<rect height="0.493508" width="6.250000" x="613.750000" y="109.083831" fill="rgb(255, 165, 0)" style="fill-opacity:1.00" />
<!-- End 'G' -->
<!-- Begin 'C' -->
<ellipse cx="595.000000" cy="109.788670" rx="25.000000" ry="0.211330" fill="rgb(0, 0, 128)" style="fill-opacity:1.00" />
<ellipse cx="595.000000" cy="109.788670" rx="16.666667" ry="0.140887" fill="rgb(255, 255, 255)" style="fill-opacity:1.00" />
<rect height="0.211330" width="25.000000" x="595.000000" y="109.683004" fill="rgb(255, 255, 255)" style="fill-opacity:1.00" />
<!-- End 'C' -->
<!-- Begin 'T' -->
<rect height="3.548051" width="50.000000" x="630.000000" y="73.647175" fill="rgb(0, 100, 0)" style="fill-opacity:1.00" />
<rect height="22.175317" width="10.000000" x="650.000000" y="73.647175" fill="rgb(0, 100, 0)" style="fill-opacity:1.00" />
<!-- End 'T' -->
<!-- Begin 'C' -->
<ellipse cx="655.000000" cy="101.460100" rx="25.000000" ry="5.637608" fill="rgb(0, 0, 128)" style="fill-opacity:1.00" />
<ellipse cx="655.000000" cy="101.460100" rx="16.666667" ry="3.758405" fill="rgb(255, 255, 255)" style="fill-opacity:1.00" />
<rect height="5.637608" width="25.000000" x="655.000000" y="98.641296" fill="rgb(255, 255, 255)" style="fill-opacity:1.00" />
<!-- End 'C' -->
<!-- Begin 'G' -->
<ellipse cx="655.000000" cy="108.475891" rx="25.000000" ry="1.378183" fill="rgb(255, 165, 0)" style="fill-opacity:1.00" />
<ellipse cx="655.000000" cy="108.475891" rx="16.666667" ry="0.918788" fill="rgb(255, 255, 255)" style="fill-opacity:1.00" />
<rect height="1.378183" width="25.000000" x="655.000000" y="107.786800" fill="rgb(255, 255, 255)" style="fill-opacity:1.00" />
<rect height="0.344546" width="25.000000" x="655.000000" y="108.820437" fill="rgb(255, 165, 0)" style="fill-opacity:1.00" />
<rect height="1.033637" width="6.250000" x="673.750000" y="108.820437" fill="rgb(255, 165, 0)" style="fill-opacity:1.00" />
<!-- End 'G' -->
<!-- Begin 'A' -->
<polygon points=" 630.000000, 110.000000, 651.000000, 109.854074, 659.000000, 109.854074, 680.000000, 110.000000, 672.500000, 110.000000, 666.250000, 109.963518, 643.750000, 109.963518, 637.500000, 110.000000" fill="rgb(178, 34, 34)" style="fill-opacity:1.00" />
<!-- End 'A' -->
<text x="370.000000" y="165">
IC = 12.43
</text>

</svg>
