<?xml version="1.0" encoding="UTF-8" standalone="yes"?>
                 <!DOCTYPE svg PUBLIC "-//W3C//DTD SVG 1.0//EN" "http://www.w3.org/TR/2001/REC-SVG-20010904/DTD/svg10.dtd">
                 <svg height="170" width="840" xmlns="http://www.w3.org/2000/svg" xmlns:xlink="http://www.w3.org/1999/xlink">
                 <line x1="85" y1="120" x2="807" y2="120" style="stroke:rgb(99,99,99);stroke-width:2" />
<rect height="7.000000" width="2.000000" x="85.000000" y="120.000000" fill="rgb(0, 0, 0)" style="fill-opacity:1.00" />
<text x="107.000000" y="140">
1
</text>
<rect height="7.000000" width="2.000000" x="145.000000" y="120.000000" fill="rgb(0, 0, 0)" style="fill-opacity:1.00" />
<text x="167.000000" y="140">
2
</text>
<rect height="7.000000" width="2.000000" x="205.000000" y="120.000000" fill="rgb(0, 0, 0)" style="fill-opacity:1.00" />
<text x="227.000000" y="140">
3
</text>
<rect height="7.000000" width="2.000000" x="265.000000" y="120.000000" fill="rgb(0, 0, 0)" style="fill-opacity:1.00" />
<text x="287.000000" y="140">
4
</text>
<rect height="7.000000" width="2.000000" x="325.000000" y="120.000000" fill="rgb(0, 0, 0)" style="fill-opacity:1.00" />
<text x="347.000000" y="140">
5
</text>
<rect height="7.000000" width="2.000000" x="385.000000" y="120.000000" fill="rgb(0, 0, 0)" style="fill-opacity:1.00" />
<text x="407.000000" y="140">
6
</text>
<rect height="7.000000" width="2.000000" x="445.000000" y="120.000000" fill="rgb(0, 0, 0)" style="fill-opacity:1.00" />
<text x="467.000000" y="140">
7
</text>
<rect height="7.000000" width="2.000000" x="505.000000" y="120.000000" fill="rgb(0, 0, 0)" style="fill-opacity:1.00" />
<text x="527.000000" y="140">
8
</text>
<rect height="7.000000" width="2.000000" x="565.000000" y="120.000000" fill="rgb(0, 0, 0)" style="fill-opacity:1.00" />
<text x="587.000000" y="140">
9
</text>
<rect height="7.000000" width="2.000000" x="625.000000" y="120.000000" fill="rgb(0, 0, 0)" style="fill-opacity:1.00" />
<text x="647.000000" y="140">
10
</text>
<rect height="7.000000" width="2.000000" x="685.000000" y="120.000000" fill="rgb(0, 0, 0)" style="fill-opacity:1.00" />
<text x="707.000000" y="140">
11
</text>
<rect height="7.000000" width="2.000000" x="745.000000" y="120.000000" fill="rgb(0, 0, 0)" style="fill-opacity:1.00" />
<text x="767.000000" y="140">
12
</text>
<rect height="7.000000" width="2.000000" x="805.000000" y="120.000000" fill="rgb(0, 0, 0)" style="fill-opacity:1.00" />
<line x1="80" y1="112" x2="80" y2="10" style="stroke:rgb(99,99,99);stroke-width:2" />
<rect height="2.000000" width="7.000000" x="73.000000" y="110.000000" fill="rgb(0, 0, 0)" style="fill-opacity:1.00" />
<text x="63" y="115">
0
</text>
<rect height="2.000000" width="7.000000" x="73.000000" y="60.000000" fill="rgb(0, 0, 0)" style="fill-opacity:1.00" />
<text x="63" y="65">
1
</text>
<rect height="2.000000" width="7.000000" x="73.000000" y="10.000000" fill="rgb(0, 0, 0)" style="fill-opacity:1.00" />
<text x="63" y="15">
2
</text>
<text x="50" y="65"
transform="rotate(-90, 50, 70)">
bits
</text>
<!-- Begin 'A' -->
<polygon points=" 90.000000, 105.874591, 111.000000, 102.417434, 119.000000, 102.417434, 140.000000, 105.874591, 132.500000, 105.874591, 126.250000, 105.010302, 103.750000, 105.010302, 97.500000, 105.874591" fill="rgb(178, 34, 34)" style="fill-opacity:1.00" />
<!-- End 'A' -->
<!-- Begin 'T' -->
<rect height="0.261920" width="50.000000" x="90.000000" y="105.874591" fill="rgb(0, 100, 0)" style="fill-opacity:1.00" />
<rect height="1.637001" width="10.000000" x="110.000000" y="105.874591" fill="rgb(0, 100, 0)" style="fill-opacity:1.00" />
<!-- End 'T' -->
<!-- Begin 'G' -->
<ellipse cx="115.000000" cy="108.182264" rx="25.000000" ry="0.670672" fill="rgb(255, 165, 0)" style="fill-opacity:1.00" />
<ellipse cx="115.000000" cy="108.182264" rx="16.666667" ry="0.447115" fill="rgb(255, 255, 255)" style="fill-opacity:1.00" />
<rect height="0.670672" width="25.000000" x="115.000000" y="107.846928" fill="rgb(255, 255, 255)" style="fill-opacity:1.00" />
<rect height="0.167668" width="25.000000" x="115.000000" y="108.349932" fill="rgb(255, 165, 0)" style="fill-opacity:1.00" />
<rect height="0.503004" width="6.250000" x="133.750000" y="108.349932" fill="rgb(255, 165, 0)" style="fill-opacity:1.00" />
<!-- End 'G' -->
<!-- Begin 'C' -->
<ellipse cx="115.000000" cy="109.426468" rx="25.000000" ry="0.573532" fill="rgb(0, 0, 128)" style="fill-opacity:1.00" />
<ellipse cx="115.000000" cy="109.426468" rx="16.666667" ry="0.382355" fill="rgb(255, 255, 255)" style="fill-opacity:1.00" />
<rect height="0.573532" width="25.000000" x="115.000000" y="109.139702" fill="rgb(255, 255, 255)" style="fill-opacity:1.00" />
<!-- End 'C' -->
<!-- Begin 'A' -->
<polygon points=" 150.000000, 102.239549, 171.000000, 93.136615, 179.000000, 93.136615, 200.000000, 102.239549, 192.500000, 102.239549, 186.250000, 99.963815, 163.750000, 99.963815, 157.500000, 102.239549" fill="rgb(178, 34, 34)" style="fill-opacity:1.00" />
<polygon points=" 175.000000, 94.957202, 167.000000, 97.598375, 182.000000, 97.598375" fill="rgb(255, 255, 255)" style="fill-opacity:1.00" />
<!-- End 'A' -->
<!-- Begin 'T' -->
<rect height="0.674407" width="50.000000" x="150.000000" y="102.239549" fill="rgb(0, 100, 0)" style="fill-opacity:1.00" />
<rect height="4.215044" width="10.000000" x="170.000000" y="102.239549" fill="rgb(0, 100, 0)" style="fill-opacity:1.00" />
<!-- End 'T' -->
<!-- Begin 'G' -->
<ellipse cx="175.000000" cy="107.399162" rx="25.000000" ry="0.944569" fill="rgb(255, 165, 0)" style="fill-opacity:1.00" />
<ellipse cx="175.000000" cy="107.399162" rx="16.666667" ry="0.629713" fill="rgb(255, 255, 255)" style="fill-opacity:1.00" />
<rect height="0.944569" width="25.000000" x="175.000000" y="106.926877" fill="rgb(255, 255, 255)" style="fill-opacity:1.00" />
<rect height="0.236142" width="25.000000" x="175.000000" y="107.635304" fill="rgb(255, 165, 0)" style="fill-opacity:1.00" />
<rect height="0.708427" width="6.250000" x="193.750000" y="107.635304" fill="rgb(255, 165, 0)" style="fill-opacity:1.00" />
<!-- End 'G' -->
<!-- Begin 'C' -->
<ellipse cx="175.000000" cy="109.171866" rx="25.000000" ry="0.828134" fill="rgb(0, 0, 128)" style="fill-opacity:1.00" />
<ellipse cx="175.000000" cy="109.171866" rx="16.666667" ry="0.552090" fill="rgb(255, 255, 255)" style="fill-opacity:1.00" />
<rect height="0.828134" width="25.000000" x="175.000000" y="108.757799" fill="rgb(255, 255, 255)" style="fill-opacity:1.00" />
<!-- End 'C' -->
<!-- Begin 'A' -->
<polygon points=" 210.000000, 101.327672, 231.000000, 42.956546, 239.000000, 42.956546, 260.000000, 101.327672, 252.500000, 101.327672, 246.250000, 86.734891, 223.750000, 86.734891, 217.500000, 101.327672" fill="rgb(178, 34, 34)" style="fill-opacity:1.00" />
<polygon points=" 235.000000, 54.630771, 227.000000, 76.979222, 242.000000, 76.979222" fill="rgb(255, 255, 255)" style="fill-opacity:1.00" />
<!-- End 'A' -->
<!-- Begin 'T' -->
<rect height="1.160449" width="50.000000" x="210.000000" y="101.327672" fill="rgb(0, 100, 0)" style="fill-opacity:1.00" />
<rect height="7.252808" width="10.000000" x="230.000000" y="101.327672" fill="rgb(0, 100, 0)" style="fill-opacity:1.00" />
<!-- End 'T' -->
<!-- Begin 'G' -->
<ellipse cx="235.000000" cy="109.020447" rx="25.000000" ry="0.439966" fill="rgb(255, 165, 0)" style="fill-opacity:1.00" />
<ellipse cx="235.000000" cy="109.020447" rx="16.666667" ry="0.293311" fill="rgb(255, 255, 255)" style="fill-opacity:1.00" />
<rect height="0.439966" width="25.000000" x="235.000000" y="108.800464" fill="rgb(255, 255, 255)" style="fill-opacity:1.00" />
<rect height="0.109992" width="25.000000" x="235.000000" y="109.130438" fill="rgb(255, 165, 0)" style="fill-opacity:1.00" />
<rect height="0.329975" width="6.250000" x="253.750000" y="109.130438" fill="rgb(255, 165, 0)" style="fill-opacity:1.00" />
<!-- End 'G' -->
<!-- Begin 'C' -->
<ellipse cx="235.000000" cy="109.730207" rx="25.000000" ry="0.269793" fill="rgb(0, 0, 128)" style="fill-opacity:1.00" />
<ellipse cx="235.000000" cy="109.730207" rx="16.666667" ry="0.179862" fill="rgb(255, 255, 255)" style="fill-opacity:1.00" />
<rect height="0.269793" width="25.000000" x="235.000000" y="109.595310" fill="rgb(255, 255, 255)" style="fill-opacity:1.00" />
<!-- End 'C' -->
<!-- Begin 'A' -->
<polygon points=" 270.000000, 106.400081, 291.000000, 25.701653, 299.000000, 25.701653, 320.000000, 106.400081, 312.500000, 106.400081, 306.250000, 86.225474, 283.750000, 86.225474, 277.500000, 106.400081" fill="rgb(178, 34, 34)" style="fill-opacity:1.00" />
<polygon points=" 295.000000, 41.841339, 287.000000, 73.120710, 302.000000, 73.120710" fill="rgb(255, 255, 255)" style="fill-opacity:1.00" />
<!-- End 'A' -->
<!-- Begin 'G' -->
<ellipse cx="295.000000" cy="107.306666" rx="25.000000" ry="0.906585" fill="rgb(255, 165, 0)" style="fill-opacity:1.00" />
<ellipse cx="295.000000" cy="107.306666" rx="16.666667" ry="0.604390" fill="rgb(255, 255, 255)" style="fill-opacity:1.00" />
<rect height="0.906585" width="25.000000" x="295.000000" y="106.853374" fill="rgb(255, 255, 255)" style="fill-opacity:1.00" />
<rect height="0.226646" width="25.000000" x="295.000000" y="107.533313" fill="rgb(255, 165, 0)" style="fill-opacity:1.00" />
<rect height="0.679939" width="6.250000" x="313.750000" y="107.533313" fill="rgb(255, 165, 0)" style="fill-opacity:1.00" />
<!-- End 'G' -->
<!-- Begin 'T' -->
<rect height="0.217904" width="50.000000" x="270.000000" y="108.213251" fill="rgb(0, 100, 0)" style="fill-opacity:1.00" />
<rect height="1.361900" width="10.000000" x="290.000000" y="108.213251" fill="rgb(0, 100, 0)" style="fill-opacity:1.00" />
<!-- End 'T' -->
<!-- Begin 'C' -->
<ellipse cx="295.000000" cy="109.787576" rx="25.000000" ry="0.212424" fill="rgb(0, 0, 128)" style="fill-opacity:1.00" />
<ellipse cx="295.000000" cy="109.787576" rx="16.666667" ry="0.141616" fill="rgb(255, 255, 255)" style="fill-opacity:1.00" />
<rect height="0.212424" width="25.000000" x="295.000000" y="109.681364" fill="rgb(255, 255, 255)" style="fill-opacity:1.00" />
<!-- End 'C' -->
<!-- Begin 'A' -->
<polygon points=" 330.000000, 108.197475, 351.000000, 18.552506, 359.000000, 18.552506, 380.000000, 108.197475, 372.500000, 108.197475, 366.250000, 85.786233, 343.750000, 85.786233, 337.500000, 108.197475" fill="rgb(178, 34, 34)" style="fill-opacity:1.00" />
<polygon points=" 355.000000, 36.481500, 347.000000, 71.339487, 362.000000, 71.339487" fill="rgb(255, 255, 255)" style="fill-opacity:1.00" />
<!-- End 'A' -->
<!-- Begin 'G' -->
<ellipse cx="355.000000" cy="108.506741" rx="25.000000" ry="0.309267" fill="rgb(255, 165, 0)" style="fill-opacity:1.00" />
<ellipse cx="355.000000" cy="108.506741" rx="16.666667" ry="0.206178" fill="rgb(255, 255, 255)" style="fill-opacity:1.00" />
<rect height="0.309267" width="25.000000" x="355.000000" y="108.352108" fill="rgb(255, 255, 255)" style="fill-opacity:1.00" />
<rect height="0.077317" width="25.000000" x="355.000000" y="108.584058" fill="rgb(255, 165, 0)" style="fill-opacity:1.00" />
<rect height="0.231950" width="6.250000" x="373.750000" y="108.584058" fill="rgb(255, 165, 0)" style="fill-opacity:1.00" />
<!-- End 'G' -->
<!-- Begin 'T' -->
<rect height="0.094873" width="50.000000" x="330.000000" y="108.816008" fill="rgb(0, 100, 0)" style="fill-opacity:1.00" />
<rect height="0.592958" width="10.000000" x="350.000000" y="108.816008" fill="rgb(0, 100, 0)" style="fill-opacity:1.00" />
<!-- End 'T' -->
<!-- Begin 'C' -->
<ellipse cx="355.000000" cy="109.704483" rx="25.000000" ry="0.295517" fill="rgb(0, 0, 128)" style="fill-opacity:1.00" />
<ellipse cx="355.000000" cy="109.704483" rx="16.666667" ry="0.197011" fill="rgb(255, 255, 255)" style="fill-opacity:1.00" />
<rect height="0.295517" width="25.000000" x="355.000000" y="109.556725" fill="rgb(255, 255, 255)" style="fill-opacity:1.00" />
<!-- End 'C' -->
<!-- Begin 'T' -->
<rect height="10.022371" width="50.000000" x="390.000000" y="39.905276" fill="rgb(0, 100, 0)" style="fill-opacity:1.00" />
<rect height="62.639819" width="10.000000" x="410.000000" y="39.905276" fill="rgb(0, 100, 0)" style="fill-opacity:1.00" />
<!-- End 'T' -->
<!-- Begin 'A' -->
<polygon points=" 390.000000, 107.867594, 411.000000, 102.545095, 419.000000, 102.545095, 440.000000, 107.867594, 432.500000, 107.867594, 426.250000, 106.536969, 403.750000, 106.536969, 397.500000, 107.867594" fill="rgb(178, 34, 34)" style="fill-opacity:1.00" />
<!-- End 'A' -->
<!-- Begin 'G' -->
<ellipse cx="415.000000" cy="108.788939" rx="25.000000" ry="0.921345" fill="rgb(255, 165, 0)" style="fill-opacity:1.00" />
<ellipse cx="415.000000" cy="108.788939" rx="16.666667" ry="0.614230" fill="rgb(255, 255, 255)" style="fill-opacity:1.00" />
<rect height="0.921345" width="25.000000" x="415.000000" y="108.328266" fill="rgb(255, 255, 255)" style="fill-opacity:1.00" />
<rect height="0.230336" width="25.000000" x="415.000000" y="109.019275" fill="rgb(255, 165, 0)" style="fill-opacity:1.00" />
<rect height="0.691009" width="6.250000" x="433.750000" y="109.019275" fill="rgb(255, 165, 0)" style="fill-opacity:1.00" />
<!-- End 'G' -->
<!-- Begin 'C' -->
<ellipse cx="415.000000" cy="109.855142" rx="25.000000" ry="0.144858" fill="rgb(0, 0, 128)" style="fill-opacity:1.00" />
<ellipse cx="415.000000" cy="109.855142" rx="16.666667" ry="0.096572" fill="rgb(255, 255, 255)" style="fill-opacity:1.00" />
<rect height="0.144858" width="25.000000" x="415.000000" y="109.782713" fill="rgb(255, 255, 255)" style="fill-opacity:1.00" />
<!-- End 'C' -->
<!-- Begin 'A' -->
<polygon points=" 450.000000, 109.172470, 471.000000, 14.208948, 479.000000, 14.208948, 500.000000, 109.172470, 492.500000, 109.172470, 486.250000, 85.431590, 463.750000, 85.431590, 457.500000, 109.172470" fill="rgb(178, 34, 34)" style="fill-opacity:1.00" />
<polygon points=" 475.000000, 33.201653, 467.000000, 70.187061, 482.000000, 70.187061" fill="rgb(255, 255, 255)" style="fill-opacity:1.00" />
<!-- End 'A' -->
<!-- Begin 'C' -->
<ellipse cx="475.000000" cy="109.393470" rx="25.000000" ry="0.221000" fill="rgb(0, 0, 128)" style="fill-opacity:1.00" />
<ellipse cx="475.000000" cy="109.393470" rx="16.666667" ry="0.147334" fill="rgb(255, 255, 255)" style="fill-opacity:1.00" />
<rect height="0.221000" width="25.000000" x="475.000000" y="109.282970" fill="rgb(255, 255, 255)" style="fill-opacity:1.00" />
<!-- End 'C' -->
<!-- Begin 'T' -->
<rect height="0.036078" width="50.000000" x="450.000000" y="109.614471" fill="rgb(0, 100, 0)" style="fill-opacity:1.00" />
<rect height="0.225486" width="10.000000" x="470.000000" y="109.614471" fill="rgb(0, 100, 0)" style="fill-opacity:1.00" />
<!-- End 'T' -->
<!-- Begin 'G' -->
<ellipse cx="475.000000" cy="109.919979" rx="25.000000" ry="0.080021" fill="rgb(255, 165, 0)" style="fill-opacity:1.00" />
<ellipse cx="475.000000" cy="109.919979" rx="16.666667" ry="0.053348" fill="rgb(255, 255, 255)" style="fill-opacity:1.00" />
<rect height="0.080021" width="25.000000" x="475.000000" y="109.879968" fill="rgb(255, 255, 255)" style="fill-opacity:1.00" />
<rect height="0.020005" width="25.000000" x="475.000000" y="109.939984" fill="rgb(255, 165, 0)" style="fill-opacity:1.00" />
<rect height="0.060016" width="6.250000" x="493.750000" y="109.939984" fill="rgb(255, 165, 0)" style="fill-opacity:1.00" />
<!-- End 'G' -->
<!-- Begin 'T' -->
<rect height="15.065128" width="50.000000" x="510.000000" y="14.842419" fill="rgb(0, 100, 0)" style="fill-opacity:1.00" />
<rect height="94.157051" width="10.000000" x="530.000000" y="14.842419" fill="rgb(0, 100, 0)" style="fill-opacity:1.00" />
<!-- End 'T' -->
<!-- Begin 'A' -->
<polygon points=" 510.000000, 109.688771, 531.000000, 108.999470, 539.000000, 108.999470, 560.000000, 109.688771, 552.500000, 109.688771, 546.250000, 109.516445, 523.750000, 109.516445, 517.500000, 109.688771" fill="rgb(178, 34, 34)" style="fill-opacity:1.00" />
<!-- End 'A' -->
<!-- Begin 'C' -->
<ellipse cx="535.000000" cy="109.771904" rx="25.000000" ry="0.083134" fill="rgb(0, 0, 128)" style="fill-opacity:1.00" />
<ellipse cx="535.000000" cy="109.771904" rx="16.666667" ry="0.055423" fill="rgb(255, 255, 255)" style="fill-opacity:1.00" />
<rect height="0.083134" width="25.000000" x="535.000000" y="109.730337" fill="rgb(255, 255, 255)" style="fill-opacity:1.00" />
<!-- End 'C' -->
<!-- Begin 'G' -->
<ellipse cx="535.000000" cy="109.927519" rx="25.000000" ry="0.072481" fill="rgb(255, 165, 0)" style="fill-opacity:1.00" />
<ellipse cx="535.000000" cy="109.927519" rx="16.666667" ry="0.048321" fill="rgb(255, 255, 255)" style="fill-opacity:1.00" />
<rect height="0.072481" width="25.000000" x="535.000000" y="109.891279" fill="rgb(255, 255, 255)" style="fill-opacity:1.00" />
<rect height="0.018120" width="25.000000" x="535.000000" y="109.945639" fill="rgb(255, 165, 0)" style="fill-opacity:1.00" />
<rect height="0.054361" width="6.250000" x="553.750000" y="109.945639" fill="rgb(255, 165, 0)" style="fill-opacity:1.00" />
<!-- End 'G' -->
<!-- Begin 'C' -->
<ellipse cx="595.000000" cy="72.949953" rx="25.000000" ry="29.249905" fill="rgb(0, 0, 128)" style="fill-opacity:1.00" />
<ellipse cx="595.000000" cy="72.949953" rx="16.666667" ry="19.499937" fill="rgb(255, 255, 255)" style="fill-opacity:1.00" />
<rect height="29.249905" width="25.000000" x="595.000000" y="58.325000" fill="rgb(255, 255, 255)" style="fill-opacity:1.00" />
<!-- End 'C' -->
<!-- Begin 'T' -->
<rect height="0.595323" width="50.000000" x="570.000000" y="102.199858" fill="rgb(0, 100, 0)" style="fill-opacity:1.00" />
<rect height="3.720772" width="10.000000" x="590.000000" y="102.199858" fill="rgb(0, 100, 0)" style="fill-opacity:1.00" />
<!-- End 'T' -->
<!-- Begin 'A' -->
<polygon points=" 570.000000, 109.477704, 591.000000, 105.920630, 599.000000, 105.920630, 620.000000, 109.477704, 612.500000, 109.477704, 606.250000, 108.588435, 583.750000, 108.588435, 577.500000, 109.477704" fill="rgb(178, 34, 34)" style="fill-opacity:1.00" />
<!-- End 'A' -->
<!-- Begin 'G' -->
<ellipse cx="595.000000" cy="109.738852" rx="25.000000" ry="0.261148" fill="rgb(255, 165, 0)" style="fill-opacity:1.00" />
<ellipse cx="595.000000" cy="109.738852" rx="16.666667" ry="0.174099" fill="rgb(255, 255, 255)" style="fill-opacity:1.00" />
<rect height="0.261148" width="25.000000" x="595.000000" y="109.608278" fill="rgb(255, 255, 255)" style="fill-opacity:1.00" />
<rect height="0.065287" width="25.000000" x="595.000000" y="109.804139" fill="rgb(255, 165, 0)" style="fill-opacity:1.00" />
<rect height="0.195861" width="6.250000" x="613.750000" y="109.804139" fill="rgb(255, 165, 0)" style="fill-opacity:1.00" />
<!-- End 'G' -->
<!-- Begin 'T' -->
<rect height="2.043131" width="50.000000" x="630.000000" y="87.275767" fill="rgb(0, 100, 0)" style="fill-opacity:1.00" />
<rect height="12.769572" width="10.000000" x="650.000000" y="87.275767" fill="rgb(0, 100, 0)" style="fill-opacity:1.00" />
<!-- End 'T' -->
<!-- Begin 'A' -->
<polygon points=" 630.000000, 106.121387, 651.000000, 100.045339, 659.000000, 100.045339, 680.000000, 106.121387, 672.500000, 106.121387, 666.250000, 104.602375, 643.750000, 104.602375, 637.500000, 106.121387" fill="rgb(178, 34, 34)" style="fill-opacity:1.00" />
<!-- End 'A' -->
<!-- Begin 'C' -->
<ellipse cx="655.000000" cy="107.606212" rx="25.000000" ry="1.484826" fill="rgb(0, 0, 128)" style="fill-opacity:1.00" />
<ellipse cx="655.000000" cy="107.606212" rx="16.666667" ry="0.989884" fill="rgb(255, 255, 255)" style="fill-opacity:1.00" />
<rect height="1.484826" width="25.000000" x="655.000000" y="106.863800" fill="rgb(255, 255, 255)" style="fill-opacity:1.00" />
<!-- End 'C' -->
<!-- Begin 'G' -->
<ellipse cx="655.000000" cy="109.545519" rx="25.000000" ry="0.454481" fill="rgb(255, 165, 0)" style="fill-opacity:1.00" />
<ellipse cx="655.000000" cy="109.545519" rx="16.666667" ry="0.302987" fill="rgb(255, 255, 255)" style="fill-opacity:1.00" />
<rect height="0.454481" width="25.000000" x="655.000000" y="109.318279" fill="rgb(255, 255, 255)" style="fill-opacity:1.00" />
<rect height="0.113620" width="25.000000" x="655.000000" y="109.659139" fill="rgb(255, 165, 0)" style="fill-opacity:1.00" />
<rect height="0.340861" width="6.250000" x="673.750000" y="109.659139" fill="rgb(255, 165, 0)" style="fill-opacity:1.00" />
<!-- End 'G' -->
<!-- Begin 'T' -->
<rect height="0.360829" width="50.000000" x="690.000000" y="103.809699" fill="rgb(0, 100, 0)" style="fill-opacity:1.00" />
<rect height="2.255181" width="10.000000" x="710.000000" y="103.809699" fill="rgb(0, 100, 0)" style="fill-opacity:1.00" />
<!-- End 'T' -->
<!-- Begin 'A' -->
<polygon points=" 690.000000, 108.160525, 711.000000, 106.064880, 719.000000, 106.064880, 740.000000, 108.160525, 732.500000, 108.160525, 726.250000, 107.636614, 703.750000, 107.636614, 697.500000, 108.160525" fill="rgb(178, 34, 34)" style="fill-opacity:1.00" />
<!-- End 'A' -->
<!-- Begin 'C' -->
<ellipse cx="715.000000" cy="108.650325" rx="25.000000" ry="0.489800" fill="rgb(0, 0, 128)" style="fill-opacity:1.00" />
<ellipse cx="715.000000" cy="108.650325" rx="16.666667" ry="0.326534" fill="rgb(255, 255, 255)" style="fill-opacity:1.00" />
<rect height="0.489800" width="25.000000" x="715.000000" y="108.405425" fill="rgb(255, 255, 255)" style="fill-opacity:1.00" />
<!-- End 'C' -->
<!-- Begin 'G' -->
<ellipse cx="715.000000" cy="109.570063" rx="25.000000" ry="0.429937" fill="rgb(255, 165, 0)" style="fill-opacity:1.00" />
<ellipse cx="715.000000" cy="109.570063" rx="16.666667" ry="0.286625" fill="rgb(255, 255, 255)" style="fill-opacity:1.00" />
<rect height="0.429937" width="25.000000" x="715.000000" y="109.355094" fill="rgb(255, 255, 255)" style="fill-opacity:1.00" />
<rect height="0.107484" width="25.000000" x="715.000000" y="109.677547" fill="rgb(255, 165, 0)" style="fill-opacity:1.00" />
<rect height="0.322453" width="6.250000" x="733.750000" y="109.677547" fill="rgb(255, 165, 0)" style="fill-opacity:1.00" />
<!-- End 'G' -->
<!-- Begin 'A' -->
<polygon points=" 750.000000, 106.156624, 771.000000, 103.474541, 779.000000, 103.474541, 800.000000, 106.156624, 792.500000, 106.156624, 786.250000, 105.486103, 763.750000, 105.486103, 757.500000, 106.156624" fill="rgb(178, 34, 34)" style="fill-opacity:1.00" />
<!-- End 'A' -->
<!-- Begin 'T' -->
<rect height="0.295541" width="50.000000" x="750.000000" y="106.156624" fill="rgb(0, 100, 0)" style="fill-opacity:1.00" />
<rect height="1.847132" width="10.000000" x="770.000000" y="106.156624" fill="rgb(0, 100, 0)" style="fill-opacity:1.00" />
<!-- End 'T' -->
<!-- Begin 'C' -->
<ellipse cx="775.000000" cy="108.547855" rx="25.000000" ry="0.544099" fill="rgb(0, 0, 128)" style="fill-opacity:1.00" />
<ellipse cx="775.000000" cy="108.547855" rx="16.666667" ry="0.362733" fill="rgb(255, 255, 255)" style="fill-opacity:1.00" />
<rect height="0.544099" width="25.000000" x="775.000000" y="108.275805" fill="rgb(255, 255, 255)" style="fill-opacity:1.00" />
<!-- End 'C' -->
<!-- Begin 'G' -->
<ellipse cx="775.000000" cy="109.545977" rx="25.000000" ry="0.454023" fill="rgb(255, 165, 0)" style="fill-opacity:1.00" />
<ellipse cx="775.000000" cy="109.545977" rx="16.666667" ry="0.302682" fill="rgb(255, 255, 255)" style="fill-opacity:1.00" />
<rect height="0.454023" width="25.000000" x="775.000000" y="109.318966" fill="rgb(255, 255, 255)" style="fill-opacity:1.00" />
<rect height="0.113506" width="25.000000" x="775.000000" y="109.659483" fill="rgb(255, 165, 0)" style="fill-opacity:1.00" />
<rect height="0.340517" width="6.250000" x="793.750000" y="109.659483" fill="rgb(255, 165, 0)" style="fill-opacity:1.00" />
<!-- End 'G' -->
<text x="430.000000" y="165">
IC = 12.60
</text>

</svg>
