<?xml version="1.0" encoding="UTF-8" standalone="yes"?>
                 <!DOCTYPE svg PUBLIC "-//W3C//DTD SVG 1.0//EN" "http://www.w3.org/TR/2001/REC-SVG-20010904/DTD/svg10.dtd">
                 <svg height="170" width="780" xmlns="http://www.w3.org/2000/svg" xmlns:xlink="http://www.w3.org/1999/xlink">
                 <line x1="85" y1="120" x2="747" y2="120" style="stroke:rgb(99,99,99);stroke-width:2" />
<rect height="7.000000" width="2.000000" x="85.000000" y="120.000000" fill="rgb(0, 0, 0)" style="fill-opacity:1.00" />
<text x="107.000000" y="140">
1
</text>
<rect height="7.000000" width="2.000000" x="145.000000" y="120.000000" fill="rgb(0, 0, 0)" style="fill-opacity:1.00" />
<text x="167.000000" y="140">
2
</text>
<rect height="7.000000" width="2.000000" x="205.000000" y="120.000000" fill="rgb(0, 0, 0)" style="fill-opacity:1.00" />
<text x="227.000000" y="140">
3
</text>
<rect height="7.000000" width="2.000000" x="265.000000" y="120.000000" fill="rgb(0, 0, 0)" style="fill-opacity:1.00" />
<text x="287.000000" y="140">
4
</text>
<rect height="7.000000" width="2.000000" x="325.000000" y="120.000000" fill="rgb(0, 0, 0)" style="fill-opacity:1.00" />
<text x="347.000000" y="140">
5
</text>
<rect height="7.000000" width="2.000000" x="385.000000" y="120.000000" fill="rgb(0, 0, 0)" style="fill-opacity:1.00" />
<text x="407.000000" y="140">
6
</text>
<rect height="7.000000" width="2.000000" x="445.000000" y="120.000000" fill="rgb(0, 0, 0)" style="fill-opacity:1.00" />
<text x="467.000000" y="140">
7
</text>
<rect height="7.000000" width="2.000000" x="505.000000" y="120.000000" fill="rgb(0, 0, 0)" style="fill-opacity:1.00" />
<text x="527.000000" y="140">
8
</text>
<rect height="7.000000" width="2.000000" x="565.000000" y="120.000000" fill="rgb(0, 0, 0)" style="fill-opacity:1.00" />
<text x="587.000000" y="140">
9
</text>
<rect height="7.000000" width="2.000000" x="625.000000" y="120.000000" fill="rgb(0, 0, 0)" style="fill-opacity:1.00" />
<text x="647.000000" y="140">
10
</text>
<rect height="7.000000" width="2.000000" x="685.000000" y="120.000000" fill="rgb(0, 0, 0)" style="fill-opacity:1.00" />
<text x="707.000000" y="140">
11
</text>
<rect height="7.000000" width="2.000000" x="745.000000" y="120.000000" fill="rgb(0, 0, 0)" style="fill-opacity:1.00" />
<line x1="80" y1="112" x2="80" y2="10" style="stroke:rgb(99,99,99);stroke-width:2" />
<rect height="2.000000" width="7.000000" x="73.000000" y="110.000000" fill="rgb(0, 0, 0)" style="fill-opacity:1.00" />
<text x="63" y="115">
0
</text>
<rect height="2.000000" width="7.000000" x="73.000000" y="60.000000" fill="rgb(0, 0, 0)" style="fill-opacity:1.00" />
<text x="63" y="65">
1
</text>
<rect height="2.000000" width="7.000000" x="73.000000" y="10.000000" fill="rgb(0, 0, 0)" style="fill-opacity:1.00" />
<text x="63" y="15">
2
</text>
<text x="50" y="65"
transform="rotate(-90, 50, 70)">
bits
</text>
<!-- Begin 'G' -->
<ellipse cx="115.000000" cy="107.090049" rx="25.000000" ry="0.621665" fill="rgb(255, 165, 0)" style="fill-opacity:1.00" />
<ellipse cx="115.000000" cy="107.090049" rx="16.666667" ry="0.414443" fill="rgb(255, 255, 255)" style="fill-opacity:1.00" />
<rect height="0.621665" width="25.000000" x="115.000000" y="106.779217" fill="rgb(255, 255, 255)" style="fill-opacity:1.00" />
<rect height="0.155416" width="25.000000" x="115.000000" y="107.245465" fill="rgb(255, 165, 0)" style="fill-opacity:1.00" />
<rect height="0.466249" width="6.250000" x="133.750000" y="107.245465" fill="rgb(255, 165, 0)" style="fill-opacity:1.00" />
<!-- End 'G' -->
<!-- Begin 'A' -->
<polygon points=" 90.000000, 108.768716, 111.000000, 107.711714, 119.000000, 107.711714, 140.000000, 108.768716, 132.500000, 108.768716, 126.250000, 108.504466, 103.750000, 108.504466, 97.500000, 108.768716" fill="rgb(178, 34, 34)" style="fill-opacity:1.00" />
<!-- End 'A' -->
<!-- Begin 'T' -->
<rect height="0.102427" width="50.000000" x="90.000000" y="108.768716" fill="rgb(0, 100, 0)" style="fill-opacity:1.00" />
<rect height="0.640168" width="10.000000" x="110.000000" y="108.768716" fill="rgb(0, 100, 0)" style="fill-opacity:1.00" />
<!-- End 'T' -->
<!-- Begin 'C' -->
<ellipse cx="115.000000" cy="109.704442" rx="25.000000" ry="0.295558" fill="rgb(0, 0, 128)" style="fill-opacity:1.00" />
<ellipse cx="115.000000" cy="109.704442" rx="16.666667" ry="0.197039" fill="rgb(255, 255, 255)" style="fill-opacity:1.00" />
<rect height="0.295558" width="25.000000" x="115.000000" y="109.556663" fill="rgb(255, 255, 255)" style="fill-opacity:1.00" />
<!-- End 'C' -->
<!-- Begin 'C' -->
<ellipse cx="175.000000" cy="104.597000" rx="25.000000" ry="1.080891" fill="rgb(0, 0, 128)" style="fill-opacity:1.00" />
<ellipse cx="175.000000" cy="104.597000" rx="16.666667" ry="0.720594" fill="rgb(255, 255, 255)" style="fill-opacity:1.00" />
<rect height="1.080891" width="25.000000" x="175.000000" y="104.056555" fill="rgb(255, 255, 255)" style="fill-opacity:1.00" />
<!-- End 'C' -->
<!-- Begin 'A' -->
<polygon points=" 150.000000, 107.763345, 171.000000, 105.677891, 179.000000, 105.677891, 200.000000, 107.763345, 192.500000, 107.763345, 186.250000, 107.241982, 163.750000, 107.241982, 157.500000, 107.763345" fill="rgb(178, 34, 34)" style="fill-opacity:1.00" />
<!-- End 'A' -->
<!-- Begin 'T' -->
<rect height="0.264297" width="50.000000" x="150.000000" y="107.763345" fill="rgb(0, 100, 0)" style="fill-opacity:1.00" />
<rect height="1.651858" width="10.000000" x="170.000000" y="107.763345" fill="rgb(0, 100, 0)" style="fill-opacity:1.00" />
<!-- End 'T' -->
<!-- Begin 'G' -->
<ellipse cx="175.000000" cy="109.707602" rx="25.000000" ry="0.292398" fill="rgb(255, 165, 0)" style="fill-opacity:1.00" />
<ellipse cx="175.000000" cy="109.707602" rx="16.666667" ry="0.194932" fill="rgb(255, 255, 255)" style="fill-opacity:1.00" />
<rect height="0.292398" width="25.000000" x="175.000000" y="109.561402" fill="rgb(255, 255, 255)" style="fill-opacity:1.00" />
<rect height="0.073100" width="25.000000" x="175.000000" y="109.780701" fill="rgb(255, 165, 0)" style="fill-opacity:1.00" />
<rect height="0.219299" width="6.250000" x="193.750000" y="109.780701" fill="rgb(255, 165, 0)" style="fill-opacity:1.00" />
<!-- End 'G' -->
<!-- Begin 'C' -->
<ellipse cx="235.000000" cy="102.750379" rx="25.000000" ry="1.680243" fill="rgb(0, 0, 128)" style="fill-opacity:1.00" />
<ellipse cx="235.000000" cy="102.750379" rx="16.666667" ry="1.120162" fill="rgb(255, 255, 255)" style="fill-opacity:1.00" />
<rect height="1.680243" width="25.000000" x="235.000000" y="101.910257" fill="rgb(255, 255, 255)" style="fill-opacity:1.00" />
<!-- End 'C' -->
<!-- Begin 'A' -->
<polygon points=" 210.000000, 107.160544, 231.000000, 104.430622, 239.000000, 104.430622, 260.000000, 107.160544, 252.500000, 107.160544, 246.250000, 106.478064, 223.750000, 106.478064, 217.500000, 107.160544" fill="rgb(178, 34, 34)" style="fill-opacity:1.00" />
<!-- End 'A' -->
<!-- Begin 'T' -->
<rect height="0.353750" width="50.000000" x="210.000000" y="107.160544" fill="rgb(0, 100, 0)" style="fill-opacity:1.00" />
<rect height="2.210937" width="10.000000" x="230.000000" y="107.160544" fill="rgb(0, 100, 0)" style="fill-opacity:1.00" />
<!-- End 'T' -->
<!-- Begin 'G' -->
<ellipse cx="235.000000" cy="109.685740" rx="25.000000" ry="0.314260" fill="rgb(255, 165, 0)" style="fill-opacity:1.00" />
<ellipse cx="235.000000" cy="109.685740" rx="16.666667" ry="0.209506" fill="rgb(255, 255, 255)" style="fill-opacity:1.00" />
<rect height="0.314260" width="25.000000" x="235.000000" y="109.528611" fill="rgb(255, 255, 255)" style="fill-opacity:1.00" />
<rect height="0.078565" width="25.000000" x="235.000000" y="109.764305" fill="rgb(255, 165, 0)" style="fill-opacity:1.00" />
<rect height="0.235695" width="6.250000" x="253.750000" y="109.764305" fill="rgb(255, 165, 0)" style="fill-opacity:1.00" />
<!-- End 'G' -->
<!-- Begin 'A' -->
<polygon points=" 270.000000, 98.818933, 291.000000, 61.292263, 299.000000, 61.292263, 320.000000, 98.818933, 312.500000, 98.818933, 306.250000, 89.437266, 283.750000, 89.437266, 277.500000, 98.818933" fill="rgb(178, 34, 34)" style="fill-opacity:1.00" />
<polygon points=" 295.000000, 68.797597, 287.000000, 82.808265, 302.000000, 82.808265" fill="rgb(255, 255, 255)" style="fill-opacity:1.00" />
<!-- End 'A' -->
<!-- Begin 'G' -->
<ellipse cx="295.000000" cy="102.960802" rx="25.000000" ry="4.141869" fill="rgb(255, 165, 0)" style="fill-opacity:1.00" />
<ellipse cx="295.000000" cy="102.960802" rx="16.666667" ry="2.761246" fill="rgb(255, 255, 255)" style="fill-opacity:1.00" />
<rect height="4.141869" width="25.000000" x="295.000000" y="100.889868" fill="rgb(255, 255, 255)" style="fill-opacity:1.00" />
<rect height="1.035467" width="25.000000" x="295.000000" y="103.996270" fill="rgb(255, 165, 0)" style="fill-opacity:1.00" />
<rect height="3.106402" width="6.250000" x="313.750000" y="103.996270" fill="rgb(255, 165, 0)" style="fill-opacity:1.00" />
<!-- End 'G' -->
<!-- Begin 'C' -->
<ellipse cx="295.000000" cy="107.892613" rx="25.000000" ry="0.789942" fill="rgb(0, 0, 128)" style="fill-opacity:1.00" />
<ellipse cx="295.000000" cy="107.892613" rx="16.666667" ry="0.526628" fill="rgb(255, 255, 255)" style="fill-opacity:1.00" />
<rect height="0.789942" width="25.000000" x="295.000000" y="107.497642" fill="rgb(255, 255, 255)" style="fill-opacity:1.00" />
<!-- End 'C' -->
<!-- Begin 'T' -->
<rect height="0.210791" width="50.000000" x="270.000000" y="108.682555" fill="rgb(0, 100, 0)" style="fill-opacity:1.00" />
<rect height="1.317445" width="10.000000" x="290.000000" y="108.682555" fill="rgb(0, 100, 0)" style="fill-opacity:1.00" />
<!-- End 'T' -->
<!-- Begin 'T' -->
<rect height="12.092479" width="50.000000" x="330.000000" y="29.930288" fill="rgb(0, 100, 0)" style="fill-opacity:1.00" />
<rect height="75.577992" width="10.000000" x="350.000000" y="29.930288" fill="rgb(0, 100, 0)" style="fill-opacity:1.00" />
<!-- End 'T' -->
<!-- Begin 'G' -->
<ellipse cx="355.000000" cy="106.441997" rx="25.000000" ry="0.933717" fill="rgb(255, 165, 0)" style="fill-opacity:1.00" />
<ellipse cx="355.000000" cy="106.441997" rx="16.666667" ry="0.622478" fill="rgb(255, 255, 255)" style="fill-opacity:1.00" />
<rect height="0.933717" width="25.000000" x="355.000000" y="105.975139" fill="rgb(255, 255, 255)" style="fill-opacity:1.00" />
<rect height="0.233429" width="25.000000" x="355.000000" y="106.675427" fill="rgb(255, 165, 0)" style="fill-opacity:1.00" />
<rect height="0.700288" width="6.250000" x="373.750000" y="106.675427" fill="rgb(255, 165, 0)" style="fill-opacity:1.00" />
<!-- End 'G' -->
<!-- Begin 'C' -->
<ellipse cx="355.000000" cy="108.157074" rx="25.000000" ry="0.781360" fill="rgb(0, 0, 128)" style="fill-opacity:1.00" />
<ellipse cx="355.000000" cy="108.157074" rx="16.666667" ry="0.520906" fill="rgb(255, 255, 255)" style="fill-opacity:1.00" />
<rect height="0.781360" width="25.000000" x="355.000000" y="107.766394" fill="rgb(255, 255, 255)" style="fill-opacity:1.00" />
<!-- End 'C' -->
<!-- Begin 'A' -->
<polygon points=" 330.000000, 110.000000, 351.000000, 108.938434, 359.000000, 108.938434, 380.000000, 110.000000, 372.500000, 110.000000, 366.250000, 109.734608, 343.750000, 109.734608, 337.500000, 110.000000" fill="rgb(178, 34, 34)" style="fill-opacity:1.00" />
<!-- End 'A' -->
<!-- Begin 'A' -->
<polygon points=" 390.000000, 100.809814, 411.000000, 83.477832, 419.000000, 83.477832, 440.000000, 100.809814, 432.500000, 100.809814, 426.250000, 96.476818, 403.750000, 96.476818, 397.500000, 100.809814" fill="rgb(178, 34, 34)" style="fill-opacity:1.00" />
<polygon points=" 415.000000, 86.944228, 407.000000, 92.877021, 422.000000, 92.877021" fill="rgb(255, 255, 255)" style="fill-opacity:1.00" />
<!-- End 'A' -->
<!-- Begin 'G' -->
<ellipse cx="415.000000" cy="102.795210" rx="25.000000" ry="1.985396" fill="rgb(255, 165, 0)" style="fill-opacity:1.00" />
<ellipse cx="415.000000" cy="102.795210" rx="16.666667" ry="1.323597" fill="rgb(255, 255, 255)" style="fill-opacity:1.00" />
<rect height="1.985396" width="25.000000" x="415.000000" y="101.802512" fill="rgb(255, 255, 255)" style="fill-opacity:1.00" />
<rect height="0.496349" width="25.000000" x="415.000000" y="103.291559" fill="rgb(255, 165, 0)" style="fill-opacity:1.00" />
<rect height="1.489047" width="6.250000" x="433.750000" y="103.291559" fill="rgb(255, 165, 0)" style="fill-opacity:1.00" />
<!-- End 'G' -->
<!-- Begin 'T' -->
<rect height="0.423689" width="50.000000" x="390.000000" y="104.780606" fill="rgb(0, 100, 0)" style="fill-opacity:1.00" />
<rect height="2.648054" width="10.000000" x="410.000000" y="104.780606" fill="rgb(0, 100, 0)" style="fill-opacity:1.00" />
<!-- End 'T' -->
<!-- Begin 'C' -->
<ellipse cx="415.000000" cy="108.714330" rx="25.000000" ry="1.285670" fill="rgb(0, 0, 128)" style="fill-opacity:1.00" />
<ellipse cx="415.000000" cy="108.714330" rx="16.666667" ry="0.857114" fill="rgb(255, 255, 255)" style="fill-opacity:1.00" />
<rect height="1.285670" width="25.000000" x="415.000000" y="108.071494" fill="rgb(255, 255, 255)" style="fill-opacity:1.00" />
<!-- End 'C' -->
<!-- Begin 'A' -->
<polygon points=" 450.000000, 98.205222, 471.000000, 60.939179, 479.000000, 60.939179, 500.000000, 98.205222, 492.500000, 98.205222, 486.250000, 88.888711, 463.750000, 88.888711, 457.500000, 98.205222" fill="rgb(178, 34, 34)" style="fill-opacity:1.00" />
<polygon points=" 475.000000, 68.392388, 467.000000, 82.298805, 482.000000, 82.298805" fill="rgb(255, 255, 255)" style="fill-opacity:1.00" />
<!-- End 'A' -->
<!-- Begin 'T' -->
<rect height="1.466145" width="50.000000" x="450.000000" y="98.205222" fill="rgb(0, 100, 0)" style="fill-opacity:1.00" />
<rect height="9.163405" width="10.000000" x="470.000000" y="98.205222" fill="rgb(0, 100, 0)" style="fill-opacity:1.00" />
<!-- End 'T' -->
<!-- Begin 'C' -->
<ellipse cx="475.000000" cy="108.418257" rx="25.000000" ry="1.049629" fill="rgb(0, 0, 128)" style="fill-opacity:1.00" />
<ellipse cx="475.000000" cy="108.418257" rx="16.666667" ry="0.699753" fill="rgb(255, 255, 255)" style="fill-opacity:1.00" />
<rect height="1.049629" width="25.000000" x="475.000000" y="107.893442" fill="rgb(255, 255, 255)" style="fill-opacity:1.00" />
<!-- End 'C' -->
<!-- Begin 'G' -->
<ellipse cx="475.000000" cy="109.733943" rx="25.000000" ry="0.266057" fill="rgb(255, 165, 0)" style="fill-opacity:1.00" />
<ellipse cx="475.000000" cy="109.733943" rx="16.666667" ry="0.177371" fill="rgb(255, 255, 255)" style="fill-opacity:1.00" />
<rect height="0.266057" width="25.000000" x="475.000000" y="109.600914" fill="rgb(255, 255, 255)" style="fill-opacity:1.00" />
<rect height="0.066514" width="25.000000" x="475.000000" y="109.800457" fill="rgb(255, 165, 0)" style="fill-opacity:1.00" />
<rect height="0.199543" width="6.250000" x="493.750000" y="109.800457" fill="rgb(255, 165, 0)" style="fill-opacity:1.00" />
<!-- End 'G' -->
<!-- Begin 'A' -->
<polygon points=" 510.000000, 98.775652, 531.000000, 63.804716, 539.000000, 63.804716, 560.000000, 98.775652, 552.500000, 98.775652, 546.250000, 90.032918, 523.750000, 90.032918, 517.500000, 98.775652" fill="rgb(178, 34, 34)" style="fill-opacity:1.00" />
<polygon points=" 535.000000, 70.798903, 527.000000, 83.787278, 542.000000, 83.787278" fill="rgb(255, 255, 255)" style="fill-opacity:1.00" />
<!-- End 'A' -->
<!-- Begin 'T' -->
<rect height="1.290353" width="50.000000" x="510.000000" y="98.775652" fill="rgb(0, 100, 0)" style="fill-opacity:1.00" />
<rect height="8.064709" width="10.000000" x="530.000000" y="98.775652" fill="rgb(0, 100, 0)" style="fill-opacity:1.00" />
<!-- End 'T' -->
<!-- Begin 'C' -->
<ellipse cx="535.000000" cy="107.717712" rx="25.000000" ry="0.877352" fill="rgb(0, 0, 128)" style="fill-opacity:1.00" />
<ellipse cx="535.000000" cy="107.717712" rx="16.666667" ry="0.584901" fill="rgb(255, 255, 255)" style="fill-opacity:1.00" />
<rect height="0.877352" width="25.000000" x="535.000000" y="107.279037" fill="rgb(255, 255, 255)" style="fill-opacity:1.00" />
<!-- End 'C' -->
<!-- Begin 'G' -->
<ellipse cx="535.000000" cy="109.297532" rx="25.000000" ry="0.702468" fill="rgb(255, 165, 0)" style="fill-opacity:1.00" />
<ellipse cx="535.000000" cy="109.297532" rx="16.666667" ry="0.468312" fill="rgb(255, 255, 255)" style="fill-opacity:1.00" />
<rect height="0.702468" width="25.000000" x="535.000000" y="108.946298" fill="rgb(255, 255, 255)" style="fill-opacity:1.00" />
<rect height="0.175617" width="25.000000" x="535.000000" y="109.473149" fill="rgb(255, 165, 0)" style="fill-opacity:1.00" />
<rect height="0.526851" width="6.250000" x="553.750000" y="109.473149" fill="rgb(255, 165, 0)" style="fill-opacity:1.00" />
<!-- End 'G' -->
<!-- Begin 'T' -->
<rect height="8.068355" width="50.000000" x="570.000000" y="49.877268" fill="rgb(0, 100, 0)" style="fill-opacity:1.00" />
<rect height="50.427217" width="10.000000" x="590.000000" y="49.877268" fill="rgb(0, 100, 0)" style="fill-opacity:1.00" />
<!-- End 'T' -->
<!-- Begin 'A' -->
<polygon points=" 570.000000, 107.716109, 591.000000, 100.304485, 599.000000, 100.304485, 620.000000, 107.716109, 612.500000, 107.716109, 606.250000, 105.863203, 583.750000, 105.863203, 577.500000, 107.716109" fill="rgb(178, 34, 34)" style="fill-opacity:1.00" />
<!-- End 'A' -->
<!-- Begin 'C' -->
<ellipse cx="595.000000" cy="108.521757" rx="25.000000" ry="0.805648" fill="rgb(0, 0, 128)" style="fill-opacity:1.00" />
<ellipse cx="595.000000" cy="108.521757" rx="16.666667" ry="0.537099" fill="rgb(255, 255, 255)" style="fill-opacity:1.00" />
<rect height="0.805648" width="25.000000" x="595.000000" y="108.118933" fill="rgb(255, 255, 255)" style="fill-opacity:1.00" />
<!-- End 'C' -->
<!-- Begin 'G' -->
<ellipse cx="595.000000" cy="109.663703" rx="25.000000" ry="0.336297" fill="rgb(255, 165, 0)" style="fill-opacity:1.00" />
<ellipse cx="595.000000" cy="109.663703" rx="16.666667" ry="0.224198" fill="rgb(255, 255, 255)" style="fill-opacity:1.00" />
<rect height="0.336297" width="25.000000" x="595.000000" y="109.495554" fill="rgb(255, 255, 255)" style="fill-opacity:1.00" />
<rect height="0.084074" width="25.000000" x="595.000000" y="109.747777" fill="rgb(255, 165, 0)" style="fill-opacity:1.00" />
<rect height="0.252223" width="6.250000" x="613.750000" y="109.747777" fill="rgb(255, 165, 0)" style="fill-opacity:1.00" />
<!-- End 'G' -->
<!-- Begin 'C' -->
<ellipse cx="655.000000" cy="91.842916" rx="25.000000" ry="7.008594" fill="rgb(0, 0, 128)" style="fill-opacity:1.00" />
<ellipse cx="655.000000" cy="91.842916" rx="16.666667" ry="4.672396" fill="rgb(255, 255, 255)" style="fill-opacity:1.00" />
<rect height="7.008594" width="25.000000" x="655.000000" y="88.338619" fill="rgb(255, 255, 255)" style="fill-opacity:1.00" />
<!-- End 'C' -->
<!-- Begin 'T' -->
<rect height="1.118095" width="50.000000" x="630.000000" y="98.851510" fill="rgb(0, 100, 0)" style="fill-opacity:1.00" />
<rect height="6.988095" width="10.000000" x="650.000000" y="98.851510" fill="rgb(0, 100, 0)" style="fill-opacity:1.00" />
<!-- End 'T' -->
<!-- Begin 'A' -->
<polygon points=" 630.000000, 109.532160, 651.000000, 105.839605, 659.000000, 105.839605, 680.000000, 109.532160, 672.500000, 109.532160, 666.250000, 108.609021, 643.750000, 108.609021, 637.500000, 109.532160" fill="rgb(178, 34, 34)" style="fill-opacity:1.00" />
<!-- End 'A' -->
<!-- Begin 'G' -->
<ellipse cx="655.000000" cy="109.766080" rx="25.000000" ry="0.233920" fill="rgb(255, 165, 0)" style="fill-opacity:1.00" />
<ellipse cx="655.000000" cy="109.766080" rx="16.666667" ry="0.155947" fill="rgb(255, 255, 255)" style="fill-opacity:1.00" />
<rect height="0.233920" width="25.000000" x="655.000000" y="109.649120" fill="rgb(255, 255, 255)" style="fill-opacity:1.00" />
<rect height="0.058480" width="25.000000" x="655.000000" y="109.824560" fill="rgb(255, 165, 0)" style="fill-opacity:1.00" />
<rect height="0.175440" width="6.250000" x="673.750000" y="109.824560" fill="rgb(255, 165, 0)" style="fill-opacity:1.00" />
<!-- End 'G' -->
<!-- Begin 'A' -->
<polygon points=" 690.000000, 97.307757, 711.000000, 69.499164, 719.000000, 69.499164, 740.000000, 97.307757, 732.500000, 97.307757, 726.250000, 90.355609, 703.750000, 90.355609, 697.500000, 97.307757" fill="rgb(178, 34, 34)" style="fill-opacity:1.00" />
<polygon points=" 715.000000, 75.060883, 707.000000, 85.184320, 722.000000, 85.184320" fill="rgb(255, 255, 255)" style="fill-opacity:1.00" />
<!-- End 'A' -->
<!-- Begin 'T' -->
<rect height="1.565586" width="50.000000" x="690.000000" y="97.307757" fill="rgb(0, 100, 0)" style="fill-opacity:1.00" />
<rect height="9.784911" width="10.000000" x="710.000000" y="97.307757" fill="rgb(0, 100, 0)" style="fill-opacity:1.00" />
<!-- End 'T' -->
<!-- Begin 'C' -->
<ellipse cx="715.000000" cy="108.276967" rx="25.000000" ry="1.184300" fill="rgb(0, 0, 128)" style="fill-opacity:1.00" />
<ellipse cx="715.000000" cy="108.276967" rx="16.666667" ry="0.789533" fill="rgb(255, 255, 255)" style="fill-opacity:1.00" />
<rect height="1.184300" width="25.000000" x="715.000000" y="107.684817" fill="rgb(255, 255, 255)" style="fill-opacity:1.00" />
<!-- End 'C' -->
<!-- Begin 'G' -->
<ellipse cx="715.000000" cy="109.730633" rx="25.000000" ry="0.269367" fill="rgb(255, 165, 0)" style="fill-opacity:1.00" />
<ellipse cx="715.000000" cy="109.730633" rx="16.666667" ry="0.179578" fill="rgb(255, 255, 255)" style="fill-opacity:1.00" />
<rect height="0.269367" width="25.000000" x="715.000000" y="109.595950" fill="rgb(255, 255, 255)" style="fill-opacity:1.00" />
<rect height="0.067342" width="25.000000" x="715.000000" y="109.797975" fill="rgb(255, 165, 0)" style="fill-opacity:1.00" />
<rect height="0.202025" width="6.250000" x="733.750000" y="109.797975" fill="rgb(255, 165, 0)" style="fill-opacity:1.00" />
<!-- End 'G' -->
<text x="400.000000" y="165">
IC = 7.91
</text>

</svg>
