<?xml version="1.0" encoding="UTF-8" standalone="yes"?>
                 <!DOCTYPE svg PUBLIC "-//W3C//DTD SVG 1.0//EN" "http://www.w3.org/TR/2001/REC-SVG-20010904/DTD/svg10.dtd">
                 <svg height="170" width="1080" xmlns="http://www.w3.org/2000/svg" xmlns:xlink="http://www.w3.org/1999/xlink">
                 <line x1="85" y1="120" x2="1047" y2="120" style="stroke:rgb(99,99,99);stroke-width:2" />
<rect height="7.000000" width="2.000000" x="85.000000" y="120.000000" fill="rgb(0, 0, 0)" style="fill-opacity:1.00" />
<text x="107.000000" y="140">
1
</text>
<rect height="7.000000" width="2.000000" x="145.000000" y="120.000000" fill="rgb(0, 0, 0)" style="fill-opacity:1.00" />
<text x="167.000000" y="140">
2
</text>
<rect height="7.000000" width="2.000000" x="205.000000" y="120.000000" fill="rgb(0, 0, 0)" style="fill-opacity:1.00" />
<text x="227.000000" y="140">
3
</text>
<rect height="7.000000" width="2.000000" x="265.000000" y="120.000000" fill="rgb(0, 0, 0)" style="fill-opacity:1.00" />
<text x="287.000000" y="140">
4
</text>
<rect height="7.000000" width="2.000000" x="325.000000" y="120.000000" fill="rgb(0, 0, 0)" style="fill-opacity:1.00" />
<text x="347.000000" y="140">
5
</text>
<rect height="7.000000" width="2.000000" x="385.000000" y="120.000000" fill="rgb(0, 0, 0)" style="fill-opacity:1.00" />
<text x="407.000000" y="140">
6
</text>
<rect height="7.000000" width="2.000000" x="445.000000" y="120.000000" fill="rgb(0, 0, 0)" style="fill-opacity:1.00" />
<text x="467.000000" y="140">
7
</text>
<rect height="7.000000" width="2.000000" x="505.000000" y="120.000000" fill="rgb(0, 0, 0)" style="fill-opacity:1.00" />
<text x="527.000000" y="140">
8
</text>
<rect height="7.000000" width="2.000000" x="565.000000" y="120.000000" fill="rgb(0, 0, 0)" style="fill-opacity:1.00" />
<text x="587.000000" y="140">
9
</text>
<rect height="7.000000" width="2.000000" x="625.000000" y="120.000000" fill="rgb(0, 0, 0)" style="fill-opacity:1.00" />
<text x="647.000000" y="140">
10
</text>
<rect height="7.000000" width="2.000000" x="685.000000" y="120.000000" fill="rgb(0, 0, 0)" style="fill-opacity:1.00" />
<text x="707.000000" y="140">
11
</text>
<rect height="7.000000" width="2.000000" x="745.000000" y="120.000000" fill="rgb(0, 0, 0)" style="fill-opacity:1.00" />
<text x="767.000000" y="140">
12
</text>
<rect height="7.000000" width="2.000000" x="805.000000" y="120.000000" fill="rgb(0, 0, 0)" style="fill-opacity:1.00" />
<text x="827.000000" y="140">
13
</text>
<rect height="7.000000" width="2.000000" x="865.000000" y="120.000000" fill="rgb(0, 0, 0)" style="fill-opacity:1.00" />
<text x="887.000000" y="140">
14
</text>
<rect height="7.000000" width="2.000000" x="925.000000" y="120.000000" fill="rgb(0, 0, 0)" style="fill-opacity:1.00" />
<text x="947.000000" y="140">
15
</text>
<rect height="7.000000" width="2.000000" x="985.000000" y="120.000000" fill="rgb(0, 0, 0)" style="fill-opacity:1.00" />
<text x="1007.000000" y="140">
16
</text>
<rect height="7.000000" width="2.000000" x="1045.000000" y="120.000000" fill="rgb(0, 0, 0)" style="fill-opacity:1.00" />
<line x1="80" y1="112" x2="80" y2="10" style="stroke:rgb(99,99,99);stroke-width:2" />
<rect height="2.000000" width="7.000000" x="73.000000" y="110.000000" fill="rgb(0, 0, 0)" style="fill-opacity:1.00" />
<text x="63" y="115">
0
</text>
<rect height="2.000000" width="7.000000" x="73.000000" y="60.000000" fill="rgb(0, 0, 0)" style="fill-opacity:1.00" />
<text x="63" y="65">
1
</text>
<rect height="2.000000" width="7.000000" x="73.000000" y="10.000000" fill="rgb(0, 0, 0)" style="fill-opacity:1.00" />
<text x="63" y="15">
2
</text>
<text x="50" y="65"
transform="rotate(-90, 50, 70)">
bits
</text>
<!-- Begin 'T' -->
<rect height="1.081634" width="50.000000" x="90.000000" y="96.800340" fill="rgb(0, 100, 0)" style="fill-opacity:1.00" />
<rect height="6.760213" width="10.000000" x="110.000000" y="96.800340" fill="rgb(0, 100, 0)" style="fill-opacity:1.00" />
<!-- End 'T' -->
<!-- Begin 'A' -->
<polygon points=" 90.000000, 106.346666, 111.000000, 103.560553, 119.000000, 103.560553, 140.000000, 106.346666, 132.500000, 106.346666, 126.250000, 105.650138, 103.750000, 105.650138, 97.500000, 106.346666" fill="rgb(178, 34, 34)" style="fill-opacity:1.00" />
<!-- End 'A' -->
<!-- Begin 'C' -->
<ellipse cx="115.000000" cy="107.558951" rx="25.000000" ry="1.212285" fill="rgb(0, 0, 128)" style="fill-opacity:1.00" />
<ellipse cx="115.000000" cy="107.558951" rx="16.666667" ry="0.808190" fill="rgb(255, 255, 255)" style="fill-opacity:1.00" />
<rect height="1.212285" width="25.000000" x="115.000000" y="106.952808" fill="rgb(255, 255, 255)" style="fill-opacity:1.00" />
<!-- End 'C' -->
<!-- Begin 'G' -->
<ellipse cx="115.000000" cy="109.385618" rx="25.000000" ry="0.614382" fill="rgb(255, 165, 0)" style="fill-opacity:1.00" />
<ellipse cx="115.000000" cy="109.385618" rx="16.666667" ry="0.409588" fill="rgb(255, 255, 255)" style="fill-opacity:1.00" />
<rect height="0.614382" width="25.000000" x="115.000000" y="109.078427" fill="rgb(255, 255, 255)" style="fill-opacity:1.00" />
<rect height="0.153595" width="25.000000" x="115.000000" y="109.539214" fill="rgb(255, 165, 0)" style="fill-opacity:1.00" />
<rect height="0.460786" width="6.250000" x="133.750000" y="109.539214" fill="rgb(255, 165, 0)" style="fill-opacity:1.00" />
<!-- End 'G' -->
<!-- Begin 'T' -->
<rect height="0.680097" width="50.000000" x="150.000000" y="100.382894" fill="rgb(0, 100, 0)" style="fill-opacity:1.00" />
<rect height="4.250608" width="10.000000" x="170.000000" y="100.382894" fill="rgb(0, 100, 0)" style="fill-opacity:1.00" />
<!-- End 'T' -->
<!-- Begin 'G' -->
<ellipse cx="175.000000" cy="106.058652" rx="25.000000" ry="1.425150" fill="rgb(255, 165, 0)" style="fill-opacity:1.00" />
<ellipse cx="175.000000" cy="106.058652" rx="16.666667" ry="0.950100" fill="rgb(255, 255, 255)" style="fill-opacity:1.00" />
<rect height="1.425150" width="25.000000" x="175.000000" y="105.346077" fill="rgb(255, 255, 255)" style="fill-opacity:1.00" />
<rect height="0.356288" width="25.000000" x="175.000000" y="106.414940" fill="rgb(255, 165, 0)" style="fill-opacity:1.00" />
<rect height="1.068863" width="6.250000" x="193.750000" y="106.414940" fill="rgb(255, 165, 0)" style="fill-opacity:1.00" />
<!-- End 'G' -->
<!-- Begin 'A' -->
<polygon points=" 150.000000, 108.818544, 171.000000, 107.483802, 179.000000, 107.483802, 200.000000, 108.818544, 192.500000, 108.818544, 186.250000, 108.484858, 163.750000, 108.484858, 157.500000, 108.818544" fill="rgb(178, 34, 34)" style="fill-opacity:1.00" />
<!-- End 'A' -->
<!-- Begin 'C' -->
<ellipse cx="175.000000" cy="109.409272" rx="25.000000" ry="0.590728" fill="rgb(0, 0, 128)" style="fill-opacity:1.00" />
<ellipse cx="175.000000" cy="109.409272" rx="16.666667" ry="0.393819" fill="rgb(255, 255, 255)" style="fill-opacity:1.00" />
<rect height="0.590728" width="25.000000" x="175.000000" y="109.113908" fill="rgb(255, 255, 255)" style="fill-opacity:1.00" />
<!-- End 'C' -->
<!-- Begin 'G' -->
<ellipse cx="235.000000" cy="109.235693" rx="25.000000" ry="0.131207" fill="rgb(255, 165, 0)" style="fill-opacity:1.00" />
<ellipse cx="235.000000" cy="109.235693" rx="16.666667" ry="0.087471" fill="rgb(255, 255, 255)" style="fill-opacity:1.00" />
<rect height="0.131207" width="25.000000" x="235.000000" y="109.170090" fill="rgb(255, 255, 255)" style="fill-opacity:1.00" />
<rect height="0.032802" width="25.000000" x="235.000000" y="109.268495" fill="rgb(255, 165, 0)" style="fill-opacity:1.00" />
<rect height="0.098405" width="6.250000" x="253.750000" y="109.268495" fill="rgb(255, 165, 0)" style="fill-opacity:1.00" />
<!-- End 'G' -->
<!-- Begin 'T' -->
<rect height="0.040665" width="50.000000" x="210.000000" y="109.366900" fill="rgb(0, 100, 0)" style="fill-opacity:1.00" />
<rect height="0.254155" width="10.000000" x="230.000000" y="109.366900" fill="rgb(0, 100, 0)" style="fill-opacity:1.00" />
<!-- End 'T' -->
<!-- Begin 'C' -->
<ellipse cx="235.000000" cy="109.720325" rx="25.000000" ry="0.099270" fill="rgb(0, 0, 128)" style="fill-opacity:1.00" />
<ellipse cx="235.000000" cy="109.720325" rx="16.666667" ry="0.066180" fill="rgb(255, 255, 255)" style="fill-opacity:1.00" />
<rect height="0.099270" width="25.000000" x="235.000000" y="109.670690" fill="rgb(255, 255, 255)" style="fill-opacity:1.00" />
<!-- End 'C' -->
<!-- Begin 'A' -->
<polygon points=" 210.000000, 110.000000, 231.000000, 109.819595, 239.000000, 109.819595, 260.000000, 110.000000, 252.500000, 110.000000, 246.250000, 109.954899, 223.750000, 109.954899, 217.500000, 110.000000" fill="rgb(178, 34, 34)" style="fill-opacity:1.00" />
<!-- End 'A' -->
<!-- Begin 'C' -->
<ellipse cx="295.000000" cy="70.627667" rx="25.000000" ry="33.270417" fill="rgb(0, 0, 128)" style="fill-opacity:1.00" />
<ellipse cx="295.000000" cy="70.627667" rx="16.666667" ry="22.180278" fill="rgb(255, 255, 255)" style="fill-opacity:1.00" />
<rect height="33.270417" width="25.000000" x="295.000000" y="53.992458" fill="rgb(255, 255, 255)" style="fill-opacity:1.00" />
<!-- End 'C' -->
<!-- Begin 'A' -->
<polygon points=" 270.000000, 106.477642, 291.000000, 103.898083, 299.000000, 103.898083, 320.000000, 106.477642, 312.500000, 106.477642, 306.250000, 105.832752, 283.750000, 105.832752, 277.500000, 106.477642" fill="rgb(178, 34, 34)" style="fill-opacity:1.00" />
<!-- End 'A' -->
<!-- Begin 'G' -->
<ellipse cx="295.000000" cy="107.369623" rx="25.000000" ry="0.891981" fill="rgb(255, 165, 0)" style="fill-opacity:1.00" />
<ellipse cx="295.000000" cy="107.369623" rx="16.666667" ry="0.594654" fill="rgb(255, 255, 255)" style="fill-opacity:1.00" />
<rect height="0.891981" width="25.000000" x="295.000000" y="106.923632" fill="rgb(255, 255, 255)" style="fill-opacity:1.00" />
<rect height="0.222995" width="25.000000" x="295.000000" y="107.592618" fill="rgb(255, 165, 0)" style="fill-opacity:1.00" />
<rect height="0.668986" width="6.250000" x="313.750000" y="107.592618" fill="rgb(255, 165, 0)" style="fill-opacity:1.00" />
<!-- End 'G' -->
<!-- Begin 'T' -->
<rect height="0.278143" width="50.000000" x="270.000000" y="108.261603" fill="rgb(0, 100, 0)" style="fill-opacity:1.00" />
<rect height="1.738397" width="10.000000" x="290.000000" y="108.261603" fill="rgb(0, 100, 0)" style="fill-opacity:1.00" />
<!-- End 'T' -->
<!-- Begin 'C' -->
<ellipse cx="355.000000" cy="68.293532" rx="25.000000" ry="34.567255" fill="rgb(0, 0, 128)" style="fill-opacity:1.00" />
<ellipse cx="355.000000" cy="68.293532" rx="16.666667" ry="23.044836" fill="rgb(255, 255, 255)" style="fill-opacity:1.00" />
<rect height="34.567255" width="25.000000" x="355.000000" y="51.009905" fill="rgb(255, 255, 255)" style="fill-opacity:1.00" />
<!-- End 'C' -->
<!-- Begin 'T' -->
<rect height="1.091496" width="50.000000" x="330.000000" y="102.860787" fill="rgb(0, 100, 0)" style="fill-opacity:1.00" />
<rect height="6.821853" width="10.000000" x="350.000000" y="102.860787" fill="rgb(0, 100, 0)" style="fill-opacity:1.00" />
<!-- End 'T' -->
<!-- Begin 'A' -->
<polygon points=" 330.000000, 109.976249, 351.000000, 109.682640, 359.000000, 109.682640, 380.000000, 109.976249, 372.500000, 109.976249, 366.250000, 109.902847, 343.750000, 109.902847, 337.500000, 109.976249" fill="rgb(178, 34, 34)" style="fill-opacity:1.00" />
<!-- End 'A' -->
<!-- Begin 'G' -->
<ellipse cx="355.000000" cy="109.988125" rx="25.000000" ry="0.011875" fill="rgb(255, 165, 0)" style="fill-opacity:1.00" />
<ellipse cx="355.000000" cy="109.988125" rx="16.666667" ry="0.007917" fill="rgb(255, 255, 255)" style="fill-opacity:1.00" />
<rect height="0.011875" width="25.000000" x="355.000000" y="109.982187" fill="rgb(255, 255, 255)" style="fill-opacity:1.00" />
<rect height="0.002969" width="25.000000" x="355.000000" y="109.991093" fill="rgb(255, 165, 0)" style="fill-opacity:1.00" />
<rect height="0.008907" width="6.250000" x="373.750000" y="109.991093" fill="rgb(255, 165, 0)" style="fill-opacity:1.00" />
<!-- End 'G' -->
<!-- Begin 'A' -->
<polygon points=" 390.000000, 95.304684, 411.000000, 77.377405, 419.000000, 77.377405, 440.000000, 95.304684, 432.500000, 95.304684, 426.250000, 90.822864, 403.750000, 90.822864, 397.500000, 95.304684" fill="rgb(178, 34, 34)" style="fill-opacity:1.00" />
<polygon points=" 415.000000, 80.962861, 407.000000, 87.133772, 422.000000, 87.133772" fill="rgb(255, 255, 255)" style="fill-opacity:1.00" />
<!-- End 'A' -->
<!-- Begin 'T' -->
<rect height="1.960241" width="50.000000" x="390.000000" y="95.304684" fill="rgb(0, 100, 0)" style="fill-opacity:1.00" />
<rect height="12.251504" width="10.000000" x="410.000000" y="95.304684" fill="rgb(0, 100, 0)" style="fill-opacity:1.00" />
<!-- End 'T' -->
<!-- Begin 'C' -->
<ellipse cx="415.000000" cy="108.457351" rx="25.000000" ry="0.901164" fill="rgb(0, 0, 128)" style="fill-opacity:1.00" />
<ellipse cx="415.000000" cy="108.457351" rx="16.666667" ry="0.600776" fill="rgb(255, 255, 255)" style="fill-opacity:1.00" />
<rect height="0.901164" width="25.000000" x="415.000000" y="108.006769" fill="rgb(255, 255, 255)" style="fill-opacity:1.00" />
<!-- End 'C' -->
<!-- Begin 'G' -->
<ellipse cx="415.000000" cy="109.679257" rx="25.000000" ry="0.320743" fill="rgb(255, 165, 0)" style="fill-opacity:1.00" />
<ellipse cx="415.000000" cy="109.679257" rx="16.666667" ry="0.213828" fill="rgb(255, 255, 255)" style="fill-opacity:1.00" />
<rect height="0.320743" width="25.000000" x="415.000000" y="109.518886" fill="rgb(255, 255, 255)" style="fill-opacity:1.00" />
<rect height="0.080186" width="25.000000" x="415.000000" y="109.759443" fill="rgb(255, 165, 0)" style="fill-opacity:1.00" />
<rect height="0.240557" width="6.250000" x="433.750000" y="109.759443" fill="rgb(255, 165, 0)" style="fill-opacity:1.00" />
<!-- End 'G' -->
<!-- Begin 'T' -->
<rect height="3.753582" width="50.000000" x="450.000000" y="73.324584" fill="rgb(0, 100, 0)" style="fill-opacity:1.00" />
<rect height="23.459889" width="10.000000" x="470.000000" y="73.324584" fill="rgb(0, 100, 0)" style="fill-opacity:1.00" />
<!-- End 'T' -->
<!-- Begin 'A' -->
<polygon points=" 450.000000, 107.383015, 471.000000, 96.784473, 479.000000, 96.784473, 500.000000, 107.383015, 492.500000, 107.383015, 486.250000, 104.733379, 463.750000, 104.733379, 457.500000, 107.383015" fill="rgb(178, 34, 34)" style="fill-opacity:1.00" />
<polygon points=" 475.000000, 98.904181, 467.000000, 102.143598, 482.000000, 102.143598" fill="rgb(255, 255, 255)" style="fill-opacity:1.00" />
<!-- End 'A' -->
<!-- Begin 'G' -->
<ellipse cx="475.000000" cy="108.267854" rx="25.000000" ry="0.884839" fill="rgb(255, 165, 0)" style="fill-opacity:1.00" />
<ellipse cx="475.000000" cy="108.267854" rx="16.666667" ry="0.589893" fill="rgb(255, 255, 255)" style="fill-opacity:1.00" />
<rect height="0.884839" width="25.000000" x="475.000000" y="107.825435" fill="rgb(255, 255, 255)" style="fill-opacity:1.00" />
<rect height="0.221210" width="25.000000" x="475.000000" y="108.489064" fill="rgb(255, 165, 0)" style="fill-opacity:1.00" />
<rect height="0.663629" width="6.250000" x="493.750000" y="108.489064" fill="rgb(255, 165, 0)" style="fill-opacity:1.00" />
<!-- End 'G' -->
<!-- Begin 'C' -->
<ellipse cx="475.000000" cy="109.576347" rx="25.000000" ry="0.423653" fill="rgb(0, 0, 128)" style="fill-opacity:1.00" />
<ellipse cx="475.000000" cy="109.576347" rx="16.666667" ry="0.282435" fill="rgb(255, 255, 255)" style="fill-opacity:1.00" />
<rect height="0.423653" width="25.000000" x="475.000000" y="109.364520" fill="rgb(255, 255, 255)" style="fill-opacity:1.00" />
<!-- End 'C' -->
<!-- Begin 'A' -->
<polygon points=" 510.000000, 98.833834, 531.000000, 60.281054, 539.000000, 60.281054, 560.000000, 98.833834, 552.500000, 98.833834, 546.250000, 89.195639, 523.750000, 89.195639, 517.500000, 98.833834" fill="rgb(178, 34, 34)" style="fill-opacity:1.00" />
<polygon points=" 535.000000, 67.991610, 527.000000, 82.412722, 542.000000, 82.412722" fill="rgb(255, 255, 255)" style="fill-opacity:1.00" />
<!-- End 'A' -->
<!-- Begin 'T' -->
<rect height="1.295106" width="50.000000" x="510.000000" y="98.833834" fill="rgb(0, 100, 0)" style="fill-opacity:1.00" />
<rect height="8.094412" width="10.000000" x="530.000000" y="98.833834" fill="rgb(0, 100, 0)" style="fill-opacity:1.00" />
<!-- End 'T' -->
<!-- Begin 'G' -->
<ellipse cx="535.000000" cy="108.131611" rx="25.000000" ry="1.203365" fill="rgb(255, 165, 0)" style="fill-opacity:1.00" />
<ellipse cx="535.000000" cy="108.131611" rx="16.666667" ry="0.802243" fill="rgb(255, 255, 255)" style="fill-opacity:1.00" />
<rect height="1.203365" width="25.000000" x="535.000000" y="107.529928" fill="rgb(255, 255, 255)" style="fill-opacity:1.00" />
<rect height="0.300841" width="25.000000" x="535.000000" y="108.432452" fill="rgb(255, 165, 0)" style="fill-opacity:1.00" />
<rect height="0.902523" width="6.250000" x="553.750000" y="108.432452" fill="rgb(255, 165, 0)" style="fill-opacity:1.00" />
<!-- End 'G' -->
<!-- Begin 'C' -->
<ellipse cx="535.000000" cy="109.667488" rx="25.000000" ry="0.332512" fill="rgb(0, 0, 128)" style="fill-opacity:1.00" />
<ellipse cx="535.000000" cy="109.667488" rx="16.666667" ry="0.221675" fill="rgb(255, 255, 255)" style="fill-opacity:1.00" />
<rect height="0.332512" width="25.000000" x="535.000000" y="109.501231" fill="rgb(255, 255, 255)" style="fill-opacity:1.00" />
<!-- End 'C' -->
<!-- Begin 'T' -->
<rect height="6.498689" width="50.000000" x="570.000000" y="58.585811" fill="rgb(0, 100, 0)" style="fill-opacity:1.00" />
<rect height="40.616809" width="10.000000" x="590.000000" y="58.585811" fill="rgb(0, 100, 0)" style="fill-opacity:1.00" />
<!-- End 'T' -->
<!-- Begin 'A' -->
<polygon points=" 570.000000, 106.979868, 591.000000, 99.202619, 599.000000, 99.202619, 620.000000, 106.979868, 612.500000, 106.979868, 606.250000, 105.035556, 583.750000, 105.035556, 577.500000, 106.979868" fill="rgb(178, 34, 34)" style="fill-opacity:1.00" />
<!-- End 'A' -->
<!-- Begin 'C' -->
<ellipse cx="595.000000" cy="108.059465" rx="25.000000" ry="1.079597" fill="rgb(0, 0, 128)" style="fill-opacity:1.00" />
<ellipse cx="595.000000" cy="108.059465" rx="16.666667" ry="0.719731" fill="rgb(255, 255, 255)" style="fill-opacity:1.00" />
<rect height="1.079597" width="25.000000" x="595.000000" y="107.519666" fill="rgb(255, 255, 255)" style="fill-opacity:1.00" />
<!-- End 'C' -->
<!-- Begin 'G' -->
<ellipse cx="595.000000" cy="109.569531" rx="25.000000" ry="0.430469" fill="rgb(255, 165, 0)" style="fill-opacity:1.00" />
<ellipse cx="595.000000" cy="109.569531" rx="16.666667" ry="0.286979" fill="rgb(255, 255, 255)" style="fill-opacity:1.00" />
<rect height="0.430469" width="25.000000" x="595.000000" y="109.354296" fill="rgb(255, 255, 255)" style="fill-opacity:1.00" />
<rect height="0.107617" width="25.000000" x="595.000000" y="109.677148" fill="rgb(255, 165, 0)" style="fill-opacity:1.00" />
<rect height="0.322852" width="6.250000" x="613.750000" y="109.677148" fill="rgb(255, 165, 0)" style="fill-opacity:1.00" />
<!-- End 'G' -->
<!-- Begin 'A' -->
<polygon points=" 630.000000, 96.782490, 651.000000, 69.822818, 659.000000, 69.822818, 680.000000, 96.782490, 672.500000, 96.782490, 666.250000, 90.042572, 643.750000, 90.042572, 637.500000, 96.782490" fill="rgb(178, 34, 34)" style="fill-opacity:1.00" />
<polygon points=" 655.000000, 75.214752, 647.000000, 84.998621, 662.000000, 84.998621" fill="rgb(255, 255, 255)" style="fill-opacity:1.00" />
<!-- End 'A' -->
<!-- Begin 'T' -->
<rect height="1.734465" width="50.000000" x="630.000000" y="96.782490" fill="rgb(0, 100, 0)" style="fill-opacity:1.00" />
<rect height="10.840409" width="10.000000" x="650.000000" y="96.782490" fill="rgb(0, 100, 0)" style="fill-opacity:1.00" />
<!-- End 'T' -->
<!-- Begin 'C' -->
<ellipse cx="655.000000" cy="108.258932" rx="25.000000" ry="0.636033" fill="rgb(0, 0, 128)" style="fill-opacity:1.00" />
<ellipse cx="655.000000" cy="108.258932" rx="16.666667" ry="0.424022" fill="rgb(255, 255, 255)" style="fill-opacity:1.00" />
<rect height="0.636033" width="25.000000" x="655.000000" y="107.940915" fill="rgb(255, 255, 255)" style="fill-opacity:1.00" />
<!-- End 'C' -->
<!-- Begin 'G' -->
<ellipse cx="655.000000" cy="109.447482" rx="25.000000" ry="0.552518" fill="rgb(255, 165, 0)" style="fill-opacity:1.00" />
<ellipse cx="655.000000" cy="109.447482" rx="16.666667" ry="0.368345" fill="rgb(255, 255, 255)" style="fill-opacity:1.00" />
<rect height="0.552518" width="25.000000" x="655.000000" y="109.171224" fill="rgb(255, 255, 255)" style="fill-opacity:1.00" />
<rect height="0.138129" width="25.000000" x="655.000000" y="109.585612" fill="rgb(255, 165, 0)" style="fill-opacity:1.00" />
<rect height="0.414388" width="6.250000" x="673.750000" y="109.585612" fill="rgb(255, 165, 0)" style="fill-opacity:1.00" />
<!-- End 'G' -->
<!-- Begin 'T' -->
<rect height="2.717759" width="50.000000" x="690.000000" y="77.737546" fill="rgb(0, 100, 0)" style="fill-opacity:1.00" />
<rect height="16.985996" width="10.000000" x="710.000000" y="77.737546" fill="rgb(0, 100, 0)" style="fill-opacity:1.00" />
<!-- End 'T' -->
<!-- Begin 'A' -->
<polygon points=" 690.000000, 107.627832, 711.000000, 94.723543, 719.000000, 94.723543, 740.000000, 107.627832, 732.500000, 107.627832, 726.250000, 104.401760, 703.750000, 104.401760, 697.500000, 107.627832" fill="rgb(178, 34, 34)" style="fill-opacity:1.00" />
<polygon points=" 715.000000, 97.304400, 707.000000, 101.466116, 722.000000, 101.466116" fill="rgb(255, 255, 255)" style="fill-opacity:1.00" />
<!-- End 'A' -->
<!-- Begin 'G' -->
<ellipse cx="715.000000" cy="108.494142" rx="25.000000" ry="0.866310" fill="rgb(255, 165, 0)" style="fill-opacity:1.00" />
<ellipse cx="715.000000" cy="108.494142" rx="16.666667" ry="0.577540" fill="rgb(255, 255, 255)" style="fill-opacity:1.00" />
<rect height="0.866310" width="25.000000" x="715.000000" y="108.060987" fill="rgb(255, 255, 255)" style="fill-opacity:1.00" />
<rect height="0.216578" width="25.000000" x="715.000000" y="108.710720" fill="rgb(255, 165, 0)" style="fill-opacity:1.00" />
<rect height="0.649733" width="6.250000" x="733.750000" y="108.710720" fill="rgb(255, 165, 0)" style="fill-opacity:1.00" />
<!-- End 'G' -->
<!-- Begin 'C' -->
<ellipse cx="715.000000" cy="109.680226" rx="25.000000" ry="0.319774" fill="rgb(0, 0, 128)" style="fill-opacity:1.00" />
<ellipse cx="715.000000" cy="109.680226" rx="16.666667" ry="0.213183" fill="rgb(255, 255, 255)" style="fill-opacity:1.00" />
<rect height="0.319774" width="25.000000" x="715.000000" y="109.520339" fill="rgb(255, 255, 255)" style="fill-opacity:1.00" />
<!-- End 'C' -->
<!-- Begin 'G' -->
<ellipse cx="775.000000" cy="66.659564" rx="25.000000" ry="37.615345" fill="rgb(255, 165, 0)" style="fill-opacity:1.00" />
<ellipse cx="775.000000" cy="66.659564" rx="16.666667" ry="25.076897" fill="rgb(255, 255, 255)" style="fill-opacity:1.00" />
<rect height="37.615345" width="25.000000" x="775.000000" y="47.851891" fill="rgb(255, 255, 255)" style="fill-opacity:1.00" />
<rect height="9.403836" width="25.000000" x="775.000000" y="76.063400" fill="rgb(255, 165, 0)" style="fill-opacity:1.00" />
<rect height="28.211509" width="6.250000" x="793.750000" y="76.063400" fill="rgb(255, 165, 0)" style="fill-opacity:1.00" />
<!-- End 'G' -->
<!-- Begin 'A' -->
<polygon points=" 750.000000, 109.861947, 771.000000, 104.274909, 779.000000, 104.274909, 800.000000, 109.861947, 792.500000, 109.861947, 786.250000, 108.465188, 763.750000, 108.465188, 757.500000, 109.861947" fill="rgb(178, 34, 34)" style="fill-opacity:1.00" />
<!-- End 'A' -->
<!-- Begin 'T' -->
<rect height="0.020307" width="50.000000" x="750.000000" y="109.861947" fill="rgb(0, 100, 0)" style="fill-opacity:1.00" />
<rect height="0.126920" width="10.000000" x="770.000000" y="109.861947" fill="rgb(0, 100, 0)" style="fill-opacity:1.00" />
<!-- End 'T' -->
<!-- Begin 'C' -->
<ellipse cx="775.000000" cy="109.994433" rx="25.000000" ry="0.005567" fill="rgb(0, 0, 128)" style="fill-opacity:1.00" />
<ellipse cx="775.000000" cy="109.994433" rx="16.666667" ry="0.003711" fill="rgb(255, 255, 255)" style="fill-opacity:1.00" />
<rect height="0.005567" width="25.000000" x="775.000000" y="109.991650" fill="rgb(255, 255, 255)" style="fill-opacity:1.00" />
<!-- End 'C' -->
<!-- Begin 'G' -->
<ellipse cx="835.000000" cy="69.122527" rx="25.000000" ry="35.531209" fill="rgb(255, 165, 0)" style="fill-opacity:1.00" />
<ellipse cx="835.000000" cy="69.122527" rx="16.666667" ry="23.687473" fill="rgb(255, 255, 255)" style="fill-opacity:1.00" />
<rect height="35.531209" width="25.000000" x="835.000000" y="51.356923" fill="rgb(255, 255, 255)" style="fill-opacity:1.00" />
<rect height="8.882802" width="25.000000" x="835.000000" y="78.005330" fill="rgb(255, 165, 0)" style="fill-opacity:1.00" />
<rect height="26.648407" width="6.250000" x="853.750000" y="78.005330" fill="rgb(255, 165, 0)" style="fill-opacity:1.00" />
<!-- End 'G' -->
<!-- Begin 'T' -->
<rect height="0.359525" width="50.000000" x="810.000000" y="104.653737" fill="rgb(0, 100, 0)" style="fill-opacity:1.00" />
<rect height="2.247029" width="10.000000" x="830.000000" y="104.653737" fill="rgb(0, 100, 0)" style="fill-opacity:1.00" />
<!-- End 'T' -->
<!-- Begin 'A' -->
<polygon points=" 810.000000, 108.960106, 831.000000, 106.900765, 839.000000, 106.900765, 860.000000, 108.960106, 852.500000, 108.960106, 846.250000, 108.445271, 823.750000, 108.445271, 817.500000, 108.960106" fill="rgb(178, 34, 34)" style="fill-opacity:1.00" />
<!-- End 'A' -->
<!-- Begin 'C' -->
<ellipse cx="835.000000" cy="109.480053" rx="25.000000" ry="0.519947" fill="rgb(0, 0, 128)" style="fill-opacity:1.00" />
<ellipse cx="835.000000" cy="109.480053" rx="16.666667" ry="0.346631" fill="rgb(255, 255, 255)" style="fill-opacity:1.00" />
<rect height="0.519947" width="25.000000" x="835.000000" y="109.220079" fill="rgb(255, 255, 255)" style="fill-opacity:1.00" />
<!-- End 'C' -->
<!-- Begin 'C' -->
<ellipse cx="895.000000" cy="109.153684" rx="25.000000" ry="0.146491" fill="rgb(0, 0, 128)" style="fill-opacity:1.00" />
<ellipse cx="895.000000" cy="109.153684" rx="16.666667" ry="0.097660" fill="rgb(255, 255, 255)" style="fill-opacity:1.00" />
<rect height="0.146491" width="25.000000" x="895.000000" y="109.080439" fill="rgb(255, 255, 255)" style="fill-opacity:1.00" />
<!-- End 'C' -->
<!-- Begin 'A' -->
<polygon points=" 870.000000, 109.582326, 891.000000, 109.300175, 899.000000, 109.300175, 920.000000, 109.582326, 912.500000, 109.582326, 906.250000, 109.511788, 883.750000, 109.511788, 877.500000, 109.582326" fill="rgb(178, 34, 34)" style="fill-opacity:1.00" />
<!-- End 'A' -->
<!-- Begin 'G' -->
<ellipse cx="895.000000" cy="109.694050" rx="25.000000" ry="0.111724" fill="rgb(255, 165, 0)" style="fill-opacity:1.00" />
<ellipse cx="895.000000" cy="109.694050" rx="16.666667" ry="0.074482" fill="rgb(255, 255, 255)" style="fill-opacity:1.00" />
<rect height="0.111724" width="25.000000" x="895.000000" y="109.638188" fill="rgb(255, 255, 255)" style="fill-opacity:1.00" />
<rect height="0.027931" width="25.000000" x="895.000000" y="109.721981" fill="rgb(255, 165, 0)" style="fill-opacity:1.00" />
<rect height="0.083793" width="6.250000" x="913.750000" y="109.721981" fill="rgb(255, 165, 0)" style="fill-opacity:1.00" />
<!-- End 'G' -->
<!-- Begin 'T' -->
<rect height="0.031076" width="50.000000" x="870.000000" y="109.805773" fill="rgb(0, 100, 0)" style="fill-opacity:1.00" />
<rect height="0.194227" width="10.000000" x="890.000000" y="109.805773" fill="rgb(0, 100, 0)" style="fill-opacity:1.00" />
<!-- End 'T' -->
<!-- Begin 'A' -->
<polygon points=" 930.000000, 104.682100, 951.000000, 100.572104, 959.000000, 100.572104, 980.000000, 104.682100, 972.500000, 104.682100, 966.250000, 103.654601, 943.750000, 103.654601, 937.500000, 104.682100" fill="rgb(178, 34, 34)" style="fill-opacity:1.00" />
<!-- End 'A' -->
<!-- Begin 'C' -->
<ellipse cx="955.000000" cy="106.108317" rx="25.000000" ry="1.426217" fill="rgb(0, 0, 128)" style="fill-opacity:1.00" />
<ellipse cx="955.000000" cy="106.108317" rx="16.666667" ry="0.950811" fill="rgb(255, 255, 255)" style="fill-opacity:1.00" />
<rect height="1.426217" width="25.000000" x="955.000000" y="105.395209" fill="rgb(255, 255, 255)" style="fill-opacity:1.00" />
<!-- End 'C' -->
<!-- Begin 'G' -->
<ellipse cx="955.000000" cy="108.164789" rx="25.000000" ry="0.630255" fill="rgb(255, 165, 0)" style="fill-opacity:1.00" />
<ellipse cx="955.000000" cy="108.164789" rx="16.666667" ry="0.420170" fill="rgb(255, 255, 255)" style="fill-opacity:1.00" />
<rect height="0.630255" width="25.000000" x="955.000000" y="107.849662" fill="rgb(255, 255, 255)" style="fill-opacity:1.00" />
<rect height="0.157564" width="25.000000" x="955.000000" y="108.322353" fill="rgb(255, 165, 0)" style="fill-opacity:1.00" />
<rect height="0.472691" width="6.250000" x="973.750000" y="108.322353" fill="rgb(255, 165, 0)" style="fill-opacity:1.00" />
<!-- End 'G' -->
<!-- Begin 'T' -->
<rect height="0.192793" width="50.000000" x="930.000000" y="108.795044" fill="rgb(0, 100, 0)" style="fill-opacity:1.00" />
<rect height="1.204956" width="10.000000" x="950.000000" y="108.795044" fill="rgb(0, 100, 0)" style="fill-opacity:1.00" />
<!-- End 'T' -->
<!-- Begin 'A' -->
<polygon points=" 990.000000, 103.378032, 1011.000000, 96.025470, 1019.000000, 96.025470, 1040.000000, 103.378032, 1032.500000, 103.378032, 1026.250000, 101.539892, 1003.750000, 101.539892, 997.500000, 103.378032" fill="rgb(178, 34, 34)" style="fill-opacity:1.00" />
<!-- End 'A' -->
<!-- Begin 'T' -->
<rect height="0.469110" width="50.000000" x="990.000000" y="103.378032" fill="rgb(0, 100, 0)" style="fill-opacity:1.00" />
<rect height="2.931938" width="10.000000" x="1010.000000" y="103.378032" fill="rgb(0, 100, 0)" style="fill-opacity:1.00" />
<!-- End 'T' -->
<!-- Begin 'G' -->
<ellipse cx="1015.000000" cy="107.452519" rx="25.000000" ry="1.142549" fill="rgb(255, 165, 0)" style="fill-opacity:1.00" />
<ellipse cx="1015.000000" cy="107.452519" rx="16.666667" ry="0.761699" fill="rgb(255, 255, 255)" style="fill-opacity:1.00" />
<rect height="1.142549" width="25.000000" x="1015.000000" y="106.881245" fill="rgb(255, 255, 255)" style="fill-opacity:1.00" />
<rect height="0.285637" width="25.000000" x="1015.000000" y="107.738156" fill="rgb(255, 165, 0)" style="fill-opacity:1.00" />
<rect height="0.856911" width="6.250000" x="1033.750000" y="107.738156" fill="rgb(255, 165, 0)" style="fill-opacity:1.00" />
<!-- End 'G' -->
<!-- Begin 'C' -->
<ellipse cx="1015.000000" cy="109.297534" rx="25.000000" ry="0.702466" fill="rgb(0, 0, 128)" style="fill-opacity:1.00" />
<ellipse cx="1015.000000" cy="109.297534" rx="16.666667" ry="0.468311" fill="rgb(255, 255, 255)" style="fill-opacity:1.00" />
<rect height="0.702466" width="25.000000" x="1015.000000" y="108.946301" fill="rgb(255, 255, 255)" style="fill-opacity:1.00" />
<!-- End 'C' -->
<text x="550.000000" y="165">
IC = 11.95
</text>

</svg>
