<?xml version="1.0" encoding="UTF-8" standalone="yes"?>
                 <!DOCTYPE svg PUBLIC "-//W3C//DTD SVG 1.0//EN" "http://www.w3.org/TR/2001/REC-SVG-20010904/DTD/svg10.dtd">
                 <svg height="170" width="1200" xmlns="http://www.w3.org/2000/svg" xmlns:xlink="http://www.w3.org/1999/xlink">
                 <line x1="85" y1="120" x2="1167" y2="120" style="stroke:rgb(99,99,99);stroke-width:2" />
<rect height="7.000000" width="2.000000" x="85.000000" y="120.000000" fill="rgb(0, 0, 0)" style="fill-opacity:1.00" />
<text x="107.000000" y="140">
1
</text>
<rect height="7.000000" width="2.000000" x="145.000000" y="120.000000" fill="rgb(0, 0, 0)" style="fill-opacity:1.00" />
<text x="167.000000" y="140">
2
</text>
<rect height="7.000000" width="2.000000" x="205.000000" y="120.000000" fill="rgb(0, 0, 0)" style="fill-opacity:1.00" />
<text x="227.000000" y="140">
3
</text>
<rect height="7.000000" width="2.000000" x="265.000000" y="120.000000" fill="rgb(0, 0, 0)" style="fill-opacity:1.00" />
<text x="287.000000" y="140">
4
</text>
<rect height="7.000000" width="2.000000" x="325.000000" y="120.000000" fill="rgb(0, 0, 0)" style="fill-opacity:1.00" />
<text x="347.000000" y="140">
5
</text>
<rect height="7.000000" width="2.000000" x="385.000000" y="120.000000" fill="rgb(0, 0, 0)" style="fill-opacity:1.00" />
<text x="407.000000" y="140">
6
</text>
<rect height="7.000000" width="2.000000" x="445.000000" y="120.000000" fill="rgb(0, 0, 0)" style="fill-opacity:1.00" />
<text x="467.000000" y="140">
7
</text>
<rect height="7.000000" width="2.000000" x="505.000000" y="120.000000" fill="rgb(0, 0, 0)" style="fill-opacity:1.00" />
<text x="527.000000" y="140">
8
</text>
<rect height="7.000000" width="2.000000" x="565.000000" y="120.000000" fill="rgb(0, 0, 0)" style="fill-opacity:1.00" />
<text x="587.000000" y="140">
9
</text>
<rect height="7.000000" width="2.000000" x="625.000000" y="120.000000" fill="rgb(0, 0, 0)" style="fill-opacity:1.00" />
<text x="647.000000" y="140">
10
</text>
<rect height="7.000000" width="2.000000" x="685.000000" y="120.000000" fill="rgb(0, 0, 0)" style="fill-opacity:1.00" />
<text x="707.000000" y="140">
11
</text>
<rect height="7.000000" width="2.000000" x="745.000000" y="120.000000" fill="rgb(0, 0, 0)" style="fill-opacity:1.00" />
<text x="767.000000" y="140">
12
</text>
<rect height="7.000000" width="2.000000" x="805.000000" y="120.000000" fill="rgb(0, 0, 0)" style="fill-opacity:1.00" />
<text x="827.000000" y="140">
13
</text>
<rect height="7.000000" width="2.000000" x="865.000000" y="120.000000" fill="rgb(0, 0, 0)" style="fill-opacity:1.00" />
<text x="887.000000" y="140">
14
</text>
<rect height="7.000000" width="2.000000" x="925.000000" y="120.000000" fill="rgb(0, 0, 0)" style="fill-opacity:1.00" />
<text x="947.000000" y="140">
15
</text>
<rect height="7.000000" width="2.000000" x="985.000000" y="120.000000" fill="rgb(0, 0, 0)" style="fill-opacity:1.00" />
<text x="1007.000000" y="140">
16
</text>
<rect height="7.000000" width="2.000000" x="1045.000000" y="120.000000" fill="rgb(0, 0, 0)" style="fill-opacity:1.00" />
<text x="1067.000000" y="140">
17
</text>
<rect height="7.000000" width="2.000000" x="1105.000000" y="120.000000" fill="rgb(0, 0, 0)" style="fill-opacity:1.00" />
<text x="1127.000000" y="140">
18
</text>
<rect height="7.000000" width="2.000000" x="1165.000000" y="120.000000" fill="rgb(0, 0, 0)" style="fill-opacity:1.00" />
<line x1="80" y1="112" x2="80" y2="10" style="stroke:rgb(99,99,99);stroke-width:2" />
<rect height="2.000000" width="7.000000" x="73.000000" y="110.000000" fill="rgb(0, 0, 0)" style="fill-opacity:1.00" />
<text x="63" y="115">
0
</text>
<rect height="2.000000" width="7.000000" x="73.000000" y="60.000000" fill="rgb(0, 0, 0)" style="fill-opacity:1.00" />
<text x="63" y="65">
1
</text>
<rect height="2.000000" width="7.000000" x="73.000000" y="10.000000" fill="rgb(0, 0, 0)" style="fill-opacity:1.00" />
<text x="63" y="15">
2
</text>
<text x="50" y="65"
transform="rotate(-90, 50, 70)">
bits
</text>
<!-- Begin 'G' -->
<ellipse cx="115.000000" cy="98.431873" rx="25.000000" ry="2.352798" fill="rgb(255, 165, 0)" style="fill-opacity:1.00" />
<ellipse cx="115.000000" cy="98.431873" rx="16.666667" ry="1.568532" fill="rgb(255, 255, 255)" style="fill-opacity:1.00" />
<rect height="2.352798" width="25.000000" x="115.000000" y="97.255473" fill="rgb(255, 255, 255)" style="fill-opacity:1.00" />
<rect height="0.588200" width="25.000000" x="115.000000" y="99.020072" fill="rgb(255, 165, 0)" style="fill-opacity:1.00" />
<rect height="1.764599" width="6.250000" x="133.750000" y="99.020072" fill="rgb(255, 165, 0)" style="fill-opacity:1.00" />
<!-- End 'G' -->
<!-- Begin 'T' -->
<rect height="0.713819" width="50.000000" x="90.000000" y="100.784671" fill="rgb(0, 100, 0)" style="fill-opacity:1.00" />
<rect height="4.461370" width="10.000000" x="110.000000" y="100.784671" fill="rgb(0, 100, 0)" style="fill-opacity:1.00" />
<!-- End 'T' -->
<!-- Begin 'A' -->
<polygon points=" 90.000000, 109.620360, 111.000000, 105.246041, 119.000000, 105.246041, 140.000000, 109.620360, 132.500000, 109.620360, 126.250000, 108.526781, 103.750000, 108.526781, 97.500000, 109.620360" fill="rgb(178, 34, 34)" style="fill-opacity:1.00" />
<!-- End 'A' -->
<!-- Begin 'C' -->
<ellipse cx="115.000000" cy="109.810180" rx="25.000000" ry="0.189820" fill="rgb(0, 0, 128)" style="fill-opacity:1.00" />
<ellipse cx="115.000000" cy="109.810180" rx="16.666667" ry="0.126547" fill="rgb(255, 255, 255)" style="fill-opacity:1.00" />
<rect height="0.189820" width="25.000000" x="115.000000" y="109.715270" fill="rgb(255, 255, 255)" style="fill-opacity:1.00" />
<!-- End 'C' -->
<!-- Begin 'A' -->
<polygon points=" 150.000000, 95.810154, 171.000000, 73.478417, 179.000000, 73.478417, 200.000000, 95.810154, 192.500000, 95.810154, 186.250000, 90.227220, 163.750000, 90.227220, 157.500000, 95.810154" fill="rgb(178, 34, 34)" style="fill-opacity:1.00" />
<polygon points=" 175.000000, 77.944764, 167.000000, 85.877459, 182.000000, 85.877459" fill="rgb(255, 255, 255)" style="fill-opacity:1.00" />
<!-- End 'A' -->
<!-- Begin 'G' -->
<ellipse cx="175.000000" cy="101.755570" rx="25.000000" ry="5.945416" fill="rgb(255, 165, 0)" style="fill-opacity:1.00" />
<ellipse cx="175.000000" cy="101.755570" rx="16.666667" ry="3.963611" fill="rgb(255, 255, 255)" style="fill-opacity:1.00" />
<rect height="5.945416" width="25.000000" x="175.000000" y="98.782862" fill="rgb(255, 255, 255)" style="fill-opacity:1.00" />
<rect height="1.486354" width="25.000000" x="175.000000" y="103.241924" fill="rgb(255, 165, 0)" style="fill-opacity:1.00" />
<rect height="4.459062" width="6.250000" x="193.750000" y="103.241924" fill="rgb(255, 165, 0)" style="fill-opacity:1.00" />
<!-- End 'G' -->
<!-- Begin 'C' -->
<ellipse cx="175.000000" cy="108.474520" rx="25.000000" ry="0.773534" fill="rgb(0, 0, 128)" style="fill-opacity:1.00" />
<ellipse cx="175.000000" cy="108.474520" rx="16.666667" ry="0.515689" fill="rgb(255, 255, 255)" style="fill-opacity:1.00" />
<rect height="0.773534" width="25.000000" x="175.000000" y="108.087753" fill="rgb(255, 255, 255)" style="fill-opacity:1.00" />
<!-- End 'C' -->
<!-- Begin 'T' -->
<rect height="0.120311" width="50.000000" x="150.000000" y="109.248053" fill="rgb(0, 100, 0)" style="fill-opacity:1.00" />
<rect height="0.751947" width="10.000000" x="170.000000" y="109.248053" fill="rgb(0, 100, 0)" style="fill-opacity:1.00" />
<!-- End 'T' -->
<!-- Begin 'C' -->
<ellipse cx="235.000000" cy="60.088963" rx="25.000000" ry="49.883401" fill="rgb(0, 0, 128)" style="fill-opacity:1.00" />
<ellipse cx="235.000000" cy="60.088963" rx="16.666667" ry="33.255601" fill="rgb(255, 255, 255)" style="fill-opacity:1.00" />
<rect height="49.883401" width="25.000000" x="235.000000" y="35.147262" fill="rgb(255, 255, 255)" style="fill-opacity:1.00" />
<!-- End 'C' -->
<!-- Begin 'T' -->
<rect height="0.001474" width="50.000000" x="210.000000" y="109.972364" fill="rgb(0, 100, 0)" style="fill-opacity:1.00" />
<rect height="0.009212" width="10.000000" x="230.000000" y="109.972364" fill="rgb(0, 100, 0)" style="fill-opacity:1.00" />
<!-- End 'T' -->
<!-- Begin 'G' -->
<ellipse cx="235.000000" cy="109.986182" rx="25.000000" ry="0.004606" fill="rgb(255, 165, 0)" style="fill-opacity:1.00" />
<ellipse cx="235.000000" cy="109.986182" rx="16.666667" ry="0.003071" fill="rgb(255, 255, 255)" style="fill-opacity:1.00" />
<rect height="0.004606" width="25.000000" x="235.000000" y="109.983879" fill="rgb(255, 255, 255)" style="fill-opacity:1.00" />
<rect height="0.001152" width="25.000000" x="235.000000" y="109.987333" fill="rgb(255, 165, 0)" style="fill-opacity:1.00" />
<rect height="0.003455" width="6.250000" x="253.750000" y="109.987333" fill="rgb(255, 165, 0)" style="fill-opacity:1.00" />
<!-- End 'G' -->
<!-- Begin 'A' -->
<polygon points=" 210.000000, 110.000000, 231.000000, 109.990788, 239.000000, 109.990788, 260.000000, 110.000000, 252.500000, 110.000000, 246.250000, 109.997697, 223.750000, 109.997697, 217.500000, 110.000000" fill="rgb(178, 34, 34)" style="fill-opacity:1.00" />
<!-- End 'A' -->
<!-- Begin 'A' -->
<polygon points=" 270.000000, 103.416470, 291.000000, 38.021560, 299.000000, 38.021560, 320.000000, 103.416470, 312.500000, 103.416470, 306.250000, 87.067742, 283.750000, 87.067742, 277.500000, 103.416470" fill="rgb(178, 34, 34)" style="fill-opacity:1.00" />
<polygon points=" 295.000000, 51.100542, 287.000000, 76.258506, 302.000000, 76.258506" fill="rgb(255, 255, 255)" style="fill-opacity:1.00" />
<!-- End 'A' -->
<!-- Begin 'G' -->
<ellipse cx="295.000000" cy="105.499015" rx="25.000000" ry="2.082545" fill="rgb(255, 165, 0)" style="fill-opacity:1.00" />
<ellipse cx="295.000000" cy="105.499015" rx="16.666667" ry="1.388364" fill="rgb(255, 255, 255)" style="fill-opacity:1.00" />
<rect height="2.082545" width="25.000000" x="295.000000" y="104.457742" fill="rgb(255, 255, 255)" style="fill-opacity:1.00" />
<rect height="0.520636" width="25.000000" x="295.000000" y="106.019651" fill="rgb(255, 165, 0)" style="fill-opacity:1.00" />
<rect height="1.561909" width="6.250000" x="313.750000" y="106.019651" fill="rgb(255, 165, 0)" style="fill-opacity:1.00" />
<!-- End 'G' -->
<!-- Begin 'T' -->
<rect height="0.237664" width="50.000000" x="270.000000" y="107.581560" fill="rgb(0, 100, 0)" style="fill-opacity:1.00" />
<rect height="1.485400" width="10.000000" x="290.000000" y="107.581560" fill="rgb(0, 100, 0)" style="fill-opacity:1.00" />
<!-- End 'T' -->
<!-- Begin 'C' -->
<ellipse cx="295.000000" cy="109.533480" rx="25.000000" ry="0.466520" fill="rgb(0, 0, 128)" style="fill-opacity:1.00" />
<ellipse cx="295.000000" cy="109.533480" rx="16.666667" ry="0.311013" fill="rgb(255, 255, 255)" style="fill-opacity:1.00" />
<rect height="0.466520" width="25.000000" x="295.000000" y="109.300220" fill="rgb(255, 255, 255)" style="fill-opacity:1.00" />
<!-- End 'C' -->
<!-- Begin 'T' -->
<rect height="4.650374" width="50.000000" x="330.000000" y="68.431786" fill="rgb(0, 100, 0)" style="fill-opacity:1.00" />
<rect height="29.064840" width="10.000000" x="350.000000" y="68.431786" fill="rgb(0, 100, 0)" style="fill-opacity:1.00" />
<!-- End 'T' -->
<!-- Begin 'A' -->
<polygon points=" 330.000000, 107.212752, 351.000000, 97.496625, 359.000000, 97.496625, 380.000000, 107.212752, 372.500000, 107.212752, 366.250000, 104.783721, 343.750000, 104.783721, 337.500000, 107.212752" fill="rgb(178, 34, 34)" style="fill-opacity:1.00" />
<polygon points=" 355.000000, 99.439851, 347.000000, 102.326302, 362.000000, 102.326302" fill="rgb(255, 255, 255)" style="fill-opacity:1.00" />
<!-- End 'A' -->
<!-- Begin 'G' -->
<ellipse cx="355.000000" cy="108.234237" rx="25.000000" ry="1.021484" fill="rgb(255, 165, 0)" style="fill-opacity:1.00" />
<ellipse cx="355.000000" cy="108.234237" rx="16.666667" ry="0.680990" fill="rgb(255, 255, 255)" style="fill-opacity:1.00" />
<rect height="1.021484" width="25.000000" x="355.000000" y="107.723495" fill="rgb(255, 255, 255)" style="fill-opacity:1.00" />
<rect height="0.255371" width="25.000000" x="355.000000" y="108.489608" fill="rgb(255, 165, 0)" style="fill-opacity:1.00" />
<rect height="0.766113" width="6.250000" x="373.750000" y="108.489608" fill="rgb(255, 165, 0)" style="fill-opacity:1.00" />
<!-- End 'G' -->
<!-- Begin 'C' -->
<ellipse cx="355.000000" cy="109.627861" rx="25.000000" ry="0.372139" fill="rgb(0, 0, 128)" style="fill-opacity:1.00" />
<ellipse cx="355.000000" cy="109.627861" rx="16.666667" ry="0.248093" fill="rgb(255, 255, 255)" style="fill-opacity:1.00" />
<rect height="0.372139" width="25.000000" x="355.000000" y="109.441791" fill="rgb(255, 255, 255)" style="fill-opacity:1.00" />
<!-- End 'C' -->
<!-- Begin 'G' -->
<ellipse cx="415.000000" cy="60.737321" rx="25.000000" ry="48.930608" fill="rgb(255, 165, 0)" style="fill-opacity:1.00" />
<ellipse cx="415.000000" cy="60.737321" rx="16.666667" ry="32.620405" fill="rgb(255, 255, 255)" style="fill-opacity:1.00" />
<rect height="48.930608" width="25.000000" x="415.000000" y="36.272017" fill="rgb(255, 255, 255)" style="fill-opacity:1.00" />
<rect height="12.232652" width="25.000000" x="415.000000" y="72.969973" fill="rgb(255, 165, 0)" style="fill-opacity:1.00" />
<rect height="36.697956" width="6.250000" x="433.750000" y="72.969973" fill="rgb(255, 165, 0)" style="fill-opacity:1.00" />
<!-- End 'G' -->
<!-- Begin 'C' -->
<ellipse cx="415.000000" cy="109.788305" rx="25.000000" ry="0.120376" fill="rgb(0, 0, 128)" style="fill-opacity:1.00" />
<ellipse cx="415.000000" cy="109.788305" rx="16.666667" ry="0.080250" fill="rgb(255, 255, 255)" style="fill-opacity:1.00" />
<rect height="0.120376" width="25.000000" x="415.000000" y="109.728117" fill="rgb(255, 255, 255)" style="fill-opacity:1.00" />
<!-- End 'C' -->
<!-- Begin 'A' -->
<polygon points=" 390.000000, 109.983396, 411.000000, 109.908681, 419.000000, 109.908681, 440.000000, 109.983396, 432.500000, 109.983396, 426.250000, 109.964717, 403.750000, 109.964717, 397.500000, 109.983396" fill="rgb(178, 34, 34)" style="fill-opacity:1.00" />
<!-- End 'A' -->
<!-- Begin 'T' -->
<rect height="0.002657" width="50.000000" x="390.000000" y="109.983396" fill="rgb(0, 100, 0)" style="fill-opacity:1.00" />
<rect height="0.016604" width="10.000000" x="410.000000" y="109.983396" fill="rgb(0, 100, 0)" style="fill-opacity:1.00" />
<!-- End 'T' -->
<!-- Begin 'T' -->
<rect height="7.790793" width="50.000000" x="450.000000" y="49.782335" fill="rgb(0, 100, 0)" style="fill-opacity:1.00" />
<rect height="48.692459" width="10.000000" x="470.000000" y="49.782335" fill="rgb(0, 100, 0)" style="fill-opacity:1.00" />
<!-- End 'T' -->
<!-- Begin 'C' -->
<ellipse cx="475.000000" cy="103.780892" rx="25.000000" ry="5.306098" fill="rgb(0, 0, 128)" style="fill-opacity:1.00" />
<ellipse cx="475.000000" cy="103.780892" rx="16.666667" ry="3.537399" fill="rgb(255, 255, 255)" style="fill-opacity:1.00" />
<rect height="5.306098" width="25.000000" x="475.000000" y="101.127843" fill="rgb(255, 255, 255)" style="fill-opacity:1.00" />
<!-- End 'C' -->
<!-- Begin 'A' -->
<polygon points=" 450.000000, 109.623333, 471.000000, 109.086991, 479.000000, 109.086991, 500.000000, 109.623333, 492.500000, 109.623333, 486.250000, 109.489247, 463.750000, 109.489247, 457.500000, 109.623333" fill="rgb(178, 34, 34)" style="fill-opacity:1.00" />
<!-- End 'A' -->
<!-- Begin 'G' -->
<ellipse cx="475.000000" cy="109.811666" rx="25.000000" ry="0.188334" fill="rgb(255, 165, 0)" style="fill-opacity:1.00" />
<ellipse cx="475.000000" cy="109.811666" rx="16.666667" ry="0.125556" fill="rgb(255, 255, 255)" style="fill-opacity:1.00" />
<rect height="0.188334" width="25.000000" x="475.000000" y="109.717499" fill="rgb(255, 255, 255)" style="fill-opacity:1.00" />
<rect height="0.047083" width="25.000000" x="475.000000" y="109.858750" fill="rgb(255, 165, 0)" style="fill-opacity:1.00" />
<rect height="0.141250" width="6.250000" x="493.750000" y="109.858750" fill="rgb(255, 165, 0)" style="fill-opacity:1.00" />
<!-- End 'G' -->
<!-- Begin 'C' -->
<ellipse cx="535.000000" cy="92.219449" rx="25.000000" ry="8.068768" fill="rgb(0, 0, 128)" style="fill-opacity:1.00" />
<ellipse cx="535.000000" cy="92.219449" rx="16.666667" ry="5.379178" fill="rgb(255, 255, 255)" style="fill-opacity:1.00" />
<rect height="8.068768" width="25.000000" x="535.000000" y="88.185066" fill="rgb(255, 255, 255)" style="fill-opacity:1.00" />
<!-- End 'C' -->
<!-- Begin 'T' -->
<rect height="0.869948" width="50.000000" x="510.000000" y="100.288217" fill="rgb(0, 100, 0)" style="fill-opacity:1.00" />
<rect height="5.437175" width="10.000000" x="530.000000" y="100.288217" fill="rgb(0, 100, 0)" style="fill-opacity:1.00" />
<!-- End 'T' -->
<!-- Begin 'A' -->
<polygon points=" 510.000000, 108.449911, 531.000000, 105.725392, 539.000000, 105.725392, 560.000000, 108.449911, 552.500000, 108.449911, 546.250000, 107.768781, 523.750000, 107.768781, 517.500000, 108.449911" fill="rgb(178, 34, 34)" style="fill-opacity:1.00" />
<!-- End 'A' -->
<!-- Begin 'G' -->
<ellipse cx="535.000000" cy="109.224955" rx="25.000000" ry="0.775045" fill="rgb(255, 165, 0)" style="fill-opacity:1.00" />
<ellipse cx="535.000000" cy="109.224955" rx="16.666667" ry="0.516696" fill="rgb(255, 255, 255)" style="fill-opacity:1.00" />
<rect height="0.775045" width="25.000000" x="535.000000" y="108.837433" fill="rgb(255, 255, 255)" style="fill-opacity:1.00" />
<rect height="0.193761" width="25.000000" x="535.000000" y="109.418717" fill="rgb(255, 165, 0)" style="fill-opacity:1.00" />
<rect height="0.581283" width="6.250000" x="553.750000" y="109.418717" fill="rgb(255, 165, 0)" style="fill-opacity:1.00" />
<!-- End 'G' -->
<!-- Begin 'T' -->
<rect height="0.167015" width="50.000000" x="570.000000" y="107.150648" fill="rgb(0, 100, 0)" style="fill-opacity:1.00" />
<rect height="1.043844" width="10.000000" x="590.000000" y="107.150648" fill="rgb(0, 100, 0)" style="fill-opacity:1.00" />
<!-- End 'T' -->
<!-- Begin 'C' -->
<ellipse cx="595.000000" cy="108.556258" rx="25.000000" ry="0.361766" fill="rgb(0, 0, 128)" style="fill-opacity:1.00" />
<ellipse cx="595.000000" cy="108.556258" rx="16.666667" ry="0.241177" fill="rgb(255, 255, 255)" style="fill-opacity:1.00" />
<rect height="0.361766" width="25.000000" x="595.000000" y="108.375375" fill="rgb(255, 255, 255)" style="fill-opacity:1.00" />
<!-- End 'C' -->
<!-- Begin 'G' -->
<ellipse cx="595.000000" cy="109.192454" rx="25.000000" ry="0.274430" fill="rgb(255, 165, 0)" style="fill-opacity:1.00" />
<ellipse cx="595.000000" cy="109.192454" rx="16.666667" ry="0.182954" fill="rgb(255, 255, 255)" style="fill-opacity:1.00" />
<rect height="0.274430" width="25.000000" x="595.000000" y="109.055239" fill="rgb(255, 255, 255)" style="fill-opacity:1.00" />
<rect height="0.068608" width="25.000000" x="595.000000" y="109.261062" fill="rgb(255, 165, 0)" style="fill-opacity:1.00" />
<rect height="0.205823" width="6.250000" x="613.750000" y="109.261062" fill="rgb(255, 165, 0)" style="fill-opacity:1.00" />
<!-- End 'G' -->
<!-- Begin 'A' -->
<polygon points=" 570.000000, 110.000000, 591.000000, 109.466884, 599.000000, 109.466884, 620.000000, 110.000000, 612.500000, 110.000000, 606.250000, 109.866721, 583.750000, 109.866721, 577.500000, 110.000000" fill="rgb(178, 34, 34)" style="fill-opacity:1.00" />
<!-- End 'A' -->
<!-- Begin 'G' -->
<ellipse cx="655.000000" cy="108.974688" rx="25.000000" ry="0.179838" fill="rgb(255, 165, 0)" style="fill-opacity:1.00" />
<ellipse cx="655.000000" cy="108.974688" rx="16.666667" ry="0.119892" fill="rgb(255, 255, 255)" style="fill-opacity:1.00" />
<rect height="0.179838" width="25.000000" x="655.000000" y="108.884769" fill="rgb(255, 255, 255)" style="fill-opacity:1.00" />
<rect height="0.044959" width="25.000000" x="655.000000" y="109.019647" fill="rgb(255, 165, 0)" style="fill-opacity:1.00" />
<rect height="0.134878" width="6.250000" x="673.750000" y="109.019647" fill="rgb(255, 165, 0)" style="fill-opacity:1.00" />
<!-- End 'G' -->
<!-- Begin 'A' -->
<polygon points=" 630.000000, 109.507126, 651.000000, 109.154525, 659.000000, 109.154525, 680.000000, 109.507126, 672.500000, 109.507126, 666.250000, 109.418976, 643.750000, 109.418976, 637.500000, 109.507126" fill="rgb(178, 34, 34)" style="fill-opacity:1.00" />
<!-- End 'A' -->
<!-- Begin 'T' -->
<rect height="0.039745" width="50.000000" x="630.000000" y="109.507126" fill="rgb(0, 100, 0)" style="fill-opacity:1.00" />
<rect height="0.248407" width="10.000000" x="650.000000" y="109.507126" fill="rgb(0, 100, 0)" style="fill-opacity:1.00" />
<!-- End 'T' -->
<!-- Begin 'C' -->
<ellipse cx="655.000000" cy="109.877767" rx="25.000000" ry="0.122233" fill="rgb(0, 0, 128)" style="fill-opacity:1.00" />
<ellipse cx="655.000000" cy="109.877767" rx="16.666667" ry="0.081489" fill="rgb(255, 255, 255)" style="fill-opacity:1.00" />
<rect height="0.122233" width="25.000000" x="655.000000" y="109.816650" fill="rgb(255, 255, 255)" style="fill-opacity:1.00" />
<!-- End 'C' -->
<!-- Begin 'G' -->
<ellipse cx="715.000000" cy="89.439467" rx="25.000000" ry="8.589469" fill="rgb(255, 165, 0)" style="fill-opacity:1.00" />
<ellipse cx="715.000000" cy="89.439467" rx="16.666667" ry="5.726313" fill="rgb(255, 255, 255)" style="fill-opacity:1.00" />
<rect height="8.589469" width="25.000000" x="715.000000" y="85.144732" fill="rgb(255, 255, 255)" style="fill-opacity:1.00" />
<rect height="2.147367" width="25.000000" x="715.000000" y="91.586834" fill="rgb(255, 165, 0)" style="fill-opacity:1.00" />
<rect height="6.442102" width="6.250000" x="733.750000" y="91.586834" fill="rgb(255, 165, 0)" style="fill-opacity:1.00" />
<!-- End 'G' -->
<!-- Begin 'A' -->
<polygon points=" 690.000000, 106.816675, 711.000000, 98.028936, 719.000000, 98.028936, 740.000000, 106.816675, 732.500000, 106.816675, 726.250000, 104.619741, 703.750000, 104.619741, 697.500000, 106.816675" fill="rgb(178, 34, 34)" style="fill-opacity:1.00" />
<polygon points=" 715.000000, 99.786484, 707.000000, 102.301580, 722.000000, 102.301580" fill="rgb(255, 255, 255)" style="fill-opacity:1.00" />
<!-- End 'A' -->
<!-- Begin 'T' -->
<rect height="0.353536" width="50.000000" x="690.000000" y="106.816675" fill="rgb(0, 100, 0)" style="fill-opacity:1.00" />
<rect height="2.209602" width="10.000000" x="710.000000" y="106.816675" fill="rgb(0, 100, 0)" style="fill-opacity:1.00" />
<!-- End 'T' -->
<!-- Begin 'C' -->
<ellipse cx="715.000000" cy="109.513139" rx="25.000000" ry="0.486861" fill="rgb(0, 0, 128)" style="fill-opacity:1.00" />
<ellipse cx="715.000000" cy="109.513139" rx="16.666667" ry="0.324574" fill="rgb(255, 255, 255)" style="fill-opacity:1.00" />
<rect height="0.486861" width="25.000000" x="715.000000" y="109.269708" fill="rgb(255, 255, 255)" style="fill-opacity:1.00" />
<!-- End 'C' -->
<!-- Begin 'A' -->
<polygon points=" 750.000000, 100.136088, 771.000000, 52.686928, 779.000000, 52.686928, 800.000000, 100.136088, 792.500000, 100.136088, 786.250000, 88.273798, 763.750000, 88.273798, 757.500000, 100.136088" fill="rgb(178, 34, 34)" style="fill-opacity:1.00" />
<polygon points=" 775.000000, 62.176760, 767.000000, 80.156424, 782.000000, 80.156424" fill="rgb(255, 255, 255)" style="fill-opacity:1.00" />
<!-- End 'A' -->
<!-- Begin 'G' -->
<ellipse cx="775.000000" cy="103.618482" rx="25.000000" ry="3.482394" fill="rgb(255, 165, 0)" style="fill-opacity:1.00" />
<ellipse cx="775.000000" cy="103.618482" rx="16.666667" ry="2.321596" fill="rgb(255, 255, 255)" style="fill-opacity:1.00" />
<rect height="3.482394" width="25.000000" x="775.000000" y="101.877285" fill="rgb(255, 255, 255)" style="fill-opacity:1.00" />
<rect height="0.870599" width="25.000000" x="775.000000" y="104.489080" fill="rgb(255, 165, 0)" style="fill-opacity:1.00" />
<rect height="2.611796" width="6.250000" x="793.750000" y="104.489080" fill="rgb(255, 165, 0)" style="fill-opacity:1.00" />
<!-- End 'G' -->
<!-- Begin 'T' -->
<rect height="0.348879" width="50.000000" x="750.000000" y="107.100876" fill="rgb(0, 100, 0)" style="fill-opacity:1.00" />
<rect height="2.180496" width="10.000000" x="770.000000" y="107.100876" fill="rgb(0, 100, 0)" style="fill-opacity:1.00" />
<!-- End 'T' -->
<!-- Begin 'C' -->
<ellipse cx="775.000000" cy="109.640686" rx="25.000000" ry="0.359314" fill="rgb(0, 0, 128)" style="fill-opacity:1.00" />
<ellipse cx="775.000000" cy="109.640686" rx="16.666667" ry="0.239543" fill="rgb(255, 255, 255)" style="fill-opacity:1.00" />
<rect height="0.359314" width="25.000000" x="775.000000" y="109.461029" fill="rgb(255, 255, 255)" style="fill-opacity:1.00" />
<!-- End 'C' -->
<!-- Begin 'C' -->
<ellipse cx="835.000000" cy="60.083036" rx="25.000000" ry="49.891387" fill="rgb(0, 0, 128)" style="fill-opacity:1.00" />
<ellipse cx="835.000000" cy="60.083036" rx="16.666667" ry="33.260925" fill="rgb(255, 255, 255)" style="fill-opacity:1.00" />
<rect height="49.891387" width="25.000000" x="835.000000" y="35.137343" fill="rgb(255, 255, 255)" style="fill-opacity:1.00" />
<!-- End 'C' -->
<!-- Begin 'T' -->
<rect height="0.001364" width="50.000000" x="810.000000" y="109.974423" fill="rgb(0, 100, 0)" style="fill-opacity:1.00" />
<rect height="0.008526" width="10.000000" x="830.000000" y="109.974423" fill="rgb(0, 100, 0)" style="fill-opacity:1.00" />
<!-- End 'T' -->
<!-- Begin 'G' -->
<ellipse cx="835.000000" cy="109.987212" rx="25.000000" ry="0.004263" fill="rgb(255, 165, 0)" style="fill-opacity:1.00" />
<ellipse cx="835.000000" cy="109.987212" rx="16.666667" ry="0.002842" fill="rgb(255, 255, 255)" style="fill-opacity:1.00" />
<rect height="0.004263" width="25.000000" x="835.000000" y="109.985080" fill="rgb(255, 255, 255)" style="fill-opacity:1.00" />
<rect height="0.001066" width="25.000000" x="835.000000" y="109.988277" fill="rgb(255, 165, 0)" style="fill-opacity:1.00" />
<rect height="0.003197" width="6.250000" x="853.750000" y="109.988277" fill="rgb(255, 165, 0)" style="fill-opacity:1.00" />
<!-- End 'G' -->
<!-- Begin 'A' -->
<polygon points=" 810.000000, 110.000000, 831.000000, 109.991474, 839.000000, 109.991474, 860.000000, 110.000000, 852.500000, 110.000000, 846.250000, 109.997869, 823.750000, 109.997869, 817.500000, 110.000000" fill="rgb(178, 34, 34)" style="fill-opacity:1.00" />
<!-- End 'A' -->
<!-- Begin 'A' -->
<polygon points=" 870.000000, 98.419504, 891.000000, 55.418368, 899.000000, 55.418368, 920.000000, 98.419504, 912.500000, 98.419504, 906.250000, 87.669220, 883.750000, 87.669220, 877.500000, 98.419504" fill="rgb(178, 34, 34)" style="fill-opacity:1.00" />
<polygon points=" 895.000000, 64.018595, 887.000000, 80.219050, 902.000000, 80.219050" fill="rgb(255, 255, 255)" style="fill-opacity:1.00" />
<!-- End 'A' -->
<!-- Begin 'T' -->
<rect height="1.564790" width="50.000000" x="870.000000" y="98.419504" fill="rgb(0, 100, 0)" style="fill-opacity:1.00" />
<rect height="9.779935" width="10.000000" x="890.000000" y="98.419504" fill="rgb(0, 100, 0)" style="fill-opacity:1.00" />
<!-- End 'T' -->
<!-- Begin 'G' -->
<ellipse cx="895.000000" cy="108.793964" rx="25.000000" ry="0.594525" fill="rgb(255, 165, 0)" style="fill-opacity:1.00" />
<ellipse cx="895.000000" cy="108.793964" rx="16.666667" ry="0.396350" fill="rgb(255, 255, 255)" style="fill-opacity:1.00" />
<rect height="0.594525" width="25.000000" x="895.000000" y="108.496701" fill="rgb(255, 255, 255)" style="fill-opacity:1.00" />
<rect height="0.148631" width="25.000000" x="895.000000" y="108.942595" fill="rgb(255, 165, 0)" style="fill-opacity:1.00" />
<rect height="0.445894" width="6.250000" x="913.750000" y="108.942595" fill="rgb(255, 165, 0)" style="fill-opacity:1.00" />
<!-- End 'G' -->
<!-- Begin 'C' -->
<ellipse cx="895.000000" cy="109.694244" rx="25.000000" ry="0.305756" fill="rgb(0, 0, 128)" style="fill-opacity:1.00" />
<ellipse cx="895.000000" cy="109.694244" rx="16.666667" ry="0.203837" fill="rgb(255, 255, 255)" style="fill-opacity:1.00" />
<rect height="0.305756" width="25.000000" x="895.000000" y="109.541367" fill="rgb(255, 255, 255)" style="fill-opacity:1.00" />
<!-- End 'C' -->
<!-- Begin 'T' -->
<rect height="3.880331" width="50.000000" x="930.000000" y="67.569613" fill="rgb(0, 100, 0)" style="fill-opacity:1.00" />
<rect height="24.252066" width="10.000000" x="950.000000" y="67.569613" fill="rgb(0, 100, 0)" style="fill-opacity:1.00" />
<!-- End 'T' -->
<!-- Begin 'C' -->
<ellipse cx="955.000000" cy="100.355820" rx="25.000000" ry="8.534141" fill="rgb(0, 0, 128)" style="fill-opacity:1.00" />
<ellipse cx="955.000000" cy="100.355820" rx="16.666667" ry="5.689427" fill="rgb(255, 255, 255)" style="fill-opacity:1.00" />
<rect height="8.534141" width="25.000000" x="955.000000" y="96.088750" fill="rgb(255, 255, 255)" style="fill-opacity:1.00" />
<!-- End 'C' -->
<!-- Begin 'A' -->
<polygon points=" 930.000000, 109.625219, 951.000000, 108.889961, 959.000000, 108.889961, 980.000000, 109.625219, 972.500000, 109.625219, 966.250000, 109.441404, 943.750000, 109.441404, 937.500000, 109.625219" fill="rgb(178, 34, 34)" style="fill-opacity:1.00" />
<!-- End 'A' -->
<!-- Begin 'G' -->
<ellipse cx="955.000000" cy="109.812609" rx="25.000000" ry="0.187391" fill="rgb(255, 165, 0)" style="fill-opacity:1.00" />
<ellipse cx="955.000000" cy="109.812609" rx="16.666667" ry="0.124927" fill="rgb(255, 255, 255)" style="fill-opacity:1.00" />
<rect height="0.187391" width="25.000000" x="955.000000" y="109.718914" fill="rgb(255, 255, 255)" style="fill-opacity:1.00" />
<rect height="0.046848" width="25.000000" x="955.000000" y="109.859457" fill="rgb(255, 165, 0)" style="fill-opacity:1.00" />
<rect height="0.140543" width="6.250000" x="973.750000" y="109.859457" fill="rgb(255, 165, 0)" style="fill-opacity:1.00" />
<!-- End 'G' -->
<!-- Begin 'G' -->
<ellipse cx="1015.000000" cy="62.780462" rx="25.000000" ry="45.622556" fill="rgb(255, 165, 0)" style="fill-opacity:1.00" />
<ellipse cx="1015.000000" cy="62.780462" rx="16.666667" ry="30.415037" fill="rgb(255, 255, 255)" style="fill-opacity:1.00" />
<rect height="45.622556" width="25.000000" x="1015.000000" y="39.969185" fill="rgb(255, 255, 255)" style="fill-opacity:1.00" />
<rect height="11.405639" width="25.000000" x="1015.000000" y="74.186101" fill="rgb(255, 165, 0)" style="fill-opacity:1.00" />
<rect height="34.216917" width="6.250000" x="1033.750000" y="74.186101" fill="rgb(255, 165, 0)" style="fill-opacity:1.00" />
<!-- End 'G' -->
<!-- Begin 'C' -->
<ellipse cx="1015.000000" cy="109.001886" rx="25.000000" ry="0.598868" fill="rgb(0, 0, 128)" style="fill-opacity:1.00" />
<ellipse cx="1015.000000" cy="109.001886" rx="16.666667" ry="0.399246" fill="rgb(255, 255, 255)" style="fill-opacity:1.00" />
<rect height="0.598868" width="25.000000" x="1015.000000" y="108.702452" fill="rgb(255, 255, 255)" style="fill-opacity:1.00" />
<!-- End 'C' -->
<!-- Begin 'T' -->
<rect height="0.044828" width="50.000000" x="990.000000" y="109.600754" fill="rgb(0, 100, 0)" style="fill-opacity:1.00" />
<rect height="0.280172" width="10.000000" x="1010.000000" y="109.600754" fill="rgb(0, 100, 0)" style="fill-opacity:1.00" />
<!-- End 'T' -->
<!-- Begin 'A' -->
<polygon points=" 990.000000, 110.000000, 1011.000000, 109.880927, 1019.000000, 109.880927, 1040.000000, 110.000000, 1032.500000, 110.000000, 1026.250000, 109.970232, 1003.750000, 109.970232, 997.500000, 110.000000" fill="rgb(178, 34, 34)" style="fill-opacity:1.00" />
<!-- End 'A' -->
<!-- Begin 'T' -->
<rect height="2.351301" width="50.000000" x="1050.000000" y="78.245588" fill="rgb(0, 100, 0)" style="fill-opacity:1.00" />
<rect height="14.695632" width="10.000000" x="1070.000000" y="78.245588" fill="rgb(0, 100, 0)" style="fill-opacity:1.00" />
<!-- End 'T' -->
<!-- Begin 'C' -->
<ellipse cx="1075.000000" cy="100.235471" rx="25.000000" ry="7.294251" fill="rgb(0, 0, 128)" style="fill-opacity:1.00" />
<ellipse cx="1075.000000" cy="100.235471" rx="16.666667" ry="4.862834" fill="rgb(255, 255, 255)" style="fill-opacity:1.00" />
<rect height="7.294251" width="25.000000" x="1075.000000" y="96.588346" fill="rgb(255, 255, 255)" style="fill-opacity:1.00" />
<!-- End 'C' -->
<!-- Begin 'A' -->
<polygon points=" 1050.000000, 109.617695, 1071.000000, 107.529722, 1079.000000, 107.529722, 1100.000000, 109.617695, 1092.500000, 109.617695, 1086.250000, 109.095702, 1063.750000, 109.095702, 1057.500000, 109.617695" fill="rgb(178, 34, 34)" style="fill-opacity:1.00" />
<!-- End 'A' -->
<!-- Begin 'G' -->
<ellipse cx="1075.000000" cy="109.808848" rx="25.000000" ry="0.191152" fill="rgb(255, 165, 0)" style="fill-opacity:1.00" />
<ellipse cx="1075.000000" cy="109.808848" rx="16.666667" ry="0.127435" fill="rgb(255, 255, 255)" style="fill-opacity:1.00" />
<rect height="0.191152" width="25.000000" x="1075.000000" y="109.713271" fill="rgb(255, 255, 255)" style="fill-opacity:1.00" />
<rect height="0.047788" width="25.000000" x="1075.000000" y="109.856636" fill="rgb(255, 165, 0)" style="fill-opacity:1.00" />
<rect height="0.143364" width="6.250000" x="1093.750000" y="109.856636" fill="rgb(255, 165, 0)" style="fill-opacity:1.00" />
<!-- End 'G' -->
<!-- Begin 'C' -->
<ellipse cx="1135.000000" cy="98.342549" rx="25.000000" ry="3.204080" fill="rgb(0, 0, 128)" style="fill-opacity:1.00" />
<ellipse cx="1135.000000" cy="98.342549" rx="16.666667" ry="2.136053" fill="rgb(255, 255, 255)" style="fill-opacity:1.00" />
<rect height="3.204080" width="25.000000" x="1135.000000" y="96.740509" fill="rgb(255, 255, 255)" style="fill-opacity:1.00" />
<!-- End 'C' -->
<!-- Begin 'A' -->
<polygon points=" 1110.000000, 106.558396, 1131.000000, 101.546629, 1139.000000, 101.546629, 1160.000000, 106.558396, 1152.500000, 106.558396, 1146.250000, 105.305454, 1123.750000, 105.305454, 1117.500000, 106.558396" fill="rgb(178, 34, 34)" style="fill-opacity:1.00" />
<!-- End 'A' -->
<!-- Begin 'T' -->
<rect height="0.446646" width="50.000000" x="1110.000000" y="106.558396" fill="rgb(0, 100, 0)" style="fill-opacity:1.00" />
<rect height="2.791538" width="10.000000" x="1130.000000" y="106.558396" fill="rgb(0, 100, 0)" style="fill-opacity:1.00" />
<!-- End 'T' -->
<!-- Begin 'G' -->
<ellipse cx="1135.000000" cy="109.674967" rx="25.000000" ry="0.325033" fill="rgb(255, 165, 0)" style="fill-opacity:1.00" />
<ellipse cx="1135.000000" cy="109.674967" rx="16.666667" ry="0.216689" fill="rgb(255, 255, 255)" style="fill-opacity:1.00" />
<rect height="0.325033" width="25.000000" x="1135.000000" y="109.512450" fill="rgb(255, 255, 255)" style="fill-opacity:1.00" />
<rect height="0.081258" width="25.000000" x="1135.000000" y="109.756225" fill="rgb(255, 165, 0)" style="fill-opacity:1.00" />
<rect height="0.243775" width="6.250000" x="1153.750000" y="109.756225" fill="rgb(255, 165, 0)" style="fill-opacity:1.00" />
<!-- End 'G' -->
<text x="610.000000" y="165">
IC = 17.50
</text>

</svg>
