<?xml version="1.0" encoding="UTF-8" standalone="yes"?>
                 <!DOCTYPE svg PUBLIC "-//W3C//DTD SVG 1.0//EN" "http://www.w3.org/TR/2001/REC-SVG-20010904/DTD/svg10.dtd">
                 <svg height="170" width="900" xmlns="http://www.w3.org/2000/svg" xmlns:xlink="http://www.w3.org/1999/xlink">
                 <line x1="85" y1="120" x2="867" y2="120" style="stroke:rgb(99,99,99);stroke-width:2" />
<rect height="7.000000" width="2.000000" x="85.000000" y="120.000000" fill="rgb(0, 0, 0)" style="fill-opacity:1.00" />
<text x="107.000000" y="140">
1
</text>
<rect height="7.000000" width="2.000000" x="145.000000" y="120.000000" fill="rgb(0, 0, 0)" style="fill-opacity:1.00" />
<text x="167.000000" y="140">
2
</text>
<rect height="7.000000" width="2.000000" x="205.000000" y="120.000000" fill="rgb(0, 0, 0)" style="fill-opacity:1.00" />
<text x="227.000000" y="140">
3
</text>
<rect height="7.000000" width="2.000000" x="265.000000" y="120.000000" fill="rgb(0, 0, 0)" style="fill-opacity:1.00" />
<text x="287.000000" y="140">
4
</text>
<rect height="7.000000" width="2.000000" x="325.000000" y="120.000000" fill="rgb(0, 0, 0)" style="fill-opacity:1.00" />
<text x="347.000000" y="140">
5
</text>
<rect height="7.000000" width="2.000000" x="385.000000" y="120.000000" fill="rgb(0, 0, 0)" style="fill-opacity:1.00" />
<text x="407.000000" y="140">
6
</text>
<rect height="7.000000" width="2.000000" x="445.000000" y="120.000000" fill="rgb(0, 0, 0)" style="fill-opacity:1.00" />
<text x="467.000000" y="140">
7
</text>
<rect height="7.000000" width="2.000000" x="505.000000" y="120.000000" fill="rgb(0, 0, 0)" style="fill-opacity:1.00" />
<text x="527.000000" y="140">
8
</text>
<rect height="7.000000" width="2.000000" x="565.000000" y="120.000000" fill="rgb(0, 0, 0)" style="fill-opacity:1.00" />
<text x="587.000000" y="140">
9
</text>
<rect height="7.000000" width="2.000000" x="625.000000" y="120.000000" fill="rgb(0, 0, 0)" style="fill-opacity:1.00" />
<text x="647.000000" y="140">
10
</text>
<rect height="7.000000" width="2.000000" x="685.000000" y="120.000000" fill="rgb(0, 0, 0)" style="fill-opacity:1.00" />
<text x="707.000000" y="140">
11
</text>
<rect height="7.000000" width="2.000000" x="745.000000" y="120.000000" fill="rgb(0, 0, 0)" style="fill-opacity:1.00" />
<text x="767.000000" y="140">
12
</text>
<rect height="7.000000" width="2.000000" x="805.000000" y="120.000000" fill="rgb(0, 0, 0)" style="fill-opacity:1.00" />
<text x="827.000000" y="140">
13
</text>
<rect height="7.000000" width="2.000000" x="865.000000" y="120.000000" fill="rgb(0, 0, 0)" style="fill-opacity:1.00" />
<line x1="80" y1="112" x2="80" y2="10" style="stroke:rgb(99,99,99);stroke-width:2" />
<rect height="2.000000" width="7.000000" x="73.000000" y="110.000000" fill="rgb(0, 0, 0)" style="fill-opacity:1.00" />
<text x="63" y="115">
0
</text>
<rect height="2.000000" width="7.000000" x="73.000000" y="60.000000" fill="rgb(0, 0, 0)" style="fill-opacity:1.00" />
<text x="63" y="65">
1
</text>
<rect height="2.000000" width="7.000000" x="73.000000" y="10.000000" fill="rgb(0, 0, 0)" style="fill-opacity:1.00" />
<text x="63" y="15">
2
</text>
<text x="50" y="65"
transform="rotate(-90, 50, 70)">
bits
</text>
<!-- Begin 'A' -->
<polygon points=" 90.000000, 109.347665, 111.000000, 109.083268, 119.000000, 109.083268, 140.000000, 109.347665, 132.500000, 109.347665, 126.250000, 109.281566, 103.750000, 109.281566, 97.500000, 109.347665" fill="rgb(178, 34, 34)" style="fill-opacity:1.00" />
<!-- End 'A' -->
<!-- Begin 'G' -->
<ellipse cx="115.000000" cy="109.470722" rx="25.000000" ry="0.123056" fill="rgb(255, 165, 0)" style="fill-opacity:1.00" />
<ellipse cx="115.000000" cy="109.470722" rx="16.666667" ry="0.082038" fill="rgb(255, 255, 255)" style="fill-opacity:1.00" />
<rect height="0.123056" width="25.000000" x="115.000000" y="109.409193" fill="rgb(255, 255, 255)" style="fill-opacity:1.00" />
<rect height="0.030764" width="25.000000" x="115.000000" y="109.501486" fill="rgb(255, 165, 0)" style="fill-opacity:1.00" />
<rect height="0.092292" width="6.250000" x="133.750000" y="109.501486" fill="rgb(255, 165, 0)" style="fill-opacity:1.00" />
<!-- End 'G' -->
<!-- Begin 'T' -->
<rect height="0.037774" width="50.000000" x="90.000000" y="109.593778" fill="rgb(0, 100, 0)" style="fill-opacity:1.00" />
<rect height="0.236089" width="10.000000" x="110.000000" y="109.593778" fill="rgb(0, 100, 0)" style="fill-opacity:1.00" />
<!-- End 'T' -->
<!-- Begin 'C' -->
<ellipse cx="115.000000" cy="109.914933" rx="25.000000" ry="0.085067" fill="rgb(0, 0, 128)" style="fill-opacity:1.00" />
<ellipse cx="115.000000" cy="109.914933" rx="16.666667" ry="0.056711" fill="rgb(255, 255, 255)" style="fill-opacity:1.00" />
<rect height="0.085067" width="25.000000" x="115.000000" y="109.872400" fill="rgb(255, 255, 255)" style="fill-opacity:1.00" />
<!-- End 'C' -->
<!-- Begin 'A' -->
<polygon points=" 150.000000, 107.648015, 171.000000, 106.320229, 179.000000, 106.320229, 200.000000, 107.648015, 192.500000, 107.648015, 186.250000, 107.316068, 163.750000, 107.316068, 157.500000, 107.648015" fill="rgb(178, 34, 34)" style="fill-opacity:1.00" />
<!-- End 'A' -->
<!-- Begin 'T' -->
<rect height="0.170825" width="50.000000" x="150.000000" y="107.648015" fill="rgb(0, 100, 0)" style="fill-opacity:1.00" />
<rect height="1.067655" width="10.000000" x="170.000000" y="107.648015" fill="rgb(0, 100, 0)" style="fill-opacity:1.00" />
<!-- End 'T' -->
<!-- Begin 'G' -->
<ellipse cx="175.000000" cy="109.059283" rx="25.000000" ry="0.343613" fill="rgb(255, 165, 0)" style="fill-opacity:1.00" />
<ellipse cx="175.000000" cy="109.059283" rx="16.666667" ry="0.229075" fill="rgb(255, 255, 255)" style="fill-opacity:1.00" />
<rect height="0.343613" width="25.000000" x="175.000000" y="108.887476" fill="rgb(255, 255, 255)" style="fill-opacity:1.00" />
<rect height="0.085903" width="25.000000" x="175.000000" y="109.145186" fill="rgb(255, 165, 0)" style="fill-opacity:1.00" />
<rect height="0.257710" width="6.250000" x="193.750000" y="109.145186" fill="rgb(255, 165, 0)" style="fill-opacity:1.00" />
<!-- End 'G' -->
<!-- Begin 'C' -->
<ellipse cx="175.000000" cy="109.701448" rx="25.000000" ry="0.298552" fill="rgb(0, 0, 128)" style="fill-opacity:1.00" />
<ellipse cx="175.000000" cy="109.701448" rx="16.666667" ry="0.199035" fill="rgb(255, 255, 255)" style="fill-opacity:1.00" />
<rect height="0.298552" width="25.000000" x="175.000000" y="109.552172" fill="rgb(255, 255, 255)" style="fill-opacity:1.00" />
<!-- End 'C' -->
<!-- Begin 'A' -->
<polygon points=" 210.000000, 107.051690, 231.000000, 105.154893, 239.000000, 105.154893, 260.000000, 107.051690, 252.500000, 107.051690, 246.250000, 106.577491, 223.750000, 106.577491, 217.500000, 107.051690" fill="rgb(178, 34, 34)" style="fill-opacity:1.00" />
<!-- End 'A' -->
<!-- Begin 'T' -->
<rect height="0.209841" width="50.000000" x="210.000000" y="107.051690" fill="rgb(0, 100, 0)" style="fill-opacity:1.00" />
<rect height="1.311508" width="10.000000" x="230.000000" y="107.051690" fill="rgb(0, 100, 0)" style="fill-opacity:1.00" />
<!-- End 'T' -->
<!-- Begin 'G' -->
<ellipse cx="235.000000" cy="108.822340" rx="25.000000" ry="0.459141" fill="rgb(255, 165, 0)" style="fill-opacity:1.00" />
<ellipse cx="235.000000" cy="108.822340" rx="16.666667" ry="0.306094" fill="rgb(255, 255, 255)" style="fill-opacity:1.00" />
<rect height="0.459141" width="25.000000" x="235.000000" y="108.592769" fill="rgb(255, 255, 255)" style="fill-opacity:1.00" />
<rect height="0.114785" width="25.000000" x="235.000000" y="108.937125" fill="rgb(255, 165, 0)" style="fill-opacity:1.00" />
<rect height="0.344356" width="6.250000" x="253.750000" y="108.937125" fill="rgb(255, 165, 0)" style="fill-opacity:1.00" />
<!-- End 'G' -->
<!-- Begin 'C' -->
<ellipse cx="235.000000" cy="109.640741" rx="25.000000" ry="0.359259" fill="rgb(0, 0, 128)" style="fill-opacity:1.00" />
<ellipse cx="235.000000" cy="109.640741" rx="16.666667" ry="0.239506" fill="rgb(255, 255, 255)" style="fill-opacity:1.00" />
<rect height="0.359259" width="25.000000" x="235.000000" y="109.461111" fill="rgb(255, 255, 255)" style="fill-opacity:1.00" />
<!-- End 'C' -->
<!-- Begin 'T' -->
<rect height="0.222211" width="50.000000" x="270.000000" y="106.145135" fill="rgb(0, 100, 0)" style="fill-opacity:1.00" />
<rect height="1.388817" width="10.000000" x="290.000000" y="106.145135" fill="rgb(0, 100, 0)" style="fill-opacity:1.00" />
<!-- End 'T' -->
<!-- Begin 'A' -->
<polygon points=" 270.000000, 108.652280, 291.000000, 107.533952, 299.000000, 107.533952, 320.000000, 108.652280, 312.500000, 108.652280, 306.250000, 108.372698, 283.750000, 108.372698, 277.500000, 108.652280" fill="rgb(178, 34, 34)" style="fill-opacity:1.00" />
<!-- End 'A' -->
<!-- Begin 'C' -->
<ellipse cx="295.000000" cy="109.038197" rx="25.000000" ry="0.385917" fill="rgb(0, 0, 128)" style="fill-opacity:1.00" />
<ellipse cx="295.000000" cy="109.038197" rx="16.666667" ry="0.257278" fill="rgb(255, 255, 255)" style="fill-opacity:1.00" />
<rect height="0.385917" width="25.000000" x="295.000000" y="108.845238" fill="rgb(255, 255, 255)" style="fill-opacity:1.00" />
<!-- End 'C' -->
<!-- Begin 'G' -->
<ellipse cx="295.000000" cy="109.712057" rx="25.000000" ry="0.287943" fill="rgb(255, 165, 0)" style="fill-opacity:1.00" />
<ellipse cx="295.000000" cy="109.712057" rx="16.666667" ry="0.191962" fill="rgb(255, 255, 255)" style="fill-opacity:1.00" />
<rect height="0.287943" width="25.000000" x="295.000000" y="109.568085" fill="rgb(255, 255, 255)" style="fill-opacity:1.00" />
<rect height="0.071986" width="25.000000" x="295.000000" y="109.784043" fill="rgb(255, 165, 0)" style="fill-opacity:1.00" />
<rect height="0.215957" width="6.250000" x="313.750000" y="109.784043" fill="rgb(255, 165, 0)" style="fill-opacity:1.00" />
<!-- End 'G' -->
<!-- Begin 'A' -->
<polygon points=" 330.000000, 108.677882, 351.000000, 108.068002, 359.000000, 108.068002, 380.000000, 108.677882, 372.500000, 108.677882, 366.250000, 108.525412, 343.750000, 108.525412, 337.500000, 108.677882" fill="rgb(178, 34, 34)" style="fill-opacity:1.00" />
<!-- End 'A' -->
<!-- Begin 'T' -->
<rect height="0.087423" width="50.000000" x="330.000000" y="108.677882" fill="rgb(0, 100, 0)" style="fill-opacity:1.00" />
<rect height="0.546395" width="10.000000" x="350.000000" y="108.677882" fill="rgb(0, 100, 0)" style="fill-opacity:1.00" />
<!-- End 'T' -->
<!-- Begin 'C' -->
<ellipse cx="355.000000" cy="109.452618" rx="25.000000" ry="0.228341" fill="rgb(0, 0, 128)" style="fill-opacity:1.00" />
<ellipse cx="355.000000" cy="109.452618" rx="16.666667" ry="0.152227" fill="rgb(255, 255, 255)" style="fill-opacity:1.00" />
<rect height="0.228341" width="25.000000" x="355.000000" y="109.338447" fill="rgb(255, 255, 255)" style="fill-opacity:1.00" />
<!-- End 'C' -->
<!-- Begin 'G' -->
<ellipse cx="355.000000" cy="109.840479" rx="25.000000" ry="0.159521" fill="rgb(255, 165, 0)" style="fill-opacity:1.00" />
<ellipse cx="355.000000" cy="109.840479" rx="16.666667" ry="0.106347" fill="rgb(255, 255, 255)" style="fill-opacity:1.00" />
<rect height="0.159521" width="25.000000" x="355.000000" y="109.760719" fill="rgb(255, 255, 255)" style="fill-opacity:1.00" />
<rect height="0.039880" width="25.000000" x="355.000000" y="109.880359" fill="rgb(255, 165, 0)" style="fill-opacity:1.00" />
<rect height="0.119641" width="6.250000" x="373.750000" y="109.880359" fill="rgb(255, 165, 0)" style="fill-opacity:1.00" />
<!-- End 'G' -->
<!-- Begin 'G' -->
<ellipse cx="415.000000" cy="107.449915" rx="25.000000" ry="0.489184" fill="rgb(255, 165, 0)" style="fill-opacity:1.00" />
<ellipse cx="415.000000" cy="107.449915" rx="16.666667" ry="0.326123" fill="rgb(255, 255, 255)" style="fill-opacity:1.00" />
<rect height="0.489184" width="25.000000" x="415.000000" y="107.205322" fill="rgb(255, 255, 255)" style="fill-opacity:1.00" />
<rect height="0.122296" width="25.000000" x="415.000000" y="107.572211" fill="rgb(255, 165, 0)" style="fill-opacity:1.00" />
<rect height="0.366888" width="6.250000" x="433.750000" y="107.572211" fill="rgb(255, 165, 0)" style="fill-opacity:1.00" />
<!-- End 'G' -->
<!-- Begin 'T' -->
<rect height="0.132790" width="50.000000" x="390.000000" y="107.939099" fill="rgb(0, 100, 0)" style="fill-opacity:1.00" />
<rect height="0.829936" width="10.000000" x="410.000000" y="107.939099" fill="rgb(0, 100, 0)" style="fill-opacity:1.00" />
<!-- End 'T' -->
<!-- Begin 'A' -->
<polygon points=" 390.000000, 109.585406, 411.000000, 108.769035, 419.000000, 108.769035, 440.000000, 109.585406, 432.500000, 109.585406, 426.250000, 109.381313, 403.750000, 109.381313, 397.500000, 109.585406" fill="rgb(178, 34, 34)" style="fill-opacity:1.00" />
<!-- End 'A' -->
<!-- Begin 'C' -->
<ellipse cx="415.000000" cy="109.792703" rx="25.000000" ry="0.207297" fill="rgb(0, 0, 128)" style="fill-opacity:1.00" />
<ellipse cx="415.000000" cy="109.792703" rx="16.666667" ry="0.138198" fill="rgb(255, 255, 255)" style="fill-opacity:1.00" />
<rect height="0.207297" width="25.000000" x="415.000000" y="109.689054" fill="rgb(255, 255, 255)" style="fill-opacity:1.00" />
<!-- End 'C' -->
<!-- Begin 'A' -->
<polygon points=" 450.000000, 106.554188, 471.000000, 104.084759, 479.000000, 104.084759, 500.000000, 106.554188, 492.500000, 106.554188, 486.250000, 105.936831, 463.750000, 105.936831, 457.500000, 106.554188" fill="rgb(178, 34, 34)" style="fill-opacity:1.00" />
<!-- End 'A' -->
<!-- Begin 'T' -->
<rect height="0.242396" width="50.000000" x="450.000000" y="106.554188" fill="rgb(0, 100, 0)" style="fill-opacity:1.00" />
<rect height="1.514974" width="10.000000" x="470.000000" y="106.554188" fill="rgb(0, 100, 0)" style="fill-opacity:1.00" />
<!-- End 'T' -->
<!-- Begin 'C' -->
<ellipse cx="475.000000" cy="108.588732" rx="25.000000" ry="0.519570" fill="rgb(0, 0, 128)" style="fill-opacity:1.00" />
<ellipse cx="475.000000" cy="108.588732" rx="16.666667" ry="0.346380" fill="rgb(255, 255, 255)" style="fill-opacity:1.00" />
<rect height="0.519570" width="25.000000" x="475.000000" y="108.328947" fill="rgb(255, 255, 255)" style="fill-opacity:1.00" />
<!-- End 'C' -->
<!-- Begin 'G' -->
<ellipse cx="475.000000" cy="109.554151" rx="25.000000" ry="0.445849" fill="rgb(255, 165, 0)" style="fill-opacity:1.00" />
<ellipse cx="475.000000" cy="109.554151" rx="16.666667" ry="0.297233" fill="rgb(255, 255, 255)" style="fill-opacity:1.00" />
<rect height="0.445849" width="25.000000" x="475.000000" y="109.331226" fill="rgb(255, 255, 255)" style="fill-opacity:1.00" />
<rect height="0.111462" width="25.000000" x="475.000000" y="109.665613" fill="rgb(255, 165, 0)" style="fill-opacity:1.00" />
<rect height="0.334387" width="6.250000" x="493.750000" y="109.665613" fill="rgb(255, 165, 0)" style="fill-opacity:1.00" />
<!-- End 'G' -->
<!-- Begin 'A' -->
<polygon points=" 510.000000, 99.973335, 531.000000, 78.108993, 539.000000, 78.108993, 560.000000, 99.973335, 552.500000, 99.973335, 546.250000, 94.507250, 523.750000, 94.507250, 517.500000, 99.973335" fill="rgb(178, 34, 34)" style="fill-opacity:1.00" />
<polygon points=" 535.000000, 82.481862, 527.000000, 90.227599, 542.000000, 90.227599" fill="rgb(255, 255, 255)" style="fill-opacity:1.00" />
<!-- End 'A' -->
<!-- Begin 'G' -->
<ellipse cx="535.000000" cy="102.103953" rx="25.000000" ry="2.130617" fill="rgb(255, 165, 0)" style="fill-opacity:1.00" />
<ellipse cx="535.000000" cy="102.103953" rx="16.666667" ry="1.420412" fill="rgb(255, 255, 255)" style="fill-opacity:1.00" />
<rect height="2.130617" width="25.000000" x="535.000000" y="101.038644" fill="rgb(255, 255, 255)" style="fill-opacity:1.00" />
<rect height="0.532654" width="25.000000" x="535.000000" y="102.636607" fill="rgb(255, 165, 0)" style="fill-opacity:1.00" />
<rect height="1.597963" width="6.250000" x="553.750000" y="102.636607" fill="rgb(255, 165, 0)" style="fill-opacity:1.00" />
<!-- End 'G' -->
<!-- Begin 'T' -->
<rect height="0.663975" width="50.000000" x="510.000000" y="104.234570" fill="rgb(0, 100, 0)" style="fill-opacity:1.00" />
<rect height="4.149841" width="10.000000" x="530.000000" y="104.234570" fill="rgb(0, 100, 0)" style="fill-opacity:1.00" />
<!-- End 'T' -->
<!-- Begin 'C' -->
<ellipse cx="535.000000" cy="109.192206" rx="25.000000" ry="0.807794" fill="rgb(0, 0, 128)" style="fill-opacity:1.00" />
<ellipse cx="535.000000" cy="109.192206" rx="16.666667" ry="0.538530" fill="rgb(255, 255, 255)" style="fill-opacity:1.00" />
<rect height="0.807794" width="25.000000" x="535.000000" y="108.788309" fill="rgb(255, 255, 255)" style="fill-opacity:1.00" />
<!-- End 'C' -->
<!-- Begin 'G' -->
<ellipse cx="595.000000" cy="75.493814" rx="25.000000" ry="20.010940" fill="rgb(255, 165, 0)" style="fill-opacity:1.00" />
<ellipse cx="595.000000" cy="75.493814" rx="16.666667" ry="13.340627" fill="rgb(255, 255, 255)" style="fill-opacity:1.00" />
<rect height="20.010940" width="25.000000" x="595.000000" y="65.488344" fill="rgb(255, 255, 255)" style="fill-opacity:1.00" />
<rect height="5.002735" width="25.000000" x="595.000000" y="80.496549" fill="rgb(255, 165, 0)" style="fill-opacity:1.00" />
<rect height="15.008205" width="6.250000" x="613.750000" y="80.496549" fill="rgb(255, 165, 0)" style="fill-opacity:1.00" />
<!-- End 'G' -->
<!-- Begin 'T' -->
<rect height="2.225619" width="50.000000" x="570.000000" y="95.504754" fill="rgb(0, 100, 0)" style="fill-opacity:1.00" />
<rect height="13.910117" width="10.000000" x="590.000000" y="95.504754" fill="rgb(0, 100, 0)" style="fill-opacity:1.00" />
<!-- End 'T' -->
<!-- Begin 'A' -->
<polygon points=" 570.000000, 109.831629, 591.000000, 109.414871, 599.000000, 109.414871, 620.000000, 109.831629, 612.500000, 109.831629, 606.250000, 109.727439, 583.750000, 109.727439, 577.500000, 109.831629" fill="rgb(178, 34, 34)" style="fill-opacity:1.00" />
<!-- End 'A' -->
<!-- Begin 'C' -->
<ellipse cx="595.000000" cy="109.915814" rx="25.000000" ry="0.084186" fill="rgb(0, 0, 128)" style="fill-opacity:1.00" />
<ellipse cx="595.000000" cy="109.915814" rx="16.666667" ry="0.056124" fill="rgb(255, 255, 255)" style="fill-opacity:1.00" />
<rect height="0.084186" width="25.000000" x="595.000000" y="109.873722" fill="rgb(255, 255, 255)" style="fill-opacity:1.00" />
<!-- End 'C' -->
<!-- Begin 'A' -->
<polygon points=" 630.000000, 104.077288, 651.000000, 33.680017, 659.000000, 33.680017, 680.000000, 104.077288, 672.500000, 104.077288, 666.250000, 86.477970, 643.750000, 86.477970, 637.500000, 104.077288" fill="rgb(178, 34, 34)" style="fill-opacity:1.00" />
<polygon points=" 655.000000, 47.759471, 647.000000, 74.918380, 662.000000, 74.918380" fill="rgb(255, 255, 255)" style="fill-opacity:1.00" />
<!-- End 'A' -->
<!-- Begin 'C' -->
<ellipse cx="655.000000" cy="106.324370" rx="25.000000" ry="2.247083" fill="rgb(0, 0, 128)" style="fill-opacity:1.00" />
<ellipse cx="655.000000" cy="106.324370" rx="16.666667" ry="1.498055" fill="rgb(255, 255, 255)" style="fill-opacity:1.00" />
<rect height="2.247083" width="25.000000" x="655.000000" y="105.200829" fill="rgb(255, 255, 255)" style="fill-opacity:1.00" />
<!-- End 'C' -->
<!-- Begin 'G' -->
<ellipse cx="655.000000" cy="109.006549" rx="25.000000" ry="0.435096" fill="rgb(255, 165, 0)" style="fill-opacity:1.00" />
<ellipse cx="655.000000" cy="109.006549" rx="16.666667" ry="0.290064" fill="rgb(255, 255, 255)" style="fill-opacity:1.00" />
<rect height="0.435096" width="25.000000" x="655.000000" y="108.789001" fill="rgb(255, 255, 255)" style="fill-opacity:1.00" />
<rect height="0.108774" width="25.000000" x="655.000000" y="109.115324" fill="rgb(255, 165, 0)" style="fill-opacity:1.00" />
<rect height="0.326322" width="6.250000" x="673.750000" y="109.115324" fill="rgb(255, 165, 0)" style="fill-opacity:1.00" />
<!-- End 'G' -->
<!-- Begin 'T' -->
<rect height="0.089337" width="50.000000" x="630.000000" y="109.441646" fill="rgb(0, 100, 0)" style="fill-opacity:1.00" />
<rect height="0.558354" width="10.000000" x="650.000000" y="109.441646" fill="rgb(0, 100, 0)" style="fill-opacity:1.00" />
<!-- End 'T' -->
<!-- Begin 'T' -->
<rect height="6.181268" width="50.000000" x="690.000000" y="54.805889" fill="rgb(0, 100, 0)" style="fill-opacity:1.00" />
<rect height="38.632926" width="10.000000" x="710.000000" y="54.805889" fill="rgb(0, 100, 0)" style="fill-opacity:1.00" />
<!-- End 'T' -->
<!-- Begin 'A' -->
<polygon points=" 690.000000, 109.913294, 711.000000, 93.438816, 719.000000, 93.438816, 740.000000, 109.913294, 732.500000, 109.913294, 726.250000, 105.794674, 703.750000, 105.794674, 697.500000, 109.913294" fill="rgb(178, 34, 34)" style="fill-opacity:1.00" />
<polygon points=" 715.000000, 96.733711, 707.000000, 102.323503, 722.000000, 102.323503" fill="rgb(255, 255, 255)" style="fill-opacity:1.00" />
<!-- End 'A' -->
<!-- Begin 'C' -->
<ellipse cx="715.000000" cy="109.953443" rx="25.000000" ry="0.040149" fill="rgb(0, 0, 128)" style="fill-opacity:1.00" />
<ellipse cx="715.000000" cy="109.953443" rx="16.666667" ry="0.026766" fill="rgb(255, 255, 255)" style="fill-opacity:1.00" />
<rect height="0.040149" width="25.000000" x="715.000000" y="109.933369" fill="rgb(255, 255, 255)" style="fill-opacity:1.00" />
<!-- End 'C' -->
<!-- Begin 'G' -->
<ellipse cx="715.000000" cy="109.996796" rx="25.000000" ry="0.003204" fill="rgb(255, 165, 0)" style="fill-opacity:1.00" />
<ellipse cx="715.000000" cy="109.996796" rx="16.666667" ry="0.002136" fill="rgb(255, 255, 255)" style="fill-opacity:1.00" />
<rect height="0.003204" width="25.000000" x="715.000000" y="109.995194" fill="rgb(255, 255, 255)" style="fill-opacity:1.00" />
<rect height="0.000801" width="25.000000" x="715.000000" y="109.997597" fill="rgb(255, 165, 0)" style="fill-opacity:1.00" />
<rect height="0.002403" width="6.250000" x="733.750000" y="109.997597" fill="rgb(255, 165, 0)" style="fill-opacity:1.00" />
<!-- End 'G' -->
<!-- Begin 'T' -->
<rect height="5.590136" width="50.000000" x="750.000000" y="65.119232" fill="rgb(0, 100, 0)" style="fill-opacity:1.00" />
<rect height="34.938350" width="10.000000" x="770.000000" y="65.119232" fill="rgb(0, 100, 0)" style="fill-opacity:1.00" />
<!-- End 'T' -->
<!-- Begin 'A' -->
<polygon points=" 750.000000, 104.334172, 771.000000, 100.057582, 779.000000, 100.057582, 800.000000, 104.334172, 792.500000, 104.334172, 786.250000, 103.265025, 763.750000, 103.265025, 757.500000, 104.334172" fill="rgb(178, 34, 34)" style="fill-opacity:1.00" />
<!-- End 'A' -->
<!-- Begin 'C' -->
<ellipse cx="775.000000" cy="106.087719" rx="25.000000" ry="1.753546" fill="rgb(0, 0, 128)" style="fill-opacity:1.00" />
<ellipse cx="775.000000" cy="106.087719" rx="16.666667" ry="1.169031" fill="rgb(255, 255, 255)" style="fill-opacity:1.00" />
<rect height="1.753546" width="25.000000" x="775.000000" y="105.210946" fill="rgb(255, 255, 255)" style="fill-opacity:1.00" />
<!-- End 'C' -->
<!-- Begin 'G' -->
<ellipse cx="775.000000" cy="108.920633" rx="25.000000" ry="1.079367" fill="rgb(255, 165, 0)" style="fill-opacity:1.00" />
<ellipse cx="775.000000" cy="108.920633" rx="16.666667" ry="0.719578" fill="rgb(255, 255, 255)" style="fill-opacity:1.00" />
<rect height="1.079367" width="25.000000" x="775.000000" y="108.380949" fill="rgb(255, 255, 255)" style="fill-opacity:1.00" />
<rect height="0.269842" width="25.000000" x="775.000000" y="109.190474" fill="rgb(255, 165, 0)" style="fill-opacity:1.00" />
<rect height="0.809526" width="6.250000" x="793.750000" y="109.190474" fill="rgb(255, 165, 0)" style="fill-opacity:1.00" />
<!-- End 'G' -->
<!-- Begin 'C' -->
<ellipse cx="835.000000" cy="65.194618" rx="25.000000" ry="41.676796" fill="rgb(0, 0, 128)" style="fill-opacity:1.00" />
<ellipse cx="835.000000" cy="65.194618" rx="16.666667" ry="27.784530" fill="rgb(255, 255, 255)" style="fill-opacity:1.00" />
<rect height="41.676796" width="25.000000" x="835.000000" y="44.356220" fill="rgb(255, 255, 255)" style="fill-opacity:1.00" />
<!-- End 'C' -->
<!-- Begin 'T' -->
<rect height="0.238794" width="50.000000" x="810.000000" y="106.871413" fill="rgb(0, 100, 0)" style="fill-opacity:1.00" />
<rect height="1.492464" width="10.000000" x="830.000000" y="106.871413" fill="rgb(0, 100, 0)" style="fill-opacity:1.00" />
<!-- End 'T' -->
<!-- Begin 'A' -->
<polygon points=" 810.000000, 109.811270, 831.000000, 108.363877, 839.000000, 108.363877, 860.000000, 109.811270, 852.500000, 109.811270, 846.250000, 109.449421, 823.750000, 109.449421, 817.500000, 109.811270" fill="rgb(178, 34, 34)" style="fill-opacity:1.00" />
<!-- End 'A' -->
<!-- Begin 'G' -->
<ellipse cx="835.000000" cy="109.905635" rx="25.000000" ry="0.094365" fill="rgb(255, 165, 0)" style="fill-opacity:1.00" />
<ellipse cx="835.000000" cy="109.905635" rx="16.666667" ry="0.062910" fill="rgb(255, 255, 255)" style="fill-opacity:1.00" />
<rect height="0.094365" width="25.000000" x="835.000000" y="109.858452" fill="rgb(255, 255, 255)" style="fill-opacity:1.00" />
<rect height="0.023591" width="25.000000" x="835.000000" y="109.929226" fill="rgb(255, 165, 0)" style="fill-opacity:1.00" />
<rect height="0.070774" width="6.250000" x="853.750000" y="109.929226" fill="rgb(255, 165, 0)" style="fill-opacity:1.00" />
<!-- End 'G' -->
<text x="460.000000" y="165">
IC = 7.47
</text>

</svg>
