<?xml version="1.0" encoding="UTF-8" standalone="yes"?>
                 <!DOCTYPE svg PUBLIC "-//W3C//DTD SVG 1.0//EN" "http://www.w3.org/TR/2001/REC-SVG-20010904/DTD/svg10.dtd">
                 <svg height="170" width="900" xmlns="http://www.w3.org/2000/svg" xmlns:xlink="http://www.w3.org/1999/xlink">
                 <line x1="85" y1="120" x2="867" y2="120" style="stroke:rgb(99,99,99);stroke-width:2" />
<rect height="7.000000" width="2.000000" x="85.000000" y="120.000000" fill="rgb(0, 0, 0)" style="fill-opacity:1.00" />
<text x="107.000000" y="140">
1
</text>
<rect height="7.000000" width="2.000000" x="145.000000" y="120.000000" fill="rgb(0, 0, 0)" style="fill-opacity:1.00" />
<text x="167.000000" y="140">
2
</text>
<rect height="7.000000" width="2.000000" x="205.000000" y="120.000000" fill="rgb(0, 0, 0)" style="fill-opacity:1.00" />
<text x="227.000000" y="140">
3
</text>
<rect height="7.000000" width="2.000000" x="265.000000" y="120.000000" fill="rgb(0, 0, 0)" style="fill-opacity:1.00" />
<text x="287.000000" y="140">
4
</text>
<rect height="7.000000" width="2.000000" x="325.000000" y="120.000000" fill="rgb(0, 0, 0)" style="fill-opacity:1.00" />
<text x="347.000000" y="140">
5
</text>
<rect height="7.000000" width="2.000000" x="385.000000" y="120.000000" fill="rgb(0, 0, 0)" style="fill-opacity:1.00" />
<text x="407.000000" y="140">
6
</text>
<rect height="7.000000" width="2.000000" x="445.000000" y="120.000000" fill="rgb(0, 0, 0)" style="fill-opacity:1.00" />
<text x="467.000000" y="140">
7
</text>
<rect height="7.000000" width="2.000000" x="505.000000" y="120.000000" fill="rgb(0, 0, 0)" style="fill-opacity:1.00" />
<text x="527.000000" y="140">
8
</text>
<rect height="7.000000" width="2.000000" x="565.000000" y="120.000000" fill="rgb(0, 0, 0)" style="fill-opacity:1.00" />
<text x="587.000000" y="140">
9
</text>
<rect height="7.000000" width="2.000000" x="625.000000" y="120.000000" fill="rgb(0, 0, 0)" style="fill-opacity:1.00" />
<text x="647.000000" y="140">
10
</text>
<rect height="7.000000" width="2.000000" x="685.000000" y="120.000000" fill="rgb(0, 0, 0)" style="fill-opacity:1.00" />
<text x="707.000000" y="140">
11
</text>
<rect height="7.000000" width="2.000000" x="745.000000" y="120.000000" fill="rgb(0, 0, 0)" style="fill-opacity:1.00" />
<text x="767.000000" y="140">
12
</text>
<rect height="7.000000" width="2.000000" x="805.000000" y="120.000000" fill="rgb(0, 0, 0)" style="fill-opacity:1.00" />
<text x="827.000000" y="140">
13
</text>
<rect height="7.000000" width="2.000000" x="865.000000" y="120.000000" fill="rgb(0, 0, 0)" style="fill-opacity:1.00" />
<line x1="80" y1="112" x2="80" y2="10" style="stroke:rgb(99,99,99);stroke-width:2" />
<rect height="2.000000" width="7.000000" x="73.000000" y="110.000000" fill="rgb(0, 0, 0)" style="fill-opacity:1.00" />
<text x="63" y="115">
0
</text>
<rect height="2.000000" width="7.000000" x="73.000000" y="60.000000" fill="rgb(0, 0, 0)" style="fill-opacity:1.00" />
<text x="63" y="65">
1
</text>
<rect height="2.000000" width="7.000000" x="73.000000" y="10.000000" fill="rgb(0, 0, 0)" style="fill-opacity:1.00" />
<text x="63" y="15">
2
</text>
<text x="50" y="65"
transform="rotate(-90, 50, 70)">
bits
</text>
<!-- Begin 'A' -->
<polygon points=" 90.000000, 109.234924, 111.000000, 108.917397, 119.000000, 108.917397, 140.000000, 109.234924, 132.500000, 109.234924, 126.250000, 109.155542, 103.750000, 109.155542, 97.500000, 109.234924" fill="rgb(178, 34, 34)" style="fill-opacity:1.00" />
<!-- End 'A' -->
<!-- Begin 'G' -->
<ellipse cx="115.000000" cy="109.380237" rx="25.000000" ry="0.145314" fill="rgb(255, 165, 0)" style="fill-opacity:1.00" />
<ellipse cx="115.000000" cy="109.380237" rx="16.666667" ry="0.096876" fill="rgb(255, 255, 255)" style="fill-opacity:1.00" />
<rect height="0.145314" width="25.000000" x="115.000000" y="109.307580" fill="rgb(255, 255, 255)" style="fill-opacity:1.00" />
<rect height="0.036328" width="25.000000" x="115.000000" y="109.416566" fill="rgb(255, 165, 0)" style="fill-opacity:1.00" />
<rect height="0.108985" width="6.250000" x="133.750000" y="109.416566" fill="rgb(255, 165, 0)" style="fill-opacity:1.00" />
<!-- End 'G' -->
<!-- Begin 'T' -->
<rect height="0.044631" width="50.000000" x="90.000000" y="109.525551" fill="rgb(0, 100, 0)" style="fill-opacity:1.00" />
<rect height="0.278943" width="10.000000" x="110.000000" y="109.525551" fill="rgb(0, 100, 0)" style="fill-opacity:1.00" />
<!-- End 'T' -->
<!-- Begin 'C' -->
<ellipse cx="115.000000" cy="109.902247" rx="25.000000" ry="0.097753" fill="rgb(0, 0, 128)" style="fill-opacity:1.00" />
<ellipse cx="115.000000" cy="109.902247" rx="16.666667" ry="0.065169" fill="rgb(255, 255, 255)" style="fill-opacity:1.00" />
<rect height="0.097753" width="25.000000" x="115.000000" y="109.853371" fill="rgb(255, 255, 255)" style="fill-opacity:1.00" />
<!-- End 'C' -->
<!-- Begin 'A' -->
<polygon points=" 150.000000, 107.655053, 171.000000, 106.343086, 179.000000, 106.343086, 200.000000, 107.655053, 192.500000, 107.655053, 186.250000, 107.327061, 163.750000, 107.327061, 157.500000, 107.655053" fill="rgb(178, 34, 34)" style="fill-opacity:1.00" />
<!-- End 'A' -->
<!-- Begin 'T' -->
<rect height="0.171039" width="50.000000" x="150.000000" y="107.655053" fill="rgb(0, 100, 0)" style="fill-opacity:1.00" />
<rect height="1.068996" width="10.000000" x="170.000000" y="107.655053" fill="rgb(0, 100, 0)" style="fill-opacity:1.00" />
<!-- End 'T' -->
<!-- Begin 'G' -->
<ellipse cx="175.000000" cy="109.066249" rx="25.000000" ry="0.342200" fill="rgb(255, 165, 0)" style="fill-opacity:1.00" />
<ellipse cx="175.000000" cy="109.066249" rx="16.666667" ry="0.228133" fill="rgb(255, 255, 255)" style="fill-opacity:1.00" />
<rect height="0.342200" width="25.000000" x="175.000000" y="108.895149" fill="rgb(255, 255, 255)" style="fill-opacity:1.00" />
<rect height="0.085550" width="25.000000" x="175.000000" y="109.151799" fill="rgb(255, 165, 0)" style="fill-opacity:1.00" />
<rect height="0.256650" width="6.250000" x="193.750000" y="109.151799" fill="rgb(255, 165, 0)" style="fill-opacity:1.00" />
<!-- End 'G' -->
<!-- Begin 'C' -->
<ellipse cx="175.000000" cy="109.704225" rx="25.000000" ry="0.295775" fill="rgb(0, 0, 128)" style="fill-opacity:1.00" />
<ellipse cx="175.000000" cy="109.704225" rx="16.666667" ry="0.197184" fill="rgb(255, 255, 255)" style="fill-opacity:1.00" />
<rect height="0.295775" width="25.000000" x="175.000000" y="109.556337" fill="rgb(255, 255, 255)" style="fill-opacity:1.00" />
<!-- End 'C' -->
<!-- Begin 'A' -->
<polygon points=" 210.000000, 107.157218, 231.000000, 105.364703, 239.000000, 105.364703, 260.000000, 107.157218, 252.500000, 107.157218, 246.250000, 106.709089, 223.750000, 106.709089, 217.500000, 107.157218" fill="rgb(178, 34, 34)" style="fill-opacity:1.00" />
<!-- End 'A' -->
<!-- Begin 'T' -->
<rect height="0.202244" width="50.000000" x="210.000000" y="107.157218" fill="rgb(0, 100, 0)" style="fill-opacity:1.00" />
<rect height="1.264024" width="10.000000" x="230.000000" y="107.157218" fill="rgb(0, 100, 0)" style="fill-opacity:1.00" />
<!-- End 'T' -->
<!-- Begin 'G' -->
<ellipse cx="235.000000" cy="108.864958" rx="25.000000" ry="0.443717" fill="rgb(255, 165, 0)" style="fill-opacity:1.00" />
<ellipse cx="235.000000" cy="108.864958" rx="16.666667" ry="0.295811" fill="rgb(255, 255, 255)" style="fill-opacity:1.00" />
<rect height="0.443717" width="25.000000" x="235.000000" y="108.643100" fill="rgb(255, 255, 255)" style="fill-opacity:1.00" />
<rect height="0.110929" width="25.000000" x="235.000000" y="108.975887" fill="rgb(255, 165, 0)" style="fill-opacity:1.00" />
<rect height="0.332787" width="6.250000" x="253.750000" y="108.975887" fill="rgb(255, 165, 0)" style="fill-opacity:1.00" />
<!-- End 'G' -->
<!-- Begin 'C' -->
<ellipse cx="235.000000" cy="109.654337" rx="25.000000" ry="0.345663" fill="rgb(0, 0, 128)" style="fill-opacity:1.00" />
<ellipse cx="235.000000" cy="109.654337" rx="16.666667" ry="0.230442" fill="rgb(255, 255, 255)" style="fill-opacity:1.00" />
<rect height="0.345663" width="25.000000" x="235.000000" y="109.481506" fill="rgb(255, 255, 255)" style="fill-opacity:1.00" />
<!-- End 'C' -->
<!-- Begin 'T' -->
<rect height="0.221849" width="50.000000" x="270.000000" y="106.155910" fill="rgb(0, 100, 0)" style="fill-opacity:1.00" />
<rect height="1.386559" width="10.000000" x="290.000000" y="106.155910" fill="rgb(0, 100, 0)" style="fill-opacity:1.00" />
<!-- End 'T' -->
<!-- Begin 'A' -->
<polygon points=" 270.000000, 108.655792, 291.000000, 107.542469, 299.000000, 107.542469, 320.000000, 108.655792, 312.500000, 108.655792, 306.250000, 108.377462, 283.750000, 108.377462, 277.500000, 108.655792" fill="rgb(178, 34, 34)" style="fill-opacity:1.00" />
<!-- End 'A' -->
<!-- Begin 'C' -->
<ellipse cx="295.000000" cy="109.039313" rx="25.000000" ry="0.383521" fill="rgb(0, 0, 128)" style="fill-opacity:1.00" />
<ellipse cx="295.000000" cy="109.039313" rx="16.666667" ry="0.255681" fill="rgb(255, 255, 255)" style="fill-opacity:1.00" />
<rect height="0.383521" width="25.000000" x="295.000000" y="108.847553" fill="rgb(255, 255, 255)" style="fill-opacity:1.00" />
<!-- End 'C' -->
<!-- Begin 'G' -->
<ellipse cx="295.000000" cy="109.711417" rx="25.000000" ry="0.288583" fill="rgb(255, 165, 0)" style="fill-opacity:1.00" />
<ellipse cx="295.000000" cy="109.711417" rx="16.666667" ry="0.192389" fill="rgb(255, 255, 255)" style="fill-opacity:1.00" />
<rect height="0.288583" width="25.000000" x="295.000000" y="109.567126" fill="rgb(255, 255, 255)" style="fill-opacity:1.00" />
<rect height="0.072146" width="25.000000" x="295.000000" y="109.783563" fill="rgb(255, 165, 0)" style="fill-opacity:1.00" />
<rect height="0.216437" width="6.250000" x="313.750000" y="109.783563" fill="rgb(255, 165, 0)" style="fill-opacity:1.00" />
<!-- End 'G' -->
<!-- Begin 'A' -->
<polygon points=" 330.000000, 108.660664, 351.000000, 108.059000, 359.000000, 108.059000, 380.000000, 108.660664, 372.500000, 108.660664, 366.250000, 108.510248, 343.750000, 108.510248, 337.500000, 108.660664" fill="rgb(178, 34, 34)" style="fill-opacity:1.00" />
<!-- End 'A' -->
<!-- Begin 'T' -->
<rect height="0.090127" width="50.000000" x="330.000000" y="108.660664" fill="rgb(0, 100, 0)" style="fill-opacity:1.00" />
<rect height="0.563295" width="10.000000" x="350.000000" y="108.660664" fill="rgb(0, 100, 0)" style="fill-opacity:1.00" />
<!-- End 'T' -->
<!-- Begin 'C' -->
<ellipse cx="355.000000" cy="109.452514" rx="25.000000" ry="0.228555" fill="rgb(0, 0, 128)" style="fill-opacity:1.00" />
<ellipse cx="355.000000" cy="109.452514" rx="16.666667" ry="0.152370" fill="rgb(255, 255, 255)" style="fill-opacity:1.00" />
<rect height="0.228555" width="25.000000" x="355.000000" y="109.338236" fill="rgb(255, 255, 255)" style="fill-opacity:1.00" />
<!-- End 'C' -->
<!-- Begin 'G' -->
<ellipse cx="355.000000" cy="109.840535" rx="25.000000" ry="0.159465" fill="rgb(255, 165, 0)" style="fill-opacity:1.00" />
<ellipse cx="355.000000" cy="109.840535" rx="16.666667" ry="0.106310" fill="rgb(255, 255, 255)" style="fill-opacity:1.00" />
<rect height="0.159465" width="25.000000" x="355.000000" y="109.760802" fill="rgb(255, 255, 255)" style="fill-opacity:1.00" />
<rect height="0.039866" width="25.000000" x="355.000000" y="109.880401" fill="rgb(255, 165, 0)" style="fill-opacity:1.00" />
<rect height="0.119599" width="6.250000" x="373.750000" y="109.880401" fill="rgb(255, 165, 0)" style="fill-opacity:1.00" />
<!-- End 'G' -->
<!-- Begin 'G' -->
<ellipse cx="415.000000" cy="107.665108" rx="25.000000" ry="0.429459" fill="rgb(255, 165, 0)" style="fill-opacity:1.00" />
<ellipse cx="415.000000" cy="107.665108" rx="16.666667" ry="0.286306" fill="rgb(255, 255, 255)" style="fill-opacity:1.00" />
<rect height="0.429459" width="25.000000" x="415.000000" y="107.450379" fill="rgb(255, 255, 255)" style="fill-opacity:1.00" />
<rect height="0.107365" width="25.000000" x="415.000000" y="107.772473" fill="rgb(255, 165, 0)" style="fill-opacity:1.00" />
<rect height="0.322094" width="6.250000" x="433.750000" y="107.772473" fill="rgb(255, 165, 0)" style="fill-opacity:1.00" />
<!-- End 'G' -->
<!-- Begin 'T' -->
<rect height="0.123400" width="50.000000" x="390.000000" y="108.094567" fill="rgb(0, 100, 0)" style="fill-opacity:1.00" />
<rect height="0.771252" width="10.000000" x="410.000000" y="108.094567" fill="rgb(0, 100, 0)" style="fill-opacity:1.00" />
<!-- End 'T' -->
<!-- Begin 'A' -->
<polygon points=" 390.000000, 109.613979, 411.000000, 108.865820, 419.000000, 108.865820, 440.000000, 109.613979, 432.500000, 109.613979, 426.250000, 109.426939, 403.750000, 109.426939, 397.500000, 109.613979" fill="rgb(178, 34, 34)" style="fill-opacity:1.00" />
<!-- End 'A' -->
<!-- Begin 'C' -->
<ellipse cx="415.000000" cy="109.806989" rx="25.000000" ry="0.193011" fill="rgb(0, 0, 128)" style="fill-opacity:1.00" />
<ellipse cx="415.000000" cy="109.806989" rx="16.666667" ry="0.128674" fill="rgb(255, 255, 255)" style="fill-opacity:1.00" />
<rect height="0.193011" width="25.000000" x="415.000000" y="109.710484" fill="rgb(255, 255, 255)" style="fill-opacity:1.00" />
<!-- End 'C' -->
<!-- Begin 'A' -->
<polygon points=" 450.000000, 106.724482, 471.000000, 104.447482, 479.000000, 104.447482, 500.000000, 106.724482, 492.500000, 106.724482, 486.250000, 106.155232, 463.750000, 106.155232, 457.500000, 106.724482" fill="rgb(178, 34, 34)" style="fill-opacity:1.00" />
<!-- End 'A' -->
<!-- Begin 'T' -->
<rect height="0.231366" width="50.000000" x="450.000000" y="106.724482" fill="rgb(0, 100, 0)" style="fill-opacity:1.00" />
<rect height="1.446039" width="10.000000" x="470.000000" y="106.724482" fill="rgb(0, 100, 0)" style="fill-opacity:1.00" />
<!-- End 'T' -->
<!-- Begin 'C' -->
<ellipse cx="475.000000" cy="108.659726" rx="25.000000" ry="0.489205" fill="rgb(0, 0, 128)" style="fill-opacity:1.00" />
<ellipse cx="475.000000" cy="108.659726" rx="16.666667" ry="0.326137" fill="rgb(255, 255, 255)" style="fill-opacity:1.00" />
<rect height="0.489205" width="25.000000" x="475.000000" y="108.415123" fill="rgb(255, 255, 255)" style="fill-opacity:1.00" />
<!-- End 'C' -->
<!-- Begin 'G' -->
<ellipse cx="475.000000" cy="109.574466" rx="25.000000" ry="0.425534" fill="rgb(255, 165, 0)" style="fill-opacity:1.00" />
<ellipse cx="475.000000" cy="109.574466" rx="16.666667" ry="0.283690" fill="rgb(255, 255, 255)" style="fill-opacity:1.00" />
<rect height="0.425534" width="25.000000" x="475.000000" y="109.361699" fill="rgb(255, 255, 255)" style="fill-opacity:1.00" />
<rect height="0.106384" width="25.000000" x="475.000000" y="109.680849" fill="rgb(255, 165, 0)" style="fill-opacity:1.00" />
<rect height="0.319151" width="6.250000" x="493.750000" y="109.680849" fill="rgb(255, 165, 0)" style="fill-opacity:1.00" />
<!-- End 'G' -->
<!-- Begin 'A' -->
<polygon points=" 510.000000, 100.123267, 531.000000, 79.812060, 539.000000, 79.812060, 560.000000, 100.123267, 552.500000, 100.123267, 546.250000, 95.045465, 523.750000, 95.045465, 517.500000, 100.123267" fill="rgb(178, 34, 34)" style="fill-opacity:1.00" />
<polygon points=" 535.000000, 83.874301, 527.000000, 90.998784, 542.000000, 90.998784" fill="rgb(255, 255, 255)" style="fill-opacity:1.00" />
<!-- End 'A' -->
<!-- Begin 'G' -->
<ellipse cx="535.000000" cy="102.203940" rx="25.000000" ry="2.080673" fill="rgb(255, 165, 0)" style="fill-opacity:1.00" />
<ellipse cx="535.000000" cy="102.203940" rx="16.666667" ry="1.387115" fill="rgb(255, 255, 255)" style="fill-opacity:1.00" />
<rect height="2.080673" width="25.000000" x="535.000000" y="101.163603" fill="rgb(255, 255, 255)" style="fill-opacity:1.00" />
<rect height="0.520168" width="25.000000" x="535.000000" y="102.724108" fill="rgb(255, 165, 0)" style="fill-opacity:1.00" />
<rect height="1.560505" width="6.250000" x="553.750000" y="102.724108" fill="rgb(255, 165, 0)" style="fill-opacity:1.00" />
<!-- End 'G' -->
<!-- Begin 'T' -->
<rect height="0.654976" width="50.000000" x="510.000000" y="104.284613" fill="rgb(0, 100, 0)" style="fill-opacity:1.00" />
<rect height="4.093599" width="10.000000" x="530.000000" y="104.284613" fill="rgb(0, 100, 0)" style="fill-opacity:1.00" />
<!-- End 'T' -->
<!-- Begin 'C' -->
<ellipse cx="535.000000" cy="109.189106" rx="25.000000" ry="0.810894" fill="rgb(0, 0, 128)" style="fill-opacity:1.00" />
<ellipse cx="535.000000" cy="109.189106" rx="16.666667" ry="0.540596" fill="rgb(255, 255, 255)" style="fill-opacity:1.00" />
<rect height="0.810894" width="25.000000" x="535.000000" y="108.783658" fill="rgb(255, 255, 255)" style="fill-opacity:1.00" />
<!-- End 'C' -->
<!-- Begin 'G' -->
<ellipse cx="595.000000" cy="74.887977" rx="25.000000" ry="21.205453" fill="rgb(255, 165, 0)" style="fill-opacity:1.00" />
<ellipse cx="595.000000" cy="74.887977" rx="16.666667" ry="14.136968" fill="rgb(255, 255, 255)" style="fill-opacity:1.00" />
<rect height="21.205453" width="25.000000" x="595.000000" y="64.285251" fill="rgb(255, 255, 255)" style="fill-opacity:1.00" />
<rect height="5.301363" width="25.000000" x="595.000000" y="80.189340" fill="rgb(255, 165, 0)" style="fill-opacity:1.00" />
<rect height="15.904090" width="6.250000" x="613.750000" y="80.189340" fill="rgb(255, 165, 0)" style="fill-opacity:1.00" />
<!-- End 'G' -->
<!-- Begin 'T' -->
<rect height="2.137167" width="50.000000" x="570.000000" y="96.093430" fill="rgb(0, 100, 0)" style="fill-opacity:1.00" />
<rect height="13.357297" width="10.000000" x="590.000000" y="96.093430" fill="rgb(0, 100, 0)" style="fill-opacity:1.00" />
<!-- End 'T' -->
<!-- Begin 'A' -->
<polygon points=" 570.000000, 109.859076, 591.000000, 109.450727, 599.000000, 109.450727, 620.000000, 109.859076, 612.500000, 109.859076, 606.250000, 109.756988, 583.750000, 109.756988, 577.500000, 109.859076" fill="rgb(178, 34, 34)" style="fill-opacity:1.00" />
<!-- End 'A' -->
<!-- Begin 'C' -->
<ellipse cx="595.000000" cy="109.929538" rx="25.000000" ry="0.070462" fill="rgb(0, 0, 128)" style="fill-opacity:1.00" />
<ellipse cx="595.000000" cy="109.929538" rx="16.666667" ry="0.046975" fill="rgb(255, 255, 255)" style="fill-opacity:1.00" />
<rect height="0.070462" width="25.000000" x="595.000000" y="109.894307" fill="rgb(255, 255, 255)" style="fill-opacity:1.00" />
<!-- End 'C' -->
<!-- Begin 'A' -->
<polygon points=" 630.000000, 104.437611, 651.000000, 33.201720, 659.000000, 33.201720, 680.000000, 104.437611, 672.500000, 104.437611, 666.250000, 86.628638, 643.750000, 86.628638, 637.500000, 104.437611" fill="rgb(178, 34, 34)" style="fill-opacity:1.00" />
<polygon points=" 655.000000, 47.448899, 647.000000, 74.943255, 662.000000, 74.943255" fill="rgb(255, 255, 255)" style="fill-opacity:1.00" />
<!-- End 'A' -->
<!-- Begin 'C' -->
<ellipse cx="655.000000" cy="106.314514" rx="25.000000" ry="1.876903" fill="rgb(0, 0, 128)" style="fill-opacity:1.00" />
<ellipse cx="655.000000" cy="106.314514" rx="16.666667" ry="1.251269" fill="rgb(255, 255, 255)" style="fill-opacity:1.00" />
<rect height="1.876903" width="25.000000" x="655.000000" y="105.376062" fill="rgb(255, 255, 255)" style="fill-opacity:1.00" />
<!-- End 'C' -->
<!-- Begin 'G' -->
<ellipse cx="655.000000" cy="108.707351" rx="25.000000" ry="0.515934" fill="rgb(255, 165, 0)" style="fill-opacity:1.00" />
<ellipse cx="655.000000" cy="108.707351" rx="16.666667" ry="0.343956" fill="rgb(255, 255, 255)" style="fill-opacity:1.00" />
<rect height="0.515934" width="25.000000" x="655.000000" y="108.449384" fill="rgb(255, 255, 255)" style="fill-opacity:1.00" />
<rect height="0.128983" width="25.000000" x="655.000000" y="108.836334" fill="rgb(255, 165, 0)" style="fill-opacity:1.00" />
<rect height="0.386950" width="6.250000" x="673.750000" y="108.836334" fill="rgb(255, 165, 0)" style="fill-opacity:1.00" />
<!-- End 'G' -->
<!-- Begin 'T' -->
<rect height="0.124274" width="50.000000" x="630.000000" y="109.223285" fill="rgb(0, 100, 0)" style="fill-opacity:1.00" />
<rect height="0.776715" width="10.000000" x="650.000000" y="109.223285" fill="rgb(0, 100, 0)" style="fill-opacity:1.00" />
<!-- End 'T' -->
<!-- Begin 'T' -->
<rect height="5.880726" width="50.000000" x="690.000000" y="55.920920" fill="rgb(0, 100, 0)" style="fill-opacity:1.00" />
<rect height="36.754537" width="10.000000" x="710.000000" y="55.920920" fill="rgb(0, 100, 0)" style="fill-opacity:1.00" />
<!-- End 'T' -->
<!-- Begin 'A' -->
<polygon points=" 690.000000, 109.923180, 711.000000, 92.675457, 719.000000, 92.675457, 740.000000, 109.923180, 732.500000, 109.923180, 726.250000, 105.611249, 703.750000, 105.611249, 697.500000, 109.923180" fill="rgb(178, 34, 34)" style="fill-opacity:1.00" />
<polygon points=" 715.000000, 96.125002, 707.000000, 102.024091, 722.000000, 102.024091" fill="rgb(255, 255, 255)" style="fill-opacity:1.00" />
<!-- End 'A' -->
<!-- Begin 'C' -->
<ellipse cx="715.000000" cy="109.959033" rx="25.000000" ry="0.035853" fill="rgb(0, 0, 128)" style="fill-opacity:1.00" />
<ellipse cx="715.000000" cy="109.959033" rx="16.666667" ry="0.023902" fill="rgb(255, 255, 255)" style="fill-opacity:1.00" />
<rect height="0.035853" width="25.000000" x="715.000000" y="109.941107" fill="rgb(255, 255, 255)" style="fill-opacity:1.00" />
<!-- End 'C' -->
<!-- Begin 'G' -->
<ellipse cx="715.000000" cy="109.997443" rx="25.000000" ry="0.002557" fill="rgb(255, 165, 0)" style="fill-opacity:1.00" />
<ellipse cx="715.000000" cy="109.997443" rx="16.666667" ry="0.001704" fill="rgb(255, 255, 255)" style="fill-opacity:1.00" />
<rect height="0.002557" width="25.000000" x="715.000000" y="109.996165" fill="rgb(255, 255, 255)" style="fill-opacity:1.00" />
<rect height="0.000639" width="25.000000" x="715.000000" y="109.998082" fill="rgb(255, 165, 0)" style="fill-opacity:1.00" />
<rect height="0.001918" width="6.250000" x="733.750000" y="109.998082" fill="rgb(255, 165, 0)" style="fill-opacity:1.00" />
<!-- End 'G' -->
<!-- Begin 'T' -->
<rect height="6.083227" width="50.000000" x="750.000000" y="62.183357" fill="rgb(0, 100, 0)" style="fill-opacity:1.00" />
<rect height="38.020166" width="10.000000" x="770.000000" y="62.183357" fill="rgb(0, 100, 0)" style="fill-opacity:1.00" />
<!-- End 'T' -->
<!-- Begin 'A' -->
<polygon points=" 750.000000, 104.534933, 771.000000, 100.203523, 779.000000, 100.203523, 800.000000, 104.534933, 792.500000, 104.534933, 786.250000, 103.452080, 763.750000, 103.452080, 757.500000, 104.534933" fill="rgb(178, 34, 34)" style="fill-opacity:1.00" />
<!-- End 'A' -->
<!-- Begin 'C' -->
<ellipse cx="775.000000" cy="106.238945" rx="25.000000" ry="1.704012" fill="rgb(0, 0, 128)" style="fill-opacity:1.00" />
<ellipse cx="775.000000" cy="106.238945" rx="16.666667" ry="1.136008" fill="rgb(255, 255, 255)" style="fill-opacity:1.00" />
<rect height="1.704012" width="25.000000" x="775.000000" y="105.386939" fill="rgb(255, 255, 255)" style="fill-opacity:1.00" />
<!-- End 'C' -->
<!-- Begin 'G' -->
<ellipse cx="775.000000" cy="108.971478" rx="25.000000" ry="1.028522" fill="rgb(255, 165, 0)" style="fill-opacity:1.00" />
<ellipse cx="775.000000" cy="108.971478" rx="16.666667" ry="0.685681" fill="rgb(255, 255, 255)" style="fill-opacity:1.00" />
<rect height="1.028522" width="25.000000" x="775.000000" y="108.457217" fill="rgb(255, 255, 255)" style="fill-opacity:1.00" />
<rect height="0.257130" width="25.000000" x="775.000000" y="109.228609" fill="rgb(255, 165, 0)" style="fill-opacity:1.00" />
<rect height="0.771391" width="6.250000" x="793.750000" y="109.228609" fill="rgb(255, 165, 0)" style="fill-opacity:1.00" />
<!-- End 'G' -->
<!-- Begin 'C' -->
<ellipse cx="835.000000" cy="66.292994" rx="25.000000" ry="39.791025" fill="rgb(0, 0, 128)" style="fill-opacity:1.00" />
<ellipse cx="835.000000" cy="66.292994" rx="16.666667" ry="26.527350" fill="rgb(255, 255, 255)" style="fill-opacity:1.00" />
<rect height="39.791025" width="25.000000" x="835.000000" y="46.397481" fill="rgb(255, 255, 255)" style="fill-opacity:1.00" />
<!-- End 'C' -->
<!-- Begin 'A' -->
<polygon points=" 810.000000, 108.242294, 831.000000, 106.084019, 839.000000, 106.084019, 860.000000, 108.242294, 852.500000, 108.242294, 846.250000, 107.702725, 823.750000, 107.702725, 817.500000, 108.242294" fill="rgb(178, 34, 34)" style="fill-opacity:1.00" />
<!-- End 'A' -->
<!-- Begin 'T' -->
<rect height="0.250757" width="50.000000" x="810.000000" y="108.242294" fill="rgb(0, 100, 0)" style="fill-opacity:1.00" />
<rect height="1.567233" width="10.000000" x="830.000000" y="108.242294" fill="rgb(0, 100, 0)" style="fill-opacity:1.00" />
<!-- End 'T' -->
<!-- Begin 'G' -->
<ellipse cx="835.000000" cy="109.904763" rx="25.000000" ry="0.095237" fill="rgb(255, 165, 0)" style="fill-opacity:1.00" />
<ellipse cx="835.000000" cy="109.904763" rx="16.666667" ry="0.063491" fill="rgb(255, 255, 255)" style="fill-opacity:1.00" />
<rect height="0.095237" width="25.000000" x="835.000000" y="109.857145" fill="rgb(255, 255, 255)" style="fill-opacity:1.00" />
<rect height="0.023809" width="25.000000" x="835.000000" y="109.928573" fill="rgb(255, 165, 0)" style="fill-opacity:1.00" />
<rect height="0.071427" width="6.250000" x="853.750000" y="109.928573" fill="rgb(255, 165, 0)" style="fill-opacity:1.00" />
<!-- End 'G' -->
<text x="460.000000" y="165">
IC = 7.44
</text>

</svg>
