<?xml version="1.0" encoding="UTF-8" standalone="yes"?>
                 <!DOCTYPE svg PUBLIC "-//W3C//DTD SVG 1.0//EN" "http://www.w3.org/TR/2001/REC-SVG-20010904/DTD/svg10.dtd">
                 <svg height="170" width="960" xmlns="http://www.w3.org/2000/svg" xmlns:xlink="http://www.w3.org/1999/xlink">
                 <line x1="85" y1="120" x2="927" y2="120" style="stroke:rgb(99,99,99);stroke-width:2" />
<rect height="7.000000" width="2.000000" x="85.000000" y="120.000000" fill="rgb(0, 0, 0)" style="fill-opacity:1.00" />
<text x="107.000000" y="140">
1
</text>
<rect height="7.000000" width="2.000000" x="145.000000" y="120.000000" fill="rgb(0, 0, 0)" style="fill-opacity:1.00" />
<text x="167.000000" y="140">
2
</text>
<rect height="7.000000" width="2.000000" x="205.000000" y="120.000000" fill="rgb(0, 0, 0)" style="fill-opacity:1.00" />
<text x="227.000000" y="140">
3
</text>
<rect height="7.000000" width="2.000000" x="265.000000" y="120.000000" fill="rgb(0, 0, 0)" style="fill-opacity:1.00" />
<text x="287.000000" y="140">
4
</text>
<rect height="7.000000" width="2.000000" x="325.000000" y="120.000000" fill="rgb(0, 0, 0)" style="fill-opacity:1.00" />
<text x="347.000000" y="140">
5
</text>
<rect height="7.000000" width="2.000000" x="385.000000" y="120.000000" fill="rgb(0, 0, 0)" style="fill-opacity:1.00" />
<text x="407.000000" y="140">
6
</text>
<rect height="7.000000" width="2.000000" x="445.000000" y="120.000000" fill="rgb(0, 0, 0)" style="fill-opacity:1.00" />
<text x="467.000000" y="140">
7
</text>
<rect height="7.000000" width="2.000000" x="505.000000" y="120.000000" fill="rgb(0, 0, 0)" style="fill-opacity:1.00" />
<text x="527.000000" y="140">
8
</text>
<rect height="7.000000" width="2.000000" x="565.000000" y="120.000000" fill="rgb(0, 0, 0)" style="fill-opacity:1.00" />
<text x="587.000000" y="140">
9
</text>
<rect height="7.000000" width="2.000000" x="625.000000" y="120.000000" fill="rgb(0, 0, 0)" style="fill-opacity:1.00" />
<text x="647.000000" y="140">
10
</text>
<rect height="7.000000" width="2.000000" x="685.000000" y="120.000000" fill="rgb(0, 0, 0)" style="fill-opacity:1.00" />
<text x="707.000000" y="140">
11
</text>
<rect height="7.000000" width="2.000000" x="745.000000" y="120.000000" fill="rgb(0, 0, 0)" style="fill-opacity:1.00" />
<text x="767.000000" y="140">
12
</text>
<rect height="7.000000" width="2.000000" x="805.000000" y="120.000000" fill="rgb(0, 0, 0)" style="fill-opacity:1.00" />
<text x="827.000000" y="140">
13
</text>
<rect height="7.000000" width="2.000000" x="865.000000" y="120.000000" fill="rgb(0, 0, 0)" style="fill-opacity:1.00" />
<text x="887.000000" y="140">
14
</text>
<rect height="7.000000" width="2.000000" x="925.000000" y="120.000000" fill="rgb(0, 0, 0)" style="fill-opacity:1.00" />
<line x1="80" y1="112" x2="80" y2="10" style="stroke:rgb(99,99,99);stroke-width:2" />
<rect height="2.000000" width="7.000000" x="73.000000" y="110.000000" fill="rgb(0, 0, 0)" style="fill-opacity:1.00" />
<text x="63" y="115">
0
</text>
<rect height="2.000000" width="7.000000" x="73.000000" y="60.000000" fill="rgb(0, 0, 0)" style="fill-opacity:1.00" />
<text x="63" y="65">
1
</text>
<rect height="2.000000" width="7.000000" x="73.000000" y="10.000000" fill="rgb(0, 0, 0)" style="fill-opacity:1.00" />
<text x="63" y="15">
2
</text>
<text x="50" y="65"
transform="rotate(-90, 50, 70)">
bits
</text>
<!-- Begin 'T' -->
<rect height="0.227064" width="50.000000" x="90.000000" y="105.939812" fill="rgb(0, 100, 0)" style="fill-opacity:1.00" />
<rect height="1.419148" width="10.000000" x="110.000000" y="105.939812" fill="rgb(0, 100, 0)" style="fill-opacity:1.00" />
<!-- End 'T' -->
<!-- Begin 'A' -->
<polygon points=" 90.000000, 108.604883, 111.000000, 107.358960, 119.000000, 107.358960, 140.000000, 108.604883, 132.500000, 108.604883, 126.250000, 108.293402, 103.750000, 108.293402, 97.500000, 108.604883" fill="rgb(178, 34, 34)" style="fill-opacity:1.00" />
<!-- End 'A' -->
<!-- Begin 'G' -->
<ellipse cx="115.000000" cy="109.013907" rx="25.000000" ry="0.409025" fill="rgb(255, 165, 0)" style="fill-opacity:1.00" />
<ellipse cx="115.000000" cy="109.013907" rx="16.666667" ry="0.272683" fill="rgb(255, 255, 255)" style="fill-opacity:1.00" />
<rect height="0.409025" width="25.000000" x="115.000000" y="108.809395" fill="rgb(255, 255, 255)" style="fill-opacity:1.00" />
<rect height="0.102256" width="25.000000" x="115.000000" y="109.116163" fill="rgb(255, 165, 0)" style="fill-opacity:1.00" />
<rect height="0.306768" width="6.250000" x="133.750000" y="109.116163" fill="rgb(255, 165, 0)" style="fill-opacity:1.00" />
<!-- End 'G' -->
<!-- Begin 'C' -->
<ellipse cx="115.000000" cy="109.711466" rx="25.000000" ry="0.288534" fill="rgb(0, 0, 128)" style="fill-opacity:1.00" />
<ellipse cx="115.000000" cy="109.711466" rx="16.666667" ry="0.192356" fill="rgb(255, 255, 255)" style="fill-opacity:1.00" />
<rect height="0.288534" width="25.000000" x="115.000000" y="109.567199" fill="rgb(255, 255, 255)" style="fill-opacity:1.00" />
<!-- End 'C' -->
<!-- Begin 'T' -->
<rect height="0.371164" width="50.000000" x="150.000000" y="104.398208" fill="rgb(0, 100, 0)" style="fill-opacity:1.00" />
<rect height="2.319773" width="10.000000" x="170.000000" y="104.398208" fill="rgb(0, 100, 0)" style="fill-opacity:1.00" />
<!-- End 'T' -->
<!-- Begin 'A' -->
<polygon points=" 150.000000, 108.061430, 171.000000, 106.717982, 179.000000, 106.717982, 200.000000, 108.061430, 192.500000, 108.061430, 186.250000, 107.725568, 163.750000, 107.725568, 157.500000, 108.061430" fill="rgb(178, 34, 34)" style="fill-opacity:1.00" />
<!-- End 'A' -->
<!-- Begin 'G' -->
<ellipse cx="175.000000" cy="108.635882" rx="25.000000" ry="0.574452" fill="rgb(255, 165, 0)" style="fill-opacity:1.00" />
<ellipse cx="175.000000" cy="108.635882" rx="16.666667" ry="0.382968" fill="rgb(255, 255, 255)" style="fill-opacity:1.00" />
<rect height="0.574452" width="25.000000" x="175.000000" y="108.348656" fill="rgb(255, 255, 255)" style="fill-opacity:1.00" />
<rect height="0.143613" width="25.000000" x="175.000000" y="108.779495" fill="rgb(255, 165, 0)" style="fill-opacity:1.00" />
<rect height="0.430839" width="6.250000" x="193.750000" y="108.779495" fill="rgb(255, 165, 0)" style="fill-opacity:1.00" />
<!-- End 'G' -->
<!-- Begin 'C' -->
<ellipse cx="175.000000" cy="109.605167" rx="25.000000" ry="0.394833" fill="rgb(0, 0, 128)" style="fill-opacity:1.00" />
<ellipse cx="175.000000" cy="109.605167" rx="16.666667" ry="0.263222" fill="rgb(255, 255, 255)" style="fill-opacity:1.00" />
<rect height="0.394833" width="25.000000" x="175.000000" y="109.407750" fill="rgb(255, 255, 255)" style="fill-opacity:1.00" />
<!-- End 'C' -->
<!-- Begin 'G' -->
<ellipse cx="235.000000" cy="104.342591" rx="25.000000" ry="1.552695" fill="rgb(255, 165, 0)" style="fill-opacity:1.00" />
<ellipse cx="235.000000" cy="104.342591" rx="16.666667" ry="1.035130" fill="rgb(255, 255, 255)" style="fill-opacity:1.00" />
<rect height="1.552695" width="25.000000" x="235.000000" y="103.566244" fill="rgb(255, 255, 255)" style="fill-opacity:1.00" />
<rect height="0.388174" width="25.000000" x="235.000000" y="104.730765" fill="rgb(255, 165, 0)" style="fill-opacity:1.00" />
<rect height="1.164521" width="6.250000" x="253.750000" y="104.730765" fill="rgb(255, 165, 0)" style="fill-opacity:1.00" />
<!-- End 'G' -->
<!-- Begin 'T' -->
<rect height="0.290566" width="50.000000" x="210.000000" y="105.895286" fill="rgb(0, 100, 0)" style="fill-opacity:1.00" />
<rect height="1.816038" width="10.000000" x="230.000000" y="105.895286" fill="rgb(0, 100, 0)" style="fill-opacity:1.00" />
<!-- End 'T' -->
<!-- Begin 'A' -->
<polygon points=" 210.000000, 109.111804, 231.000000, 107.711325, 239.000000, 107.711325, 260.000000, 109.111804, 252.500000, 109.111804, 246.250000, 108.761684, 223.750000, 108.761684, 217.500000, 109.111804" fill="rgb(178, 34, 34)" style="fill-opacity:1.00" />
<!-- End 'A' -->
<!-- Begin 'C' -->
<ellipse cx="235.000000" cy="109.555902" rx="25.000000" ry="0.444098" fill="rgb(0, 0, 128)" style="fill-opacity:1.00" />
<ellipse cx="235.000000" cy="109.555902" rx="16.666667" ry="0.296065" fill="rgb(255, 255, 255)" style="fill-opacity:1.00" />
<rect height="0.444098" width="25.000000" x="235.000000" y="109.333853" fill="rgb(255, 255, 255)" style="fill-opacity:1.00" />
<!-- End 'C' -->
<!-- Begin 'A' -->
<polygon points=" 270.000000, 99.586124, 291.000000, 89.955250, 299.000000, 89.955250, 320.000000, 99.586124, 312.500000, 99.586124, 306.250000, 97.178406, 283.750000, 97.178406, 277.500000, 99.586124" fill="rgb(178, 34, 34)" style="fill-opacity:1.00" />
<polygon points=" 295.000000, 91.881425, 287.000000, 94.733775, 302.000000, 94.733775" fill="rgb(255, 255, 255)" style="fill-opacity:1.00" />
<!-- End 'A' -->
<!-- Begin 'C' -->
<ellipse cx="295.000000" cy="102.961761" rx="25.000000" ry="3.375636" fill="rgb(0, 0, 128)" style="fill-opacity:1.00" />
<ellipse cx="295.000000" cy="102.961761" rx="16.666667" ry="2.250424" fill="rgb(255, 255, 255)" style="fill-opacity:1.00" />
<rect height="3.375636" width="25.000000" x="295.000000" y="101.273943" fill="rgb(255, 255, 255)" style="fill-opacity:1.00" />
<!-- End 'C' -->
<!-- Begin 'T' -->
<rect height="0.494591" width="50.000000" x="270.000000" y="106.337397" fill="rgb(0, 100, 0)" style="fill-opacity:1.00" />
<rect height="3.091196" width="10.000000" x="290.000000" y="106.337397" fill="rgb(0, 100, 0)" style="fill-opacity:1.00" />
<!-- End 'T' -->
<!-- Begin 'G' -->
<ellipse cx="295.000000" cy="109.714297" rx="25.000000" ry="0.285703" fill="rgb(255, 165, 0)" style="fill-opacity:1.00" />
<ellipse cx="295.000000" cy="109.714297" rx="16.666667" ry="0.190469" fill="rgb(255, 255, 255)" style="fill-opacity:1.00" />
<rect height="0.285703" width="25.000000" x="295.000000" y="109.571445" fill="rgb(255, 255, 255)" style="fill-opacity:1.00" />
<rect height="0.071426" width="25.000000" x="295.000000" y="109.785723" fill="rgb(255, 165, 0)" style="fill-opacity:1.00" />
<rect height="0.214277" width="6.250000" x="313.750000" y="109.785723" fill="rgb(255, 165, 0)" style="fill-opacity:1.00" />
<!-- End 'G' -->
<!-- Begin 'C' -->
<ellipse cx="355.000000" cy="84.563778" rx="25.000000" ry="14.554373" fill="rgb(0, 0, 128)" style="fill-opacity:1.00" />
<ellipse cx="355.000000" cy="84.563778" rx="16.666667" ry="9.702916" fill="rgb(255, 255, 255)" style="fill-opacity:1.00" />
<rect height="14.554373" width="25.000000" x="355.000000" y="77.286592" fill="rgb(255, 255, 255)" style="fill-opacity:1.00" />
<!-- End 'C' -->
<!-- Begin 'T' -->
<rect height="0.937538" width="50.000000" x="330.000000" y="99.118152" fill="rgb(0, 100, 0)" style="fill-opacity:1.00" />
<rect height="5.859610" width="10.000000" x="350.000000" y="99.118152" fill="rgb(0, 100, 0)" style="fill-opacity:1.00" />
<!-- End 'T' -->
<!-- Begin 'G' -->
<ellipse cx="355.000000" cy="107.042724" rx="25.000000" ry="2.064963" fill="rgb(255, 165, 0)" style="fill-opacity:1.00" />
<ellipse cx="355.000000" cy="107.042724" rx="16.666667" ry="1.376642" fill="rgb(255, 255, 255)" style="fill-opacity:1.00" />
<rect height="2.064963" width="25.000000" x="355.000000" y="106.010243" fill="rgb(255, 255, 255)" style="fill-opacity:1.00" />
<rect height="0.516241" width="25.000000" x="355.000000" y="107.558965" fill="rgb(255, 165, 0)" style="fill-opacity:1.00" />
<rect height="1.548722" width="6.250000" x="373.750000" y="107.558965" fill="rgb(255, 165, 0)" style="fill-opacity:1.00" />
<!-- End 'G' -->
<!-- Begin 'A' -->
<polygon points=" 330.000000, 110.000000, 351.000000, 109.107687, 359.000000, 109.107687, 380.000000, 110.000000, 372.500000, 110.000000, 366.250000, 109.776922, 343.750000, 109.776922, 337.500000, 110.000000" fill="rgb(178, 34, 34)" style="fill-opacity:1.00" />
<!-- End 'A' -->
<!-- Begin 'A' -->
<polygon points=" 390.000000, 108.591216, 411.000000, 16.668615, 419.000000, 16.668615, 440.000000, 108.591216, 432.500000, 108.591216, 426.250000, 85.610566, 403.750000, 85.610566, 397.500000, 108.591216" fill="rgb(178, 34, 34)" style="fill-opacity:1.00" />
<polygon points=" 415.000000, 35.053135, 407.000000, 70.822176, 422.000000, 70.822176" fill="rgb(255, 255, 255)" style="fill-opacity:1.00" />
<!-- End 'A' -->
<!-- Begin 'T' -->
<rect height="0.102494" width="50.000000" x="390.000000" y="108.591216" fill="rgb(0, 100, 0)" style="fill-opacity:1.00" />
<rect height="0.640587" width="10.000000" x="410.000000" y="108.591216" fill="rgb(0, 100, 0)" style="fill-opacity:1.00" />
<!-- End 'T' -->
<!-- Begin 'G' -->
<ellipse cx="415.000000" cy="109.550124" rx="25.000000" ry="0.318321" fill="rgb(255, 165, 0)" style="fill-opacity:1.00" />
<ellipse cx="415.000000" cy="109.550124" rx="16.666667" ry="0.212214" fill="rgb(255, 255, 255)" style="fill-opacity:1.00" />
<rect height="0.318321" width="25.000000" x="415.000000" y="109.390963" fill="rgb(255, 255, 255)" style="fill-opacity:1.00" />
<rect height="0.079580" width="25.000000" x="415.000000" y="109.629704" fill="rgb(255, 165, 0)" style="fill-opacity:1.00" />
<rect height="0.238741" width="6.250000" x="433.750000" y="109.629704" fill="rgb(255, 165, 0)" style="fill-opacity:1.00" />
<!-- End 'G' -->
<!-- Begin 'C' -->
<ellipse cx="415.000000" cy="109.934222" rx="25.000000" ry="0.065778" fill="rgb(0, 0, 128)" style="fill-opacity:1.00" />
<ellipse cx="415.000000" cy="109.934222" rx="16.666667" ry="0.043852" fill="rgb(255, 255, 255)" style="fill-opacity:1.00" />
<rect height="0.065778" width="25.000000" x="415.000000" y="109.901334" fill="rgb(255, 255, 255)" style="fill-opacity:1.00" />
<!-- End 'C' -->
<!-- Begin 'G' -->
<ellipse cx="475.000000" cy="74.281140" rx="25.000000" ry="27.125048" fill="rgb(255, 165, 0)" style="fill-opacity:1.00" />
<ellipse cx="475.000000" cy="74.281140" rx="16.666667" ry="18.083365" fill="rgb(255, 255, 255)" style="fill-opacity:1.00" />
<rect height="27.125048" width="25.000000" x="475.000000" y="60.718616" fill="rgb(255, 255, 255)" style="fill-opacity:1.00" />
<rect height="6.781262" width="25.000000" x="475.000000" y="81.062402" fill="rgb(255, 165, 0)" style="fill-opacity:1.00" />
<rect height="20.343786" width="6.250000" x="493.750000" y="81.062402" fill="rgb(255, 165, 0)" style="fill-opacity:1.00" />
<!-- End 'G' -->
<!-- Begin 'A' -->
<polygon points=" 450.000000, 106.727328, 471.000000, 101.406188, 479.000000, 101.406188, 500.000000, 106.727328, 492.500000, 106.727328, 486.250000, 105.397043, 463.750000, 105.397043, 457.500000, 106.727328" fill="rgb(178, 34, 34)" style="fill-opacity:1.00" />
<!-- End 'A' -->
<!-- Begin 'C' -->
<ellipse cx="475.000000" cy="108.055116" rx="25.000000" ry="1.327788" fill="rgb(0, 0, 128)" style="fill-opacity:1.00" />
<ellipse cx="475.000000" cy="108.055116" rx="16.666667" ry="0.885192" fill="rgb(255, 255, 255)" style="fill-opacity:1.00" />
<rect height="1.327788" width="25.000000" x="475.000000" y="107.391222" fill="rgb(255, 255, 255)" style="fill-opacity:1.00" />
<!-- End 'C' -->
<!-- Begin 'T' -->
<rect height="0.098735" width="50.000000" x="450.000000" y="109.382905" fill="rgb(0, 100, 0)" style="fill-opacity:1.00" />
<rect height="0.617095" width="10.000000" x="470.000000" y="109.382905" fill="rgb(0, 100, 0)" style="fill-opacity:1.00" />
<!-- End 'T' -->
<!-- Begin 'C' -->
<ellipse cx="535.000000" cy="81.986646" rx="25.000000" ry="17.503845" fill="rgb(0, 0, 128)" style="fill-opacity:1.00" />
<ellipse cx="535.000000" cy="81.986646" rx="16.666667" ry="11.669230" fill="rgb(255, 255, 255)" style="fill-opacity:1.00" />
<rect height="17.503845" width="25.000000" x="535.000000" y="73.234723" fill="rgb(255, 255, 255)" style="fill-opacity:1.00" />
<!-- End 'C' -->
<!-- Begin 'G' -->
<ellipse cx="535.000000" cy="102.566111" rx="25.000000" ry="3.075620" fill="rgb(255, 165, 0)" style="fill-opacity:1.00" />
<ellipse cx="535.000000" cy="102.566111" rx="16.666667" ry="2.050413" fill="rgb(255, 255, 255)" style="fill-opacity:1.00" />
<rect height="3.075620" width="25.000000" x="535.000000" y="101.028301" fill="rgb(255, 255, 255)" style="fill-opacity:1.00" />
<rect height="0.768905" width="25.000000" x="535.000000" y="103.335016" fill="rgb(255, 165, 0)" style="fill-opacity:1.00" />
<rect height="2.306715" width="6.250000" x="553.750000" y="103.335016" fill="rgb(255, 165, 0)" style="fill-opacity:1.00" />
<!-- End 'G' -->
<!-- Begin 'T' -->
<rect height="0.489949" width="50.000000" x="510.000000" y="105.641731" fill="rgb(0, 100, 0)" style="fill-opacity:1.00" />
<rect height="3.062181" width="10.000000" x="530.000000" y="105.641731" fill="rgb(0, 100, 0)" style="fill-opacity:1.00" />
<!-- End 'T' -->
<!-- Begin 'A' -->
<polygon points=" 510.000000, 110.000000, 531.000000, 108.703912, 539.000000, 108.703912, 560.000000, 110.000000, 552.500000, 110.000000, 546.250000, 109.675978, 523.750000, 109.675978, 517.500000, 110.000000" fill="rgb(178, 34, 34)" style="fill-opacity:1.00" />
<!-- End 'A' -->
<!-- Begin 'T' -->
<rect height="6.464876" width="50.000000" x="570.000000" y="58.013508" fill="rgb(0, 100, 0)" style="fill-opacity:1.00" />
<rect height="40.405475" width="10.000000" x="590.000000" y="58.013508" fill="rgb(0, 100, 0)" style="fill-opacity:1.00" />
<!-- End 'T' -->
<!-- Begin 'C' -->
<ellipse cx="595.000000" cy="103.137689" rx="25.000000" ry="4.718706" fill="rgb(0, 0, 128)" style="fill-opacity:1.00" />
<ellipse cx="595.000000" cy="103.137689" rx="16.666667" ry="3.145804" fill="rgb(255, 255, 255)" style="fill-opacity:1.00" />
<rect height="4.718706" width="25.000000" x="595.000000" y="100.778336" fill="rgb(255, 255, 255)" style="fill-opacity:1.00" />
<!-- End 'C' -->
<!-- Begin 'G' -->
<ellipse cx="595.000000" cy="108.425279" rx="25.000000" ry="0.568884" fill="rgb(255, 165, 0)" style="fill-opacity:1.00" />
<ellipse cx="595.000000" cy="108.425279" rx="16.666667" ry="0.379256" fill="rgb(255, 255, 255)" style="fill-opacity:1.00" />
<rect height="0.568884" width="25.000000" x="595.000000" y="108.140837" fill="rgb(255, 255, 255)" style="fill-opacity:1.00" />
<rect height="0.142221" width="25.000000" x="595.000000" y="108.567500" fill="rgb(255, 165, 0)" style="fill-opacity:1.00" />
<rect height="0.426663" width="6.250000" x="613.750000" y="108.567500" fill="rgb(255, 165, 0)" style="fill-opacity:1.00" />
<!-- End 'G' -->
<!-- Begin 'A' -->
<polygon points=" 570.000000, 110.000000, 591.000000, 108.994163, 599.000000, 108.994163, 620.000000, 110.000000, 612.500000, 110.000000, 606.250000, 109.748541, 583.750000, 109.748541, 577.500000, 110.000000" fill="rgb(178, 34, 34)" style="fill-opacity:1.00" />
<!-- End 'A' -->
<!-- Begin 'G' -->
<ellipse cx="655.000000" cy="100.580575" rx="25.000000" ry="3.265129" fill="rgb(255, 165, 0)" style="fill-opacity:1.00" />
<ellipse cx="655.000000" cy="100.580575" rx="16.666667" ry="2.176753" fill="rgb(255, 255, 255)" style="fill-opacity:1.00" />
<rect height="3.265129" width="25.000000" x="655.000000" y="98.948011" fill="rgb(255, 255, 255)" style="fill-opacity:1.00" />
<rect height="0.816282" width="25.000000" x="655.000000" y="101.396858" fill="rgb(255, 165, 0)" style="fill-opacity:1.00" />
<rect height="2.448847" width="6.250000" x="673.750000" y="101.396858" fill="rgb(255, 165, 0)" style="fill-opacity:1.00" />
<!-- End 'G' -->
<!-- Begin 'T' -->
<rect height="0.424753" width="50.000000" x="630.000000" y="103.845704" fill="rgb(0, 100, 0)" style="fill-opacity:1.00" />
<rect height="2.654709" width="10.000000" x="650.000000" y="103.845704" fill="rgb(0, 100, 0)" style="fill-opacity:1.00" />
<!-- End 'T' -->
<!-- Begin 'A' -->
<polygon points=" 630.000000, 108.589140, 651.000000, 106.500413, 659.000000, 106.500413, 680.000000, 108.589140, 672.500000, 108.589140, 666.250000, 108.066958, 643.750000, 108.066958, 637.500000, 108.589140" fill="rgb(178, 34, 34)" style="fill-opacity:1.00" />
<!-- End 'A' -->
<!-- Begin 'C' -->
<ellipse cx="655.000000" cy="109.294570" rx="25.000000" ry="0.705430" fill="rgb(0, 0, 128)" style="fill-opacity:1.00" />
<ellipse cx="655.000000" cy="109.294570" rx="16.666667" ry="0.470287" fill="rgb(255, 255, 255)" style="fill-opacity:1.00" />
<rect height="0.705430" width="25.000000" x="655.000000" y="108.941855" fill="rgb(255, 255, 255)" style="fill-opacity:1.00" />
<!-- End 'C' -->
<!-- Begin 'G' -->
<ellipse cx="715.000000" cy="95.651568" rx="25.000000" ry="3.947096" fill="rgb(255, 165, 0)" style="fill-opacity:1.00" />
<ellipse cx="715.000000" cy="95.651568" rx="16.666667" ry="2.631398" fill="rgb(255, 255, 255)" style="fill-opacity:1.00" />
<rect height="3.947096" width="25.000000" x="715.000000" y="93.678020" fill="rgb(255, 255, 255)" style="fill-opacity:1.00" />
<rect height="0.986774" width="25.000000" x="715.000000" y="96.638342" fill="rgb(255, 165, 0)" style="fill-opacity:1.00" />
<rect height="2.960322" width="6.250000" x="733.750000" y="96.638342" fill="rgb(255, 165, 0)" style="fill-opacity:1.00" />
<!-- End 'G' -->
<!-- Begin 'T' -->
<rect height="1.078865" width="50.000000" x="690.000000" y="99.598665" fill="rgb(0, 100, 0)" style="fill-opacity:1.00" />
<rect height="6.742909" width="10.000000" x="710.000000" y="99.598665" fill="rgb(0, 100, 0)" style="fill-opacity:1.00" />
<!-- End 'T' -->
<!-- Begin 'A' -->
<polygon points=" 690.000000, 109.495147, 711.000000, 106.341574, 719.000000, 106.341574, 740.000000, 109.495147, 732.500000, 109.495147, 726.250000, 108.706753, 703.750000, 108.706753, 697.500000, 109.495147" fill="rgb(178, 34, 34)" style="fill-opacity:1.00" />
<!-- End 'A' -->
<!-- Begin 'C' -->
<ellipse cx="715.000000" cy="109.747573" rx="25.000000" ry="0.252427" fill="rgb(0, 0, 128)" style="fill-opacity:1.00" />
<ellipse cx="715.000000" cy="109.747573" rx="16.666667" ry="0.168284" fill="rgb(255, 255, 255)" style="fill-opacity:1.00" />
<rect height="0.252427" width="25.000000" x="715.000000" y="109.621360" fill="rgb(255, 255, 255)" style="fill-opacity:1.00" />
<!-- End 'C' -->
<!-- Begin 'C' -->
<ellipse cx="775.000000" cy="108.651704" rx="25.000000" ry="0.259931" fill="rgb(0, 0, 128)" style="fill-opacity:1.00" />
<ellipse cx="775.000000" cy="108.651704" rx="16.666667" ry="0.173287" fill="rgb(255, 255, 255)" style="fill-opacity:1.00" />
<rect height="0.259931" width="25.000000" x="775.000000" y="108.521739" fill="rgb(255, 255, 255)" style="fill-opacity:1.00" />
<!-- End 'C' -->
<!-- Begin 'T' -->
<rect height="0.071339" width="50.000000" x="750.000000" y="108.911635" fill="rgb(0, 100, 0)" style="fill-opacity:1.00" />
<rect height="0.445869" width="10.000000" x="770.000000" y="108.911635" fill="rgb(0, 100, 0)" style="fill-opacity:1.00" />
<!-- End 'T' -->
<!-- Begin 'A' -->
<polygon points=" 750.000000, 109.688766, 771.000000, 109.357504, 779.000000, 109.357504, 800.000000, 109.688766, 792.500000, 109.688766, 786.250000, 109.605951, 763.750000, 109.605951, 757.500000, 109.688766" fill="rgb(178, 34, 34)" style="fill-opacity:1.00" />
<!-- End 'A' -->
<!-- Begin 'G' -->
<ellipse cx="775.000000" cy="109.844383" rx="25.000000" ry="0.155617" fill="rgb(255, 165, 0)" style="fill-opacity:1.00" />
<ellipse cx="775.000000" cy="109.844383" rx="16.666667" ry="0.103745" fill="rgb(255, 255, 255)" style="fill-opacity:1.00" />
<rect height="0.155617" width="25.000000" x="775.000000" y="109.766575" fill="rgb(255, 255, 255)" style="fill-opacity:1.00" />
<rect height="0.038904" width="25.000000" x="775.000000" y="109.883287" fill="rgb(255, 165, 0)" style="fill-opacity:1.00" />
<rect height="0.116713" width="6.250000" x="793.750000" y="109.883287" fill="rgb(255, 165, 0)" style="fill-opacity:1.00" />
<!-- End 'G' -->
<!-- Begin 'A' -->
<polygon points=" 810.000000, 106.650679, 831.000000, 104.606240, 839.000000, 104.606240, 860.000000, 106.650679, 852.500000, 106.650679, 846.250000, 106.139569, 823.750000, 106.139569, 817.500000, 106.650679" fill="rgb(178, 34, 34)" style="fill-opacity:1.00" />
<!-- End 'A' -->
<!-- Begin 'C' -->
<ellipse cx="835.000000" cy="107.397788" rx="25.000000" ry="0.747108" fill="rgb(0, 0, 128)" style="fill-opacity:1.00" />
<ellipse cx="835.000000" cy="107.397788" rx="16.666667" ry="0.498072" fill="rgb(255, 255, 255)" style="fill-opacity:1.00" />
<rect height="0.747108" width="25.000000" x="835.000000" y="107.024233" fill="rgb(255, 255, 255)" style="fill-opacity:1.00" />
<!-- End 'C' -->
<!-- Begin 'T' -->
<rect height="0.195047" width="50.000000" x="810.000000" y="108.144896" fill="rgb(0, 100, 0)" style="fill-opacity:1.00" />
<rect height="1.219042" width="10.000000" x="830.000000" y="108.144896" fill="rgb(0, 100, 0)" style="fill-opacity:1.00" />
<!-- End 'T' -->
<!-- Begin 'G' -->
<ellipse cx="835.000000" cy="109.681969" rx="25.000000" ry="0.318031" fill="rgb(255, 165, 0)" style="fill-opacity:1.00" />
<ellipse cx="835.000000" cy="109.681969" rx="16.666667" ry="0.212020" fill="rgb(255, 255, 255)" style="fill-opacity:1.00" />
<rect height="0.318031" width="25.000000" x="835.000000" y="109.522954" fill="rgb(255, 255, 255)" style="fill-opacity:1.00" />
<rect height="0.079508" width="25.000000" x="835.000000" y="109.761477" fill="rgb(255, 165, 0)" style="fill-opacity:1.00" />
<rect height="0.238523" width="6.250000" x="853.750000" y="109.761477" fill="rgb(255, 165, 0)" style="fill-opacity:1.00" />
<!-- End 'G' -->
<!-- Begin 'A' -->
<polygon points=" 870.000000, 107.078914, 891.000000, 105.348359, 899.000000, 105.348359, 920.000000, 107.078914, 912.500000, 107.078914, 906.250000, 106.646275, 883.750000, 106.646275, 877.500000, 107.078914" fill="rgb(178, 34, 34)" style="fill-opacity:1.00" />
<!-- End 'A' -->
<!-- Begin 'T' -->
<rect height="0.215006" width="50.000000" x="870.000000" y="107.078914" fill="rgb(0, 100, 0)" style="fill-opacity:1.00" />
<rect height="1.343790" width="10.000000" x="890.000000" y="107.078914" fill="rgb(0, 100, 0)" style="fill-opacity:1.00" />
<!-- End 'T' -->
<!-- Begin 'C' -->
<ellipse cx="895.000000" cy="108.894109" rx="25.000000" ry="0.471405" fill="rgb(0, 0, 128)" style="fill-opacity:1.00" />
<ellipse cx="895.000000" cy="108.894109" rx="16.666667" ry="0.314270" fill="rgb(255, 255, 255)" style="fill-opacity:1.00" />
<rect height="0.471405" width="25.000000" x="895.000000" y="108.658406" fill="rgb(255, 255, 255)" style="fill-opacity:1.00" />
<!-- End 'C' -->
<!-- Begin 'G' -->
<ellipse cx="895.000000" cy="109.682757" rx="25.000000" ry="0.317243" fill="rgb(255, 165, 0)" style="fill-opacity:1.00" />
<ellipse cx="895.000000" cy="109.682757" rx="16.666667" ry="0.211496" fill="rgb(255, 255, 255)" style="fill-opacity:1.00" />
<rect height="0.317243" width="25.000000" x="895.000000" y="109.524135" fill="rgb(255, 255, 255)" style="fill-opacity:1.00" />
<rect height="0.079311" width="25.000000" x="895.000000" y="109.762068" fill="rgb(255, 165, 0)" style="fill-opacity:1.00" />
<rect height="0.237932" width="6.250000" x="913.750000" y="109.762068" fill="rgb(255, 165, 0)" style="fill-opacity:1.00" />
<!-- End 'G' -->
<text x="490.000000" y="165">
IC = 7.46
</text>

</svg>
