<?xml version="1.0" encoding="UTF-8" standalone="yes"?>
                 <!DOCTYPE svg PUBLIC "-//W3C//DTD SVG 1.0//EN" "http://www.w3.org/TR/2001/REC-SVG-20010904/DTD/svg10.dtd">
                 <svg height="170" width="960" xmlns="http://www.w3.org/2000/svg" xmlns:xlink="http://www.w3.org/1999/xlink">
                 <line x1="85" y1="120" x2="927" y2="120" style="stroke:rgb(99,99,99);stroke-width:2" />
<rect height="7.000000" width="2.000000" x="85.000000" y="120.000000" fill="rgb(0, 0, 0)" style="fill-opacity:1.00" />
<text x="107.000000" y="140">
1
</text>
<rect height="7.000000" width="2.000000" x="145.000000" y="120.000000" fill="rgb(0, 0, 0)" style="fill-opacity:1.00" />
<text x="167.000000" y="140">
2
</text>
<rect height="7.000000" width="2.000000" x="205.000000" y="120.000000" fill="rgb(0, 0, 0)" style="fill-opacity:1.00" />
<text x="227.000000" y="140">
3
</text>
<rect height="7.000000" width="2.000000" x="265.000000" y="120.000000" fill="rgb(0, 0, 0)" style="fill-opacity:1.00" />
<text x="287.000000" y="140">
4
</text>
<rect height="7.000000" width="2.000000" x="325.000000" y="120.000000" fill="rgb(0, 0, 0)" style="fill-opacity:1.00" />
<text x="347.000000" y="140">
5
</text>
<rect height="7.000000" width="2.000000" x="385.000000" y="120.000000" fill="rgb(0, 0, 0)" style="fill-opacity:1.00" />
<text x="407.000000" y="140">
6
</text>
<rect height="7.000000" width="2.000000" x="445.000000" y="120.000000" fill="rgb(0, 0, 0)" style="fill-opacity:1.00" />
<text x="467.000000" y="140">
7
</text>
<rect height="7.000000" width="2.000000" x="505.000000" y="120.000000" fill="rgb(0, 0, 0)" style="fill-opacity:1.00" />
<text x="527.000000" y="140">
8
</text>
<rect height="7.000000" width="2.000000" x="565.000000" y="120.000000" fill="rgb(0, 0, 0)" style="fill-opacity:1.00" />
<text x="587.000000" y="140">
9
</text>
<rect height="7.000000" width="2.000000" x="625.000000" y="120.000000" fill="rgb(0, 0, 0)" style="fill-opacity:1.00" />
<text x="647.000000" y="140">
10
</text>
<rect height="7.000000" width="2.000000" x="685.000000" y="120.000000" fill="rgb(0, 0, 0)" style="fill-opacity:1.00" />
<text x="707.000000" y="140">
11
</text>
<rect height="7.000000" width="2.000000" x="745.000000" y="120.000000" fill="rgb(0, 0, 0)" style="fill-opacity:1.00" />
<text x="767.000000" y="140">
12
</text>
<rect height="7.000000" width="2.000000" x="805.000000" y="120.000000" fill="rgb(0, 0, 0)" style="fill-opacity:1.00" />
<text x="827.000000" y="140">
13
</text>
<rect height="7.000000" width="2.000000" x="865.000000" y="120.000000" fill="rgb(0, 0, 0)" style="fill-opacity:1.00" />
<text x="887.000000" y="140">
14
</text>
<rect height="7.000000" width="2.000000" x="925.000000" y="120.000000" fill="rgb(0, 0, 0)" style="fill-opacity:1.00" />
<line x1="80" y1="112" x2="80" y2="10" style="stroke:rgb(99,99,99);stroke-width:2" />
<rect height="2.000000" width="7.000000" x="73.000000" y="110.000000" fill="rgb(0, 0, 0)" style="fill-opacity:1.00" />
<text x="63" y="115">
0
</text>
<rect height="2.000000" width="7.000000" x="73.000000" y="60.000000" fill="rgb(0, 0, 0)" style="fill-opacity:1.00" />
<text x="63" y="65">
1
</text>
<rect height="2.000000" width="7.000000" x="73.000000" y="10.000000" fill="rgb(0, 0, 0)" style="fill-opacity:1.00" />
<text x="63" y="15">
2
</text>
<text x="50" y="65"
transform="rotate(-90, 50, 70)">
bits
</text>
<!-- Begin 'A' -->
<polygon points=" 90.000000, 109.418042, 111.000000, 109.153711, 119.000000, 109.153711, 140.000000, 109.418042, 132.500000, 109.418042, 126.250000, 109.351959, 103.750000, 109.351959, 97.500000, 109.418042" fill="rgb(178, 34, 34)" style="fill-opacity:1.00" />
<!-- End 'A' -->
<!-- Begin 'G' -->
<ellipse cx="115.000000" cy="109.522407" rx="25.000000" ry="0.104365" fill="rgb(255, 165, 0)" style="fill-opacity:1.00" />
<ellipse cx="115.000000" cy="109.522407" rx="16.666667" ry="0.069577" fill="rgb(255, 255, 255)" style="fill-opacity:1.00" />
<rect height="0.104365" width="25.000000" x="115.000000" y="109.470224" fill="rgb(255, 255, 255)" style="fill-opacity:1.00" />
<rect height="0.026091" width="25.000000" x="115.000000" y="109.548498" fill="rgb(255, 165, 0)" style="fill-opacity:1.00" />
<rect height="0.078274" width="6.250000" x="133.750000" y="109.548498" fill="rgb(255, 165, 0)" style="fill-opacity:1.00" />
<!-- End 'G' -->
<!-- Begin 'C' -->
<ellipse cx="115.000000" cy="109.725998" rx="25.000000" ry="0.099226" fill="rgb(0, 0, 128)" style="fill-opacity:1.00" />
<ellipse cx="115.000000" cy="109.725998" rx="16.666667" ry="0.066151" fill="rgb(255, 255, 255)" style="fill-opacity:1.00" />
<rect height="0.099226" width="25.000000" x="115.000000" y="109.676385" fill="rgb(255, 255, 255)" style="fill-opacity:1.00" />
<!-- End 'C' -->
<!-- Begin 'T' -->
<rect height="0.027964" width="50.000000" x="90.000000" y="109.825224" fill="rgb(0, 100, 0)" style="fill-opacity:1.00" />
<rect height="0.174776" width="10.000000" x="110.000000" y="109.825224" fill="rgb(0, 100, 0)" style="fill-opacity:1.00" />
<!-- End 'T' -->
<!-- Begin 'A' -->
<polygon points=" 150.000000, 100.628076, 171.000000, 81.256197, 179.000000, 81.256197, 200.000000, 100.628076, 192.500000, 100.628076, 186.250000, 95.785106, 163.750000, 95.785106, 157.500000, 100.628076" fill="rgb(178, 34, 34)" style="fill-opacity:1.00" />
<polygon points=" 175.000000, 85.130573, 167.000000, 91.879325, 182.000000, 91.879325" fill="rgb(255, 255, 255)" style="fill-opacity:1.00" />
<!-- End 'A' -->
<!-- Begin 'G' -->
<ellipse cx="175.000000" cy="102.415810" rx="25.000000" ry="1.787734" fill="rgb(255, 165, 0)" style="fill-opacity:1.00" />
<ellipse cx="175.000000" cy="102.415810" rx="16.666667" ry="1.191823" fill="rgb(255, 255, 255)" style="fill-opacity:1.00" />
<rect height="1.787734" width="25.000000" x="175.000000" y="101.521943" fill="rgb(255, 255, 255)" style="fill-opacity:1.00" />
<rect height="0.446934" width="25.000000" x="175.000000" y="102.862744" fill="rgb(255, 165, 0)" style="fill-opacity:1.00" />
<rect height="1.340801" width="6.250000" x="193.750000" y="102.862744" fill="rgb(255, 165, 0)" style="fill-opacity:1.00" />
<!-- End 'G' -->
<!-- Begin 'T' -->
<rect height="0.475266" width="50.000000" x="150.000000" y="104.203545" fill="rgb(0, 100, 0)" style="fill-opacity:1.00" />
<rect height="2.970412" width="10.000000" x="170.000000" y="104.203545" fill="rgb(0, 100, 0)" style="fill-opacity:1.00" />
<!-- End 'T' -->
<!-- Begin 'C' -->
<ellipse cx="175.000000" cy="108.586978" rx="25.000000" ry="1.413022" fill="rgb(0, 0, 128)" style="fill-opacity:1.00" />
<ellipse cx="175.000000" cy="108.586978" rx="16.666667" ry="0.942014" fill="rgb(255, 255, 255)" style="fill-opacity:1.00" />
<rect height="1.413022" width="25.000000" x="175.000000" y="107.880467" fill="rgb(255, 255, 255)" style="fill-opacity:1.00" />
<!-- End 'C' -->
<!-- Begin 'A' -->
<polygon points=" 210.000000, 97.870751, 231.000000, 64.701291, 239.000000, 64.701291, 260.000000, 97.870751, 252.500000, 97.870751, 246.250000, 89.578386, 223.750000, 89.578386, 217.500000, 97.870751" fill="rgb(178, 34, 34)" style="fill-opacity:1.00" />
<polygon points=" 235.000000, 71.335183, 227.000000, 83.602967, 242.000000, 83.602967" fill="rgb(255, 255, 255)" style="fill-opacity:1.00" />
<!-- End 'A' -->
<!-- Begin 'T' -->
<rect height="1.501146" width="50.000000" x="210.000000" y="97.870751" fill="rgb(0, 100, 0)" style="fill-opacity:1.00" />
<rect height="9.382163" width="10.000000" x="230.000000" y="97.870751" fill="rgb(0, 100, 0)" style="fill-opacity:1.00" />
<!-- End 'T' -->
<!-- Begin 'G' -->
<ellipse cx="235.000000" cy="108.284131" rx="25.000000" ry="1.031217" fill="rgb(255, 165, 0)" style="fill-opacity:1.00" />
<ellipse cx="235.000000" cy="108.284131" rx="16.666667" ry="0.687478" fill="rgb(255, 255, 255)" style="fill-opacity:1.00" />
<rect height="1.031217" width="25.000000" x="235.000000" y="107.768522" fill="rgb(255, 255, 255)" style="fill-opacity:1.00" />
<rect height="0.257804" width="25.000000" x="235.000000" y="108.541935" fill="rgb(255, 165, 0)" style="fill-opacity:1.00" />
<rect height="0.773413" width="6.250000" x="253.750000" y="108.541935" fill="rgb(255, 165, 0)" style="fill-opacity:1.00" />
<!-- End 'G' -->
<!-- Begin 'C' -->
<ellipse cx="235.000000" cy="109.657674" rx="25.000000" ry="0.342326" fill="rgb(0, 0, 128)" style="fill-opacity:1.00" />
<ellipse cx="235.000000" cy="109.657674" rx="16.666667" ry="0.228218" fill="rgb(255, 255, 255)" style="fill-opacity:1.00" />
<rect height="0.342326" width="25.000000" x="235.000000" y="109.486511" fill="rgb(255, 255, 255)" style="fill-opacity:1.00" />
<!-- End 'C' -->
<!-- Begin 'A' -->
<polygon points=" 270.000000, 107.041302, 291.000000, 22.681482, 299.000000, 22.681482, 320.000000, 107.041302, 312.500000, 107.041302, 306.250000, 85.951347, 283.750000, 85.951347, 277.500000, 107.041302" fill="rgb(178, 34, 34)" style="fill-opacity:1.00" />
<polygon points=" 295.000000, 39.553446, 287.000000, 72.297374, 302.000000, 72.297374" fill="rgb(255, 255, 255)" style="fill-opacity:1.00" />
<!-- End 'A' -->
<!-- Begin 'G' -->
<ellipse cx="295.000000" cy="108.073949" rx="25.000000" ry="1.032647" fill="rgb(255, 165, 0)" style="fill-opacity:1.00" />
<ellipse cx="295.000000" cy="108.073949" rx="16.666667" ry="0.688431" fill="rgb(255, 255, 255)" style="fill-opacity:1.00" />
<rect height="1.032647" width="25.000000" x="295.000000" y="107.557625" fill="rgb(255, 255, 255)" style="fill-opacity:1.00" />
<rect height="0.258162" width="25.000000" x="295.000000" y="108.332110" fill="rgb(255, 165, 0)" style="fill-opacity:1.00" />
<rect height="0.774485" width="6.250000" x="313.750000" y="108.332110" fill="rgb(255, 165, 0)" style="fill-opacity:1.00" />
<!-- End 'G' -->
<!-- Begin 'T' -->
<rect height="0.077625" width="50.000000" x="270.000000" y="109.106595" fill="rgb(0, 100, 0)" style="fill-opacity:1.00" />
<rect height="0.485159" width="10.000000" x="290.000000" y="109.106595" fill="rgb(0, 100, 0)" style="fill-opacity:1.00" />
<!-- End 'T' -->
<!-- Begin 'C' -->
<ellipse cx="295.000000" cy="109.795877" rx="25.000000" ry="0.204123" fill="rgb(0, 0, 128)" style="fill-opacity:1.00" />
<ellipse cx="295.000000" cy="109.795877" rx="16.666667" ry="0.136082" fill="rgb(255, 255, 255)" style="fill-opacity:1.00" />
<rect height="0.204123" width="25.000000" x="295.000000" y="109.693816" fill="rgb(255, 255, 255)" style="fill-opacity:1.00" />
<!-- End 'C' -->
<!-- Begin 'A' -->
<polygon points=" 330.000000, 108.441954, 351.000000, 17.328909, 359.000000, 17.328909, 380.000000, 108.441954, 372.500000, 108.441954, 366.250000, 85.663693, 343.750000, 85.663693, 337.500000, 108.441954" fill="rgb(178, 34, 34)" style="fill-opacity:1.00" />
<polygon points=" 355.000000, 35.551518, 347.000000, 70.996736, 362.000000, 70.996736" fill="rgb(255, 255, 255)" style="fill-opacity:1.00" />
<!-- End 'A' -->
<!-- Begin 'G' -->
<ellipse cx="355.000000" cy="108.865594" rx="25.000000" ry="0.423641" fill="rgb(255, 165, 0)" style="fill-opacity:1.00" />
<ellipse cx="355.000000" cy="108.865594" rx="16.666667" ry="0.282427" fill="rgb(255, 255, 255)" style="fill-opacity:1.00" />
<rect height="0.423641" width="25.000000" x="355.000000" y="108.653774" fill="rgb(255, 255, 255)" style="fill-opacity:1.00" />
<rect height="0.105910" width="25.000000" x="355.000000" y="108.971505" fill="rgb(255, 165, 0)" style="fill-opacity:1.00" />
<rect height="0.317730" width="6.250000" x="373.750000" y="108.971505" fill="rgb(255, 165, 0)" style="fill-opacity:1.00" />
<!-- End 'G' -->
<!-- Begin 'T' -->
<rect height="0.080202" width="50.000000" x="330.000000" y="109.289235" fill="rgb(0, 100, 0)" style="fill-opacity:1.00" />
<rect height="0.501266" width="10.000000" x="350.000000" y="109.289235" fill="rgb(0, 100, 0)" style="fill-opacity:1.00" />
<!-- End 'T' -->
<!-- Begin 'C' -->
<ellipse cx="355.000000" cy="109.895250" rx="25.000000" ry="0.104750" fill="rgb(0, 0, 128)" style="fill-opacity:1.00" />
<ellipse cx="355.000000" cy="109.895250" rx="16.666667" ry="0.069833" fill="rgb(255, 255, 255)" style="fill-opacity:1.00" />
<rect height="0.104750" width="25.000000" x="355.000000" y="109.842875" fill="rgb(255, 255, 255)" style="fill-opacity:1.00" />
<!-- End 'C' -->
<!-- Begin 'A' -->
<polygon points=" 390.000000, 108.136056, 411.000000, 18.649014, 419.000000, 18.649014, 440.000000, 108.136056, 432.500000, 108.136056, 426.250000, 85.764295, 403.750000, 85.764295, 397.500000, 108.136056" fill="rgb(178, 34, 34)" style="fill-opacity:1.00" />
<polygon points=" 415.000000, 36.546422, 407.000000, 71.341239, 422.000000, 71.341239" fill="rgb(255, 255, 255)" style="fill-opacity:1.00" />
<!-- End 'A' -->
<!-- Begin 'T' -->
<rect height="0.164889" width="50.000000" x="390.000000" y="108.136056" fill="rgb(0, 100, 0)" style="fill-opacity:1.00" />
<rect height="1.030555" width="10.000000" x="410.000000" y="108.136056" fill="rgb(0, 100, 0)" style="fill-opacity:1.00" />
<!-- End 'T' -->
<!-- Begin 'G' -->
<ellipse cx="415.000000" cy="109.398740" rx="25.000000" ry="0.232129" fill="rgb(255, 165, 0)" style="fill-opacity:1.00" />
<ellipse cx="415.000000" cy="109.398740" rx="16.666667" ry="0.154752" fill="rgb(255, 255, 255)" style="fill-opacity:1.00" />
<rect height="0.232129" width="25.000000" x="415.000000" y="109.282675" fill="rgb(255, 255, 255)" style="fill-opacity:1.00" />
<rect height="0.058032" width="25.000000" x="415.000000" y="109.456772" fill="rgb(255, 165, 0)" style="fill-opacity:1.00" />
<rect height="0.174096" width="6.250000" x="433.750000" y="109.456772" fill="rgb(255, 165, 0)" style="fill-opacity:1.00" />
<!-- End 'G' -->
<!-- Begin 'C' -->
<ellipse cx="415.000000" cy="109.815434" rx="25.000000" ry="0.184566" fill="rgb(0, 0, 128)" style="fill-opacity:1.00" />
<ellipse cx="415.000000" cy="109.815434" rx="16.666667" ry="0.123044" fill="rgb(255, 255, 255)" style="fill-opacity:1.00" />
<rect height="0.184566" width="25.000000" x="415.000000" y="109.723151" fill="rgb(255, 255, 255)" style="fill-opacity:1.00" />
<!-- End 'C' -->
<!-- Begin 'G' -->
<ellipse cx="475.000000" cy="66.637410" rx="25.000000" ry="39.410484" fill="rgb(255, 165, 0)" style="fill-opacity:1.00" />
<ellipse cx="475.000000" cy="66.637410" rx="16.666667" ry="26.273656" fill="rgb(255, 255, 255)" style="fill-opacity:1.00" />
<rect height="39.410484" width="25.000000" x="475.000000" y="46.932168" fill="rgb(255, 255, 255)" style="fill-opacity:1.00" />
<rect height="9.852621" width="25.000000" x="475.000000" y="76.490031" fill="rgb(255, 165, 0)" style="fill-opacity:1.00" />
<rect height="29.557863" width="6.250000" x="493.750000" y="76.490031" fill="rgb(255, 165, 0)" style="fill-opacity:1.00" />
<!-- End 'G' -->
<!-- Begin 'A' -->
<polygon points=" 450.000000, 108.272952, 471.000000, 106.047893, 479.000000, 106.047893, 500.000000, 108.272952, 492.500000, 108.272952, 486.250000, 107.716687, 463.750000, 107.716687, 457.500000, 108.272952" fill="rgb(178, 34, 34)" style="fill-opacity:1.00" />
<!-- End 'A' -->
<!-- Begin 'T' -->
<rect height="0.156619" width="50.000000" x="450.000000" y="108.272952" fill="rgb(0, 100, 0)" style="fill-opacity:1.00" />
<rect height="0.978867" width="10.000000" x="470.000000" y="108.272952" fill="rgb(0, 100, 0)" style="fill-opacity:1.00" />
<!-- End 'T' -->
<!-- Begin 'C' -->
<ellipse cx="475.000000" cy="109.625909" rx="25.000000" ry="0.374091" fill="rgb(0, 0, 128)" style="fill-opacity:1.00" />
<ellipse cx="475.000000" cy="109.625909" rx="16.666667" ry="0.249394" fill="rgb(255, 255, 255)" style="fill-opacity:1.00" />
<rect height="0.374091" width="25.000000" x="475.000000" y="109.438864" fill="rgb(255, 255, 255)" style="fill-opacity:1.00" />
<!-- End 'C' -->
<!-- Begin 'T' -->
<rect height="0.654466" width="50.000000" x="510.000000" y="101.133583" fill="rgb(0, 100, 0)" style="fill-opacity:1.00" />
<rect height="4.090413" width="10.000000" x="530.000000" y="101.133583" fill="rgb(0, 100, 0)" style="fill-opacity:1.00" />
<!-- End 'T' -->
<!-- Begin 'G' -->
<ellipse cx="535.000000" cy="106.254817" rx="25.000000" ry="1.030821" fill="rgb(255, 165, 0)" style="fill-opacity:1.00" />
<ellipse cx="535.000000" cy="106.254817" rx="16.666667" ry="0.687214" fill="rgb(255, 255, 255)" style="fill-opacity:1.00" />
<rect height="1.030821" width="25.000000" x="535.000000" y="105.739406" fill="rgb(255, 255, 255)" style="fill-opacity:1.00" />
<rect height="0.257705" width="25.000000" x="535.000000" y="106.512522" fill="rgb(255, 165, 0)" style="fill-opacity:1.00" />
<rect height="0.773116" width="6.250000" x="553.750000" y="106.512522" fill="rgb(255, 165, 0)" style="fill-opacity:1.00" />
<!-- End 'G' -->
<!-- Begin 'A' -->
<polygon points=" 510.000000, 108.938034, 531.000000, 107.285638, 539.000000, 107.285638, 560.000000, 108.938034, 552.500000, 108.938034, 546.250000, 108.524935, 523.750000, 108.524935, 517.500000, 108.938034" fill="rgb(178, 34, 34)" style="fill-opacity:1.00" />
<!-- End 'A' -->
<!-- Begin 'C' -->
<ellipse cx="535.000000" cy="109.469017" rx="25.000000" ry="0.530983" fill="rgb(0, 0, 128)" style="fill-opacity:1.00" />
<ellipse cx="535.000000" cy="109.469017" rx="16.666667" ry="0.353989" fill="rgb(255, 255, 255)" style="fill-opacity:1.00" />
<rect height="0.530983" width="25.000000" x="535.000000" y="109.203525" fill="rgb(255, 255, 255)" style="fill-opacity:1.00" />
<!-- End 'C' -->
<!-- Begin 'A' -->
<polygon points=" 570.000000, 104.455175, 591.000000, 100.773593, 599.000000, 100.773593, 620.000000, 104.455175, 612.500000, 104.455175, 606.250000, 103.534780, 583.750000, 103.534780, 577.500000, 104.455175" fill="rgb(178, 34, 34)" style="fill-opacity:1.00" />
<!-- End 'A' -->
<!-- Begin 'T' -->
<rect height="0.465467" width="50.000000" x="570.000000" y="104.455175" fill="rgb(0, 100, 0)" style="fill-opacity:1.00" />
<rect height="2.909170" width="10.000000" x="590.000000" y="104.455175" fill="rgb(0, 100, 0)" style="fill-opacity:1.00" />
<!-- End 'T' -->
<!-- Begin 'G' -->
<ellipse cx="595.000000" cy="108.310445" rx="25.000000" ry="0.946100" fill="rgb(255, 165, 0)" style="fill-opacity:1.00" />
<ellipse cx="595.000000" cy="108.310445" rx="16.666667" ry="0.630733" fill="rgb(255, 255, 255)" style="fill-opacity:1.00" />
<rect height="0.946100" width="25.000000" x="595.000000" y="107.837395" fill="rgb(255, 255, 255)" style="fill-opacity:1.00" />
<rect height="0.236525" width="25.000000" x="595.000000" y="108.546970" fill="rgb(255, 165, 0)" style="fill-opacity:1.00" />
<rect height="0.709575" width="6.250000" x="613.750000" y="108.546970" fill="rgb(255, 165, 0)" style="fill-opacity:1.00" />
<!-- End 'G' -->
<!-- Begin 'C' -->
<ellipse cx="595.000000" cy="109.628272" rx="25.000000" ry="0.371728" fill="rgb(0, 0, 128)" style="fill-opacity:1.00" />
<ellipse cx="595.000000" cy="109.628272" rx="16.666667" ry="0.247818" fill="rgb(255, 255, 255)" style="fill-opacity:1.00" />
<rect height="0.371728" width="25.000000" x="595.000000" y="109.442409" fill="rgb(255, 255, 255)" style="fill-opacity:1.00" />
<!-- End 'C' -->
<!-- Begin 'A' -->
<polygon points=" 630.000000, 102.708268, 651.000000, 94.038907, 659.000000, 94.038907, 680.000000, 102.708268, 672.500000, 102.708268, 666.250000, 100.540928, 643.750000, 100.540928, 637.500000, 102.708268" fill="rgb(178, 34, 34)" style="fill-opacity:1.00" />
<polygon points=" 655.000000, 95.772779, 647.000000, 98.240523, 662.000000, 98.240523" fill="rgb(255, 255, 255)" style="fill-opacity:1.00" />
<!-- End 'A' -->
<!-- Begin 'G' -->
<ellipse cx="655.000000" cy="104.233229" rx="25.000000" ry="1.524961" fill="rgb(255, 165, 0)" style="fill-opacity:1.00" />
<ellipse cx="655.000000" cy="104.233229" rx="16.666667" ry="1.016641" fill="rgb(255, 255, 255)" style="fill-opacity:1.00" />
<rect height="1.524961" width="25.000000" x="655.000000" y="103.470749" fill="rgb(255, 255, 255)" style="fill-opacity:1.00" />
<rect height="0.381240" width="25.000000" x="655.000000" y="104.614469" fill="rgb(255, 165, 0)" style="fill-opacity:1.00" />
<rect height="1.143721" width="6.250000" x="673.750000" y="104.614469" fill="rgb(255, 165, 0)" style="fill-opacity:1.00" />
<!-- End 'G' -->
<!-- Begin 'T' -->
<rect height="0.466535" width="50.000000" x="630.000000" y="105.758190" fill="rgb(0, 100, 0)" style="fill-opacity:1.00" />
<rect height="2.915845" width="10.000000" x="650.000000" y="105.758190" fill="rgb(0, 100, 0)" style="fill-opacity:1.00" />
<!-- End 'T' -->
<!-- Begin 'C' -->
<ellipse cx="655.000000" cy="109.337018" rx="25.000000" ry="0.662982" fill="rgb(0, 0, 128)" style="fill-opacity:1.00" />
<ellipse cx="655.000000" cy="109.337018" rx="16.666667" ry="0.441988" fill="rgb(255, 255, 255)" style="fill-opacity:1.00" />
<rect height="0.662982" width="25.000000" x="655.000000" y="109.005526" fill="rgb(255, 255, 255)" style="fill-opacity:1.00" />
<!-- End 'C' -->
<!-- Begin 'A' -->
<polygon points=" 690.000000, 104.932177, 711.000000, 100.275806, 719.000000, 100.275806, 740.000000, 104.932177, 732.500000, 104.932177, 726.250000, 103.768084, 703.750000, 103.768084, 697.500000, 104.932177" fill="rgb(178, 34, 34)" style="fill-opacity:1.00" />
<!-- End 'A' -->
<!-- Begin 'T' -->
<rect height="0.356257" width="50.000000" x="690.000000" y="104.932177" fill="rgb(0, 100, 0)" style="fill-opacity:1.00" />
<rect height="2.226609" width="10.000000" x="710.000000" y="104.932177" fill="rgb(0, 100, 0)" style="fill-opacity:1.00" />
<!-- End 'T' -->
<!-- Begin 'C' -->
<ellipse cx="715.000000" cy="107.917634" rx="25.000000" ry="0.758848" fill="rgb(0, 0, 128)" style="fill-opacity:1.00" />
<ellipse cx="715.000000" cy="107.917634" rx="16.666667" ry="0.505899" fill="rgb(255, 255, 255)" style="fill-opacity:1.00" />
<rect height="0.758848" width="25.000000" x="715.000000" y="107.538210" fill="rgb(255, 255, 255)" style="fill-opacity:1.00" />
<!-- End 'C' -->
<!-- Begin 'G' -->
<ellipse cx="715.000000" cy="109.338241" rx="25.000000" ry="0.661759" fill="rgb(255, 165, 0)" style="fill-opacity:1.00" />
<ellipse cx="715.000000" cy="109.338241" rx="16.666667" ry="0.441173" fill="rgb(255, 255, 255)" style="fill-opacity:1.00" />
<rect height="0.661759" width="25.000000" x="715.000000" y="109.007361" fill="rgb(255, 255, 255)" style="fill-opacity:1.00" />
<rect height="0.165440" width="25.000000" x="715.000000" y="109.503681" fill="rgb(255, 165, 0)" style="fill-opacity:1.00" />
<rect height="0.496319" width="6.250000" x="733.750000" y="109.503681" fill="rgb(255, 165, 0)" style="fill-opacity:1.00" />
<!-- End 'G' -->
<!-- Begin 'A' -->
<polygon points=" 750.000000, 105.349676, 771.000000, 101.863704, 779.000000, 101.863704, 800.000000, 105.349676, 792.500000, 105.349676, 786.250000, 104.478183, 763.750000, 104.478183, 757.500000, 105.349676" fill="rgb(178, 34, 34)" style="fill-opacity:1.00" />
<!-- End 'A' -->
<!-- Begin 'T' -->
<rect height="0.378034" width="50.000000" x="750.000000" y="105.349676" fill="rgb(0, 100, 0)" style="fill-opacity:1.00" />
<rect height="2.362715" width="10.000000" x="770.000000" y="105.349676" fill="rgb(0, 100, 0)" style="fill-opacity:1.00" />
<!-- End 'T' -->
<!-- Begin 'C' -->
<ellipse cx="775.000000" cy="108.312933" rx="25.000000" ry="0.600542" fill="rgb(0, 0, 128)" style="fill-opacity:1.00" />
<ellipse cx="775.000000" cy="108.312933" rx="16.666667" ry="0.400361" fill="rgb(255, 255, 255)" style="fill-opacity:1.00" />
<rect height="0.600542" width="25.000000" x="775.000000" y="108.012662" fill="rgb(255, 255, 255)" style="fill-opacity:1.00" />
<!-- End 'C' -->
<!-- Begin 'G' -->
<ellipse cx="775.000000" cy="109.456738" rx="25.000000" ry="0.543262" fill="rgb(255, 165, 0)" style="fill-opacity:1.00" />
<ellipse cx="775.000000" cy="109.456738" rx="16.666667" ry="0.362175" fill="rgb(255, 255, 255)" style="fill-opacity:1.00" />
<rect height="0.543262" width="25.000000" x="775.000000" y="109.185106" fill="rgb(255, 255, 255)" style="fill-opacity:1.00" />
<rect height="0.135816" width="25.000000" x="775.000000" y="109.592553" fill="rgb(255, 165, 0)" style="fill-opacity:1.00" />
<rect height="0.407447" width="6.250000" x="793.750000" y="109.592553" fill="rgb(255, 165, 0)" style="fill-opacity:1.00" />
<!-- End 'G' -->
<!-- Begin 'A' -->
<polygon points=" 810.000000, 105.394019, 831.000000, 102.081158, 839.000000, 102.081158, 860.000000, 105.394019, 852.500000, 105.394019, 846.250000, 104.565804, 823.750000, 104.565804, 817.500000, 105.394019" fill="rgb(178, 34, 34)" style="fill-opacity:1.00" />
<!-- End 'A' -->
<!-- Begin 'T' -->
<rect height="0.380387" width="50.000000" x="810.000000" y="105.394019" fill="rgb(0, 100, 0)" style="fill-opacity:1.00" />
<rect height="2.377418" width="10.000000" x="830.000000" y="105.394019" fill="rgb(0, 100, 0)" style="fill-opacity:1.00" />
<!-- End 'T' -->
<!-- Begin 'G' -->
<ellipse cx="835.000000" cy="108.379384" rx="25.000000" ry="0.607946" fill="rgb(255, 165, 0)" style="fill-opacity:1.00" />
<ellipse cx="835.000000" cy="108.379384" rx="16.666667" ry="0.405297" fill="rgb(255, 255, 255)" style="fill-opacity:1.00" />
<rect height="0.607946" width="25.000000" x="835.000000" y="108.075410" fill="rgb(255, 255, 255)" style="fill-opacity:1.00" />
<rect height="0.151987" width="25.000000" x="835.000000" y="108.531370" fill="rgb(255, 165, 0)" style="fill-opacity:1.00" />
<rect height="0.455960" width="6.250000" x="853.750000" y="108.531370" fill="rgb(255, 165, 0)" style="fill-opacity:1.00" />
<!-- End 'G' -->
<!-- Begin 'C' -->
<ellipse cx="835.000000" cy="109.493665" rx="25.000000" ry="0.506335" fill="rgb(0, 0, 128)" style="fill-opacity:1.00" />
<ellipse cx="835.000000" cy="109.493665" rx="16.666667" ry="0.337557" fill="rgb(255, 255, 255)" style="fill-opacity:1.00" />
<rect height="0.506335" width="25.000000" x="835.000000" y="109.240497" fill="rgb(255, 255, 255)" style="fill-opacity:1.00" />
<!-- End 'C' -->
<!-- Begin 'A' -->
<polygon points=" 870.000000, 105.860840, 891.000000, 103.124024, 899.000000, 103.124024, 920.000000, 105.860840, 912.500000, 105.860840, 906.250000, 105.176636, 883.750000, 105.176636, 877.500000, 105.860840" fill="rgb(178, 34, 34)" style="fill-opacity:1.00" />
<!-- End 'A' -->
<!-- Begin 'T' -->
<rect height="0.341880" width="50.000000" x="870.000000" y="105.860840" fill="rgb(0, 100, 0)" style="fill-opacity:1.00" />
<rect height="2.136753" width="10.000000" x="890.000000" y="105.860840" fill="rgb(0, 100, 0)" style="fill-opacity:1.00" />
<!-- End 'T' -->
<!-- Begin 'C' -->
<ellipse cx="895.000000" cy="108.504928" rx="25.000000" ry="0.507335" fill="rgb(0, 0, 128)" style="fill-opacity:1.00" />
<ellipse cx="895.000000" cy="108.504928" rx="16.666667" ry="0.338223" fill="rgb(255, 255, 255)" style="fill-opacity:1.00" />
<rect height="0.507335" width="25.000000" x="895.000000" y="108.251261" fill="rgb(255, 255, 255)" style="fill-opacity:1.00" />
<!-- End 'C' -->
<!-- Begin 'G' -->
<ellipse cx="895.000000" cy="109.506131" rx="25.000000" ry="0.493869" fill="rgb(255, 165, 0)" style="fill-opacity:1.00" />
<ellipse cx="895.000000" cy="109.506131" rx="16.666667" ry="0.329246" fill="rgb(255, 255, 255)" style="fill-opacity:1.00" />
<rect height="0.493869" width="25.000000" x="895.000000" y="109.259197" fill="rgb(255, 255, 255)" style="fill-opacity:1.00" />
<rect height="0.123467" width="25.000000" x="895.000000" y="109.629598" fill="rgb(255, 165, 0)" style="fill-opacity:1.00" />
<rect height="0.370402" width="6.250000" x="913.750000" y="109.629598" fill="rgb(255, 165, 0)" style="fill-opacity:1.00" />
<!-- End 'G' -->
<text x="490.000000" y="165">
IC = 9.91
</text>

</svg>
