<?xml version="1.0" encoding="UTF-8" standalone="yes"?>
                 <!DOCTYPE svg PUBLIC "-//W3C//DTD SVG 1.0//EN" "http://www.w3.org/TR/2001/REC-SVG-20010904/DTD/svg10.dtd">
                 <svg height="170" width="1260" xmlns="http://www.w3.org/2000/svg" xmlns:xlink="http://www.w3.org/1999/xlink">
                 <line x1="85" y1="120" x2="1227" y2="120" style="stroke:rgb(99,99,99);stroke-width:2" />
<rect height="7.000000" width="2.000000" x="85.000000" y="120.000000" fill="rgb(0, 0, 0)" style="fill-opacity:1.00" />
<text x="107.000000" y="140">
1
</text>
<rect height="7.000000" width="2.000000" x="145.000000" y="120.000000" fill="rgb(0, 0, 0)" style="fill-opacity:1.00" />
<text x="167.000000" y="140">
2
</text>
<rect height="7.000000" width="2.000000" x="205.000000" y="120.000000" fill="rgb(0, 0, 0)" style="fill-opacity:1.00" />
<text x="227.000000" y="140">
3
</text>
<rect height="7.000000" width="2.000000" x="265.000000" y="120.000000" fill="rgb(0, 0, 0)" style="fill-opacity:1.00" />
<text x="287.000000" y="140">
4
</text>
<rect height="7.000000" width="2.000000" x="325.000000" y="120.000000" fill="rgb(0, 0, 0)" style="fill-opacity:1.00" />
<text x="347.000000" y="140">
5
</text>
<rect height="7.000000" width="2.000000" x="385.000000" y="120.000000" fill="rgb(0, 0, 0)" style="fill-opacity:1.00" />
<text x="407.000000" y="140">
6
</text>
<rect height="7.000000" width="2.000000" x="445.000000" y="120.000000" fill="rgb(0, 0, 0)" style="fill-opacity:1.00" />
<text x="467.000000" y="140">
7
</text>
<rect height="7.000000" width="2.000000" x="505.000000" y="120.000000" fill="rgb(0, 0, 0)" style="fill-opacity:1.00" />
<text x="527.000000" y="140">
8
</text>
<rect height="7.000000" width="2.000000" x="565.000000" y="120.000000" fill="rgb(0, 0, 0)" style="fill-opacity:1.00" />
<text x="587.000000" y="140">
9
</text>
<rect height="7.000000" width="2.000000" x="625.000000" y="120.000000" fill="rgb(0, 0, 0)" style="fill-opacity:1.00" />
<text x="647.000000" y="140">
10
</text>
<rect height="7.000000" width="2.000000" x="685.000000" y="120.000000" fill="rgb(0, 0, 0)" style="fill-opacity:1.00" />
<text x="707.000000" y="140">
11
</text>
<rect height="7.000000" width="2.000000" x="745.000000" y="120.000000" fill="rgb(0, 0, 0)" style="fill-opacity:1.00" />
<text x="767.000000" y="140">
12
</text>
<rect height="7.000000" width="2.000000" x="805.000000" y="120.000000" fill="rgb(0, 0, 0)" style="fill-opacity:1.00" />
<text x="827.000000" y="140">
13
</text>
<rect height="7.000000" width="2.000000" x="865.000000" y="120.000000" fill="rgb(0, 0, 0)" style="fill-opacity:1.00" />
<text x="887.000000" y="140">
14
</text>
<rect height="7.000000" width="2.000000" x="925.000000" y="120.000000" fill="rgb(0, 0, 0)" style="fill-opacity:1.00" />
<text x="947.000000" y="140">
15
</text>
<rect height="7.000000" width="2.000000" x="985.000000" y="120.000000" fill="rgb(0, 0, 0)" style="fill-opacity:1.00" />
<text x="1007.000000" y="140">
16
</text>
<rect height="7.000000" width="2.000000" x="1045.000000" y="120.000000" fill="rgb(0, 0, 0)" style="fill-opacity:1.00" />
<text x="1067.000000" y="140">
17
</text>
<rect height="7.000000" width="2.000000" x="1105.000000" y="120.000000" fill="rgb(0, 0, 0)" style="fill-opacity:1.00" />
<text x="1127.000000" y="140">
18
</text>
<rect height="7.000000" width="2.000000" x="1165.000000" y="120.000000" fill="rgb(0, 0, 0)" style="fill-opacity:1.00" />
<text x="1187.000000" y="140">
19
</text>
<rect height="7.000000" width="2.000000" x="1225.000000" y="120.000000" fill="rgb(0, 0, 0)" style="fill-opacity:1.00" />
<line x1="80" y1="112" x2="80" y2="10" style="stroke:rgb(99,99,99);stroke-width:2" />
<rect height="2.000000" width="7.000000" x="73.000000" y="110.000000" fill="rgb(0, 0, 0)" style="fill-opacity:1.00" />
<text x="63" y="115">
0
</text>
<rect height="2.000000" width="7.000000" x="73.000000" y="60.000000" fill="rgb(0, 0, 0)" style="fill-opacity:1.00" />
<text x="63" y="65">
1
</text>
<rect height="2.000000" width="7.000000" x="73.000000" y="10.000000" fill="rgb(0, 0, 0)" style="fill-opacity:1.00" />
<text x="63" y="15">
2
</text>
<text x="50" y="65"
transform="rotate(-90, 50, 70)">
bits
</text>
<!-- Begin 'A' -->
<polygon points=" 90.000000, 106.006560, 111.000000, 103.029646, 119.000000, 103.029646, 140.000000, 106.006560, 132.500000, 106.006560, 126.250000, 105.262331, 103.750000, 105.262331, 97.500000, 106.006560" fill="rgb(178, 34, 34)" style="fill-opacity:1.00" />
<!-- End 'A' -->
<!-- Begin 'T' -->
<rect height="0.291370" width="50.000000" x="90.000000" y="106.006560" fill="rgb(0, 100, 0)" style="fill-opacity:1.00" />
<rect height="1.821065" width="10.000000" x="110.000000" y="106.006560" fill="rgb(0, 100, 0)" style="fill-opacity:1.00" />
<!-- End 'T' -->
<!-- Begin 'C' -->
<ellipse cx="115.000000" cy="108.454606" rx="25.000000" ry="0.626981" fill="rgb(0, 0, 128)" style="fill-opacity:1.00" />
<ellipse cx="115.000000" cy="108.454606" rx="16.666667" ry="0.417987" fill="rgb(255, 255, 255)" style="fill-opacity:1.00" />
<rect height="0.626981" width="25.000000" x="115.000000" y="108.141115" fill="rgb(255, 255, 255)" style="fill-opacity:1.00" />
<!-- End 'C' -->
<!-- Begin 'G' -->
<ellipse cx="115.000000" cy="109.540793" rx="25.000000" ry="0.459207" fill="rgb(255, 165, 0)" style="fill-opacity:1.00" />
<ellipse cx="115.000000" cy="109.540793" rx="16.666667" ry="0.306138" fill="rgb(255, 255, 255)" style="fill-opacity:1.00" />
<rect height="0.459207" width="25.000000" x="115.000000" y="109.311190" fill="rgb(255, 255, 255)" style="fill-opacity:1.00" />
<rect height="0.114802" width="25.000000" x="115.000000" y="109.655595" fill="rgb(255, 165, 0)" style="fill-opacity:1.00" />
<rect height="0.344405" width="6.250000" x="133.750000" y="109.655595" fill="rgb(255, 165, 0)" style="fill-opacity:1.00" />
<!-- End 'G' -->
<!-- Begin 'A' -->
<polygon points=" 150.000000, 105.633200, 171.000000, 102.265577, 179.000000, 102.265577, 200.000000, 105.633200, 192.500000, 105.633200, 186.250000, 104.791294, 163.750000, 104.791294, 157.500000, 105.633200" fill="rgb(178, 34, 34)" style="fill-opacity:1.00" />
<!-- End 'A' -->
<!-- Begin 'T' -->
<rect height="0.331346" width="50.000000" x="150.000000" y="105.633200" fill="rgb(0, 100, 0)" style="fill-opacity:1.00" />
<rect height="2.070911" width="10.000000" x="170.000000" y="105.633200" fill="rgb(0, 100, 0)" style="fill-opacity:1.00" />
<!-- End 'T' -->
<!-- Begin 'C' -->
<ellipse cx="175.000000" cy="108.345581" rx="25.000000" ry="0.641470" fill="rgb(0, 0, 128)" style="fill-opacity:1.00" />
<ellipse cx="175.000000" cy="108.345581" rx="16.666667" ry="0.427647" fill="rgb(255, 255, 255)" style="fill-opacity:1.00" />
<rect height="0.641470" width="25.000000" x="175.000000" y="108.024846" fill="rgb(255, 255, 255)" style="fill-opacity:1.00" />
<!-- End 'C' -->
<!-- Begin 'G' -->
<ellipse cx="175.000000" cy="109.493525" rx="25.000000" ry="0.506475" fill="rgb(255, 165, 0)" style="fill-opacity:1.00" />
<ellipse cx="175.000000" cy="109.493525" rx="16.666667" ry="0.337650" fill="rgb(255, 255, 255)" style="fill-opacity:1.00" />
<rect height="0.506475" width="25.000000" x="175.000000" y="109.240288" fill="rgb(255, 255, 255)" style="fill-opacity:1.00" />
<rect height="0.126619" width="25.000000" x="175.000000" y="109.620144" fill="rgb(255, 165, 0)" style="fill-opacity:1.00" />
<rect height="0.379856" width="6.250000" x="193.750000" y="109.620144" fill="rgb(255, 165, 0)" style="fill-opacity:1.00" />
<!-- End 'G' -->
<!-- Begin 'A' -->
<polygon points=" 210.000000, 106.363091, 231.000000, 103.830937, 239.000000, 103.830937, 260.000000, 106.363091, 252.500000, 106.363091, 246.250000, 105.730052, 223.750000, 105.730052, 217.500000, 106.363091" fill="rgb(178, 34, 34)" style="fill-opacity:1.00" />
<!-- End 'A' -->
<!-- Begin 'T' -->
<rect height="0.267704" width="50.000000" x="210.000000" y="106.363091" fill="rgb(0, 100, 0)" style="fill-opacity:1.00" />
<rect height="1.673147" width="10.000000" x="230.000000" y="106.363091" fill="rgb(0, 100, 0)" style="fill-opacity:1.00" />
<!-- End 'T' -->
<!-- Begin 'C' -->
<ellipse cx="235.000000" cy="108.601401" rx="25.000000" ry="0.565164" fill="rgb(0, 0, 128)" style="fill-opacity:1.00" />
<ellipse cx="235.000000" cy="108.601401" rx="16.666667" ry="0.376776" fill="rgb(255, 255, 255)" style="fill-opacity:1.00" />
<rect height="0.565164" width="25.000000" x="235.000000" y="108.318819" fill="rgb(255, 255, 255)" style="fill-opacity:1.00" />
<!-- End 'C' -->
<!-- Begin 'G' -->
<ellipse cx="235.000000" cy="109.583282" rx="25.000000" ry="0.416718" fill="rgb(255, 165, 0)" style="fill-opacity:1.00" />
<ellipse cx="235.000000" cy="109.583282" rx="16.666667" ry="0.277812" fill="rgb(255, 255, 255)" style="fill-opacity:1.00" />
<rect height="0.416718" width="25.000000" x="235.000000" y="109.374924" fill="rgb(255, 255, 255)" style="fill-opacity:1.00" />
<rect height="0.104179" width="25.000000" x="235.000000" y="109.687462" fill="rgb(255, 165, 0)" style="fill-opacity:1.00" />
<rect height="0.312538" width="6.250000" x="253.750000" y="109.687462" fill="rgb(255, 165, 0)" style="fill-opacity:1.00" />
<!-- End 'G' -->
<!-- Begin 'A' -->
<polygon points=" 270.000000, 106.265490, 291.000000, 104.205557, 299.000000, 104.205557, 320.000000, 106.265490, 312.500000, 106.265490, 306.250000, 105.750507, 283.750000, 105.750507, 277.500000, 106.265490" fill="rgb(178, 34, 34)" style="fill-opacity:1.00" />
<!-- End 'A' -->
<!-- Begin 'T' -->
<rect height="0.294136" width="50.000000" x="270.000000" y="106.265490" fill="rgb(0, 100, 0)" style="fill-opacity:1.00" />
<rect height="1.838348" width="10.000000" x="290.000000" y="106.265490" fill="rgb(0, 100, 0)" style="fill-opacity:1.00" />
<!-- End 'T' -->
<!-- Begin 'C' -->
<ellipse cx="295.000000" cy="108.734912" rx="25.000000" ry="0.631074" fill="rgb(0, 0, 128)" style="fill-opacity:1.00" />
<ellipse cx="295.000000" cy="108.734912" rx="16.666667" ry="0.420716" fill="rgb(255, 255, 255)" style="fill-opacity:1.00" />
<rect height="0.631074" width="25.000000" x="295.000000" y="108.419375" fill="rgb(255, 255, 255)" style="fill-opacity:1.00" />
<!-- End 'C' -->
<!-- Begin 'G' -->
<ellipse cx="295.000000" cy="109.682993" rx="25.000000" ry="0.317007" fill="rgb(255, 165, 0)" style="fill-opacity:1.00" />
<ellipse cx="295.000000" cy="109.682993" rx="16.666667" ry="0.211338" fill="rgb(255, 255, 255)" style="fill-opacity:1.00" />
<rect height="0.317007" width="25.000000" x="295.000000" y="109.524489" fill="rgb(255, 255, 255)" style="fill-opacity:1.00" />
<rect height="0.079252" width="25.000000" x="295.000000" y="109.762245" fill="rgb(255, 165, 0)" style="fill-opacity:1.00" />
<rect height="0.237755" width="6.250000" x="313.750000" y="109.762245" fill="rgb(255, 165, 0)" style="fill-opacity:1.00" />
<!-- End 'G' -->
<!-- Begin 'A' -->
<polygon points=" 330.000000, 106.897812, 351.000000, 105.301803, 359.000000, 105.301803, 380.000000, 106.897812, 372.500000, 106.897812, 366.250000, 106.498810, 343.750000, 106.498810, 337.500000, 106.897812" fill="rgb(178, 34, 34)" style="fill-opacity:1.00" />
<!-- End 'A' -->
<!-- Begin 'T' -->
<rect height="0.235097" width="50.000000" x="330.000000" y="106.897812" fill="rgb(0, 100, 0)" style="fill-opacity:1.00" />
<rect height="1.469356" width="10.000000" x="350.000000" y="106.897812" fill="rgb(0, 100, 0)" style="fill-opacity:1.00" />
<!-- End 'T' -->
<!-- Begin 'C' -->
<ellipse cx="355.000000" cy="108.903239" rx="25.000000" ry="0.536072" fill="rgb(0, 0, 128)" style="fill-opacity:1.00" />
<ellipse cx="355.000000" cy="108.903239" rx="16.666667" ry="0.357381" fill="rgb(255, 255, 255)" style="fill-opacity:1.00" />
<rect height="0.536072" width="25.000000" x="355.000000" y="108.635204" fill="rgb(255, 255, 255)" style="fill-opacity:1.00" />
<!-- End 'C' -->
<!-- Begin 'G' -->
<ellipse cx="355.000000" cy="109.719656" rx="25.000000" ry="0.280344" fill="rgb(255, 165, 0)" style="fill-opacity:1.00" />
<ellipse cx="355.000000" cy="109.719656" rx="16.666667" ry="0.186896" fill="rgb(255, 255, 255)" style="fill-opacity:1.00" />
<rect height="0.280344" width="25.000000" x="355.000000" y="109.579484" fill="rgb(255, 255, 255)" style="fill-opacity:1.00" />
<rect height="0.070086" width="25.000000" x="355.000000" y="109.789742" fill="rgb(255, 165, 0)" style="fill-opacity:1.00" />
<rect height="0.210258" width="6.250000" x="373.750000" y="109.789742" fill="rgb(255, 165, 0)" style="fill-opacity:1.00" />
<!-- End 'G' -->
<!-- Begin 'T' -->
<rect height="0.328849" width="50.000000" x="390.000000" y="104.889420" fill="rgb(0, 100, 0)" style="fill-opacity:1.00" />
<rect height="2.055307" width="10.000000" x="410.000000" y="104.889420" fill="rgb(0, 100, 0)" style="fill-opacity:1.00" />
<!-- End 'T' -->
<!-- Begin 'A' -->
<polygon points=" 390.000000, 108.290871, 411.000000, 106.944726, 419.000000, 106.944726, 440.000000, 108.290871, 432.500000, 108.290871, 426.250000, 107.954335, 403.750000, 107.954335, 397.500000, 108.290871" fill="rgb(178, 34, 34)" style="fill-opacity:1.00" />
<!-- End 'A' -->
<!-- Begin 'C' -->
<ellipse cx="415.000000" cy="108.739043" rx="25.000000" ry="0.448172" fill="rgb(0, 0, 128)" style="fill-opacity:1.00" />
<ellipse cx="415.000000" cy="108.739043" rx="16.666667" ry="0.298781" fill="rgb(255, 255, 255)" style="fill-opacity:1.00" />
<rect height="0.448172" width="25.000000" x="415.000000" y="108.514957" fill="rgb(255, 255, 255)" style="fill-opacity:1.00" />
<!-- End 'C' -->
<!-- Begin 'G' -->
<ellipse cx="415.000000" cy="109.593607" rx="25.000000" ry="0.406393" fill="rgb(255, 165, 0)" style="fill-opacity:1.00" />
<ellipse cx="415.000000" cy="109.593607" rx="16.666667" ry="0.270929" fill="rgb(255, 255, 255)" style="fill-opacity:1.00" />
<rect height="0.406393" width="25.000000" x="415.000000" y="109.390411" fill="rgb(255, 255, 255)" style="fill-opacity:1.00" />
<rect height="0.101598" width="25.000000" x="415.000000" y="109.695205" fill="rgb(255, 165, 0)" style="fill-opacity:1.00" />
<rect height="0.304795" width="6.250000" x="433.750000" y="109.695205" fill="rgb(255, 165, 0)" style="fill-opacity:1.00" />
<!-- End 'G' -->
<!-- Begin 'A' -->
<polygon points=" 450.000000, 100.701523, 471.000000, 90.405745, 479.000000, 90.405745, 500.000000, 100.701523, 492.500000, 100.701523, 486.250000, 98.127578, 463.750000, 98.127578, 457.500000, 100.701523" fill="rgb(178, 34, 34)" style="fill-opacity:1.00" />
<polygon points=" 475.000000, 92.464900, 467.000000, 95.583211, 482.000000, 95.583211" fill="rgb(255, 255, 255)" style="fill-opacity:1.00" />
<!-- End 'A' -->
<!-- Begin 'T' -->
<rect height="0.928625" width="50.000000" x="450.000000" y="100.701523" fill="rgb(0, 100, 0)" style="fill-opacity:1.00" />
<rect height="5.803904" width="10.000000" x="470.000000" y="100.701523" fill="rgb(0, 100, 0)" style="fill-opacity:1.00" />
<!-- End 'T' -->
<!-- Begin 'G' -->
<ellipse cx="475.000000" cy="107.731759" rx="25.000000" ry="1.226333" fill="rgb(255, 165, 0)" style="fill-opacity:1.00" />
<ellipse cx="475.000000" cy="107.731759" rx="16.666667" ry="0.817555" fill="rgb(255, 255, 255)" style="fill-opacity:1.00" />
<rect height="1.226333" width="25.000000" x="475.000000" y="107.118593" fill="rgb(255, 255, 255)" style="fill-opacity:1.00" />
<rect height="0.306583" width="25.000000" x="475.000000" y="108.038343" fill="rgb(255, 165, 0)" style="fill-opacity:1.00" />
<rect height="0.919750" width="6.250000" x="493.750000" y="108.038343" fill="rgb(255, 165, 0)" style="fill-opacity:1.00" />
<!-- End 'G' -->
<!-- Begin 'C' -->
<ellipse cx="475.000000" cy="109.479046" rx="25.000000" ry="0.520954" fill="rgb(0, 0, 128)" style="fill-opacity:1.00" />
<ellipse cx="475.000000" cy="109.479046" rx="16.666667" ry="0.347302" fill="rgb(255, 255, 255)" style="fill-opacity:1.00" />
<rect height="0.520954" width="25.000000" x="475.000000" y="109.218569" fill="rgb(255, 255, 255)" style="fill-opacity:1.00" />
<!-- End 'C' -->
<!-- Begin 'A' -->
<polygon points=" 510.000000, 95.367168, 531.000000, 60.949004, 539.000000, 60.949004, 560.000000, 95.367168, 552.500000, 95.367168, 546.250000, 86.762627, 523.750000, 86.762627, 517.500000, 95.367168" fill="rgb(178, 34, 34)" style="fill-opacity:1.00" />
<polygon points=" 535.000000, 67.832637, 527.000000, 80.599902, 542.000000, 80.599902" fill="rgb(255, 255, 255)" style="fill-opacity:1.00" />
<!-- End 'A' -->
<!-- Begin 'T' -->
<rect height="2.158551" width="50.000000" x="510.000000" y="95.367168" fill="rgb(0, 100, 0)" style="fill-opacity:1.00" />
<rect height="13.490945" width="10.000000" x="530.000000" y="95.367168" fill="rgb(0, 100, 0)" style="fill-opacity:1.00" />
<!-- End 'T' -->
<!-- Begin 'C' -->
<ellipse cx="535.000000" cy="109.226216" rx="25.000000" ry="0.368103" fill="rgb(0, 0, 128)" style="fill-opacity:1.00" />
<ellipse cx="535.000000" cy="109.226216" rx="16.666667" ry="0.245402" fill="rgb(255, 255, 255)" style="fill-opacity:1.00" />
<rect height="0.368103" width="25.000000" x="535.000000" y="109.042164" fill="rgb(255, 255, 255)" style="fill-opacity:1.00" />
<!-- End 'C' -->
<!-- Begin 'G' -->
<ellipse cx="535.000000" cy="109.797159" rx="25.000000" ry="0.202841" fill="rgb(255, 165, 0)" style="fill-opacity:1.00" />
<ellipse cx="535.000000" cy="109.797159" rx="16.666667" ry="0.135227" fill="rgb(255, 255, 255)" style="fill-opacity:1.00" />
<rect height="0.202841" width="25.000000" x="535.000000" y="109.695739" fill="rgb(255, 255, 255)" style="fill-opacity:1.00" />
<rect height="0.050710" width="25.000000" x="535.000000" y="109.847869" fill="rgb(255, 165, 0)" style="fill-opacity:1.00" />
<rect height="0.152131" width="6.250000" x="553.750000" y="109.847869" fill="rgb(255, 165, 0)" style="fill-opacity:1.00" />
<!-- End 'G' -->
<!-- Begin 'A' -->
<polygon points=" 570.000000, 92.973394, 591.000000, 61.494107, 599.000000, 61.494107, 620.000000, 92.973394, 612.500000, 92.973394, 606.250000, 85.103572, 583.750000, 85.103572, 577.500000, 92.973394" fill="rgb(178, 34, 34)" style="fill-opacity:1.00" />
<polygon points=" 595.000000, 67.789964, 587.000000, 79.381679, 602.000000, 79.381679" fill="rgb(255, 255, 255)" style="fill-opacity:1.00" />
<!-- End 'A' -->
<!-- Begin 'G' -->
<ellipse cx="595.000000" cy="101.144797" rx="25.000000" ry="8.171403" fill="rgb(255, 165, 0)" style="fill-opacity:1.00" />
<ellipse cx="595.000000" cy="101.144797" rx="16.666667" ry="5.447602" fill="rgb(255, 255, 255)" style="fill-opacity:1.00" />
<rect height="8.171403" width="25.000000" x="595.000000" y="97.059095" fill="rgb(255, 255, 255)" style="fill-opacity:1.00" />
<rect height="2.042851" width="25.000000" x="595.000000" y="103.187647" fill="rgb(255, 165, 0)" style="fill-opacity:1.00" />
<rect height="6.128552" width="6.250000" x="613.750000" y="103.187647" fill="rgb(255, 165, 0)" style="fill-opacity:1.00" />
<!-- End 'G' -->
<!-- Begin 'T' -->
<rect height="0.089680" width="50.000000" x="570.000000" y="109.316199" fill="rgb(0, 100, 0)" style="fill-opacity:1.00" />
<rect height="0.560500" width="10.000000" x="590.000000" y="109.316199" fill="rgb(0, 100, 0)" style="fill-opacity:1.00" />
<!-- End 'T' -->
<!-- Begin 'C' -->
<ellipse cx="595.000000" cy="109.938350" rx="25.000000" ry="0.061650" fill="rgb(0, 0, 128)" style="fill-opacity:1.00" />
<ellipse cx="595.000000" cy="109.938350" rx="16.666667" ry="0.041100" fill="rgb(255, 255, 255)" style="fill-opacity:1.00" />
<rect height="0.061650" width="25.000000" x="595.000000" y="109.907525" fill="rgb(255, 255, 255)" style="fill-opacity:1.00" />
<!-- End 'C' -->
<!-- Begin 'C' -->
<ellipse cx="655.000000" cy="73.182018" rx="25.000000" ry="24.723498" fill="rgb(0, 0, 128)" style="fill-opacity:1.00" />
<ellipse cx="655.000000" cy="73.182018" rx="16.666667" ry="16.482332" fill="rgb(255, 255, 255)" style="fill-opacity:1.00" />
<rect height="24.723498" width="25.000000" x="655.000000" y="60.820269" fill="rgb(255, 255, 255)" style="fill-opacity:1.00" />
<!-- End 'C' -->
<!-- Begin 'A' -->
<polygon points=" 630.000000, 109.509282, 651.000000, 97.905516, 659.000000, 97.905516, 680.000000, 109.509282, 672.500000, 109.509282, 666.250000, 106.608340, 643.750000, 106.608340, 637.500000, 109.509282" fill="rgb(178, 34, 34)" style="fill-opacity:1.00" />
<polygon points=" 655.000000, 100.226269, 647.000000, 103.867776, 662.000000, 103.867776" fill="rgb(255, 255, 255)" style="fill-opacity:1.00" />
<!-- End 'A' -->
<!-- Begin 'T' -->
<rect height="0.060960" width="50.000000" x="630.000000" y="109.509282" fill="rgb(0, 100, 0)" style="fill-opacity:1.00" />
<rect height="0.381002" width="10.000000" x="650.000000" y="109.509282" fill="rgb(0, 100, 0)" style="fill-opacity:1.00" />
<!-- End 'T' -->
<!-- Begin 'G' -->
<ellipse cx="655.000000" cy="109.945142" rx="25.000000" ry="0.054858" fill="rgb(255, 165, 0)" style="fill-opacity:1.00" />
<ellipse cx="655.000000" cy="109.945142" rx="16.666667" ry="0.036572" fill="rgb(255, 255, 255)" style="fill-opacity:1.00" />
<rect height="0.054858" width="25.000000" x="655.000000" y="109.917713" fill="rgb(255, 255, 255)" style="fill-opacity:1.00" />
<rect height="0.013714" width="25.000000" x="655.000000" y="109.958857" fill="rgb(255, 165, 0)" style="fill-opacity:1.00" />
<rect height="0.041143" width="6.250000" x="673.750000" y="109.958857" fill="rgb(255, 165, 0)" style="fill-opacity:1.00" />
<!-- End 'G' -->
<!-- Begin 'C' -->
<ellipse cx="715.000000" cy="62.798004" rx="25.000000" ry="45.687439" fill="rgb(0, 0, 128)" style="fill-opacity:1.00" />
<ellipse cx="715.000000" cy="62.798004" rx="16.666667" ry="30.458293" fill="rgb(255, 255, 255)" style="fill-opacity:1.00" />
<rect height="45.687439" width="25.000000" x="715.000000" y="39.954285" fill="rgb(255, 255, 255)" style="fill-opacity:1.00" />
<!-- End 'C' -->
<!-- Begin 'A' -->
<polygon points=" 690.000000, 109.369452, 711.000000, 108.485444, 719.000000, 108.485444, 740.000000, 109.369452, 732.500000, 109.369452, 726.250000, 109.148450, 703.750000, 109.148450, 697.500000, 109.369452" fill="rgb(178, 34, 34)" style="fill-opacity:1.00" />
<!-- End 'A' -->
<!-- Begin 'T' -->
<rect height="0.069400" width="50.000000" x="690.000000" y="109.369452" fill="rgb(0, 100, 0)" style="fill-opacity:1.00" />
<rect height="0.433747" width="10.000000" x="710.000000" y="109.369452" fill="rgb(0, 100, 0)" style="fill-opacity:1.00" />
<!-- End 'T' -->
<!-- Begin 'G' -->
<ellipse cx="715.000000" cy="109.901600" rx="25.000000" ry="0.098400" fill="rgb(255, 165, 0)" style="fill-opacity:1.00" />
<ellipse cx="715.000000" cy="109.901600" rx="16.666667" ry="0.065600" fill="rgb(255, 255, 255)" style="fill-opacity:1.00" />
<rect height="0.098400" width="25.000000" x="715.000000" y="109.852400" fill="rgb(255, 255, 255)" style="fill-opacity:1.00" />
<rect height="0.024600" width="25.000000" x="715.000000" y="109.926200" fill="rgb(255, 165, 0)" style="fill-opacity:1.00" />
<rect height="0.073800" width="6.250000" x="733.750000" y="109.926200" fill="rgb(255, 165, 0)" style="fill-opacity:1.00" />
<!-- End 'G' -->
<!-- Begin 'C' -->
<ellipse cx="775.000000" cy="62.096781" rx="25.000000" ry="46.830697" fill="rgb(0, 0, 128)" style="fill-opacity:1.00" />
<ellipse cx="775.000000" cy="62.096781" rx="16.666667" ry="31.220465" fill="rgb(255, 255, 255)" style="fill-opacity:1.00" />
<rect height="46.830697" width="25.000000" x="775.000000" y="38.681433" fill="rgb(255, 255, 255)" style="fill-opacity:1.00" />
<!-- End 'C' -->
<!-- Begin 'A' -->
<polygon points=" 750.000000, 109.540063, 771.000000, 108.927478, 779.000000, 108.927478, 800.000000, 109.540063, 792.500000, 109.540063, 786.250000, 109.386917, 763.750000, 109.386917, 757.500000, 109.540063" fill="rgb(178, 34, 34)" style="fill-opacity:1.00" />
<!-- End 'A' -->
<!-- Begin 'T' -->
<rect height="0.043586" width="50.000000" x="750.000000" y="109.540063" fill="rgb(0, 100, 0)" style="fill-opacity:1.00" />
<rect height="0.272413" width="10.000000" x="770.000000" y="109.540063" fill="rgb(0, 100, 0)" style="fill-opacity:1.00" />
<!-- End 'T' -->
<!-- Begin 'G' -->
<ellipse cx="775.000000" cy="109.906238" rx="25.000000" ry="0.093762" fill="rgb(255, 165, 0)" style="fill-opacity:1.00" />
<ellipse cx="775.000000" cy="109.906238" rx="16.666667" ry="0.062508" fill="rgb(255, 255, 255)" style="fill-opacity:1.00" />
<rect height="0.093762" width="25.000000" x="775.000000" y="109.859357" fill="rgb(255, 255, 255)" style="fill-opacity:1.00" />
<rect height="0.023440" width="25.000000" x="775.000000" y="109.929679" fill="rgb(255, 165, 0)" style="fill-opacity:1.00" />
<rect height="0.070321" width="6.250000" x="793.750000" y="109.929679" fill="rgb(255, 165, 0)" style="fill-opacity:1.00" />
<!-- End 'G' -->
<!-- Begin 'T' -->
<rect height="13.909612" width="50.000000" x="810.000000" y="20.647888" fill="rgb(0, 100, 0)" style="fill-opacity:1.00" />
<rect height="86.935078" width="10.000000" x="830.000000" y="20.647888" fill="rgb(0, 100, 0)" style="fill-opacity:1.00" />
<!-- End 'T' -->
<!-- Begin 'A' -->
<polygon points=" 810.000000, 109.088164, 831.000000, 107.582965, 839.000000, 107.582965, 860.000000, 109.088164, 852.500000, 109.088164, 846.250000, 108.711864, 823.750000, 108.711864, 817.500000, 109.088164" fill="rgb(178, 34, 34)" style="fill-opacity:1.00" />
<!-- End 'A' -->
<!-- Begin 'C' -->
<ellipse cx="835.000000" cy="109.444769" rx="25.000000" ry="0.356605" fill="rgb(0, 0, 128)" style="fill-opacity:1.00" />
<ellipse cx="835.000000" cy="109.444769" rx="16.666667" ry="0.237737" fill="rgb(255, 255, 255)" style="fill-opacity:1.00" />
<rect height="0.356605" width="25.000000" x="835.000000" y="109.266466" fill="rgb(255, 255, 255)" style="fill-opacity:1.00" />
<!-- End 'C' -->
<!-- Begin 'G' -->
<ellipse cx="835.000000" cy="109.900687" rx="25.000000" ry="0.099313" fill="rgb(255, 165, 0)" style="fill-opacity:1.00" />
<ellipse cx="835.000000" cy="109.900687" rx="16.666667" ry="0.066209" fill="rgb(255, 255, 255)" style="fill-opacity:1.00" />
<rect height="0.099313" width="25.000000" x="835.000000" y="109.851031" fill="rgb(255, 255, 255)" style="fill-opacity:1.00" />
<rect height="0.024828" width="25.000000" x="835.000000" y="109.925515" fill="rgb(255, 165, 0)" style="fill-opacity:1.00" />
<rect height="0.074485" width="6.250000" x="853.750000" y="109.925515" fill="rgb(255, 165, 0)" style="fill-opacity:1.00" />
<!-- End 'G' -->
<!-- Begin 'A' -->
<polygon points=" 870.000000, 108.878686, 891.000000, 15.567140, 899.000000, 15.567140, 920.000000, 108.878686, 912.500000, 108.878686, 906.250000, 85.550799, 883.750000, 85.550799, 877.500000, 108.878686" fill="rgb(178, 34, 34)" style="fill-opacity:1.00" />
<polygon points=" 895.000000, 34.229449, 887.000000, 70.554067, 902.000000, 70.554067" fill="rgb(255, 255, 255)" style="fill-opacity:1.00" />
<!-- End 'A' -->
<!-- Begin 'T' -->
<rect height="0.073790" width="50.000000" x="870.000000" y="108.878686" fill="rgb(0, 100, 0)" style="fill-opacity:1.00" />
<rect height="0.461185" width="10.000000" x="890.000000" y="108.878686" fill="rgb(0, 100, 0)" style="fill-opacity:1.00" />
<!-- End 'T' -->
<!-- Begin 'G' -->
<ellipse cx="895.000000" cy="109.539801" rx="25.000000" ry="0.199930" fill="rgb(255, 165, 0)" style="fill-opacity:1.00" />
<ellipse cx="895.000000" cy="109.539801" rx="16.666667" ry="0.133287" fill="rgb(255, 255, 255)" style="fill-opacity:1.00" />
<rect height="0.199930" width="25.000000" x="895.000000" y="109.439836" fill="rgb(255, 255, 255)" style="fill-opacity:1.00" />
<rect height="0.049983" width="25.000000" x="895.000000" y="109.589784" fill="rgb(255, 165, 0)" style="fill-opacity:1.00" />
<rect height="0.149948" width="6.250000" x="913.750000" y="109.589784" fill="rgb(255, 165, 0)" style="fill-opacity:1.00" />
<!-- End 'G' -->
<!-- Begin 'C' -->
<ellipse cx="895.000000" cy="109.869866" rx="25.000000" ry="0.130134" fill="rgb(0, 0, 128)" style="fill-opacity:1.00" />
<ellipse cx="895.000000" cy="109.869866" rx="16.666667" ry="0.086756" fill="rgb(255, 255, 255)" style="fill-opacity:1.00" />
<rect height="0.130134" width="25.000000" x="895.000000" y="109.804799" fill="rgb(255, 255, 255)" style="fill-opacity:1.00" />
<!-- End 'C' -->
<!-- Begin 'A' -->
<polygon points=" 930.000000, 97.645526, 951.000000, 60.121285, 959.000000, 60.121285, 980.000000, 97.645526, 972.500000, 97.645526, 966.250000, 88.264466, 943.750000, 88.264466, 937.500000, 97.645526" fill="rgb(178, 34, 34)" style="fill-opacity:1.00" />
<polygon points=" 955.000000, 67.626133, 947.000000, 81.635830, 962.000000, 81.635830" fill="rgb(255, 255, 255)" style="fill-opacity:1.00" />
<!-- End 'A' -->
<!-- Begin 'G' -->
<ellipse cx="955.000000" cy="102.827341" rx="25.000000" ry="5.181815" fill="rgb(255, 165, 0)" style="fill-opacity:1.00" />
<ellipse cx="955.000000" cy="102.827341" rx="16.666667" ry="3.454543" fill="rgb(255, 255, 255)" style="fill-opacity:1.00" />
<rect height="5.181815" width="25.000000" x="955.000000" y="100.236433" fill="rgb(255, 255, 255)" style="fill-opacity:1.00" />
<rect height="1.295454" width="25.000000" x="955.000000" y="104.122795" fill="rgb(255, 165, 0)" style="fill-opacity:1.00" />
<rect height="3.886361" width="6.250000" x="973.750000" y="104.122795" fill="rgb(255, 165, 0)" style="fill-opacity:1.00" />
<!-- End 'G' -->
<!-- Begin 'T' -->
<rect height="0.209155" width="50.000000" x="930.000000" y="108.009156" fill="rgb(0, 100, 0)" style="fill-opacity:1.00" />
<rect height="1.307221" width="10.000000" x="950.000000" y="108.009156" fill="rgb(0, 100, 0)" style="fill-opacity:1.00" />
<!-- End 'T' -->
<!-- Begin 'C' -->
<ellipse cx="955.000000" cy="109.658188" rx="25.000000" ry="0.341812" fill="rgb(0, 0, 128)" style="fill-opacity:1.00" />
<ellipse cx="955.000000" cy="109.658188" rx="16.666667" ry="0.227874" fill="rgb(255, 255, 255)" style="fill-opacity:1.00" />
<rect height="0.341812" width="25.000000" x="955.000000" y="109.487283" fill="rgb(255, 255, 255)" style="fill-opacity:1.00" />
<!-- End 'C' -->
<!-- Begin 'A' -->
<polygon points=" 990.000000, 102.589936, 1011.000000, 97.207046, 1019.000000, 97.207046, 1040.000000, 102.589936, 1032.500000, 102.589936, 1026.250000, 101.244214, 1003.750000, 101.244214, 997.500000, 102.589936" fill="rgb(178, 34, 34)" style="fill-opacity:1.00" />
<!-- End 'A' -->
<!-- Begin 'T' -->
<rect height="0.724544" width="50.000000" x="990.000000" y="102.589936" fill="rgb(0, 100, 0)" style="fill-opacity:1.00" />
<rect height="4.528401" width="10.000000" x="1010.000000" y="102.589936" fill="rgb(0, 100, 0)" style="fill-opacity:1.00" />
<!-- End 'T' -->
<!-- Begin 'C' -->
<ellipse cx="1015.000000" cy="108.096965" rx="25.000000" ry="0.978628" fill="rgb(0, 0, 128)" style="fill-opacity:1.00" />
<ellipse cx="1015.000000" cy="108.096965" rx="16.666667" ry="0.652418" fill="rgb(255, 255, 255)" style="fill-opacity:1.00" />
<rect height="0.978628" width="25.000000" x="1015.000000" y="107.607652" fill="rgb(255, 255, 255)" style="fill-opacity:1.00" />
<!-- End 'C' -->
<!-- Begin 'G' -->
<ellipse cx="1015.000000" cy="109.537797" rx="25.000000" ry="0.462203" fill="rgb(255, 165, 0)" style="fill-opacity:1.00" />
<ellipse cx="1015.000000" cy="109.537797" rx="16.666667" ry="0.308136" fill="rgb(255, 255, 255)" style="fill-opacity:1.00" />
<rect height="0.462203" width="25.000000" x="1015.000000" y="109.306695" fill="rgb(255, 255, 255)" style="fill-opacity:1.00" />
<rect height="0.115551" width="25.000000" x="1015.000000" y="109.653347" fill="rgb(255, 165, 0)" style="fill-opacity:1.00" />
<rect height="0.346653" width="6.250000" x="1033.750000" y="109.653347" fill="rgb(255, 165, 0)" style="fill-opacity:1.00" />
<!-- End 'G' -->
<!-- Begin 'T' -->
<rect height="0.630058" width="50.000000" x="1050.000000" y="100.956784" fill="rgb(0, 100, 0)" style="fill-opacity:1.00" />
<rect height="3.937865" width="10.000000" x="1070.000000" y="100.956784" fill="rgb(0, 100, 0)" style="fill-opacity:1.00" />
<!-- End 'T' -->
<!-- Begin 'A' -->
<polygon points=" 1050.000000, 107.197176, 1071.000000, 104.894649, 1079.000000, 104.894649, 1100.000000, 107.197176, 1092.500000, 107.197176, 1086.250000, 106.621544, 1063.750000, 106.621544, 1057.500000, 107.197176" fill="rgb(178, 34, 34)" style="fill-opacity:1.00" />
<!-- End 'A' -->
<!-- Begin 'C' -->
<ellipse cx="1075.000000" cy="108.187552" rx="25.000000" ry="0.990376" fill="rgb(0, 0, 128)" style="fill-opacity:1.00" />
<ellipse cx="1075.000000" cy="108.187552" rx="16.666667" ry="0.660250" fill="rgb(255, 255, 255)" style="fill-opacity:1.00" />
<rect height="0.990376" width="25.000000" x="1075.000000" y="107.692364" fill="rgb(255, 255, 255)" style="fill-opacity:1.00" />
<!-- End 'C' -->
<!-- Begin 'G' -->
<ellipse cx="1075.000000" cy="109.588964" rx="25.000000" ry="0.411036" fill="rgb(255, 165, 0)" style="fill-opacity:1.00" />
<ellipse cx="1075.000000" cy="109.588964" rx="16.666667" ry="0.274024" fill="rgb(255, 255, 255)" style="fill-opacity:1.00" />
<rect height="0.411036" width="25.000000" x="1075.000000" y="109.383445" fill="rgb(255, 255, 255)" style="fill-opacity:1.00" />
<rect height="0.102759" width="25.000000" x="1075.000000" y="109.691723" fill="rgb(255, 165, 0)" style="fill-opacity:1.00" />
<rect height="0.308277" width="6.250000" x="1093.750000" y="109.691723" fill="rgb(255, 165, 0)" style="fill-opacity:1.00" />
<!-- End 'G' -->
<!-- Begin 'T' -->
<rect height="0.285833" width="50.000000" x="1110.000000" y="105.187036" fill="rgb(0, 100, 0)" style="fill-opacity:1.00" />
<rect height="1.786458" width="10.000000" x="1130.000000" y="105.187036" fill="rgb(0, 100, 0)" style="fill-opacity:1.00" />
<!-- End 'T' -->
<!-- Begin 'A' -->
<polygon points=" 1110.000000, 108.262331, 1131.000000, 106.973493, 1139.000000, 106.973493, 1160.000000, 108.262331, 1152.500000, 108.262331, 1146.250000, 107.940121, 1123.750000, 107.940121, 1117.500000, 108.262331" fill="rgb(178, 34, 34)" style="fill-opacity:1.00" />
<!-- End 'A' -->
<!-- Begin 'C' -->
<ellipse cx="1135.000000" cy="108.837105" rx="25.000000" ry="0.574774" fill="rgb(0, 0, 128)" style="fill-opacity:1.00" />
<ellipse cx="1135.000000" cy="108.837105" rx="16.666667" ry="0.383183" fill="rgb(255, 255, 255)" style="fill-opacity:1.00" />
<rect height="0.574774" width="25.000000" x="1135.000000" y="108.549718" fill="rgb(255, 255, 255)" style="fill-opacity:1.00" />
<!-- End 'C' -->
<!-- Begin 'G' -->
<ellipse cx="1135.000000" cy="109.705940" rx="25.000000" ry="0.294060" fill="rgb(255, 165, 0)" style="fill-opacity:1.00" />
<ellipse cx="1135.000000" cy="109.705940" rx="16.666667" ry="0.196040" fill="rgb(255, 255, 255)" style="fill-opacity:1.00" />
<rect height="0.294060" width="25.000000" x="1135.000000" y="109.558910" fill="rgb(255, 255, 255)" style="fill-opacity:1.00" />
<rect height="0.073515" width="25.000000" x="1135.000000" y="109.779455" fill="rgb(255, 165, 0)" style="fill-opacity:1.00" />
<rect height="0.220545" width="6.250000" x="1153.750000" y="109.779455" fill="rgb(255, 165, 0)" style="fill-opacity:1.00" />
<!-- End 'G' -->
<!-- Begin 'T' -->
<rect height="0.142934" width="50.000000" x="1170.000000" y="107.350169" fill="rgb(0, 100, 0)" style="fill-opacity:1.00" />
<rect height="0.893340" width="10.000000" x="1190.000000" y="107.350169" fill="rgb(0, 100, 0)" style="fill-opacity:1.00" />
<!-- End 'T' -->
<!-- Begin 'A' -->
<polygon points=" 1170.000000, 108.945176, 1191.000000, 108.243509, 1199.000000, 108.243509, 1220.000000, 108.945176, 1212.500000, 108.945176, 1206.250000, 108.769759, 1183.750000, 108.769759, 1177.500000, 108.945176" fill="rgb(178, 34, 34)" style="fill-opacity:1.00" />
<!-- End 'A' -->
<!-- Begin 'C' -->
<ellipse cx="1195.000000" cy="109.271834" rx="25.000000" ry="0.326658" fill="rgb(0, 0, 128)" style="fill-opacity:1.00" />
<ellipse cx="1195.000000" cy="109.271834" rx="16.666667" ry="0.217772" fill="rgb(255, 255, 255)" style="fill-opacity:1.00" />
<rect height="0.326658" width="25.000000" x="1195.000000" y="109.108505" fill="rgb(255, 255, 255)" style="fill-opacity:1.00" />
<!-- End 'C' -->
<!-- Begin 'G' -->
<ellipse cx="1195.000000" cy="109.799246" rx="25.000000" ry="0.200754" fill="rgb(255, 165, 0)" style="fill-opacity:1.00" />
<ellipse cx="1195.000000" cy="109.799246" rx="16.666667" ry="0.133836" fill="rgb(255, 255, 255)" style="fill-opacity:1.00" />
<rect height="0.200754" width="25.000000" x="1195.000000" y="109.698869" fill="rgb(255, 255, 255)" style="fill-opacity:1.00" />
<rect height="0.050189" width="25.000000" x="1195.000000" y="109.849434" fill="rgb(255, 165, 0)" style="fill-opacity:1.00" />
<rect height="0.150566" width="6.250000" x="1213.750000" y="109.849434" fill="rgb(255, 165, 0)" style="fill-opacity:1.00" />
<!-- End 'G' -->
<text x="640.000000" y="165">
IC = 13.32
</text>

</svg>
