<?xml version="1.0" encoding="UTF-8" standalone="yes"?>
                 <!DOCTYPE svg PUBLIC "-//W3C//DTD SVG 1.0//EN" "http://www.w3.org/TR/2001/REC-SVG-20010904/DTD/svg10.dtd">
                 <svg height="170" width="780" xmlns="http://www.w3.org/2000/svg" xmlns:xlink="http://www.w3.org/1999/xlink">
                 <line x1="85" y1="120" x2="747" y2="120" style="stroke:rgb(99,99,99);stroke-width:2" />
<rect height="7.000000" width="2.000000" x="85.000000" y="120.000000" fill="rgb(0, 0, 0)" style="fill-opacity:1.00" />
<text x="107.000000" y="140">
1
</text>
<rect height="7.000000" width="2.000000" x="145.000000" y="120.000000" fill="rgb(0, 0, 0)" style="fill-opacity:1.00" />
<text x="167.000000" y="140">
2
</text>
<rect height="7.000000" width="2.000000" x="205.000000" y="120.000000" fill="rgb(0, 0, 0)" style="fill-opacity:1.00" />
<text x="227.000000" y="140">
3
</text>
<rect height="7.000000" width="2.000000" x="265.000000" y="120.000000" fill="rgb(0, 0, 0)" style="fill-opacity:1.00" />
<text x="287.000000" y="140">
4
</text>
<rect height="7.000000" width="2.000000" x="325.000000" y="120.000000" fill="rgb(0, 0, 0)" style="fill-opacity:1.00" />
<text x="347.000000" y="140">
5
</text>
<rect height="7.000000" width="2.000000" x="385.000000" y="120.000000" fill="rgb(0, 0, 0)" style="fill-opacity:1.00" />
<text x="407.000000" y="140">
6
</text>
<rect height="7.000000" width="2.000000" x="445.000000" y="120.000000" fill="rgb(0, 0, 0)" style="fill-opacity:1.00" />
<text x="467.000000" y="140">
7
</text>
<rect height="7.000000" width="2.000000" x="505.000000" y="120.000000" fill="rgb(0, 0, 0)" style="fill-opacity:1.00" />
<text x="527.000000" y="140">
8
</text>
<rect height="7.000000" width="2.000000" x="565.000000" y="120.000000" fill="rgb(0, 0, 0)" style="fill-opacity:1.00" />
<text x="587.000000" y="140">
9
</text>
<rect height="7.000000" width="2.000000" x="625.000000" y="120.000000" fill="rgb(0, 0, 0)" style="fill-opacity:1.00" />
<text x="647.000000" y="140">
10
</text>
<rect height="7.000000" width="2.000000" x="685.000000" y="120.000000" fill="rgb(0, 0, 0)" style="fill-opacity:1.00" />
<text x="707.000000" y="140">
11
</text>
<rect height="7.000000" width="2.000000" x="745.000000" y="120.000000" fill="rgb(0, 0, 0)" style="fill-opacity:1.00" />
<line x1="80" y1="112" x2="80" y2="10" style="stroke:rgb(99,99,99);stroke-width:2" />
<rect height="2.000000" width="7.000000" x="73.000000" y="110.000000" fill="rgb(0, 0, 0)" style="fill-opacity:1.00" />
<text x="63" y="115">
0
</text>
<rect height="2.000000" width="7.000000" x="73.000000" y="60.000000" fill="rgb(0, 0, 0)" style="fill-opacity:1.00" />
<text x="63" y="65">
1
</text>
<rect height="2.000000" width="7.000000" x="73.000000" y="10.000000" fill="rgb(0, 0, 0)" style="fill-opacity:1.00" />
<text x="63" y="15">
2
</text>
<text x="50" y="65"
transform="rotate(-90, 50, 70)">
bits
</text>
<!-- Begin 'A' -->
<polygon points=" 90.000000, 105.793265, 111.000000, 103.378137, 119.000000, 103.378137, 140.000000, 105.793265, 132.500000, 105.793265, 126.250000, 105.189483, 103.750000, 105.189483, 97.500000, 105.793265" fill="rgb(178, 34, 34)" style="fill-opacity:1.00" />
<!-- End 'A' -->
<!-- Begin 'T' -->
<rect height="0.364357" width="50.000000" x="90.000000" y="105.793265" fill="rgb(0, 100, 0)" style="fill-opacity:1.00" />
<rect height="2.277234" width="10.000000" x="110.000000" y="105.793265" fill="rgb(0, 100, 0)" style="fill-opacity:1.00" />
<!-- End 'T' -->
<!-- Begin 'G' -->
<ellipse cx="115.000000" cy="108.605402" rx="25.000000" ry="0.534904" fill="rgb(255, 165, 0)" style="fill-opacity:1.00" />
<ellipse cx="115.000000" cy="108.605402" rx="16.666667" ry="0.356602" fill="rgb(255, 255, 255)" style="fill-opacity:1.00" />
<rect height="0.534904" width="25.000000" x="115.000000" y="108.337951" fill="rgb(255, 255, 255)" style="fill-opacity:1.00" />
<rect height="0.133726" width="25.000000" x="115.000000" y="108.739128" fill="rgb(255, 165, 0)" style="fill-opacity:1.00" />
<rect height="0.401178" width="6.250000" x="133.750000" y="108.739128" fill="rgb(255, 165, 0)" style="fill-opacity:1.00" />
<!-- End 'G' -->
<!-- Begin 'C' -->
<ellipse cx="115.000000" cy="109.570153" rx="25.000000" ry="0.429847" fill="rgb(0, 0, 128)" style="fill-opacity:1.00" />
<ellipse cx="115.000000" cy="109.570153" rx="16.666667" ry="0.286565" fill="rgb(255, 255, 255)" style="fill-opacity:1.00" />
<rect height="0.429847" width="25.000000" x="115.000000" y="109.355229" fill="rgb(255, 255, 255)" style="fill-opacity:1.00" />
<!-- End 'C' -->
<!-- Begin 'C' -->
<ellipse cx="175.000000" cy="104.156259" rx="25.000000" ry="1.238901" fill="rgb(0, 0, 128)" style="fill-opacity:1.00" />
<ellipse cx="175.000000" cy="104.156259" rx="16.666667" ry="0.825934" fill="rgb(255, 255, 255)" style="fill-opacity:1.00" />
<rect height="1.238901" width="25.000000" x="175.000000" y="103.536809" fill="rgb(255, 255, 255)" style="fill-opacity:1.00" />
<!-- End 'C' -->
<!-- Begin 'T' -->
<rect height="0.361494" width="50.000000" x="150.000000" y="105.395161" fill="rgb(0, 100, 0)" style="fill-opacity:1.00" />
<rect height="2.259340" width="10.000000" x="170.000000" y="105.395161" fill="rgb(0, 100, 0)" style="fill-opacity:1.00" />
<!-- End 'T' -->
<!-- Begin 'A' -->
<polygon points=" 150.000000, 109.387158, 171.000000, 107.654501, 179.000000, 107.654501, 200.000000, 109.387158, 192.500000, 109.387158, 186.250000, 108.953994, 163.750000, 108.953994, 157.500000, 109.387158" fill="rgb(178, 34, 34)" style="fill-opacity:1.00" />
<!-- End 'A' -->
<!-- Begin 'G' -->
<ellipse cx="175.000000" cy="109.693579" rx="25.000000" ry="0.306421" fill="rgb(255, 165, 0)" style="fill-opacity:1.00" />
<ellipse cx="175.000000" cy="109.693579" rx="16.666667" ry="0.204281" fill="rgb(255, 255, 255)" style="fill-opacity:1.00" />
<rect height="0.306421" width="25.000000" x="175.000000" y="109.540368" fill="rgb(255, 255, 255)" style="fill-opacity:1.00" />
<rect height="0.076605" width="25.000000" x="175.000000" y="109.770184" fill="rgb(255, 165, 0)" style="fill-opacity:1.00" />
<rect height="0.229816" width="6.250000" x="193.750000" y="109.770184" fill="rgb(255, 165, 0)" style="fill-opacity:1.00" />
<!-- End 'G' -->
<!-- Begin 'C' -->
<ellipse cx="235.000000" cy="103.259625" rx="25.000000" ry="1.516455" fill="rgb(0, 0, 128)" style="fill-opacity:1.00" />
<ellipse cx="235.000000" cy="103.259625" rx="16.666667" ry="1.010970" fill="rgb(255, 255, 255)" style="fill-opacity:1.00" />
<rect height="1.516455" width="25.000000" x="235.000000" y="102.501398" fill="rgb(255, 255, 255)" style="fill-opacity:1.00" />
<!-- End 'C' -->
<!-- Begin 'T' -->
<rect height="0.449031" width="50.000000" x="210.000000" y="104.776080" fill="rgb(0, 100, 0)" style="fill-opacity:1.00" />
<rect height="2.806445" width="10.000000" x="230.000000" y="104.776080" fill="rgb(0, 100, 0)" style="fill-opacity:1.00" />
<!-- End 'T' -->
<!-- Begin 'A' -->
<polygon points=" 210.000000, 109.287434, 231.000000, 107.582525, 239.000000, 107.582525, 260.000000, 109.287434, 252.500000, 109.287434, 246.250000, 108.861206, 223.750000, 108.861206, 217.500000, 109.287434" fill="rgb(178, 34, 34)" style="fill-opacity:1.00" />
<!-- End 'A' -->
<!-- Begin 'G' -->
<ellipse cx="235.000000" cy="109.643717" rx="25.000000" ry="0.356283" fill="rgb(255, 165, 0)" style="fill-opacity:1.00" />
<ellipse cx="235.000000" cy="109.643717" rx="16.666667" ry="0.237522" fill="rgb(255, 255, 255)" style="fill-opacity:1.00" />
<rect height="0.356283" width="25.000000" x="235.000000" y="109.465575" fill="rgb(255, 255, 255)" style="fill-opacity:1.00" />
<rect height="0.089071" width="25.000000" x="235.000000" y="109.732788" fill="rgb(255, 165, 0)" style="fill-opacity:1.00" />
<rect height="0.267212" width="6.250000" x="253.750000" y="109.732788" fill="rgb(255, 165, 0)" style="fill-opacity:1.00" />
<!-- End 'G' -->
<!-- Begin 'G' -->
<ellipse cx="295.000000" cy="61.455754" rx="25.000000" ry="47.824256" fill="rgb(255, 165, 0)" style="fill-opacity:1.00" />
<ellipse cx="295.000000" cy="61.455754" rx="16.666667" ry="31.882838" fill="rgb(255, 255, 255)" style="fill-opacity:1.00" />
<rect height="47.824256" width="25.000000" x="295.000000" y="37.543626" fill="rgb(255, 255, 255)" style="fill-opacity:1.00" />
<rect height="11.956064" width="25.000000" x="295.000000" y="73.411818" fill="rgb(255, 165, 0)" style="fill-opacity:1.00" />
<rect height="35.868192" width="6.250000" x="313.750000" y="73.411818" fill="rgb(255, 165, 0)" style="fill-opacity:1.00" />
<!-- End 'G' -->
<!-- Begin 'C' -->
<ellipse cx="295.000000" cy="109.477481" rx="25.000000" ry="0.197470" fill="rgb(0, 0, 128)" style="fill-opacity:1.00" />
<ellipse cx="295.000000" cy="109.477481" rx="16.666667" ry="0.131647" fill="rgb(255, 255, 255)" style="fill-opacity:1.00" />
<rect height="0.197470" width="25.000000" x="295.000000" y="109.378746" fill="rgb(255, 255, 255)" style="fill-opacity:1.00" />
<!-- End 'C' -->
<!-- Begin 'A' -->
<polygon points=" 270.000000, 109.964079, 291.000000, 109.674951, 299.000000, 109.674951, 320.000000, 109.964079, 312.500000, 109.964079, 306.250000, 109.891797, 283.750000, 109.891797, 277.500000, 109.964079" fill="rgb(178, 34, 34)" style="fill-opacity:1.00" />
<!-- End 'A' -->
<!-- Begin 'T' -->
<rect height="0.005747" width="50.000000" x="270.000000" y="109.964079" fill="rgb(0, 100, 0)" style="fill-opacity:1.00" />
<rect height="0.035921" width="10.000000" x="290.000000" y="109.964079" fill="rgb(0, 100, 0)" style="fill-opacity:1.00" />
<!-- End 'T' -->
<!-- Begin 'T' -->
<rect height="15.381069" width="50.000000" x="330.000000" y="13.229658" fill="rgb(0, 100, 0)" style="fill-opacity:1.00" />
<rect height="96.131684" width="10.000000" x="350.000000" y="13.229658" fill="rgb(0, 100, 0)" style="fill-opacity:1.00" />
<!-- End 'T' -->
<!-- Begin 'G' -->
<ellipse cx="355.000000" cy="109.542370" rx="25.000000" ry="0.181028" fill="rgb(255, 165, 0)" style="fill-opacity:1.00" />
<ellipse cx="355.000000" cy="109.542370" rx="16.666667" ry="0.120685" fill="rgb(255, 255, 255)" style="fill-opacity:1.00" />
<rect height="0.181028" width="25.000000" x="355.000000" y="109.451856" fill="rgb(255, 255, 255)" style="fill-opacity:1.00" />
<rect height="0.045257" width="25.000000" x="355.000000" y="109.587627" fill="rgb(255, 165, 0)" style="fill-opacity:1.00" />
<rect height="0.135771" width="6.250000" x="373.750000" y="109.587627" fill="rgb(255, 165, 0)" style="fill-opacity:1.00" />
<!-- End 'G' -->
<!-- Begin 'C' -->
<ellipse cx="355.000000" cy="109.855166" rx="25.000000" ry="0.131768" fill="rgb(0, 0, 128)" style="fill-opacity:1.00" />
<ellipse cx="355.000000" cy="109.855166" rx="16.666667" ry="0.087846" fill="rgb(255, 255, 255)" style="fill-opacity:1.00" />
<rect height="0.131768" width="25.000000" x="355.000000" y="109.789282" fill="rgb(255, 255, 255)" style="fill-opacity:1.00" />
<!-- End 'C' -->
<!-- Begin 'A' -->
<polygon points=" 330.000000, 110.000000, 351.000000, 109.986935, 359.000000, 109.986935, 380.000000, 110.000000, 372.500000, 110.000000, 366.250000, 109.996734, 343.750000, 109.996734, 337.500000, 110.000000" fill="rgb(178, 34, 34)" style="fill-opacity:1.00" />
<!-- End 'A' -->
<!-- Begin 'A' -->
<polygon points=" 390.000000, 107.359289, 411.000000, 19.725044, 419.000000, 19.725044, 440.000000, 107.359289, 432.500000, 107.359289, 426.250000, 85.450728, 403.750000, 85.450728, 397.500000, 107.359289" fill="rgb(178, 34, 34)" style="fill-opacity:1.00" />
<polygon points=" 415.000000, 37.251893, 407.000000, 71.305591, 422.000000, 71.305591" fill="rgb(255, 255, 255)" style="fill-opacity:1.00" />
<!-- End 'A' -->
<!-- Begin 'C' -->
<ellipse cx="415.000000" cy="108.658718" rx="25.000000" ry="1.299429" fill="rgb(0, 0, 128)" style="fill-opacity:1.00" />
<ellipse cx="415.000000" cy="108.658718" rx="16.666667" ry="0.866286" fill="rgb(255, 255, 255)" style="fill-opacity:1.00" />
<rect height="1.299429" width="25.000000" x="415.000000" y="108.009003" fill="rgb(255, 255, 255)" style="fill-opacity:1.00" />
<!-- End 'C' -->
<!-- Begin 'T' -->
<rect height="0.004249" width="50.000000" x="390.000000" y="109.958146" fill="rgb(0, 100, 0)" style="fill-opacity:1.00" />
<rect height="0.026557" width="10.000000" x="410.000000" y="109.958146" fill="rgb(0, 100, 0)" style="fill-opacity:1.00" />
<!-- End 'T' -->
<!-- Begin 'G' -->
<ellipse cx="415.000000" cy="109.992352" rx="25.000000" ry="0.007648" fill="rgb(255, 165, 0)" style="fill-opacity:1.00" />
<ellipse cx="415.000000" cy="109.992352" rx="16.666667" ry="0.005099" fill="rgb(255, 255, 255)" style="fill-opacity:1.00" />
<rect height="0.007648" width="25.000000" x="415.000000" y="109.988528" fill="rgb(255, 255, 255)" style="fill-opacity:1.00" />
<rect height="0.001912" width="25.000000" x="415.000000" y="109.994264" fill="rgb(255, 165, 0)" style="fill-opacity:1.00" />
<rect height="0.005736" width="6.250000" x="433.750000" y="109.994264" fill="rgb(255, 165, 0)" style="fill-opacity:1.00" />
<!-- End 'G' -->
<!-- Begin 'C' -->
<ellipse cx="475.000000" cy="60.245463" rx="25.000000" ry="49.666583" fill="rgb(0, 0, 128)" style="fill-opacity:1.00" />
<ellipse cx="475.000000" cy="60.245463" rx="16.666667" ry="33.111055" fill="rgb(255, 255, 255)" style="fill-opacity:1.00" />
<rect height="49.666583" width="25.000000" x="475.000000" y="35.412172" fill="rgb(255, 255, 255)" style="fill-opacity:1.00" />
<!-- End 'C' -->
<!-- Begin 'G' -->
<ellipse cx="475.000000" cy="109.933758" rx="25.000000" ry="0.021712" fill="rgb(255, 165, 0)" style="fill-opacity:1.00" />
<ellipse cx="475.000000" cy="109.933758" rx="16.666667" ry="0.014474" fill="rgb(255, 255, 255)" style="fill-opacity:1.00" />
<rect height="0.021712" width="25.000000" x="475.000000" y="109.922902" fill="rgb(255, 255, 255)" style="fill-opacity:1.00" />
<rect height="0.005428" width="25.000000" x="475.000000" y="109.939186" fill="rgb(255, 165, 0)" style="fill-opacity:1.00" />
<rect height="0.016284" width="6.250000" x="493.750000" y="109.939186" fill="rgb(255, 165, 0)" style="fill-opacity:1.00" />
<!-- End 'G' -->
<!-- Begin 'A' -->
<polygon points=" 450.000000, 109.979985, 471.000000, 109.955469, 479.000000, 109.955469, 500.000000, 109.979985, 492.500000, 109.979985, 486.250000, 109.973856, 463.750000, 109.973856, 457.500000, 109.979985" fill="rgb(178, 34, 34)" style="fill-opacity:1.00" />
<!-- End 'A' -->
<!-- Begin 'T' -->
<rect height="0.003202" width="50.000000" x="450.000000" y="109.979985" fill="rgb(0, 100, 0)" style="fill-opacity:1.00" />
<rect height="0.020015" width="10.000000" x="470.000000" y="109.979985" fill="rgb(0, 100, 0)" style="fill-opacity:1.00" />
<!-- End 'T' -->
<!-- Begin 'G' -->
<ellipse cx="535.000000" cy="102.472191" rx="25.000000" ry="1.792441" fill="rgb(255, 165, 0)" style="fill-opacity:1.00" />
<ellipse cx="535.000000" cy="102.472191" rx="16.666667" ry="1.194961" fill="rgb(255, 255, 255)" style="fill-opacity:1.00" />
<rect height="1.792441" width="25.000000" x="535.000000" y="101.575970" fill="rgb(255, 255, 255)" style="fill-opacity:1.00" />
<rect height="0.448110" width="25.000000" x="535.000000" y="102.920301" fill="rgb(255, 165, 0)" style="fill-opacity:1.00" />
<rect height="1.344331" width="6.250000" x="553.750000" y="102.920301" fill="rgb(255, 165, 0)" style="fill-opacity:1.00" />
<!-- End 'G' -->
<!-- Begin 'A' -->
<polygon points=" 510.000000, 107.342181, 531.000000, 104.264632, 539.000000, 104.264632, 560.000000, 107.342181, 552.500000, 107.342181, 546.250000, 106.572794, 523.750000, 106.572794, 517.500000, 107.342181" fill="rgb(178, 34, 34)" style="fill-opacity:1.00" />
<!-- End 'A' -->
<!-- Begin 'T' -->
<rect height="0.311052" width="50.000000" x="510.000000" y="107.342181" fill="rgb(0, 100, 0)" style="fill-opacity:1.00" />
<rect height="1.944077" width="10.000000" x="530.000000" y="107.342181" fill="rgb(0, 100, 0)" style="fill-opacity:1.00" />
<!-- End 'T' -->
<!-- Begin 'C' -->
<ellipse cx="535.000000" cy="109.643129" rx="25.000000" ry="0.356871" fill="rgb(0, 0, 128)" style="fill-opacity:1.00" />
<ellipse cx="535.000000" cy="109.643129" rx="16.666667" ry="0.237914" fill="rgb(255, 255, 255)" style="fill-opacity:1.00" />
<rect height="0.356871" width="25.000000" x="535.000000" y="109.464694" fill="rgb(255, 255, 255)" style="fill-opacity:1.00" />
<!-- End 'C' -->
<!-- Begin 'G' -->
<ellipse cx="595.000000" cy="105.083023" rx="25.000000" ry="1.040411" fill="rgb(255, 165, 0)" style="fill-opacity:1.00" />
<ellipse cx="595.000000" cy="105.083023" rx="16.666667" ry="0.693607" fill="rgb(255, 255, 255)" style="fill-opacity:1.00" />
<rect height="1.040411" width="25.000000" x="595.000000" y="104.562818" fill="rgb(255, 255, 255)" style="fill-opacity:1.00" />
<rect height="0.260103" width="25.000000" x="595.000000" y="105.343126" fill="rgb(255, 165, 0)" style="fill-opacity:1.00" />
<rect height="0.780308" width="6.250000" x="613.750000" y="105.343126" fill="rgb(255, 165, 0)" style="fill-opacity:1.00" />
<!-- End 'G' -->
<!-- Begin 'A' -->
<polygon points=" 570.000000, 107.847313, 591.000000, 106.123434, 599.000000, 106.123434, 620.000000, 107.847313, 612.500000, 107.847313, 606.250000, 107.416343, 583.750000, 107.416343, 577.500000, 107.847313" fill="rgb(178, 34, 34)" style="fill-opacity:1.00" />
<!-- End 'A' -->
<!-- Begin 'T' -->
<rect height="0.252486" width="50.000000" x="570.000000" y="107.847313" fill="rgb(0, 100, 0)" style="fill-opacity:1.00" />
<rect height="1.578039" width="10.000000" x="590.000000" y="107.847313" fill="rgb(0, 100, 0)" style="fill-opacity:1.00" />
<!-- End 'T' -->
<!-- Begin 'C' -->
<ellipse cx="595.000000" cy="109.712676" rx="25.000000" ry="0.287324" fill="rgb(0, 0, 128)" style="fill-opacity:1.00" />
<ellipse cx="595.000000" cy="109.712676" rx="16.666667" ry="0.191549" fill="rgb(255, 255, 255)" style="fill-opacity:1.00" />
<rect height="0.287324" width="25.000000" x="595.000000" y="109.569014" fill="rgb(255, 255, 255)" style="fill-opacity:1.00" />
<!-- End 'C' -->
<!-- Begin 'A' -->
<polygon points=" 630.000000, 104.289001, 651.000000, 100.627979, 659.000000, 100.627979, 680.000000, 104.289001, 672.500000, 104.289001, 666.250000, 103.373745, 643.750000, 103.373745, 637.500000, 104.289001" fill="rgb(178, 34, 34)" style="fill-opacity:1.00" />
<!-- End 'A' -->
<!-- Begin 'T' -->
<rect height="0.533280" width="50.000000" x="630.000000" y="104.289001" fill="rgb(0, 100, 0)" style="fill-opacity:1.00" />
<rect height="3.332999" width="10.000000" x="650.000000" y="104.289001" fill="rgb(0, 100, 0)" style="fill-opacity:1.00" />
<!-- End 'T' -->
<!-- Begin 'C' -->
<ellipse cx="655.000000" cy="108.297387" rx="25.000000" ry="0.675387" fill="rgb(0, 0, 128)" style="fill-opacity:1.00" />
<ellipse cx="655.000000" cy="108.297387" rx="16.666667" ry="0.450258" fill="rgb(255, 255, 255)" style="fill-opacity:1.00" />
<rect height="0.675387" width="25.000000" x="655.000000" y="107.959693" fill="rgb(255, 255, 255)" style="fill-opacity:1.00" />
<!-- End 'C' -->
<!-- Begin 'G' -->
<ellipse cx="655.000000" cy="109.486387" rx="25.000000" ry="0.513613" fill="rgb(255, 165, 0)" style="fill-opacity:1.00" />
<ellipse cx="655.000000" cy="109.486387" rx="16.666667" ry="0.342409" fill="rgb(255, 255, 255)" style="fill-opacity:1.00" />
<rect height="0.513613" width="25.000000" x="655.000000" y="109.229580" fill="rgb(255, 255, 255)" style="fill-opacity:1.00" />
<rect height="0.128403" width="25.000000" x="655.000000" y="109.614790" fill="rgb(255, 165, 0)" style="fill-opacity:1.00" />
<rect height="0.385210" width="6.250000" x="673.750000" y="109.614790" fill="rgb(255, 165, 0)" style="fill-opacity:1.00" />
<!-- End 'G' -->
<!-- Begin 'T' -->
<rect height="0.318711" width="50.000000" x="690.000000" y="104.864942" fill="rgb(0, 100, 0)" style="fill-opacity:1.00" />
<rect height="1.991943" width="10.000000" x="710.000000" y="104.864942" fill="rgb(0, 100, 0)" style="fill-opacity:1.00" />
<!-- End 'T' -->
<!-- Begin 'A' -->
<polygon points=" 690.000000, 108.272998, 711.000000, 106.856885, 719.000000, 106.856885, 740.000000, 108.272998, 732.500000, 108.272998, 726.250000, 107.918970, 703.750000, 107.918970, 697.500000, 108.272998" fill="rgb(178, 34, 34)" style="fill-opacity:1.00" />
<!-- End 'A' -->
<!-- Begin 'C' -->
<ellipse cx="715.000000" cy="108.793042" rx="25.000000" ry="0.520044" fill="rgb(0, 0, 128)" style="fill-opacity:1.00" />
<ellipse cx="715.000000" cy="108.793042" rx="16.666667" ry="0.346696" fill="rgb(255, 255, 255)" style="fill-opacity:1.00" />
<rect height="0.520044" width="25.000000" x="715.000000" y="108.533020" fill="rgb(255, 255, 255)" style="fill-opacity:1.00" />
<!-- End 'C' -->
<!-- Begin 'G' -->
<ellipse cx="715.000000" cy="109.656543" rx="25.000000" ry="0.343457" fill="rgb(255, 165, 0)" style="fill-opacity:1.00" />
<ellipse cx="715.000000" cy="109.656543" rx="16.666667" ry="0.228971" fill="rgb(255, 255, 255)" style="fill-opacity:1.00" />
<rect height="0.343457" width="25.000000" x="715.000000" y="109.484815" fill="rgb(255, 255, 255)" style="fill-opacity:1.00" />
<rect height="0.085864" width="25.000000" x="715.000000" y="109.742408" fill="rgb(255, 165, 0)" style="fill-opacity:1.00" />
<rect height="0.257592" width="6.250000" x="733.750000" y="109.742408" fill="rgb(255, 165, 0)" style="fill-opacity:1.00" />
<!-- End 'G' -->
<text x="400.000000" y="165">
IC = 8.69
</text>

</svg>
