<?xml version="1.0" encoding="UTF-8" standalone="yes"?>
                 <!DOCTYPE svg PUBLIC "-//W3C//DTD SVG 1.0//EN" "http://www.w3.org/TR/2001/REC-SVG-20010904/DTD/svg10.dtd">
                 <svg height="170" width="780" xmlns="http://www.w3.org/2000/svg" xmlns:xlink="http://www.w3.org/1999/xlink">
                 <line x1="85" y1="120" x2="747" y2="120" style="stroke:rgb(99,99,99);stroke-width:2" />
<rect height="7.000000" width="2.000000" x="85.000000" y="120.000000" fill="rgb(0, 0, 0)" style="fill-opacity:1.00" />
<text x="107.000000" y="140">
1
</text>
<rect height="7.000000" width="2.000000" x="145.000000" y="120.000000" fill="rgb(0, 0, 0)" style="fill-opacity:1.00" />
<text x="167.000000" y="140">
2
</text>
<rect height="7.000000" width="2.000000" x="205.000000" y="120.000000" fill="rgb(0, 0, 0)" style="fill-opacity:1.00" />
<text x="227.000000" y="140">
3
</text>
<rect height="7.000000" width="2.000000" x="265.000000" y="120.000000" fill="rgb(0, 0, 0)" style="fill-opacity:1.00" />
<text x="287.000000" y="140">
4
</text>
<rect height="7.000000" width="2.000000" x="325.000000" y="120.000000" fill="rgb(0, 0, 0)" style="fill-opacity:1.00" />
<text x="347.000000" y="140">
5
</text>
<rect height="7.000000" width="2.000000" x="385.000000" y="120.000000" fill="rgb(0, 0, 0)" style="fill-opacity:1.00" />
<text x="407.000000" y="140">
6
</text>
<rect height="7.000000" width="2.000000" x="445.000000" y="120.000000" fill="rgb(0, 0, 0)" style="fill-opacity:1.00" />
<text x="467.000000" y="140">
7
</text>
<rect height="7.000000" width="2.000000" x="505.000000" y="120.000000" fill="rgb(0, 0, 0)" style="fill-opacity:1.00" />
<text x="527.000000" y="140">
8
</text>
<rect height="7.000000" width="2.000000" x="565.000000" y="120.000000" fill="rgb(0, 0, 0)" style="fill-opacity:1.00" />
<text x="587.000000" y="140">
9
</text>
<rect height="7.000000" width="2.000000" x="625.000000" y="120.000000" fill="rgb(0, 0, 0)" style="fill-opacity:1.00" />
<text x="647.000000" y="140">
10
</text>
<rect height="7.000000" width="2.000000" x="685.000000" y="120.000000" fill="rgb(0, 0, 0)" style="fill-opacity:1.00" />
<text x="707.000000" y="140">
11
</text>
<rect height="7.000000" width="2.000000" x="745.000000" y="120.000000" fill="rgb(0, 0, 0)" style="fill-opacity:1.00" />
<line x1="80" y1="112" x2="80" y2="10" style="stroke:rgb(99,99,99);stroke-width:2" />
<rect height="2.000000" width="7.000000" x="73.000000" y="110.000000" fill="rgb(0, 0, 0)" style="fill-opacity:1.00" />
<text x="63" y="115">
0
</text>
<rect height="2.000000" width="7.000000" x="73.000000" y="60.000000" fill="rgb(0, 0, 0)" style="fill-opacity:1.00" />
<text x="63" y="65">
1
</text>
<rect height="2.000000" width="7.000000" x="73.000000" y="10.000000" fill="rgb(0, 0, 0)" style="fill-opacity:1.00" />
<text x="63" y="15">
2
</text>
<text x="50" y="65"
transform="rotate(-90, 50, 70)">
bits
</text>
<!-- Begin 'G' -->
<ellipse cx="115.000000" cy="108.644063" rx="25.000000" ry="0.258461" fill="rgb(255, 165, 0)" style="fill-opacity:1.00" />
<ellipse cx="115.000000" cy="108.644063" rx="16.666667" ry="0.172308" fill="rgb(255, 255, 255)" style="fill-opacity:1.00" />
<rect height="0.258461" width="25.000000" x="115.000000" y="108.514832" fill="rgb(255, 255, 255)" style="fill-opacity:1.00" />
<rect height="0.064615" width="25.000000" x="115.000000" y="108.708678" fill="rgb(255, 165, 0)" style="fill-opacity:1.00" />
<rect height="0.193846" width="6.250000" x="133.750000" y="108.708678" fill="rgb(255, 165, 0)" style="fill-opacity:1.00" />
<!-- End 'G' -->
<!-- Begin 'C' -->
<ellipse cx="115.000000" cy="109.126176" rx="25.000000" ry="0.223652" fill="rgb(0, 0, 128)" style="fill-opacity:1.00" />
<ellipse cx="115.000000" cy="109.126176" rx="16.666667" ry="0.149101" fill="rgb(255, 255, 255)" style="fill-opacity:1.00" />
<rect height="0.223652" width="25.000000" x="115.000000" y="109.014350" fill="rgb(255, 255, 255)" style="fill-opacity:1.00" />
<!-- End 'C' -->
<!-- Begin 'T' -->
<rect height="0.056900" width="50.000000" x="90.000000" y="109.349827" fill="rgb(0, 100, 0)" style="fill-opacity:1.00" />
<rect height="0.355624" width="10.000000" x="110.000000" y="109.349827" fill="rgb(0, 100, 0)" style="fill-opacity:1.00" />
<!-- End 'T' -->
<!-- Begin 'A' -->
<polygon points=" 90.000000, 110.000000, 111.000000, 109.705451, 119.000000, 109.705451, 140.000000, 110.000000, 132.500000, 110.000000, 126.250000, 109.926363, 103.750000, 109.926363, 97.500000, 110.000000" fill="rgb(178, 34, 34)" style="fill-opacity:1.00" />
<!-- End 'A' -->
<!-- Begin 'C' -->
<ellipse cx="175.000000" cy="101.801358" rx="25.000000" ry="2.580895" fill="rgb(0, 0, 128)" style="fill-opacity:1.00" />
<ellipse cx="175.000000" cy="101.801358" rx="16.666667" ry="1.720597" fill="rgb(255, 255, 255)" style="fill-opacity:1.00" />
<rect height="2.580895" width="25.000000" x="175.000000" y="100.510911" fill="rgb(255, 255, 255)" style="fill-opacity:1.00" />
<!-- End 'C' -->
<!-- Begin 'T' -->
<rect height="0.434088" width="50.000000" x="150.000000" y="104.382253" fill="rgb(0, 100, 0)" style="fill-opacity:1.00" />
<rect height="2.713047" width="10.000000" x="170.000000" y="104.382253" fill="rgb(0, 100, 0)" style="fill-opacity:1.00" />
<!-- End 'T' -->
<!-- Begin 'G' -->
<ellipse cx="175.000000" cy="107.931454" rx="25.000000" ry="0.836153" fill="rgb(255, 165, 0)" style="fill-opacity:1.00" />
<ellipse cx="175.000000" cy="107.931454" rx="16.666667" ry="0.557436" fill="rgb(255, 255, 255)" style="fill-opacity:1.00" />
<rect height="0.836153" width="25.000000" x="175.000000" y="107.513377" fill="rgb(255, 255, 255)" style="fill-opacity:1.00" />
<rect height="0.209038" width="25.000000" x="175.000000" y="108.140492" fill="rgb(255, 165, 0)" style="fill-opacity:1.00" />
<rect height="0.627115" width="6.250000" x="193.750000" y="108.140492" fill="rgb(255, 165, 0)" style="fill-opacity:1.00" />
<!-- End 'G' -->
<!-- Begin 'A' -->
<polygon points=" 150.000000, 110.000000, 171.000000, 108.767607, 179.000000, 108.767607, 200.000000, 110.000000, 192.500000, 110.000000, 186.250000, 109.691902, 163.750000, 109.691902, 157.500000, 110.000000" fill="rgb(178, 34, 34)" style="fill-opacity:1.00" />
<!-- End 'A' -->
<!-- Begin 'C' -->
<ellipse cx="235.000000" cy="95.878945" rx="25.000000" ry="4.842164" fill="rgb(0, 0, 128)" style="fill-opacity:1.00" />
<ellipse cx="235.000000" cy="95.878945" rx="16.666667" ry="3.228109" fill="rgb(255, 255, 255)" style="fill-opacity:1.00" />
<rect height="4.842164" width="25.000000" x="235.000000" y="93.457863" fill="rgb(255, 255, 255)" style="fill-opacity:1.00" />
<!-- End 'C' -->
<!-- Begin 'A' -->
<polygon points=" 210.000000, 105.830125, 231.000000, 100.721109, 239.000000, 100.721109, 260.000000, 105.830125, 252.500000, 105.830125, 246.250000, 104.552871, 223.750000, 104.552871, 217.500000, 105.830125" fill="rgb(178, 34, 34)" style="fill-opacity:1.00" />
<!-- End 'A' -->
<!-- Begin 'G' -->
<ellipse cx="235.000000" cy="107.597454" rx="25.000000" ry="1.767329" fill="rgb(255, 165, 0)" style="fill-opacity:1.00" />
<ellipse cx="235.000000" cy="107.597454" rx="16.666667" ry="1.178220" fill="rgb(255, 255, 255)" style="fill-opacity:1.00" />
<rect height="1.767329" width="25.000000" x="235.000000" y="106.713789" fill="rgb(255, 255, 255)" style="fill-opacity:1.00" />
<rect height="0.441832" width="25.000000" x="235.000000" y="108.039287" fill="rgb(255, 165, 0)" style="fill-opacity:1.00" />
<rect height="1.325497" width="6.250000" x="253.750000" y="108.039287" fill="rgb(255, 165, 0)" style="fill-opacity:1.00" />
<!-- End 'G' -->
<!-- Begin 'T' -->
<rect height="0.101635" width="50.000000" x="210.000000" y="109.364784" fill="rgb(0, 100, 0)" style="fill-opacity:1.00" />
<rect height="0.635216" width="10.000000" x="230.000000" y="109.364784" fill="rgb(0, 100, 0)" style="fill-opacity:1.00" />
<!-- End 'T' -->
<!-- Begin 'A' -->
<polygon points=" 270.000000, 99.064924, 291.000000, 66.287183, 299.000000, 66.287183, 320.000000, 99.064924, 312.500000, 99.064924, 306.250000, 90.870489, 283.750000, 90.870489, 277.500000, 99.064924" fill="rgb(178, 34, 34)" style="fill-opacity:1.00" />
<polygon points=" 295.000000, 72.842731, 287.000000, 84.953828, 302.000000, 84.953828" fill="rgb(255, 255, 255)" style="fill-opacity:1.00" />
<!-- End 'A' -->
<!-- Begin 'G' -->
<ellipse cx="295.000000" cy="102.521125" rx="25.000000" ry="3.456201" fill="rgb(255, 165, 0)" style="fill-opacity:1.00" />
<ellipse cx="295.000000" cy="102.521125" rx="16.666667" ry="2.304134" fill="rgb(255, 255, 255)" style="fill-opacity:1.00" />
<rect height="3.456201" width="25.000000" x="295.000000" y="100.793025" fill="rgb(255, 255, 255)" style="fill-opacity:1.00" />
<rect height="0.864050" width="25.000000" x="295.000000" y="103.385175" fill="rgb(255, 165, 0)" style="fill-opacity:1.00" />
<rect height="2.592151" width="6.250000" x="313.750000" y="103.385175" fill="rgb(255, 165, 0)" style="fill-opacity:1.00" />
<!-- End 'G' -->
<!-- Begin 'C' -->
<ellipse cx="295.000000" cy="107.454994" rx="25.000000" ry="1.477668" fill="rgb(0, 0, 128)" style="fill-opacity:1.00" />
<ellipse cx="295.000000" cy="107.454994" rx="16.666667" ry="0.985112" fill="rgb(255, 255, 255)" style="fill-opacity:1.00" />
<rect height="1.477668" width="25.000000" x="295.000000" y="106.716160" fill="rgb(255, 255, 255)" style="fill-opacity:1.00" />
<!-- End 'C' -->
<!-- Begin 'T' -->
<rect height="0.170774" width="50.000000" x="270.000000" y="108.932661" fill="rgb(0, 100, 0)" style="fill-opacity:1.00" />
<rect height="1.067339" width="10.000000" x="290.000000" y="108.932661" fill="rgb(0, 100, 0)" style="fill-opacity:1.00" />
<!-- End 'T' -->
<!-- Begin 'A' -->
<polygon points=" 330.000000, 103.663214, 351.000000, 30.389938, 359.000000, 30.389938, 380.000000, 103.663214, 372.500000, 103.663214, 366.250000, 85.344895, 343.750000, 85.344895, 337.500000, 103.663214" fill="rgb(178, 34, 34)" style="fill-opacity:1.00" />
<polygon points=" 355.000000, 45.044593, 347.000000, 73.353903, 362.000000, 73.353903" fill="rgb(255, 255, 255)" style="fill-opacity:1.00" />
<!-- End 'A' -->
<!-- Begin 'G' -->
<ellipse cx="355.000000" cy="106.799336" rx="25.000000" ry="3.136122" fill="rgb(255, 165, 0)" style="fill-opacity:1.00" />
<ellipse cx="355.000000" cy="106.799336" rx="16.666667" ry="2.090748" fill="rgb(255, 255, 255)" style="fill-opacity:1.00" />
<rect height="3.136122" width="25.000000" x="355.000000" y="105.231275" fill="rgb(255, 255, 255)" style="fill-opacity:1.00" />
<rect height="0.784031" width="25.000000" x="355.000000" y="107.583367" fill="rgb(255, 165, 0)" style="fill-opacity:1.00" />
<rect height="2.352092" width="6.250000" x="373.750000" y="107.583367" fill="rgb(255, 165, 0)" style="fill-opacity:1.00" />
<!-- End 'G' -->
<!-- Begin 'C' -->
<ellipse cx="355.000000" cy="109.962639" rx="25.000000" ry="0.027180" fill="rgb(0, 0, 128)" style="fill-opacity:1.00" />
<ellipse cx="355.000000" cy="109.962639" rx="16.666667" ry="0.018120" fill="rgb(255, 255, 255)" style="fill-opacity:1.00" />
<rect height="0.027180" width="25.000000" x="355.000000" y="109.949049" fill="rgb(255, 255, 255)" style="fill-opacity:1.00" />
<!-- End 'C' -->
<!-- Begin 'T' -->
<rect height="0.001629" width="50.000000" x="330.000000" y="109.989819" fill="rgb(0, 100, 0)" style="fill-opacity:1.00" />
<rect height="0.010181" width="10.000000" x="350.000000" y="109.989819" fill="rgb(0, 100, 0)" style="fill-opacity:1.00" />
<!-- End 'T' -->
<!-- Begin 'G' -->
<ellipse cx="415.000000" cy="69.178255" rx="25.000000" ry="34.754022" fill="rgb(255, 165, 0)" style="fill-opacity:1.00" />
<ellipse cx="415.000000" cy="69.178255" rx="16.666667" ry="23.169348" fill="rgb(255, 255, 255)" style="fill-opacity:1.00" />
<rect height="34.754022" width="25.000000" x="415.000000" y="51.801244" fill="rgb(255, 255, 255)" style="fill-opacity:1.00" />
<rect height="8.688506" width="25.000000" x="415.000000" y="77.866761" fill="rgb(255, 165, 0)" style="fill-opacity:1.00" />
<rect height="26.065517" width="6.250000" x="433.750000" y="77.866761" fill="rgb(255, 165, 0)" style="fill-opacity:1.00" />
<!-- End 'G' -->
<!-- Begin 'A' -->
<polygon points=" 390.000000, 107.110255, 411.000000, 103.932278, 419.000000, 103.932278, 440.000000, 107.110255, 432.500000, 107.110255, 426.250000, 106.315761, 403.750000, 106.315761, 397.500000, 107.110255" fill="rgb(178, 34, 34)" style="fill-opacity:1.00" />
<!-- End 'A' -->
<!-- Begin 'T' -->
<rect height="0.453684" width="50.000000" x="390.000000" y="107.110255" fill="rgb(0, 100, 0)" style="fill-opacity:1.00" />
<rect height="2.835524" width="10.000000" x="410.000000" y="107.110255" fill="rgb(0, 100, 0)" style="fill-opacity:1.00" />
<!-- End 'T' -->
<!-- Begin 'C' -->
<ellipse cx="415.000000" cy="109.972889" rx="25.000000" ry="0.027111" fill="rgb(0, 0, 128)" style="fill-opacity:1.00" />
<ellipse cx="415.000000" cy="109.972889" rx="16.666667" ry="0.018074" fill="rgb(255, 255, 255)" style="fill-opacity:1.00" />
<rect height="0.027111" width="25.000000" x="415.000000" y="109.959334" fill="rgb(255, 255, 255)" style="fill-opacity:1.00" />
<!-- End 'C' -->
<!-- Begin 'G' -->
<ellipse cx="475.000000" cy="62.699985" rx="25.000000" ry="45.360556" fill="rgb(255, 165, 0)" style="fill-opacity:1.00" />
<ellipse cx="475.000000" cy="62.699985" rx="16.666667" ry="30.240371" fill="rgb(255, 255, 255)" style="fill-opacity:1.00" />
<rect height="45.360556" width="25.000000" x="475.000000" y="40.019707" fill="rgb(255, 255, 255)" style="fill-opacity:1.00" />
<rect height="11.340139" width="25.000000" x="475.000000" y="74.040124" fill="rgb(255, 165, 0)" style="fill-opacity:1.00" />
<rect height="34.020417" width="6.250000" x="493.750000" y="74.040124" fill="rgb(255, 165, 0)" style="fill-opacity:1.00" />
<!-- End 'G' -->
<!-- Begin 'T' -->
<rect height="0.310127" width="50.000000" x="450.000000" y="108.060541" fill="rgb(0, 100, 0)" style="fill-opacity:1.00" />
<rect height="1.938293" width="10.000000" x="470.000000" y="108.060541" fill="rgb(0, 100, 0)" style="fill-opacity:1.00" />
<!-- End 'T' -->
<!-- Begin 'C' -->
<ellipse cx="475.000000" cy="109.999415" rx="25.000000" ry="0.000581" fill="rgb(0, 0, 128)" style="fill-opacity:1.00" />
<ellipse cx="475.000000" cy="109.999415" rx="16.666667" ry="0.000388" fill="rgb(255, 255, 255)" style="fill-opacity:1.00" />
<rect height="0.000581" width="25.000000" x="475.000000" y="109.999124" fill="rgb(255, 255, 255)" style="fill-opacity:1.00" />
<!-- End 'C' -->
<!-- Begin 'A' -->
<polygon points=" 450.000000, 110.000000, 471.000000, 109.999996, 479.000000, 109.999996, 500.000000, 110.000000, 492.500000, 110.000000, 486.250000, 109.999999, 463.750000, 109.999999, 457.500000, 110.000000" fill="rgb(178, 34, 34)" style="fill-opacity:1.00" />
<!-- End 'A' -->
<!-- Begin 'T' -->
<rect height="3.927766" width="50.000000" x="510.000000" y="75.244461" fill="rgb(0, 100, 0)" style="fill-opacity:1.00" />
<rect height="24.548536" width="10.000000" x="530.000000" y="75.244461" fill="rgb(0, 100, 0)" style="fill-opacity:1.00" />
<!-- End 'T' -->
<!-- Begin 'G' -->
<ellipse cx="535.000000" cy="102.242487" rx="25.000000" ry="2.449490" fill="rgb(255, 165, 0)" style="fill-opacity:1.00" />
<ellipse cx="535.000000" cy="102.242487" rx="16.666667" ry="1.632993" fill="rgb(255, 255, 255)" style="fill-opacity:1.00" />
<rect height="2.449490" width="25.000000" x="535.000000" y="101.017742" fill="rgb(255, 255, 255)" style="fill-opacity:1.00" />
<rect height="0.612373" width="25.000000" x="535.000000" y="102.854859" fill="rgb(255, 165, 0)" style="fill-opacity:1.00" />
<rect height="1.837118" width="6.250000" x="553.750000" y="102.854859" fill="rgb(255, 165, 0)" style="fill-opacity:1.00" />
<!-- End 'G' -->
<!-- Begin 'A' -->
<polygon points=" 510.000000, 108.301403, 531.000000, 104.691977, 539.000000, 104.691977, 560.000000, 108.301403, 552.500000, 108.301403, 546.250000, 107.399047, 523.750000, 107.399047, 517.500000, 108.301403" fill="rgb(178, 34, 34)" style="fill-opacity:1.00" />
<!-- End 'A' -->
<!-- Begin 'C' -->
<ellipse cx="535.000000" cy="109.150702" rx="25.000000" ry="0.849298" fill="rgb(0, 0, 128)" style="fill-opacity:1.00" />
<ellipse cx="535.000000" cy="109.150702" rx="16.666667" ry="0.566199" fill="rgb(255, 255, 255)" style="fill-opacity:1.00" />
<rect height="0.849298" width="25.000000" x="535.000000" y="108.726052" fill="rgb(255, 255, 255)" style="fill-opacity:1.00" />
<!-- End 'C' -->
<!-- Begin 'C' -->
<ellipse cx="595.000000" cy="73.490295" rx="25.000000" ry="27.777876" fill="rgb(0, 0, 128)" style="fill-opacity:1.00" />
<ellipse cx="595.000000" cy="73.490295" rx="16.666667" ry="18.518584" fill="rgb(255, 255, 255)" style="fill-opacity:1.00" />
<rect height="27.777876" width="25.000000" x="595.000000" y="59.601357" fill="rgb(255, 255, 255)" style="fill-opacity:1.00" />
<!-- End 'C' -->
<!-- Begin 'G' -->
<ellipse cx="595.000000" cy="103.486857" rx="25.000000" ry="2.218686" fill="rgb(255, 165, 0)" style="fill-opacity:1.00" />
<ellipse cx="595.000000" cy="103.486857" rx="16.666667" ry="1.479124" fill="rgb(255, 255, 255)" style="fill-opacity:1.00" />
<rect height="2.218686" width="25.000000" x="595.000000" y="102.377514" fill="rgb(255, 255, 255)" style="fill-opacity:1.00" />
<rect height="0.554672" width="25.000000" x="595.000000" y="104.041529" fill="rgb(255, 165, 0)" style="fill-opacity:1.00" />
<rect height="1.664015" width="6.250000" x="613.750000" y="104.041529" fill="rgb(255, 165, 0)" style="fill-opacity:1.00" />
<!-- End 'G' -->
<!-- Begin 'T' -->
<rect height="0.680466" width="50.000000" x="570.000000" y="105.705544" fill="rgb(0, 100, 0)" style="fill-opacity:1.00" />
<rect height="4.252915" width="10.000000" x="590.000000" y="105.705544" fill="rgb(0, 100, 0)" style="fill-opacity:1.00" />
<!-- End 'T' -->
<!-- Begin 'A' -->
<polygon points=" 570.000000, 110.000000, 591.000000, 109.958458, 599.000000, 109.958458, 620.000000, 110.000000, 612.500000, 110.000000, 606.250000, 109.989615, 583.750000, 109.989615, 577.500000, 110.000000" fill="rgb(178, 34, 34)" style="fill-opacity:1.00" />
<!-- End 'A' -->
<!-- Begin 'A' -->
<polygon points=" 630.000000, 101.100069, 651.000000, 49.571418, 659.000000, 49.571418, 680.000000, 101.100069, 672.500000, 101.100069, 666.250000, 88.217906, 643.750000, 88.217906, 637.500000, 101.100069" fill="rgb(178, 34, 34)" style="fill-opacity:1.00" />
<polygon points=" 655.000000, 59.877148, 647.000000, 79.488609, 662.000000, 79.488609" fill="rgb(255, 255, 255)" style="fill-opacity:1.00" />
<!-- End 'A' -->
<!-- Begin 'C' -->
<ellipse cx="655.000000" cy="103.609260" rx="25.000000" ry="2.509190" fill="rgb(0, 0, 128)" style="fill-opacity:1.00" />
<ellipse cx="655.000000" cy="103.609260" rx="16.666667" ry="1.672794" fill="rgb(255, 255, 255)" style="fill-opacity:1.00" />
<rect height="2.509190" width="25.000000" x="655.000000" y="102.354664" fill="rgb(255, 255, 255)" style="fill-opacity:1.00" />
<!-- End 'C' -->
<!-- Begin 'G' -->
<ellipse cx="655.000000" cy="107.720652" rx="25.000000" ry="1.602202" fill="rgb(255, 165, 0)" style="fill-opacity:1.00" />
<ellipse cx="655.000000" cy="107.720652" rx="16.666667" ry="1.068135" fill="rgb(255, 255, 255)" style="fill-opacity:1.00" />
<rect height="1.602202" width="25.000000" x="655.000000" y="106.919551" fill="rgb(255, 255, 255)" style="fill-opacity:1.00" />
<rect height="0.400551" width="25.000000" x="655.000000" y="108.121203" fill="rgb(255, 165, 0)" style="fill-opacity:1.00" />
<rect height="1.201652" width="6.250000" x="673.750000" y="108.121203" fill="rgb(255, 165, 0)" style="fill-opacity:1.00" />
<!-- End 'G' -->
<!-- Begin 'T' -->
<rect height="0.108343" width="50.000000" x="630.000000" y="109.322854" fill="rgb(0, 100, 0)" style="fill-opacity:1.00" />
<rect height="0.677146" width="10.000000" x="650.000000" y="109.322854" fill="rgb(0, 100, 0)" style="fill-opacity:1.00" />
<!-- End 'T' -->
<!-- Begin 'C' -->
<ellipse cx="715.000000" cy="106.683070" rx="25.000000" ry="0.807717" fill="rgb(0, 0, 128)" style="fill-opacity:1.00" />
<ellipse cx="715.000000" cy="106.683070" rx="16.666667" ry="0.538478" fill="rgb(255, 255, 255)" style="fill-opacity:1.00" />
<rect height="0.807717" width="25.000000" x="715.000000" y="106.279212" fill="rgb(255, 255, 255)" style="fill-opacity:1.00" />
<!-- End 'C' -->
<!-- Begin 'G' -->
<ellipse cx="715.000000" cy="107.991666" rx="25.000000" ry="0.500879" fill="rgb(255, 165, 0)" style="fill-opacity:1.00" />
<ellipse cx="715.000000" cy="107.991666" rx="16.666667" ry="0.333919" fill="rgb(255, 255, 255)" style="fill-opacity:1.00" />
<rect height="0.500879" width="25.000000" x="715.000000" y="107.741226" fill="rgb(255, 255, 255)" style="fill-opacity:1.00" />
<rect height="0.125220" width="25.000000" x="715.000000" y="108.116885" fill="rgb(255, 165, 0)" style="fill-opacity:1.00" />
<rect height="0.375659" width="6.250000" x="733.750000" y="108.116885" fill="rgb(255, 165, 0)" style="fill-opacity:1.00" />
<!-- End 'G' -->
<!-- Begin 'A' -->
<polygon points=" 690.000000, 109.341575, 711.000000, 108.492545, 719.000000, 108.492545, 740.000000, 109.341575, 732.500000, 109.341575, 726.250000, 109.129317, 703.750000, 109.129317, 697.500000, 109.341575" fill="rgb(178, 34, 34)" style="fill-opacity:1.00" />
<!-- End 'A' -->
<!-- Begin 'T' -->
<rect height="0.105348" width="50.000000" x="690.000000" y="109.341575" fill="rgb(0, 100, 0)" style="fill-opacity:1.00" />
<rect height="0.658425" width="10.000000" x="710.000000" y="109.341575" fill="rgb(0, 100, 0)" style="fill-opacity:1.00" />
<!-- End 'T' -->
<text x="400.000000" y="165">
IC = 9.73
</text>

</svg>
