<?xml version="1.0" encoding="UTF-8" standalone="yes"?>
                 <!DOCTYPE svg PUBLIC "-//W3C//DTD SVG 1.0//EN" "http://www.w3.org/TR/2001/REC-SVG-20010904/DTD/svg10.dtd">
                 <svg height="170" width="1020" xmlns="http://www.w3.org/2000/svg" xmlns:xlink="http://www.w3.org/1999/xlink">
                 <line x1="85" y1="120" x2="987" y2="120" style="stroke:rgb(99,99,99);stroke-width:2" />
<rect height="7.000000" width="2.000000" x="85.000000" y="120.000000" fill="rgb(0, 0, 0)" style="fill-opacity:1.00" />
<text x="107.000000" y="140">
1
</text>
<rect height="7.000000" width="2.000000" x="145.000000" y="120.000000" fill="rgb(0, 0, 0)" style="fill-opacity:1.00" />
<text x="167.000000" y="140">
2
</text>
<rect height="7.000000" width="2.000000" x="205.000000" y="120.000000" fill="rgb(0, 0, 0)" style="fill-opacity:1.00" />
<text x="227.000000" y="140">
3
</text>
<rect height="7.000000" width="2.000000" x="265.000000" y="120.000000" fill="rgb(0, 0, 0)" style="fill-opacity:1.00" />
<text x="287.000000" y="140">
4
</text>
<rect height="7.000000" width="2.000000" x="325.000000" y="120.000000" fill="rgb(0, 0, 0)" style="fill-opacity:1.00" />
<text x="347.000000" y="140">
5
</text>
<rect height="7.000000" width="2.000000" x="385.000000" y="120.000000" fill="rgb(0, 0, 0)" style="fill-opacity:1.00" />
<text x="407.000000" y="140">
6
</text>
<rect height="7.000000" width="2.000000" x="445.000000" y="120.000000" fill="rgb(0, 0, 0)" style="fill-opacity:1.00" />
<text x="467.000000" y="140">
7
</text>
<rect height="7.000000" width="2.000000" x="505.000000" y="120.000000" fill="rgb(0, 0, 0)" style="fill-opacity:1.00" />
<text x="527.000000" y="140">
8
</text>
<rect height="7.000000" width="2.000000" x="565.000000" y="120.000000" fill="rgb(0, 0, 0)" style="fill-opacity:1.00" />
<text x="587.000000" y="140">
9
</text>
<rect height="7.000000" width="2.000000" x="625.000000" y="120.000000" fill="rgb(0, 0, 0)" style="fill-opacity:1.00" />
<text x="647.000000" y="140">
10
</text>
<rect height="7.000000" width="2.000000" x="685.000000" y="120.000000" fill="rgb(0, 0, 0)" style="fill-opacity:1.00" />
<text x="707.000000" y="140">
11
</text>
<rect height="7.000000" width="2.000000" x="745.000000" y="120.000000" fill="rgb(0, 0, 0)" style="fill-opacity:1.00" />
<text x="767.000000" y="140">
12
</text>
<rect height="7.000000" width="2.000000" x="805.000000" y="120.000000" fill="rgb(0, 0, 0)" style="fill-opacity:1.00" />
<text x="827.000000" y="140">
13
</text>
<rect height="7.000000" width="2.000000" x="865.000000" y="120.000000" fill="rgb(0, 0, 0)" style="fill-opacity:1.00" />
<text x="887.000000" y="140">
14
</text>
<rect height="7.000000" width="2.000000" x="925.000000" y="120.000000" fill="rgb(0, 0, 0)" style="fill-opacity:1.00" />
<text x="947.000000" y="140">
15
</text>
<rect height="7.000000" width="2.000000" x="985.000000" y="120.000000" fill="rgb(0, 0, 0)" style="fill-opacity:1.00" />
<line x1="80" y1="112" x2="80" y2="10" style="stroke:rgb(99,99,99);stroke-width:2" />
<rect height="2.000000" width="7.000000" x="73.000000" y="110.000000" fill="rgb(0, 0, 0)" style="fill-opacity:1.00" />
<text x="63" y="115">
0
</text>
<rect height="2.000000" width="7.000000" x="73.000000" y="60.000000" fill="rgb(0, 0, 0)" style="fill-opacity:1.00" />
<text x="63" y="65">
1
</text>
<rect height="2.000000" width="7.000000" x="73.000000" y="10.000000" fill="rgb(0, 0, 0)" style="fill-opacity:1.00" />
<text x="63" y="15">
2
</text>
<text x="50" y="65"
transform="rotate(-90, 50, 70)">
bits
</text>
<!-- Begin 'A' -->
<polygon points=" 90.000000, 107.906307, 111.000000, 106.739121, 119.000000, 106.739121, 140.000000, 107.906307, 132.500000, 107.906307, 126.250000, 107.614510, 103.750000, 107.614510, 97.500000, 107.906307" fill="rgb(178, 34, 34)" style="fill-opacity:1.00" />
<!-- End 'A' -->
<!-- Begin 'C' -->
<ellipse cx="115.000000" cy="108.330849" rx="25.000000" ry="0.424542" fill="rgb(0, 0, 128)" style="fill-opacity:1.00" />
<ellipse cx="115.000000" cy="108.330849" rx="16.666667" ry="0.283028" fill="rgb(255, 255, 255)" style="fill-opacity:1.00" />
<rect height="0.424542" width="25.000000" x="115.000000" y="108.118578" fill="rgb(255, 255, 255)" style="fill-opacity:1.00" />
<!-- End 'C' -->
<!-- Begin 'T' -->
<rect height="0.121355" width="50.000000" x="90.000000" y="108.755391" fill="rgb(0, 100, 0)" style="fill-opacity:1.00" />
<rect height="0.758467" width="10.000000" x="110.000000" y="108.755391" fill="rgb(0, 100, 0)" style="fill-opacity:1.00" />
<!-- End 'T' -->
<!-- Begin 'G' -->
<ellipse cx="115.000000" cy="109.756929" rx="25.000000" ry="0.243071" fill="rgb(255, 165, 0)" style="fill-opacity:1.00" />
<ellipse cx="115.000000" cy="109.756929" rx="16.666667" ry="0.162047" fill="rgb(255, 255, 255)" style="fill-opacity:1.00" />
<rect height="0.243071" width="25.000000" x="115.000000" y="109.635394" fill="rgb(255, 255, 255)" style="fill-opacity:1.00" />
<rect height="0.060768" width="25.000000" x="115.000000" y="109.817697" fill="rgb(255, 165, 0)" style="fill-opacity:1.00" />
<rect height="0.182303" width="6.250000" x="133.750000" y="109.817697" fill="rgb(255, 165, 0)" style="fill-opacity:1.00" />
<!-- End 'G' -->
<!-- Begin 'A' -->
<polygon points=" 150.000000, 109.600047, 171.000000, 109.431148, 179.000000, 109.431148, 200.000000, 109.600047, 192.500000, 109.600047, 186.250000, 109.557822, 163.750000, 109.557822, 157.500000, 109.600047" fill="rgb(178, 34, 34)" style="fill-opacity:1.00" />
<!-- End 'A' -->
<!-- Begin 'C' -->
<ellipse cx="175.000000" cy="109.672670" rx="25.000000" ry="0.072624" fill="rgb(0, 0, 128)" style="fill-opacity:1.00" />
<ellipse cx="175.000000" cy="109.672670" rx="16.666667" ry="0.048416" fill="rgb(255, 255, 255)" style="fill-opacity:1.00" />
<rect height="0.072624" width="25.000000" x="175.000000" y="109.636358" fill="rgb(255, 255, 255)" style="fill-opacity:1.00" />
<!-- End 'C' -->
<!-- Begin 'G' -->
<ellipse cx="175.000000" cy="109.812894" rx="25.000000" ry="0.067600" fill="rgb(255, 165, 0)" style="fill-opacity:1.00" />
<ellipse cx="175.000000" cy="109.812894" rx="16.666667" ry="0.045067" fill="rgb(255, 255, 255)" style="fill-opacity:1.00" />
<rect height="0.067600" width="25.000000" x="175.000000" y="109.779094" fill="rgb(255, 255, 255)" style="fill-opacity:1.00" />
<rect height="0.016900" width="25.000000" x="175.000000" y="109.829793" fill="rgb(255, 165, 0)" style="fill-opacity:1.00" />
<rect height="0.050700" width="6.250000" x="193.750000" y="109.829793" fill="rgb(255, 165, 0)" style="fill-opacity:1.00" />
<!-- End 'G' -->
<!-- Begin 'T' -->
<rect height="0.019121" width="50.000000" x="150.000000" y="109.880493" fill="rgb(0, 100, 0)" style="fill-opacity:1.00" />
<rect height="0.119507" width="10.000000" x="170.000000" y="109.880493" fill="rgb(0, 100, 0)" style="fill-opacity:1.00" />
<!-- End 'T' -->
<!-- Begin 'T' -->
<rect height="0.626450" width="50.000000" x="210.000000" y="101.682145" fill="rgb(0, 100, 0)" style="fill-opacity:1.00" />
<rect height="3.915315" width="10.000000" x="230.000000" y="101.682145" fill="rgb(0, 100, 0)" style="fill-opacity:1.00" />
<!-- End 'T' -->
<!-- Begin 'G' -->
<ellipse cx="235.000000" cy="106.420620" rx="25.000000" ry="0.823160" fill="rgb(255, 165, 0)" style="fill-opacity:1.00" />
<ellipse cx="235.000000" cy="106.420620" rx="16.666667" ry="0.548773" fill="rgb(255, 255, 255)" style="fill-opacity:1.00" />
<rect height="0.823160" width="25.000000" x="235.000000" y="106.009040" fill="rgb(255, 255, 255)" style="fill-opacity:1.00" />
<rect height="0.205790" width="25.000000" x="235.000000" y="106.626410" fill="rgb(255, 165, 0)" style="fill-opacity:1.00" />
<rect height="0.617370" width="6.250000" x="253.750000" y="106.626410" fill="rgb(255, 165, 0)" style="fill-opacity:1.00" />
<!-- End 'G' -->
<!-- Begin 'C' -->
<ellipse cx="235.000000" cy="107.933948" rx="25.000000" ry="0.690168" fill="rgb(0, 0, 128)" style="fill-opacity:1.00" />
<ellipse cx="235.000000" cy="107.933948" rx="16.666667" ry="0.460112" fill="rgb(255, 255, 255)" style="fill-opacity:1.00" />
<rect height="0.690168" width="25.000000" x="235.000000" y="107.588864" fill="rgb(255, 255, 255)" style="fill-opacity:1.00" />
<!-- End 'C' -->
<!-- Begin 'A' -->
<polygon points=" 210.000000, 110.000000, 231.000000, 108.624116, 239.000000, 108.624116, 260.000000, 110.000000, 252.500000, 110.000000, 246.250000, 109.656029, 223.750000, 109.656029, 217.500000, 110.000000" fill="rgb(178, 34, 34)" style="fill-opacity:1.00" />
<!-- End 'A' -->
<!-- Begin 'G' -->
<ellipse cx="295.000000" cy="93.375341" rx="25.000000" ry="7.639855" fill="rgb(255, 165, 0)" style="fill-opacity:1.00" />
<ellipse cx="295.000000" cy="93.375341" rx="16.666667" ry="5.093236" fill="rgb(255, 255, 255)" style="fill-opacity:1.00" />
<rect height="7.639855" width="25.000000" x="295.000000" y="89.555414" fill="rgb(255, 255, 255)" style="fill-opacity:1.00" />
<rect height="1.909964" width="25.000000" x="295.000000" y="95.285305" fill="rgb(255, 165, 0)" style="fill-opacity:1.00" />
<rect height="5.729891" width="6.250000" x="313.750000" y="95.285305" fill="rgb(255, 165, 0)" style="fill-opacity:1.00" />
<!-- End 'G' -->
<!-- Begin 'C' -->
<ellipse cx="295.000000" cy="102.921410" rx="25.000000" ry="1.906214" fill="rgb(0, 0, 128)" style="fill-opacity:1.00" />
<ellipse cx="295.000000" cy="102.921410" rx="16.666667" ry="1.270809" fill="rgb(255, 255, 255)" style="fill-opacity:1.00" />
<rect height="1.906214" width="25.000000" x="295.000000" y="101.968303" fill="rgb(255, 255, 255)" style="fill-opacity:1.00" />
<!-- End 'C' -->
<!-- Begin 'A' -->
<polygon points=" 270.000000, 108.174184, 291.000000, 104.827624, 299.000000, 104.827624, 320.000000, 108.174184, 312.500000, 108.174184, 306.250000, 107.337544, 283.750000, 107.337544, 277.500000, 108.174184" fill="rgb(178, 34, 34)" style="fill-opacity:1.00" />
<!-- End 'A' -->
<!-- Begin 'T' -->
<rect height="0.292131" width="50.000000" x="270.000000" y="108.174184" fill="rgb(0, 100, 0)" style="fill-opacity:1.00" />
<rect height="1.825816" width="10.000000" x="290.000000" y="108.174184" fill="rgb(0, 100, 0)" style="fill-opacity:1.00" />
<!-- End 'T' -->
<!-- Begin 'C' -->
<ellipse cx="355.000000" cy="91.334349" rx="25.000000" ry="5.931907" fill="rgb(0, 0, 128)" style="fill-opacity:1.00" />
<ellipse cx="355.000000" cy="91.334349" rx="16.666667" ry="3.954605" fill="rgb(255, 255, 255)" style="fill-opacity:1.00" />
<rect height="5.931907" width="25.000000" x="355.000000" y="88.368395" fill="rgb(255, 255, 255)" style="fill-opacity:1.00" />
<!-- End 'C' -->
<!-- Begin 'A' -->
<polygon points=" 330.000000, 106.263234, 351.000000, 97.266256, 359.000000, 97.266256, 380.000000, 106.263234, 372.500000, 106.263234, 366.250000, 104.013990, 343.750000, 104.013990, 337.500000, 106.263234" fill="rgb(178, 34, 34)" style="fill-opacity:1.00" />
<polygon points=" 355.000000, 99.065652, 347.000000, 101.664443, 362.000000, 101.664443" fill="rgb(255, 255, 255)" style="fill-opacity:1.00" />
<!-- End 'A' -->
<!-- Begin 'G' -->
<ellipse cx="355.000000" cy="107.996346" rx="25.000000" ry="1.733112" fill="rgb(255, 165, 0)" style="fill-opacity:1.00" />
<ellipse cx="355.000000" cy="107.996346" rx="16.666667" ry="1.155408" fill="rgb(255, 255, 255)" style="fill-opacity:1.00" />
<rect height="1.733112" width="25.000000" x="355.000000" y="107.129790" fill="rgb(255, 255, 255)" style="fill-opacity:1.00" />
<rect height="0.433278" width="25.000000" x="355.000000" y="108.429624" fill="rgb(255, 165, 0)" style="fill-opacity:1.00" />
<rect height="1.299834" width="6.250000" x="373.750000" y="108.429624" fill="rgb(255, 165, 0)" style="fill-opacity:1.00" />
<!-- End 'G' -->
<!-- Begin 'T' -->
<rect height="0.043287" width="50.000000" x="330.000000" y="109.729458" fill="rgb(0, 100, 0)" style="fill-opacity:1.00" />
<rect height="0.270542" width="10.000000" x="350.000000" y="109.729458" fill="rgb(0, 100, 0)" style="fill-opacity:1.00" />
<!-- End 'T' -->
<!-- Begin 'T' -->
<rect height="13.260539" width="50.000000" x="390.000000" y="23.785883" fill="rgb(0, 100, 0)" style="fill-opacity:1.00" />
<rect height="82.878367" width="10.000000" x="410.000000" y="23.785883" fill="rgb(0, 100, 0)" style="fill-opacity:1.00" />
<!-- End 'T' -->
<!-- Begin 'C' -->
<ellipse cx="415.000000" cy="107.743053" rx="25.000000" ry="1.078803" fill="rgb(0, 0, 128)" style="fill-opacity:1.00" />
<ellipse cx="415.000000" cy="107.743053" rx="16.666667" ry="0.719202" fill="rgb(255, 255, 255)" style="fill-opacity:1.00" />
<rect height="1.078803" width="25.000000" x="415.000000" y="107.203652" fill="rgb(255, 255, 255)" style="fill-opacity:1.00" />
<!-- End 'C' -->
<!-- Begin 'A' -->
<polygon points=" 390.000000, 109.954793, 411.000000, 108.821856, 419.000000, 108.821856, 440.000000, 109.954793, 432.500000, 109.954793, 426.250000, 109.671559, 403.750000, 109.671559, 397.500000, 109.954793" fill="rgb(178, 34, 34)" style="fill-opacity:1.00" />
<!-- End 'A' -->
<!-- Begin 'G' -->
<ellipse cx="415.000000" cy="109.977396" rx="25.000000" ry="0.022604" fill="rgb(255, 165, 0)" style="fill-opacity:1.00" />
<ellipse cx="415.000000" cy="109.977396" rx="16.666667" ry="0.015069" fill="rgb(255, 255, 255)" style="fill-opacity:1.00" />
<rect height="0.022604" width="25.000000" x="415.000000" y="109.966095" fill="rgb(255, 255, 255)" style="fill-opacity:1.00" />
<rect height="0.005651" width="25.000000" x="415.000000" y="109.983047" fill="rgb(255, 165, 0)" style="fill-opacity:1.00" />
<rect height="0.016953" width="6.250000" x="433.750000" y="109.983047" fill="rgb(255, 165, 0)" style="fill-opacity:1.00" />
<!-- End 'G' -->
<!-- Begin 'G' -->
<ellipse cx="475.000000" cy="67.330945" rx="25.000000" ry="38.004712" fill="rgb(255, 165, 0)" style="fill-opacity:1.00" />
<ellipse cx="475.000000" cy="67.330945" rx="16.666667" ry="25.336475" fill="rgb(255, 255, 255)" style="fill-opacity:1.00" />
<rect height="38.004712" width="25.000000" x="475.000000" y="48.328589" fill="rgb(255, 255, 255)" style="fill-opacity:1.00" />
<rect height="9.501178" width="25.000000" x="475.000000" y="76.832123" fill="rgb(255, 165, 0)" style="fill-opacity:1.00" />
<rect height="28.503534" width="6.250000" x="493.750000" y="76.832123" fill="rgb(255, 165, 0)" style="fill-opacity:1.00" />
<!-- End 'G' -->
<!-- Begin 'T' -->
<rect height="0.465537" width="50.000000" x="450.000000" y="105.335657" fill="rgb(0, 100, 0)" style="fill-opacity:1.00" />
<rect height="2.909606" width="10.000000" x="470.000000" y="105.335657" fill="rgb(0, 100, 0)" style="fill-opacity:1.00" />
<!-- End 'T' -->
<!-- Begin 'A' -->
<polygon points=" 450.000000, 109.758500, 471.000000, 108.245264, 479.000000, 108.245264, 500.000000, 109.758500, 492.500000, 109.758500, 486.250000, 109.380191, 463.750000, 109.380191, 457.500000, 109.758500" fill="rgb(178, 34, 34)" style="fill-opacity:1.00" />
<!-- End 'A' -->
<!-- Begin 'C' -->
<ellipse cx="475.000000" cy="109.879250" rx="25.000000" ry="0.120750" fill="rgb(0, 0, 128)" style="fill-opacity:1.00" />
<ellipse cx="475.000000" cy="109.879250" rx="16.666667" ry="0.080500" fill="rgb(255, 255, 255)" style="fill-opacity:1.00" />
<rect height="0.120750" width="25.000000" x="475.000000" y="109.818875" fill="rgb(255, 255, 255)" style="fill-opacity:1.00" />
<!-- End 'C' -->
<!-- Begin 'A' -->
<polygon points=" 510.000000, 105.119337, 531.000000, 29.909918, 539.000000, 29.909918, 560.000000, 105.119337, 552.500000, 105.119337, 546.250000, 86.316982, 523.750000, 86.316982, 517.500000, 105.119337" fill="rgb(178, 34, 34)" style="fill-opacity:1.00" />
<polygon points=" 535.000000, 44.951802, 527.000000, 74.035570, 542.000000, 74.035570" fill="rgb(255, 255, 255)" style="fill-opacity:1.00" />
<!-- End 'A' -->
<!-- Begin 'T' -->
<rect height="0.573669" width="50.000000" x="510.000000" y="105.119337" fill="rgb(0, 100, 0)" style="fill-opacity:1.00" />
<rect height="3.585429" width="10.000000" x="530.000000" y="105.119337" fill="rgb(0, 100, 0)" style="fill-opacity:1.00" />
<!-- End 'T' -->
<!-- Begin 'C' -->
<ellipse cx="535.000000" cy="109.036791" rx="25.000000" ry="0.332025" fill="rgb(0, 0, 128)" style="fill-opacity:1.00" />
<ellipse cx="535.000000" cy="109.036791" rx="16.666667" ry="0.221350" fill="rgb(255, 255, 255)" style="fill-opacity:1.00" />
<rect height="0.332025" width="25.000000" x="535.000000" y="108.870779" fill="rgb(255, 255, 255)" style="fill-opacity:1.00" />
<!-- End 'C' -->
<!-- Begin 'G' -->
<ellipse cx="535.000000" cy="109.684408" rx="25.000000" ry="0.315592" fill="rgb(255, 165, 0)" style="fill-opacity:1.00" />
<ellipse cx="535.000000" cy="109.684408" rx="16.666667" ry="0.210394" fill="rgb(255, 255, 255)" style="fill-opacity:1.00" />
<rect height="0.315592" width="25.000000" x="535.000000" y="109.526612" fill="rgb(255, 255, 255)" style="fill-opacity:1.00" />
<rect height="0.078898" width="25.000000" x="535.000000" y="109.763306" fill="rgb(255, 165, 0)" style="fill-opacity:1.00" />
<rect height="0.236694" width="6.250000" x="553.750000" y="109.763306" fill="rgb(255, 165, 0)" style="fill-opacity:1.00" />
<!-- End 'G' -->
<!-- Begin 'C' -->
<ellipse cx="595.000000" cy="85.158140" rx="25.000000" ry="7.769863" fill="rgb(0, 0, 128)" style="fill-opacity:1.00" />
<ellipse cx="595.000000" cy="85.158140" rx="16.666667" ry="5.179909" fill="rgb(255, 255, 255)" style="fill-opacity:1.00" />
<rect height="7.769863" width="25.000000" x="595.000000" y="81.273209" fill="rgb(255, 255, 255)" style="fill-opacity:1.00" />
<!-- End 'C' -->
<!-- Begin 'G' -->
<ellipse cx="595.000000" cy="100.389846" rx="25.000000" ry="7.461843" fill="rgb(255, 165, 0)" style="fill-opacity:1.00" />
<ellipse cx="595.000000" cy="100.389846" rx="16.666667" ry="4.974562" fill="rgb(255, 255, 255)" style="fill-opacity:1.00" />
<rect height="7.461843" width="25.000000" x="595.000000" y="96.658925" fill="rgb(255, 255, 255)" style="fill-opacity:1.00" />
<rect height="1.865461" width="25.000000" x="595.000000" y="102.255307" fill="rgb(255, 165, 0)" style="fill-opacity:1.00" />
<rect height="5.596382" width="6.250000" x="613.750000" y="102.255307" fill="rgb(255, 165, 0)" style="fill-opacity:1.00" />
<!-- End 'G' -->
<!-- Begin 'T' -->
<rect height="0.209509" width="50.000000" x="570.000000" y="107.851689" fill="rgb(0, 100, 0)" style="fill-opacity:1.00" />
<rect height="1.309431" width="10.000000" x="590.000000" y="107.851689" fill="rgb(0, 100, 0)" style="fill-opacity:1.00" />
<!-- End 'T' -->
<!-- Begin 'A' -->
<polygon points=" 570.000000, 110.000000, 591.000000, 109.161120, 599.000000, 109.161120, 620.000000, 110.000000, 612.500000, 110.000000, 606.250000, 109.790280, 583.750000, 109.790280, 577.500000, 110.000000" fill="rgb(178, 34, 34)" style="fill-opacity:1.00" />
<!-- End 'A' -->
<!-- Begin 'T' -->
<rect height="10.095766" width="50.000000" x="630.000000" y="40.054952" fill="rgb(0, 100, 0)" style="fill-opacity:1.00" />
<rect height="63.098535" width="10.000000" x="650.000000" y="40.054952" fill="rgb(0, 100, 0)" style="fill-opacity:1.00" />
<!-- End 'T' -->
<!-- Begin 'A' -->
<polygon points=" 630.000000, 106.726092, 651.000000, 103.153487, 659.000000, 103.153487, 680.000000, 106.726092, 672.500000, 106.726092, 666.250000, 105.832941, 643.750000, 105.832941, 637.500000, 106.726092" fill="rgb(178, 34, 34)" style="fill-opacity:1.00" />
<!-- End 'A' -->
<!-- Begin 'G' -->
<ellipse cx="655.000000" cy="107.876322" rx="25.000000" ry="1.150230" fill="rgb(255, 165, 0)" style="fill-opacity:1.00" />
<ellipse cx="655.000000" cy="107.876322" rx="16.666667" ry="0.766820" fill="rgb(255, 255, 255)" style="fill-opacity:1.00" />
<rect height="1.150230" width="25.000000" x="655.000000" y="107.301207" fill="rgb(255, 255, 255)" style="fill-opacity:1.00" />
<rect height="0.287558" width="25.000000" x="655.000000" y="108.163879" fill="rgb(255, 165, 0)" style="fill-opacity:1.00" />
<rect height="0.862673" width="6.250000" x="673.750000" y="108.163879" fill="rgb(255, 165, 0)" style="fill-opacity:1.00" />
<!-- End 'G' -->
<!-- Begin 'C' -->
<ellipse cx="655.000000" cy="109.513276" rx="25.000000" ry="0.486724" fill="rgb(0, 0, 128)" style="fill-opacity:1.00" />
<ellipse cx="655.000000" cy="109.513276" rx="16.666667" ry="0.324483" fill="rgb(255, 255, 255)" style="fill-opacity:1.00" />
<rect height="0.486724" width="25.000000" x="655.000000" y="109.269914" fill="rgb(255, 255, 255)" style="fill-opacity:1.00" />
<!-- End 'C' -->
<!-- Begin 'C' -->
<ellipse cx="715.000000" cy="73.865279" rx="25.000000" ry="27.885025" fill="rgb(0, 0, 128)" style="fill-opacity:1.00" />
<ellipse cx="715.000000" cy="73.865279" rx="16.666667" ry="18.590017" fill="rgb(255, 255, 255)" style="fill-opacity:1.00" />
<rect height="27.885025" width="25.000000" x="715.000000" y="59.922766" fill="rgb(255, 255, 255)" style="fill-opacity:1.00" />
<!-- End 'C' -->
<!-- Begin 'T' -->
<rect height="0.772310" width="50.000000" x="690.000000" y="101.750304" fill="rgb(0, 100, 0)" style="fill-opacity:1.00" />
<rect height="4.826936" width="10.000000" x="710.000000" y="101.750304" fill="rgb(0, 100, 0)" style="fill-opacity:1.00" />
<!-- End 'T' -->
<!-- Begin 'A' -->
<polygon points=" 690.000000, 109.297832, 711.000000, 106.577240, 719.000000, 106.577240, 740.000000, 109.297832, 732.500000, 109.297832, 726.250000, 108.617684, 703.750000, 108.617684, 697.500000, 109.297832" fill="rgb(178, 34, 34)" style="fill-opacity:1.00" />
<!-- End 'A' -->
<!-- Begin 'G' -->
<ellipse cx="715.000000" cy="109.648916" rx="25.000000" ry="0.351084" fill="rgb(255, 165, 0)" style="fill-opacity:1.00" />
<ellipse cx="715.000000" cy="109.648916" rx="16.666667" ry="0.234056" fill="rgb(255, 255, 255)" style="fill-opacity:1.00" />
<rect height="0.351084" width="25.000000" x="715.000000" y="109.473374" fill="rgb(255, 255, 255)" style="fill-opacity:1.00" />
<rect height="0.087771" width="25.000000" x="715.000000" y="109.736687" fill="rgb(255, 165, 0)" style="fill-opacity:1.00" />
<rect height="0.263313" width="6.250000" x="733.750000" y="109.736687" fill="rgb(255, 165, 0)" style="fill-opacity:1.00" />
<!-- End 'G' -->
<!-- Begin 'A' -->
<polygon points=" 750.000000, 103.795097, 771.000000, 37.573209, 779.000000, 37.573209, 800.000000, 103.795097, 792.500000, 103.795097, 786.250000, 87.239625, 763.750000, 87.239625, 757.500000, 103.795097" fill="rgb(178, 34, 34)" style="fill-opacity:1.00" />
<polygon points=" 775.000000, 50.817586, 767.000000, 76.306342, 782.000000, 76.306342" fill="rgb(255, 255, 255)" style="fill-opacity:1.00" />
<!-- End 'A' -->
<!-- Begin 'C' -->
<ellipse cx="775.000000" cy="105.205643" rx="25.000000" ry="1.410546" fill="rgb(0, 0, 128)" style="fill-opacity:1.00" />
<ellipse cx="775.000000" cy="105.205643" rx="16.666667" ry="0.940364" fill="rgb(255, 255, 255)" style="fill-opacity:1.00" />
<rect height="1.410546" width="25.000000" x="775.000000" y="104.500370" fill="rgb(255, 255, 255)" style="fill-opacity:1.00" />
<!-- End 'C' -->
<!-- Begin 'G' -->
<ellipse cx="775.000000" cy="107.680574" rx="25.000000" ry="1.064385" fill="rgb(255, 165, 0)" style="fill-opacity:1.00" />
<ellipse cx="775.000000" cy="107.680574" rx="16.666667" ry="0.709590" fill="rgb(255, 255, 255)" style="fill-opacity:1.00" />
<rect height="1.064385" width="25.000000" x="775.000000" y="107.148382" fill="rgb(255, 255, 255)" style="fill-opacity:1.00" />
<rect height="0.266096" width="25.000000" x="775.000000" y="107.946671" fill="rgb(255, 165, 0)" style="fill-opacity:1.00" />
<rect height="0.798289" width="6.250000" x="793.750000" y="107.946671" fill="rgb(255, 165, 0)" style="fill-opacity:1.00" />
<!-- End 'G' -->
<!-- Begin 'T' -->
<rect height="0.200806" width="50.000000" x="750.000000" y="108.744960" fill="rgb(0, 100, 0)" style="fill-opacity:1.00" />
<rect height="1.255040" width="10.000000" x="770.000000" y="108.744960" fill="rgb(0, 100, 0)" style="fill-opacity:1.00" />
<!-- End 'T' -->
<!-- Begin 'G' -->
<ellipse cx="835.000000" cy="97.704860" rx="25.000000" ry="3.864854" fill="rgb(255, 165, 0)" style="fill-opacity:1.00" />
<ellipse cx="835.000000" cy="97.704860" rx="16.666667" ry="2.576569" fill="rgb(255, 255, 255)" style="fill-opacity:1.00" />
<rect height="3.864854" width="25.000000" x="835.000000" y="95.772433" fill="rgb(255, 255, 255)" style="fill-opacity:1.00" />
<rect height="0.966213" width="25.000000" x="835.000000" y="98.671073" fill="rgb(255, 165, 0)" style="fill-opacity:1.00" />
<rect height="2.898640" width="6.250000" x="853.750000" y="98.671073" fill="rgb(255, 165, 0)" style="fill-opacity:1.00" />
<!-- End 'G' -->
<!-- Begin 'T' -->
<rect height="0.809923" width="50.000000" x="810.000000" y="101.569713" fill="rgb(0, 100, 0)" style="fill-opacity:1.00" />
<rect height="5.062017" width="10.000000" x="830.000000" y="101.569713" fill="rgb(0, 100, 0)" style="fill-opacity:1.00" />
<!-- End 'T' -->
<!-- Begin 'C' -->
<ellipse cx="835.000000" cy="107.880907" rx="25.000000" ry="1.249177" fill="rgb(0, 0, 128)" style="fill-opacity:1.00" />
<ellipse cx="835.000000" cy="107.880907" rx="16.666667" ry="0.832784" fill="rgb(255, 255, 255)" style="fill-opacity:1.00" />
<rect height="1.249177" width="25.000000" x="835.000000" y="107.256319" fill="rgb(255, 255, 255)" style="fill-opacity:1.00" />
<!-- End 'C' -->
<!-- Begin 'A' -->
<polygon points=" 810.000000, 110.000000, 831.000000, 109.130083, 839.000000, 109.130083, 860.000000, 110.000000, 852.500000, 110.000000, 846.250000, 109.782521, 823.750000, 109.782521, 817.500000, 110.000000" fill="rgb(178, 34, 34)" style="fill-opacity:1.00" />
<!-- End 'A' -->
<!-- Begin 'C' -->
<ellipse cx="895.000000" cy="92.057689" rx="25.000000" ry="8.592315" fill="rgb(0, 0, 128)" style="fill-opacity:1.00" />
<ellipse cx="895.000000" cy="92.057689" rx="16.666667" ry="5.728210" fill="rgb(255, 255, 255)" style="fill-opacity:1.00" />
<rect height="8.592315" width="25.000000" x="895.000000" y="87.761532" fill="rgb(255, 255, 255)" style="fill-opacity:1.00" />
<!-- End 'C' -->
<!-- Begin 'G' -->
<ellipse cx="895.000000" cy="102.570917" rx="25.000000" ry="1.920913" fill="rgb(255, 165, 0)" style="fill-opacity:1.00" />
<ellipse cx="895.000000" cy="102.570917" rx="16.666667" ry="1.280608" fill="rgb(255, 255, 255)" style="fill-opacity:1.00" />
<rect height="1.920913" width="25.000000" x="895.000000" y="101.610461" fill="rgb(255, 255, 255)" style="fill-opacity:1.00" />
<rect height="0.480228" width="25.000000" x="895.000000" y="103.051145" fill="rgb(255, 165, 0)" style="fill-opacity:1.00" />
<rect height="1.440685" width="6.250000" x="913.750000" y="103.051145" fill="rgb(255, 165, 0)" style="fill-opacity:1.00" />
<!-- End 'G' -->
<!-- Begin 'T' -->
<rect height="0.594717" width="50.000000" x="870.000000" y="104.491830" fill="rgb(0, 100, 0)" style="fill-opacity:1.00" />
<rect height="3.716982" width="10.000000" x="890.000000" y="104.491830" fill="rgb(0, 100, 0)" style="fill-opacity:1.00" />
<!-- End 'T' -->
<!-- Begin 'A' -->
<polygon points=" 870.000000, 110.000000, 891.000000, 108.208812, 899.000000, 108.208812, 920.000000, 110.000000, 912.500000, 110.000000, 906.250000, 109.552203, 883.750000, 109.552203, 877.500000, 110.000000" fill="rgb(178, 34, 34)" style="fill-opacity:1.00" />
<!-- End 'A' -->
<!-- Begin 'A' -->
<polygon points=" 930.000000, 104.257387, 951.000000, 98.065987, 959.000000, 98.065987, 980.000000, 104.257387, 972.500000, 104.257387, 966.250000, 102.709537, 943.750000, 102.709537, 937.500000, 104.257387" fill="rgb(178, 34, 34)" style="fill-opacity:1.00" />
<!-- End 'A' -->
<!-- Begin 'C' -->
<ellipse cx="955.000000" cy="105.246778" rx="25.000000" ry="0.989391" fill="rgb(0, 0, 128)" style="fill-opacity:1.00" />
<ellipse cx="955.000000" cy="105.246778" rx="16.666667" ry="0.659594" fill="rgb(255, 255, 255)" style="fill-opacity:1.00" />
<rect height="0.989391" width="25.000000" x="955.000000" y="104.752082" fill="rgb(255, 255, 255)" style="fill-opacity:1.00" />
<!-- End 'C' -->
<!-- Begin 'T' -->
<rect height="0.308654" width="50.000000" x="930.000000" y="106.236169" fill="rgb(0, 100, 0)" style="fill-opacity:1.00" />
<rect height="1.929085" width="10.000000" x="950.000000" y="106.236169" fill="rgb(0, 100, 0)" style="fill-opacity:1.00" />
<!-- End 'T' -->
<!-- Begin 'G' -->
<ellipse cx="955.000000" cy="109.082627" rx="25.000000" ry="0.917373" fill="rgb(255, 165, 0)" style="fill-opacity:1.00" />
<ellipse cx="955.000000" cy="109.082627" rx="16.666667" ry="0.611582" fill="rgb(255, 255, 255)" style="fill-opacity:1.00" />
<rect height="0.917373" width="25.000000" x="955.000000" y="108.623941" fill="rgb(255, 255, 255)" style="fill-opacity:1.00" />
<rect height="0.229343" width="25.000000" x="955.000000" y="109.311970" fill="rgb(255, 165, 0)" style="fill-opacity:1.00" />
<rect height="0.688030" width="6.250000" x="973.750000" y="109.311970" fill="rgb(255, 165, 0)" style="fill-opacity:1.00" />
<!-- End 'G' -->
<text x="520.000000" y="165">
IC = 12.03
</text>

</svg>
