<?xml version="1.0" encoding="UTF-8" standalone="yes"?>
                 <!DOCTYPE svg PUBLIC "-//W3C//DTD SVG 1.0//EN" "http://www.w3.org/TR/2001/REC-SVG-20010904/DTD/svg10.dtd">
                 <svg height="170" width="1020" xmlns="http://www.w3.org/2000/svg" xmlns:xlink="http://www.w3.org/1999/xlink">
                 <line x1="85" y1="120" x2="987" y2="120" style="stroke:rgb(99,99,99);stroke-width:2" />
<rect height="7.000000" width="2.000000" x="85.000000" y="120.000000" fill="rgb(0, 0, 0)" style="fill-opacity:1.00" />
<text x="107.000000" y="140">
1
</text>
<rect height="7.000000" width="2.000000" x="145.000000" y="120.000000" fill="rgb(0, 0, 0)" style="fill-opacity:1.00" />
<text x="167.000000" y="140">
2
</text>
<rect height="7.000000" width="2.000000" x="205.000000" y="120.000000" fill="rgb(0, 0, 0)" style="fill-opacity:1.00" />
<text x="227.000000" y="140">
3
</text>
<rect height="7.000000" width="2.000000" x="265.000000" y="120.000000" fill="rgb(0, 0, 0)" style="fill-opacity:1.00" />
<text x="287.000000" y="140">
4
</text>
<rect height="7.000000" width="2.000000" x="325.000000" y="120.000000" fill="rgb(0, 0, 0)" style="fill-opacity:1.00" />
<text x="347.000000" y="140">
5
</text>
<rect height="7.000000" width="2.000000" x="385.000000" y="120.000000" fill="rgb(0, 0, 0)" style="fill-opacity:1.00" />
<text x="407.000000" y="140">
6
</text>
<rect height="7.000000" width="2.000000" x="445.000000" y="120.000000" fill="rgb(0, 0, 0)" style="fill-opacity:1.00" />
<text x="467.000000" y="140">
7
</text>
<rect height="7.000000" width="2.000000" x="505.000000" y="120.000000" fill="rgb(0, 0, 0)" style="fill-opacity:1.00" />
<text x="527.000000" y="140">
8
</text>
<rect height="7.000000" width="2.000000" x="565.000000" y="120.000000" fill="rgb(0, 0, 0)" style="fill-opacity:1.00" />
<text x="587.000000" y="140">
9
</text>
<rect height="7.000000" width="2.000000" x="625.000000" y="120.000000" fill="rgb(0, 0, 0)" style="fill-opacity:1.00" />
<text x="647.000000" y="140">
10
</text>
<rect height="7.000000" width="2.000000" x="685.000000" y="120.000000" fill="rgb(0, 0, 0)" style="fill-opacity:1.00" />
<text x="707.000000" y="140">
11
</text>
<rect height="7.000000" width="2.000000" x="745.000000" y="120.000000" fill="rgb(0, 0, 0)" style="fill-opacity:1.00" />
<text x="767.000000" y="140">
12
</text>
<rect height="7.000000" width="2.000000" x="805.000000" y="120.000000" fill="rgb(0, 0, 0)" style="fill-opacity:1.00" />
<text x="827.000000" y="140">
13
</text>
<rect height="7.000000" width="2.000000" x="865.000000" y="120.000000" fill="rgb(0, 0, 0)" style="fill-opacity:1.00" />
<text x="887.000000" y="140">
14
</text>
<rect height="7.000000" width="2.000000" x="925.000000" y="120.000000" fill="rgb(0, 0, 0)" style="fill-opacity:1.00" />
<text x="947.000000" y="140">
15
</text>
<rect height="7.000000" width="2.000000" x="985.000000" y="120.000000" fill="rgb(0, 0, 0)" style="fill-opacity:1.00" />
<line x1="80" y1="112" x2="80" y2="10" style="stroke:rgb(99,99,99);stroke-width:2" />
<rect height="2.000000" width="7.000000" x="73.000000" y="110.000000" fill="rgb(0, 0, 0)" style="fill-opacity:1.00" />
<text x="63" y="115">
0
</text>
<rect height="2.000000" width="7.000000" x="73.000000" y="60.000000" fill="rgb(0, 0, 0)" style="fill-opacity:1.00" />
<text x="63" y="65">
1
</text>
<rect height="2.000000" width="7.000000" x="73.000000" y="10.000000" fill="rgb(0, 0, 0)" style="fill-opacity:1.00" />
<text x="63" y="15">
2
</text>
<text x="50" y="65"
transform="rotate(-90, 50, 70)">
bits
</text>
<!-- Begin 'A' -->
<polygon points=" 90.000000, 107.803811, 111.000000, 106.581521, 119.000000, 106.581521, 140.000000, 107.803811, 132.500000, 107.803811, 126.250000, 107.498238, 103.750000, 107.498238, 97.500000, 107.803811" fill="rgb(178, 34, 34)" style="fill-opacity:1.00" />
<!-- End 'A' -->
<!-- Begin 'C' -->
<ellipse cx="115.000000" cy="108.242053" rx="25.000000" ry="0.438242" fill="rgb(0, 0, 128)" style="fill-opacity:1.00" />
<ellipse cx="115.000000" cy="108.242053" rx="16.666667" ry="0.292162" fill="rgb(255, 255, 255)" style="fill-opacity:1.00" />
<rect height="0.438242" width="25.000000" x="115.000000" y="108.022932" fill="rgb(255, 255, 255)" style="fill-opacity:1.00" />
<!-- End 'C' -->
<!-- Begin 'T' -->
<rect height="0.132633" width="50.000000" x="90.000000" y="108.680296" fill="rgb(0, 100, 0)" style="fill-opacity:1.00" />
<rect height="0.828955" width="10.000000" x="110.000000" y="108.680296" fill="rgb(0, 100, 0)" style="fill-opacity:1.00" />
<!-- End 'T' -->
<!-- Begin 'G' -->
<ellipse cx="115.000000" cy="109.754625" rx="25.000000" ry="0.245375" fill="rgb(255, 165, 0)" style="fill-opacity:1.00" />
<ellipse cx="115.000000" cy="109.754625" rx="16.666667" ry="0.163583" fill="rgb(255, 255, 255)" style="fill-opacity:1.00" />
<rect height="0.245375" width="25.000000" x="115.000000" y="109.631938" fill="rgb(255, 255, 255)" style="fill-opacity:1.00" />
<rect height="0.061344" width="25.000000" x="115.000000" y="109.815969" fill="rgb(255, 165, 0)" style="fill-opacity:1.00" />
<rect height="0.184031" width="6.250000" x="133.750000" y="109.815969" fill="rgb(255, 165, 0)" style="fill-opacity:1.00" />
<!-- End 'G' -->
<!-- Begin 'A' -->
<polygon points=" 150.000000, 109.659157, 171.000000, 109.518904, 179.000000, 109.518904, 200.000000, 109.659157, 192.500000, 109.659157, 186.250000, 109.624094, 163.750000, 109.624094, 157.500000, 109.659157" fill="rgb(178, 34, 34)" style="fill-opacity:1.00" />
<!-- End 'A' -->
<!-- Begin 'C' -->
<ellipse cx="175.000000" cy="109.721043" rx="25.000000" ry="0.061886" fill="rgb(0, 0, 128)" style="fill-opacity:1.00" />
<ellipse cx="175.000000" cy="109.721043" rx="16.666667" ry="0.041257" fill="rgb(255, 255, 255)" style="fill-opacity:1.00" />
<rect height="0.061886" width="25.000000" x="175.000000" y="109.690100" fill="rgb(255, 255, 255)" style="fill-opacity:1.00" />
<!-- End 'C' -->
<!-- Begin 'G' -->
<ellipse cx="175.000000" cy="109.840486" rx="25.000000" ry="0.057557" fill="rgb(255, 165, 0)" style="fill-opacity:1.00" />
<ellipse cx="175.000000" cy="109.840486" rx="16.666667" ry="0.038372" fill="rgb(255, 255, 255)" style="fill-opacity:1.00" />
<rect height="0.057557" width="25.000000" x="175.000000" y="109.811707" fill="rgb(255, 255, 255)" style="fill-opacity:1.00" />
<rect height="0.014389" width="25.000000" x="175.000000" y="109.854875" fill="rgb(255, 165, 0)" style="fill-opacity:1.00" />
<rect height="0.043168" width="6.250000" x="193.750000" y="109.854875" fill="rgb(255, 165, 0)" style="fill-opacity:1.00" />
<!-- End 'G' -->
<!-- Begin 'T' -->
<rect height="0.016313" width="50.000000" x="150.000000" y="109.898043" fill="rgb(0, 100, 0)" style="fill-opacity:1.00" />
<rect height="0.101957" width="10.000000" x="170.000000" y="109.898043" fill="rgb(0, 100, 0)" style="fill-opacity:1.00" />
<!-- End 'T' -->
<!-- Begin 'T' -->
<rect height="0.598789" width="50.000000" x="210.000000" y="101.979533" fill="rgb(0, 100, 0)" style="fill-opacity:1.00" />
<rect height="3.742430" width="10.000000" x="230.000000" y="101.979533" fill="rgb(0, 100, 0)" style="fill-opacity:1.00" />
<!-- End 'T' -->
<!-- Begin 'G' -->
<ellipse cx="235.000000" cy="106.518480" rx="25.000000" ry="0.796517" fill="rgb(255, 165, 0)" style="fill-opacity:1.00" />
<ellipse cx="235.000000" cy="106.518480" rx="16.666667" ry="0.531012" fill="rgb(255, 255, 255)" style="fill-opacity:1.00" />
<rect height="0.796517" width="25.000000" x="235.000000" y="106.120222" fill="rgb(255, 255, 255)" style="fill-opacity:1.00" />
<rect height="0.199129" width="25.000000" x="235.000000" y="106.717610" fill="rgb(255, 165, 0)" style="fill-opacity:1.00" />
<rect height="0.597388" width="6.250000" x="253.750000" y="106.717610" fill="rgb(255, 165, 0)" style="fill-opacity:1.00" />
<!-- End 'G' -->
<!-- Begin 'C' -->
<ellipse cx="235.000000" cy="107.987829" rx="25.000000" ry="0.672831" fill="rgb(0, 0, 128)" style="fill-opacity:1.00" />
<ellipse cx="235.000000" cy="107.987829" rx="16.666667" ry="0.448554" fill="rgb(255, 255, 255)" style="fill-opacity:1.00" />
<rect height="0.672831" width="25.000000" x="235.000000" y="107.651413" fill="rgb(255, 255, 255)" style="fill-opacity:1.00" />
<!-- End 'C' -->
<!-- Begin 'A' -->
<polygon points=" 210.000000, 110.000000, 231.000000, 108.660660, 239.000000, 108.660660, 260.000000, 110.000000, 252.500000, 110.000000, 246.250000, 109.665165, 223.750000, 109.665165, 217.500000, 110.000000" fill="rgb(178, 34, 34)" style="fill-opacity:1.00" />
<!-- End 'A' -->
<!-- Begin 'G' -->
<ellipse cx="295.000000" cy="93.183723" rx="25.000000" ry="7.759200" fill="rgb(255, 165, 0)" style="fill-opacity:1.00" />
<ellipse cx="295.000000" cy="93.183723" rx="16.666667" ry="5.172800" fill="rgb(255, 255, 255)" style="fill-opacity:1.00" />
<rect height="7.759200" width="25.000000" x="295.000000" y="89.304123" fill="rgb(255, 255, 255)" style="fill-opacity:1.00" />
<rect height="1.939800" width="25.000000" x="295.000000" y="95.123523" fill="rgb(255, 165, 0)" style="fill-opacity:1.00" />
<rect height="5.819400" width="6.250000" x="313.750000" y="95.123523" fill="rgb(255, 165, 0)" style="fill-opacity:1.00" />
<!-- End 'G' -->
<!-- Begin 'C' -->
<ellipse cx="295.000000" cy="102.883036" rx="25.000000" ry="1.940114" fill="rgb(0, 0, 128)" style="fill-opacity:1.00" />
<ellipse cx="295.000000" cy="102.883036" rx="16.666667" ry="1.293409" fill="rgb(255, 255, 255)" style="fill-opacity:1.00" />
<rect height="1.940114" width="25.000000" x="295.000000" y="101.912979" fill="rgb(255, 255, 255)" style="fill-opacity:1.00" />
<!-- End 'C' -->
<!-- Begin 'A' -->
<polygon points=" 270.000000, 108.212230, 291.000000, 104.823150, 299.000000, 104.823150, 320.000000, 108.212230, 312.500000, 108.212230, 306.250000, 107.364960, 283.750000, 107.364960, 277.500000, 108.212230" fill="rgb(178, 34, 34)" style="fill-opacity:1.00" />
<!-- End 'A' -->
<!-- Begin 'T' -->
<rect height="0.286043" width="50.000000" x="270.000000" y="108.212230" fill="rgb(0, 100, 0)" style="fill-opacity:1.00" />
<rect height="1.787770" width="10.000000" x="290.000000" y="108.212230" fill="rgb(0, 100, 0)" style="fill-opacity:1.00" />
<!-- End 'T' -->
<!-- Begin 'C' -->
<ellipse cx="355.000000" cy="90.720969" rx="25.000000" ry="6.142776" fill="rgb(0, 0, 128)" style="fill-opacity:1.00" />
<ellipse cx="355.000000" cy="90.720969" rx="16.666667" ry="4.095184" fill="rgb(255, 255, 255)" style="fill-opacity:1.00" />
<rect height="6.142776" width="25.000000" x="355.000000" y="87.649581" fill="rgb(255, 255, 255)" style="fill-opacity:1.00" />
<!-- End 'C' -->
<!-- Begin 'A' -->
<polygon points=" 330.000000, 106.189016, 351.000000, 96.863746, 359.000000, 96.863746, 380.000000, 106.189016, 372.500000, 106.189016, 366.250000, 103.857698, 343.750000, 103.857698, 337.500000, 106.189016" fill="rgb(178, 34, 34)" style="fill-opacity:1.00" />
<polygon points=" 355.000000, 98.728800, 347.000000, 101.458908, 362.000000, 101.458908" fill="rgb(255, 255, 255)" style="fill-opacity:1.00" />
<!-- End 'A' -->
<!-- Begin 'G' -->
<ellipse cx="355.000000" cy="107.997831" rx="25.000000" ry="1.808815" fill="rgb(255, 165, 0)" style="fill-opacity:1.00" />
<ellipse cx="355.000000" cy="107.997831" rx="16.666667" ry="1.205877" fill="rgb(255, 255, 255)" style="fill-opacity:1.00" />
<rect height="1.808815" width="25.000000" x="355.000000" y="107.093423" fill="rgb(255, 255, 255)" style="fill-opacity:1.00" />
<rect height="0.452204" width="25.000000" x="355.000000" y="108.450035" fill="rgb(255, 165, 0)" style="fill-opacity:1.00" />
<rect height="1.356611" width="6.250000" x="373.750000" y="108.450035" fill="rgb(255, 165, 0)" style="fill-opacity:1.00" />
<!-- End 'G' -->
<!-- Begin 'T' -->
<rect height="0.030937" width="50.000000" x="330.000000" y="109.806646" fill="rgb(0, 100, 0)" style="fill-opacity:1.00" />
<rect height="0.193354" width="10.000000" x="350.000000" y="109.806646" fill="rgb(0, 100, 0)" style="fill-opacity:1.00" />
<!-- End 'T' -->
<!-- Begin 'T' -->
<rect height="13.398330" width="50.000000" x="390.000000" y="23.178841" fill="rgb(0, 100, 0)" style="fill-opacity:1.00" />
<rect height="83.739561" width="10.000000" x="410.000000" y="23.178841" fill="rgb(0, 100, 0)" style="fill-opacity:1.00" />
<!-- End 'T' -->
<!-- Begin 'C' -->
<ellipse cx="415.000000" cy="107.815407" rx="25.000000" ry="0.897005" fill="rgb(0, 0, 128)" style="fill-opacity:1.00" />
<ellipse cx="415.000000" cy="107.815407" rx="16.666667" ry="0.598003" fill="rgb(255, 255, 255)" style="fill-opacity:1.00" />
<rect height="0.897005" width="25.000000" x="415.000000" y="107.366904" fill="rgb(255, 255, 255)" style="fill-opacity:1.00" />
<!-- End 'C' -->
<!-- Begin 'A' -->
<polygon points=" 390.000000, 109.854619, 411.000000, 108.712412, 419.000000, 108.712412, 440.000000, 109.854619, 432.500000, 109.854619, 426.250000, 109.569067, 403.750000, 109.569067, 397.500000, 109.854619" fill="rgb(178, 34, 34)" style="fill-opacity:1.00" />
<!-- End 'A' -->
<!-- Begin 'G' -->
<ellipse cx="415.000000" cy="109.927310" rx="25.000000" ry="0.072690" fill="rgb(255, 165, 0)" style="fill-opacity:1.00" />
<ellipse cx="415.000000" cy="109.927310" rx="16.666667" ry="0.048460" fill="rgb(255, 255, 255)" style="fill-opacity:1.00" />
<rect height="0.072690" width="25.000000" x="415.000000" y="109.890964" fill="rgb(255, 255, 255)" style="fill-opacity:1.00" />
<rect height="0.018173" width="25.000000" x="415.000000" y="109.945482" fill="rgb(255, 165, 0)" style="fill-opacity:1.00" />
<rect height="0.054518" width="6.250000" x="433.750000" y="109.945482" fill="rgb(255, 165, 0)" style="fill-opacity:1.00" />
<!-- End 'G' -->
<!-- Begin 'G' -->
<ellipse cx="475.000000" cy="66.795311" rx="25.000000" ry="38.907572" fill="rgb(255, 165, 0)" style="fill-opacity:1.00" />
<ellipse cx="475.000000" cy="66.795311" rx="16.666667" ry="25.938381" fill="rgb(255, 255, 255)" style="fill-opacity:1.00" />
<rect height="38.907572" width="25.000000" x="475.000000" y="47.341525" fill="rgb(255, 255, 255)" style="fill-opacity:1.00" />
<rect height="9.726893" width="25.000000" x="475.000000" y="76.522205" fill="rgb(255, 165, 0)" style="fill-opacity:1.00" />
<rect height="29.180679" width="6.250000" x="493.750000" y="76.522205" fill="rgb(255, 165, 0)" style="fill-opacity:1.00" />
<!-- End 'G' -->
<!-- Begin 'T' -->
<rect height="0.450535" width="50.000000" x="450.000000" y="105.702884" fill="rgb(0, 100, 0)" style="fill-opacity:1.00" />
<rect height="2.815845" width="10.000000" x="470.000000" y="105.702884" fill="rgb(0, 100, 0)" style="fill-opacity:1.00" />
<!-- End 'T' -->
<!-- Begin 'A' -->
<polygon points=" 450.000000, 109.708685, 471.000000, 108.518729, 479.000000, 108.518729, 500.000000, 109.708685, 492.500000, 109.708685, 486.250000, 109.411196, 463.750000, 109.411196, 457.500000, 109.708685" fill="rgb(178, 34, 34)" style="fill-opacity:1.00" />
<!-- End 'A' -->
<!-- Begin 'C' -->
<ellipse cx="475.000000" cy="109.854343" rx="25.000000" ry="0.145657" fill="rgb(0, 0, 128)" style="fill-opacity:1.00" />
<ellipse cx="475.000000" cy="109.854343" rx="16.666667" ry="0.097105" fill="rgb(255, 255, 255)" style="fill-opacity:1.00" />
<rect height="0.145657" width="25.000000" x="475.000000" y="109.781514" fill="rgb(255, 255, 255)" style="fill-opacity:1.00" />
<!-- End 'C' -->
<!-- Begin 'A' -->
<polygon points=" 510.000000, 104.988343, 531.000000, 30.515329, 539.000000, 30.515329, 560.000000, 104.988343, 552.500000, 104.988343, 546.250000, 86.370090, 523.750000, 86.370090, 517.500000, 104.988343" fill="rgb(178, 34, 34)" style="fill-opacity:1.00" />
<polygon points=" 535.000000, 45.409932, 527.000000, 74.199138, 542.000000, 74.199138" fill="rgb(255, 255, 255)" style="fill-opacity:1.00" />
<!-- End 'A' -->
<!-- Begin 'T' -->
<rect height="0.581195" width="50.000000" x="510.000000" y="104.988343" fill="rgb(0, 100, 0)" style="fill-opacity:1.00" />
<rect height="3.632470" width="10.000000" x="530.000000" y="104.988343" fill="rgb(0, 100, 0)" style="fill-opacity:1.00" />
<!-- End 'T' -->
<!-- Begin 'G' -->
<ellipse cx="535.000000" cy="108.973888" rx="25.000000" ry="0.353074" fill="rgb(255, 165, 0)" style="fill-opacity:1.00" />
<ellipse cx="535.000000" cy="108.973888" rx="16.666667" ry="0.235383" fill="rgb(255, 255, 255)" style="fill-opacity:1.00" />
<rect height="0.353074" width="25.000000" x="535.000000" y="108.797351" fill="rgb(255, 255, 255)" style="fill-opacity:1.00" />
<rect height="0.088269" width="25.000000" x="535.000000" y="109.062156" fill="rgb(255, 165, 0)" style="fill-opacity:1.00" />
<rect height="0.264806" width="6.250000" x="553.750000" y="109.062156" fill="rgb(255, 165, 0)" style="fill-opacity:1.00" />
<!-- End 'G' -->
<!-- Begin 'C' -->
<ellipse cx="535.000000" cy="109.663481" rx="25.000000" ry="0.336519" fill="rgb(0, 0, 128)" style="fill-opacity:1.00" />
<ellipse cx="535.000000" cy="109.663481" rx="16.666667" ry="0.224346" fill="rgb(255, 255, 255)" style="fill-opacity:1.00" />
<rect height="0.336519" width="25.000000" x="535.000000" y="109.495221" fill="rgb(255, 255, 255)" style="fill-opacity:1.00" />
<!-- End 'C' -->
<!-- Begin 'C' -->
<ellipse cx="595.000000" cy="85.478860" rx="25.000000" ry="7.772290" fill="rgb(0, 0, 128)" style="fill-opacity:1.00" />
<ellipse cx="595.000000" cy="85.478860" rx="16.666667" ry="5.181526" fill="rgb(255, 255, 255)" style="fill-opacity:1.00" />
<rect height="7.772290" width="25.000000" x="595.000000" y="81.592715" fill="rgb(255, 255, 255)" style="fill-opacity:1.00" />
<!-- End 'C' -->
<!-- Begin 'G' -->
<ellipse cx="595.000000" cy="100.534678" rx="25.000000" ry="7.283529" fill="rgb(255, 165, 0)" style="fill-opacity:1.00" />
<ellipse cx="595.000000" cy="100.534678" rx="16.666667" ry="4.855686" fill="rgb(255, 255, 255)" style="fill-opacity:1.00" />
<rect height="7.283529" width="25.000000" x="595.000000" y="96.892914" fill="rgb(255, 255, 255)" style="fill-opacity:1.00" />
<rect height="1.820882" width="25.000000" x="595.000000" y="102.355560" fill="rgb(255, 165, 0)" style="fill-opacity:1.00" />
<rect height="5.462646" width="6.250000" x="613.750000" y="102.355560" fill="rgb(255, 165, 0)" style="fill-opacity:1.00" />
<!-- End 'G' -->
<!-- Begin 'T' -->
<rect height="0.209044" width="50.000000" x="570.000000" y="107.818207" fill="rgb(0, 100, 0)" style="fill-opacity:1.00" />
<rect height="1.306528" width="10.000000" x="590.000000" y="107.818207" fill="rgb(0, 100, 0)" style="fill-opacity:1.00" />
<!-- End 'T' -->
<!-- Begin 'A' -->
<polygon points=" 570.000000, 110.000000, 591.000000, 109.124735, 599.000000, 109.124735, 620.000000, 110.000000, 612.500000, 110.000000, 606.250000, 109.781184, 583.750000, 109.781184, 577.500000, 110.000000" fill="rgb(178, 34, 34)" style="fill-opacity:1.00" />
<!-- End 'A' -->
<!-- Begin 'T' -->
<rect height="9.851028" width="50.000000" x="630.000000" y="41.351143" fill="rgb(0, 100, 0)" style="fill-opacity:1.00" />
<rect height="61.568927" width="10.000000" x="650.000000" y="41.351143" fill="rgb(0, 100, 0)" style="fill-opacity:1.00" />
<!-- End 'T' -->
<!-- Begin 'A' -->
<polygon points=" 630.000000, 106.488541, 651.000000, 102.920070, 659.000000, 102.920070, 680.000000, 106.488541, 672.500000, 106.488541, 666.250000, 105.596424, 643.750000, 105.596424, 637.500000, 106.488541" fill="rgb(178, 34, 34)" style="fill-opacity:1.00" />
<!-- End 'A' -->
<!-- Begin 'G' -->
<ellipse cx="655.000000" cy="107.718430" rx="25.000000" ry="1.229888" fill="rgb(255, 165, 0)" style="fill-opacity:1.00" />
<ellipse cx="655.000000" cy="107.718430" rx="16.666667" ry="0.819926" fill="rgb(255, 255, 255)" style="fill-opacity:1.00" />
<rect height="1.229888" width="25.000000" x="655.000000" y="107.103486" fill="rgb(255, 255, 255)" style="fill-opacity:1.00" />
<rect height="0.307472" width="25.000000" x="655.000000" y="108.025902" fill="rgb(255, 165, 0)" style="fill-opacity:1.00" />
<rect height="0.922416" width="6.250000" x="673.750000" y="108.025902" fill="rgb(255, 165, 0)" style="fill-opacity:1.00" />
<!-- End 'G' -->
<!-- Begin 'C' -->
<ellipse cx="655.000000" cy="109.474159" rx="25.000000" ry="0.525841" fill="rgb(0, 0, 128)" style="fill-opacity:1.00" />
<ellipse cx="655.000000" cy="109.474159" rx="16.666667" ry="0.350561" fill="rgb(255, 255, 255)" style="fill-opacity:1.00" />
<rect height="0.525841" width="25.000000" x="655.000000" y="109.211239" fill="rgb(255, 255, 255)" style="fill-opacity:1.00" />
<!-- End 'C' -->
<!-- Begin 'C' -->
<ellipse cx="715.000000" cy="74.369720" rx="25.000000" ry="27.145422" fill="rgb(0, 0, 128)" style="fill-opacity:1.00" />
<ellipse cx="715.000000" cy="74.369720" rx="16.666667" ry="18.096948" fill="rgb(255, 255, 255)" style="fill-opacity:1.00" />
<rect height="27.145422" width="25.000000" x="715.000000" y="60.797009" fill="rgb(255, 255, 255)" style="fill-opacity:1.00" />
<!-- End 'C' -->
<!-- Begin 'T' -->
<rect height="0.796770" width="50.000000" x="690.000000" y="101.515142" fill="rgb(0, 100, 0)" style="fill-opacity:1.00" />
<rect height="4.979810" width="10.000000" x="710.000000" y="101.515142" fill="rgb(0, 100, 0)" style="fill-opacity:1.00" />
<!-- End 'T' -->
<!-- Begin 'A' -->
<polygon points=" 690.000000, 109.281505, 711.000000, 106.494952, 719.000000, 106.494952, 740.000000, 109.281505, 732.500000, 109.281505, 726.250000, 108.584867, 703.750000, 108.584867, 697.500000, 109.281505" fill="rgb(178, 34, 34)" style="fill-opacity:1.00" />
<!-- End 'A' -->
<!-- Begin 'G' -->
<ellipse cx="715.000000" cy="109.640752" rx="25.000000" ry="0.359248" fill="rgb(255, 165, 0)" style="fill-opacity:1.00" />
<ellipse cx="715.000000" cy="109.640752" rx="16.666667" ry="0.239498" fill="rgb(255, 255, 255)" style="fill-opacity:1.00" />
<rect height="0.359248" width="25.000000" x="715.000000" y="109.461129" fill="rgb(255, 255, 255)" style="fill-opacity:1.00" />
<rect height="0.089812" width="25.000000" x="715.000000" y="109.730564" fill="rgb(255, 165, 0)" style="fill-opacity:1.00" />
<rect height="0.269436" width="6.250000" x="733.750000" y="109.730564" fill="rgb(255, 165, 0)" style="fill-opacity:1.00" />
<!-- End 'G' -->
<!-- Begin 'A' -->
<polygon points=" 750.000000, 103.573438, 771.000000, 38.578970, 779.000000, 38.578970, 800.000000, 103.573438, 792.500000, 103.573438, 786.250000, 87.324821, 763.750000, 87.324821, 757.500000, 103.573438" fill="rgb(178, 34, 34)" style="fill-opacity:1.00" />
<polygon points=" 775.000000, 51.577864, 767.000000, 76.575651, 782.000000, 76.575651" fill="rgb(255, 255, 255)" style="fill-opacity:1.00" />
<!-- End 'A' -->
<!-- Begin 'C' -->
<ellipse cx="775.000000" cy="105.070689" rx="25.000000" ry="1.497250" fill="rgb(0, 0, 128)" style="fill-opacity:1.00" />
<ellipse cx="775.000000" cy="105.070689" rx="16.666667" ry="0.998167" fill="rgb(255, 255, 255)" style="fill-opacity:1.00" />
<rect height="1.497250" width="25.000000" x="775.000000" y="104.322063" fill="rgb(255, 255, 255)" style="fill-opacity:1.00" />
<!-- End 'C' -->
<!-- Begin 'G' -->
<ellipse cx="775.000000" cy="107.657787" rx="25.000000" ry="1.089848" fill="rgb(255, 165, 0)" style="fill-opacity:1.00" />
<ellipse cx="775.000000" cy="107.657787" rx="16.666667" ry="0.726565" fill="rgb(255, 255, 255)" style="fill-opacity:1.00" />
<rect height="1.089848" width="25.000000" x="775.000000" y="107.112863" fill="rgb(255, 255, 255)" style="fill-opacity:1.00" />
<rect height="0.272462" width="25.000000" x="775.000000" y="107.930249" fill="rgb(255, 165, 0)" style="fill-opacity:1.00" />
<rect height="0.817386" width="6.250000" x="793.750000" y="107.930249" fill="rgb(255, 165, 0)" style="fill-opacity:1.00" />
<!-- End 'G' -->
<!-- Begin 'T' -->
<rect height="0.200378" width="50.000000" x="750.000000" y="108.747635" fill="rgb(0, 100, 0)" style="fill-opacity:1.00" />
<rect height="1.252365" width="10.000000" x="770.000000" y="108.747635" fill="rgb(0, 100, 0)" style="fill-opacity:1.00" />
<!-- End 'T' -->
<!-- Begin 'G' -->
<ellipse cx="835.000000" cy="97.924750" rx="25.000000" ry="3.826390" fill="rgb(255, 165, 0)" style="fill-opacity:1.00" />
<ellipse cx="835.000000" cy="97.924750" rx="16.666667" ry="2.550927" fill="rgb(255, 255, 255)" style="fill-opacity:1.00" />
<rect height="3.826390" width="25.000000" x="835.000000" y="96.011555" fill="rgb(255, 255, 255)" style="fill-opacity:1.00" />
<rect height="0.956597" width="25.000000" x="835.000000" y="98.881348" fill="rgb(255, 165, 0)" style="fill-opacity:1.00" />
<rect height="2.869792" width="6.250000" x="853.750000" y="98.881348" fill="rgb(255, 165, 0)" style="fill-opacity:1.00" />
<!-- End 'G' -->
<!-- Begin 'T' -->
<rect height="0.781917" width="50.000000" x="810.000000" y="101.751140" fill="rgb(0, 100, 0)" style="fill-opacity:1.00" />
<rect height="4.886980" width="10.000000" x="830.000000" y="101.751140" fill="rgb(0, 100, 0)" style="fill-opacity:1.00" />
<!-- End 'T' -->
<!-- Begin 'C' -->
<ellipse cx="835.000000" cy="107.869592" rx="25.000000" ry="1.231472" fill="rgb(0, 0, 128)" style="fill-opacity:1.00" />
<ellipse cx="835.000000" cy="107.869592" rx="16.666667" ry="0.820982" fill="rgb(255, 255, 255)" style="fill-opacity:1.00" />
<rect height="1.231472" width="25.000000" x="835.000000" y="107.253856" fill="rgb(255, 255, 255)" style="fill-opacity:1.00" />
<!-- End 'C' -->
<!-- Begin 'A' -->
<polygon points=" 810.000000, 110.000000, 831.000000, 109.101064, 839.000000, 109.101064, 860.000000, 110.000000, 852.500000, 110.000000, 846.250000, 109.775266, 823.750000, 109.775266, 817.500000, 110.000000" fill="rgb(178, 34, 34)" style="fill-opacity:1.00" />
<!-- End 'A' -->
<!-- Begin 'C' -->
<ellipse cx="895.000000" cy="92.303561" rx="25.000000" ry="8.437494" fill="rgb(0, 0, 128)" style="fill-opacity:1.00" />
<ellipse cx="895.000000" cy="92.303561" rx="16.666667" ry="5.624996" fill="rgb(255, 255, 255)" style="fill-opacity:1.00" />
<rect height="8.437494" width="25.000000" x="895.000000" y="88.084814" fill="rgb(255, 255, 255)" style="fill-opacity:1.00" />
<!-- End 'C' -->
<!-- Begin 'G' -->
<ellipse cx="895.000000" cy="102.606276" rx="25.000000" ry="1.865222" fill="rgb(255, 165, 0)" style="fill-opacity:1.00" />
<ellipse cx="895.000000" cy="102.606276" rx="16.666667" ry="1.243481" fill="rgb(255, 255, 255)" style="fill-opacity:1.00" />
<rect height="1.865222" width="25.000000" x="895.000000" y="101.673665" fill="rgb(255, 255, 255)" style="fill-opacity:1.00" />
<rect height="0.466305" width="25.000000" x="895.000000" y="103.072582" fill="rgb(255, 165, 0)" style="fill-opacity:1.00" />
<rect height="1.398916" width="6.250000" x="913.750000" y="103.072582" fill="rgb(255, 165, 0)" style="fill-opacity:1.00" />
<!-- End 'G' -->
<!-- Begin 'T' -->
<rect height="0.587038" width="50.000000" x="870.000000" y="104.471498" fill="rgb(0, 100, 0)" style="fill-opacity:1.00" />
<rect height="3.668987" width="10.000000" x="890.000000" y="104.471498" fill="rgb(0, 100, 0)" style="fill-opacity:1.00" />
<!-- End 'T' -->
<!-- Begin 'A' -->
<polygon points=" 870.000000, 110.000000, 891.000000, 108.140485, 899.000000, 108.140485, 920.000000, 110.000000, 912.500000, 110.000000, 906.250000, 109.535121, 883.750000, 109.535121, 877.500000, 110.000000" fill="rgb(178, 34, 34)" style="fill-opacity:1.00" />
<!-- End 'A' -->
<!-- Begin 'A' -->
<polygon points=" 930.000000, 104.292251, 951.000000, 98.168274, 959.000000, 98.168274, 980.000000, 104.292251, 972.500000, 104.292251, 966.250000, 102.761257, 943.750000, 102.761257, 937.500000, 104.292251" fill="rgb(178, 34, 34)" style="fill-opacity:1.00" />
<!-- End 'A' -->
<!-- Begin 'C' -->
<ellipse cx="955.000000" cy="105.275702" rx="25.000000" ry="0.983451" fill="rgb(0, 0, 128)" style="fill-opacity:1.00" />
<ellipse cx="955.000000" cy="105.275702" rx="16.666667" ry="0.655634" fill="rgb(255, 255, 255)" style="fill-opacity:1.00" />
<rect height="0.983451" width="25.000000" x="955.000000" y="104.783976" fill="rgb(255, 255, 255)" style="fill-opacity:1.00" />
<!-- End 'C' -->
<!-- Begin 'T' -->
<rect height="0.306851" width="50.000000" x="930.000000" y="106.259153" fill="rgb(0, 100, 0)" style="fill-opacity:1.00" />
<rect height="1.917816" width="10.000000" x="950.000000" y="106.259153" fill="rgb(0, 100, 0)" style="fill-opacity:1.00" />
<!-- End 'T' -->
<!-- Begin 'G' -->
<ellipse cx="955.000000" cy="109.088485" rx="25.000000" ry="0.911515" fill="rgb(255, 165, 0)" style="fill-opacity:1.00" />
<ellipse cx="955.000000" cy="109.088485" rx="16.666667" ry="0.607677" fill="rgb(255, 255, 255)" style="fill-opacity:1.00" />
<rect height="0.911515" width="25.000000" x="955.000000" y="108.632727" fill="rgb(255, 255, 255)" style="fill-opacity:1.00" />
<rect height="0.227879" width="25.000000" x="955.000000" y="109.316363" fill="rgb(255, 165, 0)" style="fill-opacity:1.00" />
<rect height="0.683637" width="6.250000" x="973.750000" y="109.316363" fill="rgb(255, 165, 0)" style="fill-opacity:1.00" />
<!-- End 'G' -->
<text x="520.000000" y="165">
IC = 11.99
</text>

</svg>
