<?xml version="1.0" encoding="UTF-8" standalone="yes"?>
                 <!DOCTYPE svg PUBLIC "-//W3C//DTD SVG 1.0//EN" "http://www.w3.org/TR/2001/REC-SVG-20010904/DTD/svg10.dtd">
                 <svg height="170" width="780" xmlns="http://www.w3.org/2000/svg" xmlns:xlink="http://www.w3.org/1999/xlink">
                 <line x1="85" y1="120" x2="747" y2="120" style="stroke:rgb(99,99,99);stroke-width:2" />
<rect height="7.000000" width="2.000000" x="85.000000" y="120.000000" fill="rgb(0, 0, 0)" style="fill-opacity:1.00" />
<text x="107.000000" y="140">
1
</text>
<rect height="7.000000" width="2.000000" x="145.000000" y="120.000000" fill="rgb(0, 0, 0)" style="fill-opacity:1.00" />
<text x="167.000000" y="140">
2
</text>
<rect height="7.000000" width="2.000000" x="205.000000" y="120.000000" fill="rgb(0, 0, 0)" style="fill-opacity:1.00" />
<text x="227.000000" y="140">
3
</text>
<rect height="7.000000" width="2.000000" x="265.000000" y="120.000000" fill="rgb(0, 0, 0)" style="fill-opacity:1.00" />
<text x="287.000000" y="140">
4
</text>
<rect height="7.000000" width="2.000000" x="325.000000" y="120.000000" fill="rgb(0, 0, 0)" style="fill-opacity:1.00" />
<text x="347.000000" y="140">
5
</text>
<rect height="7.000000" width="2.000000" x="385.000000" y="120.000000" fill="rgb(0, 0, 0)" style="fill-opacity:1.00" />
<text x="407.000000" y="140">
6
</text>
<rect height="7.000000" width="2.000000" x="445.000000" y="120.000000" fill="rgb(0, 0, 0)" style="fill-opacity:1.00" />
<text x="467.000000" y="140">
7
</text>
<rect height="7.000000" width="2.000000" x="505.000000" y="120.000000" fill="rgb(0, 0, 0)" style="fill-opacity:1.00" />
<text x="527.000000" y="140">
8
</text>
<rect height="7.000000" width="2.000000" x="565.000000" y="120.000000" fill="rgb(0, 0, 0)" style="fill-opacity:1.00" />
<text x="587.000000" y="140">
9
</text>
<rect height="7.000000" width="2.000000" x="625.000000" y="120.000000" fill="rgb(0, 0, 0)" style="fill-opacity:1.00" />
<text x="647.000000" y="140">
10
</text>
<rect height="7.000000" width="2.000000" x="685.000000" y="120.000000" fill="rgb(0, 0, 0)" style="fill-opacity:1.00" />
<text x="707.000000" y="140">
11
</text>
<rect height="7.000000" width="2.000000" x="745.000000" y="120.000000" fill="rgb(0, 0, 0)" style="fill-opacity:1.00" />
<line x1="80" y1="112" x2="80" y2="10" style="stroke:rgb(99,99,99);stroke-width:2" />
<rect height="2.000000" width="7.000000" x="73.000000" y="110.000000" fill="rgb(0, 0, 0)" style="fill-opacity:1.00" />
<text x="63" y="115">
0
</text>
<rect height="2.000000" width="7.000000" x="73.000000" y="60.000000" fill="rgb(0, 0, 0)" style="fill-opacity:1.00" />
<text x="63" y="65">
1
</text>
<rect height="2.000000" width="7.000000" x="73.000000" y="10.000000" fill="rgb(0, 0, 0)" style="fill-opacity:1.00" />
<text x="63" y="15">
2
</text>
<text x="50" y="65"
transform="rotate(-90, 50, 70)">
bits
</text>
<!-- Begin 'A' -->
<polygon points=" 90.000000, 105.769607, 111.000000, 102.743093, 119.000000, 102.743093, 140.000000, 105.769607, 132.500000, 105.769607, 126.250000, 105.012979, 103.750000, 105.012979, 97.500000, 105.769607" fill="rgb(178, 34, 34)" style="fill-opacity:1.00" />
<!-- End 'A' -->
<!-- Begin 'T' -->
<rect height="0.337793" width="50.000000" x="90.000000" y="105.769607" fill="rgb(0, 100, 0)" style="fill-opacity:1.00" />
<rect height="2.111205" width="10.000000" x="110.000000" y="105.769607" fill="rgb(0, 100, 0)" style="fill-opacity:1.00" />
<!-- End 'T' -->
<!-- Begin 'C' -->
<ellipse cx="115.000000" cy="108.425351" rx="25.000000" ry="0.544539" fill="rgb(0, 0, 128)" style="fill-opacity:1.00" />
<ellipse cx="115.000000" cy="108.425351" rx="16.666667" ry="0.363026" fill="rgb(255, 255, 255)" style="fill-opacity:1.00" />
<rect height="0.544539" width="25.000000" x="115.000000" y="108.153081" fill="rgb(255, 255, 255)" style="fill-opacity:1.00" />
<!-- End 'C' -->
<!-- Begin 'G' -->
<ellipse cx="115.000000" cy="109.484945" rx="25.000000" ry="0.515055" fill="rgb(255, 165, 0)" style="fill-opacity:1.00" />
<ellipse cx="115.000000" cy="109.484945" rx="16.666667" ry="0.343370" fill="rgb(255, 255, 255)" style="fill-opacity:1.00" />
<rect height="0.515055" width="25.000000" x="115.000000" y="109.227417" fill="rgb(255, 255, 255)" style="fill-opacity:1.00" />
<rect height="0.128764" width="25.000000" x="115.000000" y="109.613709" fill="rgb(255, 165, 0)" style="fill-opacity:1.00" />
<rect height="0.386291" width="6.250000" x="133.750000" y="109.613709" fill="rgb(255, 165, 0)" style="fill-opacity:1.00" />
<!-- End 'G' -->
<!-- Begin 'A' -->
<polygon points=" 150.000000, 106.744357, 171.000000, 105.134388, 179.000000, 105.134388, 200.000000, 106.744357, 192.500000, 106.744357, 186.250000, 106.341865, 163.750000, 106.341865, 157.500000, 106.744357" fill="rgb(178, 34, 34)" style="fill-opacity:1.00" />
<!-- End 'A' -->
<!-- Begin 'T' -->
<rect height="0.250012" width="50.000000" x="150.000000" y="106.744357" fill="rgb(0, 100, 0)" style="fill-opacity:1.00" />
<rect height="1.562573" width="10.000000" x="170.000000" y="106.744357" fill="rgb(0, 100, 0)" style="fill-opacity:1.00" />
<!-- End 'T' -->
<!-- Begin 'G' -->
<ellipse cx="175.000000" cy="108.873735" rx="25.000000" ry="0.566805" fill="rgb(255, 165, 0)" style="fill-opacity:1.00" />
<ellipse cx="175.000000" cy="108.873735" rx="16.666667" ry="0.377870" fill="rgb(255, 255, 255)" style="fill-opacity:1.00" />
<rect height="0.566805" width="25.000000" x="175.000000" y="108.590333" fill="rgb(255, 255, 255)" style="fill-opacity:1.00" />
<rect height="0.141701" width="25.000000" x="175.000000" y="109.015436" fill="rgb(255, 165, 0)" style="fill-opacity:1.00" />
<rect height="0.425104" width="6.250000" x="193.750000" y="109.015436" fill="rgb(255, 165, 0)" style="fill-opacity:1.00" />
<!-- End 'G' -->
<!-- Begin 'C' -->
<ellipse cx="175.000000" cy="109.720270" rx="25.000000" ry="0.279730" fill="rgb(0, 0, 128)" style="fill-opacity:1.00" />
<ellipse cx="175.000000" cy="109.720270" rx="16.666667" ry="0.186487" fill="rgb(255, 255, 255)" style="fill-opacity:1.00" />
<rect height="0.279730" width="25.000000" x="175.000000" y="109.580405" fill="rgb(255, 255, 255)" style="fill-opacity:1.00" />
<!-- End 'C' -->
<!-- Begin 'T' -->
<rect height="1.702278" width="50.000000" x="210.000000" y="90.130939" fill="rgb(0, 100, 0)" style="fill-opacity:1.00" />
<rect height="10.639237" width="10.000000" x="230.000000" y="90.130939" fill="rgb(0, 100, 0)" style="fill-opacity:1.00" />
<!-- End 'T' -->
<!-- Begin 'C' -->
<ellipse cx="235.000000" cy="103.334295" rx="25.000000" ry="2.564119" fill="rgb(0, 0, 128)" style="fill-opacity:1.00" />
<ellipse cx="235.000000" cy="103.334295" rx="16.666667" ry="1.709413" fill="rgb(255, 255, 255)" style="fill-opacity:1.00" />
<rect height="2.564119" width="25.000000" x="235.000000" y="102.052235" fill="rgb(255, 255, 255)" style="fill-opacity:1.00" />
<!-- End 'C' -->
<!-- Begin 'A' -->
<polygon points=" 210.000000, 109.210496, 231.000000, 105.898414, 239.000000, 105.898414, 260.000000, 109.210496, 252.500000, 109.210496, 246.250000, 108.382476, 223.750000, 108.382476, 217.500000, 109.210496" fill="rgb(178, 34, 34)" style="fill-opacity:1.00" />
<!-- End 'A' -->
<!-- Begin 'G' -->
<ellipse cx="235.000000" cy="109.605248" rx="25.000000" ry="0.394752" fill="rgb(255, 165, 0)" style="fill-opacity:1.00" />
<ellipse cx="235.000000" cy="109.605248" rx="16.666667" ry="0.263168" fill="rgb(255, 255, 255)" style="fill-opacity:1.00" />
<rect height="0.394752" width="25.000000" x="235.000000" y="109.407872" fill="rgb(255, 255, 255)" style="fill-opacity:1.00" />
<rect height="0.098688" width="25.000000" x="235.000000" y="109.703936" fill="rgb(255, 165, 0)" style="fill-opacity:1.00" />
<rect height="0.296064" width="6.250000" x="253.750000" y="109.703936" fill="rgb(255, 165, 0)" style="fill-opacity:1.00" />
<!-- End 'G' -->
<!-- Begin 'A' -->
<polygon points=" 270.000000, 99.417155, 291.000000, 55.668729, 299.000000, 55.668729, 320.000000, 99.417155, 312.500000, 99.417155, 306.250000, 88.480049, 283.750000, 88.480049, 277.500000, 99.417155" fill="rgb(178, 34, 34)" style="fill-opacity:1.00" />
<polygon points=" 295.000000, 64.418414, 287.000000, 80.917785, 302.000000, 80.917785" fill="rgb(255, 255, 255)" style="fill-opacity:1.00" />
<!-- End 'A' -->
<!-- Begin 'C' -->
<ellipse cx="295.000000" cy="103.329086" rx="25.000000" ry="3.911930" fill="rgb(0, 0, 128)" style="fill-opacity:1.00" />
<ellipse cx="295.000000" cy="103.329086" rx="16.666667" ry="2.607954" fill="rgb(255, 255, 255)" style="fill-opacity:1.00" />
<rect height="3.911930" width="25.000000" x="295.000000" y="101.373120" fill="rgb(255, 255, 255)" style="fill-opacity:1.00" />
<!-- End 'C' -->
<!-- Begin 'T' -->
<rect height="0.333448" width="50.000000" x="270.000000" y="107.241016" fill="rgb(0, 100, 0)" style="fill-opacity:1.00" />
<rect height="2.084052" width="10.000000" x="290.000000" y="107.241016" fill="rgb(0, 100, 0)" style="fill-opacity:1.00" />
<!-- End 'T' -->
<!-- Begin 'G' -->
<ellipse cx="295.000000" cy="109.662534" rx="25.000000" ry="0.337466" fill="rgb(255, 165, 0)" style="fill-opacity:1.00" />
<ellipse cx="295.000000" cy="109.662534" rx="16.666667" ry="0.224977" fill="rgb(255, 255, 255)" style="fill-opacity:1.00" />
<rect height="0.337466" width="25.000000" x="295.000000" y="109.493801" fill="rgb(255, 255, 255)" style="fill-opacity:1.00" />
<rect height="0.084367" width="25.000000" x="295.000000" y="109.746900" fill="rgb(255, 165, 0)" style="fill-opacity:1.00" />
<rect height="0.253100" width="6.250000" x="313.750000" y="109.746900" fill="rgb(255, 165, 0)" style="fill-opacity:1.00" />
<!-- End 'G' -->
<!-- Begin 'A' -->
<polygon points=" 330.000000, 91.785049, 351.000000, 60.291491, 359.000000, 60.291491, 380.000000, 91.785049, 372.500000, 91.785049, 366.250000, 83.911660, 343.750000, 83.911660, 337.500000, 91.785049" fill="rgb(178, 34, 34)" style="fill-opacity:1.00" />
<polygon points=" 355.000000, 66.590202, 347.000000, 78.187626, 362.000000, 78.187626" fill="rgb(255, 255, 255)" style="fill-opacity:1.00" />
<!-- End 'A' -->
<!-- Begin 'T' -->
<rect height="2.853299" width="50.000000" x="330.000000" y="91.785049" fill="rgb(0, 100, 0)" style="fill-opacity:1.00" />
<rect height="17.833118" width="10.000000" x="350.000000" y="91.785049" fill="rgb(0, 100, 0)" style="fill-opacity:1.00" />
<!-- End 'T' -->
<!-- Begin 'G' -->
<ellipse cx="355.000000" cy="109.785556" rx="25.000000" ry="0.167389" fill="rgb(255, 165, 0)" style="fill-opacity:1.00" />
<ellipse cx="355.000000" cy="109.785556" rx="16.666667" ry="0.111592" fill="rgb(255, 255, 255)" style="fill-opacity:1.00" />
<rect height="0.167389" width="25.000000" x="355.000000" y="109.701861" fill="rgb(255, 255, 255)" style="fill-opacity:1.00" />
<rect height="0.041847" width="25.000000" x="355.000000" y="109.827403" fill="rgb(255, 165, 0)" style="fill-opacity:1.00" />
<rect height="0.125542" width="6.250000" x="373.750000" y="109.827403" fill="rgb(255, 165, 0)" style="fill-opacity:1.00" />
<!-- End 'G' -->
<!-- Begin 'C' -->
<ellipse cx="355.000000" cy="109.976472" rx="25.000000" ry="0.023528" fill="rgb(0, 0, 128)" style="fill-opacity:1.00" />
<ellipse cx="355.000000" cy="109.976472" rx="16.666667" ry="0.015685" fill="rgb(255, 255, 255)" style="fill-opacity:1.00" />
<rect height="0.023528" width="25.000000" x="355.000000" y="109.964708" fill="rgb(255, 255, 255)" style="fill-opacity:1.00" />
<!-- End 'C' -->
<!-- Begin 'T' -->
<rect height="15.152276" width="50.000000" x="390.000000" y="14.387507" fill="rgb(0, 100, 0)" style="fill-opacity:1.00" />
<rect height="94.701723" width="10.000000" x="410.000000" y="14.387507" fill="rgb(0, 100, 0)" style="fill-opacity:1.00" />
<!-- End 'T' -->
<!-- Begin 'A' -->
<polygon points=" 390.000000, 109.694191, 411.000000, 109.089230, 419.000000, 109.089230, 440.000000, 109.694191, 432.500000, 109.694191, 426.250000, 109.542951, 403.750000, 109.542951, 397.500000, 109.694191" fill="rgb(178, 34, 34)" style="fill-opacity:1.00" />
<!-- End 'A' -->
<!-- Begin 'C' -->
<ellipse cx="415.000000" cy="109.834014" rx="25.000000" ry="0.139822" fill="rgb(0, 0, 128)" style="fill-opacity:1.00" />
<ellipse cx="415.000000" cy="109.834014" rx="16.666667" ry="0.093215" fill="rgb(255, 255, 255)" style="fill-opacity:1.00" />
<rect height="0.139822" width="25.000000" x="415.000000" y="109.764103" fill="rgb(255, 255, 255)" style="fill-opacity:1.00" />
<!-- End 'C' -->
<!-- Begin 'G' -->
<ellipse cx="415.000000" cy="109.986918" rx="25.000000" ry="0.013082" fill="rgb(255, 165, 0)" style="fill-opacity:1.00" />
<ellipse cx="415.000000" cy="109.986918" rx="16.666667" ry="0.008721" fill="rgb(255, 255, 255)" style="fill-opacity:1.00" />
<rect height="0.013082" width="25.000000" x="415.000000" y="109.980377" fill="rgb(255, 255, 255)" style="fill-opacity:1.00" />
<rect height="0.003271" width="25.000000" x="415.000000" y="109.990188" fill="rgb(255, 165, 0)" style="fill-opacity:1.00" />
<rect height="0.009812" width="6.250000" x="433.750000" y="109.990188" fill="rgb(255, 165, 0)" style="fill-opacity:1.00" />
<!-- End 'G' -->
<!-- Begin 'T' -->
<rect height="4.816631" width="50.000000" x="450.000000" y="64.624607" fill="rgb(0, 100, 0)" style="fill-opacity:1.00" />
<rect height="30.103945" width="10.000000" x="470.000000" y="64.624607" fill="rgb(0, 100, 0)" style="fill-opacity:1.00" />
<!-- End 'T' -->
<!-- Begin 'A' -->
<polygon points=" 450.000000, 108.687480, 471.000000, 94.728552, 479.000000, 94.728552, 500.000000, 108.687480, 492.500000, 108.687480, 486.250000, 105.197748, 463.750000, 105.197748, 457.500000, 108.687480" fill="rgb(178, 34, 34)" style="fill-opacity:1.00" />
<polygon points=" 475.000000, 97.520338, 467.000000, 102.103909, 482.000000, 102.103909" fill="rgb(255, 255, 255)" style="fill-opacity:1.00" />
<!-- End 'A' -->
<!-- Begin 'G' -->
<ellipse cx="475.000000" cy="109.048828" rx="25.000000" ry="0.361349" fill="rgb(255, 165, 0)" style="fill-opacity:1.00" />
<ellipse cx="475.000000" cy="109.048828" rx="16.666667" ry="0.240899" fill="rgb(255, 255, 255)" style="fill-opacity:1.00" />
<rect height="0.361349" width="25.000000" x="475.000000" y="108.868154" fill="rgb(255, 255, 255)" style="fill-opacity:1.00" />
<rect height="0.090337" width="25.000000" x="475.000000" y="109.139165" fill="rgb(255, 165, 0)" style="fill-opacity:1.00" />
<rect height="0.271011" width="6.250000" x="493.750000" y="109.139165" fill="rgb(255, 165, 0)" style="fill-opacity:1.00" />
<!-- End 'G' -->
<!-- Begin 'C' -->
<ellipse cx="475.000000" cy="109.705088" rx="25.000000" ry="0.294912" fill="rgb(0, 0, 128)" style="fill-opacity:1.00" />
<ellipse cx="475.000000" cy="109.705088" rx="16.666667" ry="0.196608" fill="rgb(255, 255, 255)" style="fill-opacity:1.00" />
<rect height="0.294912" width="25.000000" x="475.000000" y="109.557632" fill="rgb(255, 255, 255)" style="fill-opacity:1.00" />
<!-- End 'C' -->
<!-- Begin 'A' -->
<polygon points=" 510.000000, 108.589721, 531.000000, 16.853413, 539.000000, 16.853413, 560.000000, 108.589721, 552.500000, 108.589721, 546.250000, 85.655644, 523.750000, 85.655644, 517.500000, 108.589721" fill="rgb(178, 34, 34)" style="fill-opacity:1.00" />
<polygon points=" 535.000000, 35.200675, 527.000000, 70.895198, 542.000000, 70.895198" fill="rgb(255, 255, 255)" style="fill-opacity:1.00" />
<!-- End 'A' -->
<!-- Begin 'G' -->
<ellipse cx="535.000000" cy="108.862344" rx="25.000000" ry="0.272624" fill="rgb(255, 165, 0)" style="fill-opacity:1.00" />
<ellipse cx="535.000000" cy="108.862344" rx="16.666667" ry="0.181749" fill="rgb(255, 255, 255)" style="fill-opacity:1.00" />
<rect height="0.272624" width="25.000000" x="535.000000" y="108.726033" fill="rgb(255, 255, 255)" style="fill-opacity:1.00" />
<rect height="0.068156" width="25.000000" x="535.000000" y="108.930500" fill="rgb(255, 165, 0)" style="fill-opacity:1.00" />
<rect height="0.204468" width="6.250000" x="553.750000" y="108.930500" fill="rgb(255, 165, 0)" style="fill-opacity:1.00" />
<!-- End 'G' -->
<!-- Begin 'C' -->
<ellipse cx="535.000000" cy="109.351427" rx="25.000000" ry="0.216458" fill="rgb(0, 0, 128)" style="fill-opacity:1.00" />
<ellipse cx="535.000000" cy="109.351427" rx="16.666667" ry="0.144306" fill="rgb(255, 255, 255)" style="fill-opacity:1.00" />
<rect height="0.216458" width="25.000000" x="535.000000" y="109.243197" fill="rgb(255, 255, 255)" style="fill-opacity:1.00" />
<!-- End 'C' -->
<!-- Begin 'T' -->
<rect height="0.069138" width="50.000000" x="510.000000" y="109.567885" fill="rgb(0, 100, 0)" style="fill-opacity:1.00" />
<rect height="0.432115" width="10.000000" x="530.000000" y="109.567885" fill="rgb(0, 100, 0)" style="fill-opacity:1.00" />
<!-- End 'T' -->
<!-- Begin 'A' -->
<polygon points=" 570.000000, 96.932378, 591.000000, 69.476916, 599.000000, 69.476916, 620.000000, 96.932378, 612.500000, 96.932378, 606.250000, 90.068513, 583.750000, 90.068513, 577.500000, 96.932378" fill="rgb(178, 34, 34)" style="fill-opacity:1.00" />
<polygon points=" 595.000000, 74.968009, 587.000000, 84.950194, 602.000000, 84.950194" fill="rgb(255, 255, 255)" style="fill-opacity:1.00" />
<!-- End 'A' -->
<!-- Begin 'T' -->
<rect height="1.700497" width="50.000000" x="570.000000" y="96.932378" fill="rgb(0, 100, 0)" style="fill-opacity:1.00" />
<rect height="10.628106" width="10.000000" x="590.000000" y="96.932378" fill="rgb(0, 100, 0)" style="fill-opacity:1.00" />
<!-- End 'T' -->
<!-- Begin 'C' -->
<ellipse cx="595.000000" cy="108.289425" rx="25.000000" ry="0.728941" fill="rgb(0, 0, 128)" style="fill-opacity:1.00" />
<ellipse cx="595.000000" cy="108.289425" rx="16.666667" ry="0.485961" fill="rgb(255, 255, 255)" style="fill-opacity:1.00" />
<rect height="0.728941" width="25.000000" x="595.000000" y="107.924955" fill="rgb(255, 255, 255)" style="fill-opacity:1.00" />
<!-- End 'C' -->
<!-- Begin 'G' -->
<ellipse cx="595.000000" cy="109.509183" rx="25.000000" ry="0.490817" fill="rgb(255, 165, 0)" style="fill-opacity:1.00" />
<ellipse cx="595.000000" cy="109.509183" rx="16.666667" ry="0.327211" fill="rgb(255, 255, 255)" style="fill-opacity:1.00" />
<rect height="0.490817" width="25.000000" x="595.000000" y="109.263775" fill="rgb(255, 255, 255)" style="fill-opacity:1.00" />
<rect height="0.122704" width="25.000000" x="595.000000" y="109.631887" fill="rgb(255, 165, 0)" style="fill-opacity:1.00" />
<rect height="0.368113" width="6.250000" x="613.750000" y="109.631887" fill="rgb(255, 165, 0)" style="fill-opacity:1.00" />
<!-- End 'G' -->
<!-- Begin 'T' -->
<rect height="5.483435" width="50.000000" x="630.000000" y="65.318339" fill="rgb(0, 100, 0)" style="fill-opacity:1.00" />
<rect height="34.271466" width="10.000000" x="650.000000" y="65.318339" fill="rgb(0, 100, 0)" style="fill-opacity:1.00" />
<!-- End 'T' -->
<!-- Begin 'A' -->
<polygon points=" 630.000000, 104.723741, 651.000000, 99.589805, 659.000000, 99.589805, 680.000000, 104.723741, 672.500000, 104.723741, 666.250000, 103.440257, 643.750000, 103.440257, 637.500000, 104.723741" fill="rgb(178, 34, 34)" style="fill-opacity:1.00" />
<!-- End 'A' -->
<!-- Begin 'G' -->
<ellipse cx="655.000000" cy="106.775734" rx="25.000000" ry="2.051994" fill="rgb(255, 165, 0)" style="fill-opacity:1.00" />
<ellipse cx="655.000000" cy="106.775734" rx="16.666667" ry="1.367996" fill="rgb(255, 255, 255)" style="fill-opacity:1.00" />
<rect height="2.051994" width="25.000000" x="655.000000" y="105.749737" fill="rgb(255, 255, 255)" style="fill-opacity:1.00" />
<rect height="0.512998" width="25.000000" x="655.000000" y="107.288733" fill="rgb(255, 165, 0)" style="fill-opacity:1.00" />
<rect height="1.538995" width="6.250000" x="673.750000" y="107.288733" fill="rgb(255, 165, 0)" style="fill-opacity:1.00" />
<!-- End 'G' -->
<!-- Begin 'C' -->
<ellipse cx="655.000000" cy="109.413864" rx="25.000000" ry="0.586136" fill="rgb(0, 0, 128)" style="fill-opacity:1.00" />
<ellipse cx="655.000000" cy="109.413864" rx="16.666667" ry="0.390757" fill="rgb(255, 255, 255)" style="fill-opacity:1.00" />
<rect height="0.586136" width="25.000000" x="655.000000" y="109.120796" fill="rgb(255, 255, 255)" style="fill-opacity:1.00" />
<!-- End 'C' -->
<!-- Begin 'A' -->
<polygon points=" 690.000000, 101.974348, 711.000000, 98.032265, 719.000000, 98.032265, 740.000000, 101.974348, 732.500000, 101.974348, 726.250000, 100.988827, 703.750000, 100.988827, 697.500000, 101.974348" fill="rgb(178, 34, 34)" style="fill-opacity:1.00" />
<!-- End 'A' -->
<!-- Begin 'G' -->
<ellipse cx="715.000000" cy="103.888198" rx="25.000000" ry="1.913850" fill="rgb(255, 165, 0)" style="fill-opacity:1.00" />
<ellipse cx="715.000000" cy="103.888198" rx="16.666667" ry="1.275900" fill="rgb(255, 255, 255)" style="fill-opacity:1.00" />
<rect height="1.913850" width="25.000000" x="715.000000" y="102.931273" fill="rgb(255, 255, 255)" style="fill-opacity:1.00" />
<rect height="0.478463" width="25.000000" x="715.000000" y="104.366661" fill="rgb(255, 165, 0)" style="fill-opacity:1.00" />
<rect height="1.435388" width="6.250000" x="733.750000" y="104.366661" fill="rgb(255, 165, 0)" style="fill-opacity:1.00" />
<!-- End 'G' -->
<!-- Begin 'T' -->
<rect height="0.596893" width="50.000000" x="690.000000" y="105.802048" fill="rgb(0, 100, 0)" style="fill-opacity:1.00" />
<rect height="3.730578" width="10.000000" x="710.000000" y="105.802048" fill="rgb(0, 100, 0)" style="fill-opacity:1.00" />
<!-- End 'T' -->
<!-- Begin 'C' -->
<ellipse cx="715.000000" cy="109.766313" rx="25.000000" ry="0.233687" fill="rgb(0, 0, 128)" style="fill-opacity:1.00" />
<ellipse cx="715.000000" cy="109.766313" rx="16.666667" ry="0.155791" fill="rgb(255, 255, 255)" style="fill-opacity:1.00" />
<rect height="0.233687" width="25.000000" x="715.000000" y="109.649470" fill="rgb(255, 255, 255)" style="fill-opacity:1.00" />
<!-- End 'C' -->
<text x="400.000000" y="165">
IC = 9.35
</text>

</svg>
