<?xml version="1.0" encoding="UTF-8" standalone="yes"?>
                 <!DOCTYPE svg PUBLIC "-//W3C//DTD SVG 1.0//EN" "http://www.w3.org/TR/2001/REC-SVG-20010904/DTD/svg10.dtd">
                 <svg height="170" width="660" xmlns="http://www.w3.org/2000/svg" xmlns:xlink="http://www.w3.org/1999/xlink">
                 <line x1="85" y1="120" x2="627" y2="120" style="stroke:rgb(99,99,99);stroke-width:2" />
<rect height="7.000000" width="2.000000" x="85.000000" y="120.000000" fill="rgb(0, 0, 0)" style="fill-opacity:1.00" />
<text x="107.000000" y="140">
1
</text>
<rect height="7.000000" width="2.000000" x="145.000000" y="120.000000" fill="rgb(0, 0, 0)" style="fill-opacity:1.00" />
<text x="167.000000" y="140">
2
</text>
<rect height="7.000000" width="2.000000" x="205.000000" y="120.000000" fill="rgb(0, 0, 0)" style="fill-opacity:1.00" />
<text x="227.000000" y="140">
3
</text>
<rect height="7.000000" width="2.000000" x="265.000000" y="120.000000" fill="rgb(0, 0, 0)" style="fill-opacity:1.00" />
<text x="287.000000" y="140">
4
</text>
<rect height="7.000000" width="2.000000" x="325.000000" y="120.000000" fill="rgb(0, 0, 0)" style="fill-opacity:1.00" />
<text x="347.000000" y="140">
5
</text>
<rect height="7.000000" width="2.000000" x="385.000000" y="120.000000" fill="rgb(0, 0, 0)" style="fill-opacity:1.00" />
<text x="407.000000" y="140">
6
</text>
<rect height="7.000000" width="2.000000" x="445.000000" y="120.000000" fill="rgb(0, 0, 0)" style="fill-opacity:1.00" />
<text x="467.000000" y="140">
7
</text>
<rect height="7.000000" width="2.000000" x="505.000000" y="120.000000" fill="rgb(0, 0, 0)" style="fill-opacity:1.00" />
<text x="527.000000" y="140">
8
</text>
<rect height="7.000000" width="2.000000" x="565.000000" y="120.000000" fill="rgb(0, 0, 0)" style="fill-opacity:1.00" />
<text x="587.000000" y="140">
9
</text>
<rect height="7.000000" width="2.000000" x="625.000000" y="120.000000" fill="rgb(0, 0, 0)" style="fill-opacity:1.00" />
<line x1="80" y1="112" x2="80" y2="10" style="stroke:rgb(99,99,99);stroke-width:2" />
<rect height="2.000000" width="7.000000" x="73.000000" y="110.000000" fill="rgb(0, 0, 0)" style="fill-opacity:1.00" />
<text x="63" y="115">
0
</text>
<rect height="2.000000" width="7.000000" x="73.000000" y="60.000000" fill="rgb(0, 0, 0)" style="fill-opacity:1.00" />
<text x="63" y="65">
1
</text>
<rect height="2.000000" width="7.000000" x="73.000000" y="10.000000" fill="rgb(0, 0, 0)" style="fill-opacity:1.00" />
<text x="63" y="15">
2
</text>
<text x="50" y="65"
transform="rotate(-90, 50, 70)">
bits
</text>
<!-- Begin 'G' -->
<ellipse cx="115.000000" cy="108.957229" rx="25.000000" ry="0.190029" fill="rgb(255, 165, 0)" style="fill-opacity:1.00" />
<ellipse cx="115.000000" cy="108.957229" rx="16.666667" ry="0.126686" fill="rgb(255, 255, 255)" style="fill-opacity:1.00" />
<rect height="0.190029" width="25.000000" x="115.000000" y="108.862215" fill="rgb(255, 255, 255)" style="fill-opacity:1.00" />
<rect height="0.047507" width="25.000000" x="115.000000" y="109.004737" fill="rgb(255, 165, 0)" style="fill-opacity:1.00" />
<rect height="0.142522" width="6.250000" x="133.750000" y="109.004737" fill="rgb(255, 165, 0)" style="fill-opacity:1.00" />
<!-- End 'G' -->
<!-- Begin 'T' -->
<rect height="0.055636" width="50.000000" x="90.000000" y="109.147259" fill="rgb(0, 100, 0)" style="fill-opacity:1.00" />
<rect height="0.347727" width="10.000000" x="110.000000" y="109.147259" fill="rgb(0, 100, 0)" style="fill-opacity:1.00" />
<!-- End 'T' -->
<!-- Begin 'A' -->
<polygon points=" 90.000000, 109.752804, 111.000000, 109.494986, 119.000000, 109.494986, 140.000000, 109.752804, 132.500000, 109.752804, 126.250000, 109.688349, 103.750000, 109.688349, 97.500000, 109.752804" fill="rgb(178, 34, 34)" style="fill-opacity:1.00" />
<!-- End 'A' -->
<!-- Begin 'C' -->
<ellipse cx="115.000000" cy="109.876402" rx="25.000000" ry="0.123598" fill="rgb(0, 0, 128)" style="fill-opacity:1.00" />
<ellipse cx="115.000000" cy="109.876402" rx="16.666667" ry="0.082399" fill="rgb(255, 255, 255)" style="fill-opacity:1.00" />
<rect height="0.123598" width="25.000000" x="115.000000" y="109.814603" fill="rgb(255, 255, 255)" style="fill-opacity:1.00" />
<!-- End 'C' -->
<!-- Begin 'G' -->
<ellipse cx="175.000000" cy="100.674206" rx="25.000000" ry="2.574890" fill="rgb(255, 165, 0)" style="fill-opacity:1.00" />
<ellipse cx="175.000000" cy="100.674206" rx="16.666667" ry="1.716593" fill="rgb(255, 255, 255)" style="fill-opacity:1.00" />
<rect height="2.574890" width="25.000000" x="175.000000" y="99.386761" fill="rgb(255, 255, 255)" style="fill-opacity:1.00" />
<rect height="0.643722" width="25.000000" x="175.000000" y="101.317929" fill="rgb(255, 165, 0)" style="fill-opacity:1.00" />
<rect height="1.931167" width="6.250000" x="193.750000" y="101.317929" fill="rgb(255, 165, 0)" style="fill-opacity:1.00" />
<!-- End 'G' -->
<!-- Begin 'A' -->
<polygon points=" 150.000000, 107.062184, 171.000000, 103.249096, 179.000000, 103.249096, 200.000000, 107.062184, 192.500000, 107.062184, 186.250000, 106.108912, 163.750000, 106.108912, 157.500000, 107.062184" fill="rgb(178, 34, 34)" style="fill-opacity:1.00" />
<!-- End 'A' -->
<!-- Begin 'C' -->
<ellipse cx="175.000000" cy="108.103920" rx="25.000000" ry="1.041737" fill="rgb(0, 0, 128)" style="fill-opacity:1.00" />
<ellipse cx="175.000000" cy="108.103920" rx="16.666667" ry="0.694491" fill="rgb(255, 255, 255)" style="fill-opacity:1.00" />
<rect height="1.041737" width="25.000000" x="175.000000" y="107.583052" fill="rgb(255, 255, 255)" style="fill-opacity:1.00" />
<!-- End 'C' -->
<!-- Begin 'T' -->
<rect height="0.136695" width="50.000000" x="150.000000" y="109.145657" fill="rgb(0, 100, 0)" style="fill-opacity:1.00" />
<rect height="0.854343" width="10.000000" x="170.000000" y="109.145657" fill="rgb(0, 100, 0)" style="fill-opacity:1.00" />
<!-- End 'T' -->
<!-- Begin 'C' -->
<ellipse cx="235.000000" cy="74.554328" rx="25.000000" ry="27.517286" fill="rgb(0, 0, 128)" style="fill-opacity:1.00" />
<ellipse cx="235.000000" cy="74.554328" rx="16.666667" ry="18.344857" fill="rgb(255, 255, 255)" style="fill-opacity:1.00" />
<rect height="27.517286" width="25.000000" x="235.000000" y="60.795685" fill="rgb(255, 255, 255)" style="fill-opacity:1.00" />
<!-- End 'C' -->
<!-- Begin 'G' -->
<ellipse cx="235.000000" cy="103.767535" rx="25.000000" ry="1.695921" fill="rgb(255, 165, 0)" style="fill-opacity:1.00" />
<ellipse cx="235.000000" cy="103.767535" rx="16.666667" ry="1.130614" fill="rgb(255, 255, 255)" style="fill-opacity:1.00" />
<rect height="1.695921" width="25.000000" x="235.000000" y="102.919575" fill="rgb(255, 255, 255)" style="fill-opacity:1.00" />
<rect height="0.423980" width="25.000000" x="235.000000" y="104.191516" fill="rgb(255, 165, 0)" style="fill-opacity:1.00" />
<rect height="1.271941" width="6.250000" x="253.750000" y="104.191516" fill="rgb(255, 165, 0)" style="fill-opacity:1.00" />
<!-- End 'G' -->
<!-- Begin 'T' -->
<rect height="0.423961" width="50.000000" x="210.000000" y="105.463456" fill="rgb(0, 100, 0)" style="fill-opacity:1.00" />
<rect height="2.649754" width="10.000000" x="230.000000" y="105.463456" fill="rgb(0, 100, 0)" style="fill-opacity:1.00" />
<!-- End 'T' -->
<!-- Begin 'A' -->
<polygon points=" 210.000000, 110.000000, 231.000000, 108.113211, 239.000000, 108.113211, 260.000000, 110.000000, 252.500000, 110.000000, 246.250000, 109.528303, 223.750000, 109.528303, 217.500000, 110.000000" fill="rgb(178, 34, 34)" style="fill-opacity:1.00" />
<!-- End 'A' -->
<!-- Begin 'A' -->
<polygon points=" 270.000000, 102.978571, 291.000000, 42.004200, 299.000000, 42.004200, 320.000000, 102.978571, 312.500000, 102.978571, 306.250000, 87.734978, 283.750000, 87.734978, 277.500000, 102.978571" fill="rgb(178, 34, 34)" style="fill-opacity:1.00" />
<polygon points=" 295.000000, 54.199074, 287.000000, 77.588823, 302.000000, 77.588823" fill="rgb(255, 255, 255)" style="fill-opacity:1.00" />
<!-- End 'A' -->
<!-- Begin 'G' -->
<ellipse cx="295.000000" cy="104.440689" rx="25.000000" ry="1.462118" fill="rgb(255, 165, 0)" style="fill-opacity:1.00" />
<ellipse cx="295.000000" cy="104.440689" rx="16.666667" ry="0.974745" fill="rgb(255, 255, 255)" style="fill-opacity:1.00" />
<rect height="1.462118" width="25.000000" x="295.000000" y="103.709630" fill="rgb(255, 255, 255)" style="fill-opacity:1.00" />
<rect height="0.365529" width="25.000000" x="295.000000" y="104.806218" fill="rgb(255, 165, 0)" style="fill-opacity:1.00" />
<rect height="1.096588" width="6.250000" x="313.750000" y="104.806218" fill="rgb(255, 165, 0)" style="fill-opacity:1.00" />
<!-- End 'G' -->
<!-- Begin 'T' -->
<rect height="0.366250" width="50.000000" x="270.000000" y="105.902806" fill="rgb(0, 100, 0)" style="fill-opacity:1.00" />
<rect height="2.289064" width="10.000000" x="290.000000" y="105.902806" fill="rgb(0, 100, 0)" style="fill-opacity:1.00" />
<!-- End 'T' -->
<!-- Begin 'C' -->
<ellipse cx="295.000000" cy="109.095935" rx="25.000000" ry="0.904065" fill="rgb(0, 0, 128)" style="fill-opacity:1.00" />
<ellipse cx="295.000000" cy="109.095935" rx="16.666667" ry="0.602710" fill="rgb(255, 255, 255)" style="fill-opacity:1.00" />
<rect height="0.904065" width="25.000000" x="295.000000" y="108.643903" fill="rgb(255, 255, 255)" style="fill-opacity:1.00" />
<!-- End 'C' -->
<!-- Begin 'G' -->
<ellipse cx="355.000000" cy="84.248285" rx="25.000000" ry="9.265856" fill="rgb(255, 165, 0)" style="fill-opacity:1.00" />
<ellipse cx="355.000000" cy="84.248285" rx="16.666667" ry="6.177237" fill="rgb(255, 255, 255)" style="fill-opacity:1.00" />
<rect height="9.265856" width="25.000000" x="355.000000" y="79.615357" fill="rgb(255, 255, 255)" style="fill-opacity:1.00" />
<rect height="2.316464" width="25.000000" x="355.000000" y="86.564749" fill="rgb(255, 165, 0)" style="fill-opacity:1.00" />
<rect height="6.949392" width="6.250000" x="373.750000" y="86.564749" fill="rgb(255, 165, 0)" style="fill-opacity:1.00" />
<!-- End 'G' -->
<!-- Begin 'C' -->
<ellipse cx="355.000000" cy="100.662085" rx="25.000000" ry="7.147944" fill="rgb(0, 0, 128)" style="fill-opacity:1.00" />
<ellipse cx="355.000000" cy="100.662085" rx="16.666667" ry="4.765296" fill="rgb(255, 255, 255)" style="fill-opacity:1.00" />
<rect height="7.147944" width="25.000000" x="355.000000" y="97.088113" fill="rgb(255, 255, 255)" style="fill-opacity:1.00" />
<!-- End 'C' -->
<!-- Begin 'T' -->
<rect height="0.302408" width="50.000000" x="330.000000" y="107.810029" fill="rgb(0, 100, 0)" style="fill-opacity:1.00" />
<rect height="1.890053" width="10.000000" x="350.000000" y="107.810029" fill="rgb(0, 100, 0)" style="fill-opacity:1.00" />
<!-- End 'T' -->
<!-- Begin 'A' -->
<polygon points=" 330.000000, 110.000000, 351.000000, 109.700082, 359.000000, 109.700082, 380.000000, 110.000000, 372.500000, 110.000000, 366.250000, 109.925020, 343.750000, 109.925020, 337.500000, 110.000000" fill="rgb(178, 34, 34)" style="fill-opacity:1.00" />
<!-- End 'A' -->
<!-- Begin 'G' -->
<ellipse cx="415.000000" cy="75.648303" rx="25.000000" ry="14.465439" fill="rgb(255, 165, 0)" style="fill-opacity:1.00" />
<ellipse cx="415.000000" cy="75.648303" rx="16.666667" ry="9.643626" fill="rgb(255, 255, 255)" style="fill-opacity:1.00" />
<rect height="14.465439" width="25.000000" x="415.000000" y="68.415584" fill="rgb(255, 255, 255)" style="fill-opacity:1.00" />
<rect height="3.616360" width="25.000000" x="415.000000" y="79.264663" fill="rgb(255, 165, 0)" style="fill-opacity:1.00" />
<rect height="10.849079" width="6.250000" x="433.750000" y="79.264663" fill="rgb(255, 165, 0)" style="fill-opacity:1.00" />
<!-- End 'G' -->
<!-- Begin 'C' -->
<ellipse cx="415.000000" cy="99.906174" rx="25.000000" ry="9.792432" fill="rgb(0, 0, 128)" style="fill-opacity:1.00" />
<ellipse cx="415.000000" cy="99.906174" rx="16.666667" ry="6.528288" fill="rgb(255, 255, 255)" style="fill-opacity:1.00" />
<rect height="9.792432" width="25.000000" x="415.000000" y="95.009958" fill="rgb(255, 255, 255)" style="fill-opacity:1.00" />
<!-- End 'C' -->
<!-- Begin 'A' -->
<polygon points=" 390.000000, 109.976915, 411.000000, 109.698606, 419.000000, 109.698606, 440.000000, 109.976915, 432.500000, 109.976915, 426.250000, 109.907338, 403.750000, 109.907338, 397.500000, 109.976915" fill="rgb(178, 34, 34)" style="fill-opacity:1.00" />
<!-- End 'A' -->
<!-- Begin 'T' -->
<rect height="0.003694" width="50.000000" x="390.000000" y="109.976915" fill="rgb(0, 100, 0)" style="fill-opacity:1.00" />
<rect height="0.023085" width="10.000000" x="410.000000" y="109.976915" fill="rgb(0, 100, 0)" style="fill-opacity:1.00" />
<!-- End 'T' -->
<!-- Begin 'T' -->
<rect height="11.203928" width="50.000000" x="450.000000" y="33.950589" fill="rgb(0, 100, 0)" style="fill-opacity:1.00" />
<rect height="70.024552" width="10.000000" x="470.000000" y="33.950589" fill="rgb(0, 100, 0)" style="fill-opacity:1.00" />
<!-- End 'T' -->
<!-- Begin 'C' -->
<ellipse cx="475.000000" cy="105.672307" rx="25.000000" ry="1.697166" fill="rgb(0, 0, 128)" style="fill-opacity:1.00" />
<ellipse cx="475.000000" cy="105.672307" rx="16.666667" ry="1.131444" fill="rgb(255, 255, 255)" style="fill-opacity:1.00" />
<rect height="1.697166" width="25.000000" x="475.000000" y="104.823724" fill="rgb(255, 255, 255)" style="fill-opacity:1.00" />
<!-- End 'C' -->
<!-- Begin 'A' -->
<polygon points=" 450.000000, 109.989734, 471.000000, 107.369473, 479.000000, 107.369473, 500.000000, 109.989734, 492.500000, 109.989734, 486.250000, 109.334669, 463.750000, 109.334669, 457.500000, 109.989734" fill="rgb(178, 34, 34)" style="fill-opacity:1.00" />
<!-- End 'A' -->
<!-- Begin 'G' -->
<ellipse cx="475.000000" cy="109.994867" rx="25.000000" ry="0.005133" fill="rgb(255, 165, 0)" style="fill-opacity:1.00" />
<ellipse cx="475.000000" cy="109.994867" rx="16.666667" ry="0.003422" fill="rgb(255, 255, 255)" style="fill-opacity:1.00" />
<rect height="0.005133" width="25.000000" x="475.000000" y="109.992301" fill="rgb(255, 255, 255)" style="fill-opacity:1.00" />
<rect height="0.001283" width="25.000000" x="475.000000" y="109.996150" fill="rgb(255, 165, 0)" style="fill-opacity:1.00" />
<rect height="0.003850" width="6.250000" x="493.750000" y="109.996150" fill="rgb(255, 165, 0)" style="fill-opacity:1.00" />
<!-- End 'G' -->
<!-- Begin 'G' -->
<ellipse cx="535.000000" cy="68.719569" rx="25.000000" ry="35.839276" fill="rgb(255, 165, 0)" style="fill-opacity:1.00" />
<ellipse cx="535.000000" cy="68.719569" rx="16.666667" ry="23.892851" fill="rgb(255, 255, 255)" style="fill-opacity:1.00" />
<rect height="35.839276" width="25.000000" x="535.000000" y="50.799931" fill="rgb(255, 255, 255)" style="fill-opacity:1.00" />
<rect height="8.959819" width="25.000000" x="535.000000" y="77.679388" fill="rgb(255, 165, 0)" style="fill-opacity:1.00" />
<rect height="26.879457" width="6.250000" x="553.750000" y="77.679388" fill="rgb(255, 165, 0)" style="fill-opacity:1.00" />
<!-- End 'G' -->
<!-- Begin 'A' -->
<polygon points=" 510.000000, 107.929883, 531.000000, 104.558845, 539.000000, 104.558845, 560.000000, 107.929883, 552.500000, 107.929883, 546.250000, 107.087124, 523.750000, 107.087124, 517.500000, 107.929883" fill="rgb(178, 34, 34)" style="fill-opacity:1.00" />
<!-- End 'A' -->
<!-- Begin 'T' -->
<rect height="0.246666" width="50.000000" x="510.000000" y="107.929883" fill="rgb(0, 100, 0)" style="fill-opacity:1.00" />
<rect height="1.541663" width="10.000000" x="530.000000" y="107.929883" fill="rgb(0, 100, 0)" style="fill-opacity:1.00" />
<!-- End 'T' -->
<!-- Begin 'C' -->
<ellipse cx="535.000000" cy="109.735773" rx="25.000000" ry="0.264227" fill="rgb(0, 0, 128)" style="fill-opacity:1.00" />
<ellipse cx="535.000000" cy="109.735773" rx="16.666667" ry="0.176151" fill="rgb(255, 255, 255)" style="fill-opacity:1.00" />
<rect height="0.264227" width="25.000000" x="535.000000" y="109.603660" fill="rgb(255, 255, 255)" style="fill-opacity:1.00" />
<!-- End 'C' -->
<!-- Begin 'C' -->
<ellipse cx="595.000000" cy="100.101224" rx="25.000000" ry="2.480582" fill="rgb(0, 0, 128)" style="fill-opacity:1.00" />
<ellipse cx="595.000000" cy="100.101224" rx="16.666667" ry="1.653721" fill="rgb(255, 255, 255)" style="fill-opacity:1.00" />
<rect height="2.480582" width="25.000000" x="595.000000" y="98.860933" fill="rgb(255, 255, 255)" style="fill-opacity:1.00" />
<!-- End 'C' -->
<!-- Begin 'T' -->
<rect height="0.689523" width="50.000000" x="570.000000" y="102.581807" fill="rgb(0, 100, 0)" style="fill-opacity:1.00" />
<rect height="4.309518" width="10.000000" x="590.000000" y="102.581807" fill="rgb(0, 100, 0)" style="fill-opacity:1.00" />
<!-- End 'T' -->
<!-- Begin 'G' -->
<ellipse cx="595.000000" cy="108.095940" rx="25.000000" ry="1.204615" fill="rgb(255, 165, 0)" style="fill-opacity:1.00" />
<ellipse cx="595.000000" cy="108.095940" rx="16.666667" ry="0.803077" fill="rgb(255, 255, 255)" style="fill-opacity:1.00" />
<rect height="1.204615" width="25.000000" x="595.000000" y="107.493632" fill="rgb(255, 255, 255)" style="fill-opacity:1.00" />
<rect height="0.301154" width="25.000000" x="595.000000" y="108.397093" fill="rgb(255, 165, 0)" style="fill-opacity:1.00" />
<rect height="0.903461" width="6.250000" x="613.750000" y="108.397093" fill="rgb(255, 165, 0)" style="fill-opacity:1.00" />
<!-- End 'G' -->
<!-- Begin 'A' -->
<polygon points=" 570.000000, 110.000000, 591.000000, 109.300554, 599.000000, 109.300554, 620.000000, 110.000000, 612.500000, 110.000000, 606.250000, 109.825139, 583.750000, 109.825139, 577.500000, 110.000000" fill="rgb(178, 34, 34)" style="fill-opacity:1.00" />
<!-- End 'A' -->
<text x="340.000000" y="165">
IC = 7.87
</text>

</svg>
